G04 #@! TF.GenerationSoftware,KiCad,Pcbnew,(5.0.1)-4*
G04 #@! TF.CreationDate,2019-02-10T23:48:12-08:00*
G04 #@! TF.ProjectId,ActionPanel,416374696F6E50616E656C2E6B696361,rev?*
G04 #@! TF.SameCoordinates,Original*
G04 #@! TF.FileFunction,Legend,Top*
G04 #@! TF.FilePolarity,Positive*
%FSLAX46Y46*%
G04 Gerber Fmt 4.6, Leading zero omitted, Abs format (unit mm)*
G04 Created by KiCad (PCBNEW (5.0.1)-4) date 2/10/2019 11:48:12 PM*
%MOMM*%
%LPD*%
G01*
G04 APERTURE LIST*
%ADD10C,0.300000*%
%ADD11C,0.120000*%
%ADD12C,0.150000*%
G04 APERTURE END LIST*
D10*
X102680000Y-134023571D02*
X102680000Y-132523571D01*
X103537142Y-134023571D02*
X102894285Y-133166428D01*
X103537142Y-132523571D02*
X102680000Y-133380714D01*
X104680000Y-133237857D02*
X104180000Y-133237857D01*
X104180000Y-134023571D02*
X104180000Y-132523571D01*
X104894285Y-132523571D01*
X106322857Y-133880714D02*
X106251428Y-133952142D01*
X106037142Y-134023571D01*
X105894285Y-134023571D01*
X105680000Y-133952142D01*
X105537142Y-133809285D01*
X105465714Y-133666428D01*
X105394285Y-133380714D01*
X105394285Y-133166428D01*
X105465714Y-132880714D01*
X105537142Y-132737857D01*
X105680000Y-132595000D01*
X105894285Y-132523571D01*
X106037142Y-132523571D01*
X106251428Y-132595000D01*
X106322857Y-132666428D01*
X107965714Y-133023571D02*
X108322857Y-134023571D01*
X108680000Y-133023571D01*
X109251428Y-133880714D02*
X109322857Y-133952142D01*
X109251428Y-134023571D01*
X109180000Y-133952142D01*
X109251428Y-133880714D01*
X109251428Y-134023571D01*
X110751428Y-134023571D02*
X109894285Y-134023571D01*
X110322857Y-134023571D02*
X110322857Y-132523571D01*
X110180000Y-132737857D01*
X110037142Y-132880714D01*
X109894285Y-132952142D01*
X99822857Y-136145000D02*
X100537142Y-136145000D01*
X99680000Y-136573571D02*
X100180000Y-135073571D01*
X100680000Y-136573571D01*
X101822857Y-136502142D02*
X101680000Y-136573571D01*
X101394285Y-136573571D01*
X101251428Y-136502142D01*
X101180000Y-136430714D01*
X101108571Y-136287857D01*
X101108571Y-135859285D01*
X101180000Y-135716428D01*
X101251428Y-135645000D01*
X101394285Y-135573571D01*
X101680000Y-135573571D01*
X101822857Y-135645000D01*
X102251428Y-135573571D02*
X102822857Y-135573571D01*
X102465714Y-135073571D02*
X102465714Y-136359285D01*
X102537142Y-136502142D01*
X102680000Y-136573571D01*
X102822857Y-136573571D01*
X103322857Y-136573571D02*
X103322857Y-135573571D01*
X103322857Y-135073571D02*
X103251428Y-135145000D01*
X103322857Y-135216428D01*
X103394285Y-135145000D01*
X103322857Y-135073571D01*
X103322857Y-135216428D01*
X104251428Y-136573571D02*
X104108571Y-136502142D01*
X104037142Y-136430714D01*
X103965714Y-136287857D01*
X103965714Y-135859285D01*
X104037142Y-135716428D01*
X104108571Y-135645000D01*
X104251428Y-135573571D01*
X104465714Y-135573571D01*
X104608571Y-135645000D01*
X104680000Y-135716428D01*
X104751428Y-135859285D01*
X104751428Y-136287857D01*
X104680000Y-136430714D01*
X104608571Y-136502142D01*
X104465714Y-136573571D01*
X104251428Y-136573571D01*
X105394285Y-135573571D02*
X105394285Y-136573571D01*
X105394285Y-135716428D02*
X105465714Y-135645000D01*
X105608571Y-135573571D01*
X105822857Y-135573571D01*
X105965714Y-135645000D01*
X106037142Y-135787857D01*
X106037142Y-136573571D01*
X107894285Y-136573571D02*
X107894285Y-135073571D01*
X108465714Y-135073571D01*
X108608571Y-135145000D01*
X108680000Y-135216428D01*
X108751428Y-135359285D01*
X108751428Y-135573571D01*
X108680000Y-135716428D01*
X108608571Y-135787857D01*
X108465714Y-135859285D01*
X107894285Y-135859285D01*
X110037142Y-136573571D02*
X110037142Y-135787857D01*
X109965714Y-135645000D01*
X109822857Y-135573571D01*
X109537142Y-135573571D01*
X109394285Y-135645000D01*
X110037142Y-136502142D02*
X109894285Y-136573571D01*
X109537142Y-136573571D01*
X109394285Y-136502142D01*
X109322857Y-136359285D01*
X109322857Y-136216428D01*
X109394285Y-136073571D01*
X109537142Y-136002142D01*
X109894285Y-136002142D01*
X110037142Y-135930714D01*
X110751428Y-135573571D02*
X110751428Y-136573571D01*
X110751428Y-135716428D02*
X110822857Y-135645000D01*
X110965714Y-135573571D01*
X111179999Y-135573571D01*
X111322857Y-135645000D01*
X111394285Y-135787857D01*
X111394285Y-136573571D01*
X112679999Y-136502142D02*
X112537142Y-136573571D01*
X112251428Y-136573571D01*
X112108571Y-136502142D01*
X112037142Y-136359285D01*
X112037142Y-135787857D01*
X112108571Y-135645000D01*
X112251428Y-135573571D01*
X112537142Y-135573571D01*
X112679999Y-135645000D01*
X112751428Y-135787857D01*
X112751428Y-135930714D01*
X112037142Y-136073571D01*
X113608571Y-136573571D02*
X113465714Y-136502142D01*
X113394285Y-136359285D01*
X113394285Y-135073571D01*
D11*
G04 #@! TO.C,U2*
X124603000Y-119821000D02*
G75*
G02X126603000Y-119821000I1000000J0D01*
G01*
X126603000Y-119821000D02*
X128253000Y-119821000D01*
X128253000Y-119821000D02*
X128253000Y-96841000D01*
X128253000Y-96841000D02*
X122953000Y-96841000D01*
X122953000Y-96841000D02*
X122953000Y-119821000D01*
X122953000Y-119821000D02*
X124603000Y-119821000D01*
X130743000Y-119881000D02*
X130743000Y-96781000D01*
X130743000Y-96781000D02*
X120463000Y-96781000D01*
X120463000Y-96781000D02*
X120463000Y-119881000D01*
X120463000Y-119881000D02*
X130743000Y-119881000D01*
G04 #@! TO.C,J1*
X123698000Y-135061000D02*
X123698000Y-132401000D01*
X123698000Y-135061000D02*
X136458000Y-135061000D01*
X136458000Y-135061000D02*
X136458000Y-132401000D01*
X123698000Y-132401000D02*
X136458000Y-132401000D01*
X121098000Y-132401000D02*
X122428000Y-132401000D01*
X121098000Y-133731000D02*
X121098000Y-132401000D01*
G04 #@! TO.C,J2*
X148523000Y-85471000D02*
X148523000Y-86801000D01*
X148523000Y-86801000D02*
X147193000Y-86801000D01*
X148523000Y-84201000D02*
X145923000Y-84201000D01*
X145923000Y-84201000D02*
X145923000Y-86801000D01*
X145923000Y-86801000D02*
X133163000Y-86801000D01*
X133163000Y-81601000D02*
X133163000Y-86801000D01*
X148523000Y-81601000D02*
X133163000Y-81601000D01*
X148523000Y-81601000D02*
X148523000Y-84201000D01*
G04 #@! TO.C,J3*
X145348000Y-90491000D02*
X145348000Y-93091000D01*
X145348000Y-90491000D02*
X129988000Y-90491000D01*
X129988000Y-90491000D02*
X129988000Y-95691000D01*
X142748000Y-95691000D02*
X129988000Y-95691000D01*
X142748000Y-93091000D02*
X142748000Y-95691000D01*
X145348000Y-93091000D02*
X142748000Y-93091000D01*
X145348000Y-95691000D02*
X144018000Y-95691000D01*
X145348000Y-94361000D02*
X145348000Y-95691000D01*
G04 #@! TO.C,J4*
X182178000Y-132521000D02*
X179578000Y-132521000D01*
X182178000Y-132521000D02*
X182178000Y-122241000D01*
X182178000Y-122241000D02*
X176978000Y-122241000D01*
X176978000Y-129921000D02*
X176978000Y-122241000D01*
X179578000Y-129921000D02*
X176978000Y-129921000D01*
X179578000Y-132521000D02*
X179578000Y-129921000D01*
X176978000Y-132521000D02*
X176978000Y-131191000D01*
X178308000Y-132521000D02*
X176978000Y-132521000D01*
G04 #@! TO.C,J5*
X173923000Y-57531000D02*
X173923000Y-58861000D01*
X173923000Y-58861000D02*
X172593000Y-58861000D01*
X173923000Y-56261000D02*
X171323000Y-56261000D01*
X171323000Y-56261000D02*
X171323000Y-58861000D01*
X171323000Y-58861000D02*
X158563000Y-58861000D01*
X158563000Y-53661000D02*
X158563000Y-58861000D01*
X173923000Y-53661000D02*
X158563000Y-53661000D01*
X173923000Y-53661000D02*
X173923000Y-56261000D01*
G04 #@! TO.C,J6*
X147133000Y-95691000D02*
X147133000Y-93091000D01*
X147133000Y-95691000D02*
X162493000Y-95691000D01*
X162493000Y-95691000D02*
X162493000Y-90491000D01*
X149733000Y-90491000D02*
X162493000Y-90491000D01*
X149733000Y-93091000D02*
X149733000Y-90491000D01*
X147133000Y-93091000D02*
X149733000Y-93091000D01*
X147133000Y-90491000D02*
X148463000Y-90491000D01*
X147133000Y-91821000D02*
X147133000Y-90491000D01*
G04 #@! TO.C,J7*
X163643000Y-91821000D02*
X163643000Y-90491000D01*
X163643000Y-90491000D02*
X164973000Y-90491000D01*
X163643000Y-93091000D02*
X166243000Y-93091000D01*
X166243000Y-93091000D02*
X166243000Y-90491000D01*
X166243000Y-90491000D02*
X173923000Y-90491000D01*
X173923000Y-95691000D02*
X173923000Y-90491000D01*
X163643000Y-95691000D02*
X173923000Y-95691000D01*
X163643000Y-95691000D02*
X163643000Y-93091000D01*
G04 #@! TO.C,J8*
X152968000Y-67751000D02*
X150368000Y-67751000D01*
X152968000Y-67751000D02*
X152968000Y-52391000D01*
X152968000Y-52391000D02*
X147768000Y-52391000D01*
X147768000Y-65151000D02*
X147768000Y-52391000D01*
X150368000Y-65151000D02*
X147768000Y-65151000D01*
X150368000Y-67751000D02*
X150368000Y-65151000D01*
X147768000Y-67751000D02*
X147768000Y-66421000D01*
X149098000Y-67751000D02*
X147768000Y-67751000D01*
G04 #@! TO.C,Q1*
X131353098Y-128727084D02*
X130462144Y-129618039D01*
X130462144Y-129618039D02*
X131239961Y-130395856D01*
X131239961Y-130395856D02*
X132130916Y-129504902D01*
X132130629Y-129504674D02*
G75*
G03X131353098Y-128727084I2997371J3774674D01*
G01*
G04 #@! TO.C,R1*
X123856000Y-123556000D02*
X122016000Y-123556000D01*
X122016000Y-123556000D02*
X122016000Y-127396000D01*
X122016000Y-127396000D02*
X123856000Y-127396000D01*
X123856000Y-127396000D02*
X123856000Y-123556000D01*
X122936000Y-122606000D02*
X122936000Y-123556000D01*
X122936000Y-128346000D02*
X122936000Y-127396000D01*
G04 #@! TO.C,R2*
X126650000Y-123556000D02*
X124810000Y-123556000D01*
X124810000Y-123556000D02*
X124810000Y-127396000D01*
X124810000Y-127396000D02*
X126650000Y-127396000D01*
X126650000Y-127396000D02*
X126650000Y-123556000D01*
X125730000Y-122606000D02*
X125730000Y-123556000D01*
X125730000Y-128346000D02*
X125730000Y-127396000D01*
G04 #@! TO.C,R7*
X155798000Y-126761000D02*
X157638000Y-126761000D01*
X157638000Y-126761000D02*
X157638000Y-122921000D01*
X157638000Y-122921000D02*
X155798000Y-122921000D01*
X155798000Y-122921000D02*
X155798000Y-126761000D01*
X156718000Y-127711000D02*
X156718000Y-126761000D01*
X156718000Y-121971000D02*
X156718000Y-122921000D01*
G04 #@! TO.C,R8*
X159258000Y-121971000D02*
X159258000Y-122921000D01*
X159258000Y-127711000D02*
X159258000Y-126761000D01*
X158338000Y-122921000D02*
X158338000Y-126761000D01*
X160178000Y-122921000D02*
X158338000Y-122921000D01*
X160178000Y-126761000D02*
X160178000Y-122921000D01*
X158338000Y-126761000D02*
X160178000Y-126761000D01*
G04 #@! TO.C,R9*
X173513000Y-125461000D02*
X171673000Y-125461000D01*
X171673000Y-125461000D02*
X171673000Y-129301000D01*
X171673000Y-129301000D02*
X173513000Y-129301000D01*
X173513000Y-129301000D02*
X173513000Y-125461000D01*
X172593000Y-124511000D02*
X172593000Y-125461000D01*
X172593000Y-130251000D02*
X172593000Y-129301000D01*
G04 #@! TO.C,R10*
X170053000Y-130251000D02*
X170053000Y-129301000D01*
X170053000Y-124511000D02*
X170053000Y-125461000D01*
X170973000Y-129301000D02*
X170973000Y-125461000D01*
X169133000Y-129301000D02*
X170973000Y-129301000D01*
X169133000Y-125461000D02*
X169133000Y-129301000D01*
X170973000Y-125461000D02*
X169133000Y-125461000D01*
G04 #@! TO.C,R11*
X168433000Y-125461000D02*
X166593000Y-125461000D01*
X166593000Y-125461000D02*
X166593000Y-129301000D01*
X166593000Y-129301000D02*
X168433000Y-129301000D01*
X168433000Y-129301000D02*
X168433000Y-125461000D01*
X167513000Y-124511000D02*
X167513000Y-125461000D01*
X167513000Y-130251000D02*
X167513000Y-129301000D01*
G04 #@! TO.C,R12*
X164973000Y-130251000D02*
X164973000Y-129301000D01*
X164973000Y-124511000D02*
X164973000Y-125461000D01*
X165893000Y-129301000D02*
X165893000Y-125461000D01*
X164053000Y-129301000D02*
X165893000Y-129301000D01*
X164053000Y-125461000D02*
X164053000Y-129301000D01*
X165893000Y-125461000D02*
X164053000Y-125461000D01*
G04 #@! TO.C,R13*
X173513000Y-62596000D02*
X171673000Y-62596000D01*
X171673000Y-62596000D02*
X171673000Y-66436000D01*
X171673000Y-66436000D02*
X173513000Y-66436000D01*
X173513000Y-66436000D02*
X173513000Y-62596000D01*
X172593000Y-61646000D02*
X172593000Y-62596000D01*
X172593000Y-67386000D02*
X172593000Y-66436000D01*
G04 #@! TO.C,R14*
X158273000Y-62596000D02*
X156433000Y-62596000D01*
X156433000Y-62596000D02*
X156433000Y-66436000D01*
X156433000Y-66436000D02*
X158273000Y-66436000D01*
X158273000Y-66436000D02*
X158273000Y-62596000D01*
X157353000Y-61646000D02*
X157353000Y-62596000D01*
X157353000Y-67386000D02*
X157353000Y-66436000D01*
G04 #@! TO.C,R15*
X170053000Y-67386000D02*
X170053000Y-66436000D01*
X170053000Y-61646000D02*
X170053000Y-62596000D01*
X170973000Y-66436000D02*
X170973000Y-62596000D01*
X169133000Y-66436000D02*
X170973000Y-66436000D01*
X169133000Y-62596000D02*
X169133000Y-66436000D01*
X170973000Y-62596000D02*
X169133000Y-62596000D01*
G04 #@! TO.C,R16*
X154813000Y-67386000D02*
X154813000Y-66436000D01*
X154813000Y-61646000D02*
X154813000Y-62596000D01*
X155733000Y-66436000D02*
X155733000Y-62596000D01*
X153893000Y-66436000D02*
X155733000Y-66436000D01*
X153893000Y-62596000D02*
X153893000Y-66436000D01*
X155733000Y-62596000D02*
X153893000Y-62596000D01*
G04 #@! TO.C,R17*
X164053000Y-86756000D02*
X165893000Y-86756000D01*
X165893000Y-86756000D02*
X165893000Y-82916000D01*
X165893000Y-82916000D02*
X164053000Y-82916000D01*
X164053000Y-82916000D02*
X164053000Y-86756000D01*
X164973000Y-87706000D02*
X164973000Y-86756000D01*
X164973000Y-81966000D02*
X164973000Y-82916000D01*
G04 #@! TO.C,R18*
X168433000Y-62596000D02*
X166593000Y-62596000D01*
X166593000Y-62596000D02*
X166593000Y-66436000D01*
X166593000Y-66436000D02*
X168433000Y-66436000D01*
X168433000Y-66436000D02*
X168433000Y-62596000D01*
X167513000Y-61646000D02*
X167513000Y-62596000D01*
X167513000Y-67386000D02*
X167513000Y-66436000D01*
G04 #@! TO.C,R19*
X153893000Y-86756000D02*
X155733000Y-86756000D01*
X155733000Y-86756000D02*
X155733000Y-82916000D01*
X155733000Y-82916000D02*
X153893000Y-82916000D01*
X153893000Y-82916000D02*
X153893000Y-86756000D01*
X154813000Y-87706000D02*
X154813000Y-86756000D01*
X154813000Y-81966000D02*
X154813000Y-82916000D01*
G04 #@! TO.C,R20*
X167513000Y-81966000D02*
X167513000Y-82916000D01*
X167513000Y-87706000D02*
X167513000Y-86756000D01*
X166593000Y-82916000D02*
X166593000Y-86756000D01*
X168433000Y-82916000D02*
X166593000Y-82916000D01*
X168433000Y-86756000D02*
X168433000Y-82916000D01*
X166593000Y-86756000D02*
X168433000Y-86756000D01*
G04 #@! TO.C,R23*
X164973000Y-67386000D02*
X164973000Y-66436000D01*
X164973000Y-61646000D02*
X164973000Y-62596000D01*
X165893000Y-66436000D02*
X165893000Y-62596000D01*
X164053000Y-66436000D02*
X165893000Y-66436000D01*
X164053000Y-62596000D02*
X164053000Y-66436000D01*
X165893000Y-62596000D02*
X164053000Y-62596000D01*
G04 #@! TO.C,R24*
X157353000Y-81966000D02*
X157353000Y-82916000D01*
X157353000Y-87706000D02*
X157353000Y-86756000D01*
X156433000Y-82916000D02*
X156433000Y-86756000D01*
X158273000Y-82916000D02*
X156433000Y-82916000D01*
X158273000Y-86756000D02*
X158273000Y-82916000D01*
X156433000Y-86756000D02*
X158273000Y-86756000D01*
G04 #@! TO.C,R25*
X169133000Y-86756000D02*
X170973000Y-86756000D01*
X170973000Y-86756000D02*
X170973000Y-82916000D01*
X170973000Y-82916000D02*
X169133000Y-82916000D01*
X169133000Y-82916000D02*
X169133000Y-86756000D01*
X170053000Y-87706000D02*
X170053000Y-86756000D01*
X170053000Y-81966000D02*
X170053000Y-82916000D01*
G04 #@! TO.C,R26*
X163353000Y-62596000D02*
X161513000Y-62596000D01*
X161513000Y-62596000D02*
X161513000Y-66436000D01*
X161513000Y-66436000D02*
X163353000Y-66436000D01*
X163353000Y-66436000D02*
X163353000Y-62596000D01*
X162433000Y-61646000D02*
X162433000Y-62596000D01*
X162433000Y-67386000D02*
X162433000Y-66436000D01*
G04 #@! TO.C,R27*
X158973000Y-86756000D02*
X160813000Y-86756000D01*
X160813000Y-86756000D02*
X160813000Y-82916000D01*
X160813000Y-82916000D02*
X158973000Y-82916000D01*
X158973000Y-82916000D02*
X158973000Y-86756000D01*
X159893000Y-87706000D02*
X159893000Y-86756000D01*
X159893000Y-81966000D02*
X159893000Y-82916000D01*
G04 #@! TO.C,R28*
X172593000Y-81966000D02*
X172593000Y-82916000D01*
X172593000Y-87706000D02*
X172593000Y-86756000D01*
X171673000Y-82916000D02*
X171673000Y-86756000D01*
X173513000Y-82916000D02*
X171673000Y-82916000D01*
X173513000Y-86756000D02*
X173513000Y-82916000D01*
X171673000Y-86756000D02*
X173513000Y-86756000D01*
G04 #@! TO.C,R29*
X159893000Y-67386000D02*
X159893000Y-66436000D01*
X159893000Y-61646000D02*
X159893000Y-62596000D01*
X160813000Y-66436000D02*
X160813000Y-62596000D01*
X158973000Y-66436000D02*
X160813000Y-66436000D01*
X158973000Y-62596000D02*
X158973000Y-66436000D01*
X160813000Y-62596000D02*
X158973000Y-62596000D01*
G04 #@! TO.C,R30*
X162433000Y-81966000D02*
X162433000Y-82916000D01*
X162433000Y-87706000D02*
X162433000Y-86756000D01*
X161513000Y-82916000D02*
X161513000Y-86756000D01*
X163353000Y-82916000D02*
X161513000Y-82916000D01*
X163353000Y-86756000D02*
X163353000Y-82916000D01*
X161513000Y-86756000D02*
X163353000Y-86756000D01*
G04 #@! TO.C,R31*
X136068000Y-66421000D02*
X137018000Y-66421000D01*
X141808000Y-66421000D02*
X140858000Y-66421000D01*
X137018000Y-67341000D02*
X140858000Y-67341000D01*
X137018000Y-65501000D02*
X137018000Y-67341000D01*
X140858000Y-65501000D02*
X137018000Y-65501000D01*
X140858000Y-67341000D02*
X140858000Y-65501000D01*
G04 #@! TO.C,R32*
X136068000Y-63881000D02*
X137018000Y-63881000D01*
X141808000Y-63881000D02*
X140858000Y-63881000D01*
X137018000Y-64801000D02*
X140858000Y-64801000D01*
X137018000Y-62961000D02*
X137018000Y-64801000D01*
X140858000Y-62961000D02*
X137018000Y-62961000D01*
X140858000Y-64801000D02*
X140858000Y-62961000D01*
G04 #@! TO.C,R33*
X136068000Y-61341000D02*
X137018000Y-61341000D01*
X141808000Y-61341000D02*
X140858000Y-61341000D01*
X137018000Y-62261000D02*
X140858000Y-62261000D01*
X137018000Y-60421000D02*
X137018000Y-62261000D01*
X140858000Y-60421000D02*
X137018000Y-60421000D01*
X140858000Y-62261000D02*
X140858000Y-60421000D01*
G04 #@! TO.C,R34*
X140858000Y-59721000D02*
X140858000Y-57881000D01*
X140858000Y-57881000D02*
X137018000Y-57881000D01*
X137018000Y-57881000D02*
X137018000Y-59721000D01*
X137018000Y-59721000D02*
X140858000Y-59721000D01*
X141808000Y-58801000D02*
X140858000Y-58801000D01*
X136068000Y-58801000D02*
X137018000Y-58801000D01*
G04 #@! TO.C,R35*
X140858000Y-57181000D02*
X140858000Y-55341000D01*
X140858000Y-55341000D02*
X137018000Y-55341000D01*
X137018000Y-55341000D02*
X137018000Y-57181000D01*
X137018000Y-57181000D02*
X140858000Y-57181000D01*
X141808000Y-56261000D02*
X140858000Y-56261000D01*
X136068000Y-56261000D02*
X137018000Y-56261000D01*
G04 #@! TO.C,R36*
X118268000Y-61326000D02*
X116428000Y-61326000D01*
X116428000Y-61326000D02*
X116428000Y-65166000D01*
X116428000Y-65166000D02*
X118268000Y-65166000D01*
X118268000Y-65166000D02*
X118268000Y-61326000D01*
X117348000Y-60376000D02*
X117348000Y-61326000D01*
X117348000Y-66116000D02*
X117348000Y-65166000D01*
G04 #@! TO.C,R37*
X117348000Y-78816000D02*
X117348000Y-77866000D01*
X117348000Y-73076000D02*
X117348000Y-74026000D01*
X118268000Y-77866000D02*
X118268000Y-74026000D01*
X116428000Y-77866000D02*
X118268000Y-77866000D01*
X116428000Y-74026000D02*
X116428000Y-77866000D01*
X118268000Y-74026000D02*
X116428000Y-74026000D01*
G04 #@! TO.C,R38*
X118268000Y-86726000D02*
X116428000Y-86726000D01*
X116428000Y-86726000D02*
X116428000Y-90566000D01*
X116428000Y-90566000D02*
X118268000Y-90566000D01*
X118268000Y-90566000D02*
X118268000Y-86726000D01*
X117348000Y-85776000D02*
X117348000Y-86726000D01*
X117348000Y-91516000D02*
X117348000Y-90566000D01*
G04 #@! TO.C,R39*
X117348000Y-104216000D02*
X117348000Y-103266000D01*
X117348000Y-98476000D02*
X117348000Y-99426000D01*
X118268000Y-103266000D02*
X118268000Y-99426000D01*
X116428000Y-103266000D02*
X118268000Y-103266000D01*
X116428000Y-99426000D02*
X116428000Y-103266000D01*
X118268000Y-99426000D02*
X116428000Y-99426000D01*
G04 #@! TO.C,R40*
X118268000Y-111491000D02*
X116428000Y-111491000D01*
X116428000Y-111491000D02*
X116428000Y-115331000D01*
X116428000Y-115331000D02*
X118268000Y-115331000D01*
X118268000Y-115331000D02*
X118268000Y-111491000D01*
X117348000Y-110541000D02*
X117348000Y-111491000D01*
X117348000Y-116281000D02*
X117348000Y-115331000D01*
G04 #@! TO.C,R41*
X178308000Y-62916000D02*
X178308000Y-63866000D01*
X178308000Y-68656000D02*
X178308000Y-67706000D01*
X177388000Y-63866000D02*
X177388000Y-67706000D01*
X179228000Y-63866000D02*
X177388000Y-63866000D01*
X179228000Y-67706000D02*
X179228000Y-63866000D01*
X177388000Y-67706000D02*
X179228000Y-67706000D01*
G04 #@! TO.C,R42*
X177388000Y-80406000D02*
X179228000Y-80406000D01*
X179228000Y-80406000D02*
X179228000Y-76566000D01*
X179228000Y-76566000D02*
X177388000Y-76566000D01*
X177388000Y-76566000D02*
X177388000Y-80406000D01*
X178308000Y-81356000D02*
X178308000Y-80406000D01*
X178308000Y-75616000D02*
X178308000Y-76566000D01*
G04 #@! TO.C,R43*
X178308000Y-88316000D02*
X178308000Y-89266000D01*
X178308000Y-94056000D02*
X178308000Y-93106000D01*
X177388000Y-89266000D02*
X177388000Y-93106000D01*
X179228000Y-89266000D02*
X177388000Y-89266000D01*
X179228000Y-93106000D02*
X179228000Y-89266000D01*
X177388000Y-93106000D02*
X179228000Y-93106000D01*
G04 #@! TO.C,R44*
X177388000Y-105806000D02*
X179228000Y-105806000D01*
X179228000Y-105806000D02*
X179228000Y-101966000D01*
X179228000Y-101966000D02*
X177388000Y-101966000D01*
X177388000Y-101966000D02*
X177388000Y-105806000D01*
X178308000Y-106756000D02*
X178308000Y-105806000D01*
X178308000Y-101016000D02*
X178308000Y-101966000D01*
G04 #@! TO.C,R45*
X178308000Y-113716000D02*
X178308000Y-114666000D01*
X178308000Y-119456000D02*
X178308000Y-118506000D01*
X177388000Y-114666000D02*
X177388000Y-118506000D01*
X179228000Y-114666000D02*
X177388000Y-114666000D01*
X179228000Y-118506000D02*
X179228000Y-114666000D01*
X177388000Y-118506000D02*
X179228000Y-118506000D01*
G04 #@! TO.C,R46*
X136068000Y-53721000D02*
X137018000Y-53721000D01*
X141808000Y-53721000D02*
X140858000Y-53721000D01*
X137018000Y-54641000D02*
X140858000Y-54641000D01*
X137018000Y-52801000D02*
X137018000Y-54641000D01*
X140858000Y-52801000D02*
X137018000Y-52801000D01*
X140858000Y-54641000D02*
X140858000Y-52801000D01*
G04 #@! TO.C,SW1*
X100938000Y-58326000D02*
X113238000Y-58326000D01*
X113238000Y-62906000D02*
X113238000Y-66046000D01*
X113238000Y-70626000D02*
X100938000Y-70626000D01*
X100938000Y-61046000D02*
X100938000Y-58326000D01*
X111767050Y-64516000D02*
G75*
G03X111767050Y-64516000I-4579050J0D01*
G01*
X100938000Y-70626000D02*
X100938000Y-67906000D01*
X100938000Y-66046000D02*
X100938000Y-62906000D01*
X113238000Y-67906000D02*
X113238000Y-70626000D01*
X113238000Y-58326000D02*
X113238000Y-61046000D01*
G04 #@! TO.C,SW2*
X100938000Y-71026000D02*
X113238000Y-71026000D01*
X113238000Y-75606000D02*
X113238000Y-78746000D01*
X113238000Y-83326000D02*
X100938000Y-83326000D01*
X100938000Y-73746000D02*
X100938000Y-71026000D01*
X111767050Y-77216000D02*
G75*
G03X111767050Y-77216000I-4579050J0D01*
G01*
X100938000Y-83326000D02*
X100938000Y-80606000D01*
X100938000Y-78746000D02*
X100938000Y-75606000D01*
X113238000Y-80606000D02*
X113238000Y-83326000D01*
X113238000Y-71026000D02*
X113238000Y-73746000D01*
G04 #@! TO.C,SW3*
X100938000Y-83726000D02*
X113238000Y-83726000D01*
X113238000Y-88306000D02*
X113238000Y-91446000D01*
X113238000Y-96026000D02*
X100938000Y-96026000D01*
X100938000Y-86446000D02*
X100938000Y-83726000D01*
X111767050Y-89916000D02*
G75*
G03X111767050Y-89916000I-4579050J0D01*
G01*
X100938000Y-96026000D02*
X100938000Y-93306000D01*
X100938000Y-91446000D02*
X100938000Y-88306000D01*
X113238000Y-93306000D02*
X113238000Y-96026000D01*
X113238000Y-83726000D02*
X113238000Y-86446000D01*
G04 #@! TO.C,SW4*
X100938000Y-96426000D02*
X113238000Y-96426000D01*
X113238000Y-101006000D02*
X113238000Y-104146000D01*
X113238000Y-108726000D02*
X100938000Y-108726000D01*
X100938000Y-99146000D02*
X100938000Y-96426000D01*
X111767050Y-102616000D02*
G75*
G03X111767050Y-102616000I-4579050J0D01*
G01*
X100938000Y-108726000D02*
X100938000Y-106006000D01*
X100938000Y-104146000D02*
X100938000Y-101006000D01*
X113238000Y-106006000D02*
X113238000Y-108726000D01*
X113238000Y-96426000D02*
X113238000Y-99146000D01*
G04 #@! TO.C,SW5*
X113238000Y-109126000D02*
X113238000Y-111846000D01*
X113238000Y-118706000D02*
X113238000Y-121426000D01*
X100938000Y-116846000D02*
X100938000Y-113706000D01*
X100938000Y-121426000D02*
X100938000Y-118706000D01*
X111767050Y-115316000D02*
G75*
G03X111767050Y-115316000I-4579050J0D01*
G01*
X100938000Y-111846000D02*
X100938000Y-109126000D01*
X113238000Y-121426000D02*
X100938000Y-121426000D01*
X113238000Y-113706000D02*
X113238000Y-116846000D01*
X100938000Y-109126000D02*
X113238000Y-109126000D01*
G04 #@! TO.C,SW6*
X194518000Y-58326000D02*
X194518000Y-61046000D01*
X194518000Y-67906000D02*
X194518000Y-70626000D01*
X182218000Y-66046000D02*
X182218000Y-62906000D01*
X182218000Y-70626000D02*
X182218000Y-67906000D01*
X193047050Y-64516000D02*
G75*
G03X193047050Y-64516000I-4579050J0D01*
G01*
X182218000Y-61046000D02*
X182218000Y-58326000D01*
X194518000Y-70626000D02*
X182218000Y-70626000D01*
X194518000Y-62906000D02*
X194518000Y-66046000D01*
X182218000Y-58326000D02*
X194518000Y-58326000D01*
G04 #@! TO.C,SW7*
X182218000Y-71026000D02*
X194518000Y-71026000D01*
X194518000Y-75606000D02*
X194518000Y-78746000D01*
X194518000Y-83326000D02*
X182218000Y-83326000D01*
X182218000Y-73746000D02*
X182218000Y-71026000D01*
X193047050Y-77216000D02*
G75*
G03X193047050Y-77216000I-4579050J0D01*
G01*
X182218000Y-83326000D02*
X182218000Y-80606000D01*
X182218000Y-78746000D02*
X182218000Y-75606000D01*
X194518000Y-80606000D02*
X194518000Y-83326000D01*
X194518000Y-71026000D02*
X194518000Y-73746000D01*
G04 #@! TO.C,SW8*
X194518000Y-83726000D02*
X194518000Y-86446000D01*
X194518000Y-93306000D02*
X194518000Y-96026000D01*
X182218000Y-91446000D02*
X182218000Y-88306000D01*
X182218000Y-96026000D02*
X182218000Y-93306000D01*
X193047050Y-89916000D02*
G75*
G03X193047050Y-89916000I-4579050J0D01*
G01*
X182218000Y-86446000D02*
X182218000Y-83726000D01*
X194518000Y-96026000D02*
X182218000Y-96026000D01*
X194518000Y-88306000D02*
X194518000Y-91446000D01*
X182218000Y-83726000D02*
X194518000Y-83726000D01*
G04 #@! TO.C,SW9*
X194518000Y-96426000D02*
X194518000Y-99146000D01*
X194518000Y-106006000D02*
X194518000Y-108726000D01*
X182218000Y-104146000D02*
X182218000Y-101006000D01*
X182218000Y-108726000D02*
X182218000Y-106006000D01*
X193047050Y-102616000D02*
G75*
G03X193047050Y-102616000I-4579050J0D01*
G01*
X182218000Y-99146000D02*
X182218000Y-96426000D01*
X194518000Y-108726000D02*
X182218000Y-108726000D01*
X194518000Y-101006000D02*
X194518000Y-104146000D01*
X182218000Y-96426000D02*
X194518000Y-96426000D01*
G04 #@! TO.C,SW10*
X194518000Y-109126000D02*
X194518000Y-111846000D01*
X194518000Y-118706000D02*
X194518000Y-121426000D01*
X182218000Y-116846000D02*
X182218000Y-113706000D01*
X182218000Y-121426000D02*
X182218000Y-118706000D01*
X193047050Y-115316000D02*
G75*
G03X193047050Y-115316000I-4579050J0D01*
G01*
X182218000Y-111846000D02*
X182218000Y-109126000D01*
X194518000Y-121426000D02*
X182218000Y-121426000D01*
X194518000Y-113706000D02*
X194518000Y-116846000D01*
X182218000Y-109126000D02*
X194518000Y-109126000D01*
G04 #@! TO.C,D1*
X134878000Y-99591000D02*
X134878000Y-101831000D01*
X135118000Y-99591000D02*
X135118000Y-101831000D01*
X134998000Y-99591000D02*
X134998000Y-101831000D01*
X139168000Y-100711000D02*
X138518000Y-100711000D01*
X133628000Y-100711000D02*
X134278000Y-100711000D01*
X138518000Y-99591000D02*
X134278000Y-99591000D01*
X138518000Y-101831000D02*
X138518000Y-99591000D01*
X134278000Y-101831000D02*
X138518000Y-101831000D01*
X134278000Y-99591000D02*
X134278000Y-101831000D01*
G04 #@! TO.C,D2*
X134278000Y-102131000D02*
X134278000Y-104371000D01*
X134278000Y-104371000D02*
X138518000Y-104371000D01*
X138518000Y-104371000D02*
X138518000Y-102131000D01*
X138518000Y-102131000D02*
X134278000Y-102131000D01*
X133628000Y-103251000D02*
X134278000Y-103251000D01*
X139168000Y-103251000D02*
X138518000Y-103251000D01*
X134998000Y-102131000D02*
X134998000Y-104371000D01*
X135118000Y-102131000D02*
X135118000Y-104371000D01*
X134878000Y-102131000D02*
X134878000Y-104371000D01*
G04 #@! TO.C,D3*
X134878000Y-104686001D02*
X134878000Y-106926001D01*
X135118000Y-104686001D02*
X135118000Y-106926001D01*
X134998000Y-104686001D02*
X134998000Y-106926001D01*
X139168000Y-105806001D02*
X138518000Y-105806001D01*
X133628000Y-105806001D02*
X134278000Y-105806001D01*
X138518000Y-104686001D02*
X134278000Y-104686001D01*
X138518000Y-106926001D02*
X138518000Y-104686001D01*
X134278000Y-106926001D02*
X138518000Y-106926001D01*
X134278000Y-104686001D02*
X134278000Y-106926001D01*
G04 #@! TO.C,D4*
X134278000Y-107211000D02*
X134278000Y-109451000D01*
X134278000Y-109451000D02*
X138518000Y-109451000D01*
X138518000Y-109451000D02*
X138518000Y-107211000D01*
X138518000Y-107211000D02*
X134278000Y-107211000D01*
X133628000Y-108331000D02*
X134278000Y-108331000D01*
X139168000Y-108331000D02*
X138518000Y-108331000D01*
X134998000Y-107211000D02*
X134998000Y-109451000D01*
X135118000Y-107211000D02*
X135118000Y-109451000D01*
X134878000Y-107211000D02*
X134878000Y-109451000D01*
G04 #@! TO.C,D5*
X134878000Y-109751000D02*
X134878000Y-111991000D01*
X135118000Y-109751000D02*
X135118000Y-111991000D01*
X134998000Y-109751000D02*
X134998000Y-111991000D01*
X139168000Y-110871000D02*
X138518000Y-110871000D01*
X133628000Y-110871000D02*
X134278000Y-110871000D01*
X138518000Y-109751000D02*
X134278000Y-109751000D01*
X138518000Y-111991000D02*
X138518000Y-109751000D01*
X134278000Y-111991000D02*
X138518000Y-111991000D01*
X134278000Y-109751000D02*
X134278000Y-111991000D01*
G04 #@! TO.C,D6*
X134278000Y-112291000D02*
X134278000Y-114531000D01*
X134278000Y-114531000D02*
X138518000Y-114531000D01*
X138518000Y-114531000D02*
X138518000Y-112291000D01*
X138518000Y-112291000D02*
X134278000Y-112291000D01*
X133628000Y-113411000D02*
X134278000Y-113411000D01*
X139168000Y-113411000D02*
X138518000Y-113411000D01*
X134998000Y-112291000D02*
X134998000Y-114531000D01*
X135118000Y-112291000D02*
X135118000Y-114531000D01*
X134878000Y-112291000D02*
X134878000Y-114531000D01*
G04 #@! TO.C,D7*
X134878000Y-114831000D02*
X134878000Y-117071000D01*
X135118000Y-114831000D02*
X135118000Y-117071000D01*
X134998000Y-114831000D02*
X134998000Y-117071000D01*
X139168000Y-115951000D02*
X138518000Y-115951000D01*
X133628000Y-115951000D02*
X134278000Y-115951000D01*
X138518000Y-114831000D02*
X134278000Y-114831000D01*
X138518000Y-117071000D02*
X138518000Y-114831000D01*
X134278000Y-117071000D02*
X138518000Y-117071000D01*
X134278000Y-114831000D02*
X134278000Y-117071000D01*
G04 #@! TO.C,D8*
X134278000Y-117371000D02*
X134278000Y-119611000D01*
X134278000Y-119611000D02*
X138518000Y-119611000D01*
X138518000Y-119611000D02*
X138518000Y-117371000D01*
X138518000Y-117371000D02*
X134278000Y-117371000D01*
X133628000Y-118491000D02*
X134278000Y-118491000D01*
X139168000Y-118491000D02*
X138518000Y-118491000D01*
X134998000Y-117371000D02*
X134998000Y-119611000D01*
X135118000Y-117371000D02*
X135118000Y-119611000D01*
X134878000Y-117371000D02*
X134878000Y-119611000D01*
G04 #@! TO.C,D9*
X160108000Y-119611000D02*
X160108000Y-117371000D01*
X160108000Y-117371000D02*
X155868000Y-117371000D01*
X155868000Y-117371000D02*
X155868000Y-119611000D01*
X155868000Y-119611000D02*
X160108000Y-119611000D01*
X160758000Y-118491000D02*
X160108000Y-118491000D01*
X155218000Y-118491000D02*
X155868000Y-118491000D01*
X159388000Y-119611000D02*
X159388000Y-117371000D01*
X159268000Y-119611000D02*
X159268000Y-117371000D01*
X159508000Y-119611000D02*
X159508000Y-117371000D01*
G04 #@! TO.C,D10*
X159508000Y-117071000D02*
X159508000Y-114831000D01*
X159268000Y-117071000D02*
X159268000Y-114831000D01*
X159388000Y-117071000D02*
X159388000Y-114831000D01*
X155218000Y-115951000D02*
X155868000Y-115951000D01*
X160758000Y-115951000D02*
X160108000Y-115951000D01*
X155868000Y-117071000D02*
X160108000Y-117071000D01*
X155868000Y-114831000D02*
X155868000Y-117071000D01*
X160108000Y-114831000D02*
X155868000Y-114831000D01*
X160108000Y-117071000D02*
X160108000Y-114831000D01*
G04 #@! TO.C,D11*
X160108000Y-114531000D02*
X160108000Y-112291000D01*
X160108000Y-112291000D02*
X155868000Y-112291000D01*
X155868000Y-112291000D02*
X155868000Y-114531000D01*
X155868000Y-114531000D02*
X160108000Y-114531000D01*
X160758000Y-113411000D02*
X160108000Y-113411000D01*
X155218000Y-113411000D02*
X155868000Y-113411000D01*
X159388000Y-114531000D02*
X159388000Y-112291000D01*
X159268000Y-114531000D02*
X159268000Y-112291000D01*
X159508000Y-114531000D02*
X159508000Y-112291000D01*
G04 #@! TO.C,D12*
X159508000Y-111991000D02*
X159508000Y-109751000D01*
X159268000Y-111991000D02*
X159268000Y-109751000D01*
X159388000Y-111991000D02*
X159388000Y-109751000D01*
X155218000Y-110871000D02*
X155868000Y-110871000D01*
X160758000Y-110871000D02*
X160108000Y-110871000D01*
X155868000Y-111991000D02*
X160108000Y-111991000D01*
X155868000Y-109751000D02*
X155868000Y-111991000D01*
X160108000Y-109751000D02*
X155868000Y-109751000D01*
X160108000Y-111991000D02*
X160108000Y-109751000D01*
G04 #@! TO.C,D13*
X160108000Y-109451000D02*
X160108000Y-107211000D01*
X160108000Y-107211000D02*
X155868000Y-107211000D01*
X155868000Y-107211000D02*
X155868000Y-109451000D01*
X155868000Y-109451000D02*
X160108000Y-109451000D01*
X160758000Y-108331000D02*
X160108000Y-108331000D01*
X155218000Y-108331000D02*
X155868000Y-108331000D01*
X159388000Y-109451000D02*
X159388000Y-107211000D01*
X159268000Y-109451000D02*
X159268000Y-107211000D01*
X159508000Y-109451000D02*
X159508000Y-107211000D01*
G04 #@! TO.C,D14*
X159508000Y-106911000D02*
X159508000Y-104671000D01*
X159268000Y-106911000D02*
X159268000Y-104671000D01*
X159388000Y-106911000D02*
X159388000Y-104671000D01*
X155218000Y-105791000D02*
X155868000Y-105791000D01*
X160758000Y-105791000D02*
X160108000Y-105791000D01*
X155868000Y-106911000D02*
X160108000Y-106911000D01*
X155868000Y-104671000D02*
X155868000Y-106911000D01*
X160108000Y-104671000D02*
X155868000Y-104671000D01*
X160108000Y-106911000D02*
X160108000Y-104671000D01*
G04 #@! TO.C,D15*
X160102999Y-104325999D02*
X160102999Y-102085999D01*
X160102999Y-102085999D02*
X155862999Y-102085999D01*
X155862999Y-102085999D02*
X155862999Y-104325999D01*
X155862999Y-104325999D02*
X160102999Y-104325999D01*
X160752999Y-103205999D02*
X160102999Y-103205999D01*
X155212999Y-103205999D02*
X155862999Y-103205999D01*
X159382999Y-104325999D02*
X159382999Y-102085999D01*
X159262999Y-104325999D02*
X159262999Y-102085999D01*
X159502999Y-104325999D02*
X159502999Y-102085999D01*
G04 #@! TO.C,D16*
X159502999Y-101775999D02*
X159502999Y-99535999D01*
X159262999Y-101775999D02*
X159262999Y-99535999D01*
X159382999Y-101775999D02*
X159382999Y-99535999D01*
X155212999Y-100655999D02*
X155862999Y-100655999D01*
X160752999Y-100655999D02*
X160102999Y-100655999D01*
X155862999Y-101775999D02*
X160102999Y-101775999D01*
X155862999Y-99535999D02*
X155862999Y-101775999D01*
X160102999Y-99535999D02*
X155862999Y-99535999D01*
X160102999Y-101775999D02*
X160102999Y-99535999D01*
G04 #@! TO.C,U1*
X148193000Y-99381000D02*
G75*
G02X146193000Y-99381000I-1000000J0D01*
G01*
X146193000Y-99381000D02*
X144543000Y-99381000D01*
X144543000Y-99381000D02*
X144543000Y-135061000D01*
X144543000Y-135061000D02*
X149843000Y-135061000D01*
X149843000Y-135061000D02*
X149843000Y-99381000D01*
X149843000Y-99381000D02*
X148193000Y-99381000D01*
X142053000Y-99321000D02*
X142053000Y-135121000D01*
X142053000Y-135121000D02*
X152333000Y-135121000D01*
X152333000Y-135121000D02*
X152333000Y-99321000D01*
X152333000Y-99321000D02*
X142053000Y-99321000D01*
G04 #@! TO.C,U3*
X169783000Y-98746000D02*
G75*
G02X167783000Y-98746000I-1000000J0D01*
G01*
X167783000Y-98746000D02*
X166133000Y-98746000D01*
X166133000Y-98746000D02*
X166133000Y-121726000D01*
X166133000Y-121726000D02*
X171433000Y-121726000D01*
X171433000Y-121726000D02*
X171433000Y-98746000D01*
X171433000Y-98746000D02*
X169783000Y-98746000D01*
X163643000Y-98686000D02*
X163643000Y-121786000D01*
X163643000Y-121786000D02*
X173923000Y-121786000D01*
X173923000Y-121786000D02*
X173923000Y-98686000D01*
X173923000Y-98686000D02*
X163643000Y-98686000D01*
G04 #@! TO.C,U4*
X173288000Y-75676000D02*
G75*
G02X173288000Y-73676000I0J1000000D01*
G01*
X173288000Y-73676000D02*
X173288000Y-72026000D01*
X173288000Y-72026000D02*
X137608000Y-72026000D01*
X137608000Y-72026000D02*
X137608000Y-77326000D01*
X137608000Y-77326000D02*
X173288000Y-77326000D01*
X173288000Y-77326000D02*
X173288000Y-75676000D01*
X173348000Y-69536000D02*
X137548000Y-69536000D01*
X137548000Y-69536000D02*
X137548000Y-79816000D01*
X137548000Y-79816000D02*
X173348000Y-79816000D01*
X173348000Y-79816000D02*
X173348000Y-69536000D01*
G04 #@! TO.C,U5*
X130108000Y-51696000D02*
X119828000Y-51696000D01*
X130108000Y-87496000D02*
X130108000Y-51696000D01*
X119828000Y-87496000D02*
X130108000Y-87496000D01*
X119828000Y-51696000D02*
X119828000Y-87496000D01*
X127618000Y-51756000D02*
X125968000Y-51756000D01*
X127618000Y-87436000D02*
X127618000Y-51756000D01*
X122318000Y-87436000D02*
X127618000Y-87436000D01*
X122318000Y-51756000D02*
X122318000Y-87436000D01*
X123968000Y-51756000D02*
X122318000Y-51756000D01*
X125968000Y-51756000D02*
G75*
G02X123968000Y-51756000I-1000000J0D01*
G01*
G04 #@! TO.C,U2*
D12*
X124841095Y-120273380D02*
X124841095Y-121082904D01*
X124888714Y-121178142D01*
X124936333Y-121225761D01*
X125031571Y-121273380D01*
X125222047Y-121273380D01*
X125317285Y-121225761D01*
X125364904Y-121178142D01*
X125412523Y-121082904D01*
X125412523Y-120273380D01*
X125841095Y-120368619D02*
X125888714Y-120321000D01*
X125983952Y-120273380D01*
X126222047Y-120273380D01*
X126317285Y-120321000D01*
X126364904Y-120368619D01*
X126412523Y-120463857D01*
X126412523Y-120559095D01*
X126364904Y-120701952D01*
X125793476Y-121273380D01*
X126412523Y-121273380D01*
G04 #@! TO.C,REF\002A\002A*
X187134666Y-121458380D02*
X186801333Y-120982190D01*
X186563238Y-121458380D02*
X186563238Y-120458380D01*
X186944190Y-120458380D01*
X187039428Y-120506000D01*
X187087047Y-120553619D01*
X187134666Y-120648857D01*
X187134666Y-120791714D01*
X187087047Y-120886952D01*
X187039428Y-120934571D01*
X186944190Y-120982190D01*
X186563238Y-120982190D01*
X187563238Y-120934571D02*
X187896571Y-120934571D01*
X188039428Y-121458380D02*
X187563238Y-121458380D01*
X187563238Y-120458380D01*
X188039428Y-120458380D01*
X188801333Y-120934571D02*
X188468000Y-120934571D01*
X188468000Y-121458380D02*
X188468000Y-120458380D01*
X188944190Y-120458380D01*
X189468000Y-120458380D02*
X189468000Y-120696476D01*
X189229904Y-120601238D02*
X189468000Y-120696476D01*
X189706095Y-120601238D01*
X189325142Y-120886952D02*
X189468000Y-120696476D01*
X189610857Y-120886952D01*
X190229904Y-120458380D02*
X190229904Y-120696476D01*
X189991809Y-120601238D02*
X190229904Y-120696476D01*
X190468000Y-120601238D01*
X190087047Y-120886952D02*
X190229904Y-120696476D01*
X190372761Y-120886952D01*
X105854666Y-121458380D02*
X105521333Y-120982190D01*
X105283238Y-121458380D02*
X105283238Y-120458380D01*
X105664190Y-120458380D01*
X105759428Y-120506000D01*
X105807047Y-120553619D01*
X105854666Y-120648857D01*
X105854666Y-120791714D01*
X105807047Y-120886952D01*
X105759428Y-120934571D01*
X105664190Y-120982190D01*
X105283238Y-120982190D01*
X106283238Y-120934571D02*
X106616571Y-120934571D01*
X106759428Y-121458380D02*
X106283238Y-121458380D01*
X106283238Y-120458380D01*
X106759428Y-120458380D01*
X107521333Y-120934571D02*
X107188000Y-120934571D01*
X107188000Y-121458380D02*
X107188000Y-120458380D01*
X107664190Y-120458380D01*
X108188000Y-120458380D02*
X108188000Y-120696476D01*
X107949904Y-120601238D02*
X108188000Y-120696476D01*
X108426095Y-120601238D01*
X108045142Y-120886952D02*
X108188000Y-120696476D01*
X108330857Y-120886952D01*
X108949904Y-120458380D02*
X108949904Y-120696476D01*
X108711809Y-120601238D02*
X108949904Y-120696476D01*
X109188000Y-120601238D01*
X108807047Y-120886952D02*
X108949904Y-120696476D01*
X109092761Y-120886952D01*
X187134666Y-51608380D02*
X186801333Y-51132190D01*
X186563238Y-51608380D02*
X186563238Y-50608380D01*
X186944190Y-50608380D01*
X187039428Y-50656000D01*
X187087047Y-50703619D01*
X187134666Y-50798857D01*
X187134666Y-50941714D01*
X187087047Y-51036952D01*
X187039428Y-51084571D01*
X186944190Y-51132190D01*
X186563238Y-51132190D01*
X187563238Y-51084571D02*
X187896571Y-51084571D01*
X188039428Y-51608380D02*
X187563238Y-51608380D01*
X187563238Y-50608380D01*
X188039428Y-50608380D01*
X188801333Y-51084571D02*
X188468000Y-51084571D01*
X188468000Y-51608380D02*
X188468000Y-50608380D01*
X188944190Y-50608380D01*
X189468000Y-50608380D02*
X189468000Y-50846476D01*
X189229904Y-50751238D02*
X189468000Y-50846476D01*
X189706095Y-50751238D01*
X189325142Y-51036952D02*
X189468000Y-50846476D01*
X189610857Y-51036952D01*
X190229904Y-50608380D02*
X190229904Y-50846476D01*
X189991809Y-50751238D02*
X190229904Y-50846476D01*
X190468000Y-50751238D01*
X190087047Y-51036952D02*
X190229904Y-50846476D01*
X190372761Y-51036952D01*
G04 #@! TO.C,J1*
X119110380Y-134064333D02*
X119824666Y-134064333D01*
X119967523Y-134111952D01*
X120062761Y-134207190D01*
X120110380Y-134350047D01*
X120110380Y-134445285D01*
X120110380Y-133064333D02*
X120110380Y-133635761D01*
X120110380Y-133350047D02*
X119110380Y-133350047D01*
X119253238Y-133445285D01*
X119348476Y-133540523D01*
X119396095Y-133635761D01*
G04 #@! TO.C,J2*
X149415380Y-84534333D02*
X150129666Y-84534333D01*
X150272523Y-84581952D01*
X150367761Y-84677190D01*
X150415380Y-84820047D01*
X150415380Y-84915285D01*
X149510619Y-84105761D02*
X149463000Y-84058142D01*
X149415380Y-83962904D01*
X149415380Y-83724809D01*
X149463000Y-83629571D01*
X149510619Y-83581952D01*
X149605857Y-83534333D01*
X149701095Y-83534333D01*
X149843952Y-83581952D01*
X150415380Y-84153380D01*
X150415380Y-83534333D01*
G04 #@! TO.C,J3*
X146240380Y-93424333D02*
X146954666Y-93424333D01*
X147097523Y-93471952D01*
X147192761Y-93567190D01*
X147240380Y-93710047D01*
X147240380Y-93805285D01*
X146240380Y-93043380D02*
X146240380Y-92424333D01*
X146621333Y-92757666D01*
X146621333Y-92614809D01*
X146668952Y-92519571D01*
X146716571Y-92471952D01*
X146811809Y-92424333D01*
X147049904Y-92424333D01*
X147145142Y-92471952D01*
X147192761Y-92519571D01*
X147240380Y-92614809D01*
X147240380Y-92900523D01*
X147192761Y-92995761D01*
X147145142Y-93043380D01*
G04 #@! TO.C,J4*
X179244666Y-133413380D02*
X179244666Y-134127666D01*
X179197047Y-134270523D01*
X179101809Y-134365761D01*
X178958952Y-134413380D01*
X178863714Y-134413380D01*
X180149428Y-133746714D02*
X180149428Y-134413380D01*
X179911333Y-133365761D02*
X179673238Y-134080047D01*
X180292285Y-134080047D01*
G04 #@! TO.C,J5*
X174815380Y-56594333D02*
X175529666Y-56594333D01*
X175672523Y-56641952D01*
X175767761Y-56737190D01*
X175815380Y-56880047D01*
X175815380Y-56975285D01*
X174815380Y-55641952D02*
X174815380Y-56118142D01*
X175291571Y-56165761D01*
X175243952Y-56118142D01*
X175196333Y-56022904D01*
X175196333Y-55784809D01*
X175243952Y-55689571D01*
X175291571Y-55641952D01*
X175386809Y-55594333D01*
X175624904Y-55594333D01*
X175720142Y-55641952D01*
X175767761Y-55689571D01*
X175815380Y-55784809D01*
X175815380Y-56022904D01*
X175767761Y-56118142D01*
X175720142Y-56165761D01*
G04 #@! TO.C,J6*
X145145380Y-93424333D02*
X145859666Y-93424333D01*
X146002523Y-93471952D01*
X146097761Y-93567190D01*
X146145380Y-93710047D01*
X146145380Y-93805285D01*
X145145380Y-92519571D02*
X145145380Y-92710047D01*
X145193000Y-92805285D01*
X145240619Y-92852904D01*
X145383476Y-92948142D01*
X145573952Y-92995761D01*
X145954904Y-92995761D01*
X146050142Y-92948142D01*
X146097761Y-92900523D01*
X146145380Y-92805285D01*
X146145380Y-92614809D01*
X146097761Y-92519571D01*
X146050142Y-92471952D01*
X145954904Y-92424333D01*
X145716809Y-92424333D01*
X145621571Y-92471952D01*
X145573952Y-92519571D01*
X145526333Y-92614809D01*
X145526333Y-92805285D01*
X145573952Y-92900523D01*
X145621571Y-92948142D01*
X145716809Y-92995761D01*
G04 #@! TO.C,J7*
X161655380Y-93424333D02*
X162369666Y-93424333D01*
X162512523Y-93471952D01*
X162607761Y-93567190D01*
X162655380Y-93710047D01*
X162655380Y-93805285D01*
X161655380Y-93043380D02*
X161655380Y-92376714D01*
X162655380Y-92805285D01*
G04 #@! TO.C,J8*
X150034666Y-68643380D02*
X150034666Y-69357666D01*
X149987047Y-69500523D01*
X149891809Y-69595761D01*
X149748952Y-69643380D01*
X149653714Y-69643380D01*
X150653714Y-69071952D02*
X150558476Y-69024333D01*
X150510857Y-68976714D01*
X150463238Y-68881476D01*
X150463238Y-68833857D01*
X150510857Y-68738619D01*
X150558476Y-68691000D01*
X150653714Y-68643380D01*
X150844190Y-68643380D01*
X150939428Y-68691000D01*
X150987047Y-68738619D01*
X151034666Y-68833857D01*
X151034666Y-68881476D01*
X150987047Y-68976714D01*
X150939428Y-69024333D01*
X150844190Y-69071952D01*
X150653714Y-69071952D01*
X150558476Y-69119571D01*
X150510857Y-69167190D01*
X150463238Y-69262428D01*
X150463238Y-69452904D01*
X150510857Y-69548142D01*
X150558476Y-69595761D01*
X150653714Y-69643380D01*
X150844190Y-69643380D01*
X150939428Y-69595761D01*
X150987047Y-69548142D01*
X151034666Y-69452904D01*
X151034666Y-69262428D01*
X150987047Y-69167190D01*
X150939428Y-69119571D01*
X150844190Y-69071952D01*
G04 #@! TO.C,Q1*
X129855619Y-125825238D02*
X129808000Y-125920476D01*
X129712761Y-126015714D01*
X129569904Y-126158571D01*
X129522285Y-126253809D01*
X129522285Y-126349047D01*
X129760380Y-126301428D02*
X129712761Y-126396666D01*
X129617523Y-126491904D01*
X129427047Y-126539523D01*
X129093714Y-126539523D01*
X128903238Y-126491904D01*
X128808000Y-126396666D01*
X128760380Y-126301428D01*
X128760380Y-126110952D01*
X128808000Y-126015714D01*
X128903238Y-125920476D01*
X129093714Y-125872857D01*
X129427047Y-125872857D01*
X129617523Y-125920476D01*
X129712761Y-126015714D01*
X129760380Y-126110952D01*
X129760380Y-126301428D01*
X129760380Y-124920476D02*
X129760380Y-125491904D01*
X129760380Y-125206190D02*
X128760380Y-125206190D01*
X128903238Y-125301428D01*
X128998476Y-125396666D01*
X129046095Y-125491904D01*
G04 #@! TO.C,R1*
X125308380Y-125642666D02*
X124832190Y-125976000D01*
X125308380Y-126214095D02*
X124308380Y-126214095D01*
X124308380Y-125833142D01*
X124356000Y-125737904D01*
X124403619Y-125690285D01*
X124498857Y-125642666D01*
X124641714Y-125642666D01*
X124736952Y-125690285D01*
X124784571Y-125737904D01*
X124832190Y-125833142D01*
X124832190Y-126214095D01*
X125308380Y-124690285D02*
X125308380Y-125261714D01*
X125308380Y-124976000D02*
X124308380Y-124976000D01*
X124451238Y-125071238D01*
X124546476Y-125166476D01*
X124594095Y-125261714D01*
G04 #@! TO.C,R2*
X128102380Y-125642666D02*
X127626190Y-125976000D01*
X128102380Y-126214095D02*
X127102380Y-126214095D01*
X127102380Y-125833142D01*
X127150000Y-125737904D01*
X127197619Y-125690285D01*
X127292857Y-125642666D01*
X127435714Y-125642666D01*
X127530952Y-125690285D01*
X127578571Y-125737904D01*
X127626190Y-125833142D01*
X127626190Y-126214095D01*
X127197619Y-125261714D02*
X127150000Y-125214095D01*
X127102380Y-125118857D01*
X127102380Y-124880761D01*
X127150000Y-124785523D01*
X127197619Y-124737904D01*
X127292857Y-124690285D01*
X127388095Y-124690285D01*
X127530952Y-124737904D01*
X128102380Y-125309333D01*
X128102380Y-124690285D01*
G04 #@! TO.C,R7*
X155250380Y-125007666D02*
X154774190Y-125341000D01*
X155250380Y-125579095D02*
X154250380Y-125579095D01*
X154250380Y-125198142D01*
X154298000Y-125102904D01*
X154345619Y-125055285D01*
X154440857Y-125007666D01*
X154583714Y-125007666D01*
X154678952Y-125055285D01*
X154726571Y-125102904D01*
X154774190Y-125198142D01*
X154774190Y-125579095D01*
X154250380Y-124674333D02*
X154250380Y-124007666D01*
X155250380Y-124436238D01*
G04 #@! TO.C,R8*
X157790380Y-125007666D02*
X157314190Y-125341000D01*
X157790380Y-125579095D02*
X156790380Y-125579095D01*
X156790380Y-125198142D01*
X156838000Y-125102904D01*
X156885619Y-125055285D01*
X156980857Y-125007666D01*
X157123714Y-125007666D01*
X157218952Y-125055285D01*
X157266571Y-125102904D01*
X157314190Y-125198142D01*
X157314190Y-125579095D01*
X157218952Y-124436238D02*
X157171333Y-124531476D01*
X157123714Y-124579095D01*
X157028476Y-124626714D01*
X156980857Y-124626714D01*
X156885619Y-124579095D01*
X156838000Y-124531476D01*
X156790380Y-124436238D01*
X156790380Y-124245761D01*
X156838000Y-124150523D01*
X156885619Y-124102904D01*
X156980857Y-124055285D01*
X157028476Y-124055285D01*
X157123714Y-124102904D01*
X157171333Y-124150523D01*
X157218952Y-124245761D01*
X157218952Y-124436238D01*
X157266571Y-124531476D01*
X157314190Y-124579095D01*
X157409428Y-124626714D01*
X157599904Y-124626714D01*
X157695142Y-124579095D01*
X157742761Y-124531476D01*
X157790380Y-124436238D01*
X157790380Y-124245761D01*
X157742761Y-124150523D01*
X157695142Y-124102904D01*
X157599904Y-124055285D01*
X157409428Y-124055285D01*
X157314190Y-124102904D01*
X157266571Y-124150523D01*
X157218952Y-124245761D01*
G04 #@! TO.C,R9*
X174965380Y-127547666D02*
X174489190Y-127881000D01*
X174965380Y-128119095D02*
X173965380Y-128119095D01*
X173965380Y-127738142D01*
X174013000Y-127642904D01*
X174060619Y-127595285D01*
X174155857Y-127547666D01*
X174298714Y-127547666D01*
X174393952Y-127595285D01*
X174441571Y-127642904D01*
X174489190Y-127738142D01*
X174489190Y-128119095D01*
X174965380Y-127071476D02*
X174965380Y-126881000D01*
X174917761Y-126785761D01*
X174870142Y-126738142D01*
X174727285Y-126642904D01*
X174536809Y-126595285D01*
X174155857Y-126595285D01*
X174060619Y-126642904D01*
X174013000Y-126690523D01*
X173965380Y-126785761D01*
X173965380Y-126976238D01*
X174013000Y-127071476D01*
X174060619Y-127119095D01*
X174155857Y-127166714D01*
X174393952Y-127166714D01*
X174489190Y-127119095D01*
X174536809Y-127071476D01*
X174584428Y-126976238D01*
X174584428Y-126785761D01*
X174536809Y-126690523D01*
X174489190Y-126642904D01*
X174393952Y-126595285D01*
G04 #@! TO.C,R10*
X172425380Y-128023857D02*
X171949190Y-128357190D01*
X172425380Y-128595285D02*
X171425380Y-128595285D01*
X171425380Y-128214333D01*
X171473000Y-128119095D01*
X171520619Y-128071476D01*
X171615857Y-128023857D01*
X171758714Y-128023857D01*
X171853952Y-128071476D01*
X171901571Y-128119095D01*
X171949190Y-128214333D01*
X171949190Y-128595285D01*
X172425380Y-127071476D02*
X172425380Y-127642904D01*
X172425380Y-127357190D02*
X171425380Y-127357190D01*
X171568238Y-127452428D01*
X171663476Y-127547666D01*
X171711095Y-127642904D01*
X171425380Y-126452428D02*
X171425380Y-126357190D01*
X171473000Y-126261952D01*
X171520619Y-126214333D01*
X171615857Y-126166714D01*
X171806333Y-126119095D01*
X172044428Y-126119095D01*
X172234904Y-126166714D01*
X172330142Y-126214333D01*
X172377761Y-126261952D01*
X172425380Y-126357190D01*
X172425380Y-126452428D01*
X172377761Y-126547666D01*
X172330142Y-126595285D01*
X172234904Y-126642904D01*
X172044428Y-126690523D01*
X171806333Y-126690523D01*
X171615857Y-126642904D01*
X171520619Y-126595285D01*
X171473000Y-126547666D01*
X171425380Y-126452428D01*
G04 #@! TO.C,R11*
X169885380Y-128023857D02*
X169409190Y-128357190D01*
X169885380Y-128595285D02*
X168885380Y-128595285D01*
X168885380Y-128214333D01*
X168933000Y-128119095D01*
X168980619Y-128071476D01*
X169075857Y-128023857D01*
X169218714Y-128023857D01*
X169313952Y-128071476D01*
X169361571Y-128119095D01*
X169409190Y-128214333D01*
X169409190Y-128595285D01*
X169885380Y-127071476D02*
X169885380Y-127642904D01*
X169885380Y-127357190D02*
X168885380Y-127357190D01*
X169028238Y-127452428D01*
X169123476Y-127547666D01*
X169171095Y-127642904D01*
X169885380Y-126119095D02*
X169885380Y-126690523D01*
X169885380Y-126404809D02*
X168885380Y-126404809D01*
X169028238Y-126500047D01*
X169123476Y-126595285D01*
X169171095Y-126690523D01*
G04 #@! TO.C,R12*
X167345380Y-128023857D02*
X166869190Y-128357190D01*
X167345380Y-128595285D02*
X166345380Y-128595285D01*
X166345380Y-128214333D01*
X166393000Y-128119095D01*
X166440619Y-128071476D01*
X166535857Y-128023857D01*
X166678714Y-128023857D01*
X166773952Y-128071476D01*
X166821571Y-128119095D01*
X166869190Y-128214333D01*
X166869190Y-128595285D01*
X167345380Y-127071476D02*
X167345380Y-127642904D01*
X167345380Y-127357190D02*
X166345380Y-127357190D01*
X166488238Y-127452428D01*
X166583476Y-127547666D01*
X166631095Y-127642904D01*
X166440619Y-126690523D02*
X166393000Y-126642904D01*
X166345380Y-126547666D01*
X166345380Y-126309571D01*
X166393000Y-126214333D01*
X166440619Y-126166714D01*
X166535857Y-126119095D01*
X166631095Y-126119095D01*
X166773952Y-126166714D01*
X167345380Y-126738142D01*
X167345380Y-126119095D01*
G04 #@! TO.C,R13*
X174965380Y-65158857D02*
X174489190Y-65492190D01*
X174965380Y-65730285D02*
X173965380Y-65730285D01*
X173965380Y-65349333D01*
X174013000Y-65254095D01*
X174060619Y-65206476D01*
X174155857Y-65158857D01*
X174298714Y-65158857D01*
X174393952Y-65206476D01*
X174441571Y-65254095D01*
X174489190Y-65349333D01*
X174489190Y-65730285D01*
X174965380Y-64206476D02*
X174965380Y-64777904D01*
X174965380Y-64492190D02*
X173965380Y-64492190D01*
X174108238Y-64587428D01*
X174203476Y-64682666D01*
X174251095Y-64777904D01*
X173965380Y-63873142D02*
X173965380Y-63254095D01*
X174346333Y-63587428D01*
X174346333Y-63444571D01*
X174393952Y-63349333D01*
X174441571Y-63301714D01*
X174536809Y-63254095D01*
X174774904Y-63254095D01*
X174870142Y-63301714D01*
X174917761Y-63349333D01*
X174965380Y-63444571D01*
X174965380Y-63730285D01*
X174917761Y-63825523D01*
X174870142Y-63873142D01*
G04 #@! TO.C,R14*
X159725380Y-65158857D02*
X159249190Y-65492190D01*
X159725380Y-65730285D02*
X158725380Y-65730285D01*
X158725380Y-65349333D01*
X158773000Y-65254095D01*
X158820619Y-65206476D01*
X158915857Y-65158857D01*
X159058714Y-65158857D01*
X159153952Y-65206476D01*
X159201571Y-65254095D01*
X159249190Y-65349333D01*
X159249190Y-65730285D01*
X159725380Y-64206476D02*
X159725380Y-64777904D01*
X159725380Y-64492190D02*
X158725380Y-64492190D01*
X158868238Y-64587428D01*
X158963476Y-64682666D01*
X159011095Y-64777904D01*
X159058714Y-63349333D02*
X159725380Y-63349333D01*
X158677761Y-63587428D02*
X159392047Y-63825523D01*
X159392047Y-63206476D01*
G04 #@! TO.C,R15*
X172425380Y-65158857D02*
X171949190Y-65492190D01*
X172425380Y-65730285D02*
X171425380Y-65730285D01*
X171425380Y-65349333D01*
X171473000Y-65254095D01*
X171520619Y-65206476D01*
X171615857Y-65158857D01*
X171758714Y-65158857D01*
X171853952Y-65206476D01*
X171901571Y-65254095D01*
X171949190Y-65349333D01*
X171949190Y-65730285D01*
X172425380Y-64206476D02*
X172425380Y-64777904D01*
X172425380Y-64492190D02*
X171425380Y-64492190D01*
X171568238Y-64587428D01*
X171663476Y-64682666D01*
X171711095Y-64777904D01*
X171425380Y-63301714D02*
X171425380Y-63777904D01*
X171901571Y-63825523D01*
X171853952Y-63777904D01*
X171806333Y-63682666D01*
X171806333Y-63444571D01*
X171853952Y-63349333D01*
X171901571Y-63301714D01*
X171996809Y-63254095D01*
X172234904Y-63254095D01*
X172330142Y-63301714D01*
X172377761Y-63349333D01*
X172425380Y-63444571D01*
X172425380Y-63682666D01*
X172377761Y-63777904D01*
X172330142Y-63825523D01*
G04 #@! TO.C,R16*
X157185380Y-65158857D02*
X156709190Y-65492190D01*
X157185380Y-65730285D02*
X156185380Y-65730285D01*
X156185380Y-65349333D01*
X156233000Y-65254095D01*
X156280619Y-65206476D01*
X156375857Y-65158857D01*
X156518714Y-65158857D01*
X156613952Y-65206476D01*
X156661571Y-65254095D01*
X156709190Y-65349333D01*
X156709190Y-65730285D01*
X157185380Y-64206476D02*
X157185380Y-64777904D01*
X157185380Y-64492190D02*
X156185380Y-64492190D01*
X156328238Y-64587428D01*
X156423476Y-64682666D01*
X156471095Y-64777904D01*
X156185380Y-63349333D02*
X156185380Y-63539809D01*
X156233000Y-63635047D01*
X156280619Y-63682666D01*
X156423476Y-63777904D01*
X156613952Y-63825523D01*
X156994904Y-63825523D01*
X157090142Y-63777904D01*
X157137761Y-63730285D01*
X157185380Y-63635047D01*
X157185380Y-63444571D01*
X157137761Y-63349333D01*
X157090142Y-63301714D01*
X156994904Y-63254095D01*
X156756809Y-63254095D01*
X156661571Y-63301714D01*
X156613952Y-63349333D01*
X156566333Y-63444571D01*
X156566333Y-63635047D01*
X156613952Y-63730285D01*
X156661571Y-63777904D01*
X156756809Y-63825523D01*
G04 #@! TO.C,R17*
X163505380Y-85478857D02*
X163029190Y-85812190D01*
X163505380Y-86050285D02*
X162505380Y-86050285D01*
X162505380Y-85669333D01*
X162553000Y-85574095D01*
X162600619Y-85526476D01*
X162695857Y-85478857D01*
X162838714Y-85478857D01*
X162933952Y-85526476D01*
X162981571Y-85574095D01*
X163029190Y-85669333D01*
X163029190Y-86050285D01*
X163505380Y-84526476D02*
X163505380Y-85097904D01*
X163505380Y-84812190D02*
X162505380Y-84812190D01*
X162648238Y-84907428D01*
X162743476Y-85002666D01*
X162791095Y-85097904D01*
X162505380Y-84193142D02*
X162505380Y-83526476D01*
X163505380Y-83955047D01*
G04 #@! TO.C,R18*
X169885380Y-65158857D02*
X169409190Y-65492190D01*
X169885380Y-65730285D02*
X168885380Y-65730285D01*
X168885380Y-65349333D01*
X168933000Y-65254095D01*
X168980619Y-65206476D01*
X169075857Y-65158857D01*
X169218714Y-65158857D01*
X169313952Y-65206476D01*
X169361571Y-65254095D01*
X169409190Y-65349333D01*
X169409190Y-65730285D01*
X169885380Y-64206476D02*
X169885380Y-64777904D01*
X169885380Y-64492190D02*
X168885380Y-64492190D01*
X169028238Y-64587428D01*
X169123476Y-64682666D01*
X169171095Y-64777904D01*
X169313952Y-63635047D02*
X169266333Y-63730285D01*
X169218714Y-63777904D01*
X169123476Y-63825523D01*
X169075857Y-63825523D01*
X168980619Y-63777904D01*
X168933000Y-63730285D01*
X168885380Y-63635047D01*
X168885380Y-63444571D01*
X168933000Y-63349333D01*
X168980619Y-63301714D01*
X169075857Y-63254095D01*
X169123476Y-63254095D01*
X169218714Y-63301714D01*
X169266333Y-63349333D01*
X169313952Y-63444571D01*
X169313952Y-63635047D01*
X169361571Y-63730285D01*
X169409190Y-63777904D01*
X169504428Y-63825523D01*
X169694904Y-63825523D01*
X169790142Y-63777904D01*
X169837761Y-63730285D01*
X169885380Y-63635047D01*
X169885380Y-63444571D01*
X169837761Y-63349333D01*
X169790142Y-63301714D01*
X169694904Y-63254095D01*
X169504428Y-63254095D01*
X169409190Y-63301714D01*
X169361571Y-63349333D01*
X169313952Y-63444571D01*
G04 #@! TO.C,R19*
X153345380Y-85478857D02*
X152869190Y-85812190D01*
X153345380Y-86050285D02*
X152345380Y-86050285D01*
X152345380Y-85669333D01*
X152393000Y-85574095D01*
X152440619Y-85526476D01*
X152535857Y-85478857D01*
X152678714Y-85478857D01*
X152773952Y-85526476D01*
X152821571Y-85574095D01*
X152869190Y-85669333D01*
X152869190Y-86050285D01*
X153345380Y-84526476D02*
X153345380Y-85097904D01*
X153345380Y-84812190D02*
X152345380Y-84812190D01*
X152488238Y-84907428D01*
X152583476Y-85002666D01*
X152631095Y-85097904D01*
X153345380Y-84050285D02*
X153345380Y-83859809D01*
X153297761Y-83764571D01*
X153250142Y-83716952D01*
X153107285Y-83621714D01*
X152916809Y-83574095D01*
X152535857Y-83574095D01*
X152440619Y-83621714D01*
X152393000Y-83669333D01*
X152345380Y-83764571D01*
X152345380Y-83955047D01*
X152393000Y-84050285D01*
X152440619Y-84097904D01*
X152535857Y-84145523D01*
X152773952Y-84145523D01*
X152869190Y-84097904D01*
X152916809Y-84050285D01*
X152964428Y-83955047D01*
X152964428Y-83764571D01*
X152916809Y-83669333D01*
X152869190Y-83621714D01*
X152773952Y-83574095D01*
G04 #@! TO.C,R20*
X166045380Y-85478857D02*
X165569190Y-85812190D01*
X166045380Y-86050285D02*
X165045380Y-86050285D01*
X165045380Y-85669333D01*
X165093000Y-85574095D01*
X165140619Y-85526476D01*
X165235857Y-85478857D01*
X165378714Y-85478857D01*
X165473952Y-85526476D01*
X165521571Y-85574095D01*
X165569190Y-85669333D01*
X165569190Y-86050285D01*
X165140619Y-85097904D02*
X165093000Y-85050285D01*
X165045380Y-84955047D01*
X165045380Y-84716952D01*
X165093000Y-84621714D01*
X165140619Y-84574095D01*
X165235857Y-84526476D01*
X165331095Y-84526476D01*
X165473952Y-84574095D01*
X166045380Y-85145523D01*
X166045380Y-84526476D01*
X165045380Y-83907428D02*
X165045380Y-83812190D01*
X165093000Y-83716952D01*
X165140619Y-83669333D01*
X165235857Y-83621714D01*
X165426333Y-83574095D01*
X165664428Y-83574095D01*
X165854904Y-83621714D01*
X165950142Y-83669333D01*
X165997761Y-83716952D01*
X166045380Y-83812190D01*
X166045380Y-83907428D01*
X165997761Y-84002666D01*
X165950142Y-84050285D01*
X165854904Y-84097904D01*
X165664428Y-84145523D01*
X165426333Y-84145523D01*
X165235857Y-84097904D01*
X165140619Y-84050285D01*
X165093000Y-84002666D01*
X165045380Y-83907428D01*
G04 #@! TO.C,R23*
X167345380Y-65158857D02*
X166869190Y-65492190D01*
X167345380Y-65730285D02*
X166345380Y-65730285D01*
X166345380Y-65349333D01*
X166393000Y-65254095D01*
X166440619Y-65206476D01*
X166535857Y-65158857D01*
X166678714Y-65158857D01*
X166773952Y-65206476D01*
X166821571Y-65254095D01*
X166869190Y-65349333D01*
X166869190Y-65730285D01*
X166440619Y-64777904D02*
X166393000Y-64730285D01*
X166345380Y-64635047D01*
X166345380Y-64396952D01*
X166393000Y-64301714D01*
X166440619Y-64254095D01*
X166535857Y-64206476D01*
X166631095Y-64206476D01*
X166773952Y-64254095D01*
X167345380Y-64825523D01*
X167345380Y-64206476D01*
X166345380Y-63873142D02*
X166345380Y-63254095D01*
X166726333Y-63587428D01*
X166726333Y-63444571D01*
X166773952Y-63349333D01*
X166821571Y-63301714D01*
X166916809Y-63254095D01*
X167154904Y-63254095D01*
X167250142Y-63301714D01*
X167297761Y-63349333D01*
X167345380Y-63444571D01*
X167345380Y-63730285D01*
X167297761Y-63825523D01*
X167250142Y-63873142D01*
G04 #@! TO.C,R24*
X155885380Y-85478857D02*
X155409190Y-85812190D01*
X155885380Y-86050285D02*
X154885380Y-86050285D01*
X154885380Y-85669333D01*
X154933000Y-85574095D01*
X154980619Y-85526476D01*
X155075857Y-85478857D01*
X155218714Y-85478857D01*
X155313952Y-85526476D01*
X155361571Y-85574095D01*
X155409190Y-85669333D01*
X155409190Y-86050285D01*
X154980619Y-85097904D02*
X154933000Y-85050285D01*
X154885380Y-84955047D01*
X154885380Y-84716952D01*
X154933000Y-84621714D01*
X154980619Y-84574095D01*
X155075857Y-84526476D01*
X155171095Y-84526476D01*
X155313952Y-84574095D01*
X155885380Y-85145523D01*
X155885380Y-84526476D01*
X155218714Y-83669333D02*
X155885380Y-83669333D01*
X154837761Y-83907428D02*
X155552047Y-84145523D01*
X155552047Y-83526476D01*
G04 #@! TO.C,R25*
X168585380Y-85478857D02*
X168109190Y-85812190D01*
X168585380Y-86050285D02*
X167585380Y-86050285D01*
X167585380Y-85669333D01*
X167633000Y-85574095D01*
X167680619Y-85526476D01*
X167775857Y-85478857D01*
X167918714Y-85478857D01*
X168013952Y-85526476D01*
X168061571Y-85574095D01*
X168109190Y-85669333D01*
X168109190Y-86050285D01*
X167680619Y-85097904D02*
X167633000Y-85050285D01*
X167585380Y-84955047D01*
X167585380Y-84716952D01*
X167633000Y-84621714D01*
X167680619Y-84574095D01*
X167775857Y-84526476D01*
X167871095Y-84526476D01*
X168013952Y-84574095D01*
X168585380Y-85145523D01*
X168585380Y-84526476D01*
X167585380Y-83621714D02*
X167585380Y-84097904D01*
X168061571Y-84145523D01*
X168013952Y-84097904D01*
X167966333Y-84002666D01*
X167966333Y-83764571D01*
X168013952Y-83669333D01*
X168061571Y-83621714D01*
X168156809Y-83574095D01*
X168394904Y-83574095D01*
X168490142Y-83621714D01*
X168537761Y-83669333D01*
X168585380Y-83764571D01*
X168585380Y-84002666D01*
X168537761Y-84097904D01*
X168490142Y-84145523D01*
G04 #@! TO.C,R26*
X164805380Y-65158857D02*
X164329190Y-65492190D01*
X164805380Y-65730285D02*
X163805380Y-65730285D01*
X163805380Y-65349333D01*
X163853000Y-65254095D01*
X163900619Y-65206476D01*
X163995857Y-65158857D01*
X164138714Y-65158857D01*
X164233952Y-65206476D01*
X164281571Y-65254095D01*
X164329190Y-65349333D01*
X164329190Y-65730285D01*
X163900619Y-64777904D02*
X163853000Y-64730285D01*
X163805380Y-64635047D01*
X163805380Y-64396952D01*
X163853000Y-64301714D01*
X163900619Y-64254095D01*
X163995857Y-64206476D01*
X164091095Y-64206476D01*
X164233952Y-64254095D01*
X164805380Y-64825523D01*
X164805380Y-64206476D01*
X163805380Y-63349333D02*
X163805380Y-63539809D01*
X163853000Y-63635047D01*
X163900619Y-63682666D01*
X164043476Y-63777904D01*
X164233952Y-63825523D01*
X164614904Y-63825523D01*
X164710142Y-63777904D01*
X164757761Y-63730285D01*
X164805380Y-63635047D01*
X164805380Y-63444571D01*
X164757761Y-63349333D01*
X164710142Y-63301714D01*
X164614904Y-63254095D01*
X164376809Y-63254095D01*
X164281571Y-63301714D01*
X164233952Y-63349333D01*
X164186333Y-63444571D01*
X164186333Y-63635047D01*
X164233952Y-63730285D01*
X164281571Y-63777904D01*
X164376809Y-63825523D01*
G04 #@! TO.C,R27*
X158425380Y-85478857D02*
X157949190Y-85812190D01*
X158425380Y-86050285D02*
X157425380Y-86050285D01*
X157425380Y-85669333D01*
X157473000Y-85574095D01*
X157520619Y-85526476D01*
X157615857Y-85478857D01*
X157758714Y-85478857D01*
X157853952Y-85526476D01*
X157901571Y-85574095D01*
X157949190Y-85669333D01*
X157949190Y-86050285D01*
X157520619Y-85097904D02*
X157473000Y-85050285D01*
X157425380Y-84955047D01*
X157425380Y-84716952D01*
X157473000Y-84621714D01*
X157520619Y-84574095D01*
X157615857Y-84526476D01*
X157711095Y-84526476D01*
X157853952Y-84574095D01*
X158425380Y-85145523D01*
X158425380Y-84526476D01*
X157425380Y-84193142D02*
X157425380Y-83526476D01*
X158425380Y-83955047D01*
G04 #@! TO.C,R28*
X171125380Y-85478857D02*
X170649190Y-85812190D01*
X171125380Y-86050285D02*
X170125380Y-86050285D01*
X170125380Y-85669333D01*
X170173000Y-85574095D01*
X170220619Y-85526476D01*
X170315857Y-85478857D01*
X170458714Y-85478857D01*
X170553952Y-85526476D01*
X170601571Y-85574095D01*
X170649190Y-85669333D01*
X170649190Y-86050285D01*
X170220619Y-85097904D02*
X170173000Y-85050285D01*
X170125380Y-84955047D01*
X170125380Y-84716952D01*
X170173000Y-84621714D01*
X170220619Y-84574095D01*
X170315857Y-84526476D01*
X170411095Y-84526476D01*
X170553952Y-84574095D01*
X171125380Y-85145523D01*
X171125380Y-84526476D01*
X170553952Y-83955047D02*
X170506333Y-84050285D01*
X170458714Y-84097904D01*
X170363476Y-84145523D01*
X170315857Y-84145523D01*
X170220619Y-84097904D01*
X170173000Y-84050285D01*
X170125380Y-83955047D01*
X170125380Y-83764571D01*
X170173000Y-83669333D01*
X170220619Y-83621714D01*
X170315857Y-83574095D01*
X170363476Y-83574095D01*
X170458714Y-83621714D01*
X170506333Y-83669333D01*
X170553952Y-83764571D01*
X170553952Y-83955047D01*
X170601571Y-84050285D01*
X170649190Y-84097904D01*
X170744428Y-84145523D01*
X170934904Y-84145523D01*
X171030142Y-84097904D01*
X171077761Y-84050285D01*
X171125380Y-83955047D01*
X171125380Y-83764571D01*
X171077761Y-83669333D01*
X171030142Y-83621714D01*
X170934904Y-83574095D01*
X170744428Y-83574095D01*
X170649190Y-83621714D01*
X170601571Y-83669333D01*
X170553952Y-83764571D01*
G04 #@! TO.C,R29*
X162265380Y-65158857D02*
X161789190Y-65492190D01*
X162265380Y-65730285D02*
X161265380Y-65730285D01*
X161265380Y-65349333D01*
X161313000Y-65254095D01*
X161360619Y-65206476D01*
X161455857Y-65158857D01*
X161598714Y-65158857D01*
X161693952Y-65206476D01*
X161741571Y-65254095D01*
X161789190Y-65349333D01*
X161789190Y-65730285D01*
X161360619Y-64777904D02*
X161313000Y-64730285D01*
X161265380Y-64635047D01*
X161265380Y-64396952D01*
X161313000Y-64301714D01*
X161360619Y-64254095D01*
X161455857Y-64206476D01*
X161551095Y-64206476D01*
X161693952Y-64254095D01*
X162265380Y-64825523D01*
X162265380Y-64206476D01*
X162265380Y-63730285D02*
X162265380Y-63539809D01*
X162217761Y-63444571D01*
X162170142Y-63396952D01*
X162027285Y-63301714D01*
X161836809Y-63254095D01*
X161455857Y-63254095D01*
X161360619Y-63301714D01*
X161313000Y-63349333D01*
X161265380Y-63444571D01*
X161265380Y-63635047D01*
X161313000Y-63730285D01*
X161360619Y-63777904D01*
X161455857Y-63825523D01*
X161693952Y-63825523D01*
X161789190Y-63777904D01*
X161836809Y-63730285D01*
X161884428Y-63635047D01*
X161884428Y-63444571D01*
X161836809Y-63349333D01*
X161789190Y-63301714D01*
X161693952Y-63254095D01*
G04 #@! TO.C,R30*
X160965380Y-85478857D02*
X160489190Y-85812190D01*
X160965380Y-86050285D02*
X159965380Y-86050285D01*
X159965380Y-85669333D01*
X160013000Y-85574095D01*
X160060619Y-85526476D01*
X160155857Y-85478857D01*
X160298714Y-85478857D01*
X160393952Y-85526476D01*
X160441571Y-85574095D01*
X160489190Y-85669333D01*
X160489190Y-86050285D01*
X159965380Y-85145523D02*
X159965380Y-84526476D01*
X160346333Y-84859809D01*
X160346333Y-84716952D01*
X160393952Y-84621714D01*
X160441571Y-84574095D01*
X160536809Y-84526476D01*
X160774904Y-84526476D01*
X160870142Y-84574095D01*
X160917761Y-84621714D01*
X160965380Y-84716952D01*
X160965380Y-85002666D01*
X160917761Y-85097904D01*
X160870142Y-85145523D01*
X159965380Y-83907428D02*
X159965380Y-83812190D01*
X160013000Y-83716952D01*
X160060619Y-83669333D01*
X160155857Y-83621714D01*
X160346333Y-83574095D01*
X160584428Y-83574095D01*
X160774904Y-83621714D01*
X160870142Y-83669333D01*
X160917761Y-83716952D01*
X160965380Y-83812190D01*
X160965380Y-83907428D01*
X160917761Y-84002666D01*
X160870142Y-84050285D01*
X160774904Y-84097904D01*
X160584428Y-84145523D01*
X160346333Y-84145523D01*
X160155857Y-84097904D01*
X160060619Y-84050285D01*
X160013000Y-84002666D01*
X159965380Y-83907428D01*
G04 #@! TO.C,R31*
X138295142Y-68793380D02*
X137961809Y-68317190D01*
X137723714Y-68793380D02*
X137723714Y-67793380D01*
X138104666Y-67793380D01*
X138199904Y-67841000D01*
X138247523Y-67888619D01*
X138295142Y-67983857D01*
X138295142Y-68126714D01*
X138247523Y-68221952D01*
X138199904Y-68269571D01*
X138104666Y-68317190D01*
X137723714Y-68317190D01*
X138628476Y-67793380D02*
X139247523Y-67793380D01*
X138914190Y-68174333D01*
X139057047Y-68174333D01*
X139152285Y-68221952D01*
X139199904Y-68269571D01*
X139247523Y-68364809D01*
X139247523Y-68602904D01*
X139199904Y-68698142D01*
X139152285Y-68745761D01*
X139057047Y-68793380D01*
X138771333Y-68793380D01*
X138676095Y-68745761D01*
X138628476Y-68698142D01*
X140199904Y-68793380D02*
X139628476Y-68793380D01*
X139914190Y-68793380D02*
X139914190Y-67793380D01*
X139818952Y-67936238D01*
X139723714Y-68031476D01*
X139628476Y-68079095D01*
G04 #@! TO.C,R32*
X138295142Y-66253380D02*
X137961809Y-65777190D01*
X137723714Y-66253380D02*
X137723714Y-65253380D01*
X138104666Y-65253380D01*
X138199904Y-65301000D01*
X138247523Y-65348619D01*
X138295142Y-65443857D01*
X138295142Y-65586714D01*
X138247523Y-65681952D01*
X138199904Y-65729571D01*
X138104666Y-65777190D01*
X137723714Y-65777190D01*
X138628476Y-65253380D02*
X139247523Y-65253380D01*
X138914190Y-65634333D01*
X139057047Y-65634333D01*
X139152285Y-65681952D01*
X139199904Y-65729571D01*
X139247523Y-65824809D01*
X139247523Y-66062904D01*
X139199904Y-66158142D01*
X139152285Y-66205761D01*
X139057047Y-66253380D01*
X138771333Y-66253380D01*
X138676095Y-66205761D01*
X138628476Y-66158142D01*
X139628476Y-65348619D02*
X139676095Y-65301000D01*
X139771333Y-65253380D01*
X140009428Y-65253380D01*
X140104666Y-65301000D01*
X140152285Y-65348619D01*
X140199904Y-65443857D01*
X140199904Y-65539095D01*
X140152285Y-65681952D01*
X139580857Y-66253380D01*
X140199904Y-66253380D01*
G04 #@! TO.C,R33*
X138295142Y-63713380D02*
X137961809Y-63237190D01*
X137723714Y-63713380D02*
X137723714Y-62713380D01*
X138104666Y-62713380D01*
X138199904Y-62761000D01*
X138247523Y-62808619D01*
X138295142Y-62903857D01*
X138295142Y-63046714D01*
X138247523Y-63141952D01*
X138199904Y-63189571D01*
X138104666Y-63237190D01*
X137723714Y-63237190D01*
X138628476Y-62713380D02*
X139247523Y-62713380D01*
X138914190Y-63094333D01*
X139057047Y-63094333D01*
X139152285Y-63141952D01*
X139199904Y-63189571D01*
X139247523Y-63284809D01*
X139247523Y-63522904D01*
X139199904Y-63618142D01*
X139152285Y-63665761D01*
X139057047Y-63713380D01*
X138771333Y-63713380D01*
X138676095Y-63665761D01*
X138628476Y-63618142D01*
X139580857Y-62713380D02*
X140199904Y-62713380D01*
X139866571Y-63094333D01*
X140009428Y-63094333D01*
X140104666Y-63141952D01*
X140152285Y-63189571D01*
X140199904Y-63284809D01*
X140199904Y-63522904D01*
X140152285Y-63618142D01*
X140104666Y-63665761D01*
X140009428Y-63713380D01*
X139723714Y-63713380D01*
X139628476Y-63665761D01*
X139580857Y-63618142D01*
G04 #@! TO.C,R34*
X138295142Y-61173380D02*
X137961809Y-60697190D01*
X137723714Y-61173380D02*
X137723714Y-60173380D01*
X138104666Y-60173380D01*
X138199904Y-60221000D01*
X138247523Y-60268619D01*
X138295142Y-60363857D01*
X138295142Y-60506714D01*
X138247523Y-60601952D01*
X138199904Y-60649571D01*
X138104666Y-60697190D01*
X137723714Y-60697190D01*
X138628476Y-60173380D02*
X139247523Y-60173380D01*
X138914190Y-60554333D01*
X139057047Y-60554333D01*
X139152285Y-60601952D01*
X139199904Y-60649571D01*
X139247523Y-60744809D01*
X139247523Y-60982904D01*
X139199904Y-61078142D01*
X139152285Y-61125761D01*
X139057047Y-61173380D01*
X138771333Y-61173380D01*
X138676095Y-61125761D01*
X138628476Y-61078142D01*
X140104666Y-60506714D02*
X140104666Y-61173380D01*
X139866571Y-60125761D02*
X139628476Y-60840047D01*
X140247523Y-60840047D01*
G04 #@! TO.C,R35*
X138295142Y-58633380D02*
X137961809Y-58157190D01*
X137723714Y-58633380D02*
X137723714Y-57633380D01*
X138104666Y-57633380D01*
X138199904Y-57681000D01*
X138247523Y-57728619D01*
X138295142Y-57823857D01*
X138295142Y-57966714D01*
X138247523Y-58061952D01*
X138199904Y-58109571D01*
X138104666Y-58157190D01*
X137723714Y-58157190D01*
X138628476Y-57633380D02*
X139247523Y-57633380D01*
X138914190Y-58014333D01*
X139057047Y-58014333D01*
X139152285Y-58061952D01*
X139199904Y-58109571D01*
X139247523Y-58204809D01*
X139247523Y-58442904D01*
X139199904Y-58538142D01*
X139152285Y-58585761D01*
X139057047Y-58633380D01*
X138771333Y-58633380D01*
X138676095Y-58585761D01*
X138628476Y-58538142D01*
X140152285Y-57633380D02*
X139676095Y-57633380D01*
X139628476Y-58109571D01*
X139676095Y-58061952D01*
X139771333Y-58014333D01*
X140009428Y-58014333D01*
X140104666Y-58061952D01*
X140152285Y-58109571D01*
X140199904Y-58204809D01*
X140199904Y-58442904D01*
X140152285Y-58538142D01*
X140104666Y-58585761D01*
X140009428Y-58633380D01*
X139771333Y-58633380D01*
X139676095Y-58585761D01*
X139628476Y-58538142D01*
G04 #@! TO.C,R36*
X119720380Y-63888857D02*
X119244190Y-64222190D01*
X119720380Y-64460285D02*
X118720380Y-64460285D01*
X118720380Y-64079333D01*
X118768000Y-63984095D01*
X118815619Y-63936476D01*
X118910857Y-63888857D01*
X119053714Y-63888857D01*
X119148952Y-63936476D01*
X119196571Y-63984095D01*
X119244190Y-64079333D01*
X119244190Y-64460285D01*
X118720380Y-63555523D02*
X118720380Y-62936476D01*
X119101333Y-63269809D01*
X119101333Y-63126952D01*
X119148952Y-63031714D01*
X119196571Y-62984095D01*
X119291809Y-62936476D01*
X119529904Y-62936476D01*
X119625142Y-62984095D01*
X119672761Y-63031714D01*
X119720380Y-63126952D01*
X119720380Y-63412666D01*
X119672761Y-63507904D01*
X119625142Y-63555523D01*
X118720380Y-62079333D02*
X118720380Y-62269809D01*
X118768000Y-62365047D01*
X118815619Y-62412666D01*
X118958476Y-62507904D01*
X119148952Y-62555523D01*
X119529904Y-62555523D01*
X119625142Y-62507904D01*
X119672761Y-62460285D01*
X119720380Y-62365047D01*
X119720380Y-62174571D01*
X119672761Y-62079333D01*
X119625142Y-62031714D01*
X119529904Y-61984095D01*
X119291809Y-61984095D01*
X119196571Y-62031714D01*
X119148952Y-62079333D01*
X119101333Y-62174571D01*
X119101333Y-62365047D01*
X119148952Y-62460285D01*
X119196571Y-62507904D01*
X119291809Y-62555523D01*
G04 #@! TO.C,R37*
X119720380Y-76588857D02*
X119244190Y-76922190D01*
X119720380Y-77160285D02*
X118720380Y-77160285D01*
X118720380Y-76779333D01*
X118768000Y-76684095D01*
X118815619Y-76636476D01*
X118910857Y-76588857D01*
X119053714Y-76588857D01*
X119148952Y-76636476D01*
X119196571Y-76684095D01*
X119244190Y-76779333D01*
X119244190Y-77160285D01*
X118720380Y-76255523D02*
X118720380Y-75636476D01*
X119101333Y-75969809D01*
X119101333Y-75826952D01*
X119148952Y-75731714D01*
X119196571Y-75684095D01*
X119291809Y-75636476D01*
X119529904Y-75636476D01*
X119625142Y-75684095D01*
X119672761Y-75731714D01*
X119720380Y-75826952D01*
X119720380Y-76112666D01*
X119672761Y-76207904D01*
X119625142Y-76255523D01*
X118720380Y-75303142D02*
X118720380Y-74636476D01*
X119720380Y-75065047D01*
G04 #@! TO.C,R38*
X119720380Y-89288857D02*
X119244190Y-89622190D01*
X119720380Y-89860285D02*
X118720380Y-89860285D01*
X118720380Y-89479333D01*
X118768000Y-89384095D01*
X118815619Y-89336476D01*
X118910857Y-89288857D01*
X119053714Y-89288857D01*
X119148952Y-89336476D01*
X119196571Y-89384095D01*
X119244190Y-89479333D01*
X119244190Y-89860285D01*
X118720380Y-88955523D02*
X118720380Y-88336476D01*
X119101333Y-88669809D01*
X119101333Y-88526952D01*
X119148952Y-88431714D01*
X119196571Y-88384095D01*
X119291809Y-88336476D01*
X119529904Y-88336476D01*
X119625142Y-88384095D01*
X119672761Y-88431714D01*
X119720380Y-88526952D01*
X119720380Y-88812666D01*
X119672761Y-88907904D01*
X119625142Y-88955523D01*
X119148952Y-87765047D02*
X119101333Y-87860285D01*
X119053714Y-87907904D01*
X118958476Y-87955523D01*
X118910857Y-87955523D01*
X118815619Y-87907904D01*
X118768000Y-87860285D01*
X118720380Y-87765047D01*
X118720380Y-87574571D01*
X118768000Y-87479333D01*
X118815619Y-87431714D01*
X118910857Y-87384095D01*
X118958476Y-87384095D01*
X119053714Y-87431714D01*
X119101333Y-87479333D01*
X119148952Y-87574571D01*
X119148952Y-87765047D01*
X119196571Y-87860285D01*
X119244190Y-87907904D01*
X119339428Y-87955523D01*
X119529904Y-87955523D01*
X119625142Y-87907904D01*
X119672761Y-87860285D01*
X119720380Y-87765047D01*
X119720380Y-87574571D01*
X119672761Y-87479333D01*
X119625142Y-87431714D01*
X119529904Y-87384095D01*
X119339428Y-87384095D01*
X119244190Y-87431714D01*
X119196571Y-87479333D01*
X119148952Y-87574571D01*
G04 #@! TO.C,R39*
X119720380Y-101988857D02*
X119244190Y-102322190D01*
X119720380Y-102560285D02*
X118720380Y-102560285D01*
X118720380Y-102179333D01*
X118768000Y-102084095D01*
X118815619Y-102036476D01*
X118910857Y-101988857D01*
X119053714Y-101988857D01*
X119148952Y-102036476D01*
X119196571Y-102084095D01*
X119244190Y-102179333D01*
X119244190Y-102560285D01*
X118720380Y-101655523D02*
X118720380Y-101036476D01*
X119101333Y-101369809D01*
X119101333Y-101226952D01*
X119148952Y-101131714D01*
X119196571Y-101084095D01*
X119291809Y-101036476D01*
X119529904Y-101036476D01*
X119625142Y-101084095D01*
X119672761Y-101131714D01*
X119720380Y-101226952D01*
X119720380Y-101512666D01*
X119672761Y-101607904D01*
X119625142Y-101655523D01*
X119720380Y-100560285D02*
X119720380Y-100369809D01*
X119672761Y-100274571D01*
X119625142Y-100226952D01*
X119482285Y-100131714D01*
X119291809Y-100084095D01*
X118910857Y-100084095D01*
X118815619Y-100131714D01*
X118768000Y-100179333D01*
X118720380Y-100274571D01*
X118720380Y-100465047D01*
X118768000Y-100560285D01*
X118815619Y-100607904D01*
X118910857Y-100655523D01*
X119148952Y-100655523D01*
X119244190Y-100607904D01*
X119291809Y-100560285D01*
X119339428Y-100465047D01*
X119339428Y-100274571D01*
X119291809Y-100179333D01*
X119244190Y-100131714D01*
X119148952Y-100084095D01*
G04 #@! TO.C,R40*
X119720380Y-114053857D02*
X119244190Y-114387190D01*
X119720380Y-114625285D02*
X118720380Y-114625285D01*
X118720380Y-114244333D01*
X118768000Y-114149095D01*
X118815619Y-114101476D01*
X118910857Y-114053857D01*
X119053714Y-114053857D01*
X119148952Y-114101476D01*
X119196571Y-114149095D01*
X119244190Y-114244333D01*
X119244190Y-114625285D01*
X119053714Y-113196714D02*
X119720380Y-113196714D01*
X118672761Y-113434809D02*
X119387047Y-113672904D01*
X119387047Y-113053857D01*
X118720380Y-112482428D02*
X118720380Y-112387190D01*
X118768000Y-112291952D01*
X118815619Y-112244333D01*
X118910857Y-112196714D01*
X119101333Y-112149095D01*
X119339428Y-112149095D01*
X119529904Y-112196714D01*
X119625142Y-112244333D01*
X119672761Y-112291952D01*
X119720380Y-112387190D01*
X119720380Y-112482428D01*
X119672761Y-112577666D01*
X119625142Y-112625285D01*
X119529904Y-112672904D01*
X119339428Y-112720523D01*
X119101333Y-112720523D01*
X118910857Y-112672904D01*
X118815619Y-112625285D01*
X118768000Y-112577666D01*
X118720380Y-112482428D01*
G04 #@! TO.C,R41*
X176840380Y-66428857D02*
X176364190Y-66762190D01*
X176840380Y-67000285D02*
X175840380Y-67000285D01*
X175840380Y-66619333D01*
X175888000Y-66524095D01*
X175935619Y-66476476D01*
X176030857Y-66428857D01*
X176173714Y-66428857D01*
X176268952Y-66476476D01*
X176316571Y-66524095D01*
X176364190Y-66619333D01*
X176364190Y-67000285D01*
X176173714Y-65571714D02*
X176840380Y-65571714D01*
X175792761Y-65809809D02*
X176507047Y-66047904D01*
X176507047Y-65428857D01*
X176840380Y-64524095D02*
X176840380Y-65095523D01*
X176840380Y-64809809D02*
X175840380Y-64809809D01*
X175983238Y-64905047D01*
X176078476Y-65000285D01*
X176126095Y-65095523D01*
G04 #@! TO.C,R42*
X176840380Y-79128857D02*
X176364190Y-79462190D01*
X176840380Y-79700285D02*
X175840380Y-79700285D01*
X175840380Y-79319333D01*
X175888000Y-79224095D01*
X175935619Y-79176476D01*
X176030857Y-79128857D01*
X176173714Y-79128857D01*
X176268952Y-79176476D01*
X176316571Y-79224095D01*
X176364190Y-79319333D01*
X176364190Y-79700285D01*
X176173714Y-78271714D02*
X176840380Y-78271714D01*
X175792761Y-78509809D02*
X176507047Y-78747904D01*
X176507047Y-78128857D01*
X175935619Y-77795523D02*
X175888000Y-77747904D01*
X175840380Y-77652666D01*
X175840380Y-77414571D01*
X175888000Y-77319333D01*
X175935619Y-77271714D01*
X176030857Y-77224095D01*
X176126095Y-77224095D01*
X176268952Y-77271714D01*
X176840380Y-77843142D01*
X176840380Y-77224095D01*
G04 #@! TO.C,R43*
X176840380Y-91828857D02*
X176364190Y-92162190D01*
X176840380Y-92400285D02*
X175840380Y-92400285D01*
X175840380Y-92019333D01*
X175888000Y-91924095D01*
X175935619Y-91876476D01*
X176030857Y-91828857D01*
X176173714Y-91828857D01*
X176268952Y-91876476D01*
X176316571Y-91924095D01*
X176364190Y-92019333D01*
X176364190Y-92400285D01*
X176173714Y-90971714D02*
X176840380Y-90971714D01*
X175792761Y-91209809D02*
X176507047Y-91447904D01*
X176507047Y-90828857D01*
X175840380Y-90543142D02*
X175840380Y-89924095D01*
X176221333Y-90257428D01*
X176221333Y-90114571D01*
X176268952Y-90019333D01*
X176316571Y-89971714D01*
X176411809Y-89924095D01*
X176649904Y-89924095D01*
X176745142Y-89971714D01*
X176792761Y-90019333D01*
X176840380Y-90114571D01*
X176840380Y-90400285D01*
X176792761Y-90495523D01*
X176745142Y-90543142D01*
G04 #@! TO.C,R44*
X176840380Y-104528857D02*
X176364190Y-104862190D01*
X176840380Y-105100285D02*
X175840380Y-105100285D01*
X175840380Y-104719333D01*
X175888000Y-104624095D01*
X175935619Y-104576476D01*
X176030857Y-104528857D01*
X176173714Y-104528857D01*
X176268952Y-104576476D01*
X176316571Y-104624095D01*
X176364190Y-104719333D01*
X176364190Y-105100285D01*
X176173714Y-103671714D02*
X176840380Y-103671714D01*
X175792761Y-103909809D02*
X176507047Y-104147904D01*
X176507047Y-103528857D01*
X176173714Y-102719333D02*
X176840380Y-102719333D01*
X175792761Y-102957428D02*
X176507047Y-103195523D01*
X176507047Y-102576476D01*
G04 #@! TO.C,R45*
X176840380Y-117228857D02*
X176364190Y-117562190D01*
X176840380Y-117800285D02*
X175840380Y-117800285D01*
X175840380Y-117419333D01*
X175888000Y-117324095D01*
X175935619Y-117276476D01*
X176030857Y-117228857D01*
X176173714Y-117228857D01*
X176268952Y-117276476D01*
X176316571Y-117324095D01*
X176364190Y-117419333D01*
X176364190Y-117800285D01*
X176173714Y-116371714D02*
X176840380Y-116371714D01*
X175792761Y-116609809D02*
X176507047Y-116847904D01*
X176507047Y-116228857D01*
X175840380Y-115371714D02*
X175840380Y-115847904D01*
X176316571Y-115895523D01*
X176268952Y-115847904D01*
X176221333Y-115752666D01*
X176221333Y-115514571D01*
X176268952Y-115419333D01*
X176316571Y-115371714D01*
X176411809Y-115324095D01*
X176649904Y-115324095D01*
X176745142Y-115371714D01*
X176792761Y-115419333D01*
X176840380Y-115514571D01*
X176840380Y-115752666D01*
X176792761Y-115847904D01*
X176745142Y-115895523D01*
G04 #@! TO.C,R46*
X138295142Y-56093380D02*
X137961809Y-55617190D01*
X137723714Y-56093380D02*
X137723714Y-55093380D01*
X138104666Y-55093380D01*
X138199904Y-55141000D01*
X138247523Y-55188619D01*
X138295142Y-55283857D01*
X138295142Y-55426714D01*
X138247523Y-55521952D01*
X138199904Y-55569571D01*
X138104666Y-55617190D01*
X137723714Y-55617190D01*
X139152285Y-55426714D02*
X139152285Y-56093380D01*
X138914190Y-55045761D02*
X138676095Y-55760047D01*
X139295142Y-55760047D01*
X140104666Y-55093380D02*
X139914190Y-55093380D01*
X139818952Y-55141000D01*
X139771333Y-55188619D01*
X139676095Y-55331476D01*
X139628476Y-55521952D01*
X139628476Y-55902904D01*
X139676095Y-55998142D01*
X139723714Y-56045761D01*
X139818952Y-56093380D01*
X140009428Y-56093380D01*
X140104666Y-56045761D01*
X140152285Y-55998142D01*
X140199904Y-55902904D01*
X140199904Y-55664809D01*
X140152285Y-55569571D01*
X140104666Y-55521952D01*
X140009428Y-55474333D01*
X139818952Y-55474333D01*
X139723714Y-55521952D01*
X139676095Y-55569571D01*
X139628476Y-55664809D01*
G04 #@! TO.C,SW1*
X105584666Y-57720761D02*
X105727523Y-57768380D01*
X105965619Y-57768380D01*
X106060857Y-57720761D01*
X106108476Y-57673142D01*
X106156095Y-57577904D01*
X106156095Y-57482666D01*
X106108476Y-57387428D01*
X106060857Y-57339809D01*
X105965619Y-57292190D01*
X105775142Y-57244571D01*
X105679904Y-57196952D01*
X105632285Y-57149333D01*
X105584666Y-57054095D01*
X105584666Y-56958857D01*
X105632285Y-56863619D01*
X105679904Y-56816000D01*
X105775142Y-56768380D01*
X106013238Y-56768380D01*
X106156095Y-56816000D01*
X106489428Y-56768380D02*
X106727523Y-57768380D01*
X106918000Y-57054095D01*
X107108476Y-57768380D01*
X107346571Y-56768380D01*
X108251333Y-57768380D02*
X107679904Y-57768380D01*
X107965619Y-57768380D02*
X107965619Y-56768380D01*
X107870380Y-56911238D01*
X107775142Y-57006476D01*
X107679904Y-57054095D01*
G04 #@! TO.C,SW2*
X105584666Y-70420761D02*
X105727523Y-70468380D01*
X105965619Y-70468380D01*
X106060857Y-70420761D01*
X106108476Y-70373142D01*
X106156095Y-70277904D01*
X106156095Y-70182666D01*
X106108476Y-70087428D01*
X106060857Y-70039809D01*
X105965619Y-69992190D01*
X105775142Y-69944571D01*
X105679904Y-69896952D01*
X105632285Y-69849333D01*
X105584666Y-69754095D01*
X105584666Y-69658857D01*
X105632285Y-69563619D01*
X105679904Y-69516000D01*
X105775142Y-69468380D01*
X106013238Y-69468380D01*
X106156095Y-69516000D01*
X106489428Y-69468380D02*
X106727523Y-70468380D01*
X106918000Y-69754095D01*
X107108476Y-70468380D01*
X107346571Y-69468380D01*
X107679904Y-69563619D02*
X107727523Y-69516000D01*
X107822761Y-69468380D01*
X108060857Y-69468380D01*
X108156095Y-69516000D01*
X108203714Y-69563619D01*
X108251333Y-69658857D01*
X108251333Y-69754095D01*
X108203714Y-69896952D01*
X107632285Y-70468380D01*
X108251333Y-70468380D01*
G04 #@! TO.C,SW3*
X105584666Y-83120761D02*
X105727523Y-83168380D01*
X105965619Y-83168380D01*
X106060857Y-83120761D01*
X106108476Y-83073142D01*
X106156095Y-82977904D01*
X106156095Y-82882666D01*
X106108476Y-82787428D01*
X106060857Y-82739809D01*
X105965619Y-82692190D01*
X105775142Y-82644571D01*
X105679904Y-82596952D01*
X105632285Y-82549333D01*
X105584666Y-82454095D01*
X105584666Y-82358857D01*
X105632285Y-82263619D01*
X105679904Y-82216000D01*
X105775142Y-82168380D01*
X106013238Y-82168380D01*
X106156095Y-82216000D01*
X106489428Y-82168380D02*
X106727523Y-83168380D01*
X106918000Y-82454095D01*
X107108476Y-83168380D01*
X107346571Y-82168380D01*
X107632285Y-82168380D02*
X108251333Y-82168380D01*
X107918000Y-82549333D01*
X108060857Y-82549333D01*
X108156095Y-82596952D01*
X108203714Y-82644571D01*
X108251333Y-82739809D01*
X108251333Y-82977904D01*
X108203714Y-83073142D01*
X108156095Y-83120761D01*
X108060857Y-83168380D01*
X107775142Y-83168380D01*
X107679904Y-83120761D01*
X107632285Y-83073142D01*
G04 #@! TO.C,SW4*
X105584666Y-95820761D02*
X105727523Y-95868380D01*
X105965619Y-95868380D01*
X106060857Y-95820761D01*
X106108476Y-95773142D01*
X106156095Y-95677904D01*
X106156095Y-95582666D01*
X106108476Y-95487428D01*
X106060857Y-95439809D01*
X105965619Y-95392190D01*
X105775142Y-95344571D01*
X105679904Y-95296952D01*
X105632285Y-95249333D01*
X105584666Y-95154095D01*
X105584666Y-95058857D01*
X105632285Y-94963619D01*
X105679904Y-94916000D01*
X105775142Y-94868380D01*
X106013238Y-94868380D01*
X106156095Y-94916000D01*
X106489428Y-94868380D02*
X106727523Y-95868380D01*
X106918000Y-95154095D01*
X107108476Y-95868380D01*
X107346571Y-94868380D01*
X108156095Y-95201714D02*
X108156095Y-95868380D01*
X107918000Y-94820761D02*
X107679904Y-95535047D01*
X108298952Y-95535047D01*
G04 #@! TO.C,SW5*
X105584666Y-108520761D02*
X105727523Y-108568380D01*
X105965619Y-108568380D01*
X106060857Y-108520761D01*
X106108476Y-108473142D01*
X106156095Y-108377904D01*
X106156095Y-108282666D01*
X106108476Y-108187428D01*
X106060857Y-108139809D01*
X105965619Y-108092190D01*
X105775142Y-108044571D01*
X105679904Y-107996952D01*
X105632285Y-107949333D01*
X105584666Y-107854095D01*
X105584666Y-107758857D01*
X105632285Y-107663619D01*
X105679904Y-107616000D01*
X105775142Y-107568380D01*
X106013238Y-107568380D01*
X106156095Y-107616000D01*
X106489428Y-107568380D02*
X106727523Y-108568380D01*
X106918000Y-107854095D01*
X107108476Y-108568380D01*
X107346571Y-107568380D01*
X108203714Y-107568380D02*
X107727523Y-107568380D01*
X107679904Y-108044571D01*
X107727523Y-107996952D01*
X107822761Y-107949333D01*
X108060857Y-107949333D01*
X108156095Y-107996952D01*
X108203714Y-108044571D01*
X108251333Y-108139809D01*
X108251333Y-108377904D01*
X108203714Y-108473142D01*
X108156095Y-108520761D01*
X108060857Y-108568380D01*
X107822761Y-108568380D01*
X107727523Y-108520761D01*
X107679904Y-108473142D01*
G04 #@! TO.C,SW6*
X186864666Y-57720761D02*
X187007523Y-57768380D01*
X187245619Y-57768380D01*
X187340857Y-57720761D01*
X187388476Y-57673142D01*
X187436095Y-57577904D01*
X187436095Y-57482666D01*
X187388476Y-57387428D01*
X187340857Y-57339809D01*
X187245619Y-57292190D01*
X187055142Y-57244571D01*
X186959904Y-57196952D01*
X186912285Y-57149333D01*
X186864666Y-57054095D01*
X186864666Y-56958857D01*
X186912285Y-56863619D01*
X186959904Y-56816000D01*
X187055142Y-56768380D01*
X187293238Y-56768380D01*
X187436095Y-56816000D01*
X187769428Y-56768380D02*
X188007523Y-57768380D01*
X188198000Y-57054095D01*
X188388476Y-57768380D01*
X188626571Y-56768380D01*
X189436095Y-56768380D02*
X189245619Y-56768380D01*
X189150380Y-56816000D01*
X189102761Y-56863619D01*
X189007523Y-57006476D01*
X188959904Y-57196952D01*
X188959904Y-57577904D01*
X189007523Y-57673142D01*
X189055142Y-57720761D01*
X189150380Y-57768380D01*
X189340857Y-57768380D01*
X189436095Y-57720761D01*
X189483714Y-57673142D01*
X189531333Y-57577904D01*
X189531333Y-57339809D01*
X189483714Y-57244571D01*
X189436095Y-57196952D01*
X189340857Y-57149333D01*
X189150380Y-57149333D01*
X189055142Y-57196952D01*
X189007523Y-57244571D01*
X188959904Y-57339809D01*
G04 #@! TO.C,SW7*
X186864666Y-70420761D02*
X187007523Y-70468380D01*
X187245619Y-70468380D01*
X187340857Y-70420761D01*
X187388476Y-70373142D01*
X187436095Y-70277904D01*
X187436095Y-70182666D01*
X187388476Y-70087428D01*
X187340857Y-70039809D01*
X187245619Y-69992190D01*
X187055142Y-69944571D01*
X186959904Y-69896952D01*
X186912285Y-69849333D01*
X186864666Y-69754095D01*
X186864666Y-69658857D01*
X186912285Y-69563619D01*
X186959904Y-69516000D01*
X187055142Y-69468380D01*
X187293238Y-69468380D01*
X187436095Y-69516000D01*
X187769428Y-69468380D02*
X188007523Y-70468380D01*
X188198000Y-69754095D01*
X188388476Y-70468380D01*
X188626571Y-69468380D01*
X188912285Y-69468380D02*
X189578952Y-69468380D01*
X189150380Y-70468380D01*
G04 #@! TO.C,SW8*
X186864666Y-83120761D02*
X187007523Y-83168380D01*
X187245619Y-83168380D01*
X187340857Y-83120761D01*
X187388476Y-83073142D01*
X187436095Y-82977904D01*
X187436095Y-82882666D01*
X187388476Y-82787428D01*
X187340857Y-82739809D01*
X187245619Y-82692190D01*
X187055142Y-82644571D01*
X186959904Y-82596952D01*
X186912285Y-82549333D01*
X186864666Y-82454095D01*
X186864666Y-82358857D01*
X186912285Y-82263619D01*
X186959904Y-82216000D01*
X187055142Y-82168380D01*
X187293238Y-82168380D01*
X187436095Y-82216000D01*
X187769428Y-82168380D02*
X188007523Y-83168380D01*
X188198000Y-82454095D01*
X188388476Y-83168380D01*
X188626571Y-82168380D01*
X189150380Y-82596952D02*
X189055142Y-82549333D01*
X189007523Y-82501714D01*
X188959904Y-82406476D01*
X188959904Y-82358857D01*
X189007523Y-82263619D01*
X189055142Y-82216000D01*
X189150380Y-82168380D01*
X189340857Y-82168380D01*
X189436095Y-82216000D01*
X189483714Y-82263619D01*
X189531333Y-82358857D01*
X189531333Y-82406476D01*
X189483714Y-82501714D01*
X189436095Y-82549333D01*
X189340857Y-82596952D01*
X189150380Y-82596952D01*
X189055142Y-82644571D01*
X189007523Y-82692190D01*
X188959904Y-82787428D01*
X188959904Y-82977904D01*
X189007523Y-83073142D01*
X189055142Y-83120761D01*
X189150380Y-83168380D01*
X189340857Y-83168380D01*
X189436095Y-83120761D01*
X189483714Y-83073142D01*
X189531333Y-82977904D01*
X189531333Y-82787428D01*
X189483714Y-82692190D01*
X189436095Y-82644571D01*
X189340857Y-82596952D01*
G04 #@! TO.C,SW9*
X186864666Y-95820761D02*
X187007523Y-95868380D01*
X187245619Y-95868380D01*
X187340857Y-95820761D01*
X187388476Y-95773142D01*
X187436095Y-95677904D01*
X187436095Y-95582666D01*
X187388476Y-95487428D01*
X187340857Y-95439809D01*
X187245619Y-95392190D01*
X187055142Y-95344571D01*
X186959904Y-95296952D01*
X186912285Y-95249333D01*
X186864666Y-95154095D01*
X186864666Y-95058857D01*
X186912285Y-94963619D01*
X186959904Y-94916000D01*
X187055142Y-94868380D01*
X187293238Y-94868380D01*
X187436095Y-94916000D01*
X187769428Y-94868380D02*
X188007523Y-95868380D01*
X188198000Y-95154095D01*
X188388476Y-95868380D01*
X188626571Y-94868380D01*
X189055142Y-95868380D02*
X189245619Y-95868380D01*
X189340857Y-95820761D01*
X189388476Y-95773142D01*
X189483714Y-95630285D01*
X189531333Y-95439809D01*
X189531333Y-95058857D01*
X189483714Y-94963619D01*
X189436095Y-94916000D01*
X189340857Y-94868380D01*
X189150380Y-94868380D01*
X189055142Y-94916000D01*
X189007523Y-94963619D01*
X188959904Y-95058857D01*
X188959904Y-95296952D01*
X189007523Y-95392190D01*
X189055142Y-95439809D01*
X189150380Y-95487428D01*
X189340857Y-95487428D01*
X189436095Y-95439809D01*
X189483714Y-95392190D01*
X189531333Y-95296952D01*
G04 #@! TO.C,SW10*
X186388476Y-108520761D02*
X186531333Y-108568380D01*
X186769428Y-108568380D01*
X186864666Y-108520761D01*
X186912285Y-108473142D01*
X186959904Y-108377904D01*
X186959904Y-108282666D01*
X186912285Y-108187428D01*
X186864666Y-108139809D01*
X186769428Y-108092190D01*
X186578952Y-108044571D01*
X186483714Y-107996952D01*
X186436095Y-107949333D01*
X186388476Y-107854095D01*
X186388476Y-107758857D01*
X186436095Y-107663619D01*
X186483714Y-107616000D01*
X186578952Y-107568380D01*
X186817047Y-107568380D01*
X186959904Y-107616000D01*
X187293238Y-107568380D02*
X187531333Y-108568380D01*
X187721809Y-107854095D01*
X187912285Y-108568380D01*
X188150380Y-107568380D01*
X189055142Y-108568380D02*
X188483714Y-108568380D01*
X188769428Y-108568380D02*
X188769428Y-107568380D01*
X188674190Y-107711238D01*
X188578952Y-107806476D01*
X188483714Y-107854095D01*
X189674190Y-107568380D02*
X189769428Y-107568380D01*
X189864666Y-107616000D01*
X189912285Y-107663619D01*
X189959904Y-107758857D01*
X190007523Y-107949333D01*
X190007523Y-108187428D01*
X189959904Y-108377904D01*
X189912285Y-108473142D01*
X189864666Y-108520761D01*
X189769428Y-108568380D01*
X189674190Y-108568380D01*
X189578952Y-108520761D01*
X189531333Y-108473142D01*
X189483714Y-108377904D01*
X189436095Y-108187428D01*
X189436095Y-107949333D01*
X189483714Y-107758857D01*
X189531333Y-107663619D01*
X189578952Y-107616000D01*
X189674190Y-107568380D01*
G04 #@! TO.C,REF\002A\002A*
X105854666Y-51608380D02*
X105521333Y-51132190D01*
X105283238Y-51608380D02*
X105283238Y-50608380D01*
X105664190Y-50608380D01*
X105759428Y-50656000D01*
X105807047Y-50703619D01*
X105854666Y-50798857D01*
X105854666Y-50941714D01*
X105807047Y-51036952D01*
X105759428Y-51084571D01*
X105664190Y-51132190D01*
X105283238Y-51132190D01*
X106283238Y-51084571D02*
X106616571Y-51084571D01*
X106759428Y-51608380D02*
X106283238Y-51608380D01*
X106283238Y-50608380D01*
X106759428Y-50608380D01*
X107521333Y-51084571D02*
X107188000Y-51084571D01*
X107188000Y-51608380D02*
X107188000Y-50608380D01*
X107664190Y-50608380D01*
X108188000Y-50608380D02*
X108188000Y-50846476D01*
X107949904Y-50751238D02*
X108188000Y-50846476D01*
X108426095Y-50751238D01*
X108045142Y-51036952D02*
X108188000Y-50846476D01*
X108330857Y-51036952D01*
X108949904Y-50608380D02*
X108949904Y-50846476D01*
X108711809Y-50751238D02*
X108949904Y-50846476D01*
X109188000Y-50751238D01*
X108807047Y-51036952D02*
X108949904Y-50846476D01*
X109092761Y-51036952D01*
G04 #@! TO.C,D1*
X135659904Y-99043380D02*
X135659904Y-98043380D01*
X135898000Y-98043380D01*
X136040857Y-98091000D01*
X136136095Y-98186238D01*
X136183714Y-98281476D01*
X136231333Y-98471952D01*
X136231333Y-98614809D01*
X136183714Y-98805285D01*
X136136095Y-98900523D01*
X136040857Y-98995761D01*
X135898000Y-99043380D01*
X135659904Y-99043380D01*
X137183714Y-99043380D02*
X136612285Y-99043380D01*
X136898000Y-99043380D02*
X136898000Y-98043380D01*
X136802761Y-98186238D01*
X136707523Y-98281476D01*
X136612285Y-98329095D01*
X132326095Y-99363380D02*
X132326095Y-98363380D01*
X132897523Y-99363380D02*
X132468952Y-98791952D01*
X132897523Y-98363380D02*
X132326095Y-98934809D01*
G04 #@! TO.C,D2*
X135659904Y-101583380D02*
X135659904Y-100583380D01*
X135898000Y-100583380D01*
X136040857Y-100631000D01*
X136136095Y-100726238D01*
X136183714Y-100821476D01*
X136231333Y-101011952D01*
X136231333Y-101154809D01*
X136183714Y-101345285D01*
X136136095Y-101440523D01*
X136040857Y-101535761D01*
X135898000Y-101583380D01*
X135659904Y-101583380D01*
X136612285Y-100678619D02*
X136659904Y-100631000D01*
X136755142Y-100583380D01*
X136993238Y-100583380D01*
X137088476Y-100631000D01*
X137136095Y-100678619D01*
X137183714Y-100773857D01*
X137183714Y-100869095D01*
X137136095Y-101011952D01*
X136564666Y-101583380D01*
X137183714Y-101583380D01*
X132326095Y-101903380D02*
X132326095Y-100903380D01*
X132897523Y-101903380D02*
X132468952Y-101331952D01*
X132897523Y-100903380D02*
X132326095Y-101474809D01*
G04 #@! TO.C,D3*
X135659904Y-104138381D02*
X135659904Y-103138381D01*
X135898000Y-103138381D01*
X136040857Y-103186001D01*
X136136095Y-103281239D01*
X136183714Y-103376477D01*
X136231333Y-103566953D01*
X136231333Y-103709810D01*
X136183714Y-103900286D01*
X136136095Y-103995524D01*
X136040857Y-104090762D01*
X135898000Y-104138381D01*
X135659904Y-104138381D01*
X136564666Y-103138381D02*
X137183714Y-103138381D01*
X136850380Y-103519334D01*
X136993238Y-103519334D01*
X137088476Y-103566953D01*
X137136095Y-103614572D01*
X137183714Y-103709810D01*
X137183714Y-103947905D01*
X137136095Y-104043143D01*
X137088476Y-104090762D01*
X136993238Y-104138381D01*
X136707523Y-104138381D01*
X136612285Y-104090762D01*
X136564666Y-104043143D01*
X132326095Y-104458381D02*
X132326095Y-103458381D01*
X132897523Y-104458381D02*
X132468952Y-103886953D01*
X132897523Y-103458381D02*
X132326095Y-104029810D01*
G04 #@! TO.C,D4*
X135659904Y-106663380D02*
X135659904Y-105663380D01*
X135898000Y-105663380D01*
X136040857Y-105711000D01*
X136136095Y-105806238D01*
X136183714Y-105901476D01*
X136231333Y-106091952D01*
X136231333Y-106234809D01*
X136183714Y-106425285D01*
X136136095Y-106520523D01*
X136040857Y-106615761D01*
X135898000Y-106663380D01*
X135659904Y-106663380D01*
X137088476Y-105996714D02*
X137088476Y-106663380D01*
X136850380Y-105615761D02*
X136612285Y-106330047D01*
X137231333Y-106330047D01*
X132326095Y-106983380D02*
X132326095Y-105983380D01*
X132897523Y-106983380D02*
X132468952Y-106411952D01*
X132897523Y-105983380D02*
X132326095Y-106554809D01*
G04 #@! TO.C,D5*
X135659904Y-109203380D02*
X135659904Y-108203380D01*
X135898000Y-108203380D01*
X136040857Y-108251000D01*
X136136095Y-108346238D01*
X136183714Y-108441476D01*
X136231333Y-108631952D01*
X136231333Y-108774809D01*
X136183714Y-108965285D01*
X136136095Y-109060523D01*
X136040857Y-109155761D01*
X135898000Y-109203380D01*
X135659904Y-109203380D01*
X137136095Y-108203380D02*
X136659904Y-108203380D01*
X136612285Y-108679571D01*
X136659904Y-108631952D01*
X136755142Y-108584333D01*
X136993238Y-108584333D01*
X137088476Y-108631952D01*
X137136095Y-108679571D01*
X137183714Y-108774809D01*
X137183714Y-109012904D01*
X137136095Y-109108142D01*
X137088476Y-109155761D01*
X136993238Y-109203380D01*
X136755142Y-109203380D01*
X136659904Y-109155761D01*
X136612285Y-109108142D01*
X132326095Y-109523380D02*
X132326095Y-108523380D01*
X132897523Y-109523380D02*
X132468952Y-108951952D01*
X132897523Y-108523380D02*
X132326095Y-109094809D01*
G04 #@! TO.C,D6*
X135659904Y-111743380D02*
X135659904Y-110743380D01*
X135898000Y-110743380D01*
X136040857Y-110791000D01*
X136136095Y-110886238D01*
X136183714Y-110981476D01*
X136231333Y-111171952D01*
X136231333Y-111314809D01*
X136183714Y-111505285D01*
X136136095Y-111600523D01*
X136040857Y-111695761D01*
X135898000Y-111743380D01*
X135659904Y-111743380D01*
X137088476Y-110743380D02*
X136898000Y-110743380D01*
X136802761Y-110791000D01*
X136755142Y-110838619D01*
X136659904Y-110981476D01*
X136612285Y-111171952D01*
X136612285Y-111552904D01*
X136659904Y-111648142D01*
X136707523Y-111695761D01*
X136802761Y-111743380D01*
X136993238Y-111743380D01*
X137088476Y-111695761D01*
X137136095Y-111648142D01*
X137183714Y-111552904D01*
X137183714Y-111314809D01*
X137136095Y-111219571D01*
X137088476Y-111171952D01*
X136993238Y-111124333D01*
X136802761Y-111124333D01*
X136707523Y-111171952D01*
X136659904Y-111219571D01*
X136612285Y-111314809D01*
X132326095Y-112063380D02*
X132326095Y-111063380D01*
X132897523Y-112063380D02*
X132468952Y-111491952D01*
X132897523Y-111063380D02*
X132326095Y-111634809D01*
G04 #@! TO.C,D7*
X135659904Y-114283380D02*
X135659904Y-113283380D01*
X135898000Y-113283380D01*
X136040857Y-113331000D01*
X136136095Y-113426238D01*
X136183714Y-113521476D01*
X136231333Y-113711952D01*
X136231333Y-113854809D01*
X136183714Y-114045285D01*
X136136095Y-114140523D01*
X136040857Y-114235761D01*
X135898000Y-114283380D01*
X135659904Y-114283380D01*
X136564666Y-113283380D02*
X137231333Y-113283380D01*
X136802761Y-114283380D01*
X132326095Y-114603380D02*
X132326095Y-113603380D01*
X132897523Y-114603380D02*
X132468952Y-114031952D01*
X132897523Y-113603380D02*
X132326095Y-114174809D01*
G04 #@! TO.C,D8*
X135659904Y-116823380D02*
X135659904Y-115823380D01*
X135898000Y-115823380D01*
X136040857Y-115871000D01*
X136136095Y-115966238D01*
X136183714Y-116061476D01*
X136231333Y-116251952D01*
X136231333Y-116394809D01*
X136183714Y-116585285D01*
X136136095Y-116680523D01*
X136040857Y-116775761D01*
X135898000Y-116823380D01*
X135659904Y-116823380D01*
X136802761Y-116251952D02*
X136707523Y-116204333D01*
X136659904Y-116156714D01*
X136612285Y-116061476D01*
X136612285Y-116013857D01*
X136659904Y-115918619D01*
X136707523Y-115871000D01*
X136802761Y-115823380D01*
X136993238Y-115823380D01*
X137088476Y-115871000D01*
X137136095Y-115918619D01*
X137183714Y-116013857D01*
X137183714Y-116061476D01*
X137136095Y-116156714D01*
X137088476Y-116204333D01*
X136993238Y-116251952D01*
X136802761Y-116251952D01*
X136707523Y-116299571D01*
X136659904Y-116347190D01*
X136612285Y-116442428D01*
X136612285Y-116632904D01*
X136659904Y-116728142D01*
X136707523Y-116775761D01*
X136802761Y-116823380D01*
X136993238Y-116823380D01*
X137088476Y-116775761D01*
X137136095Y-116728142D01*
X137183714Y-116632904D01*
X137183714Y-116442428D01*
X137136095Y-116347190D01*
X137088476Y-116299571D01*
X136993238Y-116251952D01*
X132326095Y-117143380D02*
X132326095Y-116143380D01*
X132897523Y-117143380D02*
X132468952Y-116571952D01*
X132897523Y-116143380D02*
X132326095Y-116714809D01*
G04 #@! TO.C,D9*
X157249904Y-121063380D02*
X157249904Y-120063380D01*
X157488000Y-120063380D01*
X157630857Y-120111000D01*
X157726095Y-120206238D01*
X157773714Y-120301476D01*
X157821333Y-120491952D01*
X157821333Y-120634809D01*
X157773714Y-120825285D01*
X157726095Y-120920523D01*
X157630857Y-121015761D01*
X157488000Y-121063380D01*
X157249904Y-121063380D01*
X158297523Y-121063380D02*
X158488000Y-121063380D01*
X158583238Y-121015761D01*
X158630857Y-120968142D01*
X158726095Y-120825285D01*
X158773714Y-120634809D01*
X158773714Y-120253857D01*
X158726095Y-120158619D01*
X158678476Y-120111000D01*
X158583238Y-120063380D01*
X158392761Y-120063380D01*
X158297523Y-120111000D01*
X158249904Y-120158619D01*
X158202285Y-120253857D01*
X158202285Y-120491952D01*
X158249904Y-120587190D01*
X158297523Y-120634809D01*
X158392761Y-120682428D01*
X158583238Y-120682428D01*
X158678476Y-120634809D01*
X158726095Y-120587190D01*
X158773714Y-120491952D01*
X161536095Y-120743380D02*
X161536095Y-119743380D01*
X162107523Y-120743380D02*
X161678952Y-120171952D01*
X162107523Y-119743380D02*
X161536095Y-120314809D01*
G04 #@! TO.C,D10*
X156773714Y-118523380D02*
X156773714Y-117523380D01*
X157011809Y-117523380D01*
X157154666Y-117571000D01*
X157249904Y-117666238D01*
X157297523Y-117761476D01*
X157345142Y-117951952D01*
X157345142Y-118094809D01*
X157297523Y-118285285D01*
X157249904Y-118380523D01*
X157154666Y-118475761D01*
X157011809Y-118523380D01*
X156773714Y-118523380D01*
X158297523Y-118523380D02*
X157726095Y-118523380D01*
X158011809Y-118523380D02*
X158011809Y-117523380D01*
X157916571Y-117666238D01*
X157821333Y-117761476D01*
X157726095Y-117809095D01*
X158916571Y-117523380D02*
X159011809Y-117523380D01*
X159107047Y-117571000D01*
X159154666Y-117618619D01*
X159202285Y-117713857D01*
X159249904Y-117904333D01*
X159249904Y-118142428D01*
X159202285Y-118332904D01*
X159154666Y-118428142D01*
X159107047Y-118475761D01*
X159011809Y-118523380D01*
X158916571Y-118523380D01*
X158821333Y-118475761D01*
X158773714Y-118428142D01*
X158726095Y-118332904D01*
X158678476Y-118142428D01*
X158678476Y-117904333D01*
X158726095Y-117713857D01*
X158773714Y-117618619D01*
X158821333Y-117571000D01*
X158916571Y-117523380D01*
X161536095Y-118203380D02*
X161536095Y-117203380D01*
X162107523Y-118203380D02*
X161678952Y-117631952D01*
X162107523Y-117203380D02*
X161536095Y-117774809D01*
G04 #@! TO.C,D11*
X156773714Y-115983380D02*
X156773714Y-114983380D01*
X157011809Y-114983380D01*
X157154666Y-115031000D01*
X157249904Y-115126238D01*
X157297523Y-115221476D01*
X157345142Y-115411952D01*
X157345142Y-115554809D01*
X157297523Y-115745285D01*
X157249904Y-115840523D01*
X157154666Y-115935761D01*
X157011809Y-115983380D01*
X156773714Y-115983380D01*
X158297523Y-115983380D02*
X157726095Y-115983380D01*
X158011809Y-115983380D02*
X158011809Y-114983380D01*
X157916571Y-115126238D01*
X157821333Y-115221476D01*
X157726095Y-115269095D01*
X159249904Y-115983380D02*
X158678476Y-115983380D01*
X158964190Y-115983380D02*
X158964190Y-114983380D01*
X158868952Y-115126238D01*
X158773714Y-115221476D01*
X158678476Y-115269095D01*
X161536095Y-115663380D02*
X161536095Y-114663380D01*
X162107523Y-115663380D02*
X161678952Y-115091952D01*
X162107523Y-114663380D02*
X161536095Y-115234809D01*
G04 #@! TO.C,D12*
X156773714Y-113443380D02*
X156773714Y-112443380D01*
X157011809Y-112443380D01*
X157154666Y-112491000D01*
X157249904Y-112586238D01*
X157297523Y-112681476D01*
X157345142Y-112871952D01*
X157345142Y-113014809D01*
X157297523Y-113205285D01*
X157249904Y-113300523D01*
X157154666Y-113395761D01*
X157011809Y-113443380D01*
X156773714Y-113443380D01*
X158297523Y-113443380D02*
X157726095Y-113443380D01*
X158011809Y-113443380D02*
X158011809Y-112443380D01*
X157916571Y-112586238D01*
X157821333Y-112681476D01*
X157726095Y-112729095D01*
X158678476Y-112538619D02*
X158726095Y-112491000D01*
X158821333Y-112443380D01*
X159059428Y-112443380D01*
X159154666Y-112491000D01*
X159202285Y-112538619D01*
X159249904Y-112633857D01*
X159249904Y-112729095D01*
X159202285Y-112871952D01*
X158630857Y-113443380D01*
X159249904Y-113443380D01*
X161536095Y-113123380D02*
X161536095Y-112123380D01*
X162107523Y-113123380D02*
X161678952Y-112551952D01*
X162107523Y-112123380D02*
X161536095Y-112694809D01*
G04 #@! TO.C,D13*
X156773714Y-110903380D02*
X156773714Y-109903380D01*
X157011809Y-109903380D01*
X157154666Y-109951000D01*
X157249904Y-110046238D01*
X157297523Y-110141476D01*
X157345142Y-110331952D01*
X157345142Y-110474809D01*
X157297523Y-110665285D01*
X157249904Y-110760523D01*
X157154666Y-110855761D01*
X157011809Y-110903380D01*
X156773714Y-110903380D01*
X158297523Y-110903380D02*
X157726095Y-110903380D01*
X158011809Y-110903380D02*
X158011809Y-109903380D01*
X157916571Y-110046238D01*
X157821333Y-110141476D01*
X157726095Y-110189095D01*
X158630857Y-109903380D02*
X159249904Y-109903380D01*
X158916571Y-110284333D01*
X159059428Y-110284333D01*
X159154666Y-110331952D01*
X159202285Y-110379571D01*
X159249904Y-110474809D01*
X159249904Y-110712904D01*
X159202285Y-110808142D01*
X159154666Y-110855761D01*
X159059428Y-110903380D01*
X158773714Y-110903380D01*
X158678476Y-110855761D01*
X158630857Y-110808142D01*
X161536095Y-110583380D02*
X161536095Y-109583380D01*
X162107523Y-110583380D02*
X161678952Y-110011952D01*
X162107523Y-109583380D02*
X161536095Y-110154809D01*
G04 #@! TO.C,D14*
X156773714Y-108363380D02*
X156773714Y-107363380D01*
X157011809Y-107363380D01*
X157154666Y-107411000D01*
X157249904Y-107506238D01*
X157297523Y-107601476D01*
X157345142Y-107791952D01*
X157345142Y-107934809D01*
X157297523Y-108125285D01*
X157249904Y-108220523D01*
X157154666Y-108315761D01*
X157011809Y-108363380D01*
X156773714Y-108363380D01*
X158297523Y-108363380D02*
X157726095Y-108363380D01*
X158011809Y-108363380D02*
X158011809Y-107363380D01*
X157916571Y-107506238D01*
X157821333Y-107601476D01*
X157726095Y-107649095D01*
X159154666Y-107696714D02*
X159154666Y-108363380D01*
X158916571Y-107315761D02*
X158678476Y-108030047D01*
X159297523Y-108030047D01*
X161536095Y-108043380D02*
X161536095Y-107043380D01*
X162107523Y-108043380D02*
X161678952Y-107471952D01*
X162107523Y-107043380D02*
X161536095Y-107614809D01*
G04 #@! TO.C,D15*
X156768713Y-105778379D02*
X156768713Y-104778379D01*
X157006808Y-104778379D01*
X157149665Y-104825999D01*
X157244903Y-104921237D01*
X157292522Y-105016475D01*
X157340141Y-105206951D01*
X157340141Y-105349808D01*
X157292522Y-105540284D01*
X157244903Y-105635522D01*
X157149665Y-105730760D01*
X157006808Y-105778379D01*
X156768713Y-105778379D01*
X158292522Y-105778379D02*
X157721094Y-105778379D01*
X158006808Y-105778379D02*
X158006808Y-104778379D01*
X157911570Y-104921237D01*
X157816332Y-105016475D01*
X157721094Y-105064094D01*
X159197284Y-104778379D02*
X158721094Y-104778379D01*
X158673475Y-105254570D01*
X158721094Y-105206951D01*
X158816332Y-105159332D01*
X159054427Y-105159332D01*
X159149665Y-105206951D01*
X159197284Y-105254570D01*
X159244903Y-105349808D01*
X159244903Y-105587903D01*
X159197284Y-105683141D01*
X159149665Y-105730760D01*
X159054427Y-105778379D01*
X158816332Y-105778379D01*
X158721094Y-105730760D01*
X158673475Y-105683141D01*
X161531094Y-105458379D02*
X161531094Y-104458379D01*
X162102522Y-105458379D02*
X161673951Y-104886951D01*
X162102522Y-104458379D02*
X161531094Y-105029808D01*
G04 #@! TO.C,D16*
X156768713Y-103228379D02*
X156768713Y-102228379D01*
X157006808Y-102228379D01*
X157149665Y-102275999D01*
X157244903Y-102371237D01*
X157292522Y-102466475D01*
X157340141Y-102656951D01*
X157340141Y-102799808D01*
X157292522Y-102990284D01*
X157244903Y-103085522D01*
X157149665Y-103180760D01*
X157006808Y-103228379D01*
X156768713Y-103228379D01*
X158292522Y-103228379D02*
X157721094Y-103228379D01*
X158006808Y-103228379D02*
X158006808Y-102228379D01*
X157911570Y-102371237D01*
X157816332Y-102466475D01*
X157721094Y-102514094D01*
X159149665Y-102228379D02*
X158959189Y-102228379D01*
X158863951Y-102275999D01*
X158816332Y-102323618D01*
X158721094Y-102466475D01*
X158673475Y-102656951D01*
X158673475Y-103037903D01*
X158721094Y-103133141D01*
X158768713Y-103180760D01*
X158863951Y-103228379D01*
X159054427Y-103228379D01*
X159149665Y-103180760D01*
X159197284Y-103133141D01*
X159244903Y-103037903D01*
X159244903Y-102799808D01*
X159197284Y-102704570D01*
X159149665Y-102656951D01*
X159054427Y-102609332D01*
X158863951Y-102609332D01*
X158768713Y-102656951D01*
X158721094Y-102704570D01*
X158673475Y-102799808D01*
X161531094Y-102908379D02*
X161531094Y-101908379D01*
X162102522Y-102908379D02*
X161673951Y-102336951D01*
X162102522Y-101908379D02*
X161531094Y-102479808D01*
G04 #@! TO.C,U1*
X146431095Y-97833380D02*
X146431095Y-98642904D01*
X146478714Y-98738142D01*
X146526333Y-98785761D01*
X146621571Y-98833380D01*
X146812047Y-98833380D01*
X146907285Y-98785761D01*
X146954904Y-98738142D01*
X147002523Y-98642904D01*
X147002523Y-97833380D01*
X148002523Y-98833380D02*
X147431095Y-98833380D01*
X147716809Y-98833380D02*
X147716809Y-97833380D01*
X147621571Y-97976238D01*
X147526333Y-98071476D01*
X147431095Y-98119095D01*
G04 #@! TO.C,U3*
X168021095Y-97198380D02*
X168021095Y-98007904D01*
X168068714Y-98103142D01*
X168116333Y-98150761D01*
X168211571Y-98198380D01*
X168402047Y-98198380D01*
X168497285Y-98150761D01*
X168544904Y-98103142D01*
X168592523Y-98007904D01*
X168592523Y-97198380D01*
X168973476Y-97198380D02*
X169592523Y-97198380D01*
X169259190Y-97579333D01*
X169402047Y-97579333D01*
X169497285Y-97626952D01*
X169544904Y-97674571D01*
X169592523Y-97769809D01*
X169592523Y-98007904D01*
X169544904Y-98103142D01*
X169497285Y-98150761D01*
X169402047Y-98198380D01*
X169116333Y-98198380D01*
X169021095Y-98150761D01*
X168973476Y-98103142D01*
G04 #@! TO.C,U4*
X173740380Y-75437904D02*
X174549904Y-75437904D01*
X174645142Y-75390285D01*
X174692761Y-75342666D01*
X174740380Y-75247428D01*
X174740380Y-75056952D01*
X174692761Y-74961714D01*
X174645142Y-74914095D01*
X174549904Y-74866476D01*
X173740380Y-74866476D01*
X174073714Y-73961714D02*
X174740380Y-73961714D01*
X173692761Y-74199809D02*
X174407047Y-74437904D01*
X174407047Y-73818857D01*
G04 #@! TO.C,U5*
X124206095Y-50208380D02*
X124206095Y-51017904D01*
X124253714Y-51113142D01*
X124301333Y-51160761D01*
X124396571Y-51208380D01*
X124587047Y-51208380D01*
X124682285Y-51160761D01*
X124729904Y-51113142D01*
X124777523Y-51017904D01*
X124777523Y-50208380D01*
X125729904Y-50208380D02*
X125253714Y-50208380D01*
X125206095Y-50684571D01*
X125253714Y-50636952D01*
X125348952Y-50589333D01*
X125587047Y-50589333D01*
X125682285Y-50636952D01*
X125729904Y-50684571D01*
X125777523Y-50779809D01*
X125777523Y-51017904D01*
X125729904Y-51113142D01*
X125682285Y-51160761D01*
X125587047Y-51208380D01*
X125348952Y-51208380D01*
X125253714Y-51160761D01*
X125206095Y-51113142D01*
G04 #@! TD*
M02*
