<?xml version="1.0" standalone="no"?>
 <!DOCTYPE svg PUBLIC "-//W3C//DTD SVG 1.1//EN" 
 "http://www.w3.org/Graphics/SVG/1.1/DTD/svg11.dtd"> 
<svg xmlns="http://www.w3.org/2000/svg" version="1.1" 
    width="7.06628cm" height="9.22528cm" viewBox="0 0 27820 36320 ">
<title>SVG Picture created as bargraphs-F.CrtYd.svg date 2019/02/17 21:48:30 </title>
  <desc>Picture generated by PCBNEW </desc>
<g style="fill:#000000; fill-opacity:1;stroke:#000000; stroke-opacity:1;
stroke-linecap:round; stroke-linejoin:round; "
 transform="translate(0 0) scale(1 1)">
</g>
<g style="fill:#000000; fill-opacity:0.0; 
stroke:#000000; stroke-width:-0.000393701; stroke-opacity:1; 
stroke-linecap:round; stroke-linejoin:round;">
</g>
<g style="fill:#C2C2C2; fill-opacity:0.0; 
stroke:#C2C2C2; stroke-width:-0.000393701; stroke-opacity:1; 
stroke-linecap:round; stroke-linejoin:round;">
</g>
<g style="fill:#C2C2C2; fill-opacity:0.0; 
stroke:#C2C2C2; stroke-width:19.685; stroke-opacity:1; 
stroke-linecap:round; stroke-linejoin:round;">
<circle cx="3289.37" cy="1789.37" r="964.567" /> 
<circle cx="1289.37" cy="35039.4" r="964.567" /> 
<circle cx="26289.4" cy="34789.4" r="964.567" /> 
<path d="M6625 9531
L10452 9531
" />
<path d="M6625 8547
L6625 9531
" />
<path d="M10452 8547
L6625 8547
" />
<path d="M10452 9531
L10452 8547
" />
<path d="M10452 10531
L10452 9547
" />
<path d="M10452 9547
L6625 9547
" />
<path d="M6625 9547
L6625 10531
" />
<path d="M6625 10531
L10452 10531
" />
<path d="M6610 11488
L10437 11488
" />
<path d="M6610 10504
L6610 11488
" />
<path d="M10437 10504
L6610 10504
" />
<path d="M10437 11488
L10437 10504
" />
<path d="M10452 12531
L10452 11547
" />
<path d="M10452 11547
L6625 11547
" />
<path d="M6625 11547
L6625 12531
" />
<path d="M6625 12531
L10452 12531
" />
<path d="M6625 13531
L10452 13531
" />
<path d="M6625 12547
L6625 13531
" />
<path d="M10452 12547
L6625 12547
" />
<path d="M10452 13531
L10452 12547
" />
<path d="M10437 14531
L10437 13547
" />
<path d="M10437 13547
L6610 13547
" />
<path d="M6610 13547
L6610 14531
" />
<path d="M6610 14531
L10437 14531
" />
<path d="M6625 15781
L10452 15781
" />
<path d="M6625 14797
L6625 15781
" />
<path d="M10452 14797
L6625 14797
" />
<path d="M10452 15781
L10452 14797
" />
<path d="M10452 16781
L10452 15797
" />
<path d="M10452 15797
L6625 15797
" />
<path d="M6625 15797
L6625 16781
" />
<path d="M6625 16781
L10452 16781
" />
<path d="M6625 20781
L10452 20781
" />
<path d="M6625 19797
L6625 20781
" />
<path d="M10452 19797
L6625 19797
" />
<path d="M10452 20781
L10452 19797
" />
<path d="M10452 21781
L10452 20797
" />
<path d="M10452 20797
L6625 20797
" />
<path d="M6625 20797
L6625 21781
" />
<path d="M6625 21781
L10452 21781
" />
<path d="M6625 22781
L10452 22781
" />
<path d="M6625 21797
L6625 22781
" />
<path d="M10452 21797
L6625 21797
" />
<path d="M10452 22781
L10452 21797
" />
<path d="M10452 23781
L10452 22797
" />
<path d="M10452 22797
L6625 22797
" />
<path d="M6625 22797
L6625 23781
" />
<path d="M6625 23781
L10452 23781
" />
<path d="M10452 24781
L10452 23797
" />
<path d="M10452 23797
L6625 23797
" />
<path d="M6625 23797
L6625 24781
" />
<path d="M6625 24781
L10452 24781
" />
<path d="M6625 25781
L10452 25781
" />
<path d="M6625 24797
L6625 25781
" />
<path d="M10452 24797
L6625 24797
" />
<path d="M10452 25781
L10452 24797
" />
<path d="M10452 26781
L10452 25797
" />
<path d="M10452 25797
L6625 25797
" />
<path d="M6625 25797
L6625 26781
" />
<path d="M6625 26781
L10452 26781
" />
<path d="M6625 27781
L10452 27781
" />
<path d="M6625 26797
L6625 27781
" />
<path d="M10452 26797
L6625 26797
" />
<path d="M10452 27781
L10452 26797
" />
<path d="M16781 31625
L15797 31625
" />
<path d="M15797 31625
L15797 35452
" />
<path d="M15797 35452
L16781 35452
" />
<path d="M16781 35452
L16781 31625
" />
<path d="M17781 35452
L17781 31625
" />
<path d="M16797 35452
L17781 35452
" />
<path d="M16797 31625
L16797 35452
" />
<path d="M17781 31625
L16797 31625
" />
<path d="M18781 31625
L17797 31625
" />
<path d="M17797 31625
L17797 35452
" />
<path d="M17797 35452
L18781 35452
" />
<path d="M18781 35452
L18781 31625
" />
<path d="M19781 35452
L19781 31625
" />
<path d="M18797 35452
L19781 35452
" />
<path d="M18797 31625
L18797 35452
" />
<path d="M19781 31625
L18797 31625
" />
<path d="M20781 31625
L19797 31625
" />
<path d="M19797 31625
L19797 35452
" />
<path d="M19797 35452
L20781 35452
" />
<path d="M20781 35452
L20781 31625
" />
<path d="M21781 35452
L21781 31625
" />
<path d="M20797 35452
L21781 35452
" />
<path d="M20797 31625
L20797 35452
" />
<path d="M21781 31625
L20797 31625
" />
<path d="M22781 31625
L21797 31625
" />
<path d="M21797 31625
L21797 35452
" />
<path d="M21797 35452
L22781 35452
" />
<path d="M22781 35452
L22781 31625
" />
<path d="M23781 35452
L23781 31625
" />
<path d="M22797 35452
L23781 35452
" />
<path d="M22797 31625
L22797 35452
" />
<path d="M23781 31625
L22797 31625
" />
<path d="M580 1830
L580 8248
" />
<path d="M580 8248
L1998 8248
" />
<path d="M1998 8248
L1998 1830
" />
<path d="M1998 1830
L580 1830
" />
<path d="M5614 6714
L5614 8864
" />
<path d="M5614 6714
L3748 6714
" />
<path d="M3748 8864
L5614 8864
" />
<path d="M3748 8864
L3748 6714
" />
<path d="M2625 3948
L2625 5129
" />
<path d="M2625 5129
L6452 5129
" />
<path d="M6452 5129
L6452 3948
" />
<path d="M6452 3948
L2625 3948
" />
<path d="M6452 5198
L2625 5198
" />
<path d="M6452 6379
L6452 5198
" />
<path d="M2625 6379
L6452 6379
" />
<path d="M2625 5198
L2625 6379
" />
<path d="M14952 6948
L11125 6948
" />
<path d="M14952 8129
L14952 6948
" />
<path d="M11125 8129
L14952 8129
" />
<path d="M11125 6948
L11125 8129
" />
<path d="M11125 5698
L11125 6879
" />
<path d="M11125 6879
L14952 6879
" />
<path d="M14952 6879
L14952 5698
" />
<path d="M14952 5698
L11125 5698
" />
<path d="M16129 4452
L16129 625
" />
<path d="M14948 4452
L16129 4452
" />
<path d="M14948 625
L14948 4452
" />
<path d="M16129 625
L14948 625
" />
<path d="M17379 625
L16198 625
" />
<path d="M16198 625
L16198 4452
" />
<path d="M16198 4452
L17379 4452
" />
<path d="M17379 4452
L17379 625
" />
<path d="M18629 4452
L18629 625
" />
<path d="M17448 4452
L18629 4452
" />
<path d="M17448 625
L17448 4452
" />
<path d="M18629 625
L17448 625
" />
<path d="M19879 625
L18698 625
" />
<path d="M18698 625
L18698 4452
" />
<path d="M18698 4452
L19879 4452
" />
<path d="M19879 4452
L19879 625
" />
<path d="M14952 4448
L11125 4448
" />
<path d="M14952 5629
L14952 4448
" />
<path d="M11125 5629
L14952 5629
" />
<path d="M11125 4448
L11125 5629
" />
<path d="M24452 3879
L24452 2698
" />
<path d="M24452 2698
L20625 2698
" />
<path d="M20625 2698
L20625 3879
" />
<path d="M20625 3879
L24452 3879
" />
<path d="M14952 18448
L11125 18448
" />
<path d="M14952 19629
L14952 18448
" />
<path d="M11125 19629
L14952 19629
" />
<path d="M11125 18448
L11125 19629
" />
<path d="M24452 5129
L24452 3948
" />
<path d="M24452 3948
L20625 3948
" />
<path d="M20625 3948
L20625 5129
" />
<path d="M20625 5129
L24452 5129
" />
<path d="M20625 6379
L24452 6379
" />
<path d="M20625 5198
L20625 6379
" />
<path d="M24452 5198
L20625 5198
" />
<path d="M24452 6379
L24452 5198
" />
<path d="M24452 7629
L24452 6448
" />
<path d="M24452 6448
L20625 6448
" />
<path d="M20625 6448
L20625 7629
" />
<path d="M20625 7629
L24452 7629
" />
<path d="M27452 9879
L27452 8698
" />
<path d="M27452 8698
L23625 8698
" />
<path d="M23625 8698
L23625 9879
" />
<path d="M23625 9879
L27452 9879
" />
<path d="M23625 11379
L27452 11379
" />
<path d="M23625 10198
L23625 11379
" />
<path d="M27452 10198
L23625 10198
" />
<path d="M27452 11379
L27452 10198
" />
<path d="M27452 12629
L27452 11448
" />
<path d="M27452 11448
L23625 11448
" />
<path d="M23625 11448
L23625 12629
" />
<path d="M23625 12629
L27452 12629
" />
<path d="M23625 14129
L27452 14129
" />
<path d="M23625 12948
L23625 14129
" />
<path d="M27452 12948
L23625 12948
" />
<path d="M27452 14129
L27452 12948
" />
<path d="M27452 15629
L27452 14448
" />
<path d="M27452 14448
L23625 14448
" />
<path d="M23625 14448
L23625 15629
" />
<path d="M23625 15629
L27452 15629
" />
<path d="M23625 17129
L27452 17129
" />
<path d="M23625 15948
L23625 17129
" />
<path d="M27452 15948
L23625 15948
" />
<path d="M27452 17129
L27452 15948
" />
<path d="M27452 18629
L27452 17448
" />
<path d="M27452 17448
L23625 17448
" />
<path d="M23625 17448
L23625 18629
" />
<path d="M23625 18629
L27452 18629
" />
<path d="M23625 19879
L27452 19879
" />
<path d="M23625 18698
L23625 19879
" />
<path d="M27452 18698
L23625 18698
" />
<path d="M27452 19879
L27452 18698
" />
<path d="M27452 21379
L27452 20198
" />
<path d="M27452 20198
L23625 20198
" />
<path d="M23625 20198
L23625 21379
" />
<path d="M23625 21379
L27452 21379
" />
<path d="M23625 22879
L27452 22879
" />
<path d="M23625 21698
L23625 22879
" />
<path d="M27452 21698
L23625 21698
" />
<path d="M27452 22879
L27452 21698
" />
<path d="M27452 24129
L27452 22948
" />
<path d="M27452 22948
L23625 22948
" />
<path d="M23625 22948
L23625 24129
" />
<path d="M23625 24129
L27452 24129
" />
<path d="M23625 25629
L27452 25629
" />
<path d="M23625 24448
L23625 25629
" />
<path d="M27452 24448
L23625 24448
" />
<path d="M27452 25629
L27452 24448
" />
<path d="M5141 14909
L929 14909
" />
<path d="M5141 29181
L5141 14909
" />
<path d="M929 29181
L5141 29181
" />
<path d="M929 14909
L929 29181
" />
<path d="M909 33899
L15181 33899
" />
<path d="M15181 33899
L15181 29687
" />
<path d="M15181 29687
L909 29687
" />
<path d="M909 29687
L909 33899
" />
<path d="M14891 8409
L10679 8409
" />
<path d="M14891 17661
L14891 8409
" />
<path d="M10679 17661
L14891 17661
" />
<path d="M10679 8409
L10679 17661
" />
<path d="M10679 19909
L10679 29161
" />
<path d="M10679 29161
L14891 29161
" />
<path d="M14891 29161
L14891 19909
" />
<path d="M14891 19909
L10679 19909
" />
<path d="M15659 31399
L24911 31399
" />
<path d="M24911 31399
L24911 27187
" />
<path d="M24911 27187
L15659 27187
" />
<path d="M15659 27187
L15659 31399
" />
<circle cx="26289.4" cy="1539.37" r="964.567" /> 
</g>
<g style="fill:#000000; fill-opacity:0.0; 
stroke:#000000; stroke-width:19.685; stroke-opacity:1; 
stroke-linecap:round; stroke-linejoin:round;">
</g>
<g style="fill:#C2C200; fill-opacity:0.0; 
stroke:#C2C200; stroke-width:19.685; stroke-opacity:1; 
stroke-linecap:round; stroke-linejoin:round;">
</g>
<g style="fill:#C2C200; fill-opacity:0.0; 
stroke:#C2C200; stroke-width:78.7402; stroke-opacity:1; 
stroke-linecap:round; stroke-linejoin:round;">
<path d="M39 36289
L39 39
" />
<path d="M27789 36289
L39 36289
" />
<path d="M27789 39
L27789 36289
" />
<path d="M39 39
L27789 39
" />
</g> 
</svg>
