<?xml version="1.0" standalone="no"?>
 <!DOCTYPE svg PUBLIC "-//W3C//DTD SVG 1.1//EN" 
 "http://www.w3.org/Graphics/SVG/1.1/DTD/svg11.dtd"> 
<svg xmlns="http://www.w3.org/2000/svg" version="1.1" 
    width="7.06628cm" height="9.22528cm" viewBox="0 0 27820 36320 ">
<title>SVG Picture created as bargraphs-F.SilkS.svg date 2019/02/17 21:48:30 </title>
  <desc>Picture generated by PCBNEW </desc>
<g style="fill:#000000; fill-opacity:1;stroke:#000000; stroke-opacity:1;
stroke-linecap:round; stroke-linejoin:round; "
 transform="translate(0 0) scale(1 1)">
</g>
<g style="fill:#000000; fill-opacity:0.0; 
stroke:#000000; stroke-width:-0.000393701; stroke-opacity:1; 
stroke-linecap:round; stroke-linejoin:round;">
</g>
<g style="fill:#008484; fill-opacity:0.0; 
stroke:#008484; stroke-width:-0.000393701; stroke-opacity:1; 
stroke-linecap:round; stroke-linejoin:round;">
</g>
<g style="fill:#008484; fill-opacity:0.0; 
stroke:#008484; stroke-width:118.11; stroke-opacity:1; 
stroke-linecap:round; stroke-linejoin:round;">
<path d="M7989 1554
L7989 964
" />
<path d="M8327 1554
L8073 1217
" />
<path d="M8327 964
L7989 1301
" />
<path d="M8776 1245
L8580 1245
" />
<path d="M8580 1554
L8580 964
L8861 964
" />
<path d="M9423 1498
L9395 1526
L9311 1554
L9255 1554
L9170 1526
L9114 1470
L9086 1413
L9058 1301
L9058 1217
L9086 1104
L9114 1048
L9170 992
L9255 964
L9311 964
L9395 992
L9423 1020
" />
<path d="M10070 1160
L10211 1554
L10351 1160
" />
<path d="M10576 1498
L10604 1526
L10576 1554
L10548 1526
L10576 1498
L10576 1554
" />
<path d="M11167 1554
L10829 1554
" />
<path d="M10998 1554
L10998 964
L10942 1048
L10886 1104
L10829 1132
" />
<path d="M6330 2249
L6414 2277
L6442 2305
L6471 2361
L6471 2446
L6442 2502
L6414 2530
L6358 2558
L6133 2558
L6133 1967
L6330 1967
L6386 1996
L6414 2024
L6442 2080
L6442 2136
L6414 2192
L6386 2221
L6330 2249
L6133 2249
" />
<path d="M6977 2558
L6977 2249
L6949 2192
L6892 2164
L6780 2164
L6724 2192
" />
<path d="M6977 2530
L6920 2558
L6780 2558
L6724 2530
L6696 2474
L6696 2417
L6724 2361
L6780 2333
L6920 2333
L6977 2305
" />
<path d="M7258 2558
L7258 2164
" />
<path d="M7258 2277
L7286 2221
L7314 2192
L7370 2164
L7427 2164
" />
<path d="M7933 1996
L7877 1967
L7792 1967
L7708 1996
L7652 2052
L7624 2108
L7595 2221
L7595 2305
L7624 2417
L7652 2474
L7708 2530
L7792 2558
L7848 2558
L7933 2530
L7961 2502
L7961 2305
L7848 2305
" />
<path d="M8214 2558
L8214 2164
" />
<path d="M8214 2277
L8242 2221
L8270 2192
L8327 2164
L8383 2164
" />
<path d="M8833 2558
L8833 2249
L8805 2192
L8748 2164
L8636 2164
L8580 2192
" />
<path d="M8833 2530
L8776 2558
L8636 2558
L8580 2530
L8552 2474
L8552 2417
L8580 2361
L8636 2333
L8776 2333
L8833 2305
" />
<path d="M9114 2164
L9114 2755
" />
<path d="M9114 2192
L9170 2164
L9283 2164
L9339 2192
L9367 2221
L9395 2277
L9395 2446
L9367 2502
L9339 2530
L9283 2558
L9170 2558
L9114 2530
" />
<path d="M9648 2558
L9648 1967
" />
<path d="M9901 2558
L9901 2249
L9873 2192
L9817 2164
L9733 2164
L9676 2192
L9648 2221
" />
<path d="M10633 2558
L10633 1967
L10829 2389
L11026 1967
L11026 2558
" />
<path d="M11392 2558
L11336 2530
L11307 2502
L11279 2446
L11279 2277
L11307 2221
L11336 2192
L11392 2164
L11476 2164
L11532 2192
L11561 2221
L11589 2277
L11589 2446
L11561 2502
L11532 2530
L11476 2558
L11392 2558
" />
<path d="M12095 2558
L12095 1967
" />
<path d="M12095 2530
L12039 2558
L11926 2558
L11870 2530
L11842 2502
L11814 2446
L11814 2277
L11842 2221
L11870 2192
L11926 2164
L12039 2164
L12095 2192
" />
<path d="M12629 2164
L12629 2558
" />
<path d="M12376 2164
L12376 2474
L12404 2530
L12460 2558
L12545 2558
L12601 2530
L12629 2502
" />
<path d="M12995 2558
L12938 2530
L12910 2474
L12910 1967
" />
<path d="M13445 2530
L13388 2558
L13276 2558
L13220 2530
L13192 2474
L13192 2249
L13220 2192
L13276 2164
L13388 2164
L13445 2192
L13473 2249
L13473 2305
L13192 2361
" />
<path d="M8459 28965
L8516 28965
L8572 28994
L8600 29022
L8628 29078
L8656 29190
L8656 29331
L8628 29444
L8600 29500
L8572 29528
L8516 29556
L8459 29556
L8403 29528
L8375 29500
L8347 29444
L8319 29331
L8319 29190
L8347 29078
L8375 29022
L8403 28994
L8459 28965
" />
<path d="M8853 29556
L9162 29162
" />
<path d="M8853 29162
L9162 29556
" />
<path d="M9359 29022
L9387 28994
L9444 28965
L9584 28965
L9640 28994
L9669 29022
L9697 29078
L9697 29134
L9669 29219
L9331 29556
L9697 29556
" />
<path d="M10231 28965
L9950 28965
L9922 29247
L9950 29219
L10006 29190
L10147 29190
L10203 29219
L10231 29247
L10259 29303
L10259 29444
L10231 29500
L10203 29528
L10147 29556
L10006 29556
L9950 29528
L9922 29500
" />
<path d="M5459 28215
L5516 28215
L5572 28244
L5600 28272
L5628 28328
L5656 28440
L5656 28581
L5628 28694
L5600 28750
L5572 28778
L5516 28806
L5459 28806
L5403 28778
L5375 28750
L5347 28694
L5319 28581
L5319 28440
L5347 28328
L5375 28272
L5403 28244
L5459 28215
" />
<path d="M5853 28806
L6162 28412
" />
<path d="M5853 28412
L6162 28806
" />
<path d="M6359 28272
L6387 28244
L6444 28215
L6584 28215
L6640 28244
L6669 28272
L6697 28328
L6697 28384
L6669 28469
L6331 28806
L6697 28806
" />
<path d="M7203 28215
L7090 28215
L7034 28244
L7006 28272
L6950 28356
L6922 28469
L6922 28694
L6950 28750
L6978 28778
L7034 28806
L7147 28806
L7203 28778
L7231 28750
L7259 28694
L7259 28553
L7231 28497
L7203 28469
L7147 28440
L7034 28440
L6978 28469
L6950 28497
L6922 28553
" />
</g>
<g style="fill:#008484; fill-opacity:0.0; 
stroke:#008484; stroke-width:59.0551; stroke-opacity:1; 
stroke-linecap:round; stroke-linejoin:round;">
<path d="M15476 7789
L18051 7789
" />
<path d="M18051 7789
L18051 26005
" />
<path d="M15476 7789
L15476 26005
" />
<path d="M15476 26005
L18051 26005
" />
<path d="M20751 26005
L23326 26005
" />
<path d="M20751 7789
L20751 26005
" />
<path d="M23326 7789
L23326 26005
" />
<path d="M20751 7789
L23326 7789
" />
</g>
<g style="fill:#008484; fill-opacity:0.0; 
stroke:#008484; stroke-width:47.2441; stroke-opacity:1; 
stroke-linecap:round; stroke-linejoin:round;">
<path d="M9137 9480
L9137 8598
" />
<path d="M9043 9480
L9043 8598
" />
<path d="M9090 9480
L9090 8598
" />
<path d="M7448 9039
L7704 9039
" />
<path d="M9629 9039
L9374 9039
" />
<path d="M7704 9480
L9374 9480
" />
<path d="M7704 8598
L7704 9480
" />
<path d="M9374 8598
L7704 8598
" />
<path d="M9374 9480
L9374 8598
" />
<path d="M9374 10480
L9374 9598
" />
<path d="M9374 9598
L7704 9598
" />
<path d="M7704 9598
L7704 10480
" />
<path d="M7704 10480
L9374 10480
" />
<path d="M9629 10039
L9374 10039
" />
<path d="M7448 10039
L7704 10039
" />
<path d="M9090 10480
L9090 9598
" />
<path d="M9043 10480
L9043 9598
" />
<path d="M9137 10480
L9137 9598
" />
<path d="M9122 11437
L9122 10555
" />
<path d="M9028 11437
L9028 10555
" />
<path d="M9075 11437
L9075 10555
" />
<path d="M7433 10996
L7689 10996
" />
<path d="M9614 10996
L9358 10996
" />
<path d="M7689 11437
L9358 11437
" />
<path d="M7689 10555
L7689 11437
" />
<path d="M9358 10555
L7689 10555
" />
<path d="M9358 11437
L9358 10555
" />
<path d="M9374 12480
L9374 11598
" />
<path d="M9374 11598
L7704 11598
" />
<path d="M7704 11598
L7704 12480
" />
<path d="M7704 12480
L9374 12480
" />
<path d="M9629 12039
L9374 12039
" />
<path d="M7448 12039
L7704 12039
" />
<path d="M9090 12480
L9090 11598
" />
<path d="M9043 12480
L9043 11598
" />
<path d="M9137 12480
L9137 11598
" />
<path d="M9137 13480
L9137 12598
" />
<path d="M9043 13480
L9043 12598
" />
<path d="M9090 13480
L9090 12598
" />
<path d="M7448 13039
L7704 13039
" />
<path d="M9629 13039
L9374 13039
" />
<path d="M7704 13480
L9374 13480
" />
<path d="M7704 12598
L7704 13480
" />
<path d="M9374 12598
L7704 12598
" />
<path d="M9374 13480
L9374 12598
" />
<path d="M9358 14480
L9358 13598
" />
<path d="M9358 13598
L7689 13598
" />
<path d="M7689 13598
L7689 14480
" />
<path d="M7689 14480
L9358 14480
" />
<path d="M9614 14039
L9358 14039
" />
<path d="M7433 14039
L7689 14039
" />
<path d="M9075 14480
L9075 13598
" />
<path d="M9028 14480
L9028 13598
" />
<path d="M9122 14480
L9122 13598
" />
<path d="M9137 15730
L9137 14848
" />
<path d="M9043 15730
L9043 14848
" />
<path d="M9090 15730
L9090 14848
" />
<path d="M7448 15289
L7704 15289
" />
<path d="M9629 15289
L9374 15289
" />
<path d="M7704 15730
L9374 15730
" />
<path d="M7704 14848
L7704 15730
" />
<path d="M9374 14848
L7704 14848
" />
<path d="M9374 15730
L9374 14848
" />
<path d="M9374 16730
L9374 15848
" />
<path d="M9374 15848
L7704 15848
" />
<path d="M7704 15848
L7704 16730
" />
<path d="M7704 16730
L9374 16730
" />
<path d="M9629 16289
L9374 16289
" />
<path d="M7448 16289
L7704 16289
" />
<path d="M9090 16730
L9090 15848
" />
<path d="M9043 16730
L9043 15848
" />
<path d="M9137 16730
L9137 15848
" />
<path d="M9137 20730
L9137 19848
" />
<path d="M9043 20730
L9043 19848
" />
<path d="M9090 20730
L9090 19848
" />
<path d="M7448 20289
L7704 20289
" />
<path d="M9629 20289
L9374 20289
" />
<path d="M7704 20730
L9374 20730
" />
<path d="M7704 19848
L7704 20730
" />
<path d="M9374 19848
L7704 19848
" />
<path d="M9374 20730
L9374 19848
" />
<path d="M9374 21730
L9374 20848
" />
<path d="M9374 20848
L7704 20848
" />
<path d="M7704 20848
L7704 21730
" />
<path d="M7704 21730
L9374 21730
" />
<path d="M9629 21289
L9374 21289
" />
<path d="M7448 21289
L7704 21289
" />
<path d="M9090 21730
L9090 20848
" />
<path d="M9043 21730
L9043 20848
" />
<path d="M9137 21730
L9137 20848
" />
<path d="M9137 22730
L9137 21848
" />
<path d="M9043 22730
L9043 21848
" />
<path d="M9090 22730
L9090 21848
" />
<path d="M7448 22289
L7704 22289
" />
<path d="M9629 22289
L9374 22289
" />
<path d="M7704 22730
L9374 22730
" />
<path d="M7704 21848
L7704 22730
" />
<path d="M9374 21848
L7704 21848
" />
<path d="M9374 22730
L9374 21848
" />
<path d="M9374 23730
L9374 22848
" />
<path d="M9374 22848
L7704 22848
" />
<path d="M7704 22848
L7704 23730
" />
<path d="M7704 23730
L9374 23730
" />
<path d="M9629 23289
L9374 23289
" />
<path d="M7448 23289
L7704 23289
" />
<path d="M9090 23730
L9090 22848
" />
<path d="M9043 23730
L9043 22848
" />
<path d="M9137 23730
L9137 22848
" />
<path d="M9374 24730
L9374 23848
" />
<path d="M9374 23848
L7704 23848
" />
<path d="M7704 23848
L7704 24730
" />
<path d="M7704 24730
L9374 24730
" />
<path d="M9629 24289
L9374 24289
" />
<path d="M7448 24289
L7704 24289
" />
<path d="M9090 24730
L9090 23848
" />
<path d="M9043 24730
L9043 23848
" />
<path d="M9137 24730
L9137 23848
" />
<path d="M9137 25730
L9137 24848
" />
<path d="M9043 25730
L9043 24848
" />
<path d="M9090 25730
L9090 24848
" />
<path d="M7448 25289
L7704 25289
" />
<path d="M9629 25289
L9374 25289
" />
<path d="M7704 25730
L9374 25730
" />
<path d="M7704 24848
L7704 25730
" />
<path d="M9374 24848
L7704 24848
" />
<path d="M9374 25730
L9374 24848
" />
<path d="M9374 26730
L9374 25848
" />
<path d="M9374 25848
L7704 25848
" />
<path d="M7704 25848
L7704 26730
" />
<path d="M7704 26730
L9374 26730
" />
<path d="M9629 26289
L9374 26289
" />
<path d="M7448 26289
L7704 26289
" />
<path d="M9090 26730
L9090 25848
" />
<path d="M9043 26730
L9043 25848
" />
<path d="M9137 26730
L9137 25848
" />
<path d="M9137 27730
L9137 26848
" />
<path d="M9043 27730
L9043 26848
" />
<path d="M9090 27730
L9090 26848
" />
<path d="M7448 27289
L7704 27289
" />
<path d="M9629 27289
L9374 27289
" />
<path d="M7704 27730
L9374 27730
" />
<path d="M7704 26848
L7704 27730
" />
<path d="M9374 26848
L7704 26848
" />
<path d="M9374 27730
L9374 26848
" />
<path d="M16730 32704
L15848 32704
" />
<path d="M15848 32704
L15848 34374
" />
<path d="M15848 34374
L16730 34374
" />
<path d="M16730 34374
L16730 32704
" />
<path d="M16289 32448
L16289 32704
" />
<path d="M16289 34629
L16289 34374
" />
<path d="M16730 32988
L15848 32988
" />
<path d="M16730 33035
L15848 33035
" />
<path d="M16730 32940
L15848 32940
" />
<path d="M17730 32940
L16848 32940
" />
<path d="M17730 33035
L16848 33035
" />
<path d="M17730 32988
L16848 32988
" />
<path d="M17289 34629
L17289 34374
" />
<path d="M17289 32448
L17289 32704
" />
<path d="M17730 34374
L17730 32704
" />
<path d="M16848 34374
L17730 34374
" />
<path d="M16848 32704
L16848 34374
" />
<path d="M17730 32704
L16848 32704
" />
<path d="M18730 32704
L17848 32704
" />
<path d="M17848 32704
L17848 34374
" />
<path d="M17848 34374
L18730 34374
" />
<path d="M18730 34374
L18730 32704
" />
<path d="M18289 32448
L18289 32704
" />
<path d="M18289 34629
L18289 34374
" />
<path d="M18730 32988
L17848 32988
" />
<path d="M18730 33035
L17848 33035
" />
<path d="M18730 32940
L17848 32940
" />
<path d="M19730 32940
L18848 32940
" />
<path d="M19730 33035
L18848 33035
" />
<path d="M19730 32988
L18848 32988
" />
<path d="M19289 34629
L19289 34374
" />
<path d="M19289 32448
L19289 32704
" />
<path d="M19730 34374
L19730 32704
" />
<path d="M18848 34374
L19730 34374
" />
<path d="M18848 32704
L18848 34374
" />
<path d="M19730 32704
L18848 32704
" />
<path d="M20730 32704
L19848 32704
" />
<path d="M19848 32704
L19848 34374
" />
<path d="M19848 34374
L20730 34374
" />
<path d="M20730 34374
L20730 32704
" />
<path d="M20289 32448
L20289 32704
" />
<path d="M20289 34629
L20289 34374
" />
<path d="M20730 32988
L19848 32988
" />
<path d="M20730 33035
L19848 33035
" />
<path d="M20730 32940
L19848 32940
" />
<path d="M21730 32940
L20848 32940
" />
<path d="M21730 33035
L20848 33035
" />
<path d="M21730 32988
L20848 32988
" />
<path d="M21289 34629
L21289 34374
" />
<path d="M21289 32448
L21289 32704
" />
<path d="M21730 34374
L21730 32704
" />
<path d="M20848 34374
L21730 34374
" />
<path d="M20848 32704
L20848 34374
" />
<path d="M21730 32704
L20848 32704
" />
<path d="M22730 32704
L21848 32704
" />
<path d="M21848 32704
L21848 34374
" />
<path d="M21848 34374
L22730 34374
" />
<path d="M22730 34374
L22730 32704
" />
<path d="M22289 32448
L22289 32704
" />
<path d="M22289 34629
L22289 34374
" />
<path d="M22730 32988
L21848 32988
" />
<path d="M22730 33035
L21848 33035
" />
<path d="M22730 32940
L21848 32940
" />
<path d="M23730 32940
L22848 32940
" />
<path d="M23730 33035
L22848 33035
" />
<path d="M23730 32988
L22848 32988
" />
<path d="M23289 34629
L23289 34374
" />
<path d="M23289 32448
L23289 32704
" />
<path d="M23730 34374
L23730 32704
" />
<path d="M22848 34374
L23730 34374
" />
<path d="M22848 32704
L22848 34374
" />
<path d="M23730 32704
L22848 32704
" />
<path d="M765 8062
L1812 8062
" />
<path d="M765 3039
L765 8062
" />
<path d="M1812 3039
L1812 8062
" />
<path d="M765 3039
L1812 3039
" />
<path d="M765 2539
L765 2015
" />
<path d="M765 2015
L1289 2015
" />
<path d="M3811 7080
L3811 8498
" />
<path d="M5562.99 7789.37 A1023.62 1023.62 0.0 0 0 3815.56 7065.56 " />
<path d="M3815.56 8513.18 A1023.62 1023.62 0.0 0 0 5562.99 7789.37 " />
<path d="M3251 4129
L3251 4000
" />
<path d="M3251 4000
L5826 4000
" />
<path d="M5826 4000
L5826 4129
" />
<path d="M3251 4948
L3251 5078
" />
<path d="M3251 5078
L5826 5078
" />
<path d="M5826 5078
L5826 4948
" />
<path d="M5826 6328
L5826 6198
" />
<path d="M3251 6328
L5826 6328
" />
<path d="M3251 6198
L3251 6328
" />
<path d="M5826 5250
L5826 5379
" />
<path d="M3251 5250
L5826 5250
" />
<path d="M3251 5379
L3251 5250
" />
<path d="M14326 8078
L14326 7948
" />
<path d="M11751 8078
L14326 8078
" />
<path d="M11751 7948
L11751 8078
" />
<path d="M14326 7000
L14326 7129
" />
<path d="M11751 7000
L14326 7000
" />
<path d="M11751 7129
L11751 7000
" />
<path d="M11751 5879
L11751 5750
" />
<path d="M11751 5750
L14326 5750
" />
<path d="M14326 5750
L14326 5879
" />
<path d="M11751 6698
L11751 6828
" />
<path d="M11751 6828
L14326 6828
" />
<path d="M14326 6828
L14326 6698
" />
<path d="M15000 3826
L15129 3826
" />
<path d="M15000 1251
L15000 3826
" />
<path d="M15129 1251
L15000 1251
" />
<path d="M16078 3826
L15948 3826
" />
<path d="M16078 1251
L16078 3826
" />
<path d="M15948 1251
L16078 1251
" />
<path d="M17198 1251
L17328 1251
" />
<path d="M17328 1251
L17328 3826
" />
<path d="M17328 3826
L17198 3826
" />
<path d="M16379 1251
L16250 1251
" />
<path d="M16250 1251
L16250 3826
" />
<path d="M16250 3826
L16379 3826
" />
<path d="M17500 3826
L17629 3826
" />
<path d="M17500 1251
L17500 3826
" />
<path d="M17629 1251
L17500 1251
" />
<path d="M18578 3826
L18448 3826
" />
<path d="M18578 1251
L18578 3826
" />
<path d="M18448 1251
L18578 1251
" />
<path d="M19698 1251
L19828 1251
" />
<path d="M19828 1251
L19828 3826
" />
<path d="M19828 3826
L19698 3826
" />
<path d="M18879 1251
L18750 1251
" />
<path d="M18750 1251
L18750 3826
" />
<path d="M18750 3826
L18879 3826
" />
<path d="M14326 5578
L14326 5448
" />
<path d="M11751 5578
L14326 5578
" />
<path d="M11751 5448
L11751 5578
" />
<path d="M14326 4500
L14326 4629
" />
<path d="M11751 4500
L14326 4500
" />
<path d="M11751 4629
L11751 4500
" />
<path d="M23826 3698
L23826 3828
" />
<path d="M23826 3828
L21251 3828
" />
<path d="M21251 3828
L21251 3698
" />
<path d="M23826 2879
L23826 2750
" />
<path d="M23826 2750
L21251 2750
" />
<path d="M21251 2750
L21251 2879
" />
<path d="M14326 19578
L14326 19448
" />
<path d="M11751 19578
L14326 19578
" />
<path d="M11751 19448
L11751 19578
" />
<path d="M14326 18500
L14326 18629
" />
<path d="M11751 18500
L14326 18500
" />
<path d="M11751 18629
L11751 18500
" />
<path d="M23826 4948
L23826 5078
" />
<path d="M23826 5078
L21251 5078
" />
<path d="M21251 5078
L21251 4948
" />
<path d="M23826 4129
L23826 4000
" />
<path d="M23826 4000
L21251 4000
" />
<path d="M21251 4000
L21251 4129
" />
<path d="M21251 5250
L21251 5379
" />
<path d="M23826 5250
L21251 5250
" />
<path d="M23826 5379
L23826 5250
" />
<path d="M21251 6328
L21251 6198
" />
<path d="M23826 6328
L21251 6328
" />
<path d="M23826 6198
L23826 6328
" />
<path d="M23826 7448
L23826 7578
" />
<path d="M23826 7578
L21251 7578
" />
<path d="M21251 7578
L21251 7448
" />
<path d="M23826 6629
L23826 6500
" />
<path d="M23826 6500
L21251 6500
" />
<path d="M21251 6500
L21251 6629
" />
<path d="M26826 9698
L26826 9828
" />
<path d="M26826 9828
L24251 9828
" />
<path d="M24251 9828
L24251 9698
" />
<path d="M26826 8879
L26826 8750
" />
<path d="M26826 8750
L24251 8750
" />
<path d="M24251 8750
L24251 8879
" />
<path d="M24251 10250
L24251 10379
" />
<path d="M26826 10250
L24251 10250
" />
<path d="M26826 10379
L26826 10250
" />
<path d="M24251 11328
L24251 11198
" />
<path d="M26826 11328
L24251 11328
" />
<path d="M26826 11198
L26826 11328
" />
<path d="M26826 12448
L26826 12578
" />
<path d="M26826 12578
L24251 12578
" />
<path d="M24251 12578
L24251 12448
" />
<path d="M26826 11629
L26826 11500
" />
<path d="M26826 11500
L24251 11500
" />
<path d="M24251 11500
L24251 11629
" />
<path d="M24251 13000
L24251 13129
" />
<path d="M26826 13000
L24251 13000
" />
<path d="M26826 13129
L26826 13000
" />
<path d="M24251 14078
L24251 13948
" />
<path d="M26826 14078
L24251 14078
" />
<path d="M26826 13948
L26826 14078
" />
<path d="M26826 15448
L26826 15578
" />
<path d="M26826 15578
L24251 15578
" />
<path d="M24251 15578
L24251 15448
" />
<path d="M26826 14629
L26826 14500
" />
<path d="M26826 14500
L24251 14500
" />
<path d="M24251 14500
L24251 14629
" />
<path d="M24251 16000
L24251 16129
" />
<path d="M26826 16000
L24251 16000
" />
<path d="M26826 16129
L26826 16000
" />
<path d="M24251 17078
L24251 16948
" />
<path d="M26826 17078
L24251 17078
" />
<path d="M26826 16948
L26826 17078
" />
<path d="M26826 18448
L26826 18578
" />
<path d="M26826 18578
L24251 18578
" />
<path d="M24251 18578
L24251 18448
" />
<path d="M26826 17629
L26826 17500
" />
<path d="M26826 17500
L24251 17500
" />
<path d="M24251 17500
L24251 17629
" />
<path d="M24251 18750
L24251 18879
" />
<path d="M26826 18750
L24251 18750
" />
<path d="M26826 18879
L26826 18750
" />
<path d="M24251 19828
L24251 19698
" />
<path d="M26826 19828
L24251 19828
" />
<path d="M26826 19698
L26826 19828
" />
<path d="M26826 21198
L26826 21328
" />
<path d="M26826 21328
L24251 21328
" />
<path d="M24251 21328
L24251 21198
" />
<path d="M26826 20379
L26826 20250
" />
<path d="M26826 20250
L24251 20250
" />
<path d="M24251 20250
L24251 20379
" />
<path d="M24251 21750
L24251 21879
" />
<path d="M26826 21750
L24251 21750
" />
<path d="M26826 21879
L26826 21750
" />
<path d="M24251 22828
L24251 22698
" />
<path d="M26826 22828
L24251 22828
" />
<path d="M26826 22698
L26826 22828
" />
<path d="M26826 23948
L26826 24078
" />
<path d="M26826 24078
L24251 24078
" />
<path d="M24251 24078
L24251 23948
" />
<path d="M26826 23129
L26826 23000
" />
<path d="M26826 23000
L24251 23000
" />
<path d="M24251 23000
L24251 23129
" />
<path d="M24251 24500
L24251 24629
" />
<path d="M26826 24500
L24251 24500
" />
<path d="M26826 24629
L26826 24500
" />
<path d="M24251 25578
L24251 25448
" />
<path d="M26826 25578
L24251 25578
" />
<path d="M26826 25448
L26826 25578
" />
<path d="M5062 14992
L1015 14992
" />
<path d="M5062 29086
L5062 14992
" />
<path d="M1015 29086
L5062 29086
" />
<path d="M1015 14992
L1015 29086
" />
<path d="M4082 15015
L3433 15015
" />
<path d="M4082 29062
L4082 15015
" />
<path d="M1996 29062
L4082 29062
" />
<path d="M1996 15015
L1996 29062
" />
<path d="M2645 15015
L1996 15015
" />
<path d="M2645.67 15015.7 A393.701 393.701 0.0 0 0 3433.07 15015.7 " />
<path d="M1015.75 32183.1 A393.701 393.701 0.0 0 0 1015.75 31395.7 " />
<path d="M1015 32183
L1015 32832
" />
<path d="M1015 32832
L15062 32832
" />
<path d="M15062 32832
L15062 30746
" />
<path d="M15062 30746
L1015 30746
" />
<path d="M1015 30746
L1015 31395
" />
<path d="M992 33812
L15086 33812
" />
<path d="M15086 33812
L15086 29765
" />
<path d="M15086 29765
L992 29765
" />
<path d="M992 29765
L992 33812
" />
<path d="M14812 8492
L10765 8492
" />
<path d="M14812 17586
L14812 8492
" />
<path d="M10765 17586
L14812 17586
" />
<path d="M10765 8492
L10765 17586
" />
<path d="M13832 8515
L13183 8515
" />
<path d="M13832 17562
L13832 8515
" />
<path d="M11746 17562
L13832 17562
" />
<path d="M11746 8515
L11746 17562
" />
<path d="M12395 8515
L11746 8515
" />
<path d="M12395.7 8515.75 A393.701 393.701 0.0 0 0 13183.1 8515.75 " />
<path d="M12395.7 20015.7 A393.701 393.701 0.0 0 0 13183.1 20015.7 " />
<path d="M12395 20015
L11746 20015
" />
<path d="M11746 20015
L11746 29062
" />
<path d="M11746 29062
L13832 29062
" />
<path d="M13832 29062
L13832 20015
" />
<path d="M13832 20015
L13183 20015
" />
<path d="M10765 19992
L10765 29086
" />
<path d="M10765 29086
L14812 29086
" />
<path d="M14812 29086
L14812 19992
" />
<path d="M14812 19992
L10765 19992
" />
<path d="M15765.7 29683.1 A393.701 393.701 0.0 0 0 15765.7 28895.7 " />
<path d="M15765 29683
L15765 30332
" />
<path d="M15765 30332
L24812 30332
" />
<path d="M24812 30332
L24812 28246
" />
<path d="M24812 28246
L15765 28246
" />
<path d="M15765 28246
L15765 28895
" />
<path d="M15742 31312
L24836 31312
" />
<path d="M24836 31312
L24836 27265
" />
<path d="M24836 27265
L15742 27265
" />
<path d="M15742 27265
L15742 31312
" />
</g>
<g style="fill:#008484; fill-opacity:0.0; 
stroke:#008484; stroke-width:59.0551; stroke-opacity:1; 
stroke-linecap:round; stroke-linejoin:round;">
<path d="M2764 707
L2633 520
" />
<path d="M2539 707
L2539 313
L2689 313
L2726 332
L2745 351
L2764 388
L2764 445
L2745 482
L2726 501
L2689 520
L2539 520
" />
<path d="M2933 501
L3064 501
" />
<path d="M3120 707
L2933 707
L2933 313
L3120 313
" />
<path d="M3420 501
L3289 501
" />
<path d="M3289 707
L3289 313
L3476 313
" />
<path d="M3683 313
L3683 407
" />
<path d="M3589 370
L3683 407
L3776 370
" />
<path d="M3626 482
L3683 407
L3739 482
" />
<path d="M3983 313
L3983 407
" />
<path d="M3889 370
L3983 407
L4076 370
" />
<path d="M3926 482
L3983 407
L4039 482
" />
<path d="M764 33957
L633 33770
" />
<path d="M539 33957
L539 33563
L689 33563
L726 33582
L745 33601
L764 33638
L764 33695
L745 33732
L726 33751
L689 33770
L539 33770
" />
<path d="M933 33751
L1064 33751
" />
<path d="M1120 33957
L933 33957
L933 33563
L1120 33563
" />
<path d="M1420 33751
L1289 33751
" />
<path d="M1289 33957
L1289 33563
L1476 33563
" />
<path d="M1683 33563
L1683 33657
" />
<path d="M1589 33620
L1683 33657
L1776 33620
" />
<path d="M1626 33732
L1683 33657
L1739 33732
" />
<path d="M1983 33563
L1983 33657
" />
<path d="M1889 33620
L1983 33657
L2076 33620
" />
<path d="M1926 33732
L1983 33657
L2039 33732
" />
<path d="M25764 33707
L25633 33520
" />
<path d="M25539 33707
L25539 33313
L25689 33313
L25726 33332
L25745 33351
L25764 33388
L25764 33445
L25745 33482
L25726 33501
L25689 33520
L25539 33520
" />
<path d="M25933 33501
L26064 33501
" />
<path d="M26120 33707
L25933 33707
L25933 33313
L26120 33313
" />
<path d="M26420 33501
L26289 33501
" />
<path d="M26289 33707
L26289 33313
L26476 33313
" />
<path d="M26683 33313
L26683 33407
" />
<path d="M26589 33370
L26683 33407
L26776 33370
" />
<path d="M26626 33482
L26683 33407
L26739 33482
" />
<path d="M26983 33313
L26983 33407
" />
<path d="M26889 33370
L26983 33407
L27076 33370
" />
<path d="M26926 33482
L26983 33407
L27039 33482
" />
<path d="M18704 19282
L18722 19226
L18741 19207
L18779 19189
L18835 19189
L18872 19207
L18891 19226
L18910 19264
L18910 19414
L18516 19414
L18516 19282
L18535 19245
L18554 19226
L18591 19207
L18629 19207
L18666 19226
L18685 19245
L18704 19282
L18704 19414
" />
<path d="M18797 19039
L18797 18851
" />
<path d="M18910 19076
L18516 18945
L18910 18814
" />
<path d="M18910 18457
L18722 18589
" />
<path d="M18910 18682
L18516 18682
L18516 18532
L18535 18495
L18554 18476
L18591 18457
L18647 18457
L18685 18476
L18704 18495
L18722 18532
L18722 18682
" />
<path d="M18910 18082
L18910 18307
" />
<path d="M18910 18195
L18516 18195
L18572 18232
L18610 18270
L18629 18307
" />
<path d="M23979 19282
L23998 19226
L24017 19207
L24054 19189
L24110 19189
L24148 19207
L24167 19226
L24185 19264
L24185 19414
L23792 19414
L23792 19282
L23811 19245
L23829 19226
L23867 19207
L23904 19207
L23942 19226
L23961 19245
L23979 19282
L23979 19414
" />
<path d="M24073 19039
L24073 18851
" />
<path d="M24185 19076
L23792 18945
L24185 18814
" />
<path d="M24185 18457
L23998 18589
" />
<path d="M24185 18682
L23792 18682
L23792 18532
L23811 18495
L23829 18476
L23867 18457
L23923 18457
L23961 18476
L23979 18495
L23998 18532
L23998 18682
" />
<path d="M23829 18307
L23811 18289
L23792 18251
L23792 18157
L23811 18120
L23829 18101
L23867 18082
L23904 18082
L23961 18101
L24185 18326
L24185 18082
" />
<path d="M8248 10052
L8248 9658
L8342 9658
L8398 9677
L8436 9714
L8455 9752
L8473 9827
L8473 9883
L8455 9958
L8436 9995
L8398 10033
L8342 10052
L8248 10052
" />
<path d="M8848 10052
L8623 10052
" />
<path d="M8736 10052
L8736 9658
L8698 9714
L8661 9752
L8623 9770
" />
<path d="M9936 9926
L9936 9532
" />
<path d="M10161 9926
L9992 9701
" />
<path d="M10161 9532
L9936 9757
" />
<path d="M8248 11052
L8248 10658
L8342 10658
L8398 10677
L8436 10714
L8455 10752
L8473 10827
L8473 10883
L8455 10958
L8436 10995
L8398 11033
L8342 11052
L8248 11052
" />
<path d="M8623 10695
L8642 10677
L8679 10658
L8773 10658
L8811 10677
L8829 10695
L8848 10733
L8848 10770
L8829 10827
L8604 11052
L8848 11052
" />
<path d="M9936 10926
L9936 10532
" />
<path d="M10161 10926
L9992 10701
" />
<path d="M10161 10532
L9936 10757
" />
<path d="M8233 12009
L8233 11615
L8327 11615
L8383 11634
L8421 11671
L8439 11709
L8458 11784
L8458 11840
L8439 11915
L8421 11952
L8383 11990
L8327 12009
L8233 12009
" />
<path d="M8589 11615
L8833 11615
L8702 11765
L8758 11765
L8796 11784
L8814 11802
L8833 11840
L8833 11934
L8814 11971
L8796 11990
L8758 12009
L8646 12009
L8608 11990
L8589 11971
" />
<path d="M9921 11883
L9921 11489
" />
<path d="M10146 11883
L9977 11658
" />
<path d="M10146 11489
L9921 11714
" />
<path d="M8248 13052
L8248 12658
L8342 12658
L8398 12677
L8436 12714
L8455 12752
L8473 12827
L8473 12883
L8455 12958
L8436 12995
L8398 13033
L8342 13052
L8248 13052
" />
<path d="M8811 12789
L8811 13052
" />
<path d="M8717 12639
L8623 12920
L8867 12920
" />
<path d="M9936 12926
L9936 12532
" />
<path d="M10161 12926
L9992 12701
" />
<path d="M10161 12532
L9936 12757
" />
<path d="M8248 14052
L8248 13658
L8342 13658
L8398 13677
L8436 13714
L8455 13752
L8473 13827
L8473 13883
L8455 13958
L8436 13995
L8398 14033
L8342 14052
L8248 14052
" />
<path d="M8829 13658
L8642 13658
L8623 13845
L8642 13827
L8679 13808
L8773 13808
L8811 13827
L8829 13845
L8848 13883
L8848 13977
L8829 14014
L8811 14033
L8773 14052
L8679 14052
L8642 14033
L8623 14014
" />
<path d="M9936 13926
L9936 13532
" />
<path d="M10161 13926
L9992 13701
" />
<path d="M10161 13532
L9936 13757
" />
<path d="M8233 15052
L8233 14658
L8327 14658
L8383 14677
L8421 14714
L8439 14752
L8458 14827
L8458 14883
L8439 14958
L8421 14995
L8383 15033
L8327 15052
L8233 15052
" />
<path d="M8796 14658
L8721 14658
L8683 14677
L8664 14695
L8627 14752
L8608 14827
L8608 14977
L8627 15014
L8646 15033
L8683 15052
L8758 15052
L8796 15033
L8814 15014
L8833 14977
L8833 14883
L8814 14845
L8796 14827
L8758 14808
L8683 14808
L8646 14827
L8627 14845
L8608 14883
" />
<path d="M9921 14926
L9921 14532
" />
<path d="M10146 14926
L9977 14701
" />
<path d="M10146 14532
L9921 14757
" />
<path d="M8248 16302
L8248 15908
L8342 15908
L8398 15927
L8436 15964
L8455 16002
L8473 16077
L8473 16133
L8455 16208
L8436 16245
L8398 16283
L8342 16302
L8248 16302
" />
<path d="M8604 15908
L8867 15908
L8698 16302
" />
<path d="M9936 16176
L9936 15782
" />
<path d="M10161 16176
L9992 15951
" />
<path d="M10161 15782
L9936 16007
" />
<path d="M8248 17302
L8248 16908
L8342 16908
L8398 16927
L8436 16964
L8455 17002
L8473 17077
L8473 17133
L8455 17208
L8436 17245
L8398 17283
L8342 17302
L8248 17302
" />
<path d="M8698 17077
L8661 17058
L8642 17039
L8623 17002
L8623 16983
L8642 16945
L8661 16927
L8698 16908
L8773 16908
L8811 16927
L8829 16945
L8848 16983
L8848 17002
L8829 17039
L8811 17058
L8773 17077
L8698 17077
L8661 17095
L8642 17114
L8623 17152
L8623 17227
L8642 17264
L8661 17283
L8698 17302
L8773 17302
L8811 17283
L8829 17264
L8848 17227
L8848 17152
L8829 17114
L8811 17095
L8773 17077
" />
<path d="M9936 17176
L9936 16782
" />
<path d="M10161 17176
L9992 16951
" />
<path d="M10161 16782
L9936 17007
" />
<path d="M8248 21302
L8248 20908
L8342 20908
L8398 20927
L8436 20964
L8455 21002
L8473 21077
L8473 21133
L8455 21208
L8436 21245
L8398 21283
L8342 21302
L8248 21302
" />
<path d="M8661 21302
L8736 21302
L8773 21283
L8792 21264
L8829 21208
L8848 21133
L8848 20983
L8829 20945
L8811 20927
L8773 20908
L8698 20908
L8661 20927
L8642 20945
L8623 20983
L8623 21077
L8642 21114
L8661 21133
L8698 21152
L8773 21152
L8811 21133
L8829 21114
L8848 21077
" />
<path d="M9936 21176
L9936 20782
" />
<path d="M10161 21176
L9992 20951
" />
<path d="M10161 20782
L9936 21007
" />
<path d="M8061 22302
L8061 21908
L8155 21908
L8211 21927
L8248 21964
L8267 22002
L8286 22077
L8286 22133
L8267 22208
L8248 22245
L8211 22283
L8155 22302
L8061 22302
" />
<path d="M8661 22302
L8436 22302
" />
<path d="M8548 22302
L8548 21908
L8511 21964
L8473 22002
L8436 22020
" />
<path d="M8904 21908
L8942 21908
L8979 21927
L8998 21945
L9017 21983
L9036 22058
L9036 22152
L9017 22227
L8998 22264
L8979 22283
L8942 22302
L8904 22302
L8867 22283
L8848 22264
L8829 22227
L8811 22152
L8811 22058
L8829 21983
L8848 21945
L8867 21927
L8904 21908
" />
<path d="M9936 22176
L9936 21782
" />
<path d="M10161 22176
L9992 21951
" />
<path d="M10161 21782
L9936 22007
" />
<path d="M8061 23302
L8061 22908
L8155 22908
L8211 22927
L8248 22964
L8267 23002
L8286 23077
L8286 23133
L8267 23208
L8248 23245
L8211 23283
L8155 23302
L8061 23302
" />
<path d="M8661 23302
L8436 23302
" />
<path d="M8548 23302
L8548 22908
L8511 22964
L8473 23002
L8436 23020
" />
<path d="M9036 23302
L8811 23302
" />
<path d="M8923 23302
L8923 22908
L8886 22964
L8848 23002
L8811 23020
" />
<path d="M9936 23176
L9936 22782
" />
<path d="M10161 23176
L9992 22951
" />
<path d="M10161 22782
L9936 23007
" />
<path d="M8061 24302
L8061 23908
L8155 23908
L8211 23927
L8248 23964
L8267 24002
L8286 24077
L8286 24133
L8267 24208
L8248 24245
L8211 24283
L8155 24302
L8061 24302
" />
<path d="M8661 24302
L8436 24302
" />
<path d="M8548 24302
L8548 23908
L8511 23964
L8473 24002
L8436 24020
" />
<path d="M8811 23945
L8829 23927
L8867 23908
L8961 23908
L8998 23927
L9017 23945
L9036 23983
L9036 24020
L9017 24077
L8792 24302
L9036 24302
" />
<path d="M9936 24176
L9936 23782
" />
<path d="M10161 24176
L9992 23951
" />
<path d="M10161 23782
L9936 24007
" />
<path d="M8061 25302
L8061 24908
L8155 24908
L8211 24927
L8248 24964
L8267 25002
L8286 25077
L8286 25133
L8267 25208
L8248 25245
L8211 25283
L8155 25302
L8061 25302
" />
<path d="M8661 25302
L8436 25302
" />
<path d="M8548 25302
L8548 24908
L8511 24964
L8473 25002
L8436 25020
" />
<path d="M8792 24908
L9036 24908
L8904 25058
L8961 25058
L8998 25077
L9017 25095
L9036 25133
L9036 25227
L9017 25264
L8998 25283
L8961 25302
L8848 25302
L8811 25283
L8792 25264
" />
<path d="M9936 25176
L9936 24782
" />
<path d="M10161 25176
L9992 24951
" />
<path d="M10161 24782
L9936 25007
" />
<path d="M8061 26302
L8061 25908
L8155 25908
L8211 25927
L8248 25964
L8267 26002
L8286 26077
L8286 26133
L8267 26208
L8248 26245
L8211 26283
L8155 26302
L8061 26302
" />
<path d="M8661 26302
L8436 26302
" />
<path d="M8548 26302
L8548 25908
L8511 25964
L8473 26002
L8436 26020
" />
<path d="M8998 26039
L8998 26302
" />
<path d="M8904 25889
L8811 26170
L9054 26170
" />
<path d="M9936 26176
L9936 25782
" />
<path d="M10161 26176
L9992 25951
" />
<path d="M10161 25782
L9936 26007
" />
<path d="M8061 27302
L8061 26908
L8155 26908
L8211 26927
L8248 26964
L8267 27002
L8286 27077
L8286 27133
L8267 27208
L8248 27245
L8211 27283
L8155 27302
L8061 27302
" />
<path d="M8661 27302
L8436 27302
" />
<path d="M8548 27302
L8548 26908
L8511 26964
L8473 27002
L8436 27020
" />
<path d="M9017 26908
L8829 26908
L8811 27095
L8829 27077
L8867 27058
L8961 27058
L8998 27077
L9017 27095
L9036 27133
L9036 27227
L9017 27264
L8998 27283
L8961 27302
L8867 27302
L8829 27283
L8811 27264
" />
<path d="M9936 27176
L9936 26782
" />
<path d="M10161 27176
L9992 26951
" />
<path d="M10161 26782
L9936 27007
" />
<path d="M8061 28302
L8061 27908
L8155 27908
L8211 27927
L8248 27964
L8267 28002
L8286 28077
L8286 28133
L8267 28208
L8248 28245
L8211 28283
L8155 28302
L8061 28302
" />
<path d="M8661 28302
L8436 28302
" />
<path d="M8548 28302
L8548 27908
L8511 27964
L8473 28002
L8436 28020
" />
<path d="M8998 27908
L8923 27908
L8886 27927
L8867 27945
L8829 28002
L8811 28077
L8811 28227
L8829 28264
L8848 28283
L8886 28302
L8961 28302
L8998 28283
L9017 28264
L9036 28227
L9036 28133
L9017 28095
L8998 28077
L8961 28058
L8886 28058
L8848 28077
L8829 28095
L8811 28133
" />
<path d="M9936 28176
L9936 27782
" />
<path d="M10161 28176
L9992 27951
" />
<path d="M10161 27782
L9936 28007
" />
<path d="M17302 34017
L16908 34017
L16908 33923
L16927 33867
L16964 33829
L17002 33811
L17077 33792
L17133 33792
L17208 33811
L17245 33829
L17283 33867
L17302 33923
L17302 34017
" />
<path d="M17302 33417
L17302 33642
" />
<path d="M17302 33529
L16908 33529
L16964 33567
L17002 33604
L17020 33642
" />
<path d="M16908 33286
L16908 33023
L17302 33192
" />
<path d="M17176 32142
L16782 32142
" />
<path d="M17176 31917
L16951 32086
" />
<path d="M16782 31917
L17007 32142
" />
<path d="M18302 34017
L17908 34017
L17908 33923
L17927 33867
L17964 33829
L18002 33811
L18077 33792
L18133 33792
L18208 33811
L18245 33829
L18283 33867
L18302 33923
L18302 34017
" />
<path d="M18302 33417
L18302 33642
" />
<path d="M18302 33529
L17908 33529
L17964 33567
L18002 33604
L18020 33642
" />
<path d="M18077 33192
L18058 33230
L18039 33248
L18002 33267
L17983 33267
L17945 33248
L17927 33230
L17908 33192
L17908 33117
L17927 33080
L17945 33061
L17983 33042
L18002 33042
L18039 33061
L18058 33080
L18077 33117
L18077 33192
L18095 33230
L18114 33248
L18152 33267
L18227 33267
L18264 33248
L18283 33230
L18302 33192
L18302 33117
L18283 33080
L18264 33061
L18227 33042
L18152 33042
L18114 33061
L18095 33080
L18077 33117
" />
<path d="M18176 32142
L17782 32142
" />
<path d="M18176 31917
L17951 32086
" />
<path d="M17782 31917
L18007 32142
" />
<path d="M19302 34017
L18908 34017
L18908 33923
L18927 33867
L18964 33829
L19002 33811
L19077 33792
L19133 33792
L19208 33811
L19245 33829
L19283 33867
L19302 33923
L19302 34017
" />
<path d="M19302 33417
L19302 33642
" />
<path d="M19302 33529
L18908 33529
L18964 33567
L19002 33604
L19020 33642
" />
<path d="M19302 33230
L19302 33155
L19283 33117
L19264 33098
L19208 33061
L19133 33042
L18983 33042
L18945 33061
L18927 33080
L18908 33117
L18908 33192
L18927 33230
L18945 33248
L18983 33267
L19077 33267
L19114 33248
L19133 33230
L19152 33192
L19152 33117
L19133 33080
L19114 33061
L19077 33042
" />
<path d="M19176 32142
L18782 32142
" />
<path d="M19176 31917
L18951 32086
" />
<path d="M18782 31917
L19007 32142
" />
<path d="M20302 34017
L19908 34017
L19908 33923
L19927 33867
L19964 33829
L20002 33811
L20077 33792
L20133 33792
L20208 33811
L20245 33829
L20283 33867
L20302 33923
L20302 34017
" />
<path d="M19945 33642
L19927 33623
L19908 33586
L19908 33492
L19927 33455
L19945 33436
L19983 33417
L20020 33417
L20077 33436
L20302 33661
L20302 33417
" />
<path d="M19908 33173
L19908 33136
L19927 33098
L19945 33080
L19983 33061
L20058 33042
L20152 33042
L20227 33061
L20264 33080
L20283 33098
L20302 33136
L20302 33173
L20283 33211
L20264 33230
L20227 33248
L20152 33267
L20058 33267
L19983 33248
L19945 33230
L19927 33211
L19908 33173
" />
<path d="M20176 32142
L19782 32142
" />
<path d="M20176 31917
L19951 32086
" />
<path d="M19782 31917
L20007 32142
" />
<path d="M21302 34017
L20908 34017
L20908 33923
L20927 33867
L20964 33829
L21002 33811
L21077 33792
L21133 33792
L21208 33811
L21245 33829
L21283 33867
L21302 33923
L21302 34017
" />
<path d="M20945 33642
L20927 33623
L20908 33586
L20908 33492
L20927 33455
L20945 33436
L20983 33417
L21020 33417
L21077 33436
L21302 33661
L21302 33417
" />
<path d="M21302 33042
L21302 33267
" />
<path d="M21302 33155
L20908 33155
L20964 33192
L21002 33230
L21020 33267
" />
<path d="M21176 32142
L20782 32142
" />
<path d="M21176 31917
L20951 32086
" />
<path d="M20782 31917
L21007 32142
" />
<path d="M22302 34017
L21908 34017
L21908 33923
L21927 33867
L21964 33829
L22002 33811
L22077 33792
L22133 33792
L22208 33811
L22245 33829
L22283 33867
L22302 33923
L22302 34017
" />
<path d="M21945 33642
L21927 33623
L21908 33586
L21908 33492
L21927 33455
L21945 33436
L21983 33417
L22020 33417
L22077 33436
L22302 33661
L22302 33417
" />
<path d="M21945 33267
L21927 33248
L21908 33211
L21908 33117
L21927 33080
L21945 33061
L21983 33042
L22020 33042
L22077 33061
L22302 33286
L22302 33042
" />
<path d="M22176 32142
L21782 32142
" />
<path d="M22176 31917
L21951 32086
" />
<path d="M21782 31917
L22007 32142
" />
<path d="M23302 34017
L22908 34017
L22908 33923
L22927 33867
L22964 33829
L23002 33811
L23077 33792
L23133 33792
L23208 33811
L23245 33829
L23283 33867
L23302 33923
L23302 34017
" />
<path d="M22945 33642
L22927 33623
L22908 33586
L22908 33492
L22927 33455
L22945 33436
L22983 33417
L23020 33417
L23077 33436
L23302 33661
L23302 33417
" />
<path d="M22908 33286
L22908 33042
L23058 33173
L23058 33117
L23077 33080
L23095 33061
L23133 33042
L23227 33042
L23264 33061
L23283 33080
L23302 33117
L23302 33230
L23283 33267
L23264 33286
" />
<path d="M23176 32142
L22782 32142
" />
<path d="M23176 31917
L22951 32086
" />
<path d="M22782 31917
L23007 32142
" />
<path d="M24302 34017
L23908 34017
L23908 33923
L23927 33867
L23964 33829
L24002 33811
L24077 33792
L24133 33792
L24208 33811
L24245 33829
L24283 33867
L24302 33923
L24302 34017
" />
<path d="M23945 33642
L23927 33623
L23908 33586
L23908 33492
L23927 33455
L23945 33436
L23983 33417
L24020 33417
L24077 33436
L24302 33661
L24302 33417
" />
<path d="M24039 33080
L24302 33080
" />
<path d="M23889 33173
L24170 33267
L24170 33023
" />
<path d="M24176 32142
L23782 32142
" />
<path d="M24176 31917
L23951 32086
" />
<path d="M23782 31917
L24007 32142
" />
<path d="M1158 1406
L1158 1687
L1139 1743
L1101 1781
L1045 1800
L1008 1800
" />
<path d="M1551 1800
L1326 1800
" />
<path d="M1439 1800
L1439 1406
L1401 1462
L1364 1500
L1326 1518
" />
<path d="M6156 7826
L6137 7864
L6100 7901
L6044 7958
L6025 7995
L6025 8033
" />
<path d="M6119 8014
L6100 8051
L6062 8089
L5987 8108
L5856 8108
L5781 8089
L5744 8051
L5725 8014
L5725 7939
L5744 7901
L5781 7864
L5856 7845
L5987 7845
L6062 7864
L6100 7901
L6119 7939
L6119 8014
" />
<path d="M6119 7470
L6119 7695
" />
<path d="M6119 7583
L5725 7583
L5781 7620
L5819 7658
L5837 7695
" />
<path d="M4473 3784
L4342 3596
" />
<path d="M4248 3784
L4248 3390
L4398 3390
L4436 3409
L4455 3428
L4473 3465
L4473 3521
L4455 3559
L4436 3578
L4398 3596
L4248 3596
" />
<path d="M4848 3784
L4623 3784
" />
<path d="M4736 3784
L4736 3390
L4698 3446
L4661 3484
L4623 3503
" />
<path d="M4473 5034
L4342 4846
" />
<path d="M4248 5034
L4248 4640
L4398 4640
L4436 4659
L4455 4678
L4473 4715
L4473 4771
L4455 4809
L4436 4828
L4398 4846
L4248 4846
" />
<path d="M4623 4678
L4642 4659
L4679 4640
L4773 4640
L4811 4659
L4829 4678
L4848 4715
L4848 4753
L4829 4809
L4604 5034
L4848 5034
" />
<path d="M12786 6784
L12655 6596
" />
<path d="M12561 6784
L12561 6390
L12711 6390
L12748 6409
L12767 6428
L12786 6465
L12786 6521
L12767 6559
L12748 6578
L12711 6596
L12561 6596
" />
<path d="M13161 6784
L12936 6784
" />
<path d="M13048 6784
L13048 6390
L13011 6446
L12973 6484
L12936 6503
" />
<path d="M13536 6784
L13311 6784
" />
<path d="M13423 6784
L13423 6390
L13386 6446
L13348 6484
L13311 6503
" />
<path d="M12786 5534
L12655 5346
" />
<path d="M12561 5534
L12561 5140
L12711 5140
L12748 5159
L12767 5178
L12786 5215
L12786 5271
L12767 5309
L12748 5328
L12711 5346
L12561 5346
" />
<path d="M13161 5534
L12936 5534
" />
<path d="M13048 5534
L13048 5140
L13011 5196
L12973 5234
L12936 5253
" />
<path d="M13311 5178
L13329 5159
L13367 5140
L13461 5140
L13498 5159
L13517 5178
L13536 5215
L13536 5253
L13517 5309
L13292 5534
L13536 5534
" />
<path d="M16650 2792
L16463 2923
" />
<path d="M16650 3017
L16256 3017
L16256 2867
L16275 2829
L16294 2811
L16331 2792
L16388 2792
L16425 2811
L16444 2829
L16463 2867
L16463 3017
" />
<path d="M16650 2417
L16650 2642
" />
<path d="M16650 2529
L16256 2529
L16313 2567
L16350 2604
L16369 2642
" />
<path d="M16256 2286
L16256 2042
L16406 2173
L16406 2117
L16425 2080
L16444 2061
L16481 2042
L16575 2042
L16613 2061
L16631 2080
L16650 2117
L16650 2230
L16631 2267
L16613 2286
" />
<path d="M17900 2792
L17713 2923
" />
<path d="M17900 3017
L17506 3017
L17506 2867
L17525 2829
L17544 2811
L17581 2792
L17638 2792
L17675 2811
L17694 2829
L17713 2867
L17713 3017
" />
<path d="M17900 2417
L17900 2642
" />
<path d="M17900 2529
L17506 2529
L17563 2567
L17600 2604
L17619 2642
" />
<path d="M17638 2080
L17900 2080
" />
<path d="M17488 2173
L17769 2267
L17769 2023
" />
<path d="M19150 2792
L18963 2923
" />
<path d="M19150 3017
L18756 3017
L18756 2867
L18775 2829
L18794 2811
L18831 2792
L18888 2792
L18925 2811
L18944 2829
L18963 2867
L18963 3017
" />
<path d="M19150 2417
L19150 2642
" />
<path d="M19150 2529
L18756 2529
L18813 2567
L18850 2604
L18869 2642
" />
<path d="M18756 2061
L18756 2248
L18944 2267
L18925 2248
L18906 2211
L18906 2117
L18925 2080
L18944 2061
L18981 2042
L19075 2042
L19113 2061
L19131 2080
L19150 2117
L19150 2211
L19131 2248
L19113 2267
" />
<path d="M20400 2792
L20213 2923
" />
<path d="M20400 3017
L20006 3017
L20006 2867
L20025 2829
L20044 2811
L20081 2792
L20138 2792
L20175 2811
L20194 2829
L20213 2867
L20213 3017
" />
<path d="M20400 2417
L20400 2642
" />
<path d="M20400 2529
L20006 2529
L20063 2567
L20100 2604
L20119 2642
" />
<path d="M20006 2080
L20006 2155
L20025 2192
L20044 2211
L20100 2248
L20175 2267
L20325 2267
L20363 2248
L20381 2230
L20400 2192
L20400 2117
L20381 2080
L20363 2061
L20325 2042
L20231 2042
L20194 2061
L20175 2080
L20156 2117
L20156 2192
L20175 2230
L20194 2248
L20231 2267
" />
<path d="M12786 4284
L12655 4096
" />
<path d="M12561 4284
L12561 3890
L12711 3890
L12748 3909
L12767 3928
L12786 3965
L12786 4021
L12767 4059
L12748 4078
L12711 4096
L12561 4096
" />
<path d="M13161 4284
L12936 4284
" />
<path d="M13048 4284
L13048 3890
L13011 3946
L12973 3984
L12936 4003
" />
<path d="M13292 3890
L13554 3890
L13386 4284
" />
<path d="M22286 4400
L22155 4213
" />
<path d="M22061 4400
L22061 4006
L22211 4006
L22248 4025
L22267 4044
L22286 4081
L22286 4138
L22267 4175
L22248 4194
L22211 4213
L22061 4213
" />
<path d="M22661 4400
L22436 4400
" />
<path d="M22548 4400
L22548 4006
L22511 4063
L22473 4100
L22436 4119
" />
<path d="M22886 4175
L22848 4156
L22829 4138
L22811 4100
L22811 4081
L22829 4044
L22848 4025
L22886 4006
L22961 4006
L22998 4025
L23017 4044
L23036 4081
L23036 4100
L23017 4138
L22998 4156
L22961 4175
L22886 4175
L22848 4194
L22829 4213
L22811 4250
L22811 4325
L22829 4363
L22848 4381
L22886 4400
L22961 4400
L22998 4381
L23017 4363
L23036 4325
L23036 4250
L23017 4213
L22998 4194
L22961 4175
" />
<path d="M12786 18284
L12655 18096
" />
<path d="M12561 18284
L12561 17890
L12711 17890
L12748 17909
L12767 17928
L12786 17965
L12786 18021
L12767 18059
L12748 18078
L12711 18096
L12561 18096
" />
<path d="M13161 18284
L12936 18284
" />
<path d="M13048 18284
L13048 17890
L13011 17946
L12973 17984
L12936 18003
" />
<path d="M13348 18284
L13423 18284
L13461 18265
L13479 18246
L13517 18190
L13536 18115
L13536 17965
L13517 17928
L13498 17909
L13461 17890
L13386 17890
L13348 17909
L13329 17928
L13311 17965
L13311 18059
L13329 18096
L13348 18115
L13386 18134
L13461 18134
L13498 18115
L13517 18096
L13536 18059
" />
<path d="M22286 5650
L22155 5463
" />
<path d="M22061 5650
L22061 5256
L22211 5256
L22248 5275
L22267 5294
L22286 5331
L22286 5388
L22267 5425
L22248 5444
L22211 5463
L22061 5463
" />
<path d="M22436 5294
L22455 5275
L22492 5256
L22586 5256
L22623 5275
L22642 5294
L22661 5331
L22661 5369
L22642 5425
L22417 5650
L22661 5650
" />
<path d="M22904 5256
L22942 5256
L22979 5275
L22998 5294
L23017 5331
L23036 5406
L23036 5500
L23017 5575
L22998 5613
L22979 5631
L22942 5650
L22904 5650
L22867 5631
L22848 5613
L22829 5575
L22811 5500
L22811 5406
L22829 5331
L22848 5294
L22867 5275
L22904 5256
" />
<path d="M22286 6900
L22155 6713
" />
<path d="M22061 6900
L22061 6506
L22211 6506
L22248 6525
L22267 6544
L22286 6581
L22286 6638
L22267 6675
L22248 6694
L22211 6713
L22061 6713
" />
<path d="M22436 6544
L22455 6525
L22492 6506
L22586 6506
L22623 6525
L22642 6544
L22661 6581
L22661 6619
L22642 6675
L22417 6900
L22661 6900
" />
<path d="M23036 6900
L22811 6900
" />
<path d="M22923 6900
L22923 6506
L22886 6563
L22848 6600
L22811 6619
" />
<path d="M22286 8150
L22155 7963
" />
<path d="M22061 8150
L22061 7756
L22211 7756
L22248 7775
L22267 7794
L22286 7831
L22286 7888
L22267 7925
L22248 7944
L22211 7963
L22061 7963
" />
<path d="M22436 7794
L22455 7775
L22492 7756
L22586 7756
L22623 7775
L22642 7794
L22661 7831
L22661 7869
L22642 7925
L22417 8150
L22661 8150
" />
<path d="M22811 7794
L22829 7775
L22867 7756
L22961 7756
L22998 7775
L23017 7794
L23036 7831
L23036 7869
L23017 7925
L22792 8150
L23036 8150
" />
<path d="M25286 10400
L25155 10213
" />
<path d="M25061 10400
L25061 10006
L25211 10006
L25248 10025
L25267 10044
L25286 10081
L25286 10138
L25267 10175
L25248 10194
L25211 10213
L25061 10213
" />
<path d="M25436 10044
L25455 10025
L25492 10006
L25586 10006
L25623 10025
L25642 10044
L25661 10081
L25661 10119
L25642 10175
L25417 10400
L25661 10400
" />
<path d="M25792 10006
L26036 10006
L25904 10156
L25961 10156
L25998 10175
L26017 10194
L26036 10231
L26036 10325
L26017 10363
L25998 10381
L25961 10400
L25848 10400
L25811 10381
L25792 10363
" />
<path d="M25286 11900
L25155 11713
" />
<path d="M25061 11900
L25061 11506
L25211 11506
L25248 11525
L25267 11544
L25286 11581
L25286 11638
L25267 11675
L25248 11694
L25211 11713
L25061 11713
" />
<path d="M25436 11544
L25455 11525
L25492 11506
L25586 11506
L25623 11525
L25642 11544
L25661 11581
L25661 11619
L25642 11675
L25417 11900
L25661 11900
" />
<path d="M25998 11638
L25998 11900
" />
<path d="M25904 11488
L25811 11769
L26054 11769
" />
<path d="M25286 13150
L25155 12963
" />
<path d="M25061 13150
L25061 12756
L25211 12756
L25248 12775
L25267 12794
L25286 12831
L25286 12888
L25267 12925
L25248 12944
L25211 12963
L25061 12963
" />
<path d="M25436 12794
L25455 12775
L25492 12756
L25586 12756
L25623 12775
L25642 12794
L25661 12831
L25661 12869
L25642 12925
L25417 13150
L25661 13150
" />
<path d="M26017 12756
L25829 12756
L25811 12944
L25829 12925
L25867 12906
L25961 12906
L25998 12925
L26017 12944
L26036 12981
L26036 13075
L26017 13113
L25998 13131
L25961 13150
L25867 13150
L25829 13131
L25811 13113
" />
<path d="M25286 14650
L25155 14463
" />
<path d="M25061 14650
L25061 14256
L25211 14256
L25248 14275
L25267 14294
L25286 14331
L25286 14388
L25267 14425
L25248 14444
L25211 14463
L25061 14463
" />
<path d="M25436 14294
L25455 14275
L25492 14256
L25586 14256
L25623 14275
L25642 14294
L25661 14331
L25661 14369
L25642 14425
L25417 14650
L25661 14650
" />
<path d="M25998 14256
L25923 14256
L25886 14275
L25867 14294
L25829 14350
L25811 14425
L25811 14575
L25829 14613
L25848 14631
L25886 14650
L25961 14650
L25998 14631
L26017 14613
L26036 14575
L26036 14481
L26017 14444
L25998 14425
L25961 14406
L25886 14406
L25848 14425
L25829 14444
L25811 14481
" />
<path d="M25286 16150
L25155 15963
" />
<path d="M25061 16150
L25061 15756
L25211 15756
L25248 15775
L25267 15794
L25286 15831
L25286 15888
L25267 15925
L25248 15944
L25211 15963
L25061 15963
" />
<path d="M25436 15794
L25455 15775
L25492 15756
L25586 15756
L25623 15775
L25642 15794
L25661 15831
L25661 15869
L25642 15925
L25417 16150
L25661 16150
" />
<path d="M25792 15756
L26054 15756
L25886 16150
" />
<path d="M25286 17650
L25155 17463
" />
<path d="M25061 17650
L25061 17256
L25211 17256
L25248 17275
L25267 17294
L25286 17331
L25286 17388
L25267 17425
L25248 17444
L25211 17463
L25061 17463
" />
<path d="M25436 17294
L25455 17275
L25492 17256
L25586 17256
L25623 17275
L25642 17294
L25661 17331
L25661 17369
L25642 17425
L25417 17650
L25661 17650
" />
<path d="M25886 17425
L25848 17406
L25829 17388
L25811 17350
L25811 17331
L25829 17294
L25848 17275
L25886 17256
L25961 17256
L25998 17275
L26017 17294
L26036 17331
L26036 17350
L26017 17388
L25998 17406
L25961 17425
L25886 17425
L25848 17444
L25829 17463
L25811 17500
L25811 17575
L25829 17613
L25848 17631
L25886 17650
L25961 17650
L25998 17631
L26017 17613
L26036 17575
L26036 17500
L26017 17463
L25998 17444
L25961 17425
" />
<path d="M25286 19150
L25155 18963
" />
<path d="M25061 19150
L25061 18756
L25211 18756
L25248 18775
L25267 18794
L25286 18831
L25286 18888
L25267 18925
L25248 18944
L25211 18963
L25061 18963
" />
<path d="M25436 18794
L25455 18775
L25492 18756
L25586 18756
L25623 18775
L25642 18794
L25661 18831
L25661 18869
L25642 18925
L25417 19150
L25661 19150
" />
<path d="M25848 19150
L25923 19150
L25961 19131
L25979 19113
L26017 19056
L26036 18981
L26036 18831
L26017 18794
L25998 18775
L25961 18756
L25886 18756
L25848 18775
L25829 18794
L25811 18831
L25811 18925
L25829 18963
L25848 18981
L25886 19000
L25961 19000
L25998 18981
L26017 18963
L26036 18925
" />
<path d="M25286 20400
L25155 20213
" />
<path d="M25061 20400
L25061 20006
L25211 20006
L25248 20025
L25267 20044
L25286 20081
L25286 20138
L25267 20175
L25248 20194
L25211 20213
L25061 20213
" />
<path d="M25417 20006
L25661 20006
L25529 20156
L25586 20156
L25623 20175
L25642 20194
L25661 20231
L25661 20325
L25642 20363
L25623 20381
L25586 20400
L25473 20400
L25436 20381
L25417 20363
" />
<path d="M25904 20006
L25942 20006
L25979 20025
L25998 20044
L26017 20081
L26036 20156
L26036 20250
L26017 20325
L25998 20363
L25979 20381
L25942 20400
L25904 20400
L25867 20381
L25848 20363
L25829 20325
L25811 20250
L25811 20156
L25829 20081
L25848 20044
L25867 20025
L25904 20006
" />
<path d="M25286 21900
L25155 21713
" />
<path d="M25061 21900
L25061 21506
L25211 21506
L25248 21525
L25267 21544
L25286 21581
L25286 21638
L25267 21675
L25248 21694
L25211 21713
L25061 21713
" />
<path d="M25417 21506
L25661 21506
L25529 21656
L25586 21656
L25623 21675
L25642 21694
L25661 21731
L25661 21825
L25642 21863
L25623 21881
L25586 21900
L25473 21900
L25436 21881
L25417 21863
" />
<path d="M26036 21900
L25811 21900
" />
<path d="M25923 21900
L25923 21506
L25886 21563
L25848 21600
L25811 21619
" />
<path d="M25286 23400
L25155 23213
" />
<path d="M25061 23400
L25061 23006
L25211 23006
L25248 23025
L25267 23044
L25286 23081
L25286 23138
L25267 23175
L25248 23194
L25211 23213
L25061 23213
" />
<path d="M25417 23006
L25661 23006
L25529 23156
L25586 23156
L25623 23175
L25642 23194
L25661 23231
L25661 23325
L25642 23363
L25623 23381
L25586 23400
L25473 23400
L25436 23381
L25417 23363
" />
<path d="M25811 23044
L25829 23025
L25867 23006
L25961 23006
L25998 23025
L26017 23044
L26036 23081
L26036 23119
L26017 23175
L25792 23400
L26036 23400
" />
<path d="M25286 24650
L25155 24463
" />
<path d="M25061 24650
L25061 24256
L25211 24256
L25248 24275
L25267 24294
L25286 24331
L25286 24388
L25267 24425
L25248 24444
L25211 24463
L25061 24463
" />
<path d="M25417 24256
L25661 24256
L25529 24406
L25586 24406
L25623 24425
L25642 24444
L25661 24481
L25661 24575
L25642 24613
L25623 24631
L25586 24650
L25473 24650
L25436 24631
L25417 24613
" />
<path d="M25792 24256
L26036 24256
L25904 24406
L25961 24406
L25998 24425
L26017 24444
L26036 24481
L26036 24575
L26017 24613
L25998 24631
L25961 24650
L25848 24650
L25811 24631
L25792 24613
" />
<path d="M25286 26150
L25155 25963
" />
<path d="M25061 26150
L25061 25756
L25211 25756
L25248 25775
L25267 25794
L25286 25831
L25286 25888
L25267 25925
L25248 25944
L25211 25963
L25061 25963
" />
<path d="M25417 25756
L25661 25756
L25529 25906
L25586 25906
L25623 25925
L25642 25944
L25661 25981
L25661 26075
L25642 26113
L25623 26131
L25586 26150
L25473 26150
L25436 26131
L25417 26113
" />
<path d="M25998 25888
L25998 26150
" />
<path d="M25904 25738
L25811 26019
L26054 26019
" />
<path d="M2739 14406
L2739 14725
L2758 14762
L2776 14781
L2814 14800
L2889 14800
L2926 14781
L2945 14762
L2964 14725
L2964 14406
" />
<path d="M3358 14800
L3133 14800
" />
<path d="M3245 14800
L3245 14406
L3208 14462
L3170 14500
L3133 14518
" />
<path d="M406 32089
L725 32089
L762 32070
L781 32051
L800 32014
L800 31939
L781 31901
L762 31883
L725 31864
L406 31864
" />
<path d="M443 31695
L425 31676
L406 31639
L406 31545
L425 31508
L443 31489
L481 31470
L518 31470
L575 31489
L800 31714
L800 31470
" />
<path d="M12489 7906
L12489 8225
L12508 8262
L12526 8281
L12564 8300
L12639 8300
L12676 8281
L12695 8262
L12714 8225
L12714 7906
" />
<path d="M12864 7906
L13108 7906
L12976 8056
L13033 8056
L13070 8075
L13089 8093
L13108 8131
L13108 8225
L13089 8262
L13070 8281
L13033 8300
L12920 8300
L12883 8281
L12864 8262
" />
<path d="M12489 19406
L12489 19725
L12508 19762
L12526 19781
L12564 19800
L12639 19800
L12676 19781
L12695 19762
L12714 19725
L12714 19406
" />
<path d="M13070 19537
L13070 19800
" />
<path d="M12976 19387
L12883 19668
L13126 19668
" />
<path d="M15156 29589
L15475 29589
L15512 29570
L15531 29551
L15550 29514
L15550 29439
L15531 29401
L15512 29383
L15475 29364
L15156 29364
" />
<path d="M15156 28989
L15156 29176
L15343 29195
L15325 29176
L15306 29139
L15306 29045
L15325 29008
L15343 28989
L15381 28970
L15475 28970
L15512 28989
L15531 29008
L15550 29045
L15550 29139
L15531 29176
L15512 29195
" />
<path d="M25764 457
L25633 270
" />
<path d="M25539 457
L25539 63
L25689 63
L25726 82
L25745 101
L25764 138
L25764 195
L25745 232
L25726 251
L25689 270
L25539 270
" />
<path d="M25933 251
L26064 251
" />
<path d="M26120 457
L25933 457
L25933 63
L26120 63
" />
<path d="M26420 251
L26289 251
" />
<path d="M26289 457
L26289 63
L26476 63
" />
<path d="M26683 63
L26683 157
" />
<path d="M26589 120
L26683 157
L26776 120
" />
<path d="M26626 232
L26683 157
L26739 232
" />
<path d="M26983 63
L26983 157
" />
<path d="M26889 120
L26983 157
L27076 120
" />
<path d="M26926 232
L26983 157
L27039 232
" />
</g>
<g style="fill:#000000; fill-opacity:0.0; 
stroke:#000000; stroke-width:59.0551; stroke-opacity:1; 
stroke-linecap:round; stroke-linejoin:round;">
</g>
<g style="fill:#C2C200; fill-opacity:0.0; 
stroke:#C2C200; stroke-width:59.0551; stroke-opacity:1; 
stroke-linecap:round; stroke-linejoin:round;">
</g>
<g style="fill:#C2C200; fill-opacity:0.0; 
stroke:#C2C200; stroke-width:78.7402; stroke-opacity:1; 
stroke-linecap:round; stroke-linejoin:round;">
<path d="M39 36289
L39 39
" />
<path d="M27789 36289
L39 36289
" />
<path d="M27789 39
L27789 36289
" />
<path d="M39 39
L27789 39
" />
</g> 
</svg>
