  0
SECTION
  2
HEADER
  9
$ACADVER
  1
AC1014
  9
$HANDSEED
  5
FFFF
  9
$MEASUREMENT
 70
     1
  0
ENDSEC
  0
SECTION
  2
TABLES
  0
TABLE
  2
VPORT
  5
8
330
0
100
AcDbSymbolTable
 70
     4
  0
VPORT
  5
2E
330
8
100
AcDbSymbolTableRecord
100
AcDbViewportTableRecord
  2
*ACTIVE
 70
     0
 10
0.0
 20
0.0
 11
1.0
 21
1.0
 12
210.0
 22
148.5
 13
0.0
 23
0.0
 14
10.0
 24
10.0
 15
10.0
 25
10.0
 16
0.0
 26
0.0
 36
1.0
 17
0.0
 27
0.0
 37
0.0
 40
341.0
 41
1.24
 42
50.0
 43
0.0
 44
0.0
 50
0.0
 51
0.0
 71
     0
 72
   100
 73
     1
 74
     3
 75
     0
 76
     0
 77
     0
 78
     0
  0
ENDTAB
  0
TABLE
  2
LTYPE
  5
5
330
0
100
AcDbSymbolTable
 70
     1
  0
LTYPE
  5
14
330
5
100
AcDbSymbolTableRecord
100
AcDbLinetypeTableRecord
  2
BYBLOCK
 70
     0
  3

 72
    65
 73
     0
 40
0.0
  0
LTYPE
  5
15
330
5
100
AcDbSymbolTableRecord
100
AcDbLinetypeTableRecord
  2
BYLAYER
 70
     0
  3

 72
    65
 73
     0
 40
0.0
  0
LTYPE
  5
16
330
5
100
AcDbSymbolTableRecord
100
AcDbLinetypeTableRecord
  2
CONTINUOUS
 70
     0
  3
Solid line
 72
    65
 73
     0
 40
0.0
  0
ENDTAB
  0
TABLE
  2
LAYER
  5
2
100
AcDbSymbolTable
 70
2
  0
LAYER
  5
50
100
AcDbSymbolTableRecord
100
AcDbLayerTableRecord
  2
0
 70
0
  6
CONTINUOUS
  0
LAYER
  5
51
100
AcDbSymbolTableRecord
100
AcDbLayerTableRecord
  2
Layer_1
 70
0
  6
CONTINUOUS
  0
ENDTAB
  0
TABLE
  2
STYLE
  5
3
330
0
100
AcDbSymbolTable
 70
     1
  0
STYLE
  5
11
330
3
100
AcDbSymbolTableRecord
100
AcDbTextStyleTableRecord
  2
STANDARD
 70
     0
 40
0.0
 41
1.0
 50
0.0
 71
     0
 42
2.5
  3
txt
  4

  0
ENDTAB
  0
TABLE
  2
VIEW
  5
6
330
0
100
AcDbSymbolTable
 70
     0
  0
ENDTAB
  0
TABLE
  2
UCS
  5
7
330
0
100
AcDbSymbolTable
 70
     0
  0
ENDTAB
  0
TABLE
  2
APPID
  5
9
330
0
100
AcDbSymbolTable
 70
     2
  0
APPID
  5
12
330
9
100
AcDbSymbolTableRecord
100
AcDbRegAppTableRecord
  2
ACAD
 70
     0
  0
ENDTAB
  0
TABLE
  2
DIMSTYLE
  5
A
330
0
100
AcDbSymbolTable
 70
     1
  0
DIMSTYLE
105
27
330
A
100
AcDbSymbolTableRecord
100
AcDbDimStyleTableRecord
  2
ISO-25
 70
     0
  3

  4

  5

  6

  7

 40
1.0
 41
2.5
 42
0.625
 43
3.75
 44
1.25
 45
0.0
 46
0.0
 47
0.0
 48
0.0
140
2.5
141
2.5
142
0.0
143
0.03937007874016
144
1.0
145
0.0
146
1.0
147
0.625
 71
     0
 72
     0
 73
     0
 74
     0
 75
     0
 76
     0
 77
     1
 78
     8
170
     0
171
     3
172
     1
173
     0
174
     0
175
     0
176
     0
177
     0
178
     0
270
     2
271
     2
272
     2
273
     2
274
     3
340
11
275
     0
280
     0
281
     0
282
     0
283
     0
284
     8
285
     0
286
     0
287
     3
288
     0
  0
ENDTAB
  0
TABLE
  2
BLOCK_RECORD
  5
1
330
0
100
AcDbSymbolTable
 70
     1
  0
BLOCK_RECORD
  5
1F
330
1
100
AcDbSymbolTableRecord
100
AcDbBlockTableRecord
  2
*MODEL_SPACE
  0
BLOCK_RECORD
  5
1B
330
1
100
AcDbSymbolTableRecord
100
AcDbBlockTableRecord
  2
*PAPER_SPACE
  0
ENDTAB
  0
ENDSEC
  0
SECTION
  2
BLOCKS
  0
BLOCK
  5
20
330
1F
100
AcDbEntity
  8
0
100
AcDbBlockBegin
  2
*MODEL_SPACE
 70
     0
 10
0.0
 20
0.0
 30
0.0
  3
*MODEL_SPACE
  1

  0
ENDBLK
  5
21
330
1F
100
AcDbEntity
  8
0
100
AcDbBlockEnd
  0
BLOCK
  5
1C
330
1B
100
AcDbEntity
 67
     1
  8
0
100
AcDbBlockBegin
  2
*PAPER_SPACE
  1

  0
ENDBLK
  5
1D
330
1B
100
AcDbEntity
 67
     1
  8
0
100
AcDbBlockEnd
  0
ENDSEC
  0
SECTION
  2
ENTITIES
  0
SPLINE
  5
100
100
AcDbEntity
  8
Layer_1
 62
1
100
AcDbSpline
 70
8
 71
3
 72
8
 73
4
 74
0
 40
0
 40
0
 40
0
 40
0
 40
1
 40
1
 40
1
 40
1
 10
60.179677
 20
33.611431
 30
0.0
 10
60.179677
 20
30.217407
 30
0.0
 10
58.368987
 20
27.081200
 30
0.0
 10
55.429677
 20
25.384188
 30
0.0
  0
SPLINE
  5
101
100
AcDbEntity
  8
Layer_1
 62
1
100
AcDbSpline
 70
8
 71
3
 72
8
 73
4
 74
0
 40
0
 40
0
 40
0
 40
0
 40
1
 40
1
 40
1
 40
1
 10
55.429677
 20
25.384188
 30
0.0
 10
52.490366
 20
23.687177
 30
0.0
 10
48.868986
 20
23.687177
 30
0.0
 10
45.929675
 20
25.384188
 30
0.0
  0
SPLINE
  5
102
100
AcDbEntity
  8
Layer_1
 62
1
100
AcDbSpline
 70
8
 71
3
 72
8
 73
4
 74
0
 40
0
 40
0
 40
0
 40
0
 40
1
 40
1
 40
1
 40
1
 10
45.929675
 20
25.384188
 30
0.0
 10
42.990365
 20
27.081200
 30
0.0
 10
41.179675
 20
30.217407
 30
0.0
 10
41.179675
 20
33.611431
 30
0.0
  0
SPLINE
  5
103
100
AcDbEntity
  8
Layer_1
 62
1
100
AcDbSpline
 70
8
 71
3
 72
8
 73
4
 74
0
 40
0
 40
0
 40
0
 40
0
 40
1
 40
1
 40
1
 40
1
 10
41.179675
 20
33.611431
 30
0.0
 10
41.179675
 20
38.858136
 30
0.0
 10
45.432970
 20
43.111432
 30
0.0
 10
50.679676
 20
43.111432
 30
0.0
  0
SPLINE
  5
104
100
AcDbEntity
  8
Layer_1
 62
1
100
AcDbSpline
 70
8
 71
3
 72
8
 73
4
 74
0
 40
0
 40
0
 40
0
 40
0
 40
1
 40
1
 40
1
 40
1
 10
50.679676
 20
43.111432
 30
0.0
 10
55.926382
 20
43.111432
 30
0.0
 10
60.179677
 20
38.858136
 30
0.0
 10
60.179677
 20
33.611431
 30
0.0
  0
SPLINE
  5
105
100
AcDbEntity
  8
Layer_1
 62
3
100
AcDbSpline
 70
8
 71
3
 72
8
 73
4
 74
0
 40
0
 40
0
 40
0
 40
0
 40
1
 40
1
 40
1
 40
1
 10
63.179677
 20
33.611431
 30
0.0
 10
63.179677
 20
29.145610
 30
0.0
 10
60.797190
 20
25.019022
 30
0.0
 10
56.929677
 20
22.786112
 30
0.0
  0
SPLINE
  5
106
100
AcDbEntity
  8
Layer_1
 62
3
100
AcDbSpline
 70
8
 71
3
 72
8
 73
4
 74
0
 40
0
 40
0
 40
0
 40
0
 40
1
 40
1
 40
1
 40
1
 10
56.929677
 20
22.786112
 30
0.0
 10
53.062163
 20
20.553202
 30
0.0
 10
48.297189
 20
20.553202
 30
0.0
 10
44.429675
 20
22.786112
 30
0.0
  0
SPLINE
  5
107
100
AcDbEntity
  8
Layer_1
 62
3
100
AcDbSpline
 70
8
 71
3
 72
8
 73
4
 74
0
 40
0
 40
0
 40
0
 40
0
 40
1
 40
1
 40
1
 40
1
 10
44.429675
 20
22.786112
 30
0.0
 10
40.562161
 20
25.019022
 30
0.0
 10
38.179675
 20
29.145610
 30
0.0
 10
38.179675
 20
33.611431
 30
0.0
  0
SPLINE
  5
108
100
AcDbEntity
  8
Layer_1
 62
3
100
AcDbSpline
 70
8
 71
3
 72
8
 73
4
 74
0
 40
0
 40
0
 40
0
 40
0
 40
1
 40
1
 40
1
 40
1
 10
38.179675
 20
33.611431
 30
0.0
 10
38.179675
 20
40.514991
 30
0.0
 10
43.776116
 20
46.111432
 30
0.0
 10
50.679676
 20
46.111432
 30
0.0
  0
SPLINE
  5
109
100
AcDbEntity
  8
Layer_1
 62
3
100
AcDbSpline
 70
8
 71
3
 72
8
 73
4
 74
0
 40
0
 40
0
 40
0
 40
0
 40
1
 40
1
 40
1
 40
1
 10
50.679676
 20
46.111432
 30
0.0
 10
57.583236
 20
46.111432
 30
0.0
 10
63.179677
 20
40.514991
 30
0.0
 10
63.179677
 20
33.611431
 30
0.0
  0
LWPOLYLINE
  5
10a
100
AcDbEntity
  8
Layer_1
 62
1
100
AcDbPolyline
 90
1
 70
1
 10
60.179677
 20
33.611431
 30
0.0
  0
SPLINE
  5
10b
100
AcDbEntity
  8
Layer_1
 62
1
100
AcDbSpline
 70
8
 71
3
 72
8
 73
4
 74
0
 40
0
 40
0
 40
0
 40
0
 40
1
 40
1
 40
1
 40
1
 10
155.547384
 20
17.762130
 30
0.0
 10
155.547384
 20
13.832208
 30
0.0
 10
153.450796
 20
10.200811
 30
0.0
 10
150.047384
 20
8.235850
 30
0.0
  0
SPLINE
  5
10c
100
AcDbEntity
  8
Layer_1
 62
1
100
AcDbSpline
 70
8
 71
3
 72
8
 73
4
 74
0
 40
0
 40
0
 40
0
 40
0
 40
1
 40
1
 40
1
 40
1
 10
150.047384
 20
8.235850
 30
0.0
 10
146.643971
 20
6.270889
 30
0.0
 10
142.450795
 20
6.270889
 30
0.0
 10
139.047382
 20
8.235850
 30
0.0
  0
SPLINE
  5
10d
100
AcDbEntity
  8
Layer_1
 62
1
100
AcDbSpline
 70
8
 71
3
 72
8
 73
4
 74
0
 40
0
 40
0
 40
0
 40
0
 40
1
 40
1
 40
1
 40
1
 10
139.047382
 20
8.235850
 30
0.0
 10
135.643970
 20
10.200811
 30
0.0
 10
133.547382
 20
13.832208
 30
0.0
 10
133.547382
 20
17.762130
 30
0.0
  0
SPLINE
  5
10e
100
AcDbEntity
  8
Layer_1
 62
1
100
AcDbSpline
 70
8
 71
3
 72
8
 73
4
 74
0
 40
0
 40
0
 40
0
 40
0
 40
1
 40
1
 40
1
 40
1
 10
133.547382
 20
17.762130
 30
0.0
 10
133.547382
 20
21.692052
 30
0.0
 10
135.643970
 20
25.323450
 30
0.0
 10
139.047382
 20
27.288411
 30
0.0
  0
SPLINE
  5
10f
100
AcDbEntity
  8
Layer_1
 62
1
100
AcDbSpline
 70
8
 71
3
 72
8
 73
4
 74
0
 40
0
 40
0
 40
0
 40
0
 40
1
 40
1
 40
1
 40
1
 10
139.047382
 20
27.288411
 30
0.0
 10
142.450795
 20
29.253372
 30
0.0
 10
146.643971
 20
29.253372
 30
0.0
 10
150.047384
 20
27.288411
 30
0.0
  0
SPLINE
  5
110
100
AcDbEntity
  8
Layer_1
 62
1
100
AcDbSpline
 70
8
 71
3
 72
8
 73
4
 74
0
 40
0
 40
0
 40
0
 40
0
 40
1
 40
1
 40
1
 40
1
 10
150.047384
 20
27.288411
 30
0.0
 10
153.450796
 20
25.323450
 30
0.0
 10
155.547384
 20
21.692052
 30
0.0
 10
155.547384
 20
17.762130
 30
0.0
  0
LWPOLYLINE
  5
111
100
AcDbEntity
  8
Layer_1
 62
3
100
AcDbPolyline
 90
1
 70
1
 10
63.179677
 20
33.611431
 30
0.0
  0
SPLINE
  5
112
100
AcDbEntity
  8
Layer_1
 62
3
100
AcDbSpline
 70
8
 71
3
 72
8
 73
4
 74
0
 40
0
 40
0
 40
0
 40
0
 40
1
 40
1
 40
1
 40
1
 10
159.547383
 20
17.762130
 30
0.0
 10
159.547383
 20
12.403146
 30
0.0
 10
156.688399
 20
7.451241
 30
0.0
 10
152.047383
 20
4.771749
 30
0.0
  0
SPLINE
  5
113
100
AcDbEntity
  8
Layer_1
 62
3
100
AcDbSpline
 70
8
 71
3
 72
8
 73
4
 74
0
 40
0
 40
0
 40
0
 40
0
 40
1
 40
1
 40
1
 40
1
 10
152.047383
 20
4.771749
 30
0.0
 10
147.406367
 20
2.092257
 30
0.0
 10
141.688399
 20
2.092257
 30
0.0
 10
137.047383
 20
4.771749
 30
0.0
  0
SPLINE
  5
114
100
AcDbEntity
  8
Layer_1
 62
3
100
AcDbSpline
 70
8
 71
3
 72
8
 73
4
 74
0
 40
0
 40
0
 40
0
 40
0
 40
1
 40
1
 40
1
 40
1
 10
137.047383
 20
4.771749
 30
0.0
 10
132.406367
 20
7.451241
 30
0.0
 10
129.547383
 20
12.403146
 30
0.0
 10
129.547383
 20
17.762130
 30
0.0
  0
SPLINE
  5
115
100
AcDbEntity
  8
Layer_1
 62
3
100
AcDbSpline
 70
8
 71
3
 72
8
 73
4
 74
0
 40
0
 40
0
 40
0
 40
0
 40
1
 40
1
 40
1
 40
1
 10
129.547383
 20
17.762130
 30
0.0
 10
129.547383
 20
23.121114
 30
0.0
 10
132.406367
 20
28.073020
 30
0.0
 10
137.047383
 20
30.752512
 30
0.0
  0
SPLINE
  5
116
100
AcDbEntity
  8
Layer_1
 62
3
100
AcDbSpline
 70
8
 71
3
 72
8
 73
4
 74
0
 40
0
 40
0
 40
0
 40
0
 40
1
 40
1
 40
1
 40
1
 10
137.047383
 20
30.752512
 30
0.0
 10
141.688399
 20
33.432004
 30
0.0
 10
147.406367
 20
33.432004
 30
0.0
 10
152.047383
 20
30.752512
 30
0.0
  0
SPLINE
  5
117
100
AcDbEntity
  8
Layer_1
 62
3
100
AcDbSpline
 70
8
 71
3
 72
8
 73
4
 74
0
 40
0
 40
0
 40
0
 40
0
 40
1
 40
1
 40
1
 40
1
 10
152.047383
 20
30.752512
 30
0.0
 10
156.688399
 20
28.073020
 30
0.0
 10
159.547383
 20
23.121114
 30
0.0
 10
159.547383
 20
17.762130
 30
0.0
  0
LWPOLYLINE
  5
118
100
AcDbEntity
  8
Layer_1
 62
1
100
AcDbPolyline
 90
1
 70
1
 10
155.547384
 20
17.762130
 30
0.0
  0
SPLINE
  5
119
100
AcDbEntity
  8
Layer_1
 62
3
100
AcDbSpline
 70
8
 71
3
 72
8
 73
4
 74
0
 40
0
 40
0
 40
0
 40
0
 40
1
 40
1
 40
1
 40
1
 10
119.485242
 20
72.578982
 30
0.0
 10
119.485242
 20
69.988806
 30
0.0
 10
118.103400
 20
67.595385
 30
0.0
 10
115.860242
 20
66.300297
 30
0.0
  0
SPLINE
  5
11a
100
AcDbEntity
  8
Layer_1
 62
3
100
AcDbSpline
 70
8
 71
3
 72
8
 73
4
 74
0
 40
0
 40
0
 40
0
 40
0
 40
1
 40
1
 40
1
 40
1
 10
115.860242
 20
66.300297
 30
0.0
 10
113.617085
 20
65.005210
 30
0.0
 10
110.853400
 20
65.005210
 30
0.0
 10
108.610242
 20
66.300297
 30
0.0
  0
SPLINE
  5
11b
100
AcDbEntity
  8
Layer_1
 62
3
100
AcDbSpline
 70
8
 71
3
 72
8
 73
4
 74
0
 40
0
 40
0
 40
0
 40
0
 40
1
 40
1
 40
1
 40
1
 10
108.610242
 20
66.300297
 30
0.0
 10
106.367084
 20
67.595385
 30
0.0
 10
104.985242
 20
69.988806
 30
0.0
 10
104.985242
 20
72.578982
 30
0.0
  0
SPLINE
  5
11c
100
AcDbEntity
  8
Layer_1
 62
3
100
AcDbSpline
 70
8
 71
3
 72
8
 73
4
 74
0
 40
0
 40
0
 40
0
 40
0
 40
1
 40
1
 40
1
 40
1
 10
104.985242
 20
72.578982
 30
0.0
 10
104.985242
 20
75.169157
 30
0.0
 10
106.367084
 20
77.562578
 30
0.0
 10
108.610242
 20
78.857666
 30
0.0
  0
SPLINE
  5
11d
100
AcDbEntity
  8
Layer_1
 62
3
100
AcDbSpline
 70
8
 71
3
 72
8
 73
4
 74
0
 40
0
 40
0
 40
0
 40
0
 40
1
 40
1
 40
1
 40
1
 10
108.610242
 20
78.857666
 30
0.0
 10
110.853400
 20
80.152754
 30
0.0
 10
113.617085
 20
80.152754
 30
0.0
 10
115.860242
 20
78.857666
 30
0.0
  0
SPLINE
  5
11e
100
AcDbEntity
  8
Layer_1
 62
3
100
AcDbSpline
 70
8
 71
3
 72
8
 73
4
 74
0
 40
0
 40
0
 40
0
 40
0
 40
1
 40
1
 40
1
 40
1
 10
115.860242
 20
78.857666
 30
0.0
 10
118.103400
 20
77.562578
 30
0.0
 10
119.485242
 20
75.169157
 30
0.0
 10
119.485242
 20
72.578982
 30
0.0
  0
LWPOLYLINE
  5
11f
100
AcDbEntity
  8
Layer_1
 62
3
100
AcDbPolyline
 90
1
 70
1
 10
159.547383
 20
17.762130
 30
0.0
  0
SPLINE
  5
120
100
AcDbEntity
  8
Layer_1
 62
1
100
AcDbSpline
 70
8
 71
3
 72
8
 73
4
 74
0
 40
0
 40
0
 40
0
 40
0
 40
1
 40
1
 40
1
 40
1
 10
115.735242
 20
72.578982
 30
0.0
 10
115.735242
 20
71.328552
 30
0.0
 10
115.068146
 20
70.173107
 30
0.0
 10
113.985242
 20
69.547893
 30
0.0
  0
SPLINE
  5
121
100
AcDbEntity
  8
Layer_1
 62
1
100
AcDbSpline
 70
8
 71
3
 72
8
 73
4
 74
0
 40
0
 40
0
 40
0
 40
0
 40
1
 40
1
 40
1
 40
1
 10
113.985242
 20
69.547893
 30
0.0
 10
112.902339
 20
68.922678
 30
0.0
 10
111.568146
 20
68.922678
 30
0.0
 10
110.485242
 20
69.547893
 30
0.0
  0
SPLINE
  5
122
100
AcDbEntity
  8
Layer_1
 62
1
100
AcDbSpline
 70
8
 71
3
 72
8
 73
4
 74
0
 40
0
 40
0
 40
0
 40
0
 40
1
 40
1
 40
1
 40
1
 10
110.485242
 20
69.547893
 30
0.0
 10
109.402338
 20
70.173107
 30
0.0
 10
108.735242
 20
71.328552
 30
0.0
 10
108.735242
 20
72.578982
 30
0.0
  0
SPLINE
  5
123
100
AcDbEntity
  8
Layer_1
 62
1
100
AcDbSpline
 70
8
 71
3
 72
8
 73
4
 74
0
 40
0
 40
0
 40
0
 40
0
 40
1
 40
1
 40
1
 40
1
 10
108.735242
 20
72.578982
 30
0.0
 10
108.735242
 20
73.829411
 30
0.0
 10
109.402338
 20
74.984856
 30
0.0
 10
110.485242
 20
75.610071
 30
0.0
  0
SPLINE
  5
124
100
AcDbEntity
  8
Layer_1
 62
1
100
AcDbSpline
 70
8
 71
3
 72
8
 73
4
 74
0
 40
0
 40
0
 40
0
 40
0
 40
1
 40
1
 40
1
 40
1
 10
110.485242
 20
75.610071
 30
0.0
 10
111.568146
 20
76.235285
 30
0.0
 10
112.902339
 20
76.235285
 30
0.0
 10
113.985242
 20
75.610071
 30
0.0
  0
SPLINE
  5
125
100
AcDbEntity
  8
Layer_1
 62
1
100
AcDbSpline
 70
8
 71
3
 72
8
 73
4
 74
0
 40
0
 40
0
 40
0
 40
0
 40
1
 40
1
 40
1
 40
1
 10
113.985242
 20
75.610071
 30
0.0
 10
115.068146
 20
74.984856
 30
0.0
 10
115.735242
 20
73.829411
 30
0.0
 10
115.735242
 20
72.578982
 30
0.0
  0
LWPOLYLINE
  5
126
100
AcDbEntity
  8
Layer_1
 62
3
100
AcDbPolyline
 90
1
 70
1
 10
119.485242
 20
72.578982
 30
0.0
  0
LWPOLYLINE
  5
127
100
AcDbEntity
  8
Layer_1
 62
1
100
AcDbPolyline
 90
1
 70
1
 10
115.735242
 20
72.578982
 30
0.0
  0
SPLINE
  5
128
100
AcDbEntity
  8
Layer_1
 62
3
100
AcDbSpline
 70
8
 71
3
 72
8
 73
4
 74
0
 40
0
 40
0
 40
0
 40
0
 40
1
 40
1
 40
1
 40
1
 10
138.826223
 20
72.578982
 30
0.0
 10
138.826223
 20
69.988806
 30
0.0
 10
137.444381
 20
67.595385
 30
0.0
 10
135.201223
 20
66.300297
 30
0.0
  0
SPLINE
  5
129
100
AcDbEntity
  8
Layer_1
 62
3
100
AcDbSpline
 70
8
 71
3
 72
8
 73
4
 74
0
 40
0
 40
0
 40
0
 40
0
 40
1
 40
1
 40
1
 40
1
 10
135.201223
 20
66.300297
 30
0.0
 10
132.958065
 20
65.005210
 30
0.0
 10
130.194381
 20
65.005210
 30
0.0
 10
127.951223
 20
66.300297
 30
0.0
  0
SPLINE
  5
12a
100
AcDbEntity
  8
Layer_1
 62
3
100
AcDbSpline
 70
8
 71
3
 72
8
 73
4
 74
0
 40
0
 40
0
 40
0
 40
0
 40
1
 40
1
 40
1
 40
1
 10
127.951223
 20
66.300297
 30
0.0
 10
125.708065
 20
67.595385
 30
0.0
 10
124.326223
 20
69.988806
 30
0.0
 10
124.326223
 20
72.578982
 30
0.0
  0
SPLINE
  5
12b
100
AcDbEntity
  8
Layer_1
 62
3
100
AcDbSpline
 70
8
 71
3
 72
8
 73
4
 74
0
 40
0
 40
0
 40
0
 40
0
 40
1
 40
1
 40
1
 40
1
 10
124.326223
 20
72.578982
 30
0.0
 10
124.326223
 20
75.169157
 30
0.0
 10
125.708065
 20
77.562578
 30
0.0
 10
127.951223
 20
78.857666
 30
0.0
  0
SPLINE
  5
12c
100
AcDbEntity
  8
Layer_1
 62
3
100
AcDbSpline
 70
8
 71
3
 72
8
 73
4
 74
0
 40
0
 40
0
 40
0
 40
0
 40
1
 40
1
 40
1
 40
1
 10
127.951223
 20
78.857666
 30
0.0
 10
130.194381
 20
80.152754
 30
0.0
 10
132.958065
 20
80.152754
 30
0.0
 10
135.201223
 20
78.857666
 30
0.0
  0
SPLINE
  5
12d
100
AcDbEntity
  8
Layer_1
 62
3
100
AcDbSpline
 70
8
 71
3
 72
8
 73
4
 74
0
 40
0
 40
0
 40
0
 40
0
 40
1
 40
1
 40
1
 40
1
 10
135.201223
 20
78.857666
 30
0.0
 10
137.444381
 20
77.562578
 30
0.0
 10
138.826223
 20
75.169157
 30
0.0
 10
138.826223
 20
72.578982
 30
0.0
  0
LWPOLYLINE
  5
12e
100
AcDbEntity
  8
Layer_1
 62
7
100
AcDbPolyline
 90
4
 70
1
 10
111.235262
 20
67.845522
 30
0.0
 10
113.235262
 20
67.845522
 30
0.0
 10
113.235262
 20
63.071825
 30
0.0
 10
111.235262
 20
63.071825
 30
0.0
  0
SPLINE
  5
12f
100
AcDbEntity
  8
Layer_1
 62
1
100
AcDbSpline
 70
8
 71
3
 72
8
 73
4
 74
0
 40
0
 40
0
 40
0
 40
0
 40
1
 40
1
 40
1
 40
1
 10
135.076223
 20
72.578982
 30
0.0
 10
135.076223
 20
71.328552
 30
0.0
 10
134.409127
 20
70.173107
 30
0.0
 10
133.326223
 20
69.547893
 30
0.0
  0
SPLINE
  5
130
100
AcDbEntity
  8
Layer_1
 62
1
100
AcDbSpline
 70
8
 71
3
 72
8
 73
4
 74
0
 40
0
 40
0
 40
0
 40
0
 40
1
 40
1
 40
1
 40
1
 10
133.326223
 20
69.547893
 30
0.0
 10
132.243319
 20
68.922678
 30
0.0
 10
130.909126
 20
68.922678
 30
0.0
 10
129.826223
 20
69.547893
 30
0.0
  0
SPLINE
  5
131
100
AcDbEntity
  8
Layer_1
 62
1
100
AcDbSpline
 70
8
 71
3
 72
8
 73
4
 74
0
 40
0
 40
0
 40
0
 40
0
 40
1
 40
1
 40
1
 40
1
 10
129.826223
 20
69.547893
 30
0.0
 10
128.743319
 20
70.173107
 30
0.0
 10
128.076223
 20
71.328552
 30
0.0
 10
128.076223
 20
72.578982
 30
0.0
  0
SPLINE
  5
132
100
AcDbEntity
  8
Layer_1
 62
1
100
AcDbSpline
 70
8
 71
3
 72
8
 73
4
 74
0
 40
0
 40
0
 40
0
 40
0
 40
1
 40
1
 40
1
 40
1
 10
128.076223
 20
72.578982
 30
0.0
 10
128.076223
 20
73.829411
 30
0.0
 10
128.743319
 20
74.984856
 30
0.0
 10
129.826223
 20
75.610071
 30
0.0
  0
SPLINE
  5
133
100
AcDbEntity
  8
Layer_1
 62
1
100
AcDbSpline
 70
8
 71
3
 72
8
 73
4
 74
0
 40
0
 40
0
 40
0
 40
0
 40
1
 40
1
 40
1
 40
1
 10
129.826223
 20
75.610071
 30
0.0
 10
130.909126
 20
76.235285
 30
0.0
 10
132.243319
 20
76.235285
 30
0.0
 10
133.326223
 20
75.610071
 30
0.0
  0
SPLINE
  5
134
100
AcDbEntity
  8
Layer_1
 62
1
100
AcDbSpline
 70
8
 71
3
 72
8
 73
4
 74
0
 40
0
 40
0
 40
0
 40
0
 40
1
 40
1
 40
1
 40
1
 10
133.326223
 20
75.610071
 30
0.0
 10
134.409127
 20
74.984856
 30
0.0
 10
135.076223
 20
73.829411
 30
0.0
 10
135.076223
 20
72.578982
 30
0.0
  0
LWPOLYLINE
  5
135
100
AcDbEntity
  8
Layer_1
 62
3
100
AcDbPolyline
 90
1
 70
1
 10
138.826223
 20
72.578982
 30
0.0
  0
LWPOLYLINE
  5
136
100
AcDbEntity
  8
Layer_1
 62
1
100
AcDbPolyline
 90
1
 70
1
 10
135.076223
 20
72.578982
 30
0.0
  0
SPLINE
  5
137
100
AcDbEntity
  8
Layer_1
 62
1
100
AcDbSpline
 70
8
 71
3
 72
8
 73
4
 74
0
 40
0
 40
0
 40
0
 40
0
 40
1
 40
1
 40
1
 40
1
 10
104.542542
 20
27.710851
 30
0.0
 10
104.542542
 20
27.317861
 30
0.0
 10
104.332862
 20
26.954711
 30
0.0
 10
103.992522
 20
26.758221
 30
0.0
  0
SPLINE
  5
138
100
AcDbEntity
  8
Layer_1
 62
1
100
AcDbSpline
 70
8
 71
3
 72
8
 73
4
 74
0
 40
0
 40
0
 40
0
 40
0
 40
1
 40
1
 40
1
 40
1
 10
103.992522
 20
26.758221
 30
0.0
 10
103.652192
 20
26.561721
 30
0.0
 10
103.232872
 20
26.561721
 30
0.0
 10
102.892532
 20
26.758221
 30
0.0
  0
SPLINE
  5
139
100
AcDbEntity
  8
Layer_1
 62
1
100
AcDbSpline
 70
8
 71
3
 72
8
 73
4
 74
0
 40
0
 40
0
 40
0
 40
0
 40
1
 40
1
 40
1
 40
1
 10
102.892532
 20
26.758221
 30
0.0
 10
102.552192
 20
26.954711
 30
0.0
 10
102.342532
 20
27.317861
 30
0.0
 10
102.342532
 20
27.710851
 30
0.0
  0
SPLINE
  5
13a
100
AcDbEntity
  8
Layer_1
 62
1
100
AcDbSpline
 70
8
 71
3
 72
8
 73
4
 74
0
 40
0
 40
0
 40
0
 40
0
 40
1
 40
1
 40
1
 40
1
 10
102.342532
 20
27.710851
 30
0.0
 10
102.342532
 20
28.103841
 30
0.0
 10
102.552192
 20
28.466981
 30
0.0
 10
102.892532
 20
28.663471
 30
0.0
  0
SPLINE
  5
13b
100
AcDbEntity
  8
Layer_1
 62
1
100
AcDbSpline
 70
8
 71
3
 72
8
 73
4
 74
0
 40
0
 40
0
 40
0
 40
0
 40
1
 40
1
 40
1
 40
1
 10
102.892532
 20
28.663471
 30
0.0
 10
103.232872
 20
28.859971
 30
0.0
 10
103.652192
 20
28.859971
 30
0.0
 10
103.992522
 20
28.663471
 30
0.0
  0
SPLINE
  5
13c
100
AcDbEntity
  8
Layer_1
 62
1
100
AcDbSpline
 70
8
 71
3
 72
8
 73
4
 74
0
 40
0
 40
0
 40
0
 40
0
 40
1
 40
1
 40
1
 40
1
 10
103.992522
 20
28.663471
 30
0.0
 10
104.332862
 20
28.466981
 30
0.0
 10
104.542542
 20
28.103841
 30
0.0
 10
104.542542
 20
27.710851
 30
0.0
  0
LWPOLYLINE
  5
13d
100
AcDbEntity
  8
Layer_1
 62
7
100
AcDbPolyline
 90
4
 70
1
 10
130.576253
 20
67.845522
 30
0.0
 10
132.576253
 20
67.845522
 30
0.0
 10
132.576253
 20
63.071825
 30
0.0
 10
130.576253
 20
63.071825
 30
0.0
  0
SPLINE
  5
13e
100
AcDbEntity
  8
Layer_1
 62
1
100
AcDbSpline
 70
8
 71
3
 72
8
 73
4
 74
0
 40
0
 40
0
 40
0
 40
0
 40
1
 40
1
 40
1
 40
1
 10
104.542542
 20
7.465500
 30
0.0
 10
104.542542
 20
7.072510
 30
0.0
 10
104.332862
 20
6.709360
 30
0.0
 10
103.992522
 20
6.512870
 30
0.0
  0
SPLINE
  5
13f
100
AcDbEntity
  8
Layer_1
 62
1
100
AcDbSpline
 70
8
 71
3
 72
8
 73
4
 74
0
 40
0
 40
0
 40
0
 40
0
 40
1
 40
1
 40
1
 40
1
 10
103.992522
 20
6.512870
 30
0.0
 10
103.652192
 20
6.316370
 30
0.0
 10
103.232872
 20
6.316370
 30
0.0
 10
102.892532
 20
6.512870
 30
0.0
  0
SPLINE
  5
140
100
AcDbEntity
  8
Layer_1
 62
1
100
AcDbSpline
 70
8
 71
3
 72
8
 73
4
 74
0
 40
0
 40
0
 40
0
 40
0
 40
1
 40
1
 40
1
 40
1
 10
102.892532
 20
6.512870
 30
0.0
 10
102.552192
 20
6.709360
 30
0.0
 10
102.342532
 20
7.072510
 30
0.0
 10
102.342532
 20
7.465500
 30
0.0
  0
SPLINE
  5
141
100
AcDbEntity
  8
Layer_1
 62
1
100
AcDbSpline
 70
8
 71
3
 72
8
 73
4
 74
0
 40
0
 40
0
 40
0
 40
0
 40
1
 40
1
 40
1
 40
1
 10
102.342532
 20
7.465500
 30
0.0
 10
102.342532
 20
7.858490
 30
0.0
 10
102.552192
 20
8.221630
 30
0.0
 10
102.892532
 20
8.418130
 30
0.0
  0
SPLINE
  5
142
100
AcDbEntity
  8
Layer_1
 62
1
100
AcDbSpline
 70
8
 71
3
 72
8
 73
4
 74
0
 40
0
 40
0
 40
0
 40
0
 40
1
 40
1
 40
1
 40
1
 10
102.892532
 20
8.418130
 30
0.0
 10
103.232872
 20
8.614620
 30
0.0
 10
103.652192
 20
8.614620
 30
0.0
 10
103.992522
 20
8.418130
 30
0.0
  0
SPLINE
  5
143
100
AcDbEntity
  8
Layer_1
 62
1
100
AcDbSpline
 70
8
 71
3
 72
8
 73
4
 74
0
 40
0
 40
0
 40
0
 40
0
 40
1
 40
1
 40
1
 40
1
 10
103.992522
 20
8.418130
 30
0.0
 10
104.332862
 20
8.221630
 30
0.0
 10
104.542542
 20
7.858490
 30
0.0
 10
104.542542
 20
7.465500
 30
0.0
  0
LWPOLYLINE
  5
144
100
AcDbEntity
  8
Layer_1
 62
1
100
AcDbPolyline
 90
1
 70
1
 10
104.542542
 20
27.710851
 30
0.0
  0
SPLINE
  5
145
100
AcDbEntity
  8
Layer_1
 62
1
100
AcDbSpline
 70
8
 71
3
 72
8
 73
4
 74
0
 40
0
 40
0
 40
0
 40
0
 40
1
 40
1
 40
1
 40
1
 10
131.260723
 20
7.465500
 30
0.0
 10
131.260723
 20
7.072510
 30
0.0
 10
131.051063
 20
6.709360
 30
0.0
 10
130.710733
 20
6.512870
 30
0.0
  0
SPLINE
  5
146
100
AcDbEntity
  8
Layer_1
 62
1
100
AcDbSpline
 70
8
 71
3
 72
8
 73
4
 74
0
 40
0
 40
0
 40
0
 40
0
 40
1
 40
1
 40
1
 40
1
 10
130.710733
 20
6.512870
 30
0.0
 10
130.370393
 20
6.316370
 30
0.0
 10
129.951063
 20
6.316370
 30
0.0
 10
129.610723
 20
6.512870
 30
0.0
  0
SPLINE
  5
147
100
AcDbEntity
  8
Layer_1
 62
1
100
AcDbSpline
 70
8
 71
3
 72
8
 73
4
 74
0
 40
0
 40
0
 40
0
 40
0
 40
1
 40
1
 40
1
 40
1
 10
129.610723
 20
6.512870
 30
0.0
 10
129.270393
 20
6.709360
 30
0.0
 10
129.060733
 20
7.072510
 30
0.0
 10
129.060733
 20
7.465500
 30
0.0
  0
SPLINE
  5
148
100
AcDbEntity
  8
Layer_1
 62
1
100
AcDbSpline
 70
8
 71
3
 72
8
 73
4
 74
0
 40
0
 40
0
 40
0
 40
0
 40
1
 40
1
 40
1
 40
1
 10
129.060733
 20
7.465500
 30
0.0
 10
129.060733
 20
7.858490
 30
0.0
 10
129.270393
 20
8.221630
 30
0.0
 10
129.610723
 20
8.418130
 30
0.0
  0
SPLINE
  5
149
100
AcDbEntity
  8
Layer_1
 62
1
100
AcDbSpline
 70
8
 71
3
 72
8
 73
4
 74
0
 40
0
 40
0
 40
0
 40
0
 40
1
 40
1
 40
1
 40
1
 10
129.610723
 20
8.418130
 30
0.0
 10
129.951063
 20
8.614620
 30
0.0
 10
130.370393
 20
8.614620
 30
0.0
 10
130.710733
 20
8.418130
 30
0.0
  0
SPLINE
  5
14a
100
AcDbEntity
  8
Layer_1
 62
1
100
AcDbSpline
 70
8
 71
3
 72
8
 73
4
 74
0
 40
0
 40
0
 40
0
 40
0
 40
1
 40
1
 40
1
 40
1
 10
130.710733
 20
8.418130
 30
0.0
 10
131.051063
 20
8.221630
 30
0.0
 10
131.260723
 20
7.858490
 30
0.0
 10
131.260723
 20
7.465500
 30
0.0
  0
LWPOLYLINE
  5
14b
100
AcDbEntity
  8
Layer_1
 62
1
100
AcDbPolyline
 90
1
 70
1
 10
104.542542
 20
7.465500
 30
0.0
  0
SPLINE
  5
14c
100
AcDbEntity
  8
Layer_1
 62
1
100
AcDbSpline
 70
8
 71
3
 72
8
 73
4
 74
0
 40
0
 40
0
 40
0
 40
0
 40
1
 40
1
 40
1
 40
1
 10
131.260723
 20
27.734471
 30
0.0
 10
131.260723
 20
27.341471
 30
0.0
 10
131.051063
 20
26.978331
 30
0.0
 10
130.710733
 20
26.781841
 30
0.0
  0
SPLINE
  5
14d
100
AcDbEntity
  8
Layer_1
 62
1
100
AcDbSpline
 70
8
 71
3
 72
8
 73
4
 74
0
 40
0
 40
0
 40
0
 40
0
 40
1
 40
1
 40
1
 40
1
 10
130.710733
 20
26.781841
 30
0.0
 10
130.370393
 20
26.585341
 30
0.0
 10
129.951063
 20
26.585341
 30
0.0
 10
129.610723
 20
26.781841
 30
0.0
  0
SPLINE
  5
14e
100
AcDbEntity
  8
Layer_1
 62
1
100
AcDbSpline
 70
8
 71
3
 72
8
 73
4
 74
0
 40
0
 40
0
 40
0
 40
0
 40
1
 40
1
 40
1
 40
1
 10
129.610723
 20
26.781841
 30
0.0
 10
129.270393
 20
26.978331
 30
0.0
 10
129.060733
 20
27.341471
 30
0.0
 10
129.060733
 20
27.734471
 30
0.0
  0
SPLINE
  5
14f
100
AcDbEntity
  8
Layer_1
 62
1
100
AcDbSpline
 70
8
 71
3
 72
8
 73
4
 74
0
 40
0
 40
0
 40
0
 40
0
 40
1
 40
1
 40
1
 40
1
 10
129.060733
 20
27.734471
 30
0.0
 10
129.060733
 20
28.127461
 30
0.0
 10
129.270393
 20
28.490601
 30
0.0
 10
129.610723
 20
28.687101
 30
0.0
  0
SPLINE
  5
150
100
AcDbEntity
  8
Layer_1
 62
1
100
AcDbSpline
 70
8
 71
3
 72
8
 73
4
 74
0
 40
0
 40
0
 40
0
 40
0
 40
1
 40
1
 40
1
 40
1
 10
129.610723
 20
28.687101
 30
0.0
 10
129.951063
 20
28.883591
 30
0.0
 10
130.370393
 20
28.883591
 30
0.0
 10
130.710733
 20
28.687101
 30
0.0
  0
SPLINE
  5
151
100
AcDbEntity
  8
Layer_1
 62
1
100
AcDbSpline
 70
8
 71
3
 72
8
 73
4
 74
0
 40
0
 40
0
 40
0
 40
0
 40
1
 40
1
 40
1
 40
1
 10
130.710733
 20
28.687101
 30
0.0
 10
131.051063
 20
28.490601
 30
0.0
 10
131.260723
 20
28.127461
 30
0.0
 10
131.260723
 20
27.734471
 30
0.0
  0
LWPOLYLINE
  5
152
100
AcDbEntity
  8
Layer_1
 62
1
100
AcDbPolyline
 90
1
 70
1
 10
131.260723
 20
7.465500
 30
0.0
  0
SPLINE
  5
153
100
AcDbEntity
  8
Layer_1
 62
1
100
AcDbSpline
 70
8
 71
3
 72
8
 73
4
 74
0
 40
0
 40
0
 40
0
 40
0
 40
1
 40
1
 40
1
 40
1
 10
126.167653
 20
17.694480
 30
0.0
 10
126.167653
 20
13.675240
 30
0.0
 10
124.023413
 20
9.961310
 30
0.0
 10
120.542662
 20
7.951690
 30
0.0
  0
SPLINE
  5
154
100
AcDbEntity
  8
Layer_1
 62
1
100
AcDbSpline
 70
8
 71
3
 72
8
 73
4
 74
0
 40
0
 40
0
 40
0
 40
0
 40
1
 40
1
 40
1
 40
1
 10
120.542662
 20
7.951690
 30
0.0
 10
117.061912
 20
5.942070
 30
0.0
 10
112.773412
 20
5.942070
 30
0.0
 10
109.292662
 20
7.951690
 30
0.0
  0
SPLINE
  5
155
100
AcDbEntity
  8
Layer_1
 62
1
100
AcDbSpline
 70
8
 71
3
 72
8
 73
4
 74
0
 40
0
 40
0
 40
0
 40
0
 40
1
 40
1
 40
1
 40
1
 10
109.292662
 20
7.951690
 30
0.0
 10
105.811902
 20
9.961310
 30
0.0
 10
103.667672
 20
13.675240
 30
0.0
 10
103.667672
 20
17.694480
 30
0.0
  0
SPLINE
  5
156
100
AcDbEntity
  8
Layer_1
 62
1
100
AcDbSpline
 70
8
 71
3
 72
8
 73
4
 74
0
 40
0
 40
0
 40
0
 40
0
 40
1
 40
1
 40
1
 40
1
 10
103.667672
 20
17.694480
 30
0.0
 10
103.667672
 20
21.713720
 30
0.0
 10
105.811902
 20
25.427651
 30
0.0
 10
109.292662
 20
27.437261
 30
0.0
  0
SPLINE
  5
157
100
AcDbEntity
  8
Layer_1
 62
1
100
AcDbSpline
 70
8
 71
3
 72
8
 73
4
 74
0
 40
0
 40
0
 40
0
 40
0
 40
1
 40
1
 40
1
 40
1
 10
109.292662
 20
27.437261
 30
0.0
 10
112.773412
 20
29.446881
 30
0.0
 10
117.061912
 20
29.446881
 30
0.0
 10
120.542662
 20
27.437261
 30
0.0
  0
SPLINE
  5
158
100
AcDbEntity
  8
Layer_1
 62
1
100
AcDbSpline
 70
8
 71
3
 72
8
 73
4
 74
0
 40
0
 40
0
 40
0
 40
0
 40
1
 40
1
 40
1
 40
1
 10
120.542662
 20
27.437261
 30
0.0
 10
124.023413
 20
25.427651
 30
0.0
 10
126.167653
 20
21.713720
 30
0.0
 10
126.167653
 20
17.694480
 30
0.0
  0
LWPOLYLINE
  5
159
100
AcDbEntity
  8
Layer_1
 62
1
100
AcDbPolyline
 90
1
 70
1
 10
131.260723
 20
27.734471
 30
0.0
  0
LWPOLYLINE
  5
15a
100
AcDbEntity
  8
Layer_1
 62
1
100
AcDbPolyline
 90
1
 70
1
 10
126.167653
 20
17.694480
 30
0.0
  0
LWPOLYLINE
  5
15b
100
AcDbEntity
  8
Layer_1
 62
3
100
AcDbPolyline
 90
4
 70
1
 10
101.738602
 20
5.867290
 30
0.0
 10
101.738602
 20
29.675587
 30
0.0
 10
132.100875
 20
29.675587
 30
0.0
 10
132.100875
 20
5.867290
 30
0.0
  0
LWPOLYLINE
  5
15c
100
AcDbEntity
  8
Layer_1
 62
6
100
AcDbPolyline
 90
4
 70
1
 10
100.926629
 20
4.954970
 30
0.0
 10
100.926629
 20
30.354973
 30
0.0
 10
132.676630
 20
30.354973
 30
0.0
 10
132.676630
 20
4.954970
 30
0.0
  0
LWPOLYLINE
  5
15d
100
AcDbEntity
  8
Layer_1
 62
3
100
AcDbPolyline
 90
4
 70
1
 10
201.166134
 20
78.579082
 30
0.0
 10
201.166134
 20
65.932731
 30
0.0
 10
136.238940
 20
65.932731
 30
0.0
 10
136.238940
 20
78.579082
 30
0.0
  0
SPLINE
  5
15e
100
AcDbEntity
  8
Layer_1
 62
1
100
AcDbSpline
 70
8
 71
3
 72
8
 73
4
 74
0
 40
0
 40
0
 40
0
 40
0
 40
1
 40
1
 40
1
 40
1
 10
105.317339
 20
72.250062
 30
0.0
 10
105.317339
 20
72.643054
 30
0.0
 10
105.107680
 20
73.006194
 30
0.0
 10
104.767339
 20
73.202690
 30
0.0
  0
SPLINE
  5
15f
100
AcDbEntity
  8
Layer_1
 62
1
100
AcDbSpline
 70
8
 71
3
 72
8
 73
4
 74
0
 40
0
 40
0
 40
0
 40
0
 40
1
 40
1
 40
1
 40
1
 10
104.767339
 20
73.202690
 30
0.0
 10
104.426998
 20
73.399186
 30
0.0
 10
104.007680
 20
73.399186
 30
0.0
 10
103.667339
 20
73.202690
 30
0.0
  0
SPLINE
  5
160
100
AcDbEntity
  8
Layer_1
 62
1
100
AcDbSpline
 70
8
 71
3
 72
8
 73
4
 74
0
 40
0
 40
0
 40
0
 40
0
 40
1
 40
1
 40
1
 40
1
 10
103.667339
 20
73.202690
 30
0.0
 10
103.326998
 20
73.006194
 30
0.0
 10
103.117339
 20
72.643054
 30
0.0
 10
103.117339
 20
72.250062
 30
0.0
  0
SPLINE
  5
161
100
AcDbEntity
  8
Layer_1
 62
1
100
AcDbSpline
 70
8
 71
3
 72
8
 73
4
 74
0
 40
0
 40
0
 40
0
 40
0
 40
1
 40
1
 40
1
 40
1
 10
103.117339
 20
72.250062
 30
0.0
 10
103.117339
 20
71.857069
 30
0.0
 10
103.326998
 20
71.493930
 30
0.0
 10
103.667339
 20
71.297434
 30
0.0
  0
SPLINE
  5
162
100
AcDbEntity
  8
Layer_1
 62
1
100
AcDbSpline
 70
8
 71
3
 72
8
 73
4
 74
0
 40
0
 40
0
 40
0
 40
0
 40
1
 40
1
 40
1
 40
1
 10
103.667339
 20
71.297434
 30
0.0
 10
104.007680
 20
71.100937
 30
0.0
 10
104.426998
 20
71.100937
 30
0.0
 10
104.767339
 20
71.297434
 30
0.0
  0
SPLINE
  5
163
100
AcDbEntity
  8
Layer_1
 62
1
100
AcDbSpline
 70
8
 71
3
 72
8
 73
4
 74
0
 40
0
 40
0
 40
0
 40
0
 40
1
 40
1
 40
1
 40
1
 10
104.767339
 20
71.297434
 30
0.0
 10
105.107680
 20
71.493930
 30
0.0
 10
105.317339
 20
71.857069
 30
0.0
 10
105.317339
 20
72.250062
 30
0.0
  0
LWPOLYLINE
  5
164
100
AcDbEntity
  8
Layer_1
 62
6
100
AcDbPolyline
 90
4
 70
1
 10
202.022124
 20
78.600062
 30
0.0
 10
202.022124
 20
65.900061
 30
0.0
 10
101.692122
 20
65.900061
 30
0.0
 10
101.692122
 20
78.600062
 30
0.0
  0
SPLINE
  5
165
100
AcDbEntity
  8
Layer_1
 62
1
100
AcDbSpline
 70
8
 71
3
 72
8
 73
4
 74
0
 40
0
 40
0
 40
0
 40
0
 40
1
 40
1
 40
1
 40
1
 10
200.567344
 20
72.250062
 30
0.0
 10
200.567344
 20
72.643054
 30
0.0
 10
200.357686
 20
73.006194
 30
0.0
 10
200.017344
 20
73.202690
 30
0.0
  0
SPLINE
  5
166
100
AcDbEntity
  8
Layer_1
 62
1
100
AcDbSpline
 70
8
 71
3
 72
8
 73
4
 74
0
 40
0
 40
0
 40
0
 40
0
 40
1
 40
1
 40
1
 40
1
 10
200.017344
 20
73.202690
 30
0.0
 10
199.677003
 20
73.399186
 30
0.0
 10
199.257685
 20
73.399186
 30
0.0
 10
198.917344
 20
73.202690
 30
0.0
  0
SPLINE
  5
167
100
AcDbEntity
  8
Layer_1
 62
1
100
AcDbSpline
 70
8
 71
3
 72
8
 73
4
 74
0
 40
0
 40
0
 40
0
 40
0
 40
1
 40
1
 40
1
 40
1
 10
198.917344
 20
73.202690
 30
0.0
 10
198.577003
 20
73.006194
 30
0.0
 10
198.367344
 20
72.643054
 30
0.0
 10
198.367344
 20
72.250062
 30
0.0
  0
SPLINE
  5
168
100
AcDbEntity
  8
Layer_1
 62
1
100
AcDbSpline
 70
8
 71
3
 72
8
 73
4
 74
0
 40
0
 40
0
 40
0
 40
0
 40
1
 40
1
 40
1
 40
1
 10
198.367344
 20
72.250062
 30
0.0
 10
198.367344
 20
71.642548
 30
0.0
 10
198.859831
 20
71.150062
 30
0.0
 10
199.467344
 20
71.150062
 30
0.0
  0
SPLINE
  5
169
100
AcDbEntity
  8
Layer_1
 62
1
100
AcDbSpline
 70
8
 71
3
 72
8
 73
4
 74
0
 40
0
 40
0
 40
0
 40
0
 40
1
 40
1
 40
1
 40
1
 10
199.467344
 20
71.150062
 30
0.0
 10
200.074857
 20
71.150062
 30
0.0
 10
200.567344
 20
71.642548
 30
0.0
 10
200.567344
 20
72.250062
 30
0.0
  0
LWPOLYLINE
  5
16a
100
AcDbEntity
  8
Layer_1
 62
1
100
AcDbPolyline
 90
1
 70
1
 10
105.317339
 20
72.250062
 30
0.0
  0
LWPOLYLINE
  5
16b
100
AcDbEntity
  8
Layer_1
 62
1
100
AcDbPolyline
 90
1
 70
1
 10
200.567344
 20
72.250062
 30
0.0
  0
SPLINE
  5
16c
100
AcDbEntity
  8
Layer_1
 62
3
100
AcDbSpline
 70
8
 71
3
 72
8
 73
4
 74
0
 40
0
 40
0
 40
0
 40
0
 40
1
 40
1
 40
1
 40
1
 10
104.217354
 20
70.250062
 30
0.0
 10
103.502823
 20
70.250062
 30
0.0
 10
102.842569
 20
70.631259
 30
0.0
 10
102.485303
 20
71.250062
 30
0.0
  0
SPLINE
  5
16d
100
AcDbEntity
  8
Layer_1
 62
3
100
AcDbSpline
 70
8
 71
3
 72
8
 73
4
 74
0
 40
0
 40
0
 40
0
 40
0
 40
1
 40
1
 40
1
 40
1
 10
102.485303
 20
71.250062
 30
0.0
 10
102.128038
 20
71.868864
 30
0.0
 10
102.128038
 20
72.631259
 30
0.0
 10
102.485303
 20
73.250062
 30
0.0
  0
SPLINE
  5
16e
100
AcDbEntity
  8
Layer_1
 62
3
100
AcDbSpline
 70
8
 71
3
 72
8
 73
4
 74
0
 40
0
 40
0
 40
0
 40
0
 40
1
 40
1
 40
1
 40
1
 10
102.485303
 20
73.250062
 30
0.0
 10
102.842569
 20
73.868864
 30
0.0
 10
103.502823
 20
74.250062
 30
0.0
 10
104.217354
 20
74.250062
 30
0.0
  0
SPLINE
  5
16f
100
AcDbEntity
  8
Layer_1
 62
3
100
AcDbSpline
 70
8
 71
3
 72
8
 73
4
 74
0
 40
0
 40
0
 40
0
 40
0
 40
1
 40
1
 40
1
 40
1
 10
104.217354
 20
74.250062
 30
0.0
 10
104.931885
 20
74.250062
 30
0.0
 10
105.592139
 20
73.868864
 30
0.0
 10
105.949405
 20
73.250062
 30
0.0
  0
SPLINE
  5
170
100
AcDbEntity
  8
Layer_1
 62
3
100
AcDbSpline
 70
8
 71
3
 72
8
 73
4
 74
0
 40
0
 40
0
 40
0
 40
0
 40
1
 40
1
 40
1
 40
1
 10
105.949405
 20
73.250062
 30
0.0
 10
106.306671
 20
72.631259
 30
0.0
 10
106.306671
 20
71.868864
 30
0.0
 10
105.949405
 20
71.250062
 30
0.0
  0
SPLINE
  5
171
100
AcDbEntity
  8
Layer_1
 62
3
100
AcDbSpline
 70
8
 71
3
 72
8
 73
4
 74
0
 40
0
 40
0
 40
0
 40
0
 40
1
 40
1
 40
1
 40
1
 10
105.949405
 20
71.250062
 30
0.0
 10
105.592139
 20
70.631259
 30
0.0
 10
104.931885
 20
70.250062
 30
0.0
 10
104.217354
 20
70.250062
 30
0.0
  0
LWPOLYLINE
  5
172
100
AcDbEntity
  8
Layer_1
 62
1
100
AcDbPolyline
 90
4
 70
1
 10
197.452934
 20
77.457042
 30
0.0
 10
197.452934
 20
67.043040
 30
0.0
 10
136.238932
 20
67.043040
 30
0.0
 10
136.238932
 20
77.457042
 30
0.0
  0
SPLINE
  5
173
100
AcDbEntity
  8
Layer_1
 62
1
100
AcDbSpline
 70
8
 71
3
 72
8
 73
4
 74
0
 40
0
 40
0
 40
0
 40
0
 40
1
 40
1
 40
1
 40
1
 10
73.697654
 20
69.104372
 30
0.0
 10
73.697654
 20
68.032575
 30
0.0
 10
73.125858
 20
67.042194
 30
0.0
 10
72.197654
 20
66.506295
 30
0.0
  0
SPLINE
  5
174
100
AcDbEntity
  8
Layer_1
 62
1
100
AcDbSpline
 70
8
 71
3
 72
8
 73
4
 74
0
 40
0
 40
0
 40
0
 40
0
 40
1
 40
1
 40
1
 40
1
 10
72.197654
 20
66.506295
 30
0.0
 10
71.269451
 20
65.970397
 30
0.0
 10
70.125858
 20
65.970397
 30
0.0
 10
69.197654
 20
66.506295
 30
0.0
  0
SPLINE
  5
175
100
AcDbEntity
  8
Layer_1
 62
1
100
AcDbSpline
 70
8
 71
3
 72
8
 73
4
 74
0
 40
0
 40
0
 40
0
 40
0
 40
1
 40
1
 40
1
 40
1
 10
69.197654
 20
66.506295
 30
0.0
 10
68.269451
 20
67.042194
 30
0.0
 10
67.697654
 20
68.032575
 30
0.0
 10
67.697654
 20
69.104372
 30
0.0
  0
SPLINE
  5
176
100
AcDbEntity
  8
Layer_1
 62
1
100
AcDbSpline
 70
8
 71
3
 72
8
 73
4
 74
0
 40
0
 40
0
 40
0
 40
0
 40
1
 40
1
 40
1
 40
1
 10
67.697654
 20
69.104372
 30
0.0
 10
67.697654
 20
70.176168
 30
0.0
 10
68.269451
 20
71.166549
 30
0.0
 10
69.197654
 20
71.702448
 30
0.0
  0
SPLINE
  5
177
100
AcDbEntity
  8
Layer_1
 62
1
100
AcDbSpline
 70
8
 71
3
 72
8
 73
4
 74
0
 40
0
 40
0
 40
0
 40
0
 40
1
 40
1
 40
1
 40
1
 10
69.197654
 20
71.702448
 30
0.0
 10
70.125858
 20
72.238346
 30
0.0
 10
71.269451
 20
72.238346
 30
0.0
 10
72.197654
 20
71.702448
 30
0.0
  0
SPLINE
  5
178
100
AcDbEntity
  8
Layer_1
 62
1
100
AcDbSpline
 70
8
 71
3
 72
8
 73
4
 74
0
 40
0
 40
0
 40
0
 40
0
 40
1
 40
1
 40
1
 40
1
 10
72.197654
 20
71.702448
 30
0.0
 10
73.125858
 20
71.166549
 30
0.0
 10
73.697654
 20
70.176168
 30
0.0
 10
73.697654
 20
69.104372
 30
0.0
  0
LWPOLYLINE
  5
179
100
AcDbEntity
  8
Layer_1
 62
3
100
AcDbPolyline
 90
1
 70
1
 10
104.217354
 20
70.250062
 30
0.0
  0
SPLINE
  5
17a
100
AcDbEntity
  8
Layer_1
 62
3
100
AcDbSpline
 70
8
 71
3
 72
8
 73
4
 74
0
 40
0
 40
0
 40
0
 40
0
 40
1
 40
1
 40
1
 40
1
 10
75.197655
 20
69.104372
 30
0.0
 10
75.197655
 20
67.496676
 30
0.0
 10
74.339960
 20
66.011104
 30
0.0
 10
72.947655
 20
65.207257
 30
0.0
  0
SPLINE
  5
17b
100
AcDbEntity
  8
Layer_1
 62
3
100
AcDbSpline
 70
8
 71
3
 72
8
 73
4
 74
0
 40
0
 40
0
 40
0
 40
0
 40
1
 40
1
 40
1
 40
1
 10
72.947655
 20
65.207257
 30
0.0
 10
71.555350
 20
64.403409
 30
0.0
 10
69.839959
 20
64.403409
 30
0.0
 10
68.447654
 20
65.207257
 30
0.0
  0
SPLINE
  5
17c
100
AcDbEntity
  8
Layer_1
 62
3
100
AcDbSpline
 70
8
 71
3
 72
8
 73
4
 74
0
 40
0
 40
0
 40
0
 40
0
 40
1
 40
1
 40
1
 40
1
 10
68.447654
 20
65.207257
 30
0.0
 10
67.055349
 20
66.011104
 30
0.0
 10
66.197654
 20
67.496676
 30
0.0
 10
66.197654
 20
69.104372
 30
0.0
  0
SPLINE
  5
17d
100
AcDbEntity
  8
Layer_1
 62
3
100
AcDbSpline
 70
8
 71
3
 72
8
 73
4
 74
0
 40
0
 40
0
 40
0
 40
0
 40
1
 40
1
 40
1
 40
1
 10
66.197654
 20
69.104372
 30
0.0
 10
66.197654
 20
70.712067
 30
0.0
 10
67.055349
 20
72.197639
 30
0.0
 10
68.447654
 20
73.001486
 30
0.0
  0
SPLINE
  5
17e
100
AcDbEntity
  8
Layer_1
 62
3
100
AcDbSpline
 70
8
 71
3
 72
8
 73
4
 74
0
 40
0
 40
0
 40
0
 40
0
 40
1
 40
1
 40
1
 40
1
 10
68.447654
 20
73.001486
 30
0.0
 10
69.839959
 20
73.805334
 30
0.0
 10
71.555350
 20
73.805334
 30
0.0
 10
72.947655
 20
73.001486
 30
0.0
  0
SPLINE
  5
17f
100
AcDbEntity
  8
Layer_1
 62
3
100
AcDbSpline
 70
8
 71
3
 72
8
 73
4
 74
0
 40
0
 40
0
 40
0
 40
0
 40
1
 40
1
 40
1
 40
1
 10
72.947655
 20
73.001486
 30
0.0
 10
74.339960
 20
72.197639
 30
0.0
 10
75.197655
 20
70.712067
 30
0.0
 10
75.197655
 20
69.104372
 30
0.0
  0
LWPOLYLINE
  5
180
100
AcDbEntity
  8
Layer_1
 62
1
100
AcDbPolyline
 90
1
 70
1
 10
73.697654
 20
69.104372
 30
0.0
  0
SPLINE
  5
181
100
AcDbEntity
  8
Layer_1
 62
1
100
AcDbSpline
 70
8
 71
3
 72
8
 73
4
 74
0
 40
0
 40
0
 40
0
 40
0
 40
1
 40
1
 40
1
 40
1
 10
77.898737
 20
79.510192
 30
0.0
 10
77.898737
 20
78.081129
 30
0.0
 10
77.136341
 20
76.760621
 30
0.0
 10
75.898736
 20
76.046090
 30
0.0
  0
SPLINE
  5
182
100
AcDbEntity
  8
Layer_1
 62
1
100
AcDbSpline
 70
8
 71
3
 72
8
 73
4
 74
0
 40
0
 40
0
 40
0
 40
0
 40
1
 40
1
 40
1
 40
1
 10
75.898736
 20
76.046090
 30
0.0
 10
74.661132
 20
75.331559
 30
0.0
 10
73.136341
 20
75.331559
 30
0.0
 10
71.898736
 20
76.046090
 30
0.0
  0
SPLINE
  5
183
100
AcDbEntity
  8
Layer_1
 62
1
100
AcDbSpline
 70
8
 71
3
 72
8
 73
4
 74
0
 40
0
 40
0
 40
0
 40
0
 40
1
 40
1
 40
1
 40
1
 10
71.898736
 20
76.046090
 30
0.0
 10
70.661132
 20
76.760621
 30
0.0
 10
69.898736
 20
78.081129
 30
0.0
 10
69.898736
 20
79.510192
 30
0.0
  0
SPLINE
  5
184
100
AcDbEntity
  8
Layer_1
 62
1
100
AcDbSpline
 70
8
 71
3
 72
8
 73
4
 74
0
 40
0
 40
0
 40
0
 40
0
 40
1
 40
1
 40
1
 40
1
 10
69.898736
 20
79.510192
 30
0.0
 10
69.898736
 20
80.939254
 30
0.0
 10
70.661132
 20
82.259762
 30
0.0
 10
71.898736
 20
82.974293
 30
0.0
  0
SPLINE
  5
185
100
AcDbEntity
  8
Layer_1
 62
1
100
AcDbSpline
 70
8
 71
3
 72
8
 73
4
 74
0
 40
0
 40
0
 40
0
 40
0
 40
1
 40
1
 40
1
 40
1
 10
71.898736
 20
82.974293
 30
0.0
 10
73.136341
 20
83.688825
 30
0.0
 10
74.661132
 20
83.688825
 30
0.0
 10
75.898736
 20
82.974293
 30
0.0
  0
SPLINE
  5
186
100
AcDbEntity
  8
Layer_1
 62
1
100
AcDbSpline
 70
8
 71
3
 72
8
 73
4
 74
0
 40
0
 40
0
 40
0
 40
0
 40
1
 40
1
 40
1
 40
1
 10
75.898736
 20
82.974293
 30
0.0
 10
77.136341
 20
82.259762
 30
0.0
 10
77.898737
 20
80.939254
 30
0.0
 10
77.898737
 20
79.510192
 30
0.0
  0
LWPOLYLINE
  5
187
100
AcDbEntity
  8
Layer_1
 62
3
100
AcDbPolyline
 90
1
 70
1
 10
75.197655
 20
69.104372
 30
0.0
  0
SPLINE
  5
188
100
AcDbEntity
  8
Layer_1
 62
3
100
AcDbSpline
 70
8
 71
3
 72
8
 73
4
 74
0
 40
0
 40
0
 40
0
 40
0
 40
1
 40
1
 40
1
 40
1
 10
79.898737
 20
79.510192
 30
0.0
 10
79.898737
 20
77.366598
 30
0.0
 10
78.755143
 20
75.385836
 30
0.0
 10
76.898737
 20
74.314039
 30
0.0
  0
SPLINE
  5
189
100
AcDbEntity
  8
Layer_1
 62
3
100
AcDbSpline
 70
8
 71
3
 72
8
 73
4
 74
0
 40
0
 40
0
 40
0
 40
0
 40
1
 40
1
 40
1
 40
1
 10
76.898737
 20
74.314039
 30
0.0
 10
75.042330
 20
73.242242
 30
0.0
 10
72.755143
 20
73.242242
 30
0.0
 10
70.898736
 20
74.314039
 30
0.0
  0
SPLINE
  5
18a
100
AcDbEntity
  8
Layer_1
 62
3
100
AcDbSpline
 70
8
 71
3
 72
8
 73
4
 74
0
 40
0
 40
0
 40
0
 40
0
 40
1
 40
1
 40
1
 40
1
 10
70.898736
 20
74.314039
 30
0.0
 10
69.042330
 20
75.385836
 30
0.0
 10
67.898736
 20
77.366598
 30
0.0
 10
67.898736
 20
79.510192
 30
0.0
  0
SPLINE
  5
18b
100
AcDbEntity
  8
Layer_1
 62
3
100
AcDbSpline
 70
8
 71
3
 72
8
 73
4
 74
0
 40
0
 40
0
 40
0
 40
0
 40
1
 40
1
 40
1
 40
1
 10
67.898736
 20
79.510192
 30
0.0
 10
67.898736
 20
81.653785
 30
0.0
 10
69.042330
 20
83.634548
 30
0.0
 10
70.898736
 20
84.706344
 30
0.0
  0
SPLINE
  5
18c
100
AcDbEntity
  8
Layer_1
 62
3
100
AcDbSpline
 70
8
 71
3
 72
8
 73
4
 74
0
 40
0
 40
0
 40
0
 40
0
 40
1
 40
1
 40
1
 40
1
 10
70.898736
 20
84.706344
 30
0.0
 10
72.755143
 20
85.778141
 30
0.0
 10
75.042330
 20
85.778141
 30
0.0
 10
76.898737
 20
84.706344
 30
0.0
  0
SPLINE
  5
18d
100
AcDbEntity
  8
Layer_1
 62
3
100
AcDbSpline
 70
8
 71
3
 72
8
 73
4
 74
0
 40
0
 40
0
 40
0
 40
0
 40
1
 40
1
 40
1
 40
1
 10
76.898737
 20
84.706344
 30
0.0
 10
78.755143
 20
83.634548
 30
0.0
 10
79.898737
 20
81.653785
 30
0.0
 10
79.898737
 20
79.510192
 30
0.0
  0
LWPOLYLINE
  5
18e
100
AcDbEntity
  8
Layer_1
 62
1
100
AcDbPolyline
 90
1
 70
1
 10
77.898737
 20
79.510192
 30
0.0
  0
SPLINE
  5
18f
100
AcDbEntity
  8
Layer_1
 62
3
100
AcDbSpline
 70
8
 71
3
 72
8
 73
4
 74
0
 40
0
 40
0
 40
0
 40
0
 40
1
 40
1
 40
1
 40
1
 10
50.479894
 20
83.993142
 30
0.0
 10
46.475872
 20
83.993253
 30
0.0
 10
43.229864
 20
80.747474
 30
0.0
 10
43.229693
 20
76.743452
 30
0.0
  0
SPLINE
  5
190
100
AcDbEntity
  8
Layer_1
 62
3
100
AcDbSpline
 70
8
 71
3
 72
8
 73
4
 74
0
 40
0
 40
0
 40
0
 40
0
 40
1
 40
1
 40
1
 40
1
 10
43.229693
 20
76.743452
 30
0.0
 10
43.233182
 20
74.219181
 30
0.0
 10
44.549383
 20
71.878439
 30
0.0
 10
46.704414
 20
70.563982
 30
0.0
  0
LWPOLYLINE
  5
191
100
AcDbEntity
  8
Layer_1
 62
3
100
AcDbPolyline
 90
1
 70
1
 10
79.898737
 20
79.510192
 30
0.0
  0
SPLINE
  5
192
100
AcDbEntity
  8
Layer_1
 62
3
100
AcDbSpline
 70
8
 71
3
 72
8
 73
4
 74
0
 40
0
 40
0
 40
0
 40
0
 40
1
 40
1
 40
1
 40
1
 10
54.254864
 20
61.821371
 30
0.0
 10
54.254864
 20
61.821371
 30
0.0
 10
54.254864
 20
70.560882
 30
0.0
 10
54.254864
 20
70.560882
 30
0.0
  0
SPLINE
  5
193
100
AcDbEntity
  8
Layer_1
 62
3
100
AcDbSpline
 70
8
 71
3
 72
8
 73
4
 74
0
 40
0
 40
0
 40
0
 40
0
 40
1
 40
1
 40
1
 40
1
 10
54.254864
 20
70.560882
 30
0.0
 10
56.410835
 20
71.875915
 30
0.0
 10
57.727174
 20
74.218076
 30
0.0
 10
57.729584
 20
76.743452
 30
0.0
  0
SPLINE
  5
194
100
AcDbEntity
  8
Layer_1
 62
3
100
AcDbSpline
 70
8
 71
3
 72
8
 73
4
 74
0
 40
0
 40
0
 40
0
 40
0
 40
1
 40
1
 40
1
 40
1
 10
57.729584
 20
76.743452
 30
0.0
 10
57.729413
 20
80.747274
 30
0.0
 10
54.483716
 20
83.992971
 30
0.0
 10
50.479894
 20
83.993142
 30
0.0
  0
LWPOLYLINE
  5
195
100
AcDbEntity
  8
Layer_1
 62
3
100
AcDbPolyline
 90
3
 70
0
 10
46.704414
 20
70.563982
 30
0.0
 10
46.704414
 20
61.821371
 30
0.0
 10
54.254864
 20
61.821371
 30
0.0
  0
SPLINE
  5
196
100
AcDbEntity
  8
Layer_1
 62
6
100
AcDbSpline
 70
8
 71
3
 72
8
 73
4
 74
0
 40
0
 40
0
 40
0
 40
0
 40
1
 40
1
 40
1
 40
1
 10
66.979702
 20
76.743252
 30
0.0
 10
66.979702
 20
70.848369
 30
0.0
 10
63.834820
 20
65.401273
 30
0.0
 10
58.729702
 20
62.453832
 30
0.0
  0
SPLINE
  5
197
100
AcDbEntity
  8
Layer_1
 62
6
100
AcDbSpline
 70
8
 71
3
 72
8
 73
4
 74
0
 40
0
 40
0
 40
0
 40
0
 40
1
 40
1
 40
1
 40
1
 10
58.729702
 20
62.453832
 30
0.0
 10
53.624584
 20
59.506391
 30
0.0
 10
47.334820
 20
59.506391
 30
0.0
 10
42.229702
 20
62.453832
 30
0.0
  0
SPLINE
  5
198
100
AcDbEntity
  8
Layer_1
 62
6
100
AcDbSpline
 70
8
 71
3
 72
8
 73
4
 74
0
 40
0
 40
0
 40
0
 40
0
 40
1
 40
1
 40
1
 40
1
 10
42.229702
 20
62.453832
 30
0.0
 10
37.124584
 20
65.401273
 30
0.0
 10
33.979702
 20
70.848369
 30
0.0
 10
33.979702
 20
76.743252
 30
0.0
  0
SPLINE
  5
199
100
AcDbEntity
  8
Layer_1
 62
6
100
AcDbSpline
 70
8
 71
3
 72
8
 73
4
 74
0
 40
0
 40
0
 40
0
 40
0
 40
1
 40
1
 40
1
 40
1
 10
33.979702
 20
76.743252
 30
0.0
 10
33.979702
 20
82.638134
 30
0.0
 10
37.124584
 20
88.085230
 30
0.0
 10
42.229702
 20
91.032671
 30
0.0
  0
SPLINE
  5
19a
100
AcDbEntity
  8
Layer_1
 62
6
100
AcDbSpline
 70
8
 71
3
 72
8
 73
4
 74
0
 40
0
 40
0
 40
0
 40
0
 40
1
 40
1
 40
1
 40
1
 10
42.229702
 20
91.032671
 30
0.0
 10
47.334820
 20
93.980112
 30
0.0
 10
53.624584
 20
93.980112
 30
0.0
 10
58.729702
 20
91.032671
 30
0.0
  0
SPLINE
  5
19b
100
AcDbEntity
  8
Layer_1
 62
6
100
AcDbSpline
 70
8
 71
3
 72
8
 73
4
 74
0
 40
0
 40
0
 40
0
 40
0
 40
1
 40
1
 40
1
 40
1
 10
58.729702
 20
91.032671
 30
0.0
 10
63.834820
 20
88.085230
 30
0.0
 10
66.979702
 20
82.638134
 30
0.0
 10
66.979702
 20
76.743252
 30
0.0
  0
LWPOLYLINE
  5
19c
100
AcDbEntity
  8
Layer_1
 62
3
100
AcDbPolyline
 90
1
 70
1
 10
50.479894
 20
83.993142
 30
0.0
  0
SPLINE
  5
19d
100
AcDbEntity
  8
Layer_1
 62
1
100
AcDbSpline
 70
8
 71
3
 72
8
 73
4
 74
0
 40
0
 40
0
 40
0
 40
0
 40
1
 40
1
 40
1
 40
1
 10
54.979703
 20
76.743252
 30
0.0
 10
54.979703
 20
75.135556
 30
0.0
 10
54.122007
 20
73.649985
 30
0.0
 10
52.729702
 20
72.846137
 30
0.0
  0
SPLINE
  5
19e
100
AcDbEntity
  8
Layer_1
 62
1
100
AcDbSpline
 70
8
 71
3
 72
8
 73
4
 74
0
 40
0
 40
0
 40
0
 40
0
 40
1
 40
1
 40
1
 40
1
 10
52.729702
 20
72.846137
 30
0.0
 10
51.337397
 20
72.042289
 30
0.0
 10
49.622007
 20
72.042289
 30
0.0
 10
48.229702
 20
72.846137
 30
0.0
  0
SPLINE
  5
19f
100
AcDbEntity
  8
Layer_1
 62
1
100
AcDbSpline
 70
8
 71
3
 72
8
 73
4
 74
0
 40
0
 40
0
 40
0
 40
0
 40
1
 40
1
 40
1
 40
1
 10
48.229702
 20
72.846137
 30
0.0
 10
46.837397
 20
73.649985
 30
0.0
 10
45.979701
 20
75.135556
 30
0.0
 10
45.979701
 20
76.743252
 30
0.0
  0
SPLINE
  5
1a0
100
AcDbEntity
  8
Layer_1
 62
1
100
AcDbSpline
 70
8
 71
3
 72
8
 73
4
 74
0
 40
0
 40
0
 40
0
 40
0
 40
1
 40
1
 40
1
 40
1
 10
45.979701
 20
76.743252
 30
0.0
 10
45.979701
 20
79.228533
 30
0.0
 10
47.994420
 20
81.243252
 30
0.0
 10
50.479702
 20
81.243252
 30
0.0
  0
SPLINE
  5
1a1
100
AcDbEntity
  8
Layer_1
 62
1
100
AcDbSpline
 70
8
 71
3
 72
8
 73
4
 74
0
 40
0
 40
0
 40
0
 40
0
 40
1
 40
1
 40
1
 40
1
 10
50.479702
 20
81.243252
 30
0.0
 10
52.964984
 20
81.243252
 30
0.0
 10
54.979702
 20
79.228533
 30
0.0
 10
54.979703
 20
76.743252
 30
0.0
  0
LWPOLYLINE
  5
1a2
100
AcDbEntity
  8
Layer_1
 62
6
100
AcDbPolyline
 90
1
 70
1
 10
66.979702
 20
76.743252
 30
0.0
  0
LWPOLYLINE
  5
1a3
100
AcDbEntity
  8
Layer_1
 62
1
100
AcDbPolyline
 90
1
 70
1
 10
54.979703
 20
76.743252
 30
0.0
  0
SPLINE
  5
1a4
100
AcDbEntity
  8
Layer_1
 62
1
100
AcDbSpline
 70
8
 71
3
 72
8
 73
4
 74
0
 40
0
 40
0
 40
0
 40
0
 40
1
 40
1
 40
1
 40
1
 10
88.645409
 20
47.159531
 30
0.0
 10
91.503534
 20
47.159531
 30
0.0
 10
94.144550
 20
45.634740
 30
0.0
 10
95.573612
 20
43.159531
 30
0.0
  0
SPLINE
  5
1a5
100
AcDbEntity
  8
Layer_1
 62
1
100
AcDbSpline
 70
8
 71
3
 72
8
 73
4
 74
0
 40
0
 40
0
 40
0
 40
0
 40
1
 40
1
 40
1
 40
1
 10
95.573612
 20
43.159531
 30
0.0
 10
97.002675
 20
40.684322
 30
0.0
 10
97.002675
 20
37.634739
 30
0.0
 10
95.573612
 20
35.159531
 30
0.0
  0
SPLINE
  5
1a6
100
AcDbEntity
  8
Layer_1
 62
1
100
AcDbSpline
 70
8
 71
3
 72
8
 73
4
 74
0
 40
0
 40
0
 40
0
 40
0
 40
1
 40
1
 40
1
 40
1
 10
95.573612
 20
35.159531
 30
0.0
 10
94.144550
 20
32.684322
 30
0.0
 10
91.503534
 20
31.159531
 30
0.0
 10
88.645409
 20
31.159531
 30
0.0
  0
SPLINE
  5
1a7
100
AcDbEntity
  8
Layer_1
 62
1
100
AcDbSpline
 70
8
 71
3
 72
8
 73
4
 74
0
 40
0
 40
0
 40
0
 40
0
 40
1
 40
1
 40
1
 40
1
 10
88.645409
 20
31.159531
 30
0.0
 10
85.787284
 20
31.159531
 30
0.0
 10
83.146268
 20
32.684322
 30
0.0
 10
81.717205
 20
35.159531
 30
0.0
  0
SPLINE
  5
1a8
100
AcDbEntity
  8
Layer_1
 62
1
100
AcDbSpline
 70
8
 71
3
 72
8
 73
4
 74
0
 40
0
 40
0
 40
0
 40
0
 40
1
 40
1
 40
1
 40
1
 10
81.717205
 20
35.159531
 30
0.0
 10
80.288143
 20
37.634739
 30
0.0
 10
80.288143
 20
40.684322
 30
0.0
 10
81.717205
 20
43.159531
 30
0.0
  0
SPLINE
  5
1a9
100
AcDbEntity
  8
Layer_1
 62
1
100
AcDbSpline
 70
8
 71
3
 72
8
 73
4
 74
0
 40
0
 40
0
 40
0
 40
0
 40
1
 40
1
 40
1
 40
1
 10
81.717205
 20
43.159531
 30
0.0
 10
83.146268
 20
45.634740
 30
0.0
 10
85.787284
 20
47.159531
 30
0.0
 10
88.645409
 20
47.159531
 30
0.0
  0
LWPOLYLINE
  5
1aa
100
AcDbEntity
  8
Layer_1
 62
1
100
AcDbPolyline
 90
4
 70
1
 10
49.029697
 20
64.743701
 30
0.0
 10
51.929697
 20
64.743701
 30
0.0
 10
51.929697
 20
64.043701
 30
0.0
 10
49.029697
 20
64.043701
 30
0.0
  0
LWPOLYLINE
  5
1ab
100
AcDbEntity
  8
Layer_1
 62
1
100
AcDbPolyline
 90
1
 70
1
 10
88.645409
 20
47.159531
 30
0.0
  0
SPLINE
  5
1ac
100
AcDbEntity
  8
Layer_1
 62
1
100
AcDbSpline
 70
8
 71
3
 72
8
 73
4
 74
0
 40
0
 40
0
 40
0
 40
0
 40
1
 40
1
 40
1
 40
1
 10
88.645407
 20
47.159521
 30
0.0
 10
91.503532
 20
47.159521
 30
0.0
 10
94.144548
 20
45.634730
 30
0.0
 10
95.573610
 20
43.159521
 30
0.0
  0
SPLINE
  5
1ad
100
AcDbEntity
  8
Layer_1
 62
1
100
AcDbSpline
 70
8
 71
3
 72
8
 73
4
 74
0
 40
0
 40
0
 40
0
 40
0
 40
1
 40
1
 40
1
 40
1
 10
95.573610
 20
43.159521
 30
0.0
 10
97.002673
 20
40.684312
 30
0.0
 10
97.002673
 20
37.634729
 30
0.0
 10
95.573610
 20
35.159521
 30
0.0
  0
SPLINE
  5
1ae
100
AcDbEntity
  8
Layer_1
 62
1
100
AcDbSpline
 70
8
 71
3
 72
8
 73
4
 74
0
 40
0
 40
0
 40
0
 40
0
 40
1
 40
1
 40
1
 40
1
 10
95.573610
 20
35.159521
 30
0.0
 10
94.144548
 20
32.684312
 30
0.0
 10
91.503532
 20
31.159521
 30
0.0
 10
88.645407
 20
31.159521
 30
0.0
  0
SPLINE
  5
1af
100
AcDbEntity
  8
Layer_1
 62
1
100
AcDbSpline
 70
8
 71
3
 72
8
 73
4
 74
0
 40
0
 40
0
 40
0
 40
0
 40
1
 40
1
 40
1
 40
1
 10
88.645407
 20
31.159521
 30
0.0
 10
85.787282
 20
31.159521
 30
0.0
 10
83.146266
 20
32.684312
 30
0.0
 10
81.717203
 20
35.159521
 30
0.0
  0
SPLINE
  5
1b0
100
AcDbEntity
  8
Layer_1
 62
1
100
AcDbSpline
 70
8
 71
3
 72
8
 73
4
 74
0
 40
0
 40
0
 40
0
 40
0
 40
1
 40
1
 40
1
 40
1
 10
81.717203
 20
35.159521
 30
0.0
 10
80.288141
 20
37.634729
 30
0.0
 10
80.288141
 20
40.684312
 30
0.0
 10
81.717203
 20
43.159521
 30
0.0
  0
SPLINE
  5
1b1
100
AcDbEntity
  8
Layer_1
 62
1
100
AcDbSpline
 70
8
 71
3
 72
8
 73
4
 74
0
 40
0
 40
0
 40
0
 40
0
 40
1
 40
1
 40
1
 40
1
 10
81.717203
 20
43.159521
 30
0.0
 10
83.146266
 20
45.634730
 30
0.0
 10
85.787282
 20
47.159521
 30
0.0
 10
88.645407
 20
47.159521
 30
0.0
  0
LWPOLYLINE
  5
1b2
100
AcDbEntity
  8
Layer_1
 62
3
100
AcDbPolyline
 90
4
 70
1
 10
79.645409
 20
30.159531
 30
0.0
 10
79.645409
 20
48.159531
 30
0.0
 10
97.645409
 20
48.159531
 30
0.0
 10
97.645409
 20
30.159531
 30
0.0
  0
LWPOLYLINE
  5
1b3
100
AcDbEntity
  8
Layer_1
 62
1
100
AcDbPolyline
 90
1
 70
1
 10
88.645407
 20
47.159521
 30
0.0
  0
SPLINE
  5
1b4
100
AcDbEntity
  8
Layer_1
 62
1
100
AcDbSpline
 70
8
 71
3
 72
8
 73
4
 74
0
 40
0
 40
0
 40
0
 40
0
 40
1
 40
1
 40
1
 40
1
 10
106.645407
 20
47.159521
 30
0.0
 10
109.503532
 20
47.159521
 30
0.0
 10
112.144548
 20
45.634730
 30
0.0
 10
113.573611
 20
43.159521
 30
0.0
  0
SPLINE
  5
1b5
100
AcDbEntity
  8
Layer_1
 62
1
100
AcDbSpline
 70
8
 71
3
 72
8
 73
4
 74
0
 40
0
 40
0
 40
0
 40
0
 40
1
 40
1
 40
1
 40
1
 10
113.573611
 20
43.159521
 30
0.0
 10
115.002673
 20
40.684312
 30
0.0
 10
115.002673
 20
37.634729
 30
0.0
 10
113.573611
 20
35.159521
 30
0.0
  0
SPLINE
  5
1b6
100
AcDbEntity
  8
Layer_1
 62
1
100
AcDbSpline
 70
8
 71
3
 72
8
 73
4
 74
0
 40
0
 40
0
 40
0
 40
0
 40
1
 40
1
 40
1
 40
1
 10
113.573611
 20
35.159521
 30
0.0
 10
112.144548
 20
32.684312
 30
0.0
 10
109.503532
 20
31.159521
 30
0.0
 10
106.645407
 20
31.159521
 30
0.0
  0
SPLINE
  5
1b7
100
AcDbEntity
  8
Layer_1
 62
1
100
AcDbSpline
 70
8
 71
3
 72
8
 73
4
 74
0
 40
0
 40
0
 40
0
 40
0
 40
1
 40
1
 40
1
 40
1
 10
106.645407
 20
31.159521
 30
0.0
 10
103.787282
 20
31.159521
 30
0.0
 10
101.146266
 20
32.684312
 30
0.0
 10
99.717204
 20
35.159521
 30
0.0
  0
SPLINE
  5
1b8
100
AcDbEntity
  8
Layer_1
 62
1
100
AcDbSpline
 70
8
 71
3
 72
8
 73
4
 74
0
 40
0
 40
0
 40
0
 40
0
 40
1
 40
1
 40
1
 40
1
 10
99.717204
 20
35.159521
 30
0.0
 10
98.288141
 20
37.634729
 30
0.0
 10
98.288141
 20
40.684312
 30
0.0
 10
99.717204
 20
43.159521
 30
0.0
  0
SPLINE
  5
1b9
100
AcDbEntity
  8
Layer_1
 62
1
100
AcDbSpline
 70
8
 71
3
 72
8
 73
4
 74
0
 40
0
 40
0
 40
0
 40
0
 40
1
 40
1
 40
1
 40
1
 10
99.717204
 20
43.159521
 30
0.0
 10
101.146266
 20
45.634730
 30
0.0
 10
103.787282
 20
47.159521
 30
0.0
 10
106.645407
 20
47.159521
 30
0.0
  0
LWPOLYLINE
  5
1ba
100
AcDbEntity
  8
Layer_1
 62
3
100
AcDbPolyline
 90
4
 70
1
 10
79.645407
 20
30.159521
 30
0.0
 10
79.645407
 20
48.159521
 30
0.0
 10
97.645407
 20
48.159521
 30
0.0
 10
97.645407
 20
30.159521
 30
0.0
  0
LWPOLYLINE
  5
1bb
100
AcDbEntity
  8
Layer_1
 62
1
100
AcDbPolyline
 90
1
 70
1
 10
106.645407
 20
47.159521
 30
0.0
  0
SPLINE
  5
1bc
100
AcDbEntity
  8
Layer_1
 62
1
100
AcDbSpline
 70
8
 71
3
 72
8
 73
4
 74
0
 40
0
 40
0
 40
0
 40
0
 40
1
 40
1
 40
1
 40
1
 10
124.645408
 20
47.159521
 30
0.0
 10
127.503532
 20
47.159521
 30
0.0
 10
130.144549
 20
45.634730
 30
0.0
 10
131.573611
 20
43.159521
 30
0.0
  0
SPLINE
  5
1bd
100
AcDbEntity
  8
Layer_1
 62
1
100
AcDbSpline
 70
8
 71
3
 72
8
 73
4
 74
0
 40
0
 40
0
 40
0
 40
0
 40
1
 40
1
 40
1
 40
1
 10
131.573611
 20
43.159521
 30
0.0
 10
133.002673
 20
40.684312
 30
0.0
 10
133.002673
 20
37.634729
 30
0.0
 10
131.573611
 20
35.159521
 30
0.0
  0
SPLINE
  5
1be
100
AcDbEntity
  8
Layer_1
 62
1
100
AcDbSpline
 70
8
 71
3
 72
8
 73
4
 74
0
 40
0
 40
0
 40
0
 40
0
 40
1
 40
1
 40
1
 40
1
 10
131.573611
 20
35.159521
 30
0.0
 10
130.144549
 20
32.684312
 30
0.0
 10
127.503532
 20
31.159521
 30
0.0
 10
124.645408
 20
31.159521
 30
0.0
  0
SPLINE
  5
1bf
100
AcDbEntity
  8
Layer_1
 62
1
100
AcDbSpline
 70
8
 71
3
 72
8
 73
4
 74
0
 40
0
 40
0
 40
0
 40
0
 40
1
 40
1
 40
1
 40
1
 10
124.645408
 20
31.159521
 30
0.0
 10
121.787283
 20
31.159521
 30
0.0
 10
119.146267
 20
32.684312
 30
0.0
 10
117.717204
 20
35.159521
 30
0.0
  0
SPLINE
  5
1c0
100
AcDbEntity
  8
Layer_1
 62
1
100
AcDbSpline
 70
8
 71
3
 72
8
 73
4
 74
0
 40
0
 40
0
 40
0
 40
0
 40
1
 40
1
 40
1
 40
1
 10
117.717204
 20
35.159521
 30
0.0
 10
116.288142
 20
37.634729
 30
0.0
 10
116.288142
 20
40.684312
 30
0.0
 10
117.717204
 20
43.159521
 30
0.0
  0
SPLINE
  5
1c1
100
AcDbEntity
  8
Layer_1
 62
1
100
AcDbSpline
 70
8
 71
3
 72
8
 73
4
 74
0
 40
0
 40
0
 40
0
 40
0
 40
1
 40
1
 40
1
 40
1
 10
117.717204
 20
43.159521
 30
0.0
 10
119.146267
 20
45.634730
 30
0.0
 10
121.787283
 20
47.159521
 30
0.0
 10
124.645408
 20
47.159521
 30
0.0
  0
LWPOLYLINE
  5
1c2
100
AcDbEntity
  8
Layer_1
 62
3
100
AcDbPolyline
 90
4
 70
1
 10
97.645407
 20
30.159521
 30
0.0
 10
97.645407
 20
48.159521
 30
0.0
 10
115.645407
 20
48.159521
 30
0.0
 10
115.645407
 20
30.159521
 30
0.0
  0
LWPOLYLINE
  5
1c3
100
AcDbEntity
  8
Layer_1
 62
1
100
AcDbPolyline
 90
1
 70
1
 10
124.645408
 20
47.159521
 30
0.0
  0
SPLINE
  5
1c4
100
AcDbEntity
  8
Layer_1
 62
1
100
AcDbSpline
 70
8
 71
3
 72
8
 73
4
 74
0
 40
0
 40
0
 40
0
 40
0
 40
1
 40
1
 40
1
 40
1
 10
142.645408
 20
47.159521
 30
0.0
 10
145.503533
 20
47.159521
 30
0.0
 10
148.144549
 20
45.634730
 30
0.0
 10
149.573611
 20
43.159521
 30
0.0
  0
SPLINE
  5
1c5
100
AcDbEntity
  8
Layer_1
 62
1
100
AcDbSpline
 70
8
 71
3
 72
8
 73
4
 74
0
 40
0
 40
0
 40
0
 40
0
 40
1
 40
1
 40
1
 40
1
 10
149.573611
 20
43.159521
 30
0.0
 10
151.002674
 20
40.684312
 30
0.0
 10
151.002674
 20
37.634729
 30
0.0
 10
149.573611
 20
35.159521
 30
0.0
  0
SPLINE
  5
1c6
100
AcDbEntity
  8
Layer_1
 62
1
100
AcDbSpline
 70
8
 71
3
 72
8
 73
4
 74
0
 40
0
 40
0
 40
0
 40
0
 40
1
 40
1
 40
1
 40
1
 10
149.573611
 20
35.159521
 30
0.0
 10
148.144549
 20
32.684312
 30
0.0
 10
145.503533
 20
31.159521
 30
0.0
 10
142.645408
 20
31.159521
 30
0.0
  0
SPLINE
  5
1c7
100
AcDbEntity
  8
Layer_1
 62
1
100
AcDbSpline
 70
8
 71
3
 72
8
 73
4
 74
0
 40
0
 40
0
 40
0
 40
0
 40
1
 40
1
 40
1
 40
1
 10
142.645408
 20
31.159521
 30
0.0
 10
139.787283
 20
31.159521
 30
0.0
 10
137.146267
 20
32.684312
 30
0.0
 10
135.717205
 20
35.159521
 30
0.0
  0
SPLINE
  5
1c8
100
AcDbEntity
  8
Layer_1
 62
1
100
AcDbSpline
 70
8
 71
3
 72
8
 73
4
 74
0
 40
0
 40
0
 40
0
 40
0
 40
1
 40
1
 40
1
 40
1
 10
135.717205
 20
35.159521
 30
0.0
 10
134.288142
 20
37.634729
 30
0.0
 10
134.288142
 20
40.684312
 30
0.0
 10
135.717205
 20
43.159521
 30
0.0
  0
SPLINE
  5
1c9
100
AcDbEntity
  8
Layer_1
 62
1
100
AcDbSpline
 70
8
 71
3
 72
8
 73
4
 74
0
 40
0
 40
0
 40
0
 40
0
 40
1
 40
1
 40
1
 40
1
 10
135.717205
 20
43.159521
 30
0.0
 10
137.146267
 20
45.634730
 30
0.0
 10
139.787283
 20
47.159521
 30
0.0
 10
142.645408
 20
47.159521
 30
0.0
  0
LWPOLYLINE
  5
1ca
100
AcDbEntity
  8
Layer_1
 62
3
100
AcDbPolyline
 90
4
 70
1
 10
115.645407
 20
30.159521
 30
0.0
 10
115.645407
 20
48.159521
 30
0.0
 10
133.645408
 20
48.159521
 30
0.0
 10
133.645408
 20
30.159521
 30
0.0
  0
LWPOLYLINE
  5
1cb
100
AcDbEntity
  8
Layer_1
 62
1
100
AcDbPolyline
 90
1
 70
1
 10
142.645408
 20
47.159521
 30
0.0
  0
SPLINE
  5
1cc
100
AcDbEntity
  8
Layer_1
 62
1
100
AcDbSpline
 70
8
 71
3
 72
8
 73
4
 74
0
 40
0
 40
0
 40
0
 40
0
 40
1
 40
1
 40
1
 40
1
 10
160.645408
 20
47.159521
 30
0.0
 10
163.503533
 20
47.159521
 30
0.0
 10
166.144549
 20
45.634730
 30
0.0
 10
167.573612
 20
43.159521
 30
0.0
  0
SPLINE
  5
1cd
100
AcDbEntity
  8
Layer_1
 62
1
100
AcDbSpline
 70
8
 71
3
 72
8
 73
4
 74
0
 40
0
 40
0
 40
0
 40
0
 40
1
 40
1
 40
1
 40
1
 10
167.573612
 20
43.159521
 30
0.0
 10
169.002674
 20
40.684312
 30
0.0
 10
169.002674
 20
37.634729
 30
0.0
 10
167.573612
 20
35.159521
 30
0.0
  0
SPLINE
  5
1ce
100
AcDbEntity
  8
Layer_1
 62
1
100
AcDbSpline
 70
8
 71
3
 72
8
 73
4
 74
0
 40
0
 40
0
 40
0
 40
0
 40
1
 40
1
 40
1
 40
1
 10
167.573612
 20
35.159521
 30
0.0
 10
166.144549
 20
32.684312
 30
0.0
 10
163.503533
 20
31.159521
 30
0.0
 10
160.645408
 20
31.159521
 30
0.0
  0
SPLINE
  5
1cf
100
AcDbEntity
  8
Layer_1
 62
1
100
AcDbSpline
 70
8
 71
3
 72
8
 73
4
 74
0
 40
0
 40
0
 40
0
 40
0
 40
1
 40
1
 40
1
 40
1
 10
160.645408
 20
31.159521
 30
0.0
 10
157.787284
 20
31.159521
 30
0.0
 10
155.146267
 20
32.684312
 30
0.0
 10
153.717205
 20
35.159521
 30
0.0
  0
SPLINE
  5
1d0
100
AcDbEntity
  8
Layer_1
 62
1
100
AcDbSpline
 70
8
 71
3
 72
8
 73
4
 74
0
 40
0
 40
0
 40
0
 40
0
 40
1
 40
1
 40
1
 40
1
 10
153.717205
 20
35.159521
 30
0.0
 10
152.288143
 20
37.634729
 30
0.0
 10
152.288143
 20
40.684312
 30
0.0
 10
153.717205
 20
43.159521
 30
0.0
  0
SPLINE
  5
1d1
100
AcDbEntity
  8
Layer_1
 62
1
100
AcDbSpline
 70
8
 71
3
 72
8
 73
4
 74
0
 40
0
 40
0
 40
0
 40
0
 40
1
 40
1
 40
1
 40
1
 10
153.717205
 20
43.159521
 30
0.0
 10
155.146267
 20
45.634730
 30
0.0
 10
157.787284
 20
47.159521
 30
0.0
 10
160.645408
 20
47.159521
 30
0.0
  0
LWPOLYLINE
  5
1d2
100
AcDbEntity
  8
Layer_1
 62
3
100
AcDbPolyline
 90
4
 70
1
 10
133.645408
 20
30.159521
 30
0.0
 10
133.645408
 20
48.159521
 30
0.0
 10
151.645408
 20
48.159521
 30
0.0
 10
151.645408
 20
30.159521
 30
0.0
  0
LWPOLYLINE
  5
1d3
100
AcDbEntity
  8
Layer_1
 62
1
100
AcDbPolyline
 90
1
 70
1
 10
160.645408
 20
47.159521
 30
0.0
  0
SPLINE
  5
1d4
100
AcDbEntity
  8
Layer_1
 62
1
100
AcDbSpline
 70
8
 71
3
 72
8
 73
4
 74
0
 40
0
 40
0
 40
0
 40
0
 40
1
 40
1
 40
1
 40
1
 10
88.645407
 20
65.159521
 30
0.0
 10
91.503532
 20
65.159521
 30
0.0
 10
94.144548
 20
63.634730
 30
0.0
 10
95.573610
 20
61.159521
 30
0.0
  0
SPLINE
  5
1d5
100
AcDbEntity
  8
Layer_1
 62
1
100
AcDbSpline
 70
8
 71
3
 72
8
 73
4
 74
0
 40
0
 40
0
 40
0
 40
0
 40
1
 40
1
 40
1
 40
1
 10
95.573610
 20
61.159521
 30
0.0
 10
97.002673
 20
58.684313
 30
0.0
 10
97.002673
 20
55.634730
 30
0.0
 10
95.573610
 20
53.159521
 30
0.0
  0
SPLINE
  5
1d6
100
AcDbEntity
  8
Layer_1
 62
1
100
AcDbSpline
 70
8
 71
3
 72
8
 73
4
 74
0
 40
0
 40
0
 40
0
 40
0
 40
1
 40
1
 40
1
 40
1
 10
95.573610
 20
53.159521
 30
0.0
 10
94.144548
 20
50.684313
 30
0.0
 10
91.503532
 20
49.159521
 30
0.0
 10
88.645407
 20
49.159521
 30
0.0
  0
SPLINE
  5
1d7
100
AcDbEntity
  8
Layer_1
 62
1
100
AcDbSpline
 70
8
 71
3
 72
8
 73
4
 74
0
 40
0
 40
0
 40
0
 40
0
 40
1
 40
1
 40
1
 40
1
 10
88.645407
 20
49.159521
 30
0.0
 10
85.787282
 20
49.159521
 30
0.0
 10
83.146266
 20
50.684313
 30
0.0
 10
81.717203
 20
53.159521
 30
0.0
  0
SPLINE
  5
1d8
100
AcDbEntity
  8
Layer_1
 62
1
100
AcDbSpline
 70
8
 71
3
 72
8
 73
4
 74
0
 40
0
 40
0
 40
0
 40
0
 40
1
 40
1
 40
1
 40
1
 10
81.717203
 20
53.159521
 30
0.0
 10
80.288141
 20
55.634730
 30
0.0
 10
80.288141
 20
58.684313
 30
0.0
 10
81.717203
 20
61.159521
 30
0.0
  0
SPLINE
  5
1d9
100
AcDbEntity
  8
Layer_1
 62
1
100
AcDbSpline
 70
8
 71
3
 72
8
 73
4
 74
0
 40
0
 40
0
 40
0
 40
0
 40
1
 40
1
 40
1
 40
1
 10
81.717203
 20
61.159521
 30
0.0
 10
83.146266
 20
63.634730
 30
0.0
 10
85.787282
 20
65.159521
 30
0.0
 10
88.645407
 20
65.159521
 30
0.0
  0
LWPOLYLINE
  5
1da
100
AcDbEntity
  8
Layer_1
 62
3
100
AcDbPolyline
 90
4
 70
1
 10
151.645408
 20
30.159521
 30
0.0
 10
151.645408
 20
48.159521
 30
0.0
 10
169.645409
 20
48.159521
 30
0.0
 10
169.645409
 20
30.159521
 30
0.0
  0
LWPOLYLINE
  5
1db
100
AcDbEntity
  8
Layer_1
 62
1
100
AcDbPolyline
 90
1
 70
1
 10
88.645407
 20
65.159521
 30
0.0
  0
SPLINE
  5
1dc
100
AcDbEntity
  8
Layer_1
 62
1
100
AcDbSpline
 70
8
 71
3
 72
8
 73
4
 74
0
 40
0
 40
0
 40
0
 40
0
 40
1
 40
1
 40
1
 40
1
 10
106.645407
 20
65.159521
 30
0.0
 10
109.503532
 20
65.159521
 30
0.0
 10
112.144548
 20
63.634730
 30
0.0
 10
113.573611
 20
61.159521
 30
0.0
  0
SPLINE
  5
1dd
100
AcDbEntity
  8
Layer_1
 62
1
100
AcDbSpline
 70
8
 71
3
 72
8
 73
4
 74
0
 40
0
 40
0
 40
0
 40
0
 40
1
 40
1
 40
1
 40
1
 10
113.573611
 20
61.159521
 30
0.0
 10
115.002673
 20
58.684313
 30
0.0
 10
115.002673
 20
55.634730
 30
0.0
 10
113.573611
 20
53.159521
 30
0.0
  0
SPLINE
  5
1de
100
AcDbEntity
  8
Layer_1
 62
1
100
AcDbSpline
 70
8
 71
3
 72
8
 73
4
 74
0
 40
0
 40
0
 40
0
 40
0
 40
1
 40
1
 40
1
 40
1
 10
113.573611
 20
53.159521
 30
0.0
 10
112.144548
 20
50.684313
 30
0.0
 10
109.503532
 20
49.159521
 30
0.0
 10
106.645407
 20
49.159521
 30
0.0
  0
SPLINE
  5
1df
100
AcDbEntity
  8
Layer_1
 62
1
100
AcDbSpline
 70
8
 71
3
 72
8
 73
4
 74
0
 40
0
 40
0
 40
0
 40
0
 40
1
 40
1
 40
1
 40
1
 10
106.645407
 20
49.159521
 30
0.0
 10
103.787282
 20
49.159521
 30
0.0
 10
101.146266
 20
50.684313
 30
0.0
 10
99.717204
 20
53.159521
 30
0.0
  0
SPLINE
  5
1e0
100
AcDbEntity
  8
Layer_1
 62
1
100
AcDbSpline
 70
8
 71
3
 72
8
 73
4
 74
0
 40
0
 40
0
 40
0
 40
0
 40
1
 40
1
 40
1
 40
1
 10
99.717204
 20
53.159521
 30
0.0
 10
98.288141
 20
55.634730
 30
0.0
 10
98.288141
 20
58.684313
 30
0.0
 10
99.717204
 20
61.159521
 30
0.0
  0
SPLINE
  5
1e1
100
AcDbEntity
  8
Layer_1
 62
1
100
AcDbSpline
 70
8
 71
3
 72
8
 73
4
 74
0
 40
0
 40
0
 40
0
 40
0
 40
1
 40
1
 40
1
 40
1
 10
99.717204
 20
61.159521
 30
0.0
 10
101.146266
 20
63.634730
 30
0.0
 10
103.787282
 20
65.159521
 30
0.0
 10
106.645407
 20
65.159521
 30
0.0
  0
LWPOLYLINE
  5
1e2
100
AcDbEntity
  8
Layer_1
 62
3
100
AcDbPolyline
 90
4
 70
1
 10
79.645407
 20
48.159521
 30
0.0
 10
79.645407
 20
66.159521
 30
0.0
 10
97.645407
 20
66.159521
 30
0.0
 10
97.645407
 20
48.159521
 30
0.0
  0
LWPOLYLINE
  5
1e3
100
AcDbEntity
  8
Layer_1
 62
1
100
AcDbPolyline
 90
1
 70
1
 10
106.645407
 20
65.159521
 30
0.0
  0
SPLINE
  5
1e4
100
AcDbEntity
  8
Layer_1
 62
1
100
AcDbSpline
 70
8
 71
3
 72
8
 73
4
 74
0
 40
0
 40
0
 40
0
 40
0
 40
1
 40
1
 40
1
 40
1
 10
124.645408
 20
65.159521
 30
0.0
 10
127.503532
 20
65.159521
 30
0.0
 10
130.144549
 20
63.634730
 30
0.0
 10
131.573611
 20
61.159521
 30
0.0
  0
SPLINE
  5
1e5
100
AcDbEntity
  8
Layer_1
 62
1
100
AcDbSpline
 70
8
 71
3
 72
8
 73
4
 74
0
 40
0
 40
0
 40
0
 40
0
 40
1
 40
1
 40
1
 40
1
 10
131.573611
 20
61.159521
 30
0.0
 10
133.002673
 20
58.684313
 30
0.0
 10
133.002673
 20
55.634730
 30
0.0
 10
131.573611
 20
53.159521
 30
0.0
  0
SPLINE
  5
1e6
100
AcDbEntity
  8
Layer_1
 62
1
100
AcDbSpline
 70
8
 71
3
 72
8
 73
4
 74
0
 40
0
 40
0
 40
0
 40
0
 40
1
 40
1
 40
1
 40
1
 10
131.573611
 20
53.159521
 30
0.0
 10
130.144549
 20
50.684313
 30
0.0
 10
127.503532
 20
49.159521
 30
0.0
 10
124.645408
 20
49.159521
 30
0.0
  0
SPLINE
  5
1e7
100
AcDbEntity
  8
Layer_1
 62
1
100
AcDbSpline
 70
8
 71
3
 72
8
 73
4
 74
0
 40
0
 40
0
 40
0
 40
0
 40
1
 40
1
 40
1
 40
1
 10
124.645408
 20
49.159521
 30
0.0
 10
121.787283
 20
49.159521
 30
0.0
 10
119.146267
 20
50.684313
 30
0.0
 10
117.717204
 20
53.159521
 30
0.0
  0
SPLINE
  5
1e8
100
AcDbEntity
  8
Layer_1
 62
1
100
AcDbSpline
 70
8
 71
3
 72
8
 73
4
 74
0
 40
0
 40
0
 40
0
 40
0
 40
1
 40
1
 40
1
 40
1
 10
117.717204
 20
53.159521
 30
0.0
 10
116.288142
 20
55.634730
 30
0.0
 10
116.288142
 20
58.684313
 30
0.0
 10
117.717204
 20
61.159521
 30
0.0
  0
SPLINE
  5
1e9
100
AcDbEntity
  8
Layer_1
 62
1
100
AcDbSpline
 70
8
 71
3
 72
8
 73
4
 74
0
 40
0
 40
0
 40
0
 40
0
 40
1
 40
1
 40
1
 40
1
 10
117.717204
 20
61.159521
 30
0.0
 10
119.146267
 20
63.634730
 30
0.0
 10
121.787283
 20
65.159521
 30
0.0
 10
124.645408
 20
65.159521
 30
0.0
  0
LWPOLYLINE
  5
1ea
100
AcDbEntity
  8
Layer_1
 62
3
100
AcDbPolyline
 90
4
 70
1
 10
97.645407
 20
48.159521
 30
0.0
 10
97.645407
 20
66.159521
 30
0.0
 10
115.645407
 20
66.159521
 30
0.0
 10
115.645407
 20
48.159521
 30
0.0
  0
LWPOLYLINE
  5
1eb
100
AcDbEntity
  8
Layer_1
 62
1
100
AcDbPolyline
 90
1
 70
1
 10
124.645408
 20
65.159521
 30
0.0
  0
SPLINE
  5
1ec
100
AcDbEntity
  8
Layer_1
 62
1
100
AcDbSpline
 70
8
 71
3
 72
8
 73
4
 74
0
 40
0
 40
0
 40
0
 40
0
 40
1
 40
1
 40
1
 40
1
 10
142.645408
 20
65.159521
 30
0.0
 10
145.503533
 20
65.159521
 30
0.0
 10
148.144549
 20
63.634730
 30
0.0
 10
149.573611
 20
61.159521
 30
0.0
  0
SPLINE
  5
1ed
100
AcDbEntity
  8
Layer_1
 62
1
100
AcDbSpline
 70
8
 71
3
 72
8
 73
4
 74
0
 40
0
 40
0
 40
0
 40
0
 40
1
 40
1
 40
1
 40
1
 10
149.573611
 20
61.159521
 30
0.0
 10
151.002674
 20
58.684313
 30
0.0
 10
151.002674
 20
55.634730
 30
0.0
 10
149.573611
 20
53.159521
 30
0.0
  0
SPLINE
  5
1ee
100
AcDbEntity
  8
Layer_1
 62
1
100
AcDbSpline
 70
8
 71
3
 72
8
 73
4
 74
0
 40
0
 40
0
 40
0
 40
0
 40
1
 40
1
 40
1
 40
1
 10
149.573611
 20
53.159521
 30
0.0
 10
148.144549
 20
50.684313
 30
0.0
 10
145.503533
 20
49.159521
 30
0.0
 10
142.645408
 20
49.159521
 30
0.0
  0
SPLINE
  5
1ef
100
AcDbEntity
  8
Layer_1
 62
1
100
AcDbSpline
 70
8
 71
3
 72
8
 73
4
 74
0
 40
0
 40
0
 40
0
 40
0
 40
1
 40
1
 40
1
 40
1
 10
142.645408
 20
49.159521
 30
0.0
 10
139.787283
 20
49.159521
 30
0.0
 10
137.146267
 20
50.684313
 30
0.0
 10
135.717205
 20
53.159521
 30
0.0
  0
SPLINE
  5
1f0
100
AcDbEntity
  8
Layer_1
 62
1
100
AcDbSpline
 70
8
 71
3
 72
8
 73
4
 74
0
 40
0
 40
0
 40
0
 40
0
 40
1
 40
1
 40
1
 40
1
 10
135.717205
 20
53.159521
 30
0.0
 10
134.288142
 20
55.634730
 30
0.0
 10
134.288142
 20
58.684313
 30
0.0
 10
135.717205
 20
61.159521
 30
0.0
  0
SPLINE
  5
1f1
100
AcDbEntity
  8
Layer_1
 62
1
100
AcDbSpline
 70
8
 71
3
 72
8
 73
4
 74
0
 40
0
 40
0
 40
0
 40
0
 40
1
 40
1
 40
1
 40
1
 10
135.717205
 20
61.159521
 30
0.0
 10
137.146267
 20
63.634730
 30
0.0
 10
139.787283
 20
65.159521
 30
0.0
 10
142.645408
 20
65.159521
 30
0.0
  0
LWPOLYLINE
  5
1f2
100
AcDbEntity
  8
Layer_1
 62
3
100
AcDbPolyline
 90
4
 70
1
 10
115.645407
 20
48.159521
 30
0.0
 10
115.645407
 20
66.159521
 30
0.0
 10
133.645408
 20
66.159521
 30
0.0
 10
133.645408
 20
48.159521
 30
0.0
  0
LWPOLYLINE
  5
1f3
100
AcDbEntity
  8
Layer_1
 62
1
100
AcDbPolyline
 90
1
 70
1
 10
142.645408
 20
65.159521
 30
0.0
  0
SPLINE
  5
1f4
100
AcDbEntity
  8
Layer_1
 62
1
100
AcDbSpline
 70
8
 71
3
 72
8
 73
4
 74
0
 40
0
 40
0
 40
0
 40
0
 40
1
 40
1
 40
1
 40
1
 10
160.645408
 20
65.159521
 30
0.0
 10
163.503533
 20
65.159521
 30
0.0
 10
166.144549
 20
63.634730
 30
0.0
 10
167.573612
 20
61.159521
 30
0.0
  0
SPLINE
  5
1f5
100
AcDbEntity
  8
Layer_1
 62
1
100
AcDbSpline
 70
8
 71
3
 72
8
 73
4
 74
0
 40
0
 40
0
 40
0
 40
0
 40
1
 40
1
 40
1
 40
1
 10
167.573612
 20
61.159521
 30
0.0
 10
169.002674
 20
58.684313
 30
0.0
 10
169.002674
 20
55.634730
 30
0.0
 10
167.573612
 20
53.159521
 30
0.0
  0
SPLINE
  5
1f6
100
AcDbEntity
  8
Layer_1
 62
1
100
AcDbSpline
 70
8
 71
3
 72
8
 73
4
 74
0
 40
0
 40
0
 40
0
 40
0
 40
1
 40
1
 40
1
 40
1
 10
167.573612
 20
53.159521
 30
0.0
 10
166.144549
 20
50.684313
 30
0.0
 10
163.503533
 20
49.159521
 30
0.0
 10
160.645408
 20
49.159521
 30
0.0
  0
SPLINE
  5
1f7
100
AcDbEntity
  8
Layer_1
 62
1
100
AcDbSpline
 70
8
 71
3
 72
8
 73
4
 74
0
 40
0
 40
0
 40
0
 40
0
 40
1
 40
1
 40
1
 40
1
 10
160.645408
 20
49.159521
 30
0.0
 10
157.787284
 20
49.159521
 30
0.0
 10
155.146267
 20
50.684313
 30
0.0
 10
153.717205
 20
53.159521
 30
0.0
  0
SPLINE
  5
1f8
100
AcDbEntity
  8
Layer_1
 62
1
100
AcDbSpline
 70
8
 71
3
 72
8
 73
4
 74
0
 40
0
 40
0
 40
0
 40
0
 40
1
 40
1
 40
1
 40
1
 10
153.717205
 20
53.159521
 30
0.0
 10
152.288143
 20
55.634730
 30
0.0
 10
152.288143
 20
58.684313
 30
0.0
 10
153.717205
 20
61.159521
 30
0.0
  0
SPLINE
  5
1f9
100
AcDbEntity
  8
Layer_1
 62
1
100
AcDbSpline
 70
8
 71
3
 72
8
 73
4
 74
0
 40
0
 40
0
 40
0
 40
0
 40
1
 40
1
 40
1
 40
1
 10
153.717205
 20
61.159521
 30
0.0
 10
155.146267
 20
63.634730
 30
0.0
 10
157.787284
 20
65.159521
 30
0.0
 10
160.645408
 20
65.159521
 30
0.0
  0
LWPOLYLINE
  5
1fa
100
AcDbEntity
  8
Layer_1
 62
3
100
AcDbPolyline
 90
4
 70
1
 10
133.645408
 20
48.159521
 30
0.0
 10
133.645408
 20
66.159521
 30
0.0
 10
151.645408
 20
66.159521
 30
0.0
 10
151.645408
 20
48.159521
 30
0.0
  0
LWPOLYLINE
  5
1fb
100
AcDbEntity
  8
Layer_1
 62
1
100
AcDbPolyline
 90
1
 70
1
 10
160.645408
 20
65.159521
 30
0.0
  0
LWPOLYLINE
  5
1fc
100
AcDbEntity
  8
Layer_1
 62
3
100
AcDbPolyline
 90
4
 70
1
 10
151.645408
 20
48.159521
 30
0.0
 10
151.645408
 20
66.159521
 30
0.0
 10
169.645409
 20
66.159521
 30
0.0
 10
169.645409
 20
48.159521
 30
0.0
  0
LWPOLYLINE
  5
1fd
100
AcDbEntity
  8
Layer_1
 62
6
100
AcDbPolyline
 90
2
 70
0
 10
101.396125
 20
95.768712
 30
0.0
 10
101.396125
 20
79.512712
 30
0.0
  0
LWPOLYLINE
  5
1fe
100
AcDbEntity
  8
Layer_1
 62
6
100
AcDbPolyline
 90
2
 70
0
 10
208.457134
 20
79.512712
 30
0.0
 10
101.396125
 20
79.512712
 30
0.0
  0
LWPOLYLINE
  5
1ff
100
AcDbEntity
  8
Layer_1
 62
6
100
AcDbPolyline
 90
2
 70
0
 10
208.457134
 20
95.768712
 30
0.0
 10
208.457134
 20
79.512712
 30
0.0
  0
SPLINE
  5
200
100
AcDbEntity
  8
Layer_1
 62
1
100
AcDbSpline
 70
8
 71
3
 72
8
 73
4
 74
0
 40
0
 40
0
 40
0
 40
0
 40
1
 40
1
 40
1
 40
1
 10
170.485144
 20
84.415332
 30
0.0
 10
169.288304
 20
84.415332
 30
0.0
 10
168.182378
 20
85.053838
 30
0.0
 10
167.583958
 20
86.090332
 30
0.0
  0
SPLINE
  5
201
100
AcDbEntity
  8
Layer_1
 62
1
100
AcDbSpline
 70
8
 71
3
 72
8
 73
4
 74
0
 40
0
 40
0
 40
0
 40
0
 40
1
 40
1
 40
1
 40
1
 10
167.583958
 20
86.090332
 30
0.0
 10
166.985538
 20
87.126826
 30
0.0
 10
166.985538
 20
88.403838
 30
0.0
 10
167.583958
 20
89.440332
 30
0.0
  0
SPLINE
  5
202
100
AcDbEntity
  8
Layer_1
 62
1
100
AcDbSpline
 70
8
 71
3
 72
8
 73
4
 74
0
 40
0
 40
0
 40
0
 40
0
 40
1
 40
1
 40
1
 40
1
 10
167.583958
 20
89.440332
 30
0.0
 10
168.182378
 20
90.476826
 30
0.0
 10
169.288304
 20
91.115332
 30
0.0
 10
170.485144
 20
91.115332
 30
0.0
  0
SPLINE
  5
203
100
AcDbEntity
  8
Layer_1
 62
1
100
AcDbSpline
 70
8
 71
3
 72
8
 73
4
 74
0
 40
0
 40
0
 40
0
 40
0
 40
1
 40
1
 40
1
 40
1
 10
170.485144
 20
91.115332
 30
0.0
 10
172.335297
 20
91.115332
 30
0.0
 10
173.835143
 20
89.615486
 30
0.0
 10
173.835143
 20
87.765332
 30
0.0
  0
SPLINE
  5
204
100
AcDbEntity
  8
Layer_1
 62
1
100
AcDbSpline
 70
8
 71
3
 72
8
 73
4
 74
0
 40
0
 40
0
 40
0
 40
0
 40
1
 40
1
 40
1
 40
1
 10
173.835143
 20
87.765332
 30
0.0
 10
173.835143
 20
85.915178
 30
0.0
 10
172.335297
 20
84.415332
 30
0.0
 10
170.485144
 20
84.415332
 30
0.0
  0
LWPOLYLINE
  5
205
100
AcDbEntity
  8
Layer_1
 62
6
100
AcDbPolyline
 90
2
 70
0
 10
101.396125
 20
95.768712
 30
0.0
 10
208.457134
 20
95.768712
 30
0.0
  0
SPLINE
  5
206
100
AcDbEntity
  8
Layer_1
 62
1
100
AcDbSpline
 70
8
 71
3
 72
8
 73
4
 74
0
 40
0
 40
0
 40
0
 40
0
 40
1
 40
1
 40
1
 40
1
 10
157.785153
 20
84.415332
 30
0.0
 10
156.588314
 20
84.415332
 30
0.0
 10
155.482388
 20
85.053838
 30
0.0
 10
154.883968
 20
86.090332
 30
0.0
  0
SPLINE
  5
207
100
AcDbEntity
  8
Layer_1
 62
1
100
AcDbSpline
 70
8
 71
3
 72
8
 73
4
 74
0
 40
0
 40
0
 40
0
 40
0
 40
1
 40
1
 40
1
 40
1
 10
154.883968
 20
86.090332
 30
0.0
 10
154.285548
 20
87.126826
 30
0.0
 10
154.285548
 20
88.403838
 30
0.0
 10
154.883968
 20
89.440332
 30
0.0
  0
SPLINE
  5
208
100
AcDbEntity
  8
Layer_1
 62
1
100
AcDbSpline
 70
8
 71
3
 72
8
 73
4
 74
0
 40
0
 40
0
 40
0
 40
0
 40
1
 40
1
 40
1
 40
1
 10
154.883968
 20
89.440332
 30
0.0
 10
155.482388
 20
90.476826
 30
0.0
 10
156.588314
 20
91.115332
 30
0.0
 10
157.785153
 20
91.115332
 30
0.0
  0
SPLINE
  5
209
100
AcDbEntity
  8
Layer_1
 62
1
100
AcDbSpline
 70
8
 71
3
 72
8
 73
4
 74
0
 40
0
 40
0
 40
0
 40
0
 40
1
 40
1
 40
1
 40
1
 10
157.785153
 20
91.115332
 30
0.0
 10
159.635307
 20
91.115332
 30
0.0
 10
161.135153
 20
89.615486
 30
0.0
 10
161.135153
 20
87.765332
 30
0.0
  0
SPLINE
  5
20a
100
AcDbEntity
  8
Layer_1
 62
1
100
AcDbSpline
 70
8
 71
3
 72
8
 73
4
 74
0
 40
0
 40
0
 40
0
 40
0
 40
1
 40
1
 40
1
 40
1
 10
161.135153
 20
87.765332
 30
0.0
 10
161.135153
 20
85.915178
 30
0.0
 10
159.635307
 20
84.415332
 30
0.0
 10
157.785153
 20
84.415332
 30
0.0
  0
LWPOLYLINE
  5
20b
100
AcDbEntity
  8
Layer_1
 62
1
100
AcDbPolyline
 90
1
 70
1
 10
170.485144
 20
84.415332
 30
0.0
  0
SPLINE
  5
20c
100
AcDbEntity
  8
Layer_1
 62
1
100
AcDbSpline
 70
8
 71
3
 72
8
 73
4
 74
0
 40
0
 40
0
 40
0
 40
0
 40
1
 40
1
 40
1
 40
1
 10
139.497143
 20
84.415332
 30
0.0
 10
138.300303
 20
84.415332
 30
0.0
 10
137.194378
 20
85.053838
 30
0.0
 10
136.595958
 20
86.090332
 30
0.0
  0
SPLINE
  5
20d
100
AcDbEntity
  8
Layer_1
 62
1
100
AcDbSpline
 70
8
 71
3
 72
8
 73
4
 74
0
 40
0
 40
0
 40
0
 40
0
 40
1
 40
1
 40
1
 40
1
 10
136.595958
 20
86.090332
 30
0.0
 10
135.997538
 20
87.126826
 30
0.0
 10
135.997538
 20
88.403838
 30
0.0
 10
136.595958
 20
89.440332
 30
0.0
  0
SPLINE
  5
20e
100
AcDbEntity
  8
Layer_1
 62
1
100
AcDbSpline
 70
8
 71
3
 72
8
 73
4
 74
0
 40
0
 40
0
 40
0
 40
0
 40
1
 40
1
 40
1
 40
1
 10
136.595958
 20
89.440332
 30
0.0
 10
137.194378
 20
90.476826
 30
0.0
 10
138.300303
 20
91.115332
 30
0.0
 10
139.497143
 20
91.115332
 30
0.0
  0
SPLINE
  5
20f
100
AcDbEntity
  8
Layer_1
 62
1
100
AcDbSpline
 70
8
 71
3
 72
8
 73
4
 74
0
 40
0
 40
0
 40
0
 40
0
 40
1
 40
1
 40
1
 40
1
 10
139.497143
 20
91.115332
 30
0.0
 10
141.347297
 20
91.115332
 30
0.0
 10
142.847143
 20
89.615486
 30
0.0
 10
142.847143
 20
87.765332
 30
0.0
  0
SPLINE
  5
210
100
AcDbEntity
  8
Layer_1
 62
1
100
AcDbSpline
 70
8
 71
3
 72
8
 73
4
 74
0
 40
0
 40
0
 40
0
 40
0
 40
1
 40
1
 40
1
 40
1
 10
142.847143
 20
87.765332
 30
0.0
 10
142.847143
 20
85.915178
 30
0.0
 10
141.347297
 20
84.415332
 30
0.0
 10
139.497143
 20
84.415332
 30
0.0
  0
LWPOLYLINE
  5
211
100
AcDbEntity
  8
Layer_1
 62
1
100
AcDbPolyline
 90
1
 70
1
 10
157.785153
 20
84.415332
 30
0.0
  0
SPLINE
  5
212
100
AcDbEntity
  8
Layer_1
 62
1
100
AcDbSpline
 70
8
 71
3
 72
8
 73
4
 74
0
 40
0
 40
0
 40
0
 40
0
 40
1
 40
1
 40
1
 40
1
 10
126.797143
 20
84.415332
 30
0.0
 10
125.600303
 20
84.415332
 30
0.0
 10
124.494377
 20
85.053838
 30
0.0
 10
123.895957
 20
86.090332
 30
0.0
  0
SPLINE
  5
213
100
AcDbEntity
  8
Layer_1
 62
1
100
AcDbSpline
 70
8
 71
3
 72
8
 73
4
 74
0
 40
0
 40
0
 40
0
 40
0
 40
1
 40
1
 40
1
 40
1
 10
123.895957
 20
86.090332
 30
0.0
 10
123.297537
 20
87.126826
 30
0.0
 10
123.297537
 20
88.403838
 30
0.0
 10
123.895957
 20
89.440332
 30
0.0
  0
SPLINE
  5
214
100
AcDbEntity
  8
Layer_1
 62
1
100
AcDbSpline
 70
8
 71
3
 72
8
 73
4
 74
0
 40
0
 40
0
 40
0
 40
0
 40
1
 40
1
 40
1
 40
1
 10
123.895957
 20
89.440332
 30
0.0
 10
124.494377
 20
90.476826
 30
0.0
 10
125.600303
 20
91.115332
 30
0.0
 10
126.797143
 20
91.115332
 30
0.0
  0
SPLINE
  5
215
100
AcDbEntity
  8
Layer_1
 62
1
100
AcDbSpline
 70
8
 71
3
 72
8
 73
4
 74
0
 40
0
 40
0
 40
0
 40
0
 40
1
 40
1
 40
1
 40
1
 10
126.797143
 20
91.115332
 30
0.0
 10
128.647297
 20
91.115332
 30
0.0
 10
130.147143
 20
89.615486
 30
0.0
 10
130.147143
 20
87.765332
 30
0.0
  0
SPLINE
  5
216
100
AcDbEntity
  8
Layer_1
 62
1
100
AcDbSpline
 70
8
 71
3
 72
8
 73
4
 74
0
 40
0
 40
0
 40
0
 40
0
 40
1
 40
1
 40
1
 40
1
 10
130.147143
 20
87.765332
 30
0.0
 10
130.147143
 20
85.915178
 30
0.0
 10
128.647297
 20
84.415332
 30
0.0
 10
126.797143
 20
84.415332
 30
0.0
  0
LWPOLYLINE
  5
217
100
AcDbEntity
  8
Layer_1
 62
1
100
AcDbPolyline
 90
1
 70
1
 10
139.497143
 20
84.415332
 30
0.0
  0
SPLINE
  5
218
100
AcDbEntity
  8
Layer_1
 62
1
100
AcDbSpline
 70
8
 71
3
 72
8
 73
4
 74
0
 40
0
 40
0
 40
0
 40
0
 40
1
 40
1
 40
1
 40
1
 10
114.097242
 20
84.415332
 30
0.0
 10
112.900403
 20
84.415332
 30
0.0
 10
111.794477
 20
85.053838
 30
0.0
 10
111.196057
 20
86.090332
 30
0.0
  0
SPLINE
  5
219
100
AcDbEntity
  8
Layer_1
 62
1
100
AcDbSpline
 70
8
 71
3
 72
8
 73
4
 74
0
 40
0
 40
0
 40
0
 40
0
 40
1
 40
1
 40
1
 40
1
 10
111.196057
 20
86.090332
 30
0.0
 10
110.597637
 20
87.126826
 30
0.0
 10
110.597637
 20
88.403838
 30
0.0
 10
111.196057
 20
89.440332
 30
0.0
  0
SPLINE
  5
21a
100
AcDbEntity
  8
Layer_1
 62
1
100
AcDbSpline
 70
8
 71
3
 72
8
 73
4
 74
0
 40
0
 40
0
 40
0
 40
0
 40
1
 40
1
 40
1
 40
1
 10
111.196057
 20
89.440332
 30
0.0
 10
111.794477
 20
90.476826
 30
0.0
 10
112.900403
 20
91.115332
 30
0.0
 10
114.097242
 20
91.115332
 30
0.0
  0
SPLINE
  5
21b
100
AcDbEntity
  8
Layer_1
 62
1
100
AcDbSpline
 70
8
 71
3
 72
8
 73
4
 74
0
 40
0
 40
0
 40
0
 40
0
 40
1
 40
1
 40
1
 40
1
 10
114.097242
 20
91.115332
 30
0.0
 10
115.947396
 20
91.115332
 30
0.0
 10
117.447242
 20
89.615486
 30
0.0
 10
117.447242
 20
87.765332
 30
0.0
  0
SPLINE
  5
21c
100
AcDbEntity
  8
Layer_1
 62
1
100
AcDbSpline
 70
8
 71
3
 72
8
 73
4
 74
0
 40
0
 40
0
 40
0
 40
0
 40
1
 40
1
 40
1
 40
1
 10
117.447242
 20
87.765332
 30
0.0
 10
117.447242
 20
85.915178
 30
0.0
 10
115.947396
 20
84.415332
 30
0.0
 10
114.097242
 20
84.415332
 30
0.0
  0
LWPOLYLINE
  5
21d
100
AcDbEntity
  8
Layer_1
 62
1
100
AcDbPolyline
 90
1
 70
1
 10
126.797143
 20
84.415332
 30
0.0
  0
SPLINE
  5
21e
100
AcDbEntity
  8
Layer_1
 62
1
100
AcDbSpline
 70
8
 71
3
 72
8
 73
4
 74
0
 40
0
 40
0
 40
0
 40
0
 40
1
 40
1
 40
1
 40
1
 10
183.185144
 20
84.415332
 30
0.0
 10
181.988304
 20
84.415332
 30
0.0
 10
180.882379
 20
85.053838
 30
0.0
 10
180.283959
 20
86.090332
 30
0.0
  0
SPLINE
  5
21f
100
AcDbEntity
  8
Layer_1
 62
1
100
AcDbSpline
 70
8
 71
3
 72
8
 73
4
 74
0
 40
0
 40
0
 40
0
 40
0
 40
1
 40
1
 40
1
 40
1
 10
180.283959
 20
86.090332
 30
0.0
 10
179.685539
 20
87.126826
 30
0.0
 10
179.685539
 20
88.403838
 30
0.0
 10
180.283959
 20
89.440332
 30
0.0
  0
SPLINE
  5
220
100
AcDbEntity
  8
Layer_1
 62
1
100
AcDbSpline
 70
8
 71
3
 72
8
 73
4
 74
0
 40
0
 40
0
 40
0
 40
0
 40
1
 40
1
 40
1
 40
1
 10
180.283959
 20
89.440332
 30
0.0
 10
180.882379
 20
90.476826
 30
0.0
 10
181.988304
 20
91.115332
 30
0.0
 10
183.185144
 20
91.115332
 30
0.0
  0
SPLINE
  5
221
100
AcDbEntity
  8
Layer_1
 62
1
100
AcDbSpline
 70
8
 71
3
 72
8
 73
4
 74
0
 40
0
 40
0
 40
0
 40
0
 40
1
 40
1
 40
1
 40
1
 10
183.185144
 20
91.115332
 30
0.0
 10
185.035298
 20
91.115332
 30
0.0
 10
186.535144
 20
89.615486
 30
0.0
 10
186.535144
 20
87.765332
 30
0.0
  0
SPLINE
  5
222
100
AcDbEntity
  8
Layer_1
 62
1
100
AcDbSpline
 70
8
 71
3
 72
8
 73
4
 74
0
 40
0
 40
0
 40
0
 40
0
 40
1
 40
1
 40
1
 40
1
 10
186.535144
 20
87.765332
 30
0.0
 10
186.535144
 20
85.915178
 30
0.0
 10
185.035298
 20
84.415332
 30
0.0
 10
183.185144
 20
84.415332
 30
0.0
  0
LWPOLYLINE
  5
223
100
AcDbEntity
  8
Layer_1
 62
1
100
AcDbPolyline
 90
1
 70
1
 10
114.097242
 20
84.415332
 30
0.0
  0
SPLINE
  5
224
100
AcDbEntity
  8
Layer_1
 62
1
100
AcDbSpline
 70
8
 71
3
 72
8
 73
4
 74
0
 40
0
 40
0
 40
0
 40
0
 40
1
 40
1
 40
1
 40
1
 10
195.885144
 20
84.415332
 30
0.0
 10
194.688304
 20
84.415332
 30
0.0
 10
193.582379
 20
85.053838
 30
0.0
 10
192.983959
 20
86.090332
 30
0.0
  0
SPLINE
  5
225
100
AcDbEntity
  8
Layer_1
 62
1
100
AcDbSpline
 70
8
 71
3
 72
8
 73
4
 74
0
 40
0
 40
0
 40
0
 40
0
 40
1
 40
1
 40
1
 40
1
 10
192.983959
 20
86.090332
 30
0.0
 10
192.385539
 20
87.126826
 30
0.0
 10
192.385539
 20
88.403838
 30
0.0
 10
192.983959
 20
89.440332
 30
0.0
  0
SPLINE
  5
226
100
AcDbEntity
  8
Layer_1
 62
1
100
AcDbSpline
 70
8
 71
3
 72
8
 73
4
 74
0
 40
0
 40
0
 40
0
 40
0
 40
1
 40
1
 40
1
 40
1
 10
192.983959
 20
89.440332
 30
0.0
 10
193.582379
 20
90.476826
 30
0.0
 10
194.688304
 20
91.115332
 30
0.0
 10
195.885144
 20
91.115332
 30
0.0
  0
SPLINE
  5
227
100
AcDbEntity
  8
Layer_1
 62
1
100
AcDbSpline
 70
8
 71
3
 72
8
 73
4
 74
0
 40
0
 40
0
 40
0
 40
0
 40
1
 40
1
 40
1
 40
1
 10
195.885144
 20
91.115332
 30
0.0
 10
197.735298
 20
91.115332
 30
0.0
 10
199.235144
 20
89.615486
 30
0.0
 10
199.235144
 20
87.765332
 30
0.0
  0
SPLINE
  5
228
100
AcDbEntity
  8
Layer_1
 62
1
100
AcDbSpline
 70
8
 71
3
 72
8
 73
4
 74
0
 40
0
 40
0
 40
0
 40
0
 40
1
 40
1
 40
1
 40
1
 10
199.235144
 20
87.765332
 30
0.0
 10
199.235144
 20
85.915178
 30
0.0
 10
197.735298
 20
84.415332
 30
0.0
 10
195.885144
 20
84.415332
 30
0.0
  0
LWPOLYLINE
  5
229
100
AcDbEntity
  8
Layer_1
 62
1
100
AcDbPolyline
 90
1
 70
1
 10
183.185144
 20
84.415332
 30
0.0
  0
SPLINE
  5
22a
100
AcDbEntity
  8
Layer_1
 62
1
100
AcDbSpline
 70
8
 71
3
 72
8
 73
4
 74
0
 40
0
 40
0
 40
0
 40
0
 40
1
 40
1
 40
1
 40
1
 10
205.029274
 20
83.277322
 30
0.0
 10
204.636282
 20
83.277322
 30
0.0
 10
204.273142
 20
83.067663
 30
0.0
 10
204.076646
 20
82.727322
 30
0.0
  0
SPLINE
  5
22b
100
AcDbEntity
  8
Layer_1
 62
1
100
AcDbSpline
 70
8
 71
3
 72
8
 73
4
 74
0
 40
0
 40
0
 40
0
 40
0
 40
1
 40
1
 40
1
 40
1
 10
204.076646
 20
82.727322
 30
0.0
 10
203.880150
 20
82.386981
 30
0.0
 10
203.880150
 20
81.967663
 30
0.0
 10
204.076646
 20
81.627322
 30
0.0
  0
SPLINE
  5
22c
100
AcDbEntity
  8
Layer_1
 62
1
100
AcDbSpline
 70
8
 71
3
 72
8
 73
4
 74
0
 40
0
 40
0
 40
0
 40
0
 40
1
 40
1
 40
1
 40
1
 10
204.076646
 20
81.627322
 30
0.0
 10
204.273142
 20
81.286981
 30
0.0
 10
204.636282
 20
81.077322
 30
0.0
 10
205.029274
 20
81.077322
 30
0.0
  0
SPLINE
  5
22d
100
AcDbEntity
  8
Layer_1
 62
1
100
AcDbSpline
 70
8
 71
3
 72
8
 73
4
 74
0
 40
0
 40
0
 40
0
 40
0
 40
1
 40
1
 40
1
 40
1
 10
205.029274
 20
81.077322
 30
0.0
 10
205.422267
 20
81.077322
 30
0.0
 10
205.785406
 20
81.286981
 30
0.0
 10
205.981902
 20
81.627322
 30
0.0
  0
SPLINE
  5
22e
100
AcDbEntity
  8
Layer_1
 62
1
100
AcDbSpline
 70
8
 71
3
 72
8
 73
4
 74
0
 40
0
 40
0
 40
0
 40
0
 40
1
 40
1
 40
1
 40
1
 10
205.981902
 20
81.627322
 30
0.0
 10
206.178399
 20
81.967663
 30
0.0
 10
206.178399
 20
82.386981
 30
0.0
 10
205.981902
 20
82.727322
 30
0.0
  0
SPLINE
  5
22f
100
AcDbEntity
  8
Layer_1
 62
1
100
AcDbSpline
 70
8
 71
3
 72
8
 73
4
 74
0
 40
0
 40
0
 40
0
 40
0
 40
1
 40
1
 40
1
 40
1
 10
205.981902
 20
82.727322
 30
0.0
 10
205.785406
 20
83.067663
 30
0.0
 10
205.422267
 20
83.277322
 30
0.0
 10
205.029274
 20
83.277322
 30
0.0
  0
LWPOLYLINE
  5
230
100
AcDbEntity
  8
Layer_1
 62
1
100
AcDbPolyline
 90
1
 70
1
 10
195.885144
 20
84.415332
 30
0.0
  0
SPLINE
  5
231
100
AcDbEntity
  8
Layer_1
 62
1
100
AcDbSpline
 70
8
 71
3
 72
8
 73
4
 74
0
 40
0
 40
0
 40
0
 40
0
 40
1
 40
1
 40
1
 40
1
 10
148.641363
 20
93.945532
 30
0.0
 10
148.248371
 20
93.945532
 30
0.0
 10
147.885231
 20
93.735873
 30
0.0
 10
147.688735
 20
93.395532
 30
0.0
  0
SPLINE
  5
232
100
AcDbEntity
  8
Layer_1
 62
1
100
AcDbSpline
 70
8
 71
3
 72
8
 73
4
 74
0
 40
0
 40
0
 40
0
 40
0
 40
1
 40
1
 40
1
 40
1
 10
147.688735
 20
93.395532
 30
0.0
 10
147.492239
 20
93.055191
 30
0.0
 10
147.492239
 20
92.635873
 30
0.0
 10
147.688735
 20
92.295532
 30
0.0
  0
SPLINE
  5
233
100
AcDbEntity
  8
Layer_1
 62
1
100
AcDbSpline
 70
8
 71
3
 72
8
 73
4
 74
0
 40
0
 40
0
 40
0
 40
0
 40
1
 40
1
 40
1
 40
1
 10
147.688735
 20
92.295532
 30
0.0
 10
147.885231
 20
91.955191
 30
0.0
 10
148.248371
 20
91.745532
 30
0.0
 10
148.641363
 20
91.745532
 30
0.0
  0
SPLINE
  5
234
100
AcDbEntity
  8
Layer_1
 62
1
100
AcDbSpline
 70
8
 71
3
 72
8
 73
4
 74
0
 40
0
 40
0
 40
0
 40
0
 40
1
 40
1
 40
1
 40
1
 10
148.641363
 20
91.745532
 30
0.0
 10
149.034355
 20
91.745532
 30
0.0
 10
149.397495
 20
91.955191
 30
0.0
 10
149.593991
 20
92.295532
 30
0.0
  0
SPLINE
  5
235
100
AcDbEntity
  8
Layer_1
 62
1
100
AcDbSpline
 70
8
 71
3
 72
8
 73
4
 74
0
 40
0
 40
0
 40
0
 40
0
 40
1
 40
1
 40
1
 40
1
 10
149.593991
 20
92.295532
 30
0.0
 10
149.790487
 20
92.635873
 30
0.0
 10
149.790487
 20
93.055191
 30
0.0
 10
149.593991
 20
93.395532
 30
0.0
  0
SPLINE
  5
236
100
AcDbEntity
  8
Layer_1
 62
1
100
AcDbSpline
 70
8
 71
3
 72
8
 73
4
 74
0
 40
0
 40
0
 40
0
 40
0
 40
1
 40
1
 40
1
 40
1
 10
149.593991
 20
93.395532
 30
0.0
 10
149.397495
 20
93.735873
 30
0.0
 10
149.034355
 20
93.945532
 30
0.0
 10
148.641363
 20
93.945532
 30
0.0
  0
LWPOLYLINE
  5
237
100
AcDbEntity
  8
Layer_1
 62
1
100
AcDbPolyline
 90
1
 70
1
 10
205.029274
 20
83.277322
 30
0.0
  0
SPLINE
  5
238
100
AcDbEntity
  8
Layer_1
 62
1
100
AcDbSpline
 70
8
 71
3
 72
8
 73
4
 74
0
 40
0
 40
0
 40
0
 40
0
 40
1
 40
1
 40
1
 40
1
 10
104.953242
 20
85.055122
 30
0.0
 10
104.560250
 20
85.055122
 30
0.0
 10
104.197110
 20
84.845463
 30
0.0
 10
104.000614
 20
84.505122
 30
0.0
  0
SPLINE
  5
239
100
AcDbEntity
  8
Layer_1
 62
1
100
AcDbSpline
 70
8
 71
3
 72
8
 73
4
 74
0
 40
0
 40
0
 40
0
 40
0
 40
1
 40
1
 40
1
 40
1
 10
104.000614
 20
84.505122
 30
0.0
 10
103.804118
 20
84.164781
 30
0.0
 10
103.804118
 20
83.745463
 30
0.0
 10
104.000614
 20
83.405122
 30
0.0
  0
SPLINE
  5
23a
100
AcDbEntity
  8
Layer_1
 62
1
100
AcDbSpline
 70
8
 71
3
 72
8
 73
4
 74
0
 40
0
 40
0
 40
0
 40
0
 40
1
 40
1
 40
1
 40
1
 10
104.000614
 20
83.405122
 30
0.0
 10
104.197110
 20
83.064781
 30
0.0
 10
104.560250
 20
82.855122
 30
0.0
 10
104.953242
 20
82.855122
 30
0.0
  0
SPLINE
  5
23b
100
AcDbEntity
  8
Layer_1
 62
1
100
AcDbSpline
 70
8
 71
3
 72
8
 73
4
 74
0
 40
0
 40
0
 40
0
 40
0
 40
1
 40
1
 40
1
 40
1
 10
104.953242
 20
82.855122
 30
0.0
 10
105.346234
 20
82.855122
 30
0.0
 10
105.709374
 20
83.064781
 30
0.0
 10
105.905870
 20
83.405122
 30
0.0
  0
SPLINE
  5
23c
100
AcDbEntity
  8
Layer_1
 62
1
100
AcDbSpline
 70
8
 71
3
 72
8
 73
4
 74
0
 40
0
 40
0
 40
0
 40
0
 40
1
 40
1
 40
1
 40
1
 10
105.905870
 20
83.405122
 30
0.0
 10
106.102366
 20
83.745463
 30
0.0
 10
106.102366
 20
84.164781
 30
0.0
 10
105.905870
 20
84.505122
 30
0.0
  0
SPLINE
  5
23d
100
AcDbEntity
  8
Layer_1
 62
1
100
AcDbSpline
 70
8
 71
3
 72
8
 73
4
 74
0
 40
0
 40
0
 40
0
 40
0
 40
1
 40
1
 40
1
 40
1
 10
105.905870
 20
84.505122
 30
0.0
 10
105.709374
 20
84.845463
 30
0.0
 10
105.346234
 20
85.055122
 30
0.0
 10
104.953242
 20
85.055122
 30
0.0
  0
LWPOLYLINE
  5
23e
100
AcDbEntity
  8
Layer_1
 62
1
100
AcDbPolyline
 90
1
 70
1
 10
148.641363
 20
93.945532
 30
0.0
  0
LWPOLYLINE
  5
23f
100
AcDbEntity
  8
Layer_1
 62
1
100
AcDbPolyline
 90
1
 70
1
 10
104.953242
 20
85.055122
 30
0.0
  0
SPLINE
  5
240
100
AcDbEntity
  8
Layer_1
 62
1
100
AcDbSpline
 70
8
 71
3
 72
8
 73
4
 74
0
 40
0
 40
0
 40
0
 40
0
 40
1
 40
1
 40
1
 40
1
 10
206.457464
 20
46.154461
 30
0.0
 10
206.457464
 20
39.723680
 30
0.0
 10
203.026684
 20
33.781394
 30
0.0
 10
197.457464
 20
30.566003
 30
0.0
  0
SPLINE
  5
241
100
AcDbEntity
  8
Layer_1
 62
1
100
AcDbSpline
 70
8
 71
3
 72
8
 73
4
 74
0
 40
0
 40
0
 40
0
 40
0
 40
1
 40
1
 40
1
 40
1
 10
197.457464
 20
30.566003
 30
0.0
 10
191.888245
 20
27.350613
 30
0.0
 10
185.026683
 20
27.350613
 30
0.0
 10
179.457464
 20
30.566003
 30
0.0
  0
SPLINE
  5
242
100
AcDbEntity
  8
Layer_1
 62
1
100
AcDbSpline
 70
8
 71
3
 72
8
 73
4
 74
0
 40
0
 40
0
 40
0
 40
0
 40
1
 40
1
 40
1
 40
1
 10
179.457464
 20
30.566003
 30
0.0
 10
173.888244
 20
33.781394
 30
0.0
 10
170.457464
 20
39.723680
 30
0.0
 10
170.457464
 20
46.154461
 30
0.0
  0
SPLINE
  5
243
100
AcDbEntity
  8
Layer_1
 62
1
100
AcDbSpline
 70
8
 71
3
 72
8
 73
4
 74
0
 40
0
 40
0
 40
0
 40
0
 40
1
 40
1
 40
1
 40
1
 10
170.457464
 20
46.154461
 30
0.0
 10
170.457464
 20
52.585242
 30
0.0
 10
173.888244
 20
58.527528
 30
0.0
 10
179.457464
 20
61.742919
 30
0.0
  0
SPLINE
  5
244
100
AcDbEntity
  8
Layer_1
 62
1
100
AcDbSpline
 70
8
 71
3
 72
8
 73
4
 74
0
 40
0
 40
0
 40
0
 40
0
 40
1
 40
1
 40
1
 40
1
 10
179.457464
 20
61.742919
 30
0.0
 10
185.026683
 20
64.958309
 30
0.0
 10
191.888245
 20
64.958309
 30
0.0
 10
197.457464
 20
61.742919
 30
0.0
  0
SPLINE
  5
245
100
AcDbEntity
  8
Layer_1
 62
1
100
AcDbSpline
 70
8
 71
3
 72
8
 73
4
 74
0
 40
0
 40
0
 40
0
 40
0
 40
1
 40
1
 40
1
 40
1
 10
197.457464
 20
61.742919
 30
0.0
 10
203.026684
 20
58.527528
 30
0.0
 10
206.457464
 20
52.585242
 30
0.0
 10
206.457464
 20
46.154461
 30
0.0
  0
LWPOLYLINE
  5
246
100
AcDbEntity
  8
Layer_1
 62
3
100
AcDbPolyline
 90
4
 70
1
 10
103.066544
 20
94.632822
 30
0.0
 10
206.920296
 20
94.632822
 30
0.0
 10
206.920296
 20
80.581798
 30
0.0
 10
103.066544
 20
80.581798
 30
0.0
  0
SPLINE
  5
247
100
AcDbEntity
  8
Layer_1
 62
3
100
AcDbSpline
 70
8
 71
3
 72
8
 73
4
 74
0
 40
0
 40
0
 40
0
 40
0
 40
1
 40
1
 40
1
 40
1
 10
213.997138
 20
46.154461
 30
0.0
 10
213.997137
 20
32.049289
 30
0.0
 10
202.562636
 20
20.614788
 30
0.0
 10
188.457464
 20
20.614788
 30
0.0
  0
SPLINE
  5
248
100
AcDbEntity
  8
Layer_1
 62
3
100
AcDbSpline
 70
8
 71
3
 72
8
 73
4
 74
0
 40
0
 40
0
 40
0
 40
0
 40
1
 40
1
 40
1
 40
1
 10
188.457464
 20
20.614788
 30
0.0
 10
174.352292
 20
20.614788
 30
0.0
 10
162.917791
 20
32.049289
 30
0.0
 10
162.917790
 20
46.154461
 30
0.0
  0
SPLINE
  5
249
100
AcDbEntity
  8
Layer_1
 62
3
100
AcDbSpline
 70
8
 71
3
 72
8
 73
4
 74
0
 40
0
 40
0
 40
0
 40
0
 40
1
 40
1
 40
1
 40
1
 10
162.917790
 20
46.154461
 30
0.0
 10
162.917790
 20
55.278908
 30
0.0
 10
167.785625
 20
63.710244
 30
0.0
 10
175.687627
 20
68.272467
 30
0.0
  0
SPLINE
  5
24a
100
AcDbEntity
  8
Layer_1
 62
3
100
AcDbSpline
 70
8
 71
3
 72
8
 73
4
 74
0
 40
0
 40
0
 40
0
 40
0
 40
1
 40
1
 40
1
 40
1
 10
175.687627
 20
68.272467
 30
0.0
 10
183.589630
 20
72.834690
 30
0.0
 10
193.325298
 20
72.834690
 30
0.0
 10
201.227301
 20
68.272467
 30
0.0
  0
SPLINE
  5
24b
100
AcDbEntity
  8
Layer_1
 62
3
100
AcDbSpline
 70
8
 71
3
 72
8
 73
4
 74
0
 40
0
 40
0
 40
0
 40
0
 40
1
 40
1
 40
1
 40
1
 10
201.227301
 20
68.272467
 30
0.0
 10
209.129303
 20
63.710244
 30
0.0
 10
213.997138
 20
55.278908
 30
0.0
 10
213.997138
 20
46.154461
 30
0.0
  0
LWPOLYLINE
  5
24c
100
AcDbEntity
  8
Layer_1
 62
1
100
AcDbPolyline
 90
1
 70
1
 10
206.457464
 20
46.154461
 30
0.0
  0
SPLINE
  5
24d
100
AcDbEntity
  8
Layer_1
 62
1
100
AcDbSpline
 70
8
 71
3
 72
8
 73
4
 74
0
 40
0
 40
0
 40
0
 40
0
 40
1
 40
1
 40
1
 40
1
 10
171.707374
 20
30.504461
 30
0.0
 10
171.314381
 20
30.504461
 30
0.0
 10
170.951242
 20
30.294802
 30
0.0
 10
170.754746
 20
29.954461
 30
0.0
  0
SPLINE
  5
24e
100
AcDbEntity
  8
Layer_1
 62
1
100
AcDbSpline
 70
8
 71
3
 72
8
 73
4
 74
0
 40
0
 40
0
 40
0
 40
0
 40
1
 40
1
 40
1
 40
1
 10
170.754746
 20
29.954461
 30
0.0
 10
170.558249
 20
29.614119
 30
0.0
 10
170.558249
 20
29.194802
 30
0.0
 10
170.754746
 20
28.854461
 30
0.0
  0
SPLINE
  5
24f
100
AcDbEntity
  8
Layer_1
 62
1
100
AcDbSpline
 70
8
 71
3
 72
8
 73
4
 74
0
 40
0
 40
0
 40
0
 40
0
 40
1
 40
1
 40
1
 40
1
 10
170.754746
 20
28.854461
 30
0.0
 10
170.951242
 20
28.514119
 30
0.0
 10
171.314381
 20
28.304461
 30
0.0
 10
171.707374
 20
28.304461
 30
0.0
  0
SPLINE
  5
250
100
AcDbEntity
  8
Layer_1
 62
1
100
AcDbSpline
 70
8
 71
3
 72
8
 73
4
 74
0
 40
0
 40
0
 40
0
 40
0
 40
1
 40
1
 40
1
 40
1
 10
171.707374
 20
28.304461
 30
0.0
 10
172.100366
 20
28.304461
 30
0.0
 10
172.463506
 20
28.514119
 30
0.0
 10
172.660002
 20
28.854461
 30
0.0
  0
SPLINE
  5
251
100
AcDbEntity
  8
Layer_1
 62
1
100
AcDbSpline
 70
8
 71
3
 72
8
 73
4
 74
0
 40
0
 40
0
 40
0
 40
0
 40
1
 40
1
 40
1
 40
1
 10
172.660002
 20
28.854461
 30
0.0
 10
172.856498
 20
29.194802
 30
0.0
 10
172.856498
 20
29.614119
 30
0.0
 10
172.660002
 20
29.954461
 30
0.0
  0
SPLINE
  5
252
100
AcDbEntity
  8
Layer_1
 62
1
100
AcDbSpline
 70
8
 71
3
 72
8
 73
4
 74
0
 40
0
 40
0
 40
0
 40
0
 40
1
 40
1
 40
1
 40
1
 10
172.660002
 20
29.954461
 30
0.0
 10
172.463506
 20
30.294802
 30
0.0
 10
172.100366
 20
30.504461
 30
0.0
 10
171.707374
 20
30.504461
 30
0.0
  0
LWPOLYLINE
  5
253
100
AcDbEntity
  8
Layer_1
 62
3
100
AcDbPolyline
 90
1
 70
1
 10
213.997138
 20
46.154461
 30
0.0
  0
SPLINE
  5
254
100
AcDbEntity
  8
Layer_1
 62
1
100
AcDbSpline
 70
8
 71
3
 72
8
 73
4
 74
0
 40
0
 40
0
 40
0
 40
0
 40
1
 40
1
 40
1
 40
1
 10
205.207594
 20
30.504461
 30
0.0
 10
204.814602
 20
30.504461
 30
0.0
 10
204.451462
 20
30.294802
 30
0.0
 10
204.254966
 20
29.954461
 30
0.0
  0
SPLINE
  5
255
100
AcDbEntity
  8
Layer_1
 62
1
100
AcDbSpline
 70
8
 71
3
 72
8
 73
4
 74
0
 40
0
 40
0
 40
0
 40
0
 40
1
 40
1
 40
1
 40
1
 10
204.254966
 20
29.954461
 30
0.0
 10
204.058470
 20
29.614119
 30
0.0
 10
204.058470
 20
29.194802
 30
0.0
 10
204.254966
 20
28.854461
 30
0.0
  0
SPLINE
  5
256
100
AcDbEntity
  8
Layer_1
 62
1
100
AcDbSpline
 70
8
 71
3
 72
8
 73
4
 74
0
 40
0
 40
0
 40
0
 40
0
 40
1
 40
1
 40
1
 40
1
 10
204.254966
 20
28.854461
 30
0.0
 10
204.451462
 20
28.514119
 30
0.0
 10
204.814602
 20
28.304461
 30
0.0
 10
205.207594
 20
28.304461
 30
0.0
  0
SPLINE
  5
257
100
AcDbEntity
  8
Layer_1
 62
1
100
AcDbSpline
 70
8
 71
3
 72
8
 73
4
 74
0
 40
0
 40
0
 40
0
 40
0
 40
1
 40
1
 40
1
 40
1
 10
205.207594
 20
28.304461
 30
0.0
 10
205.600587
 20
28.304461
 30
0.0
 10
205.963726
 20
28.514119
 30
0.0
 10
206.160222
 20
28.854461
 30
0.0
  0
SPLINE
  5
258
100
AcDbEntity
  8
Layer_1
 62
1
100
AcDbSpline
 70
8
 71
3
 72
8
 73
4
 74
0
 40
0
 40
0
 40
0
 40
0
 40
1
 40
1
 40
1
 40
1
 10
206.160222
 20
28.854461
 30
0.0
 10
206.356719
 20
29.194802
 30
0.0
 10
206.356719
 20
29.614119
 30
0.0
 10
206.160222
 20
29.954461
 30
0.0
  0
SPLINE
  5
259
100
AcDbEntity
  8
Layer_1
 62
1
100
AcDbSpline
 70
8
 71
3
 72
8
 73
4
 74
0
 40
0
 40
0
 40
0
 40
0
 40
1
 40
1
 40
1
 40
1
 10
206.160222
 20
29.954461
 30
0.0
 10
205.963726
 20
30.294802
 30
0.0
 10
205.600587
 20
30.504461
 30
0.0
 10
205.207594
 20
30.504461
 30
0.0
  0
LWPOLYLINE
  5
25a
100
AcDbEntity
  8
Layer_1
 62
1
100
AcDbPolyline
 90
1
 70
1
 10
171.707374
 20
30.504461
 30
0.0
  0
SPLINE
  5
25b
100
AcDbEntity
  8
Layer_1
 62
1
100
AcDbSpline
 70
8
 71
3
 72
8
 73
4
 74
0
 40
0
 40
0
 40
0
 40
0
 40
1
 40
1
 40
1
 40
1
 10
205.207594
 20
64.004512
 30
0.0
 10
204.814602
 20
64.004512
 30
0.0
 10
204.451462
 20
63.794853
 30
0.0
 10
204.254966
 20
63.454511
 30
0.0
  0
SPLINE
  5
25c
100
AcDbEntity
  8
Layer_1
 62
1
100
AcDbSpline
 70
8
 71
3
 72
8
 73
4
 74
0
 40
0
 40
0
 40
0
 40
0
 40
1
 40
1
 40
1
 40
1
 10
204.254966
 20
63.454511
 30
0.0
 10
204.058470
 20
63.114170
 30
0.0
 10
204.058470
 20
62.694853
 30
0.0
 10
204.254966
 20
62.354511
 30
0.0
  0
SPLINE
  5
25d
100
AcDbEntity
  8
Layer_1
 62
1
100
AcDbSpline
 70
8
 71
3
 72
8
 73
4
 74
0
 40
0
 40
0
 40
0
 40
0
 40
1
 40
1
 40
1
 40
1
 10
204.254966
 20
62.354511
 30
0.0
 10
204.451462
 20
62.014170
 30
0.0
 10
204.814602
 20
61.804511
 30
0.0
 10
205.207594
 20
61.804511
 30
0.0
  0
SPLINE
  5
25e
100
AcDbEntity
  8
Layer_1
 62
1
100
AcDbSpline
 70
8
 71
3
 72
8
 73
4
 74
0
 40
0
 40
0
 40
0
 40
0
 40
1
 40
1
 40
1
 40
1
 10
205.207594
 20
61.804511
 30
0.0
 10
205.600587
 20
61.804511
 30
0.0
 10
205.963726
 20
62.014170
 30
0.0
 10
206.160222
 20
62.354511
 30
0.0
  0
SPLINE
  5
25f
100
AcDbEntity
  8
Layer_1
 62
1
100
AcDbSpline
 70
8
 71
3
 72
8
 73
4
 74
0
 40
0
 40
0
 40
0
 40
0
 40
1
 40
1
 40
1
 40
1
 10
206.160222
 20
62.354511
 30
0.0
 10
206.356719
 20
62.694853
 30
0.0
 10
206.356719
 20
63.114170
 30
0.0
 10
206.160222
 20
63.454511
 30
0.0
  0
SPLINE
  5
260
100
AcDbEntity
  8
Layer_1
 62
1
100
AcDbSpline
 70
8
 71
3
 72
8
 73
4
 74
0
 40
0
 40
0
 40
0
 40
0
 40
1
 40
1
 40
1
 40
1
 10
206.160222
 20
63.454511
 30
0.0
 10
205.963726
 20
63.794853
 30
0.0
 10
205.600587
 20
64.004512
 30
0.0
 10
205.207594
 20
64.004512
 30
0.0
  0
LWPOLYLINE
  5
261
100
AcDbEntity
  8
Layer_1
 62
1
100
AcDbPolyline
 90
1
 70
1
 10
205.207594
 20
30.504461
 30
0.0
  0
SPLINE
  5
262
100
AcDbEntity
  8
Layer_1
 62
1
100
AcDbSpline
 70
8
 71
3
 72
8
 73
4
 74
0
 40
0
 40
0
 40
0
 40
0
 40
1
 40
1
 40
1
 40
1
 10
171.707374
 20
64.004512
 30
0.0
 10
171.314381
 20
64.004512
 30
0.0
 10
170.951242
 20
63.794853
 30
0.0
 10
170.754746
 20
63.454511
 30
0.0
  0
SPLINE
  5
263
100
AcDbEntity
  8
Layer_1
 62
1
100
AcDbSpline
 70
8
 71
3
 72
8
 73
4
 74
0
 40
0
 40
0
 40
0
 40
0
 40
1
 40
1
 40
1
 40
1
 10
170.754746
 20
63.454511
 30
0.0
 10
170.558249
 20
63.114170
 30
0.0
 10
170.558249
 20
62.694853
 30
0.0
 10
170.754746
 20
62.354511
 30
0.0
  0
SPLINE
  5
264
100
AcDbEntity
  8
Layer_1
 62
1
100
AcDbSpline
 70
8
 71
3
 72
8
 73
4
 74
0
 40
0
 40
0
 40
0
 40
0
 40
1
 40
1
 40
1
 40
1
 10
170.754746
 20
62.354511
 30
0.0
 10
170.951242
 20
62.014170
 30
0.0
 10
171.314381
 20
61.804511
 30
0.0
 10
171.707374
 20
61.804511
 30
0.0
  0
SPLINE
  5
265
100
AcDbEntity
  8
Layer_1
 62
1
100
AcDbSpline
 70
8
 71
3
 72
8
 73
4
 74
0
 40
0
 40
0
 40
0
 40
0
 40
1
 40
1
 40
1
 40
1
 10
171.707374
 20
61.804511
 30
0.0
 10
172.100366
 20
61.804511
 30
0.0
 10
172.463506
 20
62.014170
 30
0.0
 10
172.660002
 20
62.354511
 30
0.0
  0
SPLINE
  5
266
100
AcDbEntity
  8
Layer_1
 62
1
100
AcDbSpline
 70
8
 71
3
 72
8
 73
4
 74
0
 40
0
 40
0
 40
0
 40
0
 40
1
 40
1
 40
1
 40
1
 10
172.660002
 20
62.354511
 30
0.0
 10
172.856498
 20
62.694853
 30
0.0
 10
172.856498
 20
63.114170
 30
0.0
 10
172.660002
 20
63.454511
 30
0.0
  0
SPLINE
  5
267
100
AcDbEntity
  8
Layer_1
 62
1
100
AcDbSpline
 70
8
 71
3
 72
8
 73
4
 74
0
 40
0
 40
0
 40
0
 40
0
 40
1
 40
1
 40
1
 40
1
 10
172.660002
 20
63.454511
 30
0.0
 10
172.463506
 20
63.794853
 30
0.0
 10
172.100366
 20
64.004512
 30
0.0
 10
171.707374
 20
64.004512
 30
0.0
  0
LWPOLYLINE
  5
268
100
AcDbEntity
  8
Layer_1
 62
1
100
AcDbPolyline
 90
1
 70
1
 10
205.207594
 20
64.004512
 30
0.0
  0
SPLINE
  5
269
100
AcDbEntity
  8
Layer_1
 62
1
100
AcDbSpline
 70
8
 71
3
 72
8
 73
4
 74
0
 40
0
 40
0
 40
0
 40
0
 40
1
 40
1
 40
1
 40
1
 10
213.730265
 20
92.486262
 30
0.0
 10
213.122751
 20
92.486262
 30
0.0
 10
212.630265
 20
92.978749
 30
0.0
 10
212.630265
 20
93.586262
 30
0.0
  0
SPLINE
  5
26a
100
AcDbEntity
  8
Layer_1
 62
1
100
AcDbSpline
 70
8
 71
3
 72
8
 73
4
 74
0
 40
0
 40
0
 40
0
 40
0
 40
1
 40
1
 40
1
 40
1
 10
212.630265
 20
93.586262
 30
0.0
 10
212.630265
 20
94.193775
 30
0.0
 10
213.122751
 20
94.686262
 30
0.0
 10
213.730265
 20
94.686262
 30
0.0
  0
SPLINE
  5
26b
100
AcDbEntity
  8
Layer_1
 62
1
100
AcDbSpline
 70
8
 71
3
 72
8
 73
4
 74
0
 40
0
 40
0
 40
0
 40
0
 40
1
 40
1
 40
1
 40
1
 10
213.730265
 20
94.686262
 30
0.0
 10
214.337778
 20
94.686262
 30
0.0
 10
214.830264
 20
94.193775
 30
0.0
 10
214.830264
 20
93.586262
 30
0.0
  0
SPLINE
  5
26c
100
AcDbEntity
  8
Layer_1
 62
1
100
AcDbSpline
 70
8
 71
3
 72
8
 73
4
 74
0
 40
0
 40
0
 40
0
 40
0
 40
1
 40
1
 40
1
 40
1
 10
214.830264
 20
93.586262
 30
0.0
 10
214.830264
 20
92.978749
 30
0.0
 10
214.337778
 20
92.486262
 30
0.0
 10
213.730265
 20
92.486262
 30
0.0
  0
LWPOLYLINE
  5
26d
100
AcDbEntity
  8
Layer_1
 62
1
100
AcDbPolyline
 90
1
 70
1
 10
171.707374
 20
64.004512
 30
0.0
  0
SPLINE
  5
26e
100
AcDbEntity
  8
Layer_1
 62
1
100
AcDbSpline
 70
8
 71
3
 72
8
 73
4
 74
0
 40
0
 40
0
 40
0
 40
0
 40
1
 40
1
 40
1
 40
1
 10
213.730265
 20
21.486260
 30
0.0
 10
213.337272
 20
21.486260
 30
0.0
 10
212.974133
 20
21.695919
 30
0.0
 10
212.777637
 20
22.036260
 30
0.0
  0
SPLINE
  5
26f
100
AcDbEntity
  8
Layer_1
 62
1
100
AcDbSpline
 70
8
 71
3
 72
8
 73
4
 74
0
 40
0
 40
0
 40
0
 40
0
 40
1
 40
1
 40
1
 40
1
 10
212.777637
 20
22.036260
 30
0.0
 10
212.581141
 20
22.376602
 30
0.0
 10
212.581141
 20
22.795919
 30
0.0
 10
212.777637
 20
23.136261
 30
0.0
  0
SPLINE
  5
270
100
AcDbEntity
  8
Layer_1
 62
1
100
AcDbSpline
 70
8
 71
3
 72
8
 73
4
 74
0
 40
0
 40
0
 40
0
 40
0
 40
1
 40
1
 40
1
 40
1
 10
212.777637
 20
23.136261
 30
0.0
 10
212.974133
 20
23.476602
 30
0.0
 10
213.337272
 20
23.686261
 30
0.0
 10
213.730265
 20
23.686261
 30
0.0
  0
SPLINE
  5
271
100
AcDbEntity
  8
Layer_1
 62
1
100
AcDbSpline
 70
8
 71
3
 72
8
 73
4
 74
0
 40
0
 40
0
 40
0
 40
0
 40
1
 40
1
 40
1
 40
1
 10
213.730265
 20
23.686261
 30
0.0
 10
214.123257
 20
23.686261
 30
0.0
 10
214.486396
 20
23.476602
 30
0.0
 10
214.682893
 20
23.136261
 30
0.0
  0
SPLINE
  5
272
100
AcDbEntity
  8
Layer_1
 62
1
100
AcDbSpline
 70
8
 71
3
 72
8
 73
4
 74
0
 40
0
 40
0
 40
0
 40
0
 40
1
 40
1
 40
1
 40
1
 10
214.682893
 20
23.136261
 30
0.0
 10
214.879389
 20
22.795919
 30
0.0
 10
214.879389
 20
22.376602
 30
0.0
 10
214.682893
 20
22.036260
 30
0.0
  0
SPLINE
  5
273
100
AcDbEntity
  8
Layer_1
 62
1
100
AcDbSpline
 70
8
 71
3
 72
8
 73
4
 74
0
 40
0
 40
0
 40
0
 40
0
 40
1
 40
1
 40
1
 40
1
 10
214.682893
 20
22.036260
 30
0.0
 10
214.486396
 20
21.695919
 30
0.0
 10
214.123257
 20
21.486260
 30
0.0
 10
213.730265
 20
21.486260
 30
0.0
  0
LWPOLYLINE
  5
274
100
AcDbEntity
  8
Layer_1
 62
1
100
AcDbPolyline
 90
1
 70
1
 10
213.730265
 20
92.486262
 30
0.0
  0
LWPOLYLINE
  5
275
100
AcDbEntity
  8
Layer_1
 62
1
100
AcDbPolyline
 90
1
 70
1
 10
213.730265
 20
21.486260
 30
0.0
  0
LWPOLYLINE
  5
276
100
AcDbEntity
  8
Layer_1
 62
1
100
AcDbPolyline
 90
4
 70
1
 10
214.480325
 20
91.586262
 30
0.0
 10
214.480325
 20
24.586261
 30
0.0
 10
212.980325
 20
24.586261
 30
0.0
 10
212.980325
 20
91.586262
 30
0.0
  0
LWPOLYLINE
  5
277
100
AcDbEntity
  8
Layer_1
 62
6
100
AcDbPolyline
 90
4
 70
1
 10
209.180324
 20
95.086262
 30
0.0
 10
218.280324
 20
95.086262
 30
0.0
 10
218.280324
 20
21.086260
 30
0.0
 10
209.180324
 20
21.086260
 30
0.0
  0
SPLINE
  5
278
100
AcDbEntity
  8
Layer_1
 62
1
100
AcDbSpline
 70
8
 71
3
 72
8
 73
4
 74
0
 40
0
 40
0
 40
0
 40
0
 40
1
 40
1
 40
1
 40
1
 10
58.649654
 20
53.092101
 30
0.0
 10
58.649654
 20
50.233976
 30
0.0
 10
57.124863
 20
47.592960
 30
0.0
 10
54.649654
 20
46.163898
 30
0.0
  0
SPLINE
  5
279
100
AcDbEntity
  8
Layer_1
 62
1
100
AcDbSpline
 70
8
 71
3
 72
8
 73
4
 74
0
 40
0
 40
0
 40
0
 40
0
 40
1
 40
1
 40
1
 40
1
 10
54.649654
 20
46.163898
 30
0.0
 10
52.174445
 20
44.734835
 30
0.0
 10
49.124863
 20
44.734835
 30
0.0
 10
46.649654
 20
46.163898
 30
0.0
  0
SPLINE
  5
27a
100
AcDbEntity
  8
Layer_1
 62
1
100
AcDbSpline
 70
8
 71
3
 72
8
 73
4
 74
0
 40
0
 40
0
 40
0
 40
0
 40
1
 40
1
 40
1
 40
1
 10
46.649654
 20
46.163898
 30
0.0
 10
44.174445
 20
47.592960
 30
0.0
 10
42.649654
 20
50.233976
 30
0.0
 10
42.649654
 20
53.092101
 30
0.0
  0
SPLINE
  5
27b
100
AcDbEntity
  8
Layer_1
 62
1
100
AcDbSpline
 70
8
 71
3
 72
8
 73
4
 74
0
 40
0
 40
0
 40
0
 40
0
 40
1
 40
1
 40
1
 40
1
 10
42.649654
 20
53.092101
 30
0.0
 10
42.649654
 20
55.950226
 30
0.0
 10
44.174445
 20
58.591242
 30
0.0
 10
46.649654
 20
60.020305
 30
0.0
  0
SPLINE
  5
27c
100
AcDbEntity
  8
Layer_1
 62
1
100
AcDbSpline
 70
8
 71
3
 72
8
 73
4
 74
0
 40
0
 40
0
 40
0
 40
0
 40
1
 40
1
 40
1
 40
1
 10
46.649654
 20
60.020305
 30
0.0
 10
49.124863
 20
61.449367
 30
0.0
 10
52.174445
 20
61.449367
 30
0.0
 10
54.649654
 20
60.020305
 30
0.0
  0
SPLINE
  5
27d
100
AcDbEntity
  8
Layer_1
 62
1
100
AcDbSpline
 70
8
 71
3
 72
8
 73
4
 74
0
 40
0
 40
0
 40
0
 40
0
 40
1
 40
1
 40
1
 40
1
 10
54.649654
 20
60.020305
 30
0.0
 10
57.124863
 20
58.591242
 30
0.0
 10
58.649654
 20
55.950226
 30
0.0
 10
58.649654
 20
53.092101
 30
0.0
  0
LWPOLYLINE
  5
27e
100
AcDbEntity
  8
Layer_1
 62
3
100
AcDbPolyline
 90
4
 70
1
 10
210.813704
 20
95.163162
 30
0.0
 10
216.626817
 20
95.163162
 30
0.0
 10
216.626817
 20
20.995870
 30
0.0
 10
210.813704
 20
20.995870
 30
0.0
  0
SPLINE
  5
27f
100
AcDbEntity
  8
Layer_1
 62
3
100
AcDbSpline
 70
8
 71
3
 72
8
 73
4
 74
0
 40
0
 40
0
 40
0
 40
0
 40
1
 40
1
 40
1
 40
1
 10
61.649654
 20
53.092101
 30
0.0
 10
61.649654
 20
49.162180
 30
0.0
 10
59.553066
 20
45.530782
 30
0.0
 10
56.149654
 20
43.565822
 30
0.0
  0
SPLINE
  5
280
100
AcDbEntity
  8
Layer_1
 62
3
100
AcDbSpline
 70
8
 71
3
 72
8
 73
4
 74
0
 40
0
 40
0
 40
0
 40
0
 40
1
 40
1
 40
1
 40
1
 10
56.149654
 20
43.565822
 30
0.0
 10
52.746242
 20
41.600861
 30
0.0
 10
48.553066
 20
41.600861
 30
0.0
 10
45.149654
 20
43.565822
 30
0.0
  0
SPLINE
  5
281
100
AcDbEntity
  8
Layer_1
 62
3
100
AcDbSpline
 70
8
 71
3
 72
8
 73
4
 74
0
 40
0
 40
0
 40
0
 40
0
 40
1
 40
1
 40
1
 40
1
 10
45.149654
 20
43.565822
 30
0.0
 10
41.746242
 20
45.530782
 30
0.0
 10
39.649654
 20
49.162180
 30
0.0
 10
39.649654
 20
53.092101
 30
0.0
  0
SPLINE
  5
282
100
AcDbEntity
  8
Layer_1
 62
3
100
AcDbSpline
 70
8
 71
3
 72
8
 73
4
 74
0
 40
0
 40
0
 40
0
 40
0
 40
1
 40
1
 40
1
 40
1
 10
39.649654
 20
53.092101
 30
0.0
 10
39.649654
 20
59.167233
 30
0.0
 10
44.574522
 20
64.092101
 30
0.0
 10
50.649654
 20
64.092101
 30
0.0
  0
SPLINE
  5
283
100
AcDbEntity
  8
Layer_1
 62
3
100
AcDbSpline
 70
8
 71
3
 72
8
 73
4
 74
0
 40
0
 40
0
 40
0
 40
0
 40
1
 40
1
 40
1
 40
1
 10
50.649654
 20
64.092101
 30
0.0
 10
56.724786
 20
64.092101
 30
0.0
 10
61.649654
 20
59.167233
 30
0.0
 10
61.649654
 20
53.092101
 30
0.0
  0
LWPOLYLINE
  5
284
100
AcDbEntity
  8
Layer_1
 62
1
100
AcDbPolyline
 90
1
 70
1
 10
58.649654
 20
53.092101
 30
0.0
  0
LWPOLYLINE
  5
285
100
AcDbEntity
  8
Layer_1
 62
3
100
AcDbPolyline
 90
1
 70
1
 10
61.649654
 20
53.092101
 30
0.0
  0
LWPOLYLINE
  5
286
100
AcDbEntity
  8
Layer_1
 62
4
100
AcDbPolyline
 90
10
 70
1
 10
61.889269
 20
60.886341
 30
0.0
 10
63.470219
 20
60.886341
 30
0.0
 10
63.470219
 20
60.496701
 30
0.0
 10
62.274429
 20
60.496701
 30
0.0
 10
62.274429
 20
59.784601
 30
0.0
 10
63.470219
 20
59.784601
 30
0.0
 10
63.470219
 20
59.399431
 30
0.0
 10
62.278909
 20
59.399431
 30
0.0
 10
62.278909
 20
58.033451
 30
0.0
 10
61.889269
 20
58.033451
 30
0.0
  0
SPLINE
  5
287
100
AcDbEntity
  8
Layer_1
 62
4
100
AcDbSpline
 70
8
 71
3
 72
8
 73
4
 74
0
 40
0
 40
0
 40
0
 40
0
 40
1
 40
1
 40
1
 40
1
 10
64.303249
 20
59.128481
 30
0.0
 10
64.303249
 20
58.868721
 30
0.0
 10
64.365203
 20
58.667928
 30
0.0
 10
64.489109
 20
58.526101
 30
0.0
  0
SPLINE
  5
288
100
AcDbEntity
  8
Layer_1
 62
4
100
AcDbSpline
 70
8
 71
3
 72
8
 73
4
 74
0
 40
0
 40
0
 40
0
 40
0
 40
1
 40
1
 40
1
 40
1
 10
64.489109
 20
58.526101
 30
0.0
 10
64.614509
 20
58.384281
 30
0.0
 10
64.791416
 20
58.313371
 30
0.0
 10
65.019829
 20
58.313371
 30
0.0
  0
SPLINE
  5
289
100
AcDbEntity
  8
Layer_1
 62
4
100
AcDbSpline
 70
8
 71
3
 72
8
 73
4
 74
0
 40
0
 40
0
 40
0
 40
0
 40
1
 40
1
 40
1
 40
1
 10
65.019829
 20
58.313371
 30
0.0
 10
65.246743
 20
58.313371
 30
0.0
 10
65.422899
 20
58.378311
 30
0.0
 10
65.548299
 20
58.508191
 30
0.0
  0
SPLINE
  5
28a
100
AcDbEntity
  8
Layer_1
 62
4
100
AcDbSpline
 70
8
 71
3
 72
8
 73
4
 74
0
 40
0
 40
0
 40
0
 40
0
 40
1
 40
1
 40
1
 40
1
 10
65.548299
 20
58.508191
 30
0.0
 10
65.675199
 20
58.639565
 30
0.0
 10
65.738649
 20
58.823935
 30
0.0
 10
65.738649
 20
59.061301
 30
0.0
  0
LWPOLYLINE
  5
28b
100
AcDbEntity
  8
Layer_1
 62
4
100
AcDbPolyline
 90
3
 70
0
 10
63.913609
 20
60.881861
 30
0.0
 10
64.303249
 20
60.881861
 30
0.0
 10
64.303249
 20
59.128481
 30
0.0
  0
SPLINE
  5
28c
100
AcDbEntity
  8
Layer_1
 62
4
100
AcDbSpline
 70
8
 71
3
 72
8
 73
4
 74
0
 40
0
 40
0
 40
0
 40
0
 40
1
 40
1
 40
1
 40
1
 10
66.128289
 20
59.088171
 30
0.0
 10
66.128289
 20
58.738838
 30
0.0
 10
66.028266
 20
58.459671
 30
0.0
 10
65.828219
 20
58.250671
 30
0.0
  0
SPLINE
  5
28d
100
AcDbEntity
  8
Layer_1
 62
4
100
AcDbSpline
 70
8
 71
3
 72
8
 73
4
 74
0
 40
0
 40
0
 40
0
 40
0
 40
1
 40
1
 40
1
 40
1
 10
65.828219
 20
58.250671
 30
0.0
 10
65.629666
 20
58.041665
 30
0.0
 10
65.364679
 20
57.937161
 30
0.0
 10
65.033259
 20
57.937161
 30
0.0
  0
SPLINE
  5
28e
100
AcDbEntity
  8
Layer_1
 62
4
100
AcDbSpline
 70
8
 71
3
 72
8
 73
4
 74
0
 40
0
 40
0
 40
0
 40
0
 40
1
 40
1
 40
1
 40
1
 10
65.033259
 20
57.937161
 30
0.0
 10
64.694379
 20
57.937161
 30
0.0
 10
64.422676
 20
58.043158
 30
0.0
 10
64.218149
 20
58.255151
 30
0.0
  0
SPLINE
  5
28f
100
AcDbEntity
  8
Layer_1
 62
4
100
AcDbSpline
 70
8
 71
3
 72
8
 73
4
 74
0
 40
0
 40
0
 40
0
 40
0
 40
1
 40
1
 40
1
 40
1
 10
64.218149
 20
58.255151
 30
0.0
 10
64.015123
 20
58.467138
 30
0.0
 10
63.913609
 20
58.779895
 30
0.0
 10
63.913609
 20
59.193421
 30
0.0
  0
LWPOLYLINE
  5
290
100
AcDbEntity
  8
Layer_1
 62
4
100
AcDbPolyline
 90
4
 70
0
 10
65.738649
 20
59.061301
 30
0.0
 10
65.738649
 20
60.881861
 30
0.0
 10
66.128289
 20
60.881861
 30
0.0
 10
66.128289
 20
59.088171
 30
0.0
  0
LWPOLYLINE
  5
291
100
AcDbEntity
  8
Layer_1
 62
4
100
AcDbPolyline
 90
2
 70
0
 10
63.913609
 20
59.193421
 30
0.0
 10
63.913609
 20
60.881861
 30
0.0
  0
LWPOLYLINE
  5
292
100
AcDbEntity
  8
Layer_1
 62
4
100
AcDbPolyline
 90
8
 70
1
 10
66.520169
 20
60.886341
 30
0.0
 10
68.264589
 20
60.886341
 30
0.0
 10
68.264589
 20
60.496701
 30
0.0
 10
67.583839
 20
60.496701
 30
0.0
 10
67.583839
 20
58.033451
 30
0.0
 10
67.198679
 20
58.033451
 30
0.0
 10
67.198679
 20
60.496701
 30
0.0
 10
66.520169
 20
60.496701
 30
0.0
  0
LWPOLYLINE
  5
293
100
AcDbEntity
  8
Layer_1
 62
4
100
AcDbPolyline
 90
10
 70
1
 10
62.430279
 20
56.976971
 30
0.0
 10
63.646399
 20
56.976971
 30
0.0
 10
63.646399
 20
56.677251
 30
0.0
 10
62.726559
 20
56.677251
 30
0.0
 10
62.726559
 20
56.129481
 30
0.0
 10
63.646399
 20
56.129481
 30
0.0
 10
63.646399
 20
55.833201
 30
0.0
 10
62.730009
 20
55.833201
 30
0.0
 10
62.730009
 20
54.782451
 30
0.0
 10
62.430279
 20
54.782451
 30
0.0
  0
SPLINE
  5
294
100
AcDbEntity
  8
Layer_1
 62
4
100
AcDbSpline
 70
8
 71
3
 72
8
 73
4
 74
0
 40
0
 40
0
 40
0
 40
0
 40
1
 40
1
 40
1
 40
1
 10
64.287189
 20
55.624771
 30
0.0
 10
64.287189
 20
55.424958
 30
0.0
 10
64.334846
 20
55.270505
 30
0.0
 10
64.430159
 20
55.161411
 30
0.0
  0
SPLINE
  5
295
100
AcDbEntity
  8
Layer_1
 62
4
100
AcDbSpline
 70
8
 71
3
 72
8
 73
4
 74
0
 40
0
 40
0
 40
0
 40
0
 40
1
 40
1
 40
1
 40
1
 10
64.430159
 20
55.161411
 30
0.0
 10
64.526619
 20
55.052311
 30
0.0
 10
64.662699
 20
54.997761
 30
0.0
 10
64.838399
 20
54.997761
 30
0.0
  0
SPLINE
  5
296
100
AcDbEntity
  8
Layer_1
 62
4
100
AcDbSpline
 70
8
 71
3
 72
8
 73
4
 74
0
 40
0
 40
0
 40
0
 40
0
 40
1
 40
1
 40
1
 40
1
 10
64.838399
 20
54.997761
 30
0.0
 10
65.012953
 20
54.997761
 30
0.0
 10
65.148463
 20
55.047718
 30
0.0
 10
65.244929
 20
55.147631
 30
0.0
  0
SPLINE
  5
297
100
AcDbEntity
  8
Layer_1
 62
4
100
AcDbSpline
 70
8
 71
3
 72
8
 73
4
 74
0
 40
0
 40
0
 40
0
 40
0
 40
1
 40
1
 40
1
 40
1
 10
65.244929
 20
55.147631
 30
0.0
 10
65.342536
 20
55.248685
 30
0.0
 10
65.391339
 20
55.390508
 30
0.0
 10
65.391339
 20
55.573101
 30
0.0
  0
LWPOLYLINE
  5
298
100
AcDbEntity
  8
Layer_1
 62
4
100
AcDbPolyline
 90
3
 70
0
 10
63.987469
 20
56.973531
 30
0.0
 10
64.287189
 20
56.973531
 30
0.0
 10
64.287189
 20
55.624771
 30
0.0
  0
SPLINE
  5
299
100
AcDbEntity
  8
Layer_1
 62
4
100
AcDbSpline
 70
8
 71
3
 72
8
 73
4
 74
0
 40
0
 40
0
 40
0
 40
0
 40
1
 40
1
 40
1
 40
1
 10
65.691069
 20
55.593771
 30
0.0
 10
65.691069
 20
55.325051
 30
0.0
 10
65.614126
 20
55.110305
 30
0.0
 10
65.460239
 20
54.949531
 30
0.0
  0
SPLINE
  5
29a
100
AcDbEntity
  8
Layer_1
 62
4
100
AcDbSpline
 70
8
 71
3
 72
8
 73
4
 74
0
 40
0
 40
0
 40
0
 40
0
 40
1
 40
1
 40
1
 40
1
 10
65.460239
 20
54.949531
 30
0.0
 10
65.307506
 20
54.788765
 30
0.0
 10
65.103673
 20
54.708381
 30
0.0
 10
64.848739
 20
54.708381
 30
0.0
  0
SPLINE
  5
29b
100
AcDbEntity
  8
Layer_1
 62
4
100
AcDbSpline
 70
8
 71
3
 72
8
 73
4
 74
0
 40
0
 40
0
 40
0
 40
0
 40
1
 40
1
 40
1
 40
1
 10
64.848739
 20
54.708381
 30
0.0
 10
64.588059
 20
54.708381
 30
0.0
 10
64.379056
 20
54.789915
 30
0.0
 10
64.221729
 20
54.952981
 30
0.0
  0
SPLINE
  5
29c
100
AcDbEntity
  8
Layer_1
 62
4
100
AcDbSpline
 70
8
 71
3
 72
8
 73
4
 74
0
 40
0
 40
0
 40
0
 40
0
 40
1
 40
1
 40
1
 40
1
 10
64.221729
 20
54.952981
 30
0.0
 10
64.065556
 20
55.116048
 30
0.0
 10
63.987469
 20
55.356631
 30
0.0
 10
63.987469
 20
55.674731
 30
0.0
  0
LWPOLYLINE
  5
29d
100
AcDbEntity
  8
Layer_1
 62
4
100
AcDbPolyline
 90
4
 70
0
 10
65.391339
 20
55.573101
 30
0.0
 10
65.391339
 20
56.973531
 30
0.0
 10
65.691069
 20
56.973531
 30
0.0
 10
65.691069
 20
55.593771
 30
0.0
  0
LWPOLYLINE
  5
29e
100
AcDbEntity
  8
Layer_1
 62
4
100
AcDbPolyline
 90
2
 70
0
 10
63.987469
 20
55.674731
 30
0.0
 10
63.987469
 20
56.973531
 30
0.0
  0
SPLINE
  5
29f
100
AcDbEntity
  8
Layer_1
 62
1
100
AcDbSpline
 70
8
 71
3
 72
8
 73
4
 74
0
 40
0
 40
0
 40
0
 40
0
 40
1
 40
1
 40
1
 40
1
 10
17.863834
 20
39.613841
 30
0.0
 10
17.863834
 20
37.818915
 30
0.0
 10
16.408760
 20
36.363841
 30
0.0
 10
14.613834
 20
36.363841
 30
0.0
  0
SPLINE
  5
2a0
100
AcDbEntity
  8
Layer_1
 62
1
100
AcDbSpline
 70
8
 71
3
 72
8
 73
4
 74
0
 40
0
 40
0
 40
0
 40
0
 40
1
 40
1
 40
1
 40
1
 10
14.613834
 20
36.363841
 30
0.0
 10
12.818909
 20
36.363841
 30
0.0
 10
11.363834
 20
37.818915
 30
0.0
 10
11.363834
 20
39.613841
 30
0.0
  0
SPLINE
  5
2a1
100
AcDbEntity
  8
Layer_1
 62
1
100
AcDbSpline
 70
8
 71
3
 72
8
 73
4
 74
0
 40
0
 40
0
 40
0
 40
0
 40
1
 40
1
 40
1
 40
1
 10
11.363834
 20
39.613841
 30
0.0
 10
11.363834
 20
41.408766
 30
0.0
 10
12.818909
 20
42.863841
 30
0.0
 10
14.613834
 20
42.863841
 30
0.0
  0
SPLINE
  5
2a2
100
AcDbEntity
  8
Layer_1
 62
1
100
AcDbSpline
 70
8
 71
3
 72
8
 73
4
 74
0
 40
0
 40
0
 40
0
 40
0
 40
1
 40
1
 40
1
 40
1
 10
14.613834
 20
42.863841
 30
0.0
 10
16.408760
 20
42.863841
 30
0.0
 10
17.863834
 20
41.408766
 30
0.0
 10
17.863834
 20
39.613841
 30
0.0
  0
LWPOLYLINE
  5
2a3
100
AcDbEntity
  8
Layer_1
 62
4
100
AcDbPolyline
 90
8
 70
1
 10
65.992509
 20
56.976971
 30
0.0
 10
67.334379
 20
56.976971
 30
0.0
 10
67.334379
 20
56.677251
 30
0.0
 10
66.810719
 20
56.677251
 30
0.0
 10
66.810719
 20
54.782451
 30
0.0
 10
66.514439
 20
54.782451
 30
0.0
 10
66.514439
 20
56.677251
 30
0.0
 10
65.992509
 20
56.677251
 30
0.0
  0
LWPOLYLINE
  5
2a4
100
AcDbEntity
  8
Layer_1
 62
1
100
AcDbPolyline
 90
1
 70
1
 10
17.863834
 20
39.613841
 30
0.0
  0
LWPOLYLINE
  5
2a5
100
AcDbEntity
  8
Layer_1
 62
6
100
AcDbPolyline
 90
4
 70
1
 10
2.113834
 20
52.113841
 30
0.0
 10
27.113834
 20
52.113841
 30
0.0
 10
27.113834
 20
27.113841
 30
0.0
 10
2.113834
 20
27.113841
 30
0.0
  0
SPLINE
  5
2a6
100
AcDbEntity
  8
Layer_1
 62
1
100
AcDbSpline
 70
8
 71
3
 72
8
 73
4
 74
0
 40
0
 40
0
 40
0
 40
0
 40
1
 40
1
 40
1
 40
1
 10
17.863834
 20
14.613840
 30
0.0
 10
17.863834
 20
12.818915
 30
0.0
 10
16.408760
 20
11.363840
 30
0.0
 10
14.613834
 20
11.363840
 30
0.0
  0
SPLINE
  5
2a7
100
AcDbEntity
  8
Layer_1
 62
1
100
AcDbSpline
 70
8
 71
3
 72
8
 73
4
 74
0
 40
0
 40
0
 40
0
 40
0
 40
1
 40
1
 40
1
 40
1
 10
14.613834
 20
11.363840
 30
0.0
 10
12.818909
 20
11.363840
 30
0.0
 10
11.363834
 20
12.818915
 30
0.0
 10
11.363834
 20
14.613840
 30
0.0
  0
SPLINE
  5
2a8
100
AcDbEntity
  8
Layer_1
 62
1
100
AcDbSpline
 70
8
 71
3
 72
8
 73
4
 74
0
 40
0
 40
0
 40
0
 40
0
 40
1
 40
1
 40
1
 40
1
 10
11.363834
 20
14.613840
 30
0.0
 10
11.363834
 20
16.408766
 30
0.0
 10
12.818909
 20
17.863840
 30
0.0
 10
14.613834
 20
17.863840
 30
0.0
  0
SPLINE
  5
2a9
100
AcDbEntity
  8
Layer_1
 62
1
100
AcDbSpline
 70
8
 71
3
 72
8
 73
4
 74
0
 40
0
 40
0
 40
0
 40
0
 40
1
 40
1
 40
1
 40
1
 10
14.613834
 20
17.863840
 30
0.0
 10
16.408760
 20
17.863840
 30
0.0
 10
17.863834
 20
16.408766
 30
0.0
 10
17.863834
 20
14.613840
 30
0.0
  0
LWPOLYLINE
  5
2aa
100
AcDbEntity
  8
Layer_1
 62
3
100
AcDbPolyline
 90
4
 70
1
 10
5.471507
 20
48.363401
 30
0.0
 10
23.614365
 20
48.363401
 30
0.0
 10
23.614365
 20
31.732448
 30
0.0
 10
5.471507
 20
31.732448
 30
0.0
  0
LWPOLYLINE
  5
2ab
100
AcDbEntity
  8
Layer_1
 62
1
100
AcDbPolyline
 90
1
 70
1
 10
17.863834
 20
14.613840
 30
0.0
  0
LWPOLYLINE
  5
2ac
100
AcDbEntity
  8
Layer_1
 62
6
100
AcDbPolyline
 90
4
 70
1
 10
2.113834
 20
27.113841
 30
0.0
 10
27.113834
 20
27.113841
 30
0.0
 10
27.113834
 20
2.113840
 30
0.0
 10
2.113834
 20
2.113840
 30
0.0
  0
SPLINE
  5
2ad
100
AcDbEntity
  8
Layer_1
 62
1
100
AcDbSpline
 70
8
 71
3
 72
8
 73
4
 74
0
 40
0
 40
0
 40
0
 40
0
 40
1
 40
1
 40
1
 40
1
 10
31.011185
 20
88.426342
 30
0.0
 10
28.172201
 20
87.896868
 30
0.0
 10
26.113189
 20
85.420057
 30
0.0
 10
26.111226
 20
82.532122
 30
0.0
  0
SPLINE
  5
2ae
100
AcDbEntity
  8
Layer_1
 62
1
100
AcDbSpline
 70
8
 71
3
 72
8
 73
4
 74
0
 40
0
 40
0
 40
0
 40
0
 40
1
 40
1
 40
1
 40
1
 10
26.111226
 20
82.532122
 30
0.0
 10
26.111149
 20
79.218502
 30
0.0
 10
28.797240
 20
76.532184
 30
0.0
 10
32.110860
 20
76.531982
 30
0.0
  0
SPLINE
  5
2af
100
AcDbEntity
  8
Layer_1
 62
1
100
AcDbSpline
 70
8
 71
3
 72
8
 73
4
 74
0
 40
0
 40
0
 40
0
 40
0
 40
1
 40
1
 40
1
 40
1
 10
32.110860
 20
76.531982
 30
0.0
 10
33.702209
 20
76.531941
 30
0.0
 10
35.228393
 20
77.164084
 30
0.0
 10
36.353648
 20
78.289337
 30
0.0
  0
SPLINE
  5
2b0
100
AcDbEntity
  8
Layer_1
 62
1
100
AcDbSpline
 70
8
 71
3
 72
8
 73
4
 74
0
 40
0
 40
0
 40
0
 40
0
 40
1
 40
1
 40
1
 40
1
 10
36.353648
 20
78.289337
 30
0.0
 10
37.478903
 20
79.414590
 30
0.0
 10
38.111049
 20
80.940772
 30
0.0
 10
38.111012
 20
82.532122
 30
0.0
  0
SPLINE
  5
2b1
100
AcDbEntity
  8
Layer_1
 62
1
100
AcDbSpline
 70
8
 71
3
 72
8
 73
4
 74
0
 40
0
 40
0
 40
0
 40
0
 40
1
 40
1
 40
1
 40
1
 10
38.111012
 20
82.532122
 30
0.0
 10
38.109049
 20
85.420057
 30
0.0
 10
36.050037
 20
87.896868
 30
0.0
 10
33.211053
 20
88.426342
 30
0.0
  0
LWPOLYLINE
  5
2b2
100
AcDbEntity
  8
Layer_1
 62
3
100
AcDbPolyline
 90
4
 70
1
 10
5.471507
 20
23.363391
 30
0.0
 10
23.614365
 20
23.363391
 30
0.0
 10
23.614365
 20
6.732437
 30
0.0
 10
5.471507
 20
6.732437
 30
0.0
  0
LWPOLYLINE
  5
2b3
100
AcDbEntity
  8
Layer_1
 62
1
100
AcDbPolyline
 90
4
 70
0
 10
33.211053
 20
88.426342
 30
0.0
 10
33.211053
 20
86.428012
 30
0.0
 10
31.011185
 20
86.428012
 30
0.0
 10
31.011185
 20
88.426342
 30
0.0
  0
LWPOLYLINE
  5
2b4
100
AcDbEntity
  8
Layer_1
 62
3
100
AcDbPolyline
 90
4
 70
1
 10
23.610953
 20
89.759762
 30
0.0
 10
40.610954
 20
89.759762
 30
0.0
 10
40.610954
 20
74.973302
 30
0.0
 10
23.610953
 20
74.973302
 30
0.0
  0
SPLINE
  5
2b5
100
AcDbEntity
  8
Layer_1
 62
6
100
AcDbSpline
 70
8
 71
3
 72
8
 73
4
 74
0
 40
0
 40
0
 40
0
 40
0
 40
1
 40
1
 40
1
 40
1
 10
30.072873
 20
91.231732
 30
0.0
 10
30.095173
 20
94.839872
 30
0.0
 10
34.193257
 20
94.773052
 30
0.0
 10
34.148727
 20
91.231732
 30
0.0
  0
LWPOLYLINE
  5
2b6
100
AcDbEntity
  8
Layer_1
 62
6
100
AcDbPolyline
 90
2
 70
0
 10
30.072873
 20
82.679102
 30
0.0
 10
30.072873
 20
91.231732
 30
0.0
  0
LWPOLYLINE
  5
2b7
100
AcDbEntity
  8
Layer_1
 62
6
100
AcDbPolyline
 90
2
 70
0
 10
34.148727
 20
91.231732
 30
0.0
 10
34.148727
 20
82.612282
 30
0.0
  0
SPLINE
  5
2b8
100
AcDbEntity
  8
Layer_1
 62
1
100
AcDbSpline
 70
8
 71
3
 72
8
 73
4
 74
0
 40
0
 40
0
 40
0
 40
0
 40
1
 40
1
 40
1
 40
1
 10
12.097310
 20
75.369252
 30
0.0
 10
9.258333
 20
75.898729
 30
0.0
 10
7.199326
 20
78.375533
 30
0.0
 10
7.197360
 20
81.263462
 30
0.0
  0
SPLINE
  5
2b9
100
AcDbEntity
  8
Layer_1
 62
1
100
AcDbSpline
 70
8
 71
3
 72
8
 73
4
 74
0
 40
0
 40
0
 40
0
 40
0
 40
1
 40
1
 40
1
 40
1
 10
7.197360
 20
81.263462
 30
0.0
 10
7.197277
 20
84.577084
 30
0.0
 10
9.883367
 20
87.263408
 30
0.0
 10
13.196990
 20
87.263612
 30
0.0
  0
SPLINE
  5
2ba
100
AcDbEntity
  8
Layer_1
 62
1
100
AcDbSpline
 70
8
 71
3
 72
8
 73
4
 74
0
 40
0
 40
0
 40
0
 40
0
 40
1
 40
1
 40
1
 40
1
 10
13.196990
 20
87.263612
 30
0.0
 10
14.788341
 20
87.263652
 30
0.0
 10
16.314526
 20
86.631508
 30
0.0
 10
17.439781
 20
85.506253
 30
0.0
  0
SPLINE
  5
2bb
100
AcDbEntity
  8
Layer_1
 62
1
100
AcDbSpline
 70
8
 71
3
 72
8
 73
4
 74
0
 40
0
 40
0
 40
0
 40
0
 40
1
 40
1
 40
1
 40
1
 10
17.439781
 20
85.506253
 30
0.0
 10
18.565036
 20
84.380998
 30
0.0
 10
19.197180
 20
82.854813
 30
0.0
 10
19.197140
 20
81.263462
 30
0.0
  0
SPLINE
  5
2bc
100
AcDbEntity
  8
Layer_1
 62
1
100
AcDbSpline
 70
8
 71
3
 72
8
 73
4
 74
0
 40
0
 40
0
 40
0
 40
0
 40
1
 40
1
 40
1
 40
1
 10
19.197140
 20
81.263462
 30
0.0
 10
19.195173
 20
78.375530
 30
0.0
 10
17.136161
 20
75.898724
 30
0.0
 10
14.297180
 20
75.369252
 30
0.0
  0
LWPOLYLINE
  5
2bd
100
AcDbEntity
  8
Layer_1
 62
6
100
AcDbPolyline
 90
4
 70
1
 10
23.110968
 20
98.531902
 30
0.0
 10
41.110969
 20
98.531902
 30
0.0
 10
41.110969
 20
66.531901
 30
0.0
 10
23.110968
 20
66.531901
 30
0.0
  0
LWPOLYLINE
  5
2be
100
AcDbEntity
  8
Layer_1
 62
1
100
AcDbPolyline
 90
4
 70
0
 10
14.297180
 20
75.369252
 30
0.0
 10
14.297180
 20
77.367572
 30
0.0
 10
12.097310
 20
77.367572
 30
0.0
 10
12.097310
 20
75.369252
 30
0.0
  0
SPLINE
  5
2bf
100
AcDbEntity
  8
Layer_1
 62
6
100
AcDbSpline
 70
8
 71
3
 72
8
 73
4
 74
0
 40
0
 40
0
 40
0
 40
0
 40
1
 40
1
 40
1
 40
1
 10
11.159140
 20
89.989322
 30
0.0
 10
11.181440
 20
93.597452
 30
0.0
 10
15.279550
 20
93.530642
 30
0.0
 10
15.235000
 20
89.989322
 30
0.0
  0
LWPOLYLINE
  5
2c0
100
AcDbEntity
  8
Layer_1
 62
6
100
AcDbPolyline
 90
2
 70
0
 10
11.159140
 20
81.436692
 30
0.0
 10
11.159140
 20
89.989322
 30
0.0
  0
LWPOLYLINE
  5
2c1
100
AcDbEntity
  8
Layer_1
 62
6
100
AcDbPolyline
 90
2
 70
0
 10
15.235000
 20
89.989322
 30
0.0
 10
15.235000
 20
81.369872
 30
0.0
  0
LWPOLYLINE
  5
2c2
100
AcDbEntity
  8
Layer_1
 62
3
100
AcDbPolyline
 90
4
 70
1
 10
3.197248
 20
103.789472
 30
0.0
 10
23.197249
 20
103.789472
 30
0.0
 10
23.197249
 20
58.789471
 30
0.0
 10
3.197248
 20
58.789471
 30
0.0
  0
LWPOLYLINE
  5
2c3
100
AcDbEntity
  8
Layer_1
 62
6
100
AcDbPolyline
 90
4
 70
1
 10
4.197248
 20
94.789472
 30
0.0
 10
22.197248
 20
94.789472
 30
0.0
 10
22.197248
 20
67.789472
 30
0.0
 10
4.197248
 20
67.789472
 30
0.0
  0
SPLINE
  5
2c4
100
AcDbEntity
  8
Layer_1
 62
1
100
AcDbSpline
 70
8
 71
3
 72
8
 73
4
 74
0
 40
0
 40
0
 40
0
 40
0
 40
1
 40
1
 40
1
 40
1
 10
34.251810
 20
36.179881
 30
0.0
 10
34.823435
 20
36.179881
 30
0.0
 10
35.351638
 20
35.874923
 30
0.0
 10
35.637450
 20
35.379881
 30
0.0
  0
SPLINE
  5
2c5
100
AcDbEntity
  8
Layer_1
 62
1
100
AcDbSpline
 70
8
 71
3
 72
8
 73
4
 74
0
 40
0
 40
0
 40
0
 40
0
 40
1
 40
1
 40
1
 40
1
 10
35.637450
 20
35.379881
 30
0.0
 10
35.923263
 20
34.884839
 30
0.0
 10
35.923263
 20
34.274922
 30
0.0
 10
35.637450
 20
33.779881
 30
0.0
  0
SPLINE
  5
2c6
100
AcDbEntity
  8
Layer_1
 62
1
100
AcDbSpline
 70
8
 71
3
 72
8
 73
4
 74
0
 40
0
 40
0
 40
0
 40
0
 40
1
 40
1
 40
1
 40
1
 10
35.637450
 20
33.779881
 30
0.0
 10
35.351638
 20
33.284839
 30
0.0
 10
34.823435
 20
32.979881
 30
0.0
 10
34.251810
 20
32.979881
 30
0.0
  0
SPLINE
  5
2c7
100
AcDbEntity
  8
Layer_1
 62
1
100
AcDbSpline
 70
8
 71
3
 72
8
 73
4
 74
0
 40
0
 40
0
 40
0
 40
0
 40
1
 40
1
 40
1
 40
1
 10
34.251810
 20
32.979881
 30
0.0
 10
33.680185
 20
32.979881
 30
0.0
 10
33.151981
 20
33.284839
 30
0.0
 10
32.866169
 20
33.779881
 30
0.0
  0
SPLINE
  5
2c8
100
AcDbEntity
  8
Layer_1
 62
1
100
AcDbSpline
 70
8
 71
3
 72
8
 73
4
 74
0
 40
0
 40
0
 40
0
 40
0
 40
1
 40
1
 40
1
 40
1
 10
32.866169
 20
33.779881
 30
0.0
 10
32.580356
 20
34.274922
 30
0.0
 10
32.580356
 20
34.884839
 30
0.0
 10
32.866169
 20
35.379881
 30
0.0
  0
SPLINE
  5
2c9
100
AcDbEntity
  8
Layer_1
 62
1
100
AcDbSpline
 70
8
 71
3
 72
8
 73
4
 74
0
 40
0
 40
0
 40
0
 40
0
 40
1
 40
1
 40
1
 40
1
 10
32.866169
 20
35.379881
 30
0.0
 10
33.151981
 20
35.874923
 30
0.0
 10
33.680185
 20
36.179881
 30
0.0
 10
34.251810
 20
36.179881
 30
0.0
  0
LWPOLYLINE
  5
2ca
100
AcDbEntity
  8
Layer_1
 62
1
100
AcDbPolyline
 90
4
 70
1
 10
28.751811
 20
43.030131
 30
0.0
 10
28.751811
 20
55.130131
 30
0.0
 10
39.751812
 20
55.130131
 30
0.0
 10
39.751812
 20
43.030131
 30
0.0
  0
SPLINE
  5
2cb
100
AcDbEntity
  8
Layer_1
 62
1
100
AcDbSpline
 70
8
 71
3
 72
8
 73
4
 74
0
 40
0
 40
0
 40
0
 40
0
 40
1
 40
1
 40
1
 40
1
 10
34.251810
 20
65.180371
 30
0.0
 10
35.135465
 20
65.180371
 30
0.0
 10
35.851809
 20
64.464027
 30
0.0
 10
35.851809
 20
63.580371
 30
0.0
  0
SPLINE
  5
2cc
100
AcDbEntity
  8
Layer_1
 62
1
100
AcDbSpline
 70
8
 71
3
 72
8
 73
4
 74
0
 40
0
 40
0
 40
0
 40
0
 40
1
 40
1
 40
1
 40
1
 10
35.851809
 20
63.580371
 30
0.0
 10
35.851809
 20
62.696716
 30
0.0
 10
35.135465
 20
61.980372
 30
0.0
 10
34.251810
 20
61.980371
 30
0.0
  0
SPLINE
  5
2cd
100
AcDbEntity
  8
Layer_1
 62
1
100
AcDbSpline
 70
8
 71
3
 72
8
 73
4
 74
0
 40
0
 40
0
 40
0
 40
0
 40
1
 40
1
 40
1
 40
1
 10
34.251810
 20
61.980371
 30
0.0
 10
33.680185
 20
61.980371
 30
0.0
 10
33.151981
 20
62.285330
 30
0.0
 10
32.866169
 20
62.780371
 30
0.0
  0
SPLINE
  5
2ce
100
AcDbEntity
  8
Layer_1
 62
1
100
AcDbSpline
 70
8
 71
3
 72
8
 73
4
 74
0
 40
0
 40
0
 40
0
 40
0
 40
1
 40
1
 40
1
 40
1
 10
32.866169
 20
62.780371
 30
0.0
 10
32.580356
 20
63.275413
 30
0.0
 10
32.580356
 20
63.885330
 30
0.0
 10
32.866169
 20
64.380371
 30
0.0
  0
SPLINE
  5
2cf
100
AcDbEntity
  8
Layer_1
 62
1
100
AcDbSpline
 70
8
 71
3
 72
8
 73
4
 74
0
 40
0
 40
0
 40
0
 40
0
 40
1
 40
1
 40
1
 40
1
 10
32.866169
 20
64.380371
 30
0.0
 10
33.151981
 20
64.875413
 30
0.0
 10
33.680185
 20
65.180371
 30
0.0
 10
34.251810
 20
65.180371
 30
0.0
  0
LWPOLYLINE
  5
2d0
100
AcDbEntity
  8
Layer_1
 62
1
100
AcDbPolyline
 90
1
 70
1
 10
34.251810
 20
36.179881
 30
0.0
  0
LWPOLYLINE
  5
2d1
100
AcDbEntity
  8
Layer_1
 62
1
100
AcDbPolyline
 90
1
 70
1
 10
34.251810
 20
65.180371
 30
0.0
  0
LWPOLYLINE
  5
2d2
100
AcDbEntity
  8
Layer_1
 62
6
100
AcDbPolyline
 90
4
 70
1
 10
26.951808
 20
29.780131
 30
0.0
 10
26.951808
 20
68.380130
 30
0.0
 10
41.551809
 20
68.380130
 30
0.0
 10
41.551809
 20
29.780131
 30
0.0
  0
LWPOLYLINE
  5
2d3
100
AcDbEntity
  8
Layer_1
 62
4
100
AcDbPolyline
 90
10
 70
1
 10
71.480409
 20
60.933581
 30
0.0
 10
73.061359
 20
60.933581
 30
0.0
 10
73.061359
 20
60.543941
 30
0.0
 10
71.865569
 20
60.543941
 30
0.0
 10
71.865569
 20
59.831841
 30
0.0
 10
73.061359
 20
59.831841
 30
0.0
 10
73.061359
 20
59.446671
 30
0.0
 10
71.870049
 20
59.446671
 30
0.0
 10
71.870049
 20
58.080691
 30
0.0
 10
71.480409
 20
58.080691
 30
0.0
  0
SPLINE
  5
2d4
100
AcDbEntity
  8
Layer_1
 62
4
100
AcDbSpline
 70
8
 71
3
 72
8
 73
4
 74
0
 40
0
 40
0
 40
0
 40
0
 40
1
 40
1
 40
1
 40
1
 10
73.894389
 20
59.175721
 30
0.0
 10
73.894389
 20
58.915961
 30
0.0
 10
73.956343
 20
58.715168
 30
0.0
 10
74.080249
 20
58.573341
 30
0.0
  0
SPLINE
  5
2d5
100
AcDbEntity
  8
Layer_1
 62
4
100
AcDbSpline
 70
8
 71
3
 72
8
 73
4
 74
0
 40
0
 40
0
 40
0
 40
0
 40
1
 40
1
 40
1
 40
1
 10
74.080249
 20
58.573341
 30
0.0
 10
74.205649
 20
58.431521
 30
0.0
 10
74.382556
 20
58.360611
 30
0.0
 10
74.610969
 20
58.360611
 30
0.0
  0
SPLINE
  5
2d6
100
AcDbEntity
  8
Layer_1
 62
4
100
AcDbSpline
 70
8
 71
3
 72
8
 73
4
 74
0
 40
0
 40
0
 40
0
 40
0
 40
1
 40
1
 40
1
 40
1
 10
74.610969
 20
58.360611
 30
0.0
 10
74.837883
 20
58.360611
 30
0.0
 10
75.014043
 20
58.425551
 30
0.0
 10
75.139449
 20
58.555431
 30
0.0
  0
SPLINE
  5
2d7
100
AcDbEntity
  8
Layer_1
 62
4
100
AcDbSpline
 70
8
 71
3
 72
8
 73
4
 74
0
 40
0
 40
0
 40
0
 40
0
 40
1
 40
1
 40
1
 40
1
 10
75.139449
 20
58.555431
 30
0.0
 10
75.266343
 20
58.686805
 30
0.0
 10
75.329789
 20
58.871175
 30
0.0
 10
75.329789
 20
59.108541
 30
0.0
  0
LWPOLYLINE
  5
2d8
100
AcDbEntity
  8
Layer_1
 62
4
100
AcDbPolyline
 90
3
 70
0
 10
73.504749
 20
60.929101
 30
0.0
 10
73.894389
 20
60.929101
 30
0.0
 10
73.894389
 20
59.175721
 30
0.0
  0
SPLINE
  5
2d9
100
AcDbEntity
  8
Layer_1
 62
4
100
AcDbSpline
 70
8
 71
3
 72
8
 73
4
 74
0
 40
0
 40
0
 40
0
 40
0
 40
1
 40
1
 40
1
 40
1
 10
75.719429
 20
59.135411
 30
0.0
 10
75.719429
 20
58.786078
 30
0.0
 10
75.619406
 20
58.506911
 30
0.0
 10
75.419359
 20
58.297911
 30
0.0
  0
SPLINE
  5
2da
100
AcDbEntity
  8
Layer_1
 62
4
100
AcDbSpline
 70
8
 71
3
 72
8
 73
4
 74
0
 40
0
 40
0
 40
0
 40
0
 40
1
 40
1
 40
1
 40
1
 10
75.419359
 20
58.297911
 30
0.0
 10
75.220806
 20
58.088905
 30
0.0
 10
74.955819
 20
57.984401
 30
0.0
 10
74.624399
 20
57.984401
 30
0.0
  0
SPLINE
  5
2db
100
AcDbEntity
  8
Layer_1
 62
4
100
AcDbSpline
 70
8
 71
3
 72
8
 73
4
 74
0
 40
0
 40
0
 40
0
 40
0
 40
1
 40
1
 40
1
 40
1
 10
74.624399
 20
57.984401
 30
0.0
 10
74.285519
 20
57.984401
 30
0.0
 10
74.013816
 20
58.090398
 30
0.0
 10
73.809289
 20
58.302391
 30
0.0
  0
SPLINE
  5
2dc
100
AcDbEntity
  8
Layer_1
 62
4
100
AcDbSpline
 70
8
 71
3
 72
8
 73
4
 74
0
 40
0
 40
0
 40
0
 40
0
 40
1
 40
1
 40
1
 40
1
 10
73.809289
 20
58.302391
 30
0.0
 10
73.606263
 20
58.514378
 30
0.0
 10
73.504749
 20
58.827135
 30
0.0
 10
73.504749
 20
59.240661
 30
0.0
  0
LWPOLYLINE
  5
2dd
100
AcDbEntity
  8
Layer_1
 62
4
100
AcDbPolyline
 90
4
 70
0
 10
75.329789
 20
59.108541
 30
0.0
 10
75.329789
 20
60.929101
 30
0.0
 10
75.719429
 20
60.929101
 30
0.0
 10
75.719429
 20
59.135411
 30
0.0
  0
LWPOLYLINE
  5
2de
100
AcDbEntity
  8
Layer_1
 62
4
100
AcDbPolyline
 90
2
 70
0
 10
73.504749
 20
59.240661
 30
0.0
 10
73.504749
 20
60.929101
 30
0.0
  0
LWPOLYLINE
  5
2df
100
AcDbEntity
  8
Layer_1
 62
4
100
AcDbPolyline
 90
8
 70
1
 10
76.111309
 20
60.933581
 30
0.0
 10
77.855730
 20
60.933581
 30
0.0
 10
77.855730
 20
60.543941
 30
0.0
 10
77.174980
 20
60.543941
 30
0.0
 10
77.174980
 20
58.080691
 30
0.0
 10
76.789820
 20
58.080691
 30
0.0
 10
76.789820
 20
60.543941
 30
0.0
 10
76.111309
 20
60.543941
 30
0.0
  0
LWPOLYLINE
  5
2e0
100
AcDbEntity
  8
Layer_1
 62
4
100
AcDbPolyline
 90
10
 70
1
 10
72.021419
 20
57.024211
 30
0.0
 10
73.237539
 20
57.024211
 30
0.0
 10
73.237539
 20
56.724491
 30
0.0
 10
72.317699
 20
56.724491
 30
0.0
 10
72.317699
 20
56.176721
 30
0.0
 10
73.237539
 20
56.176721
 30
0.0
 10
73.237539
 20
55.880441
 30
0.0
 10
72.321149
 20
55.880441
 30
0.0
 10
72.321149
 20
54.829691
 30
0.0
 10
72.021419
 20
54.829691
 30
0.0
  0
SPLINE
  5
2e1
100
AcDbEntity
  8
Layer_1
 62
4
100
AcDbSpline
 70
8
 71
3
 72
8
 73
4
 74
0
 40
0
 40
0
 40
0
 40
0
 40
1
 40
1
 40
1
 40
1
 10
73.878329
 20
55.672011
 30
0.0
 10
73.878329
 20
55.472198
 30
0.0
 10
73.925986
 20
55.317745
 30
0.0
 10
74.021299
 20
55.208651
 30
0.0
  0
SPLINE
  5
2e2
100
AcDbEntity
  8
Layer_1
 62
4
100
AcDbSpline
 70
8
 71
3
 72
8
 73
4
 74
0
 40
0
 40
0
 40
0
 40
0
 40
1
 40
1
 40
1
 40
1
 10
74.021299
 20
55.208651
 30
0.0
 10
74.117759
 20
55.099558
 30
0.0
 10
74.253839
 20
55.045011
 30
0.0
 10
74.429539
 20
55.045011
 30
0.0
  0
SPLINE
  5
2e3
100
AcDbEntity
  8
Layer_1
 62
4
100
AcDbSpline
 70
8
 71
3
 72
8
 73
4
 74
0
 40
0
 40
0
 40
0
 40
0
 40
1
 40
1
 40
1
 40
1
 10
74.429539
 20
55.045011
 30
0.0
 10
74.604093
 20
55.045011
 30
0.0
 10
74.739603
 20
55.094965
 30
0.0
 10
74.836069
 20
55.194871
 30
0.0
  0
SPLINE
  5
2e4
100
AcDbEntity
  8
Layer_1
 62
4
100
AcDbSpline
 70
8
 71
3
 72
8
 73
4
 74
0
 40
0
 40
0
 40
0
 40
0
 40
1
 40
1
 40
1
 40
1
 10
74.836069
 20
55.194871
 30
0.0
 10
74.933676
 20
55.295925
 30
0.0
 10
74.982479
 20
55.437748
 30
0.0
 10
74.982479
 20
55.620341
 30
0.0
  0
LWPOLYLINE
  5
2e5
100
AcDbEntity
  8
Layer_1
 62
4
100
AcDbPolyline
 90
3
 70
0
 10
73.578609
 20
57.020771
 30
0.0
 10
73.878329
 20
57.020771
 30
0.0
 10
73.878329
 20
55.672011
 30
0.0
  0
SPLINE
  5
2e6
100
AcDbEntity
  8
Layer_1
 62
4
100
AcDbSpline
 70
8
 71
3
 72
8
 73
4
 74
0
 40
0
 40
0
 40
0
 40
0
 40
1
 40
1
 40
1
 40
1
 10
75.282209
 20
55.641011
 30
0.0
 10
75.282209
 20
55.372291
 30
0.0
 10
75.205266
 20
55.157545
 30
0.0
 10
75.051379
 20
54.996771
 30
0.0
  0
SPLINE
  5
2e7
100
AcDbEntity
  8
Layer_1
 62
4
100
AcDbSpline
 70
8
 71
3
 72
8
 73
4
 74
0
 40
0
 40
0
 40
0
 40
0
 40
1
 40
1
 40
1
 40
1
 10
75.051379
 20
54.996771
 30
0.0
 10
74.898653
 20
54.836005
 30
0.0
 10
74.694819
 20
54.755621
 30
0.0
 10
74.439879
 20
54.755621
 30
0.0
  0
SPLINE
  5
2e8
100
AcDbEntity
  8
Layer_1
 62
4
100
AcDbSpline
 70
8
 71
3
 72
8
 73
4
 74
0
 40
0
 40
0
 40
0
 40
0
 40
1
 40
1
 40
1
 40
1
 10
74.439879
 20
54.755621
 30
0.0
 10
74.179199
 20
54.755621
 30
0.0
 10
73.970196
 20
54.837155
 30
0.0
 10
73.812869
 20
55.000221
 30
0.0
  0
SPLINE
  5
2e9
100
AcDbEntity
  8
Layer_1
 62
4
100
AcDbSpline
 70
8
 71
3
 72
8
 73
4
 74
0
 40
0
 40
0
 40
0
 40
0
 40
1
 40
1
 40
1
 40
1
 10
73.812869
 20
55.000221
 30
0.0
 10
73.656696
 20
55.163288
 30
0.0
 10
73.578609
 20
55.403871
 30
0.0
 10
73.578609
 20
55.721971
 30
0.0
  0
LWPOLYLINE
  5
2ea
100
AcDbEntity
  8
Layer_1
 62
4
100
AcDbPolyline
 90
4
 70
0
 10
74.982479
 20
55.620341
 30
0.0
 10
74.982479
 20
57.020771
 30
0.0
 10
75.282209
 20
57.020771
 30
0.0
 10
75.282209
 20
55.641011
 30
0.0
  0
LWPOLYLINE
  5
2eb
100
AcDbEntity
  8
Layer_1
 62
4
100
AcDbPolyline
 90
2
 70
0
 10
73.578609
 20
55.721971
 30
0.0
 10
73.578609
 20
57.020771
 30
0.0
  0
LWPOLYLINE
  5
2ec
100
AcDbEntity
  8
Layer_1
 62
4
100
AcDbPolyline
 90
8
 70
1
 10
75.583649
 20
57.024211
 30
0.0
 10
76.925520
 20
57.024211
 30
0.0
 10
76.925520
 20
56.724491
 30
0.0
 10
76.401859
 20
56.724491
 30
0.0
 10
76.401859
 20
54.829691
 30
0.0
 10
76.105579
 20
54.829691
 30
0.0
 10
76.105579
 20
56.724491
 30
0.0
 10
75.583649
 20
56.724491
 30
0.0
  0
LWPOLYLINE
  5
2ed
100
AcDbEntity
  8
Layer_1
 62
6
100
AcDbPolyline
 90
2
 70
0
 10
100.824974
 20
97.822592
 30
0.0
 10
100.824974
 20
3.334590
 30
0.0
  0
LWPOLYLINE
  5
2ee
100
AcDbEntity
  8
Layer_1
 62
6
100
AcDbPolyline
 90
2
 70
0
 10
27.672972
 20
97.822592
 30
0.0
 10
100.824974
 20
97.822592
 30
0.0
  0
LWPOLYLINE
  5
2ef
100
AcDbEntity
  8
Layer_1
 62
6
100
AcDbPolyline
 90
2
 70
0
 10
27.672972
 20
3.334590
 30
0.0
 10
27.672972
 20
97.822592
 30
0.0
  0
LWPOLYLINE
  5
2f0
100
AcDbEntity
  8
Layer_1
 62
6
100
AcDbPolyline
 90
2
 70
0
 10
43.166973
 20
3.334590
 30
0.0
 10
27.672972
 20
3.334590
 30
0.0
  0
SPLINE
  5
2f1
100
AcDbEntity
  8
Layer_1
 62
1
100
AcDbSpline
 70
8
 71
3
 72
8
 73
4
 74
0
 40
0
 40
0
 40
0
 40
0
 40
1
 40
1
 40
1
 40
1
 10
30.384337
 20
8.161970
 30
0.0
 10
30.384337
 20
7.768978
 30
0.0
 10
30.593996
 20
7.405838
 30
0.0
 10
30.934337
 20
7.209342
 30
0.0
  0
SPLINE
  5
2f2
100
AcDbEntity
  8
Layer_1
 62
1
100
AcDbSpline
 70
8
 71
3
 72
8
 73
4
 74
0
 40
0
 40
0
 40
0
 40
0
 40
1
 40
1
 40
1
 40
1
 10
30.934337
 20
7.209342
 30
0.0
 10
31.274679
 20
7.012846
 30
0.0
 10
31.693996
 20
7.012846
 30
0.0
 10
32.034338
 20
7.209342
 30
0.0
  0
SPLINE
  5
2f3
100
AcDbEntity
  8
Layer_1
 62
1
100
AcDbSpline
 70
8
 71
3
 72
8
 73
4
 74
0
 40
0
 40
0
 40
0
 40
0
 40
1
 40
1
 40
1
 40
1
 10
32.034338
 20
7.209342
 30
0.0
 10
32.374679
 20
7.405838
 30
0.0
 10
32.584338
 20
7.768978
 30
0.0
 10
32.584338
 20
8.161970
 30
0.0
  0
SPLINE
  5
2f4
100
AcDbEntity
  8
Layer_1
 62
1
100
AcDbSpline
 70
8
 71
3
 72
8
 73
4
 74
0
 40
0
 40
0
 40
0
 40
0
 40
1
 40
1
 40
1
 40
1
 10
32.584338
 20
8.161970
 30
0.0
 10
32.584338
 20
8.769483
 30
0.0
 10
32.091851
 20
9.261970
 30
0.0
 10
31.484338
 20
9.261970
 30
0.0
  0
SPLINE
  5
2f5
100
AcDbEntity
  8
Layer_1
 62
1
100
AcDbSpline
 70
8
 71
3
 72
8
 73
4
 74
0
 40
0
 40
0
 40
0
 40
0
 40
1
 40
1
 40
1
 40
1
 10
31.484338
 20
9.261970
 30
0.0
 10
30.876824
 20
9.261970
 30
0.0
 10
30.384337
 20
8.769483
 30
0.0
 10
30.384337
 20
8.161970
 30
0.0
  0
LWPOLYLINE
  5
2f6
100
AcDbEntity
  8
Layer_1
 62
6
100
AcDbPolyline
 90
4
 70
0
 10
43.166973
 20
3.334590
 30
0.0
 10
100.824974
 20
3.334590
 30
0.0
 10
100.824974
 20
3.334590
 30
0.0
 10
100.824974
 20
3.334590
 30
0.0
  0
SPLINE
  5
2f7
100
AcDbEntity
  8
Layer_1
 62
1
100
AcDbSpline
 70
8
 71
3
 72
8
 73
4
 74
0
 40
0
 40
0
 40
0
 40
0
 40
1
 40
1
 40
1
 40
1
 10
73.564451
 20
38.642251
 30
0.0
 10
73.564451
 20
38.249259
 30
0.0
 10
73.774110
 20
37.886119
 30
0.0
 10
74.114451
 20
37.689623
 30
0.0
  0
SPLINE
  5
2f8
100
AcDbEntity
  8
Layer_1
 62
1
100
AcDbSpline
 70
8
 71
3
 72
8
 73
4
 74
0
 40
0
 40
0
 40
0
 40
0
 40
1
 40
1
 40
1
 40
1
 10
74.114451
 20
37.689623
 30
0.0
 10
74.454793
 20
37.493127
 30
0.0
 10
74.874110
 20
37.493127
 30
0.0
 10
75.214452
 20
37.689623
 30
0.0
  0
SPLINE
  5
2f9
100
AcDbEntity
  8
Layer_1
 62
1
100
AcDbSpline
 70
8
 71
3
 72
8
 73
4
 74
0
 40
0
 40
0
 40
0
 40
0
 40
1
 40
1
 40
1
 40
1
 10
75.214452
 20
37.689623
 30
0.0
 10
75.554793
 20
37.886119
 30
0.0
 10
75.764452
 20
38.249259
 30
0.0
 10
75.764452
 20
38.642251
 30
0.0
  0
SPLINE
  5
2fa
100
AcDbEntity
  8
Layer_1
 62
1
100
AcDbSpline
 70
8
 71
3
 72
8
 73
4
 74
0
 40
0
 40
0
 40
0
 40
0
 40
1
 40
1
 40
1
 40
1
 10
75.764452
 20
38.642251
 30
0.0
 10
75.764452
 20
39.035243
 30
0.0
 10
75.554793
 20
39.398383
 30
0.0
 10
75.214452
 20
39.594879
 30
0.0
  0
SPLINE
  5
2fb
100
AcDbEntity
  8
Layer_1
 62
1
100
AcDbSpline
 70
8
 71
3
 72
8
 73
4
 74
0
 40
0
 40
0
 40
0
 40
0
 40
1
 40
1
 40
1
 40
1
 10
75.214452
 20
39.594879
 30
0.0
 10
74.874110
 20
39.791375
 30
0.0
 10
74.454793
 20
39.791375
 30
0.0
 10
74.114451
 20
39.594879
 30
0.0
  0
SPLINE
  5
2fc
100
AcDbEntity
  8
Layer_1
 62
1
100
AcDbSpline
 70
8
 71
3
 72
8
 73
4
 74
0
 40
0
 40
0
 40
0
 40
0
 40
1
 40
1
 40
1
 40
1
 10
74.114451
 20
39.594879
 30
0.0
 10
73.774110
 20
39.398383
 30
0.0
 10
73.564451
 20
39.035243
 30
0.0
 10
73.564451
 20
38.642251
 30
0.0
  0
LWPOLYLINE
  5
2fd
100
AcDbEntity
  8
Layer_1
 62
1
100
AcDbPolyline
 90
1
 70
1
 10
30.384337
 20
8.161970
 30
0.0
  0
SPLINE
  5
2fe
100
AcDbEntity
  8
Layer_1
 62
1
100
AcDbSpline
 70
8
 71
3
 72
8
 73
4
 74
0
 40
0
 40
0
 40
0
 40
0
 40
1
 40
1
 40
1
 40
1
 10
30.384337
 20
91.981992
 30
0.0
 10
30.384337
 20
91.589000
 30
0.0
 10
30.593996
 20
91.225860
 30
0.0
 10
30.934337
 20
91.029364
 30
0.0
  0
SPLINE
  5
2ff
100
AcDbEntity
  8
Layer_1
 62
1
100
AcDbSpline
 70
8
 71
3
 72
8
 73
4
 74
0
 40
0
 40
0
 40
0
 40
0
 40
1
 40
1
 40
1
 40
1
 10
30.934337
 20
91.029364
 30
0.0
 10
31.274679
 20
90.832868
 30
0.0
 10
31.693996
 20
90.832868
 30
0.0
 10
32.034338
 20
91.029364
 30
0.0
  0
SPLINE
  5
300
100
AcDbEntity
  8
Layer_1
 62
1
100
AcDbSpline
 70
8
 71
3
 72
8
 73
4
 74
0
 40
0
 40
0
 40
0
 40
0
 40
1
 40
1
 40
1
 40
1
 10
32.034338
 20
91.029364
 30
0.0
 10
32.374679
 20
91.225860
 30
0.0
 10
32.584338
 20
91.589000
 30
0.0
 10
32.584338
 20
91.981992
 30
0.0
  0
SPLINE
  5
301
100
AcDbEntity
  8
Layer_1
 62
1
100
AcDbSpline
 70
8
 71
3
 72
8
 73
4
 74
0
 40
0
 40
0
 40
0
 40
0
 40
1
 40
1
 40
1
 40
1
 10
32.584338
 20
91.981992
 30
0.0
 10
32.584338
 20
92.589505
 30
0.0
 10
32.091851
 20
93.081992
 30
0.0
 10
31.484338
 20
93.081992
 30
0.0
  0
SPLINE
  5
302
100
AcDbEntity
  8
Layer_1
 62
1
100
AcDbSpline
 70
8
 71
3
 72
8
 73
4
 74
0
 40
0
 40
0
 40
0
 40
0
 40
1
 40
1
 40
1
 40
1
 10
31.484338
 20
93.081992
 30
0.0
 10
30.876824
 20
93.081992
 30
0.0
 10
30.384337
 20
92.589505
 30
0.0
 10
30.384337
 20
91.981992
 30
0.0
  0
LWPOLYLINE
  5
303
100
AcDbEntity
  8
Layer_1
 62
1
100
AcDbPolyline
 90
1
 70
1
 10
73.564451
 20
38.642251
 30
0.0
  0
SPLINE
  5
304
100
AcDbEntity
  8
Layer_1
 62
1
100
AcDbSpline
 70
8
 71
3
 72
8
 73
4
 74
0
 40
0
 40
0
 40
0
 40
0
 40
1
 40
1
 40
1
 40
1
 10
93.884429
 20
71.662002
 30
0.0
 10
93.884429
 20
71.269009
 30
0.0
 10
94.094088
 20
70.905870
 30
0.0
 10
94.434429
 20
70.709374
 30
0.0
  0
SPLINE
  5
305
100
AcDbEntity
  8
Layer_1
 62
1
100
AcDbSpline
 70
8
 71
3
 72
8
 73
4
 74
0
 40
0
 40
0
 40
0
 40
0
 40
1
 40
1
 40
1
 40
1
 10
94.434429
 20
70.709374
 30
0.0
 10
94.774770
 20
70.512877
 30
0.0
 10
95.194088
 20
70.512877
 30
0.0
 10
95.534429
 20
70.709374
 30
0.0
  0
SPLINE
  5
306
100
AcDbEntity
  8
Layer_1
 62
1
100
AcDbSpline
 70
8
 71
3
 72
8
 73
4
 74
0
 40
0
 40
0
 40
0
 40
0
 40
1
 40
1
 40
1
 40
1
 10
95.534429
 20
70.709374
 30
0.0
 10
95.874770
 20
70.905870
 30
0.0
 10
96.084429
 20
71.269009
 30
0.0
 10
96.084429
 20
71.662002
 30
0.0
  0
SPLINE
  5
307
100
AcDbEntity
  8
Layer_1
 62
1
100
AcDbSpline
 70
8
 71
3
 72
8
 73
4
 74
0
 40
0
 40
0
 40
0
 40
0
 40
1
 40
1
 40
1
 40
1
 10
96.084429
 20
71.662002
 30
0.0
 10
96.084429
 20
72.054994
 30
0.0
 10
95.874770
 20
72.418134
 30
0.0
 10
95.534429
 20
72.614630
 30
0.0
  0
SPLINE
  5
308
100
AcDbEntity
  8
Layer_1
 62
1
100
AcDbSpline
 70
8
 71
3
 72
8
 73
4
 74
0
 40
0
 40
0
 40
0
 40
0
 40
1
 40
1
 40
1
 40
1
 10
95.534429
 20
72.614630
 30
0.0
 10
95.194088
 20
72.811126
 30
0.0
 10
94.774770
 20
72.811126
 30
0.0
 10
94.434429
 20
72.614630
 30
0.0
  0
SPLINE
  5
309
100
AcDbEntity
  8
Layer_1
 62
1
100
AcDbSpline
 70
8
 71
3
 72
8
 73
4
 74
0
 40
0
 40
0
 40
0
 40
0
 40
1
 40
1
 40
1
 40
1
 10
94.434429
 20
72.614630
 30
0.0
 10
94.094088
 20
72.418134
 30
0.0
 10
93.884429
 20
72.054994
 30
0.0
 10
93.884429
 20
71.662002
 30
0.0
  0
LWPOLYLINE
  5
30a
100
AcDbEntity
  8
Layer_1
 62
1
100
AcDbPolyline
 90
1
 70
1
 10
30.384337
 20
91.981992
 30
0.0
  0
LWPOLYLINE
  5
30b
100
AcDbEntity
  8
Layer_1
 62
1
100
AcDbPolyline
 90
1
 70
1
 10
93.884429
 20
71.662002
 30
0.0
  0
SPLINE
  5
30c
100
AcDbEntity
  8
Layer_1
 62
1
100
AcDbSpline
 70
8
 71
3
 72
8
 73
4
 74
0
 40
0
 40
0
 40
0
 40
0
 40
1
 40
1
 40
1
 40
1
 10
43.263851
 20
17.051920
 30
0.0
 10
44.460691
 20
17.051920
 30
0.0
 10
45.566616
 20
16.413414
 30
0.0
 10
46.165036
 20
15.376920
 30
0.0
  0
SPLINE
  5
30d
100
AcDbEntity
  8
Layer_1
 62
1
100
AcDbSpline
 70
8
 71
3
 72
8
 73
4
 74
0
 40
0
 40
0
 40
0
 40
0
 40
1
 40
1
 40
1
 40
1
 10
46.165036
 20
15.376920
 30
0.0
 10
46.763456
 20
14.340427
 30
0.0
 10
46.763456
 20
13.063414
 30
0.0
 10
46.165036
 20
12.026920
 30
0.0
  0
SPLINE
  5
30e
100
AcDbEntity
  8
Layer_1
 62
1
100
AcDbSpline
 70
8
 71
3
 72
8
 73
4
 74
0
 40
0
 40
0
 40
0
 40
0
 40
1
 40
1
 40
1
 40
1
 10
46.165036
 20
12.026920
 30
0.0
 10
45.566616
 20
10.990427
 30
0.0
 10
44.460691
 20
10.351920
 30
0.0
 10
43.263851
 20
10.351920
 30
0.0
  0
SPLINE
  5
30f
100
AcDbEntity
  8
Layer_1
 62
1
100
AcDbSpline
 70
8
 71
3
 72
8
 73
4
 74
0
 40
0
 40
0
 40
0
 40
0
 40
1
 40
1
 40
1
 40
1
 10
43.263851
 20
10.351920
 30
0.0
 10
42.067011
 20
10.351920
 30
0.0
 10
40.961085
 20
10.990427
 30
0.0
 10
40.362666
 20
12.026920
 30
0.0
  0
SPLINE
  5
310
100
AcDbEntity
  8
Layer_1
 62
1
100
AcDbSpline
 70
8
 71
3
 72
8
 73
4
 74
0
 40
0
 40
0
 40
0
 40
0
 40
1
 40
1
 40
1
 40
1
 10
40.362666
 20
12.026920
 30
0.0
 10
39.764246
 20
13.063414
 30
0.0
 10
39.764246
 20
14.340427
 30
0.0
 10
40.362666
 20
15.376920
 30
0.0
  0
SPLINE
  5
311
100
AcDbEntity
  8
Layer_1
 62
1
100
AcDbSpline
 70
8
 71
3
 72
8
 73
4
 74
0
 40
0
 40
0
 40
0
 40
0
 40
1
 40
1
 40
1
 40
1
 10
40.362666
 20
15.376920
 30
0.0
 10
40.961085
 20
16.413414
 30
0.0
 10
42.067011
 20
17.051920
 30
0.0
 10
43.263851
 20
17.051920
 30
0.0
  0
LWPOLYLINE
  5
312
100
AcDbEntity
  8
Layer_1
 62
3
100
AcDbPolyline
 90
4
 70
1
 10
29.373881
 20
5.035470
 30
0.0
 10
29.373881
 20
96.470035
 30
0.0
 10
99.182935
 20
96.470035
 30
0.0
 10
99.182935
 20
5.035470
 30
0.0
  0
SPLINE
  5
313
100
AcDbEntity
  8
Layer_1
 62
1
100
AcDbSpline
 70
8
 71
3
 72
8
 73
4
 74
0
 40
0
 40
0
 40
0
 40
0
 40
1
 40
1
 40
1
 40
1
 10
55.963771
 20
17.051920
 30
0.0
 10
57.160611
 20
17.051920
 30
0.0
 10
58.266536
 20
16.413414
 30
0.0
 10
58.864956
 20
15.376920
 30
0.0
  0
SPLINE
  5
314
100
AcDbEntity
  8
Layer_1
 62
1
100
AcDbSpline
 70
8
 71
3
 72
8
 73
4
 74
0
 40
0
 40
0
 40
0
 40
0
 40
1
 40
1
 40
1
 40
1
 10
58.864956
 20
15.376920
 30
0.0
 10
59.463376
 20
14.340427
 30
0.0
 10
59.463376
 20
13.063414
 30
0.0
 10
58.864956
 20
12.026920
 30
0.0
  0
SPLINE
  5
315
100
AcDbEntity
  8
Layer_1
 62
1
100
AcDbSpline
 70
8
 71
3
 72
8
 73
4
 74
0
 40
0
 40
0
 40
0
 40
0
 40
1
 40
1
 40
1
 40
1
 10
58.864956
 20
12.026920
 30
0.0
 10
58.266536
 20
10.990427
 30
0.0
 10
57.160611
 20
10.351920
 30
0.0
 10
55.963771
 20
10.351920
 30
0.0
  0
SPLINE
  5
316
100
AcDbEntity
  8
Layer_1
 62
1
100
AcDbSpline
 70
8
 71
3
 72
8
 73
4
 74
0
 40
0
 40
0
 40
0
 40
0
 40
1
 40
1
 40
1
 40
1
 10
55.963771
 20
10.351920
 30
0.0
 10
54.766931
 20
10.351920
 30
0.0
 10
53.661006
 20
10.990427
 30
0.0
 10
53.062586
 20
12.026920
 30
0.0
  0
SPLINE
  5
317
100
AcDbEntity
  8
Layer_1
 62
1
100
AcDbSpline
 70
8
 71
3
 72
8
 73
4
 74
0
 40
0
 40
0
 40
0
 40
0
 40
1
 40
1
 40
1
 40
1
 10
53.062586
 20
12.026920
 30
0.0
 10
52.464166
 20
13.063414
 30
0.0
 10
52.464166
 20
14.340427
 30
0.0
 10
53.062586
 20
15.376920
 30
0.0
  0
SPLINE
  5
318
100
AcDbEntity
  8
Layer_1
 62
1
100
AcDbSpline
 70
8
 71
3
 72
8
 73
4
 74
0
 40
0
 40
0
 40
0
 40
0
 40
1
 40
1
 40
1
 40
1
 10
53.062586
 20
15.376920
 30
0.0
 10
53.661006
 20
16.413414
 30
0.0
 10
54.766931
 20
17.051920
 30
0.0
 10
55.963771
 20
17.051920
 30
0.0
  0
LWPOLYLINE
  5
319
100
AcDbEntity
  8
Layer_1
 62
1
100
AcDbPolyline
 90
1
 70
1
 10
43.263851
 20
17.051920
 30
0.0
  0
SPLINE
  5
31a
100
AcDbEntity
  8
Layer_1
 62
1
100
AcDbSpline
 70
8
 71
3
 72
8
 73
4
 74
0
 40
0
 40
0
 40
0
 40
0
 40
1
 40
1
 40
1
 40
1
 10
68.663788
 20
17.051920
 30
0.0
 10
69.860628
 20
17.051920
 30
0.0
 10
70.966554
 20
16.413414
 30
0.0
 10
71.564974
 20
15.376920
 30
0.0
  0
SPLINE
  5
31b
100
AcDbEntity
  8
Layer_1
 62
1
100
AcDbSpline
 70
8
 71
3
 72
8
 73
4
 74
0
 40
0
 40
0
 40
0
 40
0
 40
1
 40
1
 40
1
 40
1
 10
71.564974
 20
15.376920
 30
0.0
 10
72.163393
 20
14.340427
 30
0.0
 10
72.163393
 20
13.063414
 30
0.0
 10
71.564974
 20
12.026920
 30
0.0
  0
SPLINE
  5
31c
100
AcDbEntity
  8
Layer_1
 62
1
100
AcDbSpline
 70
8
 71
3
 72
8
 73
4
 74
0
 40
0
 40
0
 40
0
 40
0
 40
1
 40
1
 40
1
 40
1
 10
71.564974
 20
12.026920
 30
0.0
 10
70.966554
 20
10.990427
 30
0.0
 10
69.860628
 20
10.351920
 30
0.0
 10
68.663788
 20
10.351920
 30
0.0
  0
SPLINE
  5
31d
100
AcDbEntity
  8
Layer_1
 62
1
100
AcDbSpline
 70
8
 71
3
 72
8
 73
4
 74
0
 40
0
 40
0
 40
0
 40
0
 40
1
 40
1
 40
1
 40
1
 10
68.663788
 20
10.351920
 30
0.0
 10
67.466949
 20
10.351920
 30
0.0
 10
66.361023
 20
10.990427
 30
0.0
 10
65.762603
 20
12.026920
 30
0.0
  0
SPLINE
  5
31e
100
AcDbEntity
  8
Layer_1
 62
1
100
AcDbSpline
 70
8
 71
3
 72
8
 73
4
 74
0
 40
0
 40
0
 40
0
 40
0
 40
1
 40
1
 40
1
 40
1
 10
65.762603
 20
12.026920
 30
0.0
 10
65.164183
 20
13.063414
 30
0.0
 10
65.164183
 20
14.340427
 30
0.0
 10
65.762603
 20
15.376920
 30
0.0
  0
SPLINE
  5
31f
100
AcDbEntity
  8
Layer_1
 62
1
100
AcDbSpline
 70
8
 71
3
 72
8
 73
4
 74
0
 40
0
 40
0
 40
0
 40
0
 40
1
 40
1
 40
1
 40
1
 10
65.762603
 20
15.376920
 30
0.0
 10
66.361023
 20
16.413414
 30
0.0
 10
67.466949
 20
17.051920
 30
0.0
 10
68.663788
 20
17.051920
 30
0.0
  0
LWPOLYLINE
  5
320
100
AcDbEntity
  8
Layer_1
 62
1
100
AcDbPolyline
 90
1
 70
1
 10
55.963771
 20
17.051920
 30
0.0
  0
SPLINE
  5
321
100
AcDbEntity
  8
Layer_1
 62
1
100
AcDbSpline
 70
8
 71
3
 72
8
 73
4
 74
0
 40
0
 40
0
 40
0
 40
0
 40
1
 40
1
 40
1
 40
1
 10
81.363770
 20
17.051920
 30
0.0
 10
82.560609
 20
17.051920
 30
0.0
 10
83.666535
 20
16.413414
 30
0.0
 10
84.264955
 20
15.376920
 30
0.0
  0
SPLINE
  5
322
100
AcDbEntity
  8
Layer_1
 62
1
100
AcDbSpline
 70
8
 71
3
 72
8
 73
4
 74
0
 40
0
 40
0
 40
0
 40
0
 40
1
 40
1
 40
1
 40
1
 10
84.264955
 20
15.376920
 30
0.0
 10
84.863375
 20
14.340427
 30
0.0
 10
84.863375
 20
13.063414
 30
0.0
 10
84.264955
 20
12.026920
 30
0.0
  0
SPLINE
  5
323
100
AcDbEntity
  8
Layer_1
 62
1
100
AcDbSpline
 70
8
 71
3
 72
8
 73
4
 74
0
 40
0
 40
0
 40
0
 40
0
 40
1
 40
1
 40
1
 40
1
 10
84.264955
 20
12.026920
 30
0.0
 10
83.666535
 20
10.990427
 30
0.0
 10
82.560609
 20
10.351920
 30
0.0
 10
81.363770
 20
10.351920
 30
0.0
  0
SPLINE
  5
324
100
AcDbEntity
  8
Layer_1
 62
1
100
AcDbSpline
 70
8
 71
3
 72
8
 73
4
 74
0
 40
0
 40
0
 40
0
 40
0
 40
1
 40
1
 40
1
 40
1
 10
81.363770
 20
10.351920
 30
0.0
 10
80.166930
 20
10.351920
 30
0.0
 10
79.061004
 20
10.990427
 30
0.0
 10
78.462584
 20
12.026920
 30
0.0
  0
SPLINE
  5
325
100
AcDbEntity
  8
Layer_1
 62
1
100
AcDbSpline
 70
8
 71
3
 72
8
 73
4
 74
0
 40
0
 40
0
 40
0
 40
0
 40
1
 40
1
 40
1
 40
1
 10
78.462584
 20
12.026920
 30
0.0
 10
77.864164
 20
13.063414
 30
0.0
 10
77.864164
 20
14.340427
 30
0.0
 10
78.462584
 20
15.376920
 30
0.0
  0
SPLINE
  5
326
100
AcDbEntity
  8
Layer_1
 62
1
100
AcDbSpline
 70
8
 71
3
 72
8
 73
4
 74
0
 40
0
 40
0
 40
0
 40
0
 40
1
 40
1
 40
1
 40
1
 10
78.462584
 20
15.376920
 30
0.0
 10
79.061004
 20
16.413414
 30
0.0
 10
80.166930
 20
17.051920
 30
0.0
 10
81.363770
 20
17.051920
 30
0.0
  0
LWPOLYLINE
  5
327
100
AcDbEntity
  8
Layer_1
 62
1
100
AcDbPolyline
 90
1
 70
1
 10
68.663788
 20
17.051920
 30
0.0
  0
SPLINE
  5
328
100
AcDbEntity
  8
Layer_1
 62
1
100
AcDbSpline
 70
8
 71
3
 72
8
 73
4
 74
0
 40
0
 40
0
 40
0
 40
0
 40
1
 40
1
 40
1
 40
1
 10
94.063782
 20
17.051920
 30
0.0
 10
95.260622
 20
17.051920
 30
0.0
 10
96.366547
 20
16.413414
 30
0.0
 10
96.964967
 20
15.376920
 30
0.0
  0
SPLINE
  5
329
100
AcDbEntity
  8
Layer_1
 62
1
100
AcDbSpline
 70
8
 71
3
 72
8
 73
4
 74
0
 40
0
 40
0
 40
0
 40
0
 40
1
 40
1
 40
1
 40
1
 10
96.964967
 20
15.376920
 30
0.0
 10
97.563387
 20
14.340427
 30
0.0
 10
97.563387
 20
13.063414
 30
0.0
 10
96.964967
 20
12.026920
 30
0.0
  0
SPLINE
  5
32a
100
AcDbEntity
  8
Layer_1
 62
1
100
AcDbSpline
 70
8
 71
3
 72
8
 73
4
 74
0
 40
0
 40
0
 40
0
 40
0
 40
1
 40
1
 40
1
 40
1
 10
96.964967
 20
12.026920
 30
0.0
 10
96.366547
 20
10.990427
 30
0.0
 10
95.260622
 20
10.351920
 30
0.0
 10
94.063782
 20
10.351920
 30
0.0
  0
SPLINE
  5
32b
100
AcDbEntity
  8
Layer_1
 62
1
100
AcDbSpline
 70
8
 71
3
 72
8
 73
4
 74
0
 40
0
 40
0
 40
0
 40
0
 40
1
 40
1
 40
1
 40
1
 10
94.063782
 20
10.351920
 30
0.0
 10
92.866942
 20
10.351920
 30
0.0
 10
91.761017
 20
10.990427
 30
0.0
 10
91.162597
 20
12.026920
 30
0.0
  0
SPLINE
  5
32c
100
AcDbEntity
  8
Layer_1
 62
1
100
AcDbSpline
 70
8
 71
3
 72
8
 73
4
 74
0
 40
0
 40
0
 40
0
 40
0
 40
1
 40
1
 40
1
 40
1
 10
91.162597
 20
12.026920
 30
0.0
 10
90.564177
 20
13.063414
 30
0.0
 10
90.564177
 20
14.340427
 30
0.0
 10
91.162597
 20
15.376920
 30
0.0
  0
SPLINE
  5
32d
100
AcDbEntity
  8
Layer_1
 62
1
100
AcDbSpline
 70
8
 71
3
 72
8
 73
4
 74
0
 40
0
 40
0
 40
0
 40
0
 40
1
 40
1
 40
1
 40
1
 10
91.162597
 20
15.376920
 30
0.0
 10
91.761017
 20
16.413414
 30
0.0
 10
92.866942
 20
17.051920
 30
0.0
 10
94.063782
 20
17.051920
 30
0.0
  0
LWPOLYLINE
  5
32e
100
AcDbEntity
  8
Layer_1
 62
1
100
AcDbPolyline
 90
1
 70
1
 10
81.363770
 20
17.051920
 30
0.0
  0
SPLINE
  5
32f
100
AcDbEntity
  8
Layer_1
 62
1
100
AcDbSpline
 70
8
 71
3
 72
8
 73
4
 74
0
 40
0
 40
0
 40
0
 40
0
 40
1
 40
1
 40
1
 40
1
 10
43.263828
 20
92.551842
 30
0.0
 10
44.460668
 20
92.551842
 30
0.0
 10
45.566593
 20
91.913336
 30
0.0
 10
46.165013
 20
90.876842
 30
0.0
  0
SPLINE
  5
330
100
AcDbEntity
  8
Layer_1
 62
1
100
AcDbSpline
 70
8
 71
3
 72
8
 73
4
 74
0
 40
0
 40
0
 40
0
 40
0
 40
1
 40
1
 40
1
 40
1
 10
46.165013
 20
90.876842
 30
0.0
 10
46.763433
 20
89.840348
 30
0.0
 10
46.763433
 20
88.563336
 30
0.0
 10
46.165013
 20
87.526842
 30
0.0
  0
SPLINE
  5
331
100
AcDbEntity
  8
Layer_1
 62
1
100
AcDbSpline
 70
8
 71
3
 72
8
 73
4
 74
0
 40
0
 40
0
 40
0
 40
0
 40
1
 40
1
 40
1
 40
1
 10
46.165013
 20
87.526842
 30
0.0
 10
45.566593
 20
86.490348
 30
0.0
 10
44.460668
 20
85.851842
 30
0.0
 10
43.263828
 20
85.851842
 30
0.0
  0
SPLINE
  5
332
100
AcDbEntity
  8
Layer_1
 62
1
100
AcDbSpline
 70
8
 71
3
 72
8
 73
4
 74
0
 40
0
 40
0
 40
0
 40
0
 40
1
 40
1
 40
1
 40
1
 10
43.263828
 20
85.851842
 30
0.0
 10
42.066988
 20
85.851842
 30
0.0
 10
40.961062
 20
86.490348
 30
0.0
 10
40.362643
 20
87.526842
 30
0.0
  0
SPLINE
  5
333
100
AcDbEntity
  8
Layer_1
 62
1
100
AcDbSpline
 70
8
 71
3
 72
8
 73
4
 74
0
 40
0
 40
0
 40
0
 40
0
 40
1
 40
1
 40
1
 40
1
 10
40.362643
 20
87.526842
 30
0.0
 10
39.764223
 20
88.563336
 30
0.0
 10
39.764223
 20
89.840348
 30
0.0
 10
40.362643
 20
90.876842
 30
0.0
  0
SPLINE
  5
334
100
AcDbEntity
  8
Layer_1
 62
1
100
AcDbSpline
 70
8
 71
3
 72
8
 73
4
 74
0
 40
0
 40
0
 40
0
 40
0
 40
1
 40
1
 40
1
 40
1
 10
40.362643
 20
90.876842
 30
0.0
 10
40.961062
 20
91.913336
 30
0.0
 10
42.066988
 20
92.551842
 30
0.0
 10
43.263828
 20
92.551842
 30
0.0
  0
LWPOLYLINE
  5
335
100
AcDbEntity
  8
Layer_1
 62
1
100
AcDbPolyline
 90
1
 70
1
 10
94.063782
 20
17.051920
 30
0.0
  0
SPLINE
  5
336
100
AcDbEntity
  8
Layer_1
 62
1
100
AcDbSpline
 70
8
 71
3
 72
8
 73
4
 74
0
 40
0
 40
0
 40
0
 40
0
 40
1
 40
1
 40
1
 40
1
 10
55.963764
 20
92.551842
 30
0.0
 10
57.160604
 20
92.551842
 30
0.0
 10
58.266529
 20
91.913336
 30
0.0
 10
58.864949
 20
90.876842
 30
0.0
  0
SPLINE
  5
337
100
AcDbEntity
  8
Layer_1
 62
1
100
AcDbSpline
 70
8
 71
3
 72
8
 73
4
 74
0
 40
0
 40
0
 40
0
 40
0
 40
1
 40
1
 40
1
 40
1
 10
58.864949
 20
90.876842
 30
0.0
 10
59.463369
 20
89.840348
 30
0.0
 10
59.463369
 20
88.563336
 30
0.0
 10
58.864949
 20
87.526842
 30
0.0
  0
SPLINE
  5
338
100
AcDbEntity
  8
Layer_1
 62
1
100
AcDbSpline
 70
8
 71
3
 72
8
 73
4
 74
0
 40
0
 40
0
 40
0
 40
0
 40
1
 40
1
 40
1
 40
1
 10
58.864949
 20
87.526842
 30
0.0
 10
58.266529
 20
86.490348
 30
0.0
 10
57.160604
 20
85.851842
 30
0.0
 10
55.963764
 20
85.851842
 30
0.0
  0
SPLINE
  5
339
100
AcDbEntity
  8
Layer_1
 62
1
100
AcDbSpline
 70
8
 71
3
 72
8
 73
4
 74
0
 40
0
 40
0
 40
0
 40
0
 40
1
 40
1
 40
1
 40
1
 10
55.963764
 20
85.851842
 30
0.0
 10
54.766924
 20
85.851842
 30
0.0
 10
53.660999
 20
86.490348
 30
0.0
 10
53.062579
 20
87.526842
 30
0.0
  0
SPLINE
  5
33a
100
AcDbEntity
  8
Layer_1
 62
1
100
AcDbSpline
 70
8
 71
3
 72
8
 73
4
 74
0
 40
0
 40
0
 40
0
 40
0
 40
1
 40
1
 40
1
 40
1
 10
53.062579
 20
87.526842
 30
0.0
 10
52.464159
 20
88.563336
 30
0.0
 10
52.464159
 20
89.840348
 30
0.0
 10
53.062579
 20
90.876842
 30
0.0
  0
SPLINE
  5
33b
100
AcDbEntity
  8
Layer_1
 62
1
100
AcDbSpline
 70
8
 71
3
 72
8
 73
4
 74
0
 40
0
 40
0
 40
0
 40
0
 40
1
 40
1
 40
1
 40
1
 10
53.062579
 20
90.876842
 30
0.0
 10
53.660999
 20
91.913336
 30
0.0
 10
54.766924
 20
92.551842
 30
0.0
 10
55.963764
 20
92.551842
 30
0.0
  0
LWPOLYLINE
  5
33c
100
AcDbEntity
  8
Layer_1
 62
1
100
AcDbPolyline
 90
1
 70
1
 10
43.263828
 20
92.551842
 30
0.0
  0
SPLINE
  5
33d
100
AcDbEntity
  8
Layer_1
 62
1
100
AcDbSpline
 70
8
 71
3
 72
8
 73
4
 74
0
 40
0
 40
0
 40
0
 40
0
 40
1
 40
1
 40
1
 40
1
 10
68.663757
 20
92.551842
 30
0.0
 10
69.860597
 20
92.551842
 30
0.0
 10
70.966523
 20
91.913336
 30
0.0
 10
71.564943
 20
90.876842
 30
0.0
  0
SPLINE
  5
33e
100
AcDbEntity
  8
Layer_1
 62
1
100
AcDbSpline
 70
8
 71
3
 72
8
 73
4
 74
0
 40
0
 40
0
 40
0
 40
0
 40
1
 40
1
 40
1
 40
1
 10
71.564943
 20
90.876842
 30
0.0
 10
72.163362
 20
89.840348
 30
0.0
 10
72.163362
 20
88.563336
 30
0.0
 10
71.564943
 20
87.526842
 30
0.0
  0
SPLINE
  5
33f
100
AcDbEntity
  8
Layer_1
 62
1
100
AcDbSpline
 70
8
 71
3
 72
8
 73
4
 74
0
 40
0
 40
0
 40
0
 40
0
 40
1
 40
1
 40
1
 40
1
 10
71.564943
 20
87.526842
 30
0.0
 10
70.966523
 20
86.490348
 30
0.0
 10
69.860597
 20
85.851842
 30
0.0
 10
68.663757
 20
85.851842
 30
0.0
  0
SPLINE
  5
340
100
AcDbEntity
  8
Layer_1
 62
1
100
AcDbSpline
 70
8
 71
3
 72
8
 73
4
 74
0
 40
0
 40
0
 40
0
 40
0
 40
1
 40
1
 40
1
 40
1
 10
68.663757
 20
85.851842
 30
0.0
 10
67.466918
 20
85.851842
 30
0.0
 10
66.360992
 20
86.490348
 30
0.0
 10
65.762572
 20
87.526842
 30
0.0
  0
SPLINE
  5
341
100
AcDbEntity
  8
Layer_1
 62
1
100
AcDbSpline
 70
8
 71
3
 72
8
 73
4
 74
0
 40
0
 40
0
 40
0
 40
0
 40
1
 40
1
 40
1
 40
1
 10
65.762572
 20
87.526842
 30
0.0
 10
65.164152
 20
88.563336
 30
0.0
 10
65.164152
 20
89.840348
 30
0.0
 10
65.762572
 20
90.876842
 30
0.0
  0
SPLINE
  5
342
100
AcDbEntity
  8
Layer_1
 62
1
100
AcDbSpline
 70
8
 71
3
 72
8
 73
4
 74
0
 40
0
 40
0
 40
0
 40
0
 40
1
 40
1
 40
1
 40
1
 10
65.762572
 20
90.876842
 30
0.0
 10
66.360992
 20
91.913336
 30
0.0
 10
67.466918
 20
92.551842
 30
0.0
 10
68.663757
 20
92.551842
 30
0.0
  0
LWPOLYLINE
  5
343
100
AcDbEntity
  8
Layer_1
 62
1
100
AcDbPolyline
 90
1
 70
1
 10
55.963764
 20
92.551842
 30
0.0
  0
SPLINE
  5
344
100
AcDbEntity
  8
Layer_1
 62
1
100
AcDbSpline
 70
8
 71
3
 72
8
 73
4
 74
0
 40
0
 40
0
 40
0
 40
0
 40
1
 40
1
 40
1
 40
1
 10
81.363755
 20
92.551842
 30
0.0
 10
82.560594
 20
92.551842
 30
0.0
 10
83.666520
 20
91.913336
 30
0.0
 10
84.264940
 20
90.876842
 30
0.0
  0
SPLINE
  5
345
100
AcDbEntity
  8
Layer_1
 62
1
100
AcDbSpline
 70
8
 71
3
 72
8
 73
4
 74
0
 40
0
 40
0
 40
0
 40
0
 40
1
 40
1
 40
1
 40
1
 10
84.264940
 20
90.876842
 30
0.0
 10
84.863360
 20
89.840348
 30
0.0
 10
84.863360
 20
88.563336
 30
0.0
 10
84.264940
 20
87.526842
 30
0.0
  0
SPLINE
  5
346
100
AcDbEntity
  8
Layer_1
 62
1
100
AcDbSpline
 70
8
 71
3
 72
8
 73
4
 74
0
 40
0
 40
0
 40
0
 40
0
 40
1
 40
1
 40
1
 40
1
 10
84.264940
 20
87.526842
 30
0.0
 10
83.666520
 20
86.490348
 30
0.0
 10
82.560594
 20
85.851842
 30
0.0
 10
81.363755
 20
85.851842
 30
0.0
  0
SPLINE
  5
347
100
AcDbEntity
  8
Layer_1
 62
1
100
AcDbSpline
 70
8
 71
3
 72
8
 73
4
 74
0
 40
0
 40
0
 40
0
 40
0
 40
1
 40
1
 40
1
 40
1
 10
81.363755
 20
85.851842
 30
0.0
 10
80.166915
 20
85.851842
 30
0.0
 10
79.060989
 20
86.490348
 30
0.0
 10
78.462569
 20
87.526842
 30
0.0
  0
SPLINE
  5
348
100
AcDbEntity
  8
Layer_1
 62
1
100
AcDbSpline
 70
8
 71
3
 72
8
 73
4
 74
0
 40
0
 40
0
 40
0
 40
0
 40
1
 40
1
 40
1
 40
1
 10
78.462569
 20
87.526842
 30
0.0
 10
77.864149
 20
88.563336
 30
0.0
 10
77.864149
 20
89.840348
 30
0.0
 10
78.462569
 20
90.876842
 30
0.0
  0
SPLINE
  5
349
100
AcDbEntity
  8
Layer_1
 62
1
100
AcDbSpline
 70
8
 71
3
 72
8
 73
4
 74
0
 40
0
 40
0
 40
0
 40
0
 40
1
 40
1
 40
1
 40
1
 10
78.462569
 20
90.876842
 30
0.0
 10
79.060989
 20
91.913336
 30
0.0
 10
80.166915
 20
92.551842
 30
0.0
 10
81.363755
 20
92.551842
 30
0.0
  0
LWPOLYLINE
  5
34a
100
AcDbEntity
  8
Layer_1
 62
1
100
AcDbPolyline
 90
1
 70
1
 10
68.663757
 20
92.551842
 30
0.0
  0
SPLINE
  5
34b
100
AcDbEntity
  8
Layer_1
 62
1
100
AcDbSpline
 70
8
 71
3
 72
8
 73
4
 74
0
 40
0
 40
0
 40
0
 40
0
 40
1
 40
1
 40
1
 40
1
 10
94.063752
 20
92.551842
 30
0.0
 10
95.260592
 20
92.551842
 30
0.0
 10
96.366517
 20
91.913336
 30
0.0
 10
96.964937
 20
90.876842
 30
0.0
  0
SPLINE
  5
34c
100
AcDbEntity
  8
Layer_1
 62
1
100
AcDbSpline
 70
8
 71
3
 72
8
 73
4
 74
0
 40
0
 40
0
 40
0
 40
0
 40
1
 40
1
 40
1
 40
1
 10
96.964937
 20
90.876842
 30
0.0
 10
97.563357
 20
89.840348
 30
0.0
 10
97.563357
 20
88.563336
 30
0.0
 10
96.964937
 20
87.526842
 30
0.0
  0
SPLINE
  5
34d
100
AcDbEntity
  8
Layer_1
 62
1
100
AcDbSpline
 70
8
 71
3
 72
8
 73
4
 74
0
 40
0
 40
0
 40
0
 40
0
 40
1
 40
1
 40
1
 40
1
 10
96.964937
 20
87.526842
 30
0.0
 10
96.366517
 20
86.490348
 30
0.0
 10
95.260592
 20
85.851842
 30
0.0
 10
94.063752
 20
85.851842
 30
0.0
  0
SPLINE
  5
34e
100
AcDbEntity
  8
Layer_1
 62
1
100
AcDbSpline
 70
8
 71
3
 72
8
 73
4
 74
0
 40
0
 40
0
 40
0
 40
0
 40
1
 40
1
 40
1
 40
1
 10
94.063752
 20
85.851842
 30
0.0
 10
92.866912
 20
85.851842
 30
0.0
 10
91.760987
 20
86.490348
 30
0.0
 10
91.162567
 20
87.526842
 30
0.0
  0
SPLINE
  5
34f
100
AcDbEntity
  8
Layer_1
 62
1
100
AcDbSpline
 70
8
 71
3
 72
8
 73
4
 74
0
 40
0
 40
0
 40
0
 40
0
 40
1
 40
1
 40
1
 40
1
 10
91.162567
 20
87.526842
 30
0.0
 10
90.564147
 20
88.563336
 30
0.0
 10
90.564147
 20
89.840348
 30
0.0
 10
91.162567
 20
90.876842
 30
0.0
  0
SPLINE
  5
350
100
AcDbEntity
  8
Layer_1
 62
1
100
AcDbSpline
 70
8
 71
3
 72
8
 73
4
 74
0
 40
0
 40
0
 40
0
 40
0
 40
1
 40
1
 40
1
 40
1
 10
91.162567
 20
90.876842
 30
0.0
 10
91.760987
 20
91.913336
 30
0.0
 10
92.866912
 20
92.551842
 30
0.0
 10
94.063752
 20
92.551842
 30
0.0
  0
LWPOLYLINE
  5
351
100
AcDbEntity
  8
Layer_1
 62
1
100
AcDbPolyline
 90
1
 70
1
 10
81.363755
 20
92.551842
 30
0.0
  0
LWPOLYLINE
  5
352
100
AcDbEntity
  8
Layer_1
 62
1
100
AcDbPolyline
 90
1
 70
1
 10
94.063752
 20
92.551842
 30
0.0
  0
LWPOLYLINE
  5
353
100
AcDbEntity
  8
Layer_1
 62
6
100
AcDbPolyline
 90
2
 70
0
 10
24.183012
 20
19.844610
 30
0.0
 10
24.183012
 20
83.344612
 30
0.0
  0
LWPOLYLINE
  5
354
100
AcDbEntity
  8
Layer_1
 62
6
100
AcDbPolyline
 90
2
 70
0
 10
43.222853
 20
19.844610
 30
0.0
 10
43.222853
 20
83.344612
 30
0.0
  0
LWPOLYLINE
  5
355
100
AcDbEntity
  8
Layer_1
 62
6
100
AcDbPolyline
 90
2
 70
0
 10
55.922853
 20
19.844610
 30
0.0
 10
55.922853
 20
83.344612
 30
0.0
  0
LWPOLYLINE
  5
356
100
AcDbEntity
  8
Layer_1
 62
6
100
AcDbPolyline
 90
2
 70
0
 10
68.622853
 20
19.844610
 30
0.0
 10
68.622853
 20
83.344612
 30
0.0
  0
LWPOLYLINE
  5
357
100
AcDbEntity
  8
Layer_1
 62
6
100
AcDbPolyline
 90
2
 70
0
 10
81.322854
 20
19.844610
 30
0.0
 10
81.322854
 20
83.344612
 30
0.0
  0
LWPOLYLINE
  5
358
100
AcDbEntity
  8
Layer_1
 62
6
100
AcDbPolyline
 90
2
 70
0
 10
94.022854
 20
19.844610
 30
0.0
 10
94.022854
 20
83.344612
 30
0.0
  0
LWPOLYLINE
  5
359
100
AcDbEntity
  8
Layer_1
 62
6
100
AcDbPolyline
 90
2
 70
0
 10
100.372854
 20
19.844610
 30
0.0
 10
24.175392
 20
19.844610
 30
0.0
  0
LWPOLYLINE
  5
35a
100
AcDbEntity
  8
Layer_1
 62
6
100
AcDbPolyline
 90
2
 70
0
 10
24.175392
 20
83.344612
 30
0.0
 10
100.372854
 20
83.344612
 30
0.0
  0
LWPOLYLINE
  5
35b
100
AcDbEntity
  8
Layer_1
 62
6
100
AcDbPolyline
 90
2
 70
0
 10
100.372854
 20
19.844610
 30
0.0
 10
100.372854
 20
83.344612
 30
0.0
  0
SPLINE
  5
35c
100
AcDbEntity
  8
Layer_1
 62
3
100
AcDbSpline
 70
8
 71
3
 72
8
 73
4
 74
0
 40
0
 40
0
 40
0
 40
0
 40
1
 40
1
 40
1
 40
1
 10
8.340175
 20
53.699339
 30
0.0
 10
9.092129
 20
53.699339
 30
0.0
 10
9.786963
 20
53.298176
 30
0.0
 10
10.162940
 20
52.646965
 30
0.0
  0
SPLINE
  5
35d
100
AcDbEntity
  8
Layer_1
 62
3
100
AcDbSpline
 70
8
 71
3
 72
8
 73
4
 74
0
 40
0
 40
0
 40
0
 40
0
 40
1
 40
1
 40
1
 40
1
 10
10.162940
 20
52.646965
 30
0.0
 10
10.538917
 20
51.995754
 30
0.0
 10
10.538917
 20
51.193429
 30
0.0
 10
10.162940
 20
50.542217
 30
0.0
  0
SPLINE
  5
35e
100
AcDbEntity
  8
Layer_1
 62
3
100
AcDbSpline
 70
8
 71
3
 72
8
 73
4
 74
0
 40
0
 40
0
 40
0
 40
0
 40
1
 40
1
 40
1
 40
1
 10
10.162940
 20
50.542217
 30
0.0
 10
9.786963
 20
49.891006
 30
0.0
 10
9.092129
 20
49.489844
 30
0.0
 10
8.340175
 20
49.489844
 30
0.0
  0
SPLINE
  5
35f
100
AcDbEntity
  8
Layer_1
 62
3
100
AcDbSpline
 70
8
 71
3
 72
8
 73
4
 74
0
 40
0
 40
0
 40
0
 40
0
 40
1
 40
1
 40
1
 40
1
 10
8.340175
 20
49.489844
 30
0.0
 10
7.588221
 20
49.489844
 30
0.0
 10
6.893387
 20
49.891006
 30
0.0
 10
6.517410
 20
50.542217
 30
0.0
  0
SPLINE
  5
360
100
AcDbEntity
  8
Layer_1
 62
3
100
AcDbSpline
 70
8
 71
3
 72
8
 73
4
 74
0
 40
0
 40
0
 40
0
 40
0
 40
1
 40
1
 40
1
 40
1
 10
6.517410
 20
50.542217
 30
0.0
 10
6.141433
 20
51.193429
 30
0.0
 10
6.141433
 20
51.995754
 30
0.0
 10
6.517410
 20
52.646965
 30
0.0
  0
SPLINE
  5
361
100
AcDbEntity
  8
Layer_1
 62
3
100
AcDbSpline
 70
8
 71
3
 72
8
 73
4
 74
0
 40
0
 40
0
 40
0
 40
0
 40
1
 40
1
 40
1
 40
1
 10
6.517410
 20
52.646965
 30
0.0
 10
6.893387
 20
53.298176
 30
0.0
 10
7.588221
 20
53.699339
 30
0.0
 10
8.340175
 20
53.699339
 30
0.0
  0
LWPOLYLINE
  5
362
100
AcDbEntity
  8
Layer_1
 62
6
100
AcDbPolyline
 90
4
 70
1
 10
2.735682
 20
41.594591
 30
0.0
 10
2.735682
 20
61.594591
 30
0.0
 10
26.735683
 20
61.594591
 30
0.0
 10
26.735683
 20
41.594591
 30
0.0
  0
SPLINE
  5
363
100
AcDbEntity
  8
Layer_1
 62
1
100
AcDbSpline
 70
8
 71
3
 72
8
 73
4
 74
0
 40
0
 40
0
 40
0
 40
0
 40
1
 40
1
 40
1
 40
1
 10
8.340175
 20
53.226541
 30
0.0
 10
8.923214
 20
53.226541
 30
0.0
 10
9.461965
 20
52.915493
 30
0.0
 10
9.753485
 20
52.410566
 30
0.0
  0
SPLINE
  5
364
100
AcDbEntity
  8
Layer_1
 62
1
100
AcDbSpline
 70
8
 71
3
 72
8
 73
4
 74
0
 40
0
 40
0
 40
0
 40
0
 40
1
 40
1
 40
1
 40
1
 10
9.753485
 20
52.410566
 30
0.0
 10
10.045005
 20
51.905639
 30
0.0
 10
10.045005
 20
51.283543
 30
0.0
 10
9.753485
 20
50.778616
 30
0.0
  0
SPLINE
  5
365
100
AcDbEntity
  8
Layer_1
 62
1
100
AcDbSpline
 70
8
 71
3
 72
8
 73
4
 74
0
 40
0
 40
0
 40
0
 40
0
 40
1
 40
1
 40
1
 40
1
 10
9.753485
 20
50.778616
 30
0.0
 10
9.461965
 20
50.273689
 30
0.0
 10
8.923214
 20
49.962641
 30
0.0
 10
8.340175
 20
49.962641
 30
0.0
  0
SPLINE
  5
366
100
AcDbEntity
  8
Layer_1
 62
1
100
AcDbSpline
 70
8
 71
3
 72
8
 73
4
 74
0
 40
0
 40
0
 40
0
 40
0
 40
1
 40
1
 40
1
 40
1
 10
8.340175
 20
49.962641
 30
0.0
 10
7.757135
 20
49.962641
 30
0.0
 10
7.218384
 20
50.273689
 30
0.0
 10
6.926865
 20
50.778616
 30
0.0
  0
SPLINE
  5
367
100
AcDbEntity
  8
Layer_1
 62
1
100
AcDbSpline
 70
8
 71
3
 72
8
 73
4
 74
0
 40
0
 40
0
 40
0
 40
0
 40
1
 40
1
 40
1
 40
1
 10
6.926865
 20
50.778616
 30
0.0
 10
6.635345
 20
51.283543
 30
0.0
 10
6.635345
 20
51.905639
 30
0.0
 10
6.926865
 20
52.410566
 30
0.0
  0
SPLINE
  5
368
100
AcDbEntity
  8
Layer_1
 62
1
100
AcDbSpline
 70
8
 71
3
 72
8
 73
4
 74
0
 40
0
 40
0
 40
0
 40
0
 40
1
 40
1
 40
1
 40
1
 10
6.926865
 20
52.410566
 30
0.0
 10
7.218384
 20
52.915493
 30
0.0
 10
7.757135
 20
53.226541
 30
0.0
 10
8.340175
 20
53.226541
 30
0.0
  0
LWPOLYLINE
  5
369
100
AcDbEntity
  8
Layer_1
 62
3
100
AcDbPolyline
 90
1
 70
1
 10
8.340175
 20
53.699339
 30
0.0
  0
LWPOLYLINE
  5
36a
100
AcDbEntity
  8
Layer_1
 62
1
100
AcDbPolyline
 90
1
 70
1
 10
8.340175
 20
53.226541
 30
0.0
  0
SPLINE
  5
36b
100
AcDbEntity
  8
Layer_1
 62
1
100
AcDbSpline
 70
8
 71
3
 72
8
 73
4
 74
0
 40
0
 40
0
 40
0
 40
0
 40
1
 40
1
 40
1
 40
1
 10
157.474331
 20
27.214281
 30
0.0
 10
157.474331
 20
26.859806
 30
0.0
 10
157.285221
 20
26.532258
 30
0.0
 10
156.978237
 20
26.355021
 30
0.0
  0
SPLINE
  5
36c
100
AcDbEntity
  8
Layer_1
 62
1
100
AcDbSpline
 70
8
 71
3
 72
8
 73
4
 74
0
 40
0
 40
0
 40
0
 40
0
 40
1
 40
1
 40
1
 40
1
 10
156.978237
 20
26.355021
 30
0.0
 10
156.671253
 20
26.177784
 30
0.0
 10
156.293033
 20
26.177784
 30
0.0
 10
155.986050
 20
26.355021
 30
0.0
  0
SPLINE
  5
36d
100
AcDbEntity
  8
Layer_1
 62
1
100
AcDbSpline
 70
8
 71
3
 72
8
 73
4
 74
0
 40
0
 40
0
 40
0
 40
0
 40
1
 40
1
 40
1
 40
1
 10
155.986050
 20
26.355021
 30
0.0
 10
155.679066
 20
26.532258
 30
0.0
 10
155.489956
 20
26.859806
 30
0.0
 10
155.489956
 20
27.214281
 30
0.0
  0
SPLINE
  5
36e
100
AcDbEntity
  8
Layer_1
 62
1
100
AcDbSpline
 70
8
 71
3
 72
8
 73
4
 74
0
 40
0
 40
0
 40
0
 40
0
 40
1
 40
1
 40
1
 40
1
 10
155.489956
 20
27.214281
 30
0.0
 10
155.489956
 20
27.568755
 30
0.0
 10
155.679066
 20
27.896303
 30
0.0
 10
155.986050
 20
28.073540
 30
0.0
  0
SPLINE
  5
36f
100
AcDbEntity
  8
Layer_1
 62
1
100
AcDbSpline
 70
8
 71
3
 72
8
 73
4
 74
0
 40
0
 40
0
 40
0
 40
0
 40
1
 40
1
 40
1
 40
1
 10
155.986050
 20
28.073540
 30
0.0
 10
156.293033
 20
28.250777
 30
0.0
 10
156.671253
 20
28.250777
 30
0.0
 10
156.978237
 20
28.073540
 30
0.0
  0
SPLINE
  5
370
100
AcDbEntity
  8
Layer_1
 62
1
100
AcDbSpline
 70
8
 71
3
 72
8
 73
4
 74
0
 40
0
 40
0
 40
0
 40
0
 40
1
 40
1
 40
1
 40
1
 10
156.978237
 20
28.073540
 30
0.0
 10
157.285221
 20
27.896303
 30
0.0
 10
157.474331
 20
27.568755
 30
0.0
 10
157.474331
 20
27.214281
 30
0.0
  0
LWPOLYLINE
  5
371
100
AcDbEntity
  8
Layer_1
 62
2
100
AcDbPolyline
 90
4
 70
1
 10
-0.377977
 20
95.102672
 30
0.0
 10
221.622028
 20
95.102672
 30
0.0
 10
221.622028
 20
5.102670
 30
0.0
 10
-0.377977
 20
5.102670
 30
0.0
  0
SPLINE
  5
372
100
AcDbEntity
  8
Layer_1
 62
3
100
AcDbSpline
 70
8
 71
3
 72
8
 73
4
 74
0
 40
0
 40
0
 40
0
 40
0
 40
1
 40
1
 40
1
 40
1
 10
159.911143
 20
27.214281
 30
0.0
 10
159.911143
 20
25.989217
 30
0.0
 10
159.257580
 20
24.857211
 30
0.0
 10
158.196643
 20
24.244680
 30
0.0
  0
SPLINE
  5
373
100
AcDbEntity
  8
Layer_1
 62
3
100
AcDbSpline
 70
8
 71
3
 72
8
 73
4
 74
0
 40
0
 40
0
 40
0
 40
0
 40
1
 40
1
 40
1
 40
1
 10
158.196643
 20
24.244680
 30
0.0
 10
157.135707
 20
23.632148
 30
0.0
 10
155.828580
 20
23.632148
 30
0.0
 10
154.767643
 20
24.244680
 30
0.0
  0
SPLINE
  5
374
100
AcDbEntity
  8
Layer_1
 62
3
100
AcDbSpline
 70
8
 71
3
 72
8
 73
4
 74
0
 40
0
 40
0
 40
0
 40
0
 40
1
 40
1
 40
1
 40
1
 10
154.767643
 20
24.244680
 30
0.0
 10
153.706707
 20
24.857211
 30
0.0
 10
153.053143
 20
25.989217
 30
0.0
 10
153.053143
 20
27.214281
 30
0.0
  0
SPLINE
  5
375
100
AcDbEntity
  8
Layer_1
 62
3
100
AcDbSpline
 70
8
 71
3
 72
8
 73
4
 74
0
 40
0
 40
0
 40
0
 40
0
 40
1
 40
1
 40
1
 40
1
 10
153.053143
 20
27.214281
 30
0.0
 10
153.053143
 20
28.439344
 30
0.0
 10
153.706707
 20
29.571350
 30
0.0
 10
154.767643
 20
30.183882
 30
0.0
  0
SPLINE
  5
376
100
AcDbEntity
  8
Layer_1
 62
3
100
AcDbSpline
 70
8
 71
3
 72
8
 73
4
 74
0
 40
0
 40
0
 40
0
 40
0
 40
1
 40
1
 40
1
 40
1
 10
154.767643
 20
30.183882
 30
0.0
 10
155.828580
 20
30.796414
 30
0.0
 10
157.135707
 20
30.796414
 30
0.0
 10
158.196643
 20
30.183882
 30
0.0
  0
SPLINE
  5
377
100
AcDbEntity
  8
Layer_1
 62
3
100
AcDbSpline
 70
8
 71
3
 72
8
 73
4
 74
0
 40
0
 40
0
 40
0
 40
0
 40
1
 40
1
 40
1
 40
1
 10
158.196643
 20
30.183882
 30
0.0
 10
159.257580
 20
29.571350
 30
0.0
 10
159.911143
 20
28.439344
 30
0.0
 10
159.911143
 20
27.214281
 30
0.0
  0
LWPOLYLINE
  5
378
100
AcDbEntity
  8
Layer_1
 62
1
100
AcDbPolyline
 90
1
 70
1
 10
157.474331
 20
27.214281
 30
0.0
  0
LWPOLYLINE
  5
379
100
AcDbEntity
  8
Layer_1
 62
3
100
AcDbPolyline
 90
1
 70
1
 10
159.911143
 20
27.214281
 30
0.0
  0
LWPOLYLINE
  5
37a
100
AcDbEntity
  8
Layer_1
 62
1
100
AcDbPolyline
 90
2
 70
0
 10
162.101273
 20
23.543111
 30
0.0
 10
162.101273
 20
8.543110
 30
0.0
  0
LWPOLYLINE
  5
37b
100
AcDbEntity
  8
Layer_1
 62
1
100
AcDbPolyline
 90
2
 70
0
 10
207.101444
 20
23.543111
 30
0.0
 10
207.101444
 20
8.543110
 30
0.0
  0
LWPOLYLINE
  5
37c
100
AcDbEntity
  8
Layer_1
 62
1
100
AcDbPolyline
 90
2
 70
0
 10
166.601294
 20
23.543111
 30
0.0
 10
166.601294
 20
8.543110
 30
0.0
  0
LWPOLYLINE
  5
37d
100
AcDbEntity
  8
Layer_1
 62
1
100
AcDbPolyline
 90
2
 70
0
 10
171.101314
 20
23.543111
 30
0.0
 10
171.101314
 20
8.543110
 30
0.0
  0
LWPOLYLINE
  5
37e
100
AcDbEntity
  8
Layer_1
 62
1
100
AcDbPolyline
 90
2
 70
0
 10
175.601324
 20
23.543111
 30
0.0
 10
175.601324
 20
8.543110
 30
0.0
  0
LWPOLYLINE
  5
37f
100
AcDbEntity
  8
Layer_1
 62
1
100
AcDbPolyline
 90
2
 70
0
 10
180.101344
 20
23.543111
 30
0.0
 10
180.101344
 20
8.543110
 30
0.0
  0
LWPOLYLINE
  5
380
100
AcDbEntity
  8
Layer_1
 62
1
100
AcDbPolyline
 90
2
 70
0
 10
184.601364
 20
23.543111
 30
0.0
 10
184.601364
 20
8.543110
 30
0.0
  0
LWPOLYLINE
  5
381
100
AcDbEntity
  8
Layer_1
 62
1
100
AcDbPolyline
 90
2
 70
0
 10
189.101374
 20
23.543111
 30
0.0
 10
189.101374
 20
8.543110
 30
0.0
  0
LWPOLYLINE
  5
382
100
AcDbEntity
  8
Layer_1
 62
1
100
AcDbPolyline
 90
2
 70
0
 10
193.601394
 20
23.543111
 30
0.0
 10
193.601394
 20
8.543110
 30
0.0
  0
LWPOLYLINE
  5
383
100
AcDbEntity
  8
Layer_1
 62
1
100
AcDbPolyline
 90
2
 70
0
 10
202.601414
 20
23.543111
 30
0.0
 10
202.601414
 20
8.543110
 30
0.0
  0
LWPOLYLINE
  5
384
100
AcDbEntity
  8
Layer_1
 62
1
100
AcDbPolyline
 90
2
 70
0
 10
198.101404
 20
23.543111
 30
0.0
 10
198.101404
 20
8.543110
 30
0.0
  0
LWPOLYLINE
  5
385
100
AcDbEntity
  8
Layer_1
 62
2
100
AcDbPolyline
 90
2
 70
0
 10
162.101273
 20
23.543111
 30
0.0
 10
207.101444
 20
23.543111
 30
0.0
  0
LWPOLYLINE
  5
386
100
AcDbEntity
  8
Layer_1
 62
2
100
AcDbPolyline
 90
2
 70
0
 10
162.101273
 20
8.543110
 30
0.0
 10
207.101444
 20
8.543110
 30
0.0
  0
ENDSEC
  0
SECTION
  2
OBJECTS
  0
DICTIONARY
  5
C
330
0
100
AcDbDictionary
  3
ACAD_GROUP
350
D
  3
ACAD_MLINESTYLE
350
17
  0
DICTIONARY
  5
D
330
C
100
AcDbDictionary
  0
DICTIONARY
  5
1A
330
C
100
AcDbDictionary
  0
DICTIONARY
  5
17
330
C
100
AcDbDictionary
  3
STANDARD
350
18
  0
DICTIONARY
  5
19
330
C
100
AcDbDictionary
  0
ENDSEC
  0
EOF
