  0
SECTION
  2
HEADER
  9
$ACADVER
  1
AC1014
  9
$HANDSEED
  5
FFFF
  9
$MEASUREMENT
 70
     1
  0
ENDSEC
  0
SECTION
  2
TABLES
  0
TABLE
  2
VPORT
  5
8
330
0
100
AcDbSymbolTable
 70
     4
  0
VPORT
  5
2E
330
8
100
AcDbSymbolTableRecord
100
AcDbViewportTableRecord
  2
*ACTIVE
 70
     0
 10
0.0
 20
0.0
 11
1.0
 21
1.0
 12
210.0
 22
148.5
 13
0.0
 23
0.0
 14
10.0
 24
10.0
 15
10.0
 25
10.0
 16
0.0
 26
0.0
 36
1.0
 17
0.0
 27
0.0
 37
0.0
 40
341.0
 41
1.24
 42
50.0
 43
0.0
 44
0.0
 50
0.0
 51
0.0
 71
     0
 72
   100
 73
     1
 74
     3
 75
     0
 76
     0
 77
     0
 78
     0
  0
ENDTAB
  0
TABLE
  2
LTYPE
  5
5
330
0
100
AcDbSymbolTable
 70
     1
  0
LTYPE
  5
14
330
5
100
AcDbSymbolTableRecord
100
AcDbLinetypeTableRecord
  2
BYBLOCK
 70
     0
  3

 72
    65
 73
     0
 40
0.0
  0
LTYPE
  5
15
330
5
100
AcDbSymbolTableRecord
100
AcDbLinetypeTableRecord
  2
BYLAYER
 70
     0
  3

 72
    65
 73
     0
 40
0.0
  0
LTYPE
  5
16
330
5
100
AcDbSymbolTableRecord
100
AcDbLinetypeTableRecord
  2
CONTINUOUS
 70
     0
  3
Solid line
 72
    65
 73
     0
 40
0.0
  0
ENDTAB
  0
TABLE
  2
LAYER
  5
2
100
AcDbSymbolTable
 70
2
  0
LAYER
  5
50
100
AcDbSymbolTableRecord
100
AcDbLayerTableRecord
  2
0
 70
0
  6
CONTINUOUS
  0
LAYER
  5
51
100
AcDbSymbolTableRecord
100
AcDbLayerTableRecord
  2
Layer_1
 70
0
  6
CONTINUOUS
  0
ENDTAB
  0
TABLE
  2
STYLE
  5
3
330
0
100
AcDbSymbolTable
 70
     1
  0
STYLE
  5
11
330
3
100
AcDbSymbolTableRecord
100
AcDbTextStyleTableRecord
  2
STANDARD
 70
     0
 40
0.0
 41
1.0
 50
0.0
 71
     0
 42
2.5
  3
txt
  4

  0
ENDTAB
  0
TABLE
  2
VIEW
  5
6
330
0
100
AcDbSymbolTable
 70
     0
  0
ENDTAB
  0
TABLE
  2
UCS
  5
7
330
0
100
AcDbSymbolTable
 70
     0
  0
ENDTAB
  0
TABLE
  2
APPID
  5
9
330
0
100
AcDbSymbolTable
 70
     2
  0
APPID
  5
12
330
9
100
AcDbSymbolTableRecord
100
AcDbRegAppTableRecord
  2
ACAD
 70
     0
  0
ENDTAB
  0
TABLE
  2
DIMSTYLE
  5
A
330
0
100
AcDbSymbolTable
 70
     1
  0
DIMSTYLE
105
27
330
A
100
AcDbSymbolTableRecord
100
AcDbDimStyleTableRecord
  2
ISO-25
 70
     0
  3

  4

  5

  6

  7

 40
1.0
 41
2.5
 42
0.625
 43
3.75
 44
1.25
 45
0.0
 46
0.0
 47
0.0
 48
0.0
140
2.5
141
2.5
142
0.0
143
0.03937007874016
144
1.0
145
0.0
146
1.0
147
0.625
 71
     0
 72
     0
 73
     0
 74
     0
 75
     0
 76
     0
 77
     1
 78
     8
170
     0
171
     3
172
     1
173
     0
174
     0
175
     0
176
     0
177
     0
178
     0
270
     2
271
     2
272
     2
273
     2
274
     3
340
11
275
     0
280
     0
281
     0
282
     0
283
     0
284
     8
285
     0
286
     0
287
     3
288
     0
  0
ENDTAB
  0
TABLE
  2
BLOCK_RECORD
  5
1
330
0
100
AcDbSymbolTable
 70
     1
  0
BLOCK_RECORD
  5
1F
330
1
100
AcDbSymbolTableRecord
100
AcDbBlockTableRecord
  2
*MODEL_SPACE
  0
BLOCK_RECORD
  5
1B
330
1
100
AcDbSymbolTableRecord
100
AcDbBlockTableRecord
  2
*PAPER_SPACE
  0
ENDTAB
  0
ENDSEC
  0
SECTION
  2
BLOCKS
  0
BLOCK
  5
20
330
1F
100
AcDbEntity
  8
0
100
AcDbBlockBegin
  2
*MODEL_SPACE
 70
     0
 10
0.0
 20
0.0
 30
0.0
  3
*MODEL_SPACE
  1

  0
ENDBLK
  5
21
330
1F
100
AcDbEntity
  8
0
100
AcDbBlockEnd
  0
BLOCK
  5
1C
330
1B
100
AcDbEntity
 67
     1
  8
0
100
AcDbBlockBegin
  2
*PAPER_SPACE
  1

  0
ENDBLK
  5
1D
330
1B
100
AcDbEntity
 67
     1
  8
0
100
AcDbBlockEnd
  0
ENDSEC
  0
SECTION
  2
ENTITIES
  0
LINE
  5
100
100
AcDbEntity
  8
Layer_1
 62
6
100
AcDbLine
 10
-0.090877
 20
36.426650
 30
0.0
 11
-0.090877
 21
20.170650
 31
0.0
  0
LINE
  5
101
100
AcDbEntity
  8
Layer_1
 62
6
100
AcDbLine
 10
106.970130
 20
20.170650
 30
0.0
 11
-0.090877
 21
20.170650
 31
0.0
  0
LINE
  5
102
100
AcDbEntity
  8
Layer_1
 62
6
100
AcDbLine
 10
106.970130
 20
36.426650
 30
0.0
 11
106.970130
 21
20.170650
 31
0.0
  0
LINE
  5
103
100
AcDbEntity
  8
Layer_1
 62
6
100
AcDbLine
 10
-0.090877
 20
36.426650
 30
0.0
 11
106.970130
 21
36.426650
 31
0.0
  0
SPLINE
  5
104
100
AcDbEntity
  8
Layer_1
 62
1
100
AcDbSpline
 70
8
 71
3
 72
8
 73
4
 74
0
 40
0
 40
0
 40
0
 40
0
 40
1
 40
1
 40
1
 40
1
 10
72.498140
 20
28.423270
 30
0.0
 10
72.498140
 20
29.838888
 30
0.0
 10
71.645392
 20
31.115115
 30
0.0
 10
70.337532
 20
31.656848
 30
0.0
  0
SPLINE
  5
105
100
AcDbEntity
  8
Layer_1
 62
1
100
AcDbSpline
 70
8
 71
3
 72
8
 73
4
 74
0
 40
0
 40
0
 40
0
 40
0
 40
1
 40
1
 40
1
 40
1
 10
70.337532
 20
31.656848
 30
0.0
 10
69.029672
 20
32.198582
 30
0.0
 10
67.524259
 20
31.899137
 30
0.0
 10
66.523266
 20
30.898144
 30
0.0
  0
SPLINE
  5
106
100
AcDbEntity
  8
Layer_1
 62
1
100
AcDbSpline
 70
8
 71
3
 72
8
 73
4
 74
0
 40
0
 40
0
 40
0
 40
0
 40
1
 40
1
 40
1
 40
1
 10
66.523266
 20
30.898144
 30
0.0
 10
65.522273
 20
29.897151
 30
0.0
 10
65.222828
 20
28.391738
 30
0.0
 10
65.764562
 20
27.083878
 30
0.0
  0
SPLINE
  5
107
100
AcDbEntity
  8
Layer_1
 62
1
100
AcDbSpline
 70
8
 71
3
 72
8
 73
4
 74
0
 40
0
 40
0
 40
0
 40
0
 40
1
 40
1
 40
1
 40
1
 10
65.764562
 20
27.083878
 30
0.0
 10
66.306295
 20
25.776018
 30
0.0
 10
67.582522
 20
24.923270
 30
0.0
 10
68.998140
 20
24.923270
 30
0.0
  0
SPLINE
  5
108
100
AcDbEntity
  8
Layer_1
 62
1
100
AcDbSpline
 70
8
 71
3
 72
8
 73
4
 74
0
 40
0
 40
0
 40
0
 40
0
 40
1
 40
1
 40
1
 40
1
 10
68.998140
 20
24.923270
 30
0.0
 10
69.926398
 20
24.923270
 30
0.0
 10
70.816636
 20
25.292019
 30
0.0
 10
71.473014
 20
25.948396
 30
0.0
  0
SPLINE
  5
109
100
AcDbEntity
  8
Layer_1
 62
1
100
AcDbSpline
 70
8
 71
3
 72
8
 73
4
 74
0
 40
0
 40
0
 40
0
 40
0
 40
1
 40
1
 40
1
 40
1
 10
71.473014
 20
25.948396
 30
0.0
 10
72.129391
 20
26.604774
 30
0.0
 10
72.498140
 20
27.495012
 30
0.0
 10
72.498140
 20
28.423270
 30
0.0
  0
LINE
  5
10a
100
AcDbEntity
  8
Layer_1
 62
1
100
AcDbLine
 10
72.498140
 20
28.423270
 30
0.0
 11
72.498140
 21
28.423270
 31
0.0
  0
SPLINE
  5
10b
100
AcDbEntity
  8
Layer_1
 62
1
100
AcDbSpline
 70
8
 71
3
 72
8
 73
4
 74
0
 40
0
 40
0
 40
0
 40
0
 40
1
 40
1
 40
1
 40
1
 10
59.798150
 20
28.423270
 30
0.0
 10
59.798150
 20
29.838888
 30
0.0
 10
58.945402
 20
31.115115
 30
0.0
 10
57.637542
 20
31.656848
 30
0.0
  0
SPLINE
  5
10c
100
AcDbEntity
  8
Layer_1
 62
1
100
AcDbSpline
 70
8
 71
3
 72
8
 73
4
 74
0
 40
0
 40
0
 40
0
 40
0
 40
1
 40
1
 40
1
 40
1
 10
57.637542
 20
31.656848
 30
0.0
 10
56.329682
 20
32.198582
 30
0.0
 10
54.824269
 20
31.899137
 30
0.0
 10
53.823276
 20
30.898144
 30
0.0
  0
SPLINE
  5
10d
100
AcDbEntity
  8
Layer_1
 62
1
100
AcDbSpline
 70
8
 71
3
 72
8
 73
4
 74
0
 40
0
 40
0
 40
0
 40
0
 40
1
 40
1
 40
1
 40
1
 10
53.823276
 20
30.898144
 30
0.0
 10
52.822283
 20
29.897151
 30
0.0
 10
52.522838
 20
28.391738
 30
0.0
 10
53.064572
 20
27.083878
 30
0.0
  0
SPLINE
  5
10e
100
AcDbEntity
  8
Layer_1
 62
1
100
AcDbSpline
 70
8
 71
3
 72
8
 73
4
 74
0
 40
0
 40
0
 40
0
 40
0
 40
1
 40
1
 40
1
 40
1
 10
53.064572
 20
27.083878
 30
0.0
 10
53.606305
 20
25.776018
 30
0.0
 10
54.882532
 20
24.923270
 30
0.0
 10
56.298150
 20
24.923270
 30
0.0
  0
SPLINE
  5
10f
100
AcDbEntity
  8
Layer_1
 62
1
100
AcDbSpline
 70
8
 71
3
 72
8
 73
4
 74
0
 40
0
 40
0
 40
0
 40
0
 40
1
 40
1
 40
1
 40
1
 10
56.298150
 20
24.923270
 30
0.0
 10
57.226408
 20
24.923270
 30
0.0
 10
58.116646
 20
25.292019
 30
0.0
 10
58.773024
 20
25.948396
 30
0.0
  0
SPLINE
  5
110
100
AcDbEntity
  8
Layer_1
 62
1
100
AcDbSpline
 70
8
 71
3
 72
8
 73
4
 74
0
 40
0
 40
0
 40
0
 40
0
 40
1
 40
1
 40
1
 40
1
 10
58.773024
 20
25.948396
 30
0.0
 10
59.429401
 20
26.604774
 30
0.0
 10
59.798150
 20
27.495012
 30
0.0
 10
59.798150
 20
28.423270
 30
0.0
  0
LINE
  5
111
100
AcDbEntity
  8
Layer_1
 62
1
100
AcDbLine
 10
59.798150
 20
28.423270
 30
0.0
 11
59.798150
 21
28.423270
 31
0.0
  0
SPLINE
  5
112
100
AcDbEntity
  8
Layer_1
 62
1
100
AcDbSpline
 70
8
 71
3
 72
8
 73
4
 74
0
 40
0
 40
0
 40
0
 40
0
 40
1
 40
1
 40
1
 40
1
 10
41.510140
 20
28.423270
 30
0.0
 10
41.510140
 20
29.838888
 30
0.0
 10
40.657392
 20
31.115115
 30
0.0
 10
39.349532
 20
31.656848
 30
0.0
  0
SPLINE
  5
113
100
AcDbEntity
  8
Layer_1
 62
1
100
AcDbSpline
 70
8
 71
3
 72
8
 73
4
 74
0
 40
0
 40
0
 40
0
 40
0
 40
1
 40
1
 40
1
 40
1
 10
39.349532
 20
31.656848
 30
0.0
 10
38.041672
 20
32.198582
 30
0.0
 10
36.536259
 20
31.899137
 30
0.0
 10
35.535266
 20
30.898144
 30
0.0
  0
SPLINE
  5
114
100
AcDbEntity
  8
Layer_1
 62
1
100
AcDbSpline
 70
8
 71
3
 72
8
 73
4
 74
0
 40
0
 40
0
 40
0
 40
0
 40
1
 40
1
 40
1
 40
1
 10
35.535266
 20
30.898144
 30
0.0
 10
34.534273
 20
29.897151
 30
0.0
 10
34.234828
 20
28.391738
 30
0.0
 10
34.776562
 20
27.083878
 30
0.0
  0
SPLINE
  5
115
100
AcDbEntity
  8
Layer_1
 62
1
100
AcDbSpline
 70
8
 71
3
 72
8
 73
4
 74
0
 40
0
 40
0
 40
0
 40
0
 40
1
 40
1
 40
1
 40
1
 10
34.776562
 20
27.083878
 30
0.0
 10
35.318295
 20
25.776018
 30
0.0
 10
36.594522
 20
24.923270
 30
0.0
 10
38.010140
 20
24.923270
 30
0.0
  0
SPLINE
  5
116
100
AcDbEntity
  8
Layer_1
 62
1
100
AcDbSpline
 70
8
 71
3
 72
8
 73
4
 74
0
 40
0
 40
0
 40
0
 40
0
 40
1
 40
1
 40
1
 40
1
 10
38.010140
 20
24.923270
 30
0.0
 10
38.938398
 20
24.923270
 30
0.0
 10
39.828636
 20
25.292019
 30
0.0
 10
40.485014
 20
25.948396
 30
0.0
  0
SPLINE
  5
117
100
AcDbEntity
  8
Layer_1
 62
1
100
AcDbSpline
 70
8
 71
3
 72
8
 73
4
 74
0
 40
0
 40
0
 40
0
 40
0
 40
1
 40
1
 40
1
 40
1
 10
40.485014
 20
25.948396
 30
0.0
 10
41.141391
 20
26.604774
 30
0.0
 10
41.510140
 20
27.495012
 30
0.0
 10
41.510140
 20
28.423270
 30
0.0
  0
LINE
  5
118
100
AcDbEntity
  8
Layer_1
 62
1
100
AcDbLine
 10
41.510140
 20
28.423270
 30
0.0
 11
41.510140
 21
28.423270
 31
0.0
  0
SPLINE
  5
119
100
AcDbEntity
  8
Layer_1
 62
1
100
AcDbSpline
 70
8
 71
3
 72
8
 73
4
 74
0
 40
0
 40
0
 40
0
 40
0
 40
1
 40
1
 40
1
 40
1
 10
28.810140
 20
28.423270
 30
0.0
 10
28.810140
 20
29.838888
 30
0.0
 10
27.957392
 20
31.115115
 30
0.0
 10
26.649532
 20
31.656848
 30
0.0
  0
SPLINE
  5
11a
100
AcDbEntity
  8
Layer_1
 62
1
100
AcDbSpline
 70
8
 71
3
 72
8
 73
4
 74
0
 40
0
 40
0
 40
0
 40
0
 40
1
 40
1
 40
1
 40
1
 10
26.649532
 20
31.656848
 30
0.0
 10
25.341672
 20
32.198582
 30
0.0
 10
23.836259
 20
31.899137
 30
0.0
 10
22.835266
 20
30.898144
 30
0.0
  0
SPLINE
  5
11b
100
AcDbEntity
  8
Layer_1
 62
1
100
AcDbSpline
 70
8
 71
3
 72
8
 73
4
 74
0
 40
0
 40
0
 40
0
 40
0
 40
1
 40
1
 40
1
 40
1
 10
22.835266
 20
30.898144
 30
0.0
 10
21.834273
 20
29.897151
 30
0.0
 10
21.534828
 20
28.391738
 30
0.0
 10
22.076562
 20
27.083878
 30
0.0
  0
SPLINE
  5
11c
100
AcDbEntity
  8
Layer_1
 62
1
100
AcDbSpline
 70
8
 71
3
 72
8
 73
4
 74
0
 40
0
 40
0
 40
0
 40
0
 40
1
 40
1
 40
1
 40
1
 10
22.076562
 20
27.083878
 30
0.0
 10
22.618295
 20
25.776018
 30
0.0
 10
23.894522
 20
24.923270
 30
0.0
 10
25.310140
 20
24.923270
 30
0.0
  0
SPLINE
  5
11d
100
AcDbEntity
  8
Layer_1
 62
1
100
AcDbSpline
 70
8
 71
3
 72
8
 73
4
 74
0
 40
0
 40
0
 40
0
 40
0
 40
1
 40
1
 40
1
 40
1
 10
25.310140
 20
24.923270
 30
0.0
 10
26.238398
 20
24.923270
 30
0.0
 10
27.128636
 20
25.292019
 30
0.0
 10
27.785014
 20
25.948396
 30
0.0
  0
SPLINE
  5
11e
100
AcDbEntity
  8
Layer_1
 62
1
100
AcDbSpline
 70
8
 71
3
 72
8
 73
4
 74
0
 40
0
 40
0
 40
0
 40
0
 40
1
 40
1
 40
1
 40
1
 10
27.785014
 20
25.948396
 30
0.0
 10
28.441391
 20
26.604774
 30
0.0
 10
28.810140
 20
27.495012
 30
0.0
 10
28.810140
 20
28.423270
 30
0.0
  0
LINE
  5
11f
100
AcDbEntity
  8
Layer_1
 62
1
100
AcDbLine
 10
28.810140
 20
28.423270
 30
0.0
 11
28.810140
 21
28.423270
 31
0.0
  0
SPLINE
  5
120
100
AcDbEntity
  8
Layer_1
 62
1
100
AcDbSpline
 70
8
 71
3
 72
8
 73
4
 74
0
 40
0
 40
0
 40
0
 40
0
 40
1
 40
1
 40
1
 40
1
 10
16.110240
 20
28.423270
 30
0.0
 10
16.110240
 20
29.838888
 30
0.0
 10
15.257492
 20
31.115115
 30
0.0
 10
13.949632
 20
31.656848
 30
0.0
  0
SPLINE
  5
121
100
AcDbEntity
  8
Layer_1
 62
1
100
AcDbSpline
 70
8
 71
3
 72
8
 73
4
 74
0
 40
0
 40
0
 40
0
 40
0
 40
1
 40
1
 40
1
 40
1
 10
13.949632
 20
31.656848
 30
0.0
 10
12.641772
 20
32.198582
 30
0.0
 10
11.136359
 20
31.899137
 30
0.0
 10
10.135366
 20
30.898144
 30
0.0
  0
SPLINE
  5
122
100
AcDbEntity
  8
Layer_1
 62
1
100
AcDbSpline
 70
8
 71
3
 72
8
 73
4
 74
0
 40
0
 40
0
 40
0
 40
0
 40
1
 40
1
 40
1
 40
1
 10
10.135366
 20
30.898144
 30
0.0
 10
9.134373
 20
29.897151
 30
0.0
 10
8.834928
 20
28.391738
 30
0.0
 10
9.376662
 20
27.083878
 30
0.0
  0
SPLINE
  5
123
100
AcDbEntity
  8
Layer_1
 62
1
100
AcDbSpline
 70
8
 71
3
 72
8
 73
4
 74
0
 40
0
 40
0
 40
0
 40
0
 40
1
 40
1
 40
1
 40
1
 10
9.376662
 20
27.083878
 30
0.0
 10
9.918395
 20
25.776018
 30
0.0
 10
11.194622
 20
24.923270
 30
0.0
 10
12.610240
 20
24.923270
 30
0.0
  0
SPLINE
  5
124
100
AcDbEntity
  8
Layer_1
 62
1
100
AcDbSpline
 70
8
 71
3
 72
8
 73
4
 74
0
 40
0
 40
0
 40
0
 40
0
 40
1
 40
1
 40
1
 40
1
 10
12.610240
 20
24.923270
 30
0.0
 10
13.538498
 20
24.923270
 30
0.0
 10
14.428736
 20
25.292019
 30
0.0
 10
15.085114
 20
25.948396
 30
0.0
  0
SPLINE
  5
125
100
AcDbEntity
  8
Layer_1
 62
1
100
AcDbSpline
 70
8
 71
3
 72
8
 73
4
 74
0
 40
0
 40
0
 40
0
 40
0
 40
1
 40
1
 40
1
 40
1
 10
15.085114
 20
25.948396
 30
0.0
 10
15.741491
 20
26.604774
 30
0.0
 10
16.110240
 20
27.495012
 30
0.0
 10
16.110240
 20
28.423270
 30
0.0
  0
LINE
  5
126
100
AcDbEntity
  8
Layer_1
 62
1
100
AcDbLine
 10
16.110240
 20
28.423270
 30
0.0
 11
16.110240
 21
28.423270
 31
0.0
  0
SPLINE
  5
127
100
AcDbEntity
  8
Layer_1
 62
1
100
AcDbSpline
 70
8
 71
3
 72
8
 73
4
 74
0
 40
0
 40
0
 40
0
 40
0
 40
1
 40
1
 40
1
 40
1
 10
85.198140
 20
28.423270
 30
0.0
 10
85.198140
 20
29.838888
 30
0.0
 10
84.345392
 20
31.115115
 30
0.0
 10
83.037532
 20
31.656848
 30
0.0
  0
SPLINE
  5
128
100
AcDbEntity
  8
Layer_1
 62
1
100
AcDbSpline
 70
8
 71
3
 72
8
 73
4
 74
0
 40
0
 40
0
 40
0
 40
0
 40
1
 40
1
 40
1
 40
1
 10
83.037532
 20
31.656848
 30
0.0
 10
81.729672
 20
32.198582
 30
0.0
 10
80.224259
 20
31.899137
 30
0.0
 10
79.223266
 20
30.898144
 30
0.0
  0
SPLINE
  5
129
100
AcDbEntity
  8
Layer_1
 62
1
100
AcDbSpline
 70
8
 71
3
 72
8
 73
4
 74
0
 40
0
 40
0
 40
0
 40
0
 40
1
 40
1
 40
1
 40
1
 10
79.223266
 20
30.898144
 30
0.0
 10
78.222273
 20
29.897151
 30
0.0
 10
77.922828
 20
28.391738
 30
0.0
 10
78.464562
 20
27.083878
 30
0.0
  0
SPLINE
  5
12a
100
AcDbEntity
  8
Layer_1
 62
1
100
AcDbSpline
 70
8
 71
3
 72
8
 73
4
 74
0
 40
0
 40
0
 40
0
 40
0
 40
1
 40
1
 40
1
 40
1
 10
78.464562
 20
27.083878
 30
0.0
 10
79.006295
 20
25.776018
 30
0.0
 10
80.282522
 20
24.923270
 30
0.0
 10
81.698140
 20
24.923270
 30
0.0
  0
SPLINE
  5
12b
100
AcDbEntity
  8
Layer_1
 62
1
100
AcDbSpline
 70
8
 71
3
 72
8
 73
4
 74
0
 40
0
 40
0
 40
0
 40
0
 40
1
 40
1
 40
1
 40
1
 10
81.698140
 20
24.923270
 30
0.0
 10
82.626398
 20
24.923270
 30
0.0
 10
83.516636
 20
25.292019
 30
0.0
 10
84.173014
 20
25.948396
 30
0.0
  0
SPLINE
  5
12c
100
AcDbEntity
  8
Layer_1
 62
1
100
AcDbSpline
 70
8
 71
3
 72
8
 73
4
 74
0
 40
0
 40
0
 40
0
 40
0
 40
1
 40
1
 40
1
 40
1
 10
84.173014
 20
25.948396
 30
0.0
 10
84.829391
 20
26.604774
 30
0.0
 10
85.198140
 20
27.495012
 30
0.0
 10
85.198140
 20
28.423270
 30
0.0
  0
LINE
  5
12d
100
AcDbEntity
  8
Layer_1
 62
1
100
AcDbLine
 10
85.198140
 20
28.423270
 30
0.0
 11
85.198140
 21
28.423270
 31
0.0
  0
SPLINE
  5
12e
100
AcDbEntity
  8
Layer_1
 62
1
100
AcDbSpline
 70
8
 71
3
 72
8
 73
4
 74
0
 40
0
 40
0
 40
0
 40
0
 40
1
 40
1
 40
1
 40
1
 10
97.898140
 20
28.423270
 30
0.0
 10
97.898140
 20
29.838888
 30
0.0
 10
97.045392
 20
31.115115
 30
0.0
 10
95.737532
 20
31.656848
 30
0.0
  0
SPLINE
  5
12f
100
AcDbEntity
  8
Layer_1
 62
1
100
AcDbSpline
 70
8
 71
3
 72
8
 73
4
 74
0
 40
0
 40
0
 40
0
 40
0
 40
1
 40
1
 40
1
 40
1
 10
95.737532
 20
31.656848
 30
0.0
 10
94.429672
 20
32.198582
 30
0.0
 10
92.924259
 20
31.899137
 30
0.0
 10
91.923266
 20
30.898144
 30
0.0
  0
SPLINE
  5
130
100
AcDbEntity
  8
Layer_1
 62
1
100
AcDbSpline
 70
8
 71
3
 72
8
 73
4
 74
0
 40
0
 40
0
 40
0
 40
0
 40
1
 40
1
 40
1
 40
1
 10
91.923266
 20
30.898144
 30
0.0
 10
90.922273
 20
29.897151
 30
0.0
 10
90.622828
 20
28.391738
 30
0.0
 10
91.164562
 20
27.083878
 30
0.0
  0
SPLINE
  5
131
100
AcDbEntity
  8
Layer_1
 62
1
100
AcDbSpline
 70
8
 71
3
 72
8
 73
4
 74
0
 40
0
 40
0
 40
0
 40
0
 40
1
 40
1
 40
1
 40
1
 10
91.164562
 20
27.083878
 30
0.0
 10
91.706295
 20
25.776018
 30
0.0
 10
92.982522
 20
24.923270
 30
0.0
 10
94.398140
 20
24.923270
 30
0.0
  0
SPLINE
  5
132
100
AcDbEntity
  8
Layer_1
 62
1
100
AcDbSpline
 70
8
 71
3
 72
8
 73
4
 74
0
 40
0
 40
0
 40
0
 40
0
 40
1
 40
1
 40
1
 40
1
 10
94.398140
 20
24.923270
 30
0.0
 10
95.326398
 20
24.923270
 30
0.0
 10
96.216636
 20
25.292019
 30
0.0
 10
96.873014
 20
25.948396
 30
0.0
  0
SPLINE
  5
133
100
AcDbEntity
  8
Layer_1
 62
1
100
AcDbSpline
 70
8
 71
3
 72
8
 73
4
 74
0
 40
0
 40
0
 40
0
 40
0
 40
1
 40
1
 40
1
 40
1
 10
96.873014
 20
25.948396
 30
0.0
 10
97.529391
 20
26.604774
 30
0.0
 10
97.898140
 20
27.495012
 30
0.0
 10
97.898140
 20
28.423270
 30
0.0
  0
LINE
  5
134
100
AcDbEntity
  8
Layer_1
 62
1
100
AcDbLine
 10
97.898140
 20
28.423270
 30
0.0
 11
97.898140
 21
28.423270
 31
0.0
  0
SPLINE
  5
135
100
AcDbEntity
  8
Layer_1
 62
1
100
AcDbSpline
 70
8
 71
3
 72
8
 73
4
 74
0
 40
0
 40
0
 40
0
 40
0
 40
1
 40
1
 40
1
 40
1
 10
104.642270
 20
22.835260
 30
0.0
 10
104.642270
 20
22.390351
 30
0.0
 10
104.374264
 20
21.989252
 30
0.0
 10
103.963222
 20
21.818992
 30
0.0
  0
SPLINE
  5
136
100
AcDbEntity
  8
Layer_1
 62
1
100
AcDbSpline
 70
8
 71
3
 72
8
 73
4
 74
0
 40
0
 40
0
 40
0
 40
0
 40
1
 40
1
 40
1
 40
1
 10
103.963222
 20
21.818992
 30
0.0
 10
103.552180
 20
21.648733
 30
0.0
 10
103.079050
 20
21.742845
 30
0.0
 10
102.764452
 20
22.057442
 30
0.0
  0
SPLINE
  5
137
100
AcDbEntity
  8
Layer_1
 62
1
100
AcDbSpline
 70
8
 71
3
 72
8
 73
4
 74
0
 40
0
 40
0
 40
0
 40
0
 40
1
 40
1
 40
1
 40
1
 10
102.764452
 20
22.057442
 30
0.0
 10
102.449855
 20
22.372040
 30
0.0
 10
102.355743
 20
22.845170
 30
0.0
 10
102.526002
 20
23.256212
 30
0.0
  0
SPLINE
  5
138
100
AcDbEntity
  8
Layer_1
 62
1
100
AcDbSpline
 70
8
 71
3
 72
8
 73
4
 74
0
 40
0
 40
0
 40
0
 40
0
 40
1
 40
1
 40
1
 40
1
 10
102.526002
 20
23.256212
 30
0.0
 10
102.696262
 20
23.667254
 30
0.0
 10
103.097361
 20
23.935260
 30
0.0
 10
103.542270
 20
23.935260
 30
0.0
  0
SPLINE
  5
139
100
AcDbEntity
  8
Layer_1
 62
1
100
AcDbSpline
 70
8
 71
3
 72
8
 73
4
 74
0
 40
0
 40
0
 40
0
 40
0
 40
1
 40
1
 40
1
 40
1
 10
103.542270
 20
23.935260
 30
0.0
 10
103.834008
 20
23.935260
 30
0.0
 10
104.113797
 20
23.819368
 30
0.0
 10
104.320088
 20
23.613078
 30
0.0
  0
SPLINE
  5
13a
100
AcDbEntity
  8
Layer_1
 62
1
100
AcDbSpline
 70
8
 71
3
 72
8
 73
4
 74
0
 40
0
 40
0
 40
0
 40
0
 40
1
 40
1
 40
1
 40
1
 10
104.320088
 20
23.613078
 30
0.0
 10
104.526378
 20
23.406787
 30
0.0
 10
104.642270
 20
23.126998
 30
0.0
 10
104.642270
 20
22.835260
 30
0.0
  0
LINE
  5
13b
100
AcDbEntity
  8
Layer_1
 62
1
100
AcDbLine
 10
104.642270
 20
22.835260
 30
0.0
 11
104.642270
 21
22.835260
 31
0.0
  0
SPLINE
  5
13c
100
AcDbEntity
  8
Layer_1
 62
1
100
AcDbSpline
 70
8
 71
3
 72
8
 73
4
 74
0
 40
0
 40
0
 40
0
 40
0
 40
1
 40
1
 40
1
 40
1
 10
48.254360
 20
33.503470
 30
0.0
 10
48.254360
 20
33.058561
 30
0.0
 10
47.986354
 20
32.657462
 30
0.0
 10
47.575312
 20
32.487202
 30
0.0
  0
SPLINE
  5
13d
100
AcDbEntity
  8
Layer_1
 62
1
100
AcDbSpline
 70
8
 71
3
 72
8
 73
4
 74
0
 40
0
 40
0
 40
0
 40
0
 40
1
 40
1
 40
1
 40
1
 10
47.575312
 20
32.487202
 30
0.0
 10
47.164270
 20
32.316943
 30
0.0
 10
46.691140
 20
32.411055
 30
0.0
 10
46.376542
 20
32.725652
 30
0.0
  0
SPLINE
  5
13e
100
AcDbEntity
  8
Layer_1
 62
1
100
AcDbSpline
 70
8
 71
3
 72
8
 73
4
 74
0
 40
0
 40
0
 40
0
 40
0
 40
1
 40
1
 40
1
 40
1
 10
46.376542
 20
32.725652
 30
0.0
 10
46.061945
 20
33.040250
 30
0.0
 10
45.967833
 20
33.513380
 30
0.0
 10
46.138092
 20
33.924422
 30
0.0
  0
SPLINE
  5
13f
100
AcDbEntity
  8
Layer_1
 62
1
100
AcDbSpline
 70
8
 71
3
 72
8
 73
4
 74
0
 40
0
 40
0
 40
0
 40
0
 40
1
 40
1
 40
1
 40
1
 10
46.138092
 20
33.924422
 30
0.0
 10
46.308352
 20
34.335464
 30
0.0
 10
46.709451
 20
34.603470
 30
0.0
 10
47.154360
 20
34.603470
 30
0.0
  0
SPLINE
  5
140
100
AcDbEntity
  8
Layer_1
 62
1
100
AcDbSpline
 70
8
 71
3
 72
8
 73
4
 74
0
 40
0
 40
0
 40
0
 40
0
 40
1
 40
1
 40
1
 40
1
 10
47.154360
 20
34.603470
 30
0.0
 10
47.446098
 20
34.603470
 30
0.0
 10
47.725887
 20
34.487578
 30
0.0
 10
47.932178
 20
34.281288
 30
0.0
  0
SPLINE
  5
141
100
AcDbEntity
  8
Layer_1
 62
1
100
AcDbSpline
 70
8
 71
3
 72
8
 73
4
 74
0
 40
0
 40
0
 40
0
 40
0
 40
1
 40
1
 40
1
 40
1
 10
47.932178
 20
34.281288
 30
0.0
 10
48.138468
 20
34.074997
 30
0.0
 10
48.254360
 20
33.795208
 30
0.0
 10
48.254360
 20
33.503470
 30
0.0
  0
LINE
  5
142
100
AcDbEntity
  8
Layer_1
 62
1
100
AcDbLine
 10
48.254360
 20
33.503470
 30
0.0
 11
48.254360
 21
33.503470
 31
0.0
  0
SPLINE
  5
143
100
AcDbEntity
  8
Layer_1
 62
1
100
AcDbSpline
 70
8
 71
3
 72
8
 73
4
 74
0
 40
0
 40
0
 40
0
 40
0
 40
1
 40
1
 40
1
 40
1
 10
4.566240
 20
24.613060
 30
0.0
 10
4.566240
 20
24.168151
 30
0.0
 10
4.298234
 20
23.767052
 30
0.0
 10
3.887192
 20
23.596792
 30
0.0
  0
SPLINE
  5
144
100
AcDbEntity
  8
Layer_1
 62
1
100
AcDbSpline
 70
8
 71
3
 72
8
 73
4
 74
0
 40
0
 40
0
 40
0
 40
0
 40
1
 40
1
 40
1
 40
1
 10
3.887192
 20
23.596792
 30
0.0
 10
3.476150
 20
23.426533
 30
0.0
 10
3.003020
 20
23.520645
 30
0.0
 10
2.688422
 20
23.835242
 30
0.0
  0
SPLINE
  5
145
100
AcDbEntity
  8
Layer_1
 62
1
100
AcDbSpline
 70
8
 71
3
 72
8
 73
4
 74
0
 40
0
 40
0
 40
0
 40
0
 40
1
 40
1
 40
1
 40
1
 10
2.688422
 20
23.835242
 30
0.0
 10
2.373825
 20
24.149840
 30
0.0
 10
2.279713
 20
24.622970
 30
0.0
 10
2.449972
 20
25.034012
 30
0.0
  0
SPLINE
  5
146
100
AcDbEntity
  8
Layer_1
 62
1
100
AcDbSpline
 70
8
 71
3
 72
8
 73
4
 74
0
 40
0
 40
0
 40
0
 40
0
 40
1
 40
1
 40
1
 40
1
 10
2.449972
 20
25.034012
 30
0.0
 10
2.620232
 20
25.445054
 30
0.0
 10
3.021331
 20
25.713060
 30
0.0
 10
3.466240
 20
25.713060
 30
0.0
  0
SPLINE
  5
147
100
AcDbEntity
  8
Layer_1
 62
1
100
AcDbSpline
 70
8
 71
3
 72
8
 73
4
 74
0
 40
0
 40
0
 40
0
 40
0
 40
1
 40
1
 40
1
 40
1
 10
3.466240
 20
25.713060
 30
0.0
 10
3.757978
 20
25.713060
 30
0.0
 10
4.037767
 20
25.597168
 30
0.0
 10
4.244058
 20
25.390878
 30
0.0
  0
SPLINE
  5
148
100
AcDbEntity
  8
Layer_1
 62
1
100
AcDbSpline
 70
8
 71
3
 72
8
 73
4
 74
0
 40
0
 40
0
 40
0
 40
0
 40
1
 40
1
 40
1
 40
1
 10
4.244058
 20
25.390878
 30
0.0
 10
4.450348
 20
25.184587
 30
0.0
 10
4.566240
 20
24.904798
 30
0.0
 10
4.566240
 20
24.613060
 30
0.0
  0
LINE
  5
149
100
AcDbEntity
  8
Layer_1
 62
1
100
AcDbLine
 10
4.566240
 20
24.613060
 30
0.0
 11
4.566240
 21
24.613060
 31
0.0
  0
LINE
  5
14a
100
AcDbEntity
  8
Layer_1
 62
3
100
AcDbLine
 10
1.579542
 20
35.290760
 30
0.0
 11
105.433292
 21
35.290760
 31
0.0
  0
LINE
  5
14b
100
AcDbEntity
  8
Layer_1
 62
3
100
AcDbLine
 10
105.433292
 20
35.290760
 30
0.0
 11
105.433292
 21
21.239736
 31
0.0
  0
LINE
  5
14c
100
AcDbEntity
  8
Layer_1
 62
3
100
AcDbLine
 10
105.433292
 20
21.239736
 30
0.0
 11
1.579542
 21
21.239736
 31
0.0
  0
LINE
  5
14d
100
AcDbEntity
  8
Layer_1
 62
3
100
AcDbLine
 10
1.579542
 20
21.239736
 30
0.0
 11
1.579542
 21
35.290760
 31
0.0
  0
SPLINE
  5
14e
100
AcDbEntity
  8
Layer_1
 62
1
100
AcDbSpline
 70
8
 71
3
 72
8
 73
4
 74
0
 40
0
 40
0
 40
0
 40
0
 40
1
 40
1
 40
1
 40
1
 10
42.522986
 20
59.001615
 30
0.0
 10
39.217799
 20
59.001527
 30
0.0
 10
36.150216
 20
57.283571
 30
0.0
 10
34.423223
 20
54.465458
 30
0.0
  0
LINE
  5
14f
100
AcDbEntity
  8
Layer_1
 62
1
100
AcDbLine
 10
34.423223
 20
54.465458
 30
0.0
 11
34.423223
 21
44.537900
 31
0.0
  0
SPLINE
  5
150
100
AcDbEntity
  8
Layer_1
 62
1
100
AcDbSpline
 70
8
 71
3
 72
8
 73
4
 74
0
 40
0
 40
0
 40
0
 40
0
 40
1
 40
1
 40
1
 40
1
 10
34.423223
 20
44.537900
 30
0.0
 10
36.150216
 20
41.719787
 30
0.0
 10
39.217799
 20
40.001831
 30
0.0
 10
42.522986
 20
40.001743
 30
0.0
  0
SPLINE
  5
151
100
AcDbEntity
  8
Layer_1
 62
1
100
AcDbSpline
 70
8
 71
3
 72
8
 73
4
 74
0
 40
0
 40
0
 40
0
 40
0
 40
1
 40
1
 40
1
 40
1
 10
42.522986
 20
40.001743
 30
0.0
 10
45.828358
 20
40.001651
 30
0.0
 10
48.896177
 20
41.719630
 30
0.0
 10
50.623266
 20
44.537900
 30
0.0
  0
LINE
  5
152
100
AcDbEntity
  8
Layer_1
 62
1
100
AcDbLine
 10
50.623266
 20
44.537900
 30
0.0
 11
50.623266
 21
54.464942
 31
0.0
  0
SPLINE
  5
153
100
AcDbEntity
  8
Layer_1
 62
1
100
AcDbSpline
 70
8
 71
3
 72
8
 73
4
 74
0
 40
0
 40
0
 40
0
 40
0
 40
1
 40
1
 40
1
 40
1
 10
50.623266
 20
54.464942
 30
0.0
 10
48.896303
 20
57.283409
 30
0.0
 10
45.828460
 20
59.001596
 30
0.0
 10
42.522986
 20
59.001615
 30
0.0
  0
LINE
  5
154
100
AcDbEntity
  8
Layer_1
 62
1
100
AcDbLine
 10
42.522986
 20
59.001615
 30
0.0
 11
42.522986
 21
59.001615
 31
0.0
  0
SPLINE
  5
155
100
AcDbEntity
  8
Layer_1
 62
3
100
AcDbSpline
 70
8
 71
3
 72
8
 73
4
 74
0
 40
0
 40
0
 40
0
 40
0
 40
1
 40
1
 40
1
 40
1
 10
42.523165
 20
60.501560
 30
0.0
 10
38.074080
 20
60.501560
 30
0.0
 10
34.063081
 20
57.821496
 30
0.0
 10
32.360490
 20
53.711078
 30
0.0
  0
SPLINE
  5
156
100
AcDbEntity
  8
Layer_1
 62
3
100
AcDbSpline
 70
8
 71
3
 72
8
 73
4
 74
0
 40
0
 40
0
 40
0
 40
0
 40
1
 40
1
 40
1
 40
1
 10
32.360490
 20
53.711078
 30
0.0
 10
30.657899
 20
49.600659
 30
0.0
 10
31.599012
 20
44.869363
 30
0.0
 10
34.744990
 20
41.723385
 30
0.0
  0
SPLINE
  5
157
100
AcDbEntity
  8
Layer_1
 62
3
100
AcDbSpline
 70
8
 71
3
 72
8
 73
4
 74
0
 40
0
 40
0
 40
0
 40
0
 40
1
 40
1
 40
1
 40
1
 10
34.744990
 20
41.723385
 30
0.0
 10
37.890968
 20
38.577407
 30
0.0
 10
42.622264
 20
37.636294
 30
0.0
 10
46.732683
 20
39.338885
 30
0.0
  0
SPLINE
  5
158
100
AcDbEntity
  8
Layer_1
 62
3
100
AcDbSpline
 70
8
 71
3
 72
8
 73
4
 74
0
 40
0
 40
0
 40
0
 40
0
 40
1
 40
1
 40
1
 40
1
 10
46.732683
 20
39.338885
 30
0.0
 10
50.843101
 20
41.041476
 30
0.0
 10
53.523165
 20
45.052475
 30
0.0
 10
53.523165
 20
49.501560
 30
0.0
  0
SPLINE
  5
159
100
AcDbEntity
  8
Layer_1
 62
3
100
AcDbSpline
 70
8
 71
3
 72
8
 73
4
 74
0
 40
0
 40
0
 40
0
 40
0
 40
1
 40
1
 40
1
 40
1
 10
53.523165
 20
49.501560
 30
0.0
 10
53.523165
 20
52.418941
 30
0.0
 10
52.364240
 20
55.216834
 30
0.0
 10
50.301340
 20
57.279735
 30
0.0
  0
SPLINE
  5
15a
100
AcDbEntity
  8
Layer_1
 62
3
100
AcDbSpline
 70
8
 71
3
 72
8
 73
4
 74
0
 40
0
 40
0
 40
0
 40
0
 40
1
 40
1
 40
1
 40
1
 10
50.301340
 20
57.279735
 30
0.0
 10
48.238439
 20
59.342635
 30
0.0
 10
45.440546
 20
60.501560
 30
0.0
 10
42.523165
 20
60.501560
 30
0.0
  0
LINE
  5
15b
100
AcDbEntity
  8
Layer_1
 62
3
100
AcDbLine
 10
42.523165
 20
60.501560
 30
0.0
 11
42.523165
 21
60.501560
 31
0.0
  0
LINE
  5
15c
100
AcDbEntity
  8
Layer_1
 62
4
100
AcDbLine
 10
61.889290
 20
60.886580
 30
0.0
 11
63.470240
 21
60.886580
 31
0.0
  0
LINE
  5
15d
100
AcDbEntity
  8
Layer_1
 62
4
100
AcDbLine
 10
63.470240
 20
60.886580
 30
0.0
 11
63.470240
 21
60.496940
 31
0.0
  0
LINE
  5
15e
100
AcDbEntity
  8
Layer_1
 62
4
100
AcDbLine
 10
63.470240
 20
60.496940
 30
0.0
 11
62.274450
 21
60.496940
 31
0.0
  0
LINE
  5
15f
100
AcDbEntity
  8
Layer_1
 62
4
100
AcDbLine
 10
62.274450
 20
60.496940
 30
0.0
 11
62.274450
 21
59.784840
 31
0.0
  0
LINE
  5
160
100
AcDbEntity
  8
Layer_1
 62
4
100
AcDbLine
 10
62.274450
 20
59.784840
 30
0.0
 11
63.470240
 21
59.784840
 31
0.0
  0
LINE
  5
161
100
AcDbEntity
  8
Layer_1
 62
4
100
AcDbLine
 10
63.470240
 20
59.784840
 30
0.0
 11
63.470240
 21
59.399670
 31
0.0
  0
LINE
  5
162
100
AcDbEntity
  8
Layer_1
 62
4
100
AcDbLine
 10
63.470240
 20
59.399670
 30
0.0
 11
62.278930
 21
59.399670
 31
0.0
  0
LINE
  5
163
100
AcDbEntity
  8
Layer_1
 62
4
100
AcDbLine
 10
62.278930
 20
59.399670
 30
0.0
 11
62.278930
 21
58.033690
 31
0.0
  0
LINE
  5
164
100
AcDbEntity
  8
Layer_1
 62
4
100
AcDbLine
 10
62.278930
 20
58.033690
 30
0.0
 11
61.889290
 21
58.033690
 31
0.0
  0
LINE
  5
165
100
AcDbEntity
  8
Layer_1
 62
4
100
AcDbLine
 10
61.889290
 20
58.033690
 30
0.0
 11
61.889290
 21
60.886580
 31
0.0
  0
LINE
  5
166
100
AcDbEntity
  8
Layer_1
 62
4
100
AcDbLine
 10
63.913630
 20
60.882100
 30
0.0
 11
64.303270
 21
60.882100
 31
0.0
  0
LINE
  5
167
100
AcDbEntity
  8
Layer_1
 62
4
100
AcDbLine
 10
64.303270
 20
60.882100
 30
0.0
 11
64.303270
 21
59.128720
 31
0.0
  0
SPLINE
  5
168
100
AcDbEntity
  8
Layer_1
 62
4
100
AcDbSpline
 70
8
 71
3
 72
8
 73
4
 74
0
 40
0
 40
0
 40
0
 40
0
 40
1
 40
1
 40
1
 40
1
 10
64.303270
 20
59.128720
 30
0.0
 10
64.303270
 20
58.868960
 30
0.0
 10
64.365223
 20
58.668167
 30
0.0
 10
64.489130
 20
58.526340
 30
0.0
  0
SPLINE
  5
169
100
AcDbEntity
  8
Layer_1
 62
4
100
AcDbSpline
 70
8
 71
3
 72
8
 73
4
 74
0
 40
0
 40
0
 40
0
 40
0
 40
1
 40
1
 40
1
 40
1
 10
64.489130
 20
58.526340
 30
0.0
 10
64.614530
 20
58.384520
 30
0.0
 10
64.791437
 20
58.313610
 30
0.0
 10
65.019850
 20
58.313610
 30
0.0
  0
SPLINE
  5
16a
100
AcDbEntity
  8
Layer_1
 62
4
100
AcDbSpline
 70
8
 71
3
 72
8
 73
4
 74
0
 40
0
 40
0
 40
0
 40
0
 40
1
 40
1
 40
1
 40
1
 10
65.019850
 20
58.313610
 30
0.0
 10
65.246763
 20
58.313610
 30
0.0
 10
65.422920
 20
58.378550
 30
0.0
 10
65.548320
 20
58.508430
 30
0.0
  0
SPLINE
  5
16b
100
AcDbEntity
  8
Layer_1
 62
4
100
AcDbSpline
 70
8
 71
3
 72
8
 73
4
 74
0
 40
0
 40
0
 40
0
 40
0
 40
1
 40
1
 40
1
 40
1
 10
65.548320
 20
58.508430
 30
0.0
 10
65.675220
 20
58.639803
 30
0.0
 10
65.738670
 20
58.824173
 30
0.0
 10
65.738670
 20
59.061540
 30
0.0
  0
LINE
  5
16c
100
AcDbEntity
  8
Layer_1
 62
4
100
AcDbLine
 10
65.738670
 20
59.061540
 30
0.0
 11
65.738670
 21
60.882100
 31
0.0
  0
LINE
  5
16d
100
AcDbEntity
  8
Layer_1
 62
4
100
AcDbLine
 10
65.738670
 20
60.882100
 30
0.0
 11
66.128310
 21
60.882100
 31
0.0
  0
LINE
  5
16e
100
AcDbEntity
  8
Layer_1
 62
4
100
AcDbLine
 10
66.128310
 20
60.882100
 30
0.0
 11
66.128310
 21
59.088410
 31
0.0
  0
SPLINE
  5
16f
100
AcDbEntity
  8
Layer_1
 62
4
100
AcDbSpline
 70
8
 71
3
 72
8
 73
4
 74
0
 40
0
 40
0
 40
0
 40
0
 40
1
 40
1
 40
1
 40
1
 10
66.128310
 20
59.088410
 30
0.0
 10
66.128310
 20
58.739077
 30
0.0
 10
66.028287
 20
58.459910
 30
0.0
 10
65.828240
 20
58.250910
 30
0.0
  0
SPLINE
  5
170
100
AcDbEntity
  8
Layer_1
 62
4
100
AcDbSpline
 70
8
 71
3
 72
8
 73
4
 74
0
 40
0
 40
0
 40
0
 40
0
 40
1
 40
1
 40
1
 40
1
 10
65.828240
 20
58.250910
 30
0.0
 10
65.629687
 20
58.041903
 30
0.0
 10
65.364700
 20
57.937400
 30
0.0
 10
65.033280
 20
57.937400
 30
0.0
  0
SPLINE
  5
171
100
AcDbEntity
  8
Layer_1
 62
4
100
AcDbSpline
 70
8
 71
3
 72
8
 73
4
 74
0
 40
0
 40
0
 40
0
 40
0
 40
1
 40
1
 40
1
 40
1
 10
65.033280
 20
57.937400
 30
0.0
 10
64.694400
 20
57.937400
 30
0.0
 10
64.422697
 20
58.043397
 30
0.0
 10
64.218170
 20
58.255390
 30
0.0
  0
SPLINE
  5
172
100
AcDbEntity
  8
Layer_1
 62
4
100
AcDbSpline
 70
8
 71
3
 72
8
 73
4
 74
0
 40
0
 40
0
 40
0
 40
0
 40
1
 40
1
 40
1
 40
1
 10
64.218170
 20
58.255390
 30
0.0
 10
64.015143
 20
58.467377
 30
0.0
 10
63.913630
 20
58.780133
 30
0.0
 10
63.913630
 20
59.193660
 30
0.0
  0
LINE
  5
173
100
AcDbEntity
  8
Layer_1
 62
4
100
AcDbLine
 10
63.913630
 20
59.193660
 30
0.0
 11
63.913630
 21
60.882100
 31
0.0
  0
LINE
  5
174
100
AcDbEntity
  8
Layer_1
 62
4
100
AcDbLine
 10
66.520190
 20
60.886580
 30
0.0
 11
68.264610
 21
60.886580
 31
0.0
  0
LINE
  5
175
100
AcDbEntity
  8
Layer_1
 62
4
100
AcDbLine
 10
68.264610
 20
60.886580
 30
0.0
 11
68.264610
 21
60.496940
 31
0.0
  0
LINE
  5
176
100
AcDbEntity
  8
Layer_1
 62
4
100
AcDbLine
 10
68.264610
 20
60.496940
 30
0.0
 11
67.583860
 21
60.496940
 31
0.0
  0
LINE
  5
177
100
AcDbEntity
  8
Layer_1
 62
4
100
AcDbLine
 10
67.583860
 20
60.496940
 30
0.0
 11
67.583860
 21
58.033690
 31
0.0
  0
LINE
  5
178
100
AcDbEntity
  8
Layer_1
 62
4
100
AcDbLine
 10
67.583860
 20
58.033690
 30
0.0
 11
67.198700
 21
58.033690
 31
0.0
  0
LINE
  5
179
100
AcDbEntity
  8
Layer_1
 62
4
100
AcDbLine
 10
67.198700
 20
58.033690
 30
0.0
 11
67.198700
 21
60.496940
 31
0.0
  0
LINE
  5
17a
100
AcDbEntity
  8
Layer_1
 62
4
100
AcDbLine
 10
67.198700
 20
60.496940
 30
0.0
 11
66.520190
 21
60.496940
 31
0.0
  0
LINE
  5
17b
100
AcDbEntity
  8
Layer_1
 62
4
100
AcDbLine
 10
66.520190
 20
60.496940
 30
0.0
 11
66.520190
 21
60.886580
 31
0.0
  0
LINE
  5
17c
100
AcDbEntity
  8
Layer_1
 62
4
100
AcDbLine
 10
62.430300
 20
56.977210
 30
0.0
 11
63.646420
 21
56.977210
 31
0.0
  0
LINE
  5
17d
100
AcDbEntity
  8
Layer_1
 62
4
100
AcDbLine
 10
63.646420
 20
56.977210
 30
0.0
 11
63.646420
 21
56.677490
 31
0.0
  0
LINE
  5
17e
100
AcDbEntity
  8
Layer_1
 62
4
100
AcDbLine
 10
63.646420
 20
56.677490
 30
0.0
 11
62.726580
 21
56.677490
 31
0.0
  0
LINE
  5
17f
100
AcDbEntity
  8
Layer_1
 62
4
100
AcDbLine
 10
62.726580
 20
56.677490
 30
0.0
 11
62.726580
 21
56.129720
 31
0.0
  0
LINE
  5
180
100
AcDbEntity
  8
Layer_1
 62
4
100
AcDbLine
 10
62.726580
 20
56.129720
 30
0.0
 11
63.646420
 21
56.129720
 31
0.0
  0
LINE
  5
181
100
AcDbEntity
  8
Layer_1
 62
4
100
AcDbLine
 10
63.646420
 20
56.129720
 30
0.0
 11
63.646420
 21
55.833440
 31
0.0
  0
LINE
  5
182
100
AcDbEntity
  8
Layer_1
 62
4
100
AcDbLine
 10
63.646420
 20
55.833440
 30
0.0
 11
62.730030
 21
55.833440
 31
0.0
  0
LINE
  5
183
100
AcDbEntity
  8
Layer_1
 62
4
100
AcDbLine
 10
62.730030
 20
55.833440
 30
0.0
 11
62.730030
 21
54.782690
 31
0.0
  0
LINE
  5
184
100
AcDbEntity
  8
Layer_1
 62
4
100
AcDbLine
 10
62.730030
 20
54.782690
 30
0.0
 11
62.430300
 21
54.782690
 31
0.0
  0
LINE
  5
185
100
AcDbEntity
  8
Layer_1
 62
4
100
AcDbLine
 10
62.430300
 20
54.782690
 30
0.0
 11
62.430300
 21
56.977210
 31
0.0
  0
LINE
  5
186
100
AcDbEntity
  8
Layer_1
 62
4
100
AcDbLine
 10
63.987490
 20
56.973770
 30
0.0
 11
64.287210
 21
56.973770
 31
0.0
  0
LINE
  5
187
100
AcDbEntity
  8
Layer_1
 62
4
100
AcDbLine
 10
64.287210
 20
56.973770
 30
0.0
 11
64.287210
 21
55.625010
 31
0.0
  0
SPLINE
  5
188
100
AcDbEntity
  8
Layer_1
 62
4
100
AcDbSpline
 70
8
 71
3
 72
8
 73
4
 74
0
 40
0
 40
0
 40
0
 40
0
 40
1
 40
1
 40
1
 40
1
 10
64.287210
 20
55.625010
 30
0.0
 10
64.287210
 20
55.425197
 30
0.0
 10
64.334867
 20
55.270743
 30
0.0
 10
64.430180
 20
55.161650
 30
0.0
  0
SPLINE
  5
189
100
AcDbEntity
  8
Layer_1
 62
4
100
AcDbSpline
 70
8
 71
3
 72
8
 73
4
 74
0
 40
0
 40
0
 40
0
 40
0
 40
1
 40
1
 40
1
 40
1
 10
64.430180
 20
55.161650
 30
0.0
 10
64.526640
 20
55.052550
 30
0.0
 10
64.662720
 20
54.998000
 30
0.0
 10
64.838420
 20
54.998000
 30
0.0
  0
SPLINE
  5
18a
100
AcDbEntity
  8
Layer_1
 62
4
100
AcDbSpline
 70
8
 71
3
 72
8
 73
4
 74
0
 40
0
 40
0
 40
0
 40
0
 40
1
 40
1
 40
1
 40
1
 10
64.838420
 20
54.998000
 30
0.0
 10
65.012973
 20
54.998000
 30
0.0
 10
65.148483
 20
55.047957
 30
0.0
 10
65.244950
 20
55.147870
 30
0.0
  0
SPLINE
  5
18b
100
AcDbEntity
  8
Layer_1
 62
4
100
AcDbSpline
 70
8
 71
3
 72
8
 73
4
 74
0
 40
0
 40
0
 40
0
 40
0
 40
1
 40
1
 40
1
 40
1
 10
65.244950
 20
55.147870
 30
0.0
 10
65.342557
 20
55.248923
 30
0.0
 10
65.391360
 20
55.390747
 30
0.0
 10
65.391360
 20
55.573340
 30
0.0
  0
LINE
  5
18c
100
AcDbEntity
  8
Layer_1
 62
4
100
AcDbLine
 10
65.391360
 20
55.573340
 30
0.0
 11
65.391360
 21
56.973770
 31
0.0
  0
LINE
  5
18d
100
AcDbEntity
  8
Layer_1
 62
4
100
AcDbLine
 10
65.391360
 20
56.973770
 30
0.0
 11
65.691090
 21
56.973770
 31
0.0
  0
LINE
  5
18e
100
AcDbEntity
  8
Layer_1
 62
4
100
AcDbLine
 10
65.691090
 20
56.973770
 30
0.0
 11
65.691090
 21
55.594010
 31
0.0
  0
SPLINE
  5
18f
100
AcDbEntity
  8
Layer_1
 62
4
100
AcDbSpline
 70
8
 71
3
 72
8
 73
4
 74
0
 40
0
 40
0
 40
0
 40
0
 40
1
 40
1
 40
1
 40
1
 10
65.691090
 20
55.594010
 30
0.0
 10
65.691090
 20
55.325290
 30
0.0
 10
65.614147
 20
55.110543
 30
0.0
 10
65.460260
 20
54.949770
 30
0.0
  0
SPLINE
  5
190
100
AcDbEntity
  8
Layer_1
 62
4
100
AcDbSpline
 70
8
 71
3
 72
8
 73
4
 74
0
 40
0
 40
0
 40
0
 40
0
 40
1
 40
1
 40
1
 40
1
 10
65.460260
 20
54.949770
 30
0.0
 10
65.307527
 20
54.789003
 30
0.0
 10
65.103693
 20
54.708620
 30
0.0
 10
64.848760
 20
54.708620
 30
0.0
  0
SPLINE
  5
191
100
AcDbEntity
  8
Layer_1
 62
4
100
AcDbSpline
 70
8
 71
3
 72
8
 73
4
 74
0
 40
0
 40
0
 40
0
 40
0
 40
1
 40
1
 40
1
 40
1
 10
64.848760
 20
54.708620
 30
0.0
 10
64.588080
 20
54.708620
 30
0.0
 10
64.379077
 20
54.790153
 30
0.0
 10
64.221750
 20
54.953220
 30
0.0
  0
SPLINE
  5
192
100
AcDbEntity
  8
Layer_1
 62
4
100
AcDbSpline
 70
8
 71
3
 72
8
 73
4
 74
0
 40
0
 40
0
 40
0
 40
0
 40
1
 40
1
 40
1
 40
1
 10
64.221750
 20
54.953220
 30
0.0
 10
64.065577
 20
55.116287
 30
0.0
 10
63.987490
 20
55.356870
 30
0.0
 10
63.987490
 20
55.674970
 30
0.0
  0
LINE
  5
193
100
AcDbEntity
  8
Layer_1
 62
4
100
AcDbLine
 10
63.987490
 20
55.674970
 30
0.0
 11
63.987490
 21
56.973770
 31
0.0
  0
LINE
  5
194
100
AcDbEntity
  8
Layer_1
 62
4
100
AcDbLine
 10
65.992530
 20
56.977210
 30
0.0
 11
67.334400
 21
56.977210
 31
0.0
  0
LINE
  5
195
100
AcDbEntity
  8
Layer_1
 62
4
100
AcDbLine
 10
67.334400
 20
56.977210
 30
0.0
 11
67.334400
 21
56.677490
 31
0.0
  0
LINE
  5
196
100
AcDbEntity
  8
Layer_1
 62
4
100
AcDbLine
 10
67.334400
 20
56.677490
 30
0.0
 11
66.810740
 21
56.677490
 31
0.0
  0
LINE
  5
197
100
AcDbEntity
  8
Layer_1
 62
4
100
AcDbLine
 10
66.810740
 20
56.677490
 30
0.0
 11
66.810740
 21
54.782690
 31
0.0
  0
LINE
  5
198
100
AcDbEntity
  8
Layer_1
 62
4
100
AcDbLine
 10
66.810740
 20
54.782690
 30
0.0
 11
66.514460
 21
54.782690
 31
0.0
  0
LINE
  5
199
100
AcDbEntity
  8
Layer_1
 62
4
100
AcDbLine
 10
66.514460
 20
54.782690
 30
0.0
 11
66.514460
 21
56.677490
 31
0.0
  0
LINE
  5
19a
100
AcDbEntity
  8
Layer_1
 62
4
100
AcDbLine
 10
66.514460
 20
56.677490
 30
0.0
 11
65.992530
 21
56.677490
 31
0.0
  0
LINE
  5
19b
100
AcDbEntity
  8
Layer_1
 62
4
100
AcDbLine
 10
65.992530
 20
56.677490
 30
0.0
 11
65.992530
 21
56.977210
 31
0.0
  0
LINE
  5
19c
100
AcDbEntity
  8
Layer_1
 62
6
100
AcDbLine
 10
2.113834
 20
52.114080
 30
0.0
 11
27.113834
 21
52.114080
 31
0.0
  0
LINE
  5
19d
100
AcDbEntity
  8
Layer_1
 62
6
100
AcDbLine
 10
27.113834
 20
52.114080
 30
0.0
 11
27.113834
 21
27.114080
 31
0.0
  0
LINE
  5
19e
100
AcDbEntity
  8
Layer_1
 62
6
100
AcDbLine
 10
27.113834
 20
27.114080
 30
0.0
 11
2.113834
 21
27.114080
 31
0.0
  0
LINE
  5
19f
100
AcDbEntity
  8
Layer_1
 62
6
100
AcDbLine
 10
2.113834
 20
27.114080
 30
0.0
 11
2.113834
 21
52.114080
 31
0.0
  0
LINE
  5
1a0
100
AcDbEntity
  8
Layer_1
 62
3
100
AcDbLine
 10
5.471507
 20
48.363640
 30
0.0
 11
23.614364
 21
48.363640
 31
0.0
  0
LINE
  5
1a1
100
AcDbEntity
  8
Layer_1
 62
3
100
AcDbLine
 10
23.614364
 20
48.363640
 30
0.0
 11
23.614364
 21
31.732687
 31
0.0
  0
LINE
  5
1a2
100
AcDbEntity
  8
Layer_1
 62
3
100
AcDbLine
 10
23.614364
 20
31.732687
 30
0.0
 11
5.471507
 21
31.732687
 31
0.0
  0
LINE
  5
1a3
100
AcDbEntity
  8
Layer_1
 62
3
100
AcDbLine
 10
5.471507
 20
31.732687
 30
0.0
 11
5.471507
 21
48.363640
 31
0.0
  0
LINE
  5
1a4
100
AcDbEntity
  8
Layer_1
 62
6
100
AcDbLine
 10
2.113834
 20
27.114080
 30
0.0
 11
27.113834
 21
27.114080
 31
0.0
  0
LINE
  5
1a5
100
AcDbEntity
  8
Layer_1
 62
6
100
AcDbLine
 10
27.113834
 20
27.114080
 30
0.0
 11
27.113834
 21
2.114080
 31
0.0
  0
LINE
  5
1a6
100
AcDbEntity
  8
Layer_1
 62
6
100
AcDbLine
 10
27.113834
 20
2.114080
 30
0.0
 11
2.113834
 21
2.114080
 31
0.0
  0
LINE
  5
1a7
100
AcDbEntity
  8
Layer_1
 62
6
100
AcDbLine
 10
2.113834
 20
2.114080
 30
0.0
 11
2.113834
 21
27.114080
 31
0.0
  0
LINE
  5
1a8
100
AcDbEntity
  8
Layer_1
 62
3
100
AcDbLine
 10
5.471507
 20
23.363630
 30
0.0
 11
23.614364
 21
23.363630
 31
0.0
  0
LINE
  5
1a9
100
AcDbEntity
  8
Layer_1
 62
3
100
AcDbLine
 10
23.614364
 20
23.363630
 30
0.0
 11
23.614364
 21
6.732677
 31
0.0
  0
LINE
  5
1aa
100
AcDbEntity
  8
Layer_1
 62
3
100
AcDbLine
 10
23.614364
 20
6.732677
 30
0.0
 11
5.471507
 21
6.732677
 31
0.0
  0
LINE
  5
1ab
100
AcDbEntity
  8
Layer_1
 62
3
100
AcDbLine
 10
5.471507
 20
6.732677
 30
0.0
 11
5.471507
 21
23.363630
 31
0.0
  0
SPLINE
  5
1ac
100
AcDbEntity
  8
Layer_1
 62
1
100
AcDbSpline
 70
8
 71
3
 72
8
 73
4
 74
0
 40
0
 40
0
 40
0
 40
0
 40
1
 40
1
 40
1
 40
1
 10
31.011215
 20
88.426457
 30
0.0
 10
28.172233
 20
87.896984
 30
0.0
 10
26.113222
 20
85.420177
 30
0.0
 10
26.111256
 20
82.532244
 30
0.0
  0
SPLINE
  5
1ad
100
AcDbEntity
  8
Layer_1
 62
1
100
AcDbSpline
 70
8
 71
3
 72
8
 73
4
 74
0
 40
0
 40
0
 40
0
 40
0
 40
1
 40
1
 40
1
 40
1
 10
26.111256
 20
82.532244
 30
0.0
 10
26.111173
 20
79.218620
 30
0.0
 10
28.797266
 20
76.532297
 30
0.0
 10
32.110889
 20
76.532095
 30
0.0
  0
SPLINE
  5
1ae
100
AcDbEntity
  8
Layer_1
 62
1
100
AcDbSpline
 70
8
 71
3
 72
8
 73
4
 74
0
 40
0
 40
0
 40
0
 40
0
 40
1
 40
1
 40
1
 40
1
 10
32.110889
 20
76.532095
 30
0.0
 10
35.424715
 20
76.532011
 30
0.0
 10
38.111123
 20
79.218418
 30
0.0
 10
38.111041
 20
82.532244
 30
0.0
  0
SPLINE
  5
1af
100
AcDbEntity
  8
Layer_1
 62
1
100
AcDbSpline
 70
8
 71
3
 72
8
 73
4
 74
0
 40
0
 40
0
 40
0
 40
0
 40
1
 40
1
 40
1
 40
1
 10
38.111041
 20
82.532244
 30
0.0
 10
38.109041
 20
85.420176
 30
0.0
 10
36.050063
 20
87.896984
 30
0.0
 10
33.211082
 20
88.426457
 30
0.0
  0
LINE
  5
1b0
100
AcDbEntity
  8
Layer_1
 62
1
100
AcDbLine
 10
33.211082
 20
88.426457
 30
0.0
 11
33.211082
 21
87.096305
 31
0.0
  0
LINE
  5
1b1
100
AcDbEntity
  8
Layer_1
 62
1
100
AcDbLine
 10
33.211082
 20
87.096305
 30
0.0
 11
31.011215
 21
87.096305
 31
0.0
  0
LINE
  5
1b2
100
AcDbEntity
  8
Layer_1
 62
1
100
AcDbLine
 10
31.011215
 20
87.096305
 30
0.0
 11
31.011215
 21
88.426457
 31
0.0
  0
LINE
  5
1b3
100
AcDbEntity
  8
Layer_1
 62
3
100
AcDbLine
 10
23.610984
 20
89.759885
 30
0.0
 11
40.610984
 21
89.759885
 31
0.0
  0
LINE
  5
1b4
100
AcDbEntity
  8
Layer_1
 62
3
100
AcDbLine
 10
40.610984
 20
89.759885
 30
0.0
 11
40.610984
 21
74.973425
 31
0.0
  0
LINE
  5
1b5
100
AcDbEntity
  8
Layer_1
 62
3
100
AcDbLine
 10
40.610984
 20
74.973425
 30
0.0
 11
23.610984
 21
74.973425
 31
0.0
  0
LINE
  5
1b6
100
AcDbEntity
  8
Layer_1
 62
3
100
AcDbLine
 10
23.610984
 20
74.973425
 30
0.0
 11
23.610984
 21
89.759885
 31
0.0
  0
LINE
  5
1b7
100
AcDbEntity
  8
Layer_1
 62
6
100
AcDbLine
 10
30.072903
 20
82.679218
 30
0.0
 11
30.072903
 21
91.231848
 31
0.0
  0
SPLINE
  5
1b8
100
AcDbEntity
  8
Layer_1
 62
6
100
AcDbSpline
 70
8
 71
3
 72
8
 73
4
 74
0
 40
0
 40
0
 40
0
 40
0
 40
1
 40
1
 40
1
 40
1
 10
30.072903
 20
91.231848
 30
0.0
 10
30.095203
 20
94.839988
 30
0.0
 10
34.193286
 20
94.773168
 30
0.0
 10
34.148756
 20
91.231848
 30
0.0
  0
LINE
  5
1b9
100
AcDbEntity
  8
Layer_1
 62
6
100
AcDbLine
 10
34.148756
 20
91.231848
 30
0.0
 11
34.148756
 21
82.612398
 31
0.0
  0
LINE
  5
1ba
100
AcDbEntity
  8
Layer_1
 62
6
100
AcDbLine
 10
23.110999
 20
98.532025
 30
0.0
 11
41.110999
 21
98.532025
 31
0.0
  0
LINE
  5
1bb
100
AcDbEntity
  8
Layer_1
 62
6
100
AcDbLine
 10
41.110999
 20
98.532025
 30
0.0
 11
41.110999
 21
66.532025
 31
0.0
  0
LINE
  5
1bc
100
AcDbEntity
  8
Layer_1
 62
6
100
AcDbLine
 10
41.110999
 20
66.532025
 30
0.0
 11
23.110999
 21
66.532025
 31
0.0
  0
LINE
  5
1bd
100
AcDbEntity
  8
Layer_1
 62
6
100
AcDbLine
 10
23.110999
 20
66.532025
 30
0.0
 11
23.110999
 21
98.532025
 31
0.0
  0
SPLINE
  5
1be
100
AcDbEntity
  8
Layer_1
 62
1
100
AcDbSpline
 70
8
 71
3
 72
8
 73
4
 74
0
 40
0
 40
0
 40
0
 40
0
 40
1
 40
1
 40
1
 40
1
 10
12.097310
 20
75.369490
 30
0.0
 10
9.258333
 20
75.898970
 30
0.0
 10
7.199327
 20
78.375770
 30
0.0
 10
7.197360
 20
81.263700
 30
0.0
  0
SPLINE
  5
1bf
100
AcDbEntity
  8
Layer_1
 62
1
100
AcDbSpline
 70
8
 71
3
 72
8
 73
4
 74
0
 40
0
 40
0
 40
0
 40
0
 40
1
 40
1
 40
1
 40
1
 10
7.197360
 20
81.263700
 30
0.0
 10
7.197277
 20
84.577320
 30
0.0
 10
9.883367
 20
87.263650
 30
0.0
 10
13.196990
 20
87.263850
 30
0.0
  0
SPLINE
  5
1c0
100
AcDbEntity
  8
Layer_1
 62
1
100
AcDbSpline
 70
8
 71
3
 72
8
 73
4
 74
0
 40
0
 40
0
 40
0
 40
0
 40
1
 40
1
 40
1
 40
1
 10
13.196990
 20
87.263850
 30
0.0
 10
16.510816
 20
87.263930
 30
0.0
 10
19.197223
 20
84.577530
 30
0.0
 10
19.197140
 20
81.263700
 30
0.0
  0
SPLINE
  5
1c1
100
AcDbEntity
  8
Layer_1
 62
1
100
AcDbSpline
 70
8
 71
3
 72
8
 73
4
 74
0
 40
0
 40
0
 40
0
 40
0
 40
1
 40
1
 40
1
 40
1
 10
19.197140
 20
81.263700
 30
0.0
 10
19.195140
 20
78.375770
 30
0.0
 10
17.136161
 20
75.898960
 30
0.0
 10
14.297180
 20
75.369490
 30
0.0
  0
LINE
  5
1c2
100
AcDbEntity
  8
Layer_1
 62
1
100
AcDbLine
 10
14.297180
 20
75.369490
 30
0.0
 11
14.297180
 21
76.799860
 31
0.0
  0
LINE
  5
1c3
100
AcDbEntity
  8
Layer_1
 62
1
100
AcDbLine
 10
14.297180
 20
76.799860
 30
0.0
 11
12.097310
 21
76.799860
 31
0.0
  0
LINE
  5
1c4
100
AcDbEntity
  8
Layer_1
 62
1
100
AcDbLine
 10
12.097310
 20
76.799860
 30
0.0
 11
12.097310
 21
75.369490
 31
0.0
  0
LINE
  5
1c5
100
AcDbEntity
  8
Layer_1
 62
6
100
AcDbLine
 10
11.159140
 20
81.436930
 30
0.0
 11
11.159140
 21
89.989560
 31
0.0
  0
SPLINE
  5
1c6
100
AcDbEntity
  8
Layer_1
 62
6
100
AcDbSpline
 70
8
 71
3
 72
8
 73
4
 74
0
 40
0
 40
0
 40
0
 40
0
 40
1
 40
1
 40
1
 40
1
 10
11.159140
 20
89.989560
 30
0.0
 10
11.181440
 20
93.597690
 30
0.0
 10
15.279550
 20
93.530880
 30
0.0
 10
15.235000
 20
89.989560
 30
0.0
  0
LINE
  5
1c7
100
AcDbEntity
  8
Layer_1
 62
6
100
AcDbLine
 10
15.235000
 20
89.989560
 30
0.0
 11
15.235000
 21
81.370110
 31
0.0
  0
LINE
  5
1c8
100
AcDbEntity
  8
Layer_1
 62
3
100
AcDbLine
 10
3.197248
 20
103.789710
 30
0.0
 11
23.197248
 21
103.789710
 31
0.0
  0
LINE
  5
1c9
100
AcDbEntity
  8
Layer_1
 62
3
100
AcDbLine
 10
23.197248
 20
103.789710
 30
0.0
 11
23.197248
 21
58.789710
 31
0.0
  0
LINE
  5
1ca
100
AcDbEntity
  8
Layer_1
 62
3
100
AcDbLine
 10
23.197248
 20
58.789710
 30
0.0
 11
3.197248
 21
58.789710
 31
0.0
  0
LINE
  5
1cb
100
AcDbEntity
  8
Layer_1
 62
3
100
AcDbLine
 10
3.197248
 20
58.789710
 30
0.0
 11
3.197248
 21
103.789710
 31
0.0
  0
LINE
  5
1cc
100
AcDbEntity
  8
Layer_1
 62
6
100
AcDbLine
 10
4.197248
 20
94.789710
 30
0.0
 11
22.197248
 21
94.789710
 31
0.0
  0
LINE
  5
1cd
100
AcDbEntity
  8
Layer_1
 62
6
100
AcDbLine
 10
22.197248
 20
94.789710
 30
0.0
 11
22.197248
 21
67.789710
 31
0.0
  0
LINE
  5
1ce
100
AcDbEntity
  8
Layer_1
 62
6
100
AcDbLine
 10
22.197248
 20
67.789710
 30
0.0
 11
4.197248
 21
67.789710
 31
0.0
  0
LINE
  5
1cf
100
AcDbEntity
  8
Layer_1
 62
6
100
AcDbLine
 10
4.197248
 20
67.789710
 30
0.0
 11
4.197248
 21
94.789710
 31
0.0
  0
LINE
  5
1d0
100
AcDbEntity
  8
Layer_1
 62
4
100
AcDbLine
 10
71.480430
 20
60.933820
 30
0.0
 11
73.061380
 21
60.933820
 31
0.0
  0
LINE
  5
1d1
100
AcDbEntity
  8
Layer_1
 62
4
100
AcDbLine
 10
73.061380
 20
60.933820
 30
0.0
 11
73.061380
 21
60.544180
 31
0.0
  0
LINE
  5
1d2
100
AcDbEntity
  8
Layer_1
 62
4
100
AcDbLine
 10
73.061380
 20
60.544180
 30
0.0
 11
71.865590
 21
60.544180
 31
0.0
  0
LINE
  5
1d3
100
AcDbEntity
  8
Layer_1
 62
4
100
AcDbLine
 10
71.865590
 20
60.544180
 30
0.0
 11
71.865590
 21
59.832080
 31
0.0
  0
LINE
  5
1d4
100
AcDbEntity
  8
Layer_1
 62
4
100
AcDbLine
 10
71.865590
 20
59.832080
 30
0.0
 11
73.061380
 21
59.832080
 31
0.0
  0
LINE
  5
1d5
100
AcDbEntity
  8
Layer_1
 62
4
100
AcDbLine
 10
73.061380
 20
59.832080
 30
0.0
 11
73.061380
 21
59.446910
 31
0.0
  0
LINE
  5
1d6
100
AcDbEntity
  8
Layer_1
 62
4
100
AcDbLine
 10
73.061380
 20
59.446910
 30
0.0
 11
71.870070
 21
59.446910
 31
0.0
  0
LINE
  5
1d7
100
AcDbEntity
  8
Layer_1
 62
4
100
AcDbLine
 10
71.870070
 20
59.446910
 30
0.0
 11
71.870070
 21
58.080930
 31
0.0
  0
LINE
  5
1d8
100
AcDbEntity
  8
Layer_1
 62
4
100
AcDbLine
 10
71.870070
 20
58.080930
 30
0.0
 11
71.480430
 21
58.080930
 31
0.0
  0
LINE
  5
1d9
100
AcDbEntity
  8
Layer_1
 62
4
100
AcDbLine
 10
71.480430
 20
58.080930
 30
0.0
 11
71.480430
 21
60.933820
 31
0.0
  0
LINE
  5
1da
100
AcDbEntity
  8
Layer_1
 62
4
100
AcDbLine
 10
73.504770
 20
60.929340
 30
0.0
 11
73.894410
 21
60.929340
 31
0.0
  0
LINE
  5
1db
100
AcDbEntity
  8
Layer_1
 62
4
100
AcDbLine
 10
73.894410
 20
60.929340
 30
0.0
 11
73.894410
 21
59.175960
 31
0.0
  0
SPLINE
  5
1dc
100
AcDbEntity
  8
Layer_1
 62
4
100
AcDbSpline
 70
8
 71
3
 72
8
 73
4
 74
0
 40
0
 40
0
 40
0
 40
0
 40
1
 40
1
 40
1
 40
1
 10
73.894410
 20
59.175960
 30
0.0
 10
73.894410
 20
58.916200
 30
0.0
 10
73.956363
 20
58.715407
 30
0.0
 10
74.080270
 20
58.573580
 30
0.0
  0
SPLINE
  5
1dd
100
AcDbEntity
  8
Layer_1
 62
4
100
AcDbSpline
 70
8
 71
3
 72
8
 73
4
 74
0
 40
0
 40
0
 40
0
 40
0
 40
1
 40
1
 40
1
 40
1
 10
74.080270
 20
58.573580
 30
0.0
 10
74.205670
 20
58.431760
 30
0.0
 10
74.382577
 20
58.360850
 30
0.0
 10
74.610990
 20
58.360850
 30
0.0
  0
SPLINE
  5
1de
100
AcDbEntity
  8
Layer_1
 62
4
100
AcDbSpline
 70
8
 71
3
 72
8
 73
4
 74
0
 40
0
 40
0
 40
0
 40
0
 40
1
 40
1
 40
1
 40
1
 10
74.610990
 20
58.360850
 30
0.0
 10
74.837903
 20
58.360850
 30
0.0
 10
75.014063
 20
58.425790
 30
0.0
 10
75.139470
 20
58.555670
 30
0.0
  0
SPLINE
  5
1df
100
AcDbEntity
  8
Layer_1
 62
4
100
AcDbSpline
 70
8
 71
3
 72
8
 73
4
 74
0
 40
0
 40
0
 40
0
 40
0
 40
1
 40
1
 40
1
 40
1
 10
75.139470
 20
58.555670
 30
0.0
 10
75.266363
 20
58.687043
 30
0.0
 10
75.329810
 20
58.871413
 30
0.0
 10
75.329810
 20
59.108780
 30
0.0
  0
LINE
  5
1e0
100
AcDbEntity
  8
Layer_1
 62
4
100
AcDbLine
 10
75.329810
 20
59.108780
 30
0.0
 11
75.329810
 21
60.929340
 31
0.0
  0
LINE
  5
1e1
100
AcDbEntity
  8
Layer_1
 62
4
100
AcDbLine
 10
75.329810
 20
60.929340
 30
0.0
 11
75.719450
 21
60.929340
 31
0.0
  0
LINE
  5
1e2
100
AcDbEntity
  8
Layer_1
 62
4
100
AcDbLine
 10
75.719450
 20
60.929340
 30
0.0
 11
75.719450
 21
59.135650
 31
0.0
  0
SPLINE
  5
1e3
100
AcDbEntity
  8
Layer_1
 62
4
100
AcDbSpline
 70
8
 71
3
 72
8
 73
4
 74
0
 40
0
 40
0
 40
0
 40
0
 40
1
 40
1
 40
1
 40
1
 10
75.719450
 20
59.135650
 30
0.0
 10
75.719450
 20
58.786317
 30
0.0
 10
75.619427
 20
58.507150
 30
0.0
 10
75.419380
 20
58.298150
 30
0.0
  0
SPLINE
  5
1e4
100
AcDbEntity
  8
Layer_1
 62
4
100
AcDbSpline
 70
8
 71
3
 72
8
 73
4
 74
0
 40
0
 40
0
 40
0
 40
0
 40
1
 40
1
 40
1
 40
1
 10
75.419380
 20
58.298150
 30
0.0
 10
75.220827
 20
58.089143
 30
0.0
 10
74.955840
 20
57.984640
 30
0.0
 10
74.624420
 20
57.984640
 30
0.0
  0
SPLINE
  5
1e5
100
AcDbEntity
  8
Layer_1
 62
4
100
AcDbSpline
 70
8
 71
3
 72
8
 73
4
 74
0
 40
0
 40
0
 40
0
 40
0
 40
1
 40
1
 40
1
 40
1
 10
74.624420
 20
57.984640
 30
0.0
 10
74.285540
 20
57.984640
 30
0.0
 10
74.013837
 20
58.090637
 30
0.0
 10
73.809310
 20
58.302630
 30
0.0
  0
SPLINE
  5
1e6
100
AcDbEntity
  8
Layer_1
 62
4
100
AcDbSpline
 70
8
 71
3
 72
8
 73
4
 74
0
 40
0
 40
0
 40
0
 40
0
 40
1
 40
1
 40
1
 40
1
 10
73.809310
 20
58.302630
 30
0.0
 10
73.606283
 20
58.514617
 30
0.0
 10
73.504770
 20
58.827373
 30
0.0
 10
73.504770
 20
59.240900
 30
0.0
  0
LINE
  5
1e7
100
AcDbEntity
  8
Layer_1
 62
4
100
AcDbLine
 10
73.504770
 20
59.240900
 30
0.0
 11
73.504770
 21
60.929340
 31
0.0
  0
LINE
  5
1e8
100
AcDbEntity
  8
Layer_1
 62
4
100
AcDbLine
 10
76.111330
 20
60.933820
 30
0.0
 11
77.855750
 21
60.933820
 31
0.0
  0
LINE
  5
1e9
100
AcDbEntity
  8
Layer_1
 62
4
100
AcDbLine
 10
77.855750
 20
60.933820
 30
0.0
 11
77.855750
 21
60.544180
 31
0.0
  0
LINE
  5
1ea
100
AcDbEntity
  8
Layer_1
 62
4
100
AcDbLine
 10
77.855750
 20
60.544180
 30
0.0
 11
77.175000
 21
60.544180
 31
0.0
  0
LINE
  5
1eb
100
AcDbEntity
  8
Layer_1
 62
4
100
AcDbLine
 10
77.175000
 20
60.544180
 30
0.0
 11
77.175000
 21
58.080930
 31
0.0
  0
LINE
  5
1ec
100
AcDbEntity
  8
Layer_1
 62
4
100
AcDbLine
 10
77.175000
 20
58.080930
 30
0.0
 11
76.789840
 21
58.080930
 31
0.0
  0
LINE
  5
1ed
100
AcDbEntity
  8
Layer_1
 62
4
100
AcDbLine
 10
76.789840
 20
58.080930
 30
0.0
 11
76.789840
 21
60.544180
 31
0.0
  0
LINE
  5
1ee
100
AcDbEntity
  8
Layer_1
 62
4
100
AcDbLine
 10
76.789840
 20
60.544180
 30
0.0
 11
76.111330
 21
60.544180
 31
0.0
  0
LINE
  5
1ef
100
AcDbEntity
  8
Layer_1
 62
4
100
AcDbLine
 10
76.111330
 20
60.544180
 30
0.0
 11
76.111330
 21
60.933820
 31
0.0
  0
LINE
  5
1f0
100
AcDbEntity
  8
Layer_1
 62
4
100
AcDbLine
 10
72.021440
 20
57.024450
 30
0.0
 11
73.237560
 21
57.024450
 31
0.0
  0
LINE
  5
1f1
100
AcDbEntity
  8
Layer_1
 62
4
100
AcDbLine
 10
73.237560
 20
57.024450
 30
0.0
 11
73.237560
 21
56.724730
 31
0.0
  0
LINE
  5
1f2
100
AcDbEntity
  8
Layer_1
 62
4
100
AcDbLine
 10
73.237560
 20
56.724730
 30
0.0
 11
72.317720
 21
56.724730
 31
0.0
  0
LINE
  5
1f3
100
AcDbEntity
  8
Layer_1
 62
4
100
AcDbLine
 10
72.317720
 20
56.724730
 30
0.0
 11
72.317720
 21
56.176960
 31
0.0
  0
LINE
  5
1f4
100
AcDbEntity
  8
Layer_1
 62
4
100
AcDbLine
 10
72.317720
 20
56.176960
 30
0.0
 11
73.237560
 21
56.176960
 31
0.0
  0
LINE
  5
1f5
100
AcDbEntity
  8
Layer_1
 62
4
100
AcDbLine
 10
73.237560
 20
56.176960
 30
0.0
 11
73.237560
 21
55.880680
 31
0.0
  0
LINE
  5
1f6
100
AcDbEntity
  8
Layer_1
 62
4
100
AcDbLine
 10
73.237560
 20
55.880680
 30
0.0
 11
72.321170
 21
55.880680
 31
0.0
  0
LINE
  5
1f7
100
AcDbEntity
  8
Layer_1
 62
4
100
AcDbLine
 10
72.321170
 20
55.880680
 30
0.0
 11
72.321170
 21
54.829930
 31
0.0
  0
LINE
  5
1f8
100
AcDbEntity
  8
Layer_1
 62
4
100
AcDbLine
 10
72.321170
 20
54.829930
 30
0.0
 11
72.021440
 21
54.829930
 31
0.0
  0
LINE
  5
1f9
100
AcDbEntity
  8
Layer_1
 62
4
100
AcDbLine
 10
72.021440
 20
54.829930
 30
0.0
 11
72.021440
 21
57.024450
 31
0.0
  0
LINE
  5
1fa
100
AcDbEntity
  8
Layer_1
 62
4
100
AcDbLine
 10
73.578630
 20
57.021010
 30
0.0
 11
73.878350
 21
57.021010
 31
0.0
  0
LINE
  5
1fb
100
AcDbEntity
  8
Layer_1
 62
4
100
AcDbLine
 10
73.878350
 20
57.021010
 30
0.0
 11
73.878350
 21
55.672250
 31
0.0
  0
SPLINE
  5
1fc
100
AcDbEntity
  8
Layer_1
 62
4
100
AcDbSpline
 70
8
 71
3
 72
8
 73
4
 74
0
 40
0
 40
0
 40
0
 40
0
 40
1
 40
1
 40
1
 40
1
 10
73.878350
 20
55.672250
 30
0.0
 10
73.878350
 20
55.472437
 30
0.0
 10
73.926007
 20
55.317983
 30
0.0
 10
74.021320
 20
55.208890
 30
0.0
  0
SPLINE
  5
1fd
100
AcDbEntity
  8
Layer_1
 62
4
100
AcDbSpline
 70
8
 71
3
 72
8
 73
4
 74
0
 40
0
 40
0
 40
0
 40
0
 40
1
 40
1
 40
1
 40
1
 10
74.021320
 20
55.208890
 30
0.0
 10
74.117780
 20
55.099797
 30
0.0
 10
74.253860
 20
55.045250
 30
0.0
 10
74.429560
 20
55.045250
 30
0.0
  0
SPLINE
  5
1fe
100
AcDbEntity
  8
Layer_1
 62
4
100
AcDbSpline
 70
8
 71
3
 72
8
 73
4
 74
0
 40
0
 40
0
 40
0
 40
0
 40
1
 40
1
 40
1
 40
1
 10
74.429560
 20
55.045250
 30
0.0
 10
74.604113
 20
55.045250
 30
0.0
 10
74.739623
 20
55.095203
 30
0.0
 10
74.836090
 20
55.195110
 30
0.0
  0
SPLINE
  5
1ff
100
AcDbEntity
  8
Layer_1
 62
4
100
AcDbSpline
 70
8
 71
3
 72
8
 73
4
 74
0
 40
0
 40
0
 40
0
 40
0
 40
1
 40
1
 40
1
 40
1
 10
74.836090
 20
55.195110
 30
0.0
 10
74.933697
 20
55.296163
 30
0.0
 10
74.982500
 20
55.437987
 30
0.0
 10
74.982500
 20
55.620580
 30
0.0
  0
LINE
  5
200
100
AcDbEntity
  8
Layer_1
 62
4
100
AcDbLine
 10
74.982500
 20
55.620580
 30
0.0
 11
74.982500
 21
57.021010
 31
0.0
  0
LINE
  5
201
100
AcDbEntity
  8
Layer_1
 62
4
100
AcDbLine
 10
74.982500
 20
57.021010
 30
0.0
 11
75.282230
 21
57.021010
 31
0.0
  0
LINE
  5
202
100
AcDbEntity
  8
Layer_1
 62
4
100
AcDbLine
 10
75.282230
 20
57.021010
 30
0.0
 11
75.282230
 21
55.641250
 31
0.0
  0
SPLINE
  5
203
100
AcDbEntity
  8
Layer_1
 62
4
100
AcDbSpline
 70
8
 71
3
 72
8
 73
4
 74
0
 40
0
 40
0
 40
0
 40
0
 40
1
 40
1
 40
1
 40
1
 10
75.282230
 20
55.641250
 30
0.0
 10
75.282230
 20
55.372530
 30
0.0
 10
75.205287
 20
55.157783
 30
0.0
 10
75.051400
 20
54.997010
 30
0.0
  0
SPLINE
  5
204
100
AcDbEntity
  8
Layer_1
 62
4
100
AcDbSpline
 70
8
 71
3
 72
8
 73
4
 74
0
 40
0
 40
0
 40
0
 40
0
 40
1
 40
1
 40
1
 40
1
 10
75.051400
 20
54.997010
 30
0.0
 10
74.898673
 20
54.836243
 30
0.0
 10
74.694840
 20
54.755860
 30
0.0
 10
74.439900
 20
54.755860
 30
0.0
  0
SPLINE
  5
205
100
AcDbEntity
  8
Layer_1
 62
4
100
AcDbSpline
 70
8
 71
3
 72
8
 73
4
 74
0
 40
0
 40
0
 40
0
 40
0
 40
1
 40
1
 40
1
 40
1
 10
74.439900
 20
54.755860
 30
0.0
 10
74.179220
 20
54.755860
 30
0.0
 10
73.970217
 20
54.837393
 30
0.0
 10
73.812890
 20
55.000460
 30
0.0
  0
SPLINE
  5
206
100
AcDbEntity
  8
Layer_1
 62
4
100
AcDbSpline
 70
8
 71
3
 72
8
 73
4
 74
0
 40
0
 40
0
 40
0
 40
0
 40
1
 40
1
 40
1
 40
1
 10
73.812890
 20
55.000460
 30
0.0
 10
73.656717
 20
55.163527
 30
0.0
 10
73.578630
 20
55.404110
 30
0.0
 10
73.578630
 20
55.722210
 30
0.0
  0
LINE
  5
207
100
AcDbEntity
  8
Layer_1
 62
4
100
AcDbLine
 10
73.578630
 20
55.722210
 30
0.0
 11
73.578630
 21
57.021010
 31
0.0
  0
LINE
  5
208
100
AcDbEntity
  8
Layer_1
 62
4
100
AcDbLine
 10
75.583670
 20
57.024450
 30
0.0
 11
76.925540
 21
57.024450
 31
0.0
  0
LINE
  5
209
100
AcDbEntity
  8
Layer_1
 62
4
100
AcDbLine
 10
76.925540
 20
57.024450
 30
0.0
 11
76.925540
 21
56.724730
 31
0.0
  0
LINE
  5
20a
100
AcDbEntity
  8
Layer_1
 62
4
100
AcDbLine
 10
76.925540
 20
56.724730
 30
0.0
 11
76.401880
 21
56.724730
 31
0.0
  0
LINE
  5
20b
100
AcDbEntity
  8
Layer_1
 62
4
100
AcDbLine
 10
76.401880
 20
56.724730
 30
0.0
 11
76.401880
 21
54.829930
 31
0.0
  0
LINE
  5
20c
100
AcDbEntity
  8
Layer_1
 62
4
100
AcDbLine
 10
76.401880
 20
54.829930
 30
0.0
 11
76.105600
 21
54.829930
 31
0.0
  0
LINE
  5
20d
100
AcDbEntity
  8
Layer_1
 62
4
100
AcDbLine
 10
76.105600
 20
54.829930
 30
0.0
 11
76.105600
 21
56.724730
 31
0.0
  0
LINE
  5
20e
100
AcDbEntity
  8
Layer_1
 62
4
100
AcDbLine
 10
76.105600
 20
56.724730
 30
0.0
 11
75.583670
 21
56.724730
 31
0.0
  0
LINE
  5
20f
100
AcDbEntity
  8
Layer_1
 62
4
100
AcDbLine
 10
75.583670
 20
56.724730
 30
0.0
 11
75.583670
 21
57.024450
 31
0.0
  0
LINE
  5
210
100
AcDbEntity
  8
Layer_1
 62
6
100
AcDbLine
 10
99.236420
 20
97.328360
 30
0.0
 11
99.236420
 21
2.840370
 31
0.0
  0
LINE
  5
211
100
AcDbEntity
  8
Layer_1
 62
6
100
AcDbLine
 10
26.084420
 20
97.328360
 30
0.0
 11
99.236420
 21
97.328360
 31
0.0
  0
LINE
  5
212
100
AcDbEntity
  8
Layer_1
 62
6
100
AcDbLine
 10
26.084420
 20
2.840370
 30
0.0
 11
26.084420
 21
97.328360
 31
0.0
  0
LINE
  5
213
100
AcDbEntity
  8
Layer_1
 62
6
100
AcDbLine
 10
41.578420
 20
2.840370
 30
0.0
 11
26.084420
 21
2.840370
 31
0.0
  0
LINE
  5
214
100
AcDbEntity
  8
Layer_1
 62
6
100
AcDbLine
 10
41.578420
 20
2.840370
 30
0.0
 11
99.236420
 21
2.840370
 31
0.0
  0
LINE
  5
215
100
AcDbEntity
  8
Layer_1
 62
6
100
AcDbLine
 10
99.236420
 20
2.840370
 30
0.0
 11
99.236420
 21
2.840370
 31
0.0
  0
LINE
  5
216
100
AcDbEntity
  8
Layer_1
 62
6
100
AcDbLine
 10
99.236420
 20
2.840370
 30
0.0
 11
99.236420
 21
2.840370
 31
0.0
  0
SPLINE
  5
217
100
AcDbEntity
  8
Layer_1
 62
1
100
AcDbSpline
 70
8
 71
3
 72
8
 73
4
 74
0
 40
0
 40
0
 40
0
 40
0
 40
1
 40
1
 40
1
 40
1
 10
29.895787
 20
8.767740
 30
0.0
 10
30.340696
 20
8.767740
 30
0.0
 10
30.741795
 20
8.499734
 30
0.0
 10
30.912055
 20
8.088692
 30
0.0
  0
SPLINE
  5
218
100
AcDbEntity
  8
Layer_1
 62
1
100
AcDbSpline
 70
8
 71
3
 72
8
 73
4
 74
0
 40
0
 40
0
 40
0
 40
0
 40
1
 40
1
 40
1
 40
1
 10
30.912055
 20
8.088692
 30
0.0
 10
31.082314
 20
7.677650
 30
0.0
 10
30.988202
 20
7.204520
 30
0.0
 10
30.673605
 20
6.889922
 30
0.0
  0
SPLINE
  5
219
100
AcDbEntity
  8
Layer_1
 62
1
100
AcDbSpline
 70
8
 71
3
 72
8
 73
4
 74
0
 40
0
 40
0
 40
0
 40
0
 40
1
 40
1
 40
1
 40
1
 10
30.673605
 20
6.889922
 30
0.0
 10
30.359007
 20
6.575325
 30
0.0
 10
29.885877
 20
6.481213
 30
0.0
 10
29.474835
 20
6.651472
 30
0.0
  0
SPLINE
  5
21a
100
AcDbEntity
  8
Layer_1
 62
1
100
AcDbSpline
 70
8
 71
3
 72
8
 73
4
 74
0
 40
0
 40
0
 40
0
 40
0
 40
1
 40
1
 40
1
 40
1
 10
29.474835
 20
6.651472
 30
0.0
 10
29.063793
 20
6.821732
 30
0.0
 10
28.795787
 20
7.222831
 30
0.0
 10
28.795787
 20
7.667740
 30
0.0
  0
SPLINE
  5
21b
100
AcDbEntity
  8
Layer_1
 62
1
100
AcDbSpline
 70
8
 71
3
 72
8
 73
4
 74
0
 40
0
 40
0
 40
0
 40
0
 40
1
 40
1
 40
1
 40
1
 10
28.795787
 20
7.667740
 30
0.0
 10
28.795787
 20
7.959478
 30
0.0
 10
28.911679
 20
8.239267
 30
0.0
 10
29.117969
 20
8.445558
 30
0.0
  0
SPLINE
  5
21c
100
AcDbEntity
  8
Layer_1
 62
1
100
AcDbSpline
 70
8
 71
3
 72
8
 73
4
 74
0
 40
0
 40
0
 40
0
 40
0
 40
1
 40
1
 40
1
 40
1
 10
29.117969
 20
8.445558
 30
0.0
 10
29.324260
 20
8.651848
 30
0.0
 10
29.604049
 20
8.767740
 30
0.0
 10
29.895787
 20
8.767740
 30
0.0
  0
LINE
  5
21d
100
AcDbEntity
  8
Layer_1
 62
1
100
AcDbLine
 10
29.895787
 20
8.767740
 30
0.0
 11
29.895787
 21
8.767740
 31
0.0
  0
SPLINE
  5
21e
100
AcDbEntity
  8
Layer_1
 62
1
100
AcDbSpline
 70
8
 71
3
 72
8
 73
4
 74
0
 40
0
 40
0
 40
0
 40
0
 40
1
 40
1
 40
1
 40
1
 10
73.075906
 20
39.248020
 30
0.0
 10
73.520815
 20
39.248020
 30
0.0
 10
73.921914
 20
38.980014
 30
0.0
 10
74.092174
 20
38.568972
 30
0.0
  0
SPLINE
  5
21f
100
AcDbEntity
  8
Layer_1
 62
1
100
AcDbSpline
 70
8
 71
3
 72
8
 73
4
 74
0
 40
0
 40
0
 40
0
 40
0
 40
1
 40
1
 40
1
 40
1
 10
74.092174
 20
38.568972
 30
0.0
 10
74.262433
 20
38.157930
 30
0.0
 10
74.168321
 20
37.684800
 30
0.0
 10
73.853724
 20
37.370202
 30
0.0
  0
SPLINE
  5
220
100
AcDbEntity
  8
Layer_1
 62
1
100
AcDbSpline
 70
8
 71
3
 72
8
 73
4
 74
0
 40
0
 40
0
 40
0
 40
0
 40
1
 40
1
 40
1
 40
1
 10
73.853724
 20
37.370202
 30
0.0
 10
73.539126
 20
37.055605
 30
0.0
 10
73.065996
 20
36.961493
 30
0.0
 10
72.654954
 20
37.131752
 30
0.0
  0
SPLINE
  5
221
100
AcDbEntity
  8
Layer_1
 62
1
100
AcDbSpline
 70
8
 71
3
 72
8
 73
4
 74
0
 40
0
 40
0
 40
0
 40
0
 40
1
 40
1
 40
1
 40
1
 10
72.654954
 20
37.131752
 30
0.0
 10
72.243912
 20
37.302012
 30
0.0
 10
71.975906
 20
37.703111
 30
0.0
 10
71.975906
 20
38.148020
 30
0.0
  0
SPLINE
  5
222
100
AcDbEntity
  8
Layer_1
 62
1
100
AcDbSpline
 70
8
 71
3
 72
8
 73
4
 74
0
 40
0
 40
0
 40
0
 40
0
 40
1
 40
1
 40
1
 40
1
 10
71.975906
 20
38.148020
 30
0.0
 10
71.975906
 20
38.439758
 30
0.0
 10
72.091798
 20
38.719547
 30
0.0
 10
72.298088
 20
38.925838
 30
0.0
  0
SPLINE
  5
223
100
AcDbEntity
  8
Layer_1
 62
1
100
AcDbSpline
 70
8
 71
3
 72
8
 73
4
 74
0
 40
0
 40
0
 40
0
 40
0
 40
1
 40
1
 40
1
 40
1
 10
72.298088
 20
38.925838
 30
0.0
 10
72.504379
 20
39.132128
 30
0.0
 10
72.784168
 20
39.248020
 30
0.0
 10
73.075906
 20
39.248020
 30
0.0
  0
LINE
  5
224
100
AcDbEntity
  8
Layer_1
 62
1
100
AcDbLine
 10
73.075906
 20
39.248020
 30
0.0
 11
73.075906
 21
39.248020
 31
0.0
  0
SPLINE
  5
225
100
AcDbEntity
  8
Layer_1
 62
1
100
AcDbSpline
 70
8
 71
3
 72
8
 73
4
 74
0
 40
0
 40
0
 40
0
 40
0
 40
1
 40
1
 40
1
 40
1
 10
29.895787
 20
92.587740
 30
0.0
 10
30.340696
 20
92.587740
 30
0.0
 10
30.741795
 20
92.319734
 30
0.0
 10
30.912055
 20
91.908692
 30
0.0
  0
SPLINE
  5
226
100
AcDbEntity
  8
Layer_1
 62
1
100
AcDbSpline
 70
8
 71
3
 72
8
 73
4
 74
0
 40
0
 40
0
 40
0
 40
0
 40
1
 40
1
 40
1
 40
1
 10
30.912055
 20
91.908692
 30
0.0
 10
31.082314
 20
91.497650
 30
0.0
 10
30.988202
 20
91.024520
 30
0.0
 10
30.673605
 20
90.709922
 30
0.0
  0
SPLINE
  5
227
100
AcDbEntity
  8
Layer_1
 62
1
100
AcDbSpline
 70
8
 71
3
 72
8
 73
4
 74
0
 40
0
 40
0
 40
0
 40
0
 40
1
 40
1
 40
1
 40
1
 10
30.673605
 20
90.709922
 30
0.0
 10
30.359007
 20
90.395325
 30
0.0
 10
29.885877
 20
90.301213
 30
0.0
 10
29.474835
 20
90.471472
 30
0.0
  0
SPLINE
  5
228
100
AcDbEntity
  8
Layer_1
 62
1
100
AcDbSpline
 70
8
 71
3
 72
8
 73
4
 74
0
 40
0
 40
0
 40
0
 40
0
 40
1
 40
1
 40
1
 40
1
 10
29.474835
 20
90.471472
 30
0.0
 10
29.063793
 20
90.641732
 30
0.0
 10
28.795787
 20
91.042831
 30
0.0
 10
28.795787
 20
91.487740
 30
0.0
  0
SPLINE
  5
229
100
AcDbEntity
  8
Layer_1
 62
1
100
AcDbSpline
 70
8
 71
3
 72
8
 73
4
 74
0
 40
0
 40
0
 40
0
 40
0
 40
1
 40
1
 40
1
 40
1
 10
28.795787
 20
91.487740
 30
0.0
 10
28.795787
 20
91.779478
 30
0.0
 10
28.911679
 20
92.059267
 30
0.0
 10
29.117969
 20
92.265558
 30
0.0
  0
SPLINE
  5
22a
100
AcDbEntity
  8
Layer_1
 62
1
100
AcDbSpline
 70
8
 71
3
 72
8
 73
4
 74
0
 40
0
 40
0
 40
0
 40
0
 40
1
 40
1
 40
1
 40
1
 10
29.117969
 20
92.265558
 30
0.0
 10
29.324260
 20
92.471848
 30
0.0
 10
29.604049
 20
92.587740
 30
0.0
 10
29.895787
 20
92.587740
 30
0.0
  0
LINE
  5
22b
100
AcDbEntity
  8
Layer_1
 62
1
100
AcDbLine
 10
29.895787
 20
92.587740
 30
0.0
 11
29.895787
 21
92.587740
 31
0.0
  0
SPLINE
  5
22c
100
AcDbEntity
  8
Layer_1
 62
1
100
AcDbSpline
 70
8
 71
3
 72
8
 73
4
 74
0
 40
0
 40
0
 40
0
 40
0
 40
1
 40
1
 40
1
 40
1
 10
93.395883
 20
72.267770
 30
0.0
 10
93.840792
 20
72.267770
 30
0.0
 10
94.241891
 20
71.999764
 30
0.0
 10
94.412151
 20
71.588722
 30
0.0
  0
SPLINE
  5
22d
100
AcDbEntity
  8
Layer_1
 62
1
100
AcDbSpline
 70
8
 71
3
 72
8
 73
4
 74
0
 40
0
 40
0
 40
0
 40
0
 40
1
 40
1
 40
1
 40
1
 10
94.412151
 20
71.588722
 30
0.0
 10
94.582410
 20
71.177680
 30
0.0
 10
94.488298
 20
70.704550
 30
0.0
 10
94.173701
 20
70.389952
 30
0.0
  0
SPLINE
  5
22e
100
AcDbEntity
  8
Layer_1
 62
1
100
AcDbSpline
 70
8
 71
3
 72
8
 73
4
 74
0
 40
0
 40
0
 40
0
 40
0
 40
1
 40
1
 40
1
 40
1
 10
94.173701
 20
70.389952
 30
0.0
 10
93.859103
 20
70.075355
 30
0.0
 10
93.385973
 20
69.981243
 30
0.0
 10
92.974931
 20
70.151502
 30
0.0
  0
SPLINE
  5
22f
100
AcDbEntity
  8
Layer_1
 62
1
100
AcDbSpline
 70
8
 71
3
 72
8
 73
4
 74
0
 40
0
 40
0
 40
0
 40
0
 40
1
 40
1
 40
1
 40
1
 10
92.974931
 20
70.151502
 30
0.0
 10
92.563889
 20
70.321762
 30
0.0
 10
92.295883
 20
70.722861
 30
0.0
 10
92.295883
 20
71.167770
 30
0.0
  0
SPLINE
  5
230
100
AcDbEntity
  8
Layer_1
 62
1
100
AcDbSpline
 70
8
 71
3
 72
8
 73
4
 74
0
 40
0
 40
0
 40
0
 40
0
 40
1
 40
1
 40
1
 40
1
 10
92.295883
 20
71.167770
 30
0.0
 10
92.295883
 20
71.459508
 30
0.0
 10
92.411775
 20
71.739297
 30
0.0
 10
92.618065
 20
71.945588
 30
0.0
  0
SPLINE
  5
231
100
AcDbEntity
  8
Layer_1
 62
1
100
AcDbSpline
 70
8
 71
3
 72
8
 73
4
 74
0
 40
0
 40
0
 40
0
 40
0
 40
1
 40
1
 40
1
 40
1
 10
92.618065
 20
71.945588
 30
0.0
 10
92.824356
 20
72.151878
 30
0.0
 10
93.104145
 20
72.267770
 30
0.0
 10
93.395883
 20
72.267770
 30
0.0
  0
LINE
  5
232
100
AcDbEntity
  8
Layer_1
 62
1
100
AcDbLine
 10
93.395883
 20
72.267770
 30
0.0
 11
93.395883
 21
72.267770
 31
0.0
  0
LINE
  5
233
100
AcDbEntity
  8
Layer_1
 62
3
100
AcDbLine
 10
27.785329
 20
4.541240
 30
0.0
 11
27.785329
 21
95.975803
 31
0.0
  0
LINE
  5
234
100
AcDbEntity
  8
Layer_1
 62
3
100
AcDbLine
 10
27.785329
 20
95.975803
 30
0.0
 11
97.594381
 21
95.975803
 31
0.0
  0
LINE
  5
235
100
AcDbEntity
  8
Layer_1
 62
3
100
AcDbLine
 10
97.594381
 20
95.975803
 30
0.0
 11
97.594381
 21
4.541240
 31
0.0
  0
LINE
  5
236
100
AcDbEntity
  8
Layer_1
 62
3
100
AcDbLine
 10
97.594381
 20
4.541240
 30
0.0
 11
27.785329
 21
4.541240
 31
0.0
  0
SPLINE
  5
237
100
AcDbEntity
  8
Layer_1
 62
1
100
AcDbSpline
 70
8
 71
3
 72
8
 73
4
 74
0
 40
0
 40
0
 40
0
 40
0
 40
1
 40
1
 40
1
 40
1
 10
38.175298
 20
13.207680
 30
0.0
 10
38.175298
 20
11.792062
 30
0.0
 10
39.028046
 20
10.515835
 30
0.0
 10
40.335906
 20
9.974102
 30
0.0
  0
SPLINE
  5
238
100
AcDbEntity
  8
Layer_1
 62
1
100
AcDbSpline
 70
8
 71
3
 72
8
 73
4
 74
0
 40
0
 40
0
 40
0
 40
0
 40
1
 40
1
 40
1
 40
1
 10
40.335906
 20
9.974102
 30
0.0
 10
41.643766
 20
9.432368
 30
0.0
 10
43.149179
 20
9.731813
 30
0.0
 10
44.150172
 20
10.732806
 30
0.0
  0
SPLINE
  5
239
100
AcDbEntity
  8
Layer_1
 62
1
100
AcDbSpline
 70
8
 71
3
 72
8
 73
4
 74
0
 40
0
 40
0
 40
0
 40
0
 40
1
 40
1
 40
1
 40
1
 10
44.150172
 20
10.732806
 30
0.0
 10
45.151165
 20
11.733799
 30
0.0
 10
45.450610
 20
13.239212
 30
0.0
 10
44.908876
 20
14.547072
 30
0.0
  0
SPLINE
  5
23a
100
AcDbEntity
  8
Layer_1
 62
1
100
AcDbSpline
 70
8
 71
3
 72
8
 73
4
 74
0
 40
0
 40
0
 40
0
 40
0
 40
1
 40
1
 40
1
 40
1
 10
44.908876
 20
14.547072
 30
0.0
 10
44.367143
 20
15.854932
 30
0.0
 10
43.090916
 20
16.707680
 30
0.0
 10
41.675298
 20
16.707680
 30
0.0
  0
SPLINE
  5
23b
100
AcDbEntity
  8
Layer_1
 62
1
100
AcDbSpline
 70
8
 71
3
 72
8
 73
4
 74
0
 40
0
 40
0
 40
0
 40
0
 40
1
 40
1
 40
1
 40
1
 10
41.675298
 20
16.707680
 30
0.0
 10
40.747040
 20
16.707680
 30
0.0
 10
39.856802
 20
16.338931
 30
0.0
 10
39.200424
 20
15.682554
 30
0.0
  0
SPLINE
  5
23c
100
AcDbEntity
  8
Layer_1
 62
1
100
AcDbSpline
 70
8
 71
3
 72
8
 73
4
 74
0
 40
0
 40
0
 40
0
 40
0
 40
1
 40
1
 40
1
 40
1
 10
39.200424
 20
15.682554
 30
0.0
 10
38.544047
 20
15.026176
 30
0.0
 10
38.175298
 20
14.135938
 30
0.0
 10
38.175298
 20
13.207680
 30
0.0
  0
LINE
  5
23d
100
AcDbEntity
  8
Layer_1
 62
1
100
AcDbLine
 10
38.175298
 20
13.207680
 30
0.0
 11
38.175298
 21
13.207680
 31
0.0
  0
SPLINE
  5
23e
100
AcDbEntity
  8
Layer_1
 62
1
100
AcDbSpline
 70
8
 71
3
 72
8
 73
4
 74
0
 40
0
 40
0
 40
0
 40
0
 40
1
 40
1
 40
1
 40
1
 10
50.875218
 20
13.207680
 30
0.0
 10
50.875218
 20
11.792062
 30
0.0
 10
51.727966
 20
10.515835
 30
0.0
 10
53.035826
 20
9.974102
 30
0.0
  0
SPLINE
  5
23f
100
AcDbEntity
  8
Layer_1
 62
1
100
AcDbSpline
 70
8
 71
3
 72
8
 73
4
 74
0
 40
0
 40
0
 40
0
 40
0
 40
1
 40
1
 40
1
 40
1
 10
53.035826
 20
9.974102
 30
0.0
 10
54.343686
 20
9.432368
 30
0.0
 10
55.849099
 20
9.731813
 30
0.0
 10
56.850092
 20
10.732806
 30
0.0
  0
SPLINE
  5
240
100
AcDbEntity
  8
Layer_1
 62
1
100
AcDbSpline
 70
8
 71
3
 72
8
 73
4
 74
0
 40
0
 40
0
 40
0
 40
0
 40
1
 40
1
 40
1
 40
1
 10
56.850092
 20
10.732806
 30
0.0
 10
57.851085
 20
11.733799
 30
0.0
 10
58.150530
 20
13.239212
 30
0.0
 10
57.608796
 20
14.547072
 30
0.0
  0
SPLINE
  5
241
100
AcDbEntity
  8
Layer_1
 62
1
100
AcDbSpline
 70
8
 71
3
 72
8
 73
4
 74
0
 40
0
 40
0
 40
0
 40
0
 40
1
 40
1
 40
1
 40
1
 10
57.608796
 20
14.547072
 30
0.0
 10
57.067063
 20
15.854932
 30
0.0
 10
55.790836
 20
16.707680
 30
0.0
 10
54.375218
 20
16.707680
 30
0.0
  0
SPLINE
  5
242
100
AcDbEntity
  8
Layer_1
 62
1
100
AcDbSpline
 70
8
 71
3
 72
8
 73
4
 74
0
 40
0
 40
0
 40
0
 40
0
 40
1
 40
1
 40
1
 40
1
 10
54.375218
 20
16.707680
 30
0.0
 10
53.446960
 20
16.707680
 30
0.0
 10
52.556722
 20
16.338931
 30
0.0
 10
51.900344
 20
15.682554
 30
0.0
  0
SPLINE
  5
243
100
AcDbEntity
  8
Layer_1
 62
1
100
AcDbSpline
 70
8
 71
3
 72
8
 73
4
 74
0
 40
0
 40
0
 40
0
 40
0
 40
1
 40
1
 40
1
 40
1
 10
51.900344
 20
15.682554
 30
0.0
 10
51.243967
 20
15.026176
 30
0.0
 10
50.875218
 20
14.135938
 30
0.0
 10
50.875218
 20
13.207680
 30
0.0
  0
LINE
  5
244
100
AcDbEntity
  8
Layer_1
 62
1
100
AcDbLine
 10
50.875218
 20
13.207680
 30
0.0
 11
50.875218
 21
13.207680
 31
0.0
  0
SPLINE
  5
245
100
AcDbEntity
  8
Layer_1
 62
1
100
AcDbSpline
 70
8
 71
3
 72
8
 73
4
 74
0
 40
0
 40
0
 40
0
 40
0
 40
1
 40
1
 40
1
 40
1
 10
63.575231
 20
13.207680
 30
0.0
 10
63.575231
 20
11.792062
 30
0.0
 10
64.427979
 20
10.515835
 30
0.0
 10
65.735839
 20
9.974102
 30
0.0
  0
SPLINE
  5
246
100
AcDbEntity
  8
Layer_1
 62
1
100
AcDbSpline
 70
8
 71
3
 72
8
 73
4
 74
0
 40
0
 40
0
 40
0
 40
0
 40
1
 40
1
 40
1
 40
1
 10
65.735839
 20
9.974102
 30
0.0
 10
67.043699
 20
9.432368
 30
0.0
 10
68.549112
 20
9.731813
 30
0.0
 10
69.550105
 20
10.732806
 30
0.0
  0
SPLINE
  5
247
100
AcDbEntity
  8
Layer_1
 62
1
100
AcDbSpline
 70
8
 71
3
 72
8
 73
4
 74
0
 40
0
 40
0
 40
0
 40
0
 40
1
 40
1
 40
1
 40
1
 10
69.550105
 20
10.732806
 30
0.0
 10
70.551098
 20
11.733799
 30
0.0
 10
70.850543
 20
13.239212
 30
0.0
 10
70.308809
 20
14.547072
 30
0.0
  0
SPLINE
  5
248
100
AcDbEntity
  8
Layer_1
 62
1
100
AcDbSpline
 70
8
 71
3
 72
8
 73
4
 74
0
 40
0
 40
0
 40
0
 40
0
 40
1
 40
1
 40
1
 40
1
 10
70.308809
 20
14.547072
 30
0.0
 10
69.767076
 20
15.854932
 30
0.0
 10
68.490849
 20
16.707680
 30
0.0
 10
67.075231
 20
16.707680
 30
0.0
  0
SPLINE
  5
249
100
AcDbEntity
  8
Layer_1
 62
1
100
AcDbSpline
 70
8
 71
3
 72
8
 73
4
 74
0
 40
0
 40
0
 40
0
 40
0
 40
1
 40
1
 40
1
 40
1
 10
67.075231
 20
16.707680
 30
0.0
 10
66.146973
 20
16.707680
 30
0.0
 10
65.256735
 20
16.338931
 30
0.0
 10
64.600357
 20
15.682554
 30
0.0
  0
SPLINE
  5
24a
100
AcDbEntity
  8
Layer_1
 62
1
100
AcDbSpline
 70
8
 71
3
 72
8
 73
4
 74
0
 40
0
 40
0
 40
0
 40
0
 40
1
 40
1
 40
1
 40
1
 10
64.600357
 20
15.682554
 30
0.0
 10
63.943980
 20
15.026176
 30
0.0
 10
63.575231
 20
14.135938
 30
0.0
 10
63.575231
 20
13.207680
 30
0.0
  0
LINE
  5
24b
100
AcDbEntity
  8
Layer_1
 62
1
100
AcDbLine
 10
63.575231
 20
13.207680
 30
0.0
 11
63.575231
 21
13.207680
 31
0.0
  0
SPLINE
  5
24c
100
AcDbEntity
  8
Layer_1
 62
1
100
AcDbSpline
 70
8
 71
3
 72
8
 73
4
 74
0
 40
0
 40
0
 40
0
 40
0
 40
1
 40
1
 40
1
 40
1
 10
76.275216
 20
13.207680
 30
0.0
 10
76.275216
 20
11.792062
 30
0.0
 10
77.127964
 20
10.515835
 30
0.0
 10
78.435824
 20
9.974102
 30
0.0
  0
SPLINE
  5
24d
100
AcDbEntity
  8
Layer_1
 62
1
100
AcDbSpline
 70
8
 71
3
 72
8
 73
4
 74
0
 40
0
 40
0
 40
0
 40
0
 40
1
 40
1
 40
1
 40
1
 10
78.435824
 20
9.974102
 30
0.0
 10
79.743684
 20
9.432368
 30
0.0
 10
81.249097
 20
9.731813
 30
0.0
 10
82.250090
 20
10.732806
 30
0.0
  0
SPLINE
  5
24e
100
AcDbEntity
  8
Layer_1
 62
1
100
AcDbSpline
 70
8
 71
3
 72
8
 73
4
 74
0
 40
0
 40
0
 40
0
 40
0
 40
1
 40
1
 40
1
 40
1
 10
82.250090
 20
10.732806
 30
0.0
 10
83.251083
 20
11.733799
 30
0.0
 10
83.550528
 20
13.239212
 30
0.0
 10
83.008794
 20
14.547072
 30
0.0
  0
SPLINE
  5
24f
100
AcDbEntity
  8
Layer_1
 62
1
100
AcDbSpline
 70
8
 71
3
 72
8
 73
4
 74
0
 40
0
 40
0
 40
0
 40
0
 40
1
 40
1
 40
1
 40
1
 10
83.008794
 20
14.547072
 30
0.0
 10
82.467061
 20
15.854932
 30
0.0
 10
81.190834
 20
16.707680
 30
0.0
 10
79.775216
 20
16.707680
 30
0.0
  0
SPLINE
  5
250
100
AcDbEntity
  8
Layer_1
 62
1
100
AcDbSpline
 70
8
 71
3
 72
8
 73
4
 74
0
 40
0
 40
0
 40
0
 40
0
 40
1
 40
1
 40
1
 40
1
 10
79.775216
 20
16.707680
 30
0.0
 10
78.846958
 20
16.707680
 30
0.0
 10
77.956720
 20
16.338931
 30
0.0
 10
77.300342
 20
15.682554
 30
0.0
  0
SPLINE
  5
251
100
AcDbEntity
  8
Layer_1
 62
1
100
AcDbSpline
 70
8
 71
3
 72
8
 73
4
 74
0
 40
0
 40
0
 40
0
 40
0
 40
1
 40
1
 40
1
 40
1
 10
77.300342
 20
15.682554
 30
0.0
 10
76.643965
 20
15.026176
 30
0.0
 10
76.275216
 20
14.135938
 30
0.0
 10
76.275216
 20
13.207680
 30
0.0
  0
LINE
  5
252
100
AcDbEntity
  8
Layer_1
 62
1
100
AcDbLine
 10
76.275216
 20
13.207680
 30
0.0
 11
76.275216
 21
13.207680
 31
0.0
  0
SPLINE
  5
253
100
AcDbEntity
  8
Layer_1
 62
1
100
AcDbSpline
 70
8
 71
3
 72
8
 73
4
 74
0
 40
0
 40
0
 40
0
 40
0
 40
1
 40
1
 40
1
 40
1
 10
88.975228
 20
13.207680
 30
0.0
 10
88.975228
 20
11.792062
 30
0.0
 10
89.827976
 20
10.515835
 30
0.0
 10
91.135836
 20
9.974102
 30
0.0
  0
SPLINE
  5
254
100
AcDbEntity
  8
Layer_1
 62
1
100
AcDbSpline
 70
8
 71
3
 72
8
 73
4
 74
0
 40
0
 40
0
 40
0
 40
0
 40
1
 40
1
 40
1
 40
1
 10
91.135836
 20
9.974102
 30
0.0
 10
92.443696
 20
9.432368
 30
0.0
 10
93.949109
 20
9.731813
 30
0.0
 10
94.950102
 20
10.732806
 30
0.0
  0
SPLINE
  5
255
100
AcDbEntity
  8
Layer_1
 62
1
100
AcDbSpline
 70
8
 71
3
 72
8
 73
4
 74
0
 40
0
 40
0
 40
0
 40
0
 40
1
 40
1
 40
1
 40
1
 10
94.950102
 20
10.732806
 30
0.0
 10
95.951095
 20
11.733799
 30
0.0
 10
96.250540
 20
13.239212
 30
0.0
 10
95.708806
 20
14.547072
 30
0.0
  0
SPLINE
  5
256
100
AcDbEntity
  8
Layer_1
 62
1
100
AcDbSpline
 70
8
 71
3
 72
8
 73
4
 74
0
 40
0
 40
0
 40
0
 40
0
 40
1
 40
1
 40
1
 40
1
 10
95.708806
 20
14.547072
 30
0.0
 10
95.167073
 20
15.854932
 30
0.0
 10
93.890846
 20
16.707680
 30
0.0
 10
92.475228
 20
16.707680
 30
0.0
  0
SPLINE
  5
257
100
AcDbEntity
  8
Layer_1
 62
1
100
AcDbSpline
 70
8
 71
3
 72
8
 73
4
 74
0
 40
0
 40
0
 40
0
 40
0
 40
1
 40
1
 40
1
 40
1
 10
92.475228
 20
16.707680
 30
0.0
 10
91.546970
 20
16.707680
 30
0.0
 10
90.656732
 20
16.338931
 30
0.0
 10
90.000354
 20
15.682554
 30
0.0
  0
SPLINE
  5
258
100
AcDbEntity
  8
Layer_1
 62
1
100
AcDbSpline
 70
8
 71
3
 72
8
 73
4
 74
0
 40
0
 40
0
 40
0
 40
0
 40
1
 40
1
 40
1
 40
1
 10
90.000354
 20
15.682554
 30
0.0
 10
89.343977
 20
15.026176
 30
0.0
 10
88.975228
 20
14.135938
 30
0.0
 10
88.975228
 20
13.207680
 30
0.0
  0
LINE
  5
259
100
AcDbEntity
  8
Layer_1
 62
1
100
AcDbLine
 10
88.975228
 20
13.207680
 30
0.0
 11
88.975228
 21
13.207680
 31
0.0
  0
SPLINE
  5
25a
100
AcDbEntity
  8
Layer_1
 62
1
100
AcDbSpline
 70
8
 71
3
 72
8
 73
4
 74
0
 40
0
 40
0
 40
0
 40
0
 40
1
 40
1
 40
1
 40
1
 10
38.175275
 20
88.707620
 30
0.0
 10
38.175275
 20
87.292002
 30
0.0
 10
39.028023
 20
86.015775
 30
0.0
 10
40.335883
 20
85.474042
 30
0.0
  0
SPLINE
  5
25b
100
AcDbEntity
  8
Layer_1
 62
1
100
AcDbSpline
 70
8
 71
3
 72
8
 73
4
 74
0
 40
0
 40
0
 40
0
 40
0
 40
1
 40
1
 40
1
 40
1
 10
40.335883
 20
85.474042
 30
0.0
 10
41.643743
 20
84.932308
 30
0.0
 10
43.149156
 20
85.231753
 30
0.0
 10
44.150149
 20
86.232746
 30
0.0
  0
SPLINE
  5
25c
100
AcDbEntity
  8
Layer_1
 62
1
100
AcDbSpline
 70
8
 71
3
 72
8
 73
4
 74
0
 40
0
 40
0
 40
0
 40
0
 40
1
 40
1
 40
1
 40
1
 10
44.150149
 20
86.232746
 30
0.0
 10
45.151142
 20
87.233739
 30
0.0
 10
45.450587
 20
88.739152
 30
0.0
 10
44.908853
 20
90.047012
 30
0.0
  0
SPLINE
  5
25d
100
AcDbEntity
  8
Layer_1
 62
1
100
AcDbSpline
 70
8
 71
3
 72
8
 73
4
 74
0
 40
0
 40
0
 40
0
 40
0
 40
1
 40
1
 40
1
 40
1
 10
44.908853
 20
90.047012
 30
0.0
 10
44.367120
 20
91.354872
 30
0.0
 10
43.090893
 20
92.207620
 30
0.0
 10
41.675275
 20
92.207620
 30
0.0
  0
SPLINE
  5
25e
100
AcDbEntity
  8
Layer_1
 62
1
100
AcDbSpline
 70
8
 71
3
 72
8
 73
4
 74
0
 40
0
 40
0
 40
0
 40
0
 40
1
 40
1
 40
1
 40
1
 10
41.675275
 20
92.207620
 30
0.0
 10
40.747017
 20
92.207620
 30
0.0
 10
39.856779
 20
91.838871
 30
0.0
 10
39.200401
 20
91.182494
 30
0.0
  0
SPLINE
  5
25f
100
AcDbEntity
  8
Layer_1
 62
1
100
AcDbSpline
 70
8
 71
3
 72
8
 73
4
 74
0
 40
0
 40
0
 40
0
 40
0
 40
1
 40
1
 40
1
 40
1
 10
39.200401
 20
91.182494
 30
0.0
 10
38.544024
 20
90.526116
 30
0.0
 10
38.175275
 20
89.635878
 30
0.0
 10
38.175275
 20
88.707620
 30
0.0
  0
LINE
  5
260
100
AcDbEntity
  8
Layer_1
 62
1
100
AcDbLine
 10
38.175275
 20
88.707620
 30
0.0
 11
38.175275
 21
88.707620
 31
0.0
  0
SPLINE
  5
261
100
AcDbEntity
  8
Layer_1
 62
1
100
AcDbSpline
 70
8
 71
3
 72
8
 73
4
 74
0
 40
0
 40
0
 40
0
 40
0
 40
1
 40
1
 40
1
 40
1
 10
50.875211
 20
88.707620
 30
0.0
 10
50.875211
 20
87.292002
 30
0.0
 10
51.727959
 20
86.015775
 30
0.0
 10
53.035819
 20
85.474042
 30
0.0
  0
SPLINE
  5
262
100
AcDbEntity
  8
Layer_1
 62
1
100
AcDbSpline
 70
8
 71
3
 72
8
 73
4
 74
0
 40
0
 40
0
 40
0
 40
0
 40
1
 40
1
 40
1
 40
1
 10
53.035819
 20
85.474042
 30
0.0
 10
54.343679
 20
84.932308
 30
0.0
 10
55.849092
 20
85.231753
 30
0.0
 10
56.850085
 20
86.232746
 30
0.0
  0
SPLINE
  5
263
100
AcDbEntity
  8
Layer_1
 62
1
100
AcDbSpline
 70
8
 71
3
 72
8
 73
4
 74
0
 40
0
 40
0
 40
0
 40
0
 40
1
 40
1
 40
1
 40
1
 10
56.850085
 20
86.232746
 30
0.0
 10
57.851078
 20
87.233739
 30
0.0
 10
58.150523
 20
88.739152
 30
0.0
 10
57.608789
 20
90.047012
 30
0.0
  0
SPLINE
  5
264
100
AcDbEntity
  8
Layer_1
 62
1
100
AcDbSpline
 70
8
 71
3
 72
8
 73
4
 74
0
 40
0
 40
0
 40
0
 40
0
 40
1
 40
1
 40
1
 40
1
 10
57.608789
 20
90.047012
 30
0.0
 10
57.067056
 20
91.354872
 30
0.0
 10
55.790829
 20
92.207620
 30
0.0
 10
54.375211
 20
92.207620
 30
0.0
  0
SPLINE
  5
265
100
AcDbEntity
  8
Layer_1
 62
1
100
AcDbSpline
 70
8
 71
3
 72
8
 73
4
 74
0
 40
0
 40
0
 40
0
 40
0
 40
1
 40
1
 40
1
 40
1
 10
54.375211
 20
92.207620
 30
0.0
 10
53.446953
 20
92.207620
 30
0.0
 10
52.556715
 20
91.838871
 30
0.0
 10
51.900337
 20
91.182494
 30
0.0
  0
SPLINE
  5
266
100
AcDbEntity
  8
Layer_1
 62
1
100
AcDbSpline
 70
8
 71
3
 72
8
 73
4
 74
0
 40
0
 40
0
 40
0
 40
0
 40
1
 40
1
 40
1
 40
1
 10
51.900337
 20
91.182494
 30
0.0
 10
51.243960
 20
90.526116
 30
0.0
 10
50.875211
 20
89.635878
 30
0.0
 10
50.875211
 20
88.707620
 30
0.0
  0
LINE
  5
267
100
AcDbEntity
  8
Layer_1
 62
1
100
AcDbLine
 10
50.875211
 20
88.707620
 30
0.0
 11
50.875211
 21
88.707620
 31
0.0
  0
SPLINE
  5
268
100
AcDbEntity
  8
Layer_1
 62
1
100
AcDbSpline
 70
8
 71
3
 72
8
 73
4
 74
0
 40
0
 40
0
 40
0
 40
0
 40
1
 40
1
 40
1
 40
1
 10
63.575208
 20
88.707620
 30
0.0
 10
63.575208
 20
87.292002
 30
0.0
 10
64.427956
 20
86.015775
 30
0.0
 10
65.735816
 20
85.474042
 30
0.0
  0
SPLINE
  5
269
100
AcDbEntity
  8
Layer_1
 62
1
100
AcDbSpline
 70
8
 71
3
 72
8
 73
4
 74
0
 40
0
 40
0
 40
0
 40
0
 40
1
 40
1
 40
1
 40
1
 10
65.735816
 20
85.474042
 30
0.0
 10
67.043676
 20
84.932308
 30
0.0
 10
68.549089
 20
85.231753
 30
0.0
 10
69.550082
 20
86.232746
 30
0.0
  0
SPLINE
  5
26a
100
AcDbEntity
  8
Layer_1
 62
1
100
AcDbSpline
 70
8
 71
3
 72
8
 73
4
 74
0
 40
0
 40
0
 40
0
 40
0
 40
1
 40
1
 40
1
 40
1
 10
69.550082
 20
86.232746
 30
0.0
 10
70.551075
 20
87.233739
 30
0.0
 10
70.850520
 20
88.739152
 30
0.0
 10
70.308786
 20
90.047012
 30
0.0
  0
SPLINE
  5
26b
100
AcDbEntity
  8
Layer_1
 62
1
100
AcDbSpline
 70
8
 71
3
 72
8
 73
4
 74
0
 40
0
 40
0
 40
0
 40
0
 40
1
 40
1
 40
1
 40
1
 10
70.308786
 20
90.047012
 30
0.0
 10
69.767053
 20
91.354872
 30
0.0
 10
68.490826
 20
92.207620
 30
0.0
 10
67.075208
 20
92.207620
 30
0.0
  0
SPLINE
  5
26c
100
AcDbEntity
  8
Layer_1
 62
1
100
AcDbSpline
 70
8
 71
3
 72
8
 73
4
 74
0
 40
0
 40
0
 40
0
 40
0
 40
1
 40
1
 40
1
 40
1
 10
67.075208
 20
92.207620
 30
0.0
 10
66.146950
 20
92.207620
 30
0.0
 10
65.256712
 20
91.838871
 30
0.0
 10
64.600334
 20
91.182494
 30
0.0
  0
SPLINE
  5
26d
100
AcDbEntity
  8
Layer_1
 62
1
100
AcDbSpline
 70
8
 71
3
 72
8
 73
4
 74
0
 40
0
 40
0
 40
0
 40
0
 40
1
 40
1
 40
1
 40
1
 10
64.600334
 20
91.182494
 30
0.0
 10
63.943957
 20
90.526116
 30
0.0
 10
63.575208
 20
89.635878
 30
0.0
 10
63.575208
 20
88.707620
 30
0.0
  0
LINE
  5
26e
100
AcDbEntity
  8
Layer_1
 62
1
100
AcDbLine
 10
63.575208
 20
88.707620
 30
0.0
 11
63.575208
 21
88.707620
 31
0.0
  0
SPLINE
  5
26f
100
AcDbEntity
  8
Layer_1
 62
1
100
AcDbSpline
 70
8
 71
3
 72
8
 73
4
 74
0
 40
0
 40
0
 40
0
 40
0
 40
1
 40
1
 40
1
 40
1
 10
76.275208
 20
88.707620
 30
0.0
 10
76.275208
 20
87.292002
 30
0.0
 10
77.127956
 20
86.015775
 30
0.0
 10
78.435816
 20
85.474042
 30
0.0
  0
SPLINE
  5
270
100
AcDbEntity
  8
Layer_1
 62
1
100
AcDbSpline
 70
8
 71
3
 72
8
 73
4
 74
0
 40
0
 40
0
 40
0
 40
0
 40
1
 40
1
 40
1
 40
1
 10
78.435816
 20
85.474042
 30
0.0
 10
79.743676
 20
84.932308
 30
0.0
 10
81.249089
 20
85.231753
 30
0.0
 10
82.250082
 20
86.232746
 30
0.0
  0
SPLINE
  5
271
100
AcDbEntity
  8
Layer_1
 62
1
100
AcDbSpline
 70
8
 71
3
 72
8
 73
4
 74
0
 40
0
 40
0
 40
0
 40
0
 40
1
 40
1
 40
1
 40
1
 10
82.250082
 20
86.232746
 30
0.0
 10
83.251075
 20
87.233739
 30
0.0
 10
83.550520
 20
88.739152
 30
0.0
 10
83.008786
 20
90.047012
 30
0.0
  0
SPLINE
  5
272
100
AcDbEntity
  8
Layer_1
 62
1
100
AcDbSpline
 70
8
 71
3
 72
8
 73
4
 74
0
 40
0
 40
0
 40
0
 40
0
 40
1
 40
1
 40
1
 40
1
 10
83.008786
 20
90.047012
 30
0.0
 10
82.467053
 20
91.354872
 30
0.0
 10
81.190826
 20
92.207620
 30
0.0
 10
79.775208
 20
92.207620
 30
0.0
  0
SPLINE
  5
273
100
AcDbEntity
  8
Layer_1
 62
1
100
AcDbSpline
 70
8
 71
3
 72
8
 73
4
 74
0
 40
0
 40
0
 40
0
 40
0
 40
1
 40
1
 40
1
 40
1
 10
79.775208
 20
92.207620
 30
0.0
 10
78.846950
 20
92.207620
 30
0.0
 10
77.956712
 20
91.838871
 30
0.0
 10
77.300334
 20
91.182494
 30
0.0
  0
SPLINE
  5
274
100
AcDbEntity
  8
Layer_1
 62
1
100
AcDbSpline
 70
8
 71
3
 72
8
 73
4
 74
0
 40
0
 40
0
 40
0
 40
0
 40
1
 40
1
 40
1
 40
1
 10
77.300334
 20
91.182494
 30
0.0
 10
76.643957
 20
90.526116
 30
0.0
 10
76.275208
 20
89.635878
 30
0.0
 10
76.275208
 20
88.707620
 30
0.0
  0
LINE
  5
275
100
AcDbEntity
  8
Layer_1
 62
1
100
AcDbLine
 10
76.275208
 20
88.707620
 30
0.0
 11
76.275208
 21
88.707620
 31
0.0
  0
SPLINE
  5
276
100
AcDbEntity
  8
Layer_1
 62
1
100
AcDbSpline
 70
8
 71
3
 72
8
 73
4
 74
0
 40
0
 40
0
 40
0
 40
0
 40
1
 40
1
 40
1
 40
1
 10
88.975205
 20
88.707620
 30
0.0
 10
88.975205
 20
87.292002
 30
0.0
 10
89.827953
 20
86.015775
 30
0.0
 10
91.135813
 20
85.474042
 30
0.0
  0
SPLINE
  5
277
100
AcDbEntity
  8
Layer_1
 62
1
100
AcDbSpline
 70
8
 71
3
 72
8
 73
4
 74
0
 40
0
 40
0
 40
0
 40
0
 40
1
 40
1
 40
1
 40
1
 10
91.135813
 20
85.474042
 30
0.0
 10
92.443673
 20
84.932308
 30
0.0
 10
93.949086
 20
85.231753
 30
0.0
 10
94.950079
 20
86.232746
 30
0.0
  0
SPLINE
  5
278
100
AcDbEntity
  8
Layer_1
 62
1
100
AcDbSpline
 70
8
 71
3
 72
8
 73
4
 74
0
 40
0
 40
0
 40
0
 40
0
 40
1
 40
1
 40
1
 40
1
 10
94.950079
 20
86.232746
 30
0.0
 10
95.951072
 20
87.233739
 30
0.0
 10
96.250517
 20
88.739152
 30
0.0
 10
95.708783
 20
90.047012
 30
0.0
  0
SPLINE
  5
279
100
AcDbEntity
  8
Layer_1
 62
1
100
AcDbSpline
 70
8
 71
3
 72
8
 73
4
 74
0
 40
0
 40
0
 40
0
 40
0
 40
1
 40
1
 40
1
 40
1
 10
95.708783
 20
90.047012
 30
0.0
 10
95.167050
 20
91.354872
 30
0.0
 10
93.890823
 20
92.207620
 30
0.0
 10
92.475205
 20
92.207620
 30
0.0
  0
SPLINE
  5
27a
100
AcDbEntity
  8
Layer_1
 62
1
100
AcDbSpline
 70
8
 71
3
 72
8
 73
4
 74
0
 40
0
 40
0
 40
0
 40
0
 40
1
 40
1
 40
1
 40
1
 10
92.475205
 20
92.207620
 30
0.0
 10
91.546947
 20
92.207620
 30
0.0
 10
90.656709
 20
91.838871
 30
0.0
 10
90.000331
 20
91.182494
 30
0.0
  0
SPLINE
  5
27b
100
AcDbEntity
  8
Layer_1
 62
1
100
AcDbSpline
 70
8
 71
3
 72
8
 73
4
 74
0
 40
0
 40
0
 40
0
 40
0
 40
1
 40
1
 40
1
 40
1
 10
90.000331
 20
91.182494
 30
0.0
 10
89.343954
 20
90.526116
 30
0.0
 10
88.975205
 20
89.635878
 30
0.0
 10
88.975205
 20
88.707620
 30
0.0
  0
LINE
  5
27c
100
AcDbEntity
  8
Layer_1
 62
1
100
AcDbLine
 10
88.975205
 20
88.707620
 30
0.0
 11
88.975205
 21
88.707620
 31
0.0
  0
LINE
  5
27d
100
AcDbEntity
  8
Layer_1
 62
6
100
AcDbLine
 10
22.594420
 20
19.350660
 30
0.0
 11
22.594420
 21
82.850660
 31
0.0
  0
LINE
  5
27e
100
AcDbEntity
  8
Layer_1
 62
6
100
AcDbLine
 10
41.634260
 20
19.350660
 30
0.0
 11
41.634260
 21
82.850660
 31
0.0
  0
LINE
  5
27f
100
AcDbEntity
  8
Layer_1
 62
6
100
AcDbLine
 10
54.334260
 20
19.350660
 30
0.0
 11
54.334260
 21
82.850660
 31
0.0
  0
LINE
  5
280
100
AcDbEntity
  8
Layer_1
 62
6
100
AcDbLine
 10
67.034260
 20
19.350660
 30
0.0
 11
67.034260
 21
82.850660
 31
0.0
  0
LINE
  5
281
100
AcDbEntity
  8
Layer_1
 62
6
100
AcDbLine
 10
79.734260
 20
19.350660
 30
0.0
 11
79.734260
 21
82.850660
 31
0.0
  0
LINE
  5
282
100
AcDbEntity
  8
Layer_1
 62
6
100
AcDbLine
 10
92.434260
 20
19.350660
 30
0.0
 11
92.434260
 21
82.850660
 31
0.0
  0
LINE
  5
283
100
AcDbEntity
  8
Layer_1
 62
6
100
AcDbLine
 10
98.784260
 20
19.350660
 30
0.0
 11
22.586800
 21
19.350660
 31
0.0
  0
LINE
  5
284
100
AcDbEntity
  8
Layer_1
 62
6
100
AcDbLine
 10
22.586800
 20
82.850660
 30
0.0
 11
98.784260
 21
82.850660
 31
0.0
  0
LINE
  5
285
100
AcDbEntity
  8
Layer_1
 62
6
100
AcDbLine
 10
98.784260
 20
19.350660
 30
0.0
 11
98.784260
 21
82.850660
 31
0.0
  0
LINE
  5
286
100
AcDbEntity
  8
Layer_1
 62
6
100
AcDbLine
 10
1.147130
 20
41.100350
 30
0.0
 11
1.147130
 21
61.100350
 31
0.0
  0
LINE
  5
287
100
AcDbEntity
  8
Layer_1
 62
6
100
AcDbLine
 10
1.147130
 20
61.100350
 30
0.0
 11
25.147130
 21
61.100350
 31
0.0
  0
LINE
  5
288
100
AcDbEntity
  8
Layer_1
 62
6
100
AcDbLine
 10
25.147130
 20
61.100350
 30
0.0
 11
25.147130
 21
41.100350
 31
0.0
  0
LINE
  5
289
100
AcDbEntity
  8
Layer_1
 62
6
100
AcDbLine
 10
25.147130
 20
41.100350
 30
0.0
 11
1.147130
 21
41.100350
 31
0.0
  0
SPLINE
  5
28a
100
AcDbEntity
  8
Layer_1
 62
3
100
AcDbSpline
 70
8
 71
3
 72
8
 73
4
 74
0
 40
0
 40
0
 40
0
 40
0
 40
1
 40
1
 40
1
 40
1
 10
4.646875
 20
51.100350
 30
0.0
 10
4.646875
 20
50.249059
 30
0.0
 10
5.159680
 20
49.481592
 30
0.0
 10
5.946171
 20
49.155817
 30
0.0
  0
SPLINE
  5
28b
100
AcDbEntity
  8
Layer_1
 62
3
100
AcDbSpline
 70
8
 71
3
 72
8
 73
4
 74
0
 40
0
 40
0
 40
0
 40
0
 40
1
 40
1
 40
1
 40
1
 10
5.946171
 20
49.155817
 30
0.0
 10
6.732661
 20
48.830042
 30
0.0
 10
7.637950
 20
49.010115
 30
0.0
 10
8.239904
 20
49.612069
 30
0.0
  0
SPLINE
  5
28c
100
AcDbEntity
  8
Layer_1
 62
3
100
AcDbSpline
 70
8
 71
3
 72
8
 73
4
 74
0
 40
0
 40
0
 40
0
 40
0
 40
1
 40
1
 40
1
 40
1
 10
8.239904
 20
49.612069
 30
0.0
 10
8.841857
 20
50.214022
 30
0.0
 10
9.021931
 20
51.119312
 30
0.0
 10
8.696156
 20
51.905802
 30
0.0
  0
SPLINE
  5
28d
100
AcDbEntity
  8
Layer_1
 62
3
100
AcDbSpline
 70
8
 71
3
 72
8
 73
4
 74
0
 40
0
 40
0
 40
0
 40
0
 40
1
 40
1
 40
1
 40
1
 10
8.696156
 20
51.905802
 30
0.0
 10
8.370381
 20
52.692292
 30
0.0
 10
7.602913
 20
53.205097
 30
0.0
 10
6.751622
 20
53.205097
 30
0.0
  0
SPLINE
  5
28e
100
AcDbEntity
  8
Layer_1
 62
3
100
AcDbSpline
 70
8
 71
3
 72
8
 73
4
 74
0
 40
0
 40
0
 40
0
 40
0
 40
1
 40
1
 40
1
 40
1
 10
6.751622
 20
53.205097
 30
0.0
 10
6.193409
 20
53.205097
 30
0.0
 10
5.658058
 20
52.983348
 30
0.0
 10
5.263341
 20
52.588631
 30
0.0
  0
SPLINE
  5
28f
100
AcDbEntity
  8
Layer_1
 62
3
100
AcDbSpline
 70
8
 71
3
 72
8
 73
4
 74
0
 40
0
 40
0
 40
0
 40
0
 40
1
 40
1
 40
1
 40
1
 10
5.263341
 20
52.588631
 30
0.0
 10
4.868625
 20
52.193915
 30
0.0
 10
4.646875
 20
51.658564
 30
0.0
 10
4.646875
 20
51.100350
 30
0.0
  0
LINE
  5
290
100
AcDbEntity
  8
Layer_1
 62
3
100
AcDbLine
 10
4.646875
 20
51.100350
 30
0.0
 11
4.646875
 21
51.100350
 31
0.0
  0
SPLINE
  5
291
100
AcDbEntity
  8
Layer_1
 62
1
100
AcDbSpline
 70
8
 71
3
 72
8
 73
4
 74
0
 40
0
 40
0
 40
0
 40
0
 40
1
 40
1
 40
1
 40
1
 10
5.119672
 20
51.100350
 30
0.0
 10
5.119673
 20
50.199049
 30
0.0
 10
5.850321
 20
49.468400
 30
0.0
 10
6.751623
 20
49.468400
 30
0.0
  0
SPLINE
  5
292
100
AcDbEntity
  8
Layer_1
 62
1
100
AcDbSpline
 70
8
 71
3
 72
8
 73
4
 74
0
 40
0
 40
0
 40
0
 40
0
 40
1
 40
1
 40
1
 40
1
 10
6.751623
 20
49.468400
 30
0.0
 10
7.652924
 20
49.468400
 30
0.0
 10
8.383572
 20
50.199049
 30
0.0
 10
8.383572
 20
51.100350
 30
0.0
  0
SPLINE
  5
293
100
AcDbEntity
  8
Layer_1
 62
1
100
AcDbSpline
 70
8
 71
3
 72
8
 73
4
 74
0
 40
0
 40
0
 40
0
 40
0
 40
1
 40
1
 40
1
 40
1
 10
8.383572
 20
51.100350
 30
0.0
 10
8.383572
 20
52.001651
 30
0.0
 10
7.652924
 20
52.732300
 30
0.0
 10
6.751622
 20
52.732300
 30
0.0
  0
SPLINE
  5
294
100
AcDbEntity
  8
Layer_1
 62
1
100
AcDbSpline
 70
8
 71
3
 72
8
 73
4
 74
0
 40
0
 40
0
 40
0
 40
0
 40
1
 40
1
 40
1
 40
1
 10
6.751622
 20
52.732300
 30
0.0
 10
6.318802
 20
52.732300
 30
0.0
 10
5.903710
 20
52.560363
 30
0.0
 10
5.597660
 20
52.254313
 30
0.0
  0
SPLINE
  5
295
100
AcDbEntity
  8
Layer_1
 62
1
100
AcDbSpline
 70
8
 71
3
 72
8
 73
4
 74
0
 40
0
 40
0
 40
0
 40
0
 40
1
 40
1
 40
1
 40
1
 10
5.597660
 20
52.254313
 30
0.0
 10
5.291610
 20
51.948263
 30
0.0
 10
5.119672
 20
51.533170
 30
0.0
 10
5.119672
 20
51.100350
 30
0.0
  0
LINE
  5
296
100
AcDbEntity
  8
Layer_1
 62
1
100
AcDbLine
 10
5.119672
 20
51.100350
 30
0.0
 11
5.119672
 21
51.100350
 31
0.0
  0
LINE
  5
297
100
AcDbEntity
  8
Layer_1
 62
2
100
AcDbLine
 10
-0.377976
 20
95.102910
 30
0.0
 11
107.851184
 21
95.102910
 31
0.0
  0
LINE
  5
298
100
AcDbEntity
  8
Layer_1
 62
2
100
AcDbLine
 10
107.851184
 20
95.102910
 30
0.0
 11
107.851184
 21
5.102910
 31
0.0
  0
LINE
  5
299
100
AcDbEntity
  8
Layer_1
 62
2
100
AcDbLine
 10
107.851184
 20
5.102910
 30
0.0
 11
-0.377976
 21
5.102910
 31
0.0
  0
LINE
  5
29a
100
AcDbEntity
  8
Layer_1
 62
2
100
AcDbLine
 10
-0.377976
 20
5.102910
 30
0.0
 11
-0.377976
 21
95.102910
 31
0.0
  0
SPLINE
  5
29b
100
AcDbEntity
  8
Layer_1
 62
1
100
AcDbSpline
 70
8
 71
3
 72
8
 73
4
 74
0
 40
0
 40
0
 40
0
 40
0
 40
1
 40
1
 40
1
 40
1
 10
14.613834
 20
43.014080
 30
0.0
 10
13.238662
 20
43.014080
 30
0.0
 10
11.998899
 20
42.185697
 30
0.0
 10
11.472644
 20
40.915204
 30
0.0
  0
SPLINE
  5
29c
100
AcDbEntity
  8
Layer_1
 62
1
100
AcDbSpline
 70
8
 71
3
 72
8
 73
4
 74
0
 40
0
 40
0
 40
0
 40
0
 40
1
 40
1
 40
1
 40
1
 10
11.472644
 20
40.915204
 30
0.0
 10
10.946388
 20
39.644711
 30
0.0
 10
11.237278
 20
38.182310
 30
0.0
 10
12.209671
 20
37.209917
 30
0.0
  0
SPLINE
  5
29d
100
AcDbEntity
  8
Layer_1
 62
1
100
AcDbSpline
 70
8
 71
3
 72
8
 73
4
 74
0
 40
0
 40
0
 40
0
 40
0
 40
1
 40
1
 40
1
 40
1
 10
12.209671
 20
37.209917
 30
0.0
 10
13.182064
 20
36.237524
 30
0.0
 10
14.644465
 20
35.946634
 30
0.0
 10
15.914958
 20
36.472890
 30
0.0
  0
SPLINE
  5
29e
100
AcDbEntity
  8
Layer_1
 62
1
100
AcDbSpline
 70
8
 71
3
 72
8
 73
4
 74
0
 40
0
 40
0
 40
0
 40
0
 40
1
 40
1
 40
1
 40
1
 10
15.914958
 20
36.472890
 30
0.0
 10
17.185451
 20
36.999145
 30
0.0
 10
18.013834
 20
38.238908
 30
0.0
 10
18.013834
 20
39.614080
 30
0.0
  0
SPLINE
  5
29f
100
AcDbEntity
  8
Layer_1
 62
1
100
AcDbSpline
 70
8
 71
3
 72
8
 73
4
 74
0
 40
0
 40
0
 40
0
 40
0
 40
1
 40
1
 40
1
 40
1
 10
18.013834
 20
39.614080
 30
0.0
 10
18.013834
 20
40.515816
 30
0.0
 10
17.655621
 20
41.380619
 30
0.0
 10
17.017997
 20
42.018243
 30
0.0
  0
SPLINE
  5
2a0
100
AcDbEntity
  8
Layer_1
 62
1
100
AcDbSpline
 70
8
 71
3
 72
8
 73
4
 74
0
 40
0
 40
0
 40
0
 40
0
 40
1
 40
1
 40
1
 40
1
 10
17.017997
 20
42.018243
 30
0.0
 10
16.380373
 20
42.655867
 30
0.0
 10
15.515570
 20
43.014080
 30
0.0
 10
14.613834
 20
43.014080
 30
0.0
  0
LINE
  5
2a1
100
AcDbEntity
  8
Layer_1
 62
1
100
AcDbLine
 10
14.613834
 20
43.014080
 30
0.0
 11
14.613834
 21
43.014080
 31
0.0
  0
SPLINE
  5
2a2
100
AcDbEntity
  8
Layer_1
 62
1
100
AcDbSpline
 70
8
 71
3
 72
8
 73
4
 74
0
 40
0
 40
0
 40
0
 40
0
 40
1
 40
1
 40
1
 40
1
 10
14.613834
 20
18.014080
 30
0.0
 10
13.238662
 20
18.014080
 30
0.0
 10
11.998899
 20
17.185697
 30
0.0
 10
11.472644
 20
15.915204
 30
0.0
  0
SPLINE
  5
2a3
100
AcDbEntity
  8
Layer_1
 62
1
100
AcDbSpline
 70
8
 71
3
 72
8
 73
4
 74
0
 40
0
 40
0
 40
0
 40
0
 40
1
 40
1
 40
1
 40
1
 10
11.472644
 20
15.915204
 30
0.0
 10
10.946388
 20
14.644711
 30
0.0
 10
11.237278
 20
13.182310
 30
0.0
 10
12.209671
 20
12.209917
 30
0.0
  0
SPLINE
  5
2a4
100
AcDbEntity
  8
Layer_1
 62
1
100
AcDbSpline
 70
8
 71
3
 72
8
 73
4
 74
0
 40
0
 40
0
 40
0
 40
0
 40
1
 40
1
 40
1
 40
1
 10
12.209671
 20
12.209917
 30
0.0
 10
13.182064
 20
11.237524
 30
0.0
 10
14.644465
 20
10.946634
 30
0.0
 10
15.914958
 20
11.472890
 30
0.0
  0
SPLINE
  5
2a5
100
AcDbEntity
  8
Layer_1
 62
1
100
AcDbSpline
 70
8
 71
3
 72
8
 73
4
 74
0
 40
0
 40
0
 40
0
 40
0
 40
1
 40
1
 40
1
 40
1
 10
15.914958
 20
11.472890
 30
0.0
 10
17.185451
 20
11.999145
 30
0.0
 10
18.013834
 20
13.238908
 30
0.0
 10
18.013834
 20
14.614080
 30
0.0
  0
SPLINE
  5
2a6
100
AcDbEntity
  8
Layer_1
 62
1
100
AcDbSpline
 70
8
 71
3
 72
8
 73
4
 74
0
 40
0
 40
0
 40
0
 40
0
 40
1
 40
1
 40
1
 40
1
 10
18.013834
 20
14.614080
 30
0.0
 10
18.013834
 20
15.515816
 30
0.0
 10
17.655621
 20
16.380619
 30
0.0
 10
17.017997
 20
17.018243
 30
0.0
  0
SPLINE
  5
2a7
100
AcDbEntity
  8
Layer_1
 62
1
100
AcDbSpline
 70
8
 71
3
 72
8
 73
4
 74
0
 40
0
 40
0
 40
0
 40
0
 40
1
 40
1
 40
1
 40
1
 10
17.017997
 20
17.018243
 30
0.0
 10
16.380373
 20
17.655867
 30
0.0
 10
15.515570
 20
18.014080
 30
0.0
 10
14.613834
 20
18.014080
 30
0.0
  0
LINE
  5
2a8
100
AcDbEntity
  8
Layer_1
 62
1
100
AcDbLine
 10
14.613834
 20
18.014080
 30
0.0
 11
14.613834
 21
18.014080
 31
0.0
  0
SPLINE
  5
2a9
100
AcDbEntity
  8
Layer_1
 62
1
100
AcDbSpline
 70
8
 71
3
 72
8
 73
4
 74
0
 40
0
 40
0
 40
0
 40
0
 40
1
 40
1
 40
1
 40
1
 10
93.510680
 20
73.232820
 30
0.0
 10
93.955588
 20
73.232820
 30
0.0
 10
94.356688
 20
73.500826
 30
0.0
 10
94.526947
 20
73.911868
 30
0.0
  0
SPLINE
  5
2aa
100
AcDbEntity
  8
Layer_1
 62
1
100
AcDbSpline
 70
8
 71
3
 72
8
 73
4
 74
0
 40
0
 40
0
 40
0
 40
0
 40
1
 40
1
 40
1
 40
1
 10
94.526947
 20
73.911868
 30
0.0
 10
94.697207
 20
74.322910
 30
0.0
 10
94.603095
 20
74.796040
 30
0.0
 10
94.288497
 20
75.110637
 30
0.0
  0
SPLINE
  5
2ab
100
AcDbEntity
  8
Layer_1
 62
1
100
AcDbSpline
 70
8
 71
3
 72
8
 73
4
 74
0
 40
0
 40
0
 40
0
 40
0
 40
1
 40
1
 40
1
 40
1
 10
94.288497
 20
75.110637
 30
0.0
 10
93.973900
 20
75.425235
 30
0.0
 10
93.500770
 20
75.519347
 30
0.0
 10
93.089728
 20
75.349087
 30
0.0
  0
SPLINE
  5
2ac
100
AcDbEntity
  8
Layer_1
 62
1
100
AcDbSpline
 70
8
 71
3
 72
8
 73
4
 74
0
 40
0
 40
0
 40
0
 40
0
 40
1
 40
1
 40
1
 40
1
 10
93.089728
 20
75.349087
 30
0.0
 10
92.678686
 20
75.178828
 30
0.0
 10
92.410680
 20
74.777728
 30
0.0
 10
92.410680
 20
74.332820
 30
0.0
  0
SPLINE
  5
2ad
100
AcDbEntity
  8
Layer_1
 62
1
100
AcDbSpline
 70
8
 71
3
 72
8
 73
4
 74
0
 40
0
 40
0
 40
0
 40
0
 40
1
 40
1
 40
1
 40
1
 10
92.410680
 20
74.332820
 30
0.0
 10
92.410680
 20
73.725307
 30
0.0
 10
92.903167
 20
73.232820
 30
0.0
 10
93.510680
 20
73.232820
 30
0.0
  0
LINE
  5
2ae
100
AcDbEntity
  8
Layer_1
 62
1
100
AcDbLine
 10
93.510680
 20
73.232820
 30
0.0
 11
93.510680
 21
73.232820
 31
0.0
  0
SPLINE
  5
2af
100
AcDbEntity
  8
Layer_1
 62
1
100
AcDbSpline
 70
8
 71
3
 72
8
 73
4
 74
0
 40
0
 40
0
 40
0
 40
0
 40
1
 40
1
 40
1
 40
1
 10
22.510680
 20
73.232820
 30
0.0
 10
22.955588
 20
73.232820
 30
0.0
 10
23.356688
 20
73.500826
 30
0.0
 10
23.526947
 20
73.911868
 30
0.0
  0
SPLINE
  5
2b0
100
AcDbEntity
  8
Layer_1
 62
1
100
AcDbSpline
 70
8
 71
3
 72
8
 73
4
 74
0
 40
0
 40
0
 40
0
 40
0
 40
1
 40
1
 40
1
 40
1
 10
23.526947
 20
73.911868
 30
0.0
 10
23.697207
 20
74.322910
 30
0.0
 10
23.603095
 20
74.796040
 30
0.0
 10
23.288497
 20
75.110637
 30
0.0
  0
SPLINE
  5
2b1
100
AcDbEntity
  8
Layer_1
 62
1
100
AcDbSpline
 70
8
 71
3
 72
8
 73
4
 74
0
 40
0
 40
0
 40
0
 40
0
 40
1
 40
1
 40
1
 40
1
 10
23.288497
 20
75.110637
 30
0.0
 10
22.973900
 20
75.425235
 30
0.0
 10
22.500770
 20
75.519347
 30
0.0
 10
22.089728
 20
75.349087
 30
0.0
  0
SPLINE
  5
2b2
100
AcDbEntity
  8
Layer_1
 62
1
100
AcDbSpline
 70
8
 71
3
 72
8
 73
4
 74
0
 40
0
 40
0
 40
0
 40
0
 40
1
 40
1
 40
1
 40
1
 10
22.089728
 20
75.349087
 30
0.0
 10
21.678686
 20
75.178828
 30
0.0
 10
21.410680
 20
74.777728
 30
0.0
 10
21.410680
 20
74.332820
 30
0.0
  0
SPLINE
  5
2b3
100
AcDbEntity
  8
Layer_1
 62
1
100
AcDbSpline
 70
8
 71
3
 72
8
 73
4
 74
0
 40
0
 40
0
 40
0
 40
0
 40
1
 40
1
 40
1
 40
1
 10
21.410680
 20
74.332820
 30
0.0
 10
21.410680
 20
74.041082
 30
0.0
 10
21.526573
 20
73.761293
 30
0.0
 10
21.732863
 20
73.555003
 30
0.0
  0
SPLINE
  5
2b4
100
AcDbEntity
  8
Layer_1
 62
1
100
AcDbSpline
 70
8
 71
3
 72
8
 73
4
 74
0
 40
0
 40
0
 40
0
 40
0
 40
1
 40
1
 40
1
 40
1
 10
21.732863
 20
73.555003
 30
0.0
 10
21.939153
 20
73.348713
 30
0.0
 10
22.218942
 20
73.232820
 30
0.0
 10
22.510680
 20
73.232820
 30
0.0
  0
LINE
  5
2b5
100
AcDbEntity
  8
Layer_1
 62
1
100
AcDbLine
 10
22.510680
 20
73.232820
 30
0.0
 11
22.510680
 21
73.232820
 31
0.0
  0
LINE
  5
2b6
100
AcDbEntity
  8
Layer_1
 62
6
100
AcDbLine
 10
95.010680
 20
78.882760
 30
0.0
 11
95.010680
 21
69.782761
 31
0.0
  0
LINE
  5
2b7
100
AcDbEntity
  8
Layer_1
 62
6
100
AcDbLine
 10
95.010680
 20
69.782761
 30
0.0
 11
21.010680
 21
69.782761
 31
0.0
  0
LINE
  5
2b8
100
AcDbEntity
  8
Layer_1
 62
6
100
AcDbLine
 10
21.010680
 20
69.782761
 30
0.0
 11
21.010680
 21
78.882760
 31
0.0
  0
LINE
  5
2b9
100
AcDbEntity
  8
Layer_1
 62
6
100
AcDbLine
 10
21.010680
 20
78.882760
 30
0.0
 11
95.010680
 21
78.882760
 31
0.0
  0
LINE
  5
2ba
100
AcDbEntity
  8
Layer_1
 62
3
100
AcDbLine
 10
95.087580
 20
77.249380
 30
0.0
 11
95.087580
 21
71.436268
 31
0.0
  0
LINE
  5
2bb
100
AcDbEntity
  8
Layer_1
 62
3
100
AcDbLine
 10
95.087580
 20
71.436268
 30
0.0
 11
20.920290
 21
71.436268
 31
0.0
  0
LINE
  5
2bc
100
AcDbEntity
  8
Layer_1
 62
3
100
AcDbLine
 10
20.920290
 20
71.436268
 30
0.0
 11
20.920290
 21
77.249380
 31
0.0
  0
LINE
  5
2bd
100
AcDbEntity
  8
Layer_1
 62
3
100
AcDbLine
 10
20.920290
 20
77.249380
 30
0.0
 11
95.087580
 21
77.249380
 31
0.0
  0
LINE
  5
2be
100
AcDbEntity
  8
Layer_1
 62
1
100
AcDbLine
 10
91.510680
 20
73.332760
 30
0.0
 11
24.510680
 21
73.332760
 31
0.0
  0
LINE
  5
2bf
100
AcDbEntity
  8
Layer_1
 62
1
100
AcDbLine
 10
24.510680
 20
73.332760
 30
0.0
 11
24.510680
 21
75.332760
 31
0.0
  0
LINE
  5
2c0
100
AcDbEntity
  8
Layer_1
 62
1
100
AcDbLine
 10
24.510680
 20
75.332760
 30
0.0
 11
91.510680
 21
75.332760
 31
0.0
  0
LINE
  5
2c1
100
AcDbEntity
  8
Layer_1
 62
1
100
AcDbLine
 10
91.510680
 20
75.332760
 30
0.0
 11
91.510680
 21
73.332760
 31
0.0
  0
ENDSEC
  0
SECTION
  2
OBJECTS
  0
DICTIONARY
  5
C
330
0
100
AcDbDictionary
  3
ACAD_GROUP
350
D
  3
ACAD_MLINESTYLE
350
17
  0
DICTIONARY
  5
D
330
C
100
AcDbDictionary
  0
DICTIONARY
  5
1A
330
C
100
AcDbDictionary
  0
DICTIONARY
  5
17
330
C
100
AcDbDictionary
  3
STANDARD
350
18
  0
DICTIONARY
  5
19
330
C
100
AcDbDictionary
  0
ENDSEC
  0
EOF
