  0
SECTION
  2
HEADER
  9
$ACADVER
  1
AC1014
  9
$HANDSEED
  5
FFFF
  9
$MEASUREMENT
 70
     1
  0
ENDSEC
  0
SECTION
  2
TABLES
  0
TABLE
  2
VPORT
  5
8
330
0
100
AcDbSymbolTable
 70
     4
  0
VPORT
  5
2E
330
8
100
AcDbSymbolTableRecord
100
AcDbViewportTableRecord
  2
*ACTIVE
 70
     0
 10
0.0
 20
0.0
 11
1.0
 21
1.0
 12
210.0
 22
148.5
 13
0.0
 23
0.0
 14
10.0
 24
10.0
 15
10.0
 25
10.0
 16
0.0
 26
0.0
 36
1.0
 17
0.0
 27
0.0
 37
0.0
 40
341.0
 41
1.24
 42
50.0
 43
0.0
 44
0.0
 50
0.0
 51
0.0
 71
     0
 72
   100
 73
     1
 74
     3
 75
     0
 76
     0
 77
     0
 78
     0
  0
ENDTAB
  0
TABLE
  2
LTYPE
  5
5
330
0
100
AcDbSymbolTable
 70
     1
  0
LTYPE
  5
14
330
5
100
AcDbSymbolTableRecord
100
AcDbLinetypeTableRecord
  2
BYBLOCK
 70
     0
  3

 72
    65
 73
     0
 40
0.0
  0
LTYPE
  5
15
330
5
100
AcDbSymbolTableRecord
100
AcDbLinetypeTableRecord
  2
BYLAYER
 70
     0
  3

 72
    65
 73
     0
 40
0.0
  0
LTYPE
  5
16
330
5
100
AcDbSymbolTableRecord
100
AcDbLinetypeTableRecord
  2
CONTINUOUS
 70
     0
  3
Solid line
 72
    65
 73
     0
 40
0.0
  0
ENDTAB
  0
TABLE
  2
LAYER
  5
2
100
AcDbSymbolTable
 70
2
  0
LAYER
  5
50
100
AcDbSymbolTableRecord
100
AcDbLayerTableRecord
  2
0
 70
0
  6
CONTINUOUS
  0
LAYER
  5
51
100
AcDbSymbolTableRecord
100
AcDbLayerTableRecord
  2
Layer_1
 70
0
  6
CONTINUOUS
  0
ENDTAB
  0
TABLE
  2
STYLE
  5
3
330
0
100
AcDbSymbolTable
 70
     1
  0
STYLE
  5
11
330
3
100
AcDbSymbolTableRecord
100
AcDbTextStyleTableRecord
  2
STANDARD
 70
     0
 40
0.0
 41
1.0
 50
0.0
 71
     0
 42
2.5
  3
txt
  4

  0
ENDTAB
  0
TABLE
  2
VIEW
  5
6
330
0
100
AcDbSymbolTable
 70
     0
  0
ENDTAB
  0
TABLE
  2
UCS
  5
7
330
0
100
AcDbSymbolTable
 70
     0
  0
ENDTAB
  0
TABLE
  2
APPID
  5
9
330
0
100
AcDbSymbolTable
 70
     2
  0
APPID
  5
12
330
9
100
AcDbSymbolTableRecord
100
AcDbRegAppTableRecord
  2
ACAD
 70
     0
  0
ENDTAB
  0
TABLE
  2
DIMSTYLE
  5
A
330
0
100
AcDbSymbolTable
 70
     1
  0
DIMSTYLE
105
27
330
A
100
AcDbSymbolTableRecord
100
AcDbDimStyleTableRecord
  2
ISO-25
 70
     0
  3

  4

  5

  6

  7

 40
1.0
 41
2.5
 42
0.625
 43
3.75
 44
1.25
 45
0.0
 46
0.0
 47
0.0
 48
0.0
140
2.5
141
2.5
142
0.0
143
0.03937007874016
144
1.0
145
0.0
146
1.0
147
0.625
 71
     0
 72
     0
 73
     0
 74
     0
 75
     0
 76
     0
 77
     1
 78
     8
170
     0
171
     3
172
     1
173
     0
174
     0
175
     0
176
     0
177
     0
178
     0
270
     2
271
     2
272
     2
273
     2
274
     3
340
11
275
     0
280
     0
281
     0
282
     0
283
     0
284
     8
285
     0
286
     0
287
     3
288
     0
  0
ENDTAB
  0
TABLE
  2
BLOCK_RECORD
  5
1
330
0
100
AcDbSymbolTable
 70
     1
  0
BLOCK_RECORD
  5
1F
330
1
100
AcDbSymbolTableRecord
100
AcDbBlockTableRecord
  2
*MODEL_SPACE
  0
BLOCK_RECORD
  5
1B
330
1
100
AcDbSymbolTableRecord
100
AcDbBlockTableRecord
  2
*PAPER_SPACE
  0
ENDTAB
  0
ENDSEC
  0
SECTION
  2
BLOCKS
  0
BLOCK
  5
20
330
1F
100
AcDbEntity
  8
0
100
AcDbBlockBegin
  2
*MODEL_SPACE
 70
     0
 10
0.0
 20
0.0
 30
0.0
  3
*MODEL_SPACE
  1

  0
ENDBLK
  5
21
330
1F
100
AcDbEntity
  8
0
100
AcDbBlockEnd
  0
BLOCK
  5
1C
330
1B
100
AcDbEntity
 67
     1
  8
0
100
AcDbBlockBegin
  2
*PAPER_SPACE
  1

  0
ENDBLK
  5
1D
330
1B
100
AcDbEntity
 67
     1
  8
0
100
AcDbBlockEnd
  0
ENDSEC
  0
SECTION
  2
ENTITIES
  0
LINE
  5
100
100
AcDbEntity
  8
Layer_1
 62
7
100
AcDbLine
 10
31.430190
 20
178.833720
 30
0.0
 11
31.430190
 21
178.188970
 31
0.0
  0
SPLINE
  5
101
100
AcDbEntity
  8
Layer_1
 62
7
100
AcDbSpline
 70
8
 71
3
 72
8
 73
4
 74
0
 40
0
 40
0
 40
0
 40
0
 40
1
 40
1
 40
1
 40
1
 10
31.430190
 20
178.188970
 30
0.0
 10
30.980717
 20
178.409337
 30
0.0
 10
30.567247
 20
178.519520
 30
0.0
 10
30.189780
 20
178.519520
 30
0.0
  0
SPLINE
  5
102
100
AcDbEntity
  8
Layer_1
 62
7
100
AcDbSpline
 70
8
 71
3
 72
8
 73
4
 74
0
 40
0
 40
0
 40
0
 40
0
 40
1
 40
1
 40
1
 40
1
 10
30.189780
 20
178.519520
 30
0.0
 10
29.705400
 20
178.519520
 30
0.0
 10
29.297387
 20
178.362423
 30
0.0
 10
28.965740
 20
178.048230
 30
0.0
  0
SPLINE
  5
103
100
AcDbEntity
  8
Layer_1
 62
7
100
AcDbSpline
 70
8
 71
3
 72
8
 73
4
 74
0
 40
0
 40
0
 40
0
 40
0
 40
1
 40
1
 40
1
 40
1
 10
28.965740
 20
178.048230
 30
0.0
 10
28.634093
 20
177.736223
 30
0.0
 10
28.468270
 20
177.352210
 30
0.0
 10
28.468270
 20
176.896190
 30
0.0
  0
SPLINE
  5
104
100
AcDbEntity
  8
Layer_1
 62
7
100
AcDbSpline
 70
8
 71
3
 72
8
 73
4
 74
0
 40
0
 40
0
 40
0
 40
0
 40
1
 40
1
 40
1
 40
1
 10
28.468270
 20
176.896190
 30
0.0
 10
28.468270
 20
176.431450
 30
0.0
 10
28.637367
 20
176.043073
 30
0.0
 10
28.975560
 20
175.731060
 30
0.0
  0
SPLINE
  5
105
100
AcDbEntity
  8
Layer_1
 62
7
100
AcDbSpline
 70
8
 71
3
 72
8
 73
4
 74
0
 40
0
 40
0
 40
0
 40
0
 40
1
 40
1
 40
1
 40
1
 10
28.975560
 20
175.731060
 30
0.0
 10
29.315933
 20
175.421233
 30
0.0
 10
29.741403
 20
175.266320
 30
0.0
 10
30.251970
 20
175.266320
 30
0.0
  0
SPLINE
  5
106
100
AcDbEntity
  8
Layer_1
 62
7
100
AcDbSpline
 70
8
 71
3
 72
8
 73
4
 74
0
 40
0
 40
0
 40
0
 40
0
 40
1
 40
1
 40
1
 40
1
 10
30.251970
 20
175.266320
 30
0.0
 10
30.622890
 20
175.266320
 30
0.0
 10
31.015630
 20
175.383050
 30
0.0
 10
31.430190
 20
175.616510
 30
0.0
  0
LINE
  5
107
100
AcDbEntity
  8
Layer_1
 62
7
100
AcDbLine
 10
31.430190
 20
175.616510
 30
0.0
 11
31.430190
 21
174.965220
 31
0.0
  0
SPLINE
  5
108
100
AcDbEntity
  8
Layer_1
 62
7
100
AcDbSpline
 70
8
 71
3
 72
8
 73
4
 74
0
 40
0
 40
0
 40
0
 40
0
 40
1
 40
1
 40
1
 40
1
 10
31.430190
 20
174.965220
 30
0.0
 10
31.052723
 20
174.764487
 30
0.0
 10
30.643617
 20
174.664120
 30
0.0
 10
30.202870
 20
174.664120
 30
0.0
  0
SPLINE
  5
109
100
AcDbEntity
  8
Layer_1
 62
7
100
AcDbSpline
 70
8
 71
3
 72
8
 73
4
 74
0
 40
0
 40
0
 40
0
 40
0
 40
1
 40
1
 40
1
 40
1
 10
30.202870
 20
174.664120
 30
0.0
 10
29.557030
 20
174.664120
 30
0.0
 10
29.005013
 20
174.882310
 30
0.0
 10
28.546820
 20
175.318690
 30
0.0
  0
SPLINE
  5
10a
100
AcDbEntity
  8
Layer_1
 62
7
100
AcDbSpline
 70
8
 71
3
 72
8
 73
4
 74
0
 40
0
 40
0
 40
0
 40
0
 40
1
 40
1
 40
1
 40
1
 10
28.546820
 20
175.318690
 30
0.0
 10
28.088620
 20
175.757250
 30
0.0
 10
27.859520
 20
176.285267
 30
0.0
 10
27.859520
 20
176.902740
 30
0.0
  0
SPLINE
  5
10b
100
AcDbEntity
  8
Layer_1
 62
7
100
AcDbSpline
 70
8
 71
3
 72
8
 73
4
 74
0
 40
0
 40
0
 40
0
 40
0
 40
1
 40
1
 40
1
 40
1
 10
27.859520
 20
176.902740
 30
0.0
 10
27.859520
 20
177.509307
 30
0.0
 10
28.084257
 20
178.028597
 30
0.0
 10
28.533730
 20
178.460610
 30
0.0
  0
SPLINE
  5
10c
100
AcDbEntity
  8
Layer_1
 62
7
100
AcDbSpline
 70
8
 71
3
 72
8
 73
4
 74
0
 40
0
 40
0
 40
0
 40
0
 40
1
 40
1
 40
1
 40
1
 10
28.533730
 20
178.460610
 30
0.0
 10
28.985377
 20
178.892623
 30
0.0
 10
29.528667
 20
179.108630
 30
0.0
 10
30.163600
 20
179.108630
 30
0.0
  0
SPLINE
  5
10d
100
AcDbEntity
  8
Layer_1
 62
7
100
AcDbSpline
 70
8
 71
3
 72
8
 73
4
 74
0
 40
0
 40
0
 40
0
 40
0
 40
1
 40
1
 40
1
 40
1
 10
30.163600
 20
179.108630
 30
0.0
 10
30.571613
 20
179.108630
 30
0.0
 10
30.993810
 20
179.016993
 30
0.0
 10
31.430190
 20
178.833720
 30
0.0
  0
LINE
  5
10e
100
AcDbEntity
  8
Layer_1
 62
7
100
AcDbLine
 10
31.430190
 20
178.833720
 30
0.0
 11
31.430190
 21
178.833720
 31
0.0
  0
LINE
  5
10f
100
AcDbEntity
  8
Layer_1
 62
7
100
AcDbLine
 10
33.658990
 20
179.134820
 30
0.0
 11
35.629240
 21
174.804850
 31
0.0
  0
LINE
  5
110
100
AcDbEntity
  8
Layer_1
 62
7
100
AcDbLine
 10
35.629240
 20
174.804850
 30
0.0
 11
35.033590
 21
174.804850
 31
0.0
  0
LINE
  5
111
100
AcDbEntity
  8
Layer_1
 62
7
100
AcDbLine
 10
35.033590
 20
174.804850
 30
0.0
 11
34.545930
 21
175.871800
 31
0.0
  0
LINE
  5
112
100
AcDbEntity
  8
Layer_1
 62
7
100
AcDbLine
 10
34.545930
 20
175.871800
 30
0.0
 11
32.775330
 21
175.871800
 31
0.0
  0
LINE
  5
113
100
AcDbEntity
  8
Layer_1
 62
7
100
AcDbLine
 10
32.775330
 20
175.871800
 30
0.0
 11
32.300770
 21
174.804850
 31
0.0
  0
LINE
  5
114
100
AcDbEntity
  8
Layer_1
 62
7
100
AcDbLine
 10
32.300770
 20
174.804850
 30
0.0
 11
31.708380
 21
174.804850
 31
0.0
  0
LINE
  5
115
100
AcDbEntity
  8
Layer_1
 62
7
100
AcDbLine
 10
31.708380
 20
174.804850
 30
0.0
 11
33.658990
 21
179.134820
 31
0.0
  0
LINE
  5
116
100
AcDbEntity
  8
Layer_1
 62
7
100
AcDbLine
 10
33.658990
 20
177.828950
 30
0.0
 11
32.988060
 21
176.346360
 31
0.0
  0
LINE
  5
117
100
AcDbEntity
  8
Layer_1
 62
7
100
AcDbLine
 10
32.988060
 20
176.346360
 30
0.0
 11
34.329930
 21
176.346360
 31
0.0
  0
LINE
  5
118
100
AcDbEntity
  8
Layer_1
 62
7
100
AcDbLine
 10
34.329930
 20
176.346360
 30
0.0
 11
33.658990
 21
177.828950
 31
0.0
  0
LINE
  5
119
100
AcDbEntity
  8
Layer_1
 62
7
100
AcDbLine
 10
39.589380
 20
179.147910
 30
0.0
 11
40.728330
 21
174.804850
 31
0.0
  0
LINE
  5
11a
100
AcDbEntity
  8
Layer_1
 62
7
100
AcDbLine
 10
40.728330
 20
174.804850
 30
0.0
 11
40.171950
 21
174.804850
 31
0.0
  0
LINE
  5
11b
100
AcDbEntity
  8
Layer_1
 62
7
100
AcDbLine
 10
40.171950
 20
174.804850
 30
0.0
 11
39.481380
 21
177.459120
 31
0.0
  0
LINE
  5
11c
100
AcDbEntity
  8
Layer_1
 62
7
100
AcDbLine
 10
39.481380
 20
177.459120
 30
0.0
 11
38.293340
 21
174.644480
 31
0.0
  0
LINE
  5
11d
100
AcDbEntity
  8
Layer_1
 62
7
100
AcDbLine
 10
38.293340
 20
174.644480
 30
0.0
 11
37.102020
 21
177.478760
 31
0.0
  0
LINE
  5
11e
100
AcDbEntity
  8
Layer_1
 62
7
100
AcDbLine
 10
37.102020
 20
177.478760
 30
0.0
 11
36.404910
 21
174.804850
 31
0.0
  0
LINE
  5
11f
100
AcDbEntity
  8
Layer_1
 62
7
100
AcDbLine
 10
36.404910
 20
174.804850
 30
0.0
 11
35.848520
 21
174.804850
 31
0.0
  0
LINE
  5
120
100
AcDbEntity
  8
Layer_1
 62
7
100
AcDbLine
 10
35.848520
 20
174.804850
 30
0.0
 11
36.987470
 21
179.147910
 31
0.0
  0
LINE
  5
121
100
AcDbEntity
  8
Layer_1
 62
7
100
AcDbLine
 10
36.987470
 20
179.147910
 30
0.0
 11
38.293340
 21
176.038710
 31
0.0
  0
LINE
  5
122
100
AcDbEntity
  8
Layer_1
 62
7
100
AcDbLine
 10
38.293340
 20
176.038710
 30
0.0
 11
39.589380
 21
179.147910
 31
0.0
  0
LINE
  5
123
100
AcDbEntity
  8
Layer_1
 62
7
100
AcDbLine
 10
41.274890
 20
178.974450
 30
0.0
 11
43.585520
 21
178.974450
 31
0.0
  0
LINE
  5
124
100
AcDbEntity
  8
Layer_1
 62
7
100
AcDbLine
 10
43.585520
 20
178.974450
 30
0.0
 11
43.585520
 21
178.404970
 31
0.0
  0
LINE
  5
125
100
AcDbEntity
  8
Layer_1
 62
7
100
AcDbLine
 10
43.585520
 20
178.404970
 30
0.0
 11
41.837820
 21
178.404970
 31
0.0
  0
LINE
  5
126
100
AcDbEntity
  8
Layer_1
 62
7
100
AcDbLine
 10
41.837820
 20
178.404970
 30
0.0
 11
41.837820
 21
177.364210
 31
0.0
  0
LINE
  5
127
100
AcDbEntity
  8
Layer_1
 62
7
100
AcDbLine
 10
41.837820
 20
177.364210
 30
0.0
 11
43.585520
 21
177.364210
 31
0.0
  0
LINE
  5
128
100
AcDbEntity
  8
Layer_1
 62
7
100
AcDbLine
 10
43.585520
 20
177.364210
 30
0.0
 11
43.585520
 21
176.801280
 31
0.0
  0
LINE
  5
129
100
AcDbEntity
  8
Layer_1
 62
7
100
AcDbLine
 10
43.585520
 20
176.801280
 30
0.0
 11
41.837820
 21
176.801280
 31
0.0
  0
LINE
  5
12a
100
AcDbEntity
  8
Layer_1
 62
7
100
AcDbLine
 10
41.837820
 20
176.801280
 30
0.0
 11
41.837820
 21
175.367780
 31
0.0
  0
LINE
  5
12b
100
AcDbEntity
  8
Layer_1
 62
7
100
AcDbLine
 10
41.837820
 20
175.367780
 30
0.0
 11
43.585520
 21
175.367780
 31
0.0
  0
LINE
  5
12c
100
AcDbEntity
  8
Layer_1
 62
7
100
AcDbLine
 10
43.585520
 20
175.367780
 30
0.0
 11
43.585520
 21
174.804850
 31
0.0
  0
LINE
  5
12d
100
AcDbEntity
  8
Layer_1
 62
7
100
AcDbLine
 10
43.585520
 20
174.804850
 30
0.0
 11
41.274890
 21
174.804850
 31
0.0
  0
LINE
  5
12e
100
AcDbEntity
  8
Layer_1
 62
7
100
AcDbLine
 10
41.274890
 20
174.804850
 30
0.0
 11
41.274890
 21
178.974450
 31
0.0
  0
LINE
  5
12f
100
AcDbEntity
  8
Layer_1
 62
7
100
AcDbLine
 10
44.341546
 20
178.974450
 30
0.0
 11
45.244850
 21
178.974450
 31
0.0
  0
SPLINE
  5
130
100
AcDbEntity
  8
Layer_1
 62
7
100
AcDbSpline
 70
8
 71
3
 72
8
 73
4
 74
0
 40
0
 40
0
 40
0
 40
0
 40
1
 40
1
 40
1
 40
1
 10
45.244850
 20
178.974450
 30
0.0
 10
45.694320
 20
178.974450
 30
0.0
 10
46.059787
 20
178.862083
 30
0.0
 10
46.341251
 20
178.637350
 30
0.0
  0
SPLINE
  5
131
100
AcDbEntity
  8
Layer_1
 62
7
100
AcDbSpline
 70
8
 71
3
 72
8
 73
4
 74
0
 40
0
 40
0
 40
0
 40
0
 40
1
 40
1
 40
1
 40
1
 10
46.341251
 20
178.637350
 30
0.0
 10
46.624898
 20
178.414797
 30
0.0
 10
46.766721
 20
178.128967
 30
0.0
 10
46.766721
 20
177.779860
 30
0.0
  0
SPLINE
  5
132
100
AcDbEntity
  8
Layer_1
 62
7
100
AcDbSpline
 70
8
 71
3
 72
8
 73
4
 74
0
 40
0
 40
0
 40
0
 40
0
 40
1
 40
1
 40
1
 40
1
 10
46.766721
 20
177.779860
 30
0.0
 10
46.766721
 20
177.500580
 30
0.0
 10
46.675081
 20
177.254027
 30
0.0
 10
46.491802
 20
177.040200
 30
0.0
  0
SPLINE
  5
133
100
AcDbEntity
  8
Layer_1
 62
7
100
AcDbSpline
 70
8
 71
3
 72
8
 73
4
 74
0
 40
0
 40
0
 40
0
 40
0
 40
1
 40
1
 40
1
 40
1
 10
46.491802
 20
177.040200
 30
0.0
 10
46.308523
 20
176.826373
 30
0.0
 10
46.022695
 20
176.675823
 30
0.0
 10
45.634318
 20
176.588550
 30
0.0
  0
LINE
  5
134
100
AcDbEntity
  8
Layer_1
 62
7
100
AcDbLine
 10
45.634318
 20
176.588550
 30
0.0
 11
46.848542
 21
174.804850
 31
0.0
  0
LINE
  5
135
100
AcDbEntity
  8
Layer_1
 62
7
100
AcDbLine
 10
46.848542
 20
174.804850
 30
0.0
 11
46.197246
 21
174.804850
 31
0.0
  0
LINE
  5
136
100
AcDbEntity
  8
Layer_1
 62
7
100
AcDbLine
 10
46.197246
 20
174.804850
 30
0.0
 11
45.038661
 21
176.519820
 31
0.0
  0
LINE
  5
137
100
AcDbEntity
  8
Layer_1
 62
7
100
AcDbLine
 10
45.038661
 20
176.519820
 30
0.0
 11
44.911020
 21
176.519820
 31
0.0
  0
LINE
  5
138
100
AcDbEntity
  8
Layer_1
 62
7
100
AcDbLine
 10
44.911020
 20
176.519820
 30
0.0
 11
44.911020
 21
174.804850
 31
0.0
  0
LINE
  5
139
100
AcDbEntity
  8
Layer_1
 62
7
100
AcDbLine
 10
44.911020
 20
174.804850
 30
0.0
 11
44.341546
 21
174.804850
 31
0.0
  0
LINE
  5
13a
100
AcDbEntity
  8
Layer_1
 62
7
100
AcDbLine
 10
44.341546
 20
174.804850
 30
0.0
 11
44.341546
 21
178.974450
 31
0.0
  0
LINE
  5
13b
100
AcDbEntity
  8
Layer_1
 62
7
100
AcDbLine
 10
44.911020
 20
178.470430
 30
0.0
 11
44.911020
 21
177.017290
 31
0.0
  0
SPLINE
  5
13c
100
AcDbEntity
  8
Layer_1
 62
7
100
AcDbSpline
 70
8
 71
3
 72
8
 73
4
 74
0
 40
0
 40
0
 40
0
 40
0
 40
1
 40
1
 40
1
 40
1
 10
44.911020
 20
177.017290
 30
0.0
 10
45.751049
 20
176.999823
 30
0.0
 10
46.171064
 20
177.243103
 30
0.0
 10
46.171064
 20
177.747130
 30
0.0
  0
SPLINE
  5
13d
100
AcDbEntity
  8
Layer_1
 62
7
100
AcDbSpline
 70
8
 71
3
 72
8
 73
4
 74
0
 40
0
 40
0
 40
0
 40
0
 40
1
 40
1
 40
1
 40
1
 10
46.171064
 20
177.747130
 30
0.0
 10
46.171064
 20
177.923863
 30
0.0
 10
46.121971
 20
178.067870
 30
0.0
 10
46.023786
 20
178.179150
 30
0.0
  0
SPLINE
  5
13e
100
AcDbEntity
  8
Layer_1
 62
7
100
AcDbSpline
 70
8
 71
3
 72
8
 73
4
 74
0
 40
0
 40
0
 40
0
 40
0
 40
1
 40
1
 40
1
 40
1
 10
46.023786
 20
178.179150
 30
0.0
 10
45.925601
 20
178.292610
 30
0.0
 10
45.794687
 20
178.368977
 30
0.0
 10
45.631045
 20
178.408250
 30
0.0
  0
SPLINE
  5
13f
100
AcDbEntity
  8
Layer_1
 62
7
100
AcDbSpline
 70
8
 71
3
 72
8
 73
4
 74
0
 40
0
 40
0
 40
0
 40
0
 40
1
 40
1
 40
1
 40
1
 10
45.631045
 20
178.408250
 30
0.0
 10
45.467403
 20
178.449717
 30
0.0
 10
45.227395
 20
178.470450
 30
0.0
 10
44.911020
 20
178.470450
 30
0.0
  0
LINE
  5
140
100
AcDbEntity
  8
Layer_1
 62
7
100
AcDbLine
 10
44.911020
 20
178.470450
 30
0.0
 11
44.911020
 21
178.470430
 31
0.0
  0
LINE
  5
141
100
AcDbEntity
  8
Layer_1
 62
7
100
AcDbLine
 10
49.159167
 20
179.134820
 30
0.0
 11
51.129417
 21
174.804850
 31
0.0
  0
LINE
  5
142
100
AcDbEntity
  8
Layer_1
 62
7
100
AcDbLine
 10
51.129417
 20
174.804850
 30
0.0
 11
50.533760
 21
174.804850
 31
0.0
  0
LINE
  5
143
100
AcDbEntity
  8
Layer_1
 62
7
100
AcDbLine
 10
50.533760
 20
174.804850
 30
0.0
 11
50.046107
 21
175.871800
 31
0.0
  0
LINE
  5
144
100
AcDbEntity
  8
Layer_1
 62
7
100
AcDbLine
 10
50.046107
 20
175.871800
 30
0.0
 11
48.275500
 21
175.871800
 31
0.0
  0
LINE
  5
145
100
AcDbEntity
  8
Layer_1
 62
7
100
AcDbLine
 10
48.275500
 20
175.871800
 30
0.0
 11
47.800938
 21
174.804850
 31
0.0
  0
LINE
  5
146
100
AcDbEntity
  8
Layer_1
 62
7
100
AcDbLine
 10
47.800938
 20
174.804850
 30
0.0
 11
47.208554
 21
174.804850
 31
0.0
  0
LINE
  5
147
100
AcDbEntity
  8
Layer_1
 62
7
100
AcDbLine
 10
47.208554
 20
174.804850
 30
0.0
 11
49.159167
 21
179.134820
 31
0.0
  0
LINE
  5
148
100
AcDbEntity
  8
Layer_1
 62
7
100
AcDbLine
 10
49.159167
 20
177.828950
 30
0.0
 11
48.488235
 21
176.346360
 31
0.0
  0
LINE
  5
149
100
AcDbEntity
  8
Layer_1
 62
7
100
AcDbLine
 10
48.488235
 20
176.346360
 30
0.0
 11
49.830100
 21
176.346360
 31
0.0
  0
LINE
  5
14a
100
AcDbEntity
  8
Layer_1
 62
7
100
AcDbLine
 10
49.830100
 20
176.346360
 30
0.0
 11
49.159167
 21
177.828950
 31
0.0
  0
LINE
  5
14b
100
AcDbEntity
  8
Layer_1
 62
7
100
AcDbLine
 10
18.942480
 20
183.872580
 30
0.0
 11
19.559840
 21
183.872580
 31
0.0
  0
SPLINE
  5
14c
100
AcDbEntity
  8
Layer_1
 62
7
100
AcDbSpline
 70
8
 71
3
 72
8
 73
4
 74
0
 40
0
 40
0
 40
0
 40
0
 40
1
 40
1
 40
1
 40
1
 10
19.559840
 20
183.872580
 30
0.0
 10
19.908713
 20
183.872580
 30
0.0
 10
20.190063
 20
183.790587
 30
0.0
 10
20.403890
 20
183.626600
 30
0.0
  0
SPLINE
  5
14d
100
AcDbEntity
  8
Layer_1
 62
7
100
AcDbSpline
 70
8
 71
3
 72
8
 73
4
 74
0
 40
0
 40
0
 40
0
 40
0
 40
1
 40
1
 40
1
 40
1
 10
20.403890
 20
183.626600
 30
0.0
 10
20.617717
 20
183.462613
 30
0.0
 10
20.724630
 20
183.249590
 30
0.0
 10
20.724630
 20
182.987530
 30
0.0
  0
SPLINE
  5
14e
100
AcDbEntity
  8
Layer_1
 62
7
100
AcDbSpline
 70
8
 71
3
 72
8
 73
4
 74
0
 40
0
 40
0
 40
0
 40
0
 40
1
 40
1
 40
1
 40
1
 10
20.724630
 20
182.987530
 30
0.0
 10
20.724630
 20
182.723870
 30
0.0
 10
20.611287
 20
182.502810
 30
0.0
 10
20.384600
 20
182.324350
 30
0.0
  0
SPLINE
  5
14f
100
AcDbEntity
  8
Layer_1
 62
7
100
AcDbSpline
 70
8
 71
3
 72
8
 73
4
 74
0
 40
0
 40
0
 40
0
 40
0
 40
1
 40
1
 40
1
 40
1
 10
20.384600
 20
182.324350
 30
0.0
 10
20.159520
 20
182.145897
 30
0.0
 10
19.817077
 20
182.059080
 30
0.0
 10
19.357270
 20
182.063900
 30
0.0
  0
LINE
  5
150
100
AcDbEntity
  8
Layer_1
 62
7
100
AcDbLine
 10
19.357270
 20
182.063900
 30
0.0
 11
19.357270
 21
180.800240
 31
0.0
  0
LINE
  5
151
100
AcDbEntity
  8
Layer_1
 62
7
100
AcDbLine
 10
19.357270
 20
180.800240
 30
0.0
 11
18.942480
 21
180.800240
 31
0.0
  0
LINE
  5
152
100
AcDbEntity
  8
Layer_1
 62
7
100
AcDbLine
 10
18.942480
 20
180.800240
 30
0.0
 11
18.942480
 21
183.872580
 31
0.0
  0
LINE
  5
153
100
AcDbEntity
  8
Layer_1
 62
7
100
AcDbLine
 10
19.357270
 20
183.506020
 30
0.0
 11
19.357270
 21
182.430460
 31
0.0
  0
SPLINE
  5
154
100
AcDbEntity
  8
Layer_1
 62
7
100
AcDbSpline
 70
8
 71
3
 72
8
 73
4
 74
0
 40
0
 40
0
 40
0
 40
0
 40
1
 40
1
 40
1
 40
1
 10
19.357270
 20
182.430460
 30
0.0
 10
19.672383
 20
182.433793
 30
0.0
 10
19.905503
 20
182.478007
 30
0.0
 10
20.056630
 20
182.563100
 30
0.0
  0
SPLINE
  5
155
100
AcDbEntity
  8
Layer_1
 62
7
100
AcDbSpline
 70
8
 71
3
 72
8
 73
4
 74
0
 40
0
 40
0
 40
0
 40
0
 40
1
 40
1
 40
1
 40
1
 10
20.056630
 20
182.563100
 30
0.0
 10
20.209357
 20
182.649913
 30
0.0
 10
20.285720
 20
182.788177
 30
0.0
 10
20.285720
 20
182.977890
 30
0.0
  0
SPLINE
  5
156
100
AcDbEntity
  8
Layer_1
 62
7
100
AcDbSpline
 70
8
 71
3
 72
8
 73
4
 74
0
 40
0
 40
0
 40
0
 40
0
 40
1
 40
1
 40
1
 40
1
 10
20.285720
 20
182.977890
 30
0.0
 10
20.285720
 20
183.120977
 30
0.0
 10
20.227843
 20
183.244770
 30
0.0
 10
20.112090
 20
183.349270
 30
0.0
  0
SPLINE
  5
157
100
AcDbEntity
  8
Layer_1
 62
7
100
AcDbSpline
 70
8
 71
3
 72
8
 73
4
 74
0
 40
0
 40
0
 40
0
 40
0
 40
1
 40
1
 40
1
 40
1
 10
20.112090
 20
183.349270
 30
0.0
 10
19.997943
 20
183.453770
 30
0.0
 10
19.746337
 20
183.506020
 30
0.0
 10
19.357270
 20
183.506020
 30
0.0
  0
LINE
  5
158
100
AcDbEntity
  8
Layer_1
 62
7
100
AcDbLine
 10
19.357270
 20
183.506020
 30
0.0
 11
19.357270
 21
183.506020
 31
0.0
  0
LINE
  5
159
100
AcDbEntity
  8
Layer_1
 62
7
100
AcDbLine
 10
22.067870
 20
183.990740
 30
0.0
 11
23.519640
 21
180.800240
 31
0.0
  0
LINE
  5
15a
100
AcDbEntity
  8
Layer_1
 62
7
100
AcDbLine
 10
23.519640
 20
180.800240
 30
0.0
 11
23.080730
 21
180.800240
 31
0.0
  0
LINE
  5
15b
100
AcDbEntity
  8
Layer_1
 62
7
100
AcDbLine
 10
23.080730
 20
180.800240
 30
0.0
 11
22.721410
 21
181.586410
 31
0.0
  0
LINE
  5
15c
100
AcDbEntity
  8
Layer_1
 62
7
100
AcDbLine
 10
22.721410
 20
181.586410
 30
0.0
 11
21.416750
 21
181.586410
 31
0.0
  0
LINE
  5
15d
100
AcDbEntity
  8
Layer_1
 62
7
100
AcDbLine
 10
21.416750
 20
181.586410
 30
0.0
 11
21.067070
 21
180.800240
 31
0.0
  0
LINE
  5
15e
100
AcDbEntity
  8
Layer_1
 62
7
100
AcDbLine
 10
21.067070
 20
180.800240
 30
0.0
 11
20.630580
 21
180.800240
 31
0.0
  0
LINE
  5
15f
100
AcDbEntity
  8
Layer_1
 62
7
100
AcDbLine
 10
20.630580
 20
180.800240
 30
0.0
 11
22.067870
 21
183.990740
 31
0.0
  0
LINE
  5
160
100
AcDbEntity
  8
Layer_1
 62
7
100
AcDbLine
 10
22.067870
 20
183.028530
 30
0.0
 11
21.573500
 21
181.936090
 31
0.0
  0
LINE
  5
161
100
AcDbEntity
  8
Layer_1
 62
7
100
AcDbLine
 10
21.573500
 20
181.936090
 30
0.0
 11
22.562240
 21
181.936090
 31
0.0
  0
LINE
  5
162
100
AcDbEntity
  8
Layer_1
 62
7
100
AcDbLine
 10
22.562240
 20
181.936090
 30
0.0
 11
22.067870
 21
183.028530
 31
0.0
  0
LINE
  5
163
100
AcDbEntity
  8
Layer_1
 62
7
100
AcDbLine
 10
23.883780
 20
183.995570
 30
0.0
 11
26.155480
 21
181.658760
 31
0.0
  0
LINE
  5
164
100
AcDbEntity
  8
Layer_1
 62
7
100
AcDbLine
 10
26.155480
 20
181.658760
 30
0.0
 11
26.155480
 21
183.872580
 31
0.0
  0
LINE
  5
165
100
AcDbEntity
  8
Layer_1
 62
7
100
AcDbLine
 10
26.155480
 20
183.872580
 30
0.0
 11
26.575090
 21
183.872580
 31
0.0
  0
LINE
  5
166
100
AcDbEntity
  8
Layer_1
 62
7
100
AcDbLine
 10
26.575090
 20
183.872580
 30
0.0
 11
26.575090
 21
180.657960
 31
0.0
  0
LINE
  5
167
100
AcDbEntity
  8
Layer_1
 62
7
100
AcDbLine
 10
26.575090
 20
180.657960
 30
0.0
 11
24.303400
 21
182.982710
 31
0.0
  0
LINE
  5
168
100
AcDbEntity
  8
Layer_1
 62
7
100
AcDbLine
 10
24.303400
 20
182.982710
 30
0.0
 11
24.303400
 21
180.800240
 31
0.0
  0
LINE
  5
169
100
AcDbEntity
  8
Layer_1
 62
7
100
AcDbLine
 10
24.303400
 20
180.800240
 30
0.0
 11
23.883780
 21
180.800240
 31
0.0
  0
LINE
  5
16a
100
AcDbEntity
  8
Layer_1
 62
7
100
AcDbLine
 10
23.883780
 20
180.800240
 30
0.0
 11
23.883780
 21
183.995570
 31
0.0
  0
SPLINE
  5
16b
100
AcDbEntity
  8
Layer_1
 62
6
100
AcDbSpline
 70
8
 71
3
 72
8
 73
4
 74
0
 40
0
 40
0
 40
0
 40
0
 40
1
 40
1
 40
1
 40
1
 10
74.057865
 20
197.635078
 30
0.0
 10
74.057865
 20
191.740196
 30
0.0
 10
70.912983
 20
186.293100
 30
0.0
 10
65.807865
 20
183.345659
 30
0.0
  0
SPLINE
  5
16c
100
AcDbEntity
  8
Layer_1
 62
6
100
AcDbSpline
 70
8
 71
3
 72
8
 73
4
 74
0
 40
0
 40
0
 40
0
 40
0
 40
1
 40
1
 40
1
 40
1
 10
65.807865
 20
183.345659
 30
0.0
 10
60.702747
 20
180.398218
 30
0.0
 10
54.412983
 20
180.398218
 30
0.0
 10
49.307865
 20
183.345659
 30
0.0
  0
SPLINE
  5
16d
100
AcDbEntity
  8
Layer_1
 62
6
100
AcDbSpline
 70
8
 71
3
 72
8
 73
4
 74
0
 40
0
 40
0
 40
0
 40
0
 40
1
 40
1
 40
1
 40
1
 10
49.307865
 20
183.345659
 30
0.0
 10
44.202747
 20
186.293100
 30
0.0
 10
41.057865
 20
191.740196
 30
0.0
 10
41.057865
 20
197.635078
 30
0.0
  0
SPLINE
  5
16e
100
AcDbEntity
  8
Layer_1
 62
6
100
AcDbSpline
 70
8
 71
3
 72
8
 73
4
 74
0
 40
0
 40
0
 40
0
 40
0
 40
1
 40
1
 40
1
 40
1
 10
41.057865
 20
197.635078
 30
0.0
 10
41.057865
 20
203.529960
 30
0.0
 10
44.202747
 20
208.977056
 30
0.0
 10
49.307865
 20
211.924497
 30
0.0
  0
SPLINE
  5
16f
100
AcDbEntity
  8
Layer_1
 62
6
100
AcDbSpline
 70
8
 71
3
 72
8
 73
4
 74
0
 40
0
 40
0
 40
0
 40
0
 40
1
 40
1
 40
1
 40
1
 10
49.307865
 20
211.924497
 30
0.0
 10
54.412983
 20
214.871938
 30
0.0
 10
60.702747
 20
214.871938
 30
0.0
 10
65.807865
 20
211.924497
 30
0.0
  0
SPLINE
  5
170
100
AcDbEntity
  8
Layer_1
 62
6
100
AcDbSpline
 70
8
 71
3
 72
8
 73
4
 74
0
 40
0
 40
0
 40
0
 40
0
 40
1
 40
1
 40
1
 40
1
 10
65.807865
 20
211.924497
 30
0.0
 10
70.912983
 20
208.977056
 30
0.0
 10
74.057865
 20
203.529960
 30
0.0
 10
74.057865
 20
197.635078
 30
0.0
  0
LINE
  5
171
100
AcDbEntity
  8
Layer_1
 62
6
100
AcDbLine
 10
74.057865
 20
197.635078
 30
0.0
 11
74.057865
 21
197.635078
 31
0.0
  0
SPLINE
  5
172
100
AcDbEntity
  8
Layer_1
 62
1
100
AcDbSpline
 70
8
 71
3
 72
8
 73
4
 74
0
 40
0
 40
0
 40
0
 40
0
 40
1
 40
1
 40
1
 40
1
 10
62.057866
 20
197.635078
 30
0.0
 10
62.057866
 20
196.027383
 30
0.0
 10
61.200170
 20
194.541811
 30
0.0
 10
59.807865
 20
193.737963
 30
0.0
  0
SPLINE
  5
173
100
AcDbEntity
  8
Layer_1
 62
1
100
AcDbSpline
 70
8
 71
3
 72
8
 73
4
 74
0
 40
0
 40
0
 40
0
 40
0
 40
1
 40
1
 40
1
 40
1
 10
59.807865
 20
193.737963
 30
0.0
 10
58.415560
 20
192.934116
 30
0.0
 10
56.700170
 20
192.934116
 30
0.0
 10
55.307865
 20
193.737963
 30
0.0
  0
SPLINE
  5
174
100
AcDbEntity
  8
Layer_1
 62
1
100
AcDbSpline
 70
8
 71
3
 72
8
 73
4
 74
0
 40
0
 40
0
 40
0
 40
0
 40
1
 40
1
 40
1
 40
1
 10
55.307865
 20
193.737963
 30
0.0
 10
53.915560
 20
194.541811
 30
0.0
 10
53.057865
 20
196.027383
 30
0.0
 10
53.057865
 20
197.635078
 30
0.0
  0
SPLINE
  5
175
100
AcDbEntity
  8
Layer_1
 62
1
100
AcDbSpline
 70
8
 71
3
 72
8
 73
4
 74
0
 40
0
 40
0
 40
0
 40
0
 40
1
 40
1
 40
1
 40
1
 10
53.057865
 20
197.635078
 30
0.0
 10
53.057865
 20
199.242773
 30
0.0
 10
53.915560
 20
200.728345
 30
0.0
 10
55.307865
 20
201.532193
 30
0.0
  0
SPLINE
  5
176
100
AcDbEntity
  8
Layer_1
 62
1
100
AcDbSpline
 70
8
 71
3
 72
8
 73
4
 74
0
 40
0
 40
0
 40
0
 40
0
 40
1
 40
1
 40
1
 40
1
 10
55.307865
 20
201.532193
 30
0.0
 10
56.700170
 20
202.336040
 30
0.0
 10
58.415560
 20
202.336040
 30
0.0
 10
59.807865
 20
201.532193
 30
0.0
  0
SPLINE
  5
177
100
AcDbEntity
  8
Layer_1
 62
1
100
AcDbSpline
 70
8
 71
3
 72
8
 73
4
 74
0
 40
0
 40
0
 40
0
 40
0
 40
1
 40
1
 40
1
 40
1
 10
59.807865
 20
201.532193
 30
0.0
 10
61.200170
 20
200.728345
 30
0.0
 10
62.057866
 20
199.242773
 30
0.0
 10
62.057866
 20
197.635078
 30
0.0
  0
LINE
  5
178
100
AcDbEntity
  8
Layer_1
 62
1
100
AcDbLine
 10
62.057866
 20
197.635078
 30
0.0
 11
62.057866
 21
197.635078
 31
0.0
  0
LINE
  5
179
100
AcDbEntity
  8
Layer_1
 62
1
100
AcDbLine
 10
56.107864
 20
185.635510
 30
0.0
 11
59.007864
 21
185.635510
 31
0.0
  0
LINE
  5
17a
100
AcDbEntity
  8
Layer_1
 62
1
100
AcDbLine
 10
59.007864
 20
185.635510
 30
0.0
 11
59.007864
 21
184.935510
 31
0.0
  0
LINE
  5
17b
100
AcDbEntity
  8
Layer_1
 62
1
100
AcDbLine
 10
59.007864
 20
184.935510
 30
0.0
 11
56.107864
 21
184.935510
 31
0.0
  0
LINE
  5
17c
100
AcDbEntity
  8
Layer_1
 62
1
100
AcDbLine
 10
56.107864
 20
184.935510
 30
0.0
 11
56.107864
 21
185.635510
 31
0.0
  0
LINE
  5
17d
100
AcDbEntity
  8
Layer_1
 62
7
100
AcDbLine
 10
60.728926
 20
190.074200
 30
0.0
 11
66.201525
 21
180.570190
 31
0.0
  0
LINE
  5
17e
100
AcDbEntity
  8
Layer_1
 62
7
100
AcDbLine
 10
66.201525
 20
180.570190
 30
0.0
 11
67.935007
 21
181.568240
 31
0.0
  0
LINE
  5
17f
100
AcDbEntity
  8
Layer_1
 62
7
100
AcDbLine
 10
67.935007
 20
181.568240
 30
0.0
 11
62.466577
 21
191.065020
 31
0.0
  0
SPLINE
  5
180
100
AcDbEntity
  8
Layer_1
 62
7
100
AcDbSpline
 70
8
 71
3
 72
8
 73
4
 74
0
 40
0
 40
0
 40
0
 40
0
 40
1
 40
1
 40
1
 40
1
 10
62.466577
 20
191.065020
 30
0.0
 10
63.082726
 20
191.530030
 30
0.0
 10
63.630556
 20
192.079490
 30
0.0
 10
64.094056
 20
192.696780
 30
0.0
  0
LINE
  5
181
100
AcDbEntity
  8
Layer_1
 62
7
100
AcDbLine
 10
64.094056
 20
192.696780
 30
0.0
 11
73.582866
 21
187.203520
 31
0.0
  0
LINE
  5
182
100
AcDbEntity
  8
Layer_1
 62
7
100
AcDbLine
 10
73.582866
 20
187.203520
 30
0.0
 11
74.585237
 21
188.934970
 31
0.0
  0
LINE
  5
183
100
AcDbEntity
  8
Layer_1
 62
7
100
AcDbLine
 10
74.585237
 20
188.934970
 30
0.0
 11
65.099536
 21
194.426170
 31
0.0
  0
SPLINE
  5
184
100
AcDbEntity
  8
Layer_1
 62
7
100
AcDbSpline
 70
8
 71
3
 72
8
 73
4
 74
0
 40
0
 40
0
 40
0
 40
0
 40
1
 40
1
 40
1
 40
1
 10
65.099536
 20
194.426170
 30
0.0
 10
65.157736
 20
194.559330
 30
0.0
 10
65.212947
 20
194.694280
 30
0.0
 10
65.264056
 20
194.830320
 30
0.0
  0
SPLINE
  5
185
100
AcDbEntity
  8
Layer_1
 62
7
100
AcDbSpline
 70
8
 71
3
 72
8
 73
4
 74
0
 40
0
 40
0
 40
0
 40
0
 40
1
 40
1
 40
1
 40
1
 10
65.264056
 20
194.830320
 30
0.0
 10
65.476186
 20
195.419260
 30
0.0
 10
65.620135
 20
196.030240
 30
0.0
 10
65.694057
 20
196.651830
 30
0.0
  0
LINE
  5
186
100
AcDbEntity
  8
Layer_1
 62
7
100
AcDbLine
 10
65.694057
 20
196.651830
 30
0.0
 11
76.659385
 21
196.639230
 31
0.0
  0
LINE
  5
187
100
AcDbEntity
  8
Layer_1
 62
7
100
AcDbLine
 10
76.659385
 20
196.639230
 30
0.0
 11
76.661485
 21
198.638606
 31
0.0
  0
LINE
  5
188
100
AcDbEntity
  8
Layer_1
 62
7
100
AcDbLine
 10
76.661485
 20
198.638606
 30
0.0
 11
65.696676
 21
198.651206
 31
0.0
  0
SPLINE
  5
189
100
AcDbEntity
  8
Layer_1
 62
7
100
AcDbSpline
 70
8
 71
3
 72
8
 73
4
 74
0
 40
0
 40
0
 40
0
 40
0
 40
1
 40
1
 40
1
 40
1
 10
65.696676
 20
198.651206
 30
0.0
 10
65.603076
 20
199.416706
 30
0.0
 10
65.402546
 20
200.165586
 30
0.0
 10
65.101075
 20
200.875426
 30
0.0
  0
LINE
  5
18a
100
AcDbEntity
  8
Layer_1
 62
7
100
AcDbLine
 10
65.101075
 20
200.875426
 30
0.0
 11
74.605077
 21
206.348539
 31
0.0
  0
LINE
  5
18b
100
AcDbEntity
  8
Layer_1
 62
7
100
AcDbLine
 10
74.605077
 20
206.348539
 30
0.0
 11
73.607037
 21
208.080998
 31
0.0
  0
LINE
  5
18c
100
AcDbEntity
  8
Layer_1
 62
7
100
AcDbLine
 10
73.607037
 20
208.080998
 30
0.0
 11
64.110247
 21
202.612556
 31
0.0
  0
SPLINE
  5
18d
100
AcDbEntity
  8
Layer_1
 62
7
100
AcDbSpline
 70
8
 71
3
 72
8
 73
4
 74
0
 40
0
 40
0
 40
0
 40
0
 40
1
 40
1
 40
1
 40
1
 10
64.110247
 20
202.612556
 30
0.0
 10
63.645327
 20
203.228866
 30
0.0
 10
63.096255
 20
203.776896
 30
0.0
 10
62.479006
 20
204.240556
 30
0.0
  0
LINE
  5
18e
100
AcDbEntity
  8
Layer_1
 62
7
100
AcDbLine
 10
62.479006
 20
204.240556
 30
0.0
 11
67.971629
 21
213.729369
 31
0.0
  0
LINE
  5
18f
100
AcDbEntity
  8
Layer_1
 62
7
100
AcDbLine
 10
67.971629
 20
213.729369
 30
0.0
 11
66.241209
 21
214.731739
 31
0.0
  0
LINE
  5
190
100
AcDbEntity
  8
Layer_1
 62
7
100
AcDbLine
 10
66.241209
 20
214.731739
 30
0.0
 11
60.749488
 21
205.246036
 31
0.0
  0
LINE
  5
191
100
AcDbEntity
  8
Layer_1
 62
7
100
AcDbLine
 10
60.749488
 20
205.246036
 30
0.0
 11
60.242399
 21
204.369436
 31
0.0
  0
LINE
  5
192
100
AcDbEntity
  8
Layer_1
 62
7
100
AcDbLine
 10
60.242399
 20
204.369436
 30
0.0
 11
60.244499
 21
204.368436
 31
0.0
  0
SPLINE
  5
193
100
AcDbEntity
  8
Layer_1
 62
7
100
AcDbSpline
 70
8
 71
3
 72
8
 73
4
 74
0
 40
0
 40
0
 40
0
 40
0
 40
1
 40
1
 40
1
 40
1
 10
60.244499
 20
204.368436
 30
0.0
 10
60.460931
 20
204.280236
 30
0.0
 10
60.673180
 20
204.181566
 30
0.0
 10
60.880089
 20
204.072936
 30
0.0
  0
SPLINE
  5
194
100
AcDbEntity
  8
Layer_1
 62
7
100
AcDbSpline
 70
8
 71
3
 72
8
 73
4
 74
0
 40
0
 40
0
 40
0
 40
0
 40
1
 40
1
 40
1
 40
1
 10
60.880089
 20
204.072936
 30
0.0
 10
60.898799
 20
204.062836
 30
0.0
 10
60.917389
 20
204.052836
 30
0.0
 10
60.935989
 20
204.042636
 30
0.0
  0
SPLINE
  5
195
100
AcDbEntity
  8
Layer_1
 62
7
100
AcDbSpline
 70
8
 71
3
 72
8
 73
4
 74
0
 40
0
 40
0
 40
0
 40
0
 40
1
 40
1
 40
1
 40
1
 10
60.935989
 20
204.042636
 30
0.0
 10
61.122050
 20
203.943436
 30
0.0
 10
61.304009
 20
203.836016
 30
0.0
 10
61.480719
 20
203.720976
 30
0.0
  0
SPLINE
  5
196
100
AcDbEntity
  8
Layer_1
 62
7
100
AcDbSpline
 70
8
 71
3
 72
8
 73
4
 74
0
 40
0
 40
0
 40
0
 40
0
 40
1
 40
1
 40
1
 40
1
 10
61.480719
 20
203.720976
 30
0.0
 10
61.533219
 20
203.685976
 30
0.0
 10
61.585028
 20
203.650376
 30
0.0
 10
61.636619
 20
203.614016
 30
0.0
  0
SPLINE
  5
197
100
AcDbEntity
  8
Layer_1
 62
7
100
AcDbSpline
 70
8
 71
3
 72
8
 73
4
 74
0
 40
0
 40
0
 40
0
 40
0
 40
1
 40
1
 40
1
 40
1
 10
61.636619
 20
203.614016
 30
0.0
 10
61.751819
 20
203.536216
 30
0.0
 10
61.864870
 20
203.455506
 30
0.0
 10
61.975408
 20
203.371236
 30
0.0
  0
SPLINE
  5
198
100
AcDbEntity
  8
Layer_1
 62
7
100
AcDbSpline
 70
8
 71
3
 72
8
 73
4
 74
0
 40
0
 40
0
 40
0
 40
0
 40
1
 40
1
 40
1
 40
1
 10
61.975408
 20
203.371236
 30
0.0
 10
62.444379
 20
203.002936
 30
0.0
 10
62.866329
 20
202.577876
 30
0.0
 10
63.231290
 20
202.106296
 30
0.0
  0
SPLINE
  5
199
100
AcDbEntity
  8
Layer_1
 62
7
100
AcDbSpline
 70
8
 71
3
 72
8
 73
4
 74
0
 40
0
 40
0
 40
0
 40
0
 40
1
 40
1
 40
1
 40
1
 10
63.231290
 20
202.106296
 30
0.0
 10
63.378758
 20
201.916596
 30
0.0
 10
63.516709
 20
201.719906
 30
0.0
 10
63.644619
 20
201.516506
 30
0.0
  0
LINE
  5
19a
100
AcDbEntity
  8
Layer_1
 62
7
100
AcDbLine
 10
63.644619
 20
201.516506
 30
0.0
 11
63.646719
 21
201.512506
 31
0.0
  0
LINE
  5
19b
100
AcDbEntity
  8
Layer_1
 62
7
100
AcDbLine
 10
63.646719
 20
201.512506
 30
0.0
 11
63.647819
 21
201.509506
 31
0.0
  0
SPLINE
  5
19c
100
AcDbEntity
  8
Layer_1
 62
7
100
AcDbSpline
 70
8
 71
3
 72
8
 73
4
 74
0
 40
0
 40
0
 40
0
 40
0
 40
1
 40
1
 40
1
 40
1
 10
63.647819
 20
201.509506
 30
0.0
 10
63.775467
 20
201.305926
 30
0.0
 10
63.892987
 20
201.096006
 30
0.0
 10
63.999789
 20
200.880756
 30
0.0
  0
LINE
  5
19d
100
AcDbEntity
  8
Layer_1
 62
7
100
AcDbLine
 10
63.999789
 20
200.880756
 30
0.0
 11
64.000889
 21
200.880206
 31
0.0
  0
LINE
  5
19e
100
AcDbEntity
  8
Layer_1
 62
7
100
AcDbLine
 10
64.000889
 20
200.880206
 30
0.0
 11
64.001418
 21
200.879206
 31
0.0
  0
SPLINE
  5
19f
100
AcDbEntity
  8
Layer_1
 62
7
100
AcDbSpline
 70
8
 71
3
 72
8
 73
4
 74
0
 40
0
 40
0
 40
0
 40
0
 40
1
 40
1
 40
1
 40
1
 10
64.001418
 20
200.879206
 30
0.0
 10
64.083918
 20
200.713216
 30
0.0
 10
64.159970
 20
200.544326
 30
0.0
 10
64.229471
 20
200.372506
 30
0.0
  0
SPLINE
  5
1a0
100
AcDbEntity
  8
Layer_1
 62
7
100
AcDbSpline
 70
8
 71
3
 72
8
 73
4
 74
0
 40
0
 40
0
 40
0
 40
0
 40
1
 40
1
 40
1
 40
1
 10
64.229471
 20
200.372506
 30
0.0
 10
64.453980
 20
199.820206
 30
0.0
 10
64.609090
 20
199.242066
 30
0.0
 10
64.692100
 20
198.651686
 30
0.0
  0
LINE
  5
1a1
100
AcDbEntity
  8
Layer_1
 62
7
100
AcDbLine
 10
64.692100
 20
198.651686
 30
0.0
 11
64.691000
 21
198.651676
 31
0.0
  0
SPLINE
  5
1a2
100
AcDbEntity
  8
Layer_1
 62
7
100
AcDbSpline
 70
8
 71
3
 72
8
 73
4
 74
0
 40
0
 40
0
 40
0
 40
0
 40
1
 40
1
 40
1
 40
1
 10
64.691000
 20
198.651676
 30
0.0
 10
64.781400
 20
197.988156
 30
0.0
 10
64.779600
 20
197.315286
 30
0.0
 10
64.685000
 20
196.652290
 30
0.0
  0
LINE
  5
1a3
100
AcDbEntity
  8
Layer_1
 62
7
100
AcDbLine
 10
64.685000
 20
196.652290
 30
0.0
 11
64.685529
 21
196.652290
 31
0.0
  0
SPLINE
  5
1a4
100
AcDbEntity
  8
Layer_1
 62
7
100
AcDbSpline
 70
8
 71
3
 72
8
 73
4
 74
0
 40
0
 40
0
 40
0
 40
0
 40
1
 40
1
 40
1
 40
1
 10
64.685529
 20
196.652290
 30
0.0
 10
64.617429
 20
196.147810
 30
0.0
 10
64.496098
 20
195.651730
 30
0.0
 10
64.324129
 20
195.172600
 30
0.0
  0
SPLINE
  5
1a5
100
AcDbEntity
  8
Layer_1
 62
7
100
AcDbSpline
 70
8
 71
3
 72
8
 73
4
 74
0
 40
0
 40
0
 40
0
 40
0
 40
1
 40
1
 40
1
 40
1
 10
64.324129
 20
195.172600
 30
0.0
 10
64.291829
 20
195.092100
 30
0.0
 10
64.258329
 20
195.012290
 30
0.0
 10
64.223138
 20
194.933000
 30
0.0
  0
LINE
  5
1a6
100
AcDbEntity
  8
Layer_1
 62
7
100
AcDbLine
 10
64.223138
 20
194.933000
 30
0.0
 11
64.222038
 21
194.931000
 31
0.0
  0
SPLINE
  5
1a7
100
AcDbEntity
  8
Layer_1
 62
7
100
AcDbSpline
 70
8
 71
3
 72
8
 73
4
 74
0
 40
0
 40
0
 40
0
 40
0
 40
1
 40
1
 40
1
 40
1
 10
64.222038
 20
194.931000
 30
0.0
 10
64.133738
 20
194.714060
 30
0.0
 10
64.035380
 20
194.501750
 30
0.0
 10
63.926528
 20
194.294380
 30
0.0
  0
SPLINE
  5
1a8
100
AcDbEntity
  8
Layer_1
 62
7
100
AcDbSpline
 70
8
 71
3
 72
8
 73
4
 74
0
 40
0
 40
0
 40
0
 40
0
 40
1
 40
1
 40
1
 40
1
 10
63.926528
 20
194.294380
 30
0.0
 10
63.917528
 20
194.276780
 30
0.0
 10
63.907428
 20
194.259180
 30
0.0
 10
63.897728
 20
194.241580
 30
0.0
  0
SPLINE
  5
1a9
100
AcDbEntity
  8
Layer_1
 62
7
100
AcDbSpline
 70
8
 71
3
 72
8
 73
4
 74
0
 40
0
 40
0
 40
0
 40
0
 40
1
 40
1
 40
1
 40
1
 10
63.897728
 20
194.241580
 30
0.0
 10
63.798128
 20
194.054730
 30
0.0
 10
63.690609
 20
193.872190
 30
0.0
 10
63.575050
 20
193.694780
 30
0.0
  0
SPLINE
  5
1aa
100
AcDbEntity
  8
Layer_1
 62
7
100
AcDbSpline
 70
8
 71
3
 72
8
 73
4
 74
0
 40
0
 40
0
 40
0
 40
0
 40
1
 40
1
 40
1
 40
1
 10
63.575050
 20
193.694780
 30
0.0
 10
63.538550
 20
193.639980
 30
0.0
 10
63.500950
 20
193.585880
 30
0.0
 10
63.462938
 20
193.532140
 30
0.0
  0
SPLINE
  5
1ab
100
AcDbEntity
  8
Layer_1
 62
7
100
AcDbSpline
 70
8
 71
3
 72
8
 73
4
 74
0
 40
0
 40
0
 40
0
 40
0
 40
1
 40
1
 40
1
 40
1
 10
63.462938
 20
193.532140
 30
0.0
 10
63.386938
 20
193.419820
 30
0.0
 10
63.307998
 20
193.309510
 30
0.0
 10
63.225829
 20
193.201640
 30
0.0
  0
LINE
  5
1ac
100
AcDbEntity
  8
Layer_1
 62
7
100
AcDbLine
 10
63.225829
 20
193.201640
 30
0.0
 11
63.223729
 21
193.199640
 31
0.0
  0
SPLINE
  5
1ad
100
AcDbEntity
  8
Layer_1
 62
7
100
AcDbSpline
 70
8
 71
3
 72
8
 73
4
 74
0
 40
0
 40
0
 40
0
 40
0
 40
1
 40
1
 40
1
 40
1
 10
63.223729
 20
193.199640
 30
0.0
 10
62.855289
 20
192.730880
 30
0.0
 10
62.430429
 20
192.309520
 30
0.0
 10
61.958780
 20
191.944800
 30
0.0
  0
SPLINE
  5
1ae
100
AcDbEntity
  8
Layer_1
 62
7
100
AcDbSpline
 70
8
 71
3
 72
8
 73
4
 74
0
 40
0
 40
0
 40
0
 40
0
 40
1
 40
1
 40
1
 40
1
 10
61.958780
 20
191.944800
 30
0.0
 10
61.767950
 20
191.796370
 30
0.0
 10
61.570081
 20
191.657490
 30
0.0
 10
61.365389
 20
191.528860
 30
0.0
  0
SPLINE
  5
1af
100
AcDbEntity
  8
Layer_1
 62
7
100
AcDbSpline
 70
8
 71
3
 72
8
 73
4
 74
0
 40
0
 40
0
 40
0
 40
0
 40
1
 40
1
 40
1
 40
1
 10
61.365389
 20
191.528860
 30
0.0
 10
61.163639
 20
191.402160
 30
0.0
 10
60.955539
 20
191.285210
 30
0.0
 10
60.742311
 20
191.178970
 30
0.0
  0
SPLINE
  5
1b0
100
AcDbEntity
  8
Layer_1
 62
7
100
AcDbSpline
 70
8
 71
3
 72
8
 73
4
 74
0
 40
0
 40
0
 40
0
 40
0
 40
1
 40
1
 40
1
 40
1
 10
60.742311
 20
191.178970
 30
0.0
 10
60.736311
 20
191.175970
 30
0.0
 10
60.730911
 20
191.173970
 30
0.0
 10
60.725301
 20
191.170970
 30
0.0
  0
SPLINE
  5
1b1
100
AcDbEntity
  8
Layer_1
 62
7
100
AcDbSpline
 70
8
 71
3
 72
8
 73
4
 74
0
 40
0
 40
0
 40
0
 40
0
 40
1
 40
1
 40
1
 40
1
 10
60.725301
 20
191.170970
 30
0.0
 10
60.562932
 20
191.090570
 30
0.0
 10
60.397903
 20
191.016170
 30
0.0
 10
60.229961
 20
190.948130
 30
0.0
  0
LINE
  5
1b2
100
AcDbEntity
  8
Layer_1
 62
7
100
AcDbLine
 10
60.229961
 20
190.948130
 30
0.0
 11
60.225961
 21
190.946130
 31
0.0
  0
LINE
  5
1b3
100
AcDbEntity
  8
Layer_1
 62
7
100
AcDbLine
 10
60.225961
 20
190.946130
 30
0.0
 11
60.728926
 21
190.074200
 31
0.0
  0
LINE
  5
1b4
100
AcDbEntity
  8
Layer_1
 62
7
100
AcDbLine
 10
75.667334
 20
189.886430
 30
0.0
 11
76.022868
 21
189.886430
 31
0.0
  0
LINE
  5
1b5
100
AcDbEntity
  8
Layer_1
 62
7
100
AcDbLine
 10
76.022868
 20
189.886430
 30
0.0
 11
76.022868
 21
187.253000
 31
0.0
  0
LINE
  5
1b6
100
AcDbEntity
  8
Layer_1
 62
7
100
AcDbLine
 10
76.022868
 20
187.253000
 30
0.0
 11
75.667334
 21
187.253000
 31
0.0
  0
LINE
  5
1b7
100
AcDbEntity
  8
Layer_1
 62
7
100
AcDbLine
 10
75.667334
 20
187.253000
 30
0.0
 11
75.667334
 21
189.886430
 31
0.0
  0
LINE
  5
1b8
100
AcDbEntity
  8
Layer_1
 62
7
100
AcDbLine
 10
76.378402
 20
189.882300
 30
0.0
 11
76.758740
 21
189.882300
 31
0.0
  0
LINE
  5
1b9
100
AcDbEntity
  8
Layer_1
 62
7
100
AcDbLine
 10
76.758740
 20
189.882300
 30
0.0
 11
77.583496
 21
188.019880
 31
0.0
  0
LINE
  5
1ba
100
AcDbEntity
  8
Layer_1
 62
7
100
AcDbLine
 10
77.583496
 20
188.019880
 30
0.0
 11
78.414453
 21
189.882300
 31
0.0
  0
LINE
  5
1bb
100
AcDbEntity
  8
Layer_1
 62
7
100
AcDbLine
 10
78.414453
 20
189.882300
 30
0.0
 11
78.798926
 21
189.882300
 31
0.0
  0
LINE
  5
1bc
100
AcDbEntity
  8
Layer_1
 62
7
100
AcDbLine
 10
78.798926
 20
189.882300
 30
0.0
 11
77.579362
 21
187.164120
 31
0.0
  0
LINE
  5
1bd
100
AcDbEntity
  8
Layer_1
 62
7
100
AcDbLine
 10
77.579362
 20
187.164120
 30
0.0
 11
76.378402
 21
189.882300
 31
0.0
  0
LINE
  5
1be
100
AcDbEntity
  8
Layer_1
 62
7
100
AcDbLine
 10
79.837622
 20
189.987720
 30
0.0
 11
81.081990
 21
187.253000
 31
0.0
  0
LINE
  5
1bf
100
AcDbEntity
  8
Layer_1
 62
7
100
AcDbLine
 10
81.081990
 20
187.253000
 30
0.0
 11
80.705786
 21
187.253000
 31
0.0
  0
LINE
  5
1c0
100
AcDbEntity
  8
Layer_1
 62
7
100
AcDbLine
 10
80.705786
 20
187.253000
 30
0.0
 11
80.397795
 21
187.926860
 31
0.0
  0
LINE
  5
1c1
100
AcDbEntity
  8
Layer_1
 62
7
100
AcDbLine
 10
80.397795
 20
187.926860
 30
0.0
 11
79.279517
 21
187.926860
 31
0.0
  0
LINE
  5
1c2
100
AcDbEntity
  8
Layer_1
 62
7
100
AcDbLine
 10
79.279517
 20
187.926860
 30
0.0
 11
78.979793
 21
187.253000
 31
0.0
  0
LINE
  5
1c3
100
AcDbEntity
  8
Layer_1
 62
7
100
AcDbLine
 10
78.979793
 20
187.253000
 30
0.0
 11
78.605656
 21
187.253000
 31
0.0
  0
LINE
  5
1c4
100
AcDbEntity
  8
Layer_1
 62
7
100
AcDbLine
 10
78.605656
 20
187.253000
 30
0.0
 11
79.837622
 21
189.987720
 31
0.0
  0
LINE
  5
1c5
100
AcDbEntity
  8
Layer_1
 62
7
100
AcDbLine
 10
79.837622
 20
189.162960
 30
0.0
 11
79.413875
 21
188.226580
 31
0.0
  0
LINE
  5
1c6
100
AcDbEntity
  8
Layer_1
 62
7
100
AcDbLine
 10
79.413875
 20
188.226580
 30
0.0
 11
80.261369
 21
188.226580
 31
0.0
  0
LINE
  5
1c7
100
AcDbEntity
  8
Layer_1
 62
7
100
AcDbLine
 10
80.261369
 20
188.226580
 30
0.0
 11
79.837622
 21
189.162960
 31
0.0
  0
LINE
  5
1c8
100
AcDbEntity
  8
Layer_1
 62
7
100
AcDbLine
 10
68.819684
 20
182.991780
 30
0.0
 11
70.279026
 21
182.991780
 31
0.0
  0
LINE
  5
1c9
100
AcDbEntity
  8
Layer_1
 62
7
100
AcDbLine
 10
70.279026
 20
182.991780
 30
0.0
 11
70.279026
 21
182.632110
 31
0.0
  0
LINE
  5
1ca
100
AcDbEntity
  8
Layer_1
 62
7
100
AcDbLine
 10
70.279026
 20
182.632110
 30
0.0
 11
69.175218
 21
182.632110
 31
0.0
  0
LINE
  5
1cb
100
AcDbEntity
  8
Layer_1
 62
7
100
AcDbLine
 10
69.175218
 20
182.632110
 30
0.0
 11
69.175218
 21
181.974790
 31
0.0
  0
LINE
  5
1cc
100
AcDbEntity
  8
Layer_1
 62
7
100
AcDbLine
 10
69.175218
 20
181.974790
 30
0.0
 11
70.279026
 21
181.974790
 31
0.0
  0
LINE
  5
1cd
100
AcDbEntity
  8
Layer_1
 62
7
100
AcDbLine
 10
70.279026
 20
181.974790
 30
0.0
 11
70.279026
 21
181.619250
 31
0.0
  0
LINE
  5
1ce
100
AcDbEntity
  8
Layer_1
 62
7
100
AcDbLine
 10
70.279026
 20
181.619250
 30
0.0
 11
69.179352
 21
181.619250
 31
0.0
  0
LINE
  5
1cf
100
AcDbEntity
  8
Layer_1
 62
7
100
AcDbLine
 10
69.179352
 20
181.619250
 30
0.0
 11
69.179352
 21
180.358350
 31
0.0
  0
LINE
  5
1d0
100
AcDbEntity
  8
Layer_1
 62
7
100
AcDbLine
 10
69.179352
 20
180.358350
 30
0.0
 11
68.819684
 21
180.358350
 31
0.0
  0
LINE
  5
1d1
100
AcDbEntity
  8
Layer_1
 62
7
100
AcDbLine
 10
68.819684
 20
180.358350
 30
0.0
 11
68.819684
 21
182.991780
 31
0.0
  0
LINE
  5
1d2
100
AcDbEntity
  8
Layer_1
 62
7
100
AcDbLine
 10
70.756517
 20
182.991780
 30
0.0
 11
71.327024
 21
182.991780
 31
0.0
  0
SPLINE
  5
1d3
100
AcDbEntity
  8
Layer_1
 62
7
100
AcDbSpline
 70
8
 71
3
 72
8
 73
4
 74
0
 40
0
 40
0
 40
0
 40
0
 40
1
 40
1
 40
1
 40
1
 10
71.327024
 20
182.991780
 30
0.0
 10
71.610900
 20
182.991780
 30
0.0
 10
71.841721
 20
182.920810
 30
0.0
 10
72.019488
 20
182.778870
 30
0.0
  0
SPLINE
  5
1d4
100
AcDbEntity
  8
Layer_1
 62
7
100
AcDbSpline
 70
8
 71
3
 72
8
 73
4
 74
0
 40
0
 40
0
 40
0
 40
0
 40
1
 40
1
 40
1
 40
1
 10
72.019488
 20
182.778870
 30
0.0
 10
72.198633
 20
182.638310
 30
0.0
 10
72.288206
 20
182.457787
 30
0.0
 10
72.288206
 20
182.237300
 30
0.0
  0
SPLINE
  5
1d5
100
AcDbEntity
  8
Layer_1
 62
7
100
AcDbSpline
 70
8
 71
3
 72
8
 73
4
 74
0
 40
0
 40
0
 40
0
 40
0
 40
1
 40
1
 40
1
 40
1
 10
72.288206
 20
182.237300
 30
0.0
 10
72.288206
 20
182.060913
 30
0.0
 10
72.230328
 20
181.905197
 30
0.0
 10
72.114573
 20
181.770150
 30
0.0
  0
SPLINE
  5
1d6
100
AcDbEntity
  8
Layer_1
 62
7
100
AcDbSpline
 70
8
 71
3
 72
8
 73
4
 74
0
 40
0
 40
0
 40
0
 40
0
 40
1
 40
1
 40
1
 40
1
 10
72.114573
 20
181.770150
 30
0.0
 10
71.998818
 20
181.635103
 30
0.0
 10
71.818295
 20
181.540017
 30
0.0
 10
71.573004
 20
181.484890
 30
0.0
  0
LINE
  5
1d7
100
AcDbEntity
  8
Layer_1
 62
7
100
AcDbLine
 10
71.573004
 20
181.484890
 30
0.0
 11
72.339882
 21
180.358350
 31
0.0
  0
LINE
  5
1d8
100
AcDbEntity
  8
Layer_1
 62
7
100
AcDbLine
 10
72.339882
 20
180.358350
 30
0.0
 11
71.928538
 21
180.358350
 31
0.0
  0
LINE
  5
1d9
100
AcDbEntity
  8
Layer_1
 62
7
100
AcDbLine
 10
71.928538
 20
180.358350
 30
0.0
 11
71.196800
 21
181.441480
 31
0.0
  0
LINE
  5
1da
100
AcDbEntity
  8
Layer_1
 62
7
100
AcDbLine
 10
71.196800
 20
181.441480
 30
0.0
 11
71.116180
 21
181.441480
 31
0.0
  0
LINE
  5
1db
100
AcDbEntity
  8
Layer_1
 62
7
100
AcDbLine
 10
71.116180
 20
181.441480
 30
0.0
 11
71.116180
 21
180.358350
 31
0.0
  0
LINE
  5
1dc
100
AcDbEntity
  8
Layer_1
 62
7
100
AcDbLine
 10
71.116180
 20
180.358350
 30
0.0
 11
70.756513
 21
180.358350
 31
0.0
  0
LINE
  5
1dd
100
AcDbEntity
  8
Layer_1
 62
7
100
AcDbLine
 10
70.756513
 20
180.358350
 30
0.0
 11
70.756517
 21
182.991780
 31
0.0
  0
LINE
  5
1de
100
AcDbEntity
  8
Layer_1
 62
7
100
AcDbLine
 10
71.116184
 20
182.673450
 30
0.0
 11
71.116184
 21
181.755680
 31
0.0
  0
SPLINE
  5
1df
100
AcDbEntity
  8
Layer_1
 62
7
100
AcDbSpline
 70
8
 71
3
 72
8
 73
4
 74
0
 40
0
 40
0
 40
0
 40
0
 40
1
 40
1
 40
1
 40
1
 10
71.116184
 20
181.755680
 30
0.0
 10
71.646729
 20
181.744680
 30
0.0
 10
71.912002
 20
181.898330
 30
0.0
 10
71.912002
 20
182.216630
 30
0.0
  0
SPLINE
  5
1e0
100
AcDbEntity
  8
Layer_1
 62
7
100
AcDbSpline
 70
8
 71
3
 72
8
 73
4
 74
0
 40
0
 40
0
 40
0
 40
0
 40
1
 40
1
 40
1
 40
1
 10
71.912002
 20
182.216630
 30
0.0
 10
71.912002
 20
182.328250
 30
0.0
 10
71.880995
 20
182.419200
 30
0.0
 10
71.818982
 20
182.489480
 30
0.0
  0
SPLINE
  5
1e1
100
AcDbEntity
  8
Layer_1
 62
7
100
AcDbSpline
 70
8
 71
3
 72
8
 73
4
 74
0
 40
0
 40
0
 40
0
 40
0
 40
1
 40
1
 40
1
 40
1
 10
71.818982
 20
182.489480
 30
0.0
 10
71.756969
 20
182.561140
 30
0.0
 10
71.674286
 20
182.609373
 30
0.0
 10
71.570935
 20
182.634180
 30
0.0
  0
SPLINE
  5
1e2
100
AcDbEntity
  8
Layer_1
 62
7
100
AcDbSpline
 70
8
 71
3
 72
8
 73
4
 74
0
 40
0
 40
0
 40
0
 40
0
 40
1
 40
1
 40
1
 40
1
 10
71.570935
 20
182.634180
 30
0.0
 10
71.467582
 20
182.660380
 30
0.0
 10
71.315998
 20
182.673480
 30
0.0
 10
71.116182
 20
182.673480
 30
0.0
  0
LINE
  5
1e3
100
AcDbEntity
  8
Layer_1
 62
7
100
AcDbLine
 10
71.116182
 20
182.673480
 30
0.0
 11
71.116184
 21
182.673450
 31
0.0
  0
LINE
  5
1e4
100
AcDbEntity
  8
Layer_1
 62
7
100
AcDbLine
 10
72.788434
 20
182.991780
 30
0.0
 11
74.247776
 21
182.991780
 31
0.0
  0
LINE
  5
1e5
100
AcDbEntity
  8
Layer_1
 62
7
100
AcDbLine
 10
74.247776
 20
182.991780
 30
0.0
 11
74.247776
 21
182.632110
 31
0.0
  0
LINE
  5
1e6
100
AcDbEntity
  8
Layer_1
 62
7
100
AcDbLine
 10
74.247776
 20
182.632110
 30
0.0
 11
73.143968
 21
182.632110
 31
0.0
  0
LINE
  5
1e7
100
AcDbEntity
  8
Layer_1
 62
7
100
AcDbLine
 10
73.143968
 20
182.632110
 30
0.0
 11
73.143968
 21
181.974790
 31
0.0
  0
LINE
  5
1e8
100
AcDbEntity
  8
Layer_1
 62
7
100
AcDbLine
 10
73.143968
 20
181.974790
 30
0.0
 11
74.247776
 21
181.974790
 31
0.0
  0
LINE
  5
1e9
100
AcDbEntity
  8
Layer_1
 62
7
100
AcDbLine
 10
74.247776
 20
181.974790
 30
0.0
 11
74.247776
 21
181.619250
 31
0.0
  0
LINE
  5
1ea
100
AcDbEntity
  8
Layer_1
 62
7
100
AcDbLine
 10
74.247776
 20
181.619250
 30
0.0
 11
73.143968
 21
181.619250
 31
0.0
  0
LINE
  5
1eb
100
AcDbEntity
  8
Layer_1
 62
7
100
AcDbLine
 10
73.143968
 20
181.619250
 30
0.0
 11
73.143968
 21
180.713880
 31
0.0
  0
LINE
  5
1ec
100
AcDbEntity
  8
Layer_1
 62
7
100
AcDbLine
 10
73.143968
 20
180.713880
 30
0.0
 11
74.247776
 21
180.713880
 31
0.0
  0
LINE
  5
1ed
100
AcDbEntity
  8
Layer_1
 62
7
100
AcDbLine
 10
74.247776
 20
180.713880
 30
0.0
 11
74.247776
 21
180.358350
 31
0.0
  0
LINE
  5
1ee
100
AcDbEntity
  8
Layer_1
 62
7
100
AcDbLine
 10
74.247776
 20
180.358350
 30
0.0
 11
72.788434
 21
180.358350
 31
0.0
  0
LINE
  5
1ef
100
AcDbEntity
  8
Layer_1
 62
7
100
AcDbLine
 10
72.788434
 20
180.358350
 30
0.0
 11
72.788434
 21
182.991780
 31
0.0
  0
LINE
  5
1f0
100
AcDbEntity
  8
Layer_1
 62
7
100
AcDbLine
 10
74.640517
 20
182.991780
 30
0.0
 11
76.099860
 21
182.991780
 31
0.0
  0
LINE
  5
1f1
100
AcDbEntity
  8
Layer_1
 62
7
100
AcDbLine
 10
76.099860
 20
182.991780
 30
0.0
 11
76.099860
 21
182.632110
 31
0.0
  0
LINE
  5
1f2
100
AcDbEntity
  8
Layer_1
 62
7
100
AcDbLine
 10
76.099860
 20
182.632110
 30
0.0
 11
74.996051
 21
182.632110
 31
0.0
  0
LINE
  5
1f3
100
AcDbEntity
  8
Layer_1
 62
7
100
AcDbLine
 10
74.996051
 20
182.632110
 30
0.0
 11
74.996051
 21
181.974790
 31
0.0
  0
LINE
  5
1f4
100
AcDbEntity
  8
Layer_1
 62
7
100
AcDbLine
 10
74.996051
 20
181.974790
 30
0.0
 11
76.099860
 21
181.974790
 31
0.0
  0
LINE
  5
1f5
100
AcDbEntity
  8
Layer_1
 62
7
100
AcDbLine
 10
76.099860
 20
181.974790
 30
0.0
 11
76.099860
 21
181.619250
 31
0.0
  0
LINE
  5
1f6
100
AcDbEntity
  8
Layer_1
 62
7
100
AcDbLine
 10
76.099860
 20
181.619250
 30
0.0
 11
74.996051
 21
181.619250
 31
0.0
  0
LINE
  5
1f7
100
AcDbEntity
  8
Layer_1
 62
7
100
AcDbLine
 10
74.996051
 20
181.619250
 30
0.0
 11
74.996051
 21
180.713880
 31
0.0
  0
LINE
  5
1f8
100
AcDbEntity
  8
Layer_1
 62
7
100
AcDbLine
 10
74.996051
 20
180.713880
 30
0.0
 11
76.099860
 21
180.713880
 31
0.0
  0
LINE
  5
1f9
100
AcDbEntity
  8
Layer_1
 62
7
100
AcDbLine
 10
76.099860
 20
180.713880
 30
0.0
 11
76.099860
 21
180.358350
 31
0.0
  0
LINE
  5
1fa
100
AcDbEntity
  8
Layer_1
 62
7
100
AcDbLine
 10
76.099860
 20
180.358350
 30
0.0
 11
74.640517
 21
180.358350
 31
0.0
  0
LINE
  5
1fb
100
AcDbEntity
  8
Layer_1
 62
7
100
AcDbLine
 10
74.640517
 20
180.358350
 30
0.0
 11
74.640517
 21
182.991780
 31
0.0
  0
SPLINE
  5
1fc
100
AcDbEntity
  8
Layer_1
 62
7
100
AcDbSpline
 70
8
 71
3
 72
8
 73
4
 74
0
 40
0
 40
0
 40
0
 40
0
 40
1
 40
1
 40
1
 40
1
 10
77.662927
 20
197.994580
 30
0.0
 10
77.662927
 20
198.374913
 30
0.0
 10
77.806243
 20
198.700820
 30
0.0
 10
78.092875
 20
198.972300
 30
0.0
  0
SPLINE
  5
1fd
100
AcDbEntity
  8
Layer_1
 62
7
100
AcDbSpline
 70
8
 71
3
 72
8
 73
4
 74
0
 40
0
 40
0
 40
0
 40
0
 40
1
 40
1
 40
1
 40
1
 10
78.092875
 20
198.972300
 30
0.0
 10
78.379507
 20
199.243773
 30
0.0
 10
78.724017
 20
199.379510
 30
0.0
 10
79.126404
 20
199.379510
 30
0.0
  0
SPLINE
  5
1fe
100
AcDbEntity
  8
Layer_1
 62
7
100
AcDbSpline
 70
8
 71
3
 72
8
 73
4
 74
0
 40
0
 40
0
 40
0
 40
0
 40
1
 40
1
 40
1
 40
1
 10
79.126404
 20
199.379510
 30
0.0
 10
79.519145
 20
199.379510
 30
0.0
 10
79.857453
 20
199.242393
 30
0.0
 10
80.141329
 20
198.968160
 30
0.0
  0
SPLINE
  5
1ff
100
AcDbEntity
  8
Layer_1
 62
7
100
AcDbSpline
 70
8
 71
3
 72
8
 73
4
 74
0
 40
0
 40
0
 40
0
 40
0
 40
1
 40
1
 40
1
 40
1
 10
80.141329
 20
198.968160
 30
0.0
 10
80.425205
 20
198.695307
 30
0.0
 10
80.567143
 20
198.370780
 30
0.0
 10
80.567143
 20
197.994580
 30
0.0
  0
SPLINE
  5
200
100
AcDbEntity
  8
Layer_1
 62
7
100
AcDbSpline
 70
8
 71
3
 72
8
 73
4
 74
0
 40
0
 40
0
 40
0
 40
0
 40
1
 40
1
 40
1
 40
1
 10
80.567143
 20
197.994580
 30
0.0
 10
80.567143
 20
197.596327
 30
0.0
 10
80.426583
 20
197.259397
 30
0.0
 10
80.145463
 20
196.983790
 30
0.0
  0
SPLINE
  5
201
100
AcDbEntity
  8
Layer_1
 62
7
100
AcDbSpline
 70
8
 71
3
 72
8
 73
4
 74
0
 40
0
 40
0
 40
0
 40
0
 40
1
 40
1
 40
1
 40
1
 10
80.145463
 20
196.983790
 30
0.0
 10
79.865721
 20
196.709557
 30
0.0
 10
79.521901
 20
196.572440
 30
0.0
 10
79.114002
 20
196.572440
 30
0.0
  0
SPLINE
  5
202
100
AcDbEntity
  8
Layer_1
 62
7
100
AcDbSpline
 70
8
 71
3
 72
8
 73
4
 74
0
 40
0
 40
0
 40
0
 40
0
 40
1
 40
1
 40
1
 40
1
 10
79.114002
 20
196.572440
 30
0.0
 10
78.711615
 20
196.572440
 30
0.0
 10
78.369172
 20
196.710933
 30
0.0
 10
78.086674
 20
196.987920
 30
0.0
  0
SPLINE
  5
203
100
AcDbEntity
  8
Layer_1
 62
7
100
AcDbSpline
 70
8
 71
3
 72
8
 73
4
 74
0
 40
0
 40
0
 40
0
 40
0
 40
1
 40
1
 40
1
 40
1
 10
78.086674
 20
196.987920
 30
0.0
 10
77.804176
 20
197.264907
 30
0.0
 10
77.662927
 20
197.600460
 30
0.0
 10
77.662927
 20
197.994580
 30
0.0
  0
LINE
  5
204
100
AcDbEntity
  8
Layer_1
 62
7
100
AcDbLine
 10
77.662927
 20
197.994580
 30
0.0
 11
77.662927
 21
197.994580
 31
0.0
  0
SPLINE
  5
205
100
AcDbEntity
  8
Layer_1
 62
7
100
AcDbSpline
 70
8
 71
3
 72
8
 73
4
 74
0
 40
0
 40
0
 40
0
 40
0
 40
1
 40
1
 40
1
 40
1
 10
80.184737
 20
197.978080
 30
0.0
 10
80.184737
 20
198.268847
 30
0.0
 10
80.080006
 20
198.513450
 30
0.0
 10
79.870544
 20
198.711890
 30
0.0
  0
SPLINE
  5
206
100
AcDbEntity
  8
Layer_1
 62
7
100
AcDbSpline
 70
8
 71
3
 72
8
 73
4
 74
0
 40
0
 40
0
 40
0
 40
0
 40
1
 40
1
 40
1
 40
1
 10
79.870544
 20
198.711890
 30
0.0
 10
79.661083
 20
198.911703
 30
0.0
 10
79.403390
 20
199.011610
 30
0.0
 10
79.097465
 20
199.011610
 30
0.0
  0
SPLINE
  5
207
100
AcDbEntity
  8
Layer_1
 62
7
100
AcDbSpline
 70
8
 71
3
 72
8
 73
4
 74
0
 40
0
 40
0
 40
0
 40
0
 40
1
 40
1
 40
1
 40
1
 10
79.097465
 20
199.011610
 30
0.0
 10
78.806699
 20
199.011610
 30
0.0
 10
78.557274
 20
198.910323
 30
0.0
 10
78.349190
 20
198.707750
 30
0.0
  0
SPLINE
  5
208
100
AcDbEntity
  8
Layer_1
 62
7
100
AcDbSpline
 70
8
 71
3
 72
8
 73
4
 74
0
 40
0
 40
0
 40
0
 40
0
 40
1
 40
1
 40
1
 40
1
 10
78.349190
 20
198.707750
 30
0.0
 10
78.142485
 20
198.505177
 30
0.0
 10
78.039132
 20
198.261953
 30
0.0
 10
78.039132
 20
197.978080
 30
0.0
  0
SPLINE
  5
209
100
AcDbEntity
  8
Layer_1
 62
7
100
AcDbSpline
 70
8
 71
3
 72
8
 73
4
 74
0
 40
0
 40
0
 40
0
 40
0
 40
1
 40
1
 40
1
 40
1
 10
78.039132
 20
197.978080
 30
0.0
 10
78.039132
 20
197.690073
 30
0.0
 10
78.145241
 20
197.446160
 30
0.0
 10
78.357459
 20
197.246340
 30
0.0
  0
SPLINE
  5
20a
100
AcDbEntity
  8
Layer_1
 62
7
100
AcDbSpline
 70
8
 71
3
 72
8
 73
4
 74
0
 40
0
 40
0
 40
0
 40
0
 40
1
 40
1
 40
1
 40
1
 10
78.357459
 20
197.246340
 30
0.0
 10
78.571054
 20
197.047907
 30
0.0
 10
78.832192
 20
196.948690
 30
0.0
 10
79.140873
 20
196.948690
 30
0.0
  0
SPLINE
  5
20b
100
AcDbEntity
  8
Layer_1
 62
7
100
AcDbSpline
 70
8
 71
3
 72
8
 73
4
 74
0
 40
0
 40
0
 40
0
 40
0
 40
1
 40
1
 40
1
 40
1
 10
79.140873
 20
196.948690
 30
0.0
 10
79.424749
 20
196.948690
 30
0.0
 10
79.669351
 20
197.049973
 30
0.0
 10
79.874679
 20
197.252540
 30
0.0
  0
SPLINE
  5
20c
100
AcDbEntity
  8
Layer_1
 62
7
100
AcDbSpline
 70
8
 71
3
 72
8
 73
4
 74
0
 40
0
 40
0
 40
0
 40
0
 40
1
 40
1
 40
1
 40
1
 10
79.874679
 20
197.252540
 30
0.0
 10
80.081384
 20
197.456493
 30
0.0
 10
80.184737
 20
197.698340
 30
0.0
 10
80.184737
 20
197.978080
 30
0.0
  0
LINE
  5
20d
100
AcDbEntity
  8
Layer_1
 62
7
100
AcDbLine
 10
80.184737
 20
197.978080
 30
0.0
 11
80.184737
 21
197.978080
 31
0.0
  0
LINE
  5
20e
100
AcDbEntity
  8
Layer_1
 62
7
100
AcDbLine
 10
81.094242
 20
199.294760
 30
0.0
 11
81.664750
 21
199.294760
 31
0.0
  0
SPLINE
  5
20f
100
AcDbEntity
  8
Layer_1
 62
7
100
AcDbSpline
 70
8
 71
3
 72
8
 73
4
 74
0
 40
0
 40
0
 40
0
 40
0
 40
1
 40
1
 40
1
 40
1
 10
81.664750
 20
199.294760
 30
0.0
 10
81.948626
 20
199.294760
 30
0.0
 10
82.179447
 20
199.223790
 30
0.0
 10
82.357214
 20
199.081850
 30
0.0
  0
SPLINE
  5
210
100
AcDbEntity
  8
Layer_1
 62
7
100
AcDbSpline
 70
8
 71
3
 72
8
 73
4
 74
0
 40
0
 40
0
 40
0
 40
0
 40
1
 40
1
 40
1
 40
1
 10
82.357214
 20
199.081850
 30
0.0
 10
82.536359
 20
198.941290
 30
0.0
 10
82.625932
 20
198.760767
 30
0.0
 10
82.625932
 20
198.540280
 30
0.0
  0
SPLINE
  5
211
100
AcDbEntity
  8
Layer_1
 62
7
100
AcDbSpline
 70
8
 71
3
 72
8
 73
4
 74
0
 40
0
 40
0
 40
0
 40
0
 40
1
 40
1
 40
1
 40
1
 10
82.625932
 20
198.540280
 30
0.0
 10
82.625932
 20
198.363893
 30
0.0
 10
82.568054
 20
198.208177
 30
0.0
 10
82.452299
 20
198.073130
 30
0.0
  0
SPLINE
  5
212
100
AcDbEntity
  8
Layer_1
 62
7
100
AcDbSpline
 70
8
 71
3
 72
8
 73
4
 74
0
 40
0
 40
0
 40
0
 40
0
 40
1
 40
1
 40
1
 40
1
 10
82.452299
 20
198.073130
 30
0.0
 10
82.336544
 20
197.938077
 30
0.0
 10
82.156021
 20
197.842990
 30
0.0
 10
81.910730
 20
197.787870
 30
0.0
  0
LINE
  5
213
100
AcDbEntity
  8
Layer_1
 62
7
100
AcDbLine
 10
81.910730
 20
197.787870
 30
0.0
 11
82.677608
 21
196.661330
 31
0.0
  0
LINE
  5
214
100
AcDbEntity
  8
Layer_1
 62
7
100
AcDbLine
 10
82.677608
 20
196.661330
 30
0.0
 11
82.266264
 21
196.661330
 31
0.0
  0
LINE
  5
215
100
AcDbEntity
  8
Layer_1
 62
7
100
AcDbLine
 10
82.266264
 20
196.661330
 30
0.0
 11
81.534526
 21
197.744460
 31
0.0
  0
LINE
  5
216
100
AcDbEntity
  8
Layer_1
 62
7
100
AcDbLine
 10
81.534526
 20
197.744460
 30
0.0
 11
81.453906
 21
197.744460
 31
0.0
  0
LINE
  5
217
100
AcDbEntity
  8
Layer_1
 62
7
100
AcDbLine
 10
81.453906
 20
197.744460
 30
0.0
 11
81.453906
 21
196.661330
 31
0.0
  0
LINE
  5
218
100
AcDbEntity
  8
Layer_1
 62
7
100
AcDbLine
 10
81.453906
 20
196.661330
 30
0.0
 11
81.094238
 21
196.661330
 31
0.0
  0
LINE
  5
219
100
AcDbEntity
  8
Layer_1
 62
7
100
AcDbLine
 10
81.094238
 20
196.661330
 30
0.0
 11
81.094242
 21
199.294760
 31
0.0
  0
LINE
  5
21a
100
AcDbEntity
  8
Layer_1
 62
7
100
AcDbLine
 10
81.453910
 20
198.976430
 30
0.0
 11
81.453910
 21
198.058660
 31
0.0
  0
SPLINE
  5
21b
100
AcDbEntity
  8
Layer_1
 62
7
100
AcDbSpline
 70
8
 71
3
 72
8
 73
4
 74
0
 40
0
 40
0
 40
0
 40
0
 40
1
 40
1
 40
1
 40
1
 10
81.453910
 20
198.058660
 30
0.0
 10
81.984455
 20
198.047660
 30
0.0
 10
82.249727
 20
198.201310
 30
0.0
 10
82.249727
 20
198.519610
 30
0.0
  0
SPLINE
  5
21c
100
AcDbEntity
  8
Layer_1
 62
7
100
AcDbSpline
 70
8
 71
3
 72
8
 73
4
 74
0
 40
0
 40
0
 40
0
 40
0
 40
1
 40
1
 40
1
 40
1
 10
82.249727
 20
198.519610
 30
0.0
 10
82.249727
 20
198.631230
 30
0.0
 10
82.218720
 20
198.722180
 30
0.0
 10
82.156707
 20
198.792460
 30
0.0
  0
SPLINE
  5
21d
100
AcDbEntity
  8
Layer_1
 62
7
100
AcDbSpline
 70
8
 71
3
 72
8
 73
4
 74
0
 40
0
 40
0
 40
0
 40
0
 40
1
 40
1
 40
1
 40
1
 10
82.156707
 20
198.792460
 30
0.0
 10
82.094694
 20
198.864120
 30
0.0
 10
82.012011
 20
198.912353
 30
0.0
 10
81.908660
 20
198.937160
 30
0.0
  0
SPLINE
  5
21e
100
AcDbEntity
  8
Layer_1
 62
7
100
AcDbSpline
 70
8
 71
3
 72
8
 73
4
 74
0
 40
0
 40
0
 40
0
 40
0
 40
1
 40
1
 40
1
 40
1
 10
81.908660
 20
198.937160
 30
0.0
 10
81.805307
 20
198.963360
 30
0.0
 10
81.653723
 20
198.976460
 30
0.0
 10
81.453907
 20
198.976460
 30
0.0
  0
LINE
  5
21f
100
AcDbEntity
  8
Layer_1
 62
7
100
AcDbLine
 10
81.453907
 20
198.976460
 30
0.0
 11
81.453910
 21
198.976430
 31
0.0
  0
LINE
  5
220
100
AcDbEntity
  8
Layer_1
 62
7
100
AcDbLine
 10
83.206775
 20
199.294760
 30
0.0
 11
83.624320
 21
199.294760
 31
0.0
  0
SPLINE
  5
221
100
AcDbEntity
  8
Layer_1
 62
7
100
AcDbSpline
 70
8
 71
3
 72
8
 73
4
 74
0
 40
0
 40
0
 40
0
 40
0
 40
1
 40
1
 40
1
 40
1
 10
83.624320
 20
199.294760
 30
0.0
 10
83.898550
 20
199.294760
 30
0.0
 10
84.122481
 20
199.234813
 30
0.0
 10
84.296114
 20
199.114920
 30
0.0
  0
SPLINE
  5
222
100
AcDbEntity
  8
Layer_1
 62
7
100
AcDbSpline
 70
8
 71
3
 72
8
 73
4
 74
0
 40
0
 40
0
 40
0
 40
0
 40
1
 40
1
 40
1
 40
1
 10
84.296114
 20
199.114920
 30
0.0
 10
84.469747
 20
198.996413
 30
0.0
 10
84.556563
 20
198.846207
 30
0.0
 10
84.556563
 20
198.664300
 30
0.0
  0
SPLINE
  5
223
100
AcDbEntity
  8
Layer_1
 62
7
100
AcDbSpline
 70
8
 71
3
 72
8
 73
4
 74
0
 40
0
 40
0
 40
0
 40
0
 40
1
 40
1
 40
1
 40
1
 10
84.556563
 20
198.664300
 30
0.0
 10
84.556563
 20
198.442440
 30
0.0
 10
84.428406
 20
198.257097
 30
0.0
 10
84.172091
 20
198.108270
 30
0.0
  0
SPLINE
  5
224
100
AcDbEntity
  8
Layer_1
 62
7
100
AcDbSpline
 70
8
 71
3
 72
8
 73
4
 74
0
 40
0
 40
0
 40
0
 40
0
 40
1
 40
1
 40
1
 40
1
 10
84.172091
 20
198.108270
 30
0.0
 10
84.568966
 20
197.975977
 30
0.0
 10
84.767403
 20
197.746533
 30
0.0
 10
84.767403
 20
197.419940
 30
0.0
  0
SPLINE
  5
225
100
AcDbEntity
  8
Layer_1
 62
7
100
AcDbSpline
 70
8
 71
3
 72
8
 73
4
 74
0
 40
0
 40
0
 40
0
 40
0
 40
1
 40
1
 40
1
 40
1
 10
84.767403
 20
197.419940
 30
0.0
 10
84.767403
 20
197.192560
 30
0.0
 10
84.664739
 20
197.009280
 30
0.0
 10
84.459412
 20
196.870100
 30
0.0
  0
SPLINE
  5
226
100
AcDbEntity
  8
Layer_1
 62
7
100
AcDbSpline
 70
8
 71
3
 72
8
 73
4
 74
0
 40
0
 40
0
 40
0
 40
0
 40
1
 40
1
 40
1
 40
1
 10
84.459412
 20
196.870100
 30
0.0
 10
84.255462
 20
196.730920
 30
0.0
 10
83.981921
 20
196.661330
 30
0.0
 10
83.638790
 20
196.661330
 30
0.0
  0
LINE
  5
227
100
AcDbEntity
  8
Layer_1
 62
7
100
AcDbLine
 10
83.638790
 20
196.661330
 30
0.0
 11
83.206775
 21
196.661330
 31
0.0
  0
LINE
  5
228
100
AcDbEntity
  8
Layer_1
 62
7
100
AcDbLine
 10
83.206775
 20
196.661330
 30
0.0
 11
83.206775
 21
199.294760
 31
0.0
  0
LINE
  5
229
100
AcDbEntity
  8
Layer_1
 62
7
100
AcDbLine
 10
83.562309
 20
198.976430
 30
0.0
 11
83.562309
 21
198.197150
 31
0.0
  0
SPLINE
  5
22a
100
AcDbEntity
  8
Layer_1
 62
7
100
AcDbSpline
 70
8
 71
3
 72
8
 73
4
 74
0
 40
0
 40
0
 40
0
 40
0
 40
1
 40
1
 40
1
 40
1
 10
83.562309
 20
198.197150
 30
0.0
 10
83.760746
 20
198.199817
 30
0.0
 10
83.912330
 20
198.237713
 30
0.0
 10
84.017061
 20
198.310840
 30
0.0
  0
SPLINE
  5
22b
100
AcDbEntity
  8
Layer_1
 62
7
100
AcDbSpline
 70
8
 71
3
 72
8
 73
4
 74
0
 40
0
 40
0
 40
0
 40
0
 40
1
 40
1
 40
1
 40
1
 10
84.017061
 20
198.310840
 30
0.0
 10
84.123170
 20
198.383873
 30
0.0
 10
84.176225
 20
198.484470
 30
0.0
 10
84.176225
 20
198.612630
 30
0.0
  0
SPLINE
  5
22c
100
AcDbEntity
  8
Layer_1
 62
7
100
AcDbSpline
 70
8
 71
3
 72
8
 73
4
 74
0
 40
0
 40
0
 40
0
 40
0
 40
1
 40
1
 40
1
 40
1
 10
84.176225
 20
198.612630
 30
0.0
 10
84.176225
 20
198.724250
 30
0.0
 10
84.128683
 20
198.813133
 30
0.0
 10
84.033598
 20
198.879280
 30
0.0
  0
SPLINE
  5
22d
100
AcDbEntity
  8
Layer_1
 62
7
100
AcDbSpline
 70
8
 71
3
 72
8
 73
4
 74
0
 40
0
 40
0
 40
0
 40
0
 40
1
 40
1
 40
1
 40
1
 10
84.033598
 20
198.879280
 30
0.0
 10
83.938513
 20
198.946800
 30
0.0
 10
83.811045
 20
198.980560
 30
0.0
 10
83.651192
 20
198.980560
 30
0.0
  0
SPLINE
  5
22e
100
AcDbEntity
  8
Layer_1
 62
7
100
AcDbSpline
 70
8
 71
3
 72
8
 73
4
 74
0
 40
0
 40
0
 40
0
 40
0
 40
1
 40
1
 40
1
 40
1
 10
83.651192
 20
198.980560
 30
0.0
 10
83.616739
 20
198.980560
 30
0.0
 10
83.587112
 20
198.979227
 30
0.0
 10
83.562312
 20
198.976560
 30
0.0
  0
LINE
  5
22f
100
AcDbEntity
  8
Layer_1
 62
7
100
AcDbLine
 10
83.562312
 20
198.976560
 30
0.0
 11
83.562309
 21
198.976430
 31
0.0
  0
LINE
  5
230
100
AcDbEntity
  8
Layer_1
 62
7
100
AcDbLine
 10
83.562309
 20
197.885020
 30
0.0
 11
83.562309
 21
196.983790
 31
0.0
  0
LINE
  5
231
100
AcDbEntity
  8
Layer_1
 62
7
100
AcDbLine
 10
83.562309
 20
196.983790
 30
0.0
 11
83.591249
 21
196.983790
 31
0.0
  0
SPLINE
  5
232
100
AcDbEntity
  8
Layer_1
 62
7
100
AcDbSpline
 70
8
 71
3
 72
8
 73
4
 74
0
 40
0
 40
0
 40
0
 40
0
 40
1
 40
1
 40
1
 40
1
 10
83.591249
 20
196.983790
 30
0.0
 10
83.901307
 20
196.983790
 30
0.0
 10
84.112836
 20
197.033397
 30
0.0
 10
84.225835
 20
197.132610
 30
0.0
  0
SPLINE
  5
233
100
AcDbEntity
  8
Layer_1
 62
7
100
AcDbSpline
 70
8
 71
3
 72
8
 73
4
 74
0
 40
0
 40
0
 40
0
 40
0
 40
1
 40
1
 40
1
 40
1
 10
84.225835
 20
197.132610
 30
0.0
 10
84.338834
 20
197.231830
 30
0.0
 10
84.395334
 20
197.333117
 30
0.0
 10
84.395334
 20
197.436470
 30
0.0
  0
SPLINE
  5
234
100
AcDbEntity
  8
Layer_1
 62
7
100
AcDbSpline
 70
8
 71
3
 72
8
 73
4
 74
0
 40
0
 40
0
 40
0
 40
0
 40
1
 40
1
 40
1
 40
1
 10
84.395334
 20
197.436470
 30
0.0
 10
84.395334
 20
197.572897
 30
0.0
 10
84.331944
 20
197.681763
 30
0.0
 10
84.205164
 20
197.763070
 30
0.0
  0
SPLINE
  5
235
100
AcDbEntity
  8
Layer_1
 62
7
100
AcDbSpline
 70
8
 71
3
 72
8
 73
4
 74
0
 40
0
 40
0
 40
0
 40
0
 40
1
 40
1
 40
1
 40
1
 10
84.205164
 20
197.763070
 30
0.0
 10
84.078385
 20
197.844370
 30
0.0
 10
83.904752
 20
197.885020
 30
0.0
 10
83.684266
 20
197.885020
 30
0.0
  0
LINE
  5
236
100
AcDbEntity
  8
Layer_1
 62
7
100
AcDbLine
 10
83.684266
 20
197.885020
 30
0.0
 11
83.562309
 21
197.885020
 31
0.0
  0
LINE
  5
237
100
AcDbEntity
  8
Layer_1
 62
7
100
AcDbLine
 10
85.267631
 20
199.294760
 30
0.0
 11
85.623165
 21
199.294760
 31
0.0
  0
LINE
  5
238
100
AcDbEntity
  8
Layer_1
 62
7
100
AcDbLine
 10
85.623165
 20
199.294760
 30
0.0
 11
85.623165
 21
196.661330
 31
0.0
  0
LINE
  5
239
100
AcDbEntity
  8
Layer_1
 62
7
100
AcDbLine
 10
85.623165
 20
196.661330
 30
0.0
 11
85.267631
 21
196.661330
 31
0.0
  0
LINE
  5
23a
100
AcDbEntity
  8
Layer_1
 62
7
100
AcDbLine
 10
85.267631
 20
196.661330
 30
0.0
 11
85.267631
 21
199.294760
 31
0.0
  0
LINE
  5
23b
100
AcDbEntity
  8
Layer_1
 62
7
100
AcDbLine
 10
86.036576
 20
199.294760
 30
0.0
 11
87.646814
 21
199.294760
 31
0.0
  0
LINE
  5
23c
100
AcDbEntity
  8
Layer_1
 62
7
100
AcDbLine
 10
87.646814
 20
199.294760
 30
0.0
 11
87.646814
 21
198.935090
 31
0.0
  0
LINE
  5
23d
100
AcDbEntity
  8
Layer_1
 62
7
100
AcDbLine
 10
87.646814
 20
198.935090
 30
0.0
 11
87.018429
 21
198.935090
 31
0.0
  0
LINE
  5
23e
100
AcDbEntity
  8
Layer_1
 62
7
100
AcDbLine
 10
87.018429
 20
198.935090
 30
0.0
 11
87.018429
 21
196.661330
 31
0.0
  0
LINE
  5
23f
100
AcDbEntity
  8
Layer_1
 62
7
100
AcDbLine
 10
87.018429
 20
196.661330
 30
0.0
 11
86.662895
 21
196.661330
 31
0.0
  0
LINE
  5
240
100
AcDbEntity
  8
Layer_1
 62
7
100
AcDbLine
 10
86.662895
 20
196.661330
 30
0.0
 11
86.662895
 21
198.935090
 31
0.0
  0
LINE
  5
241
100
AcDbEntity
  8
Layer_1
 62
7
100
AcDbLine
 10
86.662895
 20
198.935090
 30
0.0
 11
86.036576
 21
198.935090
 31
0.0
  0
LINE
  5
242
100
AcDbEntity
  8
Layer_1
 62
7
100
AcDbLine
 10
86.036576
 20
198.935090
 30
0.0
 11
86.036576
 21
199.294760
 31
0.0
  0
LINE
  5
243
100
AcDbEntity
  8
Layer_1
 62
7
100
AcDbLine
 10
77.369629
 20
208.757870
 30
0.0
 11
77.369629
 21
208.350660
 31
0.0
  0
SPLINE
  5
244
100
AcDbEntity
  8
Layer_1
 62
7
100
AcDbSpline
 70
8
 71
3
 72
8
 73
4
 74
0
 40
0
 40
0
 40
0
 40
0
 40
1
 40
1
 40
1
 40
1
 10
77.369629
 20
208.350660
 30
0.0
 10
77.085753
 20
208.489847
 30
0.0
 10
76.824615
 20
208.559440
 30
0.0
 10
76.586214
 20
208.559440
 30
0.0
  0
SPLINE
  5
245
100
AcDbEntity
  8
Layer_1
 62
7
100
AcDbSpline
 70
8
 71
3
 72
8
 73
4
 74
0
 40
0
 40
0
 40
0
 40
0
 40
1
 40
1
 40
1
 40
1
 10
76.586214
 20
208.559440
 30
0.0
 10
76.280290
 20
208.559440
 30
0.0
 10
76.022597
 20
208.460220
 30
0.0
 10
75.813135
 20
208.261780
 30
0.0
  0
SPLINE
  5
246
100
AcDbEntity
  8
Layer_1
 62
7
100
AcDbSpline
 70
8
 71
3
 72
8
 73
4
 74
0
 40
0
 40
0
 40
0
 40
0
 40
1
 40
1
 40
1
 40
1
 10
75.813135
 20
208.261780
 30
0.0
 10
75.603673
 20
208.064720
 30
0.0
 10
75.498942
 20
207.822187
 30
0.0
 10
75.498942
 20
207.534180
 30
0.0
  0
SPLINE
  5
247
100
AcDbEntity
  8
Layer_1
 62
7
100
AcDbSpline
 70
8
 71
3
 72
8
 73
4
 74
0
 40
0
 40
0
 40
0
 40
0
 40
1
 40
1
 40
1
 40
1
 10
75.498942
 20
207.534180
 30
0.0
 10
75.498942
 20
207.240653
 30
0.0
 10
75.605740
 20
206.995360
 30
0.0
 10
75.819336
 20
206.798300
 30
0.0
  0
SPLINE
  5
248
100
AcDbEntity
  8
Layer_1
 62
7
100
AcDbSpline
 70
8
 71
3
 72
8
 73
4
 74
0
 40
0
 40
0
 40
0
 40
0
 40
1
 40
1
 40
1
 40
1
 10
75.819336
 20
206.798300
 30
0.0
 10
76.034310
 20
206.602620
 30
0.0
 10
76.303027
 20
206.504780
 30
0.0
 10
76.625488
 20
206.504780
 30
0.0
  0
SPLINE
  5
249
100
AcDbEntity
  8
Layer_1
 62
7
100
AcDbSpline
 70
8
 71
3
 72
8
 73
4
 74
0
 40
0
 40
0
 40
0
 40
0
 40
1
 40
1
 40
1
 40
1
 10
76.625488
 20
206.504780
 30
0.0
 10
76.859755
 20
206.504780
 30
0.0
 10
77.107802
 20
206.578507
 30
0.0
 10
77.369629
 20
206.725960
 30
0.0
  0
LINE
  5
24a
100
AcDbEntity
  8
Layer_1
 62
7
100
AcDbLine
 10
77.369629
 20
206.725960
 30
0.0
 11
77.369629
 21
206.314610
 31
0.0
  0
SPLINE
  5
24b
100
AcDbEntity
  8
Layer_1
 62
7
100
AcDbSpline
 70
8
 71
3
 72
8
 73
4
 74
0
 40
0
 40
0
 40
0
 40
0
 40
1
 40
1
 40
1
 40
1
 10
77.369629
 20
206.314610
 30
0.0
 10
77.131228
 20
206.187830
 30
0.0
 10
76.872846
 20
206.124440
 30
0.0
 10
76.594483
 20
206.124440
 30
0.0
  0
SPLINE
  5
24c
100
AcDbEntity
  8
Layer_1
 62
7
100
AcDbSpline
 70
8
 71
3
 72
8
 73
4
 74
0
 40
0
 40
0
 40
0
 40
0
 40
1
 40
1
 40
1
 40
1
 10
76.594483
 20
206.124440
 30
0.0
 10
76.186584
 20
206.124440
 30
0.0
 10
75.837940
 20
206.262247
 30
0.0
 10
75.548552
 20
206.537860
 30
0.0
  0
SPLINE
  5
24d
100
AcDbEntity
  8
Layer_1
 62
7
100
AcDbSpline
 70
8
 71
3
 72
8
 73
4
 74
0
 40
0
 40
0
 40
0
 40
0
 40
1
 40
1
 40
1
 40
1
 10
75.548552
 20
206.537860
 30
0.0
 10
75.259164
 20
206.814840
 30
0.0
 10
75.114470
 20
207.148323
 30
0.0
 10
75.114470
 20
207.538310
 30
0.0
  0
SPLINE
  5
24e
100
AcDbEntity
  8
Layer_1
 62
7
100
AcDbSpline
 70
8
 71
3
 72
8
 73
4
 74
0
 40
0
 40
0
 40
0
 40
0
 40
1
 40
1
 40
1
 40
1
 10
75.114470
 20
207.538310
 30
0.0
 10
75.114470
 20
207.921403
 30
0.0
 10
75.256408
 20
208.249377
 30
0.0
 10
75.540283
 20
208.522230
 30
0.0
  0
SPLINE
  5
24f
100
AcDbEntity
  8
Layer_1
 62
7
100
AcDbSpline
 70
8
 71
3
 72
8
 73
4
 74
0
 40
0
 40
0
 40
0
 40
0
 40
1
 40
1
 40
1
 40
1
 10
75.540283
 20
208.522230
 30
0.0
 10
75.825537
 20
208.795083
 30
0.0
 10
76.168669
 20
208.931510
 30
0.0
 10
76.569678
 20
208.931510
 30
0.0
  0
SPLINE
  5
250
100
AcDbEntity
  8
Layer_1
 62
7
100
AcDbSpline
 70
8
 71
3
 72
8
 73
4
 74
0
 40
0
 40
0
 40
0
 40
0
 40
1
 40
1
 40
1
 40
1
 10
76.569678
 20
208.931510
 30
0.0
 10
76.827371
 20
208.931510
 30
0.0
 10
77.094022
 20
208.873630
 30
0.0
 10
77.369629
 20
208.757870
 30
0.0
  0
LINE
  5
251
100
AcDbEntity
  8
Layer_1
 62
7
100
AcDbLine
 10
77.369629
 20
208.757870
 30
0.0
 11
77.369629
 21
208.757870
 31
0.0
  0
LINE
  5
252
100
AcDbEntity
  8
Layer_1
 62
7
100
AcDbLine
 10
77.807845
 20
208.846760
 30
0.0
 11
78.167513
 21
208.846760
 31
0.0
  0
LINE
  5
253
100
AcDbEntity
  8
Layer_1
 62
7
100
AcDbLine
 10
78.167513
 20
208.846760
 30
0.0
 11
78.167513
 21
207.833900
 31
0.0
  0
LINE
  5
254
100
AcDbEntity
  8
Layer_1
 62
7
100
AcDbLine
 10
78.167513
 20
207.833900
 30
0.0
 11
79.426351
 21
207.833900
 31
0.0
  0
LINE
  5
255
100
AcDbEntity
  8
Layer_1
 62
7
100
AcDbLine
 10
79.426351
 20
207.833900
 30
0.0
 11
79.426351
 21
208.846760
 31
0.0
  0
LINE
  5
256
100
AcDbEntity
  8
Layer_1
 62
7
100
AcDbLine
 10
79.426351
 20
208.846760
 30
0.0
 11
79.781885
 21
208.846760
 31
0.0
  0
LINE
  5
257
100
AcDbEntity
  8
Layer_1
 62
7
100
AcDbLine
 10
79.781885
 20
208.846760
 30
0.0
 11
79.781885
 21
206.213330
 31
0.0
  0
LINE
  5
258
100
AcDbEntity
  8
Layer_1
 62
7
100
AcDbLine
 10
79.781885
 20
206.213330
 30
0.0
 11
79.426351
 21
206.213330
 31
0.0
  0
LINE
  5
259
100
AcDbEntity
  8
Layer_1
 62
7
100
AcDbLine
 10
79.426351
 20
206.213330
 30
0.0
 11
79.426351
 21
207.478370
 31
0.0
  0
LINE
  5
25a
100
AcDbEntity
  8
Layer_1
 62
7
100
AcDbLine
 10
79.426351
 20
207.478370
 30
0.0
 11
78.167513
 21
207.478370
 31
0.0
  0
LINE
  5
25b
100
AcDbEntity
  8
Layer_1
 62
7
100
AcDbLine
 10
78.167513
 20
207.478370
 30
0.0
 11
78.167513
 21
206.213330
 31
0.0
  0
LINE
  5
25c
100
AcDbEntity
  8
Layer_1
 62
7
100
AcDbLine
 10
78.167513
 20
206.213330
 30
0.0
 11
77.807845
 21
206.213330
 31
0.0
  0
LINE
  5
25d
100
AcDbEntity
  8
Layer_1
 62
7
100
AcDbLine
 10
77.807845
 20
206.213330
 30
0.0
 11
77.807845
 21
208.846760
 31
0.0
  0
LINE
  5
25e
100
AcDbEntity
  8
Layer_1
 62
7
100
AcDbLine
 10
81.332178
 20
208.948040
 30
0.0
 11
82.576546
 21
206.213330
 31
0.0
  0
LINE
  5
25f
100
AcDbEntity
  8
Layer_1
 62
7
100
AcDbLine
 10
82.576546
 20
206.213330
 30
0.0
 11
82.200342
 21
206.213330
 31
0.0
  0
LINE
  5
260
100
AcDbEntity
  8
Layer_1
 62
7
100
AcDbLine
 10
82.200342
 20
206.213330
 30
0.0
 11
81.892350
 21
206.887190
 31
0.0
  0
LINE
  5
261
100
AcDbEntity
  8
Layer_1
 62
7
100
AcDbLine
 10
81.892350
 20
206.887190
 30
0.0
 11
80.774072
 21
206.887190
 31
0.0
  0
LINE
  5
262
100
AcDbEntity
  8
Layer_1
 62
7
100
AcDbLine
 10
80.774072
 20
206.887190
 30
0.0
 11
80.474349
 21
206.213330
 31
0.0
  0
LINE
  5
263
100
AcDbEntity
  8
Layer_1
 62
7
100
AcDbLine
 10
80.474349
 20
206.213330
 30
0.0
 11
80.100212
 21
206.213330
 31
0.0
  0
LINE
  5
264
100
AcDbEntity
  8
Layer_1
 62
7
100
AcDbLine
 10
80.100212
 20
206.213330
 30
0.0
 11
81.332178
 21
208.948040
 31
0.0
  0
LINE
  5
265
100
AcDbEntity
  8
Layer_1
 62
7
100
AcDbLine
 10
81.332178
 20
208.123290
 30
0.0
 11
80.908431
 21
207.186910
 31
0.0
  0
LINE
  5
266
100
AcDbEntity
  8
Layer_1
 62
7
100
AcDbLine
 10
80.908431
 20
207.186910
 30
0.0
 11
81.755924
 21
207.186910
 31
0.0
  0
LINE
  5
267
100
AcDbEntity
  8
Layer_1
 62
7
100
AcDbLine
 10
81.755924
 20
207.186910
 30
0.0
 11
81.332178
 21
208.123290
 31
0.0
  0
LINE
  5
268
100
AcDbEntity
  8
Layer_1
 62
7
100
AcDbLine
 10
84.513379
 20
208.555300
 30
0.0
 11
84.221924
 21
208.321730
 31
0.0
  0
SPLINE
  5
269
100
AcDbEntity
  8
Layer_1
 62
7
100
AcDbSpline
 70
8
 71
3
 72
8
 73
4
 74
0
 40
0
 40
0
 40
0
 40
0
 40
1
 40
1
 40
1
 40
1
 10
84.221924
 20
208.321730
 30
0.0
 10
84.144753
 20
208.401650
 30
0.0
 10
84.074473
 20
208.460903
 30
0.0
 10
84.011084
 20
208.499490
 30
0.0
  0
SPLINE
  5
26a
100
AcDbEntity
  8
Layer_1
 62
7
100
AcDbSpline
 70
8
 71
3
 72
8
 73
4
 74
0
 40
0
 40
0
 40
0
 40
0
 40
1
 40
1
 40
1
 40
1
 10
84.011084
 20
208.499490
 30
0.0
 10
83.949071
 20
208.539423
 30
0.0
 10
83.858809
 20
208.559390
 30
0.0
 10
83.740299
 20
208.559390
 30
0.0
  0
SPLINE
  5
26b
100
AcDbEntity
  8
Layer_1
 62
7
100
AcDbSpline
 70
8
 71
3
 72
8
 73
4
 74
0
 40
0
 40
0
 40
0
 40
0
 40
1
 40
1
 40
1
 40
1
 10
83.740299
 20
208.559390
 30
0.0
 10
83.610764
 20
208.559390
 30
0.0
 10
83.505344
 20
208.529757
 30
0.0
 10
83.424039
 20
208.470490
 30
0.0
  0
SPLINE
  5
26c
100
AcDbEntity
  8
Layer_1
 62
7
100
AcDbSpline
 70
8
 71
3
 72
8
 73
4
 74
0
 40
0
 40
0
 40
0
 40
0
 40
1
 40
1
 40
1
 40
1
 10
83.424039
 20
208.470490
 30
0.0
 10
83.344113
 20
208.412623
 30
0.0
 10
83.304150
 20
208.337520
 30
0.0
 10
83.304150
 20
208.245180
 30
0.0
  0
SPLINE
  5
26d
100
AcDbEntity
  8
Layer_1
 62
7
100
AcDbSpline
 70
8
 71
3
 72
8
 73
4
 74
0
 40
0
 40
0
 40
0
 40
0
 40
1
 40
1
 40
1
 40
1
 10
83.304150
 20
208.245180
 30
0.0
 10
83.304150
 20
208.165260
 30
0.0
 10
83.339290
 20
208.094293
 30
0.0
 10
83.409570
 20
208.032280
 30
0.0
  0
SPLINE
  5
26e
100
AcDbEntity
  8
Layer_1
 62
7
100
AcDbSpline
 70
8
 71
3
 72
8
 73
4
 74
0
 40
0
 40
0
 40
0
 40
0
 40
1
 40
1
 40
1
 40
1
 10
83.409570
 20
208.032280
 30
0.0
 10
83.479850
 20
207.971680
 30
0.0
 10
83.599739
 20
207.904843
 30
0.0
 10
83.769238
 20
207.831770
 30
0.0
  0
SPLINE
  5
26f
100
AcDbEntity
  8
Layer_1
 62
7
100
AcDbSpline
 70
8
 71
3
 72
8
 73
4
 74
0
 40
0
 40
0
 40
0
 40
0
 40
1
 40
1
 40
1
 40
1
 10
83.769238
 20
207.831770
 30
0.0
 10
83.938737
 20
207.760117
 30
0.0
 10
84.070339
 20
207.692593
 30
0.0
 10
84.164046
 20
207.629200
 30
0.0
  0
SPLINE
  5
270
100
AcDbEntity
  8
Layer_1
 62
7
100
AcDbSpline
 70
8
 71
3
 72
8
 73
4
 74
0
 40
0
 40
0
 40
0
 40
0
 40
1
 40
1
 40
1
 40
1
 10
84.164046
 20
207.629200
 30
0.0
 10
84.259131
 20
207.567200
 30
0.0
 10
84.336990
 20
207.498300
 30
0.0
 10
84.397623
 20
207.422500
 30
0.0
  0
SPLINE
  5
271
100
AcDbEntity
  8
Layer_1
 62
7
100
AcDbSpline
 70
8
 71
3
 72
8
 73
4
 74
0
 40
0
 40
0
 40
0
 40
0
 40
1
 40
1
 40
1
 40
1
 10
84.397623
 20
207.422500
 30
0.0
 10
84.458256
 20
207.346707
 30
0.0
 10
84.503043
 20
207.266780
 30
0.0
 10
84.531982
 20
207.182720
 30
0.0
  0
SPLINE
  5
272
100
AcDbEntity
  8
Layer_1
 62
7
100
AcDbSpline
 70
8
 71
3
 72
8
 73
4
 74
0
 40
0
 40
0
 40
0
 40
0
 40
1
 40
1
 40
1
 40
1
 10
84.531982
 20
207.182720
 30
0.0
 10
84.562295
 20
207.098660
 30
0.0
 10
84.577452
 20
207.009777
 30
0.0
 10
84.577452
 20
206.916070
 30
0.0
  0
SPLINE
  5
273
100
AcDbEntity
  8
Layer_1
 62
7
100
AcDbSpline
 70
8
 71
3
 72
8
 73
4
 74
0
 40
0
 40
0
 40
0
 40
0
 40
1
 40
1
 40
1
 40
1
 10
84.577452
 20
206.916070
 30
0.0
 10
84.577452
 20
206.696957
 30
0.0
 10
84.497526
 20
206.510230
 30
0.0
 10
84.337674
 20
206.355890
 30
0.0
  0
SPLINE
  5
274
100
AcDbEntity
  8
Layer_1
 62
7
100
AcDbSpline
 70
8
 71
3
 72
8
 73
4
 74
0
 40
0
 40
0
 40
0
 40
0
 40
1
 40
1
 40
1
 40
1
 10
84.337674
 20
206.355890
 30
0.0
 10
84.179199
 20
206.201550
 30
0.0
 10
83.986963
 20
206.124380
 30
0.0
 10
83.760965
 20
206.124380
 30
0.0
  0
SPLINE
  5
275
100
AcDbEntity
  8
Layer_1
 62
7
100
AcDbSpline
 70
8
 71
3
 72
8
 73
4
 74
0
 40
0
 40
0
 40
0
 40
0
 40
1
 40
1
 40
1
 40
1
 10
83.760965
 20
206.124380
 30
0.0
 10
83.540479
 20
206.124380
 30
0.0
 10
83.345487
 20
206.184327
 30
0.0
 10
83.175988
 20
206.304220
 30
0.0
  0
SPLINE
  5
276
100
AcDbEntity
  8
Layer_1
 62
7
100
AcDbSpline
 70
8
 71
3
 72
8
 73
4
 74
0
 40
0
 40
0
 40
0
 40
0
 40
1
 40
1
 40
1
 40
1
 10
83.175988
 20
206.304220
 30
0.0
 10
83.007867
 20
206.425487
 30
0.0
 10
82.878332
 20
206.606697
 30
0.0
 10
82.787381
 20
206.847850
 30
0.0
  0
LINE
  5
277
100
AcDbEntity
  8
Layer_1
 62
7
100
AcDbLine
 10
82.787381
 20
206.847850
 30
0.0
 11
83.147049
 21
206.949140
 31
0.0
  0
SPLINE
  5
278
100
AcDbEntity
  8
Layer_1
 62
7
100
AcDbSpline
 70
8
 71
3
 72
8
 73
4
 74
0
 40
0
 40
0
 40
0
 40
0
 40
1
 40
1
 40
1
 40
1
 10
83.147049
 20
206.949140
 30
0.0
 10
83.277962
 20
206.652860
 30
0.0
 10
83.478467
 20
206.504720
 30
0.0
 10
83.748562
 20
206.504720
 30
0.0
  0
SPLINE
  5
279
100
AcDbEntity
  8
Layer_1
 62
7
100
AcDbSpline
 70
8
 71
3
 72
8
 73
4
 74
0
 40
0
 40
0
 40
0
 40
0
 40
1
 40
1
 40
1
 40
1
 10
83.748562
 20
206.504720
 30
0.0
 10
83.879476
 20
206.504720
 30
0.0
 10
83.988341
 20
206.543993
 30
0.0
 10
84.075157
 20
206.622540
 30
0.0
  0
SPLINE
  5
27a
100
AcDbEntity
  8
Layer_1
 62
7
100
AcDbSpline
 70
8
 71
3
 72
8
 73
4
 74
0
 40
0
 40
0
 40
0
 40
0
 40
1
 40
1
 40
1
 40
1
 10
84.075157
 20
206.622540
 30
0.0
 10
84.161974
 20
206.701093
 30
0.0
 10
84.205382
 20
206.800313
 30
0.0
 10
84.205382
 20
206.920200
 30
0.0
  0
SPLINE
  5
27b
100
AcDbEntity
  8
Layer_1
 62
7
100
AcDbSpline
 70
8
 71
3
 72
8
 73
4
 74
0
 40
0
 40
0
 40
0
 40
0
 40
1
 40
1
 40
1
 40
1
 10
84.205382
 20
206.920200
 30
0.0
 10
84.205382
 20
206.991860
 30
0.0
 10
84.182645
 20
207.063517
 30
0.0
 10
84.137172
 20
207.135170
 30
0.0
  0
SPLINE
  5
27c
100
AcDbEntity
  8
Layer_1
 62
7
100
AcDbSpline
 70
8
 71
3
 72
8
 73
4
 74
0
 40
0
 40
0
 40
0
 40
0
 40
1
 40
1
 40
1
 40
1
 10
84.137172
 20
207.135170
 30
0.0
 10
84.091699
 20
207.208210
 30
0.0
 10
84.035199
 20
207.268157
 30
0.0
 10
83.967674
 20
207.315010
 30
0.0
  0
SPLINE
  5
27d
100
AcDbEntity
  8
Layer_1
 62
7
100
AcDbSpline
 70
8
 71
3
 72
8
 73
4
 74
0
 40
0
 40
0
 40
0
 40
0
 40
1
 40
1
 40
1
 40
1
 10
83.967674
 20
207.315010
 30
0.0
 10
83.900150
 20
207.361877
 30
0.0
 10
83.791974
 20
207.414930
 30
0.0
 10
83.643146
 20
207.474170
 30
0.0
  0
SPLINE
  5
27e
100
AcDbEntity
  8
Layer_1
 62
7
100
AcDbSpline
 70
8
 71
3
 72
8
 73
4
 74
0
 40
0
 40
0
 40
0
 40
0
 40
1
 40
1
 40
1
 40
1
 10
83.643146
 20
207.474170
 30
0.0
 10
83.495695
 20
207.534770
 30
0.0
 10
83.382007
 20
207.589893
 30
0.0
 10
83.302081
 20
207.639540
 30
0.0
  0
SPLINE
  5
27f
100
AcDbEntity
  8
Layer_1
 62
7
100
AcDbSpline
 70
8
 71
3
 72
8
 73
4
 74
0
 40
0
 40
0
 40
0
 40
0
 40
1
 40
1
 40
1
 40
1
 10
83.302081
 20
207.639540
 30
0.0
 10
83.223533
 20
207.690540
 30
0.0
 10
83.155320
 20
207.750483
 30
0.0
 10
83.097442
 20
207.819370
 30
0.0
  0
SPLINE
  5
280
100
AcDbEntity
  8
Layer_1
 62
7
100
AcDbSpline
 70
8
 71
3
 72
8
 73
4
 74
0
 40
0
 40
0
 40
0
 40
0
 40
1
 40
1
 40
1
 40
1
 10
83.097442
 20
207.819370
 30
0.0
 10
83.039562
 20
207.889650
 30
0.0
 10
82.996843
 20
207.959240
 30
0.0
 10
82.969285
 20
208.028140
 30
0.0
  0
SPLINE
  5
281
100
AcDbEntity
  8
Layer_1
 62
7
100
AcDbSpline
 70
8
 71
3
 72
8
 73
4
 74
0
 40
0
 40
0
 40
0
 40
0
 40
1
 40
1
 40
1
 40
1
 10
82.969285
 20
208.028140
 30
0.0
 10
82.943105
 20
208.097047
 30
0.0
 10
82.930015
 20
208.170773
 30
0.0
 10
82.930015
 20
208.249320
 30
0.0
  0
SPLINE
  5
282
100
AcDbEntity
  8
Layer_1
 62
7
100
AcDbSpline
 70
8
 71
3
 72
8
 73
4
 74
0
 40
0
 40
0
 40
0
 40
0
 40
1
 40
1
 40
1
 40
1
 10
82.930015
 20
208.249320
 30
0.0
 10
82.930015
 20
208.438113
 30
0.0
 10
83.005807
 20
208.598653
 30
0.0
 10
83.157391
 20
208.730940
 30
0.0
  0
SPLINE
  5
283
100
AcDbEntity
  8
Layer_1
 62
7
100
AcDbSpline
 70
8
 71
3
 72
8
 73
4
 74
0
 40
0
 40
0
 40
0
 40
0
 40
1
 40
1
 40
1
 40
1
 10
83.157391
 20
208.730940
 30
0.0
 10
83.308975
 20
208.864613
 30
0.0
 10
83.492943
 20
208.931450
 30
0.0
 10
83.709295
 20
208.931450
 30
0.0
  0
SPLINE
  5
284
100
AcDbEntity
  8
Layer_1
 62
7
100
AcDbSpline
 70
8
 71
3
 72
8
 73
4
 74
0
 40
0
 40
0
 40
0
 40
0
 40
1
 40
1
 40
1
 40
1
 10
83.709295
 20
208.931450
 30
0.0
 10
83.852611
 20
208.931450
 30
0.0
 10
83.997994
 20
208.900450
 30
0.0
 10
84.145444
 20
208.838450
 30
0.0
  0
SPLINE
  5
285
100
AcDbEntity
  8
Layer_1
 62
7
100
AcDbSpline
 70
8
 71
3
 72
8
 73
4
 74
0
 40
0
 40
0
 40
0
 40
0
 40
1
 40
1
 40
1
 40
1
 10
84.145444
 20
208.838450
 30
0.0
 10
84.292895
 20
208.776450
 30
0.0
 10
84.415540
 20
208.682053
 30
0.0
 10
84.513381
 20
208.555260
 30
0.0
  0
LINE
  5
286
100
AcDbEntity
  8
Layer_1
 62
7
100
AcDbLine
 10
84.513381
 20
208.555260
 30
0.0
 11
84.513379
 21
208.555300
 31
0.0
  0
LINE
  5
287
100
AcDbEntity
  8
Layer_1
 62
7
100
AcDbLine
 10
84.992936
 20
208.846760
 30
0.0
 11
86.452278
 21
208.846760
 31
0.0
  0
LINE
  5
288
100
AcDbEntity
  8
Layer_1
 62
7
100
AcDbLine
 10
86.452278
 20
208.846760
 30
0.0
 11
86.452278
 21
208.487090
 31
0.0
  0
LINE
  5
289
100
AcDbEntity
  8
Layer_1
 62
7
100
AcDbLine
 10
86.452278
 20
208.487090
 30
0.0
 11
85.348470
 21
208.487090
 31
0.0
  0
LINE
  5
28a
100
AcDbEntity
  8
Layer_1
 62
7
100
AcDbLine
 10
85.348470
 20
208.487090
 30
0.0
 11
85.348470
 21
207.829770
 31
0.0
  0
LINE
  5
28b
100
AcDbEntity
  8
Layer_1
 62
7
100
AcDbLine
 10
85.348470
 20
207.829770
 30
0.0
 11
86.452278
 21
207.829770
 31
0.0
  0
LINE
  5
28c
100
AcDbEntity
  8
Layer_1
 62
7
100
AcDbLine
 10
86.452278
 20
207.829770
 30
0.0
 11
86.452278
 21
207.474230
 31
0.0
  0
LINE
  5
28d
100
AcDbEntity
  8
Layer_1
 62
7
100
AcDbLine
 10
86.452278
 20
207.474230
 30
0.0
 11
85.348470
 21
207.474230
 31
0.0
  0
LINE
  5
28e
100
AcDbEntity
  8
Layer_1
 62
7
100
AcDbLine
 10
85.348470
 20
207.474230
 30
0.0
 11
85.348470
 21
206.568860
 31
0.0
  0
LINE
  5
28f
100
AcDbEntity
  8
Layer_1
 62
7
100
AcDbLine
 10
85.348470
 20
206.568860
 30
0.0
 11
86.452278
 21
206.568860
 31
0.0
  0
LINE
  5
290
100
AcDbEntity
  8
Layer_1
 62
7
100
AcDbLine
 10
86.452278
 20
206.568860
 30
0.0
 11
86.452278
 21
206.213330
 31
0.0
  0
LINE
  5
291
100
AcDbEntity
  8
Layer_1
 62
7
100
AcDbLine
 10
86.452278
 20
206.213330
 30
0.0
 11
84.992936
 21
206.213330
 31
0.0
  0
LINE
  5
292
100
AcDbEntity
  8
Layer_1
 62
7
100
AcDbLine
 10
84.992936
 20
206.213330
 30
0.0
 11
84.992936
 21
208.846760
 31
0.0
  0
LINE
  5
293
100
AcDbEntity
  8
Layer_1
 62
7
100
AcDbLine
 10
69.974106
 20
216.560880
 30
0.0
 11
71.218474
 21
213.826170
 31
0.0
  0
LINE
  5
294
100
AcDbEntity
  8
Layer_1
 62
7
100
AcDbLine
 10
71.218474
 20
213.826170
 30
0.0
 11
70.842270
 21
213.826170
 31
0.0
  0
LINE
  5
295
100
AcDbEntity
  8
Layer_1
 62
7
100
AcDbLine
 10
70.842270
 20
213.826170
 30
0.0
 11
70.534278
 21
214.500030
 31
0.0
  0
LINE
  5
296
100
AcDbEntity
  8
Layer_1
 62
7
100
AcDbLine
 10
70.534278
 20
214.500030
 30
0.0
 11
69.416001
 21
214.500030
 31
0.0
  0
LINE
  5
297
100
AcDbEntity
  8
Layer_1
 62
7
100
AcDbLine
 10
69.416001
 20
214.500030
 30
0.0
 11
69.116277
 21
213.826170
 31
0.0
  0
LINE
  5
298
100
AcDbEntity
  8
Layer_1
 62
7
100
AcDbLine
 10
69.116277
 20
213.826170
 30
0.0
 11
68.742140
 21
213.826170
 31
0.0
  0
LINE
  5
299
100
AcDbEntity
  8
Layer_1
 62
7
100
AcDbLine
 10
68.742140
 20
213.826170
 30
0.0
 11
69.974106
 21
216.560880
 31
0.0
  0
LINE
  5
29a
100
AcDbEntity
  8
Layer_1
 62
7
100
AcDbLine
 10
69.974106
 20
215.736130
 30
0.0
 11
69.550359
 21
214.799750
 31
0.0
  0
LINE
  5
29b
100
AcDbEntity
  8
Layer_1
 62
7
100
AcDbLine
 10
69.550359
 20
214.799750
 30
0.0
 11
70.397853
 21
214.799750
 31
0.0
  0
LINE
  5
29c
100
AcDbEntity
  8
Layer_1
 62
7
100
AcDbLine
 10
70.397853
 20
214.799750
 30
0.0
 11
69.974106
 21
215.736130
 31
0.0
  0
LINE
  5
29d
100
AcDbEntity
  8
Layer_1
 62
7
100
AcDbLine
 10
71.405543
 20
216.455460
 30
0.0
 11
71.765211
 21
216.455460
 31
0.0
  0
LINE
  5
29e
100
AcDbEntity
  8
Layer_1
 62
7
100
AcDbLine
 10
71.765211
 20
216.455460
 30
0.0
 11
71.765211
 21
214.836960
 31
0.0
  0
SPLINE
  5
29f
100
AcDbEntity
  8
Layer_1
 62
7
100
AcDbSpline
 70
8
 71
3
 72
8
 73
4
 74
0
 40
0
 40
0
 40
0
 40
0
 40
1
 40
1
 40
1
 40
1
 10
71.765211
 20
214.836960
 30
0.0
 10
71.765211
 20
214.597180
 30
0.0
 10
71.822400
 20
214.411833
 30
0.0
 10
71.936777
 20
214.280920
 30
0.0
  0
SPLINE
  5
2a0
100
AcDbEntity
  8
Layer_1
 62
7
100
AcDbSpline
 70
8
 71
3
 72
8
 73
4
 74
0
 40
0
 40
0
 40
0
 40
0
 40
1
 40
1
 40
1
 40
1
 10
71.936777
 20
214.280920
 30
0.0
 10
72.052532
 20
214.150007
 30
0.0
 10
72.215830
 20
214.084550
 30
0.0
 10
72.426669
 20
214.084550
 30
0.0
  0
SPLINE
  5
2a1
100
AcDbEntity
  8
Layer_1
 62
7
100
AcDbSpline
 70
8
 71
3
 72
8
 73
4
 74
0
 40
0
 40
0
 40
0
 40
0
 40
1
 40
1
 40
1
 40
1
 10
72.426669
 20
214.084550
 30
0.0
 10
72.636131
 20
214.084550
 30
0.0
 10
72.798740
 20
214.144493
 30
0.0
 10
72.914495
 20
214.264380
 30
0.0
  0
SPLINE
  5
2a2
100
AcDbEntity
  8
Layer_1
 62
7
100
AcDbSpline
 70
8
 71
3
 72
8
 73
4
 74
0
 40
0
 40
0
 40
0
 40
0
 40
1
 40
1
 40
1
 40
1
 10
72.914495
 20
214.264380
 30
0.0
 10
73.031628
 20
214.385647
 30
0.0
 10
73.090195
 20
214.555837
 30
0.0
 10
73.090195
 20
214.774950
 30
0.0
  0
LINE
  5
2a3
100
AcDbEntity
  8
Layer_1
 62
7
100
AcDbLine
 10
73.090195
 20
214.774950
 30
0.0
 11
73.090195
 21
216.455460
 31
0.0
  0
LINE
  5
2a4
100
AcDbEntity
  8
Layer_1
 62
7
100
AcDbLine
 10
73.090195
 20
216.455460
 30
0.0
 11
73.449863
 21
216.455460
 31
0.0
  0
LINE
  5
2a5
100
AcDbEntity
  8
Layer_1
 62
7
100
AcDbLine
 10
73.449863
 20
216.455460
 30
0.0
 11
73.449863
 21
214.799750
 31
0.0
  0
SPLINE
  5
2a6
100
AcDbEntity
  8
Layer_1
 62
7
100
AcDbSpline
 70
8
 71
3
 72
8
 73
4
 74
0
 40
0
 40
0
 40
0
 40
0
 40
1
 40
1
 40
1
 40
1
 10
73.449863
 20
214.799750
 30
0.0
 10
73.449863
 20
214.477290
 30
0.0
 10
73.357534
 20
214.219597
 30
0.0
 10
73.172877
 20
214.026670
 30
0.0
  0
SPLINE
  5
2a7
100
AcDbEntity
  8
Layer_1
 62
7
100
AcDbSpline
 70
8
 71
3
 72
8
 73
4
 74
0
 40
0
 40
0
 40
0
 40
0
 40
1
 40
1
 40
1
 40
1
 10
73.172877
 20
214.026670
 30
0.0
 10
72.989598
 20
213.833743
 30
0.0
 10
72.744996
 20
213.737280
 30
0.0
 10
72.439072
 20
213.737280
 30
0.0
  0
SPLINE
  5
2a8
100
AcDbEntity
  8
Layer_1
 62
7
100
AcDbSpline
 70
8
 71
3
 72
8
 73
4
 74
0
 40
0
 40
0
 40
0
 40
0
 40
1
 40
1
 40
1
 40
1
 10
72.439072
 20
213.737280
 30
0.0
 10
72.126257
 20
213.737280
 30
0.0
 10
71.875454
 20
213.835120
 30
0.0
 10
71.686663
 20
214.030800
 30
0.0
  0
SPLINE
  5
2a9
100
AcDbEntity
  8
Layer_1
 62
7
100
AcDbSpline
 70
8
 71
3
 72
8
 73
4
 74
0
 40
0
 40
0
 40
0
 40
0
 40
1
 40
1
 40
1
 40
1
 10
71.686663
 20
214.030800
 30
0.0
 10
71.499250
 20
214.226487
 30
0.0
 10
71.405543
 20
214.515187
 30
0.0
 10
71.405543
 20
214.896900
 30
0.0
  0
LINE
  5
2aa
100
AcDbEntity
  8
Layer_1
 62
7
100
AcDbLine
 10
71.405543
 20
214.896900
 30
0.0
 11
71.405543
 21
216.455460
 31
0.0
  0
LINE
  5
2ab
100
AcDbEntity
  8
Layer_1
 62
7
100
AcDbLine
 10
73.808497
 20
216.459600
 30
0.0
 11
75.418735
 21
216.459600
 31
0.0
  0
LINE
  5
2ac
100
AcDbEntity
  8
Layer_1
 62
7
100
AcDbLine
 10
75.418735
 20
216.459600
 30
0.0
 11
75.418735
 21
216.099930
 31
0.0
  0
LINE
  5
2ad
100
AcDbEntity
  8
Layer_1
 62
7
100
AcDbLine
 10
75.418735
 20
216.099930
 30
0.0
 11
74.790349
 21
216.099930
 31
0.0
  0
LINE
  5
2ae
100
AcDbEntity
  8
Layer_1
 62
7
100
AcDbLine
 10
74.790349
 20
216.099930
 30
0.0
 11
74.790349
 21
213.826170
 31
0.0
  0
LINE
  5
2af
100
AcDbEntity
  8
Layer_1
 62
7
100
AcDbLine
 10
74.790349
 20
213.826170
 30
0.0
 11
74.434815
 21
213.826170
 31
0.0
  0
LINE
  5
2b0
100
AcDbEntity
  8
Layer_1
 62
7
100
AcDbLine
 10
74.434815
 20
213.826170
 30
0.0
 11
74.434815
 21
216.099930
 31
0.0
  0
LINE
  5
2b1
100
AcDbEntity
  8
Layer_1
 62
7
100
AcDbLine
 10
74.434815
 20
216.099930
 30
0.0
 11
73.808497
 21
216.099930
 31
0.0
  0
LINE
  5
2b2
100
AcDbEntity
  8
Layer_1
 62
7
100
AcDbLine
 10
73.808497
 20
216.099930
 30
0.0
 11
73.808497
 21
216.459600
 31
0.0
  0
SPLINE
  5
2b3
100
AcDbEntity
  8
Layer_1
 62
7
100
AcDbSpline
 70
8
 71
3
 72
8
 73
4
 74
0
 40
0
 40
0
 40
0
 40
0
 40
1
 40
1
 40
1
 40
1
 10
75.628541
 20
215.159420
 30
0.0
 10
75.628541
 20
215.539760
 30
0.0
 10
75.771857
 20
215.865667
 30
0.0
 10
76.058489
 20
216.137140
 30
0.0
  0
SPLINE
  5
2b4
100
AcDbEntity
  8
Layer_1
 62
7
100
AcDbSpline
 70
8
 71
3
 72
8
 73
4
 74
0
 40
0
 40
0
 40
0
 40
0
 40
1
 40
1
 40
1
 40
1
 10
76.058489
 20
216.137140
 30
0.0
 10
76.345121
 20
216.408613
 30
0.0
 10
76.689630
 20
216.544350
 30
0.0
 10
77.092017
 20
216.544350
 30
0.0
  0
SPLINE
  5
2b5
100
AcDbEntity
  8
Layer_1
 62
7
100
AcDbSpline
 70
8
 71
3
 72
8
 73
4
 74
0
 40
0
 40
0
 40
0
 40
0
 40
1
 40
1
 40
1
 40
1
 10
77.092017
 20
216.544350
 30
0.0
 10
77.484758
 20
216.544350
 30
0.0
 10
77.823067
 20
216.407233
 30
0.0
 10
78.106942
 20
216.133000
 30
0.0
  0
SPLINE
  5
2b6
100
AcDbEntity
  8
Layer_1
 62
7
100
AcDbSpline
 70
8
 71
3
 72
8
 73
4
 74
0
 40
0
 40
0
 40
0
 40
0
 40
1
 40
1
 40
1
 40
1
 10
78.106942
 20
216.133000
 30
0.0
 10
78.390818
 20
215.860147
 30
0.0
 10
78.532756
 20
215.535620
 30
0.0
 10
78.532756
 20
215.159420
 30
0.0
  0
SPLINE
  5
2b7
100
AcDbEntity
  8
Layer_1
 62
7
100
AcDbSpline
 70
8
 71
3
 72
8
 73
4
 74
0
 40
0
 40
0
 40
0
 40
0
 40
1
 40
1
 40
1
 40
1
 10
78.532756
 20
215.159420
 30
0.0
 10
78.532756
 20
214.761167
 30
0.0
 10
78.392196
 20
214.424237
 30
0.0
 10
78.111076
 20
214.148630
 30
0.0
  0
SPLINE
  5
2b8
100
AcDbEntity
  8
Layer_1
 62
7
100
AcDbSpline
 70
8
 71
3
 72
8
 73
4
 74
0
 40
0
 40
0
 40
0
 40
0
 40
1
 40
1
 40
1
 40
1
 10
78.111076
 20
214.148630
 30
0.0
 10
77.831335
 20
213.874397
 30
0.0
 10
77.487514
 20
213.737280
 30
0.0
 10
77.079615
 20
213.737280
 30
0.0
  0
SPLINE
  5
2b9
100
AcDbEntity
  8
Layer_1
 62
7
100
AcDbSpline
 70
8
 71
3
 72
8
 73
4
 74
0
 40
0
 40
0
 40
0
 40
0
 40
1
 40
1
 40
1
 40
1
 10
77.079615
 20
213.737280
 30
0.0
 10
76.677228
 20
213.737280
 30
0.0
 10
76.334785
 20
213.875773
 30
0.0
 10
76.052287
 20
214.152760
 30
0.0
  0
SPLINE
  5
2ba
100
AcDbEntity
  8
Layer_1
 62
7
100
AcDbSpline
 70
8
 71
3
 72
8
 73
4
 74
0
 40
0
 40
0
 40
0
 40
0
 40
1
 40
1
 40
1
 40
1
 10
76.052287
 20
214.152760
 30
0.0
 10
75.769790
 20
214.429747
 30
0.0
 10
75.628541
 20
214.765300
 30
0.0
 10
75.628541
 20
215.159420
 30
0.0
  0
LINE
  5
2bb
100
AcDbEntity
  8
Layer_1
 62
7
100
AcDbLine
 10
75.628541
 20
215.159420
 30
0.0
 11
75.628541
 21
215.159420
 31
0.0
  0
SPLINE
  5
2bc
100
AcDbEntity
  8
Layer_1
 62
7
100
AcDbSpline
 70
8
 71
3
 72
8
 73
4
 74
0
 40
0
 40
0
 40
0
 40
0
 40
1
 40
1
 40
1
 40
1
 10
78.150351
 20
215.142920
 30
0.0
 10
78.150351
 20
215.433687
 30
0.0
 10
78.045620
 20
215.678290
 30
0.0
 10
77.836158
 20
215.876730
 30
0.0
  0
SPLINE
  5
2bd
100
AcDbEntity
  8
Layer_1
 62
7
100
AcDbSpline
 70
8
 71
3
 72
8
 73
4
 74
0
 40
0
 40
0
 40
0
 40
0
 40
1
 40
1
 40
1
 40
1
 10
77.836158
 20
215.876730
 30
0.0
 10
77.626696
 20
216.076543
 30
0.0
 10
77.369003
 20
216.176450
 30
0.0
 10
77.063078
 20
216.176450
 30
0.0
  0
SPLINE
  5
2be
100
AcDbEntity
  8
Layer_1
 62
7
100
AcDbSpline
 70
8
 71
3
 72
8
 73
4
 74
0
 40
0
 40
0
 40
0
 40
0
 40
1
 40
1
 40
1
 40
1
 10
77.063078
 20
216.176450
 30
0.0
 10
76.772312
 20
216.176450
 30
0.0
 10
76.522887
 20
216.075163
 30
0.0
 10
76.314804
 20
215.872590
 30
0.0
  0
SPLINE
  5
2bf
100
AcDbEntity
  8
Layer_1
 62
7
100
AcDbSpline
 70
8
 71
3
 72
8
 73
4
 74
0
 40
0
 40
0
 40
0
 40
0
 40
1
 40
1
 40
1
 40
1
 10
76.314804
 20
215.872590
 30
0.0
 10
76.108098
 20
215.670023
 30
0.0
 10
76.004745
 20
215.426800
 30
0.0
 10
76.004745
 20
215.142920
 30
0.0
  0
SPLINE
  5
2c0
100
AcDbEntity
  8
Layer_1
 62
7
100
AcDbSpline
 70
8
 71
3
 72
8
 73
4
 74
0
 40
0
 40
0
 40
0
 40
0
 40
1
 40
1
 40
1
 40
1
 10
76.004745
 20
215.142920
 30
0.0
 10
76.004745
 20
214.854913
 30
0.0
 10
76.110854
 20
214.611000
 30
0.0
 10
76.323072
 20
214.411180
 30
0.0
  0
SPLINE
  5
2c1
100
AcDbEntity
  8
Layer_1
 62
7
100
AcDbSpline
 70
8
 71
3
 72
8
 73
4
 74
0
 40
0
 40
0
 40
0
 40
0
 40
1
 40
1
 40
1
 40
1
 10
76.323072
 20
214.411180
 30
0.0
 10
76.536668
 20
214.212747
 30
0.0
 10
76.797806
 20
214.113530
 30
0.0
 10
77.106487
 20
214.113530
 30
0.0
  0
SPLINE
  5
2c2
100
AcDbEntity
  8
Layer_1
 62
7
100
AcDbSpline
 70
8
 71
3
 72
8
 73
4
 74
0
 40
0
 40
0
 40
0
 40
0
 40
1
 40
1
 40
1
 40
1
 10
77.106487
 20
214.113530
 30
0.0
 10
77.390362
 20
214.113530
 30
0.0
 10
77.634964
 20
214.214813
 30
0.0
 10
77.840292
 20
214.417380
 30
0.0
  0
SPLINE
  5
2c3
100
AcDbEntity
  8
Layer_1
 62
7
100
AcDbSpline
 70
8
 71
3
 72
8
 73
4
 74
0
 40
0
 40
0
 40
0
 40
0
 40
1
 40
1
 40
1
 40
1
 10
77.840292
 20
214.417380
 30
0.0
 10
78.046998
 20
214.621333
 30
0.0
 10
78.150351
 20
214.863180
 30
0.0
 10
78.150351
 20
215.142920
 30
0.0
  0
LINE
  5
2c4
100
AcDbEntity
  8
Layer_1
 62
7
100
AcDbLine
 10
78.150351
 20
215.142920
 30
0.0
 11
78.150351
 21
215.142920
 31
0.0
  0
SPLINE
  5
2c5
100
AcDbEntity
  8
Layer_1
 62
3
100
AcDbSpline
 70
8
 71
3
 72
8
 73
4
 74
0
 40
0
 40
0
 40
0
 40
0
 40
1
 40
1
 40
1
 40
1
 10
56.464102
 20
204.437516
 30
0.0
 10
52.795887
 20
204.437625
 30
0.0
 10
49.822111
 20
201.369868
 30
0.0
 10
49.821954
 20
197.585456
 30
0.0
  0
SPLINE
  5
2c6
100
AcDbEntity
  8
Layer_1
 62
3
100
AcDbSpline
 70
8
 71
3
 72
8
 73
4
 74
0
 40
0
 40
0
 40
0
 40
0
 40
1
 40
1
 40
1
 40
1
 10
49.821954
 20
197.585456
 30
0.0
 10
49.825156
 20
195.199640
 30
0.0
 10
51.030971
 20
192.987289
 30
0.0
 10
53.005262
 20
191.744930
 30
0.0
  0
LINE
  5
2c7
100
AcDbEntity
  8
Layer_1
 62
3
100
AcDbLine
 10
53.005262
 20
191.744930
 30
0.0
 11
53.005262
 21
183.481830
 31
0.0
  0
LINE
  5
2c8
100
AcDbEntity
  8
Layer_1
 62
3
100
AcDbLine
 10
53.005262
 20
183.481830
 30
0.0
 11
59.922463
 21
183.481830
 31
0.0
  0
LINE
  5
2c9
100
AcDbEntity
  8
Layer_1
 62
3
100
AcDbLine
 10
59.922463
 20
183.481830
 30
0.0
 11
59.922463
 21
191.742000
 31
0.0
  0
SPLINE
  5
2ca
100
AcDbEntity
  8
Layer_1
 62
3
100
AcDbSpline
 70
8
 71
3
 72
8
 73
4
 74
0
 40
0
 40
0
 40
0
 40
0
 40
1
 40
1
 40
1
 40
1
 10
59.922463
 20
191.742000
 30
0.0
 10
61.897617
 20
192.984903
 30
0.0
 10
63.103559
 20
195.198595
 30
0.0
 10
63.105773
 20
197.585456
 30
0.0
  0
SPLINE
  5
2cb
100
AcDbEntity
  8
Layer_1
 62
3
100
AcDbSpline
 70
8
 71
3
 72
8
 73
4
 74
0
 40
0
 40
0
 40
0
 40
0
 40
1
 40
1
 40
1
 40
1
 10
63.105773
 20
197.585456
 30
0.0
 10
63.105616
 20
201.369676
 30
0.0
 10
60.132131
 20
204.437353
 30
0.0
 10
56.464102
 20
204.437516
 30
0.0
  0
LINE
  5
2cc
100
AcDbEntity
  8
Layer_1
 62
3
100
AcDbLine
 10
56.464102
 20
204.437516
 30
0.0
 11
56.464102
 21
204.437516
 31
0.0
  0
ENDSEC
  0
SECTION
  2
OBJECTS
  0
DICTIONARY
  5
C
330
0
100
AcDbDictionary
  3
ACAD_GROUP
350
D
  3
ACAD_MLINESTYLE
350
17
  0
DICTIONARY
  5
D
330
C
100
AcDbDictionary
  0
DICTIONARY
  5
1A
330
C
100
AcDbDictionary
  0
DICTIONARY
  5
17
330
C
100
AcDbDictionary
  3
STANDARD
350
18
  0
DICTIONARY
  5
19
330
C
100
AcDbDictionary
  0
ENDSEC
  0
EOF
