  0
SECTION
  2
HEADER
  9
$ACADVER
  1
AC1014
  9
$HANDSEED
  5
FFFF
  9
$MEASUREMENT
 70
     1
  0
ENDSEC
  0
SECTION
  2
TABLES
  0
TABLE
  2
VPORT
  5
8
330
0
100
AcDbSymbolTable
 70
     4
  0
VPORT
  5
2E
330
8
100
AcDbSymbolTableRecord
100
AcDbViewportTableRecord
  2
*ACTIVE
 70
     0
 10
0.0
 20
0.0
 11
1.0
 21
1.0
 12
210.0
 22
148.5
 13
0.0
 23
0.0
 14
10.0
 24
10.0
 15
10.0
 25
10.0
 16
0.0
 26
0.0
 36
1.0
 17
0.0
 27
0.0
 37
0.0
 40
341.0
 41
1.24
 42
50.0
 43
0.0
 44
0.0
 50
0.0
 51
0.0
 71
     0
 72
   100
 73
     1
 74
     3
 75
     0
 76
     0
 77
     0
 78
     0
  0
ENDTAB
  0
TABLE
  2
LTYPE
  5
5
330
0
100
AcDbSymbolTable
 70
     1
  0
LTYPE
  5
14
330
5
100
AcDbSymbolTableRecord
100
AcDbLinetypeTableRecord
  2
BYBLOCK
 70
     0
  3

 72
    65
 73
     0
 40
0.0
  0
LTYPE
  5
15
330
5
100
AcDbSymbolTableRecord
100
AcDbLinetypeTableRecord
  2
BYLAYER
 70
     0
  3

 72
    65
 73
     0
 40
0.0
  0
LTYPE
  5
16
330
5
100
AcDbSymbolTableRecord
100
AcDbLinetypeTableRecord
  2
CONTINUOUS
 70
     0
  3
Solid line
 72
    65
 73
     0
 40
0.0
  0
ENDTAB
  0
TABLE
  2
LAYER
  5
2
100
AcDbSymbolTable
 70
2
  0
LAYER
  5
50
100
AcDbSymbolTableRecord
100
AcDbLayerTableRecord
  2
0
 70
0
  6
CONTINUOUS
  0
LAYER
  5
51
100
AcDbSymbolTableRecord
100
AcDbLayerTableRecord
  2
Layer_1
 70
0
  6
CONTINUOUS
  0
ENDTAB
  0
TABLE
  2
STYLE
  5
3
330
0
100
AcDbSymbolTable
 70
     1
  0
STYLE
  5
11
330
3
100
AcDbSymbolTableRecord
100
AcDbTextStyleTableRecord
  2
STANDARD
 70
     0
 40
0.0
 41
1.0
 50
0.0
 71
     0
 42
2.5
  3
txt
  4

  0
ENDTAB
  0
TABLE
  2
VIEW
  5
6
330
0
100
AcDbSymbolTable
 70
     0
  0
ENDTAB
  0
TABLE
  2
UCS
  5
7
330
0
100
AcDbSymbolTable
 70
     0
  0
ENDTAB
  0
TABLE
  2
APPID
  5
9
330
0
100
AcDbSymbolTable
 70
     2
  0
APPID
  5
12
330
9
100
AcDbSymbolTableRecord
100
AcDbRegAppTableRecord
  2
ACAD
 70
     0
  0
ENDTAB
  0
TABLE
  2
DIMSTYLE
  5
A
330
0
100
AcDbSymbolTable
 70
     1
  0
DIMSTYLE
105
27
330
A
100
AcDbSymbolTableRecord
100
AcDbDimStyleTableRecord
  2
ISO-25
 70
     0
  3

  4

  5

  6

  7

 40
1.0
 41
2.5
 42
0.625
 43
3.75
 44
1.25
 45
0.0
 46
0.0
 47
0.0
 48
0.0
140
2.5
141
2.5
142
0.0
143
0.03937007874016
144
1.0
145
0.0
146
1.0
147
0.625
 71
     0
 72
     0
 73
     0
 74
     0
 75
     0
 76
     0
 77
     1
 78
     8
170
     0
171
     3
172
     1
173
     0
174
     0
175
     0
176
     0
177
     0
178
     0
270
     2
271
     2
272
     2
273
     2
274
     3
340
11
275
     0
280
     0
281
     0
282
     0
283
     0
284
     8
285
     0
286
     0
287
     3
288
     0
  0
ENDTAB
  0
TABLE
  2
BLOCK_RECORD
  5
1
330
0
100
AcDbSymbolTable
 70
     1
  0
BLOCK_RECORD
  5
1F
330
1
100
AcDbSymbolTableRecord
100
AcDbBlockTableRecord
  2
*MODEL_SPACE
  0
BLOCK_RECORD
  5
1B
330
1
100
AcDbSymbolTableRecord
100
AcDbBlockTableRecord
  2
*PAPER_SPACE
  0
ENDTAB
  0
ENDSEC
  0
SECTION
  2
BLOCKS
  0
BLOCK
  5
20
330
1F
100
AcDbEntity
  8
0
100
AcDbBlockBegin
  2
*MODEL_SPACE
 70
     0
 10
0.0
 20
0.0
 30
0.0
  3
*MODEL_SPACE
  1

  0
ENDBLK
  5
21
330
1F
100
AcDbEntity
  8
0
100
AcDbBlockEnd
  0
BLOCK
  5
1C
330
1B
100
AcDbEntity
 67
     1
  8
0
100
AcDbBlockBegin
  2
*PAPER_SPACE
  1

  0
ENDBLK
  5
1D
330
1B
100
AcDbEntity
 67
     1
  8
0
100
AcDbBlockEnd
  0
ENDSEC
  0
SECTION
  2
ENTITIES
  0
LINE
  5
100
100
AcDbEntity
  8
Layer_1
 62
7
100
AcDbLine
 10
62.361618
 20
258.889722
 30
0.0
 11
62.931092
 21
258.889722
 31
0.0
  0
LINE
  5
101
100
AcDbEntity
  8
Layer_1
 62
7
100
AcDbLine
 10
62.931092
 20
258.889722
 30
0.0
 11
62.931092
 21
257.194391
 31
0.0
  0
LINE
  5
102
100
AcDbEntity
  8
Layer_1
 62
7
100
AcDbLine
 10
62.931092
 20
257.194391
 30
0.0
 11
64.695153
 21
258.889722
 31
0.0
  0
LINE
  5
103
100
AcDbEntity
  8
Layer_1
 62
7
100
AcDbLine
 10
64.695153
 20
258.889722
 30
0.0
 11
65.493727
 21
258.889722
 31
0.0
  0
LINE
  5
104
100
AcDbEntity
  8
Layer_1
 62
7
100
AcDbLine
 10
65.493727
 20
258.889722
 30
0.0
 11
63.480930
 21
256.952201
 31
0.0
  0
LINE
  5
105
100
AcDbEntity
  8
Layer_1
 62
7
100
AcDbLine
 10
63.480930
 20
256.952201
 30
0.0
 11
65.506818
 21
254.720123
 31
0.0
  0
LINE
  5
106
100
AcDbEntity
  8
Layer_1
 62
7
100
AcDbLine
 10
65.506818
 20
254.720123
 30
0.0
 11
64.780247
 21
254.720123
 31
0.0
  0
LINE
  5
107
100
AcDbEntity
  8
Layer_1
 62
7
100
AcDbLine
 10
64.780247
 20
254.720123
 30
0.0
 11
62.931092
 21
256.752557
 31
0.0
  0
LINE
  5
108
100
AcDbEntity
  8
Layer_1
 62
7
100
AcDbLine
 10
62.931092
 20
256.752557
 30
0.0
 11
62.931092
 21
254.720123
 31
0.0
  0
LINE
  5
109
100
AcDbEntity
  8
Layer_1
 62
7
100
AcDbLine
 10
62.931092
 20
254.720123
 30
0.0
 11
62.361618
 21
254.720123
 31
0.0
  0
LINE
  5
10a
100
AcDbEntity
  8
Layer_1
 62
7
100
AcDbLine
 10
62.361618
 20
254.720123
 30
0.0
 11
62.361618
 21
258.889722
 31
0.0
  0
LINE
  5
10b
100
AcDbEntity
  8
Layer_1
 62
7
100
AcDbLine
 10
66.154840
 20
258.889722
 30
0.0
 11
67.058144
 21
258.889722
 31
0.0
  0
SPLINE
  5
10c
100
AcDbEntity
  8
Layer_1
 62
7
100
AcDbSpline
 70
8
 71
3
 72
8
 73
4
 74
0
 40
0
 40
0
 40
0
 40
0
 40
1
 40
1
 40
1
 40
1
 10
67.058144
 20
258.889722
 30
0.0
 10
67.507615
 20
258.889722
 30
0.0
 10
67.873082
 20
258.777355
 30
0.0
 10
68.154546
 20
258.552620
 30
0.0
  0
SPLINE
  5
10d
100
AcDbEntity
  8
Layer_1
 62
7
100
AcDbSpline
 70
8
 71
3
 72
8
 73
4
 74
0
 40
0
 40
0
 40
0
 40
0
 40
1
 40
1
 40
1
 40
1
 10
68.154546
 20
258.552620
 30
0.0
 10
68.438192
 20
258.330067
 30
0.0
 10
68.580015
 20
258.044239
 30
0.0
 10
68.580015
 20
257.695136
 30
0.0
  0
SPLINE
  5
10e
100
AcDbEntity
  8
Layer_1
 62
7
100
AcDbSpline
 70
8
 71
3
 72
8
 73
4
 74
0
 40
0
 40
0
 40
0
 40
0
 40
1
 40
1
 40
1
 40
1
 10
68.580015
 20
257.695136
 30
0.0
 10
68.580015
 20
257.415853
 30
0.0
 10
68.488376
 20
257.169299
 30
0.0
 10
68.305097
 20
256.955474
 30
0.0
  0
SPLINE
  5
10f
100
AcDbEntity
  8
Layer_1
 62
7
100
AcDbSpline
 70
8
 71
3
 72
8
 73
4
 74
0
 40
0
 40
0
 40
0
 40
0
 40
1
 40
1
 40
1
 40
1
 10
68.305097
 20
256.955474
 30
0.0
 10
68.121818
 20
256.741648
 30
0.0
 10
67.835989
 20
256.591097
 30
0.0
 10
67.447612
 20
256.503822
 30
0.0
  0
LINE
  5
110
100
AcDbEntity
  8
Layer_1
 62
7
100
AcDbLine
 10
67.447612
 20
256.503822
 30
0.0
 11
68.661836
 21
254.720123
 31
0.0
  0
LINE
  5
111
100
AcDbEntity
  8
Layer_1
 62
7
100
AcDbLine
 10
68.661836
 20
254.720123
 30
0.0
 11
68.010541
 21
254.720123
 31
0.0
  0
LINE
  5
112
100
AcDbEntity
  8
Layer_1
 62
7
100
AcDbLine
 10
68.010541
 20
254.720123
 30
0.0
 11
66.851955
 21
256.435092
 31
0.0
  0
LINE
  5
113
100
AcDbEntity
  8
Layer_1
 62
7
100
AcDbLine
 10
66.851955
 20
256.435092
 30
0.0
 11
66.724315
 21
256.435092
 31
0.0
  0
LINE
  5
114
100
AcDbEntity
  8
Layer_1
 62
7
100
AcDbLine
 10
66.724315
 20
256.435092
 30
0.0
 11
66.724315
 21
254.720123
 31
0.0
  0
LINE
  5
115
100
AcDbEntity
  8
Layer_1
 62
7
100
AcDbLine
 10
66.724315
 20
254.720123
 30
0.0
 11
66.154840
 21
254.720123
 31
0.0
  0
LINE
  5
116
100
AcDbEntity
  8
Layer_1
 62
7
100
AcDbLine
 10
66.154840
 20
254.720123
 30
0.0
 11
66.154840
 21
258.889722
 31
0.0
  0
LINE
  5
117
100
AcDbEntity
  8
Layer_1
 62
7
100
AcDbLine
 10
66.724315
 20
258.385705
 30
0.0
 11
66.724315
 21
256.932564
 31
0.0
  0
SPLINE
  5
118
100
AcDbEntity
  8
Layer_1
 62
7
100
AcDbSpline
 70
8
 71
3
 72
8
 73
4
 74
0
 40
0
 40
0
 40
0
 40
0
 40
1
 40
1
 40
1
 40
1
 10
66.724315
 20
256.932564
 30
0.0
 10
67.564344
 20
256.915111
 30
0.0
 10
67.984358
 20
257.158392
 30
0.0
 10
67.984358
 20
257.662407
 30
0.0
  0
SPLINE
  5
119
100
AcDbEntity
  8
Layer_1
 62
7
100
AcDbSpline
 70
8
 71
3
 72
8
 73
4
 74
0
 40
0
 40
0
 40
0
 40
0
 40
1
 40
1
 40
1
 40
1
 10
67.984358
 20
257.662407
 30
0.0
 10
67.984358
 20
257.839140
 30
0.0
 10
67.935266
 20
257.983145
 30
0.0
 10
67.837081
 20
258.094422
 30
0.0
  0
SPLINE
  5
11a
100
AcDbEntity
  8
Layer_1
 62
7
100
AcDbSpline
 70
8
 71
3
 72
8
 73
4
 74
0
 40
0
 40
0
 40
0
 40
0
 40
1
 40
1
 40
1
 40
1
 10
67.837081
 20
258.094422
 30
0.0
 10
67.738896
 20
258.207881
 30
0.0
 10
67.607982
 20
258.284247
 30
0.0
 10
67.444340
 20
258.323521
 30
0.0
  0
SPLINE
  5
11b
100
AcDbEntity
  8
Layer_1
 62
7
100
AcDbSpline
 70
8
 71
3
 72
8
 73
4
 74
0
 40
0
 40
0
 40
0
 40
0
 40
1
 40
1
 40
1
 40
1
 10
67.444340
 20
258.323521
 30
0.0
 10
67.280698
 20
258.364974
 30
0.0
 10
67.040690
 20
258.385701
 30
0.0
 10
66.724315
 20
258.385701
 30
0.0
  0
LINE
  5
11c
100
AcDbEntity
  8
Layer_1
 62
7
100
AcDbLine
 10
66.724315
 20
258.385701
 30
0.0
 11
66.724315
 21
258.385705
 31
0.0
  0
LINE
  5
11d
100
AcDbEntity
  8
Layer_1
 62
7
100
AcDbLine
 10
69.780655
 20
256.503868
 30
0.0
 11
70.140323
 21
256.503868
 31
0.0
  0
LINE
  5
11e
100
AcDbEntity
  8
Layer_1
 62
7
100
AcDbLine
 10
70.140323
 20
256.503868
 30
0.0
 11
70.140323
 21
255.433133
 31
0.0
  0
LINE
  5
11f
100
AcDbEntity
  8
Layer_1
 62
7
100
AcDbLine
 10
70.140323
 20
255.433133
 30
0.0
 11
71.254467
 21
256.503868
 31
0.0
  0
LINE
  5
120
100
AcDbEntity
  8
Layer_1
 62
7
100
AcDbLine
 10
71.254467
 20
256.503868
 30
0.0
 11
71.758829
 21
256.503868
 31
0.0
  0
LINE
  5
121
100
AcDbEntity
  8
Layer_1
 62
7
100
AcDbLine
 10
71.758829
 20
256.503868
 30
0.0
 11
70.487589
 21
255.280171
 31
0.0
  0
LINE
  5
122
100
AcDbEntity
  8
Layer_1
 62
7
100
AcDbLine
 10
70.487589
 20
255.280171
 30
0.0
 11
71.767097
 21
253.870438
 31
0.0
  0
LINE
  5
123
100
AcDbEntity
  8
Layer_1
 62
7
100
AcDbLine
 10
71.767097
 20
253.870438
 30
0.0
 11
71.308210
 21
253.870438
 31
0.0
  0
LINE
  5
124
100
AcDbEntity
  8
Layer_1
 62
7
100
AcDbLine
 10
71.308210
 20
253.870438
 30
0.0
 11
70.140323
 21
255.154080
 31
0.0
  0
LINE
  5
125
100
AcDbEntity
  8
Layer_1
 62
7
100
AcDbLine
 10
70.140323
 20
255.154080
 30
0.0
 11
70.140323
 21
253.870438
 31
0.0
  0
LINE
  5
126
100
AcDbEntity
  8
Layer_1
 62
7
100
AcDbLine
 10
70.140323
 20
253.870438
 30
0.0
 11
69.780655
 21
253.870438
 31
0.0
  0
LINE
  5
127
100
AcDbEntity
  8
Layer_1
 62
7
100
AcDbLine
 10
69.780655
 20
253.870438
 30
0.0
 11
69.780655
 21
256.503868
 31
0.0
  0
LINE
  5
128
100
AcDbEntity
  8
Layer_1
 62
7
100
AcDbLine
 10
72.176374
 20
256.503868
 30
0.0
 11
72.746882
 21
256.503868
 31
0.0
  0
SPLINE
  5
129
100
AcDbEntity
  8
Layer_1
 62
7
100
AcDbSpline
 70
8
 71
3
 72
8
 73
4
 74
0
 40
0
 40
0
 40
0
 40
0
 40
1
 40
1
 40
1
 40
1
 10
72.746882
 20
256.503868
 30
0.0
 10
73.030758
 20
256.503868
 30
0.0
 10
73.261579
 20
256.432899
 30
0.0
 10
73.439346
 20
256.290962
 30
0.0
  0
SPLINE
  5
12a
100
AcDbEntity
  8
Layer_1
 62
7
100
AcDbSpline
 70
8
 71
3
 72
8
 73
4
 74
0
 40
0
 40
0
 40
0
 40
0
 40
1
 40
1
 40
1
 40
1
 10
73.439346
 20
256.290962
 30
0.0
 10
73.618491
 20
256.150402
 30
0.0
 10
73.708064
 20
255.969879
 30
0.0
 10
73.708064
 20
255.749393
 30
0.0
  0
SPLINE
  5
12b
100
AcDbEntity
  8
Layer_1
 62
7
100
AcDbSpline
 70
8
 71
3
 72
8
 73
4
 74
0
 40
0
 40
0
 40
0
 40
0
 40
1
 40
1
 40
1
 40
1
 10
73.708064
 20
255.749393
 30
0.0
 10
73.708064
 20
255.573004
 30
0.0
 10
73.650186
 20
255.417285
 30
0.0
 10
73.534431
 20
255.282238
 30
0.0
  0
SPLINE
  5
12c
100
AcDbEntity
  8
Layer_1
 62
7
100
AcDbSpline
 70
8
 71
3
 72
8
 73
4
 74
0
 40
0
 40
0
 40
0
 40
0
 40
1
 40
1
 40
1
 40
1
 10
73.534431
 20
255.282238
 30
0.0
 10
73.418676
 20
255.147190
 30
0.0
 10
73.238153
 20
255.052105
 30
0.0
 10
72.992862
 20
254.996984
 30
0.0
  0
LINE
  5
12d
100
AcDbEntity
  8
Layer_1
 62
7
100
AcDbLine
 10
72.992862
 20
254.996984
 30
0.0
 11
73.759740
 21
253.870438
 31
0.0
  0
LINE
  5
12e
100
AcDbEntity
  8
Layer_1
 62
7
100
AcDbLine
 10
73.759740
 20
253.870438
 30
0.0
 11
73.348396
 21
253.870438
 31
0.0
  0
LINE
  5
12f
100
AcDbEntity
  8
Layer_1
 62
7
100
AcDbLine
 10
73.348396
 20
253.870438
 30
0.0
 11
72.616658
 21
254.953576
 31
0.0
  0
LINE
  5
130
100
AcDbEntity
  8
Layer_1
 62
7
100
AcDbLine
 10
72.616658
 20
254.953576
 30
0.0
 11
72.536038
 21
254.953576
 31
0.0
  0
LINE
  5
131
100
AcDbEntity
  8
Layer_1
 62
7
100
AcDbLine
 10
72.536038
 20
254.953576
 30
0.0
 11
72.536038
 21
253.870438
 31
0.0
  0
LINE
  5
132
100
AcDbEntity
  8
Layer_1
 62
7
100
AcDbLine
 10
72.536038
 20
253.870438
 30
0.0
 11
72.176370
 21
253.870438
 31
0.0
  0
LINE
  5
133
100
AcDbEntity
  8
Layer_1
 62
7
100
AcDbLine
 10
72.176370
 20
253.870438
 30
0.0
 11
72.176374
 21
256.503868
 31
0.0
  0
LINE
  5
134
100
AcDbEntity
  8
Layer_1
 62
7
100
AcDbLine
 10
72.536042
 20
256.185542
 30
0.0
 11
72.536042
 21
255.267768
 31
0.0
  0
SPLINE
  5
135
100
AcDbEntity
  8
Layer_1
 62
7
100
AcDbSpline
 70
8
 71
3
 72
8
 73
4
 74
0
 40
0
 40
0
 40
0
 40
0
 40
1
 40
1
 40
1
 40
1
 10
72.536042
 20
255.267768
 30
0.0
 10
73.066587
 20
255.256741
 30
0.0
 10
73.331859
 20
255.410393
 30
0.0
 10
73.331859
 20
255.728722
 30
0.0
  0
SPLINE
  5
136
100
AcDbEntity
  8
Layer_1
 62
7
100
AcDbSpline
 70
8
 71
3
 72
8
 73
4
 74
0
 40
0
 40
0
 40
0
 40
0
 40
1
 40
1
 40
1
 40
1
 10
73.331859
 20
255.728722
 30
0.0
 10
73.331859
 20
255.840343
 30
0.0
 10
73.300852
 20
255.931294
 30
0.0
 10
73.238839
 20
256.001574
 30
0.0
  0
SPLINE
  5
137
100
AcDbEntity
  8
Layer_1
 62
7
100
AcDbSpline
 70
8
 71
3
 72
8
 73
4
 74
0
 40
0
 40
0
 40
0
 40
0
 40
1
 40
1
 40
1
 40
1
 10
73.238839
 20
256.001574
 30
0.0
 10
73.176826
 20
256.073232
 30
0.0
 10
73.094143
 20
256.121463
 30
0.0
 10
72.990792
 20
256.146268
 30
0.0
  0
SPLINE
  5
138
100
AcDbEntity
  8
Layer_1
 62
7
100
AcDbSpline
 70
8
 71
3
 72
8
 73
4
 74
0
 40
0
 40
0
 40
0
 40
0
 40
1
 40
1
 40
1
 40
1
 10
72.990792
 20
256.146268
 30
0.0
 10
72.887439
 20
256.172448
 30
0.0
 10
72.735855
 20
256.185538
 30
0.0
 10
72.536039
 20
256.185538
 30
0.0
  0
LINE
  5
139
100
AcDbEntity
  8
Layer_1
 62
7
100
AcDbLine
 10
72.536039
 20
256.185538
 30
0.0
 11
72.536042
 21
256.185542
 31
0.0
  0
LINE
  5
13a
100
AcDbEntity
  8
Layer_1
 62
7
100
AcDbLine
 10
69.814430
 20
259.796915
 30
0.0
 11
70.234043
 21
259.796915
 31
0.0
  0
LINE
  5
13b
100
AcDbEntity
  8
Layer_1
 62
7
100
AcDbLine
 10
70.234043
 20
259.796915
 30
0.0
 11
70.234043
 21
258.547723
 31
0.0
  0
LINE
  5
13c
100
AcDbEntity
  8
Layer_1
 62
7
100
AcDbLine
 10
70.234043
 20
258.547723
 30
0.0
 11
71.533877
 21
259.796915
 31
0.0
  0
LINE
  5
13d
100
AcDbEntity
  8
Layer_1
 62
7
100
AcDbLine
 10
71.533877
 20
259.796915
 30
0.0
 11
72.122300
 21
259.796915
 31
0.0
  0
LINE
  5
13e
100
AcDbEntity
  8
Layer_1
 62
7
100
AcDbLine
 10
72.122300
 20
259.796915
 30
0.0
 11
70.639186
 21
258.369267
 31
0.0
  0
LINE
  5
13f
100
AcDbEntity
  8
Layer_1
 62
7
100
AcDbLine
 10
70.639186
 20
258.369267
 30
0.0
 11
72.131946
 21
256.724579
 31
0.0
  0
LINE
  5
140
100
AcDbEntity
  8
Layer_1
 62
7
100
AcDbLine
 10
72.131946
 20
256.724579
 30
0.0
 11
71.596578
 21
256.724579
 31
0.0
  0
LINE
  5
141
100
AcDbEntity
  8
Layer_1
 62
7
100
AcDbLine
 10
71.596578
 20
256.724579
 30
0.0
 11
70.234043
 21
258.222162
 31
0.0
  0
LINE
  5
142
100
AcDbEntity
  8
Layer_1
 62
7
100
AcDbLine
 10
70.234043
 20
258.222162
 30
0.0
 11
70.234043
 21
256.724579
 31
0.0
  0
LINE
  5
143
100
AcDbEntity
  8
Layer_1
 62
7
100
AcDbLine
 10
70.234043
 20
256.724579
 30
0.0
 11
69.814430
 21
256.724579
 31
0.0
  0
LINE
  5
144
100
AcDbEntity
  8
Layer_1
 62
7
100
AcDbLine
 10
69.814430
 20
256.724579
 30
0.0
 11
69.814430
 21
259.796915
 31
0.0
  0
LINE
  5
145
100
AcDbEntity
  8
Layer_1
 62
7
100
AcDbLine
 10
72.609436
 20
259.796915
 30
0.0
 11
73.275029
 21
259.796915
 31
0.0
  0
SPLINE
  5
146
100
AcDbEntity
  8
Layer_1
 62
7
100
AcDbSpline
 70
8
 71
3
 72
8
 73
4
 74
0
 40
0
 40
0
 40
0
 40
0
 40
1
 40
1
 40
1
 40
1
 10
73.275029
 20
259.796915
 30
0.0
 10
73.606217
 20
259.796915
 30
0.0
 10
73.875509
 20
259.714118
 30
0.0
 10
74.082904
 20
259.548524
 30
0.0
  0
SPLINE
  5
147
100
AcDbEntity
  8
Layer_1
 62
7
100
AcDbSpline
 70
8
 71
3
 72
8
 73
4
 74
0
 40
0
 40
0
 40
0
 40
0
 40
1
 40
1
 40
1
 40
1
 10
74.082904
 20
259.548524
 30
0.0
 10
74.291906
 20
259.384537
 30
0.0
 10
74.396407
 20
259.173927
 30
0.0
 10
74.396407
 20
258.916693
 30
0.0
  0
SPLINE
  5
148
100
AcDbEntity
  8
Layer_1
 62
7
100
AcDbSpline
 70
8
 71
3
 72
8
 73
4
 74
0
 40
0
 40
0
 40
0
 40
0
 40
1
 40
1
 40
1
 40
1
 10
74.396407
 20
258.916693
 30
0.0
 10
74.396407
 20
258.710906
 30
0.0
 10
74.328883
 20
258.529235
 30
0.0
 10
74.193836
 20
258.371679
 30
0.0
  0
SPLINE
  5
149
100
AcDbEntity
  8
Layer_1
 62
7
100
AcDbSpline
 70
8
 71
3
 72
8
 73
4
 74
0
 40
0
 40
0
 40
0
 40
0
 40
1
 40
1
 40
1
 40
1
 10
74.193836
 20
258.371679
 30
0.0
 10
74.058788
 20
258.214123
 30
0.0
 10
73.848178
 20
258.103191
 30
0.0
 10
73.562005
 20
258.038883
 30
0.0
  0
LINE
  5
14a
100
AcDbEntity
  8
Layer_1
 62
7
100
AcDbLine
 10
73.562005
 20
258.038883
 30
0.0
 11
74.456696
 21
256.724579
 31
0.0
  0
LINE
  5
14b
100
AcDbEntity
  8
Layer_1
 62
7
100
AcDbLine
 10
74.456696
 20
256.724579
 30
0.0
 11
73.976795
 21
256.724579
 31
0.0
  0
LINE
  5
14c
100
AcDbEntity
  8
Layer_1
 62
7
100
AcDbLine
 10
73.976795
 20
256.724579
 30
0.0
 11
73.123100
 21
257.988240
 31
0.0
  0
LINE
  5
14d
100
AcDbEntity
  8
Layer_1
 62
7
100
AcDbLine
 10
73.123100
 20
257.988240
 30
0.0
 11
73.029050
 21
257.988240
 31
0.0
  0
LINE
  5
14e
100
AcDbEntity
  8
Layer_1
 62
7
100
AcDbLine
 10
73.029050
 20
257.988240
 30
0.0
 11
73.029050
 21
256.724579
 31
0.0
  0
LINE
  5
14f
100
AcDbEntity
  8
Layer_1
 62
7
100
AcDbLine
 10
73.029050
 20
256.724579
 30
0.0
 11
72.609437
 21
256.724579
 31
0.0
  0
LINE
  5
150
100
AcDbEntity
  8
Layer_1
 62
7
100
AcDbLine
 10
72.609437
 20
256.724579
 30
0.0
 11
72.609436
 21
259.796915
 31
0.0
  0
LINE
  5
151
100
AcDbEntity
  8
Layer_1
 62
7
100
AcDbLine
 10
73.029049
 20
259.425534
 30
0.0
 11
73.029049
 21
258.354798
 31
0.0
  0
SPLINE
  5
152
100
AcDbEntity
  8
Layer_1
 62
7
100
AcDbSpline
 70
8
 71
3
 72
8
 73
4
 74
0
 40
0
 40
0
 40
0
 40
0
 40
1
 40
1
 40
1
 40
1
 10
73.029049
 20
258.354798
 30
0.0
 10
73.648018
 20
258.341938
 30
0.0
 10
73.957502
 20
258.521198
 30
0.0
 10
73.957502
 20
258.892578
 30
0.0
  0
SPLINE
  5
153
100
AcDbEntity
  8
Layer_1
 62
7
100
AcDbSpline
 70
8
 71
3
 72
8
 73
4
 74
0
 40
0
 40
0
 40
0
 40
0
 40
1
 40
1
 40
1
 40
1
 10
73.957502
 20
258.892578
 30
0.0
 10
73.957502
 20
259.022802
 30
0.0
 10
73.921329
 20
259.128911
 30
0.0
 10
73.848982
 20
259.210904
 30
0.0
  0
SPLINE
  5
154
100
AcDbEntity
  8
Layer_1
 62
7
100
AcDbSpline
 70
8
 71
3
 72
8
 73
4
 74
0
 40
0
 40
0
 40
0
 40
0
 40
1
 40
1
 40
1
 40
1
 10
73.848982
 20
259.210904
 30
0.0
 10
73.776635
 20
259.294505
 30
0.0
 10
73.680172
 20
259.350775
 30
0.0
 10
73.559594
 20
259.379714
 30
0.0
  0
SPLINE
  5
155
100
AcDbEntity
  8
Layer_1
 62
7
100
AcDbSpline
 70
8
 71
3
 72
8
 73
4
 74
0
 40
0
 40
0
 40
0
 40
0
 40
1
 40
1
 40
1
 40
1
 10
73.559594
 20
259.379714
 30
0.0
 10
73.439015
 20
259.410261
 30
0.0
 10
73.262167
 20
259.425534
 30
0.0
 10
73.029049
 20
259.425534
 30
0.0
  0
LINE
  5
156
100
AcDbEntity
  8
Layer_1
 62
7
100
AcDbLine
 10
73.029049
 20
259.425534
 30
0.0
 11
73.029049
 21
259.425534
 31
0.0
  0
LINE
  5
157
100
AcDbEntity
  8
Layer_1
 62
7
100
AcDbLine
 10
74.929814
 20
258.939246
 30
0.0
 11
75.856028
 21
258.939246
 31
0.0
  0
LINE
  5
158
100
AcDbEntity
  8
Layer_1
 62
7
100
AcDbLine
 10
75.856028
 20
258.939246
 30
0.0
 11
75.856028
 21
257.122819
 31
0.0
  0
LINE
  5
159
100
AcDbEntity
  8
Layer_1
 62
7
100
AcDbLine
 10
75.856028
 20
257.122819
 30
0.0
 11
75.869118
 21
257.122819
 31
0.0
  0
LINE
  5
15a
100
AcDbEntity
  8
Layer_1
 62
7
100
AcDbLine
 10
75.869118
 20
257.122819
 30
0.0
 11
77.296076
 21
258.939246
 31
0.0
  0
LINE
  5
15b
100
AcDbEntity
  8
Layer_1
 62
7
100
AcDbLine
 10
77.296076
 20
258.939246
 30
0.0
 11
78.428479
 21
258.939246
 31
0.0
  0
LINE
  5
15c
100
AcDbEntity
  8
Layer_1
 62
7
100
AcDbLine
 10
78.428479
 20
258.939246
 30
0.0
 11
76.795332
 21
256.887175
 31
0.0
  0
LINE
  5
15d
100
AcDbEntity
  8
Layer_1
 62
7
100
AcDbLine
 10
76.795332
 20
256.887175
 30
0.0
 11
78.497209
 21
254.642006
 31
0.0
  0
LINE
  5
15e
100
AcDbEntity
  8
Layer_1
 62
7
100
AcDbLine
 10
78.497209
 20
254.642006
 30
0.0
 11
77.384445
 21
254.642006
 31
0.0
  0
LINE
  5
15f
100
AcDbEntity
  8
Layer_1
 62
7
100
AcDbLine
 10
77.384445
 20
254.642006
 30
0.0
 11
75.869120
 21
256.651530
 31
0.0
  0
LINE
  5
160
100
AcDbEntity
  8
Layer_1
 62
7
100
AcDbLine
 10
75.869120
 20
256.651530
 30
0.0
 11
75.856030
 21
256.651530
 31
0.0
  0
LINE
  5
161
100
AcDbEntity
  8
Layer_1
 62
7
100
AcDbLine
 10
75.856030
 20
256.651530
 30
0.0
 11
75.856030
 21
254.642006
 31
0.0
  0
LINE
  5
162
100
AcDbEntity
  8
Layer_1
 62
7
100
AcDbLine
 10
75.856030
 20
254.642006
 30
0.0
 11
74.929816
 21
254.642006
 31
0.0
  0
LINE
  5
163
100
AcDbEntity
  8
Layer_1
 62
7
100
AcDbLine
 10
74.929816
 20
254.642006
 30
0.0
 11
74.929814
 21
258.939246
 31
0.0
  0
LINE
  5
164
100
AcDbEntity
  8
Layer_1
 62
7
100
AcDbLine
 10
79.158325
 20
258.939246
 30
0.0
 11
80.572192
 21
258.939246
 31
0.0
  0
SPLINE
  5
165
100
AcDbEntity
  8
Layer_1
 62
7
100
AcDbSpline
 70
8
 71
3
 72
8
 73
4
 74
0
 40
0
 40
0
 40
0
 40
0
 40
1
 40
1
 40
1
 40
1
 10
80.572192
 20
258.939246
 30
0.0
 10
81.002025
 20
258.939246
 30
0.0
 10
81.341310
 20
258.825787
 30
0.0
 10
81.590045
 20
258.598870
 30
0.0
  0
SPLINE
  5
166
100
AcDbEntity
  8
Layer_1
 62
7
100
AcDbSpline
 70
8
 71
3
 72
8
 73
4
 74
0
 40
0
 40
0
 40
0
 40
0
 40
1
 40
1
 40
1
 40
1
 10
81.590045
 20
258.598870
 30
0.0
 10
81.840963
 20
258.371953
 30
0.0
 10
81.966422
 20
258.065397
 30
0.0
 10
81.966422
 20
257.679202
 30
0.0
  0
SPLINE
  5
167
100
AcDbEntity
  8
Layer_1
 62
7
100
AcDbSpline
 70
8
 71
3
 72
8
 73
4
 74
0
 40
0
 40
0
 40
0
 40
0
 40
1
 40
1
 40
1
 40
1
 10
81.966422
 20
257.679202
 30
0.0
 10
81.966422
 20
257.458831
 30
0.0
 10
81.908602
 20
257.229732
 30
0.0
 10
81.792962
 20
256.991906
 30
0.0
  0
SPLINE
  5
168
100
AcDbEntity
  8
Layer_1
 62
7
100
AcDbSpline
 70
8
 71
3
 72
8
 73
4
 74
0
 40
0
 40
0
 40
0
 40
0
 40
1
 40
1
 40
1
 40
1
 10
81.792962
 20
256.991906
 30
0.0
 10
81.679503
 20
256.754079
 30
0.0
 10
81.468950
 20
256.567527
 30
0.0
 10
81.161303
 20
256.432250
 30
0.0
  0
LINE
  5
169
100
AcDbEntity
  8
Layer_1
 62
7
100
AcDbLine
 10
81.161303
 20
256.432250
 30
0.0
 11
82.362436
 21
254.642006
 31
0.0
  0
LINE
  5
16a
100
AcDbEntity
  8
Layer_1
 62
7
100
AcDbLine
 10
82.362436
 20
254.642006
 30
0.0
 11
81.302035
 21
254.642006
 31
0.0
  0
LINE
  5
16b
100
AcDbEntity
  8
Layer_1
 62
7
100
AcDbLine
 10
81.302035
 20
254.642006
 30
0.0
 11
80.189270
 21
256.304609
 31
0.0
  0
LINE
  5
16c
100
AcDbEntity
  8
Layer_1
 62
7
100
AcDbLine
 10
80.189270
 20
256.304609
 30
0.0
 11
80.084539
 21
256.304609
 31
0.0
  0
LINE
  5
16d
100
AcDbEntity
  8
Layer_1
 62
7
100
AcDbLine
 10
80.084539
 20
256.304609
 30
0.0
 11
80.084539
 21
254.642006
 31
0.0
  0
LINE
  5
16e
100
AcDbEntity
  8
Layer_1
 62
7
100
AcDbLine
 10
80.084539
 20
254.642006
 30
0.0
 11
79.158325
 21
254.642006
 31
0.0
  0
LINE
  5
16f
100
AcDbEntity
  8
Layer_1
 62
7
100
AcDbLine
 10
79.158325
 20
254.642006
 30
0.0
 11
79.158325
 21
258.939246
 31
0.0
  0
LINE
  5
170
100
AcDbEntity
  8
Layer_1
 62
7
100
AcDbLine
 10
80.091084
 20
258.173401
 30
0.0
 11
80.091084
 21
257.054090
 31
0.0
  0
LINE
  5
171
100
AcDbEntity
  8
Layer_1
 62
7
100
AcDbLine
 10
80.091084
 20
257.054090
 30
0.0
 11
80.290728
 21
257.054090
 31
0.0
  0
SPLINE
  5
172
100
AcDbEntity
  8
Layer_1
 62
7
100
AcDbSpline
 70
8
 71
3
 72
8
 73
4
 74
0
 40
0
 40
0
 40
0
 40
0
 40
1
 40
1
 40
1
 40
1
 10
80.290728
 20
257.054090
 30
0.0
 10
80.772926
 20
257.054090
 30
0.0
 10
81.014025
 20
257.251551
 30
0.0
 10
81.014025
 20
257.646474
 30
0.0
  0
SPLINE
  5
173
100
AcDbEntity
  8
Layer_1
 62
7
100
AcDbSpline
 70
8
 71
3
 72
8
 73
4
 74
0
 40
0
 40
0
 40
0
 40
0
 40
1
 40
1
 40
1
 40
1
 10
81.014025
 20
257.646474
 30
0.0
 10
81.014025
 20
257.807934
 30
0.0
 10
80.950750
 20
257.935575
 30
0.0
 10
80.824201
 20
258.029396
 30
0.0
  0
SPLINE
  5
174
100
AcDbEntity
  8
Layer_1
 62
7
100
AcDbSpline
 70
8
 71
3
 72
8
 73
4
 74
0
 40
0
 40
0
 40
0
 40
0
 40
1
 40
1
 40
1
 40
1
 10
80.824201
 20
258.029396
 30
0.0
 10
80.699833
 20
258.125399
 30
0.0
 10
80.526372
 20
258.173401
 30
0.0
 10
80.303819
 20
258.173401
 30
0.0
  0
LINE
  5
175
100
AcDbEntity
  8
Layer_1
 62
7
100
AcDbLine
 10
80.303819
 20
258.173401
 30
0.0
 11
80.091084
 21
258.173401
 31
0.0
  0
LINE
  5
176
100
AcDbEntity
  8
Layer_1
 62
7
100
AcDbLine
 10
82.523876
 20
259.812849
 30
0.0
 11
83.206349
 21
259.812849
 31
0.0
  0
LINE
  5
177
100
AcDbEntity
  8
Layer_1
 62
7
100
AcDbLine
 10
83.206349
 20
259.812849
 30
0.0
 11
83.206349
 21
258.474429
 31
0.0
  0
LINE
  5
178
100
AcDbEntity
  8
Layer_1
 62
7
100
AcDbLine
 10
83.206349
 20
258.474429
 30
0.0
 11
83.215949
 21
258.474429
 31
0.0
  0
LINE
  5
179
100
AcDbEntity
  8
Layer_1
 62
7
100
AcDbLine
 10
83.215949
 20
258.474429
 30
0.0
 11
84.267392
 21
259.812849
 31
0.0
  0
LINE
  5
17a
100
AcDbEntity
  8
Layer_1
 62
7
100
AcDbLine
 10
84.267392
 20
259.812849
 30
0.0
 11
85.101795
 21
259.812849
 31
0.0
  0
LINE
  5
17b
100
AcDbEntity
  8
Layer_1
 62
7
100
AcDbLine
 10
85.101795
 20
259.812849
 30
0.0
 11
83.898423
 21
258.300796
 31
0.0
  0
LINE
  5
17c
100
AcDbEntity
  8
Layer_1
 62
7
100
AcDbLine
 10
83.898423
 20
258.300796
 30
0.0
 11
85.152437
 21
256.646461
 31
0.0
  0
LINE
  5
17d
100
AcDbEntity
  8
Layer_1
 62
7
100
AcDbLine
 10
85.152437
 20
256.646461
 30
0.0
 11
84.332505
 21
256.646461
 31
0.0
  0
LINE
  5
17e
100
AcDbEntity
  8
Layer_1
 62
7
100
AcDbLine
 10
84.332505
 20
256.646461
 30
0.0
 11
83.215949
 21
258.127164
 31
0.0
  0
LINE
  5
17f
100
AcDbEntity
  8
Layer_1
 62
7
100
AcDbLine
 10
83.215949
 20
258.127164
 30
0.0
 11
83.206349
 21
258.127164
 31
0.0
  0
LINE
  5
180
100
AcDbEntity
  8
Layer_1
 62
7
100
AcDbLine
 10
83.206349
 20
258.127164
 30
0.0
 11
83.206349
 21
256.646461
 31
0.0
  0
LINE
  5
181
100
AcDbEntity
  8
Layer_1
 62
7
100
AcDbLine
 10
83.206349
 20
256.646461
 30
0.0
 11
82.523876
 21
256.646461
 31
0.0
  0
LINE
  5
182
100
AcDbEntity
  8
Layer_1
 62
7
100
AcDbLine
 10
82.523876
 20
256.646461
 30
0.0
 11
82.523876
 21
259.812849
 31
0.0
  0
LINE
  5
183
100
AcDbEntity
  8
Layer_1
 62
7
100
AcDbLine
 10
85.639620
 20
259.812849
 30
0.0
 11
86.681417
 21
259.812849
 31
0.0
  0
SPLINE
  5
184
100
AcDbEntity
  8
Layer_1
 62
7
100
AcDbSpline
 70
8
 71
3
 72
8
 73
4
 74
0
 40
0
 40
0
 40
0
 40
0
 40
1
 40
1
 40
1
 40
1
 10
86.681417
 20
259.812849
 30
0.0
 10
86.998136
 20
259.812849
 30
0.0
 10
87.248135
 20
259.729248
 30
0.0
 10
87.431414
 20
259.562046
 30
0.0
  0
SPLINE
  5
185
100
AcDbEntity
  8
Layer_1
 62
7
100
AcDbSpline
 70
8
 71
3
 72
8
 73
4
 74
0
 40
0
 40
0
 40
0
 40
0
 40
1
 40
1
 40
1
 40
1
 10
87.431414
 20
259.562046
 30
0.0
 10
87.616301
 20
259.394844
 30
0.0
 10
87.708744
 20
259.168961
 30
0.0
 10
87.708744
 20
258.884396
 30
0.0
  0
SPLINE
  5
186
100
AcDbEntity
  8
Layer_1
 62
7
100
AcDbSpline
 70
8
 71
3
 72
8
 73
4
 74
0
 40
0
 40
0
 40
0
 40
0
 40
1
 40
1
 40
1
 40
1
 10
87.708744
 20
258.884396
 30
0.0
 10
87.708744
 20
258.722017
 30
0.0
 10
87.666140
 20
258.553207
 30
0.0
 10
87.580931
 20
258.377967
 30
0.0
  0
SPLINE
  5
187
100
AcDbEntity
  8
Layer_1
 62
7
100
AcDbSpline
 70
8
 71
3
 72
8
 73
4
 74
0
 40
0
 40
0
 40
0
 40
0
 40
1
 40
1
 40
1
 40
1
 10
87.580931
 20
258.377967
 30
0.0
 10
87.497330
 20
258.202726
 30
0.0
 10
87.342186
 20
258.065267
 30
0.0
 10
87.115499
 20
257.965589
 30
0.0
  0
LINE
  5
188
100
AcDbEntity
  8
Layer_1
 62
7
100
AcDbLine
 10
87.115499
 20
257.965589
 30
0.0
 11
88.000544
 21
256.646461
 31
0.0
  0
LINE
  5
189
100
AcDbEntity
  8
Layer_1
 62
7
100
AcDbLine
 10
88.000544
 20
256.646461
 30
0.0
 11
87.219196
 21
256.646461
 31
0.0
  0
LINE
  5
18a
100
AcDbEntity
  8
Layer_1
 62
7
100
AcDbLine
 10
87.219196
 20
256.646461
 30
0.0
 11
86.399264
 21
257.871537
 31
0.0
  0
LINE
  5
18b
100
AcDbEntity
  8
Layer_1
 62
7
100
AcDbLine
 10
86.399264
 20
257.871537
 30
0.0
 11
86.322094
 21
257.871537
 31
0.0
  0
LINE
  5
18c
100
AcDbEntity
  8
Layer_1
 62
7
100
AcDbLine
 10
86.322094
 20
257.871537
 30
0.0
 11
86.322094
 21
256.646461
 31
0.0
  0
LINE
  5
18d
100
AcDbEntity
  8
Layer_1
 62
7
100
AcDbLine
 10
86.322094
 20
256.646461
 30
0.0
 11
85.639620
 21
256.646461
 31
0.0
  0
LINE
  5
18e
100
AcDbEntity
  8
Layer_1
 62
7
100
AcDbLine
 10
85.639620
 20
256.646461
 30
0.0
 11
85.639620
 21
259.812849
 31
0.0
  0
LINE
  5
18f
100
AcDbEntity
  8
Layer_1
 62
7
100
AcDbLine
 10
86.326917
 20
259.248542
 30
0.0
 11
86.326917
 21
258.423786
 31
0.0
  0
LINE
  5
190
100
AcDbEntity
  8
Layer_1
 62
7
100
AcDbLine
 10
86.326917
 20
258.423786
 30
0.0
 11
86.474022
 21
258.423786
 31
0.0
  0
SPLINE
  5
191
100
AcDbEntity
  8
Layer_1
 62
7
100
AcDbSpline
 70
8
 71
3
 72
8
 73
4
 74
0
 40
0
 40
0
 40
0
 40
0
 40
1
 40
1
 40
1
 40
1
 10
86.474022
 20
258.423786
 30
0.0
 10
86.829326
 20
258.423786
 30
0.0
 10
87.006978
 20
258.569284
 30
0.0
 10
87.006978
 20
258.860280
 30
0.0
  0
SPLINE
  5
192
100
AcDbEntity
  8
Layer_1
 62
7
100
AcDbSpline
 70
8
 71
3
 72
8
 73
4
 74
0
 40
0
 40
0
 40
0
 40
0
 40
1
 40
1
 40
1
 40
1
 10
87.006978
 20
258.860280
 30
0.0
 10
87.006978
 20
258.979251
 30
0.0
 10
86.960354
 20
259.073302
 30
0.0
 10
86.867107
 20
259.142433
 30
0.0
  0
SPLINE
  5
193
100
AcDbEntity
  8
Layer_1
 62
7
100
AcDbSpline
 70
8
 71
3
 72
8
 73
4
 74
0
 40
0
 40
0
 40
0
 40
0
 40
1
 40
1
 40
1
 40
1
 10
86.867107
 20
259.142433
 30
0.0
 10
86.775468
 20
259.213172
 30
0.0
 10
86.647655
 20
259.248542
 30
0.0
 10
86.483668
 20
259.248542
 30
0.0
  0
LINE
  5
194
100
AcDbEntity
  8
Layer_1
 62
7
100
AcDbLine
 10
86.483668
 20
259.248542
 30
0.0
 11
86.326917
 21
259.248542
 31
0.0
  0
LINE
  5
195
100
AcDbEntity
  8
Layer_1
 62
7
100
AcDbLine
 10
82.737724
 20
256.349113
 30
0.0
 11
83.322701
 21
256.349113
 31
0.0
  0
LINE
  5
196
100
AcDbEntity
  8
Layer_1
 62
7
100
AcDbLine
 10
83.322701
 20
256.349113
 30
0.0
 11
83.322701
 21
255.201896
 31
0.0
  0
LINE
  5
197
100
AcDbEntity
  8
Layer_1
 62
7
100
AcDbLine
 10
83.322701
 20
255.201896
 30
0.0
 11
83.331001
 21
255.201896
 31
0.0
  0
LINE
  5
198
100
AcDbEntity
  8
Layer_1
 62
7
100
AcDbLine
 10
83.331001
 20
255.201896
 30
0.0
 11
84.232238
 21
256.349113
 31
0.0
  0
LINE
  5
199
100
AcDbEntity
  8
Layer_1
 62
7
100
AcDbLine
 10
84.232238
 20
256.349113
 30
0.0
 11
84.947440
 21
256.349113
 31
0.0
  0
LINE
  5
19a
100
AcDbEntity
  8
Layer_1
 62
7
100
AcDbLine
 10
84.947440
 20
256.349113
 30
0.0
 11
83.915979
 21
255.053068
 31
0.0
  0
LINE
  5
19b
100
AcDbEntity
  8
Layer_1
 62
7
100
AcDbLine
 10
83.915979
 20
255.053068
 30
0.0
 11
84.990848
 21
253.635067
 31
0.0
  0
LINE
  5
19c
100
AcDbEntity
  8
Layer_1
 62
7
100
AcDbLine
 10
84.990848
 20
253.635067
 30
0.0
 11
84.288017
 21
253.635067
 31
0.0
  0
LINE
  5
19d
100
AcDbEntity
  8
Layer_1
 62
7
100
AcDbLine
 10
84.288017
 20
253.635067
 30
0.0
 11
83.330969
 21
254.904240
 31
0.0
  0
LINE
  5
19e
100
AcDbEntity
  8
Layer_1
 62
7
100
AcDbLine
 10
83.330969
 20
254.904240
 30
0.0
 11
83.322669
 21
254.904240
 31
0.0
  0
LINE
  5
19f
100
AcDbEntity
  8
Layer_1
 62
7
100
AcDbLine
 10
83.322669
 20
254.904240
 30
0.0
 11
83.322669
 21
253.635067
 31
0.0
  0
LINE
  5
1a0
100
AcDbEntity
  8
Layer_1
 62
7
100
AcDbLine
 10
83.322669
 20
253.635067
 30
0.0
 11
82.737692
 21
253.635067
 31
0.0
  0
LINE
  5
1a1
100
AcDbEntity
  8
Layer_1
 62
7
100
AcDbLine
 10
82.737692
 20
253.635067
 30
0.0
 11
82.737724
 21
256.349113
 31
0.0
  0
LINE
  5
1a2
100
AcDbEntity
  8
Layer_1
 62
7
100
AcDbLine
 10
85.408362
 20
256.349113
 30
0.0
 11
86.301330
 21
256.349113
 31
0.0
  0
SPLINE
  5
1a3
100
AcDbEntity
  8
Layer_1
 62
7
100
AcDbSpline
 70
8
 71
3
 72
8
 73
4
 74
0
 40
0
 40
0
 40
0
 40
0
 40
1
 40
1
 40
1
 40
1
 10
86.301330
 20
256.349113
 30
0.0
 10
86.572804
 20
256.349113
 30
0.0
 10
86.787089
 20
256.277455
 30
0.0
 10
86.944185
 20
256.134139
 30
0.0
  0
SPLINE
  5
1a4
100
AcDbEntity
  8
Layer_1
 62
7
100
AcDbSpline
 70
8
 71
3
 72
8
 73
4
 74
0
 40
0
 40
0
 40
0
 40
0
 40
1
 40
1
 40
1
 40
1
 10
86.944185
 20
256.134139
 30
0.0
 10
87.102660
 20
255.990823
 30
0.0
 10
87.181897
 20
255.797209
 30
0.0
 10
87.181897
 20
255.553296
 30
0.0
  0
SPLINE
  5
1a5
100
AcDbEntity
  8
Layer_1
 62
7
100
AcDbSpline
 70
8
 71
3
 72
8
 73
4
 74
0
 40
0
 40
0
 40
0
 40
0
 40
1
 40
1
 40
1
 40
1
 10
87.181897
 20
255.553296
 30
0.0
 10
87.181897
 20
255.414114
 30
0.0
 10
87.145379
 20
255.269420
 30
0.0
 10
87.072343
 20
255.119214
 30
0.0
  0
SPLINE
  5
1a6
100
AcDbEntity
  8
Layer_1
 62
7
100
AcDbSpline
 70
8
 71
3
 72
8
 73
4
 74
0
 40
0
 40
0
 40
0
 40
0
 40
1
 40
1
 40
1
 40
1
 10
87.072343
 20
255.119214
 30
0.0
 10
87.000685
 20
254.969008
 30
0.0
 10
86.867704
 20
254.851186
 30
0.0
 10
86.673401
 20
254.765747
 30
0.0
  0
LINE
  5
1a7
100
AcDbEntity
  8
Layer_1
 62
7
100
AcDbLine
 10
86.673401
 20
254.765747
 30
0.0
 11
87.432011
 21
253.635067
 31
0.0
  0
LINE
  5
1a8
100
AcDbEntity
  8
Layer_1
 62
7
100
AcDbLine
 10
87.432011
 20
253.635067
 30
0.0
 11
86.762284
 21
253.635067
 31
0.0
  0
LINE
  5
1a9
100
AcDbEntity
  8
Layer_1
 62
7
100
AcDbLine
 10
86.762284
 20
253.635067
 30
0.0
 11
86.059485
 21
254.685132
 31
0.0
  0
LINE
  5
1aa
100
AcDbEntity
  8
Layer_1
 62
7
100
AcDbLine
 10
86.059485
 20
254.685132
 30
0.0
 11
85.993335
 21
254.685132
 31
0.0
  0
LINE
  5
1ab
100
AcDbEntity
  8
Layer_1
 62
7
100
AcDbLine
 10
85.993335
 20
254.685132
 30
0.0
 11
85.993335
 21
253.635067
 31
0.0
  0
LINE
  5
1ac
100
AcDbEntity
  8
Layer_1
 62
7
100
AcDbLine
 10
85.993335
 20
253.635067
 30
0.0
 11
85.408358
 21
253.635067
 31
0.0
  0
LINE
  5
1ad
100
AcDbEntity
  8
Layer_1
 62
7
100
AcDbLine
 10
85.408358
 20
253.635067
 30
0.0
 11
85.408362
 21
256.349113
 31
0.0
  0
LINE
  5
1ae
100
AcDbEntity
  8
Layer_1
 62
7
100
AcDbLine
 10
85.997473
 20
255.865422
 30
0.0
 11
85.997473
 21
255.158488
 31
0.0
  0
LINE
  5
1af
100
AcDbEntity
  8
Layer_1
 62
7
100
AcDbLine
 10
85.997473
 20
255.158488
 30
0.0
 11
86.123564
 21
255.158488
 31
0.0
  0
SPLINE
  5
1b0
100
AcDbEntity
  8
Layer_1
 62
7
100
AcDbSpline
 70
8
 71
3
 72
8
 73
4
 74
0
 40
0
 40
0
 40
0
 40
0
 40
1
 40
1
 40
1
 40
1
 10
86.123564
 20
255.158488
 30
0.0
 10
86.428110
 20
255.158488
 30
0.0
 10
86.580383
 20
255.283200
 30
0.0
 10
86.580383
 20
255.532625
 30
0.0
  0
SPLINE
  5
1b1
100
AcDbEntity
  8
Layer_1
 62
7
100
AcDbSpline
 70
8
 71
3
 72
8
 73
4
 74
0
 40
0
 40
0
 40
0
 40
0
 40
1
 40
1
 40
1
 40
1
 10
86.580383
 20
255.532625
 30
0.0
 10
86.580383
 20
255.634600
 30
0.0
 10
86.540420
 20
255.715216
 30
0.0
 10
86.460494
 20
255.774471
 30
0.0
  0
SPLINE
  5
1b2
100
AcDbEntity
  8
Layer_1
 62
7
100
AcDbSpline
 70
8
 71
3
 72
8
 73
4
 74
0
 40
0
 40
0
 40
0
 40
0
 40
1
 40
1
 40
1
 40
1
 10
86.460494
 20
255.774471
 30
0.0
 10
86.381946
 20
255.835104
 30
0.0
 10
86.272392
 20
255.865421
 30
0.0
 10
86.131832
 20
255.865421
 30
0.0
  0
LINE
  5
1b3
100
AcDbEntity
  8
Layer_1
 62
7
100
AcDbLine
 10
86.131832
 20
255.865421
 30
0.0
 11
85.997473
 21
255.865422
 31
0.0
  0
ENDSEC
  0
SECTION
  2
OBJECTS
  0
DICTIONARY
  5
C
330
0
100
AcDbDictionary
  3
ACAD_GROUP
350
D
  3
ACAD_MLINESTYLE
350
17
  0
DICTIONARY
  5
D
330
C
100
AcDbDictionary
  0
DICTIONARY
  5
1A
330
C
100
AcDbDictionary
  0
DICTIONARY
  5
17
330
C
100
AcDbDictionary
  3
STANDARD
350
18
  0
DICTIONARY
  5
19
330
C
100
AcDbDictionary
  0
ENDSEC
  0
EOF
