  0
SECTION
  2
HEADER
  9
$ACADVER
  1
AC1014
  9
$HANDSEED
  5
FFFF
  9
$MEASUREMENT
 70
     1
  0
ENDSEC
  0
SECTION
  2
TABLES
  0
TABLE
  2
VPORT
  5
8
330
0
100
AcDbSymbolTable
 70
     4
  0
VPORT
  5
2E
330
8
100
AcDbSymbolTableRecord
100
AcDbViewportTableRecord
  2
*ACTIVE
 70
     0
 10
0.0
 20
0.0
 11
1.0
 21
1.0
 12
210.0
 22
148.5
 13
0.0
 23
0.0
 14
10.0
 24
10.0
 15
10.0
 25
10.0
 16
0.0
 26
0.0
 36
1.0
 17
0.0
 27
0.0
 37
0.0
 40
341.0
 41
1.24
 42
50.0
 43
0.0
 44
0.0
 50
0.0
 51
0.0
 71
     0
 72
   100
 73
     1
 74
     3
 75
     0
 76
     0
 77
     0
 78
     0
  0
ENDTAB
  0
TABLE
  2
LTYPE
  5
5
330
0
100
AcDbSymbolTable
 70
     1
  0
LTYPE
  5
14
330
5
100
AcDbSymbolTableRecord
100
AcDbLinetypeTableRecord
  2
BYBLOCK
 70
     0
  3

 72
    65
 73
     0
 40
0.0
  0
LTYPE
  5
15
330
5
100
AcDbSymbolTableRecord
100
AcDbLinetypeTableRecord
  2
BYLAYER
 70
     0
  3

 72
    65
 73
     0
 40
0.0
  0
LTYPE
  5
16
330
5
100
AcDbSymbolTableRecord
100
AcDbLinetypeTableRecord
  2
CONTINUOUS
 70
     0
  3
Solid line
 72
    65
 73
     0
 40
0.0
  0
ENDTAB
  0
TABLE
  2
LAYER
  5
2
100
AcDbSymbolTable
 70
2
  0
LAYER
  5
50
100
AcDbSymbolTableRecord
100
AcDbLayerTableRecord
  2
0
 70
0
  6
CONTINUOUS
  0
LAYER
  5
51
100
AcDbSymbolTableRecord
100
AcDbLayerTableRecord
  2
Layer_1
 70
0
  6
CONTINUOUS
  0
ENDTAB
  0
TABLE
  2
STYLE
  5
3
330
0
100
AcDbSymbolTable
 70
     1
  0
STYLE
  5
11
330
3
100
AcDbSymbolTableRecord
100
AcDbTextStyleTableRecord
  2
STANDARD
 70
     0
 40
0.0
 41
1.0
 50
0.0
 71
     0
 42
2.5
  3
txt
  4

  0
ENDTAB
  0
TABLE
  2
VIEW
  5
6
330
0
100
AcDbSymbolTable
 70
     0
  0
ENDTAB
  0
TABLE
  2
UCS
  5
7
330
0
100
AcDbSymbolTable
 70
     0
  0
ENDTAB
  0
TABLE
  2
APPID
  5
9
330
0
100
AcDbSymbolTable
 70
     2
  0
APPID
  5
12
330
9
100
AcDbSymbolTableRecord
100
AcDbRegAppTableRecord
  2
ACAD
 70
     0
  0
ENDTAB
  0
TABLE
  2
DIMSTYLE
  5
A
330
0
100
AcDbSymbolTable
 70
     1
  0
DIMSTYLE
105
27
330
A
100
AcDbSymbolTableRecord
100
AcDbDimStyleTableRecord
  2
ISO-25
 70
     0
  3

  4

  5

  6

  7

 40
1.0
 41
2.5
 42
0.625
 43
3.75
 44
1.25
 45
0.0
 46
0.0
 47
0.0
 48
0.0
140
2.5
141
2.5
142
0.0
143
0.03937007874016
144
1.0
145
0.0
146
1.0
147
0.625
 71
     0
 72
     0
 73
     0
 74
     0
 75
     0
 76
     0
 77
     1
 78
     8
170
     0
171
     3
172
     1
173
     0
174
     0
175
     0
176
     0
177
     0
178
     0
270
     2
271
     2
272
     2
273
     2
274
     3
340
11
275
     0
280
     0
281
     0
282
     0
283
     0
284
     8
285
     0
286
     0
287
     3
288
     0
  0
ENDTAB
  0
TABLE
  2
BLOCK_RECORD
  5
1
330
0
100
AcDbSymbolTable
 70
     1
  0
BLOCK_RECORD
  5
1F
330
1
100
AcDbSymbolTableRecord
100
AcDbBlockTableRecord
  2
*MODEL_SPACE
  0
BLOCK_RECORD
  5
1B
330
1
100
AcDbSymbolTableRecord
100
AcDbBlockTableRecord
  2
*PAPER_SPACE
  0
ENDTAB
  0
ENDSEC
  0
SECTION
  2
BLOCKS
  0
BLOCK
  5
20
330
1F
100
AcDbEntity
  8
0
100
AcDbBlockBegin
  2
*MODEL_SPACE
 70
     0
 10
0.0
 20
0.0
 30
0.0
  3
*MODEL_SPACE
  1

  0
ENDBLK
  5
21
330
1F
100
AcDbEntity
  8
0
100
AcDbBlockEnd
  0
BLOCK
  5
1C
330
1B
100
AcDbEntity
 67
     1
  8
0
100
AcDbBlockBegin
  2
*PAPER_SPACE
  1

  0
ENDBLK
  5
1D
330
1B
100
AcDbEntity
 67
     1
  8
0
100
AcDbBlockEnd
  0
ENDSEC
  0
SECTION
  2
ENTITIES
  0
LWPOLYLINE
  5
100
100
AcDbEntity
  8
Layer_1
 62
4
100
AcDbPolyline
 90
10
 70
1
 10
0.132290
 20
6.310252
 30
0.0
 10
1.713240
 20
6.310252
 30
0.0
 10
1.713240
 20
5.920612
 30
0.0
 10
0.517450
 20
5.920612
 30
0.0
 10
0.517450
 20
5.208512
 30
0.0
 10
1.713240
 20
5.208512
 30
0.0
 10
1.713240
 20
4.823342
 30
0.0
 10
0.521930
 20
4.823342
 30
0.0
 10
0.521930
 20
3.457362
 30
0.0
 10
0.132290
 20
3.457362
 30
0.0
  0
SPLINE
  5
101
100
AcDbEntity
  8
Layer_1
 62
4
100
AcDbSpline
 70
8
 71
3
 72
8
 73
4
 74
0
 40
0
 40
0
 40
0
 40
0
 40
1
 40
1
 40
1
 40
1
 10
2.546270
 20
4.552392
 30
0.0
 10
2.546270
 20
4.292632
 30
0.0
 10
2.608223
 20
4.091838
 30
0.0
 10
2.732130
 20
3.950012
 30
0.0
  0
SPLINE
  5
102
100
AcDbEntity
  8
Layer_1
 62
4
100
AcDbSpline
 70
8
 71
3
 72
8
 73
4
 74
0
 40
0
 40
0
 40
0
 40
0
 40
1
 40
1
 40
1
 40
1
 10
2.732130
 20
3.950012
 30
0.0
 10
2.857530
 20
3.808192
 30
0.0
 10
3.034437
 20
3.737282
 30
0.0
 10
3.262850
 20
3.737282
 30
0.0
  0
SPLINE
  5
103
100
AcDbEntity
  8
Layer_1
 62
4
100
AcDbSpline
 70
8
 71
3
 72
8
 73
4
 74
0
 40
0
 40
0
 40
0
 40
0
 40
1
 40
1
 40
1
 40
1
 10
3.262850
 20
3.737282
 30
0.0
 10
3.489763
 20
3.737282
 30
0.0
 10
3.665923
 20
3.802222
 30
0.0
 10
3.791330
 20
3.932102
 30
0.0
  0
SPLINE
  5
104
100
AcDbEntity
  8
Layer_1
 62
4
100
AcDbSpline
 70
8
 71
3
 72
8
 73
4
 74
0
 40
0
 40
0
 40
0
 40
0
 40
1
 40
1
 40
1
 40
1
 10
3.791330
 20
3.932102
 30
0.0
 10
3.918223
 20
4.063475
 30
0.0
 10
3.981670
 20
4.247845
 30
0.0
 10
3.981670
 20
4.485212
 30
0.0
  0
LWPOLYLINE
  5
105
100
AcDbEntity
  8
Layer_1
 62
4
100
AcDbPolyline
 90
3
 70
0
 10
2.156630
 20
6.305772
 30
0.0
 10
2.546270
 20
6.305772
 30
0.0
 10
2.546270
 20
4.552392
 30
0.0
  0
SPLINE
  5
106
100
AcDbEntity
  8
Layer_1
 62
4
100
AcDbSpline
 70
8
 71
3
 72
8
 73
4
 74
0
 40
0
 40
0
 40
0
 40
0
 40
1
 40
1
 40
1
 40
1
 10
4.371310
 20
4.512082
 30
0.0
 10
4.371310
 20
4.162748
 30
0.0
 10
4.271287
 20
3.883582
 30
0.0
 10
4.071240
 20
3.674582
 30
0.0
  0
SPLINE
  5
107
100
AcDbEntity
  8
Layer_1
 62
4
100
AcDbSpline
 70
8
 71
3
 72
8
 73
4
 74
0
 40
0
 40
0
 40
0
 40
0
 40
1
 40
1
 40
1
 40
1
 10
4.071240
 20
3.674582
 30
0.0
 10
3.872687
 20
3.465575
 30
0.0
 10
3.607700
 20
3.361072
 30
0.0
 10
3.276280
 20
3.361072
 30
0.0
  0
SPLINE
  5
108
100
AcDbEntity
  8
Layer_1
 62
4
100
AcDbSpline
 70
8
 71
3
 72
8
 73
4
 74
0
 40
0
 40
0
 40
0
 40
0
 40
1
 40
1
 40
1
 40
1
 10
3.276280
 20
3.361072
 30
0.0
 10
2.937400
 20
3.361072
 30
0.0
 10
2.665697
 20
3.467069
 30
0.0
 10
2.461170
 20
3.679062
 30
0.0
  0
SPLINE
  5
109
100
AcDbEntity
  8
Layer_1
 62
4
100
AcDbSpline
 70
8
 71
3
 72
8
 73
4
 74
0
 40
0
 40
0
 40
0
 40
0
 40
1
 40
1
 40
1
 40
1
 10
2.461170
 20
3.679062
 30
0.0
 10
2.258143
 20
3.891048
 30
0.0
 10
2.156630
 20
4.203805
 30
0.0
 10
2.156630
 20
4.617332
 30
0.0
  0
LWPOLYLINE
  5
10a
100
AcDbEntity
  8
Layer_1
 62
4
100
AcDbPolyline
 90
4
 70
0
 10
3.981670
 20
4.485212
 30
0.0
 10
3.981670
 20
6.305772
 30
0.0
 10
4.371310
 20
6.305772
 30
0.0
 10
4.371310
 20
4.512082
 30
0.0
  0
LWPOLYLINE
  5
10b
100
AcDbEntity
  8
Layer_1
 62
4
100
AcDbPolyline
 90
2
 70
0
 10
2.156630
 20
4.617332
 30
0.0
 10
2.156630
 20
6.305772
 30
0.0
  0
LWPOLYLINE
  5
10c
100
AcDbEntity
  8
Layer_1
 62
4
100
AcDbPolyline
 90
8
 70
1
 10
4.763190
 20
6.310252
 30
0.0
 10
6.507610
 20
6.310252
 30
0.0
 10
6.507610
 20
5.920612
 30
0.0
 10
5.826860
 20
5.920612
 30
0.0
 10
5.826860
 20
3.457362
 30
0.0
 10
5.441700
 20
3.457362
 30
0.0
 10
5.441700
 20
5.920612
 30
0.0
 10
4.763190
 20
5.920612
 30
0.0
  0
LWPOLYLINE
  5
10d
100
AcDbEntity
  8
Layer_1
 62
4
100
AcDbPolyline
 90
10
 70
1
 10
0.673300
 20
2.400882
 30
0.0
 10
1.889420
 20
2.400882
 30
0.0
 10
1.889420
 20
2.101162
 30
0.0
 10
0.969580
 20
2.101162
 30
0.0
 10
0.969580
 20
1.553392
 30
0.0
 10
1.889420
 20
1.553392
 30
0.0
 10
1.889420
 20
1.257112
 30
0.0
 10
0.973030
 20
1.257112
 30
0.0
 10
0.973030
 20
0.206362
 30
0.0
 10
0.673300
 20
0.206362
 30
0.0
  0
SPLINE
  5
10e
100
AcDbEntity
  8
Layer_1
 62
4
100
AcDbSpline
 70
8
 71
3
 72
8
 73
4
 74
0
 40
0
 40
0
 40
0
 40
0
 40
1
 40
1
 40
1
 40
1
 10
2.530210
 20
1.048682
 30
0.0
 10
2.530210
 20
0.848868
 30
0.0
 10
2.577867
 20
0.694415
 30
0.0
 10
2.673180
 20
0.585322
 30
0.0
  0
SPLINE
  5
10f
100
AcDbEntity
  8
Layer_1
 62
4
100
AcDbSpline
 70
8
 71
3
 72
8
 73
4
 74
0
 40
0
 40
0
 40
0
 40
0
 40
1
 40
1
 40
1
 40
1
 10
2.673180
 20
0.585322
 30
0.0
 10
2.769640
 20
0.476228
 30
0.0
 10
2.905720
 20
0.421682
 30
0.0
 10
3.081420
 20
0.421682
 30
0.0
  0
SPLINE
  5
110
100
AcDbEntity
  8
Layer_1
 62
4
100
AcDbSpline
 70
8
 71
3
 72
8
 73
4
 74
0
 40
0
 40
0
 40
0
 40
0
 40
1
 40
1
 40
1
 40
1
 10
3.081420
 20
0.421682
 30
0.0
 10
3.255973
 20
0.421682
 30
0.0
 10
3.391483
 20
0.471635
 30
0.0
 10
3.487950
 20
0.571542
 30
0.0
  0
SPLINE
  5
111
100
AcDbEntity
  8
Layer_1
 62
4
100
AcDbSpline
 70
8
 71
3
 72
8
 73
4
 74
0
 40
0
 40
0
 40
0
 40
0
 40
1
 40
1
 40
1
 40
1
 10
3.487950
 20
0.571542
 30
0.0
 10
3.585557
 20
0.672595
 30
0.0
 10
3.634360
 20
0.814418
 30
0.0
 10
3.634360
 20
0.997012
 30
0.0
  0
LWPOLYLINE
  5
112
100
AcDbEntity
  8
Layer_1
 62
4
100
AcDbPolyline
 90
3
 70
0
 10
2.230490
 20
2.397442
 30
0.0
 10
2.530210
 20
2.397442
 30
0.0
 10
2.530210
 20
1.048682
 30
0.0
  0
SPLINE
  5
113
100
AcDbEntity
  8
Layer_1
 62
4
100
AcDbSpline
 70
8
 71
3
 72
8
 73
4
 74
0
 40
0
 40
0
 40
0
 40
0
 40
1
 40
1
 40
1
 40
1
 10
3.934090
 20
1.017682
 30
0.0
 10
3.934090
 20
0.748962
 30
0.0
 10
3.857147
 20
0.534215
 30
0.0
 10
3.703260
 20
0.373442
 30
0.0
  0
SPLINE
  5
114
100
AcDbEntity
  8
Layer_1
 62
4
100
AcDbSpline
 70
8
 71
3
 72
8
 73
4
 74
0
 40
0
 40
0
 40
0
 40
0
 40
1
 40
1
 40
1
 40
1
 10
3.703260
 20
0.373442
 30
0.0
 10
3.550533
 20
0.212675
 30
0.0
 10
3.346700
 20
0.132292
 30
0.0
 10
3.091760
 20
0.132292
 30
0.0
  0
SPLINE
  5
115
100
AcDbEntity
  8
Layer_1
 62
4
100
AcDbSpline
 70
8
 71
3
 72
8
 73
4
 74
0
 40
0
 40
0
 40
0
 40
0
 40
1
 40
1
 40
1
 40
1
 10
3.091760
 20
0.132292
 30
0.0
 10
2.831080
 20
0.132292
 30
0.0
 10
2.622077
 20
0.213825
 30
0.0
 10
2.464750
 20
0.376892
 30
0.0
  0
SPLINE
  5
116
100
AcDbEntity
  8
Layer_1
 62
4
100
AcDbSpline
 70
8
 71
3
 72
8
 73
4
 74
0
 40
0
 40
0
 40
0
 40
0
 40
1
 40
1
 40
1
 40
1
 10
2.464750
 20
0.376892
 30
0.0
 10
2.308577
 20
0.539958
 30
0.0
 10
2.230490
 20
0.780542
 30
0.0
 10
2.230490
 20
1.098642
 30
0.0
  0
LWPOLYLINE
  5
117
100
AcDbEntity
  8
Layer_1
 62
4
100
AcDbPolyline
 90
4
 70
0
 10
3.634360
 20
0.997012
 30
0.0
 10
3.634360
 20
2.397442
 30
0.0
 10
3.934090
 20
2.397442
 30
0.0
 10
3.934090
 20
1.017682
 30
0.0
  0
LWPOLYLINE
  5
118
100
AcDbEntity
  8
Layer_1
 62
4
100
AcDbPolyline
 90
2
 70
0
 10
2.230490
 20
1.098642
 30
0.0
 10
2.230490
 20
2.397442
 30
0.0
  0
LWPOLYLINE
  5
119
100
AcDbEntity
  8
Layer_1
 62
4
100
AcDbPolyline
 90
8
 70
1
 10
4.235530
 20
2.400882
 30
0.0
 10
5.577400
 20
2.400882
 30
0.0
 10
5.577400
 20
2.101162
 30
0.0
 10
5.053740
 20
2.101162
 30
0.0
 10
5.053740
 20
0.206362
 30
0.0
 10
4.757460
 20
0.206362
 30
0.0
 10
4.757460
 20
2.101162
 30
0.0
 10
4.235530
 20
2.101162
 30
0.0
  0
ENDSEC
  0
SECTION
  2
OBJECTS
  0
DICTIONARY
  5
C
330
0
100
AcDbDictionary
  3
ACAD_GROUP
350
D
  3
ACAD_MLINESTYLE
350
17
  0
DICTIONARY
  5
D
330
C
100
AcDbDictionary
  0
DICTIONARY
  5
1A
330
C
100
AcDbDictionary
  0
DICTIONARY
  5
17
330
C
100
AcDbDictionary
  3
STANDARD
350
18
  0
DICTIONARY
  5
19
330
C
100
AcDbDictionary
  0
ENDSEC
  0
EOF
