G04 #@! TF.GenerationSoftware,KiCad,Pcbnew,(5.0.1)-4*
G04 #@! TF.CreationDate,2019-02-10T23:31:26-08:00*
G04 #@! TF.ProjectId,ThrottleControl,5468726F74746C65436F6E74726F6C2E,rev?*
G04 #@! TF.SameCoordinates,Original*
G04 #@! TF.FileFunction,Copper,L1,Top,Signal*
G04 #@! TF.FilePolarity,Positive*
%FSLAX46Y46*%
G04 Gerber Fmt 4.6, Leading zero omitted, Abs format (unit mm)*
G04 Created by KiCad (PCBNEW (5.0.1)-4) date 2/10/2019 11:31:26 PM*
%MOMM*%
%LPD*%
G01*
G04 APERTURE LIST*
G04 #@! TA.AperFunction,NonConductor*
%ADD10C,0.200000*%
G04 #@! TD*
G04 #@! TA.AperFunction,ComponentPad*
%ADD11R,1.700000X1.700000*%
G04 #@! TD*
G04 #@! TA.AperFunction,ComponentPad*
%ADD12O,1.700000X1.700000*%
G04 #@! TD*
G04 #@! TA.AperFunction,ComponentPad*
%ADD13O,1.600000X1.600000*%
G04 #@! TD*
G04 #@! TA.AperFunction,ComponentPad*
%ADD14C,1.600000*%
G04 #@! TD*
G04 #@! TA.AperFunction,ComponentPad*
%ADD15O,1.500000X1.500000*%
G04 #@! TD*
G04 #@! TA.AperFunction,ComponentPad*
%ADD16C,1.524000*%
G04 #@! TD*
G04 #@! TA.AperFunction,ComponentPad*
%ADD17R,1.600000X1.600000*%
G04 #@! TD*
G04 #@! TA.AperFunction,ViaPad*
%ADD18C,0.800000*%
G04 #@! TD*
G04 #@! TA.AperFunction,Conductor*
%ADD19C,0.250000*%
G04 #@! TD*
G04 #@! TA.AperFunction,Conductor*
%ADD20C,0.254000*%
G04 #@! TD*
G04 APERTURE END LIST*
D10*
X178435000Y-117475000D02*
X178435000Y-45085000D01*
X133985000Y-117475000D02*
X178435000Y-117475000D01*
X106045000Y-89535000D02*
X133985000Y-117475000D01*
X106045000Y-64770000D02*
X106045000Y-89535000D01*
X114935000Y-55245000D02*
X106045000Y-64770000D01*
X123825000Y-55245000D02*
X114935000Y-55245000D01*
X123825000Y-45085000D02*
X123825000Y-55245000D01*
X178435000Y-45085000D02*
X123825000Y-45085000D01*
D11*
G04 #@! TO.P,J7,1*
G04 #@! TO.N,Earth*
X151130000Y-58420000D03*
D12*
G04 #@! TO.P,J7,2*
G04 #@! TO.N,/UNa1*
X148590000Y-58420000D03*
G04 #@! TO.P,J7,3*
G04 #@! TO.N,/UNa2*
X146050000Y-58420000D03*
G04 #@! TO.P,J7,4*
G04 #@! TO.N,/UNa3*
X143510000Y-58420000D03*
G04 #@! TD*
G04 #@! TO.P,J2,3*
G04 #@! TO.N,/WRP2*
X172844536Y-90718480D03*
G04 #@! TO.P,J2,2*
G04 #@! TO.N,/WRP1*
X172844536Y-93258480D03*
D11*
G04 #@! TO.P,J2,1*
G04 #@! TO.N,Earth*
X172844536Y-95798480D03*
G04 #@! TD*
G04 #@! TO.P,J3,1*
G04 #@! TO.N,Earth*
X172844536Y-85638480D03*
D12*
G04 #@! TO.P,J3,2*
G04 #@! TO.N,/PWR1*
X172844536Y-83098480D03*
G04 #@! TO.P,J3,3*
G04 #@! TO.N,/PWR2*
X172844536Y-80558480D03*
G04 #@! TD*
D11*
G04 #@! TO.P,J4,1*
G04 #@! TO.N,Earth*
X172844536Y-105958480D03*
D12*
G04 #@! TO.P,J4,2*
G04 #@! TO.N,/CZ1*
X172844536Y-103418480D03*
G04 #@! TO.P,J4,3*
G04 #@! TO.N,/CZ2*
X172844536Y-100878480D03*
G04 #@! TD*
G04 #@! TO.P,J5,3*
G04 #@! TO.N,/VTR*
X163954536Y-111038480D03*
G04 #@! TO.P,J5,2*
G04 #@! TO.N,/VOR*
X161414536Y-111038480D03*
D11*
G04 #@! TO.P,J5,1*
G04 #@! TO.N,Earth*
X158874536Y-111038480D03*
G04 #@! TD*
G04 #@! TO.P,J6,1*
G04 #@! TO.N,Earth*
X128394536Y-97068480D03*
D12*
G04 #@! TO.P,J6,2*
G04 #@! TO.N,/Cam1*
X128394536Y-99608480D03*
G04 #@! TO.P,J6,3*
G04 #@! TO.N,/Cam2*
X128394536Y-102148480D03*
G04 #@! TO.P,J6,4*
G04 #@! TO.N,/Cam3*
X128394536Y-104688480D03*
G04 #@! TO.P,J6,5*
G04 #@! TO.N,/Cam4*
X128394536Y-107228480D03*
G04 #@! TD*
G04 #@! TO.P,J8,5*
G04 #@! TO.N,/UNb4*
X153670000Y-76200000D03*
G04 #@! TO.P,J8,4*
G04 #@! TO.N,/UNb3*
X151130000Y-76200000D03*
G04 #@! TO.P,J8,3*
G04 #@! TO.N,/UNb2*
X148590000Y-76200000D03*
G04 #@! TO.P,J8,2*
G04 #@! TO.N,/UNb1*
X146050000Y-76200000D03*
D11*
G04 #@! TO.P,J8,1*
G04 #@! TO.N,Earth*
X143510000Y-76200000D03*
G04 #@! TD*
G04 #@! TO.P,J9,1*
G04 #@! TO.N,Earth*
X158750000Y-76200000D03*
D12*
G04 #@! TO.P,J9,2*
G04 #@! TO.N,/UNc1*
X161290000Y-76200000D03*
G04 #@! TO.P,J9,3*
G04 #@! TO.N,/UNc2*
X163830000Y-76200000D03*
G04 #@! TO.P,J9,4*
G04 #@! TO.N,/UNc3*
X166370000Y-76200000D03*
G04 #@! TO.P,J9,5*
G04 #@! TO.N,/UNc4*
X168910000Y-76200000D03*
G04 #@! TD*
G04 #@! TO.P,J10,3*
G04 #@! TO.N,/Map*
X172720000Y-63500000D03*
G04 #@! TO.P,J10,2*
G04 #@! TO.N,/MpR*
X172720000Y-66040000D03*
D11*
G04 #@! TO.P,J10,1*
G04 #@! TO.N,Earth*
X172720000Y-68580000D03*
G04 #@! TD*
G04 #@! TO.P,J11,1*
G04 #@! TO.N,Earth*
X146050000Y-48260000D03*
D12*
G04 #@! TO.P,J11,2*
G04 #@! TO.N,/TSW1*
X146050000Y-50800000D03*
G04 #@! TO.P,J11,3*
G04 #@! TO.N,/TSW2*
X146050000Y-53340000D03*
G04 #@! TD*
D11*
G04 #@! TO.P,J12,1*
G04 #@! TO.N,Earth*
X151130000Y-50800000D03*
D12*
G04 #@! TO.P,J12,2*
G04 #@! TO.N,/WPC*
X151130000Y-48260000D03*
G04 #@! TD*
D13*
G04 #@! TO.P,R1,2*
G04 #@! TO.N,+5V*
X129540000Y-58420000D03*
D14*
G04 #@! TO.P,R1,1*
G04 #@! TO.N,/SCK*
X139700000Y-58420000D03*
G04 #@! TD*
G04 #@! TO.P,R2,1*
G04 #@! TO.N,/SDA*
X139700000Y-54610000D03*
D13*
G04 #@! TO.P,R2,2*
G04 #@! TO.N,+5V*
X129540000Y-54610000D03*
G04 #@! TD*
G04 #@! TO.P,R3,2*
G04 #@! TO.N,/TH75*
X142364536Y-80558480D03*
D14*
G04 #@! TO.P,R3,1*
G04 #@! TO.N,Earth*
X132204536Y-80558480D03*
G04 #@! TD*
G04 #@! TO.P,R4,1*
G04 #@! TO.N,Earth*
X132204536Y-84368480D03*
D13*
G04 #@! TO.P,R4,2*
G04 #@! TO.N,/TH50*
X142364536Y-84368480D03*
G04 #@! TD*
G04 #@! TO.P,R5,2*
G04 #@! TO.N,/TH25*
X142364536Y-88178480D03*
D14*
G04 #@! TO.P,R5,1*
G04 #@! TO.N,Earth*
X132204536Y-88178480D03*
G04 #@! TD*
G04 #@! TO.P,R6,1*
G04 #@! TO.N,Earth*
X132204536Y-91988480D03*
D13*
G04 #@! TO.P,R6,2*
G04 #@! TO.N,/TH0*
X142364536Y-91988480D03*
G04 #@! TD*
G04 #@! TO.P,R7,2*
G04 #@! TO.N,/Cam1*
X142364536Y-95798480D03*
D14*
G04 #@! TO.P,R7,1*
G04 #@! TO.N,Earth*
X132204536Y-95798480D03*
G04 #@! TD*
G04 #@! TO.P,R8,1*
G04 #@! TO.N,Earth*
X132204536Y-99608480D03*
D13*
G04 #@! TO.P,R8,2*
G04 #@! TO.N,/Cam2*
X142364536Y-99608480D03*
G04 #@! TD*
G04 #@! TO.P,R9,2*
G04 #@! TO.N,/Cam3*
X142364536Y-103418480D03*
D14*
G04 #@! TO.P,R9,1*
G04 #@! TO.N,Earth*
X132204536Y-103418480D03*
G04 #@! TD*
G04 #@! TO.P,R10,1*
G04 #@! TO.N,Earth*
X132204536Y-107228480D03*
D13*
G04 #@! TO.P,R10,2*
G04 #@! TO.N,/Cam4*
X142364536Y-107228480D03*
G04 #@! TD*
G04 #@! TO.P,R11,2*
G04 #@! TO.N,/VOR*
X157604536Y-107228480D03*
D14*
G04 #@! TO.P,R11,1*
G04 #@! TO.N,Earth*
X167764536Y-107228480D03*
G04 #@! TD*
G04 #@! TO.P,R12,1*
G04 #@! TO.N,Earth*
X167764536Y-103418480D03*
D13*
G04 #@! TO.P,R12,2*
G04 #@! TO.N,/VTR*
X157604536Y-103418480D03*
G04 #@! TD*
G04 #@! TO.P,R13,2*
G04 #@! TO.N,/CZ1*
X157604536Y-99608480D03*
D14*
G04 #@! TO.P,R13,1*
G04 #@! TO.N,Earth*
X167764536Y-99608480D03*
G04 #@! TD*
G04 #@! TO.P,R14,1*
G04 #@! TO.N,Earth*
X167764536Y-95798480D03*
D13*
G04 #@! TO.P,R14,2*
G04 #@! TO.N,/CZ2*
X157604536Y-95798480D03*
G04 #@! TD*
G04 #@! TO.P,R15,2*
G04 #@! TO.N,/WRP1*
X157604536Y-91988480D03*
D14*
G04 #@! TO.P,R15,1*
G04 #@! TO.N,Earth*
X167764536Y-91988480D03*
G04 #@! TD*
G04 #@! TO.P,R16,1*
G04 #@! TO.N,Earth*
X167764536Y-88178480D03*
D13*
G04 #@! TO.P,R16,2*
G04 #@! TO.N,/WRP2*
X157604536Y-88178480D03*
G04 #@! TD*
G04 #@! TO.P,R17,2*
G04 #@! TO.N,/PWR1*
X157604536Y-84368480D03*
D14*
G04 #@! TO.P,R17,1*
G04 #@! TO.N,Earth*
X167764536Y-84368480D03*
G04 #@! TD*
G04 #@! TO.P,R18,1*
G04 #@! TO.N,Earth*
X167764536Y-80558480D03*
D13*
G04 #@! TO.P,R18,2*
G04 #@! TO.N,/PWR2*
X157604536Y-80558480D03*
G04 #@! TD*
D14*
G04 #@! TO.P,R19,1*
G04 #@! TO.N,Earth*
X170180000Y-49530000D03*
D13*
G04 #@! TO.P,R19,2*
G04 #@! TO.N,/MpR*
X170180000Y-59690000D03*
G04 #@! TD*
G04 #@! TO.P,R20,2*
G04 #@! TO.N,/Map*
X166370000Y-59690000D03*
D14*
G04 #@! TO.P,R20,1*
G04 #@! TO.N,Earth*
X166370000Y-49530000D03*
G04 #@! TD*
G04 #@! TO.P,R21,1*
G04 #@! TO.N,Earth*
X162560000Y-49530000D03*
D13*
G04 #@! TO.P,R21,2*
G04 #@! TO.N,/TSW1*
X162560000Y-59690000D03*
G04 #@! TD*
D14*
G04 #@! TO.P,R22,1*
G04 #@! TO.N,Earth*
X158750000Y-49530000D03*
D13*
G04 #@! TO.P,R22,2*
G04 #@! TO.N,/TSW2*
X158750000Y-59690000D03*
G04 #@! TD*
G04 #@! TO.P,R23,2*
G04 #@! TO.N,/WPC*
X154940000Y-59690000D03*
D14*
G04 #@! TO.P,R23,1*
G04 #@! TO.N,Earth*
X154940000Y-49530000D03*
G04 #@! TD*
D15*
G04 #@! TO.P,SW1,6*
G04 #@! TO.N,Net-(SW1-Pad6)*
X122032895Y-61219261D03*
G04 #@! TO.P,SW1,7*
G04 #@! TO.N,Net-(SW1-Pad7)*
X126627844Y-63872156D03*
G04 #@! TO.P,SW1,8*
G04 #@! TO.N,Net-(SW1-Pad8)*
X129280739Y-68467105D03*
G04 #@! TO.P,SW1,9*
G04 #@! TO.N,Net-(SW1-Pad9)*
X129280739Y-73772895D03*
G04 #@! TO.P,SW1,10*
G04 #@! TO.N,Net-(SW1-Pad10)*
X126627844Y-78367844D03*
G04 #@! TO.P,SW1,11*
G04 #@! TO.N,Net-(SW1-Pad11)*
X122032895Y-81020739D03*
G04 #@! TO.P,SW1,1*
G04 #@! TO.N,/TH0*
X112132156Y-78367844D03*
G04 #@! TO.P,SW1,2*
G04 #@! TO.N,/TH25*
X109479261Y-73772895D03*
G04 #@! TO.P,SW1,3*
G04 #@! TO.N,/TH50*
X109479261Y-68467105D03*
G04 #@! TO.P,SW1,4*
G04 #@! TO.N,/TH75*
X112132156Y-63872156D03*
G04 #@! TO.P,SW1,5*
G04 #@! TO.N,Net-(SW1-Pad5)*
X116727105Y-61219261D03*
D16*
G04 #@! TO.P,SW1,13*
G04 #@! TO.N,+5V*
X119380000Y-65620000D03*
G04 #@! TD*
D17*
G04 #@! TO.P,U1,1*
G04 #@! TO.N,/TH75*
X146174536Y-80558480D03*
D13*
G04 #@! TO.P,U1,15*
G04 #@! TO.N,Earth*
X153794536Y-113578480D03*
G04 #@! TO.P,U1,2*
G04 #@! TO.N,/TH50*
X146174536Y-83098480D03*
G04 #@! TO.P,U1,16*
G04 #@! TO.N,+5V*
X153794536Y-111038480D03*
G04 #@! TO.P,U1,3*
G04 #@! TO.N,/TH25*
X146174536Y-85638480D03*
G04 #@! TO.P,U1,17*
G04 #@! TO.N,Earth*
X153794536Y-108498480D03*
G04 #@! TO.P,U1,4*
G04 #@! TO.N,/TH0*
X146174536Y-88178480D03*
G04 #@! TO.P,U1,18*
G04 #@! TO.N,+5V*
X153794536Y-105958480D03*
G04 #@! TO.P,U1,5*
G04 #@! TO.N,/Cam1*
X146174536Y-90718480D03*
G04 #@! TO.P,U1,19*
G04 #@! TO.N,Net-(U1-Pad19)*
X153794536Y-103418480D03*
G04 #@! TO.P,U1,6*
G04 #@! TO.N,/Cam2*
X146174536Y-93258480D03*
G04 #@! TO.P,U1,20*
G04 #@! TO.N,Net-(U1-Pad20)*
X153794536Y-100878480D03*
G04 #@! TO.P,U1,7*
G04 #@! TO.N,/Cam3*
X146174536Y-95798480D03*
G04 #@! TO.P,U1,21*
G04 #@! TO.N,/VOR*
X153794536Y-98338480D03*
G04 #@! TO.P,U1,8*
G04 #@! TO.N,/Cam4*
X146174536Y-98338480D03*
G04 #@! TO.P,U1,22*
G04 #@! TO.N,/VTR*
X153794536Y-95798480D03*
G04 #@! TO.P,U1,9*
G04 #@! TO.N,+5V*
X146174536Y-100878480D03*
G04 #@! TO.P,U1,23*
G04 #@! TO.N,/CZ1*
X153794536Y-93258480D03*
G04 #@! TO.P,U1,10*
G04 #@! TO.N,Earth*
X146174536Y-103418480D03*
G04 #@! TO.P,U1,24*
G04 #@! TO.N,/CZ2*
X153794536Y-90718480D03*
G04 #@! TO.P,U1,11*
G04 #@! TO.N,Net-(U1-Pad11)*
X146174536Y-105958480D03*
G04 #@! TO.P,U1,25*
G04 #@! TO.N,/WRP1*
X153794536Y-88178480D03*
G04 #@! TO.P,U1,12*
G04 #@! TO.N,/SCK*
X146174536Y-108498480D03*
G04 #@! TO.P,U1,26*
G04 #@! TO.N,/WRP2*
X153794536Y-85638480D03*
G04 #@! TO.P,U1,13*
G04 #@! TO.N,/SDA*
X146174536Y-111038480D03*
G04 #@! TO.P,U1,27*
G04 #@! TO.N,/PWR1*
X153794536Y-83098480D03*
G04 #@! TO.P,U1,14*
G04 #@! TO.N,Net-(U1-Pad14)*
X146174536Y-113578480D03*
G04 #@! TO.P,U1,28*
G04 #@! TO.N,/PWR2*
X153794536Y-80558480D03*
G04 #@! TD*
G04 #@! TO.P,U2,28*
G04 #@! TO.N,/UNc4*
X168910000Y-71120000D03*
G04 #@! TO.P,U2,14*
G04 #@! TO.N,Net-(U2-Pad14)*
X135890000Y-63500000D03*
G04 #@! TO.P,U2,27*
G04 #@! TO.N,/UNc3*
X166370000Y-71120000D03*
G04 #@! TO.P,U2,13*
G04 #@! TO.N,/SDA*
X138430000Y-63500000D03*
G04 #@! TO.P,U2,26*
G04 #@! TO.N,/UNc2*
X163830000Y-71120000D03*
G04 #@! TO.P,U2,12*
G04 #@! TO.N,/SCK*
X140970000Y-63500000D03*
G04 #@! TO.P,U2,25*
G04 #@! TO.N,/UNc1*
X161290000Y-71120000D03*
G04 #@! TO.P,U2,11*
G04 #@! TO.N,Net-(U2-Pad11)*
X143510000Y-63500000D03*
G04 #@! TO.P,U2,24*
G04 #@! TO.N,/UNb4*
X158750000Y-71120000D03*
G04 #@! TO.P,U2,10*
G04 #@! TO.N,Earth*
X146050000Y-63500000D03*
G04 #@! TO.P,U2,23*
G04 #@! TO.N,/UNb3*
X156210000Y-71120000D03*
G04 #@! TO.P,U2,9*
G04 #@! TO.N,+5V*
X148590000Y-63500000D03*
G04 #@! TO.P,U2,22*
G04 #@! TO.N,/UNb2*
X153670000Y-71120000D03*
G04 #@! TO.P,U2,8*
G04 #@! TO.N,/UNa3*
X151130000Y-63500000D03*
G04 #@! TO.P,U2,21*
G04 #@! TO.N,/UNb1*
X151130000Y-71120000D03*
G04 #@! TO.P,U2,7*
G04 #@! TO.N,/UNa2*
X153670000Y-63500000D03*
G04 #@! TO.P,U2,20*
G04 #@! TO.N,Net-(U2-Pad20)*
X148590000Y-71120000D03*
G04 #@! TO.P,U2,6*
G04 #@! TO.N,/UNa1*
X156210000Y-63500000D03*
G04 #@! TO.P,U2,19*
G04 #@! TO.N,Net-(U2-Pad19)*
X146050000Y-71120000D03*
G04 #@! TO.P,U2,5*
G04 #@! TO.N,/WPC*
X158750000Y-63500000D03*
G04 #@! TO.P,U2,18*
G04 #@! TO.N,+5V*
X143510000Y-71120000D03*
G04 #@! TO.P,U2,4*
G04 #@! TO.N,/TSW2*
X161290000Y-63500000D03*
G04 #@! TO.P,U2,17*
G04 #@! TO.N,Earth*
X140970000Y-71120000D03*
G04 #@! TO.P,U2,3*
G04 #@! TO.N,/TSW1*
X163830000Y-63500000D03*
G04 #@! TO.P,U2,16*
G04 #@! TO.N,+5V*
X138430000Y-71120000D03*
G04 #@! TO.P,U2,2*
G04 #@! TO.N,/Map*
X166370000Y-63500000D03*
G04 #@! TO.P,U2,15*
G04 #@! TO.N,+5V*
X135890000Y-71120000D03*
D17*
G04 #@! TO.P,U2,1*
G04 #@! TO.N,/MpR*
X168910000Y-63500000D03*
G04 #@! TD*
D11*
G04 #@! TO.P,J1,1*
G04 #@! TO.N,+5V*
X129540000Y-48260000D03*
D12*
G04 #@! TO.P,J1,2*
G04 #@! TO.N,Earth*
X132080000Y-48260000D03*
G04 #@! TO.P,J1,3*
G04 #@! TO.N,/SCK*
X134620000Y-48260000D03*
G04 #@! TO.P,J1,4*
G04 #@! TO.N,/SDA*
X137160000Y-48260000D03*
G04 #@! TD*
D18*
G04 #@! TO.N,/SDA*
X136398000Y-54610000D03*
G04 #@! TD*
D19*
G04 #@! TO.N,/SDA*
X136398000Y-54610000D02*
X139700000Y-54610000D01*
G04 #@! TD*
D20*
G04 #@! TO.N,Earth*
G36*
X177673000Y-116713000D02*
X134262447Y-116713000D01*
X117157927Y-99608480D01*
X126880444Y-99608480D01*
X126995697Y-100187898D01*
X127323911Y-100679105D01*
X127622297Y-100878480D01*
X127323911Y-101077855D01*
X126995697Y-101569062D01*
X126880444Y-102148480D01*
X126995697Y-102727898D01*
X127323911Y-103219105D01*
X127622297Y-103418480D01*
X127323911Y-103617855D01*
X126995697Y-104109062D01*
X126880444Y-104688480D01*
X126995697Y-105267898D01*
X127323911Y-105759105D01*
X127622297Y-105958480D01*
X127323911Y-106157855D01*
X126995697Y-106649062D01*
X126880444Y-107228480D01*
X126995697Y-107807898D01*
X127323911Y-108299105D01*
X127815118Y-108627319D01*
X128248280Y-108713480D01*
X128540792Y-108713480D01*
X128973954Y-108627319D01*
X129465161Y-108299105D01*
X129507176Y-108236225D01*
X131376397Y-108236225D01*
X131450531Y-108482344D01*
X131987759Y-108675445D01*
X132557990Y-108648258D01*
X132958541Y-108482344D01*
X133032675Y-108236225D01*
X132204536Y-107408085D01*
X131376397Y-108236225D01*
X129507176Y-108236225D01*
X129793375Y-107807898D01*
X129908628Y-107228480D01*
X129865509Y-107011703D01*
X130757571Y-107011703D01*
X130784758Y-107581934D01*
X130950672Y-107982485D01*
X131196791Y-108056619D01*
X132024931Y-107228480D01*
X132384141Y-107228480D01*
X133212281Y-108056619D01*
X133458400Y-107982485D01*
X133651501Y-107445257D01*
X133641166Y-107228480D01*
X140901423Y-107228480D01*
X141012796Y-107788389D01*
X141329959Y-108263057D01*
X141804627Y-108580220D01*
X142223203Y-108663480D01*
X142505869Y-108663480D01*
X142924445Y-108580220D01*
X143399113Y-108263057D01*
X143716276Y-107788389D01*
X143827649Y-107228480D01*
X143716276Y-106668571D01*
X143399113Y-106193903D01*
X143046778Y-105958480D01*
X144711423Y-105958480D01*
X144822796Y-106518389D01*
X145139959Y-106993057D01*
X145492294Y-107228480D01*
X145139959Y-107463903D01*
X144822796Y-107938571D01*
X144711423Y-108498480D01*
X144822796Y-109058389D01*
X145139959Y-109533057D01*
X145492294Y-109768480D01*
X145139959Y-110003903D01*
X144822796Y-110478571D01*
X144711423Y-111038480D01*
X144822796Y-111598389D01*
X145139959Y-112073057D01*
X145492294Y-112308480D01*
X145139959Y-112543903D01*
X144822796Y-113018571D01*
X144711423Y-113578480D01*
X144822796Y-114138389D01*
X145139959Y-114613057D01*
X145614627Y-114930220D01*
X146033203Y-115013480D01*
X146315869Y-115013480D01*
X146734445Y-114930220D01*
X147209113Y-114613057D01*
X147526276Y-114138389D01*
X147568220Y-113927519D01*
X152402632Y-113927519D01*
X152563495Y-114315903D01*
X152939402Y-114730869D01*
X153445495Y-114970394D01*
X153667536Y-114849109D01*
X153667536Y-113705480D01*
X153921536Y-113705480D01*
X153921536Y-114849109D01*
X154143577Y-114970394D01*
X154649670Y-114730869D01*
X155025577Y-114315903D01*
X155186440Y-113927519D01*
X155064451Y-113705480D01*
X153921536Y-113705480D01*
X153667536Y-113705480D01*
X152524621Y-113705480D01*
X152402632Y-113927519D01*
X147568220Y-113927519D01*
X147637649Y-113578480D01*
X147526276Y-113018571D01*
X147209113Y-112543903D01*
X146856778Y-112308480D01*
X147209113Y-112073057D01*
X147526276Y-111598389D01*
X147637649Y-111038480D01*
X152331423Y-111038480D01*
X152442796Y-111598389D01*
X152759959Y-112073057D01*
X153143644Y-112329427D01*
X152939402Y-112426091D01*
X152563495Y-112841057D01*
X152402632Y-113229441D01*
X152524621Y-113451480D01*
X153667536Y-113451480D01*
X153667536Y-113431480D01*
X153921536Y-113431480D01*
X153921536Y-113451480D01*
X155064451Y-113451480D01*
X155186440Y-113229441D01*
X155025577Y-112841057D01*
X154649670Y-112426091D01*
X154445428Y-112329427D01*
X154829113Y-112073057D01*
X155146276Y-111598389D01*
X155200809Y-111324230D01*
X157389536Y-111324230D01*
X157389536Y-112014789D01*
X157486209Y-112248178D01*
X157664837Y-112426807D01*
X157898226Y-112523480D01*
X158588786Y-112523480D01*
X158747536Y-112364730D01*
X158747536Y-111165480D01*
X157548286Y-111165480D01*
X157389536Y-111324230D01*
X155200809Y-111324230D01*
X155257649Y-111038480D01*
X155146276Y-110478571D01*
X154868047Y-110062171D01*
X157389536Y-110062171D01*
X157389536Y-110752730D01*
X157548286Y-110911480D01*
X158747536Y-110911480D01*
X158747536Y-109712230D01*
X159001536Y-109712230D01*
X159001536Y-110911480D01*
X159021536Y-110911480D01*
X159021536Y-111165480D01*
X159001536Y-111165480D01*
X159001536Y-112364730D01*
X159160286Y-112523480D01*
X159850846Y-112523480D01*
X160084235Y-112426807D01*
X160262863Y-112248178D01*
X160329440Y-112087447D01*
X160343911Y-112109105D01*
X160835118Y-112437319D01*
X161268280Y-112523480D01*
X161560792Y-112523480D01*
X161993954Y-112437319D01*
X162485161Y-112109105D01*
X162684536Y-111810719D01*
X162883911Y-112109105D01*
X163375118Y-112437319D01*
X163808280Y-112523480D01*
X164100792Y-112523480D01*
X164533954Y-112437319D01*
X165025161Y-112109105D01*
X165353375Y-111617898D01*
X165393756Y-111414887D01*
X168445000Y-111414887D01*
X168445000Y-112105113D01*
X168709138Y-112742799D01*
X169197201Y-113230862D01*
X169834887Y-113495000D01*
X170525113Y-113495000D01*
X171162799Y-113230862D01*
X171650862Y-112742799D01*
X171915000Y-112105113D01*
X171915000Y-111414887D01*
X171650862Y-110777201D01*
X171162799Y-110289138D01*
X170525113Y-110025000D01*
X169834887Y-110025000D01*
X169197201Y-110289138D01*
X168709138Y-110777201D01*
X168445000Y-111414887D01*
X165393756Y-111414887D01*
X165468628Y-111038480D01*
X165353375Y-110459062D01*
X165025161Y-109967855D01*
X164533954Y-109639641D01*
X164100792Y-109553480D01*
X163808280Y-109553480D01*
X163375118Y-109639641D01*
X162883911Y-109967855D01*
X162684536Y-110266241D01*
X162485161Y-109967855D01*
X161993954Y-109639641D01*
X161560792Y-109553480D01*
X161268280Y-109553480D01*
X160835118Y-109639641D01*
X160343911Y-109967855D01*
X160329440Y-109989513D01*
X160262863Y-109828782D01*
X160084235Y-109650153D01*
X159850846Y-109553480D01*
X159160286Y-109553480D01*
X159001536Y-109712230D01*
X158747536Y-109712230D01*
X158588786Y-109553480D01*
X157898226Y-109553480D01*
X157664837Y-109650153D01*
X157486209Y-109828782D01*
X157389536Y-110062171D01*
X154868047Y-110062171D01*
X154829113Y-110003903D01*
X154445428Y-109747533D01*
X154649670Y-109650869D01*
X155025577Y-109235903D01*
X155186440Y-108847519D01*
X155064451Y-108625480D01*
X153921536Y-108625480D01*
X153921536Y-108645480D01*
X153667536Y-108645480D01*
X153667536Y-108625480D01*
X152524621Y-108625480D01*
X152402632Y-108847519D01*
X152563495Y-109235903D01*
X152939402Y-109650869D01*
X153143644Y-109747533D01*
X152759959Y-110003903D01*
X152442796Y-110478571D01*
X152331423Y-111038480D01*
X147637649Y-111038480D01*
X147526276Y-110478571D01*
X147209113Y-110003903D01*
X146856778Y-109768480D01*
X147209113Y-109533057D01*
X147526276Y-109058389D01*
X147637649Y-108498480D01*
X147526276Y-107938571D01*
X147209113Y-107463903D01*
X146856778Y-107228480D01*
X147209113Y-106993057D01*
X147526276Y-106518389D01*
X147637649Y-105958480D01*
X147526276Y-105398571D01*
X147209113Y-104923903D01*
X146825428Y-104667533D01*
X147029670Y-104570869D01*
X147405577Y-104155903D01*
X147566440Y-103767519D01*
X147444451Y-103545480D01*
X146301536Y-103545480D01*
X146301536Y-103565480D01*
X146047536Y-103565480D01*
X146047536Y-103545480D01*
X144904621Y-103545480D01*
X144782632Y-103767519D01*
X144943495Y-104155903D01*
X145319402Y-104570869D01*
X145523644Y-104667533D01*
X145139959Y-104923903D01*
X144822796Y-105398571D01*
X144711423Y-105958480D01*
X143046778Y-105958480D01*
X142924445Y-105876740D01*
X142505869Y-105793480D01*
X142223203Y-105793480D01*
X141804627Y-105876740D01*
X141329959Y-106193903D01*
X141012796Y-106668571D01*
X140901423Y-107228480D01*
X133641166Y-107228480D01*
X133624314Y-106875026D01*
X133458400Y-106474475D01*
X133212281Y-106400341D01*
X132384141Y-107228480D01*
X132024931Y-107228480D01*
X131196791Y-106400341D01*
X130950672Y-106474475D01*
X130757571Y-107011703D01*
X129865509Y-107011703D01*
X129793375Y-106649062D01*
X129507177Y-106220735D01*
X131376397Y-106220735D01*
X132204536Y-107048875D01*
X133032675Y-106220735D01*
X132958541Y-105974616D01*
X132421313Y-105781515D01*
X131851082Y-105808702D01*
X131450531Y-105974616D01*
X131376397Y-106220735D01*
X129507177Y-106220735D01*
X129465161Y-106157855D01*
X129166775Y-105958480D01*
X129465161Y-105759105D01*
X129793375Y-105267898D01*
X129908628Y-104688480D01*
X129856463Y-104426225D01*
X131376397Y-104426225D01*
X131450531Y-104672344D01*
X131987759Y-104865445D01*
X132557990Y-104838258D01*
X132958541Y-104672344D01*
X133032675Y-104426225D01*
X132204536Y-103598085D01*
X131376397Y-104426225D01*
X129856463Y-104426225D01*
X129793375Y-104109062D01*
X129465161Y-103617855D01*
X129166775Y-103418480D01*
X129465161Y-103219105D01*
X129476788Y-103201703D01*
X130757571Y-103201703D01*
X130784758Y-103771934D01*
X130950672Y-104172485D01*
X131196791Y-104246619D01*
X132024931Y-103418480D01*
X132384141Y-103418480D01*
X133212281Y-104246619D01*
X133458400Y-104172485D01*
X133651501Y-103635257D01*
X133641166Y-103418480D01*
X140901423Y-103418480D01*
X141012796Y-103978389D01*
X141329959Y-104453057D01*
X141804627Y-104770220D01*
X142223203Y-104853480D01*
X142505869Y-104853480D01*
X142924445Y-104770220D01*
X143399113Y-104453057D01*
X143716276Y-103978389D01*
X143827649Y-103418480D01*
X143716276Y-102858571D01*
X143399113Y-102383903D01*
X142924445Y-102066740D01*
X142505869Y-101983480D01*
X142223203Y-101983480D01*
X141804627Y-102066740D01*
X141329959Y-102383903D01*
X141012796Y-102858571D01*
X140901423Y-103418480D01*
X133641166Y-103418480D01*
X133624314Y-103065026D01*
X133458400Y-102664475D01*
X133212281Y-102590341D01*
X132384141Y-103418480D01*
X132024931Y-103418480D01*
X131196791Y-102590341D01*
X130950672Y-102664475D01*
X130757571Y-103201703D01*
X129476788Y-103201703D01*
X129793375Y-102727898D01*
X129856462Y-102410735D01*
X131376397Y-102410735D01*
X132204536Y-103238875D01*
X133032675Y-102410735D01*
X132958541Y-102164616D01*
X132421313Y-101971515D01*
X131851082Y-101998702D01*
X131450531Y-102164616D01*
X131376397Y-102410735D01*
X129856462Y-102410735D01*
X129908628Y-102148480D01*
X129793375Y-101569062D01*
X129465161Y-101077855D01*
X129166775Y-100878480D01*
X129465161Y-100679105D01*
X129507176Y-100616225D01*
X131376397Y-100616225D01*
X131450531Y-100862344D01*
X131987759Y-101055445D01*
X132557990Y-101028258D01*
X132958541Y-100862344D01*
X133032675Y-100616225D01*
X132204536Y-99788085D01*
X131376397Y-100616225D01*
X129507176Y-100616225D01*
X129793375Y-100187898D01*
X129908628Y-99608480D01*
X129865509Y-99391703D01*
X130757571Y-99391703D01*
X130784758Y-99961934D01*
X130950672Y-100362485D01*
X131196791Y-100436619D01*
X132024931Y-99608480D01*
X132384141Y-99608480D01*
X133212281Y-100436619D01*
X133458400Y-100362485D01*
X133651501Y-99825257D01*
X133641166Y-99608480D01*
X140901423Y-99608480D01*
X141012796Y-100168389D01*
X141329959Y-100643057D01*
X141804627Y-100960220D01*
X142223203Y-101043480D01*
X142505869Y-101043480D01*
X142924445Y-100960220D01*
X143399113Y-100643057D01*
X143716276Y-100168389D01*
X143827649Y-99608480D01*
X143716276Y-99048571D01*
X143399113Y-98573903D01*
X142924445Y-98256740D01*
X142505869Y-98173480D01*
X142223203Y-98173480D01*
X141804627Y-98256740D01*
X141329959Y-98573903D01*
X141012796Y-99048571D01*
X140901423Y-99608480D01*
X133641166Y-99608480D01*
X133624314Y-99255026D01*
X133458400Y-98854475D01*
X133212281Y-98780341D01*
X132384141Y-99608480D01*
X132024931Y-99608480D01*
X131196791Y-98780341D01*
X130950672Y-98854475D01*
X130757571Y-99391703D01*
X129865509Y-99391703D01*
X129793375Y-99029062D01*
X129507177Y-98600735D01*
X131376397Y-98600735D01*
X132204536Y-99428875D01*
X133032675Y-98600735D01*
X132958541Y-98354616D01*
X132421313Y-98161515D01*
X131851082Y-98188702D01*
X131450531Y-98354616D01*
X131376397Y-98600735D01*
X129507177Y-98600735D01*
X129465161Y-98537855D01*
X129443503Y-98523384D01*
X129604234Y-98456807D01*
X129782863Y-98278179D01*
X129879536Y-98044790D01*
X129879536Y-97354230D01*
X129720786Y-97195480D01*
X128521536Y-97195480D01*
X128521536Y-97215480D01*
X128267536Y-97215480D01*
X128267536Y-97195480D01*
X127068286Y-97195480D01*
X126909536Y-97354230D01*
X126909536Y-98044790D01*
X127006209Y-98278179D01*
X127184838Y-98456807D01*
X127345569Y-98523384D01*
X127323911Y-98537855D01*
X126995697Y-99029062D01*
X126880444Y-99608480D01*
X117157927Y-99608480D01*
X113641617Y-96092170D01*
X126909536Y-96092170D01*
X126909536Y-96782730D01*
X127068286Y-96941480D01*
X128267536Y-96941480D01*
X128267536Y-95742230D01*
X128521536Y-95742230D01*
X128521536Y-96941480D01*
X129720786Y-96941480D01*
X129856041Y-96806225D01*
X131376397Y-96806225D01*
X131450531Y-97052344D01*
X131987759Y-97245445D01*
X132557990Y-97218258D01*
X132958541Y-97052344D01*
X133032675Y-96806225D01*
X132204536Y-95978085D01*
X131376397Y-96806225D01*
X129856041Y-96806225D01*
X129879536Y-96782730D01*
X129879536Y-96092170D01*
X129782863Y-95858781D01*
X129604234Y-95680153D01*
X129370845Y-95583480D01*
X128680286Y-95583480D01*
X128521536Y-95742230D01*
X128267536Y-95742230D01*
X128108786Y-95583480D01*
X127418227Y-95583480D01*
X127184838Y-95680153D01*
X127006209Y-95858781D01*
X126909536Y-96092170D01*
X113641617Y-96092170D01*
X113131150Y-95581703D01*
X130757571Y-95581703D01*
X130784758Y-96151934D01*
X130950672Y-96552485D01*
X131196791Y-96626619D01*
X132024931Y-95798480D01*
X132384141Y-95798480D01*
X133212281Y-96626619D01*
X133458400Y-96552485D01*
X133651501Y-96015257D01*
X133641166Y-95798480D01*
X140901423Y-95798480D01*
X141012796Y-96358389D01*
X141329959Y-96833057D01*
X141804627Y-97150220D01*
X142223203Y-97233480D01*
X142505869Y-97233480D01*
X142924445Y-97150220D01*
X143399113Y-96833057D01*
X143716276Y-96358389D01*
X143827649Y-95798480D01*
X143716276Y-95238571D01*
X143399113Y-94763903D01*
X142924445Y-94446740D01*
X142505869Y-94363480D01*
X142223203Y-94363480D01*
X141804627Y-94446740D01*
X141329959Y-94763903D01*
X141012796Y-95238571D01*
X140901423Y-95798480D01*
X133641166Y-95798480D01*
X133624314Y-95445026D01*
X133458400Y-95044475D01*
X133212281Y-94970341D01*
X132384141Y-95798480D01*
X132024931Y-95798480D01*
X131196791Y-94970341D01*
X130950672Y-95044475D01*
X130757571Y-95581703D01*
X113131150Y-95581703D01*
X112340182Y-94790735D01*
X131376397Y-94790735D01*
X132204536Y-95618875D01*
X133032675Y-94790735D01*
X132958541Y-94544616D01*
X132421313Y-94351515D01*
X131851082Y-94378702D01*
X131450531Y-94544616D01*
X131376397Y-94790735D01*
X112340182Y-94790735D01*
X110545672Y-92996225D01*
X131376397Y-92996225D01*
X131450531Y-93242344D01*
X131987759Y-93435445D01*
X132557990Y-93408258D01*
X132958541Y-93242344D01*
X133032675Y-92996225D01*
X132204536Y-92168085D01*
X131376397Y-92996225D01*
X110545672Y-92996225D01*
X107374334Y-89824887D01*
X117645000Y-89824887D01*
X117645000Y-90515113D01*
X117909138Y-91152799D01*
X118397201Y-91640862D01*
X119034887Y-91905000D01*
X119725113Y-91905000D01*
X120046920Y-91771703D01*
X130757571Y-91771703D01*
X130784758Y-92341934D01*
X130950672Y-92742485D01*
X131196791Y-92816619D01*
X132024931Y-91988480D01*
X132384141Y-91988480D01*
X133212281Y-92816619D01*
X133458400Y-92742485D01*
X133651501Y-92205257D01*
X133641166Y-91988480D01*
X140901423Y-91988480D01*
X141012796Y-92548389D01*
X141329959Y-93023057D01*
X141804627Y-93340220D01*
X142223203Y-93423480D01*
X142505869Y-93423480D01*
X142924445Y-93340220D01*
X143399113Y-93023057D01*
X143716276Y-92548389D01*
X143827649Y-91988480D01*
X143716276Y-91428571D01*
X143399113Y-90953903D01*
X142924445Y-90636740D01*
X142505869Y-90553480D01*
X142223203Y-90553480D01*
X141804627Y-90636740D01*
X141329959Y-90953903D01*
X141012796Y-91428571D01*
X140901423Y-91988480D01*
X133641166Y-91988480D01*
X133624314Y-91635026D01*
X133458400Y-91234475D01*
X133212281Y-91160341D01*
X132384141Y-91988480D01*
X132024931Y-91988480D01*
X131196791Y-91160341D01*
X130950672Y-91234475D01*
X130757571Y-91771703D01*
X120046920Y-91771703D01*
X120362799Y-91640862D01*
X120850862Y-91152799D01*
X120922133Y-90980735D01*
X131376397Y-90980735D01*
X132204536Y-91808875D01*
X133032675Y-90980735D01*
X132958541Y-90734616D01*
X132421313Y-90541515D01*
X131851082Y-90568702D01*
X131450531Y-90734616D01*
X131376397Y-90980735D01*
X120922133Y-90980735D01*
X121115000Y-90515113D01*
X121115000Y-89824887D01*
X120850862Y-89187201D01*
X120849886Y-89186225D01*
X131376397Y-89186225D01*
X131450531Y-89432344D01*
X131987759Y-89625445D01*
X132557990Y-89598258D01*
X132958541Y-89432344D01*
X133032675Y-89186225D01*
X132204536Y-88358085D01*
X131376397Y-89186225D01*
X120849886Y-89186225D01*
X120362799Y-88699138D01*
X119725113Y-88435000D01*
X119034887Y-88435000D01*
X118397201Y-88699138D01*
X117909138Y-89187201D01*
X117645000Y-89824887D01*
X107374334Y-89824887D01*
X106807000Y-89257554D01*
X106807000Y-87961703D01*
X130757571Y-87961703D01*
X130784758Y-88531934D01*
X130950672Y-88932485D01*
X131196791Y-89006619D01*
X132024931Y-88178480D01*
X132384141Y-88178480D01*
X133212281Y-89006619D01*
X133458400Y-88932485D01*
X133651501Y-88395257D01*
X133641166Y-88178480D01*
X140901423Y-88178480D01*
X141012796Y-88738389D01*
X141329959Y-89213057D01*
X141804627Y-89530220D01*
X142223203Y-89613480D01*
X142505869Y-89613480D01*
X142924445Y-89530220D01*
X143399113Y-89213057D01*
X143716276Y-88738389D01*
X143827649Y-88178480D01*
X143716276Y-87618571D01*
X143399113Y-87143903D01*
X142924445Y-86826740D01*
X142505869Y-86743480D01*
X142223203Y-86743480D01*
X141804627Y-86826740D01*
X141329959Y-87143903D01*
X141012796Y-87618571D01*
X140901423Y-88178480D01*
X133641166Y-88178480D01*
X133624314Y-87825026D01*
X133458400Y-87424475D01*
X133212281Y-87350341D01*
X132384141Y-88178480D01*
X132024931Y-88178480D01*
X131196791Y-87350341D01*
X130950672Y-87424475D01*
X130757571Y-87961703D01*
X106807000Y-87961703D01*
X106807000Y-87170735D01*
X131376397Y-87170735D01*
X132204536Y-87998875D01*
X133032675Y-87170735D01*
X132958541Y-86924616D01*
X132421313Y-86731515D01*
X131851082Y-86758702D01*
X131450531Y-86924616D01*
X131376397Y-87170735D01*
X106807000Y-87170735D01*
X106807000Y-85376225D01*
X131376397Y-85376225D01*
X131450531Y-85622344D01*
X131987759Y-85815445D01*
X132557990Y-85788258D01*
X132958541Y-85622344D01*
X133032675Y-85376225D01*
X132204536Y-84548085D01*
X131376397Y-85376225D01*
X106807000Y-85376225D01*
X106807000Y-84151703D01*
X130757571Y-84151703D01*
X130784758Y-84721934D01*
X130950672Y-85122485D01*
X131196791Y-85196619D01*
X132024931Y-84368480D01*
X132384141Y-84368480D01*
X133212281Y-85196619D01*
X133458400Y-85122485D01*
X133651501Y-84585257D01*
X133641166Y-84368480D01*
X140901423Y-84368480D01*
X141012796Y-84928389D01*
X141329959Y-85403057D01*
X141804627Y-85720220D01*
X142223203Y-85803480D01*
X142505869Y-85803480D01*
X142924445Y-85720220D01*
X143399113Y-85403057D01*
X143716276Y-84928389D01*
X143827649Y-84368480D01*
X143716276Y-83808571D01*
X143399113Y-83333903D01*
X143046778Y-83098480D01*
X144711423Y-83098480D01*
X144822796Y-83658389D01*
X145139959Y-84133057D01*
X145492294Y-84368480D01*
X145139959Y-84603903D01*
X144822796Y-85078571D01*
X144711423Y-85638480D01*
X144822796Y-86198389D01*
X145139959Y-86673057D01*
X145492294Y-86908480D01*
X145139959Y-87143903D01*
X144822796Y-87618571D01*
X144711423Y-88178480D01*
X144822796Y-88738389D01*
X145139959Y-89213057D01*
X145492294Y-89448480D01*
X145139959Y-89683903D01*
X144822796Y-90158571D01*
X144711423Y-90718480D01*
X144822796Y-91278389D01*
X145139959Y-91753057D01*
X145492294Y-91988480D01*
X145139959Y-92223903D01*
X144822796Y-92698571D01*
X144711423Y-93258480D01*
X144822796Y-93818389D01*
X145139959Y-94293057D01*
X145492294Y-94528480D01*
X145139959Y-94763903D01*
X144822796Y-95238571D01*
X144711423Y-95798480D01*
X144822796Y-96358389D01*
X145139959Y-96833057D01*
X145492294Y-97068480D01*
X145139959Y-97303903D01*
X144822796Y-97778571D01*
X144711423Y-98338480D01*
X144822796Y-98898389D01*
X145139959Y-99373057D01*
X145492294Y-99608480D01*
X145139959Y-99843903D01*
X144822796Y-100318571D01*
X144711423Y-100878480D01*
X144822796Y-101438389D01*
X145139959Y-101913057D01*
X145523644Y-102169427D01*
X145319402Y-102266091D01*
X144943495Y-102681057D01*
X144782632Y-103069441D01*
X144904621Y-103291480D01*
X146047536Y-103291480D01*
X146047536Y-103271480D01*
X146301536Y-103271480D01*
X146301536Y-103291480D01*
X147444451Y-103291480D01*
X147566440Y-103069441D01*
X147405577Y-102681057D01*
X147029670Y-102266091D01*
X146825428Y-102169427D01*
X147209113Y-101913057D01*
X147526276Y-101438389D01*
X147637649Y-100878480D01*
X147526276Y-100318571D01*
X147209113Y-99843903D01*
X146856778Y-99608480D01*
X147209113Y-99373057D01*
X147526276Y-98898389D01*
X147637649Y-98338480D01*
X147526276Y-97778571D01*
X147209113Y-97303903D01*
X146856778Y-97068480D01*
X147209113Y-96833057D01*
X147526276Y-96358389D01*
X147637649Y-95798480D01*
X147526276Y-95238571D01*
X147209113Y-94763903D01*
X146856778Y-94528480D01*
X147209113Y-94293057D01*
X147526276Y-93818389D01*
X147637649Y-93258480D01*
X147526276Y-92698571D01*
X147209113Y-92223903D01*
X146856778Y-91988480D01*
X147209113Y-91753057D01*
X147526276Y-91278389D01*
X147637649Y-90718480D01*
X147526276Y-90158571D01*
X147209113Y-89683903D01*
X146856778Y-89448480D01*
X147209113Y-89213057D01*
X147526276Y-88738389D01*
X147637649Y-88178480D01*
X147526276Y-87618571D01*
X147209113Y-87143903D01*
X146856778Y-86908480D01*
X147209113Y-86673057D01*
X147526276Y-86198389D01*
X147637649Y-85638480D01*
X147526276Y-85078571D01*
X147209113Y-84603903D01*
X146856778Y-84368480D01*
X147209113Y-84133057D01*
X147526276Y-83658389D01*
X147637649Y-83098480D01*
X147526276Y-82538571D01*
X147209113Y-82063903D01*
X147088430Y-81983265D01*
X147222301Y-81956637D01*
X147432345Y-81816289D01*
X147572693Y-81606245D01*
X147621976Y-81358480D01*
X147621976Y-80558480D01*
X152331423Y-80558480D01*
X152442796Y-81118389D01*
X152759959Y-81593057D01*
X153112294Y-81828480D01*
X152759959Y-82063903D01*
X152442796Y-82538571D01*
X152331423Y-83098480D01*
X152442796Y-83658389D01*
X152759959Y-84133057D01*
X153112294Y-84368480D01*
X152759959Y-84603903D01*
X152442796Y-85078571D01*
X152331423Y-85638480D01*
X152442796Y-86198389D01*
X152759959Y-86673057D01*
X153112294Y-86908480D01*
X152759959Y-87143903D01*
X152442796Y-87618571D01*
X152331423Y-88178480D01*
X152442796Y-88738389D01*
X152759959Y-89213057D01*
X153112294Y-89448480D01*
X152759959Y-89683903D01*
X152442796Y-90158571D01*
X152331423Y-90718480D01*
X152442796Y-91278389D01*
X152759959Y-91753057D01*
X153112294Y-91988480D01*
X152759959Y-92223903D01*
X152442796Y-92698571D01*
X152331423Y-93258480D01*
X152442796Y-93818389D01*
X152759959Y-94293057D01*
X153112294Y-94528480D01*
X152759959Y-94763903D01*
X152442796Y-95238571D01*
X152331423Y-95798480D01*
X152442796Y-96358389D01*
X152759959Y-96833057D01*
X153112294Y-97068480D01*
X152759959Y-97303903D01*
X152442796Y-97778571D01*
X152331423Y-98338480D01*
X152442796Y-98898389D01*
X152759959Y-99373057D01*
X153112294Y-99608480D01*
X152759959Y-99843903D01*
X152442796Y-100318571D01*
X152331423Y-100878480D01*
X152442796Y-101438389D01*
X152759959Y-101913057D01*
X153112294Y-102148480D01*
X152759959Y-102383903D01*
X152442796Y-102858571D01*
X152331423Y-103418480D01*
X152442796Y-103978389D01*
X152759959Y-104453057D01*
X153112294Y-104688480D01*
X152759959Y-104923903D01*
X152442796Y-105398571D01*
X152331423Y-105958480D01*
X152442796Y-106518389D01*
X152759959Y-106993057D01*
X153143644Y-107249427D01*
X152939402Y-107346091D01*
X152563495Y-107761057D01*
X152402632Y-108149441D01*
X152524621Y-108371480D01*
X153667536Y-108371480D01*
X153667536Y-108351480D01*
X153921536Y-108351480D01*
X153921536Y-108371480D01*
X155064451Y-108371480D01*
X155186440Y-108149441D01*
X155025577Y-107761057D01*
X154649670Y-107346091D01*
X154445428Y-107249427D01*
X154476777Y-107228480D01*
X156141423Y-107228480D01*
X156252796Y-107788389D01*
X156569959Y-108263057D01*
X157044627Y-108580220D01*
X157463203Y-108663480D01*
X157745869Y-108663480D01*
X158164445Y-108580220D01*
X158639113Y-108263057D01*
X158657041Y-108236225D01*
X166936397Y-108236225D01*
X167010531Y-108482344D01*
X167547759Y-108675445D01*
X168117990Y-108648258D01*
X168518541Y-108482344D01*
X168592675Y-108236225D01*
X167764536Y-107408085D01*
X166936397Y-108236225D01*
X158657041Y-108236225D01*
X158956276Y-107788389D01*
X159067649Y-107228480D01*
X159024530Y-107011703D01*
X166317571Y-107011703D01*
X166344758Y-107581934D01*
X166510672Y-107982485D01*
X166756791Y-108056619D01*
X167584931Y-107228480D01*
X167944141Y-107228480D01*
X168772281Y-108056619D01*
X169018400Y-107982485D01*
X169211501Y-107445257D01*
X169184314Y-106875026D01*
X169018400Y-106474475D01*
X168772281Y-106400341D01*
X167944141Y-107228480D01*
X167584931Y-107228480D01*
X166756791Y-106400341D01*
X166510672Y-106474475D01*
X166317571Y-107011703D01*
X159024530Y-107011703D01*
X158956276Y-106668571D01*
X158657042Y-106220735D01*
X166936397Y-106220735D01*
X167764536Y-107048875D01*
X168569180Y-106244230D01*
X171359536Y-106244230D01*
X171359536Y-106934790D01*
X171456209Y-107168179D01*
X171634838Y-107346807D01*
X171868227Y-107443480D01*
X172558786Y-107443480D01*
X172717536Y-107284730D01*
X172717536Y-106085480D01*
X172971536Y-106085480D01*
X172971536Y-107284730D01*
X173130286Y-107443480D01*
X173820845Y-107443480D01*
X174054234Y-107346807D01*
X174232863Y-107168179D01*
X174329536Y-106934790D01*
X174329536Y-106244230D01*
X174170786Y-106085480D01*
X172971536Y-106085480D01*
X172717536Y-106085480D01*
X171518286Y-106085480D01*
X171359536Y-106244230D01*
X168569180Y-106244230D01*
X168592675Y-106220735D01*
X168518541Y-105974616D01*
X167981313Y-105781515D01*
X167411082Y-105808702D01*
X167010531Y-105974616D01*
X166936397Y-106220735D01*
X158657042Y-106220735D01*
X158639113Y-106193903D01*
X158164445Y-105876740D01*
X157745869Y-105793480D01*
X157463203Y-105793480D01*
X157044627Y-105876740D01*
X156569959Y-106193903D01*
X156252796Y-106668571D01*
X156141423Y-107228480D01*
X154476777Y-107228480D01*
X154829113Y-106993057D01*
X155146276Y-106518389D01*
X155257649Y-105958480D01*
X155146276Y-105398571D01*
X154829113Y-104923903D01*
X154476778Y-104688480D01*
X154829113Y-104453057D01*
X155146276Y-103978389D01*
X155257649Y-103418480D01*
X156141423Y-103418480D01*
X156252796Y-103978389D01*
X156569959Y-104453057D01*
X157044627Y-104770220D01*
X157463203Y-104853480D01*
X157745869Y-104853480D01*
X158164445Y-104770220D01*
X158639113Y-104453057D01*
X158657041Y-104426225D01*
X166936397Y-104426225D01*
X167010531Y-104672344D01*
X167547759Y-104865445D01*
X168117990Y-104838258D01*
X168518541Y-104672344D01*
X168592675Y-104426225D01*
X167764536Y-103598085D01*
X166936397Y-104426225D01*
X158657041Y-104426225D01*
X158956276Y-103978389D01*
X159067649Y-103418480D01*
X159024530Y-103201703D01*
X166317571Y-103201703D01*
X166344758Y-103771934D01*
X166510672Y-104172485D01*
X166756791Y-104246619D01*
X167584931Y-103418480D01*
X167944141Y-103418480D01*
X168772281Y-104246619D01*
X169018400Y-104172485D01*
X169211501Y-103635257D01*
X169184314Y-103065026D01*
X169018400Y-102664475D01*
X168772281Y-102590341D01*
X167944141Y-103418480D01*
X167584931Y-103418480D01*
X166756791Y-102590341D01*
X166510672Y-102664475D01*
X166317571Y-103201703D01*
X159024530Y-103201703D01*
X158956276Y-102858571D01*
X158657042Y-102410735D01*
X166936397Y-102410735D01*
X167764536Y-103238875D01*
X168592675Y-102410735D01*
X168518541Y-102164616D01*
X167981313Y-101971515D01*
X167411082Y-101998702D01*
X167010531Y-102164616D01*
X166936397Y-102410735D01*
X158657042Y-102410735D01*
X158639113Y-102383903D01*
X158164445Y-102066740D01*
X157745869Y-101983480D01*
X157463203Y-101983480D01*
X157044627Y-102066740D01*
X156569959Y-102383903D01*
X156252796Y-102858571D01*
X156141423Y-103418480D01*
X155257649Y-103418480D01*
X155146276Y-102858571D01*
X154829113Y-102383903D01*
X154476778Y-102148480D01*
X154829113Y-101913057D01*
X155146276Y-101438389D01*
X155257649Y-100878480D01*
X155146276Y-100318571D01*
X154829113Y-99843903D01*
X154476778Y-99608480D01*
X156141423Y-99608480D01*
X156252796Y-100168389D01*
X156569959Y-100643057D01*
X157044627Y-100960220D01*
X157463203Y-101043480D01*
X157745869Y-101043480D01*
X158164445Y-100960220D01*
X158639113Y-100643057D01*
X158657041Y-100616225D01*
X166936397Y-100616225D01*
X167010531Y-100862344D01*
X167547759Y-101055445D01*
X168117990Y-101028258D01*
X168479585Y-100878480D01*
X171330444Y-100878480D01*
X171445697Y-101457898D01*
X171773911Y-101949105D01*
X172072297Y-102148480D01*
X171773911Y-102347855D01*
X171445697Y-102839062D01*
X171330444Y-103418480D01*
X171445697Y-103997898D01*
X171773911Y-104489105D01*
X171795569Y-104503576D01*
X171634838Y-104570153D01*
X171456209Y-104748781D01*
X171359536Y-104982170D01*
X171359536Y-105672730D01*
X171518286Y-105831480D01*
X172717536Y-105831480D01*
X172717536Y-105811480D01*
X172971536Y-105811480D01*
X172971536Y-105831480D01*
X174170786Y-105831480D01*
X174329536Y-105672730D01*
X174329536Y-104982170D01*
X174232863Y-104748781D01*
X174054234Y-104570153D01*
X173893503Y-104503576D01*
X173915161Y-104489105D01*
X174243375Y-103997898D01*
X174358628Y-103418480D01*
X174243375Y-102839062D01*
X173915161Y-102347855D01*
X173616775Y-102148480D01*
X173915161Y-101949105D01*
X174243375Y-101457898D01*
X174358628Y-100878480D01*
X174243375Y-100299062D01*
X173915161Y-99807855D01*
X173423954Y-99479641D01*
X172990792Y-99393480D01*
X172698280Y-99393480D01*
X172265118Y-99479641D01*
X171773911Y-99807855D01*
X171445697Y-100299062D01*
X171330444Y-100878480D01*
X168479585Y-100878480D01*
X168518541Y-100862344D01*
X168592675Y-100616225D01*
X167764536Y-99788085D01*
X166936397Y-100616225D01*
X158657041Y-100616225D01*
X158956276Y-100168389D01*
X159067649Y-99608480D01*
X159024530Y-99391703D01*
X166317571Y-99391703D01*
X166344758Y-99961934D01*
X166510672Y-100362485D01*
X166756791Y-100436619D01*
X167584931Y-99608480D01*
X167944141Y-99608480D01*
X168772281Y-100436619D01*
X169018400Y-100362485D01*
X169211501Y-99825257D01*
X169184314Y-99255026D01*
X169018400Y-98854475D01*
X168772281Y-98780341D01*
X167944141Y-99608480D01*
X167584931Y-99608480D01*
X166756791Y-98780341D01*
X166510672Y-98854475D01*
X166317571Y-99391703D01*
X159024530Y-99391703D01*
X158956276Y-99048571D01*
X158657042Y-98600735D01*
X166936397Y-98600735D01*
X167764536Y-99428875D01*
X168592675Y-98600735D01*
X168518541Y-98354616D01*
X167981313Y-98161515D01*
X167411082Y-98188702D01*
X167010531Y-98354616D01*
X166936397Y-98600735D01*
X158657042Y-98600735D01*
X158639113Y-98573903D01*
X158164445Y-98256740D01*
X157745869Y-98173480D01*
X157463203Y-98173480D01*
X157044627Y-98256740D01*
X156569959Y-98573903D01*
X156252796Y-99048571D01*
X156141423Y-99608480D01*
X154476778Y-99608480D01*
X154829113Y-99373057D01*
X155146276Y-98898389D01*
X155257649Y-98338480D01*
X155146276Y-97778571D01*
X154829113Y-97303903D01*
X154476778Y-97068480D01*
X154829113Y-96833057D01*
X155146276Y-96358389D01*
X155257649Y-95798480D01*
X156141423Y-95798480D01*
X156252796Y-96358389D01*
X156569959Y-96833057D01*
X157044627Y-97150220D01*
X157463203Y-97233480D01*
X157745869Y-97233480D01*
X158164445Y-97150220D01*
X158639113Y-96833057D01*
X158657041Y-96806225D01*
X166936397Y-96806225D01*
X167010531Y-97052344D01*
X167547759Y-97245445D01*
X168117990Y-97218258D01*
X168518541Y-97052344D01*
X168592675Y-96806225D01*
X167764536Y-95978085D01*
X166936397Y-96806225D01*
X158657041Y-96806225D01*
X158956276Y-96358389D01*
X159067649Y-95798480D01*
X159024530Y-95581703D01*
X166317571Y-95581703D01*
X166344758Y-96151934D01*
X166510672Y-96552485D01*
X166756791Y-96626619D01*
X167584931Y-95798480D01*
X167944141Y-95798480D01*
X168772281Y-96626619D01*
X169018400Y-96552485D01*
X169186709Y-96084230D01*
X171359536Y-96084230D01*
X171359536Y-96774790D01*
X171456209Y-97008179D01*
X171634838Y-97186807D01*
X171868227Y-97283480D01*
X172558786Y-97283480D01*
X172717536Y-97124730D01*
X172717536Y-95925480D01*
X172971536Y-95925480D01*
X172971536Y-97124730D01*
X173130286Y-97283480D01*
X173820845Y-97283480D01*
X174054234Y-97186807D01*
X174232863Y-97008179D01*
X174329536Y-96774790D01*
X174329536Y-96084230D01*
X174170786Y-95925480D01*
X172971536Y-95925480D01*
X172717536Y-95925480D01*
X171518286Y-95925480D01*
X171359536Y-96084230D01*
X169186709Y-96084230D01*
X169211501Y-96015257D01*
X169184314Y-95445026D01*
X169018400Y-95044475D01*
X168772281Y-94970341D01*
X167944141Y-95798480D01*
X167584931Y-95798480D01*
X166756791Y-94970341D01*
X166510672Y-95044475D01*
X166317571Y-95581703D01*
X159024530Y-95581703D01*
X158956276Y-95238571D01*
X158657042Y-94790735D01*
X166936397Y-94790735D01*
X167764536Y-95618875D01*
X168592675Y-94790735D01*
X168518541Y-94544616D01*
X167981313Y-94351515D01*
X167411082Y-94378702D01*
X167010531Y-94544616D01*
X166936397Y-94790735D01*
X158657042Y-94790735D01*
X158639113Y-94763903D01*
X158164445Y-94446740D01*
X157745869Y-94363480D01*
X157463203Y-94363480D01*
X157044627Y-94446740D01*
X156569959Y-94763903D01*
X156252796Y-95238571D01*
X156141423Y-95798480D01*
X155257649Y-95798480D01*
X155146276Y-95238571D01*
X154829113Y-94763903D01*
X154476778Y-94528480D01*
X154829113Y-94293057D01*
X155146276Y-93818389D01*
X155257649Y-93258480D01*
X155146276Y-92698571D01*
X154829113Y-92223903D01*
X154476778Y-91988480D01*
X156141423Y-91988480D01*
X156252796Y-92548389D01*
X156569959Y-93023057D01*
X157044627Y-93340220D01*
X157463203Y-93423480D01*
X157745869Y-93423480D01*
X158164445Y-93340220D01*
X158639113Y-93023057D01*
X158657041Y-92996225D01*
X166936397Y-92996225D01*
X167010531Y-93242344D01*
X167547759Y-93435445D01*
X168117990Y-93408258D01*
X168518541Y-93242344D01*
X168592675Y-92996225D01*
X167764536Y-92168085D01*
X166936397Y-92996225D01*
X158657041Y-92996225D01*
X158956276Y-92548389D01*
X159067649Y-91988480D01*
X159024530Y-91771703D01*
X166317571Y-91771703D01*
X166344758Y-92341934D01*
X166510672Y-92742485D01*
X166756791Y-92816619D01*
X167584931Y-91988480D01*
X167944141Y-91988480D01*
X168772281Y-92816619D01*
X169018400Y-92742485D01*
X169211501Y-92205257D01*
X169184314Y-91635026D01*
X169018400Y-91234475D01*
X168772281Y-91160341D01*
X167944141Y-91988480D01*
X167584931Y-91988480D01*
X166756791Y-91160341D01*
X166510672Y-91234475D01*
X166317571Y-91771703D01*
X159024530Y-91771703D01*
X158956276Y-91428571D01*
X158657042Y-90980735D01*
X166936397Y-90980735D01*
X167764536Y-91808875D01*
X168592675Y-90980735D01*
X168518541Y-90734616D01*
X168473649Y-90718480D01*
X171330444Y-90718480D01*
X171445697Y-91297898D01*
X171773911Y-91789105D01*
X172072297Y-91988480D01*
X171773911Y-92187855D01*
X171445697Y-92679062D01*
X171330444Y-93258480D01*
X171445697Y-93837898D01*
X171773911Y-94329105D01*
X171795569Y-94343576D01*
X171634838Y-94410153D01*
X171456209Y-94588781D01*
X171359536Y-94822170D01*
X171359536Y-95512730D01*
X171518286Y-95671480D01*
X172717536Y-95671480D01*
X172717536Y-95651480D01*
X172971536Y-95651480D01*
X172971536Y-95671480D01*
X174170786Y-95671480D01*
X174329536Y-95512730D01*
X174329536Y-94822170D01*
X174232863Y-94588781D01*
X174054234Y-94410153D01*
X173893503Y-94343576D01*
X173915161Y-94329105D01*
X174243375Y-93837898D01*
X174358628Y-93258480D01*
X174243375Y-92679062D01*
X173915161Y-92187855D01*
X173616775Y-91988480D01*
X173915161Y-91789105D01*
X174243375Y-91297898D01*
X174358628Y-90718480D01*
X174243375Y-90139062D01*
X173915161Y-89647855D01*
X173423954Y-89319641D01*
X172990792Y-89233480D01*
X172698280Y-89233480D01*
X172265118Y-89319641D01*
X171773911Y-89647855D01*
X171445697Y-90139062D01*
X171330444Y-90718480D01*
X168473649Y-90718480D01*
X167981313Y-90541515D01*
X167411082Y-90568702D01*
X167010531Y-90734616D01*
X166936397Y-90980735D01*
X158657042Y-90980735D01*
X158639113Y-90953903D01*
X158164445Y-90636740D01*
X157745869Y-90553480D01*
X157463203Y-90553480D01*
X157044627Y-90636740D01*
X156569959Y-90953903D01*
X156252796Y-91428571D01*
X156141423Y-91988480D01*
X154476778Y-91988480D01*
X154829113Y-91753057D01*
X155146276Y-91278389D01*
X155257649Y-90718480D01*
X155146276Y-90158571D01*
X154829113Y-89683903D01*
X154476778Y-89448480D01*
X154829113Y-89213057D01*
X155146276Y-88738389D01*
X155257649Y-88178480D01*
X156141423Y-88178480D01*
X156252796Y-88738389D01*
X156569959Y-89213057D01*
X157044627Y-89530220D01*
X157463203Y-89613480D01*
X157745869Y-89613480D01*
X158164445Y-89530220D01*
X158639113Y-89213057D01*
X158657041Y-89186225D01*
X166936397Y-89186225D01*
X167010531Y-89432344D01*
X167547759Y-89625445D01*
X168117990Y-89598258D01*
X168518541Y-89432344D01*
X168592675Y-89186225D01*
X167764536Y-88358085D01*
X166936397Y-89186225D01*
X158657041Y-89186225D01*
X158956276Y-88738389D01*
X159067649Y-88178480D01*
X159024530Y-87961703D01*
X166317571Y-87961703D01*
X166344758Y-88531934D01*
X166510672Y-88932485D01*
X166756791Y-89006619D01*
X167584931Y-88178480D01*
X167944141Y-88178480D01*
X168772281Y-89006619D01*
X169018400Y-88932485D01*
X169211501Y-88395257D01*
X169184314Y-87825026D01*
X169018400Y-87424475D01*
X168772281Y-87350341D01*
X167944141Y-88178480D01*
X167584931Y-88178480D01*
X166756791Y-87350341D01*
X166510672Y-87424475D01*
X166317571Y-87961703D01*
X159024530Y-87961703D01*
X158956276Y-87618571D01*
X158657042Y-87170735D01*
X166936397Y-87170735D01*
X167764536Y-87998875D01*
X168592675Y-87170735D01*
X168518541Y-86924616D01*
X167981313Y-86731515D01*
X167411082Y-86758702D01*
X167010531Y-86924616D01*
X166936397Y-87170735D01*
X158657042Y-87170735D01*
X158639113Y-87143903D01*
X158164445Y-86826740D01*
X157745869Y-86743480D01*
X157463203Y-86743480D01*
X157044627Y-86826740D01*
X156569959Y-87143903D01*
X156252796Y-87618571D01*
X156141423Y-88178480D01*
X155257649Y-88178480D01*
X155146276Y-87618571D01*
X154829113Y-87143903D01*
X154476778Y-86908480D01*
X154829113Y-86673057D01*
X155146276Y-86198389D01*
X155200809Y-85924230D01*
X171359536Y-85924230D01*
X171359536Y-86614790D01*
X171456209Y-86848179D01*
X171634838Y-87026807D01*
X171868227Y-87123480D01*
X172558786Y-87123480D01*
X172717536Y-86964730D01*
X172717536Y-85765480D01*
X172971536Y-85765480D01*
X172971536Y-86964730D01*
X173130286Y-87123480D01*
X173820845Y-87123480D01*
X174054234Y-87026807D01*
X174232863Y-86848179D01*
X174329536Y-86614790D01*
X174329536Y-85924230D01*
X174170786Y-85765480D01*
X172971536Y-85765480D01*
X172717536Y-85765480D01*
X171518286Y-85765480D01*
X171359536Y-85924230D01*
X155200809Y-85924230D01*
X155257649Y-85638480D01*
X155146276Y-85078571D01*
X154829113Y-84603903D01*
X154476778Y-84368480D01*
X156141423Y-84368480D01*
X156252796Y-84928389D01*
X156569959Y-85403057D01*
X157044627Y-85720220D01*
X157463203Y-85803480D01*
X157745869Y-85803480D01*
X158164445Y-85720220D01*
X158639113Y-85403057D01*
X158657041Y-85376225D01*
X166936397Y-85376225D01*
X167010531Y-85622344D01*
X167547759Y-85815445D01*
X168117990Y-85788258D01*
X168518541Y-85622344D01*
X168592675Y-85376225D01*
X167764536Y-84548085D01*
X166936397Y-85376225D01*
X158657041Y-85376225D01*
X158956276Y-84928389D01*
X159067649Y-84368480D01*
X159024530Y-84151703D01*
X166317571Y-84151703D01*
X166344758Y-84721934D01*
X166510672Y-85122485D01*
X166756791Y-85196619D01*
X167584931Y-84368480D01*
X167944141Y-84368480D01*
X168772281Y-85196619D01*
X169018400Y-85122485D01*
X169211501Y-84585257D01*
X169184314Y-84015026D01*
X169018400Y-83614475D01*
X168772281Y-83540341D01*
X167944141Y-84368480D01*
X167584931Y-84368480D01*
X166756791Y-83540341D01*
X166510672Y-83614475D01*
X166317571Y-84151703D01*
X159024530Y-84151703D01*
X158956276Y-83808571D01*
X158657042Y-83360735D01*
X166936397Y-83360735D01*
X167764536Y-84188875D01*
X168592675Y-83360735D01*
X168518541Y-83114616D01*
X167981313Y-82921515D01*
X167411082Y-82948702D01*
X167010531Y-83114616D01*
X166936397Y-83360735D01*
X158657042Y-83360735D01*
X158639113Y-83333903D01*
X158164445Y-83016740D01*
X157745869Y-82933480D01*
X157463203Y-82933480D01*
X157044627Y-83016740D01*
X156569959Y-83333903D01*
X156252796Y-83808571D01*
X156141423Y-84368480D01*
X154476778Y-84368480D01*
X154829113Y-84133057D01*
X155146276Y-83658389D01*
X155257649Y-83098480D01*
X155146276Y-82538571D01*
X154829113Y-82063903D01*
X154476778Y-81828480D01*
X154829113Y-81593057D01*
X155146276Y-81118389D01*
X155257649Y-80558480D01*
X156141423Y-80558480D01*
X156252796Y-81118389D01*
X156569959Y-81593057D01*
X157044627Y-81910220D01*
X157463203Y-81993480D01*
X157745869Y-81993480D01*
X158164445Y-81910220D01*
X158639113Y-81593057D01*
X158657041Y-81566225D01*
X166936397Y-81566225D01*
X167010531Y-81812344D01*
X167547759Y-82005445D01*
X168117990Y-81978258D01*
X168518541Y-81812344D01*
X168592675Y-81566225D01*
X167764536Y-80738085D01*
X166936397Y-81566225D01*
X158657041Y-81566225D01*
X158956276Y-81118389D01*
X159067649Y-80558480D01*
X159024530Y-80341703D01*
X166317571Y-80341703D01*
X166344758Y-80911934D01*
X166510672Y-81312485D01*
X166756791Y-81386619D01*
X167584931Y-80558480D01*
X167944141Y-80558480D01*
X168772281Y-81386619D01*
X169018400Y-81312485D01*
X169211501Y-80775257D01*
X169201166Y-80558480D01*
X171330444Y-80558480D01*
X171445697Y-81137898D01*
X171773911Y-81629105D01*
X172072297Y-81828480D01*
X171773911Y-82027855D01*
X171445697Y-82519062D01*
X171330444Y-83098480D01*
X171445697Y-83677898D01*
X171773911Y-84169105D01*
X171795569Y-84183576D01*
X171634838Y-84250153D01*
X171456209Y-84428781D01*
X171359536Y-84662170D01*
X171359536Y-85352730D01*
X171518286Y-85511480D01*
X172717536Y-85511480D01*
X172717536Y-85491480D01*
X172971536Y-85491480D01*
X172971536Y-85511480D01*
X174170786Y-85511480D01*
X174329536Y-85352730D01*
X174329536Y-84662170D01*
X174232863Y-84428781D01*
X174054234Y-84250153D01*
X173893503Y-84183576D01*
X173915161Y-84169105D01*
X174243375Y-83677898D01*
X174358628Y-83098480D01*
X174243375Y-82519062D01*
X173915161Y-82027855D01*
X173616775Y-81828480D01*
X173915161Y-81629105D01*
X174243375Y-81137898D01*
X174358628Y-80558480D01*
X174243375Y-79979062D01*
X173915161Y-79487855D01*
X173423954Y-79159641D01*
X172990792Y-79073480D01*
X172698280Y-79073480D01*
X172265118Y-79159641D01*
X171773911Y-79487855D01*
X171445697Y-79979062D01*
X171330444Y-80558480D01*
X169201166Y-80558480D01*
X169184314Y-80205026D01*
X169018400Y-79804475D01*
X168772281Y-79730341D01*
X167944141Y-80558480D01*
X167584931Y-80558480D01*
X166756791Y-79730341D01*
X166510672Y-79804475D01*
X166317571Y-80341703D01*
X159024530Y-80341703D01*
X158956276Y-79998571D01*
X158657042Y-79550735D01*
X166936397Y-79550735D01*
X167764536Y-80378875D01*
X168592675Y-79550735D01*
X168518541Y-79304616D01*
X167981313Y-79111515D01*
X167411082Y-79138702D01*
X167010531Y-79304616D01*
X166936397Y-79550735D01*
X158657042Y-79550735D01*
X158639113Y-79523903D01*
X158164445Y-79206740D01*
X157745869Y-79123480D01*
X157463203Y-79123480D01*
X157044627Y-79206740D01*
X156569959Y-79523903D01*
X156252796Y-79998571D01*
X156141423Y-80558480D01*
X155257649Y-80558480D01*
X155146276Y-79998571D01*
X154829113Y-79523903D01*
X154354445Y-79206740D01*
X153935869Y-79123480D01*
X153653203Y-79123480D01*
X153234627Y-79206740D01*
X152759959Y-79523903D01*
X152442796Y-79998571D01*
X152331423Y-80558480D01*
X147621976Y-80558480D01*
X147621976Y-79758480D01*
X147572693Y-79510715D01*
X147432345Y-79300671D01*
X147222301Y-79160323D01*
X146974536Y-79111040D01*
X145374536Y-79111040D01*
X145126771Y-79160323D01*
X144916727Y-79300671D01*
X144776379Y-79510715D01*
X144727096Y-79758480D01*
X144727096Y-81358480D01*
X144776379Y-81606245D01*
X144916727Y-81816289D01*
X145126771Y-81956637D01*
X145260642Y-81983265D01*
X145139959Y-82063903D01*
X144822796Y-82538571D01*
X144711423Y-83098480D01*
X143046778Y-83098480D01*
X142924445Y-83016740D01*
X142505869Y-82933480D01*
X142223203Y-82933480D01*
X141804627Y-83016740D01*
X141329959Y-83333903D01*
X141012796Y-83808571D01*
X140901423Y-84368480D01*
X133641166Y-84368480D01*
X133624314Y-84015026D01*
X133458400Y-83614475D01*
X133212281Y-83540341D01*
X132384141Y-84368480D01*
X132024931Y-84368480D01*
X131196791Y-83540341D01*
X130950672Y-83614475D01*
X130757571Y-84151703D01*
X106807000Y-84151703D01*
X106807000Y-83360735D01*
X131376397Y-83360735D01*
X132204536Y-84188875D01*
X133032675Y-83360735D01*
X132958541Y-83114616D01*
X132421313Y-82921515D01*
X131851082Y-82948702D01*
X131450531Y-83114616D01*
X131376397Y-83360735D01*
X106807000Y-83360735D01*
X106807000Y-81020739D01*
X120620762Y-81020739D01*
X120728254Y-81561139D01*
X121034366Y-82019268D01*
X121492495Y-82325380D01*
X121896488Y-82405739D01*
X122169302Y-82405739D01*
X122573295Y-82325380D01*
X123031424Y-82019268D01*
X123334137Y-81566225D01*
X131376397Y-81566225D01*
X131450531Y-81812344D01*
X131987759Y-82005445D01*
X132557990Y-81978258D01*
X132958541Y-81812344D01*
X133032675Y-81566225D01*
X132204536Y-80738085D01*
X131376397Y-81566225D01*
X123334137Y-81566225D01*
X123337536Y-81561139D01*
X123445028Y-81020739D01*
X123337536Y-80480339D01*
X123244903Y-80341703D01*
X130757571Y-80341703D01*
X130784758Y-80911934D01*
X130950672Y-81312485D01*
X131196791Y-81386619D01*
X132024931Y-80558480D01*
X132384141Y-80558480D01*
X133212281Y-81386619D01*
X133458400Y-81312485D01*
X133651501Y-80775257D01*
X133641166Y-80558480D01*
X140901423Y-80558480D01*
X141012796Y-81118389D01*
X141329959Y-81593057D01*
X141804627Y-81910220D01*
X142223203Y-81993480D01*
X142505869Y-81993480D01*
X142924445Y-81910220D01*
X143399113Y-81593057D01*
X143716276Y-81118389D01*
X143827649Y-80558480D01*
X143716276Y-79998571D01*
X143399113Y-79523903D01*
X142924445Y-79206740D01*
X142505869Y-79123480D01*
X142223203Y-79123480D01*
X141804627Y-79206740D01*
X141329959Y-79523903D01*
X141012796Y-79998571D01*
X140901423Y-80558480D01*
X133641166Y-80558480D01*
X133624314Y-80205026D01*
X133458400Y-79804475D01*
X133212281Y-79730341D01*
X132384141Y-80558480D01*
X132024931Y-80558480D01*
X131196791Y-79730341D01*
X130950672Y-79804475D01*
X130757571Y-80341703D01*
X123244903Y-80341703D01*
X123031424Y-80022210D01*
X122573295Y-79716098D01*
X122169302Y-79635739D01*
X121896488Y-79635739D01*
X121492495Y-79716098D01*
X121034366Y-80022210D01*
X120728254Y-80480339D01*
X120620762Y-81020739D01*
X106807000Y-81020739D01*
X106807000Y-78367844D01*
X110720023Y-78367844D01*
X110827515Y-78908244D01*
X111133627Y-79366373D01*
X111591756Y-79672485D01*
X111995749Y-79752844D01*
X112268563Y-79752844D01*
X112672556Y-79672485D01*
X113130685Y-79366373D01*
X113436797Y-78908244D01*
X113544289Y-78367844D01*
X125215711Y-78367844D01*
X125323203Y-78908244D01*
X125629315Y-79366373D01*
X126087444Y-79672485D01*
X126491437Y-79752844D01*
X126764251Y-79752844D01*
X127168244Y-79672485D01*
X127350455Y-79550735D01*
X131376397Y-79550735D01*
X132204536Y-80378875D01*
X133032675Y-79550735D01*
X132958541Y-79304616D01*
X132421313Y-79111515D01*
X131851082Y-79138702D01*
X131450531Y-79304616D01*
X131376397Y-79550735D01*
X127350455Y-79550735D01*
X127626373Y-79366373D01*
X127932485Y-78908244D01*
X128039977Y-78367844D01*
X127932485Y-77827444D01*
X127626373Y-77369315D01*
X127168244Y-77063203D01*
X126764251Y-76982844D01*
X126491437Y-76982844D01*
X126087444Y-77063203D01*
X125629315Y-77369315D01*
X125323203Y-77827444D01*
X125215711Y-78367844D01*
X113544289Y-78367844D01*
X113436797Y-77827444D01*
X113130685Y-77369315D01*
X112672556Y-77063203D01*
X112268563Y-76982844D01*
X111995749Y-76982844D01*
X111591756Y-77063203D01*
X111133627Y-77369315D01*
X110827515Y-77827444D01*
X110720023Y-78367844D01*
X106807000Y-78367844D01*
X106807000Y-76485750D01*
X142025000Y-76485750D01*
X142025000Y-77176309D01*
X142121673Y-77409698D01*
X142300301Y-77588327D01*
X142533690Y-77685000D01*
X143224250Y-77685000D01*
X143383000Y-77526250D01*
X143383000Y-76327000D01*
X142183750Y-76327000D01*
X142025000Y-76485750D01*
X106807000Y-76485750D01*
X106807000Y-75223691D01*
X142025000Y-75223691D01*
X142025000Y-75914250D01*
X142183750Y-76073000D01*
X143383000Y-76073000D01*
X143383000Y-74873750D01*
X143637000Y-74873750D01*
X143637000Y-76073000D01*
X143657000Y-76073000D01*
X143657000Y-76327000D01*
X143637000Y-76327000D01*
X143637000Y-77526250D01*
X143795750Y-77685000D01*
X144486310Y-77685000D01*
X144719699Y-77588327D01*
X144898327Y-77409698D01*
X144964904Y-77248967D01*
X144979375Y-77270625D01*
X145470582Y-77598839D01*
X145903744Y-77685000D01*
X146196256Y-77685000D01*
X146629418Y-77598839D01*
X147120625Y-77270625D01*
X147320000Y-76972239D01*
X147519375Y-77270625D01*
X148010582Y-77598839D01*
X148443744Y-77685000D01*
X148736256Y-77685000D01*
X149169418Y-77598839D01*
X149660625Y-77270625D01*
X149860000Y-76972239D01*
X150059375Y-77270625D01*
X150550582Y-77598839D01*
X150983744Y-77685000D01*
X151276256Y-77685000D01*
X151709418Y-77598839D01*
X152200625Y-77270625D01*
X152400000Y-76972239D01*
X152599375Y-77270625D01*
X153090582Y-77598839D01*
X153523744Y-77685000D01*
X153816256Y-77685000D01*
X154249418Y-77598839D01*
X154740625Y-77270625D01*
X155068839Y-76779418D01*
X155127252Y-76485750D01*
X157265000Y-76485750D01*
X157265000Y-77176309D01*
X157361673Y-77409698D01*
X157540301Y-77588327D01*
X157773690Y-77685000D01*
X158464250Y-77685000D01*
X158623000Y-77526250D01*
X158623000Y-76327000D01*
X157423750Y-76327000D01*
X157265000Y-76485750D01*
X155127252Y-76485750D01*
X155184092Y-76200000D01*
X155068839Y-75620582D01*
X154803645Y-75223691D01*
X157265000Y-75223691D01*
X157265000Y-75914250D01*
X157423750Y-76073000D01*
X158623000Y-76073000D01*
X158623000Y-74873750D01*
X158877000Y-74873750D01*
X158877000Y-76073000D01*
X158897000Y-76073000D01*
X158897000Y-76327000D01*
X158877000Y-76327000D01*
X158877000Y-77526250D01*
X159035750Y-77685000D01*
X159726310Y-77685000D01*
X159959699Y-77588327D01*
X160138327Y-77409698D01*
X160204904Y-77248967D01*
X160219375Y-77270625D01*
X160710582Y-77598839D01*
X161143744Y-77685000D01*
X161436256Y-77685000D01*
X161869418Y-77598839D01*
X162360625Y-77270625D01*
X162560000Y-76972239D01*
X162759375Y-77270625D01*
X163250582Y-77598839D01*
X163683744Y-77685000D01*
X163976256Y-77685000D01*
X164409418Y-77598839D01*
X164900625Y-77270625D01*
X165100000Y-76972239D01*
X165299375Y-77270625D01*
X165790582Y-77598839D01*
X166223744Y-77685000D01*
X166516256Y-77685000D01*
X166949418Y-77598839D01*
X167440625Y-77270625D01*
X167640000Y-76972239D01*
X167839375Y-77270625D01*
X168330582Y-77598839D01*
X168763744Y-77685000D01*
X169056256Y-77685000D01*
X169489418Y-77598839D01*
X169980625Y-77270625D01*
X170308839Y-76779418D01*
X170424092Y-76200000D01*
X170308839Y-75620582D01*
X169980625Y-75129375D01*
X169489418Y-74801161D01*
X169056256Y-74715000D01*
X168763744Y-74715000D01*
X168330582Y-74801161D01*
X167839375Y-75129375D01*
X167640000Y-75427761D01*
X167440625Y-75129375D01*
X166949418Y-74801161D01*
X166516256Y-74715000D01*
X166223744Y-74715000D01*
X165790582Y-74801161D01*
X165299375Y-75129375D01*
X165100000Y-75427761D01*
X164900625Y-75129375D01*
X164409418Y-74801161D01*
X163976256Y-74715000D01*
X163683744Y-74715000D01*
X163250582Y-74801161D01*
X162759375Y-75129375D01*
X162560000Y-75427761D01*
X162360625Y-75129375D01*
X161869418Y-74801161D01*
X161436256Y-74715000D01*
X161143744Y-74715000D01*
X160710582Y-74801161D01*
X160219375Y-75129375D01*
X160204904Y-75151033D01*
X160138327Y-74990302D01*
X159959699Y-74811673D01*
X159726310Y-74715000D01*
X159035750Y-74715000D01*
X158877000Y-74873750D01*
X158623000Y-74873750D01*
X158464250Y-74715000D01*
X157773690Y-74715000D01*
X157540301Y-74811673D01*
X157361673Y-74990302D01*
X157265000Y-75223691D01*
X154803645Y-75223691D01*
X154740625Y-75129375D01*
X154249418Y-74801161D01*
X153816256Y-74715000D01*
X153523744Y-74715000D01*
X153090582Y-74801161D01*
X152599375Y-75129375D01*
X152400000Y-75427761D01*
X152200625Y-75129375D01*
X151709418Y-74801161D01*
X151276256Y-74715000D01*
X150983744Y-74715000D01*
X150550582Y-74801161D01*
X150059375Y-75129375D01*
X149860000Y-75427761D01*
X149660625Y-75129375D01*
X149169418Y-74801161D01*
X148736256Y-74715000D01*
X148443744Y-74715000D01*
X148010582Y-74801161D01*
X147519375Y-75129375D01*
X147320000Y-75427761D01*
X147120625Y-75129375D01*
X146629418Y-74801161D01*
X146196256Y-74715000D01*
X145903744Y-74715000D01*
X145470582Y-74801161D01*
X144979375Y-75129375D01*
X144964904Y-75151033D01*
X144898327Y-74990302D01*
X144719699Y-74811673D01*
X144486310Y-74715000D01*
X143795750Y-74715000D01*
X143637000Y-74873750D01*
X143383000Y-74873750D01*
X143224250Y-74715000D01*
X142533690Y-74715000D01*
X142300301Y-74811673D01*
X142121673Y-74990302D01*
X142025000Y-75223691D01*
X106807000Y-75223691D01*
X106807000Y-73772895D01*
X108067128Y-73772895D01*
X108174620Y-74313295D01*
X108480732Y-74771424D01*
X108938861Y-75077536D01*
X109342854Y-75157895D01*
X109615668Y-75157895D01*
X110019661Y-75077536D01*
X110477790Y-74771424D01*
X110783902Y-74313295D01*
X110891394Y-73772895D01*
X127868606Y-73772895D01*
X127976098Y-74313295D01*
X128282210Y-74771424D01*
X128740339Y-75077536D01*
X129144332Y-75157895D01*
X129417146Y-75157895D01*
X129821139Y-75077536D01*
X130279268Y-74771424D01*
X130585380Y-74313295D01*
X130692872Y-73772895D01*
X130585380Y-73232495D01*
X130279268Y-72774366D01*
X129821139Y-72468254D01*
X129417146Y-72387895D01*
X129144332Y-72387895D01*
X128740339Y-72468254D01*
X128282210Y-72774366D01*
X127976098Y-73232495D01*
X127868606Y-73772895D01*
X110891394Y-73772895D01*
X110783902Y-73232495D01*
X110477790Y-72774366D01*
X110019661Y-72468254D01*
X109615668Y-72387895D01*
X109342854Y-72387895D01*
X108938861Y-72468254D01*
X108480732Y-72774366D01*
X108174620Y-73232495D01*
X108067128Y-73772895D01*
X106807000Y-73772895D01*
X106807000Y-71120000D01*
X134426887Y-71120000D01*
X134538260Y-71679909D01*
X134855423Y-72154577D01*
X135330091Y-72471740D01*
X135748667Y-72555000D01*
X136031333Y-72555000D01*
X136449909Y-72471740D01*
X136924577Y-72154577D01*
X137160000Y-71802242D01*
X137395423Y-72154577D01*
X137870091Y-72471740D01*
X138288667Y-72555000D01*
X138571333Y-72555000D01*
X138989909Y-72471740D01*
X139464577Y-72154577D01*
X139720947Y-71770892D01*
X139817611Y-71975134D01*
X140232577Y-72351041D01*
X140620961Y-72511904D01*
X140843000Y-72389915D01*
X140843000Y-71247000D01*
X140823000Y-71247000D01*
X140823000Y-70993000D01*
X140843000Y-70993000D01*
X140843000Y-69850085D01*
X141097000Y-69850085D01*
X141097000Y-70993000D01*
X141117000Y-70993000D01*
X141117000Y-71247000D01*
X141097000Y-71247000D01*
X141097000Y-72389915D01*
X141319039Y-72511904D01*
X141707423Y-72351041D01*
X142122389Y-71975134D01*
X142219053Y-71770892D01*
X142475423Y-72154577D01*
X142950091Y-72471740D01*
X143368667Y-72555000D01*
X143651333Y-72555000D01*
X144069909Y-72471740D01*
X144544577Y-72154577D01*
X144780000Y-71802242D01*
X145015423Y-72154577D01*
X145490091Y-72471740D01*
X145908667Y-72555000D01*
X146191333Y-72555000D01*
X146609909Y-72471740D01*
X147084577Y-72154577D01*
X147320000Y-71802242D01*
X147555423Y-72154577D01*
X148030091Y-72471740D01*
X148448667Y-72555000D01*
X148731333Y-72555000D01*
X149149909Y-72471740D01*
X149624577Y-72154577D01*
X149860000Y-71802242D01*
X150095423Y-72154577D01*
X150570091Y-72471740D01*
X150988667Y-72555000D01*
X151271333Y-72555000D01*
X151689909Y-72471740D01*
X152164577Y-72154577D01*
X152400000Y-71802242D01*
X152635423Y-72154577D01*
X153110091Y-72471740D01*
X153528667Y-72555000D01*
X153811333Y-72555000D01*
X154229909Y-72471740D01*
X154704577Y-72154577D01*
X154940000Y-71802242D01*
X155175423Y-72154577D01*
X155650091Y-72471740D01*
X156068667Y-72555000D01*
X156351333Y-72555000D01*
X156769909Y-72471740D01*
X157244577Y-72154577D01*
X157480000Y-71802242D01*
X157715423Y-72154577D01*
X158190091Y-72471740D01*
X158608667Y-72555000D01*
X158891333Y-72555000D01*
X159309909Y-72471740D01*
X159784577Y-72154577D01*
X160020000Y-71802242D01*
X160255423Y-72154577D01*
X160730091Y-72471740D01*
X161148667Y-72555000D01*
X161431333Y-72555000D01*
X161849909Y-72471740D01*
X162324577Y-72154577D01*
X162560000Y-71802242D01*
X162795423Y-72154577D01*
X163270091Y-72471740D01*
X163688667Y-72555000D01*
X163971333Y-72555000D01*
X164389909Y-72471740D01*
X164864577Y-72154577D01*
X165100000Y-71802242D01*
X165335423Y-72154577D01*
X165810091Y-72471740D01*
X166228667Y-72555000D01*
X166511333Y-72555000D01*
X166929909Y-72471740D01*
X167404577Y-72154577D01*
X167640000Y-71802242D01*
X167875423Y-72154577D01*
X168350091Y-72471740D01*
X168768667Y-72555000D01*
X169051333Y-72555000D01*
X169469909Y-72471740D01*
X169944577Y-72154577D01*
X170261740Y-71679909D01*
X170373113Y-71120000D01*
X170261740Y-70560091D01*
X169944577Y-70085423D01*
X169469909Y-69768260D01*
X169051333Y-69685000D01*
X168768667Y-69685000D01*
X168350091Y-69768260D01*
X167875423Y-70085423D01*
X167640000Y-70437758D01*
X167404577Y-70085423D01*
X166929909Y-69768260D01*
X166511333Y-69685000D01*
X166228667Y-69685000D01*
X165810091Y-69768260D01*
X165335423Y-70085423D01*
X165100000Y-70437758D01*
X164864577Y-70085423D01*
X164389909Y-69768260D01*
X163971333Y-69685000D01*
X163688667Y-69685000D01*
X163270091Y-69768260D01*
X162795423Y-70085423D01*
X162560000Y-70437758D01*
X162324577Y-70085423D01*
X161849909Y-69768260D01*
X161431333Y-69685000D01*
X161148667Y-69685000D01*
X160730091Y-69768260D01*
X160255423Y-70085423D01*
X160020000Y-70437758D01*
X159784577Y-70085423D01*
X159309909Y-69768260D01*
X158891333Y-69685000D01*
X158608667Y-69685000D01*
X158190091Y-69768260D01*
X157715423Y-70085423D01*
X157480000Y-70437758D01*
X157244577Y-70085423D01*
X156769909Y-69768260D01*
X156351333Y-69685000D01*
X156068667Y-69685000D01*
X155650091Y-69768260D01*
X155175423Y-70085423D01*
X154940000Y-70437758D01*
X154704577Y-70085423D01*
X154229909Y-69768260D01*
X153811333Y-69685000D01*
X153528667Y-69685000D01*
X153110091Y-69768260D01*
X152635423Y-70085423D01*
X152400000Y-70437758D01*
X152164577Y-70085423D01*
X151689909Y-69768260D01*
X151271333Y-69685000D01*
X150988667Y-69685000D01*
X150570091Y-69768260D01*
X150095423Y-70085423D01*
X149860000Y-70437758D01*
X149624577Y-70085423D01*
X149149909Y-69768260D01*
X148731333Y-69685000D01*
X148448667Y-69685000D01*
X148030091Y-69768260D01*
X147555423Y-70085423D01*
X147320000Y-70437758D01*
X147084577Y-70085423D01*
X146609909Y-69768260D01*
X146191333Y-69685000D01*
X145908667Y-69685000D01*
X145490091Y-69768260D01*
X145015423Y-70085423D01*
X144780000Y-70437758D01*
X144544577Y-70085423D01*
X144069909Y-69768260D01*
X143651333Y-69685000D01*
X143368667Y-69685000D01*
X142950091Y-69768260D01*
X142475423Y-70085423D01*
X142219053Y-70469108D01*
X142122389Y-70264866D01*
X141707423Y-69888959D01*
X141319039Y-69728096D01*
X141097000Y-69850085D01*
X140843000Y-69850085D01*
X140620961Y-69728096D01*
X140232577Y-69888959D01*
X139817611Y-70264866D01*
X139720947Y-70469108D01*
X139464577Y-70085423D01*
X138989909Y-69768260D01*
X138571333Y-69685000D01*
X138288667Y-69685000D01*
X137870091Y-69768260D01*
X137395423Y-70085423D01*
X137160000Y-70437758D01*
X136924577Y-70085423D01*
X136449909Y-69768260D01*
X136031333Y-69685000D01*
X135748667Y-69685000D01*
X135330091Y-69768260D01*
X134855423Y-70085423D01*
X134538260Y-70560091D01*
X134426887Y-71120000D01*
X106807000Y-71120000D01*
X106807000Y-68467105D01*
X108067128Y-68467105D01*
X108174620Y-69007505D01*
X108480732Y-69465634D01*
X108938861Y-69771746D01*
X109342854Y-69852105D01*
X109615668Y-69852105D01*
X110019661Y-69771746D01*
X110477790Y-69465634D01*
X110783902Y-69007505D01*
X110891394Y-68467105D01*
X127868606Y-68467105D01*
X127976098Y-69007505D01*
X128282210Y-69465634D01*
X128740339Y-69771746D01*
X129144332Y-69852105D01*
X129417146Y-69852105D01*
X129821139Y-69771746D01*
X130279268Y-69465634D01*
X130585380Y-69007505D01*
X130613576Y-68865750D01*
X171235000Y-68865750D01*
X171235000Y-69556310D01*
X171331673Y-69789699D01*
X171510302Y-69968327D01*
X171743691Y-70065000D01*
X172434250Y-70065000D01*
X172593000Y-69906250D01*
X172593000Y-68707000D01*
X172847000Y-68707000D01*
X172847000Y-69906250D01*
X173005750Y-70065000D01*
X173696309Y-70065000D01*
X173929698Y-69968327D01*
X174108327Y-69789699D01*
X174205000Y-69556310D01*
X174205000Y-68865750D01*
X174046250Y-68707000D01*
X172847000Y-68707000D01*
X172593000Y-68707000D01*
X171393750Y-68707000D01*
X171235000Y-68865750D01*
X130613576Y-68865750D01*
X130692872Y-68467105D01*
X130585380Y-67926705D01*
X130279268Y-67468576D01*
X129821139Y-67162464D01*
X129417146Y-67082105D01*
X129144332Y-67082105D01*
X128740339Y-67162464D01*
X128282210Y-67468576D01*
X127976098Y-67926705D01*
X127868606Y-68467105D01*
X110891394Y-68467105D01*
X110783902Y-67926705D01*
X110477790Y-67468576D01*
X110019661Y-67162464D01*
X109615668Y-67082105D01*
X109342854Y-67082105D01*
X108938861Y-67162464D01*
X108480732Y-67468576D01*
X108174620Y-67926705D01*
X108067128Y-68467105D01*
X106807000Y-68467105D01*
X106807000Y-65342119D01*
X117983000Y-65342119D01*
X117983000Y-65897881D01*
X118195680Y-66411337D01*
X118588663Y-66804320D01*
X119102119Y-67017000D01*
X119657881Y-67017000D01*
X120171337Y-66804320D01*
X120564320Y-66411337D01*
X120777000Y-65897881D01*
X120777000Y-65342119D01*
X120564320Y-64828663D01*
X120171337Y-64435680D01*
X119657881Y-64223000D01*
X119102119Y-64223000D01*
X118588663Y-64435680D01*
X118195680Y-64828663D01*
X117983000Y-65342119D01*
X106807000Y-65342119D01*
X106807000Y-65030779D01*
X107888381Y-63872156D01*
X110720023Y-63872156D01*
X110827515Y-64412556D01*
X111133627Y-64870685D01*
X111591756Y-65176797D01*
X111995749Y-65257156D01*
X112268563Y-65257156D01*
X112672556Y-65176797D01*
X113130685Y-64870685D01*
X113436797Y-64412556D01*
X113544289Y-63872156D01*
X125215711Y-63872156D01*
X125323203Y-64412556D01*
X125629315Y-64870685D01*
X126087444Y-65176797D01*
X126491437Y-65257156D01*
X126764251Y-65257156D01*
X127168244Y-65176797D01*
X127626373Y-64870685D01*
X127932485Y-64412556D01*
X128039977Y-63872156D01*
X127965951Y-63500000D01*
X134426887Y-63500000D01*
X134538260Y-64059909D01*
X134855423Y-64534577D01*
X135330091Y-64851740D01*
X135748667Y-64935000D01*
X136031333Y-64935000D01*
X136449909Y-64851740D01*
X136924577Y-64534577D01*
X137160000Y-64182242D01*
X137395423Y-64534577D01*
X137870091Y-64851740D01*
X138288667Y-64935000D01*
X138571333Y-64935000D01*
X138989909Y-64851740D01*
X139464577Y-64534577D01*
X139700000Y-64182242D01*
X139935423Y-64534577D01*
X140410091Y-64851740D01*
X140828667Y-64935000D01*
X141111333Y-64935000D01*
X141529909Y-64851740D01*
X142004577Y-64534577D01*
X142240000Y-64182242D01*
X142475423Y-64534577D01*
X142950091Y-64851740D01*
X143368667Y-64935000D01*
X143651333Y-64935000D01*
X144069909Y-64851740D01*
X144544577Y-64534577D01*
X144800947Y-64150892D01*
X144897611Y-64355134D01*
X145312577Y-64731041D01*
X145700961Y-64891904D01*
X145923000Y-64769915D01*
X145923000Y-63627000D01*
X145903000Y-63627000D01*
X145903000Y-63373000D01*
X145923000Y-63373000D01*
X145923000Y-62230085D01*
X146177000Y-62230085D01*
X146177000Y-63373000D01*
X146197000Y-63373000D01*
X146197000Y-63627000D01*
X146177000Y-63627000D01*
X146177000Y-64769915D01*
X146399039Y-64891904D01*
X146787423Y-64731041D01*
X147202389Y-64355134D01*
X147299053Y-64150892D01*
X147555423Y-64534577D01*
X148030091Y-64851740D01*
X148448667Y-64935000D01*
X148731333Y-64935000D01*
X149149909Y-64851740D01*
X149624577Y-64534577D01*
X149860000Y-64182242D01*
X150095423Y-64534577D01*
X150570091Y-64851740D01*
X150988667Y-64935000D01*
X151271333Y-64935000D01*
X151689909Y-64851740D01*
X152164577Y-64534577D01*
X152400000Y-64182242D01*
X152635423Y-64534577D01*
X153110091Y-64851740D01*
X153528667Y-64935000D01*
X153811333Y-64935000D01*
X154229909Y-64851740D01*
X154704577Y-64534577D01*
X154940000Y-64182242D01*
X155175423Y-64534577D01*
X155650091Y-64851740D01*
X156068667Y-64935000D01*
X156351333Y-64935000D01*
X156769909Y-64851740D01*
X157244577Y-64534577D01*
X157480000Y-64182242D01*
X157715423Y-64534577D01*
X158190091Y-64851740D01*
X158608667Y-64935000D01*
X158891333Y-64935000D01*
X159309909Y-64851740D01*
X159784577Y-64534577D01*
X160020000Y-64182242D01*
X160255423Y-64534577D01*
X160730091Y-64851740D01*
X161148667Y-64935000D01*
X161431333Y-64935000D01*
X161849909Y-64851740D01*
X162324577Y-64534577D01*
X162560000Y-64182242D01*
X162795423Y-64534577D01*
X163270091Y-64851740D01*
X163688667Y-64935000D01*
X163971333Y-64935000D01*
X164389909Y-64851740D01*
X164864577Y-64534577D01*
X165100000Y-64182242D01*
X165335423Y-64534577D01*
X165810091Y-64851740D01*
X166228667Y-64935000D01*
X166511333Y-64935000D01*
X166929909Y-64851740D01*
X167404577Y-64534577D01*
X167485215Y-64413894D01*
X167511843Y-64547765D01*
X167652191Y-64757809D01*
X167862235Y-64898157D01*
X168110000Y-64947440D01*
X169710000Y-64947440D01*
X169957765Y-64898157D01*
X170167809Y-64757809D01*
X170308157Y-64547765D01*
X170357440Y-64300000D01*
X170357440Y-63500000D01*
X171205908Y-63500000D01*
X171321161Y-64079418D01*
X171649375Y-64570625D01*
X171947761Y-64770000D01*
X171649375Y-64969375D01*
X171321161Y-65460582D01*
X171205908Y-66040000D01*
X171321161Y-66619418D01*
X171649375Y-67110625D01*
X171671033Y-67125096D01*
X171510302Y-67191673D01*
X171331673Y-67370301D01*
X171235000Y-67603690D01*
X171235000Y-68294250D01*
X171393750Y-68453000D01*
X172593000Y-68453000D01*
X172593000Y-68433000D01*
X172847000Y-68433000D01*
X172847000Y-68453000D01*
X174046250Y-68453000D01*
X174205000Y-68294250D01*
X174205000Y-67603690D01*
X174108327Y-67370301D01*
X173929698Y-67191673D01*
X173768967Y-67125096D01*
X173790625Y-67110625D01*
X174118839Y-66619418D01*
X174234092Y-66040000D01*
X174118839Y-65460582D01*
X173790625Y-64969375D01*
X173492239Y-64770000D01*
X173790625Y-64570625D01*
X174118839Y-64079418D01*
X174234092Y-63500000D01*
X174118839Y-62920582D01*
X173790625Y-62429375D01*
X173299418Y-62101161D01*
X172866256Y-62015000D01*
X172573744Y-62015000D01*
X172140582Y-62101161D01*
X171649375Y-62429375D01*
X171321161Y-62920582D01*
X171205908Y-63500000D01*
X170357440Y-63500000D01*
X170357440Y-62700000D01*
X170308157Y-62452235D01*
X170167809Y-62242191D01*
X169957765Y-62101843D01*
X169710000Y-62052560D01*
X168110000Y-62052560D01*
X167862235Y-62101843D01*
X167652191Y-62242191D01*
X167511843Y-62452235D01*
X167485215Y-62586106D01*
X167404577Y-62465423D01*
X166929909Y-62148260D01*
X166511333Y-62065000D01*
X166228667Y-62065000D01*
X165810091Y-62148260D01*
X165335423Y-62465423D01*
X165100000Y-62817758D01*
X164864577Y-62465423D01*
X164389909Y-62148260D01*
X163971333Y-62065000D01*
X163688667Y-62065000D01*
X163270091Y-62148260D01*
X162795423Y-62465423D01*
X162560000Y-62817758D01*
X162324577Y-62465423D01*
X161849909Y-62148260D01*
X161431333Y-62065000D01*
X161148667Y-62065000D01*
X160730091Y-62148260D01*
X160255423Y-62465423D01*
X160020000Y-62817758D01*
X159784577Y-62465423D01*
X159309909Y-62148260D01*
X158891333Y-62065000D01*
X158608667Y-62065000D01*
X158190091Y-62148260D01*
X157715423Y-62465423D01*
X157480000Y-62817758D01*
X157244577Y-62465423D01*
X156769909Y-62148260D01*
X156351333Y-62065000D01*
X156068667Y-62065000D01*
X155650091Y-62148260D01*
X155175423Y-62465423D01*
X154940000Y-62817758D01*
X154704577Y-62465423D01*
X154229909Y-62148260D01*
X153811333Y-62065000D01*
X153528667Y-62065000D01*
X153110091Y-62148260D01*
X152635423Y-62465423D01*
X152400000Y-62817758D01*
X152164577Y-62465423D01*
X151689909Y-62148260D01*
X151271333Y-62065000D01*
X150988667Y-62065000D01*
X150570091Y-62148260D01*
X150095423Y-62465423D01*
X149860000Y-62817758D01*
X149624577Y-62465423D01*
X149149909Y-62148260D01*
X148731333Y-62065000D01*
X148448667Y-62065000D01*
X148030091Y-62148260D01*
X147555423Y-62465423D01*
X147299053Y-62849108D01*
X147202389Y-62644866D01*
X146787423Y-62268959D01*
X146399039Y-62108096D01*
X146177000Y-62230085D01*
X145923000Y-62230085D01*
X145700961Y-62108096D01*
X145312577Y-62268959D01*
X144897611Y-62644866D01*
X144800947Y-62849108D01*
X144544577Y-62465423D01*
X144069909Y-62148260D01*
X143651333Y-62065000D01*
X143368667Y-62065000D01*
X142950091Y-62148260D01*
X142475423Y-62465423D01*
X142240000Y-62817758D01*
X142004577Y-62465423D01*
X141529909Y-62148260D01*
X141111333Y-62065000D01*
X140828667Y-62065000D01*
X140410091Y-62148260D01*
X139935423Y-62465423D01*
X139700000Y-62817758D01*
X139464577Y-62465423D01*
X138989909Y-62148260D01*
X138571333Y-62065000D01*
X138288667Y-62065000D01*
X137870091Y-62148260D01*
X137395423Y-62465423D01*
X137160000Y-62817758D01*
X136924577Y-62465423D01*
X136449909Y-62148260D01*
X136031333Y-62065000D01*
X135748667Y-62065000D01*
X135330091Y-62148260D01*
X134855423Y-62465423D01*
X134538260Y-62940091D01*
X134426887Y-63500000D01*
X127965951Y-63500000D01*
X127932485Y-63331756D01*
X127626373Y-62873627D01*
X127168244Y-62567515D01*
X126764251Y-62487156D01*
X126491437Y-62487156D01*
X126087444Y-62567515D01*
X125629315Y-62873627D01*
X125323203Y-63331756D01*
X125215711Y-63872156D01*
X113544289Y-63872156D01*
X113436797Y-63331756D01*
X113130685Y-62873627D01*
X112672556Y-62567515D01*
X112268563Y-62487156D01*
X111995749Y-62487156D01*
X111591756Y-62567515D01*
X111133627Y-62873627D01*
X110827515Y-63331756D01*
X110720023Y-63872156D01*
X107888381Y-63872156D01*
X109721438Y-61908168D01*
X110410345Y-61219261D01*
X115314972Y-61219261D01*
X115422464Y-61759661D01*
X115728576Y-62217790D01*
X116186705Y-62523902D01*
X116590698Y-62604261D01*
X116863512Y-62604261D01*
X117267505Y-62523902D01*
X117725634Y-62217790D01*
X118031746Y-61759661D01*
X118139238Y-61219261D01*
X120620762Y-61219261D01*
X120728254Y-61759661D01*
X121034366Y-62217790D01*
X121492495Y-62523902D01*
X121896488Y-62604261D01*
X122169302Y-62604261D01*
X122573295Y-62523902D01*
X123031424Y-62217790D01*
X123337536Y-61759661D01*
X123445028Y-61219261D01*
X123337536Y-60678861D01*
X123031424Y-60220732D01*
X122573295Y-59914620D01*
X122169302Y-59834261D01*
X121896488Y-59834261D01*
X121492495Y-59914620D01*
X121034366Y-60220732D01*
X120728254Y-60678861D01*
X120620762Y-61219261D01*
X118139238Y-61219261D01*
X118031746Y-60678861D01*
X117725634Y-60220732D01*
X117267505Y-59914620D01*
X116863512Y-59834261D01*
X116590698Y-59834261D01*
X116186705Y-59914620D01*
X115728576Y-60220732D01*
X115422464Y-60678861D01*
X115314972Y-61219261D01*
X110410345Y-61219261D01*
X113209606Y-58420000D01*
X128076887Y-58420000D01*
X128188260Y-58979909D01*
X128505423Y-59454577D01*
X128980091Y-59771740D01*
X129398667Y-59855000D01*
X129681333Y-59855000D01*
X130099909Y-59771740D01*
X130574577Y-59454577D01*
X130891740Y-58979909D01*
X131003113Y-58420000D01*
X130946336Y-58134561D01*
X138265000Y-58134561D01*
X138265000Y-58705439D01*
X138483466Y-59232862D01*
X138887138Y-59636534D01*
X139414561Y-59855000D01*
X139985439Y-59855000D01*
X140512862Y-59636534D01*
X140916534Y-59232862D01*
X141135000Y-58705439D01*
X141135000Y-58420000D01*
X141995908Y-58420000D01*
X142111161Y-58999418D01*
X142439375Y-59490625D01*
X142930582Y-59818839D01*
X143363744Y-59905000D01*
X143656256Y-59905000D01*
X144089418Y-59818839D01*
X144580625Y-59490625D01*
X144780000Y-59192239D01*
X144979375Y-59490625D01*
X145470582Y-59818839D01*
X145903744Y-59905000D01*
X146196256Y-59905000D01*
X146629418Y-59818839D01*
X147120625Y-59490625D01*
X147320000Y-59192239D01*
X147519375Y-59490625D01*
X148010582Y-59818839D01*
X148443744Y-59905000D01*
X148736256Y-59905000D01*
X149169418Y-59818839D01*
X149660625Y-59490625D01*
X149675096Y-59468967D01*
X149741673Y-59629698D01*
X149920301Y-59808327D01*
X150153690Y-59905000D01*
X150844250Y-59905000D01*
X151003000Y-59746250D01*
X151003000Y-58547000D01*
X151257000Y-58547000D01*
X151257000Y-59746250D01*
X151415750Y-59905000D01*
X152106310Y-59905000D01*
X152339699Y-59808327D01*
X152458025Y-59690000D01*
X153476887Y-59690000D01*
X153588260Y-60249909D01*
X153905423Y-60724577D01*
X154380091Y-61041740D01*
X154798667Y-61125000D01*
X155081333Y-61125000D01*
X155499909Y-61041740D01*
X155974577Y-60724577D01*
X156291740Y-60249909D01*
X156403113Y-59690000D01*
X157286887Y-59690000D01*
X157398260Y-60249909D01*
X157715423Y-60724577D01*
X158190091Y-61041740D01*
X158608667Y-61125000D01*
X158891333Y-61125000D01*
X159309909Y-61041740D01*
X159784577Y-60724577D01*
X160101740Y-60249909D01*
X160213113Y-59690000D01*
X161096887Y-59690000D01*
X161208260Y-60249909D01*
X161525423Y-60724577D01*
X162000091Y-61041740D01*
X162418667Y-61125000D01*
X162701333Y-61125000D01*
X163119909Y-61041740D01*
X163594577Y-60724577D01*
X163911740Y-60249909D01*
X164023113Y-59690000D01*
X164906887Y-59690000D01*
X165018260Y-60249909D01*
X165335423Y-60724577D01*
X165810091Y-61041740D01*
X166228667Y-61125000D01*
X166511333Y-61125000D01*
X166929909Y-61041740D01*
X167404577Y-60724577D01*
X167721740Y-60249909D01*
X167833113Y-59690000D01*
X168716887Y-59690000D01*
X168828260Y-60249909D01*
X169145423Y-60724577D01*
X169620091Y-61041740D01*
X170038667Y-61125000D01*
X170321333Y-61125000D01*
X170739909Y-61041740D01*
X171214577Y-60724577D01*
X171531740Y-60249909D01*
X171643113Y-59690000D01*
X171531740Y-59130091D01*
X171214577Y-58655423D01*
X170739909Y-58338260D01*
X170321333Y-58255000D01*
X170038667Y-58255000D01*
X169620091Y-58338260D01*
X169145423Y-58655423D01*
X168828260Y-59130091D01*
X168716887Y-59690000D01*
X167833113Y-59690000D01*
X167721740Y-59130091D01*
X167404577Y-58655423D01*
X166929909Y-58338260D01*
X166511333Y-58255000D01*
X166228667Y-58255000D01*
X165810091Y-58338260D01*
X165335423Y-58655423D01*
X165018260Y-59130091D01*
X164906887Y-59690000D01*
X164023113Y-59690000D01*
X163911740Y-59130091D01*
X163594577Y-58655423D01*
X163119909Y-58338260D01*
X162701333Y-58255000D01*
X162418667Y-58255000D01*
X162000091Y-58338260D01*
X161525423Y-58655423D01*
X161208260Y-59130091D01*
X161096887Y-59690000D01*
X160213113Y-59690000D01*
X160101740Y-59130091D01*
X159784577Y-58655423D01*
X159309909Y-58338260D01*
X158891333Y-58255000D01*
X158608667Y-58255000D01*
X158190091Y-58338260D01*
X157715423Y-58655423D01*
X157398260Y-59130091D01*
X157286887Y-59690000D01*
X156403113Y-59690000D01*
X156291740Y-59130091D01*
X155974577Y-58655423D01*
X155499909Y-58338260D01*
X155081333Y-58255000D01*
X154798667Y-58255000D01*
X154380091Y-58338260D01*
X153905423Y-58655423D01*
X153588260Y-59130091D01*
X153476887Y-59690000D01*
X152458025Y-59690000D01*
X152518327Y-59629698D01*
X152615000Y-59396309D01*
X152615000Y-58705750D01*
X152456250Y-58547000D01*
X151257000Y-58547000D01*
X151003000Y-58547000D01*
X150983000Y-58547000D01*
X150983000Y-58293000D01*
X151003000Y-58293000D01*
X151003000Y-57093750D01*
X151257000Y-57093750D01*
X151257000Y-58293000D01*
X152456250Y-58293000D01*
X152615000Y-58134250D01*
X152615000Y-57443691D01*
X152518327Y-57210302D01*
X152339699Y-57031673D01*
X152106310Y-56935000D01*
X151415750Y-56935000D01*
X151257000Y-57093750D01*
X151003000Y-57093750D01*
X150844250Y-56935000D01*
X150153690Y-56935000D01*
X149920301Y-57031673D01*
X149741673Y-57210302D01*
X149675096Y-57371033D01*
X149660625Y-57349375D01*
X149169418Y-57021161D01*
X148736256Y-56935000D01*
X148443744Y-56935000D01*
X148010582Y-57021161D01*
X147519375Y-57349375D01*
X147320000Y-57647761D01*
X147120625Y-57349375D01*
X146629418Y-57021161D01*
X146196256Y-56935000D01*
X145903744Y-56935000D01*
X145470582Y-57021161D01*
X144979375Y-57349375D01*
X144780000Y-57647761D01*
X144580625Y-57349375D01*
X144089418Y-57021161D01*
X143656256Y-56935000D01*
X143363744Y-56935000D01*
X142930582Y-57021161D01*
X142439375Y-57349375D01*
X142111161Y-57840582D01*
X141995908Y-58420000D01*
X141135000Y-58420000D01*
X141135000Y-58134561D01*
X140916534Y-57607138D01*
X140512862Y-57203466D01*
X139985439Y-56985000D01*
X139414561Y-56985000D01*
X138887138Y-57203466D01*
X138483466Y-57607138D01*
X138265000Y-58134561D01*
X130946336Y-58134561D01*
X130891740Y-57860091D01*
X130574577Y-57385423D01*
X130099909Y-57068260D01*
X129681333Y-56985000D01*
X129398667Y-56985000D01*
X128980091Y-57068260D01*
X128505423Y-57385423D01*
X128188260Y-57860091D01*
X128076887Y-58420000D01*
X113209606Y-58420000D01*
X115622606Y-56007000D01*
X124460000Y-56007000D01*
X124508601Y-55997333D01*
X124549803Y-55969803D01*
X124577333Y-55928601D01*
X124587000Y-55880000D01*
X124587000Y-54610000D01*
X128076887Y-54610000D01*
X128188260Y-55169909D01*
X128505423Y-55644577D01*
X128980091Y-55961740D01*
X129398667Y-56045000D01*
X129681333Y-56045000D01*
X130099909Y-55961740D01*
X130574577Y-55644577D01*
X130891740Y-55169909D01*
X131003113Y-54610000D01*
X130962163Y-54404126D01*
X135363000Y-54404126D01*
X135363000Y-54815874D01*
X135520569Y-55196280D01*
X135811720Y-55487431D01*
X136192126Y-55645000D01*
X136603874Y-55645000D01*
X136984280Y-55487431D01*
X137101711Y-55370000D01*
X138461570Y-55370000D01*
X138483466Y-55422862D01*
X138887138Y-55826534D01*
X139414561Y-56045000D01*
X139985439Y-56045000D01*
X140512862Y-55826534D01*
X140916534Y-55422862D01*
X141135000Y-54895439D01*
X141135000Y-54324561D01*
X140916534Y-53797138D01*
X140512862Y-53393466D01*
X139985439Y-53175000D01*
X139414561Y-53175000D01*
X138887138Y-53393466D01*
X138483466Y-53797138D01*
X138461570Y-53850000D01*
X137101711Y-53850000D01*
X136984280Y-53732569D01*
X136603874Y-53575000D01*
X136192126Y-53575000D01*
X135811720Y-53732569D01*
X135520569Y-54023720D01*
X135363000Y-54404126D01*
X130962163Y-54404126D01*
X130891740Y-54050091D01*
X130574577Y-53575423D01*
X130099909Y-53258260D01*
X129681333Y-53175000D01*
X129398667Y-53175000D01*
X128980091Y-53258260D01*
X128505423Y-53575423D01*
X128188260Y-54050091D01*
X128076887Y-54610000D01*
X124587000Y-54610000D01*
X124587000Y-50800000D01*
X144535908Y-50800000D01*
X144651161Y-51379418D01*
X144979375Y-51870625D01*
X145277761Y-52070000D01*
X144979375Y-52269375D01*
X144651161Y-52760582D01*
X144535908Y-53340000D01*
X144651161Y-53919418D01*
X144979375Y-54410625D01*
X145470582Y-54738839D01*
X145903744Y-54825000D01*
X146196256Y-54825000D01*
X146629418Y-54738839D01*
X147120625Y-54410625D01*
X147448839Y-53919418D01*
X147564092Y-53340000D01*
X147448839Y-52760582D01*
X147120625Y-52269375D01*
X146822239Y-52070000D01*
X147120625Y-51870625D01*
X147448839Y-51379418D01*
X147507252Y-51085750D01*
X149645000Y-51085750D01*
X149645000Y-51776310D01*
X149741673Y-52009699D01*
X149920302Y-52188327D01*
X150153691Y-52285000D01*
X150844250Y-52285000D01*
X151003000Y-52126250D01*
X151003000Y-50927000D01*
X151257000Y-50927000D01*
X151257000Y-52126250D01*
X151415750Y-52285000D01*
X152106309Y-52285000D01*
X152339698Y-52188327D01*
X152518327Y-52009699D01*
X152615000Y-51776310D01*
X152615000Y-51085750D01*
X152456250Y-50927000D01*
X151257000Y-50927000D01*
X151003000Y-50927000D01*
X149803750Y-50927000D01*
X149645000Y-51085750D01*
X147507252Y-51085750D01*
X147564092Y-50800000D01*
X147448839Y-50220582D01*
X147120625Y-49729375D01*
X147098967Y-49714904D01*
X147259698Y-49648327D01*
X147438327Y-49469699D01*
X147535000Y-49236310D01*
X147535000Y-48545750D01*
X147376250Y-48387000D01*
X146177000Y-48387000D01*
X146177000Y-48407000D01*
X145923000Y-48407000D01*
X145923000Y-48387000D01*
X144723750Y-48387000D01*
X144565000Y-48545750D01*
X144565000Y-49236310D01*
X144661673Y-49469699D01*
X144840302Y-49648327D01*
X145001033Y-49714904D01*
X144979375Y-49729375D01*
X144651161Y-50220582D01*
X144535908Y-50800000D01*
X124587000Y-50800000D01*
X124587000Y-47410000D01*
X128042560Y-47410000D01*
X128042560Y-49110000D01*
X128091843Y-49357765D01*
X128232191Y-49567809D01*
X128442235Y-49708157D01*
X128690000Y-49757440D01*
X130390000Y-49757440D01*
X130637765Y-49708157D01*
X130847809Y-49567809D01*
X130988157Y-49357765D01*
X131008739Y-49254292D01*
X131313076Y-49531645D01*
X131723110Y-49701476D01*
X131953000Y-49580155D01*
X131953000Y-48387000D01*
X131933000Y-48387000D01*
X131933000Y-48133000D01*
X131953000Y-48133000D01*
X131953000Y-46939845D01*
X132207000Y-46939845D01*
X132207000Y-48133000D01*
X132227000Y-48133000D01*
X132227000Y-48387000D01*
X132207000Y-48387000D01*
X132207000Y-49580155D01*
X132436890Y-49701476D01*
X132846924Y-49531645D01*
X133275183Y-49141358D01*
X133336157Y-49011522D01*
X133549375Y-49330625D01*
X134040582Y-49658839D01*
X134473744Y-49745000D01*
X134766256Y-49745000D01*
X135199418Y-49658839D01*
X135690625Y-49330625D01*
X135890000Y-49032239D01*
X136089375Y-49330625D01*
X136580582Y-49658839D01*
X137013744Y-49745000D01*
X137306256Y-49745000D01*
X137739418Y-49658839D01*
X138230625Y-49330625D01*
X138558839Y-48839418D01*
X138674092Y-48260000D01*
X149615908Y-48260000D01*
X149731161Y-48839418D01*
X150059375Y-49330625D01*
X150081033Y-49345096D01*
X149920302Y-49411673D01*
X149741673Y-49590301D01*
X149645000Y-49823690D01*
X149645000Y-50514250D01*
X149803750Y-50673000D01*
X151003000Y-50673000D01*
X151003000Y-50653000D01*
X151257000Y-50653000D01*
X151257000Y-50673000D01*
X152456250Y-50673000D01*
X152591505Y-50537745D01*
X154111861Y-50537745D01*
X154185995Y-50783864D01*
X154723223Y-50976965D01*
X155293454Y-50949778D01*
X155694005Y-50783864D01*
X155768139Y-50537745D01*
X157921861Y-50537745D01*
X157995995Y-50783864D01*
X158533223Y-50976965D01*
X159103454Y-50949778D01*
X159504005Y-50783864D01*
X159578139Y-50537745D01*
X161731861Y-50537745D01*
X161805995Y-50783864D01*
X162343223Y-50976965D01*
X162913454Y-50949778D01*
X163314005Y-50783864D01*
X163388139Y-50537745D01*
X165541861Y-50537745D01*
X165615995Y-50783864D01*
X166153223Y-50976965D01*
X166723454Y-50949778D01*
X167124005Y-50783864D01*
X167198139Y-50537745D01*
X169351861Y-50537745D01*
X169425995Y-50783864D01*
X169963223Y-50976965D01*
X170533454Y-50949778D01*
X170934005Y-50783864D01*
X171008139Y-50537745D01*
X170925282Y-50454887D01*
X173525000Y-50454887D01*
X173525000Y-51145113D01*
X173789138Y-51782799D01*
X174277201Y-52270862D01*
X174914887Y-52535000D01*
X175605113Y-52535000D01*
X176242799Y-52270862D01*
X176730862Y-51782799D01*
X176995000Y-51145113D01*
X176995000Y-50454887D01*
X176730862Y-49817201D01*
X176242799Y-49329138D01*
X175605113Y-49065000D01*
X174914887Y-49065000D01*
X174277201Y-49329138D01*
X173789138Y-49817201D01*
X173525000Y-50454887D01*
X170925282Y-50454887D01*
X170180000Y-49709605D01*
X169351861Y-50537745D01*
X167198139Y-50537745D01*
X166370000Y-49709605D01*
X165541861Y-50537745D01*
X163388139Y-50537745D01*
X162560000Y-49709605D01*
X161731861Y-50537745D01*
X159578139Y-50537745D01*
X158750000Y-49709605D01*
X157921861Y-50537745D01*
X155768139Y-50537745D01*
X154940000Y-49709605D01*
X154111861Y-50537745D01*
X152591505Y-50537745D01*
X152615000Y-50514250D01*
X152615000Y-49823690D01*
X152518327Y-49590301D01*
X152339698Y-49411673D01*
X152178967Y-49345096D01*
X152200625Y-49330625D01*
X152212252Y-49313223D01*
X153493035Y-49313223D01*
X153520222Y-49883454D01*
X153686136Y-50284005D01*
X153932255Y-50358139D01*
X154760395Y-49530000D01*
X155119605Y-49530000D01*
X155947745Y-50358139D01*
X156193864Y-50284005D01*
X156386965Y-49746777D01*
X156366295Y-49313223D01*
X157303035Y-49313223D01*
X157330222Y-49883454D01*
X157496136Y-50284005D01*
X157742255Y-50358139D01*
X158570395Y-49530000D01*
X158929605Y-49530000D01*
X159757745Y-50358139D01*
X160003864Y-50284005D01*
X160196965Y-49746777D01*
X160176295Y-49313223D01*
X161113035Y-49313223D01*
X161140222Y-49883454D01*
X161306136Y-50284005D01*
X161552255Y-50358139D01*
X162380395Y-49530000D01*
X162739605Y-49530000D01*
X163567745Y-50358139D01*
X163813864Y-50284005D01*
X164006965Y-49746777D01*
X163986295Y-49313223D01*
X164923035Y-49313223D01*
X164950222Y-49883454D01*
X165116136Y-50284005D01*
X165362255Y-50358139D01*
X166190395Y-49530000D01*
X166549605Y-49530000D01*
X167377745Y-50358139D01*
X167623864Y-50284005D01*
X167816965Y-49746777D01*
X167796295Y-49313223D01*
X168733035Y-49313223D01*
X168760222Y-49883454D01*
X168926136Y-50284005D01*
X169172255Y-50358139D01*
X170000395Y-49530000D01*
X170359605Y-49530000D01*
X171187745Y-50358139D01*
X171433864Y-50284005D01*
X171626965Y-49746777D01*
X171599778Y-49176546D01*
X171433864Y-48775995D01*
X171187745Y-48701861D01*
X170359605Y-49530000D01*
X170000395Y-49530000D01*
X169172255Y-48701861D01*
X168926136Y-48775995D01*
X168733035Y-49313223D01*
X167796295Y-49313223D01*
X167789778Y-49176546D01*
X167623864Y-48775995D01*
X167377745Y-48701861D01*
X166549605Y-49530000D01*
X166190395Y-49530000D01*
X165362255Y-48701861D01*
X165116136Y-48775995D01*
X164923035Y-49313223D01*
X163986295Y-49313223D01*
X163979778Y-49176546D01*
X163813864Y-48775995D01*
X163567745Y-48701861D01*
X162739605Y-49530000D01*
X162380395Y-49530000D01*
X161552255Y-48701861D01*
X161306136Y-48775995D01*
X161113035Y-49313223D01*
X160176295Y-49313223D01*
X160169778Y-49176546D01*
X160003864Y-48775995D01*
X159757745Y-48701861D01*
X158929605Y-49530000D01*
X158570395Y-49530000D01*
X157742255Y-48701861D01*
X157496136Y-48775995D01*
X157303035Y-49313223D01*
X156366295Y-49313223D01*
X156359778Y-49176546D01*
X156193864Y-48775995D01*
X155947745Y-48701861D01*
X155119605Y-49530000D01*
X154760395Y-49530000D01*
X153932255Y-48701861D01*
X153686136Y-48775995D01*
X153493035Y-49313223D01*
X152212252Y-49313223D01*
X152528839Y-48839418D01*
X152591926Y-48522255D01*
X154111861Y-48522255D01*
X154940000Y-49350395D01*
X155768139Y-48522255D01*
X157921861Y-48522255D01*
X158750000Y-49350395D01*
X159578139Y-48522255D01*
X161731861Y-48522255D01*
X162560000Y-49350395D01*
X163388139Y-48522255D01*
X165541861Y-48522255D01*
X166370000Y-49350395D01*
X167198139Y-48522255D01*
X169351861Y-48522255D01*
X170180000Y-49350395D01*
X171008139Y-48522255D01*
X170934005Y-48276136D01*
X170396777Y-48083035D01*
X169826546Y-48110222D01*
X169425995Y-48276136D01*
X169351861Y-48522255D01*
X167198139Y-48522255D01*
X167124005Y-48276136D01*
X166586777Y-48083035D01*
X166016546Y-48110222D01*
X165615995Y-48276136D01*
X165541861Y-48522255D01*
X163388139Y-48522255D01*
X163314005Y-48276136D01*
X162776777Y-48083035D01*
X162206546Y-48110222D01*
X161805995Y-48276136D01*
X161731861Y-48522255D01*
X159578139Y-48522255D01*
X159504005Y-48276136D01*
X158966777Y-48083035D01*
X158396546Y-48110222D01*
X157995995Y-48276136D01*
X157921861Y-48522255D01*
X155768139Y-48522255D01*
X155694005Y-48276136D01*
X155156777Y-48083035D01*
X154586546Y-48110222D01*
X154185995Y-48276136D01*
X154111861Y-48522255D01*
X152591926Y-48522255D01*
X152644092Y-48260000D01*
X152528839Y-47680582D01*
X152200625Y-47189375D01*
X151709418Y-46861161D01*
X151276256Y-46775000D01*
X150983744Y-46775000D01*
X150550582Y-46861161D01*
X150059375Y-47189375D01*
X149731161Y-47680582D01*
X149615908Y-48260000D01*
X138674092Y-48260000D01*
X138558839Y-47680582D01*
X138293645Y-47283690D01*
X144565000Y-47283690D01*
X144565000Y-47974250D01*
X144723750Y-48133000D01*
X145923000Y-48133000D01*
X145923000Y-46933750D01*
X146177000Y-46933750D01*
X146177000Y-48133000D01*
X147376250Y-48133000D01*
X147535000Y-47974250D01*
X147535000Y-47283690D01*
X147438327Y-47050301D01*
X147259698Y-46871673D01*
X147026309Y-46775000D01*
X146335750Y-46775000D01*
X146177000Y-46933750D01*
X145923000Y-46933750D01*
X145764250Y-46775000D01*
X145073691Y-46775000D01*
X144840302Y-46871673D01*
X144661673Y-47050301D01*
X144565000Y-47283690D01*
X138293645Y-47283690D01*
X138230625Y-47189375D01*
X137739418Y-46861161D01*
X137306256Y-46775000D01*
X137013744Y-46775000D01*
X136580582Y-46861161D01*
X136089375Y-47189375D01*
X135890000Y-47487761D01*
X135690625Y-47189375D01*
X135199418Y-46861161D01*
X134766256Y-46775000D01*
X134473744Y-46775000D01*
X134040582Y-46861161D01*
X133549375Y-47189375D01*
X133336157Y-47508478D01*
X133275183Y-47378642D01*
X132846924Y-46988355D01*
X132436890Y-46818524D01*
X132207000Y-46939845D01*
X131953000Y-46939845D01*
X131723110Y-46818524D01*
X131313076Y-46988355D01*
X131008739Y-47265708D01*
X130988157Y-47162235D01*
X130847809Y-46952191D01*
X130637765Y-46811843D01*
X130390000Y-46762560D01*
X128690000Y-46762560D01*
X128442235Y-46811843D01*
X128232191Y-46952191D01*
X128091843Y-47162235D01*
X128042560Y-47410000D01*
X124587000Y-47410000D01*
X124587000Y-45847000D01*
X177673000Y-45847000D01*
X177673000Y-116713000D01*
X177673000Y-116713000D01*
G37*
X177673000Y-116713000D02*
X134262447Y-116713000D01*
X117157927Y-99608480D01*
X126880444Y-99608480D01*
X126995697Y-100187898D01*
X127323911Y-100679105D01*
X127622297Y-100878480D01*
X127323911Y-101077855D01*
X126995697Y-101569062D01*
X126880444Y-102148480D01*
X126995697Y-102727898D01*
X127323911Y-103219105D01*
X127622297Y-103418480D01*
X127323911Y-103617855D01*
X126995697Y-104109062D01*
X126880444Y-104688480D01*
X126995697Y-105267898D01*
X127323911Y-105759105D01*
X127622297Y-105958480D01*
X127323911Y-106157855D01*
X126995697Y-106649062D01*
X126880444Y-107228480D01*
X126995697Y-107807898D01*
X127323911Y-108299105D01*
X127815118Y-108627319D01*
X128248280Y-108713480D01*
X128540792Y-108713480D01*
X128973954Y-108627319D01*
X129465161Y-108299105D01*
X129507176Y-108236225D01*
X131376397Y-108236225D01*
X131450531Y-108482344D01*
X131987759Y-108675445D01*
X132557990Y-108648258D01*
X132958541Y-108482344D01*
X133032675Y-108236225D01*
X132204536Y-107408085D01*
X131376397Y-108236225D01*
X129507176Y-108236225D01*
X129793375Y-107807898D01*
X129908628Y-107228480D01*
X129865509Y-107011703D01*
X130757571Y-107011703D01*
X130784758Y-107581934D01*
X130950672Y-107982485D01*
X131196791Y-108056619D01*
X132024931Y-107228480D01*
X132384141Y-107228480D01*
X133212281Y-108056619D01*
X133458400Y-107982485D01*
X133651501Y-107445257D01*
X133641166Y-107228480D01*
X140901423Y-107228480D01*
X141012796Y-107788389D01*
X141329959Y-108263057D01*
X141804627Y-108580220D01*
X142223203Y-108663480D01*
X142505869Y-108663480D01*
X142924445Y-108580220D01*
X143399113Y-108263057D01*
X143716276Y-107788389D01*
X143827649Y-107228480D01*
X143716276Y-106668571D01*
X143399113Y-106193903D01*
X143046778Y-105958480D01*
X144711423Y-105958480D01*
X144822796Y-106518389D01*
X145139959Y-106993057D01*
X145492294Y-107228480D01*
X145139959Y-107463903D01*
X144822796Y-107938571D01*
X144711423Y-108498480D01*
X144822796Y-109058389D01*
X145139959Y-109533057D01*
X145492294Y-109768480D01*
X145139959Y-110003903D01*
X144822796Y-110478571D01*
X144711423Y-111038480D01*
X144822796Y-111598389D01*
X145139959Y-112073057D01*
X145492294Y-112308480D01*
X145139959Y-112543903D01*
X144822796Y-113018571D01*
X144711423Y-113578480D01*
X144822796Y-114138389D01*
X145139959Y-114613057D01*
X145614627Y-114930220D01*
X146033203Y-115013480D01*
X146315869Y-115013480D01*
X146734445Y-114930220D01*
X147209113Y-114613057D01*
X147526276Y-114138389D01*
X147568220Y-113927519D01*
X152402632Y-113927519D01*
X152563495Y-114315903D01*
X152939402Y-114730869D01*
X153445495Y-114970394D01*
X153667536Y-114849109D01*
X153667536Y-113705480D01*
X153921536Y-113705480D01*
X153921536Y-114849109D01*
X154143577Y-114970394D01*
X154649670Y-114730869D01*
X155025577Y-114315903D01*
X155186440Y-113927519D01*
X155064451Y-113705480D01*
X153921536Y-113705480D01*
X153667536Y-113705480D01*
X152524621Y-113705480D01*
X152402632Y-113927519D01*
X147568220Y-113927519D01*
X147637649Y-113578480D01*
X147526276Y-113018571D01*
X147209113Y-112543903D01*
X146856778Y-112308480D01*
X147209113Y-112073057D01*
X147526276Y-111598389D01*
X147637649Y-111038480D01*
X152331423Y-111038480D01*
X152442796Y-111598389D01*
X152759959Y-112073057D01*
X153143644Y-112329427D01*
X152939402Y-112426091D01*
X152563495Y-112841057D01*
X152402632Y-113229441D01*
X152524621Y-113451480D01*
X153667536Y-113451480D01*
X153667536Y-113431480D01*
X153921536Y-113431480D01*
X153921536Y-113451480D01*
X155064451Y-113451480D01*
X155186440Y-113229441D01*
X155025577Y-112841057D01*
X154649670Y-112426091D01*
X154445428Y-112329427D01*
X154829113Y-112073057D01*
X155146276Y-111598389D01*
X155200809Y-111324230D01*
X157389536Y-111324230D01*
X157389536Y-112014789D01*
X157486209Y-112248178D01*
X157664837Y-112426807D01*
X157898226Y-112523480D01*
X158588786Y-112523480D01*
X158747536Y-112364730D01*
X158747536Y-111165480D01*
X157548286Y-111165480D01*
X157389536Y-111324230D01*
X155200809Y-111324230D01*
X155257649Y-111038480D01*
X155146276Y-110478571D01*
X154868047Y-110062171D01*
X157389536Y-110062171D01*
X157389536Y-110752730D01*
X157548286Y-110911480D01*
X158747536Y-110911480D01*
X158747536Y-109712230D01*
X159001536Y-109712230D01*
X159001536Y-110911480D01*
X159021536Y-110911480D01*
X159021536Y-111165480D01*
X159001536Y-111165480D01*
X159001536Y-112364730D01*
X159160286Y-112523480D01*
X159850846Y-112523480D01*
X160084235Y-112426807D01*
X160262863Y-112248178D01*
X160329440Y-112087447D01*
X160343911Y-112109105D01*
X160835118Y-112437319D01*
X161268280Y-112523480D01*
X161560792Y-112523480D01*
X161993954Y-112437319D01*
X162485161Y-112109105D01*
X162684536Y-111810719D01*
X162883911Y-112109105D01*
X163375118Y-112437319D01*
X163808280Y-112523480D01*
X164100792Y-112523480D01*
X164533954Y-112437319D01*
X165025161Y-112109105D01*
X165353375Y-111617898D01*
X165393756Y-111414887D01*
X168445000Y-111414887D01*
X168445000Y-112105113D01*
X168709138Y-112742799D01*
X169197201Y-113230862D01*
X169834887Y-113495000D01*
X170525113Y-113495000D01*
X171162799Y-113230862D01*
X171650862Y-112742799D01*
X171915000Y-112105113D01*
X171915000Y-111414887D01*
X171650862Y-110777201D01*
X171162799Y-110289138D01*
X170525113Y-110025000D01*
X169834887Y-110025000D01*
X169197201Y-110289138D01*
X168709138Y-110777201D01*
X168445000Y-111414887D01*
X165393756Y-111414887D01*
X165468628Y-111038480D01*
X165353375Y-110459062D01*
X165025161Y-109967855D01*
X164533954Y-109639641D01*
X164100792Y-109553480D01*
X163808280Y-109553480D01*
X163375118Y-109639641D01*
X162883911Y-109967855D01*
X162684536Y-110266241D01*
X162485161Y-109967855D01*
X161993954Y-109639641D01*
X161560792Y-109553480D01*
X161268280Y-109553480D01*
X160835118Y-109639641D01*
X160343911Y-109967855D01*
X160329440Y-109989513D01*
X160262863Y-109828782D01*
X160084235Y-109650153D01*
X159850846Y-109553480D01*
X159160286Y-109553480D01*
X159001536Y-109712230D01*
X158747536Y-109712230D01*
X158588786Y-109553480D01*
X157898226Y-109553480D01*
X157664837Y-109650153D01*
X157486209Y-109828782D01*
X157389536Y-110062171D01*
X154868047Y-110062171D01*
X154829113Y-110003903D01*
X154445428Y-109747533D01*
X154649670Y-109650869D01*
X155025577Y-109235903D01*
X155186440Y-108847519D01*
X155064451Y-108625480D01*
X153921536Y-108625480D01*
X153921536Y-108645480D01*
X153667536Y-108645480D01*
X153667536Y-108625480D01*
X152524621Y-108625480D01*
X152402632Y-108847519D01*
X152563495Y-109235903D01*
X152939402Y-109650869D01*
X153143644Y-109747533D01*
X152759959Y-110003903D01*
X152442796Y-110478571D01*
X152331423Y-111038480D01*
X147637649Y-111038480D01*
X147526276Y-110478571D01*
X147209113Y-110003903D01*
X146856778Y-109768480D01*
X147209113Y-109533057D01*
X147526276Y-109058389D01*
X147637649Y-108498480D01*
X147526276Y-107938571D01*
X147209113Y-107463903D01*
X146856778Y-107228480D01*
X147209113Y-106993057D01*
X147526276Y-106518389D01*
X147637649Y-105958480D01*
X147526276Y-105398571D01*
X147209113Y-104923903D01*
X146825428Y-104667533D01*
X147029670Y-104570869D01*
X147405577Y-104155903D01*
X147566440Y-103767519D01*
X147444451Y-103545480D01*
X146301536Y-103545480D01*
X146301536Y-103565480D01*
X146047536Y-103565480D01*
X146047536Y-103545480D01*
X144904621Y-103545480D01*
X144782632Y-103767519D01*
X144943495Y-104155903D01*
X145319402Y-104570869D01*
X145523644Y-104667533D01*
X145139959Y-104923903D01*
X144822796Y-105398571D01*
X144711423Y-105958480D01*
X143046778Y-105958480D01*
X142924445Y-105876740D01*
X142505869Y-105793480D01*
X142223203Y-105793480D01*
X141804627Y-105876740D01*
X141329959Y-106193903D01*
X141012796Y-106668571D01*
X140901423Y-107228480D01*
X133641166Y-107228480D01*
X133624314Y-106875026D01*
X133458400Y-106474475D01*
X133212281Y-106400341D01*
X132384141Y-107228480D01*
X132024931Y-107228480D01*
X131196791Y-106400341D01*
X130950672Y-106474475D01*
X130757571Y-107011703D01*
X129865509Y-107011703D01*
X129793375Y-106649062D01*
X129507177Y-106220735D01*
X131376397Y-106220735D01*
X132204536Y-107048875D01*
X133032675Y-106220735D01*
X132958541Y-105974616D01*
X132421313Y-105781515D01*
X131851082Y-105808702D01*
X131450531Y-105974616D01*
X131376397Y-106220735D01*
X129507177Y-106220735D01*
X129465161Y-106157855D01*
X129166775Y-105958480D01*
X129465161Y-105759105D01*
X129793375Y-105267898D01*
X129908628Y-104688480D01*
X129856463Y-104426225D01*
X131376397Y-104426225D01*
X131450531Y-104672344D01*
X131987759Y-104865445D01*
X132557990Y-104838258D01*
X132958541Y-104672344D01*
X133032675Y-104426225D01*
X132204536Y-103598085D01*
X131376397Y-104426225D01*
X129856463Y-104426225D01*
X129793375Y-104109062D01*
X129465161Y-103617855D01*
X129166775Y-103418480D01*
X129465161Y-103219105D01*
X129476788Y-103201703D01*
X130757571Y-103201703D01*
X130784758Y-103771934D01*
X130950672Y-104172485D01*
X131196791Y-104246619D01*
X132024931Y-103418480D01*
X132384141Y-103418480D01*
X133212281Y-104246619D01*
X133458400Y-104172485D01*
X133651501Y-103635257D01*
X133641166Y-103418480D01*
X140901423Y-103418480D01*
X141012796Y-103978389D01*
X141329959Y-104453057D01*
X141804627Y-104770220D01*
X142223203Y-104853480D01*
X142505869Y-104853480D01*
X142924445Y-104770220D01*
X143399113Y-104453057D01*
X143716276Y-103978389D01*
X143827649Y-103418480D01*
X143716276Y-102858571D01*
X143399113Y-102383903D01*
X142924445Y-102066740D01*
X142505869Y-101983480D01*
X142223203Y-101983480D01*
X141804627Y-102066740D01*
X141329959Y-102383903D01*
X141012796Y-102858571D01*
X140901423Y-103418480D01*
X133641166Y-103418480D01*
X133624314Y-103065026D01*
X133458400Y-102664475D01*
X133212281Y-102590341D01*
X132384141Y-103418480D01*
X132024931Y-103418480D01*
X131196791Y-102590341D01*
X130950672Y-102664475D01*
X130757571Y-103201703D01*
X129476788Y-103201703D01*
X129793375Y-102727898D01*
X129856462Y-102410735D01*
X131376397Y-102410735D01*
X132204536Y-103238875D01*
X133032675Y-102410735D01*
X132958541Y-102164616D01*
X132421313Y-101971515D01*
X131851082Y-101998702D01*
X131450531Y-102164616D01*
X131376397Y-102410735D01*
X129856462Y-102410735D01*
X129908628Y-102148480D01*
X129793375Y-101569062D01*
X129465161Y-101077855D01*
X129166775Y-100878480D01*
X129465161Y-100679105D01*
X129507176Y-100616225D01*
X131376397Y-100616225D01*
X131450531Y-100862344D01*
X131987759Y-101055445D01*
X132557990Y-101028258D01*
X132958541Y-100862344D01*
X133032675Y-100616225D01*
X132204536Y-99788085D01*
X131376397Y-100616225D01*
X129507176Y-100616225D01*
X129793375Y-100187898D01*
X129908628Y-99608480D01*
X129865509Y-99391703D01*
X130757571Y-99391703D01*
X130784758Y-99961934D01*
X130950672Y-100362485D01*
X131196791Y-100436619D01*
X132024931Y-99608480D01*
X132384141Y-99608480D01*
X133212281Y-100436619D01*
X133458400Y-100362485D01*
X133651501Y-99825257D01*
X133641166Y-99608480D01*
X140901423Y-99608480D01*
X141012796Y-100168389D01*
X141329959Y-100643057D01*
X141804627Y-100960220D01*
X142223203Y-101043480D01*
X142505869Y-101043480D01*
X142924445Y-100960220D01*
X143399113Y-100643057D01*
X143716276Y-100168389D01*
X143827649Y-99608480D01*
X143716276Y-99048571D01*
X143399113Y-98573903D01*
X142924445Y-98256740D01*
X142505869Y-98173480D01*
X142223203Y-98173480D01*
X141804627Y-98256740D01*
X141329959Y-98573903D01*
X141012796Y-99048571D01*
X140901423Y-99608480D01*
X133641166Y-99608480D01*
X133624314Y-99255026D01*
X133458400Y-98854475D01*
X133212281Y-98780341D01*
X132384141Y-99608480D01*
X132024931Y-99608480D01*
X131196791Y-98780341D01*
X130950672Y-98854475D01*
X130757571Y-99391703D01*
X129865509Y-99391703D01*
X129793375Y-99029062D01*
X129507177Y-98600735D01*
X131376397Y-98600735D01*
X132204536Y-99428875D01*
X133032675Y-98600735D01*
X132958541Y-98354616D01*
X132421313Y-98161515D01*
X131851082Y-98188702D01*
X131450531Y-98354616D01*
X131376397Y-98600735D01*
X129507177Y-98600735D01*
X129465161Y-98537855D01*
X129443503Y-98523384D01*
X129604234Y-98456807D01*
X129782863Y-98278179D01*
X129879536Y-98044790D01*
X129879536Y-97354230D01*
X129720786Y-97195480D01*
X128521536Y-97195480D01*
X128521536Y-97215480D01*
X128267536Y-97215480D01*
X128267536Y-97195480D01*
X127068286Y-97195480D01*
X126909536Y-97354230D01*
X126909536Y-98044790D01*
X127006209Y-98278179D01*
X127184838Y-98456807D01*
X127345569Y-98523384D01*
X127323911Y-98537855D01*
X126995697Y-99029062D01*
X126880444Y-99608480D01*
X117157927Y-99608480D01*
X113641617Y-96092170D01*
X126909536Y-96092170D01*
X126909536Y-96782730D01*
X127068286Y-96941480D01*
X128267536Y-96941480D01*
X128267536Y-95742230D01*
X128521536Y-95742230D01*
X128521536Y-96941480D01*
X129720786Y-96941480D01*
X129856041Y-96806225D01*
X131376397Y-96806225D01*
X131450531Y-97052344D01*
X131987759Y-97245445D01*
X132557990Y-97218258D01*
X132958541Y-97052344D01*
X133032675Y-96806225D01*
X132204536Y-95978085D01*
X131376397Y-96806225D01*
X129856041Y-96806225D01*
X129879536Y-96782730D01*
X129879536Y-96092170D01*
X129782863Y-95858781D01*
X129604234Y-95680153D01*
X129370845Y-95583480D01*
X128680286Y-95583480D01*
X128521536Y-95742230D01*
X128267536Y-95742230D01*
X128108786Y-95583480D01*
X127418227Y-95583480D01*
X127184838Y-95680153D01*
X127006209Y-95858781D01*
X126909536Y-96092170D01*
X113641617Y-96092170D01*
X113131150Y-95581703D01*
X130757571Y-95581703D01*
X130784758Y-96151934D01*
X130950672Y-96552485D01*
X131196791Y-96626619D01*
X132024931Y-95798480D01*
X132384141Y-95798480D01*
X133212281Y-96626619D01*
X133458400Y-96552485D01*
X133651501Y-96015257D01*
X133641166Y-95798480D01*
X140901423Y-95798480D01*
X141012796Y-96358389D01*
X141329959Y-96833057D01*
X141804627Y-97150220D01*
X142223203Y-97233480D01*
X142505869Y-97233480D01*
X142924445Y-97150220D01*
X143399113Y-96833057D01*
X143716276Y-96358389D01*
X143827649Y-95798480D01*
X143716276Y-95238571D01*
X143399113Y-94763903D01*
X142924445Y-94446740D01*
X142505869Y-94363480D01*
X142223203Y-94363480D01*
X141804627Y-94446740D01*
X141329959Y-94763903D01*
X141012796Y-95238571D01*
X140901423Y-95798480D01*
X133641166Y-95798480D01*
X133624314Y-95445026D01*
X133458400Y-95044475D01*
X133212281Y-94970341D01*
X132384141Y-95798480D01*
X132024931Y-95798480D01*
X131196791Y-94970341D01*
X130950672Y-95044475D01*
X130757571Y-95581703D01*
X113131150Y-95581703D01*
X112340182Y-94790735D01*
X131376397Y-94790735D01*
X132204536Y-95618875D01*
X133032675Y-94790735D01*
X132958541Y-94544616D01*
X132421313Y-94351515D01*
X131851082Y-94378702D01*
X131450531Y-94544616D01*
X131376397Y-94790735D01*
X112340182Y-94790735D01*
X110545672Y-92996225D01*
X131376397Y-92996225D01*
X131450531Y-93242344D01*
X131987759Y-93435445D01*
X132557990Y-93408258D01*
X132958541Y-93242344D01*
X133032675Y-92996225D01*
X132204536Y-92168085D01*
X131376397Y-92996225D01*
X110545672Y-92996225D01*
X107374334Y-89824887D01*
X117645000Y-89824887D01*
X117645000Y-90515113D01*
X117909138Y-91152799D01*
X118397201Y-91640862D01*
X119034887Y-91905000D01*
X119725113Y-91905000D01*
X120046920Y-91771703D01*
X130757571Y-91771703D01*
X130784758Y-92341934D01*
X130950672Y-92742485D01*
X131196791Y-92816619D01*
X132024931Y-91988480D01*
X132384141Y-91988480D01*
X133212281Y-92816619D01*
X133458400Y-92742485D01*
X133651501Y-92205257D01*
X133641166Y-91988480D01*
X140901423Y-91988480D01*
X141012796Y-92548389D01*
X141329959Y-93023057D01*
X141804627Y-93340220D01*
X142223203Y-93423480D01*
X142505869Y-93423480D01*
X142924445Y-93340220D01*
X143399113Y-93023057D01*
X143716276Y-92548389D01*
X143827649Y-91988480D01*
X143716276Y-91428571D01*
X143399113Y-90953903D01*
X142924445Y-90636740D01*
X142505869Y-90553480D01*
X142223203Y-90553480D01*
X141804627Y-90636740D01*
X141329959Y-90953903D01*
X141012796Y-91428571D01*
X140901423Y-91988480D01*
X133641166Y-91988480D01*
X133624314Y-91635026D01*
X133458400Y-91234475D01*
X133212281Y-91160341D01*
X132384141Y-91988480D01*
X132024931Y-91988480D01*
X131196791Y-91160341D01*
X130950672Y-91234475D01*
X130757571Y-91771703D01*
X120046920Y-91771703D01*
X120362799Y-91640862D01*
X120850862Y-91152799D01*
X120922133Y-90980735D01*
X131376397Y-90980735D01*
X132204536Y-91808875D01*
X133032675Y-90980735D01*
X132958541Y-90734616D01*
X132421313Y-90541515D01*
X131851082Y-90568702D01*
X131450531Y-90734616D01*
X131376397Y-90980735D01*
X120922133Y-90980735D01*
X121115000Y-90515113D01*
X121115000Y-89824887D01*
X120850862Y-89187201D01*
X120849886Y-89186225D01*
X131376397Y-89186225D01*
X131450531Y-89432344D01*
X131987759Y-89625445D01*
X132557990Y-89598258D01*
X132958541Y-89432344D01*
X133032675Y-89186225D01*
X132204536Y-88358085D01*
X131376397Y-89186225D01*
X120849886Y-89186225D01*
X120362799Y-88699138D01*
X119725113Y-88435000D01*
X119034887Y-88435000D01*
X118397201Y-88699138D01*
X117909138Y-89187201D01*
X117645000Y-89824887D01*
X107374334Y-89824887D01*
X106807000Y-89257554D01*
X106807000Y-87961703D01*
X130757571Y-87961703D01*
X130784758Y-88531934D01*
X130950672Y-88932485D01*
X131196791Y-89006619D01*
X132024931Y-88178480D01*
X132384141Y-88178480D01*
X133212281Y-89006619D01*
X133458400Y-88932485D01*
X133651501Y-88395257D01*
X133641166Y-88178480D01*
X140901423Y-88178480D01*
X141012796Y-88738389D01*
X141329959Y-89213057D01*
X141804627Y-89530220D01*
X142223203Y-89613480D01*
X142505869Y-89613480D01*
X142924445Y-89530220D01*
X143399113Y-89213057D01*
X143716276Y-88738389D01*
X143827649Y-88178480D01*
X143716276Y-87618571D01*
X143399113Y-87143903D01*
X142924445Y-86826740D01*
X142505869Y-86743480D01*
X142223203Y-86743480D01*
X141804627Y-86826740D01*
X141329959Y-87143903D01*
X141012796Y-87618571D01*
X140901423Y-88178480D01*
X133641166Y-88178480D01*
X133624314Y-87825026D01*
X133458400Y-87424475D01*
X133212281Y-87350341D01*
X132384141Y-88178480D01*
X132024931Y-88178480D01*
X131196791Y-87350341D01*
X130950672Y-87424475D01*
X130757571Y-87961703D01*
X106807000Y-87961703D01*
X106807000Y-87170735D01*
X131376397Y-87170735D01*
X132204536Y-87998875D01*
X133032675Y-87170735D01*
X132958541Y-86924616D01*
X132421313Y-86731515D01*
X131851082Y-86758702D01*
X131450531Y-86924616D01*
X131376397Y-87170735D01*
X106807000Y-87170735D01*
X106807000Y-85376225D01*
X131376397Y-85376225D01*
X131450531Y-85622344D01*
X131987759Y-85815445D01*
X132557990Y-85788258D01*
X132958541Y-85622344D01*
X133032675Y-85376225D01*
X132204536Y-84548085D01*
X131376397Y-85376225D01*
X106807000Y-85376225D01*
X106807000Y-84151703D01*
X130757571Y-84151703D01*
X130784758Y-84721934D01*
X130950672Y-85122485D01*
X131196791Y-85196619D01*
X132024931Y-84368480D01*
X132384141Y-84368480D01*
X133212281Y-85196619D01*
X133458400Y-85122485D01*
X133651501Y-84585257D01*
X133641166Y-84368480D01*
X140901423Y-84368480D01*
X141012796Y-84928389D01*
X141329959Y-85403057D01*
X141804627Y-85720220D01*
X142223203Y-85803480D01*
X142505869Y-85803480D01*
X142924445Y-85720220D01*
X143399113Y-85403057D01*
X143716276Y-84928389D01*
X143827649Y-84368480D01*
X143716276Y-83808571D01*
X143399113Y-83333903D01*
X143046778Y-83098480D01*
X144711423Y-83098480D01*
X144822796Y-83658389D01*
X145139959Y-84133057D01*
X145492294Y-84368480D01*
X145139959Y-84603903D01*
X144822796Y-85078571D01*
X144711423Y-85638480D01*
X144822796Y-86198389D01*
X145139959Y-86673057D01*
X145492294Y-86908480D01*
X145139959Y-87143903D01*
X144822796Y-87618571D01*
X144711423Y-88178480D01*
X144822796Y-88738389D01*
X145139959Y-89213057D01*
X145492294Y-89448480D01*
X145139959Y-89683903D01*
X144822796Y-90158571D01*
X144711423Y-90718480D01*
X144822796Y-91278389D01*
X145139959Y-91753057D01*
X145492294Y-91988480D01*
X145139959Y-92223903D01*
X144822796Y-92698571D01*
X144711423Y-93258480D01*
X144822796Y-93818389D01*
X145139959Y-94293057D01*
X145492294Y-94528480D01*
X145139959Y-94763903D01*
X144822796Y-95238571D01*
X144711423Y-95798480D01*
X144822796Y-96358389D01*
X145139959Y-96833057D01*
X145492294Y-97068480D01*
X145139959Y-97303903D01*
X144822796Y-97778571D01*
X144711423Y-98338480D01*
X144822796Y-98898389D01*
X145139959Y-99373057D01*
X145492294Y-99608480D01*
X145139959Y-99843903D01*
X144822796Y-100318571D01*
X144711423Y-100878480D01*
X144822796Y-101438389D01*
X145139959Y-101913057D01*
X145523644Y-102169427D01*
X145319402Y-102266091D01*
X144943495Y-102681057D01*
X144782632Y-103069441D01*
X144904621Y-103291480D01*
X146047536Y-103291480D01*
X146047536Y-103271480D01*
X146301536Y-103271480D01*
X146301536Y-103291480D01*
X147444451Y-103291480D01*
X147566440Y-103069441D01*
X147405577Y-102681057D01*
X147029670Y-102266091D01*
X146825428Y-102169427D01*
X147209113Y-101913057D01*
X147526276Y-101438389D01*
X147637649Y-100878480D01*
X147526276Y-100318571D01*
X147209113Y-99843903D01*
X146856778Y-99608480D01*
X147209113Y-99373057D01*
X147526276Y-98898389D01*
X147637649Y-98338480D01*
X147526276Y-97778571D01*
X147209113Y-97303903D01*
X146856778Y-97068480D01*
X147209113Y-96833057D01*
X147526276Y-96358389D01*
X147637649Y-95798480D01*
X147526276Y-95238571D01*
X147209113Y-94763903D01*
X146856778Y-94528480D01*
X147209113Y-94293057D01*
X147526276Y-93818389D01*
X147637649Y-93258480D01*
X147526276Y-92698571D01*
X147209113Y-92223903D01*
X146856778Y-91988480D01*
X147209113Y-91753057D01*
X147526276Y-91278389D01*
X147637649Y-90718480D01*
X147526276Y-90158571D01*
X147209113Y-89683903D01*
X146856778Y-89448480D01*
X147209113Y-89213057D01*
X147526276Y-88738389D01*
X147637649Y-88178480D01*
X147526276Y-87618571D01*
X147209113Y-87143903D01*
X146856778Y-86908480D01*
X147209113Y-86673057D01*
X147526276Y-86198389D01*
X147637649Y-85638480D01*
X147526276Y-85078571D01*
X147209113Y-84603903D01*
X146856778Y-84368480D01*
X147209113Y-84133057D01*
X147526276Y-83658389D01*
X147637649Y-83098480D01*
X147526276Y-82538571D01*
X147209113Y-82063903D01*
X147088430Y-81983265D01*
X147222301Y-81956637D01*
X147432345Y-81816289D01*
X147572693Y-81606245D01*
X147621976Y-81358480D01*
X147621976Y-80558480D01*
X152331423Y-80558480D01*
X152442796Y-81118389D01*
X152759959Y-81593057D01*
X153112294Y-81828480D01*
X152759959Y-82063903D01*
X152442796Y-82538571D01*
X152331423Y-83098480D01*
X152442796Y-83658389D01*
X152759959Y-84133057D01*
X153112294Y-84368480D01*
X152759959Y-84603903D01*
X152442796Y-85078571D01*
X152331423Y-85638480D01*
X152442796Y-86198389D01*
X152759959Y-86673057D01*
X153112294Y-86908480D01*
X152759959Y-87143903D01*
X152442796Y-87618571D01*
X152331423Y-88178480D01*
X152442796Y-88738389D01*
X152759959Y-89213057D01*
X153112294Y-89448480D01*
X152759959Y-89683903D01*
X152442796Y-90158571D01*
X152331423Y-90718480D01*
X152442796Y-91278389D01*
X152759959Y-91753057D01*
X153112294Y-91988480D01*
X152759959Y-92223903D01*
X152442796Y-92698571D01*
X152331423Y-93258480D01*
X152442796Y-93818389D01*
X152759959Y-94293057D01*
X153112294Y-94528480D01*
X152759959Y-94763903D01*
X152442796Y-95238571D01*
X152331423Y-95798480D01*
X152442796Y-96358389D01*
X152759959Y-96833057D01*
X153112294Y-97068480D01*
X152759959Y-97303903D01*
X152442796Y-97778571D01*
X152331423Y-98338480D01*
X152442796Y-98898389D01*
X152759959Y-99373057D01*
X153112294Y-99608480D01*
X152759959Y-99843903D01*
X152442796Y-100318571D01*
X152331423Y-100878480D01*
X152442796Y-101438389D01*
X152759959Y-101913057D01*
X153112294Y-102148480D01*
X152759959Y-102383903D01*
X152442796Y-102858571D01*
X152331423Y-103418480D01*
X152442796Y-103978389D01*
X152759959Y-104453057D01*
X153112294Y-104688480D01*
X152759959Y-104923903D01*
X152442796Y-105398571D01*
X152331423Y-105958480D01*
X152442796Y-106518389D01*
X152759959Y-106993057D01*
X153143644Y-107249427D01*
X152939402Y-107346091D01*
X152563495Y-107761057D01*
X152402632Y-108149441D01*
X152524621Y-108371480D01*
X153667536Y-108371480D01*
X153667536Y-108351480D01*
X153921536Y-108351480D01*
X153921536Y-108371480D01*
X155064451Y-108371480D01*
X155186440Y-108149441D01*
X155025577Y-107761057D01*
X154649670Y-107346091D01*
X154445428Y-107249427D01*
X154476777Y-107228480D01*
X156141423Y-107228480D01*
X156252796Y-107788389D01*
X156569959Y-108263057D01*
X157044627Y-108580220D01*
X157463203Y-108663480D01*
X157745869Y-108663480D01*
X158164445Y-108580220D01*
X158639113Y-108263057D01*
X158657041Y-108236225D01*
X166936397Y-108236225D01*
X167010531Y-108482344D01*
X167547759Y-108675445D01*
X168117990Y-108648258D01*
X168518541Y-108482344D01*
X168592675Y-108236225D01*
X167764536Y-107408085D01*
X166936397Y-108236225D01*
X158657041Y-108236225D01*
X158956276Y-107788389D01*
X159067649Y-107228480D01*
X159024530Y-107011703D01*
X166317571Y-107011703D01*
X166344758Y-107581934D01*
X166510672Y-107982485D01*
X166756791Y-108056619D01*
X167584931Y-107228480D01*
X167944141Y-107228480D01*
X168772281Y-108056619D01*
X169018400Y-107982485D01*
X169211501Y-107445257D01*
X169184314Y-106875026D01*
X169018400Y-106474475D01*
X168772281Y-106400341D01*
X167944141Y-107228480D01*
X167584931Y-107228480D01*
X166756791Y-106400341D01*
X166510672Y-106474475D01*
X166317571Y-107011703D01*
X159024530Y-107011703D01*
X158956276Y-106668571D01*
X158657042Y-106220735D01*
X166936397Y-106220735D01*
X167764536Y-107048875D01*
X168569180Y-106244230D01*
X171359536Y-106244230D01*
X171359536Y-106934790D01*
X171456209Y-107168179D01*
X171634838Y-107346807D01*
X171868227Y-107443480D01*
X172558786Y-107443480D01*
X172717536Y-107284730D01*
X172717536Y-106085480D01*
X172971536Y-106085480D01*
X172971536Y-107284730D01*
X173130286Y-107443480D01*
X173820845Y-107443480D01*
X174054234Y-107346807D01*
X174232863Y-107168179D01*
X174329536Y-106934790D01*
X174329536Y-106244230D01*
X174170786Y-106085480D01*
X172971536Y-106085480D01*
X172717536Y-106085480D01*
X171518286Y-106085480D01*
X171359536Y-106244230D01*
X168569180Y-106244230D01*
X168592675Y-106220735D01*
X168518541Y-105974616D01*
X167981313Y-105781515D01*
X167411082Y-105808702D01*
X167010531Y-105974616D01*
X166936397Y-106220735D01*
X158657042Y-106220735D01*
X158639113Y-106193903D01*
X158164445Y-105876740D01*
X157745869Y-105793480D01*
X157463203Y-105793480D01*
X157044627Y-105876740D01*
X156569959Y-106193903D01*
X156252796Y-106668571D01*
X156141423Y-107228480D01*
X154476777Y-107228480D01*
X154829113Y-106993057D01*
X155146276Y-106518389D01*
X155257649Y-105958480D01*
X155146276Y-105398571D01*
X154829113Y-104923903D01*
X154476778Y-104688480D01*
X154829113Y-104453057D01*
X155146276Y-103978389D01*
X155257649Y-103418480D01*
X156141423Y-103418480D01*
X156252796Y-103978389D01*
X156569959Y-104453057D01*
X157044627Y-104770220D01*
X157463203Y-104853480D01*
X157745869Y-104853480D01*
X158164445Y-104770220D01*
X158639113Y-104453057D01*
X158657041Y-104426225D01*
X166936397Y-104426225D01*
X167010531Y-104672344D01*
X167547759Y-104865445D01*
X168117990Y-104838258D01*
X168518541Y-104672344D01*
X168592675Y-104426225D01*
X167764536Y-103598085D01*
X166936397Y-104426225D01*
X158657041Y-104426225D01*
X158956276Y-103978389D01*
X159067649Y-103418480D01*
X159024530Y-103201703D01*
X166317571Y-103201703D01*
X166344758Y-103771934D01*
X166510672Y-104172485D01*
X166756791Y-104246619D01*
X167584931Y-103418480D01*
X167944141Y-103418480D01*
X168772281Y-104246619D01*
X169018400Y-104172485D01*
X169211501Y-103635257D01*
X169184314Y-103065026D01*
X169018400Y-102664475D01*
X168772281Y-102590341D01*
X167944141Y-103418480D01*
X167584931Y-103418480D01*
X166756791Y-102590341D01*
X166510672Y-102664475D01*
X166317571Y-103201703D01*
X159024530Y-103201703D01*
X158956276Y-102858571D01*
X158657042Y-102410735D01*
X166936397Y-102410735D01*
X167764536Y-103238875D01*
X168592675Y-102410735D01*
X168518541Y-102164616D01*
X167981313Y-101971515D01*
X167411082Y-101998702D01*
X167010531Y-102164616D01*
X166936397Y-102410735D01*
X158657042Y-102410735D01*
X158639113Y-102383903D01*
X158164445Y-102066740D01*
X157745869Y-101983480D01*
X157463203Y-101983480D01*
X157044627Y-102066740D01*
X156569959Y-102383903D01*
X156252796Y-102858571D01*
X156141423Y-103418480D01*
X155257649Y-103418480D01*
X155146276Y-102858571D01*
X154829113Y-102383903D01*
X154476778Y-102148480D01*
X154829113Y-101913057D01*
X155146276Y-101438389D01*
X155257649Y-100878480D01*
X155146276Y-100318571D01*
X154829113Y-99843903D01*
X154476778Y-99608480D01*
X156141423Y-99608480D01*
X156252796Y-100168389D01*
X156569959Y-100643057D01*
X157044627Y-100960220D01*
X157463203Y-101043480D01*
X157745869Y-101043480D01*
X158164445Y-100960220D01*
X158639113Y-100643057D01*
X158657041Y-100616225D01*
X166936397Y-100616225D01*
X167010531Y-100862344D01*
X167547759Y-101055445D01*
X168117990Y-101028258D01*
X168479585Y-100878480D01*
X171330444Y-100878480D01*
X171445697Y-101457898D01*
X171773911Y-101949105D01*
X172072297Y-102148480D01*
X171773911Y-102347855D01*
X171445697Y-102839062D01*
X171330444Y-103418480D01*
X171445697Y-103997898D01*
X171773911Y-104489105D01*
X171795569Y-104503576D01*
X171634838Y-104570153D01*
X171456209Y-104748781D01*
X171359536Y-104982170D01*
X171359536Y-105672730D01*
X171518286Y-105831480D01*
X172717536Y-105831480D01*
X172717536Y-105811480D01*
X172971536Y-105811480D01*
X172971536Y-105831480D01*
X174170786Y-105831480D01*
X174329536Y-105672730D01*
X174329536Y-104982170D01*
X174232863Y-104748781D01*
X174054234Y-104570153D01*
X173893503Y-104503576D01*
X173915161Y-104489105D01*
X174243375Y-103997898D01*
X174358628Y-103418480D01*
X174243375Y-102839062D01*
X173915161Y-102347855D01*
X173616775Y-102148480D01*
X173915161Y-101949105D01*
X174243375Y-101457898D01*
X174358628Y-100878480D01*
X174243375Y-100299062D01*
X173915161Y-99807855D01*
X173423954Y-99479641D01*
X172990792Y-99393480D01*
X172698280Y-99393480D01*
X172265118Y-99479641D01*
X171773911Y-99807855D01*
X171445697Y-100299062D01*
X171330444Y-100878480D01*
X168479585Y-100878480D01*
X168518541Y-100862344D01*
X168592675Y-100616225D01*
X167764536Y-99788085D01*
X166936397Y-100616225D01*
X158657041Y-100616225D01*
X158956276Y-100168389D01*
X159067649Y-99608480D01*
X159024530Y-99391703D01*
X166317571Y-99391703D01*
X166344758Y-99961934D01*
X166510672Y-100362485D01*
X166756791Y-100436619D01*
X167584931Y-99608480D01*
X167944141Y-99608480D01*
X168772281Y-100436619D01*
X169018400Y-100362485D01*
X169211501Y-99825257D01*
X169184314Y-99255026D01*
X169018400Y-98854475D01*
X168772281Y-98780341D01*
X167944141Y-99608480D01*
X167584931Y-99608480D01*
X166756791Y-98780341D01*
X166510672Y-98854475D01*
X166317571Y-99391703D01*
X159024530Y-99391703D01*
X158956276Y-99048571D01*
X158657042Y-98600735D01*
X166936397Y-98600735D01*
X167764536Y-99428875D01*
X168592675Y-98600735D01*
X168518541Y-98354616D01*
X167981313Y-98161515D01*
X167411082Y-98188702D01*
X167010531Y-98354616D01*
X166936397Y-98600735D01*
X158657042Y-98600735D01*
X158639113Y-98573903D01*
X158164445Y-98256740D01*
X157745869Y-98173480D01*
X157463203Y-98173480D01*
X157044627Y-98256740D01*
X156569959Y-98573903D01*
X156252796Y-99048571D01*
X156141423Y-99608480D01*
X154476778Y-99608480D01*
X154829113Y-99373057D01*
X155146276Y-98898389D01*
X155257649Y-98338480D01*
X155146276Y-97778571D01*
X154829113Y-97303903D01*
X154476778Y-97068480D01*
X154829113Y-96833057D01*
X155146276Y-96358389D01*
X155257649Y-95798480D01*
X156141423Y-95798480D01*
X156252796Y-96358389D01*
X156569959Y-96833057D01*
X157044627Y-97150220D01*
X157463203Y-97233480D01*
X157745869Y-97233480D01*
X158164445Y-97150220D01*
X158639113Y-96833057D01*
X158657041Y-96806225D01*
X166936397Y-96806225D01*
X167010531Y-97052344D01*
X167547759Y-97245445D01*
X168117990Y-97218258D01*
X168518541Y-97052344D01*
X168592675Y-96806225D01*
X167764536Y-95978085D01*
X166936397Y-96806225D01*
X158657041Y-96806225D01*
X158956276Y-96358389D01*
X159067649Y-95798480D01*
X159024530Y-95581703D01*
X166317571Y-95581703D01*
X166344758Y-96151934D01*
X166510672Y-96552485D01*
X166756791Y-96626619D01*
X167584931Y-95798480D01*
X167944141Y-95798480D01*
X168772281Y-96626619D01*
X169018400Y-96552485D01*
X169186709Y-96084230D01*
X171359536Y-96084230D01*
X171359536Y-96774790D01*
X171456209Y-97008179D01*
X171634838Y-97186807D01*
X171868227Y-97283480D01*
X172558786Y-97283480D01*
X172717536Y-97124730D01*
X172717536Y-95925480D01*
X172971536Y-95925480D01*
X172971536Y-97124730D01*
X173130286Y-97283480D01*
X173820845Y-97283480D01*
X174054234Y-97186807D01*
X174232863Y-97008179D01*
X174329536Y-96774790D01*
X174329536Y-96084230D01*
X174170786Y-95925480D01*
X172971536Y-95925480D01*
X172717536Y-95925480D01*
X171518286Y-95925480D01*
X171359536Y-96084230D01*
X169186709Y-96084230D01*
X169211501Y-96015257D01*
X169184314Y-95445026D01*
X169018400Y-95044475D01*
X168772281Y-94970341D01*
X167944141Y-95798480D01*
X167584931Y-95798480D01*
X166756791Y-94970341D01*
X166510672Y-95044475D01*
X166317571Y-95581703D01*
X159024530Y-95581703D01*
X158956276Y-95238571D01*
X158657042Y-94790735D01*
X166936397Y-94790735D01*
X167764536Y-95618875D01*
X168592675Y-94790735D01*
X168518541Y-94544616D01*
X167981313Y-94351515D01*
X167411082Y-94378702D01*
X167010531Y-94544616D01*
X166936397Y-94790735D01*
X158657042Y-94790735D01*
X158639113Y-94763903D01*
X158164445Y-94446740D01*
X157745869Y-94363480D01*
X157463203Y-94363480D01*
X157044627Y-94446740D01*
X156569959Y-94763903D01*
X156252796Y-95238571D01*
X156141423Y-95798480D01*
X155257649Y-95798480D01*
X155146276Y-95238571D01*
X154829113Y-94763903D01*
X154476778Y-94528480D01*
X154829113Y-94293057D01*
X155146276Y-93818389D01*
X155257649Y-93258480D01*
X155146276Y-92698571D01*
X154829113Y-92223903D01*
X154476778Y-91988480D01*
X156141423Y-91988480D01*
X156252796Y-92548389D01*
X156569959Y-93023057D01*
X157044627Y-93340220D01*
X157463203Y-93423480D01*
X157745869Y-93423480D01*
X158164445Y-93340220D01*
X158639113Y-93023057D01*
X158657041Y-92996225D01*
X166936397Y-92996225D01*
X167010531Y-93242344D01*
X167547759Y-93435445D01*
X168117990Y-93408258D01*
X168518541Y-93242344D01*
X168592675Y-92996225D01*
X167764536Y-92168085D01*
X166936397Y-92996225D01*
X158657041Y-92996225D01*
X158956276Y-92548389D01*
X159067649Y-91988480D01*
X159024530Y-91771703D01*
X166317571Y-91771703D01*
X166344758Y-92341934D01*
X166510672Y-92742485D01*
X166756791Y-92816619D01*
X167584931Y-91988480D01*
X167944141Y-91988480D01*
X168772281Y-92816619D01*
X169018400Y-92742485D01*
X169211501Y-92205257D01*
X169184314Y-91635026D01*
X169018400Y-91234475D01*
X168772281Y-91160341D01*
X167944141Y-91988480D01*
X167584931Y-91988480D01*
X166756791Y-91160341D01*
X166510672Y-91234475D01*
X166317571Y-91771703D01*
X159024530Y-91771703D01*
X158956276Y-91428571D01*
X158657042Y-90980735D01*
X166936397Y-90980735D01*
X167764536Y-91808875D01*
X168592675Y-90980735D01*
X168518541Y-90734616D01*
X168473649Y-90718480D01*
X171330444Y-90718480D01*
X171445697Y-91297898D01*
X171773911Y-91789105D01*
X172072297Y-91988480D01*
X171773911Y-92187855D01*
X171445697Y-92679062D01*
X171330444Y-93258480D01*
X171445697Y-93837898D01*
X171773911Y-94329105D01*
X171795569Y-94343576D01*
X171634838Y-94410153D01*
X171456209Y-94588781D01*
X171359536Y-94822170D01*
X171359536Y-95512730D01*
X171518286Y-95671480D01*
X172717536Y-95671480D01*
X172717536Y-95651480D01*
X172971536Y-95651480D01*
X172971536Y-95671480D01*
X174170786Y-95671480D01*
X174329536Y-95512730D01*
X174329536Y-94822170D01*
X174232863Y-94588781D01*
X174054234Y-94410153D01*
X173893503Y-94343576D01*
X173915161Y-94329105D01*
X174243375Y-93837898D01*
X174358628Y-93258480D01*
X174243375Y-92679062D01*
X173915161Y-92187855D01*
X173616775Y-91988480D01*
X173915161Y-91789105D01*
X174243375Y-91297898D01*
X174358628Y-90718480D01*
X174243375Y-90139062D01*
X173915161Y-89647855D01*
X173423954Y-89319641D01*
X172990792Y-89233480D01*
X172698280Y-89233480D01*
X172265118Y-89319641D01*
X171773911Y-89647855D01*
X171445697Y-90139062D01*
X171330444Y-90718480D01*
X168473649Y-90718480D01*
X167981313Y-90541515D01*
X167411082Y-90568702D01*
X167010531Y-90734616D01*
X166936397Y-90980735D01*
X158657042Y-90980735D01*
X158639113Y-90953903D01*
X158164445Y-90636740D01*
X157745869Y-90553480D01*
X157463203Y-90553480D01*
X157044627Y-90636740D01*
X156569959Y-90953903D01*
X156252796Y-91428571D01*
X156141423Y-91988480D01*
X154476778Y-91988480D01*
X154829113Y-91753057D01*
X155146276Y-91278389D01*
X155257649Y-90718480D01*
X155146276Y-90158571D01*
X154829113Y-89683903D01*
X154476778Y-89448480D01*
X154829113Y-89213057D01*
X155146276Y-88738389D01*
X155257649Y-88178480D01*
X156141423Y-88178480D01*
X156252796Y-88738389D01*
X156569959Y-89213057D01*
X157044627Y-89530220D01*
X157463203Y-89613480D01*
X157745869Y-89613480D01*
X158164445Y-89530220D01*
X158639113Y-89213057D01*
X158657041Y-89186225D01*
X166936397Y-89186225D01*
X167010531Y-89432344D01*
X167547759Y-89625445D01*
X168117990Y-89598258D01*
X168518541Y-89432344D01*
X168592675Y-89186225D01*
X167764536Y-88358085D01*
X166936397Y-89186225D01*
X158657041Y-89186225D01*
X158956276Y-88738389D01*
X159067649Y-88178480D01*
X159024530Y-87961703D01*
X166317571Y-87961703D01*
X166344758Y-88531934D01*
X166510672Y-88932485D01*
X166756791Y-89006619D01*
X167584931Y-88178480D01*
X167944141Y-88178480D01*
X168772281Y-89006619D01*
X169018400Y-88932485D01*
X169211501Y-88395257D01*
X169184314Y-87825026D01*
X169018400Y-87424475D01*
X168772281Y-87350341D01*
X167944141Y-88178480D01*
X167584931Y-88178480D01*
X166756791Y-87350341D01*
X166510672Y-87424475D01*
X166317571Y-87961703D01*
X159024530Y-87961703D01*
X158956276Y-87618571D01*
X158657042Y-87170735D01*
X166936397Y-87170735D01*
X167764536Y-87998875D01*
X168592675Y-87170735D01*
X168518541Y-86924616D01*
X167981313Y-86731515D01*
X167411082Y-86758702D01*
X167010531Y-86924616D01*
X166936397Y-87170735D01*
X158657042Y-87170735D01*
X158639113Y-87143903D01*
X158164445Y-86826740D01*
X157745869Y-86743480D01*
X157463203Y-86743480D01*
X157044627Y-86826740D01*
X156569959Y-87143903D01*
X156252796Y-87618571D01*
X156141423Y-88178480D01*
X155257649Y-88178480D01*
X155146276Y-87618571D01*
X154829113Y-87143903D01*
X154476778Y-86908480D01*
X154829113Y-86673057D01*
X155146276Y-86198389D01*
X155200809Y-85924230D01*
X171359536Y-85924230D01*
X171359536Y-86614790D01*
X171456209Y-86848179D01*
X171634838Y-87026807D01*
X171868227Y-87123480D01*
X172558786Y-87123480D01*
X172717536Y-86964730D01*
X172717536Y-85765480D01*
X172971536Y-85765480D01*
X172971536Y-86964730D01*
X173130286Y-87123480D01*
X173820845Y-87123480D01*
X174054234Y-87026807D01*
X174232863Y-86848179D01*
X174329536Y-86614790D01*
X174329536Y-85924230D01*
X174170786Y-85765480D01*
X172971536Y-85765480D01*
X172717536Y-85765480D01*
X171518286Y-85765480D01*
X171359536Y-85924230D01*
X155200809Y-85924230D01*
X155257649Y-85638480D01*
X155146276Y-85078571D01*
X154829113Y-84603903D01*
X154476778Y-84368480D01*
X156141423Y-84368480D01*
X156252796Y-84928389D01*
X156569959Y-85403057D01*
X157044627Y-85720220D01*
X157463203Y-85803480D01*
X157745869Y-85803480D01*
X158164445Y-85720220D01*
X158639113Y-85403057D01*
X158657041Y-85376225D01*
X166936397Y-85376225D01*
X167010531Y-85622344D01*
X167547759Y-85815445D01*
X168117990Y-85788258D01*
X168518541Y-85622344D01*
X168592675Y-85376225D01*
X167764536Y-84548085D01*
X166936397Y-85376225D01*
X158657041Y-85376225D01*
X158956276Y-84928389D01*
X159067649Y-84368480D01*
X159024530Y-84151703D01*
X166317571Y-84151703D01*
X166344758Y-84721934D01*
X166510672Y-85122485D01*
X166756791Y-85196619D01*
X167584931Y-84368480D01*
X167944141Y-84368480D01*
X168772281Y-85196619D01*
X169018400Y-85122485D01*
X169211501Y-84585257D01*
X169184314Y-84015026D01*
X169018400Y-83614475D01*
X168772281Y-83540341D01*
X167944141Y-84368480D01*
X167584931Y-84368480D01*
X166756791Y-83540341D01*
X166510672Y-83614475D01*
X166317571Y-84151703D01*
X159024530Y-84151703D01*
X158956276Y-83808571D01*
X158657042Y-83360735D01*
X166936397Y-83360735D01*
X167764536Y-84188875D01*
X168592675Y-83360735D01*
X168518541Y-83114616D01*
X167981313Y-82921515D01*
X167411082Y-82948702D01*
X167010531Y-83114616D01*
X166936397Y-83360735D01*
X158657042Y-83360735D01*
X158639113Y-83333903D01*
X158164445Y-83016740D01*
X157745869Y-82933480D01*
X157463203Y-82933480D01*
X157044627Y-83016740D01*
X156569959Y-83333903D01*
X156252796Y-83808571D01*
X156141423Y-84368480D01*
X154476778Y-84368480D01*
X154829113Y-84133057D01*
X155146276Y-83658389D01*
X155257649Y-83098480D01*
X155146276Y-82538571D01*
X154829113Y-82063903D01*
X154476778Y-81828480D01*
X154829113Y-81593057D01*
X155146276Y-81118389D01*
X155257649Y-80558480D01*
X156141423Y-80558480D01*
X156252796Y-81118389D01*
X156569959Y-81593057D01*
X157044627Y-81910220D01*
X157463203Y-81993480D01*
X157745869Y-81993480D01*
X158164445Y-81910220D01*
X158639113Y-81593057D01*
X158657041Y-81566225D01*
X166936397Y-81566225D01*
X167010531Y-81812344D01*
X167547759Y-82005445D01*
X168117990Y-81978258D01*
X168518541Y-81812344D01*
X168592675Y-81566225D01*
X167764536Y-80738085D01*
X166936397Y-81566225D01*
X158657041Y-81566225D01*
X158956276Y-81118389D01*
X159067649Y-80558480D01*
X159024530Y-80341703D01*
X166317571Y-80341703D01*
X166344758Y-80911934D01*
X166510672Y-81312485D01*
X166756791Y-81386619D01*
X167584931Y-80558480D01*
X167944141Y-80558480D01*
X168772281Y-81386619D01*
X169018400Y-81312485D01*
X169211501Y-80775257D01*
X169201166Y-80558480D01*
X171330444Y-80558480D01*
X171445697Y-81137898D01*
X171773911Y-81629105D01*
X172072297Y-81828480D01*
X171773911Y-82027855D01*
X171445697Y-82519062D01*
X171330444Y-83098480D01*
X171445697Y-83677898D01*
X171773911Y-84169105D01*
X171795569Y-84183576D01*
X171634838Y-84250153D01*
X171456209Y-84428781D01*
X171359536Y-84662170D01*
X171359536Y-85352730D01*
X171518286Y-85511480D01*
X172717536Y-85511480D01*
X172717536Y-85491480D01*
X172971536Y-85491480D01*
X172971536Y-85511480D01*
X174170786Y-85511480D01*
X174329536Y-85352730D01*
X174329536Y-84662170D01*
X174232863Y-84428781D01*
X174054234Y-84250153D01*
X173893503Y-84183576D01*
X173915161Y-84169105D01*
X174243375Y-83677898D01*
X174358628Y-83098480D01*
X174243375Y-82519062D01*
X173915161Y-82027855D01*
X173616775Y-81828480D01*
X173915161Y-81629105D01*
X174243375Y-81137898D01*
X174358628Y-80558480D01*
X174243375Y-79979062D01*
X173915161Y-79487855D01*
X173423954Y-79159641D01*
X172990792Y-79073480D01*
X172698280Y-79073480D01*
X172265118Y-79159641D01*
X171773911Y-79487855D01*
X171445697Y-79979062D01*
X171330444Y-80558480D01*
X169201166Y-80558480D01*
X169184314Y-80205026D01*
X169018400Y-79804475D01*
X168772281Y-79730341D01*
X167944141Y-80558480D01*
X167584931Y-80558480D01*
X166756791Y-79730341D01*
X166510672Y-79804475D01*
X166317571Y-80341703D01*
X159024530Y-80341703D01*
X158956276Y-79998571D01*
X158657042Y-79550735D01*
X166936397Y-79550735D01*
X167764536Y-80378875D01*
X168592675Y-79550735D01*
X168518541Y-79304616D01*
X167981313Y-79111515D01*
X167411082Y-79138702D01*
X167010531Y-79304616D01*
X166936397Y-79550735D01*
X158657042Y-79550735D01*
X158639113Y-79523903D01*
X158164445Y-79206740D01*
X157745869Y-79123480D01*
X157463203Y-79123480D01*
X157044627Y-79206740D01*
X156569959Y-79523903D01*
X156252796Y-79998571D01*
X156141423Y-80558480D01*
X155257649Y-80558480D01*
X155146276Y-79998571D01*
X154829113Y-79523903D01*
X154354445Y-79206740D01*
X153935869Y-79123480D01*
X153653203Y-79123480D01*
X153234627Y-79206740D01*
X152759959Y-79523903D01*
X152442796Y-79998571D01*
X152331423Y-80558480D01*
X147621976Y-80558480D01*
X147621976Y-79758480D01*
X147572693Y-79510715D01*
X147432345Y-79300671D01*
X147222301Y-79160323D01*
X146974536Y-79111040D01*
X145374536Y-79111040D01*
X145126771Y-79160323D01*
X144916727Y-79300671D01*
X144776379Y-79510715D01*
X144727096Y-79758480D01*
X144727096Y-81358480D01*
X144776379Y-81606245D01*
X144916727Y-81816289D01*
X145126771Y-81956637D01*
X145260642Y-81983265D01*
X145139959Y-82063903D01*
X144822796Y-82538571D01*
X144711423Y-83098480D01*
X143046778Y-83098480D01*
X142924445Y-83016740D01*
X142505869Y-82933480D01*
X142223203Y-82933480D01*
X141804627Y-83016740D01*
X141329959Y-83333903D01*
X141012796Y-83808571D01*
X140901423Y-84368480D01*
X133641166Y-84368480D01*
X133624314Y-84015026D01*
X133458400Y-83614475D01*
X133212281Y-83540341D01*
X132384141Y-84368480D01*
X132024931Y-84368480D01*
X131196791Y-83540341D01*
X130950672Y-83614475D01*
X130757571Y-84151703D01*
X106807000Y-84151703D01*
X106807000Y-83360735D01*
X131376397Y-83360735D01*
X132204536Y-84188875D01*
X133032675Y-83360735D01*
X132958541Y-83114616D01*
X132421313Y-82921515D01*
X131851082Y-82948702D01*
X131450531Y-83114616D01*
X131376397Y-83360735D01*
X106807000Y-83360735D01*
X106807000Y-81020739D01*
X120620762Y-81020739D01*
X120728254Y-81561139D01*
X121034366Y-82019268D01*
X121492495Y-82325380D01*
X121896488Y-82405739D01*
X122169302Y-82405739D01*
X122573295Y-82325380D01*
X123031424Y-82019268D01*
X123334137Y-81566225D01*
X131376397Y-81566225D01*
X131450531Y-81812344D01*
X131987759Y-82005445D01*
X132557990Y-81978258D01*
X132958541Y-81812344D01*
X133032675Y-81566225D01*
X132204536Y-80738085D01*
X131376397Y-81566225D01*
X123334137Y-81566225D01*
X123337536Y-81561139D01*
X123445028Y-81020739D01*
X123337536Y-80480339D01*
X123244903Y-80341703D01*
X130757571Y-80341703D01*
X130784758Y-80911934D01*
X130950672Y-81312485D01*
X131196791Y-81386619D01*
X132024931Y-80558480D01*
X132384141Y-80558480D01*
X133212281Y-81386619D01*
X133458400Y-81312485D01*
X133651501Y-80775257D01*
X133641166Y-80558480D01*
X140901423Y-80558480D01*
X141012796Y-81118389D01*
X141329959Y-81593057D01*
X141804627Y-81910220D01*
X142223203Y-81993480D01*
X142505869Y-81993480D01*
X142924445Y-81910220D01*
X143399113Y-81593057D01*
X143716276Y-81118389D01*
X143827649Y-80558480D01*
X143716276Y-79998571D01*
X143399113Y-79523903D01*
X142924445Y-79206740D01*
X142505869Y-79123480D01*
X142223203Y-79123480D01*
X141804627Y-79206740D01*
X141329959Y-79523903D01*
X141012796Y-79998571D01*
X140901423Y-80558480D01*
X133641166Y-80558480D01*
X133624314Y-80205026D01*
X133458400Y-79804475D01*
X133212281Y-79730341D01*
X132384141Y-80558480D01*
X132024931Y-80558480D01*
X131196791Y-79730341D01*
X130950672Y-79804475D01*
X130757571Y-80341703D01*
X123244903Y-80341703D01*
X123031424Y-80022210D01*
X122573295Y-79716098D01*
X122169302Y-79635739D01*
X121896488Y-79635739D01*
X121492495Y-79716098D01*
X121034366Y-80022210D01*
X120728254Y-80480339D01*
X120620762Y-81020739D01*
X106807000Y-81020739D01*
X106807000Y-78367844D01*
X110720023Y-78367844D01*
X110827515Y-78908244D01*
X111133627Y-79366373D01*
X111591756Y-79672485D01*
X111995749Y-79752844D01*
X112268563Y-79752844D01*
X112672556Y-79672485D01*
X113130685Y-79366373D01*
X113436797Y-78908244D01*
X113544289Y-78367844D01*
X125215711Y-78367844D01*
X125323203Y-78908244D01*
X125629315Y-79366373D01*
X126087444Y-79672485D01*
X126491437Y-79752844D01*
X126764251Y-79752844D01*
X127168244Y-79672485D01*
X127350455Y-79550735D01*
X131376397Y-79550735D01*
X132204536Y-80378875D01*
X133032675Y-79550735D01*
X132958541Y-79304616D01*
X132421313Y-79111515D01*
X131851082Y-79138702D01*
X131450531Y-79304616D01*
X131376397Y-79550735D01*
X127350455Y-79550735D01*
X127626373Y-79366373D01*
X127932485Y-78908244D01*
X128039977Y-78367844D01*
X127932485Y-77827444D01*
X127626373Y-77369315D01*
X127168244Y-77063203D01*
X126764251Y-76982844D01*
X126491437Y-76982844D01*
X126087444Y-77063203D01*
X125629315Y-77369315D01*
X125323203Y-77827444D01*
X125215711Y-78367844D01*
X113544289Y-78367844D01*
X113436797Y-77827444D01*
X113130685Y-77369315D01*
X112672556Y-77063203D01*
X112268563Y-76982844D01*
X111995749Y-76982844D01*
X111591756Y-77063203D01*
X111133627Y-77369315D01*
X110827515Y-77827444D01*
X110720023Y-78367844D01*
X106807000Y-78367844D01*
X106807000Y-76485750D01*
X142025000Y-76485750D01*
X142025000Y-77176309D01*
X142121673Y-77409698D01*
X142300301Y-77588327D01*
X142533690Y-77685000D01*
X143224250Y-77685000D01*
X143383000Y-77526250D01*
X143383000Y-76327000D01*
X142183750Y-76327000D01*
X142025000Y-76485750D01*
X106807000Y-76485750D01*
X106807000Y-75223691D01*
X142025000Y-75223691D01*
X142025000Y-75914250D01*
X142183750Y-76073000D01*
X143383000Y-76073000D01*
X143383000Y-74873750D01*
X143637000Y-74873750D01*
X143637000Y-76073000D01*
X143657000Y-76073000D01*
X143657000Y-76327000D01*
X143637000Y-76327000D01*
X143637000Y-77526250D01*
X143795750Y-77685000D01*
X144486310Y-77685000D01*
X144719699Y-77588327D01*
X144898327Y-77409698D01*
X144964904Y-77248967D01*
X144979375Y-77270625D01*
X145470582Y-77598839D01*
X145903744Y-77685000D01*
X146196256Y-77685000D01*
X146629418Y-77598839D01*
X147120625Y-77270625D01*
X147320000Y-76972239D01*
X147519375Y-77270625D01*
X148010582Y-77598839D01*
X148443744Y-77685000D01*
X148736256Y-77685000D01*
X149169418Y-77598839D01*
X149660625Y-77270625D01*
X149860000Y-76972239D01*
X150059375Y-77270625D01*
X150550582Y-77598839D01*
X150983744Y-77685000D01*
X151276256Y-77685000D01*
X151709418Y-77598839D01*
X152200625Y-77270625D01*
X152400000Y-76972239D01*
X152599375Y-77270625D01*
X153090582Y-77598839D01*
X153523744Y-77685000D01*
X153816256Y-77685000D01*
X154249418Y-77598839D01*
X154740625Y-77270625D01*
X155068839Y-76779418D01*
X155127252Y-76485750D01*
X157265000Y-76485750D01*
X157265000Y-77176309D01*
X157361673Y-77409698D01*
X157540301Y-77588327D01*
X157773690Y-77685000D01*
X158464250Y-77685000D01*
X158623000Y-77526250D01*
X158623000Y-76327000D01*
X157423750Y-76327000D01*
X157265000Y-76485750D01*
X155127252Y-76485750D01*
X155184092Y-76200000D01*
X155068839Y-75620582D01*
X154803645Y-75223691D01*
X157265000Y-75223691D01*
X157265000Y-75914250D01*
X157423750Y-76073000D01*
X158623000Y-76073000D01*
X158623000Y-74873750D01*
X158877000Y-74873750D01*
X158877000Y-76073000D01*
X158897000Y-76073000D01*
X158897000Y-76327000D01*
X158877000Y-76327000D01*
X158877000Y-77526250D01*
X159035750Y-77685000D01*
X159726310Y-77685000D01*
X159959699Y-77588327D01*
X160138327Y-77409698D01*
X160204904Y-77248967D01*
X160219375Y-77270625D01*
X160710582Y-77598839D01*
X161143744Y-77685000D01*
X161436256Y-77685000D01*
X161869418Y-77598839D01*
X162360625Y-77270625D01*
X162560000Y-76972239D01*
X162759375Y-77270625D01*
X163250582Y-77598839D01*
X163683744Y-77685000D01*
X163976256Y-77685000D01*
X164409418Y-77598839D01*
X164900625Y-77270625D01*
X165100000Y-76972239D01*
X165299375Y-77270625D01*
X165790582Y-77598839D01*
X166223744Y-77685000D01*
X166516256Y-77685000D01*
X166949418Y-77598839D01*
X167440625Y-77270625D01*
X167640000Y-76972239D01*
X167839375Y-77270625D01*
X168330582Y-77598839D01*
X168763744Y-77685000D01*
X169056256Y-77685000D01*
X169489418Y-77598839D01*
X169980625Y-77270625D01*
X170308839Y-76779418D01*
X170424092Y-76200000D01*
X170308839Y-75620582D01*
X169980625Y-75129375D01*
X169489418Y-74801161D01*
X169056256Y-74715000D01*
X168763744Y-74715000D01*
X168330582Y-74801161D01*
X167839375Y-75129375D01*
X167640000Y-75427761D01*
X167440625Y-75129375D01*
X166949418Y-74801161D01*
X166516256Y-74715000D01*
X166223744Y-74715000D01*
X165790582Y-74801161D01*
X165299375Y-75129375D01*
X165100000Y-75427761D01*
X164900625Y-75129375D01*
X164409418Y-74801161D01*
X163976256Y-74715000D01*
X163683744Y-74715000D01*
X163250582Y-74801161D01*
X162759375Y-75129375D01*
X162560000Y-75427761D01*
X162360625Y-75129375D01*
X161869418Y-74801161D01*
X161436256Y-74715000D01*
X161143744Y-74715000D01*
X160710582Y-74801161D01*
X160219375Y-75129375D01*
X160204904Y-75151033D01*
X160138327Y-74990302D01*
X159959699Y-74811673D01*
X159726310Y-74715000D01*
X159035750Y-74715000D01*
X158877000Y-74873750D01*
X158623000Y-74873750D01*
X158464250Y-74715000D01*
X157773690Y-74715000D01*
X157540301Y-74811673D01*
X157361673Y-74990302D01*
X157265000Y-75223691D01*
X154803645Y-75223691D01*
X154740625Y-75129375D01*
X154249418Y-74801161D01*
X153816256Y-74715000D01*
X153523744Y-74715000D01*
X153090582Y-74801161D01*
X152599375Y-75129375D01*
X152400000Y-75427761D01*
X152200625Y-75129375D01*
X151709418Y-74801161D01*
X151276256Y-74715000D01*
X150983744Y-74715000D01*
X150550582Y-74801161D01*
X150059375Y-75129375D01*
X149860000Y-75427761D01*
X149660625Y-75129375D01*
X149169418Y-74801161D01*
X148736256Y-74715000D01*
X148443744Y-74715000D01*
X148010582Y-74801161D01*
X147519375Y-75129375D01*
X147320000Y-75427761D01*
X147120625Y-75129375D01*
X146629418Y-74801161D01*
X146196256Y-74715000D01*
X145903744Y-74715000D01*
X145470582Y-74801161D01*
X144979375Y-75129375D01*
X144964904Y-75151033D01*
X144898327Y-74990302D01*
X144719699Y-74811673D01*
X144486310Y-74715000D01*
X143795750Y-74715000D01*
X143637000Y-74873750D01*
X143383000Y-74873750D01*
X143224250Y-74715000D01*
X142533690Y-74715000D01*
X142300301Y-74811673D01*
X142121673Y-74990302D01*
X142025000Y-75223691D01*
X106807000Y-75223691D01*
X106807000Y-73772895D01*
X108067128Y-73772895D01*
X108174620Y-74313295D01*
X108480732Y-74771424D01*
X108938861Y-75077536D01*
X109342854Y-75157895D01*
X109615668Y-75157895D01*
X110019661Y-75077536D01*
X110477790Y-74771424D01*
X110783902Y-74313295D01*
X110891394Y-73772895D01*
X127868606Y-73772895D01*
X127976098Y-74313295D01*
X128282210Y-74771424D01*
X128740339Y-75077536D01*
X129144332Y-75157895D01*
X129417146Y-75157895D01*
X129821139Y-75077536D01*
X130279268Y-74771424D01*
X130585380Y-74313295D01*
X130692872Y-73772895D01*
X130585380Y-73232495D01*
X130279268Y-72774366D01*
X129821139Y-72468254D01*
X129417146Y-72387895D01*
X129144332Y-72387895D01*
X128740339Y-72468254D01*
X128282210Y-72774366D01*
X127976098Y-73232495D01*
X127868606Y-73772895D01*
X110891394Y-73772895D01*
X110783902Y-73232495D01*
X110477790Y-72774366D01*
X110019661Y-72468254D01*
X109615668Y-72387895D01*
X109342854Y-72387895D01*
X108938861Y-72468254D01*
X108480732Y-72774366D01*
X108174620Y-73232495D01*
X108067128Y-73772895D01*
X106807000Y-73772895D01*
X106807000Y-71120000D01*
X134426887Y-71120000D01*
X134538260Y-71679909D01*
X134855423Y-72154577D01*
X135330091Y-72471740D01*
X135748667Y-72555000D01*
X136031333Y-72555000D01*
X136449909Y-72471740D01*
X136924577Y-72154577D01*
X137160000Y-71802242D01*
X137395423Y-72154577D01*
X137870091Y-72471740D01*
X138288667Y-72555000D01*
X138571333Y-72555000D01*
X138989909Y-72471740D01*
X139464577Y-72154577D01*
X139720947Y-71770892D01*
X139817611Y-71975134D01*
X140232577Y-72351041D01*
X140620961Y-72511904D01*
X140843000Y-72389915D01*
X140843000Y-71247000D01*
X140823000Y-71247000D01*
X140823000Y-70993000D01*
X140843000Y-70993000D01*
X140843000Y-69850085D01*
X141097000Y-69850085D01*
X141097000Y-70993000D01*
X141117000Y-70993000D01*
X141117000Y-71247000D01*
X141097000Y-71247000D01*
X141097000Y-72389915D01*
X141319039Y-72511904D01*
X141707423Y-72351041D01*
X142122389Y-71975134D01*
X142219053Y-71770892D01*
X142475423Y-72154577D01*
X142950091Y-72471740D01*
X143368667Y-72555000D01*
X143651333Y-72555000D01*
X144069909Y-72471740D01*
X144544577Y-72154577D01*
X144780000Y-71802242D01*
X145015423Y-72154577D01*
X145490091Y-72471740D01*
X145908667Y-72555000D01*
X146191333Y-72555000D01*
X146609909Y-72471740D01*
X147084577Y-72154577D01*
X147320000Y-71802242D01*
X147555423Y-72154577D01*
X148030091Y-72471740D01*
X148448667Y-72555000D01*
X148731333Y-72555000D01*
X149149909Y-72471740D01*
X149624577Y-72154577D01*
X149860000Y-71802242D01*
X150095423Y-72154577D01*
X150570091Y-72471740D01*
X150988667Y-72555000D01*
X151271333Y-72555000D01*
X151689909Y-72471740D01*
X152164577Y-72154577D01*
X152400000Y-71802242D01*
X152635423Y-72154577D01*
X153110091Y-72471740D01*
X153528667Y-72555000D01*
X153811333Y-72555000D01*
X154229909Y-72471740D01*
X154704577Y-72154577D01*
X154940000Y-71802242D01*
X155175423Y-72154577D01*
X155650091Y-72471740D01*
X156068667Y-72555000D01*
X156351333Y-72555000D01*
X156769909Y-72471740D01*
X157244577Y-72154577D01*
X157480000Y-71802242D01*
X157715423Y-72154577D01*
X158190091Y-72471740D01*
X158608667Y-72555000D01*
X158891333Y-72555000D01*
X159309909Y-72471740D01*
X159784577Y-72154577D01*
X160020000Y-71802242D01*
X160255423Y-72154577D01*
X160730091Y-72471740D01*
X161148667Y-72555000D01*
X161431333Y-72555000D01*
X161849909Y-72471740D01*
X162324577Y-72154577D01*
X162560000Y-71802242D01*
X162795423Y-72154577D01*
X163270091Y-72471740D01*
X163688667Y-72555000D01*
X163971333Y-72555000D01*
X164389909Y-72471740D01*
X164864577Y-72154577D01*
X165100000Y-71802242D01*
X165335423Y-72154577D01*
X165810091Y-72471740D01*
X166228667Y-72555000D01*
X166511333Y-72555000D01*
X166929909Y-72471740D01*
X167404577Y-72154577D01*
X167640000Y-71802242D01*
X167875423Y-72154577D01*
X168350091Y-72471740D01*
X168768667Y-72555000D01*
X169051333Y-72555000D01*
X169469909Y-72471740D01*
X169944577Y-72154577D01*
X170261740Y-71679909D01*
X170373113Y-71120000D01*
X170261740Y-70560091D01*
X169944577Y-70085423D01*
X169469909Y-69768260D01*
X169051333Y-69685000D01*
X168768667Y-69685000D01*
X168350091Y-69768260D01*
X167875423Y-70085423D01*
X167640000Y-70437758D01*
X167404577Y-70085423D01*
X166929909Y-69768260D01*
X166511333Y-69685000D01*
X166228667Y-69685000D01*
X165810091Y-69768260D01*
X165335423Y-70085423D01*
X165100000Y-70437758D01*
X164864577Y-70085423D01*
X164389909Y-69768260D01*
X163971333Y-69685000D01*
X163688667Y-69685000D01*
X163270091Y-69768260D01*
X162795423Y-70085423D01*
X162560000Y-70437758D01*
X162324577Y-70085423D01*
X161849909Y-69768260D01*
X161431333Y-69685000D01*
X161148667Y-69685000D01*
X160730091Y-69768260D01*
X160255423Y-70085423D01*
X160020000Y-70437758D01*
X159784577Y-70085423D01*
X159309909Y-69768260D01*
X158891333Y-69685000D01*
X158608667Y-69685000D01*
X158190091Y-69768260D01*
X157715423Y-70085423D01*
X157480000Y-70437758D01*
X157244577Y-70085423D01*
X156769909Y-69768260D01*
X156351333Y-69685000D01*
X156068667Y-69685000D01*
X155650091Y-69768260D01*
X155175423Y-70085423D01*
X154940000Y-70437758D01*
X154704577Y-70085423D01*
X154229909Y-69768260D01*
X153811333Y-69685000D01*
X153528667Y-69685000D01*
X153110091Y-69768260D01*
X152635423Y-70085423D01*
X152400000Y-70437758D01*
X152164577Y-70085423D01*
X151689909Y-69768260D01*
X151271333Y-69685000D01*
X150988667Y-69685000D01*
X150570091Y-69768260D01*
X150095423Y-70085423D01*
X149860000Y-70437758D01*
X149624577Y-70085423D01*
X149149909Y-69768260D01*
X148731333Y-69685000D01*
X148448667Y-69685000D01*
X148030091Y-69768260D01*
X147555423Y-70085423D01*
X147320000Y-70437758D01*
X147084577Y-70085423D01*
X146609909Y-69768260D01*
X146191333Y-69685000D01*
X145908667Y-69685000D01*
X145490091Y-69768260D01*
X145015423Y-70085423D01*
X144780000Y-70437758D01*
X144544577Y-70085423D01*
X144069909Y-69768260D01*
X143651333Y-69685000D01*
X143368667Y-69685000D01*
X142950091Y-69768260D01*
X142475423Y-70085423D01*
X142219053Y-70469108D01*
X142122389Y-70264866D01*
X141707423Y-69888959D01*
X141319039Y-69728096D01*
X141097000Y-69850085D01*
X140843000Y-69850085D01*
X140620961Y-69728096D01*
X140232577Y-69888959D01*
X139817611Y-70264866D01*
X139720947Y-70469108D01*
X139464577Y-70085423D01*
X138989909Y-69768260D01*
X138571333Y-69685000D01*
X138288667Y-69685000D01*
X137870091Y-69768260D01*
X137395423Y-70085423D01*
X137160000Y-70437758D01*
X136924577Y-70085423D01*
X136449909Y-69768260D01*
X136031333Y-69685000D01*
X135748667Y-69685000D01*
X135330091Y-69768260D01*
X134855423Y-70085423D01*
X134538260Y-70560091D01*
X134426887Y-71120000D01*
X106807000Y-71120000D01*
X106807000Y-68467105D01*
X108067128Y-68467105D01*
X108174620Y-69007505D01*
X108480732Y-69465634D01*
X108938861Y-69771746D01*
X109342854Y-69852105D01*
X109615668Y-69852105D01*
X110019661Y-69771746D01*
X110477790Y-69465634D01*
X110783902Y-69007505D01*
X110891394Y-68467105D01*
X127868606Y-68467105D01*
X127976098Y-69007505D01*
X128282210Y-69465634D01*
X128740339Y-69771746D01*
X129144332Y-69852105D01*
X129417146Y-69852105D01*
X129821139Y-69771746D01*
X130279268Y-69465634D01*
X130585380Y-69007505D01*
X130613576Y-68865750D01*
X171235000Y-68865750D01*
X171235000Y-69556310D01*
X171331673Y-69789699D01*
X171510302Y-69968327D01*
X171743691Y-70065000D01*
X172434250Y-70065000D01*
X172593000Y-69906250D01*
X172593000Y-68707000D01*
X172847000Y-68707000D01*
X172847000Y-69906250D01*
X173005750Y-70065000D01*
X173696309Y-70065000D01*
X173929698Y-69968327D01*
X174108327Y-69789699D01*
X174205000Y-69556310D01*
X174205000Y-68865750D01*
X174046250Y-68707000D01*
X172847000Y-68707000D01*
X172593000Y-68707000D01*
X171393750Y-68707000D01*
X171235000Y-68865750D01*
X130613576Y-68865750D01*
X130692872Y-68467105D01*
X130585380Y-67926705D01*
X130279268Y-67468576D01*
X129821139Y-67162464D01*
X129417146Y-67082105D01*
X129144332Y-67082105D01*
X128740339Y-67162464D01*
X128282210Y-67468576D01*
X127976098Y-67926705D01*
X127868606Y-68467105D01*
X110891394Y-68467105D01*
X110783902Y-67926705D01*
X110477790Y-67468576D01*
X110019661Y-67162464D01*
X109615668Y-67082105D01*
X109342854Y-67082105D01*
X108938861Y-67162464D01*
X108480732Y-67468576D01*
X108174620Y-67926705D01*
X108067128Y-68467105D01*
X106807000Y-68467105D01*
X106807000Y-65342119D01*
X117983000Y-65342119D01*
X117983000Y-65897881D01*
X118195680Y-66411337D01*
X118588663Y-66804320D01*
X119102119Y-67017000D01*
X119657881Y-67017000D01*
X120171337Y-66804320D01*
X120564320Y-66411337D01*
X120777000Y-65897881D01*
X120777000Y-65342119D01*
X120564320Y-64828663D01*
X120171337Y-64435680D01*
X119657881Y-64223000D01*
X119102119Y-64223000D01*
X118588663Y-64435680D01*
X118195680Y-64828663D01*
X117983000Y-65342119D01*
X106807000Y-65342119D01*
X106807000Y-65030779D01*
X107888381Y-63872156D01*
X110720023Y-63872156D01*
X110827515Y-64412556D01*
X111133627Y-64870685D01*
X111591756Y-65176797D01*
X111995749Y-65257156D01*
X112268563Y-65257156D01*
X112672556Y-65176797D01*
X113130685Y-64870685D01*
X113436797Y-64412556D01*
X113544289Y-63872156D01*
X125215711Y-63872156D01*
X125323203Y-64412556D01*
X125629315Y-64870685D01*
X126087444Y-65176797D01*
X126491437Y-65257156D01*
X126764251Y-65257156D01*
X127168244Y-65176797D01*
X127626373Y-64870685D01*
X127932485Y-64412556D01*
X128039977Y-63872156D01*
X127965951Y-63500000D01*
X134426887Y-63500000D01*
X134538260Y-64059909D01*
X134855423Y-64534577D01*
X135330091Y-64851740D01*
X135748667Y-64935000D01*
X136031333Y-64935000D01*
X136449909Y-64851740D01*
X136924577Y-64534577D01*
X137160000Y-64182242D01*
X137395423Y-64534577D01*
X137870091Y-64851740D01*
X138288667Y-64935000D01*
X138571333Y-64935000D01*
X138989909Y-64851740D01*
X139464577Y-64534577D01*
X139700000Y-64182242D01*
X139935423Y-64534577D01*
X140410091Y-64851740D01*
X140828667Y-64935000D01*
X141111333Y-64935000D01*
X141529909Y-64851740D01*
X142004577Y-64534577D01*
X142240000Y-64182242D01*
X142475423Y-64534577D01*
X142950091Y-64851740D01*
X143368667Y-64935000D01*
X143651333Y-64935000D01*
X144069909Y-64851740D01*
X144544577Y-64534577D01*
X144800947Y-64150892D01*
X144897611Y-64355134D01*
X145312577Y-64731041D01*
X145700961Y-64891904D01*
X145923000Y-64769915D01*
X145923000Y-63627000D01*
X145903000Y-63627000D01*
X145903000Y-63373000D01*
X145923000Y-63373000D01*
X145923000Y-62230085D01*
X146177000Y-62230085D01*
X146177000Y-63373000D01*
X146197000Y-63373000D01*
X146197000Y-63627000D01*
X146177000Y-63627000D01*
X146177000Y-64769915D01*
X146399039Y-64891904D01*
X146787423Y-64731041D01*
X147202389Y-64355134D01*
X147299053Y-64150892D01*
X147555423Y-64534577D01*
X148030091Y-64851740D01*
X148448667Y-64935000D01*
X148731333Y-64935000D01*
X149149909Y-64851740D01*
X149624577Y-64534577D01*
X149860000Y-64182242D01*
X150095423Y-64534577D01*
X150570091Y-64851740D01*
X150988667Y-64935000D01*
X151271333Y-64935000D01*
X151689909Y-64851740D01*
X152164577Y-64534577D01*
X152400000Y-64182242D01*
X152635423Y-64534577D01*
X153110091Y-64851740D01*
X153528667Y-64935000D01*
X153811333Y-64935000D01*
X154229909Y-64851740D01*
X154704577Y-64534577D01*
X154940000Y-64182242D01*
X155175423Y-64534577D01*
X155650091Y-64851740D01*
X156068667Y-64935000D01*
X156351333Y-64935000D01*
X156769909Y-64851740D01*
X157244577Y-64534577D01*
X157480000Y-64182242D01*
X157715423Y-64534577D01*
X158190091Y-64851740D01*
X158608667Y-64935000D01*
X158891333Y-64935000D01*
X159309909Y-64851740D01*
X159784577Y-64534577D01*
X160020000Y-64182242D01*
X160255423Y-64534577D01*
X160730091Y-64851740D01*
X161148667Y-64935000D01*
X161431333Y-64935000D01*
X161849909Y-64851740D01*
X162324577Y-64534577D01*
X162560000Y-64182242D01*
X162795423Y-64534577D01*
X163270091Y-64851740D01*
X163688667Y-64935000D01*
X163971333Y-64935000D01*
X164389909Y-64851740D01*
X164864577Y-64534577D01*
X165100000Y-64182242D01*
X165335423Y-64534577D01*
X165810091Y-64851740D01*
X166228667Y-64935000D01*
X166511333Y-64935000D01*
X166929909Y-64851740D01*
X167404577Y-64534577D01*
X167485215Y-64413894D01*
X167511843Y-64547765D01*
X167652191Y-64757809D01*
X167862235Y-64898157D01*
X168110000Y-64947440D01*
X169710000Y-64947440D01*
X169957765Y-64898157D01*
X170167809Y-64757809D01*
X170308157Y-64547765D01*
X170357440Y-64300000D01*
X170357440Y-63500000D01*
X171205908Y-63500000D01*
X171321161Y-64079418D01*
X171649375Y-64570625D01*
X171947761Y-64770000D01*
X171649375Y-64969375D01*
X171321161Y-65460582D01*
X171205908Y-66040000D01*
X171321161Y-66619418D01*
X171649375Y-67110625D01*
X171671033Y-67125096D01*
X171510302Y-67191673D01*
X171331673Y-67370301D01*
X171235000Y-67603690D01*
X171235000Y-68294250D01*
X171393750Y-68453000D01*
X172593000Y-68453000D01*
X172593000Y-68433000D01*
X172847000Y-68433000D01*
X172847000Y-68453000D01*
X174046250Y-68453000D01*
X174205000Y-68294250D01*
X174205000Y-67603690D01*
X174108327Y-67370301D01*
X173929698Y-67191673D01*
X173768967Y-67125096D01*
X173790625Y-67110625D01*
X174118839Y-66619418D01*
X174234092Y-66040000D01*
X174118839Y-65460582D01*
X173790625Y-64969375D01*
X173492239Y-64770000D01*
X173790625Y-64570625D01*
X174118839Y-64079418D01*
X174234092Y-63500000D01*
X174118839Y-62920582D01*
X173790625Y-62429375D01*
X173299418Y-62101161D01*
X172866256Y-62015000D01*
X172573744Y-62015000D01*
X172140582Y-62101161D01*
X171649375Y-62429375D01*
X171321161Y-62920582D01*
X171205908Y-63500000D01*
X170357440Y-63500000D01*
X170357440Y-62700000D01*
X170308157Y-62452235D01*
X170167809Y-62242191D01*
X169957765Y-62101843D01*
X169710000Y-62052560D01*
X168110000Y-62052560D01*
X167862235Y-62101843D01*
X167652191Y-62242191D01*
X167511843Y-62452235D01*
X167485215Y-62586106D01*
X167404577Y-62465423D01*
X166929909Y-62148260D01*
X166511333Y-62065000D01*
X166228667Y-62065000D01*
X165810091Y-62148260D01*
X165335423Y-62465423D01*
X165100000Y-62817758D01*
X164864577Y-62465423D01*
X164389909Y-62148260D01*
X163971333Y-62065000D01*
X163688667Y-62065000D01*
X163270091Y-62148260D01*
X162795423Y-62465423D01*
X162560000Y-62817758D01*
X162324577Y-62465423D01*
X161849909Y-62148260D01*
X161431333Y-62065000D01*
X161148667Y-62065000D01*
X160730091Y-62148260D01*
X160255423Y-62465423D01*
X160020000Y-62817758D01*
X159784577Y-62465423D01*
X159309909Y-62148260D01*
X158891333Y-62065000D01*
X158608667Y-62065000D01*
X158190091Y-62148260D01*
X157715423Y-62465423D01*
X157480000Y-62817758D01*
X157244577Y-62465423D01*
X156769909Y-62148260D01*
X156351333Y-62065000D01*
X156068667Y-62065000D01*
X155650091Y-62148260D01*
X155175423Y-62465423D01*
X154940000Y-62817758D01*
X154704577Y-62465423D01*
X154229909Y-62148260D01*
X153811333Y-62065000D01*
X153528667Y-62065000D01*
X153110091Y-62148260D01*
X152635423Y-62465423D01*
X152400000Y-62817758D01*
X152164577Y-62465423D01*
X151689909Y-62148260D01*
X151271333Y-62065000D01*
X150988667Y-62065000D01*
X150570091Y-62148260D01*
X150095423Y-62465423D01*
X149860000Y-62817758D01*
X149624577Y-62465423D01*
X149149909Y-62148260D01*
X148731333Y-62065000D01*
X148448667Y-62065000D01*
X148030091Y-62148260D01*
X147555423Y-62465423D01*
X147299053Y-62849108D01*
X147202389Y-62644866D01*
X146787423Y-62268959D01*
X146399039Y-62108096D01*
X146177000Y-62230085D01*
X145923000Y-62230085D01*
X145700961Y-62108096D01*
X145312577Y-62268959D01*
X144897611Y-62644866D01*
X144800947Y-62849108D01*
X144544577Y-62465423D01*
X144069909Y-62148260D01*
X143651333Y-62065000D01*
X143368667Y-62065000D01*
X142950091Y-62148260D01*
X142475423Y-62465423D01*
X142240000Y-62817758D01*
X142004577Y-62465423D01*
X141529909Y-62148260D01*
X141111333Y-62065000D01*
X140828667Y-62065000D01*
X140410091Y-62148260D01*
X139935423Y-62465423D01*
X139700000Y-62817758D01*
X139464577Y-62465423D01*
X138989909Y-62148260D01*
X138571333Y-62065000D01*
X138288667Y-62065000D01*
X137870091Y-62148260D01*
X137395423Y-62465423D01*
X137160000Y-62817758D01*
X136924577Y-62465423D01*
X136449909Y-62148260D01*
X136031333Y-62065000D01*
X135748667Y-62065000D01*
X135330091Y-62148260D01*
X134855423Y-62465423D01*
X134538260Y-62940091D01*
X134426887Y-63500000D01*
X127965951Y-63500000D01*
X127932485Y-63331756D01*
X127626373Y-62873627D01*
X127168244Y-62567515D01*
X126764251Y-62487156D01*
X126491437Y-62487156D01*
X126087444Y-62567515D01*
X125629315Y-62873627D01*
X125323203Y-63331756D01*
X125215711Y-63872156D01*
X113544289Y-63872156D01*
X113436797Y-63331756D01*
X113130685Y-62873627D01*
X112672556Y-62567515D01*
X112268563Y-62487156D01*
X111995749Y-62487156D01*
X111591756Y-62567515D01*
X111133627Y-62873627D01*
X110827515Y-63331756D01*
X110720023Y-63872156D01*
X107888381Y-63872156D01*
X109721438Y-61908168D01*
X110410345Y-61219261D01*
X115314972Y-61219261D01*
X115422464Y-61759661D01*
X115728576Y-62217790D01*
X116186705Y-62523902D01*
X116590698Y-62604261D01*
X116863512Y-62604261D01*
X117267505Y-62523902D01*
X117725634Y-62217790D01*
X118031746Y-61759661D01*
X118139238Y-61219261D01*
X120620762Y-61219261D01*
X120728254Y-61759661D01*
X121034366Y-62217790D01*
X121492495Y-62523902D01*
X121896488Y-62604261D01*
X122169302Y-62604261D01*
X122573295Y-62523902D01*
X123031424Y-62217790D01*
X123337536Y-61759661D01*
X123445028Y-61219261D01*
X123337536Y-60678861D01*
X123031424Y-60220732D01*
X122573295Y-59914620D01*
X122169302Y-59834261D01*
X121896488Y-59834261D01*
X121492495Y-59914620D01*
X121034366Y-60220732D01*
X120728254Y-60678861D01*
X120620762Y-61219261D01*
X118139238Y-61219261D01*
X118031746Y-60678861D01*
X117725634Y-60220732D01*
X117267505Y-59914620D01*
X116863512Y-59834261D01*
X116590698Y-59834261D01*
X116186705Y-59914620D01*
X115728576Y-60220732D01*
X115422464Y-60678861D01*
X115314972Y-61219261D01*
X110410345Y-61219261D01*
X113209606Y-58420000D01*
X128076887Y-58420000D01*
X128188260Y-58979909D01*
X128505423Y-59454577D01*
X128980091Y-59771740D01*
X129398667Y-59855000D01*
X129681333Y-59855000D01*
X130099909Y-59771740D01*
X130574577Y-59454577D01*
X130891740Y-58979909D01*
X131003113Y-58420000D01*
X130946336Y-58134561D01*
X138265000Y-58134561D01*
X138265000Y-58705439D01*
X138483466Y-59232862D01*
X138887138Y-59636534D01*
X139414561Y-59855000D01*
X139985439Y-59855000D01*
X140512862Y-59636534D01*
X140916534Y-59232862D01*
X141135000Y-58705439D01*
X141135000Y-58420000D01*
X141995908Y-58420000D01*
X142111161Y-58999418D01*
X142439375Y-59490625D01*
X142930582Y-59818839D01*
X143363744Y-59905000D01*
X143656256Y-59905000D01*
X144089418Y-59818839D01*
X144580625Y-59490625D01*
X144780000Y-59192239D01*
X144979375Y-59490625D01*
X145470582Y-59818839D01*
X145903744Y-59905000D01*
X146196256Y-59905000D01*
X146629418Y-59818839D01*
X147120625Y-59490625D01*
X147320000Y-59192239D01*
X147519375Y-59490625D01*
X148010582Y-59818839D01*
X148443744Y-59905000D01*
X148736256Y-59905000D01*
X149169418Y-59818839D01*
X149660625Y-59490625D01*
X149675096Y-59468967D01*
X149741673Y-59629698D01*
X149920301Y-59808327D01*
X150153690Y-59905000D01*
X150844250Y-59905000D01*
X151003000Y-59746250D01*
X151003000Y-58547000D01*
X151257000Y-58547000D01*
X151257000Y-59746250D01*
X151415750Y-59905000D01*
X152106310Y-59905000D01*
X152339699Y-59808327D01*
X152458025Y-59690000D01*
X153476887Y-59690000D01*
X153588260Y-60249909D01*
X153905423Y-60724577D01*
X154380091Y-61041740D01*
X154798667Y-61125000D01*
X155081333Y-61125000D01*
X155499909Y-61041740D01*
X155974577Y-60724577D01*
X156291740Y-60249909D01*
X156403113Y-59690000D01*
X157286887Y-59690000D01*
X157398260Y-60249909D01*
X157715423Y-60724577D01*
X158190091Y-61041740D01*
X158608667Y-61125000D01*
X158891333Y-61125000D01*
X159309909Y-61041740D01*
X159784577Y-60724577D01*
X160101740Y-60249909D01*
X160213113Y-59690000D01*
X161096887Y-59690000D01*
X161208260Y-60249909D01*
X161525423Y-60724577D01*
X162000091Y-61041740D01*
X162418667Y-61125000D01*
X162701333Y-61125000D01*
X163119909Y-61041740D01*
X163594577Y-60724577D01*
X163911740Y-60249909D01*
X164023113Y-59690000D01*
X164906887Y-59690000D01*
X165018260Y-60249909D01*
X165335423Y-60724577D01*
X165810091Y-61041740D01*
X166228667Y-61125000D01*
X166511333Y-61125000D01*
X166929909Y-61041740D01*
X167404577Y-60724577D01*
X167721740Y-60249909D01*
X167833113Y-59690000D01*
X168716887Y-59690000D01*
X168828260Y-60249909D01*
X169145423Y-60724577D01*
X169620091Y-61041740D01*
X170038667Y-61125000D01*
X170321333Y-61125000D01*
X170739909Y-61041740D01*
X171214577Y-60724577D01*
X171531740Y-60249909D01*
X171643113Y-59690000D01*
X171531740Y-59130091D01*
X171214577Y-58655423D01*
X170739909Y-58338260D01*
X170321333Y-58255000D01*
X170038667Y-58255000D01*
X169620091Y-58338260D01*
X169145423Y-58655423D01*
X168828260Y-59130091D01*
X168716887Y-59690000D01*
X167833113Y-59690000D01*
X167721740Y-59130091D01*
X167404577Y-58655423D01*
X166929909Y-58338260D01*
X166511333Y-58255000D01*
X166228667Y-58255000D01*
X165810091Y-58338260D01*
X165335423Y-58655423D01*
X165018260Y-59130091D01*
X164906887Y-59690000D01*
X164023113Y-59690000D01*
X163911740Y-59130091D01*
X163594577Y-58655423D01*
X163119909Y-58338260D01*
X162701333Y-58255000D01*
X162418667Y-58255000D01*
X162000091Y-58338260D01*
X161525423Y-58655423D01*
X161208260Y-59130091D01*
X161096887Y-59690000D01*
X160213113Y-59690000D01*
X160101740Y-59130091D01*
X159784577Y-58655423D01*
X159309909Y-58338260D01*
X158891333Y-58255000D01*
X158608667Y-58255000D01*
X158190091Y-58338260D01*
X157715423Y-58655423D01*
X157398260Y-59130091D01*
X157286887Y-59690000D01*
X156403113Y-59690000D01*
X156291740Y-59130091D01*
X155974577Y-58655423D01*
X155499909Y-58338260D01*
X155081333Y-58255000D01*
X154798667Y-58255000D01*
X154380091Y-58338260D01*
X153905423Y-58655423D01*
X153588260Y-59130091D01*
X153476887Y-59690000D01*
X152458025Y-59690000D01*
X152518327Y-59629698D01*
X152615000Y-59396309D01*
X152615000Y-58705750D01*
X152456250Y-58547000D01*
X151257000Y-58547000D01*
X151003000Y-58547000D01*
X150983000Y-58547000D01*
X150983000Y-58293000D01*
X151003000Y-58293000D01*
X151003000Y-57093750D01*
X151257000Y-57093750D01*
X151257000Y-58293000D01*
X152456250Y-58293000D01*
X152615000Y-58134250D01*
X152615000Y-57443691D01*
X152518327Y-57210302D01*
X152339699Y-57031673D01*
X152106310Y-56935000D01*
X151415750Y-56935000D01*
X151257000Y-57093750D01*
X151003000Y-57093750D01*
X150844250Y-56935000D01*
X150153690Y-56935000D01*
X149920301Y-57031673D01*
X149741673Y-57210302D01*
X149675096Y-57371033D01*
X149660625Y-57349375D01*
X149169418Y-57021161D01*
X148736256Y-56935000D01*
X148443744Y-56935000D01*
X148010582Y-57021161D01*
X147519375Y-57349375D01*
X147320000Y-57647761D01*
X147120625Y-57349375D01*
X146629418Y-57021161D01*
X146196256Y-56935000D01*
X145903744Y-56935000D01*
X145470582Y-57021161D01*
X144979375Y-57349375D01*
X144780000Y-57647761D01*
X144580625Y-57349375D01*
X144089418Y-57021161D01*
X143656256Y-56935000D01*
X143363744Y-56935000D01*
X142930582Y-57021161D01*
X142439375Y-57349375D01*
X142111161Y-57840582D01*
X141995908Y-58420000D01*
X141135000Y-58420000D01*
X141135000Y-58134561D01*
X140916534Y-57607138D01*
X140512862Y-57203466D01*
X139985439Y-56985000D01*
X139414561Y-56985000D01*
X138887138Y-57203466D01*
X138483466Y-57607138D01*
X138265000Y-58134561D01*
X130946336Y-58134561D01*
X130891740Y-57860091D01*
X130574577Y-57385423D01*
X130099909Y-57068260D01*
X129681333Y-56985000D01*
X129398667Y-56985000D01*
X128980091Y-57068260D01*
X128505423Y-57385423D01*
X128188260Y-57860091D01*
X128076887Y-58420000D01*
X113209606Y-58420000D01*
X115622606Y-56007000D01*
X124460000Y-56007000D01*
X124508601Y-55997333D01*
X124549803Y-55969803D01*
X124577333Y-55928601D01*
X124587000Y-55880000D01*
X124587000Y-54610000D01*
X128076887Y-54610000D01*
X128188260Y-55169909D01*
X128505423Y-55644577D01*
X128980091Y-55961740D01*
X129398667Y-56045000D01*
X129681333Y-56045000D01*
X130099909Y-55961740D01*
X130574577Y-55644577D01*
X130891740Y-55169909D01*
X131003113Y-54610000D01*
X130962163Y-54404126D01*
X135363000Y-54404126D01*
X135363000Y-54815874D01*
X135520569Y-55196280D01*
X135811720Y-55487431D01*
X136192126Y-55645000D01*
X136603874Y-55645000D01*
X136984280Y-55487431D01*
X137101711Y-55370000D01*
X138461570Y-55370000D01*
X138483466Y-55422862D01*
X138887138Y-55826534D01*
X139414561Y-56045000D01*
X139985439Y-56045000D01*
X140512862Y-55826534D01*
X140916534Y-55422862D01*
X141135000Y-54895439D01*
X141135000Y-54324561D01*
X140916534Y-53797138D01*
X140512862Y-53393466D01*
X139985439Y-53175000D01*
X139414561Y-53175000D01*
X138887138Y-53393466D01*
X138483466Y-53797138D01*
X138461570Y-53850000D01*
X137101711Y-53850000D01*
X136984280Y-53732569D01*
X136603874Y-53575000D01*
X136192126Y-53575000D01*
X135811720Y-53732569D01*
X135520569Y-54023720D01*
X135363000Y-54404126D01*
X130962163Y-54404126D01*
X130891740Y-54050091D01*
X130574577Y-53575423D01*
X130099909Y-53258260D01*
X129681333Y-53175000D01*
X129398667Y-53175000D01*
X128980091Y-53258260D01*
X128505423Y-53575423D01*
X128188260Y-54050091D01*
X128076887Y-54610000D01*
X124587000Y-54610000D01*
X124587000Y-50800000D01*
X144535908Y-50800000D01*
X144651161Y-51379418D01*
X144979375Y-51870625D01*
X145277761Y-52070000D01*
X144979375Y-52269375D01*
X144651161Y-52760582D01*
X144535908Y-53340000D01*
X144651161Y-53919418D01*
X144979375Y-54410625D01*
X145470582Y-54738839D01*
X145903744Y-54825000D01*
X146196256Y-54825000D01*
X146629418Y-54738839D01*
X147120625Y-54410625D01*
X147448839Y-53919418D01*
X147564092Y-53340000D01*
X147448839Y-52760582D01*
X147120625Y-52269375D01*
X146822239Y-52070000D01*
X147120625Y-51870625D01*
X147448839Y-51379418D01*
X147507252Y-51085750D01*
X149645000Y-51085750D01*
X149645000Y-51776310D01*
X149741673Y-52009699D01*
X149920302Y-52188327D01*
X150153691Y-52285000D01*
X150844250Y-52285000D01*
X151003000Y-52126250D01*
X151003000Y-50927000D01*
X151257000Y-50927000D01*
X151257000Y-52126250D01*
X151415750Y-52285000D01*
X152106309Y-52285000D01*
X152339698Y-52188327D01*
X152518327Y-52009699D01*
X152615000Y-51776310D01*
X152615000Y-51085750D01*
X152456250Y-50927000D01*
X151257000Y-50927000D01*
X151003000Y-50927000D01*
X149803750Y-50927000D01*
X149645000Y-51085750D01*
X147507252Y-51085750D01*
X147564092Y-50800000D01*
X147448839Y-50220582D01*
X147120625Y-49729375D01*
X147098967Y-49714904D01*
X147259698Y-49648327D01*
X147438327Y-49469699D01*
X147535000Y-49236310D01*
X147535000Y-48545750D01*
X147376250Y-48387000D01*
X146177000Y-48387000D01*
X146177000Y-48407000D01*
X145923000Y-48407000D01*
X145923000Y-48387000D01*
X144723750Y-48387000D01*
X144565000Y-48545750D01*
X144565000Y-49236310D01*
X144661673Y-49469699D01*
X144840302Y-49648327D01*
X145001033Y-49714904D01*
X144979375Y-49729375D01*
X144651161Y-50220582D01*
X144535908Y-50800000D01*
X124587000Y-50800000D01*
X124587000Y-47410000D01*
X128042560Y-47410000D01*
X128042560Y-49110000D01*
X128091843Y-49357765D01*
X128232191Y-49567809D01*
X128442235Y-49708157D01*
X128690000Y-49757440D01*
X130390000Y-49757440D01*
X130637765Y-49708157D01*
X130847809Y-49567809D01*
X130988157Y-49357765D01*
X131008739Y-49254292D01*
X131313076Y-49531645D01*
X131723110Y-49701476D01*
X131953000Y-49580155D01*
X131953000Y-48387000D01*
X131933000Y-48387000D01*
X131933000Y-48133000D01*
X131953000Y-48133000D01*
X131953000Y-46939845D01*
X132207000Y-46939845D01*
X132207000Y-48133000D01*
X132227000Y-48133000D01*
X132227000Y-48387000D01*
X132207000Y-48387000D01*
X132207000Y-49580155D01*
X132436890Y-49701476D01*
X132846924Y-49531645D01*
X133275183Y-49141358D01*
X133336157Y-49011522D01*
X133549375Y-49330625D01*
X134040582Y-49658839D01*
X134473744Y-49745000D01*
X134766256Y-49745000D01*
X135199418Y-49658839D01*
X135690625Y-49330625D01*
X135890000Y-49032239D01*
X136089375Y-49330625D01*
X136580582Y-49658839D01*
X137013744Y-49745000D01*
X137306256Y-49745000D01*
X137739418Y-49658839D01*
X138230625Y-49330625D01*
X138558839Y-48839418D01*
X138674092Y-48260000D01*
X149615908Y-48260000D01*
X149731161Y-48839418D01*
X150059375Y-49330625D01*
X150081033Y-49345096D01*
X149920302Y-49411673D01*
X149741673Y-49590301D01*
X149645000Y-49823690D01*
X149645000Y-50514250D01*
X149803750Y-50673000D01*
X151003000Y-50673000D01*
X151003000Y-50653000D01*
X151257000Y-50653000D01*
X151257000Y-50673000D01*
X152456250Y-50673000D01*
X152591505Y-50537745D01*
X154111861Y-50537745D01*
X154185995Y-50783864D01*
X154723223Y-50976965D01*
X155293454Y-50949778D01*
X155694005Y-50783864D01*
X155768139Y-50537745D01*
X157921861Y-50537745D01*
X157995995Y-50783864D01*
X158533223Y-50976965D01*
X159103454Y-50949778D01*
X159504005Y-50783864D01*
X159578139Y-50537745D01*
X161731861Y-50537745D01*
X161805995Y-50783864D01*
X162343223Y-50976965D01*
X162913454Y-50949778D01*
X163314005Y-50783864D01*
X163388139Y-50537745D01*
X165541861Y-50537745D01*
X165615995Y-50783864D01*
X166153223Y-50976965D01*
X166723454Y-50949778D01*
X167124005Y-50783864D01*
X167198139Y-50537745D01*
X169351861Y-50537745D01*
X169425995Y-50783864D01*
X169963223Y-50976965D01*
X170533454Y-50949778D01*
X170934005Y-50783864D01*
X171008139Y-50537745D01*
X170925282Y-50454887D01*
X173525000Y-50454887D01*
X173525000Y-51145113D01*
X173789138Y-51782799D01*
X174277201Y-52270862D01*
X174914887Y-52535000D01*
X175605113Y-52535000D01*
X176242799Y-52270862D01*
X176730862Y-51782799D01*
X176995000Y-51145113D01*
X176995000Y-50454887D01*
X176730862Y-49817201D01*
X176242799Y-49329138D01*
X175605113Y-49065000D01*
X174914887Y-49065000D01*
X174277201Y-49329138D01*
X173789138Y-49817201D01*
X173525000Y-50454887D01*
X170925282Y-50454887D01*
X170180000Y-49709605D01*
X169351861Y-50537745D01*
X167198139Y-50537745D01*
X166370000Y-49709605D01*
X165541861Y-50537745D01*
X163388139Y-50537745D01*
X162560000Y-49709605D01*
X161731861Y-50537745D01*
X159578139Y-50537745D01*
X158750000Y-49709605D01*
X157921861Y-50537745D01*
X155768139Y-50537745D01*
X154940000Y-49709605D01*
X154111861Y-50537745D01*
X152591505Y-50537745D01*
X152615000Y-50514250D01*
X152615000Y-49823690D01*
X152518327Y-49590301D01*
X152339698Y-49411673D01*
X152178967Y-49345096D01*
X152200625Y-49330625D01*
X152212252Y-49313223D01*
X153493035Y-49313223D01*
X153520222Y-49883454D01*
X153686136Y-50284005D01*
X153932255Y-50358139D01*
X154760395Y-49530000D01*
X155119605Y-49530000D01*
X155947745Y-50358139D01*
X156193864Y-50284005D01*
X156386965Y-49746777D01*
X156366295Y-49313223D01*
X157303035Y-49313223D01*
X157330222Y-49883454D01*
X157496136Y-50284005D01*
X157742255Y-50358139D01*
X158570395Y-49530000D01*
X158929605Y-49530000D01*
X159757745Y-50358139D01*
X160003864Y-50284005D01*
X160196965Y-49746777D01*
X160176295Y-49313223D01*
X161113035Y-49313223D01*
X161140222Y-49883454D01*
X161306136Y-50284005D01*
X161552255Y-50358139D01*
X162380395Y-49530000D01*
X162739605Y-49530000D01*
X163567745Y-50358139D01*
X163813864Y-50284005D01*
X164006965Y-49746777D01*
X163986295Y-49313223D01*
X164923035Y-49313223D01*
X164950222Y-49883454D01*
X165116136Y-50284005D01*
X165362255Y-50358139D01*
X166190395Y-49530000D01*
X166549605Y-49530000D01*
X167377745Y-50358139D01*
X167623864Y-50284005D01*
X167816965Y-49746777D01*
X167796295Y-49313223D01*
X168733035Y-49313223D01*
X168760222Y-49883454D01*
X168926136Y-50284005D01*
X169172255Y-50358139D01*
X170000395Y-49530000D01*
X170359605Y-49530000D01*
X171187745Y-50358139D01*
X171433864Y-50284005D01*
X171626965Y-49746777D01*
X171599778Y-49176546D01*
X171433864Y-48775995D01*
X171187745Y-48701861D01*
X170359605Y-49530000D01*
X170000395Y-49530000D01*
X169172255Y-48701861D01*
X168926136Y-48775995D01*
X168733035Y-49313223D01*
X167796295Y-49313223D01*
X167789778Y-49176546D01*
X167623864Y-48775995D01*
X167377745Y-48701861D01*
X166549605Y-49530000D01*
X166190395Y-49530000D01*
X165362255Y-48701861D01*
X165116136Y-48775995D01*
X164923035Y-49313223D01*
X163986295Y-49313223D01*
X163979778Y-49176546D01*
X163813864Y-48775995D01*
X163567745Y-48701861D01*
X162739605Y-49530000D01*
X162380395Y-49530000D01*
X161552255Y-48701861D01*
X161306136Y-48775995D01*
X161113035Y-49313223D01*
X160176295Y-49313223D01*
X160169778Y-49176546D01*
X160003864Y-48775995D01*
X159757745Y-48701861D01*
X158929605Y-49530000D01*
X158570395Y-49530000D01*
X157742255Y-48701861D01*
X157496136Y-48775995D01*
X157303035Y-49313223D01*
X156366295Y-49313223D01*
X156359778Y-49176546D01*
X156193864Y-48775995D01*
X155947745Y-48701861D01*
X155119605Y-49530000D01*
X154760395Y-49530000D01*
X153932255Y-48701861D01*
X153686136Y-48775995D01*
X153493035Y-49313223D01*
X152212252Y-49313223D01*
X152528839Y-48839418D01*
X152591926Y-48522255D01*
X154111861Y-48522255D01*
X154940000Y-49350395D01*
X155768139Y-48522255D01*
X157921861Y-48522255D01*
X158750000Y-49350395D01*
X159578139Y-48522255D01*
X161731861Y-48522255D01*
X162560000Y-49350395D01*
X163388139Y-48522255D01*
X165541861Y-48522255D01*
X166370000Y-49350395D01*
X167198139Y-48522255D01*
X169351861Y-48522255D01*
X170180000Y-49350395D01*
X171008139Y-48522255D01*
X170934005Y-48276136D01*
X170396777Y-48083035D01*
X169826546Y-48110222D01*
X169425995Y-48276136D01*
X169351861Y-48522255D01*
X167198139Y-48522255D01*
X167124005Y-48276136D01*
X166586777Y-48083035D01*
X166016546Y-48110222D01*
X165615995Y-48276136D01*
X165541861Y-48522255D01*
X163388139Y-48522255D01*
X163314005Y-48276136D01*
X162776777Y-48083035D01*
X162206546Y-48110222D01*
X161805995Y-48276136D01*
X161731861Y-48522255D01*
X159578139Y-48522255D01*
X159504005Y-48276136D01*
X158966777Y-48083035D01*
X158396546Y-48110222D01*
X157995995Y-48276136D01*
X157921861Y-48522255D01*
X155768139Y-48522255D01*
X155694005Y-48276136D01*
X155156777Y-48083035D01*
X154586546Y-48110222D01*
X154185995Y-48276136D01*
X154111861Y-48522255D01*
X152591926Y-48522255D01*
X152644092Y-48260000D01*
X152528839Y-47680582D01*
X152200625Y-47189375D01*
X151709418Y-46861161D01*
X151276256Y-46775000D01*
X150983744Y-46775000D01*
X150550582Y-46861161D01*
X150059375Y-47189375D01*
X149731161Y-47680582D01*
X149615908Y-48260000D01*
X138674092Y-48260000D01*
X138558839Y-47680582D01*
X138293645Y-47283690D01*
X144565000Y-47283690D01*
X144565000Y-47974250D01*
X144723750Y-48133000D01*
X145923000Y-48133000D01*
X145923000Y-46933750D01*
X146177000Y-46933750D01*
X146177000Y-48133000D01*
X147376250Y-48133000D01*
X147535000Y-47974250D01*
X147535000Y-47283690D01*
X147438327Y-47050301D01*
X147259698Y-46871673D01*
X147026309Y-46775000D01*
X146335750Y-46775000D01*
X146177000Y-46933750D01*
X145923000Y-46933750D01*
X145764250Y-46775000D01*
X145073691Y-46775000D01*
X144840302Y-46871673D01*
X144661673Y-47050301D01*
X144565000Y-47283690D01*
X138293645Y-47283690D01*
X138230625Y-47189375D01*
X137739418Y-46861161D01*
X137306256Y-46775000D01*
X137013744Y-46775000D01*
X136580582Y-46861161D01*
X136089375Y-47189375D01*
X135890000Y-47487761D01*
X135690625Y-47189375D01*
X135199418Y-46861161D01*
X134766256Y-46775000D01*
X134473744Y-46775000D01*
X134040582Y-46861161D01*
X133549375Y-47189375D01*
X133336157Y-47508478D01*
X133275183Y-47378642D01*
X132846924Y-46988355D01*
X132436890Y-46818524D01*
X132207000Y-46939845D01*
X131953000Y-46939845D01*
X131723110Y-46818524D01*
X131313076Y-46988355D01*
X131008739Y-47265708D01*
X130988157Y-47162235D01*
X130847809Y-46952191D01*
X130637765Y-46811843D01*
X130390000Y-46762560D01*
X128690000Y-46762560D01*
X128442235Y-46811843D01*
X128232191Y-46952191D01*
X128091843Y-47162235D01*
X128042560Y-47410000D01*
X124587000Y-47410000D01*
X124587000Y-45847000D01*
X177673000Y-45847000D01*
X177673000Y-116713000D01*
G04 #@! TD*
M02*
