<?xml version="1.0" standalone="no"?>
 <!DOCTYPE svg PUBLIC "-//W3C//DTD SVG 1.1//EN" 
 "http://www.w3.org/Graphics/SVG/1.1/DTD/svg11.dtd"> 
<svg xmlns="http://www.w3.org/2000/svg" version="1.1" 
    width="7.25678cm" height="7.25678cm" viewBox="0 0 28570 28570 ">
<title>SVG Picture created as ThrottleControl-F.CrtYd.svg date 2019/02/17 23:49:16 </title>
  <desc>Picture generated by PCBNEW </desc>
<g style="fill:#000000; fill-opacity:1;stroke:#000000; stroke-opacity:1;
stroke-linecap:round; stroke-linejoin:round; "
 transform="translate(0 0) scale(1 1)">
</g>
<g style="fill:#000000; fill-opacity:0.0; 
stroke:#000000; stroke-width:-0.000393701; stroke-opacity:1; 
stroke-linecap:round; stroke-linejoin:round;">
</g>
<g style="fill:#000000; fill-opacity:0.0; 
stroke:#000000; stroke-width:19.685; stroke-opacity:1; 
stroke-linecap:round; stroke-linejoin:round;">
<circle cx="25289.4" cy="26289.4" r="964.567" /> 
<circle cx="27289.4" cy="2289.37" r="964.567" /> 
<path d="M18498 4580
L14088 4580
" />
<path d="M14088 4580
L14088 5998
" />
<path d="M14088 5998
L18498 5998
" />
<path d="M18498 5998
L18498 4580
" />
<path d="M25629 20713
L27047 20713
" />
<path d="M25629 17308
L25629 20713
" />
<path d="M27047 17308
L25629 17308
" />
<path d="M27047 20713
L27047 17308
" />
<path d="M27047 16713
L27047 13308
" />
<path d="M27047 13308
L25629 13308
" />
<path d="M25629 13308
L25629 16713
" />
<path d="M25629 16713
L27047 16713
" />
<path d="M27047 24713
L27047 21308
" />
<path d="M27047 21308
L25629 21308
" />
<path d="M25629 21308
L25629 24713
" />
<path d="M25629 24713
L27047 24713
" />
<path d="M20129 25296
L20129 26713
" />
<path d="M23535 25296
L20129 25296
" />
<path d="M23535 26713
L23535 25296
" />
<path d="M20129 26713
L23535 26713
" />
<path d="M8129 19796
L8129 25210
" />
<path d="M8129 25210
L9547 25210
" />
<path d="M9547 25210
L9547 19796
" />
<path d="M9547 19796
L8129 19796
" />
<path d="M14080 11580
L14080 12998
" />
<path d="M19494 11580
L14080 11580
" />
<path d="M19494 12998
L19494 11580
" />
<path d="M14080 12998
L19494 12998
" />
<path d="M20080 12998
L25494 12998
" />
<path d="M25494 12998
L25494 11580
" />
<path d="M25494 11580
L20080 11580
" />
<path d="M20080 11580
L20080 12998
" />
<path d="M25580 9998
L26998 9998
" />
<path d="M25580 6592
L25580 9998
" />
<path d="M26998 6592
L25580 6592
" />
<path d="M26998 9998
L26998 6592
" />
<path d="M15080 580
L15080 3986
" />
<path d="M15080 3986
L16498 3986
" />
<path d="M16498 3986
L16498 580
" />
<path d="M16498 580
L15080 580
" />
<path d="M18498 2998
L18498 576
" />
<path d="M18498 576
L17080 576
" />
<path d="M17080 576
L17080 2998
" />
<path d="M17080 2998
L18498 2998
" />
<path d="M8875 5879
L13702 5879
" />
<path d="M8875 4698
L8875 5879
" />
<path d="M13702 4698
L8875 4698
" />
<path d="M13702 5879
L13702 4698
" />
<path d="M13702 4379
L13702 3198
" />
<path d="M13702 3198
L8875 3198
" />
<path d="M8875 3198
L8875 4379
" />
<path d="M8875 4379
L13702 4379
" />
<path d="M14751 13414
L9925 13414
" />
<path d="M14751 14595
L14751 13414
" />
<path d="M9925 14595
L14751 14595
" />
<path d="M9925 13414
L9925 14595
" />
<path d="M9925 14914
L9925 16095
" />
<path d="M9925 16095
L14751 16095
" />
<path d="M14751 16095
L14751 14914
" />
<path d="M14751 14914
L9925 14914
" />
<path d="M14751 16414
L9925 16414
" />
<path d="M14751 17595
L14751 16414
" />
<path d="M9925 17595
L14751 17595
" />
<path d="M9925 16414
L9925 17595
" />
<path d="M9925 17914
L9925 19095
" />
<path d="M9925 19095
L14751 19095
" />
<path d="M14751 19095
L14751 17914
" />
<path d="M14751 17914
L9925 17914
" />
<path d="M14751 19414
L9925 19414
" />
<path d="M14751 20595
L14751 19414
" />
<path d="M9925 20595
L14751 20595
" />
<path d="M9925 19414
L9925 20595
" />
<path d="M9925 20914
L9925 22095
" />
<path d="M9925 22095
L14751 22095
" />
<path d="M14751 22095
L14751 20914
" />
<path d="M14751 20914
L9925 20914
" />
<path d="M14751 22414
L9925 22414
" />
<path d="M14751 23595
L14751 22414
" />
<path d="M9925 23595
L14751 23595
" />
<path d="M9925 22414
L9925 23595
" />
<path d="M9925 23914
L9925 25095
" />
<path d="M9925 25095
L14751 25095
" />
<path d="M14751 25095
L14751 23914
" />
<path d="M14751 23914
L9925 23914
" />
<path d="M19925 25095
L24751 25095
" />
<path d="M19925 23914
L19925 25095
" />
<path d="M24751 23914
L19925 23914
" />
<path d="M24751 25095
L24751 23914
" />
<path d="M24751 23595
L24751 22414
" />
<path d="M24751 22414
L19925 22414
" />
<path d="M19925 22414
L19925 23595
" />
<path d="M19925 23595
L24751 23595
" />
<path d="M19925 22095
L24751 22095
" />
<path d="M19925 20914
L19925 22095
" />
<path d="M24751 20914
L19925 20914
" />
<path d="M24751 22095
L24751 20914
" />
<path d="M24751 20595
L24751 19414
" />
<path d="M24751 19414
L19925 19414
" />
<path d="M19925 19414
L19925 20595
" />
<path d="M19925 20595
L24751 20595
" />
<path d="M19925 19095
L24751 19095
" />
<path d="M19925 17914
L19925 19095
" />
<path d="M24751 17914
L19925 17914
" />
<path d="M24751 19095
L24751 17914
" />
<path d="M24751 17595
L24751 16414
" />
<path d="M24751 16414
L19925 16414
" />
<path d="M19925 16414
L19925 17595
" />
<path d="M19925 17595
L24751 17595
" />
<path d="M19925 16095
L24751 16095
" />
<path d="M19925 14914
L19925 16095
" />
<path d="M24751 14914
L19925 14914
" />
<path d="M24751 16095
L24751 14914
" />
<path d="M24751 14595
L24751 13414
" />
<path d="M24751 13414
L19925 13414
" />
<path d="M19925 13414
L19925 14595
" />
<path d="M19925 14595
L24751 14595
" />
<path d="M25879 1375
L24698 1375
" />
<path d="M24698 1375
L24698 6202
" />
<path d="M24698 6202
L25879 6202
" />
<path d="M25879 6202
L25879 1375
" />
<path d="M24379 6202
L24379 1375
" />
<path d="M23198 6202
L24379 6202
" />
<path d="M23198 1375
L23198 6202
" />
<path d="M24379 1375
L23198 1375
" />
<path d="M22879 1375
L21698 1375
" />
<path d="M21698 1375
L21698 6202
" />
<path d="M21698 6202
L22879 6202
" />
<path d="M22879 6202
L22879 1375
" />
<path d="M21379 1375
L20198 1375
" />
<path d="M20198 1375
L20198 6202
" />
<path d="M20198 6202
L21379 6202
" />
<path d="M21379 6202
L21379 1375
" />
<path d="M19879 6202
L19879 1375
" />
<path d="M18698 6202
L19879 6202
" />
<path d="M18698 1375
L18698 6202
" />
<path d="M19879 1375
L18698 1375
" />
<circle cx="5289.37" cy="10289.4" r="4685.04" /> 
<path d="M15228 13375
L15228 27647
" />
<path d="M15228 27647
L19440 27647
" />
<path d="M19440 27647
L19440 13375
" />
<path d="M19440 13375
L15228 13375
" />
<path d="M25419 10891
L25419 6679
" />
<path d="M11147 10891
L25419 10891
" />
<path d="M11147 6679
L11147 10891
" />
<path d="M25419 6679
L11147 6679
" />
<path d="M8580 1998
L12990 1998
" />
<path d="M12990 1998
L12990 580
" />
<path d="M12990 580
L8580 580
" />
<path d="M8580 580
L8580 1998
" />
<circle cx="5289.37" cy="17789.4" r="964.567" /> 
</g>
<g style="fill:#000000; fill-opacity:0.0; 
stroke:#000000; stroke-width:78.7402; stroke-opacity:1; 
stroke-linecap:round; stroke-linejoin:round;">
<path d="M28539 28539
L28539 39
" />
<path d="M11039 28539
L28539 28539
" />
<path d="M39 17539
L11039 28539
" />
<path d="M39 7789
L39 17539
" />
<path d="M3539 4039
L39 7789
" />
<path d="M7039 4039
L3539 4039
" />
<path d="M7039 39
L7039 4039
" />
<path d="M28539 39
L7039 39
" />
</g> 
</svg>
