G04 #@! TF.GenerationSoftware,KiCad,Pcbnew,(5.0.1)-4*
G04 #@! TF.CreationDate,2019-02-10T23:22:42-08:00*
G04 #@! TF.ProjectId,Shield,536869656C642E6B696361645F706362,rev?*
G04 #@! TF.SameCoordinates,Original*
G04 #@! TF.FileFunction,Copper,L1,Top,Signal*
G04 #@! TF.FilePolarity,Positive*
%FSLAX46Y46*%
G04 Gerber Fmt 4.6, Leading zero omitted, Abs format (unit mm)*
G04 Created by KiCad (PCBNEW (5.0.1)-4) date 2/10/2019 11:22:42 PM*
%MOMM*%
%LPD*%
G01*
G04 APERTURE LIST*
G04 #@! TA.AperFunction,ComponentPad*
%ADD10O,1.727200X2.032000*%
G04 #@! TD*
G04 #@! TA.AperFunction,ComponentPad*
%ADD11C,4.064000*%
G04 #@! TD*
G04 #@! TA.AperFunction,ComponentPad*
%ADD12O,1.600000X1.600000*%
G04 #@! TD*
G04 #@! TA.AperFunction,ComponentPad*
%ADD13R,1.600000X1.600000*%
G04 #@! TD*
G04 #@! TA.AperFunction,ComponentPad*
%ADD14O,1.700000X1.700000*%
G04 #@! TD*
G04 #@! TA.AperFunction,ComponentPad*
%ADD15R,1.700000X1.700000*%
G04 #@! TD*
G04 #@! TA.AperFunction,ComponentPad*
%ADD16R,1.100000X1.800000*%
G04 #@! TD*
G04 #@! TA.AperFunction,Conductor*
%ADD17C,0.100000*%
G04 #@! TD*
G04 #@! TA.AperFunction,ComponentPad*
%ADD18C,1.100000*%
G04 #@! TD*
G04 #@! TA.AperFunction,ComponentPad*
%ADD19C,1.600000*%
G04 #@! TD*
G04 #@! TA.AperFunction,ViaPad*
%ADD20C,0.600000*%
G04 #@! TD*
G04 #@! TA.AperFunction,Conductor*
%ADD21C,0.600000*%
G04 #@! TD*
G04 #@! TA.AperFunction,Conductor*
%ADD22C,0.250000*%
G04 #@! TD*
G04 #@! TA.AperFunction,Conductor*
%ADD23C,0.254000*%
G04 #@! TD*
G04 APERTURE END LIST*
D10*
G04 #@! TO.P,P1,1*
G04 #@! TO.N,Net-(P1-Pad1)*
X138938000Y-123825000D03*
G04 #@! TO.P,P1,2*
G04 #@! TO.N,/IOREF*
X141478000Y-123825000D03*
G04 #@! TO.P,P1,3*
G04 #@! TO.N,/Reset*
X144018000Y-123825000D03*
G04 #@! TO.P,P1,4*
G04 #@! TO.N,+3V3*
X146558000Y-123825000D03*
G04 #@! TO.P,P1,5*
G04 #@! TO.N,+5V*
X149098000Y-123825000D03*
G04 #@! TO.P,P1,6*
G04 #@! TO.N,GND*
X151638000Y-123825000D03*
G04 #@! TO.P,P1,7*
X154178000Y-123825000D03*
G04 #@! TO.P,P1,8*
G04 #@! TO.N,/Vin*
X156718000Y-123825000D03*
G04 #@! TD*
G04 #@! TO.P,P2,1*
G04 #@! TO.N,/A0*
X161798000Y-123825000D03*
G04 #@! TO.P,P2,2*
G04 #@! TO.N,/A1*
X164338000Y-123825000D03*
G04 #@! TO.P,P2,3*
G04 #@! TO.N,/A2*
X166878000Y-123825000D03*
G04 #@! TO.P,P2,4*
G04 #@! TO.N,/A3*
X169418000Y-123825000D03*
G04 #@! TO.P,P2,5*
G04 #@! TO.N,/A4(SDA)*
X171958000Y-123825000D03*
G04 #@! TO.P,P2,6*
G04 #@! TO.N,/A5(SCL)*
X174498000Y-123825000D03*
G04 #@! TD*
G04 #@! TO.P,P3,1*
G04 #@! TO.N,/A5(SCL)*
X129794000Y-75565000D03*
G04 #@! TO.P,P3,2*
G04 #@! TO.N,/A4(SDA)*
X132334000Y-75565000D03*
G04 #@! TO.P,P3,3*
G04 #@! TO.N,/AREF*
X134874000Y-75565000D03*
G04 #@! TO.P,P3,4*
G04 #@! TO.N,GND*
X137414000Y-75565000D03*
G04 #@! TO.P,P3,5*
G04 #@! TO.N,/13(SCK)*
X139954000Y-75565000D03*
G04 #@! TO.P,P3,6*
G04 #@! TO.N,/12(MISO)*
X142494000Y-75565000D03*
G04 #@! TO.P,P3,7*
G04 #@! TO.N,/11(\002A\002A/MOSI)*
X145034000Y-75565000D03*
G04 #@! TO.P,P3,8*
G04 #@! TO.N,/10(\002A\002A/SS)*
X147574000Y-75565000D03*
G04 #@! TO.P,P3,9*
G04 #@! TO.N,/9(\002A\002A)*
X150114000Y-75565000D03*
G04 #@! TO.P,P3,10*
G04 #@! TO.N,/8*
X152654000Y-75565000D03*
G04 #@! TD*
G04 #@! TO.P,P4,1*
G04 #@! TO.N,/7*
X156718000Y-75565000D03*
G04 #@! TO.P,P4,2*
G04 #@! TO.N,/6(\002A\002A)*
X159258000Y-75565000D03*
G04 #@! TO.P,P4,3*
G04 #@! TO.N,/5(\002A\002A)*
X161798000Y-75565000D03*
G04 #@! TO.P,P4,4*
G04 #@! TO.N,/4*
X164338000Y-75565000D03*
G04 #@! TO.P,P4,5*
G04 #@! TO.N,/3(\002A\002A)*
X166878000Y-75565000D03*
G04 #@! TO.P,P4,6*
G04 #@! TO.N,/2*
X169418000Y-75565000D03*
G04 #@! TO.P,P4,7*
G04 #@! TO.N,/1(Tx)*
X171958000Y-75565000D03*
G04 #@! TO.P,P4,8*
G04 #@! TO.N,/0(Rx)*
X174498000Y-75565000D03*
G04 #@! TD*
D11*
G04 #@! TO.P,P5,1*
G04 #@! TO.N,Net-(P5-Pad1)*
X124968000Y-123825000D03*
G04 #@! TD*
G04 #@! TO.P,P6,1*
G04 #@! TO.N,Net-(P6-Pad1)*
X177038000Y-118745000D03*
G04 #@! TD*
G04 #@! TO.P,P7,1*
G04 #@! TO.N,Net-(P7-Pad1)*
X126238000Y-75565000D03*
G04 #@! TD*
G04 #@! TO.P,P8,1*
G04 #@! TO.N,Net-(P8-Pad1)*
X177038000Y-90805000D03*
G04 #@! TD*
D12*
G04 #@! TO.P,D1,2*
G04 #@! TO.N,/Ltest*
X170942000Y-86487000D03*
D13*
G04 #@! TO.P,D1,1*
G04 #@! TO.N,Net-(D1-Pad1)*
X170942000Y-78867000D03*
G04 #@! TD*
G04 #@! TO.P,D2,1*
G04 #@! TO.N,Net-(D2-Pad1)*
X173736000Y-78867000D03*
D12*
G04 #@! TO.P,D2,2*
G04 #@! TO.N,/Ltest*
X173736000Y-86487000D03*
G04 #@! TD*
D13*
G04 #@! TO.P,D3,1*
G04 #@! TO.N,Net-(D3-Pad1)*
X172466000Y-96393000D03*
D12*
G04 #@! TO.P,D3,2*
G04 #@! TO.N,/Ltest*
X172466000Y-88773000D03*
G04 #@! TD*
D14*
G04 #@! TO.P,J1,8*
G04 #@! TO.N,/Crx*
X163042662Y-99206304D03*
G04 #@! TO.P,J1,7*
G04 #@! TO.N,/Ctx*
X163042662Y-101746304D03*
G04 #@! TO.P,J1,6*
G04 #@! TO.N,/Cty*
X163042662Y-104286304D03*
G04 #@! TO.P,J1,5*
G04 #@! TO.N,/Cry*
X163042662Y-106826304D03*
G04 #@! TO.P,J1,4*
G04 #@! TO.N,/Thr*
X163042662Y-109366304D03*
G04 #@! TO.P,J1,3*
G04 #@! TO.N,/T_x*
X163042662Y-111906304D03*
G04 #@! TO.P,J1,2*
G04 #@! TO.N,/T_y*
X163042662Y-114446304D03*
D15*
G04 #@! TO.P,J1,1*
G04 #@! TO.N,/T_z*
X163042662Y-116986304D03*
G04 #@! TD*
G04 #@! TO.P,J2,1*
G04 #@! TO.N,/R_z*
X133197662Y-96666304D03*
D14*
G04 #@! TO.P,J2,2*
G04 #@! TO.N,/R_y*
X133197662Y-99206304D03*
G04 #@! TO.P,J2,3*
G04 #@! TO.N,/R_x*
X133197662Y-101746304D03*
G04 #@! TO.P,J2,4*
G04 #@! TO.N,/Au1*
X133197662Y-104286304D03*
G04 #@! TO.P,J2,5*
G04 #@! TO.N,/Au3*
X133197662Y-106826304D03*
G04 #@! TO.P,J2,6*
G04 #@! TO.N,/Au5*
X133197662Y-109366304D03*
G04 #@! TO.P,J2,7*
G04 #@! TO.N,/Au4*
X133197662Y-111906304D03*
G04 #@! TO.P,J2,8*
G04 #@! TO.N,/Au2*
X133197662Y-114446304D03*
G04 #@! TD*
D15*
G04 #@! TO.P,J3,1*
G04 #@! TO.N,+5V*
X168122662Y-116986304D03*
D14*
G04 #@! TO.P,J3,2*
X168122662Y-114446304D03*
G04 #@! TO.P,J3,3*
X168122662Y-111906304D03*
G04 #@! TO.P,J3,4*
X168122662Y-109366304D03*
G04 #@! TO.P,J3,5*
X168122662Y-106826304D03*
G04 #@! TO.P,J3,6*
X168122662Y-104286304D03*
G04 #@! TO.P,J3,7*
X168122662Y-101746304D03*
G04 #@! TO.P,J3,8*
X168122662Y-99206304D03*
G04 #@! TD*
D15*
G04 #@! TO.P,J4,1*
G04 #@! TO.N,+5V*
X128117662Y-96666304D03*
D14*
G04 #@! TO.P,J4,2*
X128117662Y-99206304D03*
G04 #@! TO.P,J4,3*
X128117662Y-101746304D03*
G04 #@! TO.P,J4,4*
X128117662Y-104286304D03*
G04 #@! TO.P,J4,5*
X128117662Y-106826304D03*
G04 #@! TO.P,J4,6*
X128117662Y-109366304D03*
G04 #@! TO.P,J4,7*
X128117662Y-111906304D03*
G04 #@! TO.P,J4,8*
X128117662Y-114446304D03*
G04 #@! TD*
G04 #@! TO.P,J5,8*
G04 #@! TO.N,GND*
X165582662Y-99206304D03*
G04 #@! TO.P,J5,7*
X165582662Y-101746304D03*
G04 #@! TO.P,J5,6*
X165582662Y-104286304D03*
G04 #@! TO.P,J5,5*
X165582662Y-106826304D03*
G04 #@! TO.P,J5,4*
X165582662Y-109366304D03*
G04 #@! TO.P,J5,3*
X165582662Y-111906304D03*
G04 #@! TO.P,J5,2*
X165582662Y-114446304D03*
D15*
G04 #@! TO.P,J5,1*
X165582662Y-116986304D03*
G04 #@! TD*
D14*
G04 #@! TO.P,J6,8*
G04 #@! TO.N,GND*
X130657662Y-114446304D03*
G04 #@! TO.P,J6,7*
X130657662Y-111906304D03*
G04 #@! TO.P,J6,6*
X130657662Y-109366304D03*
G04 #@! TO.P,J6,5*
X130657662Y-106826304D03*
G04 #@! TO.P,J6,4*
X130657662Y-104286304D03*
G04 #@! TO.P,J6,3*
X130657662Y-101746304D03*
G04 #@! TO.P,J6,2*
X130657662Y-99206304D03*
D15*
G04 #@! TO.P,J6,1*
X130657662Y-96666304D03*
G04 #@! TD*
D14*
G04 #@! TO.P,J7,4*
G04 #@! TO.N,/A4(SDA)*
X125603000Y-80645000D03*
G04 #@! TO.P,J7,3*
G04 #@! TO.N,/A5(SCL)*
X128143000Y-80645000D03*
G04 #@! TO.P,J7,2*
G04 #@! TO.N,GND*
X130683000Y-80645000D03*
D15*
G04 #@! TO.P,J7,1*
G04 #@! TO.N,+5V*
X133223000Y-80645000D03*
G04 #@! TD*
G04 #@! TO.P,J8,1*
G04 #@! TO.N,+5V*
X135128000Y-90170000D03*
D14*
G04 #@! TO.P,J8,2*
G04 #@! TO.N,GND*
X132588000Y-90170000D03*
G04 #@! TO.P,J8,3*
G04 #@! TO.N,/A5(SCL)*
X130048000Y-90170000D03*
G04 #@! TO.P,J8,4*
G04 #@! TO.N,/A4(SDA)*
X127508000Y-90170000D03*
G04 #@! TO.P,J8,5*
G04 #@! TO.N,/9(\002A\002A)*
X124968000Y-90170000D03*
G04 #@! TO.P,J8,6*
G04 #@! TO.N,/Ltest*
X122428000Y-90170000D03*
G04 #@! TD*
D15*
G04 #@! TO.P,J9,1*
G04 #@! TO.N,+5V*
X155448000Y-92075000D03*
D14*
G04 #@! TO.P,J9,2*
G04 #@! TO.N,GND*
X157988000Y-92075000D03*
G04 #@! TO.P,J9,3*
G04 #@! TO.N,/Ltest*
X160528000Y-92075000D03*
G04 #@! TO.P,J9,4*
G04 #@! TO.N,/7*
X163068000Y-92075000D03*
G04 #@! TO.P,J9,5*
G04 #@! TO.N,/4*
X165608000Y-92075000D03*
G04 #@! TD*
D15*
G04 #@! TO.P,J11,1*
G04 #@! TO.N,+5V*
X175768000Y-106680000D03*
D14*
G04 #@! TO.P,J11,2*
G04 #@! TO.N,GND*
X175768000Y-109220000D03*
G04 #@! TO.P,J11,3*
G04 #@! TO.N,/A2*
X175768000Y-111760000D03*
G04 #@! TO.P,J11,4*
G04 #@! TO.N,/A3*
X175768000Y-114300000D03*
G04 #@! TD*
G04 #@! TO.P,J12,2*
G04 #@! TO.N,/Reset*
X135128000Y-123825000D03*
D15*
G04 #@! TO.P,J12,1*
G04 #@! TO.N,+5V*
X132588000Y-123825000D03*
G04 #@! TD*
G04 #@! TO.P,J14,1*
G04 #@! TO.N,+5V*
X151003000Y-89535000D03*
D14*
G04 #@! TO.P,J14,2*
G04 #@! TO.N,Net-(J14-Pad2)*
X151003000Y-86995000D03*
G04 #@! TD*
D16*
G04 #@! TO.P,Q2,1*
G04 #@! TO.N,Net-(J14-Pad2)*
X148463000Y-82950000D03*
D17*
G04 #@! TD*
G04 #@! TO.N,+5V*
G04 #@! TO.C,Q2*
G36*
X151304955Y-82051324D02*
X151331650Y-82055284D01*
X151357828Y-82061841D01*
X151383238Y-82070933D01*
X151407634Y-82082472D01*
X151430782Y-82096346D01*
X151452458Y-82112422D01*
X151472454Y-82130546D01*
X151490578Y-82150542D01*
X151506654Y-82172218D01*
X151520528Y-82195366D01*
X151532067Y-82219762D01*
X151541159Y-82245172D01*
X151547716Y-82271350D01*
X151551676Y-82298045D01*
X151553000Y-82325000D01*
X151553000Y-83575000D01*
X151551676Y-83601955D01*
X151547716Y-83628650D01*
X151541159Y-83654828D01*
X151532067Y-83680238D01*
X151520528Y-83704634D01*
X151506654Y-83727782D01*
X151490578Y-83749458D01*
X151472454Y-83769454D01*
X151452458Y-83787578D01*
X151430782Y-83803654D01*
X151407634Y-83817528D01*
X151383238Y-83829067D01*
X151357828Y-83838159D01*
X151331650Y-83844716D01*
X151304955Y-83848676D01*
X151278000Y-83850000D01*
X150728000Y-83850000D01*
X150701045Y-83848676D01*
X150674350Y-83844716D01*
X150648172Y-83838159D01*
X150622762Y-83829067D01*
X150598366Y-83817528D01*
X150575218Y-83803654D01*
X150553542Y-83787578D01*
X150533546Y-83769454D01*
X150515422Y-83749458D01*
X150499346Y-83727782D01*
X150485472Y-83704634D01*
X150473933Y-83680238D01*
X150464841Y-83654828D01*
X150458284Y-83628650D01*
X150454324Y-83601955D01*
X150453000Y-83575000D01*
X150453000Y-82325000D01*
X150454324Y-82298045D01*
X150458284Y-82271350D01*
X150464841Y-82245172D01*
X150473933Y-82219762D01*
X150485472Y-82195366D01*
X150499346Y-82172218D01*
X150515422Y-82150542D01*
X150533546Y-82130546D01*
X150553542Y-82112422D01*
X150575218Y-82096346D01*
X150598366Y-82082472D01*
X150622762Y-82070933D01*
X150648172Y-82061841D01*
X150674350Y-82055284D01*
X150701045Y-82051324D01*
X150728000Y-82050000D01*
X151278000Y-82050000D01*
X151304955Y-82051324D01*
X151304955Y-82051324D01*
G37*
D18*
G04 #@! TO.P,Q2,3*
G04 #@! TO.N,+5V*
X151003000Y-82950000D03*
D17*
G04 #@! TD*
G04 #@! TO.N,/10(\002A\002A/SS)*
G04 #@! TO.C,Q2*
G36*
X150034955Y-79981324D02*
X150061650Y-79985284D01*
X150087828Y-79991841D01*
X150113238Y-80000933D01*
X150137634Y-80012472D01*
X150160782Y-80026346D01*
X150182458Y-80042422D01*
X150202454Y-80060546D01*
X150220578Y-80080542D01*
X150236654Y-80102218D01*
X150250528Y-80125366D01*
X150262067Y-80149762D01*
X150271159Y-80175172D01*
X150277716Y-80201350D01*
X150281676Y-80228045D01*
X150283000Y-80255000D01*
X150283000Y-81505000D01*
X150281676Y-81531955D01*
X150277716Y-81558650D01*
X150271159Y-81584828D01*
X150262067Y-81610238D01*
X150250528Y-81634634D01*
X150236654Y-81657782D01*
X150220578Y-81679458D01*
X150202454Y-81699454D01*
X150182458Y-81717578D01*
X150160782Y-81733654D01*
X150137634Y-81747528D01*
X150113238Y-81759067D01*
X150087828Y-81768159D01*
X150061650Y-81774716D01*
X150034955Y-81778676D01*
X150008000Y-81780000D01*
X149458000Y-81780000D01*
X149431045Y-81778676D01*
X149404350Y-81774716D01*
X149378172Y-81768159D01*
X149352762Y-81759067D01*
X149328366Y-81747528D01*
X149305218Y-81733654D01*
X149283542Y-81717578D01*
X149263546Y-81699454D01*
X149245422Y-81679458D01*
X149229346Y-81657782D01*
X149215472Y-81634634D01*
X149203933Y-81610238D01*
X149194841Y-81584828D01*
X149188284Y-81558650D01*
X149184324Y-81531955D01*
X149183000Y-81505000D01*
X149183000Y-80255000D01*
X149184324Y-80228045D01*
X149188284Y-80201350D01*
X149194841Y-80175172D01*
X149203933Y-80149762D01*
X149215472Y-80125366D01*
X149229346Y-80102218D01*
X149245422Y-80080542D01*
X149263546Y-80060546D01*
X149283542Y-80042422D01*
X149305218Y-80026346D01*
X149328366Y-80012472D01*
X149352762Y-80000933D01*
X149378172Y-79991841D01*
X149404350Y-79985284D01*
X149431045Y-79981324D01*
X149458000Y-79980000D01*
X150008000Y-79980000D01*
X150034955Y-79981324D01*
X150034955Y-79981324D01*
G37*
D18*
G04 #@! TO.P,Q2,2*
G04 #@! TO.N,/10(\002A\002A/SS)*
X149733000Y-80880000D03*
G04 #@! TD*
D19*
G04 #@! TO.P,R1,1*
G04 #@! TO.N,+5V*
X133858000Y-84455000D03*
D12*
G04 #@! TO.P,R1,2*
G04 #@! TO.N,/Ltest*
X126238000Y-84455000D03*
G04 #@! TD*
D13*
G04 #@! TO.P,U1,1*
G04 #@! TO.N,/Crx*
X157988000Y-98425000D03*
D12*
G04 #@! TO.P,U1,9*
G04 #@! TO.N,/13(SCK)*
X140208000Y-106045000D03*
G04 #@! TO.P,U1,2*
G04 #@! TO.N,/Ctx*
X155448000Y-98425000D03*
G04 #@! TO.P,U1,10*
G04 #@! TO.N,/12(MISO)*
X142748000Y-106045000D03*
G04 #@! TO.P,U1,3*
G04 #@! TO.N,/A0*
X152908000Y-98425000D03*
G04 #@! TO.P,U1,11*
G04 #@! TO.N,/8*
X145288000Y-106045000D03*
G04 #@! TO.P,U1,4*
G04 #@! TO.N,/Cty*
X150368000Y-98425000D03*
G04 #@! TO.P,U1,12*
G04 #@! TO.N,/Thr*
X147828000Y-106045000D03*
G04 #@! TO.P,U1,5*
G04 #@! TO.N,/Cry*
X147828000Y-98425000D03*
G04 #@! TO.P,U1,13*
G04 #@! TO.N,/T_x*
X150368000Y-106045000D03*
G04 #@! TO.P,U1,6*
G04 #@! TO.N,GND*
X145288000Y-98425000D03*
G04 #@! TO.P,U1,14*
G04 #@! TO.N,/T_y*
X152908000Y-106045000D03*
G04 #@! TO.P,U1,7*
G04 #@! TO.N,GND*
X142748000Y-98425000D03*
G04 #@! TO.P,U1,15*
G04 #@! TO.N,/T_z*
X155448000Y-106045000D03*
G04 #@! TO.P,U1,8*
G04 #@! TO.N,GND*
X140208000Y-98425000D03*
G04 #@! TO.P,U1,16*
G04 #@! TO.N,+5V*
X157988000Y-106045000D03*
G04 #@! TD*
G04 #@! TO.P,U2,16*
G04 #@! TO.N,+5V*
X140182662Y-109874304D03*
G04 #@! TO.P,U2,8*
G04 #@! TO.N,GND*
X157962662Y-117494304D03*
G04 #@! TO.P,U2,15*
G04 #@! TO.N,/R_z*
X142722662Y-109874304D03*
G04 #@! TO.P,U2,7*
G04 #@! TO.N,GND*
X155422662Y-117494304D03*
G04 #@! TO.P,U2,14*
G04 #@! TO.N,/R_y*
X145262662Y-109874304D03*
G04 #@! TO.P,U2,6*
G04 #@! TO.N,GND*
X152882662Y-117494304D03*
G04 #@! TO.P,U2,13*
G04 #@! TO.N,/R_x*
X147802662Y-109874304D03*
G04 #@! TO.P,U2,5*
G04 #@! TO.N,/Au3*
X150342662Y-117494304D03*
G04 #@! TO.P,U2,12*
G04 #@! TO.N,/Au1*
X150342662Y-109874304D03*
G04 #@! TO.P,U2,4*
G04 #@! TO.N,/Au5*
X147802662Y-117494304D03*
G04 #@! TO.P,U2,11*
G04 #@! TO.N,/8*
X152882662Y-109874304D03*
G04 #@! TO.P,U2,3*
G04 #@! TO.N,/A1*
X145262662Y-117494304D03*
G04 #@! TO.P,U2,10*
G04 #@! TO.N,/12(MISO)*
X155422662Y-109874304D03*
G04 #@! TO.P,U2,2*
G04 #@! TO.N,/Au4*
X142722662Y-117494304D03*
G04 #@! TO.P,U2,9*
G04 #@! TO.N,/13(SCK)*
X157962662Y-109874304D03*
D13*
G04 #@! TO.P,U2,1*
G04 #@! TO.N,/Au2*
X140182662Y-117494304D03*
G04 #@! TD*
D15*
G04 #@! TO.P,J10,1*
G04 #@! TO.N,Net-(D1-Pad1)*
X157353000Y-81280000D03*
D14*
G04 #@! TO.P,J10,2*
G04 #@! TO.N,GND*
X154813000Y-81280000D03*
G04 #@! TO.P,J10,3*
G04 #@! TO.N,Net-(D2-Pad1)*
X157353000Y-83820000D03*
G04 #@! TO.P,J10,4*
G04 #@! TO.N,GND*
X154813000Y-83820000D03*
G04 #@! TO.P,J10,5*
G04 #@! TO.N,Net-(D3-Pad1)*
X157353000Y-86360000D03*
G04 #@! TO.P,J10,6*
G04 #@! TO.N,GND*
X154813000Y-86360000D03*
G04 #@! TD*
D13*
G04 #@! TO.P,D4,1*
G04 #@! TO.N,Net-(D1-Pad1)*
X160528000Y-81407000D03*
D12*
G04 #@! TO.P,D4,2*
G04 #@! TO.N,/3(\002A\002A)*
X168148000Y-81407000D03*
G04 #@! TD*
G04 #@! TO.P,D5,2*
G04 #@! TO.N,/5(\002A\002A)*
X168148000Y-83947000D03*
D13*
G04 #@! TO.P,D5,1*
G04 #@! TO.N,Net-(D2-Pad1)*
X160528000Y-83947000D03*
G04 #@! TD*
G04 #@! TO.P,D6,1*
G04 #@! TO.N,Net-(D3-Pad1)*
X160528000Y-86487000D03*
D12*
G04 #@! TO.P,D6,2*
G04 #@! TO.N,/6(\002A\002A)*
X168148000Y-86487000D03*
G04 #@! TD*
D15*
G04 #@! TO.P,J13,1*
G04 #@! TO.N,+5V*
X140208000Y-81153000D03*
D14*
G04 #@! TO.P,J13,2*
G04 #@! TO.N,GND*
X140208000Y-83693000D03*
G04 #@! TO.P,J13,3*
G04 #@! TO.N,/A5(SCL)*
X140208000Y-86233000D03*
G04 #@! TO.P,J13,4*
G04 #@! TO.N,/A4(SDA)*
X140208000Y-88773000D03*
G04 #@! TO.P,J13,5*
G04 #@! TO.N,/11(\002A\002A/MOSI)*
X140208000Y-91313000D03*
G04 #@! TD*
D20*
G04 #@! TO.N,+5V*
X144018000Y-89535000D03*
G04 #@! TO.N,GND*
X157988000Y-78359000D03*
X153670000Y-77851000D03*
X136652000Y-83693000D03*
G04 #@! TO.N,/A4(SDA)*
X164338000Y-120777000D03*
G04 #@! TO.N,/A5(SCL)*
X164338000Y-119507000D03*
X152654000Y-119507000D03*
G04 #@! TO.N,/A4(SDA)*
X151892000Y-120269000D03*
G04 #@! TO.N,/9(\002A\002A)*
X135890000Y-80137000D03*
G04 #@! TO.N,/11(\002A\002A/MOSI)*
X145034000Y-78359000D03*
G04 #@! TD*
D21*
G04 #@! TO.N,+5V*
X144018000Y-89110736D02*
X143256000Y-88348736D01*
X144018000Y-89535000D02*
X144018000Y-89110736D01*
X143256000Y-84201000D02*
X140208000Y-81153000D01*
X143256000Y-88348736D02*
X143256000Y-84201000D01*
G04 #@! TO.N,GND*
X132588000Y-94735966D02*
X130657662Y-96666304D01*
X132588000Y-90170000D02*
X132588000Y-94735966D01*
X157480000Y-77851000D02*
X157988000Y-78359000D01*
X153670000Y-77851000D02*
X157480000Y-77851000D01*
X136690001Y-77904999D02*
X136690001Y-83654999D01*
X137414000Y-75565000D02*
X137414000Y-77181000D01*
X137414000Y-77181000D02*
X136690001Y-77904999D01*
X132588000Y-90170000D02*
X132588000Y-88773000D01*
X132588000Y-88773000D02*
X133858000Y-87503000D01*
X133858000Y-87503000D02*
X136652000Y-87503000D01*
X136652000Y-87503000D02*
X136652000Y-83693000D01*
D22*
G04 #@! TO.N,/A0*
X161798000Y-107315000D02*
X152908000Y-98425000D01*
X161798000Y-123825000D02*
X161798000Y-107315000D01*
G04 #@! TO.N,/A4(SDA)*
X171958000Y-123825000D02*
X171958000Y-123672600D01*
X132334000Y-75717400D02*
X130200400Y-77851000D01*
X132334000Y-75565000D02*
X132334000Y-75717400D01*
X128397000Y-77851000D02*
X125603000Y-80645000D01*
X130200400Y-77851000D02*
X128397000Y-77851000D01*
X171958000Y-123672600D02*
X169062400Y-120777000D01*
X169062400Y-120777000D02*
X164338000Y-120777000D01*
G04 #@! TO.N,/A5(SCL)*
X149606000Y-120777000D02*
X150876000Y-119507000D01*
X129990010Y-120777000D02*
X149606000Y-120777000D01*
X124148010Y-114935000D02*
X129990010Y-120777000D01*
X124148010Y-96069990D02*
X124148010Y-114935000D01*
X130048000Y-90170000D02*
X124148010Y-96069990D01*
G04 #@! TO.N,/A4(SDA)*
X169062400Y-120777000D02*
X164762264Y-120777000D01*
G04 #@! TO.N,/A5(SCL)*
X174498000Y-123825000D02*
X174498000Y-123672600D01*
X174498000Y-123672600D02*
X171094400Y-120269000D01*
X171094400Y-120269000D02*
X170840400Y-120015000D01*
X170332400Y-119507000D02*
X171094400Y-120269000D01*
X164338000Y-119507000D02*
X170332400Y-119507000D01*
G04 #@! TO.N,/A4(SDA)*
X126658001Y-91019999D02*
X126658001Y-91146999D01*
X127508000Y-90170000D02*
X126658001Y-91019999D01*
X126658001Y-91146999D02*
X123698000Y-94107000D01*
X123698000Y-94107000D02*
X123698000Y-115189000D01*
X123698000Y-115189000D02*
X129794000Y-121285000D01*
X151892000Y-120269000D02*
X150876000Y-121285000D01*
X129794000Y-121285000D02*
X150876000Y-121285000D01*
G04 #@! TO.N,/A5(SCL)*
X150876000Y-119507000D02*
X152654000Y-119507000D01*
G04 #@! TO.N,/9(\002A\002A)*
X150114000Y-75412600D02*
X150114000Y-75565000D01*
X124968000Y-90170000D02*
X131826000Y-83312000D01*
X135890000Y-80137000D02*
X135890000Y-82169000D01*
X135890000Y-82169000D02*
X135128000Y-82931000D01*
X135128000Y-82931000D02*
X131826000Y-82931000D01*
X131826000Y-82931000D02*
X131826000Y-83312000D01*
G04 #@! TO.N,/8*
X146087999Y-105245001D02*
X145288000Y-106045000D01*
X151493001Y-99839999D02*
X146087999Y-105245001D01*
X151493001Y-98174997D02*
X151493001Y-99839999D01*
X152654000Y-97013998D02*
X151493001Y-98174997D01*
X152654000Y-75565000D02*
X152654000Y-97013998D01*
G04 #@! TO.N,/4*
X164338000Y-90805000D02*
X165608000Y-92075000D01*
X161798000Y-88265000D02*
X165608000Y-92075000D01*
X164338000Y-75717400D02*
X163224400Y-76831000D01*
X162564000Y-76831000D02*
X159004000Y-80391000D01*
X159004000Y-80391000D02*
X159004000Y-88265000D01*
X164338000Y-75565000D02*
X164338000Y-75717400D01*
X163224400Y-76831000D02*
X162564000Y-76831000D01*
X159004000Y-88265000D02*
X161798000Y-88265000D01*
G04 #@! TO.N,/13(SCK)*
X157962662Y-109874304D02*
X156165358Y-108077000D01*
X142240000Y-108077000D02*
X140208000Y-106045000D01*
X156165358Y-108077000D02*
X142240000Y-108077000D01*
X139408001Y-105245001D02*
X140208000Y-106045000D01*
X137812999Y-103649999D02*
X139408001Y-105245001D01*
X137812999Y-78972001D02*
X137812999Y-103649999D01*
X139954000Y-76831000D02*
X137812999Y-78972001D01*
X139954000Y-75565000D02*
X139954000Y-76831000D01*
G04 #@! TO.N,/10(\002A\002A/SS)*
X147574000Y-79121000D02*
X149733000Y-81280000D01*
X147574000Y-75565000D02*
X147574000Y-79121000D01*
G04 #@! TO.N,/12(MISO)*
X148368001Y-93085001D02*
X148368001Y-87281001D01*
X146702999Y-94750003D02*
X148368001Y-93085001D01*
X146702999Y-98675003D02*
X146702999Y-94750003D01*
X142748000Y-106045000D02*
X142748000Y-102630002D01*
X142748000Y-102630002D02*
X146702999Y-98675003D01*
X142494000Y-81407000D02*
X142494000Y-75565000D01*
X148368001Y-87281001D02*
X142494000Y-81407000D01*
G04 #@! TO.N,/11(\002A\002A/MOSI)*
X145034000Y-75565000D02*
X145034000Y-78359000D01*
G04 #@! TO.N,/Ltest*
X170942000Y-86487000D02*
X172466000Y-86487000D01*
X172466000Y-86487000D02*
X172466000Y-88773000D01*
X172466000Y-86487000D02*
X173736000Y-86487000D01*
X172466000Y-88773000D02*
X167386000Y-93853000D01*
X162306000Y-93853000D02*
X160528000Y-92075000D01*
X167386000Y-93853000D02*
X162306000Y-93853000D01*
G04 #@! TO.N,Net-(D1-Pad1)*
X160528000Y-80357000D02*
X163288000Y-77597000D01*
X160528000Y-81407000D02*
X160528000Y-80357000D01*
X163288000Y-77597000D02*
X168656000Y-77597000D01*
X169892000Y-78867000D02*
X170942000Y-78867000D01*
X168656000Y-77631000D02*
X169892000Y-78867000D01*
X168656000Y-77597000D02*
X168656000Y-77631000D01*
G04 #@! TO.N,Net-(D2-Pad1)*
X173371001Y-80281999D02*
X163939001Y-80281999D01*
X173736000Y-78867000D02*
X173736000Y-79917000D01*
X173736000Y-79917000D02*
X173371001Y-80281999D01*
X161578000Y-83947000D02*
X160528000Y-83947000D01*
X163939001Y-81585999D02*
X161578000Y-83947000D01*
X163939001Y-80281999D02*
X163939001Y-81585999D01*
G04 #@! TD*
D23*
G04 #@! TO.N,+5V*
G36*
X123571000Y-75034501D02*
X123571000Y-76095499D01*
X123977026Y-77075734D01*
X124727266Y-77825974D01*
X125707501Y-78232000D01*
X126768499Y-78232000D01*
X127063315Y-78109883D01*
X125969408Y-79203791D01*
X125749256Y-79160000D01*
X125456744Y-79160000D01*
X125023582Y-79246161D01*
X124532375Y-79574375D01*
X124204161Y-80065582D01*
X124088908Y-80645000D01*
X124204161Y-81224418D01*
X124532375Y-81715625D01*
X125023582Y-82043839D01*
X125456744Y-82130000D01*
X125749256Y-82130000D01*
X126182418Y-82043839D01*
X126673625Y-81715625D01*
X126873000Y-81417239D01*
X127072375Y-81715625D01*
X127563582Y-82043839D01*
X127996744Y-82130000D01*
X128289256Y-82130000D01*
X128722418Y-82043839D01*
X129213625Y-81715625D01*
X129413000Y-81417239D01*
X129612375Y-81715625D01*
X130103582Y-82043839D01*
X130536744Y-82130000D01*
X130829256Y-82130000D01*
X131262418Y-82043839D01*
X131753625Y-81715625D01*
X131768096Y-81693967D01*
X131834673Y-81854698D01*
X132013301Y-82033327D01*
X132246690Y-82130000D01*
X132937250Y-82130000D01*
X133096000Y-81971250D01*
X133096000Y-80772000D01*
X133350000Y-80772000D01*
X133350000Y-81971250D01*
X133508750Y-82130000D01*
X134199310Y-82130000D01*
X134432699Y-82033327D01*
X134611327Y-81854698D01*
X134708000Y-81621309D01*
X134708000Y-80930750D01*
X134549250Y-80772000D01*
X133350000Y-80772000D01*
X133096000Y-80772000D01*
X133076000Y-80772000D01*
X133076000Y-80518000D01*
X133096000Y-80518000D01*
X133096000Y-79318750D01*
X133350000Y-79318750D01*
X133350000Y-80518000D01*
X134549250Y-80518000D01*
X134708000Y-80359250D01*
X134708000Y-79668691D01*
X134611327Y-79435302D01*
X134432699Y-79256673D01*
X134199310Y-79160000D01*
X133508750Y-79160000D01*
X133350000Y-79318750D01*
X133096000Y-79318750D01*
X132937250Y-79160000D01*
X132246690Y-79160000D01*
X132013301Y-79256673D01*
X131834673Y-79435302D01*
X131768096Y-79596033D01*
X131753625Y-79574375D01*
X131262418Y-79246161D01*
X130829256Y-79160000D01*
X130536744Y-79160000D01*
X130103582Y-79246161D01*
X129612375Y-79574375D01*
X129413000Y-79872761D01*
X129213625Y-79574375D01*
X128722418Y-79246161D01*
X128289256Y-79160000D01*
X128162802Y-79160000D01*
X128711802Y-78611000D01*
X130125553Y-78611000D01*
X130200400Y-78625888D01*
X130275247Y-78611000D01*
X130275252Y-78611000D01*
X130496937Y-78566904D01*
X130748329Y-78398929D01*
X130790731Y-78335470D01*
X131956026Y-77170175D01*
X132334000Y-77245359D01*
X132918725Y-77129050D01*
X133414430Y-76797830D01*
X133604000Y-76514119D01*
X133793570Y-76797830D01*
X134289276Y-77129050D01*
X134874000Y-77245359D01*
X135458725Y-77129050D01*
X135954430Y-76797830D01*
X136144000Y-76514119D01*
X136333570Y-76797830D01*
X136418279Y-76854431D01*
X136093973Y-77178738D01*
X136015904Y-77230902D01*
X135845333Y-77486181D01*
X135809251Y-77540181D01*
X135736684Y-77904999D01*
X135755001Y-77997085D01*
X135755001Y-79202000D01*
X135704017Y-79202000D01*
X135360365Y-79344345D01*
X135097345Y-79607365D01*
X134955000Y-79951017D01*
X134955000Y-80322983D01*
X135097345Y-80666635D01*
X135130000Y-80699290D01*
X135130001Y-81854197D01*
X134813199Y-82171000D01*
X131900852Y-82171000D01*
X131826000Y-82156111D01*
X131751148Y-82171000D01*
X131529463Y-82215096D01*
X131278071Y-82383071D01*
X131110096Y-82634463D01*
X131051111Y-82931000D01*
X131064564Y-82998634D01*
X125334408Y-88728791D01*
X125114256Y-88685000D01*
X124821744Y-88685000D01*
X124388582Y-88771161D01*
X123897375Y-89099375D01*
X123698000Y-89397761D01*
X123498625Y-89099375D01*
X123007418Y-88771161D01*
X122574256Y-88685000D01*
X122281744Y-88685000D01*
X121848582Y-88771161D01*
X121357375Y-89099375D01*
X121029161Y-89590582D01*
X120913908Y-90170000D01*
X121029161Y-90749418D01*
X121357375Y-91240625D01*
X121848582Y-91568839D01*
X122281744Y-91655000D01*
X122574256Y-91655000D01*
X123007418Y-91568839D01*
X123498625Y-91240625D01*
X123698000Y-90942239D01*
X123897375Y-91240625D01*
X124388582Y-91568839D01*
X124821744Y-91655000D01*
X125075198Y-91655000D01*
X123213530Y-93516669D01*
X123150071Y-93559071D01*
X122982096Y-93810464D01*
X122938000Y-94032149D01*
X122938000Y-94032153D01*
X122923112Y-94107000D01*
X122938000Y-94181847D01*
X122938001Y-115114148D01*
X122923112Y-115189000D01*
X122982097Y-115485537D01*
X123098706Y-115660054D01*
X123150072Y-115736929D01*
X123213528Y-115779329D01*
X129203671Y-121769473D01*
X129246071Y-121832929D01*
X129497463Y-122000904D01*
X129719148Y-122045000D01*
X129719153Y-122045000D01*
X129794000Y-122059888D01*
X129868847Y-122045000D01*
X150801153Y-122045000D01*
X150876000Y-122059888D01*
X150950847Y-122045000D01*
X150950852Y-122045000D01*
X151172537Y-122000904D01*
X151423929Y-121832929D01*
X151466331Y-121769470D01*
X152031802Y-121204000D01*
X152077983Y-121204000D01*
X152421635Y-121061655D01*
X152684655Y-120798635D01*
X152827000Y-120454983D01*
X152827000Y-120442000D01*
X152839983Y-120442000D01*
X153183635Y-120299655D01*
X153446655Y-120036635D01*
X153589000Y-119692983D01*
X153589000Y-119321017D01*
X153446655Y-118977365D01*
X153336444Y-118867154D01*
X153442571Y-118846044D01*
X153917239Y-118528881D01*
X154152662Y-118176546D01*
X154388085Y-118528881D01*
X154862753Y-118846044D01*
X155281329Y-118929304D01*
X155563995Y-118929304D01*
X155982571Y-118846044D01*
X156457239Y-118528881D01*
X156692662Y-118176546D01*
X156928085Y-118528881D01*
X157402753Y-118846044D01*
X157821329Y-118929304D01*
X158103995Y-118929304D01*
X158522571Y-118846044D01*
X158997239Y-118528881D01*
X159314402Y-118054213D01*
X159425775Y-117494304D01*
X159314402Y-116934395D01*
X158997239Y-116459727D01*
X158522571Y-116142564D01*
X158103995Y-116059304D01*
X157821329Y-116059304D01*
X157402753Y-116142564D01*
X156928085Y-116459727D01*
X156692662Y-116812062D01*
X156457239Y-116459727D01*
X155982571Y-116142564D01*
X155563995Y-116059304D01*
X155281329Y-116059304D01*
X154862753Y-116142564D01*
X154388085Y-116459727D01*
X154152662Y-116812062D01*
X153917239Y-116459727D01*
X153442571Y-116142564D01*
X153023995Y-116059304D01*
X152741329Y-116059304D01*
X152322753Y-116142564D01*
X151848085Y-116459727D01*
X151612662Y-116812062D01*
X151377239Y-116459727D01*
X150902571Y-116142564D01*
X150483995Y-116059304D01*
X150201329Y-116059304D01*
X149782753Y-116142564D01*
X149308085Y-116459727D01*
X149072662Y-116812062D01*
X148837239Y-116459727D01*
X148362571Y-116142564D01*
X147943995Y-116059304D01*
X147661329Y-116059304D01*
X147242753Y-116142564D01*
X146768085Y-116459727D01*
X146532662Y-116812062D01*
X146297239Y-116459727D01*
X145822571Y-116142564D01*
X145403995Y-116059304D01*
X145121329Y-116059304D01*
X144702753Y-116142564D01*
X144228085Y-116459727D01*
X143992662Y-116812062D01*
X143757239Y-116459727D01*
X143282571Y-116142564D01*
X142863995Y-116059304D01*
X142581329Y-116059304D01*
X142162753Y-116142564D01*
X141688085Y-116459727D01*
X141607447Y-116580410D01*
X141580819Y-116446539D01*
X141440471Y-116236495D01*
X141230427Y-116096147D01*
X140982662Y-116046864D01*
X139382662Y-116046864D01*
X139134897Y-116096147D01*
X138924853Y-116236495D01*
X138784505Y-116446539D01*
X138735222Y-116694304D01*
X138735222Y-118294304D01*
X138784505Y-118542069D01*
X138924853Y-118752113D01*
X139134897Y-118892461D01*
X139382662Y-118941744D01*
X140982662Y-118941744D01*
X141230427Y-118892461D01*
X141440471Y-118752113D01*
X141580819Y-118542069D01*
X141607447Y-118408198D01*
X141688085Y-118528881D01*
X142162753Y-118846044D01*
X142581329Y-118929304D01*
X142863995Y-118929304D01*
X143282571Y-118846044D01*
X143757239Y-118528881D01*
X143992662Y-118176546D01*
X144228085Y-118528881D01*
X144702753Y-118846044D01*
X145121329Y-118929304D01*
X145403995Y-118929304D01*
X145822571Y-118846044D01*
X146297239Y-118528881D01*
X146532662Y-118176546D01*
X146768085Y-118528881D01*
X147242753Y-118846044D01*
X147661329Y-118929304D01*
X147943995Y-118929304D01*
X148362571Y-118846044D01*
X148837239Y-118528881D01*
X149072662Y-118176546D01*
X149308085Y-118528881D01*
X149782753Y-118846044D01*
X150201329Y-118929304D01*
X150372620Y-118929304D01*
X150328071Y-118959071D01*
X150285671Y-119022527D01*
X149291199Y-120017000D01*
X130304812Y-120017000D01*
X125091006Y-114803194D01*
X126676186Y-114803194D01*
X126846017Y-115213228D01*
X127236304Y-115641487D01*
X127760770Y-115887790D01*
X127990662Y-115767123D01*
X127990662Y-114573304D01*
X126797507Y-114573304D01*
X126676186Y-114803194D01*
X125091006Y-114803194D01*
X124908010Y-114620199D01*
X124908010Y-112263194D01*
X126676186Y-112263194D01*
X126846017Y-112673228D01*
X127236304Y-113101487D01*
X127395616Y-113176304D01*
X127236304Y-113251121D01*
X126846017Y-113679380D01*
X126676186Y-114089414D01*
X126797507Y-114319304D01*
X127990662Y-114319304D01*
X127990662Y-112033304D01*
X126797507Y-112033304D01*
X126676186Y-112263194D01*
X124908010Y-112263194D01*
X124908010Y-109723194D01*
X126676186Y-109723194D01*
X126846017Y-110133228D01*
X127236304Y-110561487D01*
X127395616Y-110636304D01*
X127236304Y-110711121D01*
X126846017Y-111139380D01*
X126676186Y-111549414D01*
X126797507Y-111779304D01*
X127990662Y-111779304D01*
X127990662Y-109493304D01*
X126797507Y-109493304D01*
X126676186Y-109723194D01*
X124908010Y-109723194D01*
X124908010Y-107183194D01*
X126676186Y-107183194D01*
X126846017Y-107593228D01*
X127236304Y-108021487D01*
X127395616Y-108096304D01*
X127236304Y-108171121D01*
X126846017Y-108599380D01*
X126676186Y-109009414D01*
X126797507Y-109239304D01*
X127990662Y-109239304D01*
X127990662Y-106953304D01*
X126797507Y-106953304D01*
X126676186Y-107183194D01*
X124908010Y-107183194D01*
X124908010Y-104643194D01*
X126676186Y-104643194D01*
X126846017Y-105053228D01*
X127236304Y-105481487D01*
X127395616Y-105556304D01*
X127236304Y-105631121D01*
X126846017Y-106059380D01*
X126676186Y-106469414D01*
X126797507Y-106699304D01*
X127990662Y-106699304D01*
X127990662Y-104413304D01*
X126797507Y-104413304D01*
X126676186Y-104643194D01*
X124908010Y-104643194D01*
X124908010Y-102103194D01*
X126676186Y-102103194D01*
X126846017Y-102513228D01*
X127236304Y-102941487D01*
X127395616Y-103016304D01*
X127236304Y-103091121D01*
X126846017Y-103519380D01*
X126676186Y-103929414D01*
X126797507Y-104159304D01*
X127990662Y-104159304D01*
X127990662Y-101873304D01*
X126797507Y-101873304D01*
X126676186Y-102103194D01*
X124908010Y-102103194D01*
X124908010Y-99563194D01*
X126676186Y-99563194D01*
X126846017Y-99973228D01*
X127236304Y-100401487D01*
X127395616Y-100476304D01*
X127236304Y-100551121D01*
X126846017Y-100979380D01*
X126676186Y-101389414D01*
X126797507Y-101619304D01*
X127990662Y-101619304D01*
X127990662Y-99333304D01*
X126797507Y-99333304D01*
X126676186Y-99563194D01*
X124908010Y-99563194D01*
X124908010Y-96952054D01*
X126632662Y-96952054D01*
X126632662Y-97642614D01*
X126729335Y-97876003D01*
X126907964Y-98054631D01*
X127117540Y-98141440D01*
X126846017Y-98439380D01*
X126676186Y-98849414D01*
X126797507Y-99079304D01*
X127990662Y-99079304D01*
X127990662Y-96793304D01*
X126791412Y-96793304D01*
X126632662Y-96952054D01*
X124908010Y-96952054D01*
X124908010Y-96384791D01*
X125602807Y-95689994D01*
X126632662Y-95689994D01*
X126632662Y-96380554D01*
X126791412Y-96539304D01*
X127990662Y-96539304D01*
X127990662Y-95340054D01*
X127831912Y-95181304D01*
X127141353Y-95181304D01*
X126907964Y-95277977D01*
X126729335Y-95456605D01*
X126632662Y-95689994D01*
X125602807Y-95689994D01*
X129681593Y-91611209D01*
X129901744Y-91655000D01*
X130194256Y-91655000D01*
X130627418Y-91568839D01*
X131118625Y-91240625D01*
X131318000Y-90942239D01*
X131517375Y-91240625D01*
X131653000Y-91331247D01*
X131653001Y-94348675D01*
X130832813Y-95168864D01*
X129807662Y-95168864D01*
X129559897Y-95218147D01*
X129384637Y-95335253D01*
X129327360Y-95277977D01*
X129093971Y-95181304D01*
X128403412Y-95181304D01*
X128244662Y-95340054D01*
X128244662Y-96539304D01*
X128264662Y-96539304D01*
X128264662Y-96793304D01*
X128244662Y-96793304D01*
X128244662Y-99079304D01*
X128264662Y-99079304D01*
X128264662Y-99333304D01*
X128244662Y-99333304D01*
X128244662Y-101619304D01*
X128264662Y-101619304D01*
X128264662Y-101873304D01*
X128244662Y-101873304D01*
X128244662Y-104159304D01*
X128264662Y-104159304D01*
X128264662Y-104413304D01*
X128244662Y-104413304D01*
X128244662Y-106699304D01*
X128264662Y-106699304D01*
X128264662Y-106953304D01*
X128244662Y-106953304D01*
X128244662Y-109239304D01*
X128264662Y-109239304D01*
X128264662Y-109493304D01*
X128244662Y-109493304D01*
X128244662Y-111779304D01*
X128264662Y-111779304D01*
X128264662Y-112033304D01*
X128244662Y-112033304D01*
X128244662Y-114319304D01*
X128264662Y-114319304D01*
X128264662Y-114573304D01*
X128244662Y-114573304D01*
X128244662Y-115767123D01*
X128474554Y-115887790D01*
X128999020Y-115641487D01*
X129386309Y-115216518D01*
X129587037Y-115516929D01*
X130078244Y-115845143D01*
X130511406Y-115931304D01*
X130803918Y-115931304D01*
X131237080Y-115845143D01*
X131728287Y-115516929D01*
X131927662Y-115218543D01*
X132127037Y-115516929D01*
X132618244Y-115845143D01*
X133051406Y-115931304D01*
X133343918Y-115931304D01*
X133777080Y-115845143D01*
X134268287Y-115516929D01*
X134596501Y-115025722D01*
X134711754Y-114446304D01*
X134596501Y-113866886D01*
X134268287Y-113375679D01*
X133969901Y-113176304D01*
X134268287Y-112976929D01*
X134596501Y-112485722D01*
X134711754Y-111906304D01*
X134596501Y-111326886D01*
X134268287Y-110835679D01*
X133969901Y-110636304D01*
X134268287Y-110436929D01*
X134410999Y-110223345D01*
X138790748Y-110223345D01*
X139030273Y-110729438D01*
X139445239Y-111105345D01*
X139833623Y-111266208D01*
X140055662Y-111144219D01*
X140055662Y-110001304D01*
X138912033Y-110001304D01*
X138790748Y-110223345D01*
X134410999Y-110223345D01*
X134596501Y-109945722D01*
X134680135Y-109525263D01*
X138790748Y-109525263D01*
X138912033Y-109747304D01*
X140055662Y-109747304D01*
X140055662Y-108604389D01*
X139833623Y-108482400D01*
X139445239Y-108643263D01*
X139030273Y-109019170D01*
X138790748Y-109525263D01*
X134680135Y-109525263D01*
X134711754Y-109366304D01*
X134596501Y-108786886D01*
X134268287Y-108295679D01*
X133969901Y-108096304D01*
X134268287Y-107896929D01*
X134596501Y-107405722D01*
X134711754Y-106826304D01*
X134596501Y-106246886D01*
X134268287Y-105755679D01*
X133969901Y-105556304D01*
X134268287Y-105356929D01*
X134596501Y-104865722D01*
X134711754Y-104286304D01*
X134596501Y-103706886D01*
X134268287Y-103215679D01*
X133969901Y-103016304D01*
X134268287Y-102816929D01*
X134596501Y-102325722D01*
X134711754Y-101746304D01*
X134596501Y-101166886D01*
X134268287Y-100675679D01*
X133969901Y-100476304D01*
X134268287Y-100276929D01*
X134596501Y-99785722D01*
X134711754Y-99206304D01*
X134596501Y-98626886D01*
X134268287Y-98135679D01*
X134250043Y-98123488D01*
X134295427Y-98114461D01*
X134505471Y-97974113D01*
X134645819Y-97764069D01*
X134695102Y-97516304D01*
X134695102Y-95816304D01*
X134645819Y-95568539D01*
X134505471Y-95358495D01*
X134295427Y-95218147D01*
X134047662Y-95168864D01*
X133423261Y-95168864D01*
X133468750Y-95100785D01*
X133523000Y-94828052D01*
X133523000Y-94828049D01*
X133541316Y-94735967D01*
X133523000Y-94643885D01*
X133523000Y-91331247D01*
X133658625Y-91240625D01*
X133673096Y-91218967D01*
X133739673Y-91379698D01*
X133918301Y-91558327D01*
X134151690Y-91655000D01*
X134842250Y-91655000D01*
X135001000Y-91496250D01*
X135001000Y-90297000D01*
X135255000Y-90297000D01*
X135255000Y-91496250D01*
X135413750Y-91655000D01*
X136104310Y-91655000D01*
X136337699Y-91558327D01*
X136516327Y-91379698D01*
X136613000Y-91146309D01*
X136613000Y-90455750D01*
X136454250Y-90297000D01*
X135255000Y-90297000D01*
X135001000Y-90297000D01*
X134981000Y-90297000D01*
X134981000Y-90043000D01*
X135001000Y-90043000D01*
X135001000Y-88843750D01*
X135255000Y-88843750D01*
X135255000Y-90043000D01*
X136454250Y-90043000D01*
X136613000Y-89884250D01*
X136613000Y-89193691D01*
X136516327Y-88960302D01*
X136337699Y-88781673D01*
X136104310Y-88685000D01*
X135413750Y-88685000D01*
X135255000Y-88843750D01*
X135001000Y-88843750D01*
X134842250Y-88685000D01*
X134151690Y-88685000D01*
X133918301Y-88781673D01*
X133739673Y-88960302D01*
X133673096Y-89121033D01*
X133658625Y-89099375D01*
X133613839Y-89069450D01*
X134245290Y-88438000D01*
X136559914Y-88438000D01*
X136652000Y-88456317D01*
X136744086Y-88438000D01*
X137016819Y-88383750D01*
X137052999Y-88359575D01*
X137053000Y-103575147D01*
X137038111Y-103649999D01*
X137053000Y-103724851D01*
X137097096Y-103946536D01*
X137265071Y-104197928D01*
X137328527Y-104240328D01*
X138809312Y-105721115D01*
X138744887Y-106045000D01*
X138856260Y-106604909D01*
X139173423Y-107079577D01*
X139648091Y-107396740D01*
X140066667Y-107480000D01*
X140349333Y-107480000D01*
X140531886Y-107443688D01*
X141649670Y-108561472D01*
X141692071Y-108624929D01*
X141850812Y-108730996D01*
X141688085Y-108839727D01*
X141431715Y-109223412D01*
X141335051Y-109019170D01*
X140920085Y-108643263D01*
X140531701Y-108482400D01*
X140309662Y-108604389D01*
X140309662Y-109747304D01*
X140329662Y-109747304D01*
X140329662Y-110001304D01*
X140309662Y-110001304D01*
X140309662Y-111144219D01*
X140531701Y-111266208D01*
X140920085Y-111105345D01*
X141335051Y-110729438D01*
X141431715Y-110525196D01*
X141688085Y-110908881D01*
X142162753Y-111226044D01*
X142581329Y-111309304D01*
X142863995Y-111309304D01*
X143282571Y-111226044D01*
X143757239Y-110908881D01*
X143992662Y-110556546D01*
X144228085Y-110908881D01*
X144702753Y-111226044D01*
X145121329Y-111309304D01*
X145403995Y-111309304D01*
X145822571Y-111226044D01*
X146297239Y-110908881D01*
X146532662Y-110556546D01*
X146768085Y-110908881D01*
X147242753Y-111226044D01*
X147661329Y-111309304D01*
X147943995Y-111309304D01*
X148362571Y-111226044D01*
X148837239Y-110908881D01*
X149072662Y-110556546D01*
X149308085Y-110908881D01*
X149782753Y-111226044D01*
X150201329Y-111309304D01*
X150483995Y-111309304D01*
X150902571Y-111226044D01*
X151377239Y-110908881D01*
X151612662Y-110556546D01*
X151848085Y-110908881D01*
X152322753Y-111226044D01*
X152741329Y-111309304D01*
X153023995Y-111309304D01*
X153442571Y-111226044D01*
X153917239Y-110908881D01*
X154152662Y-110556546D01*
X154388085Y-110908881D01*
X154862753Y-111226044D01*
X155281329Y-111309304D01*
X155563995Y-111309304D01*
X155982571Y-111226044D01*
X156457239Y-110908881D01*
X156692662Y-110556546D01*
X156928085Y-110908881D01*
X157402753Y-111226044D01*
X157821329Y-111309304D01*
X158103995Y-111309304D01*
X158522571Y-111226044D01*
X158997239Y-110908881D01*
X159314402Y-110434213D01*
X159425775Y-109874304D01*
X159314402Y-109314395D01*
X158997239Y-108839727D01*
X158522571Y-108522564D01*
X158103995Y-108439304D01*
X157821329Y-108439304D01*
X157638776Y-108475616D01*
X156755689Y-107592530D01*
X156713287Y-107529071D01*
X156461895Y-107361096D01*
X156240210Y-107317000D01*
X156240205Y-107317000D01*
X156165358Y-107302112D01*
X156142821Y-107306595D01*
X156482577Y-107079577D01*
X156738947Y-106695892D01*
X156835611Y-106900134D01*
X157250577Y-107276041D01*
X157638961Y-107436904D01*
X157861000Y-107314915D01*
X157861000Y-106172000D01*
X158115000Y-106172000D01*
X158115000Y-107314915D01*
X158337039Y-107436904D01*
X158725423Y-107276041D01*
X159140389Y-106900134D01*
X159379914Y-106394041D01*
X159258629Y-106172000D01*
X158115000Y-106172000D01*
X157861000Y-106172000D01*
X157841000Y-106172000D01*
X157841000Y-105918000D01*
X157861000Y-105918000D01*
X157861000Y-104775085D01*
X157638961Y-104653096D01*
X157250577Y-104813959D01*
X156835611Y-105189866D01*
X156738947Y-105394108D01*
X156482577Y-105010423D01*
X156007909Y-104693260D01*
X155589333Y-104610000D01*
X155306667Y-104610000D01*
X154888091Y-104693260D01*
X154413423Y-105010423D01*
X154178000Y-105362758D01*
X153942577Y-105010423D01*
X153467909Y-104693260D01*
X153049333Y-104610000D01*
X152766667Y-104610000D01*
X152348091Y-104693260D01*
X151873423Y-105010423D01*
X151638000Y-105362758D01*
X151402577Y-105010423D01*
X150927909Y-104693260D01*
X150509333Y-104610000D01*
X150226667Y-104610000D01*
X149808091Y-104693260D01*
X149333423Y-105010423D01*
X149098000Y-105362758D01*
X148862577Y-105010423D01*
X148387909Y-104693260D01*
X147969333Y-104610000D01*
X147797801Y-104610000D01*
X151977474Y-100430328D01*
X152040930Y-100387928D01*
X152208905Y-100136536D01*
X152253001Y-99914851D01*
X152253001Y-99914847D01*
X152267889Y-99840000D01*
X152253001Y-99765153D01*
X152253001Y-99713203D01*
X152348091Y-99776740D01*
X152766667Y-99860000D01*
X153049333Y-99860000D01*
X153231887Y-99823688D01*
X158159071Y-104750872D01*
X158115000Y-104775085D01*
X158115000Y-105918000D01*
X159258629Y-105918000D01*
X159282499Y-105874301D01*
X161038001Y-107629803D01*
X161038000Y-122378065D01*
X160717570Y-122592170D01*
X160386350Y-123087876D01*
X160299400Y-123525003D01*
X160299400Y-124124998D01*
X160386350Y-124562125D01*
X160657547Y-124968000D01*
X157858452Y-124968000D01*
X158129650Y-124562124D01*
X158216600Y-124124997D01*
X158216600Y-123525002D01*
X158129650Y-123087875D01*
X157798430Y-122592170D01*
X157302724Y-122260950D01*
X156718000Y-122144641D01*
X156133275Y-122260950D01*
X155637570Y-122592170D01*
X155448000Y-122875881D01*
X155258430Y-122592170D01*
X154762724Y-122260950D01*
X154178000Y-122144641D01*
X153593275Y-122260950D01*
X153097570Y-122592170D01*
X152908000Y-122875881D01*
X152718430Y-122592170D01*
X152222724Y-122260950D01*
X151638000Y-122144641D01*
X151053275Y-122260950D01*
X150557570Y-122592170D01*
X150364091Y-122881733D01*
X150000036Y-122474268D01*
X149472791Y-122220291D01*
X149457026Y-122217642D01*
X149225000Y-122338783D01*
X149225000Y-123698000D01*
X149245000Y-123698000D01*
X149245000Y-123952000D01*
X149225000Y-123952000D01*
X149225000Y-123972000D01*
X148971000Y-123972000D01*
X148971000Y-123952000D01*
X148951000Y-123952000D01*
X148951000Y-123698000D01*
X148971000Y-123698000D01*
X148971000Y-122338783D01*
X148738974Y-122217642D01*
X148723209Y-122220291D01*
X148195964Y-122474268D01*
X147831910Y-122881732D01*
X147638430Y-122592170D01*
X147142724Y-122260950D01*
X146558000Y-122144641D01*
X145973275Y-122260950D01*
X145477570Y-122592170D01*
X145288000Y-122875881D01*
X145098430Y-122592170D01*
X144602724Y-122260950D01*
X144018000Y-122144641D01*
X143433275Y-122260950D01*
X142937570Y-122592170D01*
X142748000Y-122875881D01*
X142558430Y-122592170D01*
X142062724Y-122260950D01*
X141478000Y-122144641D01*
X140893275Y-122260950D01*
X140397570Y-122592170D01*
X140208000Y-122875881D01*
X140018430Y-122592170D01*
X139522724Y-122260950D01*
X138938000Y-122144641D01*
X138353275Y-122260950D01*
X137857570Y-122592170D01*
X137526350Y-123087876D01*
X137439400Y-123525003D01*
X137439400Y-124124998D01*
X137526350Y-124562125D01*
X137797547Y-124968000D01*
X136090308Y-124968000D01*
X136198625Y-124895625D01*
X136526839Y-124404418D01*
X136642092Y-123825000D01*
X136526839Y-123245582D01*
X136198625Y-122754375D01*
X135707418Y-122426161D01*
X135274256Y-122340000D01*
X134981744Y-122340000D01*
X134548582Y-122426161D01*
X134057375Y-122754375D01*
X134042904Y-122776033D01*
X133976327Y-122615302D01*
X133797699Y-122436673D01*
X133564310Y-122340000D01*
X132873750Y-122340000D01*
X132715000Y-122498750D01*
X132715000Y-123698000D01*
X132735000Y-123698000D01*
X132735000Y-123952000D01*
X132715000Y-123952000D01*
X132715000Y-123972000D01*
X132461000Y-123972000D01*
X132461000Y-123952000D01*
X131261750Y-123952000D01*
X131103000Y-124110750D01*
X131103000Y-124801309D01*
X131172046Y-124968000D01*
X127381294Y-124968000D01*
X127635000Y-124355499D01*
X127635000Y-123294501D01*
X127450340Y-122848691D01*
X131103000Y-122848691D01*
X131103000Y-123539250D01*
X131261750Y-123698000D01*
X132461000Y-123698000D01*
X132461000Y-122498750D01*
X132302250Y-122340000D01*
X131611690Y-122340000D01*
X131378301Y-122436673D01*
X131199673Y-122615302D01*
X131103000Y-122848691D01*
X127450340Y-122848691D01*
X127228974Y-122314266D01*
X126478734Y-121564026D01*
X125498499Y-121158000D01*
X124437501Y-121158000D01*
X123457266Y-121564026D01*
X122707026Y-122314266D01*
X122301000Y-123294501D01*
X122301000Y-124355499D01*
X122554706Y-124968000D01*
X112395000Y-124968000D01*
X112395000Y-84455000D01*
X124774887Y-84455000D01*
X124886260Y-85014909D01*
X125203423Y-85489577D01*
X125678091Y-85806740D01*
X126096667Y-85890000D01*
X126379333Y-85890000D01*
X126797909Y-85806740D01*
X127272577Y-85489577D01*
X127589740Y-85014909D01*
X127701113Y-84455000D01*
X127589740Y-83895091D01*
X127272577Y-83420423D01*
X126797909Y-83103260D01*
X126379333Y-83020000D01*
X126096667Y-83020000D01*
X125678091Y-83103260D01*
X125203423Y-83420423D01*
X124886260Y-83895091D01*
X124774887Y-84455000D01*
X112395000Y-84455000D01*
X112395000Y-74422000D01*
X123824706Y-74422000D01*
X123571000Y-75034501D01*
X123571000Y-75034501D01*
G37*
X123571000Y-75034501D02*
X123571000Y-76095499D01*
X123977026Y-77075734D01*
X124727266Y-77825974D01*
X125707501Y-78232000D01*
X126768499Y-78232000D01*
X127063315Y-78109883D01*
X125969408Y-79203791D01*
X125749256Y-79160000D01*
X125456744Y-79160000D01*
X125023582Y-79246161D01*
X124532375Y-79574375D01*
X124204161Y-80065582D01*
X124088908Y-80645000D01*
X124204161Y-81224418D01*
X124532375Y-81715625D01*
X125023582Y-82043839D01*
X125456744Y-82130000D01*
X125749256Y-82130000D01*
X126182418Y-82043839D01*
X126673625Y-81715625D01*
X126873000Y-81417239D01*
X127072375Y-81715625D01*
X127563582Y-82043839D01*
X127996744Y-82130000D01*
X128289256Y-82130000D01*
X128722418Y-82043839D01*
X129213625Y-81715625D01*
X129413000Y-81417239D01*
X129612375Y-81715625D01*
X130103582Y-82043839D01*
X130536744Y-82130000D01*
X130829256Y-82130000D01*
X131262418Y-82043839D01*
X131753625Y-81715625D01*
X131768096Y-81693967D01*
X131834673Y-81854698D01*
X132013301Y-82033327D01*
X132246690Y-82130000D01*
X132937250Y-82130000D01*
X133096000Y-81971250D01*
X133096000Y-80772000D01*
X133350000Y-80772000D01*
X133350000Y-81971250D01*
X133508750Y-82130000D01*
X134199310Y-82130000D01*
X134432699Y-82033327D01*
X134611327Y-81854698D01*
X134708000Y-81621309D01*
X134708000Y-80930750D01*
X134549250Y-80772000D01*
X133350000Y-80772000D01*
X133096000Y-80772000D01*
X133076000Y-80772000D01*
X133076000Y-80518000D01*
X133096000Y-80518000D01*
X133096000Y-79318750D01*
X133350000Y-79318750D01*
X133350000Y-80518000D01*
X134549250Y-80518000D01*
X134708000Y-80359250D01*
X134708000Y-79668691D01*
X134611327Y-79435302D01*
X134432699Y-79256673D01*
X134199310Y-79160000D01*
X133508750Y-79160000D01*
X133350000Y-79318750D01*
X133096000Y-79318750D01*
X132937250Y-79160000D01*
X132246690Y-79160000D01*
X132013301Y-79256673D01*
X131834673Y-79435302D01*
X131768096Y-79596033D01*
X131753625Y-79574375D01*
X131262418Y-79246161D01*
X130829256Y-79160000D01*
X130536744Y-79160000D01*
X130103582Y-79246161D01*
X129612375Y-79574375D01*
X129413000Y-79872761D01*
X129213625Y-79574375D01*
X128722418Y-79246161D01*
X128289256Y-79160000D01*
X128162802Y-79160000D01*
X128711802Y-78611000D01*
X130125553Y-78611000D01*
X130200400Y-78625888D01*
X130275247Y-78611000D01*
X130275252Y-78611000D01*
X130496937Y-78566904D01*
X130748329Y-78398929D01*
X130790731Y-78335470D01*
X131956026Y-77170175D01*
X132334000Y-77245359D01*
X132918725Y-77129050D01*
X133414430Y-76797830D01*
X133604000Y-76514119D01*
X133793570Y-76797830D01*
X134289276Y-77129050D01*
X134874000Y-77245359D01*
X135458725Y-77129050D01*
X135954430Y-76797830D01*
X136144000Y-76514119D01*
X136333570Y-76797830D01*
X136418279Y-76854431D01*
X136093973Y-77178738D01*
X136015904Y-77230902D01*
X135845333Y-77486181D01*
X135809251Y-77540181D01*
X135736684Y-77904999D01*
X135755001Y-77997085D01*
X135755001Y-79202000D01*
X135704017Y-79202000D01*
X135360365Y-79344345D01*
X135097345Y-79607365D01*
X134955000Y-79951017D01*
X134955000Y-80322983D01*
X135097345Y-80666635D01*
X135130000Y-80699290D01*
X135130001Y-81854197D01*
X134813199Y-82171000D01*
X131900852Y-82171000D01*
X131826000Y-82156111D01*
X131751148Y-82171000D01*
X131529463Y-82215096D01*
X131278071Y-82383071D01*
X131110096Y-82634463D01*
X131051111Y-82931000D01*
X131064564Y-82998634D01*
X125334408Y-88728791D01*
X125114256Y-88685000D01*
X124821744Y-88685000D01*
X124388582Y-88771161D01*
X123897375Y-89099375D01*
X123698000Y-89397761D01*
X123498625Y-89099375D01*
X123007418Y-88771161D01*
X122574256Y-88685000D01*
X122281744Y-88685000D01*
X121848582Y-88771161D01*
X121357375Y-89099375D01*
X121029161Y-89590582D01*
X120913908Y-90170000D01*
X121029161Y-90749418D01*
X121357375Y-91240625D01*
X121848582Y-91568839D01*
X122281744Y-91655000D01*
X122574256Y-91655000D01*
X123007418Y-91568839D01*
X123498625Y-91240625D01*
X123698000Y-90942239D01*
X123897375Y-91240625D01*
X124388582Y-91568839D01*
X124821744Y-91655000D01*
X125075198Y-91655000D01*
X123213530Y-93516669D01*
X123150071Y-93559071D01*
X122982096Y-93810464D01*
X122938000Y-94032149D01*
X122938000Y-94032153D01*
X122923112Y-94107000D01*
X122938000Y-94181847D01*
X122938001Y-115114148D01*
X122923112Y-115189000D01*
X122982097Y-115485537D01*
X123098706Y-115660054D01*
X123150072Y-115736929D01*
X123213528Y-115779329D01*
X129203671Y-121769473D01*
X129246071Y-121832929D01*
X129497463Y-122000904D01*
X129719148Y-122045000D01*
X129719153Y-122045000D01*
X129794000Y-122059888D01*
X129868847Y-122045000D01*
X150801153Y-122045000D01*
X150876000Y-122059888D01*
X150950847Y-122045000D01*
X150950852Y-122045000D01*
X151172537Y-122000904D01*
X151423929Y-121832929D01*
X151466331Y-121769470D01*
X152031802Y-121204000D01*
X152077983Y-121204000D01*
X152421635Y-121061655D01*
X152684655Y-120798635D01*
X152827000Y-120454983D01*
X152827000Y-120442000D01*
X152839983Y-120442000D01*
X153183635Y-120299655D01*
X153446655Y-120036635D01*
X153589000Y-119692983D01*
X153589000Y-119321017D01*
X153446655Y-118977365D01*
X153336444Y-118867154D01*
X153442571Y-118846044D01*
X153917239Y-118528881D01*
X154152662Y-118176546D01*
X154388085Y-118528881D01*
X154862753Y-118846044D01*
X155281329Y-118929304D01*
X155563995Y-118929304D01*
X155982571Y-118846044D01*
X156457239Y-118528881D01*
X156692662Y-118176546D01*
X156928085Y-118528881D01*
X157402753Y-118846044D01*
X157821329Y-118929304D01*
X158103995Y-118929304D01*
X158522571Y-118846044D01*
X158997239Y-118528881D01*
X159314402Y-118054213D01*
X159425775Y-117494304D01*
X159314402Y-116934395D01*
X158997239Y-116459727D01*
X158522571Y-116142564D01*
X158103995Y-116059304D01*
X157821329Y-116059304D01*
X157402753Y-116142564D01*
X156928085Y-116459727D01*
X156692662Y-116812062D01*
X156457239Y-116459727D01*
X155982571Y-116142564D01*
X155563995Y-116059304D01*
X155281329Y-116059304D01*
X154862753Y-116142564D01*
X154388085Y-116459727D01*
X154152662Y-116812062D01*
X153917239Y-116459727D01*
X153442571Y-116142564D01*
X153023995Y-116059304D01*
X152741329Y-116059304D01*
X152322753Y-116142564D01*
X151848085Y-116459727D01*
X151612662Y-116812062D01*
X151377239Y-116459727D01*
X150902571Y-116142564D01*
X150483995Y-116059304D01*
X150201329Y-116059304D01*
X149782753Y-116142564D01*
X149308085Y-116459727D01*
X149072662Y-116812062D01*
X148837239Y-116459727D01*
X148362571Y-116142564D01*
X147943995Y-116059304D01*
X147661329Y-116059304D01*
X147242753Y-116142564D01*
X146768085Y-116459727D01*
X146532662Y-116812062D01*
X146297239Y-116459727D01*
X145822571Y-116142564D01*
X145403995Y-116059304D01*
X145121329Y-116059304D01*
X144702753Y-116142564D01*
X144228085Y-116459727D01*
X143992662Y-116812062D01*
X143757239Y-116459727D01*
X143282571Y-116142564D01*
X142863995Y-116059304D01*
X142581329Y-116059304D01*
X142162753Y-116142564D01*
X141688085Y-116459727D01*
X141607447Y-116580410D01*
X141580819Y-116446539D01*
X141440471Y-116236495D01*
X141230427Y-116096147D01*
X140982662Y-116046864D01*
X139382662Y-116046864D01*
X139134897Y-116096147D01*
X138924853Y-116236495D01*
X138784505Y-116446539D01*
X138735222Y-116694304D01*
X138735222Y-118294304D01*
X138784505Y-118542069D01*
X138924853Y-118752113D01*
X139134897Y-118892461D01*
X139382662Y-118941744D01*
X140982662Y-118941744D01*
X141230427Y-118892461D01*
X141440471Y-118752113D01*
X141580819Y-118542069D01*
X141607447Y-118408198D01*
X141688085Y-118528881D01*
X142162753Y-118846044D01*
X142581329Y-118929304D01*
X142863995Y-118929304D01*
X143282571Y-118846044D01*
X143757239Y-118528881D01*
X143992662Y-118176546D01*
X144228085Y-118528881D01*
X144702753Y-118846044D01*
X145121329Y-118929304D01*
X145403995Y-118929304D01*
X145822571Y-118846044D01*
X146297239Y-118528881D01*
X146532662Y-118176546D01*
X146768085Y-118528881D01*
X147242753Y-118846044D01*
X147661329Y-118929304D01*
X147943995Y-118929304D01*
X148362571Y-118846044D01*
X148837239Y-118528881D01*
X149072662Y-118176546D01*
X149308085Y-118528881D01*
X149782753Y-118846044D01*
X150201329Y-118929304D01*
X150372620Y-118929304D01*
X150328071Y-118959071D01*
X150285671Y-119022527D01*
X149291199Y-120017000D01*
X130304812Y-120017000D01*
X125091006Y-114803194D01*
X126676186Y-114803194D01*
X126846017Y-115213228D01*
X127236304Y-115641487D01*
X127760770Y-115887790D01*
X127990662Y-115767123D01*
X127990662Y-114573304D01*
X126797507Y-114573304D01*
X126676186Y-114803194D01*
X125091006Y-114803194D01*
X124908010Y-114620199D01*
X124908010Y-112263194D01*
X126676186Y-112263194D01*
X126846017Y-112673228D01*
X127236304Y-113101487D01*
X127395616Y-113176304D01*
X127236304Y-113251121D01*
X126846017Y-113679380D01*
X126676186Y-114089414D01*
X126797507Y-114319304D01*
X127990662Y-114319304D01*
X127990662Y-112033304D01*
X126797507Y-112033304D01*
X126676186Y-112263194D01*
X124908010Y-112263194D01*
X124908010Y-109723194D01*
X126676186Y-109723194D01*
X126846017Y-110133228D01*
X127236304Y-110561487D01*
X127395616Y-110636304D01*
X127236304Y-110711121D01*
X126846017Y-111139380D01*
X126676186Y-111549414D01*
X126797507Y-111779304D01*
X127990662Y-111779304D01*
X127990662Y-109493304D01*
X126797507Y-109493304D01*
X126676186Y-109723194D01*
X124908010Y-109723194D01*
X124908010Y-107183194D01*
X126676186Y-107183194D01*
X126846017Y-107593228D01*
X127236304Y-108021487D01*
X127395616Y-108096304D01*
X127236304Y-108171121D01*
X126846017Y-108599380D01*
X126676186Y-109009414D01*
X126797507Y-109239304D01*
X127990662Y-109239304D01*
X127990662Y-106953304D01*
X126797507Y-106953304D01*
X126676186Y-107183194D01*
X124908010Y-107183194D01*
X124908010Y-104643194D01*
X126676186Y-104643194D01*
X126846017Y-105053228D01*
X127236304Y-105481487D01*
X127395616Y-105556304D01*
X127236304Y-105631121D01*
X126846017Y-106059380D01*
X126676186Y-106469414D01*
X126797507Y-106699304D01*
X127990662Y-106699304D01*
X127990662Y-104413304D01*
X126797507Y-104413304D01*
X126676186Y-104643194D01*
X124908010Y-104643194D01*
X124908010Y-102103194D01*
X126676186Y-102103194D01*
X126846017Y-102513228D01*
X127236304Y-102941487D01*
X127395616Y-103016304D01*
X127236304Y-103091121D01*
X126846017Y-103519380D01*
X126676186Y-103929414D01*
X126797507Y-104159304D01*
X127990662Y-104159304D01*
X127990662Y-101873304D01*
X126797507Y-101873304D01*
X126676186Y-102103194D01*
X124908010Y-102103194D01*
X124908010Y-99563194D01*
X126676186Y-99563194D01*
X126846017Y-99973228D01*
X127236304Y-100401487D01*
X127395616Y-100476304D01*
X127236304Y-100551121D01*
X126846017Y-100979380D01*
X126676186Y-101389414D01*
X126797507Y-101619304D01*
X127990662Y-101619304D01*
X127990662Y-99333304D01*
X126797507Y-99333304D01*
X126676186Y-99563194D01*
X124908010Y-99563194D01*
X124908010Y-96952054D01*
X126632662Y-96952054D01*
X126632662Y-97642614D01*
X126729335Y-97876003D01*
X126907964Y-98054631D01*
X127117540Y-98141440D01*
X126846017Y-98439380D01*
X126676186Y-98849414D01*
X126797507Y-99079304D01*
X127990662Y-99079304D01*
X127990662Y-96793304D01*
X126791412Y-96793304D01*
X126632662Y-96952054D01*
X124908010Y-96952054D01*
X124908010Y-96384791D01*
X125602807Y-95689994D01*
X126632662Y-95689994D01*
X126632662Y-96380554D01*
X126791412Y-96539304D01*
X127990662Y-96539304D01*
X127990662Y-95340054D01*
X127831912Y-95181304D01*
X127141353Y-95181304D01*
X126907964Y-95277977D01*
X126729335Y-95456605D01*
X126632662Y-95689994D01*
X125602807Y-95689994D01*
X129681593Y-91611209D01*
X129901744Y-91655000D01*
X130194256Y-91655000D01*
X130627418Y-91568839D01*
X131118625Y-91240625D01*
X131318000Y-90942239D01*
X131517375Y-91240625D01*
X131653000Y-91331247D01*
X131653001Y-94348675D01*
X130832813Y-95168864D01*
X129807662Y-95168864D01*
X129559897Y-95218147D01*
X129384637Y-95335253D01*
X129327360Y-95277977D01*
X129093971Y-95181304D01*
X128403412Y-95181304D01*
X128244662Y-95340054D01*
X128244662Y-96539304D01*
X128264662Y-96539304D01*
X128264662Y-96793304D01*
X128244662Y-96793304D01*
X128244662Y-99079304D01*
X128264662Y-99079304D01*
X128264662Y-99333304D01*
X128244662Y-99333304D01*
X128244662Y-101619304D01*
X128264662Y-101619304D01*
X128264662Y-101873304D01*
X128244662Y-101873304D01*
X128244662Y-104159304D01*
X128264662Y-104159304D01*
X128264662Y-104413304D01*
X128244662Y-104413304D01*
X128244662Y-106699304D01*
X128264662Y-106699304D01*
X128264662Y-106953304D01*
X128244662Y-106953304D01*
X128244662Y-109239304D01*
X128264662Y-109239304D01*
X128264662Y-109493304D01*
X128244662Y-109493304D01*
X128244662Y-111779304D01*
X128264662Y-111779304D01*
X128264662Y-112033304D01*
X128244662Y-112033304D01*
X128244662Y-114319304D01*
X128264662Y-114319304D01*
X128264662Y-114573304D01*
X128244662Y-114573304D01*
X128244662Y-115767123D01*
X128474554Y-115887790D01*
X128999020Y-115641487D01*
X129386309Y-115216518D01*
X129587037Y-115516929D01*
X130078244Y-115845143D01*
X130511406Y-115931304D01*
X130803918Y-115931304D01*
X131237080Y-115845143D01*
X131728287Y-115516929D01*
X131927662Y-115218543D01*
X132127037Y-115516929D01*
X132618244Y-115845143D01*
X133051406Y-115931304D01*
X133343918Y-115931304D01*
X133777080Y-115845143D01*
X134268287Y-115516929D01*
X134596501Y-115025722D01*
X134711754Y-114446304D01*
X134596501Y-113866886D01*
X134268287Y-113375679D01*
X133969901Y-113176304D01*
X134268287Y-112976929D01*
X134596501Y-112485722D01*
X134711754Y-111906304D01*
X134596501Y-111326886D01*
X134268287Y-110835679D01*
X133969901Y-110636304D01*
X134268287Y-110436929D01*
X134410999Y-110223345D01*
X138790748Y-110223345D01*
X139030273Y-110729438D01*
X139445239Y-111105345D01*
X139833623Y-111266208D01*
X140055662Y-111144219D01*
X140055662Y-110001304D01*
X138912033Y-110001304D01*
X138790748Y-110223345D01*
X134410999Y-110223345D01*
X134596501Y-109945722D01*
X134680135Y-109525263D01*
X138790748Y-109525263D01*
X138912033Y-109747304D01*
X140055662Y-109747304D01*
X140055662Y-108604389D01*
X139833623Y-108482400D01*
X139445239Y-108643263D01*
X139030273Y-109019170D01*
X138790748Y-109525263D01*
X134680135Y-109525263D01*
X134711754Y-109366304D01*
X134596501Y-108786886D01*
X134268287Y-108295679D01*
X133969901Y-108096304D01*
X134268287Y-107896929D01*
X134596501Y-107405722D01*
X134711754Y-106826304D01*
X134596501Y-106246886D01*
X134268287Y-105755679D01*
X133969901Y-105556304D01*
X134268287Y-105356929D01*
X134596501Y-104865722D01*
X134711754Y-104286304D01*
X134596501Y-103706886D01*
X134268287Y-103215679D01*
X133969901Y-103016304D01*
X134268287Y-102816929D01*
X134596501Y-102325722D01*
X134711754Y-101746304D01*
X134596501Y-101166886D01*
X134268287Y-100675679D01*
X133969901Y-100476304D01*
X134268287Y-100276929D01*
X134596501Y-99785722D01*
X134711754Y-99206304D01*
X134596501Y-98626886D01*
X134268287Y-98135679D01*
X134250043Y-98123488D01*
X134295427Y-98114461D01*
X134505471Y-97974113D01*
X134645819Y-97764069D01*
X134695102Y-97516304D01*
X134695102Y-95816304D01*
X134645819Y-95568539D01*
X134505471Y-95358495D01*
X134295427Y-95218147D01*
X134047662Y-95168864D01*
X133423261Y-95168864D01*
X133468750Y-95100785D01*
X133523000Y-94828052D01*
X133523000Y-94828049D01*
X133541316Y-94735967D01*
X133523000Y-94643885D01*
X133523000Y-91331247D01*
X133658625Y-91240625D01*
X133673096Y-91218967D01*
X133739673Y-91379698D01*
X133918301Y-91558327D01*
X134151690Y-91655000D01*
X134842250Y-91655000D01*
X135001000Y-91496250D01*
X135001000Y-90297000D01*
X135255000Y-90297000D01*
X135255000Y-91496250D01*
X135413750Y-91655000D01*
X136104310Y-91655000D01*
X136337699Y-91558327D01*
X136516327Y-91379698D01*
X136613000Y-91146309D01*
X136613000Y-90455750D01*
X136454250Y-90297000D01*
X135255000Y-90297000D01*
X135001000Y-90297000D01*
X134981000Y-90297000D01*
X134981000Y-90043000D01*
X135001000Y-90043000D01*
X135001000Y-88843750D01*
X135255000Y-88843750D01*
X135255000Y-90043000D01*
X136454250Y-90043000D01*
X136613000Y-89884250D01*
X136613000Y-89193691D01*
X136516327Y-88960302D01*
X136337699Y-88781673D01*
X136104310Y-88685000D01*
X135413750Y-88685000D01*
X135255000Y-88843750D01*
X135001000Y-88843750D01*
X134842250Y-88685000D01*
X134151690Y-88685000D01*
X133918301Y-88781673D01*
X133739673Y-88960302D01*
X133673096Y-89121033D01*
X133658625Y-89099375D01*
X133613839Y-89069450D01*
X134245290Y-88438000D01*
X136559914Y-88438000D01*
X136652000Y-88456317D01*
X136744086Y-88438000D01*
X137016819Y-88383750D01*
X137052999Y-88359575D01*
X137053000Y-103575147D01*
X137038111Y-103649999D01*
X137053000Y-103724851D01*
X137097096Y-103946536D01*
X137265071Y-104197928D01*
X137328527Y-104240328D01*
X138809312Y-105721115D01*
X138744887Y-106045000D01*
X138856260Y-106604909D01*
X139173423Y-107079577D01*
X139648091Y-107396740D01*
X140066667Y-107480000D01*
X140349333Y-107480000D01*
X140531886Y-107443688D01*
X141649670Y-108561472D01*
X141692071Y-108624929D01*
X141850812Y-108730996D01*
X141688085Y-108839727D01*
X141431715Y-109223412D01*
X141335051Y-109019170D01*
X140920085Y-108643263D01*
X140531701Y-108482400D01*
X140309662Y-108604389D01*
X140309662Y-109747304D01*
X140329662Y-109747304D01*
X140329662Y-110001304D01*
X140309662Y-110001304D01*
X140309662Y-111144219D01*
X140531701Y-111266208D01*
X140920085Y-111105345D01*
X141335051Y-110729438D01*
X141431715Y-110525196D01*
X141688085Y-110908881D01*
X142162753Y-111226044D01*
X142581329Y-111309304D01*
X142863995Y-111309304D01*
X143282571Y-111226044D01*
X143757239Y-110908881D01*
X143992662Y-110556546D01*
X144228085Y-110908881D01*
X144702753Y-111226044D01*
X145121329Y-111309304D01*
X145403995Y-111309304D01*
X145822571Y-111226044D01*
X146297239Y-110908881D01*
X146532662Y-110556546D01*
X146768085Y-110908881D01*
X147242753Y-111226044D01*
X147661329Y-111309304D01*
X147943995Y-111309304D01*
X148362571Y-111226044D01*
X148837239Y-110908881D01*
X149072662Y-110556546D01*
X149308085Y-110908881D01*
X149782753Y-111226044D01*
X150201329Y-111309304D01*
X150483995Y-111309304D01*
X150902571Y-111226044D01*
X151377239Y-110908881D01*
X151612662Y-110556546D01*
X151848085Y-110908881D01*
X152322753Y-111226044D01*
X152741329Y-111309304D01*
X153023995Y-111309304D01*
X153442571Y-111226044D01*
X153917239Y-110908881D01*
X154152662Y-110556546D01*
X154388085Y-110908881D01*
X154862753Y-111226044D01*
X155281329Y-111309304D01*
X155563995Y-111309304D01*
X155982571Y-111226044D01*
X156457239Y-110908881D01*
X156692662Y-110556546D01*
X156928085Y-110908881D01*
X157402753Y-111226044D01*
X157821329Y-111309304D01*
X158103995Y-111309304D01*
X158522571Y-111226044D01*
X158997239Y-110908881D01*
X159314402Y-110434213D01*
X159425775Y-109874304D01*
X159314402Y-109314395D01*
X158997239Y-108839727D01*
X158522571Y-108522564D01*
X158103995Y-108439304D01*
X157821329Y-108439304D01*
X157638776Y-108475616D01*
X156755689Y-107592530D01*
X156713287Y-107529071D01*
X156461895Y-107361096D01*
X156240210Y-107317000D01*
X156240205Y-107317000D01*
X156165358Y-107302112D01*
X156142821Y-107306595D01*
X156482577Y-107079577D01*
X156738947Y-106695892D01*
X156835611Y-106900134D01*
X157250577Y-107276041D01*
X157638961Y-107436904D01*
X157861000Y-107314915D01*
X157861000Y-106172000D01*
X158115000Y-106172000D01*
X158115000Y-107314915D01*
X158337039Y-107436904D01*
X158725423Y-107276041D01*
X159140389Y-106900134D01*
X159379914Y-106394041D01*
X159258629Y-106172000D01*
X158115000Y-106172000D01*
X157861000Y-106172000D01*
X157841000Y-106172000D01*
X157841000Y-105918000D01*
X157861000Y-105918000D01*
X157861000Y-104775085D01*
X157638961Y-104653096D01*
X157250577Y-104813959D01*
X156835611Y-105189866D01*
X156738947Y-105394108D01*
X156482577Y-105010423D01*
X156007909Y-104693260D01*
X155589333Y-104610000D01*
X155306667Y-104610000D01*
X154888091Y-104693260D01*
X154413423Y-105010423D01*
X154178000Y-105362758D01*
X153942577Y-105010423D01*
X153467909Y-104693260D01*
X153049333Y-104610000D01*
X152766667Y-104610000D01*
X152348091Y-104693260D01*
X151873423Y-105010423D01*
X151638000Y-105362758D01*
X151402577Y-105010423D01*
X150927909Y-104693260D01*
X150509333Y-104610000D01*
X150226667Y-104610000D01*
X149808091Y-104693260D01*
X149333423Y-105010423D01*
X149098000Y-105362758D01*
X148862577Y-105010423D01*
X148387909Y-104693260D01*
X147969333Y-104610000D01*
X147797801Y-104610000D01*
X151977474Y-100430328D01*
X152040930Y-100387928D01*
X152208905Y-100136536D01*
X152253001Y-99914851D01*
X152253001Y-99914847D01*
X152267889Y-99840000D01*
X152253001Y-99765153D01*
X152253001Y-99713203D01*
X152348091Y-99776740D01*
X152766667Y-99860000D01*
X153049333Y-99860000D01*
X153231887Y-99823688D01*
X158159071Y-104750872D01*
X158115000Y-104775085D01*
X158115000Y-105918000D01*
X159258629Y-105918000D01*
X159282499Y-105874301D01*
X161038001Y-107629803D01*
X161038000Y-122378065D01*
X160717570Y-122592170D01*
X160386350Y-123087876D01*
X160299400Y-123525003D01*
X160299400Y-124124998D01*
X160386350Y-124562125D01*
X160657547Y-124968000D01*
X157858452Y-124968000D01*
X158129650Y-124562124D01*
X158216600Y-124124997D01*
X158216600Y-123525002D01*
X158129650Y-123087875D01*
X157798430Y-122592170D01*
X157302724Y-122260950D01*
X156718000Y-122144641D01*
X156133275Y-122260950D01*
X155637570Y-122592170D01*
X155448000Y-122875881D01*
X155258430Y-122592170D01*
X154762724Y-122260950D01*
X154178000Y-122144641D01*
X153593275Y-122260950D01*
X153097570Y-122592170D01*
X152908000Y-122875881D01*
X152718430Y-122592170D01*
X152222724Y-122260950D01*
X151638000Y-122144641D01*
X151053275Y-122260950D01*
X150557570Y-122592170D01*
X150364091Y-122881733D01*
X150000036Y-122474268D01*
X149472791Y-122220291D01*
X149457026Y-122217642D01*
X149225000Y-122338783D01*
X149225000Y-123698000D01*
X149245000Y-123698000D01*
X149245000Y-123952000D01*
X149225000Y-123952000D01*
X149225000Y-123972000D01*
X148971000Y-123972000D01*
X148971000Y-123952000D01*
X148951000Y-123952000D01*
X148951000Y-123698000D01*
X148971000Y-123698000D01*
X148971000Y-122338783D01*
X148738974Y-122217642D01*
X148723209Y-122220291D01*
X148195964Y-122474268D01*
X147831910Y-122881732D01*
X147638430Y-122592170D01*
X147142724Y-122260950D01*
X146558000Y-122144641D01*
X145973275Y-122260950D01*
X145477570Y-122592170D01*
X145288000Y-122875881D01*
X145098430Y-122592170D01*
X144602724Y-122260950D01*
X144018000Y-122144641D01*
X143433275Y-122260950D01*
X142937570Y-122592170D01*
X142748000Y-122875881D01*
X142558430Y-122592170D01*
X142062724Y-122260950D01*
X141478000Y-122144641D01*
X140893275Y-122260950D01*
X140397570Y-122592170D01*
X140208000Y-122875881D01*
X140018430Y-122592170D01*
X139522724Y-122260950D01*
X138938000Y-122144641D01*
X138353275Y-122260950D01*
X137857570Y-122592170D01*
X137526350Y-123087876D01*
X137439400Y-123525003D01*
X137439400Y-124124998D01*
X137526350Y-124562125D01*
X137797547Y-124968000D01*
X136090308Y-124968000D01*
X136198625Y-124895625D01*
X136526839Y-124404418D01*
X136642092Y-123825000D01*
X136526839Y-123245582D01*
X136198625Y-122754375D01*
X135707418Y-122426161D01*
X135274256Y-122340000D01*
X134981744Y-122340000D01*
X134548582Y-122426161D01*
X134057375Y-122754375D01*
X134042904Y-122776033D01*
X133976327Y-122615302D01*
X133797699Y-122436673D01*
X133564310Y-122340000D01*
X132873750Y-122340000D01*
X132715000Y-122498750D01*
X132715000Y-123698000D01*
X132735000Y-123698000D01*
X132735000Y-123952000D01*
X132715000Y-123952000D01*
X132715000Y-123972000D01*
X132461000Y-123972000D01*
X132461000Y-123952000D01*
X131261750Y-123952000D01*
X131103000Y-124110750D01*
X131103000Y-124801309D01*
X131172046Y-124968000D01*
X127381294Y-124968000D01*
X127635000Y-124355499D01*
X127635000Y-123294501D01*
X127450340Y-122848691D01*
X131103000Y-122848691D01*
X131103000Y-123539250D01*
X131261750Y-123698000D01*
X132461000Y-123698000D01*
X132461000Y-122498750D01*
X132302250Y-122340000D01*
X131611690Y-122340000D01*
X131378301Y-122436673D01*
X131199673Y-122615302D01*
X131103000Y-122848691D01*
X127450340Y-122848691D01*
X127228974Y-122314266D01*
X126478734Y-121564026D01*
X125498499Y-121158000D01*
X124437501Y-121158000D01*
X123457266Y-121564026D01*
X122707026Y-122314266D01*
X122301000Y-123294501D01*
X122301000Y-124355499D01*
X122554706Y-124968000D01*
X112395000Y-124968000D01*
X112395000Y-84455000D01*
X124774887Y-84455000D01*
X124886260Y-85014909D01*
X125203423Y-85489577D01*
X125678091Y-85806740D01*
X126096667Y-85890000D01*
X126379333Y-85890000D01*
X126797909Y-85806740D01*
X127272577Y-85489577D01*
X127589740Y-85014909D01*
X127701113Y-84455000D01*
X127589740Y-83895091D01*
X127272577Y-83420423D01*
X126797909Y-83103260D01*
X126379333Y-83020000D01*
X126096667Y-83020000D01*
X125678091Y-83103260D01*
X125203423Y-83420423D01*
X124886260Y-83895091D01*
X124774887Y-84455000D01*
X112395000Y-84455000D01*
X112395000Y-74422000D01*
X123824706Y-74422000D01*
X123571000Y-75034501D01*
G36*
X173417570Y-76797830D02*
X173913276Y-77129050D01*
X174498000Y-77245359D01*
X175082725Y-77129050D01*
X175578430Y-76797830D01*
X175595015Y-76773009D01*
X175641000Y-76864980D01*
X175641000Y-86995000D01*
X175650667Y-87043601D01*
X175678197Y-87084803D01*
X176731394Y-88138000D01*
X176507501Y-88138000D01*
X175527266Y-88544026D01*
X174777026Y-89294266D01*
X174371000Y-90274501D01*
X174371000Y-91335499D01*
X174777026Y-92315734D01*
X175527266Y-93065974D01*
X176507501Y-93472000D01*
X177568499Y-93472000D01*
X178181000Y-93218294D01*
X178181000Y-116331706D01*
X177568499Y-116078000D01*
X176507501Y-116078000D01*
X175527266Y-116484026D01*
X174777026Y-117234266D01*
X174371000Y-118214501D01*
X174371000Y-119275499D01*
X174777026Y-120255734D01*
X175527266Y-121005974D01*
X176507501Y-121412000D01*
X177568499Y-121412000D01*
X178181000Y-121158294D01*
X178181000Y-121232394D01*
X175978647Y-123434747D01*
X175909650Y-123087875D01*
X175578430Y-122592170D01*
X175082724Y-122260950D01*
X174498000Y-122144641D01*
X174120026Y-122219825D01*
X171684731Y-119784530D01*
X171684729Y-119784527D01*
X170922731Y-119022530D01*
X170880329Y-118959071D01*
X170628937Y-118791096D01*
X170407252Y-118747000D01*
X170407247Y-118747000D01*
X170332400Y-118732112D01*
X170257553Y-118747000D01*
X164900290Y-118747000D01*
X164867635Y-118714345D01*
X164523983Y-118572000D01*
X164152017Y-118572000D01*
X163808365Y-118714345D01*
X163545345Y-118977365D01*
X163403000Y-119321017D01*
X163403000Y-119692983D01*
X163545345Y-120036635D01*
X163650710Y-120142000D01*
X163545345Y-120247365D01*
X163403000Y-120591017D01*
X163403000Y-120962983D01*
X163545345Y-121306635D01*
X163808365Y-121569655D01*
X164152017Y-121712000D01*
X164523983Y-121712000D01*
X164867635Y-121569655D01*
X164900290Y-121537000D01*
X168747599Y-121537000D01*
X169365652Y-122155054D01*
X168833275Y-122260950D01*
X168337570Y-122592170D01*
X168148000Y-122875881D01*
X167958430Y-122592170D01*
X167462724Y-122260950D01*
X166878000Y-122144641D01*
X166293275Y-122260950D01*
X165797570Y-122592170D01*
X165608000Y-122875881D01*
X165418430Y-122592170D01*
X164922724Y-122260950D01*
X164338000Y-122144641D01*
X163753275Y-122260950D01*
X163257570Y-122592170D01*
X163068000Y-122875881D01*
X162878430Y-122592170D01*
X162558000Y-122378066D01*
X162558000Y-118483744D01*
X163892662Y-118483744D01*
X164140427Y-118434461D01*
X164312662Y-118319376D01*
X164484897Y-118434461D01*
X164732662Y-118483744D01*
X166432662Y-118483744D01*
X166680427Y-118434461D01*
X166855687Y-118317355D01*
X166912964Y-118374631D01*
X167146353Y-118471304D01*
X167836912Y-118471304D01*
X167995662Y-118312554D01*
X167995662Y-117113304D01*
X168249662Y-117113304D01*
X168249662Y-118312554D01*
X168408412Y-118471304D01*
X169098971Y-118471304D01*
X169332360Y-118374631D01*
X169510989Y-118196003D01*
X169607662Y-117962614D01*
X169607662Y-117272054D01*
X169448912Y-117113304D01*
X168249662Y-117113304D01*
X167995662Y-117113304D01*
X167975662Y-117113304D01*
X167975662Y-116859304D01*
X167995662Y-116859304D01*
X167995662Y-114573304D01*
X168249662Y-114573304D01*
X168249662Y-116859304D01*
X169448912Y-116859304D01*
X169607662Y-116700554D01*
X169607662Y-116009994D01*
X169510989Y-115776605D01*
X169332360Y-115597977D01*
X169122784Y-115511168D01*
X169394307Y-115213228D01*
X169564138Y-114803194D01*
X169442817Y-114573304D01*
X168249662Y-114573304D01*
X167995662Y-114573304D01*
X167975662Y-114573304D01*
X167975662Y-114319304D01*
X167995662Y-114319304D01*
X167995662Y-112033304D01*
X168249662Y-112033304D01*
X168249662Y-114319304D01*
X169442817Y-114319304D01*
X169564138Y-114089414D01*
X169394307Y-113679380D01*
X169004020Y-113251121D01*
X168844708Y-113176304D01*
X169004020Y-113101487D01*
X169394307Y-112673228D01*
X169564138Y-112263194D01*
X169442817Y-112033304D01*
X168249662Y-112033304D01*
X167995662Y-112033304D01*
X167975662Y-112033304D01*
X167975662Y-111779304D01*
X167995662Y-111779304D01*
X167995662Y-109493304D01*
X168249662Y-109493304D01*
X168249662Y-111779304D01*
X169442817Y-111779304D01*
X169564138Y-111549414D01*
X169394307Y-111139380D01*
X169004020Y-110711121D01*
X168844708Y-110636304D01*
X169004020Y-110561487D01*
X169394307Y-110133228D01*
X169564138Y-109723194D01*
X169442817Y-109493304D01*
X168249662Y-109493304D01*
X167995662Y-109493304D01*
X167975662Y-109493304D01*
X167975662Y-109239304D01*
X167995662Y-109239304D01*
X167995662Y-106953304D01*
X168249662Y-106953304D01*
X168249662Y-109239304D01*
X169442817Y-109239304D01*
X169453004Y-109220000D01*
X174253908Y-109220000D01*
X174369161Y-109799418D01*
X174697375Y-110290625D01*
X174995761Y-110490000D01*
X174697375Y-110689375D01*
X174369161Y-111180582D01*
X174253908Y-111760000D01*
X174369161Y-112339418D01*
X174697375Y-112830625D01*
X174995761Y-113030000D01*
X174697375Y-113229375D01*
X174369161Y-113720582D01*
X174253908Y-114300000D01*
X174369161Y-114879418D01*
X174697375Y-115370625D01*
X175188582Y-115698839D01*
X175621744Y-115785000D01*
X175914256Y-115785000D01*
X176347418Y-115698839D01*
X176838625Y-115370625D01*
X177166839Y-114879418D01*
X177282092Y-114300000D01*
X177166839Y-113720582D01*
X176838625Y-113229375D01*
X176540239Y-113030000D01*
X176838625Y-112830625D01*
X177166839Y-112339418D01*
X177282092Y-111760000D01*
X177166839Y-111180582D01*
X176838625Y-110689375D01*
X176540239Y-110490000D01*
X176838625Y-110290625D01*
X177166839Y-109799418D01*
X177282092Y-109220000D01*
X177166839Y-108640582D01*
X176838625Y-108149375D01*
X176816967Y-108134904D01*
X176977698Y-108068327D01*
X177156327Y-107889699D01*
X177253000Y-107656310D01*
X177253000Y-106965750D01*
X177094250Y-106807000D01*
X175895000Y-106807000D01*
X175895000Y-106827000D01*
X175641000Y-106827000D01*
X175641000Y-106807000D01*
X174441750Y-106807000D01*
X174283000Y-106965750D01*
X174283000Y-107656310D01*
X174379673Y-107889699D01*
X174558302Y-108068327D01*
X174719033Y-108134904D01*
X174697375Y-108149375D01*
X174369161Y-108640582D01*
X174253908Y-109220000D01*
X169453004Y-109220000D01*
X169564138Y-109009414D01*
X169394307Y-108599380D01*
X169004020Y-108171121D01*
X168844708Y-108096304D01*
X169004020Y-108021487D01*
X169394307Y-107593228D01*
X169564138Y-107183194D01*
X169442817Y-106953304D01*
X168249662Y-106953304D01*
X167995662Y-106953304D01*
X167975662Y-106953304D01*
X167975662Y-106699304D01*
X167995662Y-106699304D01*
X167995662Y-104413304D01*
X168249662Y-104413304D01*
X168249662Y-106699304D01*
X169442817Y-106699304D01*
X169564138Y-106469414D01*
X169394307Y-106059380D01*
X169070155Y-105703690D01*
X174283000Y-105703690D01*
X174283000Y-106394250D01*
X174441750Y-106553000D01*
X175641000Y-106553000D01*
X175641000Y-105353750D01*
X175895000Y-105353750D01*
X175895000Y-106553000D01*
X177094250Y-106553000D01*
X177253000Y-106394250D01*
X177253000Y-105703690D01*
X177156327Y-105470301D01*
X176977698Y-105291673D01*
X176744309Y-105195000D01*
X176053750Y-105195000D01*
X175895000Y-105353750D01*
X175641000Y-105353750D01*
X175482250Y-105195000D01*
X174791691Y-105195000D01*
X174558302Y-105291673D01*
X174379673Y-105470301D01*
X174283000Y-105703690D01*
X169070155Y-105703690D01*
X169004020Y-105631121D01*
X168844708Y-105556304D01*
X169004020Y-105481487D01*
X169394307Y-105053228D01*
X169564138Y-104643194D01*
X169442817Y-104413304D01*
X168249662Y-104413304D01*
X167995662Y-104413304D01*
X167975662Y-104413304D01*
X167975662Y-104159304D01*
X167995662Y-104159304D01*
X167995662Y-101873304D01*
X168249662Y-101873304D01*
X168249662Y-104159304D01*
X169442817Y-104159304D01*
X169564138Y-103929414D01*
X169394307Y-103519380D01*
X169004020Y-103091121D01*
X168844708Y-103016304D01*
X169004020Y-102941487D01*
X169394307Y-102513228D01*
X169564138Y-102103194D01*
X169442817Y-101873304D01*
X168249662Y-101873304D01*
X167995662Y-101873304D01*
X167975662Y-101873304D01*
X167975662Y-101619304D01*
X167995662Y-101619304D01*
X167995662Y-99333304D01*
X168249662Y-99333304D01*
X168249662Y-101619304D01*
X169442817Y-101619304D01*
X169564138Y-101389414D01*
X169394307Y-100979380D01*
X169004020Y-100551121D01*
X168844708Y-100476304D01*
X169004020Y-100401487D01*
X169394307Y-99973228D01*
X169564138Y-99563194D01*
X169442817Y-99333304D01*
X168249662Y-99333304D01*
X167995662Y-99333304D01*
X167975662Y-99333304D01*
X167975662Y-99079304D01*
X167995662Y-99079304D01*
X167995662Y-97885485D01*
X168249662Y-97885485D01*
X168249662Y-99079304D01*
X169442817Y-99079304D01*
X169564138Y-98849414D01*
X169394307Y-98439380D01*
X169004020Y-98011121D01*
X168479554Y-97764818D01*
X168249662Y-97885485D01*
X167995662Y-97885485D01*
X167765770Y-97764818D01*
X167241304Y-98011121D01*
X166854015Y-98436090D01*
X166653287Y-98135679D01*
X166162080Y-97807465D01*
X165728918Y-97721304D01*
X165436406Y-97721304D01*
X165003244Y-97807465D01*
X164512037Y-98135679D01*
X164312662Y-98434065D01*
X164113287Y-98135679D01*
X163622080Y-97807465D01*
X163188918Y-97721304D01*
X162896406Y-97721304D01*
X162463244Y-97807465D01*
X161972037Y-98135679D01*
X161643823Y-98626886D01*
X161528570Y-99206304D01*
X161643823Y-99785722D01*
X161972037Y-100276929D01*
X162270423Y-100476304D01*
X161972037Y-100675679D01*
X161643823Y-101166886D01*
X161528570Y-101746304D01*
X161643823Y-102325722D01*
X161972037Y-102816929D01*
X162270423Y-103016304D01*
X161972037Y-103215679D01*
X161643823Y-103706886D01*
X161528570Y-104286304D01*
X161643823Y-104865722D01*
X161972037Y-105356929D01*
X162270423Y-105556304D01*
X161972037Y-105755679D01*
X161708256Y-106150455D01*
X155417801Y-99860000D01*
X155589333Y-99860000D01*
X156007909Y-99776740D01*
X156482577Y-99459577D01*
X156563215Y-99338894D01*
X156589843Y-99472765D01*
X156730191Y-99682809D01*
X156940235Y-99823157D01*
X157188000Y-99872440D01*
X158788000Y-99872440D01*
X159035765Y-99823157D01*
X159245809Y-99682809D01*
X159386157Y-99472765D01*
X159435440Y-99225000D01*
X159435440Y-97625000D01*
X159386157Y-97377235D01*
X159245809Y-97167191D01*
X159035765Y-97026843D01*
X158788000Y-96977560D01*
X157188000Y-96977560D01*
X156940235Y-97026843D01*
X156730191Y-97167191D01*
X156589843Y-97377235D01*
X156563215Y-97511106D01*
X156482577Y-97390423D01*
X156007909Y-97073260D01*
X155589333Y-96990000D01*
X155306667Y-96990000D01*
X154888091Y-97073260D01*
X154413423Y-97390423D01*
X154178000Y-97742758D01*
X153942577Y-97390423D01*
X153467909Y-97073260D01*
X153419034Y-97063538D01*
X153428888Y-97013998D01*
X153414000Y-96939150D01*
X153414000Y-95593000D01*
X171018560Y-95593000D01*
X171018560Y-97193000D01*
X171067843Y-97440765D01*
X171208191Y-97650809D01*
X171418235Y-97791157D01*
X171666000Y-97840440D01*
X173266000Y-97840440D01*
X173513765Y-97791157D01*
X173723809Y-97650809D01*
X173864157Y-97440765D01*
X173913440Y-97193000D01*
X173913440Y-95593000D01*
X173864157Y-95345235D01*
X173723809Y-95135191D01*
X173513765Y-94994843D01*
X173266000Y-94945560D01*
X171666000Y-94945560D01*
X171418235Y-94994843D01*
X171208191Y-95135191D01*
X171067843Y-95345235D01*
X171018560Y-95593000D01*
X153414000Y-95593000D01*
X153414000Y-92360750D01*
X153963000Y-92360750D01*
X153963000Y-93051309D01*
X154059673Y-93284698D01*
X154238301Y-93463327D01*
X154471690Y-93560000D01*
X155162250Y-93560000D01*
X155321000Y-93401250D01*
X155321000Y-92202000D01*
X154121750Y-92202000D01*
X153963000Y-92360750D01*
X153414000Y-92360750D01*
X153414000Y-91098691D01*
X153963000Y-91098691D01*
X153963000Y-91789250D01*
X154121750Y-91948000D01*
X155321000Y-91948000D01*
X155321000Y-90748750D01*
X155162250Y-90590000D01*
X154471690Y-90590000D01*
X154238301Y-90686673D01*
X154059673Y-90865302D01*
X153963000Y-91098691D01*
X153414000Y-91098691D01*
X153414000Y-86938609D01*
X153414161Y-86939418D01*
X153742375Y-87430625D01*
X154233582Y-87758839D01*
X154666744Y-87845000D01*
X154959256Y-87845000D01*
X155392418Y-87758839D01*
X155883625Y-87430625D01*
X156083000Y-87132239D01*
X156282375Y-87430625D01*
X156773582Y-87758839D01*
X157206744Y-87845000D01*
X157499256Y-87845000D01*
X157932418Y-87758839D01*
X158244001Y-87550646D01*
X158244001Y-88190143D01*
X158229111Y-88265000D01*
X158288096Y-88561537D01*
X158456071Y-88812929D01*
X158707463Y-88980904D01*
X158929148Y-89025000D01*
X159004000Y-89039889D01*
X159078852Y-89025000D01*
X161483199Y-89025000D01*
X163048199Y-90590000D01*
X162921744Y-90590000D01*
X162488582Y-90676161D01*
X161997375Y-91004375D01*
X161798000Y-91302761D01*
X161598625Y-91004375D01*
X161107418Y-90676161D01*
X160674256Y-90590000D01*
X160381744Y-90590000D01*
X159948582Y-90676161D01*
X159457375Y-91004375D01*
X159258000Y-91302761D01*
X159058625Y-91004375D01*
X158567418Y-90676161D01*
X158134256Y-90590000D01*
X157841744Y-90590000D01*
X157408582Y-90676161D01*
X156917375Y-91004375D01*
X156902904Y-91026033D01*
X156836327Y-90865302D01*
X156657699Y-90686673D01*
X156424310Y-90590000D01*
X155733750Y-90590000D01*
X155575000Y-90748750D01*
X155575000Y-91948000D01*
X155595000Y-91948000D01*
X155595000Y-92202000D01*
X155575000Y-92202000D01*
X155575000Y-93401250D01*
X155733750Y-93560000D01*
X156424310Y-93560000D01*
X156657699Y-93463327D01*
X156836327Y-93284698D01*
X156902904Y-93123967D01*
X156917375Y-93145625D01*
X157408582Y-93473839D01*
X157841744Y-93560000D01*
X158134256Y-93560000D01*
X158567418Y-93473839D01*
X159058625Y-93145625D01*
X159258000Y-92847239D01*
X159457375Y-93145625D01*
X159948582Y-93473839D01*
X160381744Y-93560000D01*
X160674256Y-93560000D01*
X160894408Y-93516209D01*
X161715671Y-94337473D01*
X161758071Y-94400929D01*
X161821527Y-94443329D01*
X162009462Y-94568904D01*
X162057605Y-94578480D01*
X162231148Y-94613000D01*
X162231152Y-94613000D01*
X162306000Y-94627888D01*
X162380848Y-94613000D01*
X167311153Y-94613000D01*
X167386000Y-94627888D01*
X167460847Y-94613000D01*
X167460852Y-94613000D01*
X167682537Y-94568904D01*
X167933929Y-94400929D01*
X167976331Y-94337470D01*
X172142114Y-90171688D01*
X172324667Y-90208000D01*
X172607333Y-90208000D01*
X173025909Y-90124740D01*
X173500577Y-89807577D01*
X173817740Y-89332909D01*
X173929113Y-88773000D01*
X173817740Y-88213091D01*
X173623239Y-87922000D01*
X173877333Y-87922000D01*
X174295909Y-87838740D01*
X174770577Y-87521577D01*
X175087740Y-87046909D01*
X175199113Y-86487000D01*
X175087740Y-85927091D01*
X174770577Y-85452423D01*
X174295909Y-85135260D01*
X173877333Y-85052000D01*
X173594667Y-85052000D01*
X173176091Y-85135260D01*
X172701423Y-85452423D01*
X172520643Y-85722980D01*
X172466000Y-85712111D01*
X172391148Y-85727000D01*
X172160043Y-85727000D01*
X171976577Y-85452423D01*
X171501909Y-85135260D01*
X171083333Y-85052000D01*
X170800667Y-85052000D01*
X170382091Y-85135260D01*
X169907423Y-85452423D01*
X169590260Y-85927091D01*
X169545000Y-86154628D01*
X169499740Y-85927091D01*
X169182577Y-85452423D01*
X168830242Y-85217000D01*
X169182577Y-84981577D01*
X169499740Y-84506909D01*
X169611113Y-83947000D01*
X169499740Y-83387091D01*
X169182577Y-82912423D01*
X168830242Y-82677000D01*
X169182577Y-82441577D01*
X169499740Y-81966909D01*
X169611113Y-81407000D01*
X169538510Y-81041999D01*
X173296154Y-81041999D01*
X173371001Y-81056887D01*
X173445848Y-81041999D01*
X173445853Y-81041999D01*
X173667538Y-80997903D01*
X173918930Y-80829928D01*
X173961332Y-80766469D01*
X174220470Y-80507331D01*
X174283929Y-80464929D01*
X174384483Y-80314440D01*
X174536000Y-80314440D01*
X174783765Y-80265157D01*
X174993809Y-80124809D01*
X175134157Y-79914765D01*
X175183440Y-79667000D01*
X175183440Y-78067000D01*
X175134157Y-77819235D01*
X174993809Y-77609191D01*
X174783765Y-77468843D01*
X174536000Y-77419560D01*
X172936000Y-77419560D01*
X172688235Y-77468843D01*
X172478191Y-77609191D01*
X172339000Y-77817503D01*
X172199809Y-77609191D01*
X171989765Y-77468843D01*
X171742000Y-77419560D01*
X170142000Y-77419560D01*
X169894235Y-77468843D01*
X169699058Y-77599257D01*
X169327074Y-77227273D01*
X169418000Y-77245359D01*
X170002725Y-77129050D01*
X170498430Y-76797830D01*
X170688000Y-76514119D01*
X170877570Y-76797830D01*
X171373276Y-77129050D01*
X171958000Y-77245359D01*
X172542725Y-77129050D01*
X173038430Y-76797830D01*
X173228000Y-76514119D01*
X173417570Y-76797830D01*
X173417570Y-76797830D01*
G37*
X173417570Y-76797830D02*
X173913276Y-77129050D01*
X174498000Y-77245359D01*
X175082725Y-77129050D01*
X175578430Y-76797830D01*
X175595015Y-76773009D01*
X175641000Y-76864980D01*
X175641000Y-86995000D01*
X175650667Y-87043601D01*
X175678197Y-87084803D01*
X176731394Y-88138000D01*
X176507501Y-88138000D01*
X175527266Y-88544026D01*
X174777026Y-89294266D01*
X174371000Y-90274501D01*
X174371000Y-91335499D01*
X174777026Y-92315734D01*
X175527266Y-93065974D01*
X176507501Y-93472000D01*
X177568499Y-93472000D01*
X178181000Y-93218294D01*
X178181000Y-116331706D01*
X177568499Y-116078000D01*
X176507501Y-116078000D01*
X175527266Y-116484026D01*
X174777026Y-117234266D01*
X174371000Y-118214501D01*
X174371000Y-119275499D01*
X174777026Y-120255734D01*
X175527266Y-121005974D01*
X176507501Y-121412000D01*
X177568499Y-121412000D01*
X178181000Y-121158294D01*
X178181000Y-121232394D01*
X175978647Y-123434747D01*
X175909650Y-123087875D01*
X175578430Y-122592170D01*
X175082724Y-122260950D01*
X174498000Y-122144641D01*
X174120026Y-122219825D01*
X171684731Y-119784530D01*
X171684729Y-119784527D01*
X170922731Y-119022530D01*
X170880329Y-118959071D01*
X170628937Y-118791096D01*
X170407252Y-118747000D01*
X170407247Y-118747000D01*
X170332400Y-118732112D01*
X170257553Y-118747000D01*
X164900290Y-118747000D01*
X164867635Y-118714345D01*
X164523983Y-118572000D01*
X164152017Y-118572000D01*
X163808365Y-118714345D01*
X163545345Y-118977365D01*
X163403000Y-119321017D01*
X163403000Y-119692983D01*
X163545345Y-120036635D01*
X163650710Y-120142000D01*
X163545345Y-120247365D01*
X163403000Y-120591017D01*
X163403000Y-120962983D01*
X163545345Y-121306635D01*
X163808365Y-121569655D01*
X164152017Y-121712000D01*
X164523983Y-121712000D01*
X164867635Y-121569655D01*
X164900290Y-121537000D01*
X168747599Y-121537000D01*
X169365652Y-122155054D01*
X168833275Y-122260950D01*
X168337570Y-122592170D01*
X168148000Y-122875881D01*
X167958430Y-122592170D01*
X167462724Y-122260950D01*
X166878000Y-122144641D01*
X166293275Y-122260950D01*
X165797570Y-122592170D01*
X165608000Y-122875881D01*
X165418430Y-122592170D01*
X164922724Y-122260950D01*
X164338000Y-122144641D01*
X163753275Y-122260950D01*
X163257570Y-122592170D01*
X163068000Y-122875881D01*
X162878430Y-122592170D01*
X162558000Y-122378066D01*
X162558000Y-118483744D01*
X163892662Y-118483744D01*
X164140427Y-118434461D01*
X164312662Y-118319376D01*
X164484897Y-118434461D01*
X164732662Y-118483744D01*
X166432662Y-118483744D01*
X166680427Y-118434461D01*
X166855687Y-118317355D01*
X166912964Y-118374631D01*
X167146353Y-118471304D01*
X167836912Y-118471304D01*
X167995662Y-118312554D01*
X167995662Y-117113304D01*
X168249662Y-117113304D01*
X168249662Y-118312554D01*
X168408412Y-118471304D01*
X169098971Y-118471304D01*
X169332360Y-118374631D01*
X169510989Y-118196003D01*
X169607662Y-117962614D01*
X169607662Y-117272054D01*
X169448912Y-117113304D01*
X168249662Y-117113304D01*
X167995662Y-117113304D01*
X167975662Y-117113304D01*
X167975662Y-116859304D01*
X167995662Y-116859304D01*
X167995662Y-114573304D01*
X168249662Y-114573304D01*
X168249662Y-116859304D01*
X169448912Y-116859304D01*
X169607662Y-116700554D01*
X169607662Y-116009994D01*
X169510989Y-115776605D01*
X169332360Y-115597977D01*
X169122784Y-115511168D01*
X169394307Y-115213228D01*
X169564138Y-114803194D01*
X169442817Y-114573304D01*
X168249662Y-114573304D01*
X167995662Y-114573304D01*
X167975662Y-114573304D01*
X167975662Y-114319304D01*
X167995662Y-114319304D01*
X167995662Y-112033304D01*
X168249662Y-112033304D01*
X168249662Y-114319304D01*
X169442817Y-114319304D01*
X169564138Y-114089414D01*
X169394307Y-113679380D01*
X169004020Y-113251121D01*
X168844708Y-113176304D01*
X169004020Y-113101487D01*
X169394307Y-112673228D01*
X169564138Y-112263194D01*
X169442817Y-112033304D01*
X168249662Y-112033304D01*
X167995662Y-112033304D01*
X167975662Y-112033304D01*
X167975662Y-111779304D01*
X167995662Y-111779304D01*
X167995662Y-109493304D01*
X168249662Y-109493304D01*
X168249662Y-111779304D01*
X169442817Y-111779304D01*
X169564138Y-111549414D01*
X169394307Y-111139380D01*
X169004020Y-110711121D01*
X168844708Y-110636304D01*
X169004020Y-110561487D01*
X169394307Y-110133228D01*
X169564138Y-109723194D01*
X169442817Y-109493304D01*
X168249662Y-109493304D01*
X167995662Y-109493304D01*
X167975662Y-109493304D01*
X167975662Y-109239304D01*
X167995662Y-109239304D01*
X167995662Y-106953304D01*
X168249662Y-106953304D01*
X168249662Y-109239304D01*
X169442817Y-109239304D01*
X169453004Y-109220000D01*
X174253908Y-109220000D01*
X174369161Y-109799418D01*
X174697375Y-110290625D01*
X174995761Y-110490000D01*
X174697375Y-110689375D01*
X174369161Y-111180582D01*
X174253908Y-111760000D01*
X174369161Y-112339418D01*
X174697375Y-112830625D01*
X174995761Y-113030000D01*
X174697375Y-113229375D01*
X174369161Y-113720582D01*
X174253908Y-114300000D01*
X174369161Y-114879418D01*
X174697375Y-115370625D01*
X175188582Y-115698839D01*
X175621744Y-115785000D01*
X175914256Y-115785000D01*
X176347418Y-115698839D01*
X176838625Y-115370625D01*
X177166839Y-114879418D01*
X177282092Y-114300000D01*
X177166839Y-113720582D01*
X176838625Y-113229375D01*
X176540239Y-113030000D01*
X176838625Y-112830625D01*
X177166839Y-112339418D01*
X177282092Y-111760000D01*
X177166839Y-111180582D01*
X176838625Y-110689375D01*
X176540239Y-110490000D01*
X176838625Y-110290625D01*
X177166839Y-109799418D01*
X177282092Y-109220000D01*
X177166839Y-108640582D01*
X176838625Y-108149375D01*
X176816967Y-108134904D01*
X176977698Y-108068327D01*
X177156327Y-107889699D01*
X177253000Y-107656310D01*
X177253000Y-106965750D01*
X177094250Y-106807000D01*
X175895000Y-106807000D01*
X175895000Y-106827000D01*
X175641000Y-106827000D01*
X175641000Y-106807000D01*
X174441750Y-106807000D01*
X174283000Y-106965750D01*
X174283000Y-107656310D01*
X174379673Y-107889699D01*
X174558302Y-108068327D01*
X174719033Y-108134904D01*
X174697375Y-108149375D01*
X174369161Y-108640582D01*
X174253908Y-109220000D01*
X169453004Y-109220000D01*
X169564138Y-109009414D01*
X169394307Y-108599380D01*
X169004020Y-108171121D01*
X168844708Y-108096304D01*
X169004020Y-108021487D01*
X169394307Y-107593228D01*
X169564138Y-107183194D01*
X169442817Y-106953304D01*
X168249662Y-106953304D01*
X167995662Y-106953304D01*
X167975662Y-106953304D01*
X167975662Y-106699304D01*
X167995662Y-106699304D01*
X167995662Y-104413304D01*
X168249662Y-104413304D01*
X168249662Y-106699304D01*
X169442817Y-106699304D01*
X169564138Y-106469414D01*
X169394307Y-106059380D01*
X169070155Y-105703690D01*
X174283000Y-105703690D01*
X174283000Y-106394250D01*
X174441750Y-106553000D01*
X175641000Y-106553000D01*
X175641000Y-105353750D01*
X175895000Y-105353750D01*
X175895000Y-106553000D01*
X177094250Y-106553000D01*
X177253000Y-106394250D01*
X177253000Y-105703690D01*
X177156327Y-105470301D01*
X176977698Y-105291673D01*
X176744309Y-105195000D01*
X176053750Y-105195000D01*
X175895000Y-105353750D01*
X175641000Y-105353750D01*
X175482250Y-105195000D01*
X174791691Y-105195000D01*
X174558302Y-105291673D01*
X174379673Y-105470301D01*
X174283000Y-105703690D01*
X169070155Y-105703690D01*
X169004020Y-105631121D01*
X168844708Y-105556304D01*
X169004020Y-105481487D01*
X169394307Y-105053228D01*
X169564138Y-104643194D01*
X169442817Y-104413304D01*
X168249662Y-104413304D01*
X167995662Y-104413304D01*
X167975662Y-104413304D01*
X167975662Y-104159304D01*
X167995662Y-104159304D01*
X167995662Y-101873304D01*
X168249662Y-101873304D01*
X168249662Y-104159304D01*
X169442817Y-104159304D01*
X169564138Y-103929414D01*
X169394307Y-103519380D01*
X169004020Y-103091121D01*
X168844708Y-103016304D01*
X169004020Y-102941487D01*
X169394307Y-102513228D01*
X169564138Y-102103194D01*
X169442817Y-101873304D01*
X168249662Y-101873304D01*
X167995662Y-101873304D01*
X167975662Y-101873304D01*
X167975662Y-101619304D01*
X167995662Y-101619304D01*
X167995662Y-99333304D01*
X168249662Y-99333304D01*
X168249662Y-101619304D01*
X169442817Y-101619304D01*
X169564138Y-101389414D01*
X169394307Y-100979380D01*
X169004020Y-100551121D01*
X168844708Y-100476304D01*
X169004020Y-100401487D01*
X169394307Y-99973228D01*
X169564138Y-99563194D01*
X169442817Y-99333304D01*
X168249662Y-99333304D01*
X167995662Y-99333304D01*
X167975662Y-99333304D01*
X167975662Y-99079304D01*
X167995662Y-99079304D01*
X167995662Y-97885485D01*
X168249662Y-97885485D01*
X168249662Y-99079304D01*
X169442817Y-99079304D01*
X169564138Y-98849414D01*
X169394307Y-98439380D01*
X169004020Y-98011121D01*
X168479554Y-97764818D01*
X168249662Y-97885485D01*
X167995662Y-97885485D01*
X167765770Y-97764818D01*
X167241304Y-98011121D01*
X166854015Y-98436090D01*
X166653287Y-98135679D01*
X166162080Y-97807465D01*
X165728918Y-97721304D01*
X165436406Y-97721304D01*
X165003244Y-97807465D01*
X164512037Y-98135679D01*
X164312662Y-98434065D01*
X164113287Y-98135679D01*
X163622080Y-97807465D01*
X163188918Y-97721304D01*
X162896406Y-97721304D01*
X162463244Y-97807465D01*
X161972037Y-98135679D01*
X161643823Y-98626886D01*
X161528570Y-99206304D01*
X161643823Y-99785722D01*
X161972037Y-100276929D01*
X162270423Y-100476304D01*
X161972037Y-100675679D01*
X161643823Y-101166886D01*
X161528570Y-101746304D01*
X161643823Y-102325722D01*
X161972037Y-102816929D01*
X162270423Y-103016304D01*
X161972037Y-103215679D01*
X161643823Y-103706886D01*
X161528570Y-104286304D01*
X161643823Y-104865722D01*
X161972037Y-105356929D01*
X162270423Y-105556304D01*
X161972037Y-105755679D01*
X161708256Y-106150455D01*
X155417801Y-99860000D01*
X155589333Y-99860000D01*
X156007909Y-99776740D01*
X156482577Y-99459577D01*
X156563215Y-99338894D01*
X156589843Y-99472765D01*
X156730191Y-99682809D01*
X156940235Y-99823157D01*
X157188000Y-99872440D01*
X158788000Y-99872440D01*
X159035765Y-99823157D01*
X159245809Y-99682809D01*
X159386157Y-99472765D01*
X159435440Y-99225000D01*
X159435440Y-97625000D01*
X159386157Y-97377235D01*
X159245809Y-97167191D01*
X159035765Y-97026843D01*
X158788000Y-96977560D01*
X157188000Y-96977560D01*
X156940235Y-97026843D01*
X156730191Y-97167191D01*
X156589843Y-97377235D01*
X156563215Y-97511106D01*
X156482577Y-97390423D01*
X156007909Y-97073260D01*
X155589333Y-96990000D01*
X155306667Y-96990000D01*
X154888091Y-97073260D01*
X154413423Y-97390423D01*
X154178000Y-97742758D01*
X153942577Y-97390423D01*
X153467909Y-97073260D01*
X153419034Y-97063538D01*
X153428888Y-97013998D01*
X153414000Y-96939150D01*
X153414000Y-95593000D01*
X171018560Y-95593000D01*
X171018560Y-97193000D01*
X171067843Y-97440765D01*
X171208191Y-97650809D01*
X171418235Y-97791157D01*
X171666000Y-97840440D01*
X173266000Y-97840440D01*
X173513765Y-97791157D01*
X173723809Y-97650809D01*
X173864157Y-97440765D01*
X173913440Y-97193000D01*
X173913440Y-95593000D01*
X173864157Y-95345235D01*
X173723809Y-95135191D01*
X173513765Y-94994843D01*
X173266000Y-94945560D01*
X171666000Y-94945560D01*
X171418235Y-94994843D01*
X171208191Y-95135191D01*
X171067843Y-95345235D01*
X171018560Y-95593000D01*
X153414000Y-95593000D01*
X153414000Y-92360750D01*
X153963000Y-92360750D01*
X153963000Y-93051309D01*
X154059673Y-93284698D01*
X154238301Y-93463327D01*
X154471690Y-93560000D01*
X155162250Y-93560000D01*
X155321000Y-93401250D01*
X155321000Y-92202000D01*
X154121750Y-92202000D01*
X153963000Y-92360750D01*
X153414000Y-92360750D01*
X153414000Y-91098691D01*
X153963000Y-91098691D01*
X153963000Y-91789250D01*
X154121750Y-91948000D01*
X155321000Y-91948000D01*
X155321000Y-90748750D01*
X155162250Y-90590000D01*
X154471690Y-90590000D01*
X154238301Y-90686673D01*
X154059673Y-90865302D01*
X153963000Y-91098691D01*
X153414000Y-91098691D01*
X153414000Y-86938609D01*
X153414161Y-86939418D01*
X153742375Y-87430625D01*
X154233582Y-87758839D01*
X154666744Y-87845000D01*
X154959256Y-87845000D01*
X155392418Y-87758839D01*
X155883625Y-87430625D01*
X156083000Y-87132239D01*
X156282375Y-87430625D01*
X156773582Y-87758839D01*
X157206744Y-87845000D01*
X157499256Y-87845000D01*
X157932418Y-87758839D01*
X158244001Y-87550646D01*
X158244001Y-88190143D01*
X158229111Y-88265000D01*
X158288096Y-88561537D01*
X158456071Y-88812929D01*
X158707463Y-88980904D01*
X158929148Y-89025000D01*
X159004000Y-89039889D01*
X159078852Y-89025000D01*
X161483199Y-89025000D01*
X163048199Y-90590000D01*
X162921744Y-90590000D01*
X162488582Y-90676161D01*
X161997375Y-91004375D01*
X161798000Y-91302761D01*
X161598625Y-91004375D01*
X161107418Y-90676161D01*
X160674256Y-90590000D01*
X160381744Y-90590000D01*
X159948582Y-90676161D01*
X159457375Y-91004375D01*
X159258000Y-91302761D01*
X159058625Y-91004375D01*
X158567418Y-90676161D01*
X158134256Y-90590000D01*
X157841744Y-90590000D01*
X157408582Y-90676161D01*
X156917375Y-91004375D01*
X156902904Y-91026033D01*
X156836327Y-90865302D01*
X156657699Y-90686673D01*
X156424310Y-90590000D01*
X155733750Y-90590000D01*
X155575000Y-90748750D01*
X155575000Y-91948000D01*
X155595000Y-91948000D01*
X155595000Y-92202000D01*
X155575000Y-92202000D01*
X155575000Y-93401250D01*
X155733750Y-93560000D01*
X156424310Y-93560000D01*
X156657699Y-93463327D01*
X156836327Y-93284698D01*
X156902904Y-93123967D01*
X156917375Y-93145625D01*
X157408582Y-93473839D01*
X157841744Y-93560000D01*
X158134256Y-93560000D01*
X158567418Y-93473839D01*
X159058625Y-93145625D01*
X159258000Y-92847239D01*
X159457375Y-93145625D01*
X159948582Y-93473839D01*
X160381744Y-93560000D01*
X160674256Y-93560000D01*
X160894408Y-93516209D01*
X161715671Y-94337473D01*
X161758071Y-94400929D01*
X161821527Y-94443329D01*
X162009462Y-94568904D01*
X162057605Y-94578480D01*
X162231148Y-94613000D01*
X162231152Y-94613000D01*
X162306000Y-94627888D01*
X162380848Y-94613000D01*
X167311153Y-94613000D01*
X167386000Y-94627888D01*
X167460847Y-94613000D01*
X167460852Y-94613000D01*
X167682537Y-94568904D01*
X167933929Y-94400929D01*
X167976331Y-94337470D01*
X172142114Y-90171688D01*
X172324667Y-90208000D01*
X172607333Y-90208000D01*
X173025909Y-90124740D01*
X173500577Y-89807577D01*
X173817740Y-89332909D01*
X173929113Y-88773000D01*
X173817740Y-88213091D01*
X173623239Y-87922000D01*
X173877333Y-87922000D01*
X174295909Y-87838740D01*
X174770577Y-87521577D01*
X175087740Y-87046909D01*
X175199113Y-86487000D01*
X175087740Y-85927091D01*
X174770577Y-85452423D01*
X174295909Y-85135260D01*
X173877333Y-85052000D01*
X173594667Y-85052000D01*
X173176091Y-85135260D01*
X172701423Y-85452423D01*
X172520643Y-85722980D01*
X172466000Y-85712111D01*
X172391148Y-85727000D01*
X172160043Y-85727000D01*
X171976577Y-85452423D01*
X171501909Y-85135260D01*
X171083333Y-85052000D01*
X170800667Y-85052000D01*
X170382091Y-85135260D01*
X169907423Y-85452423D01*
X169590260Y-85927091D01*
X169545000Y-86154628D01*
X169499740Y-85927091D01*
X169182577Y-85452423D01*
X168830242Y-85217000D01*
X169182577Y-84981577D01*
X169499740Y-84506909D01*
X169611113Y-83947000D01*
X169499740Y-83387091D01*
X169182577Y-82912423D01*
X168830242Y-82677000D01*
X169182577Y-82441577D01*
X169499740Y-81966909D01*
X169611113Y-81407000D01*
X169538510Y-81041999D01*
X173296154Y-81041999D01*
X173371001Y-81056887D01*
X173445848Y-81041999D01*
X173445853Y-81041999D01*
X173667538Y-80997903D01*
X173918930Y-80829928D01*
X173961332Y-80766469D01*
X174220470Y-80507331D01*
X174283929Y-80464929D01*
X174384483Y-80314440D01*
X174536000Y-80314440D01*
X174783765Y-80265157D01*
X174993809Y-80124809D01*
X175134157Y-79914765D01*
X175183440Y-79667000D01*
X175183440Y-78067000D01*
X175134157Y-77819235D01*
X174993809Y-77609191D01*
X174783765Y-77468843D01*
X174536000Y-77419560D01*
X172936000Y-77419560D01*
X172688235Y-77468843D01*
X172478191Y-77609191D01*
X172339000Y-77817503D01*
X172199809Y-77609191D01*
X171989765Y-77468843D01*
X171742000Y-77419560D01*
X170142000Y-77419560D01*
X169894235Y-77468843D01*
X169699058Y-77599257D01*
X169327074Y-77227273D01*
X169418000Y-77245359D01*
X170002725Y-77129050D01*
X170498430Y-76797830D01*
X170688000Y-76514119D01*
X170877570Y-76797830D01*
X171373276Y-77129050D01*
X171958000Y-77245359D01*
X172542725Y-77129050D01*
X173038430Y-76797830D01*
X173228000Y-76514119D01*
X173417570Y-76797830D01*
G36*
X141413570Y-76797830D02*
X141734001Y-77011935D01*
X141734000Y-81332153D01*
X141719112Y-81407000D01*
X141734000Y-81481847D01*
X141734000Y-81481851D01*
X141778096Y-81703536D01*
X141946071Y-81954929D01*
X142009530Y-81997331D01*
X147608002Y-87595804D01*
X147608001Y-92770198D01*
X146218527Y-94159674D01*
X146155071Y-94202074D01*
X146112671Y-94265530D01*
X146112670Y-94265531D01*
X145987096Y-94453466D01*
X145928111Y-94750003D01*
X145943000Y-94824855D01*
X145942999Y-97136797D01*
X145847909Y-97073260D01*
X145429333Y-96990000D01*
X145146667Y-96990000D01*
X144728091Y-97073260D01*
X144253423Y-97390423D01*
X144018000Y-97742758D01*
X143782577Y-97390423D01*
X143307909Y-97073260D01*
X142889333Y-96990000D01*
X142606667Y-96990000D01*
X142188091Y-97073260D01*
X141713423Y-97390423D01*
X141478000Y-97742758D01*
X141242577Y-97390423D01*
X140767909Y-97073260D01*
X140349333Y-96990000D01*
X140066667Y-96990000D01*
X139648091Y-97073260D01*
X139173423Y-97390423D01*
X138856260Y-97865091D01*
X138744887Y-98425000D01*
X138856260Y-98984909D01*
X139173423Y-99459577D01*
X139648091Y-99776740D01*
X140066667Y-99860000D01*
X140349333Y-99860000D01*
X140767909Y-99776740D01*
X141242577Y-99459577D01*
X141478000Y-99107242D01*
X141713423Y-99459577D01*
X142188091Y-99776740D01*
X142606667Y-99860000D01*
X142889333Y-99860000D01*
X143307909Y-99776740D01*
X143782577Y-99459577D01*
X144018000Y-99107242D01*
X144253423Y-99459577D01*
X144607222Y-99695978D01*
X142263528Y-102039673D01*
X142200072Y-102082073D01*
X142157672Y-102145529D01*
X142157671Y-102145530D01*
X142032097Y-102333465D01*
X141973112Y-102630002D01*
X141988001Y-102704854D01*
X141988000Y-104826956D01*
X141713423Y-105010423D01*
X141478000Y-105362758D01*
X141242577Y-105010423D01*
X140767909Y-104693260D01*
X140349333Y-104610000D01*
X140066667Y-104610000D01*
X139884115Y-104646312D01*
X138572999Y-103335198D01*
X138572999Y-83693000D01*
X138693908Y-83693000D01*
X138809161Y-84272418D01*
X139137375Y-84763625D01*
X139435761Y-84963000D01*
X139137375Y-85162375D01*
X138809161Y-85653582D01*
X138693908Y-86233000D01*
X138809161Y-86812418D01*
X139137375Y-87303625D01*
X139435761Y-87503000D01*
X139137375Y-87702375D01*
X138809161Y-88193582D01*
X138693908Y-88773000D01*
X138809161Y-89352418D01*
X139137375Y-89843625D01*
X139435761Y-90043000D01*
X139137375Y-90242375D01*
X138809161Y-90733582D01*
X138693908Y-91313000D01*
X138809161Y-91892418D01*
X139137375Y-92383625D01*
X139628582Y-92711839D01*
X140061744Y-92798000D01*
X140354256Y-92798000D01*
X140787418Y-92711839D01*
X141278625Y-92383625D01*
X141606839Y-91892418D01*
X141722092Y-91313000D01*
X141606839Y-90733582D01*
X141278625Y-90242375D01*
X140980239Y-90043000D01*
X141278625Y-89843625D01*
X141606839Y-89352418D01*
X141722092Y-88773000D01*
X141606839Y-88193582D01*
X141278625Y-87702375D01*
X140980239Y-87503000D01*
X141278625Y-87303625D01*
X141606839Y-86812418D01*
X141722092Y-86233000D01*
X141606839Y-85653582D01*
X141278625Y-85162375D01*
X140980239Y-84963000D01*
X141278625Y-84763625D01*
X141606839Y-84272418D01*
X141722092Y-83693000D01*
X141606839Y-83113582D01*
X141278625Y-82622375D01*
X141256967Y-82607904D01*
X141417698Y-82541327D01*
X141596327Y-82362699D01*
X141693000Y-82129310D01*
X141693000Y-81438750D01*
X141534250Y-81280000D01*
X140335000Y-81280000D01*
X140335000Y-81300000D01*
X140081000Y-81300000D01*
X140081000Y-81280000D01*
X138881750Y-81280000D01*
X138723000Y-81438750D01*
X138723000Y-82129310D01*
X138819673Y-82362699D01*
X138998302Y-82541327D01*
X139159033Y-82607904D01*
X139137375Y-82622375D01*
X138809161Y-83113582D01*
X138693908Y-83693000D01*
X138572999Y-83693000D01*
X138572999Y-80176690D01*
X138723000Y-80176690D01*
X138723000Y-80867250D01*
X138881750Y-81026000D01*
X140081000Y-81026000D01*
X140081000Y-79826750D01*
X140335000Y-79826750D01*
X140335000Y-81026000D01*
X141534250Y-81026000D01*
X141693000Y-80867250D01*
X141693000Y-80176690D01*
X141596327Y-79943301D01*
X141417698Y-79764673D01*
X141184309Y-79668000D01*
X140493750Y-79668000D01*
X140335000Y-79826750D01*
X140081000Y-79826750D01*
X139922250Y-79668000D01*
X139231691Y-79668000D01*
X138998302Y-79764673D01*
X138819673Y-79943301D01*
X138723000Y-80176690D01*
X138572999Y-80176690D01*
X138572999Y-79286802D01*
X140438473Y-77421329D01*
X140501929Y-77378929D01*
X140600838Y-77230902D01*
X140669904Y-77127538D01*
X140689664Y-77028196D01*
X141034430Y-76797830D01*
X141224000Y-76514119D01*
X141413570Y-76797830D01*
X141413570Y-76797830D01*
G37*
X141413570Y-76797830D02*
X141734001Y-77011935D01*
X141734000Y-81332153D01*
X141719112Y-81407000D01*
X141734000Y-81481847D01*
X141734000Y-81481851D01*
X141778096Y-81703536D01*
X141946071Y-81954929D01*
X142009530Y-81997331D01*
X147608002Y-87595804D01*
X147608001Y-92770198D01*
X146218527Y-94159674D01*
X146155071Y-94202074D01*
X146112671Y-94265530D01*
X146112670Y-94265531D01*
X145987096Y-94453466D01*
X145928111Y-94750003D01*
X145943000Y-94824855D01*
X145942999Y-97136797D01*
X145847909Y-97073260D01*
X145429333Y-96990000D01*
X145146667Y-96990000D01*
X144728091Y-97073260D01*
X144253423Y-97390423D01*
X144018000Y-97742758D01*
X143782577Y-97390423D01*
X143307909Y-97073260D01*
X142889333Y-96990000D01*
X142606667Y-96990000D01*
X142188091Y-97073260D01*
X141713423Y-97390423D01*
X141478000Y-97742758D01*
X141242577Y-97390423D01*
X140767909Y-97073260D01*
X140349333Y-96990000D01*
X140066667Y-96990000D01*
X139648091Y-97073260D01*
X139173423Y-97390423D01*
X138856260Y-97865091D01*
X138744887Y-98425000D01*
X138856260Y-98984909D01*
X139173423Y-99459577D01*
X139648091Y-99776740D01*
X140066667Y-99860000D01*
X140349333Y-99860000D01*
X140767909Y-99776740D01*
X141242577Y-99459577D01*
X141478000Y-99107242D01*
X141713423Y-99459577D01*
X142188091Y-99776740D01*
X142606667Y-99860000D01*
X142889333Y-99860000D01*
X143307909Y-99776740D01*
X143782577Y-99459577D01*
X144018000Y-99107242D01*
X144253423Y-99459577D01*
X144607222Y-99695978D01*
X142263528Y-102039673D01*
X142200072Y-102082073D01*
X142157672Y-102145529D01*
X142157671Y-102145530D01*
X142032097Y-102333465D01*
X141973112Y-102630002D01*
X141988001Y-102704854D01*
X141988000Y-104826956D01*
X141713423Y-105010423D01*
X141478000Y-105362758D01*
X141242577Y-105010423D01*
X140767909Y-104693260D01*
X140349333Y-104610000D01*
X140066667Y-104610000D01*
X139884115Y-104646312D01*
X138572999Y-103335198D01*
X138572999Y-83693000D01*
X138693908Y-83693000D01*
X138809161Y-84272418D01*
X139137375Y-84763625D01*
X139435761Y-84963000D01*
X139137375Y-85162375D01*
X138809161Y-85653582D01*
X138693908Y-86233000D01*
X138809161Y-86812418D01*
X139137375Y-87303625D01*
X139435761Y-87503000D01*
X139137375Y-87702375D01*
X138809161Y-88193582D01*
X138693908Y-88773000D01*
X138809161Y-89352418D01*
X139137375Y-89843625D01*
X139435761Y-90043000D01*
X139137375Y-90242375D01*
X138809161Y-90733582D01*
X138693908Y-91313000D01*
X138809161Y-91892418D01*
X139137375Y-92383625D01*
X139628582Y-92711839D01*
X140061744Y-92798000D01*
X140354256Y-92798000D01*
X140787418Y-92711839D01*
X141278625Y-92383625D01*
X141606839Y-91892418D01*
X141722092Y-91313000D01*
X141606839Y-90733582D01*
X141278625Y-90242375D01*
X140980239Y-90043000D01*
X141278625Y-89843625D01*
X141606839Y-89352418D01*
X141722092Y-88773000D01*
X141606839Y-88193582D01*
X141278625Y-87702375D01*
X140980239Y-87503000D01*
X141278625Y-87303625D01*
X141606839Y-86812418D01*
X141722092Y-86233000D01*
X141606839Y-85653582D01*
X141278625Y-85162375D01*
X140980239Y-84963000D01*
X141278625Y-84763625D01*
X141606839Y-84272418D01*
X141722092Y-83693000D01*
X141606839Y-83113582D01*
X141278625Y-82622375D01*
X141256967Y-82607904D01*
X141417698Y-82541327D01*
X141596327Y-82362699D01*
X141693000Y-82129310D01*
X141693000Y-81438750D01*
X141534250Y-81280000D01*
X140335000Y-81280000D01*
X140335000Y-81300000D01*
X140081000Y-81300000D01*
X140081000Y-81280000D01*
X138881750Y-81280000D01*
X138723000Y-81438750D01*
X138723000Y-82129310D01*
X138819673Y-82362699D01*
X138998302Y-82541327D01*
X139159033Y-82607904D01*
X139137375Y-82622375D01*
X138809161Y-83113582D01*
X138693908Y-83693000D01*
X138572999Y-83693000D01*
X138572999Y-80176690D01*
X138723000Y-80176690D01*
X138723000Y-80867250D01*
X138881750Y-81026000D01*
X140081000Y-81026000D01*
X140081000Y-79826750D01*
X140335000Y-79826750D01*
X140335000Y-81026000D01*
X141534250Y-81026000D01*
X141693000Y-80867250D01*
X141693000Y-80176690D01*
X141596327Y-79943301D01*
X141417698Y-79764673D01*
X141184309Y-79668000D01*
X140493750Y-79668000D01*
X140335000Y-79826750D01*
X140081000Y-79826750D01*
X139922250Y-79668000D01*
X139231691Y-79668000D01*
X138998302Y-79764673D01*
X138819673Y-79943301D01*
X138723000Y-80176690D01*
X138572999Y-80176690D01*
X138572999Y-79286802D01*
X140438473Y-77421329D01*
X140501929Y-77378929D01*
X140600838Y-77230902D01*
X140669904Y-77127538D01*
X140689664Y-77028196D01*
X141034430Y-76797830D01*
X141224000Y-76514119D01*
X141413570Y-76797830D01*
G36*
X151573570Y-76797830D02*
X151894000Y-77011934D01*
X151894000Y-81503928D01*
X151679309Y-81415000D01*
X151288750Y-81415000D01*
X151130000Y-81573750D01*
X151130000Y-82823000D01*
X151150000Y-82823000D01*
X151150000Y-83077000D01*
X151130000Y-83077000D01*
X151130000Y-84326250D01*
X151288750Y-84485000D01*
X151679309Y-84485000D01*
X151894000Y-84396072D01*
X151894000Y-85804354D01*
X151582418Y-85596161D01*
X151149256Y-85510000D01*
X150856744Y-85510000D01*
X150423582Y-85596161D01*
X149932375Y-85924375D01*
X149604161Y-86415582D01*
X149488908Y-86995000D01*
X149604161Y-87574418D01*
X149932375Y-88065625D01*
X149954033Y-88080096D01*
X149793302Y-88146673D01*
X149614673Y-88325301D01*
X149518000Y-88558690D01*
X149518000Y-89249250D01*
X149676750Y-89408000D01*
X150876000Y-89408000D01*
X150876000Y-89388000D01*
X151130000Y-89388000D01*
X151130000Y-89408000D01*
X151150000Y-89408000D01*
X151150000Y-89662000D01*
X151130000Y-89662000D01*
X151130000Y-90861250D01*
X151288750Y-91020000D01*
X151894001Y-91020000D01*
X151894001Y-96699195D01*
X151282804Y-97310393D01*
X150927909Y-97073260D01*
X150509333Y-96990000D01*
X150226667Y-96990000D01*
X149808091Y-97073260D01*
X149333423Y-97390423D01*
X149098000Y-97742758D01*
X148862577Y-97390423D01*
X148387909Y-97073260D01*
X147969333Y-96990000D01*
X147686667Y-96990000D01*
X147462999Y-97034490D01*
X147462999Y-95064804D01*
X148852477Y-93675328D01*
X148915930Y-93632930D01*
X148958328Y-93569477D01*
X148958330Y-93569475D01*
X149070734Y-93401250D01*
X149083905Y-93381538D01*
X149128001Y-93159853D01*
X149128001Y-93159849D01*
X149142889Y-93085002D01*
X149128001Y-93010155D01*
X149128001Y-89820750D01*
X149518000Y-89820750D01*
X149518000Y-90511310D01*
X149614673Y-90744699D01*
X149793302Y-90923327D01*
X150026691Y-91020000D01*
X150717250Y-91020000D01*
X150876000Y-90861250D01*
X150876000Y-89662000D01*
X149676750Y-89662000D01*
X149518000Y-89820750D01*
X149128001Y-89820750D01*
X149128001Y-87355848D01*
X149142889Y-87281001D01*
X149128001Y-87206154D01*
X149128001Y-87206149D01*
X149083905Y-86984464D01*
X148915930Y-86733072D01*
X148852474Y-86690672D01*
X143254000Y-81092199D01*
X143254000Y-77011935D01*
X143574430Y-76797830D01*
X143764000Y-76514119D01*
X143953570Y-76797830D01*
X144274001Y-77011935D01*
X144274001Y-77796709D01*
X144241345Y-77829365D01*
X144099000Y-78173017D01*
X144099000Y-78544983D01*
X144241345Y-78888635D01*
X144504365Y-79151655D01*
X144848017Y-79294000D01*
X145219983Y-79294000D01*
X145563635Y-79151655D01*
X145826655Y-78888635D01*
X145969000Y-78544983D01*
X145969000Y-78173017D01*
X145826655Y-77829365D01*
X145794000Y-77796710D01*
X145794000Y-77011935D01*
X146114430Y-76797830D01*
X146304000Y-76514119D01*
X146493570Y-76797830D01*
X146814000Y-77011935D01*
X146814001Y-79046148D01*
X146799112Y-79121000D01*
X146858097Y-79417537D01*
X146972713Y-79589071D01*
X147026072Y-79668929D01*
X147089528Y-79711329D01*
X148535560Y-81157362D01*
X148535560Y-81402560D01*
X147913000Y-81402560D01*
X147665235Y-81451843D01*
X147455191Y-81592191D01*
X147314843Y-81802235D01*
X147265560Y-82050000D01*
X147265560Y-83850000D01*
X147314843Y-84097765D01*
X147455191Y-84307809D01*
X147665235Y-84448157D01*
X147913000Y-84497440D01*
X149013000Y-84497440D01*
X149260765Y-84448157D01*
X149470809Y-84307809D01*
X149611157Y-84097765D01*
X149660440Y-83850000D01*
X149660440Y-83235750D01*
X149818000Y-83235750D01*
X149818000Y-83976310D01*
X149914673Y-84209699D01*
X150093302Y-84388327D01*
X150326691Y-84485000D01*
X150717250Y-84485000D01*
X150876000Y-84326250D01*
X150876000Y-83077000D01*
X149976750Y-83077000D01*
X149818000Y-83235750D01*
X149660440Y-83235750D01*
X149660440Y-82427440D01*
X149818000Y-82427440D01*
X149818000Y-82664250D01*
X149976750Y-82823000D01*
X150876000Y-82823000D01*
X150876000Y-81778687D01*
X150930440Y-81505000D01*
X150930440Y-80255000D01*
X150860223Y-79901997D01*
X150660264Y-79602736D01*
X150361003Y-79402777D01*
X150008000Y-79332560D01*
X149458000Y-79332560D01*
X149104997Y-79402777D01*
X149000441Y-79472639D01*
X148334000Y-78806199D01*
X148334000Y-77011935D01*
X148654430Y-76797830D01*
X148844000Y-76514119D01*
X149033570Y-76797830D01*
X149529276Y-77129050D01*
X150114000Y-77245359D01*
X150698725Y-77129050D01*
X151194430Y-76797830D01*
X151384000Y-76514119D01*
X151573570Y-76797830D01*
X151573570Y-76797830D01*
G37*
X151573570Y-76797830D02*
X151894000Y-77011934D01*
X151894000Y-81503928D01*
X151679309Y-81415000D01*
X151288750Y-81415000D01*
X151130000Y-81573750D01*
X151130000Y-82823000D01*
X151150000Y-82823000D01*
X151150000Y-83077000D01*
X151130000Y-83077000D01*
X151130000Y-84326250D01*
X151288750Y-84485000D01*
X151679309Y-84485000D01*
X151894000Y-84396072D01*
X151894000Y-85804354D01*
X151582418Y-85596161D01*
X151149256Y-85510000D01*
X150856744Y-85510000D01*
X150423582Y-85596161D01*
X149932375Y-85924375D01*
X149604161Y-86415582D01*
X149488908Y-86995000D01*
X149604161Y-87574418D01*
X149932375Y-88065625D01*
X149954033Y-88080096D01*
X149793302Y-88146673D01*
X149614673Y-88325301D01*
X149518000Y-88558690D01*
X149518000Y-89249250D01*
X149676750Y-89408000D01*
X150876000Y-89408000D01*
X150876000Y-89388000D01*
X151130000Y-89388000D01*
X151130000Y-89408000D01*
X151150000Y-89408000D01*
X151150000Y-89662000D01*
X151130000Y-89662000D01*
X151130000Y-90861250D01*
X151288750Y-91020000D01*
X151894001Y-91020000D01*
X151894001Y-96699195D01*
X151282804Y-97310393D01*
X150927909Y-97073260D01*
X150509333Y-96990000D01*
X150226667Y-96990000D01*
X149808091Y-97073260D01*
X149333423Y-97390423D01*
X149098000Y-97742758D01*
X148862577Y-97390423D01*
X148387909Y-97073260D01*
X147969333Y-96990000D01*
X147686667Y-96990000D01*
X147462999Y-97034490D01*
X147462999Y-95064804D01*
X148852477Y-93675328D01*
X148915930Y-93632930D01*
X148958328Y-93569477D01*
X148958330Y-93569475D01*
X149070734Y-93401250D01*
X149083905Y-93381538D01*
X149128001Y-93159853D01*
X149128001Y-93159849D01*
X149142889Y-93085002D01*
X149128001Y-93010155D01*
X149128001Y-89820750D01*
X149518000Y-89820750D01*
X149518000Y-90511310D01*
X149614673Y-90744699D01*
X149793302Y-90923327D01*
X150026691Y-91020000D01*
X150717250Y-91020000D01*
X150876000Y-90861250D01*
X150876000Y-89662000D01*
X149676750Y-89662000D01*
X149518000Y-89820750D01*
X149128001Y-89820750D01*
X149128001Y-87355848D01*
X149142889Y-87281001D01*
X149128001Y-87206154D01*
X149128001Y-87206149D01*
X149083905Y-86984464D01*
X148915930Y-86733072D01*
X148852474Y-86690672D01*
X143254000Y-81092199D01*
X143254000Y-77011935D01*
X143574430Y-76797830D01*
X143764000Y-76514119D01*
X143953570Y-76797830D01*
X144274001Y-77011935D01*
X144274001Y-77796709D01*
X144241345Y-77829365D01*
X144099000Y-78173017D01*
X144099000Y-78544983D01*
X144241345Y-78888635D01*
X144504365Y-79151655D01*
X144848017Y-79294000D01*
X145219983Y-79294000D01*
X145563635Y-79151655D01*
X145826655Y-78888635D01*
X145969000Y-78544983D01*
X145969000Y-78173017D01*
X145826655Y-77829365D01*
X145794000Y-77796710D01*
X145794000Y-77011935D01*
X146114430Y-76797830D01*
X146304000Y-76514119D01*
X146493570Y-76797830D01*
X146814000Y-77011935D01*
X146814001Y-79046148D01*
X146799112Y-79121000D01*
X146858097Y-79417537D01*
X146972713Y-79589071D01*
X147026072Y-79668929D01*
X147089528Y-79711329D01*
X148535560Y-81157362D01*
X148535560Y-81402560D01*
X147913000Y-81402560D01*
X147665235Y-81451843D01*
X147455191Y-81592191D01*
X147314843Y-81802235D01*
X147265560Y-82050000D01*
X147265560Y-83850000D01*
X147314843Y-84097765D01*
X147455191Y-84307809D01*
X147665235Y-84448157D01*
X147913000Y-84497440D01*
X149013000Y-84497440D01*
X149260765Y-84448157D01*
X149470809Y-84307809D01*
X149611157Y-84097765D01*
X149660440Y-83850000D01*
X149660440Y-83235750D01*
X149818000Y-83235750D01*
X149818000Y-83976310D01*
X149914673Y-84209699D01*
X150093302Y-84388327D01*
X150326691Y-84485000D01*
X150717250Y-84485000D01*
X150876000Y-84326250D01*
X150876000Y-83077000D01*
X149976750Y-83077000D01*
X149818000Y-83235750D01*
X149660440Y-83235750D01*
X149660440Y-82427440D01*
X149818000Y-82427440D01*
X149818000Y-82664250D01*
X149976750Y-82823000D01*
X150876000Y-82823000D01*
X150876000Y-81778687D01*
X150930440Y-81505000D01*
X150930440Y-80255000D01*
X150860223Y-79901997D01*
X150660264Y-79602736D01*
X150361003Y-79402777D01*
X150008000Y-79332560D01*
X149458000Y-79332560D01*
X149104997Y-79402777D01*
X149000441Y-79472639D01*
X148334000Y-78806199D01*
X148334000Y-77011935D01*
X148654430Y-76797830D01*
X148844000Y-76514119D01*
X149033570Y-76797830D01*
X149529276Y-77129050D01*
X150114000Y-77245359D01*
X150698725Y-77129050D01*
X151194430Y-76797830D01*
X151384000Y-76514119D01*
X151573570Y-76797830D01*
G36*
X135755002Y-83409870D02*
X135752935Y-83420262D01*
X135717000Y-83507017D01*
X135717000Y-83878983D01*
X135717001Y-83878985D01*
X135717000Y-86568000D01*
X133950081Y-86568000D01*
X133857999Y-86549684D01*
X133765917Y-86568000D01*
X133765914Y-86568000D01*
X133493181Y-86622250D01*
X133183903Y-86828903D01*
X133131741Y-86906969D01*
X131991970Y-88046741D01*
X131913904Y-88098903D01*
X131861742Y-88176969D01*
X131861741Y-88176970D01*
X131707250Y-88408182D01*
X131634683Y-88773000D01*
X131653001Y-88865090D01*
X131653001Y-89008753D01*
X131517375Y-89099375D01*
X131318000Y-89397761D01*
X131118625Y-89099375D01*
X130627418Y-88771161D01*
X130194256Y-88685000D01*
X129901744Y-88685000D01*
X129468582Y-88771161D01*
X128977375Y-89099375D01*
X128778000Y-89397761D01*
X128578625Y-89099375D01*
X128087418Y-88771161D01*
X127654256Y-88685000D01*
X127527801Y-88685000D01*
X130750056Y-85462745D01*
X133029861Y-85462745D01*
X133103995Y-85708864D01*
X133641223Y-85901965D01*
X134211454Y-85874778D01*
X134612005Y-85708864D01*
X134686139Y-85462745D01*
X133858000Y-84634605D01*
X133029861Y-85462745D01*
X130750056Y-85462745D01*
X132310473Y-83902329D01*
X132373929Y-83859929D01*
X132486804Y-83691000D01*
X132637319Y-83691000D01*
X132604136Y-83700995D01*
X132411035Y-84238223D01*
X132438222Y-84808454D01*
X132604136Y-85209005D01*
X132850255Y-85283139D01*
X133678395Y-84455000D01*
X133664252Y-84440858D01*
X133843858Y-84261252D01*
X133858000Y-84275395D01*
X133872142Y-84261252D01*
X134051748Y-84440858D01*
X134037605Y-84455000D01*
X134865745Y-85283139D01*
X135111864Y-85209005D01*
X135304965Y-84671777D01*
X135277778Y-84101546D01*
X135112624Y-83702829D01*
X135128000Y-83705888D01*
X135202847Y-83691000D01*
X135202852Y-83691000D01*
X135424537Y-83646904D01*
X135675929Y-83478929D01*
X135718331Y-83415470D01*
X135755002Y-83378799D01*
X135755002Y-83409870D01*
X135755002Y-83409870D01*
G37*
X135755002Y-83409870D02*
X135752935Y-83420262D01*
X135717000Y-83507017D01*
X135717000Y-83878983D01*
X135717001Y-83878985D01*
X135717000Y-86568000D01*
X133950081Y-86568000D01*
X133857999Y-86549684D01*
X133765917Y-86568000D01*
X133765914Y-86568000D01*
X133493181Y-86622250D01*
X133183903Y-86828903D01*
X133131741Y-86906969D01*
X131991970Y-88046741D01*
X131913904Y-88098903D01*
X131861742Y-88176969D01*
X131861741Y-88176970D01*
X131707250Y-88408182D01*
X131634683Y-88773000D01*
X131653001Y-88865090D01*
X131653001Y-89008753D01*
X131517375Y-89099375D01*
X131318000Y-89397761D01*
X131118625Y-89099375D01*
X130627418Y-88771161D01*
X130194256Y-88685000D01*
X129901744Y-88685000D01*
X129468582Y-88771161D01*
X128977375Y-89099375D01*
X128778000Y-89397761D01*
X128578625Y-89099375D01*
X128087418Y-88771161D01*
X127654256Y-88685000D01*
X127527801Y-88685000D01*
X130750056Y-85462745D01*
X133029861Y-85462745D01*
X133103995Y-85708864D01*
X133641223Y-85901965D01*
X134211454Y-85874778D01*
X134612005Y-85708864D01*
X134686139Y-85462745D01*
X133858000Y-84634605D01*
X133029861Y-85462745D01*
X130750056Y-85462745D01*
X132310473Y-83902329D01*
X132373929Y-83859929D01*
X132486804Y-83691000D01*
X132637319Y-83691000D01*
X132604136Y-83700995D01*
X132411035Y-84238223D01*
X132438222Y-84808454D01*
X132604136Y-85209005D01*
X132850255Y-85283139D01*
X133678395Y-84455000D01*
X133664252Y-84440858D01*
X133843858Y-84261252D01*
X133858000Y-84275395D01*
X133872142Y-84261252D01*
X134051748Y-84440858D01*
X134037605Y-84455000D01*
X134865745Y-85283139D01*
X135111864Y-85209005D01*
X135304965Y-84671777D01*
X135277778Y-84101546D01*
X135112624Y-83702829D01*
X135128000Y-83705888D01*
X135202847Y-83691000D01*
X135202852Y-83691000D01*
X135424537Y-83646904D01*
X135675929Y-83478929D01*
X135718331Y-83415470D01*
X135755002Y-83378799D01*
X135755002Y-83409870D01*
G04 #@! TD*
M02*
