G04 #@! TF.GenerationSoftware,KiCad,Pcbnew,(5.0.1)-4*
G04 #@! TF.CreationDate,2019-02-10T23:22:43-08:00*
G04 #@! TF.ProjectId,Shield,536869656C642E6B696361645F706362,rev?*
G04 #@! TF.SameCoordinates,Original*
G04 #@! TF.FileFunction,Legend,Top*
G04 #@! TF.FilePolarity,Positive*
%FSLAX46Y46*%
G04 Gerber Fmt 4.6, Leading zero omitted, Abs format (unit mm)*
G04 Created by KiCad (PCBNEW (5.0.1)-4) date 2/10/2019 11:22:43 PM*
%MOMM*%
%LPD*%
G01*
G04 APERTURE LIST*
%ADD10C,0.150000*%
%ADD11C,0.120000*%
G04 APERTURE END LIST*
D10*
X165354000Y-96393000D02*
X165354000Y-97409000D01*
X139390380Y-120999285D02*
X139390380Y-121570714D01*
X139390380Y-121285000D02*
X138390380Y-121285000D01*
X138533238Y-121380238D01*
X138628476Y-121475476D01*
X138676095Y-121570714D01*
G04 #@! TO.C,P1*
X140208000Y-125095000D02*
X157988000Y-125095000D01*
X157988000Y-125095000D02*
X157988000Y-122555000D01*
X157988000Y-122555000D02*
X140208000Y-122555000D01*
X137388000Y-125375000D02*
X138938000Y-125375000D01*
X140208000Y-125095000D02*
X140208000Y-122555000D01*
X138938000Y-122275000D02*
X137388000Y-122275000D01*
X137388000Y-122275000D02*
X137388000Y-125375000D01*
G04 #@! TO.C,P2*
X163068000Y-125095000D02*
X175768000Y-125095000D01*
X175768000Y-125095000D02*
X175768000Y-122555000D01*
X175768000Y-122555000D02*
X163068000Y-122555000D01*
X160248000Y-125375000D02*
X161798000Y-125375000D01*
X163068000Y-125095000D02*
X163068000Y-122555000D01*
X161798000Y-122275000D02*
X160248000Y-122275000D01*
X160248000Y-122275000D02*
X160248000Y-125375000D01*
G04 #@! TO.C,P3*
X131064000Y-76835000D02*
X153924000Y-76835000D01*
X153924000Y-76835000D02*
X153924000Y-74295000D01*
X153924000Y-74295000D02*
X131064000Y-74295000D01*
X128244000Y-77115000D02*
X129794000Y-77115000D01*
X131064000Y-76835000D02*
X131064000Y-74295000D01*
X129794000Y-74015000D02*
X128244000Y-74015000D01*
X128244000Y-74015000D02*
X128244000Y-77115000D01*
G04 #@! TO.C,P4*
X157988000Y-76835000D02*
X175768000Y-76835000D01*
X175768000Y-76835000D02*
X175768000Y-74295000D01*
X175768000Y-74295000D02*
X157988000Y-74295000D01*
X155168000Y-77115000D02*
X156718000Y-77115000D01*
X157988000Y-76835000D02*
X157988000Y-74295000D01*
X156718000Y-74015000D02*
X155168000Y-74015000D01*
X155168000Y-74015000D02*
X155168000Y-77115000D01*
G04 #@! TO.C,P5*
X127254000Y-123825000D02*
G75*
G03X127254000Y-123825000I-2286000J0D01*
G01*
G04 #@! TO.C,P6*
X179324000Y-118745000D02*
G75*
G03X179324000Y-118745000I-2286000J0D01*
G01*
G04 #@! TO.C,P7*
X128524000Y-75565000D02*
G75*
G03X128524000Y-75565000I-2286000J0D01*
G01*
G04 #@! TO.C,P8*
X179324000Y-90805000D02*
G75*
G03X179324000Y-90805000I-2286000J0D01*
G01*
D11*
G04 #@! TO.C,D1*
X172062000Y-81157000D02*
X169822000Y-81157000D01*
X172062000Y-81397000D02*
X169822000Y-81397000D01*
X172062000Y-81277000D02*
X169822000Y-81277000D01*
X170942000Y-85447000D02*
X170942000Y-84797000D01*
X170942000Y-79907000D02*
X170942000Y-80557000D01*
X172062000Y-84797000D02*
X172062000Y-80557000D01*
X169822000Y-84797000D02*
X172062000Y-84797000D01*
X169822000Y-80557000D02*
X169822000Y-84797000D01*
X172062000Y-80557000D02*
X169822000Y-80557000D01*
G04 #@! TO.C,D2*
X174856000Y-80557000D02*
X172616000Y-80557000D01*
X172616000Y-80557000D02*
X172616000Y-84797000D01*
X172616000Y-84797000D02*
X174856000Y-84797000D01*
X174856000Y-84797000D02*
X174856000Y-80557000D01*
X173736000Y-79907000D02*
X173736000Y-80557000D01*
X173736000Y-85447000D02*
X173736000Y-84797000D01*
X174856000Y-81277000D02*
X172616000Y-81277000D01*
X174856000Y-81397000D02*
X172616000Y-81397000D01*
X174856000Y-81157000D02*
X172616000Y-81157000D01*
G04 #@! TO.C,D3*
X171346000Y-94703000D02*
X173586000Y-94703000D01*
X173586000Y-94703000D02*
X173586000Y-90463000D01*
X173586000Y-90463000D02*
X171346000Y-90463000D01*
X171346000Y-90463000D02*
X171346000Y-94703000D01*
X172466000Y-95353000D02*
X172466000Y-94703000D01*
X172466000Y-89813000D02*
X172466000Y-90463000D01*
X171346000Y-93983000D02*
X173586000Y-93983000D01*
X171346000Y-93863000D02*
X173586000Y-93863000D01*
X171346000Y-94103000D02*
X173586000Y-94103000D01*
G04 #@! TO.C,J1*
X164372662Y-118316304D02*
X163042662Y-118316304D01*
X164372662Y-116986304D02*
X164372662Y-118316304D01*
X164372662Y-115716304D02*
X161712662Y-115716304D01*
X161712662Y-115716304D02*
X161712662Y-97876304D01*
X164372662Y-115716304D02*
X164372662Y-97876304D01*
X164372662Y-97876304D02*
X161712662Y-97876304D01*
G04 #@! TO.C,J2*
X131867662Y-115776304D02*
X134527662Y-115776304D01*
X131867662Y-97936304D02*
X131867662Y-115776304D01*
X134527662Y-97936304D02*
X134527662Y-115776304D01*
X131867662Y-97936304D02*
X134527662Y-97936304D01*
X131867662Y-96666304D02*
X131867662Y-95336304D01*
X131867662Y-95336304D02*
X133197662Y-95336304D01*
G04 #@! TO.C,J3*
X169452662Y-97876304D02*
X166792662Y-97876304D01*
X169452662Y-115716304D02*
X169452662Y-97876304D01*
X166792662Y-115716304D02*
X166792662Y-97876304D01*
X169452662Y-115716304D02*
X166792662Y-115716304D01*
X169452662Y-116986304D02*
X169452662Y-118316304D01*
X169452662Y-118316304D02*
X168122662Y-118316304D01*
G04 #@! TO.C,J4*
X126787662Y-115776304D02*
X129447662Y-115776304D01*
X126787662Y-97936304D02*
X126787662Y-115776304D01*
X129447662Y-97936304D02*
X129447662Y-115776304D01*
X126787662Y-97936304D02*
X129447662Y-97936304D01*
X126787662Y-96666304D02*
X126787662Y-95336304D01*
X126787662Y-95336304D02*
X128117662Y-95336304D01*
G04 #@! TO.C,J5*
X166912662Y-118316304D02*
X165582662Y-118316304D01*
X166912662Y-116986304D02*
X166912662Y-118316304D01*
X166912662Y-115716304D02*
X164252662Y-115716304D01*
X164252662Y-115716304D02*
X164252662Y-97876304D01*
X166912662Y-115716304D02*
X166912662Y-97876304D01*
X166912662Y-97876304D02*
X164252662Y-97876304D01*
G04 #@! TO.C,J6*
X129327662Y-95336304D02*
X130657662Y-95336304D01*
X129327662Y-96666304D02*
X129327662Y-95336304D01*
X129327662Y-97936304D02*
X131987662Y-97936304D01*
X131987662Y-97936304D02*
X131987662Y-115776304D01*
X129327662Y-97936304D02*
X129327662Y-115776304D01*
X129327662Y-115776304D02*
X131987662Y-115776304D01*
G04 #@! TO.C,J7*
X134553000Y-79315000D02*
X134553000Y-80645000D01*
X133223000Y-79315000D02*
X134553000Y-79315000D01*
X131953000Y-79315000D02*
X131953000Y-81975000D01*
X131953000Y-81975000D02*
X124273000Y-81975000D01*
X131953000Y-79315000D02*
X124273000Y-79315000D01*
X124273000Y-79315000D02*
X124273000Y-81975000D01*
G04 #@! TO.C,J8*
X121098000Y-88840000D02*
X121098000Y-91500000D01*
X133858000Y-88840000D02*
X121098000Y-88840000D01*
X133858000Y-91500000D02*
X121098000Y-91500000D01*
X133858000Y-88840000D02*
X133858000Y-91500000D01*
X135128000Y-88840000D02*
X136458000Y-88840000D01*
X136458000Y-88840000D02*
X136458000Y-90170000D01*
G04 #@! TO.C,J9*
X166938000Y-93405000D02*
X166938000Y-90745000D01*
X156718000Y-93405000D02*
X166938000Y-93405000D01*
X156718000Y-90745000D02*
X166938000Y-90745000D01*
X156718000Y-93405000D02*
X156718000Y-90745000D01*
X155448000Y-93405000D02*
X154118000Y-93405000D01*
X154118000Y-93405000D02*
X154118000Y-92075000D01*
G04 #@! TO.C,J11*
X174438000Y-115630000D02*
X177098000Y-115630000D01*
X174438000Y-107950000D02*
X174438000Y-115630000D01*
X177098000Y-107950000D02*
X177098000Y-115630000D01*
X174438000Y-107950000D02*
X177098000Y-107950000D01*
X174438000Y-106680000D02*
X174438000Y-105350000D01*
X174438000Y-105350000D02*
X175768000Y-105350000D01*
G04 #@! TO.C,J12*
X131258000Y-125155000D02*
X131258000Y-123825000D01*
X132588000Y-125155000D02*
X131258000Y-125155000D01*
X133858000Y-125155000D02*
X133858000Y-122495000D01*
X133858000Y-122495000D02*
X136458000Y-122495000D01*
X133858000Y-125155000D02*
X136458000Y-125155000D01*
X136458000Y-125155000D02*
X136458000Y-122495000D01*
G04 #@! TO.C,J14*
X152333000Y-85665000D02*
X149673000Y-85665000D01*
X152333000Y-88265000D02*
X152333000Y-85665000D01*
X149673000Y-88265000D02*
X149673000Y-85665000D01*
X152333000Y-88265000D02*
X149673000Y-88265000D01*
X152333000Y-89535000D02*
X152333000Y-90865000D01*
X152333000Y-90865000D02*
X151003000Y-90865000D01*
G04 #@! TO.C,Q2*
X151541445Y-84377684D02*
G75*
G03X150513000Y-80100000I-1808445J1827684D01*
G01*
X147921125Y-84391741D02*
G75*
G02X148913000Y-80100000I1811875J1841741D01*
G01*
X147933000Y-84400000D02*
X151533000Y-84400000D01*
G04 #@! TO.C,R1*
X133318000Y-85495000D02*
X133318000Y-85825000D01*
X133318000Y-85825000D02*
X126778000Y-85825000D01*
X126778000Y-85825000D02*
X126778000Y-85495000D01*
X133318000Y-83415000D02*
X133318000Y-83085000D01*
X133318000Y-83085000D02*
X126778000Y-83085000D01*
X126778000Y-83085000D02*
X126778000Y-83415000D01*
G04 #@! TO.C,U1*
X159318000Y-103235000D02*
G75*
G02X159318000Y-101235000I0J1000000D01*
G01*
X159318000Y-101235000D02*
X159318000Y-99585000D01*
X159318000Y-99585000D02*
X138878000Y-99585000D01*
X138878000Y-99585000D02*
X138878000Y-104885000D01*
X138878000Y-104885000D02*
X159318000Y-104885000D01*
X159318000Y-104885000D02*
X159318000Y-103235000D01*
X159378000Y-97095000D02*
X138818000Y-97095000D01*
X138818000Y-97095000D02*
X138818000Y-107375000D01*
X138818000Y-107375000D02*
X159378000Y-107375000D01*
X159378000Y-107375000D02*
X159378000Y-97095000D01*
G04 #@! TO.C,U2*
X138792662Y-108544304D02*
X138792662Y-118824304D01*
X159352662Y-108544304D02*
X138792662Y-108544304D01*
X159352662Y-118824304D02*
X159352662Y-108544304D01*
X138792662Y-118824304D02*
X159352662Y-118824304D01*
X138852662Y-111034304D02*
X138852662Y-112684304D01*
X159292662Y-111034304D02*
X138852662Y-111034304D01*
X159292662Y-116334304D02*
X159292662Y-111034304D01*
X138852662Y-116334304D02*
X159292662Y-116334304D01*
X138852662Y-114684304D02*
X138852662Y-116334304D01*
X138852662Y-112684304D02*
G75*
G02X138852662Y-114684304I0J-1000000D01*
G01*
G04 #@! TO.C,J10*
X153483000Y-79950000D02*
X156083000Y-79950000D01*
X153483000Y-79950000D02*
X153483000Y-87690000D01*
X153483000Y-87690000D02*
X158683000Y-87690000D01*
X158683000Y-82550000D02*
X158683000Y-87690000D01*
X156083000Y-82550000D02*
X158683000Y-82550000D01*
X156083000Y-79950000D02*
X156083000Y-82550000D01*
X158683000Y-79950000D02*
X158683000Y-81280000D01*
X157353000Y-79950000D02*
X158683000Y-79950000D01*
G04 #@! TO.C,D4*
X162218000Y-80287000D02*
X162218000Y-82527000D01*
X162218000Y-82527000D02*
X166458000Y-82527000D01*
X166458000Y-82527000D02*
X166458000Y-80287000D01*
X166458000Y-80287000D02*
X162218000Y-80287000D01*
X161568000Y-81407000D02*
X162218000Y-81407000D01*
X167108000Y-81407000D02*
X166458000Y-81407000D01*
X162938000Y-80287000D02*
X162938000Y-82527000D01*
X163058000Y-80287000D02*
X163058000Y-82527000D01*
X162818000Y-80287000D02*
X162818000Y-82527000D01*
G04 #@! TO.C,D5*
X162818000Y-82827000D02*
X162818000Y-85067000D01*
X163058000Y-82827000D02*
X163058000Y-85067000D01*
X162938000Y-82827000D02*
X162938000Y-85067000D01*
X167108000Y-83947000D02*
X166458000Y-83947000D01*
X161568000Y-83947000D02*
X162218000Y-83947000D01*
X166458000Y-82827000D02*
X162218000Y-82827000D01*
X166458000Y-85067000D02*
X166458000Y-82827000D01*
X162218000Y-85067000D02*
X166458000Y-85067000D01*
X162218000Y-82827000D02*
X162218000Y-85067000D01*
G04 #@! TO.C,D6*
X162218000Y-85367000D02*
X162218000Y-87607000D01*
X162218000Y-87607000D02*
X166458000Y-87607000D01*
X166458000Y-87607000D02*
X166458000Y-85367000D01*
X166458000Y-85367000D02*
X162218000Y-85367000D01*
X161568000Y-86487000D02*
X162218000Y-86487000D01*
X167108000Y-86487000D02*
X166458000Y-86487000D01*
X162938000Y-85367000D02*
X162938000Y-87607000D01*
X163058000Y-85367000D02*
X163058000Y-87607000D01*
X162818000Y-85367000D02*
X162818000Y-87607000D01*
G04 #@! TO.C,J13*
X138878000Y-92643000D02*
X141538000Y-92643000D01*
X138878000Y-82423000D02*
X138878000Y-92643000D01*
X141538000Y-82423000D02*
X141538000Y-92643000D01*
X138878000Y-82423000D02*
X141538000Y-82423000D01*
X138878000Y-81153000D02*
X138878000Y-79823000D01*
X138878000Y-79823000D02*
X140208000Y-79823000D01*
G04 #@! TO.C,P1*
D10*
X147089904Y-121737380D02*
X147089904Y-120737380D01*
X147470857Y-120737380D01*
X147566095Y-120785000D01*
X147613714Y-120832619D01*
X147661333Y-120927857D01*
X147661333Y-121070714D01*
X147613714Y-121165952D01*
X147566095Y-121213571D01*
X147470857Y-121261190D01*
X147089904Y-121261190D01*
X148613714Y-121737380D02*
X148042285Y-121737380D01*
X148328000Y-121737380D02*
X148328000Y-120737380D01*
X148232761Y-120880238D01*
X148137523Y-120975476D01*
X148042285Y-121023095D01*
G04 #@! TO.C,P2*
X167663904Y-121737380D02*
X167663904Y-120737380D01*
X168044857Y-120737380D01*
X168140095Y-120785000D01*
X168187714Y-120832619D01*
X168235333Y-120927857D01*
X168235333Y-121070714D01*
X168187714Y-121165952D01*
X168140095Y-121213571D01*
X168044857Y-121261190D01*
X167663904Y-121261190D01*
X168616285Y-120832619D02*
X168663904Y-120785000D01*
X168759142Y-120737380D01*
X168997238Y-120737380D01*
X169092476Y-120785000D01*
X169140095Y-120832619D01*
X169187714Y-120927857D01*
X169187714Y-121023095D01*
X169140095Y-121165952D01*
X168568666Y-121737380D01*
X169187714Y-121737380D01*
G04 #@! TO.C,P3*
X140485904Y-78811380D02*
X140485904Y-77811380D01*
X140866857Y-77811380D01*
X140962095Y-77859000D01*
X141009714Y-77906619D01*
X141057333Y-78001857D01*
X141057333Y-78144714D01*
X141009714Y-78239952D01*
X140962095Y-78287571D01*
X140866857Y-78335190D01*
X140485904Y-78335190D01*
X141390666Y-77811380D02*
X142009714Y-77811380D01*
X141676380Y-78192333D01*
X141819238Y-78192333D01*
X141914476Y-78239952D01*
X141962095Y-78287571D01*
X142009714Y-78382809D01*
X142009714Y-78620904D01*
X141962095Y-78716142D01*
X141914476Y-78763761D01*
X141819238Y-78811380D01*
X141533523Y-78811380D01*
X141438285Y-78763761D01*
X141390666Y-78716142D01*
G04 #@! TO.C,P4*
X164869904Y-78811380D02*
X164869904Y-77811380D01*
X165250857Y-77811380D01*
X165346095Y-77859000D01*
X165393714Y-77906619D01*
X165441333Y-78001857D01*
X165441333Y-78144714D01*
X165393714Y-78239952D01*
X165346095Y-78287571D01*
X165250857Y-78335190D01*
X164869904Y-78335190D01*
X166298476Y-78144714D02*
X166298476Y-78811380D01*
X166060380Y-77763761D02*
X165822285Y-78478047D01*
X166441333Y-78478047D01*
G04 #@! TO.C,D1*
X171482380Y-83669095D02*
X170482380Y-83669095D01*
X170482380Y-83431000D01*
X170530000Y-83288142D01*
X170625238Y-83192904D01*
X170720476Y-83145285D01*
X170910952Y-83097666D01*
X171053809Y-83097666D01*
X171244285Y-83145285D01*
X171339523Y-83192904D01*
X171434761Y-83288142D01*
X171482380Y-83431000D01*
X171482380Y-83669095D01*
X171482380Y-82145285D02*
X171482380Y-82716714D01*
X171482380Y-82431000D02*
X170482380Y-82431000D01*
X170625238Y-82526238D01*
X170720476Y-82621476D01*
X170768095Y-82716714D01*
X173194380Y-79128904D02*
X172194380Y-79128904D01*
X173194380Y-78557476D02*
X172622952Y-78986047D01*
X172194380Y-78557476D02*
X172765809Y-79128904D01*
G04 #@! TO.C,D2*
X174276380Y-83669095D02*
X173276380Y-83669095D01*
X173276380Y-83431000D01*
X173324000Y-83288142D01*
X173419238Y-83192904D01*
X173514476Y-83145285D01*
X173704952Y-83097666D01*
X173847809Y-83097666D01*
X174038285Y-83145285D01*
X174133523Y-83192904D01*
X174228761Y-83288142D01*
X174276380Y-83431000D01*
X174276380Y-83669095D01*
X173371619Y-82716714D02*
X173324000Y-82669095D01*
X173276380Y-82573857D01*
X173276380Y-82335761D01*
X173324000Y-82240523D01*
X173371619Y-82192904D01*
X173466857Y-82145285D01*
X173562095Y-82145285D01*
X173704952Y-82192904D01*
X174276380Y-82764333D01*
X174276380Y-82145285D01*
X175988380Y-79128904D02*
X174988380Y-79128904D01*
X175988380Y-78557476D02*
X175416952Y-78986047D01*
X174988380Y-78557476D02*
X175559809Y-79128904D01*
G04 #@! TO.C,D3*
X172918380Y-93067095D02*
X171918380Y-93067095D01*
X171918380Y-92829000D01*
X171966000Y-92686142D01*
X172061238Y-92590904D01*
X172156476Y-92543285D01*
X172346952Y-92495666D01*
X172489809Y-92495666D01*
X172680285Y-92543285D01*
X172775523Y-92590904D01*
X172870761Y-92686142D01*
X172918380Y-92829000D01*
X172918380Y-93067095D01*
X171918380Y-92162333D02*
X171918380Y-91543285D01*
X172299333Y-91876619D01*
X172299333Y-91733761D01*
X172346952Y-91638523D01*
X172394571Y-91590904D01*
X172489809Y-91543285D01*
X172727904Y-91543285D01*
X172823142Y-91590904D01*
X172870761Y-91638523D01*
X172918380Y-91733761D01*
X172918380Y-92019476D01*
X172870761Y-92114714D01*
X172823142Y-92162333D01*
X171118380Y-96654904D02*
X170118380Y-96654904D01*
X171118380Y-96083476D02*
X170546952Y-96512047D01*
X170118380Y-96083476D02*
X170689809Y-96654904D01*
G04 #@! TO.C,J1*
X162709328Y-118768684D02*
X162709328Y-119482970D01*
X162661709Y-119625827D01*
X162566471Y-119721065D01*
X162423614Y-119768684D01*
X162328376Y-119768684D01*
X163709328Y-119768684D02*
X163137900Y-119768684D01*
X163423614Y-119768684D02*
X163423614Y-118768684D01*
X163328376Y-118911542D01*
X163233138Y-119006780D01*
X163137900Y-119054399D01*
X161131428Y-97258142D02*
X161083809Y-97305761D01*
X160940952Y-97353380D01*
X160845714Y-97353380D01*
X160702857Y-97305761D01*
X160607619Y-97210523D01*
X160560000Y-97115285D01*
X160512380Y-96924809D01*
X160512380Y-96781952D01*
X160560000Y-96591476D01*
X160607619Y-96496238D01*
X160702857Y-96401000D01*
X160845714Y-96353380D01*
X160940952Y-96353380D01*
X161083809Y-96401000D01*
X161131428Y-96448619D01*
X161560000Y-96686714D02*
X161560000Y-97353380D01*
X161560000Y-96781952D02*
X161607619Y-96734333D01*
X161702857Y-96686714D01*
X161845714Y-96686714D01*
X161940952Y-96734333D01*
X161988571Y-96829571D01*
X161988571Y-97353380D01*
X162226666Y-97448619D02*
X162988571Y-97448619D01*
X163179047Y-97067666D02*
X163655238Y-97067666D01*
X163083809Y-97353380D02*
X163417142Y-96353380D01*
X163750476Y-97353380D01*
X164607619Y-97353380D02*
X164036190Y-97353380D01*
X164321904Y-97353380D02*
X164321904Y-96353380D01*
X164226666Y-96496238D01*
X164131428Y-96591476D01*
X164036190Y-96639095D01*
G04 #@! TO.C,J2*
X132864328Y-93788684D02*
X132864328Y-94502970D01*
X132816709Y-94645827D01*
X132721471Y-94741065D01*
X132578614Y-94788684D01*
X132483376Y-94788684D01*
X133292900Y-93883923D02*
X133340519Y-93836304D01*
X133435757Y-93788684D01*
X133673852Y-93788684D01*
X133769090Y-93836304D01*
X133816709Y-93883923D01*
X133864328Y-93979161D01*
X133864328Y-94074399D01*
X133816709Y-94217256D01*
X133245281Y-94788684D01*
X133864328Y-94788684D01*
X133554804Y-120173571D02*
X133602423Y-120221190D01*
X133650042Y-120364047D01*
X133650042Y-120459285D01*
X133602423Y-120602142D01*
X133507185Y-120697380D01*
X133411947Y-120745000D01*
X133221471Y-120792619D01*
X133078614Y-120792619D01*
X132888138Y-120745000D01*
X132792900Y-120697380D01*
X132697662Y-120602142D01*
X132650042Y-120459285D01*
X132650042Y-120364047D01*
X132697662Y-120221190D01*
X132745281Y-120173571D01*
X132983376Y-119745000D02*
X133650042Y-119745000D01*
X133078614Y-119745000D02*
X133030995Y-119697380D01*
X132983376Y-119602142D01*
X132983376Y-119459285D01*
X133030995Y-119364047D01*
X133126233Y-119316428D01*
X133650042Y-119316428D01*
X133745281Y-119078333D02*
X133745281Y-118316428D01*
X133364328Y-118125952D02*
X133364328Y-117649761D01*
X133650042Y-118221190D02*
X132650042Y-117887857D01*
X133650042Y-117554523D01*
X132745281Y-117268809D02*
X132697662Y-117221190D01*
X132650042Y-117125952D01*
X132650042Y-116887857D01*
X132697662Y-116792619D01*
X132745281Y-116745000D01*
X132840519Y-116697380D01*
X132935757Y-116697380D01*
X133078614Y-116745000D01*
X133650042Y-117316428D01*
X133650042Y-116697380D01*
G04 #@! TO.C,J3*
X167789328Y-118768684D02*
X167789328Y-119482970D01*
X167741709Y-119625827D01*
X167646471Y-119721065D01*
X167503614Y-119768684D01*
X167408376Y-119768684D01*
X168170281Y-118768684D02*
X168789328Y-118768684D01*
X168455995Y-119149637D01*
X168598852Y-119149637D01*
X168694090Y-119197256D01*
X168741709Y-119244875D01*
X168789328Y-119340113D01*
X168789328Y-119578208D01*
X168741709Y-119673446D01*
X168694090Y-119721065D01*
X168598852Y-119768684D01*
X168313138Y-119768684D01*
X168217900Y-119721065D01*
X168170281Y-119673446D01*
X166592476Y-97258142D02*
X166544857Y-97305761D01*
X166402000Y-97353380D01*
X166306761Y-97353380D01*
X166163904Y-97305761D01*
X166068666Y-97210523D01*
X166021047Y-97115285D01*
X165973428Y-96924809D01*
X165973428Y-96781952D01*
X166021047Y-96591476D01*
X166068666Y-96496238D01*
X166163904Y-96401000D01*
X166306761Y-96353380D01*
X166402000Y-96353380D01*
X166544857Y-96401000D01*
X166592476Y-96448619D01*
X167021047Y-96686714D02*
X167021047Y-97353380D01*
X167021047Y-96781952D02*
X167068666Y-96734333D01*
X167163904Y-96686714D01*
X167306761Y-96686714D01*
X167402000Y-96734333D01*
X167449619Y-96829571D01*
X167449619Y-97353380D01*
X167687714Y-97448619D02*
X168449619Y-97448619D01*
X168640095Y-97067666D02*
X169116285Y-97067666D01*
X168544857Y-97353380D02*
X168878190Y-96353380D01*
X169211523Y-97353380D01*
X170068666Y-97353380D02*
X169497238Y-97353380D01*
X169782952Y-97353380D02*
X169782952Y-96353380D01*
X169687714Y-96496238D01*
X169592476Y-96591476D01*
X169497238Y-96639095D01*
X170402000Y-96686714D02*
X170640095Y-97353380D01*
X170878190Y-96686714D01*
G04 #@! TO.C,J4*
X127784328Y-93788684D02*
X127784328Y-94502970D01*
X127736709Y-94645827D01*
X127641471Y-94741065D01*
X127498614Y-94788684D01*
X127403376Y-94788684D01*
X128689090Y-94122018D02*
X128689090Y-94788684D01*
X128450995Y-93741065D02*
X128212900Y-94455351D01*
X128831947Y-94455351D01*
X128474804Y-121189523D02*
X128522423Y-121237142D01*
X128570042Y-121380000D01*
X128570042Y-121475238D01*
X128522423Y-121618095D01*
X128427185Y-121713333D01*
X128331947Y-121760952D01*
X128141471Y-121808571D01*
X127998614Y-121808571D01*
X127808138Y-121760952D01*
X127712900Y-121713333D01*
X127617662Y-121618095D01*
X127570042Y-121475238D01*
X127570042Y-121380000D01*
X127617662Y-121237142D01*
X127665281Y-121189523D01*
X127903376Y-120760952D02*
X128570042Y-120760952D01*
X127998614Y-120760952D02*
X127950995Y-120713333D01*
X127903376Y-120618095D01*
X127903376Y-120475238D01*
X127950995Y-120380000D01*
X128046233Y-120332380D01*
X128570042Y-120332380D01*
X128665281Y-120094285D02*
X128665281Y-119332380D01*
X128284328Y-119141904D02*
X128284328Y-118665714D01*
X128570042Y-119237142D02*
X127570042Y-118903809D01*
X128570042Y-118570476D01*
X127665281Y-118284761D02*
X127617662Y-118237142D01*
X127570042Y-118141904D01*
X127570042Y-117903809D01*
X127617662Y-117808571D01*
X127665281Y-117760952D01*
X127760519Y-117713333D01*
X127855757Y-117713333D01*
X127998614Y-117760952D01*
X128570042Y-118332380D01*
X128570042Y-117713333D01*
X127903376Y-117380000D02*
X128570042Y-117141904D01*
X127903376Y-116903809D01*
G04 #@! TO.C,J5*
X165249328Y-118768684D02*
X165249328Y-119482970D01*
X165201709Y-119625827D01*
X165106471Y-119721065D01*
X164963614Y-119768684D01*
X164868376Y-119768684D01*
X166201709Y-118768684D02*
X165725519Y-118768684D01*
X165677900Y-119244875D01*
X165725519Y-119197256D01*
X165820757Y-119149637D01*
X166058852Y-119149637D01*
X166154090Y-119197256D01*
X166201709Y-119244875D01*
X166249328Y-119340113D01*
X166249328Y-119578208D01*
X166201709Y-119673446D01*
X166154090Y-119721065D01*
X166058852Y-119768684D01*
X165820757Y-119768684D01*
X165725519Y-119721065D01*
X165677900Y-119673446D01*
X163727047Y-95988142D02*
X163679428Y-96035761D01*
X163536571Y-96083380D01*
X163441333Y-96083380D01*
X163298476Y-96035761D01*
X163203238Y-95940523D01*
X163155619Y-95845285D01*
X163108000Y-95654809D01*
X163108000Y-95511952D01*
X163155619Y-95321476D01*
X163203238Y-95226238D01*
X163298476Y-95131000D01*
X163441333Y-95083380D01*
X163536571Y-95083380D01*
X163679428Y-95131000D01*
X163727047Y-95178619D01*
X164155619Y-95416714D02*
X164155619Y-96083380D01*
X164155619Y-95511952D02*
X164203238Y-95464333D01*
X164298476Y-95416714D01*
X164441333Y-95416714D01*
X164536571Y-95464333D01*
X164584190Y-95559571D01*
X164584190Y-96083380D01*
X164822285Y-96178619D02*
X165584190Y-96178619D01*
X165774666Y-95797666D02*
X166250857Y-95797666D01*
X165679428Y-96083380D02*
X166012761Y-95083380D01*
X166346095Y-96083380D01*
X167203238Y-96083380D02*
X166631809Y-96083380D01*
X166917523Y-96083380D02*
X166917523Y-95083380D01*
X166822285Y-95226238D01*
X166727047Y-95321476D01*
X166631809Y-95369095D01*
X168060380Y-95416714D02*
X168060380Y-96226238D01*
X168012761Y-96321476D01*
X167965142Y-96369095D01*
X167869904Y-96416714D01*
X167727047Y-96416714D01*
X167631809Y-96369095D01*
X168060380Y-96035761D02*
X167965142Y-96083380D01*
X167774666Y-96083380D01*
X167679428Y-96035761D01*
X167631809Y-95988142D01*
X167584190Y-95892904D01*
X167584190Y-95607190D01*
X167631809Y-95511952D01*
X167679428Y-95464333D01*
X167774666Y-95416714D01*
X167965142Y-95416714D01*
X168060380Y-95464333D01*
G04 #@! TO.C,J6*
X130324328Y-93788684D02*
X130324328Y-94502970D01*
X130276709Y-94645827D01*
X130181471Y-94741065D01*
X130038614Y-94788684D01*
X129943376Y-94788684D01*
X131229090Y-93788684D02*
X131038614Y-93788684D01*
X130943376Y-93836304D01*
X130895757Y-93883923D01*
X130800519Y-94026780D01*
X130752900Y-94217256D01*
X130752900Y-94598208D01*
X130800519Y-94693446D01*
X130848138Y-94741065D01*
X130943376Y-94788684D01*
X131133852Y-94788684D01*
X131229090Y-94741065D01*
X131276709Y-94693446D01*
X131324328Y-94598208D01*
X131324328Y-94360113D01*
X131276709Y-94264875D01*
X131229090Y-94217256D01*
X131133852Y-94169637D01*
X130943376Y-94169637D01*
X130848138Y-94217256D01*
X130800519Y-94264875D01*
X130752900Y-94360113D01*
X131014804Y-121260952D02*
X131062423Y-121308571D01*
X131110042Y-121451428D01*
X131110042Y-121546666D01*
X131062423Y-121689523D01*
X130967185Y-121784761D01*
X130871947Y-121832380D01*
X130681471Y-121880000D01*
X130538614Y-121880000D01*
X130348138Y-121832380D01*
X130252900Y-121784761D01*
X130157662Y-121689523D01*
X130110042Y-121546666D01*
X130110042Y-121451428D01*
X130157662Y-121308571D01*
X130205281Y-121260952D01*
X130443376Y-120832380D02*
X131110042Y-120832380D01*
X130538614Y-120832380D02*
X130490995Y-120784761D01*
X130443376Y-120689523D01*
X130443376Y-120546666D01*
X130490995Y-120451428D01*
X130586233Y-120403809D01*
X131110042Y-120403809D01*
X131205281Y-120165714D02*
X131205281Y-119403809D01*
X130824328Y-119213333D02*
X130824328Y-118737142D01*
X131110042Y-119308571D02*
X130110042Y-118975238D01*
X131110042Y-118641904D01*
X130205281Y-118356190D02*
X130157662Y-118308571D01*
X130110042Y-118213333D01*
X130110042Y-117975238D01*
X130157662Y-117880000D01*
X130205281Y-117832380D01*
X130300519Y-117784761D01*
X130395757Y-117784761D01*
X130538614Y-117832380D01*
X131110042Y-118403809D01*
X131110042Y-117784761D01*
X130443376Y-116927619D02*
X131252900Y-116927619D01*
X131348138Y-116975238D01*
X131395757Y-117022857D01*
X131443376Y-117118095D01*
X131443376Y-117260952D01*
X131395757Y-117356190D01*
X131062423Y-116927619D02*
X131110042Y-117022857D01*
X131110042Y-117213333D01*
X131062423Y-117308571D01*
X131014804Y-117356190D01*
X130919566Y-117403809D01*
X130633852Y-117403809D01*
X130538614Y-117356190D01*
X130490995Y-117308571D01*
X130443376Y-117213333D01*
X130443376Y-117022857D01*
X130490995Y-116927619D01*
G04 #@! TO.C,J7*
X135005380Y-80978333D02*
X135719666Y-80978333D01*
X135862523Y-81025952D01*
X135957761Y-81121190D01*
X136005380Y-81264047D01*
X136005380Y-81359285D01*
X135005380Y-80597380D02*
X135005380Y-79930714D01*
X136005380Y-80359285D01*
X116348238Y-81002142D02*
X116300619Y-81049761D01*
X116157761Y-81097380D01*
X116062523Y-81097380D01*
X115919666Y-81049761D01*
X115824428Y-80954523D01*
X115776809Y-80859285D01*
X115729190Y-80668809D01*
X115729190Y-80525952D01*
X115776809Y-80335476D01*
X115824428Y-80240238D01*
X115919666Y-80145000D01*
X116062523Y-80097380D01*
X116157761Y-80097380D01*
X116300619Y-80145000D01*
X116348238Y-80192619D01*
X116776809Y-80430714D02*
X116776809Y-81097380D01*
X116776809Y-80525952D02*
X116824428Y-80478333D01*
X116919666Y-80430714D01*
X117062523Y-80430714D01*
X117157761Y-80478333D01*
X117205380Y-80573571D01*
X117205380Y-81097380D01*
X117443476Y-81192619D02*
X118205380Y-81192619D01*
X118300619Y-80097380D02*
X118872047Y-80097380D01*
X118586333Y-81097380D02*
X118586333Y-80097380D01*
X119205380Y-81097380D02*
X119205380Y-80097380D01*
X119633952Y-81097380D02*
X119633952Y-80573571D01*
X119586333Y-80478333D01*
X119491095Y-80430714D01*
X119348238Y-80430714D01*
X119253000Y-80478333D01*
X119205380Y-80525952D01*
X120110142Y-81097380D02*
X120110142Y-80430714D01*
X120110142Y-80621190D02*
X120157761Y-80525952D01*
X120205380Y-80478333D01*
X120300619Y-80430714D01*
X120395857Y-80430714D01*
X120872047Y-81097380D02*
X120776809Y-81049761D01*
X120729190Y-81002142D01*
X120681571Y-80906904D01*
X120681571Y-80621190D01*
X120729190Y-80525952D01*
X120776809Y-80478333D01*
X120872047Y-80430714D01*
X121014904Y-80430714D01*
X121110142Y-80478333D01*
X121157761Y-80525952D01*
X121205380Y-80621190D01*
X121205380Y-80906904D01*
X121157761Y-81002142D01*
X121110142Y-81049761D01*
X121014904Y-81097380D01*
X120872047Y-81097380D01*
X121491095Y-80430714D02*
X121872047Y-80430714D01*
X121633952Y-80097380D02*
X121633952Y-80954523D01*
X121681571Y-81049761D01*
X121776809Y-81097380D01*
X121872047Y-81097380D01*
X122205380Y-81097380D02*
X122205380Y-80097380D01*
X122586333Y-80097380D01*
X122681571Y-80145000D01*
X122729190Y-80192619D01*
X122776809Y-80287857D01*
X122776809Y-80430714D01*
X122729190Y-80525952D01*
X122681571Y-80573571D01*
X122586333Y-80621190D01*
X122205380Y-80621190D01*
G04 #@! TO.C,J8*
X136910380Y-90503333D02*
X137624666Y-90503333D01*
X137767523Y-90550952D01*
X137862761Y-90646190D01*
X137910380Y-90789047D01*
X137910380Y-90884285D01*
X137338952Y-89884285D02*
X137291333Y-89979523D01*
X137243714Y-90027142D01*
X137148476Y-90074761D01*
X137100857Y-90074761D01*
X137005619Y-90027142D01*
X136958000Y-89979523D01*
X136910380Y-89884285D01*
X136910380Y-89693809D01*
X136958000Y-89598571D01*
X137005619Y-89550952D01*
X137100857Y-89503333D01*
X137148476Y-89503333D01*
X137243714Y-89550952D01*
X137291333Y-89598571D01*
X137338952Y-89693809D01*
X137338952Y-89884285D01*
X137386571Y-89979523D01*
X137434190Y-90027142D01*
X137529428Y-90074761D01*
X137719904Y-90074761D01*
X137815142Y-90027142D01*
X137862761Y-89979523D01*
X137910380Y-89884285D01*
X137910380Y-89693809D01*
X137862761Y-89598571D01*
X137815142Y-89550952D01*
X137719904Y-89503333D01*
X137529428Y-89503333D01*
X137434190Y-89550952D01*
X137386571Y-89598571D01*
X137338952Y-89693809D01*
X122293476Y-93067142D02*
X122245857Y-93114761D01*
X122103000Y-93162380D01*
X122007761Y-93162380D01*
X121864904Y-93114761D01*
X121769666Y-93019523D01*
X121722047Y-92924285D01*
X121674428Y-92733809D01*
X121674428Y-92590952D01*
X121722047Y-92400476D01*
X121769666Y-92305238D01*
X121864904Y-92210000D01*
X122007761Y-92162380D01*
X122103000Y-92162380D01*
X122245857Y-92210000D01*
X122293476Y-92257619D01*
X122722047Y-92495714D02*
X122722047Y-93162380D01*
X122722047Y-92590952D02*
X122769666Y-92543333D01*
X122864904Y-92495714D01*
X123007761Y-92495714D01*
X123103000Y-92543333D01*
X123150619Y-92638571D01*
X123150619Y-93162380D01*
X123388714Y-93257619D02*
X124150619Y-93257619D01*
X124341095Y-92876666D02*
X124817285Y-92876666D01*
X124245857Y-93162380D02*
X124579190Y-92162380D01*
X124912523Y-93162380D01*
X125674428Y-93114761D02*
X125579190Y-93162380D01*
X125388714Y-93162380D01*
X125293476Y-93114761D01*
X125245857Y-93067142D01*
X125198238Y-92971904D01*
X125198238Y-92686190D01*
X125245857Y-92590952D01*
X125293476Y-92543333D01*
X125388714Y-92495714D01*
X125579190Y-92495714D01*
X125674428Y-92543333D01*
X125960142Y-92495714D02*
X126341095Y-92495714D01*
X126103000Y-92162380D02*
X126103000Y-93019523D01*
X126150619Y-93114761D01*
X126245857Y-93162380D01*
X126341095Y-93162380D01*
X126674428Y-93162380D02*
X126674428Y-92495714D01*
X126674428Y-92162380D02*
X126626809Y-92210000D01*
X126674428Y-92257619D01*
X126722047Y-92210000D01*
X126674428Y-92162380D01*
X126674428Y-92257619D01*
X127293476Y-93162380D02*
X127198238Y-93114761D01*
X127150619Y-93067142D01*
X127103000Y-92971904D01*
X127103000Y-92686190D01*
X127150619Y-92590952D01*
X127198238Y-92543333D01*
X127293476Y-92495714D01*
X127436333Y-92495714D01*
X127531571Y-92543333D01*
X127579190Y-92590952D01*
X127626809Y-92686190D01*
X127626809Y-92971904D01*
X127579190Y-93067142D01*
X127531571Y-93114761D01*
X127436333Y-93162380D01*
X127293476Y-93162380D01*
X128055380Y-92495714D02*
X128055380Y-93162380D01*
X128055380Y-92590952D02*
X128103000Y-92543333D01*
X128198238Y-92495714D01*
X128341095Y-92495714D01*
X128436333Y-92543333D01*
X128483952Y-92638571D01*
X128483952Y-93162380D01*
X128960142Y-93162380D02*
X128960142Y-92162380D01*
X129341095Y-92162380D01*
X129436333Y-92210000D01*
X129483952Y-92257619D01*
X129531571Y-92352857D01*
X129531571Y-92495714D01*
X129483952Y-92590952D01*
X129436333Y-92638571D01*
X129341095Y-92686190D01*
X128960142Y-92686190D01*
G04 #@! TO.C,J9*
X152570380Y-92408333D02*
X153284666Y-92408333D01*
X153427523Y-92455952D01*
X153522761Y-92551190D01*
X153570380Y-92694047D01*
X153570380Y-92789285D01*
X153570380Y-91884523D02*
X153570380Y-91694047D01*
X153522761Y-91598809D01*
X153475142Y-91551190D01*
X153332285Y-91455952D01*
X153141809Y-91408333D01*
X152760857Y-91408333D01*
X152665619Y-91455952D01*
X152618000Y-91503571D01*
X152570380Y-91598809D01*
X152570380Y-91789285D01*
X152618000Y-91884523D01*
X152665619Y-91932142D01*
X152760857Y-91979761D01*
X152998952Y-91979761D01*
X153094190Y-91932142D01*
X153141809Y-91884523D01*
X153189428Y-91789285D01*
X153189428Y-91598809D01*
X153141809Y-91503571D01*
X153094190Y-91455952D01*
X152998952Y-91408333D01*
X154329190Y-94972142D02*
X154281571Y-95019761D01*
X154138714Y-95067380D01*
X154043476Y-95067380D01*
X153900619Y-95019761D01*
X153805380Y-94924523D01*
X153757761Y-94829285D01*
X153710142Y-94638809D01*
X153710142Y-94495952D01*
X153757761Y-94305476D01*
X153805380Y-94210238D01*
X153900619Y-94115000D01*
X154043476Y-94067380D01*
X154138714Y-94067380D01*
X154281571Y-94115000D01*
X154329190Y-94162619D01*
X154757761Y-94400714D02*
X154757761Y-95067380D01*
X154757761Y-94495952D02*
X154805380Y-94448333D01*
X154900619Y-94400714D01*
X155043476Y-94400714D01*
X155138714Y-94448333D01*
X155186333Y-94543571D01*
X155186333Y-95067380D01*
X155424428Y-95162619D02*
X156186333Y-95162619D01*
X156376809Y-95019761D02*
X156519666Y-95067380D01*
X156757761Y-95067380D01*
X156853000Y-95019761D01*
X156900619Y-94972142D01*
X156948238Y-94876904D01*
X156948238Y-94781666D01*
X156900619Y-94686428D01*
X156853000Y-94638809D01*
X156757761Y-94591190D01*
X156567285Y-94543571D01*
X156472047Y-94495952D01*
X156424428Y-94448333D01*
X156376809Y-94353095D01*
X156376809Y-94257857D01*
X156424428Y-94162619D01*
X156472047Y-94115000D01*
X156567285Y-94067380D01*
X156805380Y-94067380D01*
X156948238Y-94115000D01*
X157281571Y-94400714D02*
X157519666Y-95067380D01*
X157757761Y-94400714D02*
X157519666Y-95067380D01*
X157424428Y-95305476D01*
X157376809Y-95353095D01*
X157281571Y-95400714D01*
X158091095Y-95019761D02*
X158186333Y-95067380D01*
X158376809Y-95067380D01*
X158472047Y-95019761D01*
X158519666Y-94924523D01*
X158519666Y-94876904D01*
X158472047Y-94781666D01*
X158376809Y-94734047D01*
X158233952Y-94734047D01*
X158138714Y-94686428D01*
X158091095Y-94591190D01*
X158091095Y-94543571D01*
X158138714Y-94448333D01*
X158233952Y-94400714D01*
X158376809Y-94400714D01*
X158472047Y-94448333D01*
X159281571Y-94543571D02*
X159424428Y-94591190D01*
X159472047Y-94638809D01*
X159519666Y-94734047D01*
X159519666Y-94876904D01*
X159472047Y-94972142D01*
X159424428Y-95019761D01*
X159329190Y-95067380D01*
X158948238Y-95067380D01*
X158948238Y-94067380D01*
X159281571Y-94067380D01*
X159376809Y-94115000D01*
X159424428Y-94162619D01*
X159472047Y-94257857D01*
X159472047Y-94353095D01*
X159424428Y-94448333D01*
X159376809Y-94495952D01*
X159281571Y-94543571D01*
X158948238Y-94543571D01*
X160376809Y-94400714D02*
X160376809Y-95067380D01*
X159948238Y-94400714D02*
X159948238Y-94924523D01*
X159995857Y-95019761D01*
X160091095Y-95067380D01*
X160233952Y-95067380D01*
X160329190Y-95019761D01*
X160376809Y-94972142D01*
X160710142Y-94400714D02*
X161091095Y-94400714D01*
X160853000Y-94067380D02*
X160853000Y-94924523D01*
X160900619Y-95019761D01*
X160995857Y-95067380D01*
X161091095Y-95067380D01*
G04 #@! TO.C,J11*
X174958476Y-103802380D02*
X174958476Y-104516666D01*
X174910857Y-104659523D01*
X174815619Y-104754761D01*
X174672761Y-104802380D01*
X174577523Y-104802380D01*
X175958476Y-104802380D02*
X175387047Y-104802380D01*
X175672761Y-104802380D02*
X175672761Y-103802380D01*
X175577523Y-103945238D01*
X175482285Y-104040476D01*
X175387047Y-104088095D01*
X176910857Y-104802380D02*
X176339428Y-104802380D01*
X176625142Y-104802380D02*
X176625142Y-103802380D01*
X176529904Y-103945238D01*
X176434666Y-104040476D01*
X176339428Y-104088095D01*
X177950857Y-105481904D02*
X177903238Y-105434285D01*
X177855619Y-105291428D01*
X177855619Y-105196190D01*
X177903238Y-105053333D01*
X177998476Y-104958095D01*
X178093714Y-104910476D01*
X178284190Y-104862857D01*
X178427047Y-104862857D01*
X178617523Y-104910476D01*
X178712761Y-104958095D01*
X178808000Y-105053333D01*
X178855619Y-105196190D01*
X178855619Y-105291428D01*
X178808000Y-105434285D01*
X178760380Y-105481904D01*
X178522285Y-105910476D02*
X177855619Y-105910476D01*
X178427047Y-105910476D02*
X178474666Y-105958095D01*
X178522285Y-106053333D01*
X178522285Y-106196190D01*
X178474666Y-106291428D01*
X178379428Y-106339047D01*
X177855619Y-106339047D01*
X177760380Y-106577142D02*
X177760380Y-107339047D01*
X177855619Y-107577142D02*
X178855619Y-107577142D01*
X178855619Y-107815238D01*
X178808000Y-107958095D01*
X178712761Y-108053333D01*
X178617523Y-108100952D01*
X178427047Y-108148571D01*
X178284190Y-108148571D01*
X178093714Y-108100952D01*
X177998476Y-108053333D01*
X177903238Y-107958095D01*
X177855619Y-107815238D01*
X177855619Y-107577142D01*
X177855619Y-108577142D02*
X178522285Y-108577142D01*
X178855619Y-108577142D02*
X178808000Y-108529523D01*
X178760380Y-108577142D01*
X178808000Y-108624761D01*
X178855619Y-108577142D01*
X178760380Y-108577142D01*
X177855619Y-109053333D02*
X178522285Y-109053333D01*
X178427047Y-109053333D02*
X178474666Y-109100952D01*
X178522285Y-109196190D01*
X178522285Y-109339047D01*
X178474666Y-109434285D01*
X178379428Y-109481904D01*
X177855619Y-109481904D01*
X178379428Y-109481904D02*
X178474666Y-109529523D01*
X178522285Y-109624761D01*
X178522285Y-109767619D01*
X178474666Y-109862857D01*
X178379428Y-109910476D01*
X177855619Y-109910476D01*
X177855619Y-110386666D02*
X178522285Y-110386666D01*
X178427047Y-110386666D02*
X178474666Y-110434285D01*
X178522285Y-110529523D01*
X178522285Y-110672380D01*
X178474666Y-110767619D01*
X178379428Y-110815238D01*
X177855619Y-110815238D01*
X178379428Y-110815238D02*
X178474666Y-110862857D01*
X178522285Y-110958095D01*
X178522285Y-111100952D01*
X178474666Y-111196190D01*
X178379428Y-111243809D01*
X177855619Y-111243809D01*
X177903238Y-112100952D02*
X177855619Y-112005714D01*
X177855619Y-111815238D01*
X177903238Y-111720000D01*
X177998476Y-111672380D01*
X178379428Y-111672380D01*
X178474666Y-111720000D01*
X178522285Y-111815238D01*
X178522285Y-112005714D01*
X178474666Y-112100952D01*
X178379428Y-112148571D01*
X178284190Y-112148571D01*
X178188952Y-111672380D01*
X177855619Y-112577142D02*
X178522285Y-112577142D01*
X178331809Y-112577142D02*
X178427047Y-112624761D01*
X178474666Y-112672380D01*
X178522285Y-112767619D01*
X178522285Y-112862857D01*
X177903238Y-113148571D02*
X177855619Y-113243809D01*
X177855619Y-113434285D01*
X177903238Y-113529523D01*
X177998476Y-113577142D01*
X178046095Y-113577142D01*
X178141333Y-113529523D01*
X178188952Y-113434285D01*
X178188952Y-113291428D01*
X178236571Y-113196190D01*
X178331809Y-113148571D01*
X178379428Y-113148571D01*
X178474666Y-113196190D01*
X178522285Y-113291428D01*
X178522285Y-113434285D01*
X178474666Y-113529523D01*
G04 #@! TO.C,J12*
X129500380Y-124634523D02*
X130214666Y-124634523D01*
X130357523Y-124682142D01*
X130452761Y-124777380D01*
X130500380Y-124920238D01*
X130500380Y-125015476D01*
X130500380Y-123634523D02*
X130500380Y-124205952D01*
X130500380Y-123920238D02*
X129500380Y-123920238D01*
X129643238Y-124015476D01*
X129738476Y-124110714D01*
X129786095Y-124205952D01*
X129595619Y-123253571D02*
X129548000Y-123205952D01*
X129500380Y-123110714D01*
X129500380Y-122872619D01*
X129548000Y-122777380D01*
X129595619Y-122729761D01*
X129690857Y-122682142D01*
X129786095Y-122682142D01*
X129928952Y-122729761D01*
X130500380Y-123301190D01*
X130500380Y-122682142D01*
X136755142Y-121213333D02*
X136802761Y-121260952D01*
X136850380Y-121403809D01*
X136850380Y-121499047D01*
X136802761Y-121641904D01*
X136707523Y-121737142D01*
X136612285Y-121784761D01*
X136421809Y-121832380D01*
X136278952Y-121832380D01*
X136088476Y-121784761D01*
X135993238Y-121737142D01*
X135898000Y-121641904D01*
X135850380Y-121499047D01*
X135850380Y-121403809D01*
X135898000Y-121260952D01*
X135945619Y-121213333D01*
X136183714Y-120784761D02*
X136850380Y-120784761D01*
X136278952Y-120784761D02*
X136231333Y-120737142D01*
X136183714Y-120641904D01*
X136183714Y-120499047D01*
X136231333Y-120403809D01*
X136326571Y-120356190D01*
X136850380Y-120356190D01*
X136945619Y-120118095D02*
X136945619Y-119356190D01*
X136850380Y-119118095D02*
X135850380Y-119118095D01*
X136850380Y-118546666D02*
X136278952Y-118975238D01*
X135850380Y-118546666D02*
X136421809Y-119118095D01*
X136802761Y-117737142D02*
X136850380Y-117832380D01*
X136850380Y-118022857D01*
X136802761Y-118118095D01*
X136707523Y-118165714D01*
X136326571Y-118165714D01*
X136231333Y-118118095D01*
X136183714Y-118022857D01*
X136183714Y-117832380D01*
X136231333Y-117737142D01*
X136326571Y-117689523D01*
X136421809Y-117689523D01*
X136517047Y-118165714D01*
X136183714Y-117356190D02*
X136850380Y-117118095D01*
X136183714Y-116880000D02*
X136850380Y-117118095D01*
X137088476Y-117213333D01*
X137136095Y-117260952D01*
X137183714Y-117356190D01*
G04 #@! TO.C,J14*
X150193476Y-91317380D02*
X150193476Y-92031666D01*
X150145857Y-92174523D01*
X150050619Y-92269761D01*
X149907761Y-92317380D01*
X149812523Y-92317380D01*
X151193476Y-92317380D02*
X150622047Y-92317380D01*
X150907761Y-92317380D02*
X150907761Y-91317380D01*
X150812523Y-91460238D01*
X150717285Y-91555476D01*
X150622047Y-91603095D01*
X152050619Y-91650714D02*
X152050619Y-92317380D01*
X151812523Y-91269761D02*
X151574428Y-91984047D01*
X152193476Y-91984047D01*
G04 #@! TO.C,Q2*
X149637761Y-78697619D02*
X149542523Y-78650000D01*
X149447285Y-78554761D01*
X149304428Y-78411904D01*
X149209190Y-78364285D01*
X149113952Y-78364285D01*
X149161571Y-78602380D02*
X149066333Y-78554761D01*
X148971095Y-78459523D01*
X148923476Y-78269047D01*
X148923476Y-77935714D01*
X148971095Y-77745238D01*
X149066333Y-77650000D01*
X149161571Y-77602380D01*
X149352047Y-77602380D01*
X149447285Y-77650000D01*
X149542523Y-77745238D01*
X149590142Y-77935714D01*
X149590142Y-78269047D01*
X149542523Y-78459523D01*
X149447285Y-78554761D01*
X149352047Y-78602380D01*
X149161571Y-78602380D01*
X149971095Y-77697619D02*
X150018714Y-77650000D01*
X150113952Y-77602380D01*
X150352047Y-77602380D01*
X150447285Y-77650000D01*
X150494904Y-77697619D01*
X150542523Y-77792857D01*
X150542523Y-77888095D01*
X150494904Y-78030952D01*
X149923476Y-78602380D01*
X150542523Y-78602380D01*
G04 #@! TO.C,R1*
X129881333Y-87277380D02*
X129548000Y-86801190D01*
X129309904Y-87277380D02*
X129309904Y-86277380D01*
X129690857Y-86277380D01*
X129786095Y-86325000D01*
X129833714Y-86372619D01*
X129881333Y-86467857D01*
X129881333Y-86610714D01*
X129833714Y-86705952D01*
X129786095Y-86753571D01*
X129690857Y-86801190D01*
X129309904Y-86801190D01*
X130833714Y-87277380D02*
X130262285Y-87277380D01*
X130548000Y-87277380D02*
X130548000Y-86277380D01*
X130452761Y-86420238D01*
X130357523Y-86515476D01*
X130262285Y-86563095D01*
G04 #@! TO.C,U1*
X159770380Y-102996904D02*
X160579904Y-102996904D01*
X160675142Y-102949285D01*
X160722761Y-102901666D01*
X160770380Y-102806428D01*
X160770380Y-102615952D01*
X160722761Y-102520714D01*
X160675142Y-102473095D01*
X160579904Y-102425476D01*
X159770380Y-102425476D01*
X160770380Y-101425476D02*
X160770380Y-101996904D01*
X160770380Y-101711190D02*
X159770380Y-101711190D01*
X159913238Y-101806428D01*
X160008476Y-101901666D01*
X160056095Y-101996904D01*
G04 #@! TO.C,U2*
X137305042Y-114446208D02*
X138114566Y-114446208D01*
X138209804Y-114398589D01*
X138257423Y-114350970D01*
X138305042Y-114255732D01*
X138305042Y-114065256D01*
X138257423Y-113970018D01*
X138209804Y-113922399D01*
X138114566Y-113874780D01*
X137305042Y-113874780D01*
X137400281Y-113446208D02*
X137352662Y-113398589D01*
X137305042Y-113303351D01*
X137305042Y-113065256D01*
X137352662Y-112970018D01*
X137400281Y-112922399D01*
X137495519Y-112874780D01*
X137590757Y-112874780D01*
X137733614Y-112922399D01*
X138305042Y-113493827D01*
X138305042Y-112874780D01*
G04 #@! TO.C,J10*
X155273476Y-77962380D02*
X155273476Y-78676666D01*
X155225857Y-78819523D01*
X155130619Y-78914761D01*
X154987761Y-78962380D01*
X154892523Y-78962380D01*
X156273476Y-78962380D02*
X155702047Y-78962380D01*
X155987761Y-78962380D02*
X155987761Y-77962380D01*
X155892523Y-78105238D01*
X155797285Y-78200476D01*
X155702047Y-78248095D01*
X156892523Y-77962380D02*
X156987761Y-77962380D01*
X157083000Y-78010000D01*
X157130619Y-78057619D01*
X157178238Y-78152857D01*
X157225857Y-78343333D01*
X157225857Y-78581428D01*
X157178238Y-78771904D01*
X157130619Y-78867142D01*
X157083000Y-78914761D01*
X156987761Y-78962380D01*
X156892523Y-78962380D01*
X156797285Y-78914761D01*
X156749666Y-78867142D01*
X156702047Y-78771904D01*
X156654428Y-78581428D01*
X156654428Y-78343333D01*
X156702047Y-78152857D01*
X156749666Y-78057619D01*
X156797285Y-78010000D01*
X156892523Y-77962380D01*
X153575142Y-89487142D02*
X153527523Y-89534761D01*
X153384666Y-89582380D01*
X153289428Y-89582380D01*
X153146571Y-89534761D01*
X153051333Y-89439523D01*
X153003714Y-89344285D01*
X152956095Y-89153809D01*
X152956095Y-89010952D01*
X153003714Y-88820476D01*
X153051333Y-88725238D01*
X153146571Y-88630000D01*
X153289428Y-88582380D01*
X153384666Y-88582380D01*
X153527523Y-88630000D01*
X153575142Y-88677619D01*
X154003714Y-88915714D02*
X154003714Y-89582380D01*
X154003714Y-89010952D02*
X154051333Y-88963333D01*
X154146571Y-88915714D01*
X154289428Y-88915714D01*
X154384666Y-88963333D01*
X154432285Y-89058571D01*
X154432285Y-89582380D01*
X154670380Y-89677619D02*
X155432285Y-89677619D01*
X155622761Y-89534761D02*
X155765619Y-89582380D01*
X156003714Y-89582380D01*
X156098952Y-89534761D01*
X156146571Y-89487142D01*
X156194190Y-89391904D01*
X156194190Y-89296666D01*
X156146571Y-89201428D01*
X156098952Y-89153809D01*
X156003714Y-89106190D01*
X155813238Y-89058571D01*
X155718000Y-89010952D01*
X155670380Y-88963333D01*
X155622761Y-88868095D01*
X155622761Y-88772857D01*
X155670380Y-88677619D01*
X155718000Y-88630000D01*
X155813238Y-88582380D01*
X156051333Y-88582380D01*
X156194190Y-88630000D01*
X156527523Y-88915714D02*
X156765619Y-89582380D01*
X157003714Y-88915714D02*
X156765619Y-89582380D01*
X156670380Y-89820476D01*
X156622761Y-89868095D01*
X156527523Y-89915714D01*
X157337047Y-89534761D02*
X157432285Y-89582380D01*
X157622761Y-89582380D01*
X157718000Y-89534761D01*
X157765619Y-89439523D01*
X157765619Y-89391904D01*
X157718000Y-89296666D01*
X157622761Y-89249047D01*
X157479904Y-89249047D01*
X157384666Y-89201428D01*
X157337047Y-89106190D01*
X157337047Y-89058571D01*
X157384666Y-88963333D01*
X157479904Y-88915714D01*
X157622761Y-88915714D01*
X157718000Y-88963333D01*
X158670380Y-89582380D02*
X158194190Y-89582380D01*
X158194190Y-88582380D01*
X159003714Y-89058571D02*
X159337047Y-89058571D01*
X159479904Y-89582380D02*
X159003714Y-89582380D01*
X159003714Y-88582380D01*
X159479904Y-88582380D01*
X159908476Y-89582380D02*
X159908476Y-88582380D01*
X160146571Y-88582380D01*
X160289428Y-88630000D01*
X160384666Y-88725238D01*
X160432285Y-88820476D01*
X160479904Y-89010952D01*
X160479904Y-89153809D01*
X160432285Y-89344285D01*
X160384666Y-89439523D01*
X160289428Y-89534761D01*
X160146571Y-89582380D01*
X159908476Y-89582380D01*
G04 #@! TO.C,D4*
X163599904Y-82025380D02*
X163599904Y-81025380D01*
X163838000Y-81025380D01*
X163980857Y-81073000D01*
X164076095Y-81168238D01*
X164123714Y-81263476D01*
X164171333Y-81453952D01*
X164171333Y-81596809D01*
X164123714Y-81787285D01*
X164076095Y-81882523D01*
X163980857Y-81977761D01*
X163838000Y-82025380D01*
X163599904Y-82025380D01*
X165028476Y-81358714D02*
X165028476Y-82025380D01*
X164790380Y-80977761D02*
X164552285Y-81692047D01*
X165171333Y-81692047D01*
X160266095Y-80059380D02*
X160266095Y-79059380D01*
X160837523Y-80059380D02*
X160408952Y-79487952D01*
X160837523Y-79059380D02*
X160266095Y-79630809D01*
G04 #@! TO.C,D5*
X163599904Y-84565380D02*
X163599904Y-83565380D01*
X163838000Y-83565380D01*
X163980857Y-83613000D01*
X164076095Y-83708238D01*
X164123714Y-83803476D01*
X164171333Y-83993952D01*
X164171333Y-84136809D01*
X164123714Y-84327285D01*
X164076095Y-84422523D01*
X163980857Y-84517761D01*
X163838000Y-84565380D01*
X163599904Y-84565380D01*
X165076095Y-83565380D02*
X164599904Y-83565380D01*
X164552285Y-84041571D01*
X164599904Y-83993952D01*
X164695142Y-83946333D01*
X164933238Y-83946333D01*
X165028476Y-83993952D01*
X165076095Y-84041571D01*
X165123714Y-84136809D01*
X165123714Y-84374904D01*
X165076095Y-84470142D01*
X165028476Y-84517761D01*
X164933238Y-84565380D01*
X164695142Y-84565380D01*
X164599904Y-84517761D01*
X164552285Y-84470142D01*
X160266095Y-82599380D02*
X160266095Y-81599380D01*
X160837523Y-82599380D02*
X160408952Y-82027952D01*
X160837523Y-81599380D02*
X160266095Y-82170809D01*
G04 #@! TO.C,D6*
X163599904Y-87105380D02*
X163599904Y-86105380D01*
X163838000Y-86105380D01*
X163980857Y-86153000D01*
X164076095Y-86248238D01*
X164123714Y-86343476D01*
X164171333Y-86533952D01*
X164171333Y-86676809D01*
X164123714Y-86867285D01*
X164076095Y-86962523D01*
X163980857Y-87057761D01*
X163838000Y-87105380D01*
X163599904Y-87105380D01*
X165028476Y-86105380D02*
X164838000Y-86105380D01*
X164742761Y-86153000D01*
X164695142Y-86200619D01*
X164599904Y-86343476D01*
X164552285Y-86533952D01*
X164552285Y-86914904D01*
X164599904Y-87010142D01*
X164647523Y-87057761D01*
X164742761Y-87105380D01*
X164933238Y-87105380D01*
X165028476Y-87057761D01*
X165076095Y-87010142D01*
X165123714Y-86914904D01*
X165123714Y-86676809D01*
X165076095Y-86581571D01*
X165028476Y-86533952D01*
X164933238Y-86486333D01*
X164742761Y-86486333D01*
X164647523Y-86533952D01*
X164599904Y-86581571D01*
X164552285Y-86676809D01*
X160266095Y-85139380D02*
X160266095Y-84139380D01*
X160837523Y-85139380D02*
X160408952Y-84567952D01*
X160837523Y-84139380D02*
X160266095Y-84710809D01*
G04 #@! TO.C,J13*
X139398476Y-78275380D02*
X139398476Y-78989666D01*
X139350857Y-79132523D01*
X139255619Y-79227761D01*
X139112761Y-79275380D01*
X139017523Y-79275380D01*
X140398476Y-79275380D02*
X139827047Y-79275380D01*
X140112761Y-79275380D02*
X140112761Y-78275380D01*
X140017523Y-78418238D01*
X139922285Y-78513476D01*
X139827047Y-78561095D01*
X140731809Y-78275380D02*
X141350857Y-78275380D01*
X141017523Y-78656333D01*
X141160380Y-78656333D01*
X141255619Y-78703952D01*
X141303238Y-78751571D01*
X141350857Y-78846809D01*
X141350857Y-79084904D01*
X141303238Y-79180142D01*
X141255619Y-79227761D01*
X141160380Y-79275380D01*
X140874666Y-79275380D01*
X140779428Y-79227761D01*
X140731809Y-79180142D01*
X143359142Y-91257000D02*
X143406761Y-91304619D01*
X143454380Y-91447476D01*
X143454380Y-91542714D01*
X143406761Y-91685571D01*
X143311523Y-91780809D01*
X143216285Y-91828428D01*
X143025809Y-91876047D01*
X142882952Y-91876047D01*
X142692476Y-91828428D01*
X142597238Y-91780809D01*
X142502000Y-91685571D01*
X142454380Y-91542714D01*
X142454380Y-91447476D01*
X142502000Y-91304619D01*
X142549619Y-91257000D01*
X143454380Y-90685571D02*
X143406761Y-90780809D01*
X143359142Y-90828428D01*
X143263904Y-90876047D01*
X142978190Y-90876047D01*
X142882952Y-90828428D01*
X142835333Y-90780809D01*
X142787714Y-90685571D01*
X142787714Y-90542714D01*
X142835333Y-90447476D01*
X142882952Y-90399857D01*
X142978190Y-90352238D01*
X143263904Y-90352238D01*
X143359142Y-90399857D01*
X143406761Y-90447476D01*
X143454380Y-90542714D01*
X143454380Y-90685571D01*
X142787714Y-89923666D02*
X143454380Y-89923666D01*
X142882952Y-89923666D02*
X142835333Y-89876047D01*
X142787714Y-89780809D01*
X142787714Y-89637952D01*
X142835333Y-89542714D01*
X142930571Y-89495095D01*
X143454380Y-89495095D01*
X142787714Y-89018904D02*
X143454380Y-89018904D01*
X142882952Y-89018904D02*
X142835333Y-88971285D01*
X142787714Y-88876047D01*
X142787714Y-88733190D01*
X142835333Y-88637952D01*
X142930571Y-88590333D01*
X143454380Y-88590333D01*
X143549619Y-88352238D02*
X143549619Y-87590333D01*
X143454380Y-87352238D02*
X142454380Y-87352238D01*
X143168666Y-87018904D01*
X142454380Y-86685571D01*
X143454380Y-86685571D01*
X143454380Y-86066523D02*
X143406761Y-86161761D01*
X143359142Y-86209380D01*
X143263904Y-86257000D01*
X142978190Y-86257000D01*
X142882952Y-86209380D01*
X142835333Y-86161761D01*
X142787714Y-86066523D01*
X142787714Y-85923666D01*
X142835333Y-85828428D01*
X142882952Y-85780809D01*
X142978190Y-85733190D01*
X143263904Y-85733190D01*
X143359142Y-85780809D01*
X143406761Y-85828428D01*
X143454380Y-85923666D01*
X143454380Y-86066523D01*
X142787714Y-85447476D02*
X142787714Y-85066523D01*
X142454380Y-85304619D02*
X143311523Y-85304619D01*
X143406761Y-85257000D01*
X143454380Y-85161761D01*
X143454380Y-85066523D01*
X143454380Y-84590333D02*
X143406761Y-84685571D01*
X143359142Y-84733190D01*
X143263904Y-84780809D01*
X142978190Y-84780809D01*
X142882952Y-84733190D01*
X142835333Y-84685571D01*
X142787714Y-84590333D01*
X142787714Y-84447476D01*
X142835333Y-84352238D01*
X142882952Y-84304619D01*
X142978190Y-84257000D01*
X143263904Y-84257000D01*
X143359142Y-84304619D01*
X143406761Y-84352238D01*
X143454380Y-84447476D01*
X143454380Y-84590333D01*
X143454380Y-83828428D02*
X142787714Y-83828428D01*
X142978190Y-83828428D02*
X142882952Y-83780809D01*
X142835333Y-83733190D01*
X142787714Y-83637952D01*
X142787714Y-83542714D01*
G04 #@! TD*
M02*
