G04 #@! TF.GenerationSoftware,KiCad,Pcbnew,(5.0.1)-4*
G04 #@! TF.CreationDate,2019-02-10T23:22:43-08:00*
G04 #@! TF.ProjectId,Shield,536869656C642E6B696361645F706362,rev?*
G04 #@! TF.SameCoordinates,Original*
G04 #@! TF.FileFunction,Copper,L2,Bot,Signal*
G04 #@! TF.FilePolarity,Positive*
%FSLAX46Y46*%
G04 Gerber Fmt 4.6, Leading zero omitted, Abs format (unit mm)*
G04 Created by KiCad (PCBNEW (5.0.1)-4) date 2/10/2019 11:22:43 PM*
%MOMM*%
%LPD*%
G01*
G04 APERTURE LIST*
G04 #@! TA.AperFunction,ComponentPad*
%ADD10O,1.727200X2.032000*%
G04 #@! TD*
G04 #@! TA.AperFunction,ComponentPad*
%ADD11C,4.064000*%
G04 #@! TD*
G04 #@! TA.AperFunction,ComponentPad*
%ADD12O,1.600000X1.600000*%
G04 #@! TD*
G04 #@! TA.AperFunction,ComponentPad*
%ADD13R,1.600000X1.600000*%
G04 #@! TD*
G04 #@! TA.AperFunction,ComponentPad*
%ADD14O,1.700000X1.700000*%
G04 #@! TD*
G04 #@! TA.AperFunction,ComponentPad*
%ADD15R,1.700000X1.700000*%
G04 #@! TD*
G04 #@! TA.AperFunction,ComponentPad*
%ADD16R,1.100000X1.800000*%
G04 #@! TD*
G04 #@! TA.AperFunction,Conductor*
%ADD17C,0.100000*%
G04 #@! TD*
G04 #@! TA.AperFunction,ComponentPad*
%ADD18C,1.100000*%
G04 #@! TD*
G04 #@! TA.AperFunction,ComponentPad*
%ADD19C,1.600000*%
G04 #@! TD*
G04 #@! TA.AperFunction,ViaPad*
%ADD20C,0.600000*%
G04 #@! TD*
G04 #@! TA.AperFunction,Conductor*
%ADD21C,0.250000*%
G04 #@! TD*
G04 #@! TA.AperFunction,Conductor*
%ADD22C,0.600000*%
G04 #@! TD*
G04 #@! TA.AperFunction,Conductor*
%ADD23C,0.254000*%
G04 #@! TD*
G04 APERTURE END LIST*
D10*
G04 #@! TO.P,P1,1*
G04 #@! TO.N,Net-(P1-Pad1)*
X138938000Y-123825000D03*
G04 #@! TO.P,P1,2*
G04 #@! TO.N,/IOREF*
X141478000Y-123825000D03*
G04 #@! TO.P,P1,3*
G04 #@! TO.N,/Reset*
X144018000Y-123825000D03*
G04 #@! TO.P,P1,4*
G04 #@! TO.N,+3V3*
X146558000Y-123825000D03*
G04 #@! TO.P,P1,5*
G04 #@! TO.N,+5V*
X149098000Y-123825000D03*
G04 #@! TO.P,P1,6*
G04 #@! TO.N,GND*
X151638000Y-123825000D03*
G04 #@! TO.P,P1,7*
X154178000Y-123825000D03*
G04 #@! TO.P,P1,8*
G04 #@! TO.N,/Vin*
X156718000Y-123825000D03*
G04 #@! TD*
G04 #@! TO.P,P2,1*
G04 #@! TO.N,/A0*
X161798000Y-123825000D03*
G04 #@! TO.P,P2,2*
G04 #@! TO.N,/A1*
X164338000Y-123825000D03*
G04 #@! TO.P,P2,3*
G04 #@! TO.N,/A2*
X166878000Y-123825000D03*
G04 #@! TO.P,P2,4*
G04 #@! TO.N,/A3*
X169418000Y-123825000D03*
G04 #@! TO.P,P2,5*
G04 #@! TO.N,/A4(SDA)*
X171958000Y-123825000D03*
G04 #@! TO.P,P2,6*
G04 #@! TO.N,/A5(SCL)*
X174498000Y-123825000D03*
G04 #@! TD*
G04 #@! TO.P,P3,1*
G04 #@! TO.N,/A5(SCL)*
X129794000Y-75565000D03*
G04 #@! TO.P,P3,2*
G04 #@! TO.N,/A4(SDA)*
X132334000Y-75565000D03*
G04 #@! TO.P,P3,3*
G04 #@! TO.N,/AREF*
X134874000Y-75565000D03*
G04 #@! TO.P,P3,4*
G04 #@! TO.N,GND*
X137414000Y-75565000D03*
G04 #@! TO.P,P3,5*
G04 #@! TO.N,/13(SCK)*
X139954000Y-75565000D03*
G04 #@! TO.P,P3,6*
G04 #@! TO.N,/12(MISO)*
X142494000Y-75565000D03*
G04 #@! TO.P,P3,7*
G04 #@! TO.N,/11(\002A\002A/MOSI)*
X145034000Y-75565000D03*
G04 #@! TO.P,P3,8*
G04 #@! TO.N,/10(\002A\002A/SS)*
X147574000Y-75565000D03*
G04 #@! TO.P,P3,9*
G04 #@! TO.N,/9(\002A\002A)*
X150114000Y-75565000D03*
G04 #@! TO.P,P3,10*
G04 #@! TO.N,/8*
X152654000Y-75565000D03*
G04 #@! TD*
G04 #@! TO.P,P4,1*
G04 #@! TO.N,/7*
X156718000Y-75565000D03*
G04 #@! TO.P,P4,2*
G04 #@! TO.N,/6(\002A\002A)*
X159258000Y-75565000D03*
G04 #@! TO.P,P4,3*
G04 #@! TO.N,/5(\002A\002A)*
X161798000Y-75565000D03*
G04 #@! TO.P,P4,4*
G04 #@! TO.N,/4*
X164338000Y-75565000D03*
G04 #@! TO.P,P4,5*
G04 #@! TO.N,/3(\002A\002A)*
X166878000Y-75565000D03*
G04 #@! TO.P,P4,6*
G04 #@! TO.N,/2*
X169418000Y-75565000D03*
G04 #@! TO.P,P4,7*
G04 #@! TO.N,/1(Tx)*
X171958000Y-75565000D03*
G04 #@! TO.P,P4,8*
G04 #@! TO.N,/0(Rx)*
X174498000Y-75565000D03*
G04 #@! TD*
D11*
G04 #@! TO.P,P5,1*
G04 #@! TO.N,Net-(P5-Pad1)*
X124968000Y-123825000D03*
G04 #@! TD*
G04 #@! TO.P,P6,1*
G04 #@! TO.N,Net-(P6-Pad1)*
X177038000Y-118745000D03*
G04 #@! TD*
G04 #@! TO.P,P7,1*
G04 #@! TO.N,Net-(P7-Pad1)*
X126238000Y-75565000D03*
G04 #@! TD*
G04 #@! TO.P,P8,1*
G04 #@! TO.N,Net-(P8-Pad1)*
X177038000Y-90805000D03*
G04 #@! TD*
D12*
G04 #@! TO.P,D1,2*
G04 #@! TO.N,/Ltest*
X170942000Y-86487000D03*
D13*
G04 #@! TO.P,D1,1*
G04 #@! TO.N,Net-(D1-Pad1)*
X170942000Y-78867000D03*
G04 #@! TD*
G04 #@! TO.P,D2,1*
G04 #@! TO.N,Net-(D2-Pad1)*
X173736000Y-78867000D03*
D12*
G04 #@! TO.P,D2,2*
G04 #@! TO.N,/Ltest*
X173736000Y-86487000D03*
G04 #@! TD*
D13*
G04 #@! TO.P,D3,1*
G04 #@! TO.N,Net-(D3-Pad1)*
X172466000Y-96393000D03*
D12*
G04 #@! TO.P,D3,2*
G04 #@! TO.N,/Ltest*
X172466000Y-88773000D03*
G04 #@! TD*
D14*
G04 #@! TO.P,J1,8*
G04 #@! TO.N,/Crx*
X163042662Y-99206304D03*
G04 #@! TO.P,J1,7*
G04 #@! TO.N,/Ctx*
X163042662Y-101746304D03*
G04 #@! TO.P,J1,6*
G04 #@! TO.N,/Cty*
X163042662Y-104286304D03*
G04 #@! TO.P,J1,5*
G04 #@! TO.N,/Cry*
X163042662Y-106826304D03*
G04 #@! TO.P,J1,4*
G04 #@! TO.N,/Thr*
X163042662Y-109366304D03*
G04 #@! TO.P,J1,3*
G04 #@! TO.N,/T_x*
X163042662Y-111906304D03*
G04 #@! TO.P,J1,2*
G04 #@! TO.N,/T_y*
X163042662Y-114446304D03*
D15*
G04 #@! TO.P,J1,1*
G04 #@! TO.N,/T_z*
X163042662Y-116986304D03*
G04 #@! TD*
G04 #@! TO.P,J2,1*
G04 #@! TO.N,/R_z*
X133197662Y-96666304D03*
D14*
G04 #@! TO.P,J2,2*
G04 #@! TO.N,/R_y*
X133197662Y-99206304D03*
G04 #@! TO.P,J2,3*
G04 #@! TO.N,/R_x*
X133197662Y-101746304D03*
G04 #@! TO.P,J2,4*
G04 #@! TO.N,/Au1*
X133197662Y-104286304D03*
G04 #@! TO.P,J2,5*
G04 #@! TO.N,/Au3*
X133197662Y-106826304D03*
G04 #@! TO.P,J2,6*
G04 #@! TO.N,/Au5*
X133197662Y-109366304D03*
G04 #@! TO.P,J2,7*
G04 #@! TO.N,/Au4*
X133197662Y-111906304D03*
G04 #@! TO.P,J2,8*
G04 #@! TO.N,/Au2*
X133197662Y-114446304D03*
G04 #@! TD*
D15*
G04 #@! TO.P,J3,1*
G04 #@! TO.N,+5V*
X168122662Y-116986304D03*
D14*
G04 #@! TO.P,J3,2*
X168122662Y-114446304D03*
G04 #@! TO.P,J3,3*
X168122662Y-111906304D03*
G04 #@! TO.P,J3,4*
X168122662Y-109366304D03*
G04 #@! TO.P,J3,5*
X168122662Y-106826304D03*
G04 #@! TO.P,J3,6*
X168122662Y-104286304D03*
G04 #@! TO.P,J3,7*
X168122662Y-101746304D03*
G04 #@! TO.P,J3,8*
X168122662Y-99206304D03*
G04 #@! TD*
D15*
G04 #@! TO.P,J4,1*
G04 #@! TO.N,+5V*
X128117662Y-96666304D03*
D14*
G04 #@! TO.P,J4,2*
X128117662Y-99206304D03*
G04 #@! TO.P,J4,3*
X128117662Y-101746304D03*
G04 #@! TO.P,J4,4*
X128117662Y-104286304D03*
G04 #@! TO.P,J4,5*
X128117662Y-106826304D03*
G04 #@! TO.P,J4,6*
X128117662Y-109366304D03*
G04 #@! TO.P,J4,7*
X128117662Y-111906304D03*
G04 #@! TO.P,J4,8*
X128117662Y-114446304D03*
G04 #@! TD*
G04 #@! TO.P,J5,8*
G04 #@! TO.N,GND*
X165582662Y-99206304D03*
G04 #@! TO.P,J5,7*
X165582662Y-101746304D03*
G04 #@! TO.P,J5,6*
X165582662Y-104286304D03*
G04 #@! TO.P,J5,5*
X165582662Y-106826304D03*
G04 #@! TO.P,J5,4*
X165582662Y-109366304D03*
G04 #@! TO.P,J5,3*
X165582662Y-111906304D03*
G04 #@! TO.P,J5,2*
X165582662Y-114446304D03*
D15*
G04 #@! TO.P,J5,1*
X165582662Y-116986304D03*
G04 #@! TD*
D14*
G04 #@! TO.P,J6,8*
G04 #@! TO.N,GND*
X130657662Y-114446304D03*
G04 #@! TO.P,J6,7*
X130657662Y-111906304D03*
G04 #@! TO.P,J6,6*
X130657662Y-109366304D03*
G04 #@! TO.P,J6,5*
X130657662Y-106826304D03*
G04 #@! TO.P,J6,4*
X130657662Y-104286304D03*
G04 #@! TO.P,J6,3*
X130657662Y-101746304D03*
G04 #@! TO.P,J6,2*
X130657662Y-99206304D03*
D15*
G04 #@! TO.P,J6,1*
X130657662Y-96666304D03*
G04 #@! TD*
D14*
G04 #@! TO.P,J7,4*
G04 #@! TO.N,/A4(SDA)*
X125603000Y-80645000D03*
G04 #@! TO.P,J7,3*
G04 #@! TO.N,/A5(SCL)*
X128143000Y-80645000D03*
G04 #@! TO.P,J7,2*
G04 #@! TO.N,GND*
X130683000Y-80645000D03*
D15*
G04 #@! TO.P,J7,1*
G04 #@! TO.N,+5V*
X133223000Y-80645000D03*
G04 #@! TD*
G04 #@! TO.P,J8,1*
G04 #@! TO.N,+5V*
X135128000Y-90170000D03*
D14*
G04 #@! TO.P,J8,2*
G04 #@! TO.N,GND*
X132588000Y-90170000D03*
G04 #@! TO.P,J8,3*
G04 #@! TO.N,/A5(SCL)*
X130048000Y-90170000D03*
G04 #@! TO.P,J8,4*
G04 #@! TO.N,/A4(SDA)*
X127508000Y-90170000D03*
G04 #@! TO.P,J8,5*
G04 #@! TO.N,/9(\002A\002A)*
X124968000Y-90170000D03*
G04 #@! TO.P,J8,6*
G04 #@! TO.N,/Ltest*
X122428000Y-90170000D03*
G04 #@! TD*
D15*
G04 #@! TO.P,J9,1*
G04 #@! TO.N,+5V*
X155448000Y-92075000D03*
D14*
G04 #@! TO.P,J9,2*
G04 #@! TO.N,GND*
X157988000Y-92075000D03*
G04 #@! TO.P,J9,3*
G04 #@! TO.N,/Ltest*
X160528000Y-92075000D03*
G04 #@! TO.P,J9,4*
G04 #@! TO.N,/7*
X163068000Y-92075000D03*
G04 #@! TO.P,J9,5*
G04 #@! TO.N,/4*
X165608000Y-92075000D03*
G04 #@! TD*
D15*
G04 #@! TO.P,J11,1*
G04 #@! TO.N,+5V*
X175768000Y-106680000D03*
D14*
G04 #@! TO.P,J11,2*
G04 #@! TO.N,GND*
X175768000Y-109220000D03*
G04 #@! TO.P,J11,3*
G04 #@! TO.N,/A2*
X175768000Y-111760000D03*
G04 #@! TO.P,J11,4*
G04 #@! TO.N,/A3*
X175768000Y-114300000D03*
G04 #@! TD*
G04 #@! TO.P,J12,2*
G04 #@! TO.N,/Reset*
X135128000Y-123825000D03*
D15*
G04 #@! TO.P,J12,1*
G04 #@! TO.N,+5V*
X132588000Y-123825000D03*
G04 #@! TD*
G04 #@! TO.P,J14,1*
G04 #@! TO.N,+5V*
X151003000Y-89535000D03*
D14*
G04 #@! TO.P,J14,2*
G04 #@! TO.N,Net-(J14-Pad2)*
X151003000Y-86995000D03*
G04 #@! TD*
D16*
G04 #@! TO.P,Q2,1*
G04 #@! TO.N,Net-(J14-Pad2)*
X148463000Y-82950000D03*
D17*
G04 #@! TD*
G04 #@! TO.N,+5V*
G04 #@! TO.C,Q2*
G36*
X151304955Y-82051324D02*
X151331650Y-82055284D01*
X151357828Y-82061841D01*
X151383238Y-82070933D01*
X151407634Y-82082472D01*
X151430782Y-82096346D01*
X151452458Y-82112422D01*
X151472454Y-82130546D01*
X151490578Y-82150542D01*
X151506654Y-82172218D01*
X151520528Y-82195366D01*
X151532067Y-82219762D01*
X151541159Y-82245172D01*
X151547716Y-82271350D01*
X151551676Y-82298045D01*
X151553000Y-82325000D01*
X151553000Y-83575000D01*
X151551676Y-83601955D01*
X151547716Y-83628650D01*
X151541159Y-83654828D01*
X151532067Y-83680238D01*
X151520528Y-83704634D01*
X151506654Y-83727782D01*
X151490578Y-83749458D01*
X151472454Y-83769454D01*
X151452458Y-83787578D01*
X151430782Y-83803654D01*
X151407634Y-83817528D01*
X151383238Y-83829067D01*
X151357828Y-83838159D01*
X151331650Y-83844716D01*
X151304955Y-83848676D01*
X151278000Y-83850000D01*
X150728000Y-83850000D01*
X150701045Y-83848676D01*
X150674350Y-83844716D01*
X150648172Y-83838159D01*
X150622762Y-83829067D01*
X150598366Y-83817528D01*
X150575218Y-83803654D01*
X150553542Y-83787578D01*
X150533546Y-83769454D01*
X150515422Y-83749458D01*
X150499346Y-83727782D01*
X150485472Y-83704634D01*
X150473933Y-83680238D01*
X150464841Y-83654828D01*
X150458284Y-83628650D01*
X150454324Y-83601955D01*
X150453000Y-83575000D01*
X150453000Y-82325000D01*
X150454324Y-82298045D01*
X150458284Y-82271350D01*
X150464841Y-82245172D01*
X150473933Y-82219762D01*
X150485472Y-82195366D01*
X150499346Y-82172218D01*
X150515422Y-82150542D01*
X150533546Y-82130546D01*
X150553542Y-82112422D01*
X150575218Y-82096346D01*
X150598366Y-82082472D01*
X150622762Y-82070933D01*
X150648172Y-82061841D01*
X150674350Y-82055284D01*
X150701045Y-82051324D01*
X150728000Y-82050000D01*
X151278000Y-82050000D01*
X151304955Y-82051324D01*
X151304955Y-82051324D01*
G37*
D18*
G04 #@! TO.P,Q2,3*
G04 #@! TO.N,+5V*
X151003000Y-82950000D03*
D17*
G04 #@! TD*
G04 #@! TO.N,/10(\002A\002A/SS)*
G04 #@! TO.C,Q2*
G36*
X150034955Y-79981324D02*
X150061650Y-79985284D01*
X150087828Y-79991841D01*
X150113238Y-80000933D01*
X150137634Y-80012472D01*
X150160782Y-80026346D01*
X150182458Y-80042422D01*
X150202454Y-80060546D01*
X150220578Y-80080542D01*
X150236654Y-80102218D01*
X150250528Y-80125366D01*
X150262067Y-80149762D01*
X150271159Y-80175172D01*
X150277716Y-80201350D01*
X150281676Y-80228045D01*
X150283000Y-80255000D01*
X150283000Y-81505000D01*
X150281676Y-81531955D01*
X150277716Y-81558650D01*
X150271159Y-81584828D01*
X150262067Y-81610238D01*
X150250528Y-81634634D01*
X150236654Y-81657782D01*
X150220578Y-81679458D01*
X150202454Y-81699454D01*
X150182458Y-81717578D01*
X150160782Y-81733654D01*
X150137634Y-81747528D01*
X150113238Y-81759067D01*
X150087828Y-81768159D01*
X150061650Y-81774716D01*
X150034955Y-81778676D01*
X150008000Y-81780000D01*
X149458000Y-81780000D01*
X149431045Y-81778676D01*
X149404350Y-81774716D01*
X149378172Y-81768159D01*
X149352762Y-81759067D01*
X149328366Y-81747528D01*
X149305218Y-81733654D01*
X149283542Y-81717578D01*
X149263546Y-81699454D01*
X149245422Y-81679458D01*
X149229346Y-81657782D01*
X149215472Y-81634634D01*
X149203933Y-81610238D01*
X149194841Y-81584828D01*
X149188284Y-81558650D01*
X149184324Y-81531955D01*
X149183000Y-81505000D01*
X149183000Y-80255000D01*
X149184324Y-80228045D01*
X149188284Y-80201350D01*
X149194841Y-80175172D01*
X149203933Y-80149762D01*
X149215472Y-80125366D01*
X149229346Y-80102218D01*
X149245422Y-80080542D01*
X149263546Y-80060546D01*
X149283542Y-80042422D01*
X149305218Y-80026346D01*
X149328366Y-80012472D01*
X149352762Y-80000933D01*
X149378172Y-79991841D01*
X149404350Y-79985284D01*
X149431045Y-79981324D01*
X149458000Y-79980000D01*
X150008000Y-79980000D01*
X150034955Y-79981324D01*
X150034955Y-79981324D01*
G37*
D18*
G04 #@! TO.P,Q2,2*
G04 #@! TO.N,/10(\002A\002A/SS)*
X149733000Y-80880000D03*
G04 #@! TD*
D19*
G04 #@! TO.P,R1,1*
G04 #@! TO.N,+5V*
X133858000Y-84455000D03*
D12*
G04 #@! TO.P,R1,2*
G04 #@! TO.N,/Ltest*
X126238000Y-84455000D03*
G04 #@! TD*
D13*
G04 #@! TO.P,U1,1*
G04 #@! TO.N,/Crx*
X157988000Y-98425000D03*
D12*
G04 #@! TO.P,U1,9*
G04 #@! TO.N,/13(SCK)*
X140208000Y-106045000D03*
G04 #@! TO.P,U1,2*
G04 #@! TO.N,/Ctx*
X155448000Y-98425000D03*
G04 #@! TO.P,U1,10*
G04 #@! TO.N,/12(MISO)*
X142748000Y-106045000D03*
G04 #@! TO.P,U1,3*
G04 #@! TO.N,/A0*
X152908000Y-98425000D03*
G04 #@! TO.P,U1,11*
G04 #@! TO.N,/8*
X145288000Y-106045000D03*
G04 #@! TO.P,U1,4*
G04 #@! TO.N,/Cty*
X150368000Y-98425000D03*
G04 #@! TO.P,U1,12*
G04 #@! TO.N,/Thr*
X147828000Y-106045000D03*
G04 #@! TO.P,U1,5*
G04 #@! TO.N,/Cry*
X147828000Y-98425000D03*
G04 #@! TO.P,U1,13*
G04 #@! TO.N,/T_x*
X150368000Y-106045000D03*
G04 #@! TO.P,U1,6*
G04 #@! TO.N,GND*
X145288000Y-98425000D03*
G04 #@! TO.P,U1,14*
G04 #@! TO.N,/T_y*
X152908000Y-106045000D03*
G04 #@! TO.P,U1,7*
G04 #@! TO.N,GND*
X142748000Y-98425000D03*
G04 #@! TO.P,U1,15*
G04 #@! TO.N,/T_z*
X155448000Y-106045000D03*
G04 #@! TO.P,U1,8*
G04 #@! TO.N,GND*
X140208000Y-98425000D03*
G04 #@! TO.P,U1,16*
G04 #@! TO.N,+5V*
X157988000Y-106045000D03*
G04 #@! TD*
G04 #@! TO.P,U2,16*
G04 #@! TO.N,+5V*
X140182662Y-109874304D03*
G04 #@! TO.P,U2,8*
G04 #@! TO.N,GND*
X157962662Y-117494304D03*
G04 #@! TO.P,U2,15*
G04 #@! TO.N,/R_z*
X142722662Y-109874304D03*
G04 #@! TO.P,U2,7*
G04 #@! TO.N,GND*
X155422662Y-117494304D03*
G04 #@! TO.P,U2,14*
G04 #@! TO.N,/R_y*
X145262662Y-109874304D03*
G04 #@! TO.P,U2,6*
G04 #@! TO.N,GND*
X152882662Y-117494304D03*
G04 #@! TO.P,U2,13*
G04 #@! TO.N,/R_x*
X147802662Y-109874304D03*
G04 #@! TO.P,U2,5*
G04 #@! TO.N,/Au3*
X150342662Y-117494304D03*
G04 #@! TO.P,U2,12*
G04 #@! TO.N,/Au1*
X150342662Y-109874304D03*
G04 #@! TO.P,U2,4*
G04 #@! TO.N,/Au5*
X147802662Y-117494304D03*
G04 #@! TO.P,U2,11*
G04 #@! TO.N,/8*
X152882662Y-109874304D03*
G04 #@! TO.P,U2,3*
G04 #@! TO.N,/A1*
X145262662Y-117494304D03*
G04 #@! TO.P,U2,10*
G04 #@! TO.N,/12(MISO)*
X155422662Y-109874304D03*
G04 #@! TO.P,U2,2*
G04 #@! TO.N,/Au4*
X142722662Y-117494304D03*
G04 #@! TO.P,U2,9*
G04 #@! TO.N,/13(SCK)*
X157962662Y-109874304D03*
D13*
G04 #@! TO.P,U2,1*
G04 #@! TO.N,/Au2*
X140182662Y-117494304D03*
G04 #@! TD*
D15*
G04 #@! TO.P,J10,1*
G04 #@! TO.N,Net-(D1-Pad1)*
X157353000Y-81280000D03*
D14*
G04 #@! TO.P,J10,2*
G04 #@! TO.N,GND*
X154813000Y-81280000D03*
G04 #@! TO.P,J10,3*
G04 #@! TO.N,Net-(D2-Pad1)*
X157353000Y-83820000D03*
G04 #@! TO.P,J10,4*
G04 #@! TO.N,GND*
X154813000Y-83820000D03*
G04 #@! TO.P,J10,5*
G04 #@! TO.N,Net-(D3-Pad1)*
X157353000Y-86360000D03*
G04 #@! TO.P,J10,6*
G04 #@! TO.N,GND*
X154813000Y-86360000D03*
G04 #@! TD*
D13*
G04 #@! TO.P,D4,1*
G04 #@! TO.N,Net-(D1-Pad1)*
X160528000Y-81407000D03*
D12*
G04 #@! TO.P,D4,2*
G04 #@! TO.N,/3(\002A\002A)*
X168148000Y-81407000D03*
G04 #@! TD*
G04 #@! TO.P,D5,2*
G04 #@! TO.N,/5(\002A\002A)*
X168148000Y-83947000D03*
D13*
G04 #@! TO.P,D5,1*
G04 #@! TO.N,Net-(D2-Pad1)*
X160528000Y-83947000D03*
G04 #@! TD*
G04 #@! TO.P,D6,1*
G04 #@! TO.N,Net-(D3-Pad1)*
X160528000Y-86487000D03*
D12*
G04 #@! TO.P,D6,2*
G04 #@! TO.N,/6(\002A\002A)*
X168148000Y-86487000D03*
G04 #@! TD*
D15*
G04 #@! TO.P,J13,1*
G04 #@! TO.N,+5V*
X140208000Y-81153000D03*
D14*
G04 #@! TO.P,J13,2*
G04 #@! TO.N,GND*
X140208000Y-83693000D03*
G04 #@! TO.P,J13,3*
G04 #@! TO.N,/A5(SCL)*
X140208000Y-86233000D03*
G04 #@! TO.P,J13,4*
G04 #@! TO.N,/A4(SDA)*
X140208000Y-88773000D03*
G04 #@! TO.P,J13,5*
G04 #@! TO.N,/11(\002A\002A/MOSI)*
X140208000Y-91313000D03*
G04 #@! TD*
D20*
G04 #@! TO.N,+5V*
X144018000Y-89535000D03*
G04 #@! TO.N,GND*
X157988000Y-78359000D03*
X153670000Y-77851000D03*
X136652000Y-83693000D03*
G04 #@! TO.N,/A4(SDA)*
X164338000Y-120777000D03*
G04 #@! TO.N,/A5(SCL)*
X164338000Y-119507000D03*
X152654000Y-119507000D03*
G04 #@! TO.N,/A4(SDA)*
X151892000Y-120269000D03*
G04 #@! TO.N,/9(\002A\002A)*
X135890000Y-80137000D03*
G04 #@! TO.N,/11(\002A\002A/MOSI)*
X145034000Y-78359000D03*
G04 #@! TD*
D21*
G04 #@! TO.N,/Reset*
X135977999Y-122975001D02*
X135128000Y-123825000D01*
X136469010Y-122483990D02*
X135977999Y-122975001D01*
X143942990Y-122483990D02*
X136469010Y-122483990D01*
X144018000Y-122559000D02*
X143942990Y-122483990D01*
X144018000Y-123825000D02*
X144018000Y-122559000D01*
D22*
G04 #@! TO.N,+5V*
X151003000Y-90985000D02*
X151003000Y-89535000D01*
X152093000Y-92075000D02*
X151003000Y-90985000D01*
X155448000Y-92075000D02*
X152093000Y-92075000D01*
X133731000Y-81153000D02*
X133223000Y-80645000D01*
X140208000Y-81153000D02*
X133731000Y-81153000D01*
X133223000Y-83820000D02*
X133858000Y-84455000D01*
X133223000Y-80645000D02*
X133223000Y-83820000D01*
X133858000Y-84455000D02*
X133858000Y-85979000D01*
X135128000Y-87249000D02*
X135128000Y-90170000D01*
X133858000Y-85979000D02*
X135128000Y-87249000D01*
X151003000Y-89535000D02*
X144018000Y-89535000D01*
G04 #@! TO.N,GND*
X154813000Y-86360000D02*
X154813000Y-83820000D01*
X154813000Y-83820000D02*
X154813000Y-81280000D01*
X140208000Y-83693000D02*
X136652000Y-83693000D01*
D21*
G04 #@! TO.N,/A1*
X164338000Y-123672600D02*
X164338000Y-123825000D01*
X161696400Y-121031000D02*
X164338000Y-123672600D01*
X148799358Y-121031000D02*
X161696400Y-121031000D01*
X145262662Y-117494304D02*
X148799358Y-121031000D01*
G04 #@! TO.N,/A2*
X174918001Y-113410997D02*
X173482000Y-114846998D01*
X175768000Y-111760000D02*
X174918001Y-112609999D01*
X174918001Y-112609999D02*
X174918001Y-113410997D01*
X173482000Y-114846998D02*
X173482000Y-118745000D01*
X173482000Y-118745000D02*
X170180000Y-122047000D01*
X166878000Y-122559000D02*
X166878000Y-123825000D01*
X167390000Y-122047000D02*
X166878000Y-122559000D01*
X170180000Y-122047000D02*
X167390000Y-122047000D01*
G04 #@! TO.N,/A3*
X169418000Y-123825000D02*
X169418000Y-123672600D01*
X169418000Y-123672600D02*
X173990000Y-119100600D01*
X173990000Y-116078000D02*
X175768000Y-114300000D01*
X173990000Y-119100600D02*
X173990000Y-116078000D01*
G04 #@! TO.N,/A4(SDA)*
X132334000Y-76454000D02*
X132334000Y-75565000D01*
X164338000Y-120777000D02*
X162078810Y-120777000D01*
X162078810Y-120777000D02*
X161766820Y-120465010D01*
G04 #@! TO.N,/A5(SCL)*
X130048000Y-90170000D02*
X130048000Y-82550000D01*
X130048000Y-82550000D02*
X128143000Y-80645000D01*
X129794000Y-76454000D02*
X129794000Y-75565000D01*
X129794000Y-78994000D02*
X128461205Y-80326795D01*
X129794000Y-75565000D02*
X129794000Y-78994000D01*
X164338000Y-119507000D02*
X163068000Y-119507000D01*
X163068000Y-119507000D02*
X162560000Y-120015000D01*
X162560000Y-120015000D02*
X153162000Y-120015000D01*
X153162000Y-120015000D02*
X152654000Y-119507000D01*
G04 #@! TO.N,/A4(SDA)*
X127508000Y-82550000D02*
X125603000Y-80645000D01*
X127508000Y-90170000D02*
X127508000Y-82550000D01*
X152654000Y-120465010D02*
X151834010Y-120465010D01*
X130175000Y-92837000D02*
X127508000Y-90170000D01*
X140208000Y-88773000D02*
X136144000Y-92837000D01*
X136144000Y-92837000D02*
X130175000Y-92837000D01*
X152457990Y-120269000D02*
X152654000Y-120465010D01*
X151892000Y-120269000D02*
X152457990Y-120269000D01*
X161766820Y-120465010D02*
X152654000Y-120465010D01*
G04 #@! TO.N,/A5(SCL)*
X139005919Y-86233000D02*
X138684000Y-86554919D01*
X140208000Y-86233000D02*
X139005919Y-86233000D01*
X138684000Y-86554919D02*
X138684000Y-89535000D01*
X138684000Y-89535000D02*
X135890000Y-92329000D01*
X132207000Y-92329000D02*
X130048000Y-90170000D01*
X135890000Y-92329000D02*
X132207000Y-92329000D01*
G04 #@! TO.N,/9(\002A\002A)*
X150114000Y-75717400D02*
X150114000Y-75565000D01*
X148216401Y-77614999D02*
X150114000Y-75717400D01*
X138533591Y-77614999D02*
X148216401Y-77614999D01*
X136311589Y-79837001D02*
X138533591Y-77614999D01*
X136189999Y-79837001D02*
X136311589Y-79837001D01*
X135890000Y-80137000D02*
X136189999Y-79837001D01*
G04 #@! TO.N,/8*
X146087999Y-106844999D02*
X145288000Y-106045000D01*
X146413001Y-107170001D02*
X146087999Y-106844999D01*
X150178359Y-107170001D02*
X146413001Y-107170001D01*
X152882662Y-109874304D02*
X150178359Y-107170001D01*
G04 #@! TO.N,/7*
X156718000Y-75717400D02*
X156718000Y-75565000D01*
X153637999Y-78797401D02*
X156718000Y-75717400D01*
X153637999Y-86924001D02*
X153637999Y-78797401D01*
X154248999Y-87535001D02*
X153637999Y-86924001D01*
X158528001Y-87535001D02*
X154248999Y-87535001D01*
X163068000Y-92075000D02*
X158528001Y-87535001D01*
G04 #@! TO.N,/6(\002A\002A)*
X159258000Y-75565000D02*
X159258000Y-76831000D01*
X159258000Y-76831000D02*
X160532000Y-78105000D01*
X160532000Y-78105000D02*
X161544000Y-78105000D01*
X161544000Y-78105000D02*
X166370000Y-82931000D01*
X166370000Y-84709000D02*
X168148000Y-86487000D01*
X166370000Y-82931000D02*
X166370000Y-84709000D01*
G04 #@! TO.N,/5(\002A\002A)*
X161798000Y-75565000D02*
X161798000Y-75717400D01*
X161798000Y-77597000D02*
X168148000Y-83947000D01*
X161798000Y-75565000D02*
X161798000Y-77597000D01*
G04 #@! TO.N,/3(\002A\002A)*
X166878000Y-75565000D02*
X166878000Y-75717400D01*
X166878000Y-80137000D02*
X168148000Y-81407000D01*
X166878000Y-75565000D02*
X166878000Y-80137000D01*
G04 #@! TO.N,/12(MISO)*
X143547999Y-106844999D02*
X142748000Y-106045000D01*
X144323011Y-107620011D02*
X143547999Y-106844999D01*
X149753371Y-107620011D02*
X144323011Y-107620011D01*
X151467663Y-109334303D02*
X149753371Y-107620011D01*
X151467663Y-110414305D02*
X151467663Y-109334303D01*
X152052663Y-110999305D02*
X151467663Y-110414305D01*
X154297661Y-110999305D02*
X152052663Y-110999305D01*
X155422662Y-109874304D02*
X154297661Y-110999305D01*
G04 #@! TO.N,/11(\002A\002A/MOSI)*
X145034000Y-86487000D02*
X140208000Y-91313000D01*
X145034000Y-78359000D02*
X145034000Y-86487000D01*
G04 #@! TO.N,/Cty*
X150368000Y-98425000D02*
X150368000Y-99556370D01*
X162192663Y-103436305D02*
X163042662Y-104286304D01*
X161303348Y-102546990D02*
X162192663Y-103436305D01*
X153358620Y-102546990D02*
X161303348Y-102546990D01*
X150368000Y-99556370D02*
X153358620Y-102546990D01*
G04 #@! TO.N,/Ctx*
X161840581Y-101746304D02*
X161605885Y-101981000D01*
X163042662Y-101746304D02*
X161840581Y-101746304D01*
X159004000Y-101981000D02*
X155448000Y-98425000D01*
X161605885Y-101981000D02*
X159004000Y-101981000D01*
G04 #@! TO.N,/Cry*
X162129947Y-105976305D02*
X159150642Y-102997000D01*
X163042662Y-106826304D02*
X162192663Y-105976305D01*
X162192663Y-105976305D02*
X162129947Y-105976305D01*
X152400000Y-102997000D02*
X147828000Y-98425000D01*
X159150642Y-102997000D02*
X152400000Y-102997000D01*
G04 #@! TO.N,/Crx*
X158769304Y-99206304D02*
X157988000Y-98425000D01*
X163042662Y-99206304D02*
X158769304Y-99206304D01*
G04 #@! TO.N,/Thr*
X148627999Y-105245001D02*
X147828000Y-106045000D01*
X150303031Y-103569969D02*
X148627999Y-105245001D01*
X159087201Y-103569969D02*
X150303031Y-103569969D01*
X160862027Y-105344795D02*
X159087201Y-103569969D01*
X160862028Y-108387751D02*
X160862027Y-105344795D01*
X161840581Y-109366304D02*
X160862028Y-108387751D01*
X163042662Y-109366304D02*
X161840581Y-109366304D01*
G04 #@! TO.N,/T_z*
X158528001Y-104919999D02*
X159512000Y-105903998D01*
X155448000Y-106045000D02*
X156573001Y-104919999D01*
X156573001Y-104919999D02*
X158528001Y-104919999D01*
X161942662Y-116986304D02*
X163042662Y-116986304D01*
X159512000Y-114555642D02*
X161942662Y-116986304D01*
X159512000Y-105903998D02*
X159512000Y-114555642D01*
G04 #@! TO.N,/T_y*
X163042662Y-114446304D02*
X161309304Y-114446304D01*
X153707999Y-105245001D02*
X152908000Y-106045000D01*
X154483011Y-104469989D02*
X153707999Y-105245001D01*
X158714401Y-104469989D02*
X154483011Y-104469989D01*
X159962009Y-105717597D02*
X158714401Y-104469989D01*
X159962010Y-113099010D02*
X159962009Y-105717597D01*
X161309304Y-114446304D02*
X159962010Y-113099010D01*
G04 #@! TO.N,/T_x*
X163042662Y-111906304D02*
X160801304Y-111906304D01*
X151167999Y-105245001D02*
X150368000Y-106045000D01*
X152393021Y-104019979D02*
X151167999Y-105245001D01*
X158900801Y-104019979D02*
X152393021Y-104019979D01*
X160412018Y-105531196D02*
X158900801Y-104019979D01*
X160412018Y-111517018D02*
X160412018Y-105531196D01*
X160801304Y-111906304D02*
X160412018Y-111517018D01*
G04 #@! TO.N,/R_x*
X147802662Y-109874304D02*
X147802662Y-111783928D01*
X147802662Y-111783928D02*
X147677072Y-111783928D01*
X147677072Y-111783928D02*
X145288000Y-114173000D01*
X145288000Y-114173000D02*
X140082410Y-114173000D01*
X140082410Y-114173000D02*
X135446205Y-109536795D01*
X135446205Y-103994847D02*
X133197662Y-101746304D01*
X135446205Y-109536795D02*
X135446205Y-103994847D01*
G04 #@! TO.N,/R_y*
X145262662Y-109874304D02*
X145262662Y-113436338D01*
X145262662Y-113436338D02*
X144976010Y-113722990D01*
X140462000Y-113665000D02*
X135896215Y-109099215D01*
X144976010Y-113722990D02*
X144918020Y-113665000D01*
X144918020Y-113665000D02*
X140462000Y-113665000D01*
X135896215Y-101904857D02*
X133197662Y-99206304D01*
X135896215Y-109099215D02*
X135896215Y-101904857D01*
G04 #@! TO.N,/R_z*
X136398000Y-98766642D02*
X136398000Y-108964590D01*
X133197662Y-96666304D02*
X134297662Y-96666304D01*
X134297662Y-96666304D02*
X136398000Y-98766642D01*
X136398000Y-108964590D02*
X140590410Y-113157000D01*
X140590410Y-113157000D02*
X142240000Y-113157000D01*
X142722662Y-112674338D02*
X142722662Y-109874304D01*
X142240000Y-113157000D02*
X142722662Y-112674338D01*
G04 #@! TO.N,/Au1*
X134047661Y-105136303D02*
X133197662Y-104286304D01*
X134874000Y-109601000D02*
X134874000Y-105962642D01*
X134874000Y-105962642D02*
X134702358Y-105791000D01*
X134702358Y-105791000D02*
X134047661Y-105136303D01*
X134822673Y-105911315D02*
X134702358Y-105791000D01*
X150342662Y-109874304D02*
X149542663Y-110674303D01*
X149542663Y-110674303D02*
X149542663Y-110680337D01*
X149542663Y-110680337D02*
X145542000Y-114681000D01*
X139954000Y-114681000D02*
X134874000Y-109601000D01*
X145542000Y-114681000D02*
X139954000Y-114681000D01*
G04 #@! TO.N,/Au2*
X136245662Y-117494304D02*
X133197662Y-114446304D01*
X140182662Y-117494304D02*
X136245662Y-117494304D01*
G04 #@! TO.N,/Au3*
X134047661Y-107676303D02*
X133197662Y-106826304D01*
X134372663Y-108001305D02*
X134047661Y-107676303D01*
X134372663Y-109861663D02*
X134372663Y-108001305D01*
X139700000Y-115189000D02*
X134372663Y-109861663D01*
X148037358Y-115189000D02*
X139700000Y-115189000D01*
X150342662Y-117494304D02*
X148037358Y-115189000D01*
G04 #@! TO.N,/Au4*
X133197662Y-111906304D02*
X137496358Y-116205000D01*
X141433358Y-116205000D02*
X142722662Y-117494304D01*
X137496358Y-116205000D02*
X141433358Y-116205000D01*
G04 #@! TO.N,/Au5*
X147802662Y-117494304D02*
X146005358Y-115697000D01*
X139528358Y-115697000D02*
X133197662Y-109366304D01*
X146005358Y-115697000D02*
X139528358Y-115697000D01*
G04 #@! TO.N,/Ltest*
X122428000Y-88265000D02*
X126238000Y-84455000D01*
X122428000Y-90170000D02*
X122428000Y-88265000D01*
X126093001Y-93835001D02*
X122428000Y-90170000D01*
X160528000Y-92075000D02*
X158767999Y-93835001D01*
X158767999Y-93835001D02*
X126093001Y-93835001D01*
D22*
G04 #@! TO.N,Net-(J14-Pad2)*
X148463000Y-84455000D02*
X151003000Y-86995000D01*
X148463000Y-82550000D02*
X148463000Y-84455000D01*
D21*
G04 #@! TO.N,Net-(D1-Pad1)*
X160401000Y-81280000D02*
X160528000Y-81407000D01*
X157353000Y-81280000D02*
X160401000Y-81280000D01*
G04 #@! TO.N,Net-(D2-Pad1)*
X160401000Y-83820000D02*
X160528000Y-83947000D01*
X157353000Y-83820000D02*
X160401000Y-83820000D01*
G04 #@! TO.N,Net-(D3-Pad1)*
X160401000Y-86360000D02*
X160528000Y-86487000D01*
X157353000Y-86360000D02*
X160401000Y-86360000D01*
X163610000Y-86487000D02*
X160528000Y-86487000D01*
X172466000Y-95343000D02*
X163610000Y-86487000D01*
X172466000Y-96393000D02*
X172466000Y-95343000D01*
G04 #@! TD*
D23*
G04 #@! TO.N,GND*
G36*
X123571000Y-75034501D02*
X123571000Y-76095499D01*
X123977026Y-77075734D01*
X124727266Y-77825974D01*
X125707501Y-78232000D01*
X126768499Y-78232000D01*
X127748734Y-77825974D01*
X128498974Y-77075734D01*
X128652156Y-76705918D01*
X128713570Y-76797830D01*
X129034000Y-77011935D01*
X129034001Y-78679197D01*
X128509408Y-79203791D01*
X128289256Y-79160000D01*
X127996744Y-79160000D01*
X127563582Y-79246161D01*
X127072375Y-79574375D01*
X126873000Y-79872761D01*
X126673625Y-79574375D01*
X126182418Y-79246161D01*
X125749256Y-79160000D01*
X125456744Y-79160000D01*
X125023582Y-79246161D01*
X124532375Y-79574375D01*
X124204161Y-80065582D01*
X124088908Y-80645000D01*
X124204161Y-81224418D01*
X124532375Y-81715625D01*
X125023582Y-82043839D01*
X125456744Y-82130000D01*
X125749256Y-82130000D01*
X125969408Y-82086209D01*
X126748001Y-82864803D01*
X126748001Y-83093333D01*
X126379333Y-83020000D01*
X126096667Y-83020000D01*
X125678091Y-83103260D01*
X125203423Y-83420423D01*
X124886260Y-83895091D01*
X124774887Y-84455000D01*
X124839312Y-84778886D01*
X121943528Y-87674671D01*
X121880072Y-87717071D01*
X121837672Y-87780527D01*
X121837671Y-87780528D01*
X121712097Y-87968463D01*
X121653112Y-88265000D01*
X121668001Y-88339852D01*
X121668001Y-88891822D01*
X121357375Y-89099375D01*
X121029161Y-89590582D01*
X120913908Y-90170000D01*
X121029161Y-90749418D01*
X121357375Y-91240625D01*
X121848582Y-91568839D01*
X122281744Y-91655000D01*
X122574256Y-91655000D01*
X122794408Y-91611209D01*
X125502672Y-94319474D01*
X125545072Y-94382930D01*
X125796464Y-94550905D01*
X126018149Y-94595001D01*
X126018153Y-94595001D01*
X126093000Y-94609889D01*
X126167847Y-94595001D01*
X158693152Y-94595001D01*
X158767999Y-94609889D01*
X158842846Y-94595001D01*
X158842851Y-94595001D01*
X159064536Y-94550905D01*
X159315928Y-94382930D01*
X159358330Y-94319471D01*
X160161592Y-93516209D01*
X160381744Y-93560000D01*
X160674256Y-93560000D01*
X161107418Y-93473839D01*
X161598625Y-93145625D01*
X161798000Y-92847239D01*
X161997375Y-93145625D01*
X162488582Y-93473839D01*
X162921744Y-93560000D01*
X163214256Y-93560000D01*
X163647418Y-93473839D01*
X164138625Y-93145625D01*
X164338000Y-92847239D01*
X164537375Y-93145625D01*
X165028582Y-93473839D01*
X165461744Y-93560000D01*
X165754256Y-93560000D01*
X166187418Y-93473839D01*
X166678625Y-93145625D01*
X167006839Y-92654418D01*
X167122092Y-92075000D01*
X167006839Y-91495582D01*
X166678625Y-91004375D01*
X166187418Y-90676161D01*
X165754256Y-90590000D01*
X165461744Y-90590000D01*
X165028582Y-90676161D01*
X164537375Y-91004375D01*
X164338000Y-91302761D01*
X164138625Y-91004375D01*
X163647418Y-90676161D01*
X163214256Y-90590000D01*
X162921744Y-90590000D01*
X162701593Y-90633791D01*
X160002241Y-87934440D01*
X161328000Y-87934440D01*
X161575765Y-87885157D01*
X161785809Y-87744809D01*
X161926157Y-87534765D01*
X161975440Y-87287000D01*
X161975440Y-87247000D01*
X163295199Y-87247000D01*
X171198256Y-95150059D01*
X171067843Y-95345235D01*
X171018560Y-95593000D01*
X171018560Y-97193000D01*
X171067843Y-97440765D01*
X171208191Y-97650809D01*
X171418235Y-97791157D01*
X171666000Y-97840440D01*
X173266000Y-97840440D01*
X173513765Y-97791157D01*
X173723809Y-97650809D01*
X173864157Y-97440765D01*
X173913440Y-97193000D01*
X173913440Y-95593000D01*
X173864157Y-95345235D01*
X173723809Y-95135191D01*
X173513765Y-94994843D01*
X173266000Y-94945560D01*
X173114483Y-94945560D01*
X173056329Y-94858526D01*
X173056327Y-94858524D01*
X173013929Y-94795071D01*
X172950476Y-94752673D01*
X164200331Y-86002530D01*
X164157929Y-85939071D01*
X163906537Y-85771096D01*
X163684852Y-85727000D01*
X163684847Y-85727000D01*
X163610000Y-85712112D01*
X163535153Y-85727000D01*
X161975440Y-85727000D01*
X161975440Y-85687000D01*
X161926157Y-85439235D01*
X161785809Y-85229191D01*
X161767564Y-85217000D01*
X161785809Y-85204809D01*
X161926157Y-84994765D01*
X161975440Y-84747000D01*
X161975440Y-83147000D01*
X161926157Y-82899235D01*
X161785809Y-82689191D01*
X161767564Y-82677000D01*
X161785809Y-82664809D01*
X161926157Y-82454765D01*
X161975440Y-82207000D01*
X161975440Y-80607000D01*
X161926157Y-80359235D01*
X161785809Y-80149191D01*
X161575765Y-80008843D01*
X161328000Y-79959560D01*
X159728000Y-79959560D01*
X159480235Y-80008843D01*
X159270191Y-80149191D01*
X159129843Y-80359235D01*
X159097865Y-80520000D01*
X158850440Y-80520000D01*
X158850440Y-80430000D01*
X158801157Y-80182235D01*
X158660809Y-79972191D01*
X158450765Y-79831843D01*
X158203000Y-79782560D01*
X156503000Y-79782560D01*
X156255235Y-79831843D01*
X156045191Y-79972191D01*
X155904843Y-80182235D01*
X155883039Y-80291855D01*
X155694358Y-80084817D01*
X155169892Y-79838514D01*
X154940000Y-79959181D01*
X154940000Y-81153000D01*
X154960000Y-81153000D01*
X154960000Y-81407000D01*
X154940000Y-81407000D01*
X154940000Y-83693000D01*
X154960000Y-83693000D01*
X154960000Y-83947000D01*
X154940000Y-83947000D01*
X154940000Y-86233000D01*
X154960000Y-86233000D01*
X154960000Y-86487000D01*
X154940000Y-86487000D01*
X154940000Y-86507000D01*
X154686000Y-86507000D01*
X154686000Y-86487000D01*
X154666000Y-86487000D01*
X154666000Y-86233000D01*
X154686000Y-86233000D01*
X154686000Y-83947000D01*
X154666000Y-83947000D01*
X154666000Y-83693000D01*
X154686000Y-83693000D01*
X154686000Y-81407000D01*
X154666000Y-81407000D01*
X154666000Y-81153000D01*
X154686000Y-81153000D01*
X154686000Y-79959181D01*
X154456108Y-79838514D01*
X154397999Y-79865804D01*
X154397999Y-79112202D01*
X156340026Y-77170175D01*
X156718000Y-77245359D01*
X157302725Y-77129050D01*
X157798430Y-76797830D01*
X157988000Y-76514119D01*
X158177570Y-76797830D01*
X158522337Y-77028196D01*
X158542097Y-77127537D01*
X158657643Y-77300463D01*
X158710072Y-77378929D01*
X158773528Y-77421329D01*
X159941670Y-78589472D01*
X159984071Y-78652929D01*
X160235463Y-78820904D01*
X160457148Y-78865000D01*
X160457152Y-78865000D01*
X160531999Y-78879888D01*
X160606846Y-78865000D01*
X161229199Y-78865000D01*
X165610000Y-83245802D01*
X165610001Y-84634148D01*
X165595112Y-84709000D01*
X165654097Y-85005537D01*
X165760525Y-85164817D01*
X165822072Y-85256929D01*
X165885528Y-85299329D01*
X166749312Y-86163114D01*
X166684887Y-86487000D01*
X166796260Y-87046909D01*
X167113423Y-87521577D01*
X167588091Y-87838740D01*
X168006667Y-87922000D01*
X168289333Y-87922000D01*
X168707909Y-87838740D01*
X169182577Y-87521577D01*
X169499740Y-87046909D01*
X169545000Y-86819372D01*
X169590260Y-87046909D01*
X169907423Y-87521577D01*
X170382091Y-87838740D01*
X170800667Y-87922000D01*
X171083333Y-87922000D01*
X171343315Y-87870286D01*
X171114260Y-88213091D01*
X171002887Y-88773000D01*
X171114260Y-89332909D01*
X171431423Y-89807577D01*
X171906091Y-90124740D01*
X172324667Y-90208000D01*
X172607333Y-90208000D01*
X173025909Y-90124740D01*
X173500577Y-89807577D01*
X173817740Y-89332909D01*
X173929113Y-88773000D01*
X173817740Y-88213091D01*
X173623239Y-87922000D01*
X173877333Y-87922000D01*
X174295909Y-87838740D01*
X174770577Y-87521577D01*
X175087740Y-87046909D01*
X175199113Y-86487000D01*
X175087740Y-85927091D01*
X174770577Y-85452423D01*
X174295909Y-85135260D01*
X173877333Y-85052000D01*
X173594667Y-85052000D01*
X173176091Y-85135260D01*
X172701423Y-85452423D01*
X172384260Y-85927091D01*
X172339000Y-86154628D01*
X172293740Y-85927091D01*
X171976577Y-85452423D01*
X171501909Y-85135260D01*
X171083333Y-85052000D01*
X170800667Y-85052000D01*
X170382091Y-85135260D01*
X169907423Y-85452423D01*
X169590260Y-85927091D01*
X169545000Y-86154628D01*
X169499740Y-85927091D01*
X169182577Y-85452423D01*
X168830242Y-85217000D01*
X169182577Y-84981577D01*
X169499740Y-84506909D01*
X169611113Y-83947000D01*
X169499740Y-83387091D01*
X169182577Y-82912423D01*
X168830242Y-82677000D01*
X169182577Y-82441577D01*
X169499740Y-81966909D01*
X169611113Y-81407000D01*
X169499740Y-80847091D01*
X169182577Y-80372423D01*
X168707909Y-80055260D01*
X168289333Y-79972000D01*
X168006667Y-79972000D01*
X167824114Y-80008312D01*
X167638000Y-79822199D01*
X167638000Y-78067000D01*
X169494560Y-78067000D01*
X169494560Y-79667000D01*
X169543843Y-79914765D01*
X169684191Y-80124809D01*
X169894235Y-80265157D01*
X170142000Y-80314440D01*
X171742000Y-80314440D01*
X171989765Y-80265157D01*
X172199809Y-80124809D01*
X172339000Y-79916497D01*
X172478191Y-80124809D01*
X172688235Y-80265157D01*
X172936000Y-80314440D01*
X174536000Y-80314440D01*
X174783765Y-80265157D01*
X174993809Y-80124809D01*
X175134157Y-79914765D01*
X175183440Y-79667000D01*
X175183440Y-78067000D01*
X175134157Y-77819235D01*
X174993809Y-77609191D01*
X174783765Y-77468843D01*
X174536000Y-77419560D01*
X172936000Y-77419560D01*
X172688235Y-77468843D01*
X172478191Y-77609191D01*
X172339000Y-77817503D01*
X172199809Y-77609191D01*
X171989765Y-77468843D01*
X171742000Y-77419560D01*
X170142000Y-77419560D01*
X169894235Y-77468843D01*
X169684191Y-77609191D01*
X169543843Y-77819235D01*
X169494560Y-78067000D01*
X167638000Y-78067000D01*
X167638000Y-77011935D01*
X167958430Y-76797830D01*
X168148000Y-76514119D01*
X168337570Y-76797830D01*
X168833276Y-77129050D01*
X169418000Y-77245359D01*
X170002725Y-77129050D01*
X170498430Y-76797830D01*
X170688000Y-76514119D01*
X170877570Y-76797830D01*
X171373276Y-77129050D01*
X171958000Y-77245359D01*
X172542725Y-77129050D01*
X173038430Y-76797830D01*
X173228000Y-76514119D01*
X173417570Y-76797830D01*
X173913276Y-77129050D01*
X174498000Y-77245359D01*
X175082725Y-77129050D01*
X175578430Y-76797830D01*
X175595015Y-76773009D01*
X175641000Y-76864980D01*
X175641000Y-86995000D01*
X175650667Y-87043601D01*
X175678197Y-87084803D01*
X176731394Y-88138000D01*
X176507501Y-88138000D01*
X175527266Y-88544026D01*
X174777026Y-89294266D01*
X174371000Y-90274501D01*
X174371000Y-91335499D01*
X174777026Y-92315734D01*
X175527266Y-93065974D01*
X176507501Y-93472000D01*
X177568499Y-93472000D01*
X178181000Y-93218294D01*
X178181000Y-116331706D01*
X177568499Y-116078000D01*
X176507501Y-116078000D01*
X175527266Y-116484026D01*
X174777026Y-117234266D01*
X174750000Y-117299513D01*
X174750000Y-116392801D01*
X175401592Y-115741209D01*
X175621744Y-115785000D01*
X175914256Y-115785000D01*
X176347418Y-115698839D01*
X176838625Y-115370625D01*
X177166839Y-114879418D01*
X177282092Y-114300000D01*
X177166839Y-113720582D01*
X176838625Y-113229375D01*
X176540239Y-113030000D01*
X176838625Y-112830625D01*
X177166839Y-112339418D01*
X177282092Y-111760000D01*
X177166839Y-111180582D01*
X176838625Y-110689375D01*
X176519522Y-110476157D01*
X176649358Y-110415183D01*
X177039645Y-109986924D01*
X177209476Y-109576890D01*
X177088155Y-109347000D01*
X175895000Y-109347000D01*
X175895000Y-109367000D01*
X175641000Y-109367000D01*
X175641000Y-109347000D01*
X174447845Y-109347000D01*
X174326524Y-109576890D01*
X174496355Y-109986924D01*
X174886642Y-110415183D01*
X175016478Y-110476157D01*
X174697375Y-110689375D01*
X174369161Y-111180582D01*
X174253908Y-111760000D01*
X174326858Y-112126745D01*
X174202097Y-112313463D01*
X174158001Y-112535148D01*
X174158001Y-112535152D01*
X174143113Y-112609999D01*
X174158001Y-112684846D01*
X174158001Y-113096195D01*
X172997530Y-114256667D01*
X172934071Y-114299069D01*
X172766096Y-114550462D01*
X172722000Y-114772147D01*
X172722000Y-114772151D01*
X172707112Y-114846998D01*
X172722000Y-114921845D01*
X172722001Y-118430197D01*
X169865199Y-121287000D01*
X167464846Y-121287000D01*
X167389999Y-121272112D01*
X167315152Y-121287000D01*
X167315148Y-121287000D01*
X167093463Y-121331096D01*
X167057799Y-121354926D01*
X166905526Y-121456671D01*
X166905524Y-121456673D01*
X166842071Y-121499071D01*
X166799672Y-121562525D01*
X166393529Y-121968670D01*
X166330071Y-122011071D01*
X166162096Y-122262464D01*
X166142336Y-122361804D01*
X165797570Y-122592170D01*
X165608000Y-122875881D01*
X165418430Y-122592170D01*
X164922724Y-122260950D01*
X164338000Y-122144641D01*
X163960026Y-122219825D01*
X163277201Y-121537000D01*
X163775710Y-121537000D01*
X163808365Y-121569655D01*
X164152017Y-121712000D01*
X164523983Y-121712000D01*
X164867635Y-121569655D01*
X165130655Y-121306635D01*
X165273000Y-120962983D01*
X165273000Y-120591017D01*
X165130655Y-120247365D01*
X165025290Y-120142000D01*
X165130655Y-120036635D01*
X165273000Y-119692983D01*
X165273000Y-119321017D01*
X165130655Y-118977365D01*
X164867635Y-118714345D01*
X164523983Y-118572000D01*
X164152017Y-118572000D01*
X163808365Y-118714345D01*
X163775710Y-118747000D01*
X163142846Y-118747000D01*
X163067999Y-118732112D01*
X162993152Y-118747000D01*
X162993148Y-118747000D01*
X162771463Y-118791096D01*
X162771461Y-118791097D01*
X162771462Y-118791097D01*
X162583526Y-118916671D01*
X162583524Y-118916673D01*
X162520071Y-118959071D01*
X162477672Y-119022525D01*
X162245198Y-119255000D01*
X153561655Y-119255000D01*
X153446655Y-118977365D01*
X153319240Y-118849950D01*
X153620085Y-118725345D01*
X154035051Y-118349438D01*
X154152662Y-118100937D01*
X154270273Y-118349438D01*
X154685239Y-118725345D01*
X155073623Y-118886208D01*
X155295662Y-118764219D01*
X155295662Y-117621304D01*
X155549662Y-117621304D01*
X155549662Y-118764219D01*
X155771701Y-118886208D01*
X156160085Y-118725345D01*
X156575051Y-118349438D01*
X156692662Y-118100937D01*
X156810273Y-118349438D01*
X157225239Y-118725345D01*
X157613623Y-118886208D01*
X157835662Y-118764219D01*
X157835662Y-117621304D01*
X158089662Y-117621304D01*
X158089662Y-118764219D01*
X158311701Y-118886208D01*
X158700085Y-118725345D01*
X159115051Y-118349438D01*
X159354576Y-117843345D01*
X159233291Y-117621304D01*
X158089662Y-117621304D01*
X157835662Y-117621304D01*
X155549662Y-117621304D01*
X155295662Y-117621304D01*
X153009662Y-117621304D01*
X153009662Y-117641304D01*
X152755662Y-117641304D01*
X152755662Y-117621304D01*
X152735662Y-117621304D01*
X152735662Y-117367304D01*
X152755662Y-117367304D01*
X152755662Y-116224389D01*
X153009662Y-116224389D01*
X153009662Y-117367304D01*
X155295662Y-117367304D01*
X155295662Y-116224389D01*
X155549662Y-116224389D01*
X155549662Y-117367304D01*
X157835662Y-117367304D01*
X157835662Y-116224389D01*
X158089662Y-116224389D01*
X158089662Y-117367304D01*
X159233291Y-117367304D01*
X159354576Y-117145263D01*
X159115051Y-116639170D01*
X158700085Y-116263263D01*
X158311701Y-116102400D01*
X158089662Y-116224389D01*
X157835662Y-116224389D01*
X157613623Y-116102400D01*
X157225239Y-116263263D01*
X156810273Y-116639170D01*
X156692662Y-116887671D01*
X156575051Y-116639170D01*
X156160085Y-116263263D01*
X155771701Y-116102400D01*
X155549662Y-116224389D01*
X155295662Y-116224389D01*
X155073623Y-116102400D01*
X154685239Y-116263263D01*
X154270273Y-116639170D01*
X154152662Y-116887671D01*
X154035051Y-116639170D01*
X153620085Y-116263263D01*
X153231701Y-116102400D01*
X153009662Y-116224389D01*
X152755662Y-116224389D01*
X152533623Y-116102400D01*
X152145239Y-116263263D01*
X151730273Y-116639170D01*
X151633609Y-116843412D01*
X151377239Y-116459727D01*
X150902571Y-116142564D01*
X150483995Y-116059304D01*
X150201329Y-116059304D01*
X150018776Y-116095616D01*
X148627689Y-114704530D01*
X148585287Y-114641071D01*
X148333895Y-114473096D01*
X148112210Y-114429000D01*
X148112205Y-114429000D01*
X148037358Y-114414112D01*
X147962511Y-114429000D01*
X146868801Y-114429000D01*
X150023809Y-111273993D01*
X150201329Y-111309304D01*
X150483995Y-111309304D01*
X150902571Y-111226044D01*
X151083625Y-111105068D01*
X151462334Y-111483778D01*
X151504734Y-111547234D01*
X151756126Y-111715209D01*
X151977811Y-111759305D01*
X151977816Y-111759305D01*
X152052663Y-111774193D01*
X152127510Y-111759305D01*
X154222814Y-111759305D01*
X154297661Y-111774193D01*
X154372508Y-111759305D01*
X154372513Y-111759305D01*
X154594198Y-111715209D01*
X154845590Y-111547234D01*
X154887992Y-111483775D01*
X155098775Y-111272992D01*
X155281329Y-111309304D01*
X155563995Y-111309304D01*
X155982571Y-111226044D01*
X156457239Y-110908881D01*
X156692662Y-110556546D01*
X156928085Y-110908881D01*
X157402753Y-111226044D01*
X157821329Y-111309304D01*
X158103995Y-111309304D01*
X158522571Y-111226044D01*
X158752001Y-111072744D01*
X158752001Y-114480790D01*
X158737112Y-114555642D01*
X158796097Y-114852179D01*
X158891015Y-114994233D01*
X158964072Y-115103571D01*
X159027528Y-115145971D01*
X161352333Y-117470777D01*
X161394733Y-117534233D01*
X161545222Y-117634787D01*
X161545222Y-117836304D01*
X161594505Y-118084069D01*
X161734853Y-118294113D01*
X161944897Y-118434461D01*
X162192662Y-118483744D01*
X163892662Y-118483744D01*
X164140427Y-118434461D01*
X164315687Y-118317355D01*
X164372964Y-118374631D01*
X164606353Y-118471304D01*
X165296912Y-118471304D01*
X165455662Y-118312554D01*
X165455662Y-117113304D01*
X165435662Y-117113304D01*
X165435662Y-116859304D01*
X165455662Y-116859304D01*
X165455662Y-114573304D01*
X165435662Y-114573304D01*
X165435662Y-114319304D01*
X165455662Y-114319304D01*
X165455662Y-112033304D01*
X165435662Y-112033304D01*
X165435662Y-111779304D01*
X165455662Y-111779304D01*
X165455662Y-109493304D01*
X165435662Y-109493304D01*
X165435662Y-109239304D01*
X165455662Y-109239304D01*
X165455662Y-106953304D01*
X165435662Y-106953304D01*
X165435662Y-106699304D01*
X165455662Y-106699304D01*
X165455662Y-104413304D01*
X165435662Y-104413304D01*
X165435662Y-104159304D01*
X165455662Y-104159304D01*
X165455662Y-101873304D01*
X165435662Y-101873304D01*
X165435662Y-101619304D01*
X165455662Y-101619304D01*
X165455662Y-99333304D01*
X165435662Y-99333304D01*
X165435662Y-99079304D01*
X165455662Y-99079304D01*
X165455662Y-97885485D01*
X165709662Y-97885485D01*
X165709662Y-99079304D01*
X165729662Y-99079304D01*
X165729662Y-99333304D01*
X165709662Y-99333304D01*
X165709662Y-101619304D01*
X165729662Y-101619304D01*
X165729662Y-101873304D01*
X165709662Y-101873304D01*
X165709662Y-104159304D01*
X165729662Y-104159304D01*
X165729662Y-104413304D01*
X165709662Y-104413304D01*
X165709662Y-106699304D01*
X165729662Y-106699304D01*
X165729662Y-106953304D01*
X165709662Y-106953304D01*
X165709662Y-109239304D01*
X165729662Y-109239304D01*
X165729662Y-109493304D01*
X165709662Y-109493304D01*
X165709662Y-111779304D01*
X165729662Y-111779304D01*
X165729662Y-112033304D01*
X165709662Y-112033304D01*
X165709662Y-114319304D01*
X165729662Y-114319304D01*
X165729662Y-114573304D01*
X165709662Y-114573304D01*
X165709662Y-116859304D01*
X165729662Y-116859304D01*
X165729662Y-117113304D01*
X165709662Y-117113304D01*
X165709662Y-118312554D01*
X165868412Y-118471304D01*
X166558971Y-118471304D01*
X166792360Y-118374631D01*
X166849637Y-118317355D01*
X167024897Y-118434461D01*
X167272662Y-118483744D01*
X168972662Y-118483744D01*
X169220427Y-118434461D01*
X169430471Y-118294113D01*
X169570819Y-118084069D01*
X169620102Y-117836304D01*
X169620102Y-116136304D01*
X169570819Y-115888539D01*
X169430471Y-115678495D01*
X169220427Y-115538147D01*
X169175043Y-115529120D01*
X169193287Y-115516929D01*
X169521501Y-115025722D01*
X169636754Y-114446304D01*
X169521501Y-113866886D01*
X169193287Y-113375679D01*
X168894901Y-113176304D01*
X169193287Y-112976929D01*
X169521501Y-112485722D01*
X169636754Y-111906304D01*
X169521501Y-111326886D01*
X169193287Y-110835679D01*
X168894901Y-110636304D01*
X169193287Y-110436929D01*
X169521501Y-109945722D01*
X169636754Y-109366304D01*
X169521501Y-108786886D01*
X169193287Y-108295679D01*
X168894901Y-108096304D01*
X169193287Y-107896929D01*
X169521501Y-107405722D01*
X169636754Y-106826304D01*
X169521501Y-106246886D01*
X169242947Y-105830000D01*
X174270560Y-105830000D01*
X174270560Y-107530000D01*
X174319843Y-107777765D01*
X174460191Y-107987809D01*
X174670235Y-108128157D01*
X174773708Y-108148739D01*
X174496355Y-108453076D01*
X174326524Y-108863110D01*
X174447845Y-109093000D01*
X175641000Y-109093000D01*
X175641000Y-109073000D01*
X175895000Y-109073000D01*
X175895000Y-109093000D01*
X177088155Y-109093000D01*
X177209476Y-108863110D01*
X177039645Y-108453076D01*
X176762292Y-108148739D01*
X176865765Y-108128157D01*
X177075809Y-107987809D01*
X177216157Y-107777765D01*
X177265440Y-107530000D01*
X177265440Y-105830000D01*
X177216157Y-105582235D01*
X177075809Y-105372191D01*
X176865765Y-105231843D01*
X176618000Y-105182560D01*
X174918000Y-105182560D01*
X174670235Y-105231843D01*
X174460191Y-105372191D01*
X174319843Y-105582235D01*
X174270560Y-105830000D01*
X169242947Y-105830000D01*
X169193287Y-105755679D01*
X168894901Y-105556304D01*
X169193287Y-105356929D01*
X169521501Y-104865722D01*
X169636754Y-104286304D01*
X169521501Y-103706886D01*
X169193287Y-103215679D01*
X168894901Y-103016304D01*
X169193287Y-102816929D01*
X169521501Y-102325722D01*
X169636754Y-101746304D01*
X169521501Y-101166886D01*
X169193287Y-100675679D01*
X168894901Y-100476304D01*
X169193287Y-100276929D01*
X169521501Y-99785722D01*
X169636754Y-99206304D01*
X169521501Y-98626886D01*
X169193287Y-98135679D01*
X168702080Y-97807465D01*
X168268918Y-97721304D01*
X167976406Y-97721304D01*
X167543244Y-97807465D01*
X167052037Y-98135679D01*
X166851309Y-98436090D01*
X166464020Y-98011121D01*
X165939554Y-97764818D01*
X165709662Y-97885485D01*
X165455662Y-97885485D01*
X165225770Y-97764818D01*
X164701304Y-98011121D01*
X164314015Y-98436090D01*
X164113287Y-98135679D01*
X163622080Y-97807465D01*
X163188918Y-97721304D01*
X162896406Y-97721304D01*
X162463244Y-97807465D01*
X161972037Y-98135679D01*
X161764484Y-98446304D01*
X159435440Y-98446304D01*
X159435440Y-97625000D01*
X159386157Y-97377235D01*
X159245809Y-97167191D01*
X159035765Y-97026843D01*
X158788000Y-96977560D01*
X157188000Y-96977560D01*
X156940235Y-97026843D01*
X156730191Y-97167191D01*
X156589843Y-97377235D01*
X156563215Y-97511106D01*
X156482577Y-97390423D01*
X156007909Y-97073260D01*
X155589333Y-96990000D01*
X155306667Y-96990000D01*
X154888091Y-97073260D01*
X154413423Y-97390423D01*
X154178000Y-97742758D01*
X153942577Y-97390423D01*
X153467909Y-97073260D01*
X153049333Y-96990000D01*
X152766667Y-96990000D01*
X152348091Y-97073260D01*
X151873423Y-97390423D01*
X151638000Y-97742758D01*
X151402577Y-97390423D01*
X150927909Y-97073260D01*
X150509333Y-96990000D01*
X150226667Y-96990000D01*
X149808091Y-97073260D01*
X149333423Y-97390423D01*
X149098000Y-97742758D01*
X148862577Y-97390423D01*
X148387909Y-97073260D01*
X147969333Y-96990000D01*
X147686667Y-96990000D01*
X147268091Y-97073260D01*
X146793423Y-97390423D01*
X146537053Y-97774108D01*
X146440389Y-97569866D01*
X146025423Y-97193959D01*
X145637039Y-97033096D01*
X145415000Y-97155085D01*
X145415000Y-98298000D01*
X145435000Y-98298000D01*
X145435000Y-98552000D01*
X145415000Y-98552000D01*
X145415000Y-99694915D01*
X145637039Y-99816904D01*
X146025423Y-99656041D01*
X146440389Y-99280134D01*
X146537053Y-99075892D01*
X146793423Y-99459577D01*
X147268091Y-99776740D01*
X147686667Y-99860000D01*
X147969333Y-99860000D01*
X148151886Y-99823688D01*
X151138166Y-102809969D01*
X150377878Y-102809969D01*
X150303031Y-102795081D01*
X150228184Y-102809969D01*
X150228179Y-102809969D01*
X150006494Y-102854065D01*
X149755102Y-103022040D01*
X149712702Y-103085496D01*
X148151887Y-104646312D01*
X147969333Y-104610000D01*
X147686667Y-104610000D01*
X147268091Y-104693260D01*
X146793423Y-105010423D01*
X146558000Y-105362758D01*
X146322577Y-105010423D01*
X145847909Y-104693260D01*
X145429333Y-104610000D01*
X145146667Y-104610000D01*
X144728091Y-104693260D01*
X144253423Y-105010423D01*
X144018000Y-105362758D01*
X143782577Y-105010423D01*
X143307909Y-104693260D01*
X142889333Y-104610000D01*
X142606667Y-104610000D01*
X142188091Y-104693260D01*
X141713423Y-105010423D01*
X141478000Y-105362758D01*
X141242577Y-105010423D01*
X140767909Y-104693260D01*
X140349333Y-104610000D01*
X140066667Y-104610000D01*
X139648091Y-104693260D01*
X139173423Y-105010423D01*
X138856260Y-105485091D01*
X138744887Y-106045000D01*
X138856260Y-106604909D01*
X139173423Y-107079577D01*
X139648091Y-107396740D01*
X140066667Y-107480000D01*
X140349333Y-107480000D01*
X140767909Y-107396740D01*
X141242577Y-107079577D01*
X141478000Y-106727242D01*
X141713423Y-107079577D01*
X142188091Y-107396740D01*
X142606667Y-107480000D01*
X142889333Y-107480000D01*
X143071887Y-107443688D01*
X143732684Y-108104486D01*
X143775082Y-108167940D01*
X143838535Y-108210338D01*
X143838537Y-108210340D01*
X143924518Y-108267790D01*
X144026474Y-108335915D01*
X144248159Y-108380011D01*
X144248163Y-108380011D01*
X144323010Y-108394899D01*
X144397857Y-108380011D01*
X149438570Y-108380011D01*
X149661884Y-108603326D01*
X149308085Y-108839727D01*
X149072662Y-109192062D01*
X148837239Y-108839727D01*
X148362571Y-108522564D01*
X147943995Y-108439304D01*
X147661329Y-108439304D01*
X147242753Y-108522564D01*
X146768085Y-108839727D01*
X146532662Y-109192062D01*
X146297239Y-108839727D01*
X145822571Y-108522564D01*
X145403995Y-108439304D01*
X145121329Y-108439304D01*
X144702753Y-108522564D01*
X144228085Y-108839727D01*
X143992662Y-109192062D01*
X143757239Y-108839727D01*
X143282571Y-108522564D01*
X142863995Y-108439304D01*
X142581329Y-108439304D01*
X142162753Y-108522564D01*
X141688085Y-108839727D01*
X141452662Y-109192062D01*
X141217239Y-108839727D01*
X140742571Y-108522564D01*
X140323995Y-108439304D01*
X140041329Y-108439304D01*
X139622753Y-108522564D01*
X139148085Y-108839727D01*
X138830922Y-109314395D01*
X138719549Y-109874304D01*
X138803236Y-110295024D01*
X137158000Y-108649789D01*
X137158000Y-98841488D01*
X137171416Y-98774041D01*
X138816086Y-98774041D01*
X139055611Y-99280134D01*
X139470577Y-99656041D01*
X139858961Y-99816904D01*
X140081000Y-99694915D01*
X140081000Y-98552000D01*
X140335000Y-98552000D01*
X140335000Y-99694915D01*
X140557039Y-99816904D01*
X140945423Y-99656041D01*
X141360389Y-99280134D01*
X141478000Y-99031633D01*
X141595611Y-99280134D01*
X142010577Y-99656041D01*
X142398961Y-99816904D01*
X142621000Y-99694915D01*
X142621000Y-98552000D01*
X142875000Y-98552000D01*
X142875000Y-99694915D01*
X143097039Y-99816904D01*
X143485423Y-99656041D01*
X143900389Y-99280134D01*
X144018000Y-99031633D01*
X144135611Y-99280134D01*
X144550577Y-99656041D01*
X144938961Y-99816904D01*
X145161000Y-99694915D01*
X145161000Y-98552000D01*
X142875000Y-98552000D01*
X142621000Y-98552000D01*
X140335000Y-98552000D01*
X140081000Y-98552000D01*
X138937371Y-98552000D01*
X138816086Y-98774041D01*
X137171416Y-98774041D01*
X137172888Y-98766641D01*
X137158000Y-98691794D01*
X137158000Y-98691790D01*
X137113904Y-98470105D01*
X137033751Y-98350148D01*
X136988329Y-98282168D01*
X136988327Y-98282166D01*
X136945929Y-98218713D01*
X136882476Y-98176315D01*
X136782120Y-98075959D01*
X138816086Y-98075959D01*
X138937371Y-98298000D01*
X140081000Y-98298000D01*
X140081000Y-97155085D01*
X140335000Y-97155085D01*
X140335000Y-98298000D01*
X142621000Y-98298000D01*
X142621000Y-97155085D01*
X142875000Y-97155085D01*
X142875000Y-98298000D01*
X145161000Y-98298000D01*
X145161000Y-97155085D01*
X144938961Y-97033096D01*
X144550577Y-97193959D01*
X144135611Y-97569866D01*
X144018000Y-97818367D01*
X143900389Y-97569866D01*
X143485423Y-97193959D01*
X143097039Y-97033096D01*
X142875000Y-97155085D01*
X142621000Y-97155085D01*
X142398961Y-97033096D01*
X142010577Y-97193959D01*
X141595611Y-97569866D01*
X141478000Y-97818367D01*
X141360389Y-97569866D01*
X140945423Y-97193959D01*
X140557039Y-97033096D01*
X140335000Y-97155085D01*
X140081000Y-97155085D01*
X139858961Y-97033096D01*
X139470577Y-97193959D01*
X139055611Y-97569866D01*
X138816086Y-98075959D01*
X136782120Y-98075959D01*
X134887993Y-96181834D01*
X134845591Y-96118375D01*
X134695102Y-96017821D01*
X134695102Y-95816304D01*
X134645819Y-95568539D01*
X134505471Y-95358495D01*
X134295427Y-95218147D01*
X134047662Y-95168864D01*
X132347662Y-95168864D01*
X132099897Y-95218147D01*
X131924637Y-95335253D01*
X131867360Y-95277977D01*
X131633971Y-95181304D01*
X130943412Y-95181304D01*
X130784662Y-95340054D01*
X130784662Y-96539304D01*
X130804662Y-96539304D01*
X130804662Y-96793304D01*
X130784662Y-96793304D01*
X130784662Y-99079304D01*
X130804662Y-99079304D01*
X130804662Y-99333304D01*
X130784662Y-99333304D01*
X130784662Y-101619304D01*
X130804662Y-101619304D01*
X130804662Y-101873304D01*
X130784662Y-101873304D01*
X130784662Y-104159304D01*
X130804662Y-104159304D01*
X130804662Y-104413304D01*
X130784662Y-104413304D01*
X130784662Y-106699304D01*
X130804662Y-106699304D01*
X130804662Y-106953304D01*
X130784662Y-106953304D01*
X130784662Y-109239304D01*
X130804662Y-109239304D01*
X130804662Y-109493304D01*
X130784662Y-109493304D01*
X130784662Y-111779304D01*
X130804662Y-111779304D01*
X130804662Y-112033304D01*
X130784662Y-112033304D01*
X130784662Y-114319304D01*
X130804662Y-114319304D01*
X130804662Y-114573304D01*
X130784662Y-114573304D01*
X130784662Y-115767123D01*
X131014554Y-115887790D01*
X131539020Y-115641487D01*
X131926309Y-115216518D01*
X132127037Y-115516929D01*
X132618244Y-115845143D01*
X133051406Y-115931304D01*
X133343918Y-115931304D01*
X133564070Y-115887513D01*
X135655332Y-117978776D01*
X135697733Y-118042233D01*
X135949125Y-118210208D01*
X136170810Y-118254304D01*
X136170815Y-118254304D01*
X136245662Y-118269192D01*
X136320509Y-118254304D01*
X138735222Y-118254304D01*
X138735222Y-118294304D01*
X138784505Y-118542069D01*
X138924853Y-118752113D01*
X139134897Y-118892461D01*
X139382662Y-118941744D01*
X140982662Y-118941744D01*
X141230427Y-118892461D01*
X141440471Y-118752113D01*
X141580819Y-118542069D01*
X141607447Y-118408198D01*
X141688085Y-118528881D01*
X142162753Y-118846044D01*
X142581329Y-118929304D01*
X142863995Y-118929304D01*
X143282571Y-118846044D01*
X143757239Y-118528881D01*
X143992662Y-118176546D01*
X144228085Y-118528881D01*
X144702753Y-118846044D01*
X145121329Y-118929304D01*
X145403995Y-118929304D01*
X145586548Y-118892992D01*
X148209031Y-121515476D01*
X148251429Y-121578929D01*
X148314882Y-121621327D01*
X148314884Y-121621329D01*
X148440260Y-121705102D01*
X148502821Y-121746904D01*
X148724506Y-121791000D01*
X148724510Y-121791000D01*
X148799357Y-121805888D01*
X148874204Y-121791000D01*
X161381599Y-121791000D01*
X161745652Y-122155054D01*
X161213275Y-122260950D01*
X160717570Y-122592170D01*
X160386350Y-123087876D01*
X160299400Y-123525003D01*
X160299400Y-124124998D01*
X160386350Y-124562125D01*
X160657547Y-124968000D01*
X157858452Y-124968000D01*
X158129650Y-124562124D01*
X158216600Y-124124997D01*
X158216600Y-123525002D01*
X158129650Y-123087875D01*
X157798430Y-122592170D01*
X157302724Y-122260950D01*
X156718000Y-122144641D01*
X156133275Y-122260950D01*
X155637570Y-122592170D01*
X155444091Y-122881733D01*
X155080036Y-122474268D01*
X154552791Y-122220291D01*
X154537026Y-122217642D01*
X154305000Y-122338783D01*
X154305000Y-123698000D01*
X154325000Y-123698000D01*
X154325000Y-123952000D01*
X154305000Y-123952000D01*
X154305000Y-123972000D01*
X154051000Y-123972000D01*
X154051000Y-123952000D01*
X151765000Y-123952000D01*
X151765000Y-123972000D01*
X151511000Y-123972000D01*
X151511000Y-123952000D01*
X151491000Y-123952000D01*
X151491000Y-123698000D01*
X151511000Y-123698000D01*
X151511000Y-122338783D01*
X151765000Y-122338783D01*
X151765000Y-123698000D01*
X154051000Y-123698000D01*
X154051000Y-122338783D01*
X153818974Y-122217642D01*
X153803209Y-122220291D01*
X153275964Y-122474268D01*
X152908000Y-122886108D01*
X152540036Y-122474268D01*
X152012791Y-122220291D01*
X151997026Y-122217642D01*
X151765000Y-122338783D01*
X151511000Y-122338783D01*
X151278974Y-122217642D01*
X151263209Y-122220291D01*
X150735964Y-122474268D01*
X150371910Y-122881732D01*
X150178430Y-122592170D01*
X149682724Y-122260950D01*
X149098000Y-122144641D01*
X148513275Y-122260950D01*
X148017570Y-122592170D01*
X147828000Y-122875881D01*
X147638430Y-122592170D01*
X147142724Y-122260950D01*
X146558000Y-122144641D01*
X145973275Y-122260950D01*
X145477570Y-122592170D01*
X145288000Y-122875881D01*
X145098430Y-122592170D01*
X144753664Y-122361805D01*
X144733904Y-122262463D01*
X144565929Y-122011071D01*
X144520964Y-121981026D01*
X144490919Y-121936061D01*
X144239527Y-121768086D01*
X144017842Y-121723990D01*
X144017837Y-121723990D01*
X143942990Y-121709102D01*
X143868143Y-121723990D01*
X136543856Y-121723990D01*
X136469009Y-121709102D01*
X136394162Y-121723990D01*
X136394158Y-121723990D01*
X136172473Y-121768086D01*
X136172471Y-121768087D01*
X136172472Y-121768087D01*
X135984536Y-121893661D01*
X135984534Y-121893663D01*
X135921081Y-121936061D01*
X135878682Y-121999515D01*
X135494408Y-122383791D01*
X135274256Y-122340000D01*
X134981744Y-122340000D01*
X134548582Y-122426161D01*
X134057375Y-122754375D01*
X134045184Y-122772619D01*
X134036157Y-122727235D01*
X133895809Y-122517191D01*
X133685765Y-122376843D01*
X133438000Y-122327560D01*
X131738000Y-122327560D01*
X131490235Y-122376843D01*
X131280191Y-122517191D01*
X131139843Y-122727235D01*
X131090560Y-122975000D01*
X131090560Y-124675000D01*
X131139843Y-124922765D01*
X131170068Y-124968000D01*
X127381294Y-124968000D01*
X127635000Y-124355499D01*
X127635000Y-123294501D01*
X127228974Y-122314266D01*
X126478734Y-121564026D01*
X125498499Y-121158000D01*
X124437501Y-121158000D01*
X123457266Y-121564026D01*
X122707026Y-122314266D01*
X122301000Y-123294501D01*
X122301000Y-124355499D01*
X122554706Y-124968000D01*
X112395000Y-124968000D01*
X112395000Y-99206304D01*
X126603570Y-99206304D01*
X126718823Y-99785722D01*
X127047037Y-100276929D01*
X127345423Y-100476304D01*
X127047037Y-100675679D01*
X126718823Y-101166886D01*
X126603570Y-101746304D01*
X126718823Y-102325722D01*
X127047037Y-102816929D01*
X127345423Y-103016304D01*
X127047037Y-103215679D01*
X126718823Y-103706886D01*
X126603570Y-104286304D01*
X126718823Y-104865722D01*
X127047037Y-105356929D01*
X127345423Y-105556304D01*
X127047037Y-105755679D01*
X126718823Y-106246886D01*
X126603570Y-106826304D01*
X126718823Y-107405722D01*
X127047037Y-107896929D01*
X127345423Y-108096304D01*
X127047037Y-108295679D01*
X126718823Y-108786886D01*
X126603570Y-109366304D01*
X126718823Y-109945722D01*
X127047037Y-110436929D01*
X127345423Y-110636304D01*
X127047037Y-110835679D01*
X126718823Y-111326886D01*
X126603570Y-111906304D01*
X126718823Y-112485722D01*
X127047037Y-112976929D01*
X127345423Y-113176304D01*
X127047037Y-113375679D01*
X126718823Y-113866886D01*
X126603570Y-114446304D01*
X126718823Y-115025722D01*
X127047037Y-115516929D01*
X127538244Y-115845143D01*
X127971406Y-115931304D01*
X128263918Y-115931304D01*
X128697080Y-115845143D01*
X129188287Y-115516929D01*
X129389015Y-115216518D01*
X129776304Y-115641487D01*
X130300770Y-115887790D01*
X130530662Y-115767123D01*
X130530662Y-114573304D01*
X130510662Y-114573304D01*
X130510662Y-114319304D01*
X130530662Y-114319304D01*
X130530662Y-112033304D01*
X130510662Y-112033304D01*
X130510662Y-111779304D01*
X130530662Y-111779304D01*
X130530662Y-109493304D01*
X130510662Y-109493304D01*
X130510662Y-109239304D01*
X130530662Y-109239304D01*
X130530662Y-106953304D01*
X130510662Y-106953304D01*
X130510662Y-106699304D01*
X130530662Y-106699304D01*
X130530662Y-104413304D01*
X130510662Y-104413304D01*
X130510662Y-104159304D01*
X130530662Y-104159304D01*
X130530662Y-101873304D01*
X130510662Y-101873304D01*
X130510662Y-101619304D01*
X130530662Y-101619304D01*
X130530662Y-99333304D01*
X130510662Y-99333304D01*
X130510662Y-99079304D01*
X130530662Y-99079304D01*
X130530662Y-96793304D01*
X130510662Y-96793304D01*
X130510662Y-96539304D01*
X130530662Y-96539304D01*
X130530662Y-95340054D01*
X130371912Y-95181304D01*
X129681353Y-95181304D01*
X129447964Y-95277977D01*
X129390687Y-95335253D01*
X129215427Y-95218147D01*
X128967662Y-95168864D01*
X127267662Y-95168864D01*
X127019897Y-95218147D01*
X126809853Y-95358495D01*
X126669505Y-95568539D01*
X126620222Y-95816304D01*
X126620222Y-97516304D01*
X126669505Y-97764069D01*
X126809853Y-97974113D01*
X127019897Y-98114461D01*
X127065281Y-98123488D01*
X127047037Y-98135679D01*
X126718823Y-98626886D01*
X126603570Y-99206304D01*
X112395000Y-99206304D01*
X112395000Y-74422000D01*
X123824706Y-74422000D01*
X123571000Y-75034501D01*
X123571000Y-75034501D01*
G37*
X123571000Y-75034501D02*
X123571000Y-76095499D01*
X123977026Y-77075734D01*
X124727266Y-77825974D01*
X125707501Y-78232000D01*
X126768499Y-78232000D01*
X127748734Y-77825974D01*
X128498974Y-77075734D01*
X128652156Y-76705918D01*
X128713570Y-76797830D01*
X129034000Y-77011935D01*
X129034001Y-78679197D01*
X128509408Y-79203791D01*
X128289256Y-79160000D01*
X127996744Y-79160000D01*
X127563582Y-79246161D01*
X127072375Y-79574375D01*
X126873000Y-79872761D01*
X126673625Y-79574375D01*
X126182418Y-79246161D01*
X125749256Y-79160000D01*
X125456744Y-79160000D01*
X125023582Y-79246161D01*
X124532375Y-79574375D01*
X124204161Y-80065582D01*
X124088908Y-80645000D01*
X124204161Y-81224418D01*
X124532375Y-81715625D01*
X125023582Y-82043839D01*
X125456744Y-82130000D01*
X125749256Y-82130000D01*
X125969408Y-82086209D01*
X126748001Y-82864803D01*
X126748001Y-83093333D01*
X126379333Y-83020000D01*
X126096667Y-83020000D01*
X125678091Y-83103260D01*
X125203423Y-83420423D01*
X124886260Y-83895091D01*
X124774887Y-84455000D01*
X124839312Y-84778886D01*
X121943528Y-87674671D01*
X121880072Y-87717071D01*
X121837672Y-87780527D01*
X121837671Y-87780528D01*
X121712097Y-87968463D01*
X121653112Y-88265000D01*
X121668001Y-88339852D01*
X121668001Y-88891822D01*
X121357375Y-89099375D01*
X121029161Y-89590582D01*
X120913908Y-90170000D01*
X121029161Y-90749418D01*
X121357375Y-91240625D01*
X121848582Y-91568839D01*
X122281744Y-91655000D01*
X122574256Y-91655000D01*
X122794408Y-91611209D01*
X125502672Y-94319474D01*
X125545072Y-94382930D01*
X125796464Y-94550905D01*
X126018149Y-94595001D01*
X126018153Y-94595001D01*
X126093000Y-94609889D01*
X126167847Y-94595001D01*
X158693152Y-94595001D01*
X158767999Y-94609889D01*
X158842846Y-94595001D01*
X158842851Y-94595001D01*
X159064536Y-94550905D01*
X159315928Y-94382930D01*
X159358330Y-94319471D01*
X160161592Y-93516209D01*
X160381744Y-93560000D01*
X160674256Y-93560000D01*
X161107418Y-93473839D01*
X161598625Y-93145625D01*
X161798000Y-92847239D01*
X161997375Y-93145625D01*
X162488582Y-93473839D01*
X162921744Y-93560000D01*
X163214256Y-93560000D01*
X163647418Y-93473839D01*
X164138625Y-93145625D01*
X164338000Y-92847239D01*
X164537375Y-93145625D01*
X165028582Y-93473839D01*
X165461744Y-93560000D01*
X165754256Y-93560000D01*
X166187418Y-93473839D01*
X166678625Y-93145625D01*
X167006839Y-92654418D01*
X167122092Y-92075000D01*
X167006839Y-91495582D01*
X166678625Y-91004375D01*
X166187418Y-90676161D01*
X165754256Y-90590000D01*
X165461744Y-90590000D01*
X165028582Y-90676161D01*
X164537375Y-91004375D01*
X164338000Y-91302761D01*
X164138625Y-91004375D01*
X163647418Y-90676161D01*
X163214256Y-90590000D01*
X162921744Y-90590000D01*
X162701593Y-90633791D01*
X160002241Y-87934440D01*
X161328000Y-87934440D01*
X161575765Y-87885157D01*
X161785809Y-87744809D01*
X161926157Y-87534765D01*
X161975440Y-87287000D01*
X161975440Y-87247000D01*
X163295199Y-87247000D01*
X171198256Y-95150059D01*
X171067843Y-95345235D01*
X171018560Y-95593000D01*
X171018560Y-97193000D01*
X171067843Y-97440765D01*
X171208191Y-97650809D01*
X171418235Y-97791157D01*
X171666000Y-97840440D01*
X173266000Y-97840440D01*
X173513765Y-97791157D01*
X173723809Y-97650809D01*
X173864157Y-97440765D01*
X173913440Y-97193000D01*
X173913440Y-95593000D01*
X173864157Y-95345235D01*
X173723809Y-95135191D01*
X173513765Y-94994843D01*
X173266000Y-94945560D01*
X173114483Y-94945560D01*
X173056329Y-94858526D01*
X173056327Y-94858524D01*
X173013929Y-94795071D01*
X172950476Y-94752673D01*
X164200331Y-86002530D01*
X164157929Y-85939071D01*
X163906537Y-85771096D01*
X163684852Y-85727000D01*
X163684847Y-85727000D01*
X163610000Y-85712112D01*
X163535153Y-85727000D01*
X161975440Y-85727000D01*
X161975440Y-85687000D01*
X161926157Y-85439235D01*
X161785809Y-85229191D01*
X161767564Y-85217000D01*
X161785809Y-85204809D01*
X161926157Y-84994765D01*
X161975440Y-84747000D01*
X161975440Y-83147000D01*
X161926157Y-82899235D01*
X161785809Y-82689191D01*
X161767564Y-82677000D01*
X161785809Y-82664809D01*
X161926157Y-82454765D01*
X161975440Y-82207000D01*
X161975440Y-80607000D01*
X161926157Y-80359235D01*
X161785809Y-80149191D01*
X161575765Y-80008843D01*
X161328000Y-79959560D01*
X159728000Y-79959560D01*
X159480235Y-80008843D01*
X159270191Y-80149191D01*
X159129843Y-80359235D01*
X159097865Y-80520000D01*
X158850440Y-80520000D01*
X158850440Y-80430000D01*
X158801157Y-80182235D01*
X158660809Y-79972191D01*
X158450765Y-79831843D01*
X158203000Y-79782560D01*
X156503000Y-79782560D01*
X156255235Y-79831843D01*
X156045191Y-79972191D01*
X155904843Y-80182235D01*
X155883039Y-80291855D01*
X155694358Y-80084817D01*
X155169892Y-79838514D01*
X154940000Y-79959181D01*
X154940000Y-81153000D01*
X154960000Y-81153000D01*
X154960000Y-81407000D01*
X154940000Y-81407000D01*
X154940000Y-83693000D01*
X154960000Y-83693000D01*
X154960000Y-83947000D01*
X154940000Y-83947000D01*
X154940000Y-86233000D01*
X154960000Y-86233000D01*
X154960000Y-86487000D01*
X154940000Y-86487000D01*
X154940000Y-86507000D01*
X154686000Y-86507000D01*
X154686000Y-86487000D01*
X154666000Y-86487000D01*
X154666000Y-86233000D01*
X154686000Y-86233000D01*
X154686000Y-83947000D01*
X154666000Y-83947000D01*
X154666000Y-83693000D01*
X154686000Y-83693000D01*
X154686000Y-81407000D01*
X154666000Y-81407000D01*
X154666000Y-81153000D01*
X154686000Y-81153000D01*
X154686000Y-79959181D01*
X154456108Y-79838514D01*
X154397999Y-79865804D01*
X154397999Y-79112202D01*
X156340026Y-77170175D01*
X156718000Y-77245359D01*
X157302725Y-77129050D01*
X157798430Y-76797830D01*
X157988000Y-76514119D01*
X158177570Y-76797830D01*
X158522337Y-77028196D01*
X158542097Y-77127537D01*
X158657643Y-77300463D01*
X158710072Y-77378929D01*
X158773528Y-77421329D01*
X159941670Y-78589472D01*
X159984071Y-78652929D01*
X160235463Y-78820904D01*
X160457148Y-78865000D01*
X160457152Y-78865000D01*
X160531999Y-78879888D01*
X160606846Y-78865000D01*
X161229199Y-78865000D01*
X165610000Y-83245802D01*
X165610001Y-84634148D01*
X165595112Y-84709000D01*
X165654097Y-85005537D01*
X165760525Y-85164817D01*
X165822072Y-85256929D01*
X165885528Y-85299329D01*
X166749312Y-86163114D01*
X166684887Y-86487000D01*
X166796260Y-87046909D01*
X167113423Y-87521577D01*
X167588091Y-87838740D01*
X168006667Y-87922000D01*
X168289333Y-87922000D01*
X168707909Y-87838740D01*
X169182577Y-87521577D01*
X169499740Y-87046909D01*
X169545000Y-86819372D01*
X169590260Y-87046909D01*
X169907423Y-87521577D01*
X170382091Y-87838740D01*
X170800667Y-87922000D01*
X171083333Y-87922000D01*
X171343315Y-87870286D01*
X171114260Y-88213091D01*
X171002887Y-88773000D01*
X171114260Y-89332909D01*
X171431423Y-89807577D01*
X171906091Y-90124740D01*
X172324667Y-90208000D01*
X172607333Y-90208000D01*
X173025909Y-90124740D01*
X173500577Y-89807577D01*
X173817740Y-89332909D01*
X173929113Y-88773000D01*
X173817740Y-88213091D01*
X173623239Y-87922000D01*
X173877333Y-87922000D01*
X174295909Y-87838740D01*
X174770577Y-87521577D01*
X175087740Y-87046909D01*
X175199113Y-86487000D01*
X175087740Y-85927091D01*
X174770577Y-85452423D01*
X174295909Y-85135260D01*
X173877333Y-85052000D01*
X173594667Y-85052000D01*
X173176091Y-85135260D01*
X172701423Y-85452423D01*
X172384260Y-85927091D01*
X172339000Y-86154628D01*
X172293740Y-85927091D01*
X171976577Y-85452423D01*
X171501909Y-85135260D01*
X171083333Y-85052000D01*
X170800667Y-85052000D01*
X170382091Y-85135260D01*
X169907423Y-85452423D01*
X169590260Y-85927091D01*
X169545000Y-86154628D01*
X169499740Y-85927091D01*
X169182577Y-85452423D01*
X168830242Y-85217000D01*
X169182577Y-84981577D01*
X169499740Y-84506909D01*
X169611113Y-83947000D01*
X169499740Y-83387091D01*
X169182577Y-82912423D01*
X168830242Y-82677000D01*
X169182577Y-82441577D01*
X169499740Y-81966909D01*
X169611113Y-81407000D01*
X169499740Y-80847091D01*
X169182577Y-80372423D01*
X168707909Y-80055260D01*
X168289333Y-79972000D01*
X168006667Y-79972000D01*
X167824114Y-80008312D01*
X167638000Y-79822199D01*
X167638000Y-78067000D01*
X169494560Y-78067000D01*
X169494560Y-79667000D01*
X169543843Y-79914765D01*
X169684191Y-80124809D01*
X169894235Y-80265157D01*
X170142000Y-80314440D01*
X171742000Y-80314440D01*
X171989765Y-80265157D01*
X172199809Y-80124809D01*
X172339000Y-79916497D01*
X172478191Y-80124809D01*
X172688235Y-80265157D01*
X172936000Y-80314440D01*
X174536000Y-80314440D01*
X174783765Y-80265157D01*
X174993809Y-80124809D01*
X175134157Y-79914765D01*
X175183440Y-79667000D01*
X175183440Y-78067000D01*
X175134157Y-77819235D01*
X174993809Y-77609191D01*
X174783765Y-77468843D01*
X174536000Y-77419560D01*
X172936000Y-77419560D01*
X172688235Y-77468843D01*
X172478191Y-77609191D01*
X172339000Y-77817503D01*
X172199809Y-77609191D01*
X171989765Y-77468843D01*
X171742000Y-77419560D01*
X170142000Y-77419560D01*
X169894235Y-77468843D01*
X169684191Y-77609191D01*
X169543843Y-77819235D01*
X169494560Y-78067000D01*
X167638000Y-78067000D01*
X167638000Y-77011935D01*
X167958430Y-76797830D01*
X168148000Y-76514119D01*
X168337570Y-76797830D01*
X168833276Y-77129050D01*
X169418000Y-77245359D01*
X170002725Y-77129050D01*
X170498430Y-76797830D01*
X170688000Y-76514119D01*
X170877570Y-76797830D01*
X171373276Y-77129050D01*
X171958000Y-77245359D01*
X172542725Y-77129050D01*
X173038430Y-76797830D01*
X173228000Y-76514119D01*
X173417570Y-76797830D01*
X173913276Y-77129050D01*
X174498000Y-77245359D01*
X175082725Y-77129050D01*
X175578430Y-76797830D01*
X175595015Y-76773009D01*
X175641000Y-76864980D01*
X175641000Y-86995000D01*
X175650667Y-87043601D01*
X175678197Y-87084803D01*
X176731394Y-88138000D01*
X176507501Y-88138000D01*
X175527266Y-88544026D01*
X174777026Y-89294266D01*
X174371000Y-90274501D01*
X174371000Y-91335499D01*
X174777026Y-92315734D01*
X175527266Y-93065974D01*
X176507501Y-93472000D01*
X177568499Y-93472000D01*
X178181000Y-93218294D01*
X178181000Y-116331706D01*
X177568499Y-116078000D01*
X176507501Y-116078000D01*
X175527266Y-116484026D01*
X174777026Y-117234266D01*
X174750000Y-117299513D01*
X174750000Y-116392801D01*
X175401592Y-115741209D01*
X175621744Y-115785000D01*
X175914256Y-115785000D01*
X176347418Y-115698839D01*
X176838625Y-115370625D01*
X177166839Y-114879418D01*
X177282092Y-114300000D01*
X177166839Y-113720582D01*
X176838625Y-113229375D01*
X176540239Y-113030000D01*
X176838625Y-112830625D01*
X177166839Y-112339418D01*
X177282092Y-111760000D01*
X177166839Y-111180582D01*
X176838625Y-110689375D01*
X176519522Y-110476157D01*
X176649358Y-110415183D01*
X177039645Y-109986924D01*
X177209476Y-109576890D01*
X177088155Y-109347000D01*
X175895000Y-109347000D01*
X175895000Y-109367000D01*
X175641000Y-109367000D01*
X175641000Y-109347000D01*
X174447845Y-109347000D01*
X174326524Y-109576890D01*
X174496355Y-109986924D01*
X174886642Y-110415183D01*
X175016478Y-110476157D01*
X174697375Y-110689375D01*
X174369161Y-111180582D01*
X174253908Y-111760000D01*
X174326858Y-112126745D01*
X174202097Y-112313463D01*
X174158001Y-112535148D01*
X174158001Y-112535152D01*
X174143113Y-112609999D01*
X174158001Y-112684846D01*
X174158001Y-113096195D01*
X172997530Y-114256667D01*
X172934071Y-114299069D01*
X172766096Y-114550462D01*
X172722000Y-114772147D01*
X172722000Y-114772151D01*
X172707112Y-114846998D01*
X172722000Y-114921845D01*
X172722001Y-118430197D01*
X169865199Y-121287000D01*
X167464846Y-121287000D01*
X167389999Y-121272112D01*
X167315152Y-121287000D01*
X167315148Y-121287000D01*
X167093463Y-121331096D01*
X167057799Y-121354926D01*
X166905526Y-121456671D01*
X166905524Y-121456673D01*
X166842071Y-121499071D01*
X166799672Y-121562525D01*
X166393529Y-121968670D01*
X166330071Y-122011071D01*
X166162096Y-122262464D01*
X166142336Y-122361804D01*
X165797570Y-122592170D01*
X165608000Y-122875881D01*
X165418430Y-122592170D01*
X164922724Y-122260950D01*
X164338000Y-122144641D01*
X163960026Y-122219825D01*
X163277201Y-121537000D01*
X163775710Y-121537000D01*
X163808365Y-121569655D01*
X164152017Y-121712000D01*
X164523983Y-121712000D01*
X164867635Y-121569655D01*
X165130655Y-121306635D01*
X165273000Y-120962983D01*
X165273000Y-120591017D01*
X165130655Y-120247365D01*
X165025290Y-120142000D01*
X165130655Y-120036635D01*
X165273000Y-119692983D01*
X165273000Y-119321017D01*
X165130655Y-118977365D01*
X164867635Y-118714345D01*
X164523983Y-118572000D01*
X164152017Y-118572000D01*
X163808365Y-118714345D01*
X163775710Y-118747000D01*
X163142846Y-118747000D01*
X163067999Y-118732112D01*
X162993152Y-118747000D01*
X162993148Y-118747000D01*
X162771463Y-118791096D01*
X162771461Y-118791097D01*
X162771462Y-118791097D01*
X162583526Y-118916671D01*
X162583524Y-118916673D01*
X162520071Y-118959071D01*
X162477672Y-119022525D01*
X162245198Y-119255000D01*
X153561655Y-119255000D01*
X153446655Y-118977365D01*
X153319240Y-118849950D01*
X153620085Y-118725345D01*
X154035051Y-118349438D01*
X154152662Y-118100937D01*
X154270273Y-118349438D01*
X154685239Y-118725345D01*
X155073623Y-118886208D01*
X155295662Y-118764219D01*
X155295662Y-117621304D01*
X155549662Y-117621304D01*
X155549662Y-118764219D01*
X155771701Y-118886208D01*
X156160085Y-118725345D01*
X156575051Y-118349438D01*
X156692662Y-118100937D01*
X156810273Y-118349438D01*
X157225239Y-118725345D01*
X157613623Y-118886208D01*
X157835662Y-118764219D01*
X157835662Y-117621304D01*
X158089662Y-117621304D01*
X158089662Y-118764219D01*
X158311701Y-118886208D01*
X158700085Y-118725345D01*
X159115051Y-118349438D01*
X159354576Y-117843345D01*
X159233291Y-117621304D01*
X158089662Y-117621304D01*
X157835662Y-117621304D01*
X155549662Y-117621304D01*
X155295662Y-117621304D01*
X153009662Y-117621304D01*
X153009662Y-117641304D01*
X152755662Y-117641304D01*
X152755662Y-117621304D01*
X152735662Y-117621304D01*
X152735662Y-117367304D01*
X152755662Y-117367304D01*
X152755662Y-116224389D01*
X153009662Y-116224389D01*
X153009662Y-117367304D01*
X155295662Y-117367304D01*
X155295662Y-116224389D01*
X155549662Y-116224389D01*
X155549662Y-117367304D01*
X157835662Y-117367304D01*
X157835662Y-116224389D01*
X158089662Y-116224389D01*
X158089662Y-117367304D01*
X159233291Y-117367304D01*
X159354576Y-117145263D01*
X159115051Y-116639170D01*
X158700085Y-116263263D01*
X158311701Y-116102400D01*
X158089662Y-116224389D01*
X157835662Y-116224389D01*
X157613623Y-116102400D01*
X157225239Y-116263263D01*
X156810273Y-116639170D01*
X156692662Y-116887671D01*
X156575051Y-116639170D01*
X156160085Y-116263263D01*
X155771701Y-116102400D01*
X155549662Y-116224389D01*
X155295662Y-116224389D01*
X155073623Y-116102400D01*
X154685239Y-116263263D01*
X154270273Y-116639170D01*
X154152662Y-116887671D01*
X154035051Y-116639170D01*
X153620085Y-116263263D01*
X153231701Y-116102400D01*
X153009662Y-116224389D01*
X152755662Y-116224389D01*
X152533623Y-116102400D01*
X152145239Y-116263263D01*
X151730273Y-116639170D01*
X151633609Y-116843412D01*
X151377239Y-116459727D01*
X150902571Y-116142564D01*
X150483995Y-116059304D01*
X150201329Y-116059304D01*
X150018776Y-116095616D01*
X148627689Y-114704530D01*
X148585287Y-114641071D01*
X148333895Y-114473096D01*
X148112210Y-114429000D01*
X148112205Y-114429000D01*
X148037358Y-114414112D01*
X147962511Y-114429000D01*
X146868801Y-114429000D01*
X150023809Y-111273993D01*
X150201329Y-111309304D01*
X150483995Y-111309304D01*
X150902571Y-111226044D01*
X151083625Y-111105068D01*
X151462334Y-111483778D01*
X151504734Y-111547234D01*
X151756126Y-111715209D01*
X151977811Y-111759305D01*
X151977816Y-111759305D01*
X152052663Y-111774193D01*
X152127510Y-111759305D01*
X154222814Y-111759305D01*
X154297661Y-111774193D01*
X154372508Y-111759305D01*
X154372513Y-111759305D01*
X154594198Y-111715209D01*
X154845590Y-111547234D01*
X154887992Y-111483775D01*
X155098775Y-111272992D01*
X155281329Y-111309304D01*
X155563995Y-111309304D01*
X155982571Y-111226044D01*
X156457239Y-110908881D01*
X156692662Y-110556546D01*
X156928085Y-110908881D01*
X157402753Y-111226044D01*
X157821329Y-111309304D01*
X158103995Y-111309304D01*
X158522571Y-111226044D01*
X158752001Y-111072744D01*
X158752001Y-114480790D01*
X158737112Y-114555642D01*
X158796097Y-114852179D01*
X158891015Y-114994233D01*
X158964072Y-115103571D01*
X159027528Y-115145971D01*
X161352333Y-117470777D01*
X161394733Y-117534233D01*
X161545222Y-117634787D01*
X161545222Y-117836304D01*
X161594505Y-118084069D01*
X161734853Y-118294113D01*
X161944897Y-118434461D01*
X162192662Y-118483744D01*
X163892662Y-118483744D01*
X164140427Y-118434461D01*
X164315687Y-118317355D01*
X164372964Y-118374631D01*
X164606353Y-118471304D01*
X165296912Y-118471304D01*
X165455662Y-118312554D01*
X165455662Y-117113304D01*
X165435662Y-117113304D01*
X165435662Y-116859304D01*
X165455662Y-116859304D01*
X165455662Y-114573304D01*
X165435662Y-114573304D01*
X165435662Y-114319304D01*
X165455662Y-114319304D01*
X165455662Y-112033304D01*
X165435662Y-112033304D01*
X165435662Y-111779304D01*
X165455662Y-111779304D01*
X165455662Y-109493304D01*
X165435662Y-109493304D01*
X165435662Y-109239304D01*
X165455662Y-109239304D01*
X165455662Y-106953304D01*
X165435662Y-106953304D01*
X165435662Y-106699304D01*
X165455662Y-106699304D01*
X165455662Y-104413304D01*
X165435662Y-104413304D01*
X165435662Y-104159304D01*
X165455662Y-104159304D01*
X165455662Y-101873304D01*
X165435662Y-101873304D01*
X165435662Y-101619304D01*
X165455662Y-101619304D01*
X165455662Y-99333304D01*
X165435662Y-99333304D01*
X165435662Y-99079304D01*
X165455662Y-99079304D01*
X165455662Y-97885485D01*
X165709662Y-97885485D01*
X165709662Y-99079304D01*
X165729662Y-99079304D01*
X165729662Y-99333304D01*
X165709662Y-99333304D01*
X165709662Y-101619304D01*
X165729662Y-101619304D01*
X165729662Y-101873304D01*
X165709662Y-101873304D01*
X165709662Y-104159304D01*
X165729662Y-104159304D01*
X165729662Y-104413304D01*
X165709662Y-104413304D01*
X165709662Y-106699304D01*
X165729662Y-106699304D01*
X165729662Y-106953304D01*
X165709662Y-106953304D01*
X165709662Y-109239304D01*
X165729662Y-109239304D01*
X165729662Y-109493304D01*
X165709662Y-109493304D01*
X165709662Y-111779304D01*
X165729662Y-111779304D01*
X165729662Y-112033304D01*
X165709662Y-112033304D01*
X165709662Y-114319304D01*
X165729662Y-114319304D01*
X165729662Y-114573304D01*
X165709662Y-114573304D01*
X165709662Y-116859304D01*
X165729662Y-116859304D01*
X165729662Y-117113304D01*
X165709662Y-117113304D01*
X165709662Y-118312554D01*
X165868412Y-118471304D01*
X166558971Y-118471304D01*
X166792360Y-118374631D01*
X166849637Y-118317355D01*
X167024897Y-118434461D01*
X167272662Y-118483744D01*
X168972662Y-118483744D01*
X169220427Y-118434461D01*
X169430471Y-118294113D01*
X169570819Y-118084069D01*
X169620102Y-117836304D01*
X169620102Y-116136304D01*
X169570819Y-115888539D01*
X169430471Y-115678495D01*
X169220427Y-115538147D01*
X169175043Y-115529120D01*
X169193287Y-115516929D01*
X169521501Y-115025722D01*
X169636754Y-114446304D01*
X169521501Y-113866886D01*
X169193287Y-113375679D01*
X168894901Y-113176304D01*
X169193287Y-112976929D01*
X169521501Y-112485722D01*
X169636754Y-111906304D01*
X169521501Y-111326886D01*
X169193287Y-110835679D01*
X168894901Y-110636304D01*
X169193287Y-110436929D01*
X169521501Y-109945722D01*
X169636754Y-109366304D01*
X169521501Y-108786886D01*
X169193287Y-108295679D01*
X168894901Y-108096304D01*
X169193287Y-107896929D01*
X169521501Y-107405722D01*
X169636754Y-106826304D01*
X169521501Y-106246886D01*
X169242947Y-105830000D01*
X174270560Y-105830000D01*
X174270560Y-107530000D01*
X174319843Y-107777765D01*
X174460191Y-107987809D01*
X174670235Y-108128157D01*
X174773708Y-108148739D01*
X174496355Y-108453076D01*
X174326524Y-108863110D01*
X174447845Y-109093000D01*
X175641000Y-109093000D01*
X175641000Y-109073000D01*
X175895000Y-109073000D01*
X175895000Y-109093000D01*
X177088155Y-109093000D01*
X177209476Y-108863110D01*
X177039645Y-108453076D01*
X176762292Y-108148739D01*
X176865765Y-108128157D01*
X177075809Y-107987809D01*
X177216157Y-107777765D01*
X177265440Y-107530000D01*
X177265440Y-105830000D01*
X177216157Y-105582235D01*
X177075809Y-105372191D01*
X176865765Y-105231843D01*
X176618000Y-105182560D01*
X174918000Y-105182560D01*
X174670235Y-105231843D01*
X174460191Y-105372191D01*
X174319843Y-105582235D01*
X174270560Y-105830000D01*
X169242947Y-105830000D01*
X169193287Y-105755679D01*
X168894901Y-105556304D01*
X169193287Y-105356929D01*
X169521501Y-104865722D01*
X169636754Y-104286304D01*
X169521501Y-103706886D01*
X169193287Y-103215679D01*
X168894901Y-103016304D01*
X169193287Y-102816929D01*
X169521501Y-102325722D01*
X169636754Y-101746304D01*
X169521501Y-101166886D01*
X169193287Y-100675679D01*
X168894901Y-100476304D01*
X169193287Y-100276929D01*
X169521501Y-99785722D01*
X169636754Y-99206304D01*
X169521501Y-98626886D01*
X169193287Y-98135679D01*
X168702080Y-97807465D01*
X168268918Y-97721304D01*
X167976406Y-97721304D01*
X167543244Y-97807465D01*
X167052037Y-98135679D01*
X166851309Y-98436090D01*
X166464020Y-98011121D01*
X165939554Y-97764818D01*
X165709662Y-97885485D01*
X165455662Y-97885485D01*
X165225770Y-97764818D01*
X164701304Y-98011121D01*
X164314015Y-98436090D01*
X164113287Y-98135679D01*
X163622080Y-97807465D01*
X163188918Y-97721304D01*
X162896406Y-97721304D01*
X162463244Y-97807465D01*
X161972037Y-98135679D01*
X161764484Y-98446304D01*
X159435440Y-98446304D01*
X159435440Y-97625000D01*
X159386157Y-97377235D01*
X159245809Y-97167191D01*
X159035765Y-97026843D01*
X158788000Y-96977560D01*
X157188000Y-96977560D01*
X156940235Y-97026843D01*
X156730191Y-97167191D01*
X156589843Y-97377235D01*
X156563215Y-97511106D01*
X156482577Y-97390423D01*
X156007909Y-97073260D01*
X155589333Y-96990000D01*
X155306667Y-96990000D01*
X154888091Y-97073260D01*
X154413423Y-97390423D01*
X154178000Y-97742758D01*
X153942577Y-97390423D01*
X153467909Y-97073260D01*
X153049333Y-96990000D01*
X152766667Y-96990000D01*
X152348091Y-97073260D01*
X151873423Y-97390423D01*
X151638000Y-97742758D01*
X151402577Y-97390423D01*
X150927909Y-97073260D01*
X150509333Y-96990000D01*
X150226667Y-96990000D01*
X149808091Y-97073260D01*
X149333423Y-97390423D01*
X149098000Y-97742758D01*
X148862577Y-97390423D01*
X148387909Y-97073260D01*
X147969333Y-96990000D01*
X147686667Y-96990000D01*
X147268091Y-97073260D01*
X146793423Y-97390423D01*
X146537053Y-97774108D01*
X146440389Y-97569866D01*
X146025423Y-97193959D01*
X145637039Y-97033096D01*
X145415000Y-97155085D01*
X145415000Y-98298000D01*
X145435000Y-98298000D01*
X145435000Y-98552000D01*
X145415000Y-98552000D01*
X145415000Y-99694915D01*
X145637039Y-99816904D01*
X146025423Y-99656041D01*
X146440389Y-99280134D01*
X146537053Y-99075892D01*
X146793423Y-99459577D01*
X147268091Y-99776740D01*
X147686667Y-99860000D01*
X147969333Y-99860000D01*
X148151886Y-99823688D01*
X151138166Y-102809969D01*
X150377878Y-102809969D01*
X150303031Y-102795081D01*
X150228184Y-102809969D01*
X150228179Y-102809969D01*
X150006494Y-102854065D01*
X149755102Y-103022040D01*
X149712702Y-103085496D01*
X148151887Y-104646312D01*
X147969333Y-104610000D01*
X147686667Y-104610000D01*
X147268091Y-104693260D01*
X146793423Y-105010423D01*
X146558000Y-105362758D01*
X146322577Y-105010423D01*
X145847909Y-104693260D01*
X145429333Y-104610000D01*
X145146667Y-104610000D01*
X144728091Y-104693260D01*
X144253423Y-105010423D01*
X144018000Y-105362758D01*
X143782577Y-105010423D01*
X143307909Y-104693260D01*
X142889333Y-104610000D01*
X142606667Y-104610000D01*
X142188091Y-104693260D01*
X141713423Y-105010423D01*
X141478000Y-105362758D01*
X141242577Y-105010423D01*
X140767909Y-104693260D01*
X140349333Y-104610000D01*
X140066667Y-104610000D01*
X139648091Y-104693260D01*
X139173423Y-105010423D01*
X138856260Y-105485091D01*
X138744887Y-106045000D01*
X138856260Y-106604909D01*
X139173423Y-107079577D01*
X139648091Y-107396740D01*
X140066667Y-107480000D01*
X140349333Y-107480000D01*
X140767909Y-107396740D01*
X141242577Y-107079577D01*
X141478000Y-106727242D01*
X141713423Y-107079577D01*
X142188091Y-107396740D01*
X142606667Y-107480000D01*
X142889333Y-107480000D01*
X143071887Y-107443688D01*
X143732684Y-108104486D01*
X143775082Y-108167940D01*
X143838535Y-108210338D01*
X143838537Y-108210340D01*
X143924518Y-108267790D01*
X144026474Y-108335915D01*
X144248159Y-108380011D01*
X144248163Y-108380011D01*
X144323010Y-108394899D01*
X144397857Y-108380011D01*
X149438570Y-108380011D01*
X149661884Y-108603326D01*
X149308085Y-108839727D01*
X149072662Y-109192062D01*
X148837239Y-108839727D01*
X148362571Y-108522564D01*
X147943995Y-108439304D01*
X147661329Y-108439304D01*
X147242753Y-108522564D01*
X146768085Y-108839727D01*
X146532662Y-109192062D01*
X146297239Y-108839727D01*
X145822571Y-108522564D01*
X145403995Y-108439304D01*
X145121329Y-108439304D01*
X144702753Y-108522564D01*
X144228085Y-108839727D01*
X143992662Y-109192062D01*
X143757239Y-108839727D01*
X143282571Y-108522564D01*
X142863995Y-108439304D01*
X142581329Y-108439304D01*
X142162753Y-108522564D01*
X141688085Y-108839727D01*
X141452662Y-109192062D01*
X141217239Y-108839727D01*
X140742571Y-108522564D01*
X140323995Y-108439304D01*
X140041329Y-108439304D01*
X139622753Y-108522564D01*
X139148085Y-108839727D01*
X138830922Y-109314395D01*
X138719549Y-109874304D01*
X138803236Y-110295024D01*
X137158000Y-108649789D01*
X137158000Y-98841488D01*
X137171416Y-98774041D01*
X138816086Y-98774041D01*
X139055611Y-99280134D01*
X139470577Y-99656041D01*
X139858961Y-99816904D01*
X140081000Y-99694915D01*
X140081000Y-98552000D01*
X140335000Y-98552000D01*
X140335000Y-99694915D01*
X140557039Y-99816904D01*
X140945423Y-99656041D01*
X141360389Y-99280134D01*
X141478000Y-99031633D01*
X141595611Y-99280134D01*
X142010577Y-99656041D01*
X142398961Y-99816904D01*
X142621000Y-99694915D01*
X142621000Y-98552000D01*
X142875000Y-98552000D01*
X142875000Y-99694915D01*
X143097039Y-99816904D01*
X143485423Y-99656041D01*
X143900389Y-99280134D01*
X144018000Y-99031633D01*
X144135611Y-99280134D01*
X144550577Y-99656041D01*
X144938961Y-99816904D01*
X145161000Y-99694915D01*
X145161000Y-98552000D01*
X142875000Y-98552000D01*
X142621000Y-98552000D01*
X140335000Y-98552000D01*
X140081000Y-98552000D01*
X138937371Y-98552000D01*
X138816086Y-98774041D01*
X137171416Y-98774041D01*
X137172888Y-98766641D01*
X137158000Y-98691794D01*
X137158000Y-98691790D01*
X137113904Y-98470105D01*
X137033751Y-98350148D01*
X136988329Y-98282168D01*
X136988327Y-98282166D01*
X136945929Y-98218713D01*
X136882476Y-98176315D01*
X136782120Y-98075959D01*
X138816086Y-98075959D01*
X138937371Y-98298000D01*
X140081000Y-98298000D01*
X140081000Y-97155085D01*
X140335000Y-97155085D01*
X140335000Y-98298000D01*
X142621000Y-98298000D01*
X142621000Y-97155085D01*
X142875000Y-97155085D01*
X142875000Y-98298000D01*
X145161000Y-98298000D01*
X145161000Y-97155085D01*
X144938961Y-97033096D01*
X144550577Y-97193959D01*
X144135611Y-97569866D01*
X144018000Y-97818367D01*
X143900389Y-97569866D01*
X143485423Y-97193959D01*
X143097039Y-97033096D01*
X142875000Y-97155085D01*
X142621000Y-97155085D01*
X142398961Y-97033096D01*
X142010577Y-97193959D01*
X141595611Y-97569866D01*
X141478000Y-97818367D01*
X141360389Y-97569866D01*
X140945423Y-97193959D01*
X140557039Y-97033096D01*
X140335000Y-97155085D01*
X140081000Y-97155085D01*
X139858961Y-97033096D01*
X139470577Y-97193959D01*
X139055611Y-97569866D01*
X138816086Y-98075959D01*
X136782120Y-98075959D01*
X134887993Y-96181834D01*
X134845591Y-96118375D01*
X134695102Y-96017821D01*
X134695102Y-95816304D01*
X134645819Y-95568539D01*
X134505471Y-95358495D01*
X134295427Y-95218147D01*
X134047662Y-95168864D01*
X132347662Y-95168864D01*
X132099897Y-95218147D01*
X131924637Y-95335253D01*
X131867360Y-95277977D01*
X131633971Y-95181304D01*
X130943412Y-95181304D01*
X130784662Y-95340054D01*
X130784662Y-96539304D01*
X130804662Y-96539304D01*
X130804662Y-96793304D01*
X130784662Y-96793304D01*
X130784662Y-99079304D01*
X130804662Y-99079304D01*
X130804662Y-99333304D01*
X130784662Y-99333304D01*
X130784662Y-101619304D01*
X130804662Y-101619304D01*
X130804662Y-101873304D01*
X130784662Y-101873304D01*
X130784662Y-104159304D01*
X130804662Y-104159304D01*
X130804662Y-104413304D01*
X130784662Y-104413304D01*
X130784662Y-106699304D01*
X130804662Y-106699304D01*
X130804662Y-106953304D01*
X130784662Y-106953304D01*
X130784662Y-109239304D01*
X130804662Y-109239304D01*
X130804662Y-109493304D01*
X130784662Y-109493304D01*
X130784662Y-111779304D01*
X130804662Y-111779304D01*
X130804662Y-112033304D01*
X130784662Y-112033304D01*
X130784662Y-114319304D01*
X130804662Y-114319304D01*
X130804662Y-114573304D01*
X130784662Y-114573304D01*
X130784662Y-115767123D01*
X131014554Y-115887790D01*
X131539020Y-115641487D01*
X131926309Y-115216518D01*
X132127037Y-115516929D01*
X132618244Y-115845143D01*
X133051406Y-115931304D01*
X133343918Y-115931304D01*
X133564070Y-115887513D01*
X135655332Y-117978776D01*
X135697733Y-118042233D01*
X135949125Y-118210208D01*
X136170810Y-118254304D01*
X136170815Y-118254304D01*
X136245662Y-118269192D01*
X136320509Y-118254304D01*
X138735222Y-118254304D01*
X138735222Y-118294304D01*
X138784505Y-118542069D01*
X138924853Y-118752113D01*
X139134897Y-118892461D01*
X139382662Y-118941744D01*
X140982662Y-118941744D01*
X141230427Y-118892461D01*
X141440471Y-118752113D01*
X141580819Y-118542069D01*
X141607447Y-118408198D01*
X141688085Y-118528881D01*
X142162753Y-118846044D01*
X142581329Y-118929304D01*
X142863995Y-118929304D01*
X143282571Y-118846044D01*
X143757239Y-118528881D01*
X143992662Y-118176546D01*
X144228085Y-118528881D01*
X144702753Y-118846044D01*
X145121329Y-118929304D01*
X145403995Y-118929304D01*
X145586548Y-118892992D01*
X148209031Y-121515476D01*
X148251429Y-121578929D01*
X148314882Y-121621327D01*
X148314884Y-121621329D01*
X148440260Y-121705102D01*
X148502821Y-121746904D01*
X148724506Y-121791000D01*
X148724510Y-121791000D01*
X148799357Y-121805888D01*
X148874204Y-121791000D01*
X161381599Y-121791000D01*
X161745652Y-122155054D01*
X161213275Y-122260950D01*
X160717570Y-122592170D01*
X160386350Y-123087876D01*
X160299400Y-123525003D01*
X160299400Y-124124998D01*
X160386350Y-124562125D01*
X160657547Y-124968000D01*
X157858452Y-124968000D01*
X158129650Y-124562124D01*
X158216600Y-124124997D01*
X158216600Y-123525002D01*
X158129650Y-123087875D01*
X157798430Y-122592170D01*
X157302724Y-122260950D01*
X156718000Y-122144641D01*
X156133275Y-122260950D01*
X155637570Y-122592170D01*
X155444091Y-122881733D01*
X155080036Y-122474268D01*
X154552791Y-122220291D01*
X154537026Y-122217642D01*
X154305000Y-122338783D01*
X154305000Y-123698000D01*
X154325000Y-123698000D01*
X154325000Y-123952000D01*
X154305000Y-123952000D01*
X154305000Y-123972000D01*
X154051000Y-123972000D01*
X154051000Y-123952000D01*
X151765000Y-123952000D01*
X151765000Y-123972000D01*
X151511000Y-123972000D01*
X151511000Y-123952000D01*
X151491000Y-123952000D01*
X151491000Y-123698000D01*
X151511000Y-123698000D01*
X151511000Y-122338783D01*
X151765000Y-122338783D01*
X151765000Y-123698000D01*
X154051000Y-123698000D01*
X154051000Y-122338783D01*
X153818974Y-122217642D01*
X153803209Y-122220291D01*
X153275964Y-122474268D01*
X152908000Y-122886108D01*
X152540036Y-122474268D01*
X152012791Y-122220291D01*
X151997026Y-122217642D01*
X151765000Y-122338783D01*
X151511000Y-122338783D01*
X151278974Y-122217642D01*
X151263209Y-122220291D01*
X150735964Y-122474268D01*
X150371910Y-122881732D01*
X150178430Y-122592170D01*
X149682724Y-122260950D01*
X149098000Y-122144641D01*
X148513275Y-122260950D01*
X148017570Y-122592170D01*
X147828000Y-122875881D01*
X147638430Y-122592170D01*
X147142724Y-122260950D01*
X146558000Y-122144641D01*
X145973275Y-122260950D01*
X145477570Y-122592170D01*
X145288000Y-122875881D01*
X145098430Y-122592170D01*
X144753664Y-122361805D01*
X144733904Y-122262463D01*
X144565929Y-122011071D01*
X144520964Y-121981026D01*
X144490919Y-121936061D01*
X144239527Y-121768086D01*
X144017842Y-121723990D01*
X144017837Y-121723990D01*
X143942990Y-121709102D01*
X143868143Y-121723990D01*
X136543856Y-121723990D01*
X136469009Y-121709102D01*
X136394162Y-121723990D01*
X136394158Y-121723990D01*
X136172473Y-121768086D01*
X136172471Y-121768087D01*
X136172472Y-121768087D01*
X135984536Y-121893661D01*
X135984534Y-121893663D01*
X135921081Y-121936061D01*
X135878682Y-121999515D01*
X135494408Y-122383791D01*
X135274256Y-122340000D01*
X134981744Y-122340000D01*
X134548582Y-122426161D01*
X134057375Y-122754375D01*
X134045184Y-122772619D01*
X134036157Y-122727235D01*
X133895809Y-122517191D01*
X133685765Y-122376843D01*
X133438000Y-122327560D01*
X131738000Y-122327560D01*
X131490235Y-122376843D01*
X131280191Y-122517191D01*
X131139843Y-122727235D01*
X131090560Y-122975000D01*
X131090560Y-124675000D01*
X131139843Y-124922765D01*
X131170068Y-124968000D01*
X127381294Y-124968000D01*
X127635000Y-124355499D01*
X127635000Y-123294501D01*
X127228974Y-122314266D01*
X126478734Y-121564026D01*
X125498499Y-121158000D01*
X124437501Y-121158000D01*
X123457266Y-121564026D01*
X122707026Y-122314266D01*
X122301000Y-123294501D01*
X122301000Y-124355499D01*
X122554706Y-124968000D01*
X112395000Y-124968000D01*
X112395000Y-99206304D01*
X126603570Y-99206304D01*
X126718823Y-99785722D01*
X127047037Y-100276929D01*
X127345423Y-100476304D01*
X127047037Y-100675679D01*
X126718823Y-101166886D01*
X126603570Y-101746304D01*
X126718823Y-102325722D01*
X127047037Y-102816929D01*
X127345423Y-103016304D01*
X127047037Y-103215679D01*
X126718823Y-103706886D01*
X126603570Y-104286304D01*
X126718823Y-104865722D01*
X127047037Y-105356929D01*
X127345423Y-105556304D01*
X127047037Y-105755679D01*
X126718823Y-106246886D01*
X126603570Y-106826304D01*
X126718823Y-107405722D01*
X127047037Y-107896929D01*
X127345423Y-108096304D01*
X127047037Y-108295679D01*
X126718823Y-108786886D01*
X126603570Y-109366304D01*
X126718823Y-109945722D01*
X127047037Y-110436929D01*
X127345423Y-110636304D01*
X127047037Y-110835679D01*
X126718823Y-111326886D01*
X126603570Y-111906304D01*
X126718823Y-112485722D01*
X127047037Y-112976929D01*
X127345423Y-113176304D01*
X127047037Y-113375679D01*
X126718823Y-113866886D01*
X126603570Y-114446304D01*
X126718823Y-115025722D01*
X127047037Y-115516929D01*
X127538244Y-115845143D01*
X127971406Y-115931304D01*
X128263918Y-115931304D01*
X128697080Y-115845143D01*
X129188287Y-115516929D01*
X129389015Y-115216518D01*
X129776304Y-115641487D01*
X130300770Y-115887790D01*
X130530662Y-115767123D01*
X130530662Y-114573304D01*
X130510662Y-114573304D01*
X130510662Y-114319304D01*
X130530662Y-114319304D01*
X130530662Y-112033304D01*
X130510662Y-112033304D01*
X130510662Y-111779304D01*
X130530662Y-111779304D01*
X130530662Y-109493304D01*
X130510662Y-109493304D01*
X130510662Y-109239304D01*
X130530662Y-109239304D01*
X130530662Y-106953304D01*
X130510662Y-106953304D01*
X130510662Y-106699304D01*
X130530662Y-106699304D01*
X130530662Y-104413304D01*
X130510662Y-104413304D01*
X130510662Y-104159304D01*
X130530662Y-104159304D01*
X130530662Y-101873304D01*
X130510662Y-101873304D01*
X130510662Y-101619304D01*
X130530662Y-101619304D01*
X130530662Y-99333304D01*
X130510662Y-99333304D01*
X130510662Y-99079304D01*
X130530662Y-99079304D01*
X130530662Y-96793304D01*
X130510662Y-96793304D01*
X130510662Y-96539304D01*
X130530662Y-96539304D01*
X130530662Y-95340054D01*
X130371912Y-95181304D01*
X129681353Y-95181304D01*
X129447964Y-95277977D01*
X129390687Y-95335253D01*
X129215427Y-95218147D01*
X128967662Y-95168864D01*
X127267662Y-95168864D01*
X127019897Y-95218147D01*
X126809853Y-95358495D01*
X126669505Y-95568539D01*
X126620222Y-95816304D01*
X126620222Y-97516304D01*
X126669505Y-97764069D01*
X126809853Y-97974113D01*
X127019897Y-98114461D01*
X127065281Y-98123488D01*
X127047037Y-98135679D01*
X126718823Y-98626886D01*
X126603570Y-99206304D01*
X112395000Y-99206304D01*
X112395000Y-74422000D01*
X123824706Y-74422000D01*
X123571000Y-75034501D01*
G36*
X155306350Y-74827876D02*
X155219400Y-75265003D01*
X155219400Y-75864998D01*
X155265225Y-76095374D01*
X153153527Y-78207072D01*
X153090071Y-78249472D01*
X153047671Y-78312928D01*
X153047670Y-78312929D01*
X152922096Y-78500864D01*
X152863111Y-78797401D01*
X152878000Y-78872253D01*
X152877999Y-86849154D01*
X152863111Y-86924001D01*
X152877999Y-86998848D01*
X152877999Y-86998852D01*
X152922095Y-87220537D01*
X153090070Y-87471930D01*
X153153528Y-87514331D01*
X153658671Y-88019476D01*
X153701070Y-88082930D01*
X153764523Y-88125328D01*
X153764525Y-88125330D01*
X153889901Y-88209103D01*
X153952462Y-88250905D01*
X154174147Y-88295001D01*
X154174151Y-88295001D01*
X154248998Y-88309889D01*
X154323845Y-88295001D01*
X158213200Y-88295001D01*
X160508198Y-90590000D01*
X160381744Y-90590000D01*
X159948582Y-90676161D01*
X159457375Y-91004375D01*
X159244157Y-91323478D01*
X159183183Y-91193642D01*
X158754924Y-90803355D01*
X158344890Y-90633524D01*
X158115000Y-90754845D01*
X158115000Y-91948000D01*
X158135000Y-91948000D01*
X158135000Y-92202000D01*
X158115000Y-92202000D01*
X158115000Y-92222000D01*
X157861000Y-92222000D01*
X157861000Y-92202000D01*
X157841000Y-92202000D01*
X157841000Y-91948000D01*
X157861000Y-91948000D01*
X157861000Y-90754845D01*
X157631110Y-90633524D01*
X157221076Y-90803355D01*
X156916739Y-91080708D01*
X156896157Y-90977235D01*
X156755809Y-90767191D01*
X156545765Y-90626843D01*
X156298000Y-90577560D01*
X154598000Y-90577560D01*
X154350235Y-90626843D01*
X154140191Y-90767191D01*
X153999843Y-90977235D01*
X153967467Y-91140000D01*
X152480290Y-91140000D01*
X152234252Y-90893963D01*
X152310809Y-90842809D01*
X152451157Y-90632765D01*
X152500440Y-90385000D01*
X152500440Y-88685000D01*
X152451157Y-88437235D01*
X152310809Y-88227191D01*
X152100765Y-88086843D01*
X152055381Y-88077816D01*
X152073625Y-88065625D01*
X152401839Y-87574418D01*
X152517092Y-86995000D01*
X152401839Y-86415582D01*
X152073625Y-85924375D01*
X151582418Y-85596161D01*
X151149256Y-85510000D01*
X150856744Y-85510000D01*
X150843020Y-85512730D01*
X149537816Y-84207527D01*
X149611157Y-84097765D01*
X149660440Y-83850000D01*
X149660440Y-82427440D01*
X149805560Y-82427440D01*
X149805560Y-83575000D01*
X149875777Y-83928003D01*
X150075736Y-84227264D01*
X150374997Y-84427223D01*
X150728000Y-84497440D01*
X151278000Y-84497440D01*
X151631003Y-84427223D01*
X151930264Y-84227264D01*
X152130223Y-83928003D01*
X152200440Y-83575000D01*
X152200440Y-82325000D01*
X152130223Y-81971997D01*
X151930264Y-81672736D01*
X151631003Y-81472777D01*
X151278000Y-81402560D01*
X150930440Y-81402560D01*
X150930440Y-80255000D01*
X150860223Y-79901997D01*
X150660264Y-79602736D01*
X150361003Y-79402777D01*
X150008000Y-79332560D01*
X149458000Y-79332560D01*
X149104997Y-79402777D01*
X148805736Y-79602736D01*
X148605777Y-79901997D01*
X148535560Y-80255000D01*
X148535560Y-81402560D01*
X147913000Y-81402560D01*
X147665235Y-81451843D01*
X147455191Y-81592191D01*
X147314843Y-81802235D01*
X147265560Y-82050000D01*
X147265560Y-83850000D01*
X147314843Y-84097765D01*
X147455191Y-84307809D01*
X147528001Y-84356459D01*
X147528001Y-84362910D01*
X147509683Y-84455000D01*
X147582250Y-84819818D01*
X147712606Y-85014909D01*
X147788904Y-85129097D01*
X147866970Y-85181259D01*
X149520730Y-86835020D01*
X149488908Y-86995000D01*
X149604161Y-87574418D01*
X149932375Y-88065625D01*
X149950619Y-88077816D01*
X149905235Y-88086843D01*
X149695191Y-88227191D01*
X149554843Y-88437235D01*
X149522467Y-88600000D01*
X143995802Y-88600000D01*
X145518473Y-87077329D01*
X145581929Y-87034929D01*
X145642237Y-86944672D01*
X145749904Y-86783538D01*
X145775850Y-86653097D01*
X145794000Y-86561852D01*
X145794000Y-86561848D01*
X145808888Y-86487000D01*
X145794000Y-86412152D01*
X145794000Y-78921290D01*
X145826655Y-78888635D01*
X145969000Y-78544983D01*
X145969000Y-78374999D01*
X148141554Y-78374999D01*
X148216401Y-78389887D01*
X148291248Y-78374999D01*
X148291253Y-78374999D01*
X148512938Y-78330903D01*
X148764330Y-78162928D01*
X148806732Y-78099469D01*
X149736026Y-77170175D01*
X150114000Y-77245359D01*
X150698725Y-77129050D01*
X151194430Y-76797830D01*
X151384000Y-76514119D01*
X151573570Y-76797830D01*
X152069276Y-77129050D01*
X152654000Y-77245359D01*
X153238725Y-77129050D01*
X153734430Y-76797830D01*
X154065650Y-76302124D01*
X154152600Y-75864997D01*
X154152600Y-75265002D01*
X154065650Y-74827875D01*
X153794453Y-74422000D01*
X155577548Y-74422000D01*
X155306350Y-74827876D01*
X155306350Y-74827876D01*
G37*
X155306350Y-74827876D02*
X155219400Y-75265003D01*
X155219400Y-75864998D01*
X155265225Y-76095374D01*
X153153527Y-78207072D01*
X153090071Y-78249472D01*
X153047671Y-78312928D01*
X153047670Y-78312929D01*
X152922096Y-78500864D01*
X152863111Y-78797401D01*
X152878000Y-78872253D01*
X152877999Y-86849154D01*
X152863111Y-86924001D01*
X152877999Y-86998848D01*
X152877999Y-86998852D01*
X152922095Y-87220537D01*
X153090070Y-87471930D01*
X153153528Y-87514331D01*
X153658671Y-88019476D01*
X153701070Y-88082930D01*
X153764523Y-88125328D01*
X153764525Y-88125330D01*
X153889901Y-88209103D01*
X153952462Y-88250905D01*
X154174147Y-88295001D01*
X154174151Y-88295001D01*
X154248998Y-88309889D01*
X154323845Y-88295001D01*
X158213200Y-88295001D01*
X160508198Y-90590000D01*
X160381744Y-90590000D01*
X159948582Y-90676161D01*
X159457375Y-91004375D01*
X159244157Y-91323478D01*
X159183183Y-91193642D01*
X158754924Y-90803355D01*
X158344890Y-90633524D01*
X158115000Y-90754845D01*
X158115000Y-91948000D01*
X158135000Y-91948000D01*
X158135000Y-92202000D01*
X158115000Y-92202000D01*
X158115000Y-92222000D01*
X157861000Y-92222000D01*
X157861000Y-92202000D01*
X157841000Y-92202000D01*
X157841000Y-91948000D01*
X157861000Y-91948000D01*
X157861000Y-90754845D01*
X157631110Y-90633524D01*
X157221076Y-90803355D01*
X156916739Y-91080708D01*
X156896157Y-90977235D01*
X156755809Y-90767191D01*
X156545765Y-90626843D01*
X156298000Y-90577560D01*
X154598000Y-90577560D01*
X154350235Y-90626843D01*
X154140191Y-90767191D01*
X153999843Y-90977235D01*
X153967467Y-91140000D01*
X152480290Y-91140000D01*
X152234252Y-90893963D01*
X152310809Y-90842809D01*
X152451157Y-90632765D01*
X152500440Y-90385000D01*
X152500440Y-88685000D01*
X152451157Y-88437235D01*
X152310809Y-88227191D01*
X152100765Y-88086843D01*
X152055381Y-88077816D01*
X152073625Y-88065625D01*
X152401839Y-87574418D01*
X152517092Y-86995000D01*
X152401839Y-86415582D01*
X152073625Y-85924375D01*
X151582418Y-85596161D01*
X151149256Y-85510000D01*
X150856744Y-85510000D01*
X150843020Y-85512730D01*
X149537816Y-84207527D01*
X149611157Y-84097765D01*
X149660440Y-83850000D01*
X149660440Y-82427440D01*
X149805560Y-82427440D01*
X149805560Y-83575000D01*
X149875777Y-83928003D01*
X150075736Y-84227264D01*
X150374997Y-84427223D01*
X150728000Y-84497440D01*
X151278000Y-84497440D01*
X151631003Y-84427223D01*
X151930264Y-84227264D01*
X152130223Y-83928003D01*
X152200440Y-83575000D01*
X152200440Y-82325000D01*
X152130223Y-81971997D01*
X151930264Y-81672736D01*
X151631003Y-81472777D01*
X151278000Y-81402560D01*
X150930440Y-81402560D01*
X150930440Y-80255000D01*
X150860223Y-79901997D01*
X150660264Y-79602736D01*
X150361003Y-79402777D01*
X150008000Y-79332560D01*
X149458000Y-79332560D01*
X149104997Y-79402777D01*
X148805736Y-79602736D01*
X148605777Y-79901997D01*
X148535560Y-80255000D01*
X148535560Y-81402560D01*
X147913000Y-81402560D01*
X147665235Y-81451843D01*
X147455191Y-81592191D01*
X147314843Y-81802235D01*
X147265560Y-82050000D01*
X147265560Y-83850000D01*
X147314843Y-84097765D01*
X147455191Y-84307809D01*
X147528001Y-84356459D01*
X147528001Y-84362910D01*
X147509683Y-84455000D01*
X147582250Y-84819818D01*
X147712606Y-85014909D01*
X147788904Y-85129097D01*
X147866970Y-85181259D01*
X149520730Y-86835020D01*
X149488908Y-86995000D01*
X149604161Y-87574418D01*
X149932375Y-88065625D01*
X149950619Y-88077816D01*
X149905235Y-88086843D01*
X149695191Y-88227191D01*
X149554843Y-88437235D01*
X149522467Y-88600000D01*
X143995802Y-88600000D01*
X145518473Y-87077329D01*
X145581929Y-87034929D01*
X145642237Y-86944672D01*
X145749904Y-86783538D01*
X145775850Y-86653097D01*
X145794000Y-86561852D01*
X145794000Y-86561848D01*
X145808888Y-86487000D01*
X145794000Y-86412152D01*
X145794000Y-78921290D01*
X145826655Y-78888635D01*
X145969000Y-78544983D01*
X145969000Y-78374999D01*
X148141554Y-78374999D01*
X148216401Y-78389887D01*
X148291248Y-78374999D01*
X148291253Y-78374999D01*
X148512938Y-78330903D01*
X148764330Y-78162928D01*
X148806732Y-78099469D01*
X149736026Y-77170175D01*
X150114000Y-77245359D01*
X150698725Y-77129050D01*
X151194430Y-76797830D01*
X151384000Y-76514119D01*
X151573570Y-76797830D01*
X152069276Y-77129050D01*
X152654000Y-77245359D01*
X153238725Y-77129050D01*
X153734430Y-76797830D01*
X154065650Y-76302124D01*
X154152600Y-75864997D01*
X154152600Y-75265002D01*
X154065650Y-74827875D01*
X153794453Y-74422000D01*
X155577548Y-74422000D01*
X155306350Y-74827876D01*
G36*
X144099000Y-78544983D02*
X144241345Y-78888635D01*
X144274000Y-78921290D01*
X144274001Y-86172197D01*
X141713980Y-88732218D01*
X141606839Y-88193582D01*
X141278625Y-87702375D01*
X140980239Y-87503000D01*
X141278625Y-87303625D01*
X141606839Y-86812418D01*
X141722092Y-86233000D01*
X141606839Y-85653582D01*
X141278625Y-85162375D01*
X140959522Y-84949157D01*
X141089358Y-84888183D01*
X141479645Y-84459924D01*
X141649476Y-84049890D01*
X141528155Y-83820000D01*
X140335000Y-83820000D01*
X140335000Y-83840000D01*
X140081000Y-83840000D01*
X140081000Y-83820000D01*
X138887845Y-83820000D01*
X138766524Y-84049890D01*
X138936355Y-84459924D01*
X139326642Y-84888183D01*
X139456478Y-84949157D01*
X139137375Y-85162375D01*
X138929631Y-85473286D01*
X138709382Y-85517096D01*
X138457990Y-85685071D01*
X138415588Y-85748530D01*
X138199530Y-85964588D01*
X138136071Y-86006990D01*
X137968096Y-86258383D01*
X137924000Y-86480068D01*
X137924000Y-86480072D01*
X137909112Y-86554919D01*
X137924000Y-86629766D01*
X137924001Y-89220197D01*
X136625440Y-90518759D01*
X136625440Y-89320000D01*
X136576157Y-89072235D01*
X136435809Y-88862191D01*
X136225765Y-88721843D01*
X136063000Y-88689467D01*
X136063000Y-87341081D01*
X136081316Y-87248999D01*
X136063000Y-87156915D01*
X136063000Y-87156914D01*
X136008750Y-86884181D01*
X135802097Y-86574903D01*
X135724031Y-86522741D01*
X134793000Y-85591711D01*
X134793000Y-85549396D01*
X135074534Y-85267862D01*
X135293000Y-84740439D01*
X135293000Y-84169561D01*
X135074534Y-83642138D01*
X134670862Y-83238466D01*
X134158000Y-83026031D01*
X134158000Y-82125533D01*
X134320765Y-82093157D01*
X134328483Y-82088000D01*
X138727467Y-82088000D01*
X138759843Y-82250765D01*
X138900191Y-82460809D01*
X139110235Y-82601157D01*
X139213708Y-82621739D01*
X138936355Y-82926076D01*
X138766524Y-83336110D01*
X138887845Y-83566000D01*
X140081000Y-83566000D01*
X140081000Y-83546000D01*
X140335000Y-83546000D01*
X140335000Y-83566000D01*
X141528155Y-83566000D01*
X141649476Y-83336110D01*
X141479645Y-82926076D01*
X141202292Y-82621739D01*
X141305765Y-82601157D01*
X141515809Y-82460809D01*
X141656157Y-82250765D01*
X141705440Y-82003000D01*
X141705440Y-80303000D01*
X141656157Y-80055235D01*
X141515809Y-79845191D01*
X141305765Y-79704843D01*
X141058000Y-79655560D01*
X139358000Y-79655560D01*
X139110235Y-79704843D01*
X138900191Y-79845191D01*
X138759843Y-80055235D01*
X138727467Y-80218000D01*
X137005391Y-80218000D01*
X138848394Y-78374999D01*
X144099000Y-78374999D01*
X144099000Y-78544983D01*
X144099000Y-78544983D01*
G37*
X144099000Y-78544983D02*
X144241345Y-78888635D01*
X144274000Y-78921290D01*
X144274001Y-86172197D01*
X141713980Y-88732218D01*
X141606839Y-88193582D01*
X141278625Y-87702375D01*
X140980239Y-87503000D01*
X141278625Y-87303625D01*
X141606839Y-86812418D01*
X141722092Y-86233000D01*
X141606839Y-85653582D01*
X141278625Y-85162375D01*
X140959522Y-84949157D01*
X141089358Y-84888183D01*
X141479645Y-84459924D01*
X141649476Y-84049890D01*
X141528155Y-83820000D01*
X140335000Y-83820000D01*
X140335000Y-83840000D01*
X140081000Y-83840000D01*
X140081000Y-83820000D01*
X138887845Y-83820000D01*
X138766524Y-84049890D01*
X138936355Y-84459924D01*
X139326642Y-84888183D01*
X139456478Y-84949157D01*
X139137375Y-85162375D01*
X138929631Y-85473286D01*
X138709382Y-85517096D01*
X138457990Y-85685071D01*
X138415588Y-85748530D01*
X138199530Y-85964588D01*
X138136071Y-86006990D01*
X137968096Y-86258383D01*
X137924000Y-86480068D01*
X137924000Y-86480072D01*
X137909112Y-86554919D01*
X137924000Y-86629766D01*
X137924001Y-89220197D01*
X136625440Y-90518759D01*
X136625440Y-89320000D01*
X136576157Y-89072235D01*
X136435809Y-88862191D01*
X136225765Y-88721843D01*
X136063000Y-88689467D01*
X136063000Y-87341081D01*
X136081316Y-87248999D01*
X136063000Y-87156915D01*
X136063000Y-87156914D01*
X136008750Y-86884181D01*
X135802097Y-86574903D01*
X135724031Y-86522741D01*
X134793000Y-85591711D01*
X134793000Y-85549396D01*
X135074534Y-85267862D01*
X135293000Y-84740439D01*
X135293000Y-84169561D01*
X135074534Y-83642138D01*
X134670862Y-83238466D01*
X134158000Y-83026031D01*
X134158000Y-82125533D01*
X134320765Y-82093157D01*
X134328483Y-82088000D01*
X138727467Y-82088000D01*
X138759843Y-82250765D01*
X138900191Y-82460809D01*
X139110235Y-82601157D01*
X139213708Y-82621739D01*
X138936355Y-82926076D01*
X138766524Y-83336110D01*
X138887845Y-83566000D01*
X140081000Y-83566000D01*
X140081000Y-83546000D01*
X140335000Y-83546000D01*
X140335000Y-83566000D01*
X141528155Y-83566000D01*
X141649476Y-83336110D01*
X141479645Y-82926076D01*
X141202292Y-82621739D01*
X141305765Y-82601157D01*
X141515809Y-82460809D01*
X141656157Y-82250765D01*
X141705440Y-82003000D01*
X141705440Y-80303000D01*
X141656157Y-80055235D01*
X141515809Y-79845191D01*
X141305765Y-79704843D01*
X141058000Y-79655560D01*
X139358000Y-79655560D01*
X139110235Y-79704843D01*
X138900191Y-79845191D01*
X138759843Y-80055235D01*
X138727467Y-80218000D01*
X137005391Y-80218000D01*
X138848394Y-78374999D01*
X144099000Y-78374999D01*
X144099000Y-78544983D01*
G36*
X137541000Y-75438000D02*
X137561000Y-75438000D01*
X137561000Y-75692000D01*
X137541000Y-75692000D01*
X137541000Y-77051217D01*
X137773026Y-77172358D01*
X137788791Y-77169709D01*
X137977971Y-77078580D01*
X137943264Y-77130523D01*
X135967399Y-79106390D01*
X135941604Y-79111521D01*
X135893461Y-79121097D01*
X135799717Y-79183735D01*
X135772382Y-79202000D01*
X135704017Y-79202000D01*
X135360365Y-79344345D01*
X135097345Y-79607365D01*
X134955000Y-79951017D01*
X134955000Y-80218000D01*
X134720440Y-80218000D01*
X134720440Y-79795000D01*
X134671157Y-79547235D01*
X134530809Y-79337191D01*
X134320765Y-79196843D01*
X134073000Y-79147560D01*
X132373000Y-79147560D01*
X132125235Y-79196843D01*
X131915191Y-79337191D01*
X131774843Y-79547235D01*
X131754261Y-79650708D01*
X131449924Y-79373355D01*
X131039890Y-79203524D01*
X130810000Y-79324845D01*
X130810000Y-80518000D01*
X130830000Y-80518000D01*
X130830000Y-80772000D01*
X130810000Y-80772000D01*
X130810000Y-81965155D01*
X131039890Y-82086476D01*
X131449924Y-81916645D01*
X131754261Y-81639292D01*
X131774843Y-81742765D01*
X131915191Y-81952809D01*
X132125235Y-82093157D01*
X132288000Y-82125533D01*
X132288001Y-83727910D01*
X132269683Y-83820000D01*
X132342250Y-84184818D01*
X132423000Y-84305669D01*
X132423000Y-84740439D01*
X132641466Y-85267862D01*
X132923001Y-85549397D01*
X132923001Y-85886910D01*
X132904683Y-85979000D01*
X132977250Y-86343818D01*
X133122936Y-86561852D01*
X133183904Y-86653097D01*
X133261970Y-86705259D01*
X134193000Y-87636290D01*
X134193000Y-88689467D01*
X134030235Y-88721843D01*
X133820191Y-88862191D01*
X133679843Y-89072235D01*
X133659261Y-89175708D01*
X133354924Y-88898355D01*
X132944890Y-88728524D01*
X132715000Y-88849845D01*
X132715000Y-90043000D01*
X132735000Y-90043000D01*
X132735000Y-90297000D01*
X132715000Y-90297000D01*
X132715000Y-90317000D01*
X132461000Y-90317000D01*
X132461000Y-90297000D01*
X132441000Y-90297000D01*
X132441000Y-90043000D01*
X132461000Y-90043000D01*
X132461000Y-88849845D01*
X132231110Y-88728524D01*
X131821076Y-88898355D01*
X131392817Y-89288642D01*
X131331843Y-89418478D01*
X131118625Y-89099375D01*
X130808000Y-88891822D01*
X130808000Y-82624848D01*
X130822888Y-82550000D01*
X130808000Y-82475152D01*
X130808000Y-82475148D01*
X130763904Y-82253463D01*
X130763904Y-82253462D01*
X130638329Y-82065527D01*
X130595929Y-82002071D01*
X130547441Y-81969672D01*
X130556000Y-81965155D01*
X130556000Y-80772000D01*
X130536000Y-80772000D01*
X130536000Y-80518000D01*
X130556000Y-80518000D01*
X130556000Y-79324845D01*
X130504974Y-79297917D01*
X130509904Y-79290538D01*
X130538344Y-79147560D01*
X130554000Y-79068852D01*
X130554000Y-79068848D01*
X130568888Y-78994000D01*
X130554000Y-78919152D01*
X130554000Y-77011935D01*
X130874430Y-76797830D01*
X131064000Y-76514119D01*
X131253570Y-76797830D01*
X131749276Y-77129050D01*
X132334000Y-77245359D01*
X132918725Y-77129050D01*
X133414430Y-76797830D01*
X133604000Y-76514119D01*
X133793570Y-76797830D01*
X134289276Y-77129050D01*
X134874000Y-77245359D01*
X135458725Y-77129050D01*
X135954430Y-76797830D01*
X136147909Y-76508267D01*
X136511964Y-76915732D01*
X137039209Y-77169709D01*
X137054974Y-77172358D01*
X137287000Y-77051217D01*
X137287000Y-75692000D01*
X137267000Y-75692000D01*
X137267000Y-75438000D01*
X137287000Y-75438000D01*
X137287000Y-75418000D01*
X137541000Y-75418000D01*
X137541000Y-75438000D01*
X137541000Y-75438000D01*
G37*
X137541000Y-75438000D02*
X137561000Y-75438000D01*
X137561000Y-75692000D01*
X137541000Y-75692000D01*
X137541000Y-77051217D01*
X137773026Y-77172358D01*
X137788791Y-77169709D01*
X137977971Y-77078580D01*
X137943264Y-77130523D01*
X135967399Y-79106390D01*
X135941604Y-79111521D01*
X135893461Y-79121097D01*
X135799717Y-79183735D01*
X135772382Y-79202000D01*
X135704017Y-79202000D01*
X135360365Y-79344345D01*
X135097345Y-79607365D01*
X134955000Y-79951017D01*
X134955000Y-80218000D01*
X134720440Y-80218000D01*
X134720440Y-79795000D01*
X134671157Y-79547235D01*
X134530809Y-79337191D01*
X134320765Y-79196843D01*
X134073000Y-79147560D01*
X132373000Y-79147560D01*
X132125235Y-79196843D01*
X131915191Y-79337191D01*
X131774843Y-79547235D01*
X131754261Y-79650708D01*
X131449924Y-79373355D01*
X131039890Y-79203524D01*
X130810000Y-79324845D01*
X130810000Y-80518000D01*
X130830000Y-80518000D01*
X130830000Y-80772000D01*
X130810000Y-80772000D01*
X130810000Y-81965155D01*
X131039890Y-82086476D01*
X131449924Y-81916645D01*
X131754261Y-81639292D01*
X131774843Y-81742765D01*
X131915191Y-81952809D01*
X132125235Y-82093157D01*
X132288000Y-82125533D01*
X132288001Y-83727910D01*
X132269683Y-83820000D01*
X132342250Y-84184818D01*
X132423000Y-84305669D01*
X132423000Y-84740439D01*
X132641466Y-85267862D01*
X132923001Y-85549397D01*
X132923001Y-85886910D01*
X132904683Y-85979000D01*
X132977250Y-86343818D01*
X133122936Y-86561852D01*
X133183904Y-86653097D01*
X133261970Y-86705259D01*
X134193000Y-87636290D01*
X134193000Y-88689467D01*
X134030235Y-88721843D01*
X133820191Y-88862191D01*
X133679843Y-89072235D01*
X133659261Y-89175708D01*
X133354924Y-88898355D01*
X132944890Y-88728524D01*
X132715000Y-88849845D01*
X132715000Y-90043000D01*
X132735000Y-90043000D01*
X132735000Y-90297000D01*
X132715000Y-90297000D01*
X132715000Y-90317000D01*
X132461000Y-90317000D01*
X132461000Y-90297000D01*
X132441000Y-90297000D01*
X132441000Y-90043000D01*
X132461000Y-90043000D01*
X132461000Y-88849845D01*
X132231110Y-88728524D01*
X131821076Y-88898355D01*
X131392817Y-89288642D01*
X131331843Y-89418478D01*
X131118625Y-89099375D01*
X130808000Y-88891822D01*
X130808000Y-82624848D01*
X130822888Y-82550000D01*
X130808000Y-82475152D01*
X130808000Y-82475148D01*
X130763904Y-82253463D01*
X130763904Y-82253462D01*
X130638329Y-82065527D01*
X130595929Y-82002071D01*
X130547441Y-81969672D01*
X130556000Y-81965155D01*
X130556000Y-80772000D01*
X130536000Y-80772000D01*
X130536000Y-80518000D01*
X130556000Y-80518000D01*
X130556000Y-79324845D01*
X130504974Y-79297917D01*
X130509904Y-79290538D01*
X130538344Y-79147560D01*
X130554000Y-79068852D01*
X130554000Y-79068848D01*
X130568888Y-78994000D01*
X130554000Y-78919152D01*
X130554000Y-77011935D01*
X130874430Y-76797830D01*
X131064000Y-76514119D01*
X131253570Y-76797830D01*
X131749276Y-77129050D01*
X132334000Y-77245359D01*
X132918725Y-77129050D01*
X133414430Y-76797830D01*
X133604000Y-76514119D01*
X133793570Y-76797830D01*
X134289276Y-77129050D01*
X134874000Y-77245359D01*
X135458725Y-77129050D01*
X135954430Y-76797830D01*
X136147909Y-76508267D01*
X136511964Y-76915732D01*
X137039209Y-77169709D01*
X137054974Y-77172358D01*
X137287000Y-77051217D01*
X137287000Y-75692000D01*
X137267000Y-75692000D01*
X137267000Y-75438000D01*
X137287000Y-75438000D01*
X137287000Y-75418000D01*
X137541000Y-75418000D01*
X137541000Y-75438000D01*
G04 #@! TD*
M02*
