G04 #@! TF.GenerationSoftware,KiCad,Pcbnew,(5.0.2)-1*
G04 #@! TF.CreationDate,2019-02-14T15:25:09-08:00*
G04 #@! TF.ProjectId,BareRotary,42617265-526f-4746-9172-792e6b696361,rev?*
G04 #@! TF.SameCoordinates,Original*
G04 #@! TF.FileFunction,Copper,L2,Bot*
G04 #@! TF.FilePolarity,Positive*
%FSLAX46Y46*%
G04 Gerber Fmt 4.6, Leading zero omitted, Abs format (unit mm)*
G04 Created by KiCad (PCBNEW (5.0.2)-1) date 2/14/2019 3:25:09 PM*
%MOMM*%
%LPD*%
G01*
G04 APERTURE LIST*
G04 #@! TA.AperFunction,ComponentPad*
%ADD10R,1.700000X1.700000*%
G04 #@! TD*
G04 #@! TA.AperFunction,ComponentPad*
%ADD11O,1.700000X1.700000*%
G04 #@! TD*
G04 #@! TA.AperFunction,ComponentPad*
%ADD12O,1.500000X1.500000*%
G04 #@! TD*
G04 #@! TA.AperFunction,ComponentPad*
%ADD13C,1.524000*%
G04 #@! TD*
G04 #@! TA.AperFunction,Conductor*
%ADD14C,0.250000*%
G04 #@! TD*
G04 APERTURE END LIST*
D10*
G04 #@! TO.P,J1,1*
G04 #@! TO.N,Net-(J1-Pad1)*
X116078000Y-44958000D03*
D11*
G04 #@! TO.P,J1,2*
G04 #@! TO.N,Net-(J1-Pad2)*
X118618000Y-44958000D03*
G04 #@! TO.P,J1,3*
G04 #@! TO.N,Net-(J1-Pad3)*
X116078000Y-47498000D03*
G04 #@! TO.P,J1,4*
G04 #@! TO.N,Net-(J1-Pad4)*
X118618000Y-47498000D03*
G04 #@! TO.P,J1,5*
G04 #@! TO.N,Net-(J1-Pad5)*
X116078000Y-50038000D03*
G04 #@! TO.P,J1,6*
G04 #@! TO.N,Net-(J1-Pad6)*
X118618000Y-50038000D03*
G04 #@! TO.P,J1,7*
G04 #@! TO.N,Net-(J1-Pad7)*
X116078000Y-52578000D03*
G04 #@! TO.P,J1,8*
G04 #@! TO.N,Net-(J1-Pad8)*
X118618000Y-52578000D03*
G04 #@! TO.P,J1,9*
G04 #@! TO.N,Net-(J1-Pad9)*
X116078000Y-55118000D03*
G04 #@! TO.P,J1,10*
G04 #@! TO.N,Net-(J1-Pad10)*
X118618000Y-55118000D03*
G04 #@! TO.P,J1,11*
G04 #@! TO.N,Net-(J1-Pad11)*
X116078000Y-57658000D03*
G04 #@! TO.P,J1,12*
G04 #@! TO.N,Net-(J1-Pad12)*
X118618000Y-57658000D03*
G04 #@! TD*
D12*
G04 #@! TO.P,SW1,6*
G04 #@! TO.N,Net-(J1-Pad6)*
X103477896Y-41534261D03*
G04 #@! TO.P,SW1,7*
G04 #@! TO.N,Net-(J1-Pad7)*
X108072845Y-44187156D03*
G04 #@! TO.P,SW1,8*
G04 #@! TO.N,Net-(J1-Pad8)*
X110725740Y-48782105D03*
G04 #@! TO.P,SW1,9*
G04 #@! TO.N,Net-(J1-Pad9)*
X110725740Y-54087895D03*
G04 #@! TO.P,SW1,10*
G04 #@! TO.N,Net-(J1-Pad10)*
X108072845Y-58682844D03*
G04 #@! TO.P,SW1,11*
G04 #@! TO.N,Net-(J1-Pad11)*
X103477896Y-61335739D03*
G04 #@! TO.P,SW1,1*
G04 #@! TO.N,Net-(SW1-Pad1)*
X93577157Y-58682844D03*
G04 #@! TO.P,SW1,2*
G04 #@! TO.N,Net-(J1-Pad2)*
X90924262Y-54087895D03*
G04 #@! TO.P,SW1,3*
G04 #@! TO.N,Net-(J1-Pad3)*
X90924262Y-48782105D03*
G04 #@! TO.P,SW1,4*
G04 #@! TO.N,Net-(J1-Pad4)*
X93577157Y-44187156D03*
G04 #@! TO.P,SW1,5*
G04 #@! TO.N,Net-(J1-Pad5)*
X98172106Y-41534261D03*
D13*
G04 #@! TO.P,SW1,13*
G04 #@! TO.N,Net-(J1-Pad1)*
X100825001Y-45935000D03*
G04 #@! TD*
D14*
G04 #@! TO.N,Net-(J1-Pad2)*
X91674261Y-53337896D02*
X90924262Y-54087895D01*
X94652158Y-50359999D02*
X91674261Y-53337896D01*
X94652158Y-43463207D02*
X94652158Y-50359999D01*
X97656105Y-40459260D02*
X94652158Y-43463207D01*
X114119260Y-40459260D02*
X97656105Y-40459260D01*
X118618000Y-44958000D02*
X114119260Y-40459260D01*
G04 #@! TO.N,Net-(J1-Pad3)*
X96164060Y-40009251D02*
X90924262Y-45249049D01*
X90924262Y-45249049D02*
X90924262Y-47721445D01*
X115408253Y-40009251D02*
X96164060Y-40009251D01*
X119793001Y-45522001D02*
X119793001Y-44393999D01*
X90924262Y-47721445D02*
X90924262Y-48782105D01*
X118992003Y-46322999D02*
X119793001Y-45522001D01*
X117253001Y-46322999D02*
X118992003Y-46322999D01*
X119793001Y-44393999D02*
X115408253Y-40009251D01*
X116078000Y-47498000D02*
X117253001Y-46322999D01*
G04 #@! TO.N,Net-(J1-Pad5)*
X98922105Y-42284260D02*
X98172106Y-41534261D01*
X99750000Y-43112155D02*
X98922105Y-42284260D01*
X109152155Y-43112155D02*
X99750000Y-43112155D01*
X116078000Y-50038000D02*
X109152155Y-43112155D01*
G04 #@! TO.N,Net-(J1-Pad6)*
X117768001Y-49188001D02*
X118618000Y-50038000D01*
X117442999Y-48862999D02*
X117768001Y-49188001D01*
X115703997Y-48862999D02*
X117442999Y-48862999D01*
X109125258Y-42284260D02*
X115703997Y-48862999D01*
X104227895Y-42284260D02*
X109125258Y-42284260D01*
X103477896Y-41534261D02*
X104227895Y-42284260D01*
G04 #@! TO.N,Net-(J1-Pad7)*
X108072845Y-44572845D02*
X108072845Y-44187156D01*
X116078000Y-52578000D02*
X108072845Y-44572845D01*
G04 #@! TO.N,Net-(J1-Pad8)*
X110725740Y-49842765D02*
X110725740Y-48782105D01*
X114635976Y-53753001D02*
X110725740Y-49842765D01*
X117442999Y-53753001D02*
X114635976Y-53753001D01*
X118618000Y-52578000D02*
X117442999Y-53753001D01*
G04 #@! TO.N,Net-(J1-Pad9)*
X111755845Y-55118000D02*
X116078000Y-55118000D01*
X110725740Y-54087895D02*
X111755845Y-55118000D01*
G04 #@! TO.N,Net-(J1-Pad10)*
X108822844Y-57932845D02*
X108072845Y-58682844D01*
X110462688Y-56293001D02*
X108822844Y-57932845D01*
X117442999Y-56293001D02*
X110462688Y-56293001D01*
X118618000Y-55118000D02*
X117442999Y-56293001D01*
G04 #@! TO.N,Net-(J1-Pad11)*
X115228001Y-58507999D02*
X116078000Y-57658000D01*
X111650262Y-62085738D02*
X115228001Y-58507999D01*
X104227895Y-62085738D02*
X111650262Y-62085738D01*
X103477896Y-61335739D02*
X104227895Y-62085738D01*
G04 #@! TD*
M02*
