G04 #@! TF.GenerationSoftware,KiCad,Pcbnew,(5.0.2)-1*
G04 #@! TF.CreationDate,2019-02-14T15:25:09-08:00*
G04 #@! TF.ProjectId,BareRotary,42617265-526f-4746-9172-792e6b696361,rev?*
G04 #@! TF.SameCoordinates,Original*
G04 #@! TF.FileFunction,Soldermask,Top*
G04 #@! TF.FilePolarity,Negative*
%FSLAX46Y46*%
G04 Gerber Fmt 4.6, Leading zero omitted, Abs format (unit mm)*
G04 Created by KiCad (PCBNEW (5.0.2)-1) date 2/14/2019 3:25:09 PM*
%MOMM*%
%LPD*%
G01*
G04 APERTURE LIST*
%ADD10C,0.100000*%
G04 APERTURE END LIST*
D10*
G36*
X101300734Y-65568232D02*
X101510202Y-65654996D01*
X101698723Y-65780962D01*
X101859038Y-65941277D01*
X101985004Y-66129798D01*
X102071768Y-66339266D01*
X102116000Y-66561635D01*
X102116000Y-66788365D01*
X102071768Y-67010734D01*
X101985004Y-67220202D01*
X101859038Y-67408723D01*
X101698723Y-67569038D01*
X101510202Y-67695004D01*
X101300734Y-67781768D01*
X101078365Y-67826000D01*
X100851635Y-67826000D01*
X100629266Y-67781768D01*
X100419798Y-67695004D01*
X100231277Y-67569038D01*
X100070962Y-67408723D01*
X99944996Y-67220202D01*
X99858232Y-67010734D01*
X99814000Y-66788365D01*
X99814000Y-66561635D01*
X99858232Y-66339266D01*
X99944996Y-66129798D01*
X100070962Y-65941277D01*
X100231277Y-65780962D01*
X100419798Y-65654996D01*
X100629266Y-65568232D01*
X100851635Y-65524000D01*
X101078365Y-65524000D01*
X101300734Y-65568232D01*
X101300734Y-65568232D01*
G37*
G36*
X117810734Y-62393232D02*
X118020202Y-62479996D01*
X118208723Y-62605962D01*
X118369038Y-62766277D01*
X118495004Y-62954798D01*
X118581768Y-63164266D01*
X118626000Y-63386635D01*
X118626000Y-63613365D01*
X118581768Y-63835734D01*
X118495004Y-64045202D01*
X118369038Y-64233723D01*
X118208723Y-64394038D01*
X118020202Y-64520004D01*
X117810734Y-64606768D01*
X117588365Y-64651000D01*
X117361635Y-64651000D01*
X117139266Y-64606768D01*
X116929798Y-64520004D01*
X116741277Y-64394038D01*
X116580962Y-64233723D01*
X116454996Y-64045202D01*
X116368232Y-63835734D01*
X116324000Y-63613365D01*
X116324000Y-63386635D01*
X116368232Y-63164266D01*
X116454996Y-62954798D01*
X116580962Y-62766277D01*
X116741277Y-62605962D01*
X116929798Y-62479996D01*
X117139266Y-62393232D01*
X117361635Y-62349000D01*
X117588365Y-62349000D01*
X117810734Y-62393232D01*
X117810734Y-62393232D01*
G37*
G36*
X103634921Y-60546329D02*
X103785908Y-60592131D01*
X103925061Y-60666509D01*
X104047029Y-60766606D01*
X104147126Y-60888574D01*
X104221504Y-61027727D01*
X104267306Y-61178714D01*
X104282771Y-61335739D01*
X104267306Y-61492764D01*
X104221504Y-61643751D01*
X104147126Y-61782904D01*
X104047029Y-61904872D01*
X103925061Y-62004969D01*
X103785908Y-62079347D01*
X103634921Y-62125149D01*
X103517242Y-62136739D01*
X103438550Y-62136739D01*
X103320871Y-62125149D01*
X103169884Y-62079347D01*
X103030731Y-62004969D01*
X102908763Y-61904872D01*
X102808666Y-61782904D01*
X102734288Y-61643751D01*
X102688486Y-61492764D01*
X102673021Y-61335739D01*
X102688486Y-61178714D01*
X102734288Y-61027727D01*
X102808666Y-60888574D01*
X102908763Y-60766606D01*
X103030731Y-60666509D01*
X103169884Y-60592131D01*
X103320871Y-60546329D01*
X103438550Y-60534739D01*
X103517242Y-60534739D01*
X103634921Y-60546329D01*
X103634921Y-60546329D01*
G37*
G36*
X93734182Y-57893434D02*
X93885169Y-57939236D01*
X94024322Y-58013614D01*
X94146290Y-58113711D01*
X94246387Y-58235679D01*
X94320765Y-58374832D01*
X94366567Y-58525819D01*
X94382032Y-58682844D01*
X94366567Y-58839869D01*
X94320765Y-58990856D01*
X94246387Y-59130009D01*
X94146290Y-59251977D01*
X94024322Y-59352074D01*
X93885169Y-59426452D01*
X93734182Y-59472254D01*
X93616503Y-59483844D01*
X93537811Y-59483844D01*
X93420132Y-59472254D01*
X93269145Y-59426452D01*
X93129992Y-59352074D01*
X93008024Y-59251977D01*
X92907927Y-59130009D01*
X92833549Y-58990856D01*
X92787747Y-58839869D01*
X92772282Y-58682844D01*
X92787747Y-58525819D01*
X92833549Y-58374832D01*
X92907927Y-58235679D01*
X93008024Y-58113711D01*
X93129992Y-58013614D01*
X93269145Y-57939236D01*
X93420132Y-57893434D01*
X93537811Y-57881844D01*
X93616503Y-57881844D01*
X93734182Y-57893434D01*
X93734182Y-57893434D01*
G37*
G36*
X108229870Y-57893434D02*
X108380857Y-57939236D01*
X108520010Y-58013614D01*
X108641978Y-58113711D01*
X108742075Y-58235679D01*
X108816453Y-58374832D01*
X108862255Y-58525819D01*
X108877720Y-58682844D01*
X108862255Y-58839869D01*
X108816453Y-58990856D01*
X108742075Y-59130009D01*
X108641978Y-59251977D01*
X108520010Y-59352074D01*
X108380857Y-59426452D01*
X108229870Y-59472254D01*
X108112191Y-59483844D01*
X108033499Y-59483844D01*
X107915820Y-59472254D01*
X107764833Y-59426452D01*
X107625680Y-59352074D01*
X107503712Y-59251977D01*
X107403615Y-59130009D01*
X107329237Y-58990856D01*
X107283435Y-58839869D01*
X107267970Y-58682844D01*
X107283435Y-58525819D01*
X107329237Y-58374832D01*
X107403615Y-58235679D01*
X107503712Y-58113711D01*
X107625680Y-58013614D01*
X107764833Y-57939236D01*
X107915820Y-57893434D01*
X108033499Y-57881844D01*
X108112191Y-57881844D01*
X108229870Y-57893434D01*
X108229870Y-57893434D01*
G37*
G36*
X118728443Y-56763519D02*
X118794627Y-56770037D01*
X118907853Y-56804384D01*
X118964467Y-56821557D01*
X119103087Y-56895652D01*
X119120991Y-56905222D01*
X119156729Y-56934552D01*
X119258186Y-57017814D01*
X119341448Y-57119271D01*
X119370778Y-57155009D01*
X119370779Y-57155011D01*
X119454443Y-57311533D01*
X119454443Y-57311534D01*
X119505963Y-57481373D01*
X119523359Y-57658000D01*
X119505963Y-57834627D01*
X119491640Y-57881844D01*
X119454443Y-58004467D01*
X119449553Y-58013615D01*
X119370778Y-58160991D01*
X119341448Y-58196729D01*
X119258186Y-58298186D01*
X119164791Y-58374832D01*
X119120991Y-58410778D01*
X119120989Y-58410779D01*
X118964467Y-58494443D01*
X118907853Y-58511616D01*
X118794627Y-58545963D01*
X118728443Y-58552481D01*
X118662260Y-58559000D01*
X118573740Y-58559000D01*
X118507557Y-58552481D01*
X118441373Y-58545963D01*
X118328147Y-58511616D01*
X118271533Y-58494443D01*
X118115011Y-58410779D01*
X118115009Y-58410778D01*
X118071209Y-58374832D01*
X117977814Y-58298186D01*
X117894552Y-58196729D01*
X117865222Y-58160991D01*
X117786447Y-58013615D01*
X117781557Y-58004467D01*
X117744360Y-57881844D01*
X117730037Y-57834627D01*
X117712641Y-57658000D01*
X117730037Y-57481373D01*
X117781557Y-57311534D01*
X117781557Y-57311533D01*
X117865221Y-57155011D01*
X117865222Y-57155009D01*
X117894552Y-57119271D01*
X117977814Y-57017814D01*
X118079271Y-56934552D01*
X118115009Y-56905222D01*
X118132913Y-56895652D01*
X118271533Y-56821557D01*
X118328147Y-56804384D01*
X118441373Y-56770037D01*
X118507557Y-56763519D01*
X118573740Y-56757000D01*
X118662260Y-56757000D01*
X118728443Y-56763519D01*
X118728443Y-56763519D01*
G37*
G36*
X116188443Y-56763519D02*
X116254627Y-56770037D01*
X116367853Y-56804384D01*
X116424467Y-56821557D01*
X116563087Y-56895652D01*
X116580991Y-56905222D01*
X116616729Y-56934552D01*
X116718186Y-57017814D01*
X116801448Y-57119271D01*
X116830778Y-57155009D01*
X116830779Y-57155011D01*
X116914443Y-57311533D01*
X116914443Y-57311534D01*
X116965963Y-57481373D01*
X116983359Y-57658000D01*
X116965963Y-57834627D01*
X116951640Y-57881844D01*
X116914443Y-58004467D01*
X116909553Y-58013615D01*
X116830778Y-58160991D01*
X116801448Y-58196729D01*
X116718186Y-58298186D01*
X116624791Y-58374832D01*
X116580991Y-58410778D01*
X116580989Y-58410779D01*
X116424467Y-58494443D01*
X116367853Y-58511616D01*
X116254627Y-58545963D01*
X116188443Y-58552481D01*
X116122260Y-58559000D01*
X116033740Y-58559000D01*
X115967557Y-58552481D01*
X115901373Y-58545963D01*
X115788147Y-58511616D01*
X115731533Y-58494443D01*
X115575011Y-58410779D01*
X115575009Y-58410778D01*
X115531209Y-58374832D01*
X115437814Y-58298186D01*
X115354552Y-58196729D01*
X115325222Y-58160991D01*
X115246447Y-58013615D01*
X115241557Y-58004467D01*
X115204360Y-57881844D01*
X115190037Y-57834627D01*
X115172641Y-57658000D01*
X115190037Y-57481373D01*
X115241557Y-57311534D01*
X115241557Y-57311533D01*
X115325221Y-57155011D01*
X115325222Y-57155009D01*
X115354552Y-57119271D01*
X115437814Y-57017814D01*
X115539271Y-56934552D01*
X115575009Y-56905222D01*
X115592913Y-56895652D01*
X115731533Y-56821557D01*
X115788147Y-56804384D01*
X115901373Y-56770037D01*
X115967557Y-56763519D01*
X116033740Y-56757000D01*
X116122260Y-56757000D01*
X116188443Y-56763519D01*
X116188443Y-56763519D01*
G37*
G36*
X118728442Y-54223518D02*
X118794627Y-54230037D01*
X118907853Y-54264384D01*
X118964467Y-54281557D01*
X119103087Y-54355652D01*
X119120991Y-54365222D01*
X119156729Y-54394552D01*
X119258186Y-54477814D01*
X119341448Y-54579271D01*
X119370778Y-54615009D01*
X119370779Y-54615011D01*
X119454443Y-54771533D01*
X119454443Y-54771534D01*
X119505963Y-54941373D01*
X119523359Y-55118000D01*
X119505963Y-55294627D01*
X119471616Y-55407853D01*
X119454443Y-55464467D01*
X119380348Y-55603087D01*
X119370778Y-55620991D01*
X119341448Y-55656729D01*
X119258186Y-55758186D01*
X119156729Y-55841448D01*
X119120991Y-55870778D01*
X119120989Y-55870779D01*
X118964467Y-55954443D01*
X118907853Y-55971616D01*
X118794627Y-56005963D01*
X118728443Y-56012481D01*
X118662260Y-56019000D01*
X118573740Y-56019000D01*
X118507557Y-56012481D01*
X118441373Y-56005963D01*
X118328147Y-55971616D01*
X118271533Y-55954443D01*
X118115011Y-55870779D01*
X118115009Y-55870778D01*
X118079271Y-55841448D01*
X117977814Y-55758186D01*
X117894552Y-55656729D01*
X117865222Y-55620991D01*
X117855652Y-55603087D01*
X117781557Y-55464467D01*
X117764384Y-55407853D01*
X117730037Y-55294627D01*
X117712641Y-55118000D01*
X117730037Y-54941373D01*
X117781557Y-54771534D01*
X117781557Y-54771533D01*
X117865221Y-54615011D01*
X117865222Y-54615009D01*
X117894552Y-54579271D01*
X117977814Y-54477814D01*
X118079271Y-54394552D01*
X118115009Y-54365222D01*
X118132913Y-54355652D01*
X118271533Y-54281557D01*
X118328147Y-54264384D01*
X118441373Y-54230037D01*
X118507558Y-54223518D01*
X118573740Y-54217000D01*
X118662260Y-54217000D01*
X118728442Y-54223518D01*
X118728442Y-54223518D01*
G37*
G36*
X116188442Y-54223518D02*
X116254627Y-54230037D01*
X116367853Y-54264384D01*
X116424467Y-54281557D01*
X116563087Y-54355652D01*
X116580991Y-54365222D01*
X116616729Y-54394552D01*
X116718186Y-54477814D01*
X116801448Y-54579271D01*
X116830778Y-54615009D01*
X116830779Y-54615011D01*
X116914443Y-54771533D01*
X116914443Y-54771534D01*
X116965963Y-54941373D01*
X116983359Y-55118000D01*
X116965963Y-55294627D01*
X116931616Y-55407853D01*
X116914443Y-55464467D01*
X116840348Y-55603087D01*
X116830778Y-55620991D01*
X116801448Y-55656729D01*
X116718186Y-55758186D01*
X116616729Y-55841448D01*
X116580991Y-55870778D01*
X116580989Y-55870779D01*
X116424467Y-55954443D01*
X116367853Y-55971616D01*
X116254627Y-56005963D01*
X116188443Y-56012481D01*
X116122260Y-56019000D01*
X116033740Y-56019000D01*
X115967557Y-56012481D01*
X115901373Y-56005963D01*
X115788147Y-55971616D01*
X115731533Y-55954443D01*
X115575011Y-55870779D01*
X115575009Y-55870778D01*
X115539271Y-55841448D01*
X115437814Y-55758186D01*
X115354552Y-55656729D01*
X115325222Y-55620991D01*
X115315652Y-55603087D01*
X115241557Y-55464467D01*
X115224384Y-55407853D01*
X115190037Y-55294627D01*
X115172641Y-55118000D01*
X115190037Y-54941373D01*
X115241557Y-54771534D01*
X115241557Y-54771533D01*
X115325221Y-54615011D01*
X115325222Y-54615009D01*
X115354552Y-54579271D01*
X115437814Y-54477814D01*
X115539271Y-54394552D01*
X115575009Y-54365222D01*
X115592913Y-54355652D01*
X115731533Y-54281557D01*
X115788147Y-54264384D01*
X115901373Y-54230037D01*
X115967558Y-54223518D01*
X116033740Y-54217000D01*
X116122260Y-54217000D01*
X116188442Y-54223518D01*
X116188442Y-54223518D01*
G37*
G36*
X91081287Y-53298485D02*
X91232274Y-53344287D01*
X91371427Y-53418665D01*
X91493395Y-53518762D01*
X91593492Y-53640730D01*
X91667870Y-53779883D01*
X91713672Y-53930870D01*
X91729137Y-54087895D01*
X91713672Y-54244920D01*
X91667870Y-54395907D01*
X91593492Y-54535060D01*
X91493395Y-54657028D01*
X91371427Y-54757125D01*
X91232274Y-54831503D01*
X91081287Y-54877305D01*
X90963608Y-54888895D01*
X90884916Y-54888895D01*
X90767237Y-54877305D01*
X90616250Y-54831503D01*
X90477097Y-54757125D01*
X90355129Y-54657028D01*
X90255032Y-54535060D01*
X90180654Y-54395907D01*
X90134852Y-54244920D01*
X90119387Y-54087895D01*
X90134852Y-53930870D01*
X90180654Y-53779883D01*
X90255032Y-53640730D01*
X90355129Y-53518762D01*
X90477097Y-53418665D01*
X90616250Y-53344287D01*
X90767237Y-53298485D01*
X90884916Y-53286895D01*
X90963608Y-53286895D01*
X91081287Y-53298485D01*
X91081287Y-53298485D01*
G37*
G36*
X110882765Y-53298485D02*
X111033752Y-53344287D01*
X111172905Y-53418665D01*
X111294873Y-53518762D01*
X111394970Y-53640730D01*
X111469348Y-53779883D01*
X111515150Y-53930870D01*
X111530615Y-54087895D01*
X111515150Y-54244920D01*
X111469348Y-54395907D01*
X111394970Y-54535060D01*
X111294873Y-54657028D01*
X111172905Y-54757125D01*
X111033752Y-54831503D01*
X110882765Y-54877305D01*
X110765086Y-54888895D01*
X110686394Y-54888895D01*
X110568715Y-54877305D01*
X110417728Y-54831503D01*
X110278575Y-54757125D01*
X110156607Y-54657028D01*
X110056510Y-54535060D01*
X109982132Y-54395907D01*
X109936330Y-54244920D01*
X109920865Y-54087895D01*
X109936330Y-53930870D01*
X109982132Y-53779883D01*
X110056510Y-53640730D01*
X110156607Y-53518762D01*
X110278575Y-53418665D01*
X110417728Y-53344287D01*
X110568715Y-53298485D01*
X110686394Y-53286895D01*
X110765086Y-53286895D01*
X110882765Y-53298485D01*
X110882765Y-53298485D01*
G37*
G36*
X118728442Y-51683518D02*
X118794627Y-51690037D01*
X118907853Y-51724384D01*
X118964467Y-51741557D01*
X119103087Y-51815652D01*
X119120991Y-51825222D01*
X119156729Y-51854552D01*
X119258186Y-51937814D01*
X119341448Y-52039271D01*
X119370778Y-52075009D01*
X119370779Y-52075011D01*
X119454443Y-52231533D01*
X119454443Y-52231534D01*
X119505963Y-52401373D01*
X119523359Y-52578000D01*
X119505963Y-52754627D01*
X119471616Y-52867853D01*
X119454443Y-52924467D01*
X119380348Y-53063087D01*
X119370778Y-53080991D01*
X119341448Y-53116729D01*
X119258186Y-53218186D01*
X119160340Y-53298485D01*
X119120991Y-53330778D01*
X119120989Y-53330779D01*
X118964467Y-53414443D01*
X118950545Y-53418666D01*
X118794627Y-53465963D01*
X118728443Y-53472481D01*
X118662260Y-53479000D01*
X118573740Y-53479000D01*
X118507557Y-53472481D01*
X118441373Y-53465963D01*
X118285455Y-53418666D01*
X118271533Y-53414443D01*
X118115011Y-53330779D01*
X118115009Y-53330778D01*
X118075660Y-53298485D01*
X117977814Y-53218186D01*
X117894552Y-53116729D01*
X117865222Y-53080991D01*
X117855652Y-53063087D01*
X117781557Y-52924467D01*
X117764384Y-52867853D01*
X117730037Y-52754627D01*
X117712641Y-52578000D01*
X117730037Y-52401373D01*
X117781557Y-52231534D01*
X117781557Y-52231533D01*
X117865221Y-52075011D01*
X117865222Y-52075009D01*
X117894552Y-52039271D01*
X117977814Y-51937814D01*
X118079271Y-51854552D01*
X118115009Y-51825222D01*
X118132913Y-51815652D01*
X118271533Y-51741557D01*
X118328147Y-51724384D01*
X118441373Y-51690037D01*
X118507558Y-51683518D01*
X118573740Y-51677000D01*
X118662260Y-51677000D01*
X118728442Y-51683518D01*
X118728442Y-51683518D01*
G37*
G36*
X116188442Y-51683518D02*
X116254627Y-51690037D01*
X116367853Y-51724384D01*
X116424467Y-51741557D01*
X116563087Y-51815652D01*
X116580991Y-51825222D01*
X116616729Y-51854552D01*
X116718186Y-51937814D01*
X116801448Y-52039271D01*
X116830778Y-52075009D01*
X116830779Y-52075011D01*
X116914443Y-52231533D01*
X116914443Y-52231534D01*
X116965963Y-52401373D01*
X116983359Y-52578000D01*
X116965963Y-52754627D01*
X116931616Y-52867853D01*
X116914443Y-52924467D01*
X116840348Y-53063087D01*
X116830778Y-53080991D01*
X116801448Y-53116729D01*
X116718186Y-53218186D01*
X116620340Y-53298485D01*
X116580991Y-53330778D01*
X116580989Y-53330779D01*
X116424467Y-53414443D01*
X116410545Y-53418666D01*
X116254627Y-53465963D01*
X116188443Y-53472481D01*
X116122260Y-53479000D01*
X116033740Y-53479000D01*
X115967557Y-53472481D01*
X115901373Y-53465963D01*
X115745455Y-53418666D01*
X115731533Y-53414443D01*
X115575011Y-53330779D01*
X115575009Y-53330778D01*
X115535660Y-53298485D01*
X115437814Y-53218186D01*
X115354552Y-53116729D01*
X115325222Y-53080991D01*
X115315652Y-53063087D01*
X115241557Y-52924467D01*
X115224384Y-52867853D01*
X115190037Y-52754627D01*
X115172641Y-52578000D01*
X115190037Y-52401373D01*
X115241557Y-52231534D01*
X115241557Y-52231533D01*
X115325221Y-52075011D01*
X115325222Y-52075009D01*
X115354552Y-52039271D01*
X115437814Y-51937814D01*
X115539271Y-51854552D01*
X115575009Y-51825222D01*
X115592913Y-51815652D01*
X115731533Y-51741557D01*
X115788147Y-51724384D01*
X115901373Y-51690037D01*
X115967558Y-51683518D01*
X116033740Y-51677000D01*
X116122260Y-51677000D01*
X116188442Y-51683518D01*
X116188442Y-51683518D01*
G37*
G36*
X116188443Y-49143519D02*
X116254627Y-49150037D01*
X116367853Y-49184384D01*
X116424467Y-49201557D01*
X116563087Y-49275652D01*
X116580991Y-49285222D01*
X116616729Y-49314552D01*
X116718186Y-49397814D01*
X116801448Y-49499271D01*
X116830778Y-49535009D01*
X116830779Y-49535011D01*
X116914443Y-49691533D01*
X116914443Y-49691534D01*
X116965963Y-49861373D01*
X116983359Y-50038000D01*
X116965963Y-50214627D01*
X116931616Y-50327853D01*
X116914443Y-50384467D01*
X116840348Y-50523087D01*
X116830778Y-50540991D01*
X116801448Y-50576729D01*
X116718186Y-50678186D01*
X116616729Y-50761448D01*
X116580991Y-50790778D01*
X116580989Y-50790779D01*
X116424467Y-50874443D01*
X116367853Y-50891616D01*
X116254627Y-50925963D01*
X116188443Y-50932481D01*
X116122260Y-50939000D01*
X116033740Y-50939000D01*
X115967557Y-50932481D01*
X115901373Y-50925963D01*
X115788147Y-50891616D01*
X115731533Y-50874443D01*
X115575011Y-50790779D01*
X115575009Y-50790778D01*
X115539271Y-50761448D01*
X115437814Y-50678186D01*
X115354552Y-50576729D01*
X115325222Y-50540991D01*
X115315652Y-50523087D01*
X115241557Y-50384467D01*
X115224384Y-50327853D01*
X115190037Y-50214627D01*
X115172641Y-50038000D01*
X115190037Y-49861373D01*
X115241557Y-49691534D01*
X115241557Y-49691533D01*
X115325221Y-49535011D01*
X115325222Y-49535009D01*
X115354552Y-49499271D01*
X115437814Y-49397814D01*
X115539271Y-49314552D01*
X115575009Y-49285222D01*
X115592913Y-49275652D01*
X115731533Y-49201557D01*
X115788147Y-49184384D01*
X115901373Y-49150037D01*
X115967557Y-49143519D01*
X116033740Y-49137000D01*
X116122260Y-49137000D01*
X116188443Y-49143519D01*
X116188443Y-49143519D01*
G37*
G36*
X118728443Y-49143519D02*
X118794627Y-49150037D01*
X118907853Y-49184384D01*
X118964467Y-49201557D01*
X119103087Y-49275652D01*
X119120991Y-49285222D01*
X119156729Y-49314552D01*
X119258186Y-49397814D01*
X119341448Y-49499271D01*
X119370778Y-49535009D01*
X119370779Y-49535011D01*
X119454443Y-49691533D01*
X119454443Y-49691534D01*
X119505963Y-49861373D01*
X119523359Y-50038000D01*
X119505963Y-50214627D01*
X119471616Y-50327853D01*
X119454443Y-50384467D01*
X119380348Y-50523087D01*
X119370778Y-50540991D01*
X119341448Y-50576729D01*
X119258186Y-50678186D01*
X119156729Y-50761448D01*
X119120991Y-50790778D01*
X119120989Y-50790779D01*
X118964467Y-50874443D01*
X118907853Y-50891616D01*
X118794627Y-50925963D01*
X118728443Y-50932481D01*
X118662260Y-50939000D01*
X118573740Y-50939000D01*
X118507557Y-50932481D01*
X118441373Y-50925963D01*
X118328147Y-50891616D01*
X118271533Y-50874443D01*
X118115011Y-50790779D01*
X118115009Y-50790778D01*
X118079271Y-50761448D01*
X117977814Y-50678186D01*
X117894552Y-50576729D01*
X117865222Y-50540991D01*
X117855652Y-50523087D01*
X117781557Y-50384467D01*
X117764384Y-50327853D01*
X117730037Y-50214627D01*
X117712641Y-50038000D01*
X117730037Y-49861373D01*
X117781557Y-49691534D01*
X117781557Y-49691533D01*
X117865221Y-49535011D01*
X117865222Y-49535009D01*
X117894552Y-49499271D01*
X117977814Y-49397814D01*
X118079271Y-49314552D01*
X118115009Y-49285222D01*
X118132913Y-49275652D01*
X118271533Y-49201557D01*
X118328147Y-49184384D01*
X118441373Y-49150037D01*
X118507557Y-49143519D01*
X118573740Y-49137000D01*
X118662260Y-49137000D01*
X118728443Y-49143519D01*
X118728443Y-49143519D01*
G37*
G36*
X91081287Y-47992695D02*
X91232274Y-48038497D01*
X91371427Y-48112875D01*
X91493395Y-48212972D01*
X91593492Y-48334940D01*
X91667870Y-48474093D01*
X91713672Y-48625080D01*
X91729137Y-48782105D01*
X91713672Y-48939130D01*
X91667870Y-49090117D01*
X91593492Y-49229270D01*
X91493395Y-49351238D01*
X91371427Y-49451335D01*
X91232274Y-49525713D01*
X91081287Y-49571515D01*
X90963608Y-49583105D01*
X90884916Y-49583105D01*
X90767237Y-49571515D01*
X90616250Y-49525713D01*
X90477097Y-49451335D01*
X90355129Y-49351238D01*
X90255032Y-49229270D01*
X90180654Y-49090117D01*
X90134852Y-48939130D01*
X90119387Y-48782105D01*
X90134852Y-48625080D01*
X90180654Y-48474093D01*
X90255032Y-48334940D01*
X90355129Y-48212972D01*
X90477097Y-48112875D01*
X90616250Y-48038497D01*
X90767237Y-47992695D01*
X90884916Y-47981105D01*
X90963608Y-47981105D01*
X91081287Y-47992695D01*
X91081287Y-47992695D01*
G37*
G36*
X110882765Y-47992695D02*
X111033752Y-48038497D01*
X111172905Y-48112875D01*
X111294873Y-48212972D01*
X111394970Y-48334940D01*
X111469348Y-48474093D01*
X111515150Y-48625080D01*
X111530615Y-48782105D01*
X111515150Y-48939130D01*
X111469348Y-49090117D01*
X111394970Y-49229270D01*
X111294873Y-49351238D01*
X111172905Y-49451335D01*
X111033752Y-49525713D01*
X110882765Y-49571515D01*
X110765086Y-49583105D01*
X110686394Y-49583105D01*
X110568715Y-49571515D01*
X110417728Y-49525713D01*
X110278575Y-49451335D01*
X110156607Y-49351238D01*
X110056510Y-49229270D01*
X109982132Y-49090117D01*
X109936330Y-48939130D01*
X109920865Y-48782105D01*
X109936330Y-48625080D01*
X109982132Y-48474093D01*
X110056510Y-48334940D01*
X110156607Y-48212972D01*
X110278575Y-48112875D01*
X110417728Y-48038497D01*
X110568715Y-47992695D01*
X110686394Y-47981105D01*
X110765086Y-47981105D01*
X110882765Y-47992695D01*
X110882765Y-47992695D01*
G37*
G36*
X116188443Y-46603519D02*
X116254627Y-46610037D01*
X116367853Y-46644384D01*
X116424467Y-46661557D01*
X116527737Y-46716757D01*
X116580991Y-46745222D01*
X116616729Y-46774552D01*
X116718186Y-46857814D01*
X116801448Y-46959271D01*
X116830778Y-46995009D01*
X116830779Y-46995011D01*
X116914443Y-47151533D01*
X116914443Y-47151534D01*
X116965963Y-47321373D01*
X116983359Y-47498000D01*
X116965963Y-47674627D01*
X116931616Y-47787853D01*
X116914443Y-47844467D01*
X116841407Y-47981105D01*
X116830778Y-48000991D01*
X116801448Y-48036729D01*
X116718186Y-48138186D01*
X116616729Y-48221448D01*
X116580991Y-48250778D01*
X116580989Y-48250779D01*
X116424467Y-48334443D01*
X116367853Y-48351616D01*
X116254627Y-48385963D01*
X116188442Y-48392482D01*
X116122260Y-48399000D01*
X116033740Y-48399000D01*
X115967558Y-48392482D01*
X115901373Y-48385963D01*
X115788147Y-48351616D01*
X115731533Y-48334443D01*
X115575011Y-48250779D01*
X115575009Y-48250778D01*
X115539271Y-48221448D01*
X115437814Y-48138186D01*
X115354552Y-48036729D01*
X115325222Y-48000991D01*
X115314593Y-47981105D01*
X115241557Y-47844467D01*
X115224384Y-47787853D01*
X115190037Y-47674627D01*
X115172641Y-47498000D01*
X115190037Y-47321373D01*
X115241557Y-47151534D01*
X115241557Y-47151533D01*
X115325221Y-46995011D01*
X115325222Y-46995009D01*
X115354552Y-46959271D01*
X115437814Y-46857814D01*
X115539271Y-46774552D01*
X115575009Y-46745222D01*
X115628263Y-46716757D01*
X115731533Y-46661557D01*
X115788147Y-46644384D01*
X115901373Y-46610037D01*
X115967557Y-46603519D01*
X116033740Y-46597000D01*
X116122260Y-46597000D01*
X116188443Y-46603519D01*
X116188443Y-46603519D01*
G37*
G36*
X118728443Y-46603519D02*
X118794627Y-46610037D01*
X118907853Y-46644384D01*
X118964467Y-46661557D01*
X119067737Y-46716757D01*
X119120991Y-46745222D01*
X119156729Y-46774552D01*
X119258186Y-46857814D01*
X119341448Y-46959271D01*
X119370778Y-46995009D01*
X119370779Y-46995011D01*
X119454443Y-47151533D01*
X119454443Y-47151534D01*
X119505963Y-47321373D01*
X119523359Y-47498000D01*
X119505963Y-47674627D01*
X119471616Y-47787853D01*
X119454443Y-47844467D01*
X119381407Y-47981105D01*
X119370778Y-48000991D01*
X119341448Y-48036729D01*
X119258186Y-48138186D01*
X119156729Y-48221448D01*
X119120991Y-48250778D01*
X119120989Y-48250779D01*
X118964467Y-48334443D01*
X118907853Y-48351616D01*
X118794627Y-48385963D01*
X118728442Y-48392482D01*
X118662260Y-48399000D01*
X118573740Y-48399000D01*
X118507558Y-48392482D01*
X118441373Y-48385963D01*
X118328147Y-48351616D01*
X118271533Y-48334443D01*
X118115011Y-48250779D01*
X118115009Y-48250778D01*
X118079271Y-48221448D01*
X117977814Y-48138186D01*
X117894552Y-48036729D01*
X117865222Y-48000991D01*
X117854593Y-47981105D01*
X117781557Y-47844467D01*
X117764384Y-47787853D01*
X117730037Y-47674627D01*
X117712641Y-47498000D01*
X117730037Y-47321373D01*
X117781557Y-47151534D01*
X117781557Y-47151533D01*
X117865221Y-46995011D01*
X117865222Y-46995009D01*
X117894552Y-46959271D01*
X117977814Y-46857814D01*
X118079271Y-46774552D01*
X118115009Y-46745222D01*
X118168263Y-46716757D01*
X118271533Y-46661557D01*
X118328147Y-46644384D01*
X118441373Y-46610037D01*
X118507557Y-46603519D01*
X118573740Y-46597000D01*
X118662260Y-46597000D01*
X118728443Y-46603519D01*
X118728443Y-46603519D01*
G37*
G36*
X101062143Y-45153242D02*
X101210103Y-45214530D01*
X101343259Y-45303502D01*
X101456499Y-45416742D01*
X101545471Y-45549898D01*
X101606759Y-45697858D01*
X101638001Y-45854925D01*
X101638001Y-46015075D01*
X101606759Y-46172142D01*
X101545471Y-46320102D01*
X101456499Y-46453258D01*
X101343259Y-46566498D01*
X101210103Y-46655470D01*
X101062143Y-46716758D01*
X100905076Y-46748000D01*
X100744926Y-46748000D01*
X100587859Y-46716758D01*
X100439899Y-46655470D01*
X100306743Y-46566498D01*
X100193503Y-46453258D01*
X100104531Y-46320102D01*
X100043243Y-46172142D01*
X100012001Y-46015075D01*
X100012001Y-45854925D01*
X100043243Y-45697858D01*
X100104531Y-45549898D01*
X100193503Y-45416742D01*
X100306743Y-45303502D01*
X100439899Y-45214530D01*
X100587859Y-45153242D01*
X100744926Y-45122000D01*
X100905076Y-45122000D01*
X101062143Y-45153242D01*
X101062143Y-45153242D01*
G37*
G36*
X116979000Y-45859000D02*
X115177000Y-45859000D01*
X115177000Y-44057000D01*
X116979000Y-44057000D01*
X116979000Y-45859000D01*
X116979000Y-45859000D01*
G37*
G36*
X118728443Y-44063519D02*
X118794627Y-44070037D01*
X118907853Y-44104384D01*
X118964467Y-44121557D01*
X119087192Y-44187156D01*
X119120991Y-44205222D01*
X119156729Y-44234552D01*
X119258186Y-44317814D01*
X119341448Y-44419271D01*
X119370778Y-44455009D01*
X119370779Y-44455011D01*
X119454443Y-44611533D01*
X119471616Y-44668147D01*
X119505963Y-44781373D01*
X119523359Y-44958000D01*
X119505963Y-45134627D01*
X119481725Y-45214529D01*
X119454443Y-45304467D01*
X119394430Y-45416742D01*
X119370778Y-45460991D01*
X119341448Y-45496729D01*
X119258186Y-45598186D01*
X119156729Y-45681448D01*
X119120991Y-45710778D01*
X119120989Y-45710779D01*
X118964467Y-45794443D01*
X118907853Y-45811616D01*
X118794627Y-45845963D01*
X118728443Y-45852481D01*
X118662260Y-45859000D01*
X118573740Y-45859000D01*
X118507557Y-45852481D01*
X118441373Y-45845963D01*
X118328147Y-45811616D01*
X118271533Y-45794443D01*
X118115011Y-45710779D01*
X118115009Y-45710778D01*
X118079271Y-45681448D01*
X117977814Y-45598186D01*
X117894552Y-45496729D01*
X117865222Y-45460991D01*
X117841570Y-45416742D01*
X117781557Y-45304467D01*
X117754275Y-45214529D01*
X117730037Y-45134627D01*
X117712641Y-44958000D01*
X117730037Y-44781373D01*
X117764384Y-44668147D01*
X117781557Y-44611533D01*
X117865221Y-44455011D01*
X117865222Y-44455009D01*
X117894552Y-44419271D01*
X117977814Y-44317814D01*
X118079271Y-44234552D01*
X118115009Y-44205222D01*
X118148808Y-44187156D01*
X118271533Y-44121557D01*
X118328147Y-44104384D01*
X118441373Y-44070037D01*
X118507557Y-44063519D01*
X118573740Y-44057000D01*
X118662260Y-44057000D01*
X118728443Y-44063519D01*
X118728443Y-44063519D01*
G37*
G36*
X108229870Y-43397746D02*
X108380857Y-43443548D01*
X108520010Y-43517926D01*
X108641978Y-43618023D01*
X108742075Y-43739991D01*
X108816453Y-43879144D01*
X108862255Y-44030131D01*
X108877720Y-44187156D01*
X108862255Y-44344181D01*
X108816453Y-44495168D01*
X108742075Y-44634321D01*
X108641978Y-44756289D01*
X108520010Y-44856386D01*
X108380857Y-44930764D01*
X108229870Y-44976566D01*
X108112191Y-44988156D01*
X108033499Y-44988156D01*
X107915820Y-44976566D01*
X107764833Y-44930764D01*
X107625680Y-44856386D01*
X107503712Y-44756289D01*
X107403615Y-44634321D01*
X107329237Y-44495168D01*
X107283435Y-44344181D01*
X107267970Y-44187156D01*
X107283435Y-44030131D01*
X107329237Y-43879144D01*
X107403615Y-43739991D01*
X107503712Y-43618023D01*
X107625680Y-43517926D01*
X107764833Y-43443548D01*
X107915820Y-43397746D01*
X108033499Y-43386156D01*
X108112191Y-43386156D01*
X108229870Y-43397746D01*
X108229870Y-43397746D01*
G37*
G36*
X93734182Y-43397746D02*
X93885169Y-43443548D01*
X94024322Y-43517926D01*
X94146290Y-43618023D01*
X94246387Y-43739991D01*
X94320765Y-43879144D01*
X94366567Y-44030131D01*
X94382032Y-44187156D01*
X94366567Y-44344181D01*
X94320765Y-44495168D01*
X94246387Y-44634321D01*
X94146290Y-44756289D01*
X94024322Y-44856386D01*
X93885169Y-44930764D01*
X93734182Y-44976566D01*
X93616503Y-44988156D01*
X93537811Y-44988156D01*
X93420132Y-44976566D01*
X93269145Y-44930764D01*
X93129992Y-44856386D01*
X93008024Y-44756289D01*
X92907927Y-44634321D01*
X92833549Y-44495168D01*
X92787747Y-44344181D01*
X92772282Y-44187156D01*
X92787747Y-44030131D01*
X92833549Y-43879144D01*
X92907927Y-43739991D01*
X93008024Y-43618023D01*
X93129992Y-43517926D01*
X93269145Y-43443548D01*
X93420132Y-43397746D01*
X93537811Y-43386156D01*
X93616503Y-43386156D01*
X93734182Y-43397746D01*
X93734182Y-43397746D01*
G37*
G36*
X103634921Y-40744851D02*
X103785908Y-40790653D01*
X103925061Y-40865031D01*
X104047029Y-40965128D01*
X104147126Y-41087096D01*
X104221504Y-41226249D01*
X104267306Y-41377236D01*
X104282771Y-41534261D01*
X104267306Y-41691286D01*
X104221504Y-41842273D01*
X104147126Y-41981426D01*
X104047029Y-42103394D01*
X103925061Y-42203491D01*
X103785908Y-42277869D01*
X103634921Y-42323671D01*
X103517242Y-42335261D01*
X103438550Y-42335261D01*
X103320871Y-42323671D01*
X103169884Y-42277869D01*
X103030731Y-42203491D01*
X102908763Y-42103394D01*
X102808666Y-41981426D01*
X102734288Y-41842273D01*
X102688486Y-41691286D01*
X102673021Y-41534261D01*
X102688486Y-41377236D01*
X102734288Y-41226249D01*
X102808666Y-41087096D01*
X102908763Y-40965128D01*
X103030731Y-40865031D01*
X103169884Y-40790653D01*
X103320871Y-40744851D01*
X103438550Y-40733261D01*
X103517242Y-40733261D01*
X103634921Y-40744851D01*
X103634921Y-40744851D01*
G37*
G36*
X98329131Y-40744851D02*
X98480118Y-40790653D01*
X98619271Y-40865031D01*
X98741239Y-40965128D01*
X98841336Y-41087096D01*
X98915714Y-41226249D01*
X98961516Y-41377236D01*
X98976981Y-41534261D01*
X98961516Y-41691286D01*
X98915714Y-41842273D01*
X98841336Y-41981426D01*
X98741239Y-42103394D01*
X98619271Y-42203491D01*
X98480118Y-42277869D01*
X98329131Y-42323671D01*
X98211452Y-42335261D01*
X98132760Y-42335261D01*
X98015081Y-42323671D01*
X97864094Y-42277869D01*
X97724941Y-42203491D01*
X97602973Y-42103394D01*
X97502876Y-41981426D01*
X97428498Y-41842273D01*
X97382696Y-41691286D01*
X97367231Y-41534261D01*
X97382696Y-41377236D01*
X97428498Y-41226249D01*
X97502876Y-41087096D01*
X97602973Y-40965128D01*
X97724941Y-40865031D01*
X97864094Y-40790653D01*
X98015081Y-40744851D01*
X98132760Y-40733261D01*
X98211452Y-40733261D01*
X98329131Y-40744851D01*
X98329131Y-40744851D01*
G37*
G36*
X101300734Y-34453232D02*
X101510202Y-34539996D01*
X101698723Y-34665962D01*
X101859038Y-34826277D01*
X101985004Y-35014798D01*
X102071768Y-35224266D01*
X102116000Y-35446635D01*
X102116000Y-35673365D01*
X102071768Y-35895734D01*
X101985004Y-36105202D01*
X101859038Y-36293723D01*
X101698723Y-36454038D01*
X101510202Y-36580004D01*
X101300734Y-36666768D01*
X101078365Y-36711000D01*
X100851635Y-36711000D01*
X100629266Y-36666768D01*
X100419798Y-36580004D01*
X100231277Y-36454038D01*
X100070962Y-36293723D01*
X99944996Y-36105202D01*
X99858232Y-35895734D01*
X99814000Y-35673365D01*
X99814000Y-35446635D01*
X99858232Y-35224266D01*
X99944996Y-35014798D01*
X100070962Y-34826277D01*
X100231277Y-34665962D01*
X100419798Y-34539996D01*
X100629266Y-34453232D01*
X100851635Y-34409000D01*
X101078365Y-34409000D01*
X101300734Y-34453232D01*
X101300734Y-34453232D01*
G37*
M02*
