  0
SECTION
  2
HEADER
  9
$ACADVER
  1
AC1014
  9
$HANDSEED
  5
FFFF
  9
$MEASUREMENT
 70
     1
  0
ENDSEC
  0
SECTION
  2
TABLES
  0
TABLE
  2
VPORT
  5
8
330
0
100
AcDbSymbolTable
 70
     4
  0
VPORT
  5
2E
330
8
100
AcDbSymbolTableRecord
100
AcDbViewportTableRecord
  2
*ACTIVE
 70
     0
 10
0.0
 20
0.0
 11
1.0
 21
1.0
 12
210.0
 22
148.5
 13
0.0
 23
0.0
 14
10.0
 24
10.0
 15
10.0
 25
10.0
 16
0.0
 26
0.0
 36
1.0
 17
0.0
 27
0.0
 37
0.0
 40
341.0
 41
1.24
 42
50.0
 43
0.0
 44
0.0
 50
0.0
 51
0.0
 71
     0
 72
   100
 73
     1
 74
     3
 75
     0
 76
     0
 77
     0
 78
     0
  0
ENDTAB
  0
TABLE
  2
LTYPE
  5
5
330
0
100
AcDbSymbolTable
 70
     1
  0
LTYPE
  5
14
330
5
100
AcDbSymbolTableRecord
100
AcDbLinetypeTableRecord
  2
BYBLOCK
 70
     0
  3

 72
    65
 73
     0
 40
0.0
  0
LTYPE
  5
15
330
5
100
AcDbSymbolTableRecord
100
AcDbLinetypeTableRecord
  2
BYLAYER
 70
     0
  3

 72
    65
 73
     0
 40
0.0
  0
LTYPE
  5
16
330
5
100
AcDbSymbolTableRecord
100
AcDbLinetypeTableRecord
  2
CONTINUOUS
 70
     0
  3
Solid line
 72
    65
 73
     0
 40
0.0
  0
ENDTAB
  0
TABLE
  2
LAYER
  5
2
100
AcDbSymbolTable
 70
3
  0
LAYER
  5
50
100
AcDbSymbolTableRecord
100
AcDbLayerTableRecord
  2
0
 70
0
  6
CONTINUOUS
  0
LAYER
  5
51
100
AcDbSymbolTableRecord
100
AcDbLayerTableRecord
  2
Layer_1
 70
0
  6
CONTINUOUS
  0
LAYER
  5
52
100
AcDbSymbolTableRecord
100
AcDbLayerTableRecord
  2
newlayer
 70
0
  6
CONTINUOUS
  0
ENDTAB
  0
TABLE
  2
STYLE
  5
3
330
0
100
AcDbSymbolTable
 70
     1
  0
STYLE
  5
11
330
3
100
AcDbSymbolTableRecord
100
AcDbTextStyleTableRecord
  2
STANDARD
 70
     0
 40
0.0
 41
1.0
 50
0.0
 71
     0
 42
2.5
  3
txt
  4

  0
ENDTAB
  0
TABLE
  2
VIEW
  5
6
330
0
100
AcDbSymbolTable
 70
     0
  0
ENDTAB
  0
TABLE
  2
UCS
  5
7
330
0
100
AcDbSymbolTable
 70
     0
  0
ENDTAB
  0
TABLE
  2
APPID
  5
9
330
0
100
AcDbSymbolTable
 70
     2
  0
APPID
  5
12
330
9
100
AcDbSymbolTableRecord
100
AcDbRegAppTableRecord
  2
ACAD
 70
     0
  0
ENDTAB
  0
TABLE
  2
DIMSTYLE
  5
A
330
0
100
AcDbSymbolTable
 70
     1
  0
DIMSTYLE
105
27
330
A
100
AcDbSymbolTableRecord
100
AcDbDimStyleTableRecord
  2
ISO-25
 70
     0
  3

  4

  5

  6

  7

 40
1.0
 41
2.5
 42
0.625
 43
3.75
 44
1.25
 45
0.0
 46
0.0
 47
0.0
 48
0.0
140
2.5
141
2.5
142
0.0
143
0.03937007874016
144
1.0
145
0.0
146
1.0
147
0.625
 71
     0
 72
     0
 73
     0
 74
     0
 75
     0
 76
     0
 77
     1
 78
     8
170
     0
171
     3
172
     1
173
     0
174
     0
175
     0
176
     0
177
     0
178
     0
270
     2
271
     2
272
     2
273
     2
274
     3
340
11
275
     0
280
     0
281
     0
282
     0
283
     0
284
     8
285
     0
286
     0
287
     3
288
     0
  0
ENDTAB
  0
TABLE
  2
BLOCK_RECORD
  5
1
330
0
100
AcDbSymbolTable
 70
     1
  0
BLOCK_RECORD
  5
1F
330
1
100
AcDbSymbolTableRecord
100
AcDbBlockTableRecord
  2
*MODEL_SPACE
  0
BLOCK_RECORD
  5
1B
330
1
100
AcDbSymbolTableRecord
100
AcDbBlockTableRecord
  2
*PAPER_SPACE
  0
ENDTAB
  0
ENDSEC
  0
SECTION
  2
BLOCKS
  0
BLOCK
  5
20
330
1F
100
AcDbEntity
  8
0
100
AcDbBlockBegin
  2
*MODEL_SPACE
 70
     0
 10
0.0
 20
0.0
 30
0.0
  3
*MODEL_SPACE
  1

  0
ENDBLK
  5
21
330
1F
100
AcDbEntity
  8
0
100
AcDbBlockEnd
  0
BLOCK
  5
1C
330
1B
100
AcDbEntity
 67
     1
  8
0
100
AcDbBlockBegin
  2
*PAPER_SPACE
  1

  0
ENDBLK
  5
1D
330
1B
100
AcDbEntity
 67
     1
  8
0
100
AcDbBlockEnd
  0
ENDSEC
  0
SECTION
  2
ENTITIES
  0
LINE
  5
100
100
AcDbEntity
  8
Layer_1
 62
7
100
AcDbLine
 10
383.422942
 20
449.806000
 30
0.0
 11
402.968871
 21
449.806000
 31
0.0
  0
LINE
  5
101
100
AcDbEntity
  8
Layer_1
 62
7
100
AcDbLine
 10
402.968871
 20
449.806000
 30
0.0
 11
423.291871
 21
449.806000
 31
0.0
  0
LINE
  5
102
100
AcDbEntity
  8
Layer_1
 62
7
100
AcDbLine
 10
423.291871
 20
449.806000
 30
0.0
 11
449.026280
 21
449.806000
 31
0.0
  0
LINE
  5
103
100
AcDbEntity
  8
Layer_1
 62
7
100
AcDbLine
 10
449.026280
 20
449.806000
 30
0.0
 11
469.349280
 21
449.806000
 31
0.0
  0
LINE
  5
104
100
AcDbEntity
  8
Layer_1
 62
7
100
AcDbLine
 10
469.349280
 20
449.806000
 30
0.0
 11
495.083679
 21
449.806000
 31
0.0
  0
LINE
  5
105
100
AcDbEntity
  8
Layer_1
 62
7
100
AcDbLine
 10
495.083679
 20
449.806000
 30
0.0
 11
515.406679
 21
449.806000
 31
0.0
  0
LINE
  5
106
100
AcDbEntity
  8
Layer_1
 62
7
100
AcDbLine
 10
515.406679
 20
449.806000
 30
0.0
 11
541.141078
 21
449.806000
 31
0.0
  0
LINE
  5
107
100
AcDbEntity
  8
Layer_1
 62
7
100
AcDbLine
 10
541.141078
 20
449.806000
 30
0.0
 11
561.464078
 21
449.806000
 31
0.0
  0
LINE
  5
108
100
AcDbEntity
  8
Layer_1
 62
7
100
AcDbLine
 10
561.464078
 20
449.806000
 30
0.0
 11
581.009977
 21
449.806000
 31
0.0
  0
LINE
  5
109
100
AcDbEntity
  8
Layer_1
 62
7
100
AcDbLine
 10
581.009977
 20
449.806000
 30
0.0
 11
581.009977
 21
427.894501
 31
0.0
  0
LINE
  5
10a
100
AcDbEntity
  8
Layer_1
 62
7
100
AcDbLine
 10
581.009977
 20
427.894501
 30
0.0
 11
581.009977
 21
408.217501
 31
0.0
  0
LINE
  5
10b
100
AcDbEntity
  8
Layer_1
 62
7
100
AcDbLine
 10
581.009977
 20
408.217501
 30
0.0
 11
587.359977
 21
408.217501
 31
0.0
  0
LINE
  5
10c
100
AcDbEntity
  8
Layer_1
 62
7
100
AcDbLine
 10
587.359977
 20
408.217501
 30
0.0
 11
587.359977
 21
379.956002
 31
0.0
  0
LINE
  5
10d
100
AcDbEntity
  8
Layer_1
 62
7
100
AcDbLine
 10
587.359977
 20
379.956002
 30
0.0
 11
561.141078
 21
379.956002
 31
0.0
  0
LINE
  5
10e
100
AcDbEntity
  8
Layer_1
 62
7
100
AcDbLine
 10
561.141078
 20
379.956002
 30
0.0
 11
561.141078
 21
379.956002
 31
0.0
  0
LINE
  5
10f
100
AcDbEntity
  8
Layer_1
 62
7
100
AcDbLine
 10
561.141078
 20
379.956002
 30
0.0
 11
541.464078
 21
379.956002
 31
0.0
  0
LINE
  5
110
100
AcDbEntity
  8
Layer_1
 62
7
100
AcDbLine
 10
541.464078
 20
379.956002
 30
0.0
 11
541.464078
 21
379.956002
 31
0.0
  0
LINE
  5
111
100
AcDbEntity
  8
Layer_1
 62
7
100
AcDbLine
 10
541.464078
 20
379.956002
 30
0.0
 11
515.083679
 21
379.956002
 31
0.0
  0
LINE
  5
112
100
AcDbEntity
  8
Layer_1
 62
7
100
AcDbLine
 10
515.083679
 20
379.956002
 30
0.0
 11
515.083679
 21
379.956002
 31
0.0
  0
LINE
  5
113
100
AcDbEntity
  8
Layer_1
 62
7
100
AcDbLine
 10
515.083679
 20
379.956002
 30
0.0
 11
495.406679
 21
379.956002
 31
0.0
  0
LINE
  5
114
100
AcDbEntity
  8
Layer_1
 62
7
100
AcDbLine
 10
495.406679
 20
379.956002
 30
0.0
 11
495.406679
 21
379.956002
 31
0.0
  0
LINE
  5
115
100
AcDbEntity
  8
Layer_1
 62
7
100
AcDbLine
 10
495.406679
 20
379.956002
 30
0.0
 11
469.026280
 21
379.956002
 31
0.0
  0
LINE
  5
116
100
AcDbEntity
  8
Layer_1
 62
7
100
AcDbLine
 10
469.026280
 20
379.956002
 30
0.0
 11
469.026280
 21
379.956002
 31
0.0
  0
LINE
  5
117
100
AcDbEntity
  8
Layer_1
 62
7
100
AcDbLine
 10
469.026280
 20
379.956002
 30
0.0
 11
449.349280
 21
379.956002
 31
0.0
  0
LINE
  5
118
100
AcDbEntity
  8
Layer_1
 62
7
100
AcDbLine
 10
449.349280
 20
379.956002
 30
0.0
 11
449.349280
 21
379.956002
 31
0.0
  0
LINE
  5
119
100
AcDbEntity
  8
Layer_1
 62
7
100
AcDbLine
 10
449.349280
 20
379.956002
 30
0.0
 11
422.968871
 21
379.956002
 31
0.0
  0
LINE
  5
11a
100
AcDbEntity
  8
Layer_1
 62
7
100
AcDbLine
 10
422.968871
 20
379.956002
 30
0.0
 11
422.968871
 21
379.956002
 31
0.0
  0
LINE
  5
11b
100
AcDbEntity
  8
Layer_1
 62
7
100
AcDbLine
 10
422.968871
 20
379.956002
 30
0.0
 11
403.291871
 21
379.956002
 31
0.0
  0
LINE
  5
11c
100
AcDbEntity
  8
Layer_1
 62
7
100
AcDbLine
 10
403.291871
 20
379.956002
 30
0.0
 11
403.291871
 21
379.956002
 31
0.0
  0
LINE
  5
11d
100
AcDbEntity
  8
Layer_1
 62
7
100
AcDbLine
 10
403.291871
 20
379.956002
 30
0.0
 11
377.072972
 21
379.956002
 31
0.0
  0
LINE
  5
11e
100
AcDbEntity
  8
Layer_1
 62
7
100
AcDbLine
 10
377.072972
 20
379.956002
 30
0.0
 11
377.072972
 21
408.217501
 31
0.0
  0
LINE
  5
11f
100
AcDbEntity
  8
Layer_1
 62
7
100
AcDbLine
 10
377.072972
 20
408.217501
 30
0.0
 11
383.422972
 21
408.217501
 31
0.0
  0
LINE
  5
120
100
AcDbEntity
  8
Layer_1
 62
7
100
AcDbLine
 10
383.422972
 20
408.217501
 30
0.0
 11
383.422972
 21
427.894501
 31
0.0
  0
LINE
  5
121
100
AcDbEntity
  8
Layer_1
 62
7
100
AcDbLine
 10
383.422972
 20
427.894501
 30
0.0
 11
383.422942
 21
449.806000
 31
0.0
  0
LINE
  5
122
100
AcDbEntity
  8
Layer_1
 62
7
100
AcDbLine
 10
84.247613
 20
451.633310
 30
0.0
 11
110.466508
 21
451.633310
 31
0.0
  0
LINE
  5
123
100
AcDbEntity
  8
Layer_1
 62
7
100
AcDbLine
 10
110.466508
 20
451.633310
 30
0.0
 11
110.466508
 21
445.283310
 31
0.0
  0
LINE
  5
124
100
AcDbEntity
  8
Layer_1
 62
7
100
AcDbLine
 10
110.466508
 20
445.283310
 30
0.0
 11
130.143507
 21
445.283310
 31
0.0
  0
LINE
  5
125
100
AcDbEntity
  8
Layer_1
 62
7
100
AcDbLine
 10
130.143507
 20
445.283310
 30
0.0
 11
130.143507
 21
451.633310
 31
0.0
  0
LINE
  5
126
100
AcDbEntity
  8
Layer_1
 62
7
100
AcDbLine
 10
130.143507
 20
451.633310
 30
0.0
 11
156.523907
 21
451.633310
 31
0.0
  0
LINE
  5
127
100
AcDbEntity
  8
Layer_1
 62
7
100
AcDbLine
 10
156.523907
 20
451.633310
 30
0.0
 11
156.523907
 21
445.283310
 31
0.0
  0
LINE
  5
128
100
AcDbEntity
  8
Layer_1
 62
7
100
AcDbLine
 10
156.523907
 20
445.283310
 30
0.0
 11
176.200906
 21
445.283310
 31
0.0
  0
LINE
  5
129
100
AcDbEntity
  8
Layer_1
 62
7
100
AcDbLine
 10
176.200906
 20
445.283310
 30
0.0
 11
176.200906
 21
451.633310
 31
0.0
  0
LINE
  5
12a
100
AcDbEntity
  8
Layer_1
 62
7
100
AcDbLine
 10
176.200906
 20
451.633310
 30
0.0
 11
202.581306
 21
451.633310
 31
0.0
  0
LINE
  5
12b
100
AcDbEntity
  8
Layer_1
 62
7
100
AcDbLine
 10
202.581306
 20
451.633310
 30
0.0
 11
202.581306
 21
445.283310
 31
0.0
  0
LINE
  5
12c
100
AcDbEntity
  8
Layer_1
 62
7
100
AcDbLine
 10
202.581306
 20
445.283310
 30
0.0
 11
222.258305
 21
445.283310
 31
0.0
  0
LINE
  5
12d
100
AcDbEntity
  8
Layer_1
 62
7
100
AcDbLine
 10
222.258305
 20
445.283310
 30
0.0
 11
222.258305
 21
451.633310
 31
0.0
  0
LINE
  5
12e
100
AcDbEntity
  8
Layer_1
 62
7
100
AcDbLine
 10
222.258305
 20
451.633310
 30
0.0
 11
248.638705
 21
451.633310
 31
0.0
  0
LINE
  5
12f
100
AcDbEntity
  8
Layer_1
 62
7
100
AcDbLine
 10
248.638705
 20
451.633310
 30
0.0
 11
248.638705
 21
445.283310
 31
0.0
  0
LINE
  5
130
100
AcDbEntity
  8
Layer_1
 62
7
100
AcDbLine
 10
248.638705
 20
445.283310
 30
0.0
 11
268.315704
 21
445.283310
 31
0.0
  0
LINE
  5
131
100
AcDbEntity
  8
Layer_1
 62
7
100
AcDbLine
 10
268.315704
 20
445.283310
 30
0.0
 11
268.315704
 21
451.633310
 31
0.0
  0
LINE
  5
132
100
AcDbEntity
  8
Layer_1
 62
7
100
AcDbLine
 10
268.315704
 20
451.633310
 30
0.0
 11
294.534594
 21
451.633310
 31
0.0
  0
LINE
  5
133
100
AcDbEntity
  8
Layer_1
 62
7
100
AcDbLine
 10
294.534594
 20
451.633310
 30
0.0
 11
294.534594
 21
426.664931
 31
0.0
  0
LINE
  5
134
100
AcDbEntity
  8
Layer_1
 62
7
100
AcDbLine
 10
294.534594
 20
426.664931
 30
0.0
 11
288.184594
 21
426.664931
 31
0.0
  0
LINE
  5
135
100
AcDbEntity
  8
Layer_1
 62
7
100
AcDbLine
 10
288.184594
 20
426.664931
 30
0.0
 11
288.184594
 21
406.987931
 31
0.0
  0
LINE
  5
136
100
AcDbEntity
  8
Layer_1
 62
7
100
AcDbLine
 10
288.184594
 20
406.987931
 30
0.0
 11
294.534594
 21
406.987931
 31
0.0
  0
LINE
  5
137
100
AcDbEntity
  8
Layer_1
 62
7
100
AcDbLine
 10
294.534594
 20
406.987931
 30
0.0
 11
294.534594
 21
381.858061
 31
0.0
  0
LINE
  5
138
100
AcDbEntity
  8
Layer_1
 62
7
100
AcDbLine
 10
294.534594
 20
381.858061
 30
0.0
 11
288.184594
 21
381.858061
 31
0.0
  0
LINE
  5
139
100
AcDbEntity
  8
Layer_1
 62
7
100
AcDbLine
 10
288.184594
 20
381.858061
 30
0.0
 11
288.184594
 21
362.181061
 31
0.0
  0
LINE
  5
13a
100
AcDbEntity
  8
Layer_1
 62
7
100
AcDbLine
 10
288.184594
 20
362.181061
 30
0.0
 11
294.534594
 21
362.181061
 31
0.0
  0
LINE
  5
13b
100
AcDbEntity
  8
Layer_1
 62
7
100
AcDbLine
 10
294.534594
 20
362.181061
 30
0.0
 11
294.534594
 21
337.051189
 31
0.0
  0
LINE
  5
13c
100
AcDbEntity
  8
Layer_1
 62
7
100
AcDbLine
 10
294.534594
 20
337.051189
 30
0.0
 11
288.184594
 21
337.051189
 31
0.0
  0
LINE
  5
13d
100
AcDbEntity
  8
Layer_1
 62
7
100
AcDbLine
 10
288.184594
 20
337.051189
 30
0.0
 11
288.184594
 21
317.374187
 31
0.0
  0
LINE
  5
13e
100
AcDbEntity
  8
Layer_1
 62
7
100
AcDbLine
 10
288.184594
 20
317.374187
 30
0.0
 11
294.534594
 21
317.374187
 31
0.0
  0
LINE
  5
13f
100
AcDbEntity
  8
Layer_1
 62
7
100
AcDbLine
 10
294.534594
 20
317.374187
 30
0.0
 11
294.534594
 21
292.244318
 31
0.0
  0
LINE
  5
140
100
AcDbEntity
  8
Layer_1
 62
7
100
AcDbLine
 10
294.534594
 20
292.244318
 30
0.0
 11
288.184594
 21
292.244318
 31
0.0
  0
LINE
  5
141
100
AcDbEntity
  8
Layer_1
 62
7
100
AcDbLine
 10
288.184594
 20
292.244318
 30
0.0
 11
288.184594
 21
272.567318
 31
0.0
  0
LINE
  5
142
100
AcDbEntity
  8
Layer_1
 62
7
100
AcDbLine
 10
288.184594
 20
272.567318
 30
0.0
 11
294.534594
 21
272.567318
 31
0.0
  0
LINE
  5
143
100
AcDbEntity
  8
Layer_1
 62
7
100
AcDbLine
 10
294.534594
 20
272.567318
 30
0.0
 11
294.534594
 21
247.437449
 31
0.0
  0
LINE
  5
144
100
AcDbEntity
  8
Layer_1
 62
7
100
AcDbLine
 10
294.534594
 20
247.437449
 30
0.0
 11
288.184594
 21
247.437449
 31
0.0
  0
LINE
  5
145
100
AcDbEntity
  8
Layer_1
 62
7
100
AcDbLine
 10
288.184594
 20
247.437449
 30
0.0
 11
288.184594
 21
227.760449
 31
0.0
  0
LINE
  5
146
100
AcDbEntity
  8
Layer_1
 62
7
100
AcDbLine
 10
288.184594
 20
227.760449
 30
0.0
 11
294.534594
 21
227.760449
 31
0.0
  0
LINE
  5
147
100
AcDbEntity
  8
Layer_1
 62
7
100
AcDbLine
 10
294.534594
 20
227.760449
 30
0.0
 11
294.534594
 21
202.630570
 31
0.0
  0
LINE
  5
148
100
AcDbEntity
  8
Layer_1
 62
7
100
AcDbLine
 10
294.534594
 20
202.630570
 30
0.0
 11
288.184594
 21
202.630570
 31
0.0
  0
LINE
  5
149
100
AcDbEntity
  8
Layer_1
 62
7
100
AcDbLine
 10
288.184594
 20
202.630570
 30
0.0
 11
288.184594
 21
182.953566
 31
0.0
  0
LINE
  5
14a
100
AcDbEntity
  8
Layer_1
 62
7
100
AcDbLine
 10
288.184594
 20
182.953566
 30
0.0
 11
294.534594
 21
182.953566
 31
0.0
  0
LINE
  5
14b
100
AcDbEntity
  8
Layer_1
 62
7
100
AcDbLine
 10
294.534594
 20
182.953566
 30
0.0
 11
294.534594
 21
157.823697
 31
0.0
  0
LINE
  5
14c
100
AcDbEntity
  8
Layer_1
 62
7
100
AcDbLine
 10
294.534594
 20
157.823697
 30
0.0
 11
288.184594
 21
157.823697
 31
0.0
  0
LINE
  5
14d
100
AcDbEntity
  8
Layer_1
 62
7
100
AcDbLine
 10
288.184594
 20
157.823697
 30
0.0
 11
288.184594
 21
138.146697
 31
0.0
  0
LINE
  5
14e
100
AcDbEntity
  8
Layer_1
 62
7
100
AcDbLine
 10
288.184594
 20
138.146697
 30
0.0
 11
294.534594
 21
138.146697
 31
0.0
  0
LINE
  5
14f
100
AcDbEntity
  8
Layer_1
 62
7
100
AcDbLine
 10
294.534594
 20
138.146697
 30
0.0
 11
294.534594
 21
113.178328
 31
0.0
  0
LINE
  5
150
100
AcDbEntity
  8
Layer_1
 62
7
100
AcDbLine
 10
294.534594
 20
113.178328
 30
0.0
 11
268.315704
 21
113.178328
 31
0.0
  0
LINE
  5
151
100
AcDbEntity
  8
Layer_1
 62
7
100
AcDbLine
 10
268.315704
 20
113.178328
 30
0.0
 11
268.315704
 21
119.528327
 31
0.0
  0
LINE
  5
152
100
AcDbEntity
  8
Layer_1
 62
7
100
AcDbLine
 10
268.315704
 20
119.528327
 30
0.0
 11
248.638705
 21
119.528327
 31
0.0
  0
LINE
  5
153
100
AcDbEntity
  8
Layer_1
 62
7
100
AcDbLine
 10
248.638705
 20
119.528327
 30
0.0
 11
248.638705
 21
113.178328
 31
0.0
  0
LINE
  5
154
100
AcDbEntity
  8
Layer_1
 62
7
100
AcDbLine
 10
248.638705
 20
113.178328
 30
0.0
 11
222.258305
 21
113.178328
 31
0.0
  0
LINE
  5
155
100
AcDbEntity
  8
Layer_1
 62
7
100
AcDbLine
 10
222.258305
 20
113.178328
 30
0.0
 11
222.258305
 21
119.528327
 31
0.0
  0
LINE
  5
156
100
AcDbEntity
  8
Layer_1
 62
7
100
AcDbLine
 10
222.258305
 20
119.528327
 30
0.0
 11
202.581306
 21
119.528327
 31
0.0
  0
LINE
  5
157
100
AcDbEntity
  8
Layer_1
 62
7
100
AcDbLine
 10
202.581306
 20
119.528327
 30
0.0
 11
202.581306
 21
113.178328
 31
0.0
  0
LINE
  5
158
100
AcDbEntity
  8
Layer_1
 62
7
100
AcDbLine
 10
202.581306
 20
113.178328
 30
0.0
 11
176.200906
 21
113.178328
 31
0.0
  0
LINE
  5
159
100
AcDbEntity
  8
Layer_1
 62
7
100
AcDbLine
 10
176.200906
 20
113.178328
 30
0.0
 11
176.200906
 21
119.528327
 31
0.0
  0
LINE
  5
15a
100
AcDbEntity
  8
Layer_1
 62
7
100
AcDbLine
 10
176.200906
 20
119.528327
 30
0.0
 11
156.523907
 21
119.528327
 31
0.0
  0
LINE
  5
15b
100
AcDbEntity
  8
Layer_1
 62
7
100
AcDbLine
 10
156.523907
 20
119.528327
 30
0.0
 11
156.523907
 21
113.178328
 31
0.0
  0
LINE
  5
15c
100
AcDbEntity
  8
Layer_1
 62
7
100
AcDbLine
 10
156.523907
 20
113.178328
 30
0.0
 11
130.143507
 21
113.178328
 31
0.0
  0
LINE
  5
15d
100
AcDbEntity
  8
Layer_1
 62
7
100
AcDbLine
 10
130.143507
 20
113.178328
 30
0.0
 11
130.143507
 21
119.528327
 31
0.0
  0
LINE
  5
15e
100
AcDbEntity
  8
Layer_1
 62
7
100
AcDbLine
 10
130.143507
 20
119.528327
 30
0.0
 11
110.466508
 21
119.528327
 31
0.0
  0
LINE
  5
15f
100
AcDbEntity
  8
Layer_1
 62
7
100
AcDbLine
 10
110.466508
 20
119.528327
 30
0.0
 11
110.466508
 21
113.178328
 31
0.0
  0
LINE
  5
160
100
AcDbEntity
  8
Layer_1
 62
7
100
AcDbLine
 10
110.466508
 20
113.178328
 30
0.0
 11
84.247613
 21
113.178328
 31
0.0
  0
LINE
  5
161
100
AcDbEntity
  8
Layer_1
 62
7
100
AcDbLine
 10
84.247613
 20
113.178328
 30
0.0
 11
84.247613
 21
138.146697
 31
0.0
  0
LINE
  5
162
100
AcDbEntity
  8
Layer_1
 62
7
100
AcDbLine
 10
84.247613
 20
138.146697
 30
0.0
 11
90.597613
 21
138.146697
 31
0.0
  0
LINE
  5
163
100
AcDbEntity
  8
Layer_1
 62
7
100
AcDbLine
 10
90.597613
 20
138.146697
 30
0.0
 11
90.597613
 21
157.823697
 31
0.0
  0
LINE
  5
164
100
AcDbEntity
  8
Layer_1
 62
7
100
AcDbLine
 10
90.597613
 20
157.823697
 30
0.0
 11
84.247613
 21
157.823697
 31
0.0
  0
LINE
  5
165
100
AcDbEntity
  8
Layer_1
 62
7
100
AcDbLine
 10
84.247613
 20
157.823697
 30
0.0
 11
84.247613
 21
182.953566
 31
0.0
  0
LINE
  5
166
100
AcDbEntity
  8
Layer_1
 62
7
100
AcDbLine
 10
84.247613
 20
182.953566
 30
0.0
 11
90.597613
 21
182.953566
 31
0.0
  0
LINE
  5
167
100
AcDbEntity
  8
Layer_1
 62
7
100
AcDbLine
 10
90.597613
 20
182.953566
 30
0.0
 11
90.597613
 21
202.630570
 31
0.0
  0
LINE
  5
168
100
AcDbEntity
  8
Layer_1
 62
7
100
AcDbLine
 10
90.597613
 20
202.630570
 30
0.0
 11
84.247613
 21
202.630570
 31
0.0
  0
LINE
  5
169
100
AcDbEntity
  8
Layer_1
 62
7
100
AcDbLine
 10
84.247613
 20
202.630570
 30
0.0
 11
84.247613
 21
227.760449
 31
0.0
  0
LINE
  5
16a
100
AcDbEntity
  8
Layer_1
 62
7
100
AcDbLine
 10
84.247613
 20
227.760449
 30
0.0
 11
90.597613
 21
227.760449
 31
0.0
  0
LINE
  5
16b
100
AcDbEntity
  8
Layer_1
 62
7
100
AcDbLine
 10
90.597613
 20
227.760449
 30
0.0
 11
90.597613
 21
247.437449
 31
0.0
  0
LINE
  5
16c
100
AcDbEntity
  8
Layer_1
 62
7
100
AcDbLine
 10
90.597613
 20
247.437449
 30
0.0
 11
84.247613
 21
247.437449
 31
0.0
  0
LINE
  5
16d
100
AcDbEntity
  8
Layer_1
 62
7
100
AcDbLine
 10
84.247613
 20
247.437449
 30
0.0
 11
84.247613
 21
272.567318
 31
0.0
  0
LINE
  5
16e
100
AcDbEntity
  8
Layer_1
 62
7
100
AcDbLine
 10
84.247613
 20
272.567318
 30
0.0
 11
90.597613
 21
272.567318
 31
0.0
  0
LINE
  5
16f
100
AcDbEntity
  8
Layer_1
 62
7
100
AcDbLine
 10
90.597613
 20
272.567318
 30
0.0
 11
90.597613
 21
292.244318
 31
0.0
  0
LINE
  5
170
100
AcDbEntity
  8
Layer_1
 62
7
100
AcDbLine
 10
90.597613
 20
292.244318
 30
0.0
 11
84.247613
 21
292.244318
 31
0.0
  0
LINE
  5
171
100
AcDbEntity
  8
Layer_1
 62
7
100
AcDbLine
 10
84.247613
 20
292.244318
 30
0.0
 11
84.247613
 21
317.374187
 31
0.0
  0
LINE
  5
172
100
AcDbEntity
  8
Layer_1
 62
7
100
AcDbLine
 10
84.247613
 20
317.374187
 30
0.0
 11
90.597613
 21
317.374187
 31
0.0
  0
LINE
  5
173
100
AcDbEntity
  8
Layer_1
 62
7
100
AcDbLine
 10
90.597613
 20
317.374187
 30
0.0
 11
90.597613
 21
337.051189
 31
0.0
  0
LINE
  5
174
100
AcDbEntity
  8
Layer_1
 62
7
100
AcDbLine
 10
90.597613
 20
337.051189
 30
0.0
 11
84.247613
 21
337.051189
 31
0.0
  0
LINE
  5
175
100
AcDbEntity
  8
Layer_1
 62
7
100
AcDbLine
 10
84.247613
 20
337.051189
 30
0.0
 11
84.247613
 21
362.181061
 31
0.0
  0
LINE
  5
176
100
AcDbEntity
  8
Layer_1
 62
7
100
AcDbLine
 10
84.247613
 20
362.181061
 30
0.0
 11
90.597613
 21
362.181061
 31
0.0
  0
LINE
  5
177
100
AcDbEntity
  8
Layer_1
 62
7
100
AcDbLine
 10
90.597613
 20
362.181061
 30
0.0
 11
90.597613
 21
381.858061
 31
0.0
  0
LINE
  5
178
100
AcDbEntity
  8
Layer_1
 62
7
100
AcDbLine
 10
90.597613
 20
381.858061
 30
0.0
 11
84.247613
 21
381.858061
 31
0.0
  0
LINE
  5
179
100
AcDbEntity
  8
Layer_1
 62
7
100
AcDbLine
 10
84.247613
 20
381.858061
 30
0.0
 11
84.247613
 21
406.987931
 31
0.0
  0
LINE
  5
17a
100
AcDbEntity
  8
Layer_1
 62
7
100
AcDbLine
 10
84.247613
 20
406.987931
 30
0.0
 11
90.597613
 21
406.987931
 31
0.0
  0
LINE
  5
17b
100
AcDbEntity
  8
Layer_1
 62
7
100
AcDbLine
 10
90.597613
 20
406.987931
 30
0.0
 11
90.597613
 21
426.664931
 31
0.0
  0
LINE
  5
17c
100
AcDbEntity
  8
Layer_1
 62
7
100
AcDbLine
 10
90.597613
 20
426.664931
 30
0.0
 11
84.247613
 21
426.664931
 31
0.0
  0
LINE
  5
17d
100
AcDbEntity
  8
Layer_1
 62
7
100
AcDbLine
 10
84.247613
 20
426.664931
 30
0.0
 11
84.247613
 21
451.633310
 31
0.0
  0
LINE
  5
17e
100
AcDbEntity
  8
Layer_1
 62
7
100
AcDbLine
 10
383.586342
 20
375.035382
 30
0.0
 11
403.132271
 21
375.035382
 31
0.0
  0
LINE
  5
17f
100
AcDbEntity
  8
Layer_1
 62
7
100
AcDbLine
 10
403.132271
 20
375.035382
 30
0.0
 11
423.455271
 21
375.035382
 31
0.0
  0
LINE
  5
180
100
AcDbEntity
  8
Layer_1
 62
7
100
AcDbLine
 10
423.455271
 20
375.035382
 30
0.0
 11
449.189680
 21
375.035382
 31
0.0
  0
LINE
  5
181
100
AcDbEntity
  8
Layer_1
 62
7
100
AcDbLine
 10
449.189680
 20
375.035382
 30
0.0
 11
469.512680
 21
375.035382
 31
0.0
  0
LINE
  5
182
100
AcDbEntity
  8
Layer_1
 62
7
100
AcDbLine
 10
469.512680
 20
375.035382
 30
0.0
 11
495.247079
 21
375.035382
 31
0.0
  0
LINE
  5
183
100
AcDbEntity
  8
Layer_1
 62
7
100
AcDbLine
 10
495.247079
 20
375.035382
 30
0.0
 11
515.570079
 21
375.035382
 31
0.0
  0
LINE
  5
184
100
AcDbEntity
  8
Layer_1
 62
7
100
AcDbLine
 10
515.570079
 20
375.035382
 30
0.0
 11
541.304478
 21
375.035382
 31
0.0
  0
LINE
  5
185
100
AcDbEntity
  8
Layer_1
 62
7
100
AcDbLine
 10
541.304478
 20
375.035382
 30
0.0
 11
561.627478
 21
375.035382
 31
0.0
  0
LINE
  5
186
100
AcDbEntity
  8
Layer_1
 62
7
100
AcDbLine
 10
561.627478
 20
375.035382
 30
0.0
 11
581.173377
 21
375.035382
 31
0.0
  0
LINE
  5
187
100
AcDbEntity
  8
Layer_1
 62
7
100
AcDbLine
 10
581.173377
 20
375.035382
 30
0.0
 11
581.173377
 21
353.123882
 31
0.0
  0
LINE
  5
188
100
AcDbEntity
  8
Layer_1
 62
7
100
AcDbLine
 10
581.173377
 20
353.123882
 30
0.0
 11
581.173377
 21
333.446883
 31
0.0
  0
LINE
  5
189
100
AcDbEntity
  8
Layer_1
 62
7
100
AcDbLine
 10
581.173377
 20
333.446883
 30
0.0
 11
587.523377
 21
333.446883
 31
0.0
  0
LINE
  5
18a
100
AcDbEntity
  8
Layer_1
 62
7
100
AcDbLine
 10
587.523377
 20
333.446883
 30
0.0
 11
587.523377
 21
305.185383
 31
0.0
  0
LINE
  5
18b
100
AcDbEntity
  8
Layer_1
 62
7
100
AcDbLine
 10
587.523377
 20
305.185383
 30
0.0
 11
561.304478
 21
305.185383
 31
0.0
  0
LINE
  5
18c
100
AcDbEntity
  8
Layer_1
 62
7
100
AcDbLine
 10
561.304478
 20
305.185383
 30
0.0
 11
561.304478
 21
305.185383
 31
0.0
  0
LINE
  5
18d
100
AcDbEntity
  8
Layer_1
 62
7
100
AcDbLine
 10
561.304478
 20
305.185383
 30
0.0
 11
541.627478
 21
305.185383
 31
0.0
  0
LINE
  5
18e
100
AcDbEntity
  8
Layer_1
 62
7
100
AcDbLine
 10
541.627478
 20
305.185383
 30
0.0
 11
541.627478
 21
305.185383
 31
0.0
  0
LINE
  5
18f
100
AcDbEntity
  8
Layer_1
 62
7
100
AcDbLine
 10
541.627478
 20
305.185383
 30
0.0
 11
515.247079
 21
305.185383
 31
0.0
  0
LINE
  5
190
100
AcDbEntity
  8
Layer_1
 62
7
100
AcDbLine
 10
515.247079
 20
305.185383
 30
0.0
 11
515.247079
 21
305.185383
 31
0.0
  0
LINE
  5
191
100
AcDbEntity
  8
Layer_1
 62
7
100
AcDbLine
 10
515.247079
 20
305.185383
 30
0.0
 11
495.570079
 21
305.185383
 31
0.0
  0
LINE
  5
192
100
AcDbEntity
  8
Layer_1
 62
7
100
AcDbLine
 10
495.570079
 20
305.185383
 30
0.0
 11
495.570079
 21
305.185383
 31
0.0
  0
LINE
  5
193
100
AcDbEntity
  8
Layer_1
 62
7
100
AcDbLine
 10
495.570079
 20
305.185383
 30
0.0
 11
469.189680
 21
305.185383
 31
0.0
  0
LINE
  5
194
100
AcDbEntity
  8
Layer_1
 62
7
100
AcDbLine
 10
469.189680
 20
305.185383
 30
0.0
 11
469.189680
 21
305.185383
 31
0.0
  0
LINE
  5
195
100
AcDbEntity
  8
Layer_1
 62
7
100
AcDbLine
 10
469.189680
 20
305.185383
 30
0.0
 11
449.512680
 21
305.185383
 31
0.0
  0
LINE
  5
196
100
AcDbEntity
  8
Layer_1
 62
7
100
AcDbLine
 10
449.512680
 20
305.185383
 30
0.0
 11
449.512680
 21
305.185383
 31
0.0
  0
LINE
  5
197
100
AcDbEntity
  8
Layer_1
 62
7
100
AcDbLine
 10
449.512680
 20
305.185383
 30
0.0
 11
423.132271
 21
305.185383
 31
0.0
  0
LINE
  5
198
100
AcDbEntity
  8
Layer_1
 62
7
100
AcDbLine
 10
423.132271
 20
305.185383
 30
0.0
 11
423.132271
 21
305.185383
 31
0.0
  0
LINE
  5
199
100
AcDbEntity
  8
Layer_1
 62
7
100
AcDbLine
 10
423.132271
 20
305.185383
 30
0.0
 11
403.455271
 21
305.185383
 31
0.0
  0
LINE
  5
19a
100
AcDbEntity
  8
Layer_1
 62
7
100
AcDbLine
 10
403.455271
 20
305.185383
 30
0.0
 11
403.455271
 21
305.185383
 31
0.0
  0
LINE
  5
19b
100
AcDbEntity
  8
Layer_1
 62
7
100
AcDbLine
 10
403.455271
 20
305.185383
 30
0.0
 11
377.236372
 21
305.185383
 31
0.0
  0
LINE
  5
19c
100
AcDbEntity
  8
Layer_1
 62
7
100
AcDbLine
 10
377.236372
 20
305.185383
 30
0.0
 11
377.236372
 21
333.446883
 31
0.0
  0
LINE
  5
19d
100
AcDbEntity
  8
Layer_1
 62
7
100
AcDbLine
 10
377.236372
 20
333.446883
 30
0.0
 11
383.586372
 21
333.446883
 31
0.0
  0
LINE
  5
19e
100
AcDbEntity
  8
Layer_1
 62
7
100
AcDbLine
 10
383.586372
 20
333.446883
 30
0.0
 11
383.586372
 21
353.123882
 31
0.0
  0
LINE
  5
19f
100
AcDbEntity
  8
Layer_1
 62
7
100
AcDbLine
 10
383.586372
 20
353.123882
 30
0.0
 11
383.586342
 21
375.035382
 31
0.0
  0
LINE
  5
1a0
100
AcDbEntity
  8
Layer_1
 62
7
100
AcDbLine
 10
374.023152
 20
225.885932
 30
0.0
 11
374.023152
 21
250.854302
 31
0.0
  0
LINE
  5
1a1
100
AcDbEntity
  8
Layer_1
 62
7
100
AcDbLine
 10
374.023152
 20
250.854302
 30
0.0
 11
380.373152
 21
250.854302
 31
0.0
  0
LINE
  5
1a2
100
AcDbEntity
  8
Layer_1
 62
7
100
AcDbLine
 10
380.373152
 20
250.854302
 30
0.0
 11
380.373152
 21
270.531296
 31
0.0
  0
LINE
  5
1a3
100
AcDbEntity
  8
Layer_1
 62
7
100
AcDbLine
 10
380.373152
 20
270.531296
 30
0.0
 11
374.023152
 21
270.531296
 31
0.0
  0
LINE
  5
1a4
100
AcDbEntity
  8
Layer_1
 62
7
100
AcDbLine
 10
374.023152
 20
270.531296
 30
0.0
 11
374.023152
 21
295.661166
 31
0.0
  0
LINE
  5
1a5
100
AcDbEntity
  8
Layer_1
 62
7
100
AcDbLine
 10
374.023152
 20
295.661166
 30
0.0
 11
380.373152
 21
295.661166
 31
0.0
  0
LINE
  5
1a6
100
AcDbEntity
  8
Layer_1
 62
7
100
AcDbLine
 10
380.373152
 20
295.661166
 30
0.0
 11
446.299440
 21
232.235932
 31
0.0
  0
LINE
  5
1a7
100
AcDbEntity
  8
Layer_1
 62
7
100
AcDbLine
 10
446.299440
 20
232.235932
 30
0.0
 11
446.299440
 21
225.885932
 31
0.0
  0
LINE
  5
1a8
100
AcDbEntity
  8
Layer_1
 62
7
100
AcDbLine
 10
446.299440
 20
225.885932
 30
0.0
 11
419.919041
 21
225.885932
 31
0.0
  0
LINE
  5
1a9
100
AcDbEntity
  8
Layer_1
 62
7
100
AcDbLine
 10
419.919041
 20
225.885932
 30
0.0
 11
419.919041
 21
232.235932
 31
0.0
  0
LINE
  5
1aa
100
AcDbEntity
  8
Layer_1
 62
7
100
AcDbLine
 10
419.919041
 20
232.235932
 30
0.0
 11
400.242041
 21
232.235932
 31
0.0
  0
LINE
  5
1ab
100
AcDbEntity
  8
Layer_1
 62
7
100
AcDbLine
 10
400.242041
 20
232.235932
 30
0.0
 11
400.242041
 21
225.885932
 31
0.0
  0
LINE
  5
1ac
100
AcDbEntity
  8
Layer_1
 62
7
100
AcDbLine
 10
400.242041
 20
225.885932
 30
0.0
 11
374.023152
 21
225.885932
 31
0.0
  0
LINE
  5
1ad
100
AcDbEntity
  8
Layer_1
 62
7
100
AcDbLine
 10
452.649440
 20
302.011165
 30
0.0
 11
452.649440
 21
277.042786
 31
0.0
  0
LINE
  5
1ae
100
AcDbEntity
  8
Layer_1
 62
7
100
AcDbLine
 10
452.649440
 20
277.042786
 30
0.0
 11
446.299440
 21
277.042786
 31
0.0
  0
LINE
  5
1af
100
AcDbEntity
  8
Layer_1
 62
7
100
AcDbLine
 10
446.299440
 20
277.042786
 30
0.0
 11
446.299440
 21
257.365786
 31
0.0
  0
LINE
  5
1b0
100
AcDbEntity
  8
Layer_1
 62
7
100
AcDbLine
 10
446.299440
 20
257.365786
 30
0.0
 11
452.649440
 21
257.365786
 31
0.0
  0
LINE
  5
1b1
100
AcDbEntity
  8
Layer_1
 62
7
100
AcDbLine
 10
452.649440
 20
257.365786
 30
0.0
 11
452.649440
 21
232.235912
 31
0.0
  0
LINE
  5
1b2
100
AcDbEntity
  8
Layer_1
 62
7
100
AcDbLine
 10
452.649440
 20
232.235912
 30
0.0
 11
446.299440
 21
232.235912
 31
0.0
  0
LINE
  5
1b3
100
AcDbEntity
  8
Layer_1
 62
7
100
AcDbLine
 10
380.373152
 20
295.661166
 30
0.0
 11
380.373152
 21
302.011165
 31
0.0
  0
LINE
  5
1b4
100
AcDbEntity
  8
Layer_1
 62
7
100
AcDbLine
 10
380.373152
 20
302.011165
 30
0.0
 11
406.753551
 21
302.011165
 31
0.0
  0
LINE
  5
1b5
100
AcDbEntity
  8
Layer_1
 62
7
100
AcDbLine
 10
406.753551
 20
302.011165
 30
0.0
 11
406.753551
 21
295.661166
 31
0.0
  0
LINE
  5
1b6
100
AcDbEntity
  8
Layer_1
 62
7
100
AcDbLine
 10
406.753551
 20
295.661166
 30
0.0
 11
426.430551
 21
295.661166
 31
0.0
  0
LINE
  5
1b7
100
AcDbEntity
  8
Layer_1
 62
7
100
AcDbLine
 10
426.430551
 20
295.661166
 30
0.0
 11
426.430551
 21
302.011165
 31
0.0
  0
LINE
  5
1b8
100
AcDbEntity
  8
Layer_1
 62
7
100
AcDbLine
 10
426.430551
 20
302.011165
 30
0.0
 11
452.649440
 21
302.011165
 31
0.0
  0
LINE
  5
1b9
100
AcDbEntity
  8
Layer_1
 62
7
100
AcDbLine
 10
380.373152
 20
151.114917
 30
0.0
 11
374.023152
 21
151.114917
 31
0.0
  0
LINE
  5
1ba
100
AcDbEntity
  8
Layer_1
 62
7
100
AcDbLine
 10
374.023152
 20
151.114917
 30
0.0
 11
374.023152
 21
176.244786
 31
0.0
  0
LINE
  5
1bb
100
AcDbEntity
  8
Layer_1
 62
7
100
AcDbLine
 10
374.023152
 20
176.244786
 30
0.0
 11
380.373152
 21
176.244786
 31
0.0
  0
LINE
  5
1bc
100
AcDbEntity
  8
Layer_1
 62
7
100
AcDbLine
 10
380.373152
 20
176.244786
 30
0.0
 11
380.373152
 21
195.921786
 31
0.0
  0
LINE
  5
1bd
100
AcDbEntity
  8
Layer_1
 62
7
100
AcDbLine
 10
380.373152
 20
195.921786
 30
0.0
 11
374.023152
 21
195.921786
 31
0.0
  0
LINE
  5
1be
100
AcDbEntity
  8
Layer_1
 62
7
100
AcDbLine
 10
374.023152
 20
195.921786
 30
0.0
 11
374.023152
 21
220.890166
 31
0.0
  0
LINE
  5
1bf
100
AcDbEntity
  8
Layer_1
 62
7
100
AcDbLine
 10
374.023152
 20
220.890166
 30
0.0
 11
400.242041
 21
220.890166
 31
0.0
  0
LINE
  5
1c0
100
AcDbEntity
  8
Layer_1
 62
7
100
AcDbLine
 10
400.242041
 20
220.890166
 30
0.0
 11
400.242041
 21
214.540166
 31
0.0
  0
LINE
  5
1c1
100
AcDbEntity
  8
Layer_1
 62
7
100
AcDbLine
 10
400.242041
 20
214.540166
 30
0.0
 11
419.919041
 21
214.540166
 31
0.0
  0
LINE
  5
1c2
100
AcDbEntity
  8
Layer_1
 62
7
100
AcDbLine
 10
419.919041
 20
214.540166
 30
0.0
 11
419.919041
 21
220.890166
 31
0.0
  0
LINE
  5
1c3
100
AcDbEntity
  8
Layer_1
 62
7
100
AcDbLine
 10
419.919041
 20
220.890166
 30
0.0
 11
446.299440
 21
220.890166
 31
0.0
  0
LINE
  5
1c4
100
AcDbEntity
  8
Layer_1
 62
7
100
AcDbLine
 10
446.299440
 20
220.890166
 30
0.0
 11
446.299440
 21
214.540166
 31
0.0
  0
LINE
  5
1c5
100
AcDbEntity
  8
Layer_1
 62
7
100
AcDbLine
 10
446.299440
 20
214.540166
 30
0.0
 11
452.649440
 21
214.540166
 31
0.0
  0
LINE
  5
1c6
100
AcDbEntity
  8
Layer_1
 62
7
100
AcDbLine
 10
452.649440
 20
214.540166
 30
0.0
 11
452.649440
 21
189.410296
 31
0.0
  0
LINE
  5
1c7
100
AcDbEntity
  8
Layer_1
 62
7
100
AcDbLine
 10
452.649440
 20
189.410296
 30
0.0
 11
446.299440
 21
189.410296
 31
0.0
  0
LINE
  5
1c8
100
AcDbEntity
  8
Layer_1
 62
7
100
AcDbLine
 10
446.299440
 20
189.410296
 30
0.0
 11
446.299440
 21
169.733296
 31
0.0
  0
LINE
  5
1c9
100
AcDbEntity
  8
Layer_1
 62
7
100
AcDbLine
 10
446.299440
 20
169.733296
 30
0.0
 11
452.649440
 21
169.733296
 31
0.0
  0
LINE
  5
1ca
100
AcDbEntity
  8
Layer_1
 62
7
100
AcDbLine
 10
452.649440
 20
169.733296
 30
0.0
 11
452.649440
 21
144.764927
 31
0.0
  0
LINE
  5
1cb
100
AcDbEntity
  8
Layer_1
 62
7
100
AcDbLine
 10
452.649440
 20
144.764927
 30
0.0
 11
426.430551
 21
144.764927
 31
0.0
  0
LINE
  5
1cc
100
AcDbEntity
  8
Layer_1
 62
7
100
AcDbLine
 10
426.430551
 20
144.764927
 30
0.0
 11
426.430551
 21
151.114927
 31
0.0
  0
LINE
  5
1cd
100
AcDbEntity
  8
Layer_1
 62
7
100
AcDbLine
 10
426.430551
 20
151.114927
 30
0.0
 11
406.753551
 21
151.114927
 31
0.0
  0
LINE
  5
1ce
100
AcDbEntity
  8
Layer_1
 62
7
100
AcDbLine
 10
406.753551
 20
151.114927
 30
0.0
 11
406.753551
 21
144.764927
 31
0.0
  0
LINE
  5
1cf
100
AcDbEntity
  8
Layer_1
 62
7
100
AcDbLine
 10
406.753551
 20
144.764927
 30
0.0
 11
380.373152
 21
144.764927
 31
0.0
  0
LINE
  5
1d0
100
AcDbEntity
  8
Layer_1
 62
7
100
AcDbLine
 10
380.373152
 20
144.764927
 30
0.0
 11
380.373152
 21
151.114927
 31
0.0
  0
LINE
  5
1d1
100
AcDbEntity
  8
Layer_1
 62
7
100
AcDbLine
 10
380.373152
 20
151.114927
 30
0.0
 11
446.299440
 21
214.540166
 31
0.0
  0
LINE
  5
1d2
100
AcDbEntity
  8
Layer_1
 62
1
100
AcDbLine
 10
490.243499
 20
233.540064
 30
0.0
 11
500.081999
 21
233.540064
 31
0.0
  0
LINE
  5
1d3
100
AcDbEntity
  8
Layer_1
 62
1
100
AcDbLine
 10
500.081999
 20
233.540064
 30
0.0
 11
500.081999
 21
239.890064
 31
0.0
  0
LINE
  5
1d4
100
AcDbEntity
  8
Layer_1
 62
1
100
AcDbLine
 10
500.081999
 20
239.890064
 30
0.0
 11
510.404999
 21
239.890064
 31
0.0
  0
LINE
  5
1d5
100
AcDbEntity
  8
Layer_1
 62
1
100
AcDbLine
 10
510.404999
 20
239.890064
 30
0.0
 11
510.404999
 21
233.540064
 31
0.0
  0
LINE
  5
1d6
100
AcDbEntity
  8
Layer_1
 62
1
100
AcDbLine
 10
510.404999
 20
233.540064
 30
0.0
 11
520.243499
 21
233.540064
 31
0.0
  0
LINE
  5
1d7
100
AcDbEntity
  8
Layer_1
 62
1
100
AcDbLine
 10
520.243499
 20
233.540064
 30
0.0
 11
520.243499
 21
229.728564
 31
0.0
  0
LINE
  5
1d8
100
AcDbEntity
  8
Layer_1
 62
1
100
AcDbLine
 10
520.243499
 20
229.728564
 30
0.0
 11
513.893499
 21
229.728564
 31
0.0
  0
LINE
  5
1d9
100
AcDbEntity
  8
Layer_1
 62
1
100
AcDbLine
 10
513.893499
 20
229.728564
 30
0.0
 11
513.893499
 21
220.051564
 31
0.0
  0
LINE
  5
1da
100
AcDbEntity
  8
Layer_1
 62
1
100
AcDbLine
 10
513.893499
 20
220.051564
 30
0.0
 11
520.243499
 21
220.051564
 31
0.0
  0
LINE
  5
1db
100
AcDbEntity
  8
Layer_1
 62
1
100
AcDbLine
 10
520.243499
 20
220.051564
 30
0.0
 11
520.243499
 21
209.890064
 31
0.0
  0
LINE
  5
1dc
100
AcDbEntity
  8
Layer_1
 62
1
100
AcDbLine
 10
520.243499
 20
209.890064
 30
0.0
 11
510.081999
 21
209.890064
 31
0.0
  0
LINE
  5
1dd
100
AcDbEntity
  8
Layer_1
 62
1
100
AcDbLine
 10
510.081999
 20
209.890064
 30
0.0
 11
510.081999
 21
209.890064
 31
0.0
  0
LINE
  5
1de
100
AcDbEntity
  8
Layer_1
 62
1
100
AcDbLine
 10
510.081999
 20
209.890064
 30
0.0
 11
500.404999
 21
209.890064
 31
0.0
  0
LINE
  5
1df
100
AcDbEntity
  8
Layer_1
 62
1
100
AcDbLine
 10
500.404999
 20
209.890064
 30
0.0
 11
500.404999
 21
209.890064
 31
0.0
  0
LINE
  5
1e0
100
AcDbEntity
  8
Layer_1
 62
1
100
AcDbLine
 10
500.404999
 20
209.890064
 30
0.0
 11
490.243499
 21
209.890064
 31
0.0
  0
LINE
  5
1e1
100
AcDbEntity
  8
Layer_1
 62
1
100
AcDbLine
 10
490.243499
 20
209.890064
 30
0.0
 11
490.243499
 21
220.051564
 31
0.0
  0
LINE
  5
1e2
100
AcDbEntity
  8
Layer_1
 62
1
100
AcDbLine
 10
490.243499
 20
220.051564
 30
0.0
 11
496.593499
 21
220.051564
 31
0.0
  0
LINE
  5
1e3
100
AcDbEntity
  8
Layer_1
 62
1
100
AcDbLine
 10
496.593499
 20
220.051564
 30
0.0
 11
496.593499
 21
229.728564
 31
0.0
  0
LINE
  5
1e4
100
AcDbEntity
  8
Layer_1
 62
1
100
AcDbLine
 10
496.593499
 20
229.728564
 30
0.0
 11
490.243499
 21
229.728564
 31
0.0
  0
LINE
  5
1e5
100
AcDbEntity
  8
Layer_1
 62
1
100
AcDbLine
 10
490.243499
 20
229.728564
 30
0.0
 11
490.243499
 21
233.540064
 31
0.0
  0
LINE
  5
1e6
100
AcDbEntity
  8
Layer_1
 62
1
100
AcDbLine
 10
462.703640
 20
232.967134
 30
0.0
 11
466.192120
 21
232.967144
 31
0.0
  0
LINE
  5
1e7
100
AcDbEntity
  8
Layer_1
 62
1
100
AcDbLine
 10
466.192120
 20
232.967144
 30
0.0
 11
466.192120
 21
232.967144
 31
0.0
  0
LINE
  5
1e8
100
AcDbEntity
  8
Layer_1
 62
1
100
AcDbLine
 10
466.192120
 20
232.967144
 30
0.0
 11
476.515120
 21
232.967144
 31
0.0
  0
LINE
  5
1e9
100
AcDbEntity
  8
Layer_1
 62
1
100
AcDbLine
 10
476.515120
 20
232.967144
 30
0.0
 11
476.515120
 21
232.967144
 31
0.0
  0
LINE
  5
1ea
100
AcDbEntity
  8
Layer_1
 62
1
100
AcDbLine
 10
476.515120
 20
232.967144
 30
0.0
 11
480.003620
 21
232.967134
 31
0.0
  0
LINE
  5
1eb
100
AcDbEntity
  8
Layer_1
 62
1
100
AcDbLine
 10
480.003620
 20
232.967134
 30
0.0
 11
480.003620
 21
229.155644
 31
0.0
  0
LINE
  5
1ec
100
AcDbEntity
  8
Layer_1
 62
1
100
AcDbLine
 10
480.003620
 20
229.155644
 30
0.0
 11
480.003620
 21
219.478644
 31
0.0
  0
LINE
  5
1ed
100
AcDbEntity
  8
Layer_1
 62
1
100
AcDbLine
 10
480.003620
 20
219.478644
 30
0.0
 11
486.353619
 21
219.478644
 31
0.0
  0
LINE
  5
1ee
100
AcDbEntity
  8
Layer_1
 62
1
100
AcDbLine
 10
486.353619
 20
219.478644
 30
0.0
 11
486.353619
 21
209.317144
 31
0.0
  0
LINE
  5
1ef
100
AcDbEntity
  8
Layer_1
 62
1
100
AcDbLine
 10
486.353619
 20
209.317144
 30
0.0
 11
476.192120
 21
209.317144
 31
0.0
  0
LINE
  5
1f0
100
AcDbEntity
  8
Layer_1
 62
1
100
AcDbLine
 10
476.192120
 20
209.317144
 30
0.0
 11
476.192120
 21
209.317144
 31
0.0
  0
LINE
  5
1f1
100
AcDbEntity
  8
Layer_1
 62
1
100
AcDbLine
 10
476.192120
 20
209.317144
 30
0.0
 11
466.515120
 21
209.317144
 31
0.0
  0
LINE
  5
1f2
100
AcDbEntity
  8
Layer_1
 62
1
100
AcDbLine
 10
466.515120
 20
209.317144
 30
0.0
 11
466.515120
 21
209.317144
 31
0.0
  0
LINE
  5
1f3
100
AcDbEntity
  8
Layer_1
 62
1
100
AcDbLine
 10
466.515120
 20
209.317144
 30
0.0
 11
456.353620
 21
209.317144
 31
0.0
  0
LINE
  5
1f4
100
AcDbEntity
  8
Layer_1
 62
1
100
AcDbLine
 10
456.353620
 20
209.317144
 30
0.0
 11
456.353620
 21
219.478644
 31
0.0
  0
LINE
  5
1f5
100
AcDbEntity
  8
Layer_1
 62
1
100
AcDbLine
 10
456.353620
 20
219.478644
 30
0.0
 11
462.703620
 21
219.478644
 31
0.0
  0
LINE
  5
1f6
100
AcDbEntity
  8
Layer_1
 62
1
100
AcDbLine
 10
462.703620
 20
219.478644
 30
0.0
 11
462.703620
 21
229.155644
 31
0.0
  0
LINE
  5
1f7
100
AcDbEntity
  8
Layer_1
 62
1
100
AcDbLine
 10
462.703620
 20
229.155644
 30
0.0
 11
462.703640
 21
232.967134
 31
0.0
  0
LINE
  5
1f8
100
AcDbEntity
  8
Layer_1
 62
1
100
AcDbLine
 10
459.243500
 20
267.715063
 30
0.0
 11
469.082000
 21
267.715063
 31
0.0
  0
LINE
  5
1f9
100
AcDbEntity
  8
Layer_1
 62
1
100
AcDbLine
 10
469.082000
 20
267.715063
 30
0.0
 11
469.082000
 21
274.065063
 31
0.0
  0
LINE
  5
1fa
100
AcDbEntity
  8
Layer_1
 62
1
100
AcDbLine
 10
469.082000
 20
274.065063
 30
0.0
 11
459.243500
 21
274.065063
 31
0.0
  0
LINE
  5
1fb
100
AcDbEntity
  8
Layer_1
 62
1
100
AcDbLine
 10
459.243500
 20
274.065063
 30
0.0
 11
459.243500
 21
267.715063
 31
0.0
  0
LINE
  5
1fc
100
AcDbEntity
  8
Layer_1
 62
1
100
AcDbLine
 10
479.405000
 20
267.715063
 30
0.0
 11
482.893499
 21
267.715063
 31
0.0
  0
LINE
  5
1fd
100
AcDbEntity
  8
Layer_1
 62
1
100
AcDbLine
 10
482.893499
 20
267.715063
 30
0.0
 11
482.893499
 21
274.065063
 31
0.0
  0
LINE
  5
1fe
100
AcDbEntity
  8
Layer_1
 62
1
100
AcDbLine
 10
482.893499
 20
274.065063
 30
0.0
 11
479.405000
 21
274.065063
 31
0.0
  0
LINE
  5
1ff
100
AcDbEntity
  8
Layer_1
 62
1
100
AcDbLine
 10
479.405000
 20
274.065063
 30
0.0
 11
479.405000
 21
267.715063
 31
0.0
  0
LINE
  5
200
100
AcDbEntity
  8
Layer_1
 62
1
100
AcDbLine
 10
459.243500
 20
294.540067
 30
0.0
 11
469.082000
 21
294.540067
 31
0.0
  0
LINE
  5
201
100
AcDbEntity
  8
Layer_1
 62
1
100
AcDbLine
 10
469.082000
 20
294.540067
 30
0.0
 11
469.082000
 21
300.890068
 31
0.0
  0
LINE
  5
202
100
AcDbEntity
  8
Layer_1
 62
1
100
AcDbLine
 10
469.082000
 20
300.890068
 30
0.0
 11
479.405000
 21
300.890068
 31
0.0
  0
LINE
  5
203
100
AcDbEntity
  8
Layer_1
 62
1
100
AcDbLine
 10
479.405000
 20
300.890068
 30
0.0
 11
479.405000
 21
294.540067
 31
0.0
  0
LINE
  5
204
100
AcDbEntity
  8
Layer_1
 62
1
100
AcDbLine
 10
479.405000
 20
294.540067
 30
0.0
 11
482.893499
 21
294.540067
 31
0.0
  0
LINE
  5
205
100
AcDbEntity
  8
Layer_1
 62
1
100
AcDbLine
 10
482.893499
 20
294.540067
 30
0.0
 11
482.893499
 21
287.718233
 31
0.0
  0
LINE
  5
206
100
AcDbEntity
  8
Layer_1
 62
1
100
AcDbLine
 10
482.893499
 20
287.718233
 30
0.0
 11
489.243499
 21
287.718233
 31
0.0
  0
LINE
  5
207
100
AcDbEntity
  8
Layer_1
 62
1
100
AcDbLine
 10
489.243499
 20
287.718233
 30
0.0
 11
489.243499
 21
277.395234
 31
0.0
  0
LINE
  5
208
100
AcDbEntity
  8
Layer_1
 62
1
100
AcDbLine
 10
489.243499
 20
277.395234
 30
0.0
 11
482.893499
 21
277.395234
 31
0.0
  0
LINE
  5
209
100
AcDbEntity
  8
Layer_1
 62
1
100
AcDbLine
 10
482.893499
 20
277.395234
 30
0.0
 11
482.893499
 21
264.384903
 31
0.0
  0
LINE
  5
20a
100
AcDbEntity
  8
Layer_1
 62
1
100
AcDbLine
 10
482.893499
 20
264.384903
 30
0.0
 11
489.243499
 21
264.384903
 31
0.0
  0
LINE
  5
20b
100
AcDbEntity
  8
Layer_1
 62
1
100
AcDbLine
 10
489.243499
 20
264.384903
 30
0.0
 11
489.243499
 21
254.061903
 31
0.0
  0
LINE
  5
20c
100
AcDbEntity
  8
Layer_1
 62
1
100
AcDbLine
 10
489.243499
 20
254.061903
 30
0.0
 11
482.893499
 21
254.061903
 31
0.0
  0
LINE
  5
20d
100
AcDbEntity
  8
Layer_1
 62
1
100
AcDbLine
 10
482.893499
 20
254.061903
 30
0.0
 11
482.893499
 21
247.240064
 31
0.0
  0
LINE
  5
20e
100
AcDbEntity
  8
Layer_1
 62
1
100
AcDbLine
 10
482.893499
 20
247.240064
 30
0.0
 11
479.405000
 21
247.240064
 31
0.0
  0
LINE
  5
20f
100
AcDbEntity
  8
Layer_1
 62
1
100
AcDbLine
 10
479.405000
 20
247.240064
 30
0.0
 11
479.405000
 21
240.890064
 31
0.0
  0
LINE
  5
210
100
AcDbEntity
  8
Layer_1
 62
1
100
AcDbLine
 10
479.405000
 20
240.890064
 30
0.0
 11
469.082000
 21
240.890064
 31
0.0
  0
LINE
  5
211
100
AcDbEntity
  8
Layer_1
 62
1
100
AcDbLine
 10
469.082000
 20
240.890064
 30
0.0
 11
469.082000
 21
247.240064
 31
0.0
  0
LINE
  5
212
100
AcDbEntity
  8
Layer_1
 62
1
100
AcDbLine
 10
469.082000
 20
247.240064
 30
0.0
 11
459.243500
 21
247.240064
 31
0.0
  0
LINE
  5
213
100
AcDbEntity
  8
Layer_1
 62
1
100
AcDbLine
 10
459.243500
 20
247.240064
 30
0.0
 11
459.243500
 21
254.384903
 31
0.0
  0
LINE
  5
214
100
AcDbEntity
  8
Layer_1
 62
1
100
AcDbLine
 10
459.243500
 20
254.384903
 30
0.0
 11
459.243500
 21
254.384903
 31
0.0
  0
LINE
  5
215
100
AcDbEntity
  8
Layer_1
 62
1
100
AcDbLine
 10
459.243500
 20
254.384903
 30
0.0
 11
459.243500
 21
264.061903
 31
0.0
  0
LINE
  5
216
100
AcDbEntity
  8
Layer_1
 62
1
100
AcDbLine
 10
459.243500
 20
264.061903
 30
0.0
 11
459.243500
 21
264.061903
 31
0.0
  0
LINE
  5
217
100
AcDbEntity
  8
Layer_1
 62
1
100
AcDbLine
 10
459.243500
 20
264.061903
 30
0.0
 11
459.243500
 21
277.718234
 31
0.0
  0
LINE
  5
218
100
AcDbEntity
  8
Layer_1
 62
1
100
AcDbLine
 10
459.243500
 20
277.718234
 30
0.0
 11
459.243500
 21
277.718234
 31
0.0
  0
LINE
  5
219
100
AcDbEntity
  8
Layer_1
 62
1
100
AcDbLine
 10
459.243500
 20
277.718234
 30
0.0
 11
459.243500
 21
287.395234
 31
0.0
  0
LINE
  5
21a
100
AcDbEntity
  8
Layer_1
 62
1
100
AcDbLine
 10
459.243500
 20
287.395234
 30
0.0
 11
459.243500
 21
287.395234
 31
0.0
  0
LINE
  5
21b
100
AcDbEntity
  8
Layer_1
 62
1
100
AcDbLine
 10
459.243500
 20
287.395234
 30
0.0
 11
459.243500
 21
294.540067
 31
0.0
  0
LINE
  5
21c
100
AcDbEntity
  8
Layer_1
 62
1
100
AcDbLine
 10
490.243499
 20
300.890068
 30
0.0
 11
500.404999
 21
300.890068
 31
0.0
  0
LINE
  5
21d
100
AcDbEntity
  8
Layer_1
 62
1
100
AcDbLine
 10
500.404999
 20
300.890068
 30
0.0
 11
500.404999
 21
294.540067
 31
0.0
  0
LINE
  5
21e
100
AcDbEntity
  8
Layer_1
 62
1
100
AcDbLine
 10
500.404999
 20
294.540067
 30
0.0
 11
510.081999
 21
294.540067
 31
0.0
  0
LINE
  5
21f
100
AcDbEntity
  8
Layer_1
 62
1
100
AcDbLine
 10
510.081999
 20
294.540067
 30
0.0
 11
510.081999
 21
300.890068
 31
0.0
  0
LINE
  5
220
100
AcDbEntity
  8
Layer_1
 62
1
100
AcDbLine
 10
510.081999
 20
300.890068
 30
0.0
 11
520.243499
 21
300.890068
 31
0.0
  0
LINE
  5
221
100
AcDbEntity
  8
Layer_1
 62
1
100
AcDbLine
 10
520.243499
 20
300.890068
 30
0.0
 11
520.243499
 21
287.395234
 31
0.0
  0
LINE
  5
222
100
AcDbEntity
  8
Layer_1
 62
1
100
AcDbLine
 10
520.243499
 20
287.395234
 30
0.0
 11
513.893499
 21
287.395234
 31
0.0
  0
LINE
  5
223
100
AcDbEntity
  8
Layer_1
 62
1
100
AcDbLine
 10
513.893499
 20
287.395234
 30
0.0
 11
513.893499
 21
277.718234
 31
0.0
  0
LINE
  5
224
100
AcDbEntity
  8
Layer_1
 62
1
100
AcDbLine
 10
513.893499
 20
277.718234
 30
0.0
 11
520.243499
 21
277.718234
 31
0.0
  0
LINE
  5
225
100
AcDbEntity
  8
Layer_1
 62
1
100
AcDbLine
 10
520.243499
 20
277.718234
 30
0.0
 11
520.243499
 21
264.061903
 31
0.0
  0
LINE
  5
226
100
AcDbEntity
  8
Layer_1
 62
1
100
AcDbLine
 10
520.243499
 20
264.061903
 30
0.0
 11
513.893499
 21
264.061903
 31
0.0
  0
LINE
  5
227
100
AcDbEntity
  8
Layer_1
 62
1
100
AcDbLine
 10
513.893499
 20
264.061903
 30
0.0
 11
513.893499
 21
254.384903
 31
0.0
  0
LINE
  5
228
100
AcDbEntity
  8
Layer_1
 62
1
100
AcDbLine
 10
513.893499
 20
254.384903
 30
0.0
 11
520.243499
 21
254.384903
 31
0.0
  0
LINE
  5
229
100
AcDbEntity
  8
Layer_1
 62
1
100
AcDbLine
 10
520.243499
 20
254.384903
 30
0.0
 11
520.243499
 21
240.890064
 31
0.0
  0
LINE
  5
22a
100
AcDbEntity
  8
Layer_1
 62
1
100
AcDbLine
 10
520.243499
 20
240.890064
 30
0.0
 11
510.081999
 21
240.890064
 31
0.0
  0
LINE
  5
22b
100
AcDbEntity
  8
Layer_1
 62
1
100
AcDbLine
 10
510.081999
 20
240.890064
 30
0.0
 11
510.081999
 21
247.240064
 31
0.0
  0
LINE
  5
22c
100
AcDbEntity
  8
Layer_1
 62
1
100
AcDbLine
 10
510.081999
 20
247.240064
 30
0.0
 11
500.404999
 21
247.240064
 31
0.0
  0
LINE
  5
22d
100
AcDbEntity
  8
Layer_1
 62
1
100
AcDbLine
 10
500.404999
 20
247.240064
 30
0.0
 11
500.404999
 21
240.890064
 31
0.0
  0
LINE
  5
22e
100
AcDbEntity
  8
Layer_1
 62
1
100
AcDbLine
 10
500.404999
 20
240.890064
 30
0.0
 11
490.243499
 21
240.890064
 31
0.0
  0
LINE
  5
22f
100
AcDbEntity
  8
Layer_1
 62
1
100
AcDbLine
 10
490.243499
 20
240.890064
 30
0.0
 11
490.243499
 21
254.384903
 31
0.0
  0
LINE
  5
230
100
AcDbEntity
  8
Layer_1
 62
1
100
AcDbLine
 10
490.243499
 20
254.384903
 30
0.0
 11
496.593499
 21
254.384903
 31
0.0
  0
LINE
  5
231
100
AcDbEntity
  8
Layer_1
 62
1
100
AcDbLine
 10
496.593499
 20
254.384903
 30
0.0
 11
496.593499
 21
264.061903
 31
0.0
  0
LINE
  5
232
100
AcDbEntity
  8
Layer_1
 62
1
100
AcDbLine
 10
496.593499
 20
264.061903
 30
0.0
 11
490.243499
 21
264.061903
 31
0.0
  0
LINE
  5
233
100
AcDbEntity
  8
Layer_1
 62
1
100
AcDbLine
 10
490.243499
 20
264.061903
 30
0.0
 11
490.243499
 21
277.718234
 31
0.0
  0
LINE
  5
234
100
AcDbEntity
  8
Layer_1
 62
1
100
AcDbLine
 10
490.243499
 20
277.718234
 30
0.0
 11
496.593499
 21
277.718234
 31
0.0
  0
LINE
  5
235
100
AcDbEntity
  8
Layer_1
 62
1
100
AcDbLine
 10
496.593499
 20
277.718234
 30
0.0
 11
496.593499
 21
287.395234
 31
0.0
  0
LINE
  5
236
100
AcDbEntity
  8
Layer_1
 62
1
100
AcDbLine
 10
496.593499
 20
287.395234
 30
0.0
 11
490.243499
 21
287.395234
 31
0.0
  0
LINE
  5
237
100
AcDbEntity
  8
Layer_1
 62
1
100
AcDbLine
 10
490.243499
 20
287.395234
 30
0.0
 11
490.243499
 21
300.890068
 31
0.0
  0
LINE
  5
238
100
AcDbEntity
  8
Layer_1
 62
1
100
AcDbLine
 10
527.593498
 20
267.715063
 30
0.0
 11
531.081998
 21
267.715063
 31
0.0
  0
LINE
  5
239
100
AcDbEntity
  8
Layer_1
 62
1
100
AcDbLine
 10
531.081998
 20
267.715063
 30
0.0
 11
531.081998
 21
274.065063
 31
0.0
  0
LINE
  5
23a
100
AcDbEntity
  8
Layer_1
 62
1
100
AcDbLine
 10
531.081998
 20
274.065063
 30
0.0
 11
527.593498
 21
274.065063
 31
0.0
  0
LINE
  5
23b
100
AcDbEntity
  8
Layer_1
 62
1
100
AcDbLine
 10
527.593498
 20
274.065063
 30
0.0
 11
527.593498
 21
267.715063
 31
0.0
  0
LINE
  5
23c
100
AcDbEntity
  8
Layer_1
 62
1
100
AcDbLine
 10
541.404998
 20
267.715063
 30
0.0
 11
551.243498
 21
267.715063
 31
0.0
  0
LINE
  5
23d
100
AcDbEntity
  8
Layer_1
 62
1
100
AcDbLine
 10
551.243498
 20
267.715063
 30
0.0
 11
551.243498
 21
274.065063
 31
0.0
  0
LINE
  5
23e
100
AcDbEntity
  8
Layer_1
 62
1
100
AcDbLine
 10
551.243498
 20
274.065063
 30
0.0
 11
541.404998
 21
274.065063
 31
0.0
  0
LINE
  5
23f
100
AcDbEntity
  8
Layer_1
 62
1
100
AcDbLine
 10
541.404998
 20
274.065063
 30
0.0
 11
541.404998
 21
267.715063
 31
0.0
  0
LINE
  5
240
100
AcDbEntity
  8
Layer_1
 62
1
100
AcDbLine
 10
527.593498
 20
294.540067
 30
0.0
 11
531.081998
 21
294.540067
 31
0.0
  0
LINE
  5
241
100
AcDbEntity
  8
Layer_1
 62
1
100
AcDbLine
 10
531.081998
 20
294.540067
 30
0.0
 11
531.081998
 21
300.890068
 31
0.0
  0
LINE
  5
242
100
AcDbEntity
  8
Layer_1
 62
1
100
AcDbLine
 10
531.081998
 20
300.890068
 30
0.0
 11
541.404998
 21
300.890068
 31
0.0
  0
LINE
  5
243
100
AcDbEntity
  8
Layer_1
 62
1
100
AcDbLine
 10
541.404998
 20
300.890068
 30
0.0
 11
541.404998
 21
294.540067
 31
0.0
  0
LINE
  5
244
100
AcDbEntity
  8
Layer_1
 62
1
100
AcDbLine
 10
541.404998
 20
294.540067
 30
0.0
 11
551.243498
 21
294.540067
 31
0.0
  0
LINE
  5
245
100
AcDbEntity
  8
Layer_1
 62
1
100
AcDbLine
 10
551.243498
 20
294.540067
 30
0.0
 11
551.243498
 21
287.395234
 31
0.0
  0
LINE
  5
246
100
AcDbEntity
  8
Layer_1
 62
1
100
AcDbLine
 10
551.243498
 20
287.395234
 30
0.0
 11
551.243498
 21
287.395234
 31
0.0
  0
LINE
  5
247
100
AcDbEntity
  8
Layer_1
 62
1
100
AcDbLine
 10
551.243498
 20
287.395234
 30
0.0
 11
551.243498
 21
277.718234
 31
0.0
  0
LINE
  5
248
100
AcDbEntity
  8
Layer_1
 62
1
100
AcDbLine
 10
551.243498
 20
277.718234
 30
0.0
 11
551.243498
 21
277.718234
 31
0.0
  0
LINE
  5
249
100
AcDbEntity
  8
Layer_1
 62
1
100
AcDbLine
 10
551.243498
 20
277.718234
 30
0.0
 11
551.243498
 21
264.061903
 31
0.0
  0
LINE
  5
24a
100
AcDbEntity
  8
Layer_1
 62
1
100
AcDbLine
 10
551.243498
 20
264.061903
 30
0.0
 11
551.243498
 21
264.061903
 31
0.0
  0
LINE
  5
24b
100
AcDbEntity
  8
Layer_1
 62
1
100
AcDbLine
 10
551.243498
 20
264.061903
 30
0.0
 11
551.243498
 21
254.384903
 31
0.0
  0
LINE
  5
24c
100
AcDbEntity
  8
Layer_1
 62
1
100
AcDbLine
 10
551.243498
 20
254.384903
 30
0.0
 11
551.243498
 21
254.384903
 31
0.0
  0
LINE
  5
24d
100
AcDbEntity
  8
Layer_1
 62
1
100
AcDbLine
 10
551.243498
 20
254.384903
 30
0.0
 11
551.243498
 21
247.240064
 31
0.0
  0
LINE
  5
24e
100
AcDbEntity
  8
Layer_1
 62
1
100
AcDbLine
 10
551.243498
 20
247.240064
 30
0.0
 11
541.404998
 21
247.240064
 31
0.0
  0
LINE
  5
24f
100
AcDbEntity
  8
Layer_1
 62
1
100
AcDbLine
 10
541.404998
 20
247.240064
 30
0.0
 11
541.404998
 21
240.890064
 31
0.0
  0
LINE
  5
250
100
AcDbEntity
  8
Layer_1
 62
1
100
AcDbLine
 10
541.404998
 20
240.890064
 30
0.0
 11
531.081998
 21
240.890064
 31
0.0
  0
LINE
  5
251
100
AcDbEntity
  8
Layer_1
 62
1
100
AcDbLine
 10
531.081998
 20
240.890064
 30
0.0
 11
531.081998
 21
247.240064
 31
0.0
  0
LINE
  5
252
100
AcDbEntity
  8
Layer_1
 62
1
100
AcDbLine
 10
531.081998
 20
247.240064
 30
0.0
 11
527.593498
 21
247.240064
 31
0.0
  0
LINE
  5
253
100
AcDbEntity
  8
Layer_1
 62
1
100
AcDbLine
 10
527.593498
 20
247.240064
 30
0.0
 11
527.593498
 21
254.061903
 31
0.0
  0
LINE
  5
254
100
AcDbEntity
  8
Layer_1
 62
1
100
AcDbLine
 10
527.593498
 20
254.061903
 30
0.0
 11
521.243499
 21
254.061903
 31
0.0
  0
LINE
  5
255
100
AcDbEntity
  8
Layer_1
 62
1
100
AcDbLine
 10
521.243499
 20
254.061903
 30
0.0
 11
521.243499
 21
264.384903
 31
0.0
  0
LINE
  5
256
100
AcDbEntity
  8
Layer_1
 62
1
100
AcDbLine
 10
521.243499
 20
264.384903
 30
0.0
 11
527.593498
 21
264.384903
 31
0.0
  0
LINE
  5
257
100
AcDbEntity
  8
Layer_1
 62
1
100
AcDbLine
 10
527.593498
 20
264.384903
 30
0.0
 11
527.593498
 21
277.395234
 31
0.0
  0
LINE
  5
258
100
AcDbEntity
  8
Layer_1
 62
1
100
AcDbLine
 10
527.593498
 20
277.395234
 30
0.0
 11
521.243499
 21
277.395234
 31
0.0
  0
LINE
  5
259
100
AcDbEntity
  8
Layer_1
 62
1
100
AcDbLine
 10
521.243499
 20
277.395234
 30
0.0
 11
521.243499
 21
287.718233
 31
0.0
  0
LINE
  5
25a
100
AcDbEntity
  8
Layer_1
 62
1
100
AcDbLine
 10
521.243499
 20
287.718233
 30
0.0
 11
527.593498
 21
287.718233
 31
0.0
  0
LINE
  5
25b
100
AcDbEntity
  8
Layer_1
 62
1
100
AcDbLine
 10
527.593498
 20
287.718233
 30
0.0
 11
527.593498
 21
294.540067
 31
0.0
  0
LINE
  5
25c
100
AcDbEntity
  8
Layer_1
 62
1
100
AcDbLine
 10
523.505399
 20
238.340964
 30
0.0
 11
533.666898
 21
238.340964
 31
0.0
  0
LINE
  5
25d
100
AcDbEntity
  8
Layer_1
 62
1
100
AcDbLine
 10
533.666898
 20
238.340964
 30
0.0
 11
533.666898
 21
238.340964
 31
0.0
  0
LINE
  5
25e
100
AcDbEntity
  8
Layer_1
 62
1
100
AcDbLine
 10
533.666898
 20
238.340964
 30
0.0
 11
543.343898
 21
238.340964
 31
0.0
  0
LINE
  5
25f
100
AcDbEntity
  8
Layer_1
 62
1
100
AcDbLine
 10
543.343898
 20
238.340964
 30
0.0
 11
543.343898
 21
238.340964
 31
0.0
  0
LINE
  5
260
100
AcDbEntity
  8
Layer_1
 62
1
100
AcDbLine
 10
543.343898
 20
238.340964
 30
0.0
 11
553.505398
 21
238.340964
 31
0.0
  0
LINE
  5
261
100
AcDbEntity
  8
Layer_1
 62
1
100
AcDbLine
 10
553.505398
 20
238.340964
 30
0.0
 11
553.505398
 21
228.179464
 31
0.0
  0
LINE
  5
262
100
AcDbEntity
  8
Layer_1
 62
1
100
AcDbLine
 10
553.505398
 20
228.179464
 30
0.0
 11
547.155398
 21
228.179464
 31
0.0
  0
LINE
  5
263
100
AcDbEntity
  8
Layer_1
 62
1
100
AcDbLine
 10
547.155398
 20
228.179464
 30
0.0
 11
547.155398
 21
218.502464
 31
0.0
  0
LINE
  5
264
100
AcDbEntity
  8
Layer_1
 62
1
100
AcDbLine
 10
547.155398
 20
218.502464
 30
0.0
 11
553.505398
 21
218.502464
 31
0.0
  0
LINE
  5
265
100
AcDbEntity
  8
Layer_1
 62
1
100
AcDbLine
 10
553.505398
 20
218.502464
 30
0.0
 11
553.505398
 21
214.690964
 31
0.0
  0
LINE
  5
266
100
AcDbEntity
  8
Layer_1
 62
1
100
AcDbLine
 10
553.505398
 20
214.690964
 30
0.0
 11
543.666898
 21
214.690964
 31
0.0
  0
LINE
  5
267
100
AcDbEntity
  8
Layer_1
 62
1
100
AcDbLine
 10
543.666898
 20
214.690964
 30
0.0
 11
543.666898
 21
208.340964
 31
0.0
  0
LINE
  5
268
100
AcDbEntity
  8
Layer_1
 62
1
100
AcDbLine
 10
543.666898
 20
208.340964
 30
0.0
 11
533.343898
 21
208.340964
 31
0.0
  0
LINE
  5
269
100
AcDbEntity
  8
Layer_1
 62
1
100
AcDbLine
 10
533.343898
 20
208.340964
 30
0.0
 11
533.343898
 21
214.690964
 31
0.0
  0
LINE
  5
26a
100
AcDbEntity
  8
Layer_1
 62
1
100
AcDbLine
 10
533.343898
 20
214.690964
 30
0.0
 11
523.505399
 21
214.690964
 31
0.0
  0
LINE
  5
26b
100
AcDbEntity
  8
Layer_1
 62
1
100
AcDbLine
 10
523.505399
 20
214.690964
 30
0.0
 11
523.505399
 21
218.502464
 31
0.0
  0
LINE
  5
26c
100
AcDbEntity
  8
Layer_1
 62
1
100
AcDbLine
 10
523.505399
 20
218.502464
 30
0.0
 11
529.855398
 21
218.502464
 31
0.0
  0
LINE
  5
26d
100
AcDbEntity
  8
Layer_1
 62
1
100
AcDbLine
 10
529.855398
 20
218.502464
 30
0.0
 11
529.855398
 21
228.179464
 31
0.0
  0
LINE
  5
26e
100
AcDbEntity
  8
Layer_1
 62
1
100
AcDbLine
 10
529.855398
 20
228.179464
 30
0.0
 11
523.505399
 21
228.179464
 31
0.0
  0
LINE
  5
26f
100
AcDbEntity
  8
Layer_1
 62
1
100
AcDbLine
 10
523.505399
 20
228.179464
 30
0.0
 11
523.505399
 21
238.340964
 31
0.0
  0
LINE
  5
270
100
AcDbEntity
  8
Layer_1
 62
7
100
AcDbLine
 10
465.265330
 20
199.331382
 30
0.0
 11
465.265330
 21
204.469072
 31
0.0
  0
LINE
  5
271
100
AcDbEntity
  8
Layer_1
 62
7
100
AcDbLine
 10
465.265330
 20
204.469072
 30
0.0
 11
463.346140
 21
204.469072
 31
0.0
  0
LINE
  5
272
100
AcDbEntity
  8
Layer_1
 62
7
100
AcDbLine
 10
463.346140
 20
204.469072
 30
0.0
 11
463.346140
 21
205.156482
 31
0.0
  0
LINE
  5
273
100
AcDbEntity
  8
Layer_1
 62
7
100
AcDbLine
 10
463.346140
 20
205.156482
 30
0.0
 11
467.963310
 21
205.156482
 31
0.0
  0
LINE
  5
274
100
AcDbEntity
  8
Layer_1
 62
7
100
AcDbLine
 10
467.963310
 20
205.156482
 30
0.0
 11
467.963310
 21
204.469072
 31
0.0
  0
LINE
  5
275
100
AcDbEntity
  8
Layer_1
 62
7
100
AcDbLine
 10
467.963310
 20
204.469072
 30
0.0
 11
466.036180
 21
204.469072
 31
0.0
  0
LINE
  5
276
100
AcDbEntity
  8
Layer_1
 62
7
100
AcDbLine
 10
466.036180
 20
204.469072
 30
0.0
 11
466.036180
 21
199.331382
 31
0.0
  0
LINE
  5
277
100
AcDbEntity
  8
Layer_1
 62
7
100
AcDbLine
 10
466.036180
 20
199.331382
 30
0.0
 11
465.265330
 21
199.331382
 31
0.0
  0
LINE
  5
278
100
AcDbEntity
  8
Layer_1
 62
7
100
AcDbLine
 10
468.773900
 20
199.331382
 30
0.0
 11
468.773900
 21
205.156482
 31
0.0
  0
LINE
  5
279
100
AcDbEntity
  8
Layer_1
 62
7
100
AcDbLine
 10
468.773900
 20
205.156482
 30
0.0
 11
472.985770
 21
205.156482
 31
0.0
  0
LINE
  5
27a
100
AcDbEntity
  8
Layer_1
 62
7
100
AcDbLine
 10
472.985770
 20
205.156482
 30
0.0
 11
472.985770
 21
204.469072
 31
0.0
  0
LINE
  5
27b
100
AcDbEntity
  8
Layer_1
 62
7
100
AcDbLine
 10
472.985770
 20
204.469072
 30
0.0
 11
469.544750
 21
204.469072
 31
0.0
  0
LINE
  5
27c
100
AcDbEntity
  8
Layer_1
 62
7
100
AcDbLine
 10
469.544750
 20
204.469072
 30
0.0
 11
469.544750
 21
202.684986
 31
0.0
  0
LINE
  5
27d
100
AcDbEntity
  8
Layer_1
 62
7
100
AcDbLine
 10
469.544750
 20
202.684986
 30
0.0
 11
472.767230
 21
202.684986
 31
0.0
  0
LINE
  5
27e
100
AcDbEntity
  8
Layer_1
 62
7
100
AcDbLine
 10
472.767230
 20
202.684986
 30
0.0
 11
472.767230
 21
202.001550
 31
0.0
  0
LINE
  5
27f
100
AcDbEntity
  8
Layer_1
 62
7
100
AcDbLine
 10
472.767230
 20
202.001550
 30
0.0
 11
469.544750
 21
202.001550
 31
0.0
  0
LINE
  5
280
100
AcDbEntity
  8
Layer_1
 62
7
100
AcDbLine
 10
469.544750
 20
202.001550
 30
0.0
 11
469.544750
 21
200.018791
 31
0.0
  0
LINE
  5
281
100
AcDbEntity
  8
Layer_1
 62
7
100
AcDbLine
 10
469.544750
 20
200.018791
 30
0.0
 11
473.120870
 21
200.018791
 31
0.0
  0
LINE
  5
282
100
AcDbEntity
  8
Layer_1
 62
7
100
AcDbLine
 10
473.120870
 20
200.018791
 30
0.0
 11
473.120870
 21
199.331382
 31
0.0
  0
LINE
  5
283
100
AcDbEntity
  8
Layer_1
 62
7
100
AcDbLine
 10
473.120870
 20
199.331382
 30
0.0
 11
468.773900
 21
199.331382
 31
0.0
  0
LINE
  5
284
100
AcDbEntity
  8
Layer_1
 62
7
100
AcDbLine
 10
473.931450
 20
201.202884
 30
0.0
 11
474.658600
 21
201.266464
 31
0.0
  0
SPLINE
  5
285
100
AcDbEntity
  8
Layer_1
 62
7
100
AcDbSpline
 70
8
 71
3
 72
8
 73
4
 74
0
 40
0
 40
0
 40
0
 40
0
 40
1
 40
1
 40
1
 40
1
 10
474.658600
 20
201.266464
 30
0.0
 10
474.693000
 20
200.975076
 30
0.0
 10
474.772470
 20
200.735344
 30
0.0
 10
474.897010
 20
200.547267
 30
0.0
  0
SPLINE
  5
286
100
AcDbEntity
  8
Layer_1
 62
7
100
AcDbSpline
 70
8
 71
3
 72
8
 73
4
 74
0
 40
0
 40
0
 40
0
 40
0
 40
1
 40
1
 40
1
 40
1
 10
474.897010
 20
200.547267
 30
0.0
 10
475.024156
 20
200.361838
 30
0.0
 10
475.220180
 20
200.210846
 30
0.0
 10
475.485080
 20
200.094292
 30
0.0
  0
SPLINE
  5
287
100
AcDbEntity
  8
Layer_1
 62
7
100
AcDbSpline
 70
8
 71
3
 72
8
 73
4
 74
0
 40
0
 40
0
 40
0
 40
0
 40
1
 40
1
 40
1
 40
1
 10
475.485080
 20
200.094292
 30
0.0
 10
475.749980
 20
199.980386
 30
0.0
 10
476.047990
 20
199.923433
 30
0.0
 10
476.379110
 20
199.923433
 30
0.0
  0
SPLINE
  5
288
100
AcDbEntity
  8
Layer_1
 62
7
100
AcDbSpline
 70
8
 71
3
 72
8
 73
4
 74
0
 40
0
 40
0
 40
0
 40
0
 40
1
 40
1
 40
1
 40
1
 10
476.379110
 20
199.923433
 30
0.0
 10
476.673143
 20
199.923433
 30
0.0
 10
476.932743
 20
199.967141
 30
0.0
 10
477.157910
 20
200.054557
 30
0.0
  0
SPLINE
  5
289
100
AcDbEntity
  8
Layer_1
 62
7
100
AcDbSpline
 70
8
 71
3
 72
8
 73
4
 74
0
 40
0
 40
0
 40
0
 40
0
 40
1
 40
1
 40
1
 40
1
 10
477.157910
 20
200.054557
 30
0.0
 10
477.383070
 20
200.141973
 30
0.0
 10
477.549953
 20
200.261177
 30
0.0
 10
477.658560
 20
200.412169
 30
0.0
  0
SPLINE
  5
28a
100
AcDbEntity
  8
Layer_1
 62
7
100
AcDbSpline
 70
8
 71
3
 72
8
 73
4
 74
0
 40
0
 40
0
 40
0
 40
0
 40
1
 40
1
 40
1
 40
1
 10
477.658560
 20
200.412169
 30
0.0
 10
477.769820
 20
200.565809
 30
0.0
 10
477.825450
 20
200.732695
 30
0.0
 10
477.825450
 20
200.912826
 30
0.0
  0
SPLINE
  5
28b
100
AcDbEntity
  8
Layer_1
 62
7
100
AcDbSpline
 70
8
 71
3
 72
8
 73
4
 74
0
 40
0
 40
0
 40
0
 40
0
 40
1
 40
1
 40
1
 40
1
 10
477.825450
 20
200.912826
 30
0.0
 10
477.825450
 20
201.095605
 30
0.0
 10
477.772470
 20
201.254544
 30
0.0
 10
477.666510
 20
201.389642
 30
0.0
  0
SPLINE
  5
28c
100
AcDbEntity
  8
Layer_1
 62
7
100
AcDbSpline
 70
8
 71
3
 72
8
 73
4
 74
0
 40
0
 40
0
 40
0
 40
0
 40
1
 40
1
 40
1
 40
1
 10
477.666510
 20
201.389642
 30
0.0
 10
477.560550
 20
201.527388
 30
0.0
 10
477.385716
 20
201.642619
 30
0.0
 10
477.142010
 20
201.735333
 30
0.0
  0
SPLINE
  5
28d
100
AcDbEntity
  8
Layer_1
 62
7
100
AcDbSpline
 70
8
 71
3
 72
8
 73
4
 74
0
 40
0
 40
0
 40
0
 40
0
 40
1
 40
1
 40
1
 40
1
 10
477.142010
 20
201.735333
 30
0.0
 10
476.985723
 20
201.796259
 30
0.0
 10
476.640033
 20
201.890298
 30
0.0
 10
476.104940
 20
202.017449
 30
0.0
  0
SPLINE
  5
28e
100
AcDbEntity
  8
Layer_1
 62
7
100
AcDbSpline
 70
8
 71
3
 72
8
 73
4
 74
0
 40
0
 40
0
 40
0
 40
0
 40
1
 40
1
 40
1
 40
1
 10
476.104940
 20
202.017449
 30
0.0
 10
475.569846
 20
202.147249
 30
0.0
 10
475.195016
 20
202.269102
 30
0.0
 10
474.980450
 20
202.383008
 30
0.0
  0
SPLINE
  5
28f
100
AcDbEntity
  8
Layer_1
 62
7
100
AcDbSpline
 70
8
 71
3
 72
8
 73
4
 74
0
 40
0
 40
0
 40
0
 40
0
 40
1
 40
1
 40
1
 40
1
 10
474.980450
 20
202.383008
 30
0.0
 10
474.702303
 20
202.528702
 30
0.0
 10
474.494356
 20
202.708832
 30
0.0
 10
474.356610
 20
202.923399
 30
0.0
  0
SPLINE
  5
290
100
AcDbEntity
  8
Layer_1
 62
7
100
AcDbSpline
 70
8
 71
3
 72
8
 73
4
 74
0
 40
0
 40
0
 40
0
 40
0
 40
1
 40
1
 40
1
 40
1
 10
474.356610
 20
202.923399
 30
0.0
 10
474.221516
 20
203.140615
 30
0.0
 10
474.153970
 20
203.382997
 30
0.0
 10
474.153970
 20
203.650544
 30
0.0
  0
SPLINE
  5
291
100
AcDbEntity
  8
Layer_1
 62
7
100
AcDbSpline
 70
8
 71
3
 72
8
 73
4
 74
0
 40
0
 40
0
 40
0
 40
0
 40
1
 40
1
 40
1
 40
1
 10
474.153970
 20
203.650544
 30
0.0
 10
474.153970
 20
203.944580
 30
0.0
 10
474.237413
 20
204.218749
 30
0.0
 10
474.404300
 20
204.473051
 30
0.0
  0
SPLINE
  5
292
100
AcDbEntity
  8
Layer_1
 62
7
100
AcDbSpline
 70
8
 71
3
 72
8
 73
4
 74
0
 40
0
 40
0
 40
0
 40
0
 40
1
 40
1
 40
1
 40
1
 10
474.404300
 20
204.473051
 30
0.0
 10
474.571180
 20
204.730001
 30
0.0
 10
474.814883
 20
204.924701
 30
0.0
 10
475.135410
 20
205.057150
 30
0.0
  0
SPLINE
  5
293
100
AcDbEntity
  8
Layer_1
 62
7
100
AcDbSpline
 70
8
 71
3
 72
8
 73
4
 74
0
 40
0
 40
0
 40
0
 40
0
 40
1
 40
1
 40
1
 40
1
 10
475.135410
 20
205.057150
 30
0.0
 10
475.455936
 20
205.189599
 30
0.0
 10
475.812226
 20
205.255824
 30
0.0
 10
476.204280
 20
205.255824
 30
0.0
  0
SPLINE
  5
294
100
AcDbEntity
  8
Layer_1
 62
7
100
AcDbSpline
 70
8
 71
3
 72
8
 73
4
 74
0
 40
0
 40
0
 40
0
 40
0
 40
1
 40
1
 40
1
 40
1
 10
476.204280
 20
205.255824
 30
0.0
 10
476.636060
 20
205.255824
 30
0.0
 10
477.016186
 20
205.185626
 30
0.0
 10
477.344660
 20
205.045230
 30
0.0
  0
SPLINE
  5
295
100
AcDbEntity
  8
Layer_1
 62
7
100
AcDbSpline
 70
8
 71
3
 72
8
 73
4
 74
0
 40
0
 40
0
 40
0
 40
0
 40
1
 40
1
 40
1
 40
1
 10
477.344660
 20
205.045230
 30
0.0
 10
477.675780
 20
204.907483
 30
0.0
 10
477.930083
 20
204.703512
 30
0.0
 10
478.107570
 20
204.433316
 30
0.0
  0
SPLINE
  5
296
100
AcDbEntity
  8
Layer_1
 62
7
100
AcDbSpline
 70
8
 71
3
 72
8
 73
4
 74
0
 40
0
 40
0
 40
0
 40
0
 40
1
 40
1
 40
1
 40
1
 10
478.107570
 20
204.433316
 30
0.0
 10
478.285050
 20
204.163120
 30
0.0
 10
478.380413
 20
203.857164
 30
0.0
 10
478.393660
 20
203.515446
 30
0.0
  0
LINE
  5
297
100
AcDbEntity
  8
Layer_1
 62
7
100
AcDbLine
 10
478.393660
 20
203.515446
 30
0.0
 11
477.654590
 21
203.459816
 31
0.0
  0
SPLINE
  5
298
100
AcDbEntity
  8
Layer_1
 62
7
100
AcDbSpline
 70
8
 71
3
 72
8
 73
4
 74
0
 40
0
 40
0
 40
0
 40
0
 40
1
 40
1
 40
1
 40
1
 10
477.654590
 20
203.459816
 30
0.0
 10
477.614856
 20
203.828024
 30
0.0
 10
477.479760
 20
204.106166
 30
0.0
 10
477.249300
 20
204.294244
 30
0.0
  0
SPLINE
  5
299
100
AcDbEntity
  8
Layer_1
 62
7
100
AcDbSpline
 70
8
 71
3
 72
8
 73
4
 74
0
 40
0
 40
0
 40
0
 40
0
 40
1
 40
1
 40
1
 40
1
 10
477.249300
 20
204.294244
 30
0.0
 10
477.021486
 20
204.482321
 30
0.0
 10
476.683740
 20
204.576360
 30
0.0
 10
476.236060
 20
204.576360
 30
0.0
  0
SPLINE
  5
29a
100
AcDbEntity
  8
Layer_1
 62
7
100
AcDbSpline
 70
8
 71
3
 72
8
 73
4
 74
0
 40
0
 40
0
 40
0
 40
0
 40
1
 40
1
 40
1
 40
1
 10
476.236060
 20
204.576360
 30
0.0
 10
475.769840
 20
204.576360
 30
0.0
 10
475.429446
 20
204.490268
 30
0.0
 10
475.214880
 20
204.318085
 30
0.0
  0
SPLINE
  5
29b
100
AcDbEntity
  8
Layer_1
 62
7
100
AcDbSpline
 70
8
 71
3
 72
8
 73
4
 74
0
 40
0
 40
0
 40
0
 40
0
 40
1
 40
1
 40
1
 40
1
 10
475.214880
 20
204.318085
 30
0.0
 10
475.002966
 20
204.148550
 30
0.0
 10
474.897010
 20
203.943254
 30
0.0
 10
474.897010
 20
203.702198
 30
0.0
  0
SPLINE
  5
29c
100
AcDbEntity
  8
Layer_1
 62
7
100
AcDbSpline
 70
8
 71
3
 72
8
 73
4
 74
0
 40
0
 40
0
 40
0
 40
0
 40
1
 40
1
 40
1
 40
1
 10
474.897010
 20
203.702198
 30
0.0
 10
474.897010
 20
203.492928
 30
0.0
 10
474.972503
 20
203.320745
 30
0.0
 10
475.123490
 20
203.185647
 30
0.0
  0
SPLINE
  5
29d
100
AcDbEntity
  8
Layer_1
 62
7
100
AcDbSpline
 70
8
 71
3
 72
8
 73
4
 74
0
 40
0
 40
0
 40
0
 40
0
 40
1
 40
1
 40
1
 40
1
 10
475.123490
 20
203.185647
 30
0.0
 10
475.271836
 20
203.050549
 30
0.0
 10
475.658590
 20
202.911477
 30
0.0
 10
476.283750
 20
202.768433
 30
0.0
  0
SPLINE
  5
29e
100
AcDbEntity
  8
Layer_1
 62
7
100
AcDbSpline
 70
8
 71
3
 72
8
 73
4
 74
0
 40
0
 40
0
 40
0
 40
0
 40
1
 40
1
 40
1
 40
1
 10
476.283750
 20
202.768433
 30
0.0
 10
476.911556
 20
202.628037
 30
0.0
 10
477.342013
 20
202.504860
 30
0.0
 10
477.575120
 20
202.398901
 30
0.0
  0
SPLINE
  5
29f
100
AcDbEntity
  8
Layer_1
 62
7
100
AcDbSpline
 70
8
 71
3
 72
8
 73
4
 74
0
 40
0
 40
0
 40
0
 40
0
 40
1
 40
1
 40
1
 40
1
 10
477.575120
 20
202.398901
 30
0.0
 10
477.914193
 20
202.242611
 30
0.0
 10
478.164523
 20
202.043937
 30
0.0
 10
478.326110
 20
201.802881
 30
0.0
  0
SPLINE
  5
2a0
100
AcDbEntity
  8
Layer_1
 62
7
100
AcDbSpline
 70
8
 71
3
 72
8
 73
4
 74
0
 40
0
 40
0
 40
0
 40
0
 40
1
 40
1
 40
1
 40
1
 10
478.326110
 20
201.802881
 30
0.0
 10
478.487696
 20
201.564473
 30
0.0
 10
478.568490
 20
201.288979
 30
0.0
 10
478.568490
 20
200.976400
 30
0.0
  0
SPLINE
  5
2a1
100
AcDbEntity
  8
Layer_1
 62
7
100
AcDbSpline
 70
8
 71
3
 72
8
 73
4
 74
0
 40
0
 40
0
 40
0
 40
0
 40
1
 40
1
 40
1
 40
1
 10
478.568490
 20
200.976400
 30
0.0
 10
478.568490
 20
200.666470
 30
0.0
 10
478.479750
 20
200.373758
 30
0.0
 10
478.302270
 20
200.098264
 30
0.0
  0
SPLINE
  5
2a2
100
AcDbEntity
  8
Layer_1
 62
7
100
AcDbSpline
 70
8
 71
3
 72
8
 73
4
 74
0
 40
0
 40
0
 40
0
 40
0
 40
1
 40
1
 40
1
 40
1
 10
478.302270
 20
200.098264
 30
0.0
 10
478.124783
 20
199.825420
 30
0.0
 10
477.869156
 20
199.612177
 30
0.0
 10
477.535390
 20
199.458537
 30
0.0
  0
SPLINE
  5
2a3
100
AcDbEntity
  8
Layer_1
 62
7
100
AcDbSpline
 70
8
 71
3
 72
8
 73
4
 74
0
 40
0
 40
0
 40
0
 40
0
 40
1
 40
1
 40
1
 40
1
 10
477.535390
 20
199.458537
 30
0.0
 10
477.204263
 20
199.307545
 30
0.0
 10
476.830756
 20
199.232049
 30
0.0
 10
476.414870
 20
199.232049
 30
0.0
  0
SPLINE
  5
2a4
100
AcDbEntity
  8
Layer_1
 62
7
100
AcDbSpline
 70
8
 71
3
 72
8
 73
4
 74
0
 40
0
 40
0
 40
0
 40
0
 40
1
 40
1
 40
1
 40
1
 10
476.414870
 20
199.232049
 30
0.0
 10
475.887723
 20
199.232049
 30
0.0
 10
475.445343
 20
199.308869
 30
0.0
 10
475.087730
 20
199.462510
 30
0.0
  0
SPLINE
  5
2a5
100
AcDbEntity
  8
Layer_1
 62
7
100
AcDbSpline
 70
8
 71
3
 72
8
 73
4
 74
0
 40
0
 40
0
 40
0
 40
0
 40
1
 40
1
 40
1
 40
1
 10
475.087730
 20
199.462510
 30
0.0
 10
474.732770
 20
199.616150
 30
0.0
 10
474.453303
 20
199.846611
 30
0.0
 10
474.249330
 20
200.153893
 30
0.0
  0
SPLINE
  5
2a6
100
AcDbEntity
  8
Layer_1
 62
7
100
AcDbSpline
 70
8
 71
3
 72
8
 73
4
 74
0
 40
0
 40
0
 40
0
 40
0
 40
1
 40
1
 40
1
 40
1
 10
474.249330
 20
200.153893
 30
0.0
 10
474.048010
 20
200.463823
 30
0.0
 10
473.942050
 20
200.813488
 30
0.0
 10
473.931450
 20
201.202888
 30
0.0
  0
LINE
  5
2a7
100
AcDbEntity
  8
Layer_1
 62
7
100
AcDbLine
 10
473.931450
 20
201.202888
 30
0.0
 11
473.931450
 21
201.202884
 31
0.0
  0
LINE
  5
2a8
100
AcDbEntity
  8
Layer_1
 62
7
100
AcDbLine
 10
481.111509
 20
199.331382
 30
0.0
 11
481.111509
 21
204.469072
 31
0.0
  0
LINE
  5
2a9
100
AcDbEntity
  8
Layer_1
 62
7
100
AcDbLine
 10
481.111509
 20
204.469072
 30
0.0
 11
479.192320
 21
204.469072
 31
0.0
  0
LINE
  5
2aa
100
AcDbEntity
  8
Layer_1
 62
7
100
AcDbLine
 10
479.192320
 20
204.469072
 30
0.0
 11
479.192320
 21
205.156482
 31
0.0
  0
LINE
  5
2ab
100
AcDbEntity
  8
Layer_1
 62
7
100
AcDbLine
 10
479.192320
 20
205.156482
 30
0.0
 11
483.809489
 21
205.156482
 31
0.0
  0
LINE
  5
2ac
100
AcDbEntity
  8
Layer_1
 62
7
100
AcDbLine
 10
483.809489
 20
205.156482
 30
0.0
 11
483.809489
 21
204.469072
 31
0.0
  0
LINE
  5
2ad
100
AcDbEntity
  8
Layer_1
 62
7
100
AcDbLine
 10
483.809489
 20
204.469072
 30
0.0
 11
481.882359
 21
204.469072
 31
0.0
  0
LINE
  5
2ae
100
AcDbEntity
  8
Layer_1
 62
7
100
AcDbLine
 10
481.882359
 20
204.469072
 30
0.0
 11
481.882359
 21
199.331382
 31
0.0
  0
LINE
  5
2af
100
AcDbEntity
  8
Layer_1
 62
7
100
AcDbLine
 10
481.882359
 20
199.331382
 30
0.0
 11
481.111509
 21
199.331382
 31
0.0
  0
LINE
  5
2b0
100
AcDbEntity
  8
Layer_1
 62
7
100
AcDbLine
 10
486.686279
 20
199.331382
 30
0.0
 11
486.686279
 21
205.156482
 31
0.0
  0
LINE
  5
2b1
100
AcDbEntity
  8
Layer_1
 62
7
100
AcDbLine
 10
486.686279
 20
205.156482
 30
0.0
 11
488.871679
 21
205.156482
 31
0.0
  0
SPLINE
  5
2b2
100
AcDbEntity
  8
Layer_1
 62
7
100
AcDbSpline
 70
8
 71
3
 72
8
 73
4
 74
0
 40
0
 40
0
 40
0
 40
0
 40
1
 40
1
 40
1
 40
1
 10
488.871679
 20
205.156482
 30
0.0
 10
489.316713
 20
205.156482
 30
0.0
 10
489.673003
 20
205.096880
 30
0.0
 10
489.940549
 20
204.977676
 30
0.0
  0
SPLINE
  5
2b3
100
AcDbEntity
  8
Layer_1
 62
7
100
AcDbSpline
 70
8
 71
3
 72
8
 73
4
 74
0
 40
0
 40
0
 40
0
 40
0
 40
1
 40
1
 40
1
 40
1
 10
489.940549
 20
204.977676
 30
0.0
 10
490.210743
 20
204.861121
 30
0.0
 10
490.421336
 20
204.679666
 30
0.0
 10
490.572329
 20
204.433311
 30
0.0
  0
SPLINE
  5
2b4
100
AcDbEntity
  8
Layer_1
 62
7
100
AcDbSpline
 70
8
 71
3
 72
8
 73
4
 74
0
 40
0
 40
0
 40
0
 40
0
 40
1
 40
1
 40
1
 40
1
 10
490.572329
 20
204.433311
 30
0.0
 10
490.725969
 20
204.189605
 30
0.0
 10
490.802789
 20
203.933978
 30
0.0
 10
490.802789
 20
203.666432
 30
0.0
  0
SPLINE
  5
2b5
100
AcDbEntity
  8
Layer_1
 62
7
100
AcDbSpline
 70
8
 71
3
 72
8
 73
4
 74
0
 40
0
 40
0
 40
0
 40
0
 40
1
 40
1
 40
1
 40
1
 10
490.802789
 20
203.666432
 30
0.0
 10
490.802789
 20
203.417428
 30
0.0
 10
490.735239
 20
203.182994
 30
0.0
 10
490.600139
 20
202.963129
 30
0.0
  0
SPLINE
  5
2b6
100
AcDbEntity
  8
Layer_1
 62
7
100
AcDbSpline
 70
8
 71
3
 72
8
 73
4
 74
0
 40
0
 40
0
 40
0
 40
0
 40
1
 40
1
 40
1
 40
1
 10
490.600139
 20
202.963129
 30
0.0
 10
490.465039
 20
202.743263
 30
0.0
 10
490.261069
 20
202.565782
 30
0.0
 10
489.988229
 20
202.430685
 30
0.0
  0
SPLINE
  5
2b7
100
AcDbEntity
  8
Layer_1
 62
7
100
AcDbSpline
 70
8
 71
3
 72
8
 73
4
 74
0
 40
0
 40
0
 40
0
 40
0
 40
1
 40
1
 40
1
 40
1
 10
489.988229
 20
202.430685
 30
0.0
 10
490.340543
 20
202.327375
 30
0.0
 10
490.610736
 20
202.151218
 30
0.0
 10
490.798809
 20
201.902214
 30
0.0
  0
SPLINE
  5
2b8
100
AcDbEntity
  8
Layer_1
 62
7
100
AcDbSpline
 70
8
 71
3
 72
8
 73
4
 74
0
 40
0
 40
0
 40
0
 40
0
 40
1
 40
1
 40
1
 40
1
 10
490.798809
 20
201.902214
 30
0.0
 10
490.989536
 20
201.653210
 30
0.0
 10
491.084899
 20
201.359173
 30
0.0
 10
491.084899
 20
201.020104
 30
0.0
  0
SPLINE
  5
2b9
100
AcDbEntity
  8
Layer_1
 62
7
100
AcDbSpline
 70
8
 71
3
 72
8
 73
4
 74
0
 40
0
 40
0
 40
0
 40
0
 40
1
 40
1
 40
1
 40
1
 10
491.084899
 20
201.020104
 30
0.0
 10
491.084899
 20
200.747260
 30
0.0
 10
491.026623
 20
200.492958
 30
0.0
 10
490.910069
 20
200.257199
 30
0.0
  0
SPLINE
  5
2ba
100
AcDbEntity
  8
Layer_1
 62
7
100
AcDbSpline
 70
8
 71
3
 72
8
 73
4
 74
0
 40
0
 40
0
 40
0
 40
0
 40
1
 40
1
 40
1
 40
1
 10
490.910069
 20
200.257199
 30
0.0
 10
490.796163
 20
200.024089
 30
0.0
 10
490.654443
 20
199.843958
 30
0.0
 10
490.484909
 20
199.716808
 30
0.0
  0
SPLINE
  5
2bb
100
AcDbEntity
  8
Layer_1
 62
7
100
AcDbSpline
 70
8
 71
3
 72
8
 73
4
 74
0
 40
0
 40
0
 40
0
 40
0
 40
1
 40
1
 40
1
 40
1
 10
490.484909
 20
199.716808
 30
0.0
 10
490.315376
 20
199.589656
 30
0.0
 10
490.102133
 20
199.492969
 30
0.0
 10
489.845179
 20
199.426745
 30
0.0
  0
SPLINE
  5
2bc
100
AcDbEntity
  8
Layer_1
 62
7
100
AcDbSpline
 70
8
 71
3
 72
8
 73
4
 74
0
 40
0
 40
0
 40
0
 40
0
 40
1
 40
1
 40
1
 40
1
 10
489.845179
 20
199.426745
 30
0.0
 10
489.590879
 20
199.363171
 30
0.0
 10
489.278303
 20
199.331385
 30
0.0
 10
488.907449
 20
199.331385
 30
0.0
  0
LINE
  5
2bd
100
AcDbEntity
  8
Layer_1
 62
7
100
AcDbLine
 10
488.907449
 20
199.331385
 30
0.0
 11
486.686279
 21
199.331382
 31
0.0
  0
LINE
  5
2be
100
AcDbEntity
  8
Layer_1
 62
7
100
AcDbLine
 10
487.457129
 20
202.708827
 30
0.0
 11
488.716719
 21
202.708827
 31
0.0
  0
SPLINE
  5
2bf
100
AcDbEntity
  8
Layer_1
 62
7
100
AcDbSpline
 70
8
 71
3
 72
8
 73
4
 74
0
 40
0
 40
0
 40
0
 40
0
 40
1
 40
1
 40
1
 40
1
 10
488.716719
 20
202.708827
 30
0.0
 10
489.058439
 20
202.708827
 30
0.0
 10
489.303469
 20
202.731343
 30
0.0
 10
489.451809
 20
202.776377
 30
0.0
  0
SPLINE
  5
2c0
100
AcDbEntity
  8
Layer_1
 62
7
100
AcDbSpline
 70
8
 71
3
 72
8
 73
4
 74
0
 40
0
 40
0
 40
0
 40
0
 40
1
 40
1
 40
1
 40
1
 10
489.451809
 20
202.776377
 30
0.0
 10
489.647836
 20
202.834657
 30
0.0
 10
489.794853
 20
202.931344
 30
0.0
 10
489.892859
 20
203.066440
 30
0.0
  0
SPLINE
  5
2c1
100
AcDbEntity
  8
Layer_1
 62
7
100
AcDbSpline
 70
8
 71
3
 72
8
 73
4
 74
0
 40
0
 40
0
 40
0
 40
0
 40
1
 40
1
 40
1
 40
1
 10
489.892859
 20
203.066440
 30
0.0
 10
489.993526
 20
203.201538
 30
0.0
 10
490.043859
 20
203.371072
 30
0.0
 10
490.043859
 20
203.575044
 30
0.0
  0
SPLINE
  5
2c2
100
AcDbEntity
  8
Layer_1
 62
7
100
AcDbSpline
 70
8
 71
3
 72
8
 73
4
 74
0
 40
0
 40
0
 40
0
 40
0
 40
1
 40
1
 40
1
 40
1
 10
490.043859
 20
203.575044
 30
0.0
 10
490.043859
 20
203.768419
 30
0.0
 10
489.997503
 20
203.937953
 30
0.0
 10
489.904789
 20
204.083647
 30
0.0
  0
SPLINE
  5
2c3
100
AcDbEntity
  8
Layer_1
 62
7
100
AcDbSpline
 70
8
 71
3
 72
8
 73
4
 74
0
 40
0
 40
0
 40
0
 40
0
 40
1
 40
1
 40
1
 40
1
 10
489.904789
 20
204.083647
 30
0.0
 10
489.812069
 20
204.231989
 30
0.0
 10
489.679619
 20
204.332651
 30
0.0
 10
489.507439
 20
204.385631
 30
0.0
  0
SPLINE
  5
2c4
100
AcDbEntity
  8
Layer_1
 62
7
100
AcDbSpline
 70
8
 71
3
 72
8
 73
4
 74
0
 40
0
 40
0
 40
0
 40
0
 40
1
 40
1
 40
1
 40
1
 10
489.507439
 20
204.385631
 30
0.0
 10
489.335253
 20
204.441257
 30
0.0
 10
489.039893
 20
204.469071
 30
0.0
 10
488.621359
 20
204.469071
 30
0.0
  0
LINE
  5
2c5
100
AcDbEntity
  8
Layer_1
 62
7
100
AcDbLine
 10
488.621359
 20
204.469071
 30
0.0
 11
487.457129
 21
204.469071
 31
0.0
  0
LINE
  5
2c6
100
AcDbEntity
  8
Layer_1
 62
7
100
AcDbLine
 10
487.457129
 20
204.469071
 30
0.0
 11
487.457129
 21
202.708827
 31
0.0
  0
LINE
  5
2c7
100
AcDbEntity
  8
Layer_1
 62
7
100
AcDbLine
 10
487.457129
 20
200.018791
 30
0.0
 11
488.907449
 21
200.018791
 31
0.0
  0
SPLINE
  5
2c8
100
AcDbEntity
  8
Layer_1
 62
7
100
AcDbSpline
 70
8
 71
3
 72
8
 73
4
 74
0
 40
0
 40
0
 40
0
 40
0
 40
1
 40
1
 40
1
 40
1
 10
488.907449
 20
200.018791
 30
0.0
 10
489.156449
 20
200.018791
 30
0.0
 10
489.331279
 20
200.028061
 30
0.0
 10
489.431939
 20
200.046601
 30
0.0
  0
SPLINE
  5
2c9
100
AcDbEntity
  8
Layer_1
 62
7
100
AcDbSpline
 70
8
 71
3
 72
8
 73
4
 74
0
 40
0
 40
0
 40
0
 40
0
 40
1
 40
1
 40
1
 40
1
 10
489.431939
 20
200.046601
 30
0.0
 10
489.609426
 20
200.078387
 30
0.0
 10
489.757769
 20
200.131367
 30
0.0
 10
489.876969
 20
200.205540
 30
0.0
  0
SPLINE
  5
2ca
100
AcDbEntity
  8
Layer_1
 62
7
100
AcDbSpline
 70
8
 71
3
 72
8
 73
4
 74
0
 40
0
 40
0
 40
0
 40
0
 40
1
 40
1
 40
1
 40
1
 10
489.876969
 20
200.205540
 30
0.0
 10
489.996176
 20
200.279711
 30
0.0
 10
490.094189
 20
200.386995
 30
0.0
 10
490.171009
 20
200.527391
 30
0.0
  0
SPLINE
  5
2cb
100
AcDbEntity
  8
Layer_1
 62
7
100
AcDbSpline
 70
8
 71
3
 72
8
 73
4
 74
0
 40
0
 40
0
 40
0
 40
0
 40
1
 40
1
 40
1
 40
1
 10
490.171009
 20
200.527391
 30
0.0
 10
490.247829
 20
200.670435
 30
0.0
 10
490.286239
 20
200.834672
 30
0.0
 10
490.286239
 20
201.020100
 30
0.0
  0
SPLINE
  5
2cc
100
AcDbEntity
  8
Layer_1
 62
7
100
AcDbSpline
 70
8
 71
3
 72
8
 73
4
 74
0
 40
0
 40
0
 40
0
 40
0
 40
1
 40
1
 40
1
 40
1
 10
490.286239
 20
201.020100
 30
0.0
 10
490.286239
 20
201.237316
 30
0.0
 10
490.230609
 20
201.425394
 30
0.0
 10
490.119349
 20
201.584333
 30
0.0
  0
SPLINE
  5
2cd
100
AcDbEntity
  8
Layer_1
 62
7
100
AcDbSpline
 70
8
 71
3
 72
8
 73
4
 74
0
 40
0
 40
0
 40
0
 40
0
 40
1
 40
1
 40
1
 40
1
 10
490.119349
 20
201.584333
 30
0.0
 10
490.008096
 20
201.745920
 30
0.0
 10
489.853133
 20
201.858501
 30
0.0
 10
489.654459
 20
201.922077
 30
0.0
  0
SPLINE
  5
2ce
100
AcDbEntity
  8
Layer_1
 62
7
100
AcDbSpline
 70
8
 71
3
 72
8
 73
4
 74
0
 40
0
 40
0
 40
0
 40
0
 40
1
 40
1
 40
1
 40
1
 10
489.654459
 20
201.922077
 30
0.0
 10
489.458433
 20
201.988303
 30
0.0
 10
489.174993
 20
202.021417
 30
0.0
 10
488.804139
 20
202.021417
 30
0.0
  0
LINE
  5
2cf
100
AcDbEntity
  8
Layer_1
 62
7
100
AcDbLine
 10
488.804139
 20
202.021417
 30
0.0
 11
487.457129
 21
202.021417
 31
0.0
  0
LINE
  5
2d0
100
AcDbEntity
  8
Layer_1
 62
7
100
AcDbLine
 10
487.457129
 20
202.021417
 30
0.0
 11
487.457129
 21
200.018791
 31
0.0
  0
SPLINE
  5
2d1
100
AcDbEntity
  8
Layer_1
 62
7
100
AcDbSpline
 70
8
 71
3
 72
8
 73
4
 74
0
 40
0
 40
0
 40
0
 40
0
 40
1
 40
1
 40
1
 40
1
 10
491.919329
 20
202.168436
 30
0.0
 10
491.919329
 20
203.135312
 30
0.0
 10
492.178929
 20
203.891595
 30
0.0
 10
492.698129
 20
204.437285
 30
0.0
  0
SPLINE
  5
2d2
100
AcDbEntity
  8
Layer_1
 62
7
100
AcDbSpline
 70
8
 71
3
 72
8
 73
4
 74
0
 40
0
 40
0
 40
0
 40
0
 40
1
 40
1
 40
1
 40
1
 10
492.698129
 20
204.437285
 30
0.0
 10
493.217329
 20
204.985623
 30
0.0
 10
493.887523
 20
205.259792
 30
0.0
 10
494.708709
 20
205.259792
 30
0.0
  0
SPLINE
  5
2d3
100
AcDbEntity
  8
Layer_1
 62
7
100
AcDbSpline
 70
8
 71
3
 72
8
 73
4
 74
0
 40
0
 40
0
 40
0
 40
0
 40
1
 40
1
 40
1
 40
1
 10
494.708709
 20
205.259792
 30
0.0
 10
495.246449
 20
205.259792
 30
0.0
 10
495.731209
 20
205.131316
 30
0.0
 10
496.162989
 20
204.874366
 30
0.0
  0
SPLINE
  5
2d4
100
AcDbEntity
  8
Layer_1
 62
7
100
AcDbSpline
 70
8
 71
3
 72
8
 73
4
 74
0
 40
0
 40
0
 40
0
 40
0
 40
1
 40
1
 40
1
 40
1
 10
496.162989
 20
204.874366
 30
0.0
 10
496.594776
 20
204.617415
 30
0.0
 10
496.923249
 20
204.258479
 30
0.0
 10
497.148409
 20
203.797557
 30
0.0
  0
SPLINE
  5
2d5
100
AcDbEntity
  8
Layer_1
 62
7
100
AcDbSpline
 70
8
 71
3
 72
8
 73
4
 74
0
 40
0
 40
0
 40
0
 40
0
 40
1
 40
1
 40
1
 40
1
 10
497.148409
 20
203.797557
 30
0.0
 10
497.376222
 20
203.339283
 30
0.0
 10
497.490129
 20
202.818759
 30
0.0
 10
497.490129
 20
202.235985
 30
0.0
  0
SPLINE
  5
2d6
100
AcDbEntity
  8
Layer_1
 62
7
100
AcDbSpline
 70
8
 71
3
 72
8
 73
4
 74
0
 40
0
 40
0
 40
0
 40
0
 40
1
 40
1
 40
1
 40
1
 10
497.490129
 20
202.235985
 30
0.0
 10
497.490129
 20
201.645263
 30
0.0
 10
497.370926
 20
201.116792
 30
0.0
 10
497.132519
 20
200.650572
 30
0.0
  0
SPLINE
  5
2d7
100
AcDbEntity
  8
Layer_1
 62
7
100
AcDbSpline
 70
8
 71
3
 72
8
 73
4
 74
0
 40
0
 40
0
 40
0
 40
0
 40
1
 40
1
 40
1
 40
1
 10
497.132519
 20
200.650572
 30
0.0
 10
496.894112
 20
200.184352
 30
0.0
 10
496.556369
 20
199.830713
 30
0.0
 10
496.119289
 20
199.589657
 30
0.0
  0
SPLINE
  5
2d8
100
AcDbEntity
  8
Layer_1
 62
7
100
AcDbSpline
 70
8
 71
3
 72
8
 73
4
 74
0
 40
0
 40
0
 40
0
 40
0
 40
1
 40
1
 40
1
 40
1
 10
496.119289
 20
199.589657
 30
0.0
 10
495.682202
 20
199.351249
 30
0.0
 10
495.210683
 20
199.232045
 30
0.0
 10
494.704729
 20
199.232045
 30
0.0
  0
SPLINE
  5
2d9
100
AcDbEntity
  8
Layer_1
 62
7
100
AcDbSpline
 70
8
 71
3
 72
8
 73
4
 74
0
 40
0
 40
0
 40
0
 40
0
 40
1
 40
1
 40
1
 40
1
 10
494.704729
 20
199.232045
 30
0.0
 10
494.156389
 20
199.232045
 30
0.0
 10
493.666329
 20
199.364494
 30
0.0
 10
493.234549
 20
199.629392
 30
0.0
  0
SPLINE
  5
2da
100
AcDbEntity
  8
Layer_1
 62
7
100
AcDbSpline
 70
8
 71
3
 72
8
 73
4
 74
0
 40
0
 40
0
 40
0
 40
0
 40
1
 40
1
 40
1
 40
1
 10
493.234549
 20
199.629392
 30
0.0
 10
492.802769
 20
199.894289
 30
0.0
 10
492.475619
 20
200.255874
 30
0.0
 10
492.253099
 20
200.714148
 30
0.0
  0
SPLINE
  5
2db
100
AcDbEntity
  8
Layer_1
 62
7
100
AcDbSpline
 70
8
 71
3
 72
8
 73
4
 74
0
 40
0
 40
0
 40
0
 40
0
 40
1
 40
1
 40
1
 40
1
 10
492.253099
 20
200.714148
 30
0.0
 10
492.030586
 20
201.172420
 30
0.0
 10
491.919329
 20
201.657183
 30
0.0
 10
491.919329
 20
202.168436
 30
0.0
  0
LINE
  5
2dc
100
AcDbEntity
  8
Layer_1
 62
7
100
AcDbLine
 10
491.919329
 20
202.168436
 30
0.0
 11
491.919329
 21
202.168436
 31
0.0
  0
SPLINE
  5
2dd
100
AcDbEntity
  8
Layer_1
 62
7
100
AcDbSpline
 70
8
 71
3
 72
8
 73
4
 74
0
 40
0
 40
0
 40
0
 40
0
 40
1
 40
1
 40
1
 40
1
 10
492.714029
 20
202.156516
 30
0.0
 10
492.714029
 20
201.454536
 30
0.0
 10
492.902106
 20
200.900900
 30
0.0
 10
493.278259
 20
200.495607
 30
0.0
  0
SPLINE
  5
2de
100
AcDbEntity
  8
Layer_1
 62
7
100
AcDbSpline
 70
8
 71
3
 72
8
 73
4
 74
0
 40
0
 40
0
 40
0
 40
0
 40
1
 40
1
 40
1
 40
1
 10
493.278259
 20
200.495607
 30
0.0
 10
493.657059
 20
200.092962
 30
0.0
 10
494.131226
 20
199.891640
 30
0.0
 10
494.700759
 20
199.891640
 30
0.0
  0
SPLINE
  5
2df
100
AcDbEntity
  8
Layer_1
 62
7
100
AcDbSpline
 70
8
 71
3
 72
8
 73
4
 74
0
 40
0
 40
0
 40
0
 40
0
 40
1
 40
1
 40
1
 40
1
 10
494.700759
 20
199.891640
 30
0.0
 10
495.280886
 20
199.891640
 30
0.0
 10
495.757702
 20
200.095611
 30
0.0
 10
496.131209
 20
200.503554
 30
0.0
  0
SPLINE
  5
2e0
100
AcDbEntity
  8
Layer_1
 62
7
100
AcDbSpline
 70
8
 71
3
 72
8
 73
4
 74
0
 40
0
 40
0
 40
0
 40
0
 40
1
 40
1
 40
1
 40
1
 10
496.131209
 20
200.503554
 30
0.0
 10
496.507362
 20
200.911496
 30
0.0
 10
496.695439
 20
201.490298
 30
0.0
 10
496.695439
 20
202.239958
 30
0.0
  0
SPLINE
  5
2e1
100
AcDbEntity
  8
Layer_1
 62
7
100
AcDbSpline
 70
8
 71
3
 72
8
 73
4
 74
0
 40
0
 40
0
 40
0
 40
0
 40
1
 40
1
 40
1
 40
1
 10
496.695439
 20
202.239958
 30
0.0
 10
496.695439
 20
202.714125
 30
0.0
 10
496.614646
 20
203.127366
 30
0.0
 10
496.453059
 20
203.479680
 30
0.0
  0
SPLINE
  5
2e2
100
AcDbEntity
  8
Layer_1
 62
7
100
AcDbSpline
 70
8
 71
3
 72
8
 73
4
 74
0
 40
0
 40
0
 40
0
 40
0
 40
1
 40
1
 40
1
 40
1
 10
496.453059
 20
203.479680
 30
0.0
 10
496.294119
 20
203.834642
 30
0.0
 10
496.059682
 20
204.108811
 30
0.0
 10
495.749749
 20
204.302187
 30
0.0
  0
SPLINE
  5
2e3
100
AcDbEntity
  8
Layer_1
 62
7
100
AcDbSpline
 70
8
 71
3
 72
8
 73
4
 74
0
 40
0
 40
0
 40
0
 40
0
 40
1
 40
1
 40
1
 40
1
 10
495.749749
 20
204.302187
 30
0.0
 10
495.442469
 20
204.498211
 30
0.0
 10
495.096779
 20
204.596223
 30
0.0
 10
494.712679
 20
204.596223
 30
0.0
  0
SPLINE
  5
2e4
100
AcDbEntity
  8
Layer_1
 62
7
100
AcDbSpline
 70
8
 71
3
 72
8
 73
4
 74
0
 40
0
 40
0
 40
0
 40
0
 40
1
 40
1
 40
1
 40
1
 10
494.712679
 20
204.596223
 30
0.0
 10
494.166993
 20
204.596223
 30
0.0
 10
493.696799
 20
204.408145
 30
0.0
 10
493.302099
 20
204.031991
 30
0.0
  0
SPLINE
  5
2e5
100
AcDbEntity
  8
Layer_1
 62
7
100
AcDbSpline
 70
8
 71
3
 72
8
 73
4
 74
0
 40
0
 40
0
 40
0
 40
0
 40
1
 40
1
 40
1
 40
1
 10
493.302099
 20
204.031991
 30
0.0
 10
492.910053
 20
203.658485
 30
0.0
 10
492.714029
 20
203.033327
 30
0.0
 10
492.714029
 20
202.156516
 30
0.0
  0
LINE
  5
2e6
100
AcDbEntity
  8
Layer_1
 62
7
100
AcDbLine
 10
492.714029
 20
202.156516
 30
0.0
 11
492.714029
 21
202.156516
 31
0.0
  0
LINE
  5
2e7
100
AcDbEntity
  8
Layer_1
 62
7
100
AcDbLine
 10
497.887479
 20
199.331382
 30
0.0
 11
500.140429
 21
202.367109
 31
0.0
  0
LINE
  5
2e8
100
AcDbEntity
  8
Layer_1
 62
7
100
AcDbLine
 10
500.140429
 20
202.367109
 30
0.0
 11
498.153699
 21
205.156482
 31
0.0
  0
LINE
  5
2e9
100
AcDbEntity
  8
Layer_1
 62
7
100
AcDbLine
 10
498.153699
 20
205.156482
 30
0.0
 11
499.071569
 21
205.156482
 31
0.0
  0
LINE
  5
2ea
100
AcDbEntity
  8
Layer_1
 62
7
100
AcDbLine
 10
499.071569
 20
205.156482
 30
0.0
 11
500.128509
 21
203.662459
 31
0.0
  0
SPLINE
  5
2eb
100
AcDbEntity
  8
Layer_1
 62
7
100
AcDbSpline
 70
8
 71
3
 72
8
 73
4
 74
0
 40
0
 40
0
 40
0
 40
0
 40
1
 40
1
 40
1
 40
1
 10
500.128509
 20
203.662459
 30
0.0
 10
500.348376
 20
203.352528
 30
0.0
 10
500.504666
 20
203.114120
 30
0.0
 10
500.597379
 20
202.947235
 30
0.0
  0
SPLINE
  5
2ec
100
AcDbEntity
  8
Layer_1
 62
7
100
AcDbSpline
 70
8
 71
3
 72
8
 73
4
 74
0
 40
0
 40
0
 40
0
 40
0
 40
1
 40
1
 40
1
 40
1
 10
500.597379
 20
202.947235
 30
0.0
 10
500.727179
 20
203.159153
 30
0.0
 10
500.880819
 20
203.380342
 30
0.0
 10
501.058299
 20
203.610804
 30
0.0
  0
LINE
  5
2ed
100
AcDbEntity
  8
Layer_1
 62
7
100
AcDbLine
 10
501.058299
 20
203.610804
 30
0.0
 11
502.230469
 21
205.156482
 31
0.0
  0
LINE
  5
2ee
100
AcDbEntity
  8
Layer_1
 62
7
100
AcDbLine
 10
502.230469
 20
205.156482
 30
0.0
 11
503.068879
 21
205.156482
 31
0.0
  0
LINE
  5
2ef
100
AcDbEntity
  8
Layer_1
 62
7
100
AcDbLine
 10
503.068879
 20
205.156482
 30
0.0
 11
501.022539
 21
202.410817
 31
0.0
  0
LINE
  5
2f0
100
AcDbEntity
  8
Layer_1
 62
7
100
AcDbLine
 10
501.022539
 20
202.410817
 30
0.0
 11
503.227809
 21
199.331382
 31
0.0
  0
LINE
  5
2f1
100
AcDbEntity
  8
Layer_1
 62
7
100
AcDbLine
 10
503.227809
 20
199.331382
 30
0.0
 11
502.274179
 21
199.331382
 31
0.0
  0
LINE
  5
2f2
100
AcDbEntity
  8
Layer_1
 62
7
100
AcDbLine
 10
502.274179
 20
199.331382
 30
0.0
 11
500.807969
 21
201.409504
 31
0.0
  0
SPLINE
  5
2f3
100
AcDbEntity
  8
Layer_1
 62
7
100
AcDbSpline
 70
8
 71
3
 72
8
 73
4
 74
0
 40
0
 40
0
 40
0
 40
0
 40
1
 40
1
 40
1
 40
1
 10
500.807969
 20
201.409504
 30
0.0
 10
500.725856
 20
201.528708
 30
0.0
 10
500.641089
 20
201.658508
 30
0.0
 10
500.553669
 20
201.798904
 30
0.0
  0
SPLINE
  5
2f4
100
AcDbEntity
  8
Layer_1
 62
7
100
AcDbSpline
 70
8
 71
3
 72
8
 73
4
 74
0
 40
0
 40
0
 40
0
 40
0
 40
1
 40
1
 40
1
 40
1
 10
500.553669
 20
201.798904
 30
0.0
 10
500.423869
 20
201.586985
 30
0.0
 10
500.331156
 20
201.441291
 30
0.0
 10
500.275529
 20
201.361822
 30
0.0
  0
LINE
  5
2f5
100
AcDbEntity
  8
Layer_1
 62
7
100
AcDbLine
 10
500.275529
 20
201.361822
 30
0.0
 11
498.813289
 21
199.331382
 31
0.0
  0
LINE
  5
2f6
100
AcDbEntity
  8
Layer_1
 62
7
100
AcDbLine
 10
498.813289
 20
199.331382
 30
0.0
 11
497.887479
 21
199.331382
 31
0.0
  0
LINE
  5
2f7
100
AcDbEntity
  8
Layer_1
 62
7
100
AcDbLine
 10
510.328399
 20
201.373743
 30
0.0
 11
511.099249
 21
201.179043
 31
0.0
  0
SPLINE
  5
2f8
100
AcDbEntity
  8
Layer_1
 62
7
100
AcDbSpline
 70
8
 71
3
 72
8
 73
4
 74
0
 40
0
 40
0
 40
0
 40
0
 40
1
 40
1
 40
1
 40
1
 10
511.099249
 20
201.179043
 30
0.0
 10
510.937662
 20
200.545937
 30
0.0
 10
510.646275
 20
200.062499
 30
0.0
 10
510.225089
 20
199.728728
 30
0.0
  0
SPLINE
  5
2f9
100
AcDbEntity
  8
Layer_1
 62
7
100
AcDbSpline
 70
8
 71
3
 72
8
 73
4
 74
0
 40
0
 40
0
 40
0
 40
0
 40
1
 40
1
 40
1
 40
1
 10
510.225089
 20
199.728728
 30
0.0
 10
509.806549
 20
199.397606
 30
0.0
 10
509.293972
 20
199.232045
 30
0.0
 10
508.687359
 20
199.232045
 30
0.0
  0
SPLINE
  5
2fa
100
AcDbEntity
  8
Layer_1
 62
7
100
AcDbSpline
 70
8
 71
3
 72
8
 73
4
 74
0
 40
0
 40
0
 40
0
 40
0
 40
1
 40
1
 40
1
 40
1
 10
508.687359
 20
199.232045
 30
0.0
 10
508.059552
 20
199.232045
 30
0.0
 10
507.548299
 20
199.359196
 30
0.0
 10
507.153599
 20
199.613498
 30
0.0
  0
SPLINE
  5
2fb
100
AcDbEntity
  8
Layer_1
 62
7
100
AcDbSpline
 70
8
 71
3
 72
8
 73
4
 74
0
 40
0
 40
0
 40
0
 40
0
 40
1
 40
1
 40
1
 40
1
 10
507.153599
 20
199.613498
 30
0.0
 10
506.761552
 20
199.870448
 30
0.0
 10
506.462219
 20
200.241305
 30
0.0
 10
506.255599
 20
200.726068
 30
0.0
  0
SPLINE
  5
2fc
100
AcDbEntity
  8
Layer_1
 62
7
100
AcDbSpline
 70
8
 71
3
 72
8
 73
4
 74
0
 40
0
 40
0
 40
0
 40
0
 40
1
 40
1
 40
1
 40
1
 10
506.255599
 20
200.726068
 30
0.0
 10
506.051626
 20
201.210830
 30
0.0
 10
505.949639
 20
201.731354
 30
0.0
 10
505.949639
 20
202.287640
 30
0.0
  0
SPLINE
  5
2fd
100
AcDbEntity
  8
Layer_1
 62
7
100
AcDbSpline
 70
8
 71
3
 72
8
 73
4
 74
0
 40
0
 40
0
 40
0
 40
0
 40
1
 40
1
 40
1
 40
1
 10
505.949639
 20
202.287640
 30
0.0
 10
505.949639
 20
202.894255
 30
0.0
 10
506.064869
 20
203.422726
 30
0.0
 10
506.295329
 20
203.873053
 30
0.0
  0
SPLINE
  5
2fe
100
AcDbEntity
  8
Layer_1
 62
7
100
AcDbSpline
 70
8
 71
3
 72
8
 73
4
 74
0
 40
0
 40
0
 40
0
 40
0
 40
1
 40
1
 40
1
 40
1
 10
506.295329
 20
203.873053
 30
0.0
 10
506.528442
 20
204.326027
 30
0.0
 10
506.858239
 20
204.669070
 30
0.0
 10
507.284719
 20
204.902180
 30
0.0
  0
SPLINE
  5
2ff
100
AcDbEntity
  8
Layer_1
 62
7
100
AcDbSpline
 70
8
 71
3
 72
8
 73
4
 74
0
 40
0
 40
0
 40
0
 40
0
 40
1
 40
1
 40
1
 40
1
 10
507.284719
 20
204.902180
 30
0.0
 10
507.713859
 20
205.137939
 30
0.0
 10
508.185379
 20
205.255819
 30
0.0
 10
508.699279
 20
205.255819
 30
0.0
  0
SPLINE
  5
300
100
AcDbEntity
  8
Layer_1
 62
7
100
AcDbSpline
 70
8
 71
3
 72
8
 73
4
 74
0
 40
0
 40
0
 40
0
 40
0
 40
1
 40
1
 40
1
 40
1
 10
508.699279
 20
205.255819
 30
0.0
 10
509.282052
 20
205.255819
 30
0.0
 10
509.772112
 20
205.107476
 30
0.0
 10
510.169459
 20
204.810790
 30
0.0
  0
SPLINE
  5
301
100
AcDbEntity
  8
Layer_1
 62
7
100
AcDbSpline
 70
8
 71
3
 72
8
 73
4
 74
0
 40
0
 40
0
 40
0
 40
0
 40
1
 40
1
 40
1
 40
1
 10
510.169459
 20
204.810790
 30
0.0
 10
510.566805
 20
204.514104
 30
0.0
 10
510.843622
 20
204.096891
 30
0.0
 10
510.999909
 20
203.559149
 30
0.0
  0
LINE
  5
302
100
AcDbEntity
  8
Layer_1
 62
7
100
AcDbLine
 10
510.999909
 20
203.559149
 30
0.0
 11
510.240979
 21
203.380343
 31
0.0
  0
SPLINE
  5
303
100
AcDbEntity
  8
Layer_1
 62
7
100
AcDbSpline
 70
8
 71
3
 72
8
 73
4
 74
0
 40
0
 40
0
 40
0
 40
0
 40
1
 40
1
 40
1
 40
1
 10
510.240979
 20
203.380343
 30
0.0
 10
510.105886
 20
203.804179
 30
0.0
 10
509.909862
 20
204.112784
 30
0.0
 10
509.652909
 20
204.306160
 30
0.0
  0
SPLINE
  5
304
100
AcDbEntity
  8
Layer_1
 62
7
100
AcDbSpline
 70
8
 71
3
 72
8
 73
4
 74
0
 40
0
 40
0
 40
0
 40
0
 40
1
 40
1
 40
1
 40
1
 10
509.652909
 20
204.306160
 30
0.0
 10
509.395956
 20
204.499535
 30
0.0
 10
509.072779
 20
204.596223
 30
0.0
 10
508.683379
 20
204.596223
 30
0.0
  0
SPLINE
  5
305
100
AcDbEntity
  8
Layer_1
 62
7
100
AcDbSpline
 70
8
 71
3
 72
8
 73
4
 74
0
 40
0
 40
0
 40
0
 40
0
 40
1
 40
1
 40
1
 40
1
 10
508.683379
 20
204.596223
 30
0.0
 10
508.235706
 20
204.596223
 30
0.0
 10
507.860876
 20
204.488939
 30
0.0
 10
507.558889
 20
204.274373
 30
0.0
  0
SPLINE
  5
306
100
AcDbEntity
  8
Layer_1
 62
7
100
AcDbSpline
 70
8
 71
3
 72
8
 73
4
 74
0
 40
0
 40
0
 40
0
 40
0
 40
1
 40
1
 40
1
 40
1
 10
507.558889
 20
204.274373
 30
0.0
 10
507.259556
 20
204.059805
 30
0.0
 10
507.048962
 20
203.771067
 30
0.0
 10
506.927109
 20
203.408157
 30
0.0
  0
SPLINE
  5
307
100
AcDbEntity
  8
Layer_1
 62
7
100
AcDbSpline
 70
8
 71
3
 72
8
 73
4
 74
0
 40
0
 40
0
 40
0
 40
0
 40
1
 40
1
 40
1
 40
1
 10
506.927109
 20
203.408157
 30
0.0
 10
506.805256
 20
203.047896
 30
0.0
 10
506.744329
 20
202.675715
 30
0.0
 10
506.744329
 20
202.291613
 30
0.0
  0
SPLINE
  5
308
100
AcDbEntity
  8
Layer_1
 62
7
100
AcDbSpline
 70
8
 71
3
 72
8
 73
4
 74
0
 40
0
 40
0
 40
0
 40
0
 40
1
 40
1
 40
1
 40
1
 10
506.744329
 20
202.291613
 30
0.0
 10
506.744329
 20
201.796254
 30
0.0
 10
506.815852
 20
201.363146
 30
0.0
 10
506.958899
 20
200.992290
 30
0.0
  0
SPLINE
  5
309
100
AcDbEntity
  8
Layer_1
 62
7
100
AcDbSpline
 70
8
 71
3
 72
8
 73
4
 74
0
 40
0
 40
0
 40
0
 40
0
 40
1
 40
1
 40
1
 40
1
 10
506.958899
 20
200.992290
 30
0.0
 10
507.104592
 20
200.624082
 30
0.0
 10
507.329756
 20
200.348588
 30
0.0
 10
507.634389
 20
200.165809
 30
0.0
  0
SPLINE
  5
30a
100
AcDbEntity
  8
Layer_1
 62
7
100
AcDbSpline
 70
8
 71
3
 72
8
 73
4
 74
0
 40
0
 40
0
 40
0
 40
0
 40
1
 40
1
 40
1
 40
1
 10
507.634389
 20
200.165809
 30
0.0
 10
507.939022
 20
199.983029
 30
0.0
 10
508.268819
 20
199.891640
 30
0.0
 10
508.623779
 20
199.891640
 30
0.0
  0
SPLINE
  5
30b
100
AcDbEntity
  8
Layer_1
 62
7
100
AcDbSpline
 70
8
 71
3
 72
8
 73
4
 74
0
 40
0
 40
0
 40
0
 40
0
 40
1
 40
1
 40
1
 40
1
 10
508.623779
 20
199.891640
 30
0.0
 10
509.055566
 20
199.891640
 30
0.0
 10
509.421126
 20
200.016142
 30
0.0
 10
509.720459
 20
200.265146
 30
0.0
  0
SPLINE
  5
30c
100
AcDbEntity
  8
Layer_1
 62
7
100
AcDbSpline
 70
8
 71
3
 72
8
 73
4
 74
0
 40
0
 40
0
 40
0
 40
0
 40
1
 40
1
 40
1
 40
1
 10
509.720459
 20
200.265146
 30
0.0
 10
510.019792
 20
200.514150
 30
0.0
 10
510.222439
 20
200.883682
 30
0.0
 10
510.328399
 20
201.373743
 30
0.0
  0
LINE
  5
30d
100
AcDbEntity
  8
Layer_1
 62
7
100
AcDbLine
 10
510.328399
 20
201.373743
 30
0.0
 11
510.328399
 21
201.373743
 31
0.0
  0
LINE
  5
30e
100
AcDbEntity
  8
Layer_1
 62
7
100
AcDbLine
 10
515.875349
 20
205.156482
 30
0.0
 11
516.646209
 21
205.156482
 31
0.0
  0
LINE
  5
30f
100
AcDbEntity
  8
Layer_1
 62
7
100
AcDbLine
 10
516.646209
 20
205.156482
 30
0.0
 11
516.646209
 21
201.790957
 31
0.0
  0
SPLINE
  5
310
100
AcDbEntity
  8
Layer_1
 62
7
100
AcDbSpline
 70
8
 71
3
 72
8
 73
4
 74
0
 40
0
 40
0
 40
0
 40
0
 40
1
 40
1
 40
1
 40
1
 10
516.646209
 20
201.790957
 30
0.0
 10
516.646209
 20
201.205533
 30
0.0
 10
516.579982
 20
200.740637
 30
0.0
 10
516.447529
 20
200.396270
 30
0.0
  0
SPLINE
  5
311
100
AcDbEntity
  8
Layer_1
 62
7
100
AcDbSpline
 70
8
 71
3
 72
8
 73
4
 74
0
 40
0
 40
0
 40
0
 40
0
 40
1
 40
1
 40
1
 40
1
 10
516.447529
 20
200.396270
 30
0.0
 10
516.315082
 20
200.051903
 30
0.0
 10
516.075352
 20
199.771112
 30
0.0
 10
515.728339
 20
199.553896
 30
0.0
  0
SPLINE
  5
312
100
AcDbEntity
  8
Layer_1
 62
7
100
AcDbSpline
 70
8
 71
3
 72
8
 73
4
 74
0
 40
0
 40
0
 40
0
 40
0
 40
1
 40
1
 40
1
 40
1
 10
515.728339
 20
199.553896
 30
0.0
 10
515.383972
 20
199.339328
 30
0.0
 10
514.930995
 20
199.232045
 30
0.0
 10
514.369409
 20
199.232045
 30
0.0
  0
SPLINE
  5
313
100
AcDbEntity
  8
Layer_1
 62
7
100
AcDbSpline
 70
8
 71
3
 72
8
 73
4
 74
0
 40
0
 40
0
 40
0
 40
0
 40
1
 40
1
 40
1
 40
1
 10
514.369409
 20
199.232045
 30
0.0
 10
513.823722
 20
199.232045
 30
0.0
 10
513.377369
 20
199.326083
 30
0.0
 10
513.030349
 20
199.514161
 30
0.0
  0
SPLINE
  5
314
100
AcDbEntity
  8
Layer_1
 62
7
100
AcDbSpline
 70
8
 71
3
 72
8
 73
4
 74
0
 40
0
 40
0
 40
0
 40
0
 40
1
 40
1
 40
1
 40
1
 10
513.030349
 20
199.514161
 30
0.0
 10
512.683335
 20
199.702238
 30
0.0
 10
512.435655
 20
199.973758
 30
0.0
 10
512.287309
 20
200.328721
 30
0.0
  0
SPLINE
  5
315
100
AcDbEntity
  8
Layer_1
 62
7
100
AcDbSpline
 70
8
 71
3
 72
8
 73
4
 74
0
 40
0
 40
0
 40
0
 40
0
 40
1
 40
1
 40
1
 40
1
 10
512.287309
 20
200.328721
 30
0.0
 10
512.138969
 20
200.686333
 30
0.0
 10
512.064799
 20
201.173745
 30
0.0
 10
512.064799
 20
201.790957
 30
0.0
  0
LINE
  5
316
100
AcDbEntity
  8
Layer_1
 62
7
100
AcDbLine
 10
512.064799
 20
201.790957
 30
0.0
 11
512.064799
 21
205.156482
 31
0.0
  0
LINE
  5
317
100
AcDbEntity
  8
Layer_1
 62
7
100
AcDbLine
 10
512.064799
 20
205.156482
 30
0.0
 11
512.835649
 21
205.156482
 31
0.0
  0
LINE
  5
318
100
AcDbEntity
  8
Layer_1
 62
7
100
AcDbLine
 10
512.835649
 20
205.156482
 30
0.0
 11
512.835649
 21
201.794930
 31
0.0
  0
SPLINE
  5
319
100
AcDbEntity
  8
Layer_1
 62
7
100
AcDbSpline
 70
8
 71
3
 72
8
 73
4
 74
0
 40
0
 40
0
 40
0
 40
0
 40
1
 40
1
 40
1
 40
1
 10
512.835649
 20
201.794930
 30
0.0
 10
512.835649
 20
201.288975
 30
0.0
 10
512.882005
 20
200.915469
 30
0.0
 10
512.974719
 20
200.674413
 30
0.0
  0
SPLINE
  5
31a
100
AcDbEntity
  8
Layer_1
 62
7
100
AcDbSpline
 70
8
 71
3
 72
8
 73
4
 74
0
 40
0
 40
0
 40
0
 40
0
 40
1
 40
1
 40
1
 40
1
 10
512.974719
 20
200.674413
 30
0.0
 10
513.070085
 20
200.436005
 30
0.0
 10
513.231675
 20
200.251901
 30
0.0
 10
513.459489
 20
200.122101
 30
0.0
  0
SPLINE
  5
31b
100
AcDbEntity
  8
Layer_1
 62
7
100
AcDbSpline
 70
8
 71
3
 72
8
 73
4
 74
0
 40
0
 40
0
 40
0
 40
0
 40
1
 40
1
 40
1
 40
1
 10
513.459489
 20
200.122101
 30
0.0
 10
513.689949
 20
199.992301
 30
0.0
 10
513.970739
 20
199.927401
 30
0.0
 10
514.301859
 20
199.927401
 30
0.0
  0
SPLINE
  5
31c
100
AcDbEntity
  8
Layer_1
 62
7
100
AcDbSpline
 70
8
 71
3
 72
8
 73
4
 74
0
 40
0
 40
0
 40
0
 40
0
 40
1
 40
1
 40
1
 40
1
 10
514.301859
 20
199.927401
 30
0.0
 10
514.868739
 20
199.927401
 30
0.0
 10
515.272709
 20
200.055876
 30
0.0
 10
515.513769
 20
200.312828
 30
0.0
  0
SPLINE
  5
31d
100
AcDbEntity
  8
Layer_1
 62
7
100
AcDbSpline
 70
8
 71
3
 72
8
 73
4
 74
0
 40
0
 40
0
 40
0
 40
0
 40
1
 40
1
 40
1
 40
1
 10
515.513769
 20
200.312828
 30
0.0
 10
515.754822
 20
200.569778
 30
0.0
 10
515.875349
 20
201.063812
 30
0.0
 10
515.875349
 20
201.794930
 30
0.0
  0
LINE
  5
31e
100
AcDbEntity
  8
Layer_1
 62
7
100
AcDbLine
 10
515.875349
 20
201.794930
 30
0.0
 11
515.875349
 21
205.156482
 31
0.0
  0
LINE
  5
31f
100
AcDbEntity
  8
Layer_1
 62
7
100
AcDbLine
 10
519.415709
 20
199.331382
 30
0.0
 11
519.415709
 21
204.469072
 31
0.0
  0
LINE
  5
320
100
AcDbEntity
  8
Layer_1
 62
7
100
AcDbLine
 10
519.415709
 20
204.469072
 30
0.0
 11
517.496529
 21
204.469072
 31
0.0
  0
LINE
  5
321
100
AcDbEntity
  8
Layer_1
 62
7
100
AcDbLine
 10
517.496529
 20
204.469072
 30
0.0
 11
517.496529
 21
205.156482
 31
0.0
  0
LINE
  5
322
100
AcDbEntity
  8
Layer_1
 62
7
100
AcDbLine
 10
517.496529
 20
205.156482
 30
0.0
 11
522.113699
 21
205.156482
 31
0.0
  0
LINE
  5
323
100
AcDbEntity
  8
Layer_1
 62
7
100
AcDbLine
 10
522.113699
 20
205.156482
 30
0.0
 11
522.113699
 21
204.469072
 31
0.0
  0
LINE
  5
324
100
AcDbEntity
  8
Layer_1
 62
7
100
AcDbLine
 10
522.113699
 20
204.469072
 30
0.0
 11
520.186559
 21
204.469072
 31
0.0
  0
LINE
  5
325
100
AcDbEntity
  8
Layer_1
 62
7
100
AcDbLine
 10
520.186559
 20
204.469072
 30
0.0
 11
520.186559
 21
199.331382
 31
0.0
  0
LINE
  5
326
100
AcDbEntity
  8
Layer_1
 62
7
100
AcDbLine
 10
520.186559
 20
199.331382
 30
0.0
 11
519.415709
 21
199.331382
 31
0.0
  0
LINE
  5
327
100
AcDbEntity
  8
Layer_1
 62
7
100
AcDbLine
 10
525.062009
 20
199.331382
 30
0.0
 11
525.062009
 21
205.156482
 31
0.0
  0
LINE
  5
328
100
AcDbEntity
  8
Layer_1
 62
7
100
AcDbLine
 10
525.062009
 20
205.156482
 30
0.0
 11
528.991758
 21
205.156482
 31
0.0
  0
LINE
  5
329
100
AcDbEntity
  8
Layer_1
 62
7
100
AcDbLine
 10
528.991758
 20
205.156482
 30
0.0
 11
528.991758
 21
204.469072
 31
0.0
  0
LINE
  5
32a
100
AcDbEntity
  8
Layer_1
 62
7
100
AcDbLine
 10
528.991758
 20
204.469072
 30
0.0
 11
525.832858
 21
204.469072
 31
0.0
  0
LINE
  5
32b
100
AcDbEntity
  8
Layer_1
 62
7
100
AcDbLine
 10
525.832858
 20
204.469072
 30
0.0
 11
525.832858
 21
202.665119
 31
0.0
  0
LINE
  5
32c
100
AcDbEntity
  8
Layer_1
 62
7
100
AcDbLine
 10
525.832858
 20
202.665119
 30
0.0
 11
528.566598
 21
202.665119
 31
0.0
  0
LINE
  5
32d
100
AcDbEntity
  8
Layer_1
 62
7
100
AcDbLine
 10
528.566598
 20
202.665119
 30
0.0
 11
528.566598
 21
201.977710
 31
0.0
  0
LINE
  5
32e
100
AcDbEntity
  8
Layer_1
 62
7
100
AcDbLine
 10
528.566598
 20
201.977710
 30
0.0
 11
525.832858
 21
201.977710
 31
0.0
  0
LINE
  5
32f
100
AcDbEntity
  8
Layer_1
 62
7
100
AcDbLine
 10
525.832858
 20
201.977710
 30
0.0
 11
525.832858
 21
199.331382
 31
0.0
  0
LINE
  5
330
100
AcDbEntity
  8
Layer_1
 62
7
100
AcDbLine
 10
525.832858
 20
199.331382
 30
0.0
 11
525.062009
 21
199.331382
 31
0.0
  0
LINE
  5
331
100
AcDbEntity
  8
Layer_1
 62
7
100
AcDbLine
 10
530.128178
 20
199.331382
 30
0.0
 11
530.128178
 21
205.156482
 31
0.0
  0
LINE
  5
332
100
AcDbEntity
  8
Layer_1
 62
7
100
AcDbLine
 10
530.128178
 20
205.156482
 30
0.0
 11
530.899028
 21
205.156482
 31
0.0
  0
LINE
  5
333
100
AcDbEntity
  8
Layer_1
 62
7
100
AcDbLine
 10
530.899028
 20
205.156482
 30
0.0
 11
530.899028
 21
199.331382
 31
0.0
  0
LINE
  5
334
100
AcDbEntity
  8
Layer_1
 62
7
100
AcDbLine
 10
530.899028
 20
199.331382
 30
0.0
 11
530.128178
 21
199.331382
 31
0.0
  0
LINE
  5
335
100
AcDbEntity
  8
Layer_1
 62
7
100
AcDbLine
 10
532.265898
 20
199.331382
 30
0.0
 11
532.265898
 21
205.156482
 31
0.0
  0
LINE
  5
336
100
AcDbEntity
  8
Layer_1
 62
7
100
AcDbLine
 10
532.265898
 20
205.156482
 30
0.0
 11
534.848648
 21
205.156482
 31
0.0
  0
SPLINE
  5
337
100
AcDbEntity
  8
Layer_1
 62
7
100
AcDbSpline
 70
8
 71
3
 72
8
 73
4
 74
0
 40
0
 40
0
 40
0
 40
0
 40
1
 40
1
 40
1
 40
1
 10
534.848648
 20
205.156482
 30
0.0
 10
535.367848
 20
205.156482
 30
0.0
 10
535.762548
 20
205.103502
 30
0.0
 10
536.032748
 20
204.997543
 30
0.0
  0
SPLINE
  5
338
100
AcDbEntity
  8
Layer_1
 62
7
100
AcDbSpline
 70
8
 71
3
 72
8
 73
4
 74
0
 40
0
 40
0
 40
0
 40
0
 40
1
 40
1
 40
1
 40
1
 10
536.032748
 20
204.997543
 30
0.0
 10
536.302942
 20
204.894233
 30
0.0
 10
536.518832
 20
204.710129
 30
0.0
 10
536.680418
 20
204.445232
 30
0.0
  0
SPLINE
  5
339
100
AcDbEntity
  8
Layer_1
 62
7
100
AcDbSpline
 70
8
 71
3
 72
8
 73
4
 74
0
 40
0
 40
0
 40
0
 40
0
 40
1
 40
1
 40
1
 40
1
 10
536.680418
 20
204.445232
 30
0.0
 10
536.842005
 20
204.180334
 30
0.0
 10
536.922798
 20
203.887622
 30
0.0
 10
536.922798
 20
203.567096
 30
0.0
  0
SPLINE
  5
33a
100
AcDbEntity
  8
Layer_1
 62
7
100
AcDbSpline
 70
8
 71
3
 72
8
 73
4
 74
0
 40
0
 40
0
 40
0
 40
0
 40
1
 40
1
 40
1
 40
1
 10
536.922798
 20
203.567096
 30
0.0
 10
536.922798
 20
203.153855
 30
0.0
 10
536.789025
 20
202.805514
 30
0.0
 10
536.521478
 20
202.522074
 30
0.0
  0
SPLINE
  5
33b
100
AcDbEntity
  8
Layer_1
 62
7
100
AcDbSpline
 70
8
 71
3
 72
8
 73
4
 74
0
 40
0
 40
0
 40
0
 40
0
 40
1
 40
1
 40
1
 40
1
 10
536.521478
 20
202.522074
 30
0.0
 10
536.253932
 20
202.238634
 30
0.0
 10
535.840692
 20
202.058503
 30
0.0
 10
535.281758
 20
201.981683
 30
0.0
  0
SPLINE
  5
33c
100
AcDbEntity
  8
Layer_1
 62
7
100
AcDbSpline
 70
8
 71
3
 72
8
 73
4
 74
0
 40
0
 40
0
 40
0
 40
0
 40
1
 40
1
 40
1
 40
1
 10
535.281758
 20
201.981683
 30
0.0
 10
535.485732
 20
201.883671
 30
0.0
 10
535.640698
 20
201.786983
 30
0.0
 10
535.746658
 20
201.691620
 30
0.0
  0
SPLINE
  5
33d
100
AcDbEntity
  8
Layer_1
 62
7
100
AcDbSpline
 70
8
 71
3
 72
8
 73
4
 74
0
 40
0
 40
0
 40
0
 40
0
 40
1
 40
1
 40
1
 40
1
 10
535.746658
 20
201.691620
 30
0.0
 10
535.971818
 20
201.485000
 30
0.0
 10
536.185058
 20
201.226724
 30
0.0
 10
536.386378
 20
200.916794
 30
0.0
  0
LINE
  5
33e
100
AcDbEntity
  8
Layer_1
 62
7
100
AcDbLine
 10
536.386378
 20
200.916794
 30
0.0
 11
537.399618
 21
199.331382
 31
0.0
  0
LINE
  5
33f
100
AcDbEntity
  8
Layer_1
 62
7
100
AcDbLine
 10
537.399618
 20
199.331382
 30
0.0
 11
536.430088
 21
199.331382
 31
0.0
  0
LINE
  5
340
100
AcDbEntity
  8
Layer_1
 62
7
100
AcDbLine
 10
536.430088
 20
199.331382
 30
0.0
 11
535.659238
 21
200.543289
 31
0.0
  0
SPLINE
  5
341
100
AcDbEntity
  8
Layer_1
 62
7
100
AcDbSpline
 70
8
 71
3
 72
8
 73
4
 74
0
 40
0
 40
0
 40
0
 40
0
 40
1
 40
1
 40
1
 40
1
 10
535.659238
 20
200.543289
 30
0.0
 10
535.434072
 20
200.892953
 30
0.0
 10
535.248642
 20
201.160500
 30
0.0
 10
535.102948
 20
201.345929
 30
0.0
  0
SPLINE
  5
342
100
AcDbEntity
  8
Layer_1
 62
7
100
AcDbSpline
 70
8
 71
3
 72
8
 73
4
 74
0
 40
0
 40
0
 40
0
 40
0
 40
1
 40
1
 40
1
 40
1
 10
535.102948
 20
201.345929
 30
0.0
 10
534.957255
 20
201.531357
 30
0.0
 10
534.826132
 20
201.661156
 30
0.0
 10
534.709578
 20
201.735328
 30
0.0
  0
SPLINE
  5
343
100
AcDbEntity
  8
Layer_1
 62
7
100
AcDbSpline
 70
8
 71
3
 72
8
 73
4
 74
0
 40
0
 40
0
 40
0
 40
0
 40
1
 40
1
 40
1
 40
1
 10
534.709578
 20
201.735328
 30
0.0
 10
534.595672
 20
201.809499
 30
0.0
 10
534.479118
 20
201.861154
 30
0.0
 10
534.359918
 20
201.890293
 30
0.0
  0
SPLINE
  5
344
100
AcDbEntity
  8
Layer_1
 62
7
100
AcDbSpline
 70
8
 71
3
 72
8
 73
4
 74
0
 40
0
 40
0
 40
0
 40
0
 40
1
 40
1
 40
1
 40
1
 10
534.359918
 20
201.890293
 30
0.0
 10
534.272498
 20
201.908839
 30
0.0
 10
534.129452
 20
201.918113
 30
0.0
 10
533.930778
 20
201.918113
 30
0.0
  0
LINE
  5
345
100
AcDbEntity
  8
Layer_1
 62
7
100
AcDbLine
 10
533.930778
 20
201.918113
 30
0.0
 11
533.036748
 21
201.918113
 31
0.0
  0
LINE
  5
346
100
AcDbEntity
  8
Layer_1
 62
7
100
AcDbLine
 10
533.036748
 20
201.918113
 30
0.0
 11
533.036748
 21
199.331387
 31
0.0
  0
LINE
  5
347
100
AcDbEntity
  8
Layer_1
 62
7
100
AcDbLine
 10
533.036748
 20
199.331387
 30
0.0
 11
532.265898
 21
199.331382
 31
0.0
  0
LINE
  5
348
100
AcDbEntity
  8
Layer_1
 62
7
100
AcDbLine
 10
533.036748
 20
202.585650
 30
0.0
 11
534.693688
 21
202.585650
 31
0.0
  0
SPLINE
  5
349
100
AcDbEntity
  8
Layer_1
 62
7
100
AcDbSpline
 70
8
 71
3
 72
8
 73
4
 74
0
 40
0
 40
0
 40
0
 40
0
 40
1
 40
1
 40
1
 40
1
 10
534.693688
 20
202.585650
 30
0.0
 10
535.046002
 20
202.585650
 30
0.0
 10
535.321495
 20
202.621411
 30
0.0
 10
535.520168
 20
202.692933
 30
0.0
  0
SPLINE
  5
34a
100
AcDbEntity
  8
Layer_1
 62
7
100
AcDbSpline
 70
8
 71
3
 72
8
 73
4
 74
0
 40
0
 40
0
 40
0
 40
0
 40
1
 40
1
 40
1
 40
1
 10
535.520168
 20
202.692933
 30
0.0
 10
535.718842
 20
202.767104
 30
0.0
 10
535.869832
 20
202.883659
 30
0.0
 10
535.973138
 20
203.042598
 30
0.0
  0
SPLINE
  5
34b
100
AcDbEntity
  8
Layer_1
 62
7
100
AcDbSpline
 70
8
 71
3
 72
8
 73
4
 74
0
 40
0
 40
0
 40
0
 40
0
 40
1
 40
1
 40
1
 40
1
 10
535.973138
 20
203.042598
 30
0.0
 10
536.076452
 20
203.204186
 30
0.0
 10
536.128108
 20
203.379018
 30
0.0
 10
536.128108
 20
203.567096
 30
0.0
  0
SPLINE
  5
34c
100
AcDbEntity
  8
Layer_1
 62
7
100
AcDbSpline
 70
8
 71
3
 72
8
 73
4
 74
0
 40
0
 40
0
 40
0
 40
0
 40
1
 40
1
 40
1
 40
1
 10
536.128108
 20
203.567096
 30
0.0
 10
536.128108
 20
203.842589
 30
0.0
 10
536.027445
 20
204.069076
 30
0.0
 10
535.826118
 20
204.246558
 30
0.0
  0
SPLINE
  5
34d
100
AcDbEntity
  8
Layer_1
 62
7
100
AcDbSpline
 70
8
 71
3
 72
8
 73
4
 74
0
 40
0
 40
0
 40
0
 40
0
 40
1
 40
1
 40
1
 40
1
 10
535.826118
 20
204.246558
 30
0.0
 10
535.627445
 20
204.424040
 30
0.0
 10
535.312218
 20
204.512781
 30
0.0
 10
534.880438
 20
204.512781
 30
0.0
  0
LINE
  5
34e
100
AcDbEntity
  8
Layer_1
 62
7
100
AcDbLine
 10
534.880438
 20
204.512781
 30
0.0
 11
533.036748
 21
204.512781
 31
0.0
  0
LINE
  5
34f
100
AcDbEntity
  8
Layer_1
 62
7
100
AcDbLine
 10
533.036748
 20
204.512781
 30
0.0
 11
533.036748
 21
202.585650
 31
0.0
  0
LINE
  5
350
100
AcDbEntity
  8
Layer_1
 62
7
100
AcDbLine
 10
537.872458
 20
201.202884
 30
0.0
 11
538.599598
 21
201.266464
 31
0.0
  0
SPLINE
  5
351
100
AcDbEntity
  8
Layer_1
 62
7
100
AcDbSpline
 70
8
 71
3
 72
8
 73
4
 74
0
 40
0
 40
0
 40
0
 40
0
 40
1
 40
1
 40
1
 40
1
 10
538.599598
 20
201.266464
 30
0.0
 10
538.634065
 20
200.975076
 30
0.0
 10
538.713535
 20
200.735344
 30
0.0
 10
538.838008
 20
200.547267
 30
0.0
  0
SPLINE
  5
352
100
AcDbEntity
  8
Layer_1
 62
7
100
AcDbSpline
 70
8
 71
3
 72
8
 73
4
 74
0
 40
0
 40
0
 40
0
 40
0
 40
1
 40
1
 40
1
 40
1
 10
538.838008
 20
200.547267
 30
0.0
 10
538.965162
 20
200.361838
 30
0.0
 10
539.161188
 20
200.210846
 30
0.0
 10
539.426088
 20
200.094292
 30
0.0
  0
SPLINE
  5
353
100
AcDbEntity
  8
Layer_1
 62
7
100
AcDbSpline
 70
8
 71
3
 72
8
 73
4
 74
0
 40
0
 40
0
 40
0
 40
0
 40
1
 40
1
 40
1
 40
1
 10
539.426088
 20
200.094292
 30
0.0
 10
539.690982
 20
199.980386
 30
0.0
 10
539.988992
 20
199.923433
 30
0.0
 10
540.320118
 20
199.923433
 30
0.0
  0
SPLINE
  5
354
100
AcDbEntity
  8
Layer_1
 62
7
100
AcDbSpline
 70
8
 71
3
 72
8
 73
4
 74
0
 40
0
 40
0
 40
0
 40
0
 40
1
 40
1
 40
1
 40
1
 10
540.320118
 20
199.923433
 30
0.0
 10
540.614152
 20
199.923433
 30
0.0
 10
540.873748
 20
199.967141
 30
0.0
 10
541.098908
 20
200.054557
 30
0.0
  0
SPLINE
  5
355
100
AcDbEntity
  8
Layer_1
 62
7
100
AcDbSpline
 70
8
 71
3
 72
8
 73
4
 74
0
 40
0
 40
0
 40
0
 40
0
 40
1
 40
1
 40
1
 40
1
 10
541.098908
 20
200.054557
 30
0.0
 10
541.324075
 20
200.141973
 30
0.0
 10
541.490961
 20
200.261177
 30
0.0
 10
541.599568
 20
200.412169
 30
0.0
  0
SPLINE
  5
356
100
AcDbEntity
  8
Layer_1
 62
7
100
AcDbSpline
 70
8
 71
3
 72
8
 73
4
 74
0
 40
0
 40
0
 40
0
 40
0
 40
1
 40
1
 40
1
 40
1
 10
541.599568
 20
200.412169
 30
0.0
 10
541.710828
 20
200.565809
 30
0.0
 10
541.766458
 20
200.732695
 30
0.0
 10
541.766458
 20
200.912826
 30
0.0
  0
SPLINE
  5
357
100
AcDbEntity
  8
Layer_1
 62
7
100
AcDbSpline
 70
8
 71
3
 72
8
 73
4
 74
0
 40
0
 40
0
 40
0
 40
0
 40
1
 40
1
 40
1
 40
1
 10
541.766458
 20
200.912826
 30
0.0
 10
541.766458
 20
201.095605
 30
0.0
 10
541.713478
 20
201.254544
 30
0.0
 10
541.607518
 20
201.389642
 30
0.0
  0
SPLINE
  5
358
100
AcDbEntity
  8
Layer_1
 62
7
100
AcDbSpline
 70
8
 71
3
 72
8
 73
4
 74
0
 40
0
 40
0
 40
0
 40
0
 40
1
 40
1
 40
1
 40
1
 10
541.607518
 20
201.389642
 30
0.0
 10
541.501558
 20
201.527388
 30
0.0
 10
541.326725
 20
201.642619
 30
0.0
 10
541.083018
 20
201.735333
 30
0.0
  0
SPLINE
  5
359
100
AcDbEntity
  8
Layer_1
 62
7
100
AcDbSpline
 70
8
 71
3
 72
8
 73
4
 74
0
 40
0
 40
0
 40
0
 40
0
 40
1
 40
1
 40
1
 40
1
 10
541.083018
 20
201.735333
 30
0.0
 10
540.926732
 20
201.796259
 30
0.0
 10
540.581042
 20
201.890298
 30
0.0
 10
540.045948
 20
202.017449
 30
0.0
  0
SPLINE
  5
35a
100
AcDbEntity
  8
Layer_1
 62
7
100
AcDbSpline
 70
8
 71
3
 72
8
 73
4
 74
0
 40
0
 40
0
 40
0
 40
0
 40
1
 40
1
 40
1
 40
1
 10
540.045948
 20
202.017449
 30
0.0
 10
539.510855
 20
202.147249
 30
0.0
 10
539.136025
 20
202.269102
 30
0.0
 10
538.921458
 20
202.383008
 30
0.0
  0
SPLINE
  5
35b
100
AcDbEntity
  8
Layer_1
 62
7
100
AcDbSpline
 70
8
 71
3
 72
8
 73
4
 74
0
 40
0
 40
0
 40
0
 40
0
 40
1
 40
1
 40
1
 40
1
 10
538.921458
 20
202.383008
 30
0.0
 10
538.643312
 20
202.528702
 30
0.0
 10
538.435365
 20
202.708832
 30
0.0
 10
538.297618
 20
202.923399
 30
0.0
  0
SPLINE
  5
35c
100
AcDbEntity
  8
Layer_1
 62
7
100
AcDbSpline
 70
8
 71
3
 72
8
 73
4
 74
0
 40
0
 40
0
 40
0
 40
0
 40
1
 40
1
 40
1
 40
1
 10
538.297618
 20
202.923399
 30
0.0
 10
538.162518
 20
203.140615
 30
0.0
 10
538.094968
 20
203.382997
 30
0.0
 10
538.094968
 20
203.650544
 30
0.0
  0
SPLINE
  5
35d
100
AcDbEntity
  8
Layer_1
 62
7
100
AcDbSpline
 70
8
 71
3
 72
8
 73
4
 74
0
 40
0
 40
0
 40
0
 40
0
 40
1
 40
1
 40
1
 40
1
 10
538.094968
 20
203.650544
 30
0.0
 10
538.094968
 20
203.944580
 30
0.0
 10
538.178412
 20
204.218749
 30
0.0
 10
538.345298
 20
204.473051
 30
0.0
  0
SPLINE
  5
35e
100
AcDbEntity
  8
Layer_1
 62
7
100
AcDbSpline
 70
8
 71
3
 72
8
 73
4
 74
0
 40
0
 40
0
 40
0
 40
0
 40
1
 40
1
 40
1
 40
1
 10
538.345298
 20
204.473051
 30
0.0
 10
538.512185
 20
204.730001
 30
0.0
 10
538.755892
 20
204.924701
 30
0.0
 10
539.076418
 20
205.057150
 30
0.0
  0
SPLINE
  5
35f
100
AcDbEntity
  8
Layer_1
 62
7
100
AcDbSpline
 70
8
 71
3
 72
8
 73
4
 74
0
 40
0
 40
0
 40
0
 40
0
 40
1
 40
1
 40
1
 40
1
 10
539.076418
 20
205.057150
 30
0.0
 10
539.396945
 20
205.189599
 30
0.0
 10
539.753232
 20
205.255824
 30
0.0
 10
540.145278
 20
205.255824
 30
0.0
  0
SPLINE
  5
360
100
AcDbEntity
  8
Layer_1
 62
7
100
AcDbSpline
 70
8
 71
3
 72
8
 73
4
 74
0
 40
0
 40
0
 40
0
 40
0
 40
1
 40
1
 40
1
 40
1
 10
540.145278
 20
205.255824
 30
0.0
 10
540.577065
 20
205.255824
 30
0.0
 10
540.957195
 20
205.185626
 30
0.0
 10
541.285668
 20
205.045230
 30
0.0
  0
SPLINE
  5
361
100
AcDbEntity
  8
Layer_1
 62
7
100
AcDbSpline
 70
8
 71
3
 72
8
 73
4
 74
0
 40
0
 40
0
 40
0
 40
0
 40
1
 40
1
 40
1
 40
1
 10
541.285668
 20
205.045230
 30
0.0
 10
541.616788
 20
204.907483
 30
0.0
 10
541.871088
 20
204.703512
 30
0.0
 10
542.048568
 20
204.433316
 30
0.0
  0
SPLINE
  5
362
100
AcDbEntity
  8
Layer_1
 62
7
100
AcDbSpline
 70
8
 71
3
 72
8
 73
4
 74
0
 40
0
 40
0
 40
0
 40
0
 40
1
 40
1
 40
1
 40
1
 10
542.048568
 20
204.433316
 30
0.0
 10
542.226048
 20
204.163120
 30
0.0
 10
542.321411
 20
203.857164
 30
0.0
 10
542.334658
 20
203.515446
 30
0.0
  0
LINE
  5
363
100
AcDbEntity
  8
Layer_1
 62
7
100
AcDbLine
 10
542.334658
 20
203.515446
 30
0.0
 11
541.595598
 21
203.459816
 31
0.0
  0
SPLINE
  5
364
100
AcDbEntity
  8
Layer_1
 62
7
100
AcDbSpline
 70
8
 71
3
 72
8
 73
4
 74
0
 40
0
 40
0
 40
0
 40
0
 40
1
 40
1
 40
1
 40
1
 10
541.595598
 20
203.459816
 30
0.0
 10
541.555865
 20
203.828024
 30
0.0
 10
541.420765
 20
204.106166
 30
0.0
 10
541.190298
 20
204.294244
 30
0.0
  0
SPLINE
  5
365
100
AcDbEntity
  8
Layer_1
 62
7
100
AcDbSpline
 70
8
 71
3
 72
8
 73
4
 74
0
 40
0
 40
0
 40
0
 40
0
 40
1
 40
1
 40
1
 40
1
 10
541.190298
 20
204.294244
 30
0.0
 10
540.962492
 20
204.482321
 30
0.0
 10
540.624748
 20
204.576360
 30
0.0
 10
540.177068
 20
204.576360
 30
0.0
  0
SPLINE
  5
366
100
AcDbEntity
  8
Layer_1
 62
7
100
AcDbSpline
 70
8
 71
3
 72
8
 73
4
 74
0
 40
0
 40
0
 40
0
 40
0
 40
1
 40
1
 40
1
 40
1
 10
540.177068
 20
204.576360
 30
0.0
 10
539.710848
 20
204.576360
 30
0.0
 10
539.370455
 20
204.490268
 30
0.0
 10
539.155888
 20
204.318085
 30
0.0
  0
SPLINE
  5
367
100
AcDbEntity
  8
Layer_1
 62
7
100
AcDbSpline
 70
8
 71
3
 72
8
 73
4
 74
0
 40
0
 40
0
 40
0
 40
0
 40
1
 40
1
 40
1
 40
1
 10
539.155888
 20
204.318085
 30
0.0
 10
538.943968
 20
204.148550
 30
0.0
 10
538.838008
 20
203.943254
 30
0.0
 10
538.838008
 20
203.702198
 30
0.0
  0
SPLINE
  5
368
100
AcDbEntity
  8
Layer_1
 62
7
100
AcDbSpline
 70
8
 71
3
 72
8
 73
4
 74
0
 40
0
 40
0
 40
0
 40
0
 40
1
 40
1
 40
1
 40
1
 10
538.838008
 20
203.702198
 30
0.0
 10
538.838008
 20
203.492928
 30
0.0
 10
538.913505
 20
203.320745
 30
0.0
 10
539.064498
 20
203.185647
 30
0.0
  0
SPLINE
  5
369
100
AcDbEntity
  8
Layer_1
 62
7
100
AcDbSpline
 70
8
 71
3
 72
8
 73
4
 74
0
 40
0
 40
0
 40
0
 40
0
 40
1
 40
1
 40
1
 40
1
 10
539.064498
 20
203.185647
 30
0.0
 10
539.212838
 20
203.050549
 30
0.0
 10
539.599588
 20
202.911477
 30
0.0
 10
540.224748
 20
202.768433
 30
0.0
  0
SPLINE
  5
36a
100
AcDbEntity
  8
Layer_1
 62
7
100
AcDbSpline
 70
8
 71
3
 72
8
 73
4
 74
0
 40
0
 40
0
 40
0
 40
0
 40
1
 40
1
 40
1
 40
1
 10
540.224748
 20
202.768433
 30
0.0
 10
540.852555
 20
202.628037
 30
0.0
 10
541.283015
 20
202.504860
 30
0.0
 10
541.516128
 20
202.398901
 30
0.0
  0
SPLINE
  5
36b
100
AcDbEntity
  8
Layer_1
 62
7
100
AcDbSpline
 70
8
 71
3
 72
8
 73
4
 74
0
 40
0
 40
0
 40
0
 40
0
 40
1
 40
1
 40
1
 40
1
 10
541.516128
 20
202.398901
 30
0.0
 10
541.855195
 20
202.242611
 30
0.0
 10
542.105521
 20
202.043937
 30
0.0
 10
542.267108
 20
201.802881
 30
0.0
  0
SPLINE
  5
36c
100
AcDbEntity
  8
Layer_1
 62
7
100
AcDbSpline
 70
8
 71
3
 72
8
 73
4
 74
0
 40
0
 40
0
 40
0
 40
0
 40
1
 40
1
 40
1
 40
1
 10
542.267108
 20
201.802881
 30
0.0
 10
542.428695
 20
201.564473
 30
0.0
 10
542.509488
 20
201.288979
 30
0.0
 10
542.509488
 20
200.976400
 30
0.0
  0
SPLINE
  5
36d
100
AcDbEntity
  8
Layer_1
 62
7
100
AcDbSpline
 70
8
 71
3
 72
8
 73
4
 74
0
 40
0
 40
0
 40
0
 40
0
 40
1
 40
1
 40
1
 40
1
 10
542.509488
 20
200.976400
 30
0.0
 10
542.509488
 20
200.666470
 30
0.0
 10
542.420748
 20
200.373758
 30
0.0
 10
542.243268
 20
200.098264
 30
0.0
  0
SPLINE
  5
36e
100
AcDbEntity
  8
Layer_1
 62
7
100
AcDbSpline
 70
8
 71
3
 72
8
 73
4
 74
0
 40
0
 40
0
 40
0
 40
0
 40
1
 40
1
 40
1
 40
1
 10
542.243268
 20
200.098264
 30
0.0
 10
542.065788
 20
199.825420
 30
0.0
 10
541.810161
 20
199.612177
 30
0.0
 10
541.476388
 20
199.458537
 30
0.0
  0
SPLINE
  5
36f
100
AcDbEntity
  8
Layer_1
 62
7
100
AcDbSpline
 70
8
 71
3
 72
8
 73
4
 74
0
 40
0
 40
0
 40
0
 40
0
 40
1
 40
1
 40
1
 40
1
 10
541.476388
 20
199.458537
 30
0.0
 10
541.145268
 20
199.307545
 30
0.0
 10
540.771765
 20
199.232049
 30
0.0
 10
540.355878
 20
199.232049
 30
0.0
  0
SPLINE
  5
370
100
AcDbEntity
  8
Layer_1
 62
7
100
AcDbSpline
 70
8
 71
3
 72
8
 73
4
 74
0
 40
0
 40
0
 40
0
 40
0
 40
1
 40
1
 40
1
 40
1
 10
540.355878
 20
199.232049
 30
0.0
 10
539.828732
 20
199.232049
 30
0.0
 10
539.386352
 20
199.308869
 30
0.0
 10
539.028738
 20
199.462510
 30
0.0
  0
SPLINE
  5
371
100
AcDbEntity
  8
Layer_1
 62
7
100
AcDbSpline
 70
8
 71
3
 72
8
 73
4
 74
0
 40
0
 40
0
 40
0
 40
0
 40
1
 40
1
 40
1
 40
1
 10
539.028738
 20
199.462510
 30
0.0
 10
538.673772
 20
199.616150
 30
0.0
 10
538.394305
 20
199.846611
 30
0.0
 10
538.190338
 20
200.153893
 30
0.0
  0
SPLINE
  5
372
100
AcDbEntity
  8
Layer_1
 62
7
100
AcDbSpline
 70
8
 71
3
 72
8
 73
4
 74
0
 40
0
 40
0
 40
0
 40
0
 40
1
 40
1
 40
1
 40
1
 10
538.190338
 20
200.153893
 30
0.0
 10
537.989012
 20
200.463823
 30
0.0
 10
537.883052
 20
200.813488
 30
0.0
 10
537.872458
 20
201.202888
 30
0.0
  0
LINE
  5
373
100
AcDbEntity
  8
Layer_1
 62
7
100
AcDbLine
 10
537.872458
 20
201.202888
 30
0.0
 11
537.872458
 21
201.202884
 31
0.0
  0
LINE
  5
374
100
AcDbEntity
  8
Layer_1
 62
7
100
AcDbLine
 10
545.052508
 20
199.331382
 30
0.0
 11
545.052508
 21
204.469072
 31
0.0
  0
LINE
  5
375
100
AcDbEntity
  8
Layer_1
 62
7
100
AcDbLine
 10
545.052508
 20
204.469072
 30
0.0
 11
543.133328
 21
204.469072
 31
0.0
  0
LINE
  5
376
100
AcDbEntity
  8
Layer_1
 62
7
100
AcDbLine
 10
543.133328
 20
204.469072
 30
0.0
 11
543.133328
 21
205.156482
 31
0.0
  0
LINE
  5
377
100
AcDbEntity
  8
Layer_1
 62
7
100
AcDbLine
 10
543.133328
 20
205.156482
 30
0.0
 11
547.750488
 21
205.156482
 31
0.0
  0
LINE
  5
378
100
AcDbEntity
  8
Layer_1
 62
7
100
AcDbLine
 10
547.750488
 20
205.156482
 30
0.0
 11
547.750488
 21
204.469072
 31
0.0
  0
LINE
  5
379
100
AcDbEntity
  8
Layer_1
 62
7
100
AcDbLine
 10
547.750488
 20
204.469072
 30
0.0
 11
545.823358
 21
204.469072
 31
0.0
  0
LINE
  5
37a
100
AcDbEntity
  8
Layer_1
 62
7
100
AcDbLine
 10
545.823358
 20
204.469072
 30
0.0
 11
545.823358
 21
199.331382
 31
0.0
  0
LINE
  5
37b
100
AcDbEntity
  8
Layer_1
 62
7
100
AcDbLine
 10
545.823358
 20
199.331382
 30
0.0
 11
545.052508
 21
199.331382
 31
0.0
  0
LINE
  5
37c
100
AcDbEntity
  8
Layer_1
 62
7
100
AcDbLine
 10
7.047615
 20
351.521342
 30
0.0
 11
34.986114
 21
351.521342
 31
0.0
  0
LINE
  5
37d
100
AcDbEntity
  8
Layer_1
 62
7
100
AcDbLine
 10
34.986114
 20
351.521342
 30
0.0
 11
34.986114
 21
357.871342
 31
0.0
  0
LINE
  5
37e
100
AcDbEntity
  8
Layer_1
 62
7
100
AcDbLine
 10
34.986114
 20
357.871342
 30
0.0
 11
7.047615
 21
357.871342
 31
0.0
  0
LINE
  5
37f
100
AcDbEntity
  8
Layer_1
 62
7
100
AcDbLine
 10
7.047615
 20
357.871342
 30
0.0
 11
7.047615
 21
351.521342
 31
0.0
  0
LINE
  5
380
100
AcDbEntity
  8
Layer_1
 62
7
100
AcDbLine
 10
7.047615
 20
229.176375
 30
0.0
 11
34.986114
 21
229.176375
 31
0.0
  0
LINE
  5
381
100
AcDbEntity
  8
Layer_1
 62
7
100
AcDbLine
 10
34.986114
 20
229.176375
 30
0.0
 11
34.986114
 21
235.526375
 31
0.0
  0
LINE
  5
382
100
AcDbEntity
  8
Layer_1
 62
7
100
AcDbLine
 10
34.986114
 20
235.526375
 30
0.0
 11
7.047615
 21
235.526375
 31
0.0
  0
LINE
  5
383
100
AcDbEntity
  8
Layer_1
 62
7
100
AcDbLine
 10
7.047615
 20
235.526375
 30
0.0
 11
7.047615
 21
229.176375
 31
0.0
  0
LINE
  5
384
100
AcDbEntity
  8
Layer_1
 62
7
100
AcDbLine
 10
7.047615
 20
119.528327
 30
0.0
 11
7.047615
 21
138.146697
 31
0.0
  0
LINE
  5
385
100
AcDbEntity
  8
Layer_1
 62
7
100
AcDbLine
 10
7.047615
 20
138.146697
 30
0.0
 11
7.047615
 21
138.146697
 31
0.0
  0
LINE
  5
386
100
AcDbEntity
  8
Layer_1
 62
7
100
AcDbLine
 10
7.047615
 20
138.146697
 30
0.0
 11
7.047615
 21
157.823697
 31
0.0
  0
LINE
  5
387
100
AcDbEntity
  8
Layer_1
 62
7
100
AcDbLine
 10
7.047615
 20
157.823697
 30
0.0
 11
7.047615
 21
157.823697
 31
0.0
  0
LINE
  5
388
100
AcDbEntity
  8
Layer_1
 62
7
100
AcDbLine
 10
7.047615
 20
157.823697
 30
0.0
 11
7.047615
 21
182.953566
 31
0.0
  0
LINE
  5
389
100
AcDbEntity
  8
Layer_1
 62
7
100
AcDbLine
 10
7.047615
 20
182.953566
 30
0.0
 11
7.047615
 21
182.953566
 31
0.0
  0
LINE
  5
38a
100
AcDbEntity
  8
Layer_1
 62
7
100
AcDbLine
 10
7.047615
 20
182.953566
 30
0.0
 11
7.047615
 21
202.630570
 31
0.0
  0
LINE
  5
38b
100
AcDbEntity
  8
Layer_1
 62
7
100
AcDbLine
 10
7.047615
 20
202.630570
 30
0.0
 11
7.047615
 21
202.630570
 31
0.0
  0
LINE
  5
38c
100
AcDbEntity
  8
Layer_1
 62
7
100
AcDbLine
 10
7.047615
 20
202.630570
 30
0.0
 11
7.047615
 21
227.760449
 31
0.0
  0
LINE
  5
38d
100
AcDbEntity
  8
Layer_1
 62
7
100
AcDbLine
 10
7.047615
 20
227.760449
 30
0.0
 11
7.047615
 21
227.760449
 31
0.0
  0
LINE
  5
38e
100
AcDbEntity
  8
Layer_1
 62
7
100
AcDbLine
 10
7.047615
 20
227.760449
 30
0.0
 11
7.047615
 21
247.437449
 31
0.0
  0
LINE
  5
38f
100
AcDbEntity
  8
Layer_1
 62
7
100
AcDbLine
 10
7.047615
 20
247.437449
 30
0.0
 11
7.047615
 21
247.437449
 31
0.0
  0
LINE
  5
390
100
AcDbEntity
  8
Layer_1
 62
7
100
AcDbLine
 10
7.047615
 20
247.437449
 30
0.0
 11
7.047615
 21
272.567318
 31
0.0
  0
LINE
  5
391
100
AcDbEntity
  8
Layer_1
 62
7
100
AcDbLine
 10
7.047615
 20
272.567318
 30
0.0
 11
7.047615
 21
272.567318
 31
0.0
  0
LINE
  5
392
100
AcDbEntity
  8
Layer_1
 62
7
100
AcDbLine
 10
7.047615
 20
272.567318
 30
0.0
 11
7.047615
 21
292.244318
 31
0.0
  0
LINE
  5
393
100
AcDbEntity
  8
Layer_1
 62
7
100
AcDbLine
 10
7.047615
 20
292.244318
 30
0.0
 11
7.047615
 21
292.244318
 31
0.0
  0
LINE
  5
394
100
AcDbEntity
  8
Layer_1
 62
7
100
AcDbLine
 10
7.047615
 20
292.244318
 30
0.0
 11
7.047615
 21
317.374187
 31
0.0
  0
LINE
  5
395
100
AcDbEntity
  8
Layer_1
 62
7
100
AcDbLine
 10
7.047615
 20
317.374187
 30
0.0
 11
7.047615
 21
317.374187
 31
0.0
  0
LINE
  5
396
100
AcDbEntity
  8
Layer_1
 62
7
100
AcDbLine
 10
7.047615
 20
317.374187
 30
0.0
 11
7.047615
 21
337.051189
 31
0.0
  0
LINE
  5
397
100
AcDbEntity
  8
Layer_1
 62
7
100
AcDbLine
 10
7.047615
 20
337.051189
 30
0.0
 11
7.047615
 21
337.051189
 31
0.0
  0
LINE
  5
398
100
AcDbEntity
  8
Layer_1
 62
7
100
AcDbLine
 10
7.047615
 20
337.051189
 30
0.0
 11
7.047615
 21
362.181061
 31
0.0
  0
LINE
  5
399
100
AcDbEntity
  8
Layer_1
 62
7
100
AcDbLine
 10
7.047615
 20
362.181061
 30
0.0
 11
7.047615
 21
362.181061
 31
0.0
  0
LINE
  5
39a
100
AcDbEntity
  8
Layer_1
 62
7
100
AcDbLine
 10
7.047615
 20
362.181061
 30
0.0
 11
7.047615
 21
381.858061
 31
0.0
  0
LINE
  5
39b
100
AcDbEntity
  8
Layer_1
 62
7
100
AcDbLine
 10
7.047615
 20
381.858061
 30
0.0
 11
7.047615
 21
381.858061
 31
0.0
  0
LINE
  5
39c
100
AcDbEntity
  8
Layer_1
 62
7
100
AcDbLine
 10
7.047615
 20
381.858061
 30
0.0
 11
7.047615
 21
406.987931
 31
0.0
  0
LINE
  5
39d
100
AcDbEntity
  8
Layer_1
 62
7
100
AcDbLine
 10
7.047615
 20
406.987931
 30
0.0
 11
7.047615
 21
406.987931
 31
0.0
  0
LINE
  5
39e
100
AcDbEntity
  8
Layer_1
 62
7
100
AcDbLine
 10
7.047615
 20
406.987931
 30
0.0
 11
7.047615
 21
426.664931
 31
0.0
  0
LINE
  5
39f
100
AcDbEntity
  8
Layer_1
 62
7
100
AcDbLine
 10
7.047615
 20
426.664931
 30
0.0
 11
7.047615
 21
426.664931
 31
0.0
  0
LINE
  5
3a0
100
AcDbEntity
  8
Layer_1
 62
7
100
AcDbLine
 10
7.047615
 20
426.664931
 30
0.0
 11
7.047615
 21
445.283310
 31
0.0
  0
LINE
  5
3a1
100
AcDbEntity
  8
Layer_1
 62
7
100
AcDbLine
 10
7.047615
 20
445.283310
 30
0.0
 11
34.986114
 21
445.283310
 31
0.0
  0
LINE
  5
3a2
100
AcDbEntity
  8
Layer_1
 62
7
100
AcDbLine
 10
34.986114
 20
445.283310
 30
0.0
 11
34.986114
 21
451.633310
 31
0.0
  0
LINE
  5
3a3
100
AcDbEntity
  8
Layer_1
 62
7
100
AcDbLine
 10
34.986114
 20
451.633310
 30
0.0
 11
55.309114
 21
451.633310
 31
0.0
  0
LINE
  5
3a4
100
AcDbEntity
  8
Layer_1
 62
7
100
AcDbLine
 10
55.309114
 20
451.633310
 30
0.0
 11
55.309114
 21
445.283310
 31
0.0
  0
LINE
  5
3a5
100
AcDbEntity
  8
Layer_1
 62
7
100
AcDbLine
 10
55.309114
 20
445.283310
 30
0.0
 11
70.547613
 21
445.283320
 31
0.0
  0
LINE
  5
3a6
100
AcDbEntity
  8
Layer_1
 62
7
100
AcDbLine
 10
70.547613
 20
445.283320
 30
0.0
 11
70.547613
 21
426.987941
 31
0.0
  0
LINE
  5
3a7
100
AcDbEntity
  8
Layer_1
 62
7
100
AcDbLine
 10
70.547613
 20
426.987941
 30
0.0
 11
83.247613
 21
426.987931
 31
0.0
  0
LINE
  5
3a8
100
AcDbEntity
  8
Layer_1
 62
7
100
AcDbLine
 10
83.247613
 20
426.987931
 30
0.0
 11
83.247613
 21
406.664931
 31
0.0
  0
LINE
  5
3a9
100
AcDbEntity
  8
Layer_1
 62
7
100
AcDbLine
 10
83.247613
 20
406.664931
 30
0.0
 11
70.547613
 21
406.664941
 31
0.0
  0
LINE
  5
3aa
100
AcDbEntity
  8
Layer_1
 62
7
100
AcDbLine
 10
70.547613
 20
406.664941
 30
0.0
 11
70.547613
 21
382.181061
 31
0.0
  0
LINE
  5
3ab
100
AcDbEntity
  8
Layer_1
 62
7
100
AcDbLine
 10
70.547613
 20
382.181061
 30
0.0
 11
83.247613
 21
382.181061
 31
0.0
  0
LINE
  5
3ac
100
AcDbEntity
  8
Layer_1
 62
7
100
AcDbLine
 10
83.247613
 20
382.181061
 30
0.0
 11
83.247613
 21
361.858061
 31
0.0
  0
LINE
  5
3ad
100
AcDbEntity
  8
Layer_1
 62
7
100
AcDbLine
 10
83.247613
 20
361.858061
 30
0.0
 11
76.897613
 21
361.858061
 31
0.0
  0
LINE
  5
3ae
100
AcDbEntity
  8
Layer_1
 62
7
100
AcDbLine
 10
76.897613
 20
361.858061
 30
0.0
 11
76.897613
 21
337.374189
 31
0.0
  0
LINE
  5
3af
100
AcDbEntity
  8
Layer_1
 62
7
100
AcDbLine
 10
76.897613
 20
337.374189
 30
0.0
 11
83.247613
 21
337.374189
 31
0.0
  0
LINE
  5
3b0
100
AcDbEntity
  8
Layer_1
 62
7
100
AcDbLine
 10
83.247613
 20
337.374189
 30
0.0
 11
83.247613
 21
317.051187
 31
0.0
  0
LINE
  5
3b1
100
AcDbEntity
  8
Layer_1
 62
7
100
AcDbLine
 10
83.247613
 20
317.051187
 30
0.0
 11
76.897613
 21
317.051187
 31
0.0
  0
LINE
  5
3b2
100
AcDbEntity
  8
Layer_1
 62
7
100
AcDbLine
 10
76.897613
 20
317.051187
 30
0.0
 11
76.897613
 21
292.567318
 31
0.0
  0
LINE
  5
3b3
100
AcDbEntity
  8
Layer_1
 62
7
100
AcDbLine
 10
76.897613
 20
292.567318
 30
0.0
 11
83.247613
 21
292.567318
 31
0.0
  0
LINE
  5
3b4
100
AcDbEntity
  8
Layer_1
 62
7
100
AcDbLine
 10
83.247613
 20
292.567318
 30
0.0
 11
83.247613
 21
272.244318
 31
0.0
  0
LINE
  5
3b5
100
AcDbEntity
  8
Layer_1
 62
7
100
AcDbLine
 10
83.247613
 20
272.244318
 30
0.0
 11
76.897613
 21
272.244318
 31
0.0
  0
LINE
  5
3b6
100
AcDbEntity
  8
Layer_1
 62
7
100
AcDbLine
 10
76.897613
 20
272.244318
 30
0.0
 11
76.897613
 21
247.760449
 31
0.0
  0
LINE
  5
3b7
100
AcDbEntity
  8
Layer_1
 62
7
100
AcDbLine
 10
76.897613
 20
247.760449
 30
0.0
 11
83.247613
 21
247.760449
 31
0.0
  0
LINE
  5
3b8
100
AcDbEntity
  8
Layer_1
 62
7
100
AcDbLine
 10
83.247613
 20
247.760449
 30
0.0
 11
83.247613
 21
227.437449
 31
0.0
  0
LINE
  5
3b9
100
AcDbEntity
  8
Layer_1
 62
7
100
AcDbLine
 10
83.247613
 20
227.437449
 30
0.0
 11
76.897613
 21
227.437449
 31
0.0
  0
LINE
  5
3ba
100
AcDbEntity
  8
Layer_1
 62
7
100
AcDbLine
 10
76.897613
 20
227.437449
 30
0.0
 11
76.897613
 21
202.953570
 31
0.0
  0
LINE
  5
3bb
100
AcDbEntity
  8
Layer_1
 62
7
100
AcDbLine
 10
76.897613
 20
202.953570
 30
0.0
 11
83.247613
 21
202.953570
 31
0.0
  0
LINE
  5
3bc
100
AcDbEntity
  8
Layer_1
 62
7
100
AcDbLine
 10
83.247613
 20
202.953570
 30
0.0
 11
83.247613
 21
182.630566
 31
0.0
  0
LINE
  5
3bd
100
AcDbEntity
  8
Layer_1
 62
7
100
AcDbLine
 10
83.247613
 20
182.630566
 30
0.0
 11
70.547613
 21
182.630566
 31
0.0
  0
LINE
  5
3be
100
AcDbEntity
  8
Layer_1
 62
7
100
AcDbLine
 10
70.547613
 20
182.630566
 30
0.0
 11
70.547613
 21
158.146697
 31
0.0
  0
LINE
  5
3bf
100
AcDbEntity
  8
Layer_1
 62
7
100
AcDbLine
 10
70.547613
 20
158.146697
 30
0.0
 11
83.247613
 21
158.146697
 31
0.0
  0
LINE
  5
3c0
100
AcDbEntity
  8
Layer_1
 62
7
100
AcDbLine
 10
83.247613
 20
158.146697
 30
0.0
 11
83.247613
 21
137.823697
 31
0.0
  0
LINE
  5
3c1
100
AcDbEntity
  8
Layer_1
 62
7
100
AcDbLine
 10
83.247613
 20
137.823697
 30
0.0
 11
70.547613
 21
137.823707
 31
0.0
  0
LINE
  5
3c2
100
AcDbEntity
  8
Layer_1
 62
7
100
AcDbLine
 10
70.547613
 20
137.823707
 30
0.0
 11
70.547613
 21
119.528327
 31
0.0
  0
LINE
  5
3c3
100
AcDbEntity
  8
Layer_1
 62
7
100
AcDbLine
 10
70.547613
 20
119.528327
 30
0.0
 11
55.309114
 21
119.528327
 31
0.0
  0
LINE
  5
3c4
100
AcDbEntity
  8
Layer_1
 62
7
100
AcDbLine
 10
55.309114
 20
119.528327
 30
0.0
 11
55.309114
 21
113.178328
 31
0.0
  0
LINE
  5
3c5
100
AcDbEntity
  8
Layer_1
 62
7
100
AcDbLine
 10
55.309114
 20
113.178328
 30
0.0
 11
34.986114
 21
113.178328
 31
0.0
  0
LINE
  5
3c6
100
AcDbEntity
  8
Layer_1
 62
7
100
AcDbLine
 10
34.986114
 20
113.178328
 30
0.0
 11
34.986114
 21
119.528327
 31
0.0
  0
LINE
  5
3c7
100
AcDbEntity
  8
Layer_1
 62
7
100
AcDbLine
 10
34.986114
 20
119.528327
 30
0.0
 11
7.047615
 21
119.528327
 31
0.0
  0
LINE
  5
3c8
100
AcDbEntity
  8
Layer_1
 62
7
100
AcDbLine
 10
371.974172
 20
351.521342
 30
0.0
 11
344.035662
 21
351.521342
 31
0.0
  0
LINE
  5
3c9
100
AcDbEntity
  8
Layer_1
 62
7
100
AcDbLine
 10
344.035662
 20
351.521342
 30
0.0
 11
344.035662
 21
357.871342
 31
0.0
  0
LINE
  5
3ca
100
AcDbEntity
  8
Layer_1
 62
7
100
AcDbLine
 10
344.035662
 20
357.871342
 30
0.0
 11
371.974172
 21
357.871342
 31
0.0
  0
LINE
  5
3cb
100
AcDbEntity
  8
Layer_1
 62
7
100
AcDbLine
 10
371.974172
 20
357.871342
 30
0.0
 11
371.974172
 21
351.521342
 31
0.0
  0
LINE
  5
3cc
100
AcDbEntity
  8
Layer_1
 62
7
100
AcDbLine
 10
371.974172
 20
229.176375
 30
0.0
 11
344.035662
 21
229.176375
 31
0.0
  0
LINE
  5
3cd
100
AcDbEntity
  8
Layer_1
 62
7
100
AcDbLine
 10
344.035662
 20
229.176375
 30
0.0
 11
344.035662
 21
235.526375
 31
0.0
  0
LINE
  5
3ce
100
AcDbEntity
  8
Layer_1
 62
7
100
AcDbLine
 10
344.035662
 20
235.526375
 30
0.0
 11
371.974172
 21
235.526375
 31
0.0
  0
LINE
  5
3cf
100
AcDbEntity
  8
Layer_1
 62
7
100
AcDbLine
 10
371.974172
 20
235.526375
 30
0.0
 11
371.974172
 21
229.176375
 31
0.0
  0
LINE
  5
3d0
100
AcDbEntity
  8
Layer_1
 62
7
100
AcDbLine
 10
371.974172
 20
119.528327
 30
0.0
 11
371.974172
 21
138.146697
 31
0.0
  0
LINE
  5
3d1
100
AcDbEntity
  8
Layer_1
 62
7
100
AcDbLine
 10
371.974172
 20
138.146697
 30
0.0
 11
371.974172
 21
138.146697
 31
0.0
  0
LINE
  5
3d2
100
AcDbEntity
  8
Layer_1
 62
7
100
AcDbLine
 10
371.974172
 20
138.146697
 30
0.0
 11
371.974172
 21
157.823697
 31
0.0
  0
LINE
  5
3d3
100
AcDbEntity
  8
Layer_1
 62
7
100
AcDbLine
 10
371.974172
 20
157.823697
 30
0.0
 11
371.974172
 21
157.823697
 31
0.0
  0
LINE
  5
3d4
100
AcDbEntity
  8
Layer_1
 62
7
100
AcDbLine
 10
371.974172
 20
157.823697
 30
0.0
 11
371.974172
 21
182.953566
 31
0.0
  0
LINE
  5
3d5
100
AcDbEntity
  8
Layer_1
 62
7
100
AcDbLine
 10
371.974172
 20
182.953566
 30
0.0
 11
371.974172
 21
182.953566
 31
0.0
  0
LINE
  5
3d6
100
AcDbEntity
  8
Layer_1
 62
7
100
AcDbLine
 10
371.974172
 20
182.953566
 30
0.0
 11
371.974172
 21
202.630570
 31
0.0
  0
LINE
  5
3d7
100
AcDbEntity
  8
Layer_1
 62
7
100
AcDbLine
 10
371.974172
 20
202.630570
 30
0.0
 11
371.974172
 21
202.630570
 31
0.0
  0
LINE
  5
3d8
100
AcDbEntity
  8
Layer_1
 62
7
100
AcDbLine
 10
371.974172
 20
202.630570
 30
0.0
 11
371.974172
 21
227.760449
 31
0.0
  0
LINE
  5
3d9
100
AcDbEntity
  8
Layer_1
 62
7
100
AcDbLine
 10
371.974172
 20
227.760449
 30
0.0
 11
371.974172
 21
227.760449
 31
0.0
  0
LINE
  5
3da
100
AcDbEntity
  8
Layer_1
 62
7
100
AcDbLine
 10
371.974172
 20
227.760449
 30
0.0
 11
371.974172
 21
247.437449
 31
0.0
  0
LINE
  5
3db
100
AcDbEntity
  8
Layer_1
 62
7
100
AcDbLine
 10
371.974172
 20
247.437449
 30
0.0
 11
371.974172
 21
247.437449
 31
0.0
  0
LINE
  5
3dc
100
AcDbEntity
  8
Layer_1
 62
7
100
AcDbLine
 10
371.974172
 20
247.437449
 30
0.0
 11
371.974172
 21
272.567318
 31
0.0
  0
LINE
  5
3dd
100
AcDbEntity
  8
Layer_1
 62
7
100
AcDbLine
 10
371.974172
 20
272.567318
 30
0.0
 11
371.974172
 21
272.567318
 31
0.0
  0
LINE
  5
3de
100
AcDbEntity
  8
Layer_1
 62
7
100
AcDbLine
 10
371.974172
 20
272.567318
 30
0.0
 11
371.974172
 21
292.244318
 31
0.0
  0
LINE
  5
3df
100
AcDbEntity
  8
Layer_1
 62
7
100
AcDbLine
 10
371.974172
 20
292.244318
 30
0.0
 11
371.974172
 21
292.244318
 31
0.0
  0
LINE
  5
3e0
100
AcDbEntity
  8
Layer_1
 62
7
100
AcDbLine
 10
371.974172
 20
292.244318
 30
0.0
 11
371.974172
 21
317.374187
 31
0.0
  0
LINE
  5
3e1
100
AcDbEntity
  8
Layer_1
 62
7
100
AcDbLine
 10
371.974172
 20
317.374187
 30
0.0
 11
371.974172
 21
317.374187
 31
0.0
  0
LINE
  5
3e2
100
AcDbEntity
  8
Layer_1
 62
7
100
AcDbLine
 10
371.974172
 20
317.374187
 30
0.0
 11
371.974172
 21
337.051189
 31
0.0
  0
LINE
  5
3e3
100
AcDbEntity
  8
Layer_1
 62
7
100
AcDbLine
 10
371.974172
 20
337.051189
 30
0.0
 11
371.974172
 21
337.051189
 31
0.0
  0
LINE
  5
3e4
100
AcDbEntity
  8
Layer_1
 62
7
100
AcDbLine
 10
371.974172
 20
337.051189
 30
0.0
 11
371.974172
 21
362.181061
 31
0.0
  0
LINE
  5
3e5
100
AcDbEntity
  8
Layer_1
 62
7
100
AcDbLine
 10
371.974172
 20
362.181061
 30
0.0
 11
371.974172
 21
362.181061
 31
0.0
  0
LINE
  5
3e6
100
AcDbEntity
  8
Layer_1
 62
7
100
AcDbLine
 10
371.974172
 20
362.181061
 30
0.0
 11
371.974172
 21
381.858061
 31
0.0
  0
LINE
  5
3e7
100
AcDbEntity
  8
Layer_1
 62
7
100
AcDbLine
 10
371.974172
 20
381.858061
 30
0.0
 11
371.974172
 21
381.858061
 31
0.0
  0
LINE
  5
3e8
100
AcDbEntity
  8
Layer_1
 62
7
100
AcDbLine
 10
371.974172
 20
381.858061
 30
0.0
 11
371.974172
 21
406.987931
 31
0.0
  0
LINE
  5
3e9
100
AcDbEntity
  8
Layer_1
 62
7
100
AcDbLine
 10
371.974172
 20
406.987931
 30
0.0
 11
371.974172
 21
406.987931
 31
0.0
  0
LINE
  5
3ea
100
AcDbEntity
  8
Layer_1
 62
7
100
AcDbLine
 10
371.974172
 20
406.987931
 30
0.0
 11
371.974172
 21
426.664931
 31
0.0
  0
LINE
  5
3eb
100
AcDbEntity
  8
Layer_1
 62
7
100
AcDbLine
 10
371.974172
 20
426.664931
 30
0.0
 11
371.974172
 21
426.664931
 31
0.0
  0
LINE
  5
3ec
100
AcDbEntity
  8
Layer_1
 62
7
100
AcDbLine
 10
371.974172
 20
426.664931
 30
0.0
 11
371.974172
 21
445.283310
 31
0.0
  0
LINE
  5
3ed
100
AcDbEntity
  8
Layer_1
 62
7
100
AcDbLine
 10
371.974172
 20
445.283310
 30
0.0
 11
344.035662
 21
445.283310
 31
0.0
  0
LINE
  5
3ee
100
AcDbEntity
  8
Layer_1
 62
7
100
AcDbLine
 10
344.035662
 20
445.283310
 30
0.0
 11
344.035662
 21
451.633310
 31
0.0
  0
LINE
  5
3ef
100
AcDbEntity
  8
Layer_1
 62
7
100
AcDbLine
 10
344.035662
 20
451.633310
 30
0.0
 11
323.712663
 21
451.633310
 31
0.0
  0
LINE
  5
3f0
100
AcDbEntity
  8
Layer_1
 62
7
100
AcDbLine
 10
323.712663
 20
451.633310
 30
0.0
 11
323.712663
 21
445.283310
 31
0.0
  0
LINE
  5
3f1
100
AcDbEntity
  8
Layer_1
 62
7
100
AcDbLine
 10
323.712663
 20
445.283310
 30
0.0
 11
308.474163
 21
445.283320
 31
0.0
  0
LINE
  5
3f2
100
AcDbEntity
  8
Layer_1
 62
7
100
AcDbLine
 10
308.474163
 20
445.283320
 30
0.0
 11
308.474163
 21
426.987941
 31
0.0
  0
LINE
  5
3f3
100
AcDbEntity
  8
Layer_1
 62
7
100
AcDbLine
 10
308.474163
 20
426.987941
 30
0.0
 11
295.774164
 21
426.987931
 31
0.0
  0
LINE
  5
3f4
100
AcDbEntity
  8
Layer_1
 62
7
100
AcDbLine
 10
295.774164
 20
426.987931
 30
0.0
 11
295.774164
 21
406.664931
 31
0.0
  0
LINE
  5
3f5
100
AcDbEntity
  8
Layer_1
 62
7
100
AcDbLine
 10
295.774164
 20
406.664931
 30
0.0
 11
308.474163
 21
406.664941
 31
0.0
  0
LINE
  5
3f6
100
AcDbEntity
  8
Layer_1
 62
7
100
AcDbLine
 10
308.474163
 20
406.664941
 30
0.0
 11
308.474163
 21
382.181061
 31
0.0
  0
LINE
  5
3f7
100
AcDbEntity
  8
Layer_1
 62
7
100
AcDbLine
 10
308.474163
 20
382.181061
 30
0.0
 11
295.774164
 21
382.181061
 31
0.0
  0
LINE
  5
3f8
100
AcDbEntity
  8
Layer_1
 62
7
100
AcDbLine
 10
295.774164
 20
382.181061
 30
0.0
 11
295.774164
 21
361.858061
 31
0.0
  0
LINE
  5
3f9
100
AcDbEntity
  8
Layer_1
 62
7
100
AcDbLine
 10
295.774164
 20
361.858061
 30
0.0
 11
302.124163
 21
361.858061
 31
0.0
  0
LINE
  5
3fa
100
AcDbEntity
  8
Layer_1
 62
7
100
AcDbLine
 10
302.124163
 20
361.858061
 30
0.0
 11
302.124163
 21
337.374189
 31
0.0
  0
LINE
  5
3fb
100
AcDbEntity
  8
Layer_1
 62
7
100
AcDbLine
 10
302.124163
 20
337.374189
 30
0.0
 11
295.774164
 21
337.374189
 31
0.0
  0
LINE
  5
3fc
100
AcDbEntity
  8
Layer_1
 62
7
100
AcDbLine
 10
295.774164
 20
337.374189
 30
0.0
 11
295.774164
 21
317.051187
 31
0.0
  0
LINE
  5
3fd
100
AcDbEntity
  8
Layer_1
 62
7
100
AcDbLine
 10
295.774164
 20
317.051187
 30
0.0
 11
302.124163
 21
317.051187
 31
0.0
  0
LINE
  5
3fe
100
AcDbEntity
  8
Layer_1
 62
7
100
AcDbLine
 10
302.124163
 20
317.051187
 30
0.0
 11
302.124163
 21
292.567318
 31
0.0
  0
LINE
  5
3ff
100
AcDbEntity
  8
Layer_1
 62
7
100
AcDbLine
 10
302.124163
 20
292.567318
 30
0.0
 11
295.774164
 21
292.567318
 31
0.0
  0
LINE
  5
400
100
AcDbEntity
  8
Layer_1
 62
7
100
AcDbLine
 10
295.774164
 20
292.567318
 30
0.0
 11
295.774164
 21
272.244318
 31
0.0
  0
LINE
  5
401
100
AcDbEntity
  8
Layer_1
 62
7
100
AcDbLine
 10
295.774164
 20
272.244318
 30
0.0
 11
302.124163
 21
272.244318
 31
0.0
  0
LINE
  5
402
100
AcDbEntity
  8
Layer_1
 62
7
100
AcDbLine
 10
302.124163
 20
272.244318
 30
0.0
 11
302.124163
 21
247.760449
 31
0.0
  0
LINE
  5
403
100
AcDbEntity
  8
Layer_1
 62
7
100
AcDbLine
 10
302.124163
 20
247.760449
 30
0.0
 11
295.774164
 21
247.760449
 31
0.0
  0
LINE
  5
404
100
AcDbEntity
  8
Layer_1
 62
7
100
AcDbLine
 10
295.774164
 20
247.760449
 30
0.0
 11
295.774164
 21
227.437449
 31
0.0
  0
LINE
  5
405
100
AcDbEntity
  8
Layer_1
 62
7
100
AcDbLine
 10
295.774164
 20
227.437449
 30
0.0
 11
302.124163
 21
227.437449
 31
0.0
  0
LINE
  5
406
100
AcDbEntity
  8
Layer_1
 62
7
100
AcDbLine
 10
302.124163
 20
227.437449
 30
0.0
 11
302.124163
 21
202.953570
 31
0.0
  0
LINE
  5
407
100
AcDbEntity
  8
Layer_1
 62
7
100
AcDbLine
 10
302.124163
 20
202.953570
 30
0.0
 11
295.774164
 21
202.953570
 31
0.0
  0
LINE
  5
408
100
AcDbEntity
  8
Layer_1
 62
7
100
AcDbLine
 10
295.774164
 20
202.953570
 30
0.0
 11
295.774164
 21
182.630566
 31
0.0
  0
LINE
  5
409
100
AcDbEntity
  8
Layer_1
 62
7
100
AcDbLine
 10
295.774164
 20
182.630566
 30
0.0
 11
308.474163
 21
182.630566
 31
0.0
  0
LINE
  5
40a
100
AcDbEntity
  8
Layer_1
 62
7
100
AcDbLine
 10
308.474163
 20
182.630566
 30
0.0
 11
308.474163
 21
158.146697
 31
0.0
  0
LINE
  5
40b
100
AcDbEntity
  8
Layer_1
 62
7
100
AcDbLine
 10
308.474163
 20
158.146697
 30
0.0
 11
295.774164
 21
158.146697
 31
0.0
  0
LINE
  5
40c
100
AcDbEntity
  8
Layer_1
 62
7
100
AcDbLine
 10
295.774164
 20
158.146697
 30
0.0
 11
295.774164
 21
137.823697
 31
0.0
  0
LINE
  5
40d
100
AcDbEntity
  8
Layer_1
 62
7
100
AcDbLine
 10
295.774164
 20
137.823697
 30
0.0
 11
308.474163
 21
137.823707
 31
0.0
  0
LINE
  5
40e
100
AcDbEntity
  8
Layer_1
 62
7
100
AcDbLine
 10
308.474163
 20
137.823707
 30
0.0
 11
308.474163
 21
119.528327
 31
0.0
  0
LINE
  5
40f
100
AcDbEntity
  8
Layer_1
 62
7
100
AcDbLine
 10
308.474163
 20
119.528327
 30
0.0
 11
323.712663
 21
119.528327
 31
0.0
  0
LINE
  5
410
100
AcDbEntity
  8
Layer_1
 62
7
100
AcDbLine
 10
323.712663
 20
119.528327
 30
0.0
 11
323.712663
 21
113.178328
 31
0.0
  0
LINE
  5
411
100
AcDbEntity
  8
Layer_1
 62
7
100
AcDbLine
 10
323.712663
 20
113.178328
 30
0.0
 11
344.035662
 21
113.178328
 31
0.0
  0
LINE
  5
412
100
AcDbEntity
  8
Layer_1
 62
7
100
AcDbLine
 10
344.035662
 20
113.178328
 30
0.0
 11
344.035662
 21
119.528327
 31
0.0
  0
LINE
  5
413
100
AcDbEntity
  8
Layer_1
 62
7
100
AcDbLine
 10
344.035662
 20
119.528327
 30
0.0
 11
371.974172
 21
119.528327
 31
0.0
  0
LINE
  5
414
100
AcDbEntity
  8
Layer_1
 62
7
100
AcDbLine
 10
6.384520
 20
35.411369
 30
0.0
 11
6.384520
 21
63.672869
 31
0.0
  0
LINE
  5
415
100
AcDbEntity
  8
Layer_1
 62
7
100
AcDbLine
 10
6.384520
 20
63.672869
 30
0.0
 11
12.734520
 21
63.672869
 31
0.0
  0
LINE
  5
416
100
AcDbEntity
  8
Layer_1
 62
7
100
AcDbLine
 10
12.734520
 20
63.672869
 30
0.0
 11
12.734520
 21
83.349868
 31
0.0
  0
LINE
  5
417
100
AcDbEntity
  8
Layer_1
 62
7
100
AcDbLine
 10
12.734520
 20
83.349868
 30
0.0
 11
6.384520
 21
83.349868
 31
0.0
  0
LINE
  5
418
100
AcDbEntity
  8
Layer_1
 62
7
100
AcDbLine
 10
6.384520
 20
83.349868
 30
0.0
 11
6.384515
 21
98.911368
 31
0.0
  0
LINE
  5
419
100
AcDbEntity
  8
Layer_1
 62
7
100
AcDbLine
 10
6.384515
 20
98.911368
 30
0.0
 11
32.280414
 21
98.911368
 31
0.0
  0
LINE
  5
41a
100
AcDbEntity
  8
Layer_1
 62
7
100
AcDbLine
 10
32.280414
 20
98.911368
 30
0.0
 11
32.280414
 21
111.611368
 31
0.0
  0
LINE
  5
41b
100
AcDbEntity
  8
Layer_1
 62
7
100
AcDbLine
 10
32.280414
 20
111.611368
 30
0.0
 11
52.603414
 21
111.611368
 31
0.0
  0
LINE
  5
41c
100
AcDbEntity
  8
Layer_1
 62
7
100
AcDbLine
 10
52.603414
 20
111.611368
 30
0.0
 11
52.603415
 21
98.911368
 31
0.0
  0
LINE
  5
41d
100
AcDbEntity
  8
Layer_1
 62
7
100
AcDbLine
 10
52.603415
 20
98.911368
 30
0.0
 11
78.337813
 21
98.911368
 31
0.0
  0
LINE
  5
41e
100
AcDbEntity
  8
Layer_1
 62
7
100
AcDbLine
 10
78.337813
 20
98.911368
 30
0.0
 11
78.337813
 21
111.611368
 31
0.0
  0
LINE
  5
41f
100
AcDbEntity
  8
Layer_1
 62
7
100
AcDbLine
 10
78.337813
 20
111.611368
 30
0.0
 11
98.660813
 21
111.611368
 31
0.0
  0
LINE
  5
420
100
AcDbEntity
  8
Layer_1
 62
7
100
AcDbLine
 10
98.660813
 20
111.611368
 30
0.0
 11
98.660813
 21
105.261368
 31
0.0
  0
LINE
  5
421
100
AcDbEntity
  8
Layer_1
 62
7
100
AcDbLine
 10
98.660813
 20
105.261368
 30
0.0
 11
124.395207
 21
105.261368
 31
0.0
  0
LINE
  5
422
100
AcDbEntity
  8
Layer_1
 62
7
100
AcDbLine
 10
124.395207
 20
105.261368
 30
0.0
 11
124.395207
 21
111.611368
 31
0.0
  0
LINE
  5
423
100
AcDbEntity
  8
Layer_1
 62
7
100
AcDbLine
 10
124.395207
 20
111.611368
 30
0.0
 11
144.718207
 21
111.611368
 31
0.0
  0
LINE
  5
424
100
AcDbEntity
  8
Layer_1
 62
7
100
AcDbLine
 10
144.718207
 20
111.611368
 30
0.0
 11
144.718207
 21
98.911368
 31
0.0
  0
LINE
  5
425
100
AcDbEntity
  8
Layer_1
 62
7
100
AcDbLine
 10
144.718207
 20
98.911368
 30
0.0
 11
170.452606
 21
98.911368
 31
0.0
  0
LINE
  5
426
100
AcDbEntity
  8
Layer_1
 62
7
100
AcDbLine
 10
170.452606
 20
98.911368
 30
0.0
 11
170.452606
 21
111.611368
 31
0.0
  0
LINE
  5
427
100
AcDbEntity
  8
Layer_1
 62
7
100
AcDbLine
 10
170.452606
 20
111.611368
 30
0.0
 11
190.775616
 21
111.611368
 31
0.0
  0
LINE
  5
428
100
AcDbEntity
  8
Layer_1
 62
7
100
AcDbLine
 10
190.775616
 20
111.611368
 30
0.0
 11
190.775606
 21
98.911368
 31
0.0
  0
LINE
  5
429
100
AcDbEntity
  8
Layer_1
 62
7
100
AcDbLine
 10
190.775606
 20
98.911368
 30
0.0
 11
216.671495
 21
98.911368
 31
0.0
  0
LINE
  5
42a
100
AcDbEntity
  8
Layer_1
 62
7
100
AcDbLine
 10
216.671495
 20
98.911368
 30
0.0
 11
216.671505
 21
83.349868
 31
0.0
  0
LINE
  5
42b
100
AcDbEntity
  8
Layer_1
 62
7
100
AcDbLine
 10
216.671505
 20
83.349868
 30
0.0
 11
210.321495
 21
83.349868
 31
0.0
  0
LINE
  5
42c
100
AcDbEntity
  8
Layer_1
 62
7
100
AcDbLine
 10
210.321495
 20
83.349868
 30
0.0
 11
210.321495
 21
63.672869
 31
0.0
  0
LINE
  5
42d
100
AcDbEntity
  8
Layer_1
 62
7
100
AcDbLine
 10
210.321495
 20
63.672869
 30
0.0
 11
216.671505
 21
63.672869
 31
0.0
  0
LINE
  5
42e
100
AcDbEntity
  8
Layer_1
 62
7
100
AcDbLine
 10
216.671505
 20
63.672869
 30
0.0
 11
216.671505
 21
35.411369
 31
0.0
  0
LINE
  5
42f
100
AcDbEntity
  8
Layer_1
 62
7
100
AcDbLine
 10
216.671505
 20
35.411369
 30
0.0
 11
190.452616
 21
35.411369
 31
0.0
  0
LINE
  5
430
100
AcDbEntity
  8
Layer_1
 62
7
100
AcDbLine
 10
190.452616
 20
35.411369
 30
0.0
 11
190.452616
 21
35.411369
 31
0.0
  0
LINE
  5
431
100
AcDbEntity
  8
Layer_1
 62
7
100
AcDbLine
 10
190.452616
 20
35.411369
 30
0.0
 11
170.775616
 21
35.411369
 31
0.0
  0
LINE
  5
432
100
AcDbEntity
  8
Layer_1
 62
7
100
AcDbLine
 10
170.775616
 20
35.411369
 30
0.0
 11
170.775616
 21
35.411369
 31
0.0
  0
LINE
  5
433
100
AcDbEntity
  8
Layer_1
 62
7
100
AcDbLine
 10
170.775616
 20
35.411369
 30
0.0
 11
144.395207
 21
35.411369
 31
0.0
  0
LINE
  5
434
100
AcDbEntity
  8
Layer_1
 62
7
100
AcDbLine
 10
144.395207
 20
35.411369
 30
0.0
 11
144.395207
 21
35.411369
 31
0.0
  0
LINE
  5
435
100
AcDbEntity
  8
Layer_1
 62
7
100
AcDbLine
 10
144.395207
 20
35.411369
 30
0.0
 11
124.718217
 21
35.411369
 31
0.0
  0
LINE
  5
436
100
AcDbEntity
  8
Layer_1
 62
7
100
AcDbLine
 10
124.718217
 20
35.411369
 30
0.0
 11
124.718217
 21
35.411369
 31
0.0
  0
LINE
  5
437
100
AcDbEntity
  8
Layer_1
 62
7
100
AcDbLine
 10
124.718217
 20
35.411369
 30
0.0
 11
98.337813
 21
35.411369
 31
0.0
  0
LINE
  5
438
100
AcDbEntity
  8
Layer_1
 62
7
100
AcDbLine
 10
98.337813
 20
35.411369
 30
0.0
 11
98.337813
 21
35.411369
 31
0.0
  0
LINE
  5
439
100
AcDbEntity
  8
Layer_1
 62
7
100
AcDbLine
 10
98.337813
 20
35.411369
 30
0.0
 11
78.660813
 21
35.411369
 31
0.0
  0
LINE
  5
43a
100
AcDbEntity
  8
Layer_1
 62
7
100
AcDbLine
 10
78.660813
 20
35.411369
 30
0.0
 11
78.660813
 21
35.411369
 31
0.0
  0
LINE
  5
43b
100
AcDbEntity
  8
Layer_1
 62
7
100
AcDbLine
 10
78.660813
 20
35.411369
 30
0.0
 11
52.280414
 21
35.411369
 31
0.0
  0
LINE
  5
43c
100
AcDbEntity
  8
Layer_1
 62
7
100
AcDbLine
 10
52.280414
 20
35.411369
 30
0.0
 11
52.280414
 21
35.411369
 31
0.0
  0
LINE
  5
43d
100
AcDbEntity
  8
Layer_1
 62
7
100
AcDbLine
 10
52.280414
 20
35.411369
 30
0.0
 11
32.603414
 21
35.411369
 31
0.0
  0
LINE
  5
43e
100
AcDbEntity
  8
Layer_1
 62
7
100
AcDbLine
 10
32.603414
 20
35.411369
 30
0.0
 11
32.603414
 21
35.411369
 31
0.0
  0
LINE
  5
43f
100
AcDbEntity
  8
Layer_1
 62
7
100
AcDbLine
 10
32.603414
 20
35.411369
 30
0.0
 11
6.384520
 21
35.411369
 31
0.0
  0
LINE
  5
440
100
AcDbEntity
  8
Layer_1
 62
7
100
AcDbLine
 10
218.379365
 20
111.611368
 30
0.0
 11
218.379365
 21
83.349868
 31
0.0
  0
LINE
  5
441
100
AcDbEntity
  8
Layer_1
 62
7
100
AcDbLine
 10
218.379365
 20
83.349868
 30
0.0
 11
224.729365
 21
83.349868
 31
0.0
  0
LINE
  5
442
100
AcDbEntity
  8
Layer_1
 62
7
100
AcDbLine
 10
224.729365
 20
83.349868
 30
0.0
 11
224.729365
 21
63.672869
 31
0.0
  0
LINE
  5
443
100
AcDbEntity
  8
Layer_1
 62
7
100
AcDbLine
 10
224.729365
 20
63.672869
 30
0.0
 11
218.379365
 21
63.672869
 31
0.0
  0
LINE
  5
444
100
AcDbEntity
  8
Layer_1
 62
7
100
AcDbLine
 10
218.379365
 20
63.672869
 30
0.0
 11
218.379365
 21
48.111369
 31
0.0
  0
LINE
  5
445
100
AcDbEntity
  8
Layer_1
 62
7
100
AcDbLine
 10
218.379365
 20
48.111369
 30
0.0
 11
244.275265
 21
48.111369
 31
0.0
  0
LINE
  5
446
100
AcDbEntity
  8
Layer_1
 62
7
100
AcDbLine
 10
244.275265
 20
48.111369
 30
0.0
 11
244.275265
 21
35.411369
 31
0.0
  0
LINE
  5
447
100
AcDbEntity
  8
Layer_1
 62
7
100
AcDbLine
 10
244.275265
 20
35.411369
 30
0.0
 11
264.598264
 21
35.411369
 31
0.0
  0
LINE
  5
448
100
AcDbEntity
  8
Layer_1
 62
7
100
AcDbLine
 10
264.598264
 20
35.411369
 30
0.0
 11
264.598264
 21
48.111369
 31
0.0
  0
LINE
  5
449
100
AcDbEntity
  8
Layer_1
 62
7
100
AcDbLine
 10
264.598264
 20
48.111369
 30
0.0
 11
290.332664
 21
48.111369
 31
0.0
  0
LINE
  5
44a
100
AcDbEntity
  8
Layer_1
 62
7
100
AcDbLine
 10
290.332664
 20
48.111369
 30
0.0
 11
290.332664
 21
35.411369
 31
0.0
  0
LINE
  5
44b
100
AcDbEntity
  8
Layer_1
 62
7
100
AcDbLine
 10
290.332664
 20
35.411369
 30
0.0
 11
310.655663
 21
35.411369
 31
0.0
  0
LINE
  5
44c
100
AcDbEntity
  8
Layer_1
 62
7
100
AcDbLine
 10
310.655663
 20
35.411369
 30
0.0
 11
310.655663
 21
41.761369
 31
0.0
  0
LINE
  5
44d
100
AcDbEntity
  8
Layer_1
 62
7
100
AcDbLine
 10
310.655663
 20
41.761369
 30
0.0
 11
336.390053
 21
41.761369
 31
0.0
  0
LINE
  5
44e
100
AcDbEntity
  8
Layer_1
 62
7
100
AcDbLine
 10
336.390053
 20
41.761369
 30
0.0
 11
336.390053
 21
35.411369
 31
0.0
  0
LINE
  5
44f
100
AcDbEntity
  8
Layer_1
 62
7
100
AcDbLine
 10
336.390053
 20
35.411369
 30
0.0
 11
356.713052
 21
35.411369
 31
0.0
  0
LINE
  5
450
100
AcDbEntity
  8
Layer_1
 62
7
100
AcDbLine
 10
356.713052
 20
35.411369
 30
0.0
 11
356.713052
 21
48.111369
 31
0.0
  0
LINE
  5
451
100
AcDbEntity
  8
Layer_1
 62
7
100
AcDbLine
 10
356.713052
 20
48.111369
 30
0.0
 11
382.447452
 21
48.111369
 31
0.0
  0
LINE
  5
452
100
AcDbEntity
  8
Layer_1
 62
7
100
AcDbLine
 10
382.447452
 20
48.111369
 30
0.0
 11
382.447452
 21
35.411369
 31
0.0
  0
LINE
  5
453
100
AcDbEntity
  8
Layer_1
 62
7
100
AcDbLine
 10
382.447452
 20
35.411369
 30
0.0
 11
402.770461
 21
35.411369
 31
0.0
  0
LINE
  5
454
100
AcDbEntity
  8
Layer_1
 62
7
100
AcDbLine
 10
402.770461
 20
35.411369
 30
0.0
 11
402.770451
 21
48.111369
 31
0.0
  0
LINE
  5
455
100
AcDbEntity
  8
Layer_1
 62
7
100
AcDbLine
 10
402.770451
 20
48.111369
 30
0.0
 11
428.666341
 21
48.111369
 31
0.0
  0
LINE
  5
456
100
AcDbEntity
  8
Layer_1
 62
7
100
AcDbLine
 10
428.666341
 20
48.111369
 30
0.0
 11
428.666351
 21
63.672869
 31
0.0
  0
LINE
  5
457
100
AcDbEntity
  8
Layer_1
 62
7
100
AcDbLine
 10
428.666351
 20
63.672869
 30
0.0
 11
422.316341
 21
63.672869
 31
0.0
  0
LINE
  5
458
100
AcDbEntity
  8
Layer_1
 62
7
100
AcDbLine
 10
422.316341
 20
63.672869
 30
0.0
 11
422.316341
 21
83.349868
 31
0.0
  0
LINE
  5
459
100
AcDbEntity
  8
Layer_1
 62
7
100
AcDbLine
 10
422.316341
 20
83.349868
 30
0.0
 11
428.666351
 21
83.349868
 31
0.0
  0
LINE
  5
45a
100
AcDbEntity
  8
Layer_1
 62
7
100
AcDbLine
 10
428.666351
 20
83.349868
 30
0.0
 11
428.666351
 21
111.611368
 31
0.0
  0
LINE
  5
45b
100
AcDbEntity
  8
Layer_1
 62
7
100
AcDbLine
 10
428.666351
 20
111.611368
 30
0.0
 11
402.447461
 21
111.611368
 31
0.0
  0
LINE
  5
45c
100
AcDbEntity
  8
Layer_1
 62
7
100
AcDbLine
 10
402.447461
 20
111.611368
 30
0.0
 11
402.447461
 21
111.611368
 31
0.0
  0
LINE
  5
45d
100
AcDbEntity
  8
Layer_1
 62
7
100
AcDbLine
 10
402.447461
 20
111.611368
 30
0.0
 11
382.770462
 21
111.611368
 31
0.0
  0
LINE
  5
45e
100
AcDbEntity
  8
Layer_1
 62
7
100
AcDbLine
 10
382.770462
 20
111.611368
 30
0.0
 11
382.770462
 21
111.611368
 31
0.0
  0
LINE
  5
45f
100
AcDbEntity
  8
Layer_1
 62
7
100
AcDbLine
 10
382.770462
 20
111.611368
 30
0.0
 11
356.390052
 21
111.611368
 31
0.0
  0
LINE
  5
460
100
AcDbEntity
  8
Layer_1
 62
7
100
AcDbLine
 10
356.390052
 20
111.611368
 30
0.0
 11
356.390052
 21
111.611368
 31
0.0
  0
LINE
  5
461
100
AcDbEntity
  8
Layer_1
 62
7
100
AcDbLine
 10
356.390052
 20
111.611368
 30
0.0
 11
336.713063
 21
111.611368
 31
0.0
  0
LINE
  5
462
100
AcDbEntity
  8
Layer_1
 62
7
100
AcDbLine
 10
336.713063
 20
111.611368
 30
0.0
 11
336.713063
 21
111.611368
 31
0.0
  0
LINE
  5
463
100
AcDbEntity
  8
Layer_1
 62
7
100
AcDbLine
 10
336.713063
 20
111.611368
 30
0.0
 11
310.332663
 21
111.611368
 31
0.0
  0
LINE
  5
464
100
AcDbEntity
  8
Layer_1
 62
7
100
AcDbLine
 10
310.332663
 20
111.611368
 30
0.0
 11
310.332663
 21
111.611368
 31
0.0
  0
LINE
  5
465
100
AcDbEntity
  8
Layer_1
 62
7
100
AcDbLine
 10
310.332663
 20
111.611368
 30
0.0
 11
290.655664
 21
111.611368
 31
0.0
  0
LINE
  5
466
100
AcDbEntity
  8
Layer_1
 62
7
100
AcDbLine
 10
290.655664
 20
111.611368
 30
0.0
 11
290.655664
 21
111.611368
 31
0.0
  0
LINE
  5
467
100
AcDbEntity
  8
Layer_1
 62
7
100
AcDbLine
 10
290.655664
 20
111.611368
 30
0.0
 11
264.275264
 21
111.611368
 31
0.0
  0
LINE
  5
468
100
AcDbEntity
  8
Layer_1
 62
7
100
AcDbLine
 10
264.275264
 20
111.611368
 30
0.0
 11
264.275264
 21
111.611368
 31
0.0
  0
LINE
  5
469
100
AcDbEntity
  8
Layer_1
 62
7
100
AcDbLine
 10
264.275264
 20
111.611368
 30
0.0
 11
244.598265
 21
111.611368
 31
0.0
  0
LINE
  5
46a
100
AcDbEntity
  8
Layer_1
 62
7
100
AcDbLine
 10
244.598265
 20
111.611368
 30
0.0
 11
244.598265
 21
111.611368
 31
0.0
  0
LINE
  5
46b
100
AcDbEntity
  8
Layer_1
 62
7
100
AcDbLine
 10
244.598265
 20
111.611368
 30
0.0
 11
218.379365
 21
111.611368
 31
0.0
  0
LINE
  5
46c
100
AcDbEntity
  8
Layer_1
 62
5
100
AcDbLine
 10
451.398030
 20
424.089271
 30
0.0
 11
478.328833
 21
424.089271
 31
0.0
  0
LINE
  5
46d
100
AcDbEntity
  8
Layer_1
 62
5
100
AcDbLine
 10
478.328833
 20
424.089271
 30
0.0
 11
478.328833
 21
386.858620
 31
0.0
  0
LINE
  5
46e
100
AcDbEntity
  8
Layer_1
 62
5
100
AcDbLine
 10
478.328833
 20
386.858620
 30
0.0
 11
451.398030
 21
386.858620
 31
0.0
  0
LINE
  5
46f
100
AcDbEntity
  8
Layer_1
 62
5
100
AcDbLine
 10
451.398030
 20
386.858620
 30
0.0
 11
451.398030
 21
424.089271
 31
0.0
  0
LINE
  5
470
100
AcDbEntity
  8
Layer_1
 62
5
100
AcDbLine
 10
526.804248
 20
424.089271
 30
0.0
 11
553.735051
 21
424.089271
 31
0.0
  0
LINE
  5
471
100
AcDbEntity
  8
Layer_1
 62
5
100
AcDbLine
 10
553.735051
 20
424.089271
 30
0.0
 11
553.735051
 21
386.858620
 31
0.0
  0
LINE
  5
472
100
AcDbEntity
  8
Layer_1
 62
5
100
AcDbLine
 10
553.735051
 20
386.858620
 30
0.0
 11
526.804248
 21
386.858620
 31
0.0
  0
LINE
  5
473
100
AcDbEntity
  8
Layer_1
 62
5
100
AcDbLine
 10
526.804248
 20
386.858620
 30
0.0
 11
526.804248
 21
424.089271
 31
0.0
  0
LINE
  5
474
100
AcDbEntity
  8
Layer_1
 62
5
100
AcDbLine
 10
549.530138
 20
352.368292
 30
0.0
 11
576.460940
 21
352.368292
 31
0.0
  0
LINE
  5
475
100
AcDbEntity
  8
Layer_1
 62
5
100
AcDbLine
 10
576.460940
 20
352.368292
 30
0.0
 11
576.460940
 21
315.137641
 31
0.0
  0
LINE
  5
476
100
AcDbEntity
  8
Layer_1
 62
5
100
AcDbLine
 10
576.460940
 20
315.137641
 30
0.0
 11
549.530138
 21
315.137641
 31
0.0
  0
LINE
  5
477
100
AcDbEntity
  8
Layer_1
 62
5
100
AcDbLine
 10
549.530138
 20
315.137641
 30
0.0
 11
549.530138
 21
352.368292
 31
0.0
  0
LINE
  5
478
100
AcDbEntity
  8
Layer_1
 62
5
100
AcDbLine
 10
450.878350
 20
352.368292
 30
0.0
 11
477.809153
 21
352.368292
 31
0.0
  0
LINE
  5
479
100
AcDbEntity
  8
Layer_1
 62
5
100
AcDbLine
 10
477.809153
 20
352.368292
 30
0.0
 11
477.809153
 21
315.137641
 31
0.0
  0
LINE
  5
47a
100
AcDbEntity
  8
Layer_1
 62
5
100
AcDbLine
 10
477.809153
 20
315.137641
 30
0.0
 11
450.878350
 21
315.137641
 31
0.0
  0
LINE
  5
47b
100
AcDbEntity
  8
Layer_1
 62
5
100
AcDbLine
 10
450.878350
 20
315.137641
 30
0.0
 11
450.878350
 21
352.368292
 31
0.0
  0
LINE
  5
47c
100
AcDbEntity
  8
Layer_1
 62
5
100
AcDbLine
 10
392.292041
 20
352.368292
 30
0.0
 11
419.222844
 21
352.368292
 31
0.0
  0
LINE
  5
47d
100
AcDbEntity
  8
Layer_1
 62
5
100
AcDbLine
 10
419.222844
 20
352.368292
 30
0.0
 11
419.222844
 21
315.137641
 31
0.0
  0
LINE
  5
47e
100
AcDbEntity
  8
Layer_1
 62
5
100
AcDbLine
 10
419.222844
 20
315.137641
 30
0.0
 11
392.292041
 21
315.137641
 31
0.0
  0
LINE
  5
47f
100
AcDbEntity
  8
Layer_1
 62
5
100
AcDbLine
 10
392.292041
 20
315.137641
 30
0.0
 11
392.292041
 21
352.368292
 31
0.0
  0
LINE
  5
480
100
AcDbEntity
  8
Layer_1
 62
5
100
AcDbLine
 10
42.126346
 20
319.387485
 30
0.0
 11
42.126346
 21
331.487485
 31
0.0
  0
LINE
  5
481
100
AcDbEntity
  8
Layer_1
 62
5
100
AcDbLine
 10
42.126346
 20
331.487485
 30
0.0
 11
53.126346
 21
331.487485
 31
0.0
  0
LINE
  5
482
100
AcDbEntity
  8
Layer_1
 62
5
100
AcDbLine
 10
53.126346
 20
331.487485
 30
0.0
 11
53.126346
 21
319.387485
 31
0.0
  0
LINE
  5
483
100
AcDbEntity
  8
Layer_1
 62
5
100
AcDbLine
 10
53.126346
 20
319.387485
 30
0.0
 11
42.126346
 21
319.387485
 31
0.0
  0
SPLINE
  5
484
100
AcDbEntity
  8
Layer_1
 62
5
100
AcDbSpline
 70
8
 71
3
 72
8
 73
4
 74
0
 40
0
 40
0
 40
0
 40
0
 40
1
 40
1
 40
1
 40
1
 10
47.626340
 20
312.537232
 30
0.0
 10
48.197965
 20
312.537232
 30
0.0
 10
48.726168
 20
312.232274
 30
0.0
 10
49.011981
 20
311.737232
 30
0.0
  0
SPLINE
  5
485
100
AcDbEntity
  8
Layer_1
 62
5
100
AcDbSpline
 70
8
 71
3
 72
8
 73
4
 74
0
 40
0
 40
0
 40
0
 40
0
 40
1
 40
1
 40
1
 40
1
 10
49.011981
 20
311.737232
 30
0.0
 10
49.297793
 20
311.242190
 30
0.0
 10
49.297793
 20
310.632274
 30
0.0
 10
49.011981
 20
310.137232
 30
0.0
  0
SPLINE
  5
486
100
AcDbEntity
  8
Layer_1
 62
5
100
AcDbSpline
 70
8
 71
3
 72
8
 73
4
 74
0
 40
0
 40
0
 40
0
 40
0
 40
1
 40
1
 40
1
 40
1
 10
49.011981
 20
310.137232
 30
0.0
 10
48.726168
 20
309.642190
 30
0.0
 10
48.197965
 20
309.337232
 30
0.0
 10
47.626340
 20
309.337232
 30
0.0
  0
SPLINE
  5
487
100
AcDbEntity
  8
Layer_1
 62
5
100
AcDbSpline
 70
8
 71
3
 72
8
 73
4
 74
0
 40
0
 40
0
 40
0
 40
0
 40
1
 40
1
 40
1
 40
1
 10
47.626340
 20
309.337232
 30
0.0
 10
46.742684
 20
309.337232
 30
0.0
 10
46.026340
 20
310.053577
 30
0.0
 10
46.026340
 20
310.937232
 30
0.0
  0
SPLINE
  5
488
100
AcDbEntity
  8
Layer_1
 62
5
100
AcDbSpline
 70
8
 71
3
 72
8
 73
4
 74
0
 40
0
 40
0
 40
0
 40
0
 40
1
 40
1
 40
1
 40
1
 10
46.026340
 20
310.937232
 30
0.0
 10
46.026340
 20
311.820888
 30
0.0
 10
46.742684
 20
312.537232
 30
0.0
 10
47.626340
 20
312.537232
 30
0.0
  0
LINE
  5
489
100
AcDbEntity
  8
Layer_1
 62
5
100
AcDbLine
 10
47.626340
 20
312.537232
 30
0.0
 11
47.626340
 21
312.537232
 31
0.0
  0
SPLINE
  5
48a
100
AcDbEntity
  8
Layer_1
 62
5
100
AcDbSpline
 70
8
 71
3
 72
8
 73
4
 74
0
 40
0
 40
0
 40
0
 40
0
 40
1
 40
1
 40
1
 40
1
 10
47.626340
 20
341.537722
 30
0.0
 10
48.197965
 20
341.537722
 30
0.0
 10
48.726168
 20
341.232763
 30
0.0
 10
49.011981
 20
340.737722
 30
0.0
  0
SPLINE
  5
48b
100
AcDbEntity
  8
Layer_1
 62
5
100
AcDbSpline
 70
8
 71
3
 72
8
 73
4
 74
0
 40
0
 40
0
 40
0
 40
0
 40
1
 40
1
 40
1
 40
1
 10
49.011981
 20
340.737722
 30
0.0
 10
49.297793
 20
340.242680
 30
0.0
 10
49.297793
 20
339.632763
 30
0.0
 10
49.011981
 20
339.137722
 30
0.0
  0
SPLINE
  5
48c
100
AcDbEntity
  8
Layer_1
 62
5
100
AcDbSpline
 70
8
 71
3
 72
8
 73
4
 74
0
 40
0
 40
0
 40
0
 40
0
 40
1
 40
1
 40
1
 40
1
 10
49.011981
 20
339.137722
 30
0.0
 10
48.726168
 20
338.642680
 30
0.0
 10
48.197965
 20
338.337722
 30
0.0
 10
47.626340
 20
338.337722
 30
0.0
  0
SPLINE
  5
48d
100
AcDbEntity
  8
Layer_1
 62
5
100
AcDbSpline
 70
8
 71
3
 72
8
 73
4
 74
0
 40
0
 40
0
 40
0
 40
0
 40
1
 40
1
 40
1
 40
1
 10
47.626340
 20
338.337722
 30
0.0
 10
47.054715
 20
338.337722
 30
0.0
 10
46.526512
 20
338.642680
 30
0.0
 10
46.240699
 20
339.137722
 30
0.0
  0
SPLINE
  5
48e
100
AcDbEntity
  8
Layer_1
 62
5
100
AcDbSpline
 70
8
 71
3
 72
8
 73
4
 74
0
 40
0
 40
0
 40
0
 40
0
 40
1
 40
1
 40
1
 40
1
 10
46.240699
 20
339.137722
 30
0.0
 10
45.954887
 20
339.632763
 30
0.0
 10
45.954887
 20
340.242680
 30
0.0
 10
46.240699
 20
340.737722
 30
0.0
  0
SPLINE
  5
48f
100
AcDbEntity
  8
Layer_1
 62
5
100
AcDbSpline
 70
8
 71
3
 72
8
 73
4
 74
0
 40
0
 40
0
 40
0
 40
0
 40
1
 40
1
 40
1
 40
1
 10
46.240699
 20
340.737722
 30
0.0
 10
46.526512
 20
341.232763
 30
0.0
 10
47.054715
 20
341.537722
 30
0.0
 10
47.626340
 20
341.537722
 30
0.0
  0
LINE
  5
490
100
AcDbEntity
  8
Layer_1
 62
5
100
AcDbLine
 10
47.626340
 20
341.537722
 30
0.0
 11
47.626340
 21
341.537722
 31
0.0
  0
LINE
  5
491
100
AcDbEntity
  8
Layer_1
 62
6
100
AcDbLine
 10
40.326343
 20
306.137485
 30
0.0
 11
40.326343
 21
344.737483
 31
0.0
  0
LINE
  5
492
100
AcDbEntity
  8
Layer_1
 62
6
100
AcDbLine
 10
40.326343
 20
344.737483
 30
0.0
 11
54.926343
 21
344.737483
 31
0.0
  0
LINE
  5
493
100
AcDbEntity
  8
Layer_1
 62
6
100
AcDbLine
 10
54.926343
 20
344.737483
 30
0.0
 11
54.926343
 21
306.137485
 31
0.0
  0
LINE
  5
494
100
AcDbEntity
  8
Layer_1
 62
6
100
AcDbLine
 10
54.926343
 20
306.137485
 30
0.0
 11
40.326343
 21
306.137485
 31
0.0
  0
ENDSEC
  0
SECTION
  2
OBJECTS
  0
DICTIONARY
  5
C
330
0
100
AcDbDictionary
  3
ACAD_GROUP
350
D
  3
ACAD_MLINESTYLE
350
17
  0
DICTIONARY
  5
D
330
C
100
AcDbDictionary
  0
DICTIONARY
  5
1A
330
C
100
AcDbDictionary
  0
DICTIONARY
  5
17
330
C
100
AcDbDictionary
  3
STANDARD
350
18
  0
DICTIONARY
  5
19
330
C
100
AcDbDictionary
  0
ENDSEC
  0
EOF
