<?xml version="1.0" encoding="UTF-8" standalone="no"?>
<!-- Created with Inkscape (http://www.inkscape.org/) -->

<svg
   xmlns:dc="http://purl.org/dc/elements/1.1/"
   xmlns:cc="http://creativecommons.org/ns#"
   xmlns:rdf="http://www.w3.org/1999/02/22-rdf-syntax-ns#"
   xmlns:svg="http://www.w3.org/2000/svg"
   xmlns="http://www.w3.org/2000/svg"
   xmlns:sodipodi="http://sodipodi.sourceforge.net/DTD/sodipodi-0.dtd"
   xmlns:inkscape="http://www.inkscape.org/namespaces/inkscape"
   width="24in"
   height="18in"
   viewBox="0 0 609.60001 457.20001"
   version="1.1"
   id="svg8"
   inkscape:version="0.92.4 (5da689c313, 2019-01-14)"
   sodipodi:docname="Enclosure.svg">
  <defs
     id="defs2" />
  <sodipodi:namedview
     id="base"
     pagecolor="#ffffff"
     bordercolor="#666666"
     borderopacity="1.0"
     inkscape:pageopacity="0.0"
     inkscape:pageshadow="2"
     inkscape:zoom="0.9899495"
     inkscape:cx="189.8778"
     inkscape:cy="1127.2166"
     inkscape:document-units="mm"
     inkscape:current-layer="layer1"
     showgrid="false"
     inkscape:window-width="1920"
     inkscape:window-height="1137"
     inkscape:window-x="1672"
     inkscape:window-y="-8"
     inkscape:window-maximized="1"
     units="in"
     inkscape:snap-global="false" />
  <metadata
     id="metadata5">
    <rdf:RDF>
      <cc:Work
         rdf:about="">
        <dc:format>image/svg+xml</dc:format>
        <dc:type
           rdf:resource="http://purl.org/dc/dcmitype/StillImage" />
        <dc:title />
      </cc:Work>
    </rdf:RDF>
  </metadata>
  <g
     inkscape:label="Layer 1"
     inkscape:groupmode="layer"
     id="layer1"
     transform="translate(0,160.20002)">
    <g
       id="g477"
       transform="translate(-77.863095,5.6696429)" />
    <g
       id="g455"
       transform="translate(-341.83773,-563.40417)">
      <path
         sodipodi:nodetypes="cccccccccc"
         inkscape:connector-curvature="0"
         d="m 725.26068,410.59814 h 19.54593 20.323 25.73441 20.323 25.7344 20.323 25.7344 20.323 19.5459"
         style="fill:none;stroke:#000000;stroke-width:1"
         inkscape:label="part"
         id="path316" />
      <path
         sodipodi:nodetypes="ccccc"
         inkscape:connector-curvature="0"
         d="m 922.84772,410.59814 v 21.9115 19.677 h 6.35 v 28.2615"
         style="fill:none;stroke:#000000;stroke-width:1"
         inkscape:label="part"
         id="path318" />
      <path
         inkscape:connector-curvature="0"
         d="m 929.19772,480.44814 h -26.2189 v 0 h -19.677 v 0 h -26.3804 v 0 h -19.677 v 0 h -26.3804 v 0 h -19.677 v 0 h -26.38041 v 0 h -19.677 v 0 h -26.2189"
         style="fill:none;stroke:#000000;stroke-width:1"
         inkscape:label="part"
         id="path320" />
      <path
         sodipodi:nodetypes="ccccc"
         inkscape:connector-curvature="0"
         d="m 718.91071,480.44814 v -28.2615 h 6.35 v -19.677 l -3e-5,-21.9115"
         style="fill:none;stroke:#000000;stroke-width:1"
         inkscape:label="part"
         id="path322" />
    </g>
    <path
       id="path364"
       inkscape:label="part"
       style="fill:none;stroke:#000000;stroke-width:1"
       d="m 84.247615,-154.63334 h 26.218895 v 6.35 h 19.677 v -6.35 h 26.3804 v 6.35 h 19.677 v -6.35 h 26.3804 v 6.35 h 19.677 v -6.35 h 26.3804 v 6.35 h 19.677 v -6.35 h 26.21889"
       inkscape:connector-curvature="0" />
    <path
       id="path366"
       inkscape:label="part"
       style="fill:none;stroke:#000000;stroke-width:1"
       d="m 294.5346,-154.63334 v 24.96838 h -6.35 v 19.677 h 6.35 v 25.129871 h -6.35 v 19.677 h 6.35 v 25.129873 h -6.35 v 19.677002 h 6.35 V 4.7556557 h -6.35 V 24.432656 h 6.35 v 25.12987 h -6.35 v 19.677 h 6.35 v 25.12988 h -6.35 v 19.677004 h 6.35 v 25.12987 h -6.35 v 19.677 h 6.35 v 24.96837"
       inkscape:connector-curvature="0" />
    <path
       id="path368"
       inkscape:label="part"
       style="fill:none;stroke:#000000;stroke-width:1"
       d="m 294.5346,183.82165 h -26.21889 v -6.35 h -19.677 v 6.35 h -26.3804 v -6.35 h -19.677 v 6.35 h -26.3804 v -6.35 h -19.677 v 6.35 h -26.3804 v -6.35 h -19.677 v 6.35 H 84.247615"
       inkscape:connector-curvature="0" />
    <path
       id="path370"
       inkscape:label="part"
       style="fill:none;stroke:#000000;stroke-width:1"
       d="m 84.247615,183.82165 v -24.96837 h 6.35 v -19.677 h -6.35 v -25.12987 h 6.35 V 94.369406 h -6.35 v -25.12988 h 6.35 v -19.677 h -6.35 v -25.12987 h 6.35 V 4.7556557 h -6.35 V -20.374214 h 6.35 v -19.677002 h -6.35 v -25.129873 h 6.35 v -19.677 h -6.35 v -25.129871 h 6.35 v -19.677 h -6.35 v -24.96838"
       inkscape:connector-curvature="0" />
    <g
       id="g465"
       transform="translate(-341.67433,-488.63355)">
      <path
         id="path457"
         inkscape:label="part"
         style="fill:none;stroke:#000000;stroke-width:1"
         d="m 725.26068,410.59814 h 19.54593 20.323 25.73441 20.323 25.7344 20.323 25.7344 20.323 19.5459"
         inkscape:connector-curvature="0"
         sodipodi:nodetypes="cccccccccc" />
      <path
         id="path459"
         inkscape:label="part"
         style="fill:none;stroke:#000000;stroke-width:1"
         d="m 922.84772,410.59814 v 21.9115 19.677 h 6.35 v 28.2615"
         inkscape:connector-curvature="0"
         sodipodi:nodetypes="ccccc" />
      <path
         id="path461"
         inkscape:label="part"
         style="fill:none;stroke:#000000;stroke-width:1"
         d="m 929.19772,480.44814 h -26.2189 v 0 h -19.677 v 0 h -26.3804 v 0 h -19.677 v 0 h -26.3804 v 0 h -19.677 v 0 h -26.38041 v 0 h -19.677 v 0 h -26.2189"
         inkscape:connector-curvature="0" />
      <path
         id="path463"
         inkscape:label="part"
         style="fill:none;stroke:#000000;stroke-width:1"
         d="m 718.91071,480.44814 v -28.2615 h 6.35 v -19.677 l -3e-5,-21.9115"
         inkscape:connector-curvature="0"
         sodipodi:nodetypes="ccccc" />
    </g>
    <path
       id="path505"
       style="fill:none;stroke:#000000;stroke-width:1"
       d="m 374.02316,71.114043 v -24.96837 h 6.35 V 26.468678 h -6.35 V 1.338808 h 6.35 l 65.92629,63.425235 v 6.35 h -26.3804 v -6.35 h -19.677 v 6.35 h -26.21889 m 78.62629,-76.125235 v 24.96838 h -6.35 v 19.677 h 6.35 v 25.129875 h -6.35 M 380.37316,1.338808 v -6.35 h 26.3804 v 6.35 h 19.677 v -6.35 h 26.21889"
       inkscape:connector-curvature="0" />
    <path
       id="path497"
       style="fill:none;stroke:#000000;stroke-width:1"
       d="m 380.37316,145.88506 h -6.35 v -25.12987 h 6.35 v -19.677 h -6.35 V 76.109809 m 0,0 h 26.21889 v 6.35 h 19.677 v -6.35 h 26.3804 v 6.35 m 0,0 h 6.35 v 25.129871 h -6.35 v 19.677 h 6.35 v 24.96837 m 0,0 h -26.21889 v -6.35 h -19.677 v 6.35 h -26.3804 v -6.35 l 65.92629,-63.425241"
       inkscape:connector-curvature="0" />
    <path
       id="path563"
       inkscape:label="part"
       style="fill:none;stroke:#ff0000;stroke-width:1"
       d="m 490.24351,63.459911 h 9.8385 v -6.35 h 10.323 v 6.35 h 9.8385"
       inkscape:connector-curvature="0" />
    <path
       id="path565"
       inkscape:label="part"
       style="fill:none;stroke:#ff0000;stroke-width:1"
       d="m 520.24351,63.459911 v 3.8115 h -6.35 v 9.677 h 6.35 v 10.1615"
       inkscape:connector-curvature="0" />
    <path
       id="path567"
       inkscape:label="part"
       style="fill:none;stroke:#ff0000;stroke-width:1"
       d="m 520.24351,87.109911 h -10.1615 v 0 h -9.677 v 0 h -10.1615"
       inkscape:connector-curvature="0" />
    <path
       id="path569"
       inkscape:label="part"
       style="fill:none;stroke:#ff0000;stroke-width:1"
       d="m 490.24351,87.109911 v -10.1615 h 6.35 v -9.677 h -6.35 v -3.8115"
       inkscape:connector-curvature="0" />
    <path
       id="path571"
       inkscape:label="part"
       style="fill:none;stroke:#ff0000;stroke-width:1"
       d="m 462.70365,64.032841 3.48848,-1e-5 v 0 h 10.323 v 0 l 3.4885,1e-5"
       inkscape:connector-curvature="0"
       sodipodi:nodetypes="cccccc" />
    <path
       id="path573"
       inkscape:label="part"
       style="fill:none;stroke:#ff0000;stroke-width:1"
       d="m 480.00363,64.032841 v 3.81149 9.677 h 6.35 v 10.1615"
       inkscape:connector-curvature="0"
       sodipodi:nodetypes="ccccc" />
    <path
       id="path575"
       inkscape:label="part"
       style="fill:none;stroke:#ff0000;stroke-width:1"
       d="m 486.35363,87.682831 h -10.1615 v 0 h -9.677 v 0 h -10.1615"
       inkscape:connector-curvature="0" />
    <path
       id="path577"
       inkscape:label="part"
       style="fill:none;stroke:#ff0000;stroke-width:1"
       d="m 456.35363,87.682831 v -10.1615 h 6.35 v -9.677 l 2e-5,-3.81149"
       inkscape:connector-curvature="0"
       sodipodi:nodetypes="ccccc" />
    <path
       id="path579"
       inkscape:label="part"
       style="fill:none;stroke:#ff0000;stroke-width:1"
       d="m 459.24351,29.284911 h 9.8385 v -6.35 h -9.8385 v 6.35"
       inkscape:connector-curvature="0" />
    <path
       id="path581"
       inkscape:label="part"
       style="fill:none;stroke:#ff0000;stroke-width:1"
       d="m 479.40501,29.284911 h 3.4885 v -6.35 h -3.4885 v 6.35"
       inkscape:connector-curvature="0" />
    <path
       id="path583"
       inkscape:label="part"
       style="fill:none;stroke:#ff0000;stroke-width:1"
       d="m 459.24351,2.4599062 h 9.8385 v -6.3500003 h 10.323 v 6.3500003 h 3.4885"
       inkscape:connector-curvature="0" />
    <path
       id="path585"
       inkscape:label="part"
       style="fill:none;stroke:#ff0000;stroke-width:1"
       d="m 482.89351,2.4599062 v 6.821834 h 6.35 V 19.60474 h -6.35 v 13.010331 h 6.35 v 10.323 h -6.35 v 6.82184"
       inkscape:connector-curvature="0" />
    <path
       id="path587"
       inkscape:label="part"
       style="fill:none;stroke:#ff0000;stroke-width:1"
       d="m 482.89351,49.759911 h -3.4885 v 6.35 h -10.323 v -6.35 h -9.8385"
       inkscape:connector-curvature="0" />
    <path
       id="path589"
       inkscape:label="part"
       style="fill:none;stroke:#ff0000;stroke-width:1"
       d="m 459.24351,49.759911 v -7.14484 0 -9.677 0 -13.656331 0 -9.6769998 0 -7.144834"
       inkscape:connector-curvature="0" />
    <path
       id="path591"
       inkscape:label="part"
       style="fill:none;stroke:#ff0000;stroke-width:1"
       d="m 490.24351,-3.8900941 h 10.1615 v 6.3500003 h 9.677 v -6.3500003 h 10.1615"
       inkscape:connector-curvature="0" />
    <path
       id="path593"
       inkscape:label="part"
       style="fill:none;stroke:#ff0000;stroke-width:1"
       d="M 520.24351,-3.8900941 V 9.6047402 h -6.35 V 19.28174 h 6.35 v 13.656331 h -6.35 v 9.677 h 6.35 v 13.49484"
       inkscape:connector-curvature="0" />
    <path
       id="path595"
       inkscape:label="part"
       style="fill:none;stroke:#ff0000;stroke-width:1"
       d="m 520.24351,56.109911 h -10.1615 v -6.35 h -9.677 v 6.35 h -10.1615"
       inkscape:connector-curvature="0" />
    <path
       id="path597"
       inkscape:label="part"
       style="fill:none;stroke:#ff0000;stroke-width:1"
       d="m 490.24351,56.109911 v -13.49484 h 6.35 v -9.677 h -6.35 V 19.28174 h 6.35 V 9.6047402 h -6.35 V -3.8900941"
       inkscape:connector-curvature="0" />
    <path
       id="path599"
       inkscape:label="part"
       style="fill:none;stroke:#ff0000;stroke-width:1"
       d="m 527.59351,29.284911 h 3.4885 v -6.35 h -3.4885 v 6.35"
       inkscape:connector-curvature="0" />
    <path
       id="path601"
       inkscape:label="part"
       style="fill:none;stroke:#ff0000;stroke-width:1"
       d="m 541.40501,29.284911 h 9.8385 v -6.35 h -9.8385 v 6.35"
       inkscape:connector-curvature="0" />
    <path
       id="path603"
       inkscape:label="part"
       style="fill:none;stroke:#ff0000;stroke-width:1"
       d="m 527.59351,2.4599062 h 3.4885 v -6.3500003 h 10.323 v 6.3500003 h 9.8385"
       inkscape:connector-curvature="0" />
    <path
       id="path605"
       inkscape:label="part"
       style="fill:none;stroke:#ff0000;stroke-width:1"
       d="m 551.24351,2.4599062 v 7.144834 0 9.6769998 0 13.656331 0 9.677 0 7.14484"
       inkscape:connector-curvature="0" />
    <path
       id="path607"
       inkscape:label="part"
       style="fill:none;stroke:#ff0000;stroke-width:1"
       d="m 551.24351,49.759911 h -9.8385 v 6.35 h -10.323 v -6.35 h -3.4885"
       inkscape:connector-curvature="0" />
    <path
       id="path609"
       inkscape:label="part"
       style="fill:none;stroke:#ff0000;stroke-width:1"
       d="m 527.59351,49.759911 v -6.82184 h -6.35 v -10.323 h 6.35 V 19.60474 h -6.35 V 9.2817402 h 6.35 v -6.821834"
       inkscape:connector-curvature="0" />
    <path
       id="path611"
       inkscape:label="part"
       style="fill:none;stroke:#ff0000;stroke-width:1"
       d="m 523.50541,58.659011 h 10.1615 v 0 h 9.677 v 0 h 10.1615"
       inkscape:connector-curvature="0" />
    <path
       id="path613"
       inkscape:label="part"
       style="fill:none;stroke:#ff0000;stroke-width:1"
       d="m 553.50541,58.659011 v 10.1615 h -6.35 v 9.677 h 6.35 v 3.8115"
       inkscape:connector-curvature="0" />
    <path
       id="path615"
       inkscape:label="part"
       style="fill:none;stroke:#ff0000;stroke-width:1"
       d="m 553.50541,82.309011 h -9.8385 v 6.35 h -10.323 v -6.35 h -9.8385"
       inkscape:connector-curvature="0" />
    <path
       id="path617"
       inkscape:label="part"
       style="fill:none;stroke:#ff0000;stroke-width:1"
       d="m 523.50541,82.309011 v -3.8115 h 6.35 v -9.677 h -6.35 v -10.1615"
       inkscape:connector-curvature="0" />
    <g
       aria-label="TEST BOX CUT FIRST"
       style="font-style:normal;font-variant:normal;font-weight:normal;font-stretch:normal;font-size:8.13765717px;line-height:125%;font-family:Arial;-inkscape-font-specification:'Arial, Normal';font-variant-ligatures:normal;font-variant-caps:normal;font-variant-numeric:normal;font-feature-settings:normal;text-align:center;letter-spacing:0px;word-spacing:0px;writing-mode:lr-tb;text-anchor:middle;fill:#ff00ff;fill-opacity:1;stroke:none;stroke-width:0.26458335px;stroke-linecap:butt;stroke-linejoin:miter;stroke-opacity:1"
       id="text1543">
      <path
         d="m 465.26534,97.668594 v -5.13769 h -1.91919 v -0.68741 h 4.61717 v 0.68741 h -1.92713 v 5.13769 z"
         style="fill:#ff00ff;stroke-width:0.26458335px"
         id="path1874" />
      <path
         d="m 468.77391,97.668594 v -5.8251 h 4.21187 v 0.68741 h -3.44102 v 1.784086 h 3.22248 v 0.683436 h -3.22248 v 1.982759 h 3.57612 v 0.687409 z"
         style="fill:#ff00ff;stroke-width:0.26458335px"
         id="path1876" />
      <path
         d="m 473.93146,95.797092 0.72715,-0.06358 q 0.0516,0.437081 0.23841,0.719197 0.19072,0.278143 0.58807,0.452975 0.39735,0.170859 0.89403,0.170859 0.44105,0 0.7788,-0.131124 0.33774,-0.131125 0.50065,-0.357612 0.16689,-0.230461 0.16689,-0.500657 0,-0.274169 -0.15894,-0.476816 -0.15894,-0.20662 -0.5245,-0.345691 -0.23443,-0.09139 -1.03707,-0.282116 -0.80264,-0.1947 -1.12449,-0.365559 -0.41722,-0.218541 -0.62384,-0.540391 -0.20264,-0.325825 -0.20264,-0.727145 0,-0.441054 0.25033,-0.822507 0.25032,-0.385426 0.73111,-0.584099 0.48079,-0.198674 1.06887,-0.198674 0.64767,0 1.14038,0.210594 0.49668,0.20662 0.76291,0.611914 0.26622,0.405293 0.28609,0.91787 l -0.73907,0.05563 q -0.0596,-0.552312 -0.40529,-0.834428 -0.34172,-0.282116 -1.01324,-0.282116 -0.69933,0 -1.02118,0.258275 -0.31787,0.254302 -0.31787,0.615887 0,0.313904 0.22648,0.516551 0.22252,0.202647 1.16026,0.417214 0.94171,0.210593 1.29137,0.369532 0.50861,0.234435 0.75099,0.59602 0.24238,0.357612 0.24238,0.826481 0,0.464895 -0.26622,0.878136 -0.26623,0.409266 -0.76688,0.639727 -0.49669,0.226488 -1.12052,0.226488 -0.79072,0 -1.32714,-0.230461 -0.53244,-0.230461 -0.8384,-0.691383 -0.30198,-0.464895 -0.31788,-1.048995 z"
         style="fill:#ff00ff;stroke-width:0.26458335px"
         id="path1878" />
      <path
         d="m 481.11152,97.668594 v -5.13769 h -1.91919 v -0.68741 h 4.61717 v 0.68741 h -1.92713 v 5.13769 z"
         style="fill:#ff00ff;stroke-width:0.26458335px"
         id="path1880" />
      <path
         d="m 486.68629,97.668594 v -5.8251 h 2.1854 q 0.66755,0 1.06887,0.178806 0.40529,0.174832 0.63178,0.544365 0.23046,0.365559 0.23046,0.766879 0,0.373505 -0.20265,0.703303 -0.20265,0.329798 -0.61191,0.532444 0.52847,0.154965 0.81058,0.528471 0.28609,0.373506 0.28609,0.88211 0,0.409266 -0.17483,0.762905 -0.17086,0.349665 -0.42516,0.540391 -0.2543,0.190727 -0.63973,0.290063 -0.38145,0.09536 -0.93773,0.09536 z m 0.77085,-3.377445 h 1.25959 q 0.51258,0 0.73509,-0.06755 0.29404,-0.08742 0.44105,-0.290063 0.151,-0.202647 0.151,-0.508604 0,-0.290063 -0.13907,-0.508603 -0.13908,-0.222514 -0.39735,-0.301984 -0.25828,-0.08344 -0.88608,-0.08344 h -1.16423 z m 0,2.690036 h 1.45032 q 0.3735,0 0.52449,-0.02781 0.26623,-0.04768 0.44503,-0.158939 0.17881,-0.111257 0.29404,-0.321851 0.11523,-0.214567 0.11523,-0.492709 0,-0.325825 -0.16689,-0.564233 -0.16688,-0.242381 -0.46489,-0.337744 -0.29404,-0.09934 -0.85032,-0.09934 h -1.34701 z"
         style="fill:#ff00ff;stroke-width:0.26458335px"
         id="path1882" />
      <path
         d="m 491.91934,94.83154 q 0,-1.450315 0.7788,-2.268849 0.7788,-0.822507 2.01058,-0.822507 0.80661,0 1.45428,0.385426 0.64768,0.385426 0.98542,1.076809 0.34172,0.68741 0.34172,1.561572 0,0.886083 -0.35761,1.585413 -0.35761,0.69933 -1.01323,1.060915 -0.65563,0.357612 -1.41456,0.357612 -0.82251,0 -1.47018,-0.397347 -0.64767,-0.397346 -0.98145,-1.084756 -0.33377,-0.687409 -0.33377,-1.454288 z m 0.7947,0.01192 q 0,1.052969 0.56423,1.660909 0.5682,0.603967 1.4225,0.603967 0.87019,0 1.43045,-0.611914 0.56423,-0.611914 0.56423,-1.736404 0,-0.711251 -0.24238,-1.239722 -0.23841,-0.532444 -0.70331,-0.822507 -0.46092,-0.294036 -1.03707,-0.294036 -0.81853,0 -1.41058,0.564232 -0.58807,0.560258 -0.58807,1.875475 z"
         style="fill:#ff00ff;stroke-width:0.26458335px"
         id="path1884" />
      <path
         d="m 497.88749,97.668594 2.25295,-3.035727 -1.98673,-2.789373 h 0.91787 l 1.05694,1.494023 q 0.3298,0.464896 0.46887,0.715224 0.1947,-0.317877 0.46092,-0.663569 l 1.17217,-1.545678 h 0.83841 l -2.04634,2.745665 2.20527,3.079435 h -0.95363 l -1.46621,-2.078122 q -0.12317,-0.178806 -0.2543,-0.3894 -0.1947,0.317878 -0.27814,0.437082 l -1.46224,2.03044 z"
         style="fill:#ff00ff;stroke-width:0.26458335px"
         id="path1886" />
      <path
         d="m 510.32841,95.626233 0.77085,0.1947 q -0.24238,0.949658 -0.87416,1.450315 -0.62781,0.496683 -1.53773,0.496683 -0.94171,0 -1.53376,-0.381453 -0.58807,-0.385426 -0.898,-1.11257 -0.30596,-0.727144 -0.30596,-1.561572 0,-0.909923 0.34569,-1.585413 0.34967,-0.679462 0.98939,-1.029127 0.64371,-0.353639 1.41456,-0.353639 0.87416,0 1.47018,0.445029 0.59602,0.445028 0.83045,1.251641 l -0.75893,0.178806 q -0.20264,-0.635754 -0.58807,-0.925817 -0.38543,-0.290063 -0.96953,-0.290063 -0.67151,0 -1.12449,0.32185 -0.449,0.321851 -0.63178,0.866216 -0.18278,0.540391 -0.18278,1.116544 0,0.743038 0.21457,1.299323 0.21854,0.552312 0.67549,0.826481 0.45695,0.274169 0.98939,0.274169 0.64768,0 1.09668,-0.373506 0.449,-0.373506 0.60794,-1.108597 z"
         style="fill:#ff00ff;stroke-width:0.26458335px"
         id="path1888" />
      <path
         d="m 515.87536,91.843494 h 0.77086 v 3.365525 q 0,0.878136 -0.19868,1.394687 -0.19867,0.51655 -0.71919,0.842374 -0.51655,0.321851 -1.35893,0.321851 -0.81853,0 -1.33906,-0.282116 -0.52052,-0.282116 -0.74304,-0.81456 -0.22251,-0.536418 -0.22251,-1.462236 v -3.365525 h 0.77085 v 3.361552 q 0,0.758932 0.13907,1.120517 0.14305,0.357612 0.48477,0.552312 0.34569,0.1947 0.84237,0.1947 0.85032,0 1.21191,-0.385427 0.36158,-0.385426 0.36158,-1.482102 z"
         style="fill:#ff00ff;stroke-width:0.26458335px"
         id="path1890" />
      <path
         d="m 519.41572,97.668594 v -5.13769 h -1.91918 v -0.68741 h 4.61717 v 0.68741 h -1.92714 v 5.13769 z"
         style="fill:#ff00ff;stroke-width:0.26458335px"
         id="path1892" />
      <path
         d="m 525.06202,97.668594 v -5.8251 h 3.92975 v 0.68741 h -3.1589 v 1.803953 h 2.73374 v 0.687409 h -2.73374 v 2.646328 z"
         style="fill:#ff00ff;stroke-width:0.26458335px"
         id="path1894" />
      <path
         d="m 530.12819,97.668594 v -5.8251 h 0.77085 v 5.8251 z"
         style="fill:#ff00ff;stroke-width:0.26458335px"
         id="path1896" />
      <path
         d="m 532.26591,97.668594 v -5.8251 h 2.58275 q 0.7788,0 1.1841,0.158939 0.40529,0.154965 0.64767,0.552311 0.24238,0.397347 0.24238,0.878136 0,0.619861 -0.40132,1.045022 -0.40132,0.42516 -1.23972,0.540391 0.30596,0.147018 0.4649,0.290063 0.33774,0.30993 0.63972,0.774826 l 1.01324,1.585412 h -0.96953 l -0.77085,-1.211907 q -0.33775,-0.524497 -0.55629,-0.80264 -0.21854,-0.278142 -0.39337,-0.389399 -0.17086,-0.111257 -0.34966,-0.154965 -0.13113,-0.02782 -0.42914,-0.02782 h -0.89403 v 2.586726 z m 0.77085,-3.254268 h 1.65694 q 0.52847,0 0.82648,-0.107283 0.29801,-0.111257 0.45297,-0.349665 0.15497,-0.242382 0.15497,-0.524498 0,-0.41324 -0.30199,-0.679462 -0.29801,-0.266223 -0.94568,-0.266223 h -1.84369 z"
         style="fill:#ff00ff;stroke-width:0.26458335px"
         id="path1898" />
      <path
         d="m 537.87247,95.797092 0.72714,-0.06358 q 0.0517,0.437081 0.23841,0.719197 0.19073,0.278143 0.58808,0.452975 0.39734,0.170859 0.89403,0.170859 0.44105,0 0.77879,-0.131124 0.33775,-0.131125 0.50066,-0.357612 0.16689,-0.230461 0.16689,-0.500657 0,-0.274169 -0.15894,-0.476816 -0.15894,-0.20662 -0.5245,-0.345691 -0.23443,-0.09139 -1.03707,-0.282116 -0.80264,-0.1947 -1.12449,-0.365559 -0.41722,-0.218541 -0.62384,-0.540391 -0.20265,-0.325825 -0.20265,-0.727145 0,-0.441054 0.25033,-0.822507 0.25033,-0.385426 0.73112,-0.584099 0.48079,-0.198674 1.06886,-0.198674 0.64768,0 1.14039,0.210594 0.49668,0.20662 0.7629,0.611914 0.26622,0.405293 0.28609,0.91787 l -0.73906,0.05563 q -0.0596,-0.552312 -0.4053,-0.834428 -0.34171,-0.282116 -1.01323,-0.282116 -0.69933,0 -1.02118,0.258275 -0.31788,0.254302 -0.31788,0.615887 0,0.313904 0.22649,0.516551 0.22251,0.202647 1.16025,0.417214 0.94171,0.210593 1.29138,0.369532 0.5086,0.234435 0.75098,0.59602 0.24238,0.357612 0.24238,0.826481 0,0.464895 -0.26622,0.878136 -0.26622,0.409266 -0.76688,0.639727 -0.49668,0.226488 -1.12051,0.226488 -0.79072,0 -1.32714,-0.230461 -0.53245,-0.230461 -0.8384,-0.691383 -0.30199,-0.464895 -0.31788,-1.048995 z"
         style="fill:#ff00ff;stroke-width:0.26458335px"
         id="path1900" />
      <path
         d="m 545.05252,97.668594 v -5.13769 h -1.91918 v -0.68741 h 4.61716 v 0.68741 h -1.92713 v 5.13769 z"
         style="fill:#ff00ff;stroke-width:0.26458335px"
         id="path1902" />
    </g>
    <path
       id="path663"
       style="opacity:1;vector-effect:none;fill:none;fill-opacity:1;stroke:#000000;stroke-width:1;stroke-linecap:butt;stroke-linejoin:miter;stroke-miterlimit:4;stroke-dasharray:none;stroke-dashoffset:0;stroke-opacity:1"
       d="M 7.0476148,-54.52137 H 34.986115 v -6.35 H 7.0476148 v 6.35 m 0,122.34497 H 34.986115 v -6.35 H 7.0476148 v 6.35 m 0,109.64805 v -18.61837 0 -19.677 0 -25.12987 0 -19.677004 0 -25.12988 0 -19.677 0 -25.12987 0 -19.6770003 0 -25.1298697 0 -19.677002 0 -25.129873 0 -19.677 0 -25.129871 0 -19.677 0 -18.61838 m 0,0 H 34.986115 v -6.35 h 20.323 v 6.35 l 15.2385,-1e-5 v 18.29538 l 12.7,1e-5 v 20.323 l -12.7,-1e-5 v 24.483881 h 12.7 v 20.323 h -6.35 v 24.483873 h 6.35 v 20.323002 h -6.35 V 4.4326557 h 6.35 V 24.755656 h -6.35 v 24.48387 h 6.35 v 20.323 h -6.35 v 24.48388 h 6.35 v 20.323004 h -12.7 v 24.48387 h 12.7 v 20.323 l -12.7,-1e-5 v 18.29538 h -15.2385 v 6.35 h -20.323 v -6.35 H 7.0476148"
       inkscape:connector-curvature="0"
       sodipodi:nodetypes="cccccccccccccccccccccccccccccccccccccccccccccccccccccccccccccccccccccccccccccccc" />
    <path
       d="m 371.97418,-54.52137 h -27.93851 v -6.35 h 27.93851 v 6.35 m 0,122.34497 h -27.93851 v -6.35 h 27.93851 v 6.35 m 0,109.64805 v -18.61837 0 -19.677 0 -25.12987 0 -19.677004 0 -25.12988 0 -19.677 0 -25.12987 0 -19.6770003 0 -25.1298697 0 -19.677002 0 -25.129873 0 -19.677 0 -25.129871 0 -19.677 0 -18.61838 m 0,0 h -27.93851 v -6.35 h -20.323 v 6.35 l -15.2385,-1e-5 v 18.29538 l -12.7,1e-5 v 20.323 l 12.7,-1e-5 v 24.483881 h -12.7 v 20.323 h 6.35 v 24.483873 h -6.35 v 20.323002 h 6.35 V 4.4326557 h -6.35 V 24.755656 h 6.35 v 24.48387 h -6.35 v 20.323 h 6.35 v 24.48388 h -6.35 v 20.323004 h 12.7 v 24.48387 h -12.7 v 20.323 l 12.7,-1e-5 v 18.29538 h 15.2385 v 6.35 h 20.323 v -6.35 h 27.93851"
       style="opacity:1;vector-effect:none;fill:none;fill-opacity:1;stroke:#000000;stroke-width:1;stroke-linecap:butt;stroke-linejoin:miter;stroke-miterlimit:4;stroke-dasharray:none;stroke-dashoffset:0;stroke-opacity:1"
       id="path1840"
       inkscape:connector-curvature="0"
       sodipodi:nodetypes="cccccccccccccccccccccccccccccccccccccccccccccccccccccccccccccccccccccccccccccccc" />
    <path
       id="path680"
       style="opacity:1;vector-effect:none;fill:none;fill-opacity:1;stroke:#000000;stroke-width:1;stroke-linecap:butt;stroke-linejoin:miter;stroke-miterlimit:4;stroke-dasharray:none;stroke-dashoffset:0;stroke-opacity:1"
       d="m 6.38452,261.58861 v -28.2615 h 6.35 v -19.677 h -6.35 l -5e-6,-15.5615 h 25.8959 v -12.7 h 20.323 l 1e-6,12.7 h 25.734399 v -12.7 h 20.323 v 6.35 h 25.734395 v -6.35 h 20.323 v 12.7 h 25.7344 v -12.7 h 20.32301 l -1e-5,12.7 h 25.89589 l 1e-5,15.5615 h -6.35001 v 19.677 h 6.35001 v 28.2615 m 0,0 h -26.21889 v 0 h -19.677 v 0 h -26.38041 v 0 h -19.67699 v 0 H 98.337815 v 0 h -19.677 v 0 h -26.3804 v 0 h -19.677 v 0 H 6.38452"
       inkscape:connector-curvature="0"
       sodipodi:nodetypes="cccccccccccccccccccccccccccccccccccccccccccccc" />
    <path
       sodipodi:nodetypes="cccccccccccccccccccccccccccccccccccccccccccccc"
       inkscape:connector-curvature="0"
       d="m 218.37937,185.38861 v 28.2615 h 6.35 v 19.677 h -6.35 v 15.5615 h 25.8959 v 12.7 h 20.323 v -12.7 h 25.7344 v 12.7 h 20.323 v -6.35 h 25.73439 v 6.35 h 20.323 v -12.7 h 25.7344 v 12.7 h 20.32301 l -10e-6,-12.7 h 25.89589 l 10e-6,-15.5615 h -6.35001 v -19.677 h 6.35001 v -28.2615 m 0,0 h -26.21889 v 0 h -19.677 v 0 h -26.38041 v 0 h -19.67699 v 0 h -26.3804 v 0 h -19.677 v 0 h -26.3804 v 0 h -19.677 v 0 h -26.2189"
       style="opacity:1;vector-effect:none;fill:none;fill-opacity:1;stroke:#000000;stroke-width:1;stroke-linecap:butt;stroke-linejoin:miter;stroke-miterlimit:4;stroke-dasharray:none;stroke-dashoffset:0;stroke-opacity:1"
       id="path1872" />
    <rect
       style="color:#000000;clip-rule:nonzero;display:inline;overflow:visible;visibility:visible;opacity:1;isolation:auto;mix-blend-mode:normal;color-interpolation:sRGB;color-interpolation-filters:linearRGB;solid-color:#000000;solid-opacity:1;fill:none;fill-opacity:1;fill-rule:nonzero;stroke:#0000ff;stroke-width:0.26458332;stroke-linecap:butt;stroke-linejoin:miter;stroke-miterlimit:4;stroke-dasharray:none;stroke-dashoffset:0;stroke-opacity:1;color-rendering:auto;image-rendering:auto;shape-rendering:auto;text-rendering:auto;enable-background:accumulate"
       id="rect2688"
       width="26.930803"
       height="37.230652"
       x="451.39804"
       y="-127.0893" />
    <rect
       y="-127.0893"
       x="526.80426"
       height="37.230652"
       width="26.930803"
       id="rect2720"
       style="color:#000000;clip-rule:nonzero;display:inline;overflow:visible;visibility:visible;opacity:1;isolation:auto;mix-blend-mode:normal;color-interpolation:sRGB;color-interpolation-filters:linearRGB;solid-color:#000000;solid-opacity:1;fill:none;fill-opacity:1;fill-rule:nonzero;stroke:#0000ff;stroke-width:0.26458332;stroke-linecap:butt;stroke-linejoin:miter;stroke-miterlimit:4;stroke-dasharray:none;stroke-dashoffset:0;stroke-opacity:1;color-rendering:auto;image-rendering:auto;shape-rendering:auto;text-rendering:auto;enable-background:accumulate" />
    <rect
       y="-55.36832"
       x="549.53015"
       height="37.230652"
       width="26.930803"
       id="rect2720-3"
       style="color:#000000;clip-rule:nonzero;display:inline;overflow:visible;visibility:visible;opacity:1;isolation:auto;mix-blend-mode:normal;color-interpolation:sRGB;color-interpolation-filters:linearRGB;solid-color:#000000;solid-opacity:1;fill:none;fill-opacity:1;fill-rule:nonzero;stroke:#0000ff;stroke-width:0.26458332;stroke-linecap:butt;stroke-linejoin:miter;stroke-miterlimit:4;stroke-dasharray:none;stroke-dashoffset:0;stroke-opacity:1;color-rendering:auto;image-rendering:auto;shape-rendering:auto;text-rendering:auto;enable-background:accumulate" />
    <rect
       style="color:#000000;clip-rule:nonzero;display:inline;overflow:visible;visibility:visible;opacity:1;isolation:auto;mix-blend-mode:normal;color-interpolation:sRGB;color-interpolation-filters:linearRGB;solid-color:#000000;solid-opacity:1;fill:none;fill-opacity:1;fill-rule:nonzero;stroke:#0000ff;stroke-width:0.26458332;stroke-linecap:butt;stroke-linejoin:miter;stroke-miterlimit:4;stroke-dasharray:none;stroke-dashoffset:0;stroke-opacity:1;color-rendering:auto;image-rendering:auto;shape-rendering:auto;text-rendering:auto;enable-background:accumulate;font-variant-east_asian:normal;vector-effect:none"
       id="rect2767"
       width="26.930803"
       height="37.230652"
       x="450.87836"
       y="-55.36832" />
    <rect
       y="-55.36832"
       x="392.29205"
       height="37.230652"
       width="26.930803"
       id="rect2769"
       style="color:#000000;clip-rule:nonzero;display:inline;overflow:visible;visibility:visible;opacity:1;isolation:auto;mix-blend-mode:normal;color-interpolation:sRGB;color-interpolation-filters:linearRGB;solid-color:#000000;solid-opacity:1;fill:none;fill-opacity:1;fill-rule:nonzero;stroke:#0000ff;stroke-width:0.26458332;stroke-linecap:butt;stroke-linejoin:miter;stroke-miterlimit:4;stroke-dasharray:none;stroke-dashoffset:0;stroke-opacity:1;color-rendering:auto;image-rendering:auto;shape-rendering:auto;text-rendering:auto;enable-background:accumulate;font-variant-east_asian:normal;vector-effect:none" />
    <rect
       style="color:#000000;clip-rule:nonzero;display:inline;overflow:visible;visibility:visible;opacity:1;isolation:auto;mix-blend-mode:normal;color-interpolation:sRGB;color-interpolation-filters:linearRGB;solid-color:#000000;solid-opacity:1;vector-effect:none;fill:none;fill-opacity:1;fill-rule:nonzero;stroke:#0000ff;stroke-width:0.26458332;stroke-linecap:butt;stroke-linejoin:miter;stroke-miterlimit:4;stroke-dasharray:none;stroke-dashoffset:0;stroke-opacity:1;color-rendering:auto;image-rendering:auto;shape-rendering:auto;text-rendering:auto;enable-background:accumulate"
       id="rect25915"
       width="12.1"
       height="11"
       x="22.387512"
       y="42.126347"
       transform="rotate(-90)" />
    <g
       id="g25937"
       transform="rotate(-90,-22.813559,127.00581)"
       style="opacity:1;vector-effect:none;fill:none;fill-opacity:1;stroke:#0000ff;stroke-width:0.26458332;stroke-linecap:butt;stroke-linejoin:miter;stroke-miterlimit:4;stroke-dasharray:none;stroke-dashoffset:0;stroke-opacity:1">
      <circle
         r="1.6"
         cy="197.44571"
         cx="118.12951"
         id="path25931"
         style="color:#000000;clip-rule:nonzero;display:inline;overflow:visible;visibility:visible;opacity:1;isolation:auto;mix-blend-mode:normal;color-interpolation:sRGB;color-interpolation-filters:linearRGB;solid-color:#000000;solid-opacity:1;vector-effect:none;fill:none;fill-opacity:1;fill-rule:nonzero;stroke:#0000ff;stroke-width:0.26458332;stroke-linecap:butt;stroke-linejoin:miter;stroke-miterlimit:4;stroke-dasharray:none;stroke-dashoffset:0;stroke-opacity:1;color-rendering:auto;image-rendering:auto;shape-rendering:auto;text-rendering:auto;enable-background:accumulate" />
      <circle
         style="color:#000000;clip-rule:nonzero;display:inline;overflow:visible;visibility:visible;opacity:1;isolation:auto;mix-blend-mode:normal;color-interpolation:sRGB;color-interpolation-filters:linearRGB;solid-color:#000000;solid-opacity:1;vector-effect:none;fill:none;fill-opacity:1;fill-rule:nonzero;stroke:#0000ff;stroke-width:0.26458332;stroke-linecap:butt;stroke-linejoin:miter;stroke-miterlimit:4;stroke-dasharray:none;stroke-dashoffset:0;stroke-opacity:1;color-rendering:auto;image-rendering:auto;shape-rendering:auto;text-rendering:auto;enable-background:accumulate"
         id="circle25933"
         cx="147.13"
         cy="197.44571"
         r="1.6" />
    </g>
    <rect
       style="color:#000000;clip-rule:nonzero;display:inline;overflow:visible;visibility:visible;opacity:1;isolation:auto;mix-blend-mode:normal;color-interpolation:sRGB;color-interpolation-filters:linearRGB;solid-color:#000000;solid-opacity:1;vector-effect:none;fill:none;fill-opacity:1;fill-rule:nonzero;stroke:#ff00ff;stroke-width:0.22766702px;stroke-linecap:butt;stroke-linejoin:miter;stroke-miterlimit:4;stroke-dasharray:none;stroke-dashoffset:0;stroke-opacity:1;color-rendering:auto;image-rendering:auto;shape-rendering:auto;text-rendering:auto;enable-background:accumulate"
       id="rect25939"
       width="38.599998"
       height="14.6"
       x="9.1375122"
       y="40.326344"
       transform="rotate(-90)" />
    <text
       xml:space="preserve"
       style="font-style:normal;font-variant:normal;font-weight:normal;font-stretch:normal;font-size:3.38666677px;line-height:0%;font-family:Tahoma;-inkscape-font-specification:'Tahoma, Normal';text-align:start;letter-spacing:0px;word-spacing:0px;writing-mode:lr-tb;text-anchor:start;display:inline;fill:#00ff00;fill-opacity:1;stroke:#ff00ff;stroke-width:0.26458332"
       x="15.986694"
       y="49.098972"
       id="text1089-5"
       transform="rotate(-90)"><tspan
         sodipodi:role="line"
         id="tspan1087-0"
         x="15.986694"
         y="49.098972"
         style="font-size:2.82222223px;line-height:1.25;fill:#00ff00;stroke:#ff00ff;stroke-width:0.26458332">USB Mounting Plug</tspan></text>
  </g>
  <g
     id="g106"
     inkscape:groupmode="layer"
     inkscape:label="newlayer"
     transform="translate(0,160.20002)" />
  <g
     id="g257"
     inkscape:groupmode="layer"
     inkscape:label="newlayer" />
  <g
     id="g399"
     inkscape:groupmode="layer"
     inkscape:label="newlayer" />
  <g
     id="g623"
     inkscape:groupmode="layer"
     inkscape:label="newlayer" />
</svg>
