  0
SECTION
  2
HEADER
  9
$ACADVER
  1
AC1014
  9
$HANDSEED
  5
FFFF
  9
$MEASUREMENT
 70
     1
  0
ENDSEC
  0
SECTION
  2
TABLES
  0
TABLE
  2
VPORT
  5
8
330
0
100
AcDbSymbolTable
 70
     4
  0
VPORT
  5
2E
330
8
100
AcDbSymbolTableRecord
100
AcDbViewportTableRecord
  2
*ACTIVE
 70
     0
 10
0.0
 20
0.0
 11
1.0
 21
1.0
 12
210.0
 22
148.5
 13
0.0
 23
0.0
 14
10.0
 24
10.0
 15
10.0
 25
10.0
 16
0.0
 26
0.0
 36
1.0
 17
0.0
 27
0.0
 37
0.0
 40
341.0
 41
1.24
 42
50.0
 43
0.0
 44
0.0
 50
0.0
 51
0.0
 71
     0
 72
   100
 73
     1
 74
     3
 75
     0
 76
     0
 77
     0
 78
     0
  0
ENDTAB
  0
TABLE
  2
LTYPE
  5
5
330
0
100
AcDbSymbolTable
 70
     1
  0
LTYPE
  5
14
330
5
100
AcDbSymbolTableRecord
100
AcDbLinetypeTableRecord
  2
BYBLOCK
 70
     0
  3

 72
    65
 73
     0
 40
0.0
  0
LTYPE
  5
15
330
5
100
AcDbSymbolTableRecord
100
AcDbLinetypeTableRecord
  2
BYLAYER
 70
     0
  3

 72
    65
 73
     0
 40
0.0
  0
LTYPE
  5
16
330
5
100
AcDbSymbolTableRecord
100
AcDbLinetypeTableRecord
  2
CONTINUOUS
 70
     0
  3
Solid line
 72
    65
 73
     0
 40
0.0
  0
ENDTAB
  0
TABLE
  2
LAYER
  5
2
100
AcDbSymbolTable
 70
2
  0
LAYER
  5
50
100
AcDbSymbolTableRecord
100
AcDbLayerTableRecord
  2
0
 70
0
  6
CONTINUOUS
  0
LAYER
  5
51
100
AcDbSymbolTableRecord
100
AcDbLayerTableRecord
  2
Layer_1
 70
0
  6
CONTINUOUS
  0
ENDTAB
  0
TABLE
  2
STYLE
  5
3
330
0
100
AcDbSymbolTable
 70
     1
  0
STYLE
  5
11
330
3
100
AcDbSymbolTableRecord
100
AcDbTextStyleTableRecord
  2
STANDARD
 70
     0
 40
0.0
 41
1.0
 50
0.0
 71
     0
 42
2.5
  3
txt
  4

  0
ENDTAB
  0
TABLE
  2
VIEW
  5
6
330
0
100
AcDbSymbolTable
 70
     0
  0
ENDTAB
  0
TABLE
  2
UCS
  5
7
330
0
100
AcDbSymbolTable
 70
     0
  0
ENDTAB
  0
TABLE
  2
APPID
  5
9
330
0
100
AcDbSymbolTable
 70
     2
  0
APPID
  5
12
330
9
100
AcDbSymbolTableRecord
100
AcDbRegAppTableRecord
  2
ACAD
 70
     0
  0
ENDTAB
  0
TABLE
  2
DIMSTYLE
  5
A
330
0
100
AcDbSymbolTable
 70
     1
  0
DIMSTYLE
105
27
330
A
100
AcDbSymbolTableRecord
100
AcDbDimStyleTableRecord
  2
ISO-25
 70
     0
  3

  4

  5

  6

  7

 40
1.0
 41
2.5
 42
0.625
 43
3.75
 44
1.25
 45
0.0
 46
0.0
 47
0.0
 48
0.0
140
2.5
141
2.5
142
0.0
143
0.03937007874016
144
1.0
145
0.0
146
1.0
147
0.625
 71
     0
 72
     0
 73
     0
 74
     0
 75
     0
 76
     0
 77
     1
 78
     8
170
     0
171
     3
172
     1
173
     0
174
     0
175
     0
176
     0
177
     0
178
     0
270
     2
271
     2
272
     2
273
     2
274
     3
340
11
275
     0
280
     0
281
     0
282
     0
283
     0
284
     8
285
     0
286
     0
287
     3
288
     0
  0
ENDTAB
  0
TABLE
  2
BLOCK_RECORD
  5
1
330
0
100
AcDbSymbolTable
 70
     1
  0
BLOCK_RECORD
  5
1F
330
1
100
AcDbSymbolTableRecord
100
AcDbBlockTableRecord
  2
*MODEL_SPACE
  0
BLOCK_RECORD
  5
1B
330
1
100
AcDbSymbolTableRecord
100
AcDbBlockTableRecord
  2
*PAPER_SPACE
  0
ENDTAB
  0
ENDSEC
  0
SECTION
  2
BLOCKS
  0
BLOCK
  5
20
330
1F
100
AcDbEntity
  8
0
100
AcDbBlockBegin
  2
*MODEL_SPACE
 70
     0
 10
0.0
 20
0.0
 30
0.0
  3
*MODEL_SPACE
  1

  0
ENDBLK
  5
21
330
1F
100
AcDbEntity
  8
0
100
AcDbBlockEnd
  0
BLOCK
  5
1C
330
1B
100
AcDbEntity
 67
     1
  8
0
100
AcDbBlockBegin
  2
*PAPER_SPACE
  1

  0
ENDBLK
  5
1D
330
1B
100
AcDbEntity
 67
     1
  8
0
100
AcDbBlockEnd
  0
ENDSEC
  0
SECTION
  2
ENTITIES
  0
LINE
  5
100
100
AcDbEntity
  8
Layer_1
 62
7
100
AcDbLine
 10
61.461502
 20
251.542995
 30
0.0
 11
61.461502
 21
257.892988
 31
0.0
  0
LINE
  5
101
100
AcDbEntity
  8
Layer_1
 62
7
100
AcDbLine
 10
61.461502
 20
129.198021
 30
0.0
 11
61.461502
 21
135.548021
 31
0.0
  0
LINE
  5
102
100
AcDbEntity
  8
Layer_1
 62
7
100
AcDbLine
 10
89.400011
 20
345.304956
 30
0.0
 11
61.461502
 21
345.304956
 31
0.0
  0
LINE
  5
103
100
AcDbEntity
  8
Layer_1
 62
7
100
AcDbLine
 10
61.461502
 20
345.304956
 30
0.0
 11
61.461502
 21
351.654956
 31
0.0
  0
LINE
  5
104
100
AcDbEntity
  8
Layer_1
 62
7
100
AcDbLine
 10
61.461502
 20
351.654956
 30
0.0
 11
41.138499
 21
351.654956
 31
0.0
  0
LINE
  5
105
100
AcDbEntity
  8
Layer_1
 62
7
100
AcDbLine
 10
41.138499
 20
351.654956
 30
0.0
 11
41.138499
 21
345.304956
 31
0.0
  0
LINE
  5
106
100
AcDbEntity
  8
Layer_1
 62
7
100
AcDbLine
 10
41.138499
 20
345.304956
 30
0.0
 11
25.899999
 21
345.304966
 31
0.0
  0
LINE
  5
107
100
AcDbEntity
  8
Layer_1
 62
7
100
AcDbLine
 10
25.899999
 20
345.304966
 30
0.0
 11
25.899999
 21
327.009587
 31
0.0
  0
LINE
  5
108
100
AcDbEntity
  8
Layer_1
 62
7
100
AcDbLine
 10
25.899999
 20
327.009587
 30
0.0
 11
13.199999
 21
327.009577
 31
0.0
  0
LINE
  5
109
100
AcDbEntity
  8
Layer_1
 62
7
100
AcDbLine
 10
13.199999
 20
327.009577
 30
0.0
 11
13.199999
 21
306.686577
 31
0.0
  0
LINE
  5
10a
100
AcDbEntity
  8
Layer_1
 62
7
100
AcDbLine
 10
13.199999
 20
306.686577
 30
0.0
 11
25.899999
 21
306.686587
 31
0.0
  0
LINE
  5
10b
100
AcDbEntity
  8
Layer_1
 62
7
100
AcDbLine
 10
25.899999
 20
306.686587
 30
0.0
 11
25.899999
 21
282.202708
 31
0.0
  0
LINE
  5
10c
100
AcDbEntity
  8
Layer_1
 62
7
100
AcDbLine
 10
25.899999
 20
282.202708
 30
0.0
 11
13.199999
 21
282.202708
 31
0.0
  0
LINE
  5
10d
100
AcDbEntity
  8
Layer_1
 62
7
100
AcDbLine
 10
13.199999
 20
282.202708
 30
0.0
 11
13.199999
 21
261.879709
 31
0.0
  0
LINE
  5
10e
100
AcDbEntity
  8
Layer_1
 62
7
100
AcDbLine
 10
13.199999
 20
261.879709
 30
0.0
 11
19.550000
 21
261.879709
 31
0.0
  0
LINE
  5
10f
100
AcDbEntity
  8
Layer_1
 62
7
100
AcDbLine
 10
19.550000
 20
261.879709
 30
0.0
 11
19.550000
 21
237.395836
 31
0.0
  0
LINE
  5
110
100
AcDbEntity
  8
Layer_1
 62
7
100
AcDbLine
 10
19.550000
 20
237.395836
 30
0.0
 11
13.199999
 21
237.395836
 31
0.0
  0
LINE
  5
111
100
AcDbEntity
  8
Layer_1
 62
7
100
AcDbLine
 10
13.199999
 20
237.395836
 30
0.0
 11
13.199999
 21
217.072827
 31
0.0
  0
LINE
  5
112
100
AcDbEntity
  8
Layer_1
 62
7
100
AcDbLine
 10
13.199999
 20
217.072827
 30
0.0
 11
19.550000
 21
217.072827
 31
0.0
  0
LINE
  5
113
100
AcDbEntity
  8
Layer_1
 62
7
100
AcDbLine
 10
19.550000
 20
217.072827
 30
0.0
 11
19.550000
 21
192.588958
 31
0.0
  0
LINE
  5
114
100
AcDbEntity
  8
Layer_1
 62
7
100
AcDbLine
 10
19.550000
 20
192.588958
 30
0.0
 11
13.199999
 21
192.588958
 31
0.0
  0
LINE
  5
115
100
AcDbEntity
  8
Layer_1
 62
7
100
AcDbLine
 10
13.199999
 20
192.588958
 30
0.0
 11
13.199999
 21
172.265959
 31
0.0
  0
LINE
  5
116
100
AcDbEntity
  8
Layer_1
 62
7
100
AcDbLine
 10
13.199999
 20
172.265959
 30
0.0
 11
19.550000
 21
172.265959
 31
0.0
  0
LINE
  5
117
100
AcDbEntity
  8
Layer_1
 62
7
100
AcDbLine
 10
19.550000
 20
172.265959
 30
0.0
 11
19.550000
 21
147.782090
 31
0.0
  0
LINE
  5
118
100
AcDbEntity
  8
Layer_1
 62
7
100
AcDbLine
 10
19.550000
 20
147.782090
 30
0.0
 11
13.199999
 21
147.782090
 31
0.0
  0
LINE
  5
119
100
AcDbEntity
  8
Layer_1
 62
7
100
AcDbLine
 10
13.199999
 20
147.782090
 30
0.0
 11
13.199999
 21
127.459091
 31
0.0
  0
LINE
  5
11a
100
AcDbEntity
  8
Layer_1
 62
7
100
AcDbLine
 10
13.199999
 20
127.459091
 30
0.0
 11
19.550000
 21
127.459091
 31
0.0
  0
LINE
  5
11b
100
AcDbEntity
  8
Layer_1
 62
7
100
AcDbLine
 10
19.550000
 20
127.459091
 30
0.0
 11
19.550000
 21
102.975212
 31
0.0
  0
LINE
  5
11c
100
AcDbEntity
  8
Layer_1
 62
7
100
AcDbLine
 10
19.550000
 20
102.975212
 30
0.0
 11
13.199999
 21
102.975212
 31
0.0
  0
LINE
  5
11d
100
AcDbEntity
  8
Layer_1
 62
7
100
AcDbLine
 10
13.199999
 20
102.975212
 30
0.0
 11
13.199999
 21
82.652203
 31
0.0
  0
LINE
  5
11e
100
AcDbEntity
  8
Layer_1
 62
7
100
AcDbLine
 10
13.199999
 20
82.652203
 30
0.0
 11
25.899999
 21
82.652203
 31
0.0
  0
LINE
  5
11f
100
AcDbEntity
  8
Layer_1
 62
7
100
AcDbLine
 10
25.899999
 20
82.652203
 30
0.0
 11
25.899999
 21
58.168355
 31
0.0
  0
LINE
  5
120
100
AcDbEntity
  8
Layer_1
 62
7
100
AcDbLine
 10
25.899999
 20
58.168355
 30
0.0
 11
13.199999
 21
58.168355
 31
0.0
  0
LINE
  5
121
100
AcDbEntity
  8
Layer_1
 62
7
100
AcDbLine
 10
13.199999
 20
58.168355
 30
0.0
 11
13.199999
 21
37.845335
 31
0.0
  0
LINE
  5
122
100
AcDbEntity
  8
Layer_1
 62
7
100
AcDbLine
 10
13.199999
 20
37.845335
 30
0.0
 11
25.899999
 21
37.845365
 31
0.0
  0
LINE
  5
123
100
AcDbEntity
  8
Layer_1
 62
7
100
AcDbLine
 10
25.899999
 20
37.845365
 30
0.0
 11
25.899999
 21
19.549986
 31
0.0
  0
LINE
  5
124
100
AcDbEntity
  8
Layer_1
 62
7
100
AcDbLine
 10
25.899999
 20
19.549986
 30
0.0
 11
41.138499
 21
19.549986
 31
0.0
  0
LINE
  5
125
100
AcDbEntity
  8
Layer_1
 62
7
100
AcDbLine
 10
41.138499
 20
19.549986
 30
0.0
 11
41.138499
 21
13.199987
 31
0.0
  0
LINE
  5
126
100
AcDbEntity
  8
Layer_1
 62
7
100
AcDbLine
 10
41.138499
 20
13.199987
 30
0.0
 11
61.461502
 21
13.199987
 31
0.0
  0
LINE
  5
127
100
AcDbEntity
  8
Layer_1
 62
7
100
AcDbLine
 10
61.461502
 20
13.199987
 30
0.0
 11
61.461502
 21
19.549986
 31
0.0
  0
LINE
  5
128
100
AcDbEntity
  8
Layer_1
 62
7
100
AcDbLine
 10
61.461502
 20
19.549986
 30
0.0
 11
89.400011
 21
19.549986
 31
0.0
  0
LINE
  5
129
100
AcDbEntity
  8
Layer_1
 62
7
100
AcDbLine
 10
89.400011
 20
251.542985
 30
0.0
 11
117.338509
 21
251.542985
 31
0.0
  0
LINE
  5
12a
100
AcDbEntity
  8
Layer_1
 62
7
100
AcDbLine
 10
117.338509
 20
251.542985
 30
0.0
 11
117.338509
 21
257.892986
 31
0.0
  0
LINE
  5
12b
100
AcDbEntity
  8
Layer_1
 62
7
100
AcDbLine
 10
117.338509
 20
257.892986
 30
0.0
 11
89.400011
 21
257.892986
 31
0.0
  0
LINE
  5
12c
100
AcDbEntity
  8
Layer_1
 62
7
100
AcDbLine
 10
89.400011
 20
257.892986
 30
0.0
 11
89.400011
 21
251.542985
 31
0.0
  0
LINE
  5
12d
100
AcDbEntity
  8
Layer_1
 62
7
100
AcDbLine
 10
89.400011
 20
129.198021
 30
0.0
 11
117.338509
 21
129.198021
 31
0.0
  0
LINE
  5
12e
100
AcDbEntity
  8
Layer_1
 62
7
100
AcDbLine
 10
117.338509
 20
129.198021
 30
0.0
 11
117.338509
 21
135.548021
 31
0.0
  0
LINE
  5
12f
100
AcDbEntity
  8
Layer_1
 62
7
100
AcDbLine
 10
117.338509
 20
135.548021
 30
0.0
 11
89.400011
 21
135.548021
 31
0.0
  0
LINE
  5
130
100
AcDbEntity
  8
Layer_1
 62
7
100
AcDbLine
 10
89.400011
 20
135.548021
 30
0.0
 11
89.400011
 21
129.198021
 31
0.0
  0
LINE
  5
131
100
AcDbEntity
  8
Layer_1
 62
7
100
AcDbLine
 10
89.400011
 20
19.549986
 30
0.0
 11
89.400011
 21
38.168345
 31
0.0
  0
LINE
  5
132
100
AcDbEntity
  8
Layer_1
 62
7
100
AcDbLine
 10
89.400011
 20
38.168345
 30
0.0
 11
89.400011
 21
38.168345
 31
0.0
  0
LINE
  5
133
100
AcDbEntity
  8
Layer_1
 62
7
100
AcDbLine
 10
89.400011
 20
38.168345
 30
0.0
 11
89.400011
 21
57.845355
 31
0.0
  0
LINE
  5
134
100
AcDbEntity
  8
Layer_1
 62
7
100
AcDbLine
 10
89.400011
 20
57.845355
 30
0.0
 11
89.400011
 21
57.845355
 31
0.0
  0
LINE
  5
135
100
AcDbEntity
  8
Layer_1
 62
7
100
AcDbLine
 10
89.400011
 20
57.845355
 30
0.0
 11
89.400011
 21
82.975213
 31
0.0
  0
LINE
  5
136
100
AcDbEntity
  8
Layer_1
 62
7
100
AcDbLine
 10
89.400011
 20
82.975213
 30
0.0
 11
89.400011
 21
82.975213
 31
0.0
  0
LINE
  5
137
100
AcDbEntity
  8
Layer_1
 62
7
100
AcDbLine
 10
89.400011
 20
82.975213
 30
0.0
 11
89.400011
 21
102.652212
 31
0.0
  0
LINE
  5
138
100
AcDbEntity
  8
Layer_1
 62
7
100
AcDbLine
 10
89.400011
 20
102.652212
 30
0.0
 11
89.400011
 21
102.652212
 31
0.0
  0
LINE
  5
139
100
AcDbEntity
  8
Layer_1
 62
7
100
AcDbLine
 10
89.400011
 20
102.652212
 30
0.0
 11
89.400011
 21
127.782091
 31
0.0
  0
LINE
  5
13a
100
AcDbEntity
  8
Layer_1
 62
7
100
AcDbLine
 10
89.400011
 20
127.782091
 30
0.0
 11
89.400011
 21
127.782091
 31
0.0
  0
LINE
  5
13b
100
AcDbEntity
  8
Layer_1
 62
7
100
AcDbLine
 10
89.400011
 20
127.782091
 30
0.0
 11
89.400011
 21
147.459090
 31
0.0
  0
LINE
  5
13c
100
AcDbEntity
  8
Layer_1
 62
7
100
AcDbLine
 10
89.400011
 20
147.459090
 30
0.0
 11
89.400011
 21
147.459090
 31
0.0
  0
LINE
  5
13d
100
AcDbEntity
  8
Layer_1
 62
7
100
AcDbLine
 10
89.400011
 20
147.459090
 30
0.0
 11
89.400011
 21
172.588959
 31
0.0
  0
LINE
  5
13e
100
AcDbEntity
  8
Layer_1
 62
7
100
AcDbLine
 10
89.400011
 20
172.588959
 30
0.0
 11
89.400011
 21
172.588959
 31
0.0
  0
LINE
  5
13f
100
AcDbEntity
  8
Layer_1
 62
7
100
AcDbLine
 10
89.400011
 20
172.588959
 30
0.0
 11
89.400011
 21
192.265958
 31
0.0
  0
LINE
  5
140
100
AcDbEntity
  8
Layer_1
 62
7
100
AcDbLine
 10
89.400011
 20
192.265958
 30
0.0
 11
89.400011
 21
192.265958
 31
0.0
  0
LINE
  5
141
100
AcDbEntity
  8
Layer_1
 62
7
100
AcDbLine
 10
89.400011
 20
192.265958
 30
0.0
 11
89.400011
 21
217.395827
 31
0.0
  0
LINE
  5
142
100
AcDbEntity
  8
Layer_1
 62
7
100
AcDbLine
 10
89.400011
 20
217.395827
 30
0.0
 11
89.400011
 21
217.395827
 31
0.0
  0
LINE
  5
143
100
AcDbEntity
  8
Layer_1
 62
7
100
AcDbLine
 10
89.400011
 20
217.395827
 30
0.0
 11
89.400011
 21
237.072836
 31
0.0
  0
LINE
  5
144
100
AcDbEntity
  8
Layer_1
 62
7
100
AcDbLine
 10
89.400011
 20
237.072836
 30
0.0
 11
89.400011
 21
237.072836
 31
0.0
  0
LINE
  5
145
100
AcDbEntity
  8
Layer_1
 62
7
100
AcDbLine
 10
89.400011
 20
237.072836
 30
0.0
 11
89.400011
 21
262.202706
 31
0.0
  0
LINE
  5
146
100
AcDbEntity
  8
Layer_1
 62
7
100
AcDbLine
 10
89.400011
 20
262.202706
 30
0.0
 11
89.400011
 21
262.202706
 31
0.0
  0
LINE
  5
147
100
AcDbEntity
  8
Layer_1
 62
7
100
AcDbLine
 10
89.400011
 20
262.202706
 30
0.0
 11
89.400011
 21
281.879705
 31
0.0
  0
LINE
  5
148
100
AcDbEntity
  8
Layer_1
 62
7
100
AcDbLine
 10
89.400011
 20
281.879705
 30
0.0
 11
89.400011
 21
281.879705
 31
0.0
  0
LINE
  5
149
100
AcDbEntity
  8
Layer_1
 62
7
100
AcDbLine
 10
89.400011
 20
281.879705
 30
0.0
 11
89.400011
 21
307.009577
 31
0.0
  0
LINE
  5
14a
100
AcDbEntity
  8
Layer_1
 62
7
100
AcDbLine
 10
89.400011
 20
307.009577
 30
0.0
 11
89.400011
 21
307.009577
 31
0.0
  0
LINE
  5
14b
100
AcDbEntity
  8
Layer_1
 62
7
100
AcDbLine
 10
89.400011
 20
307.009577
 30
0.0
 11
89.400011
 21
326.686577
 31
0.0
  0
LINE
  5
14c
100
AcDbEntity
  8
Layer_1
 62
7
100
AcDbLine
 10
89.400011
 20
326.686577
 30
0.0
 11
89.400011
 21
326.686577
 31
0.0
  0
LINE
  5
14d
100
AcDbEntity
  8
Layer_1
 62
7
100
AcDbLine
 10
89.400011
 20
326.686577
 30
0.0
 11
89.400011
 21
345.304956
 31
0.0
  0
LINE
  5
14e
100
AcDbEntity
  8
Layer_1
 62
7
100
AcDbLine
 10
89.400011
 20
345.304956
 30
0.0
 11
117.338509
 21
345.304956
 31
0.0
  0
LINE
  5
14f
100
AcDbEntity
  8
Layer_1
 62
7
100
AcDbLine
 10
117.338509
 20
345.304956
 30
0.0
 11
117.338509
 21
351.654956
 31
0.0
  0
LINE
  5
150
100
AcDbEntity
  8
Layer_1
 62
7
100
AcDbLine
 10
117.338509
 20
351.654956
 30
0.0
 11
137.661508
 21
351.654956
 31
0.0
  0
LINE
  5
151
100
AcDbEntity
  8
Layer_1
 62
7
100
AcDbLine
 10
137.661508
 20
351.654956
 30
0.0
 11
137.661508
 21
345.304956
 31
0.0
  0
LINE
  5
152
100
AcDbEntity
  8
Layer_1
 62
7
100
AcDbLine
 10
137.661508
 20
345.304956
 30
0.0
 11
152.900008
 21
345.304966
 31
0.0
  0
LINE
  5
153
100
AcDbEntity
  8
Layer_1
 62
7
100
AcDbLine
 10
152.900008
 20
345.304966
 30
0.0
 11
152.900008
 21
327.009587
 31
0.0
  0
LINE
  5
154
100
AcDbEntity
  8
Layer_1
 62
7
100
AcDbLine
 10
152.900008
 20
327.009587
 30
0.0
 11
165.600007
 21
327.009577
 31
0.0
  0
LINE
  5
155
100
AcDbEntity
  8
Layer_1
 62
7
100
AcDbLine
 10
165.600007
 20
327.009577
 30
0.0
 11
165.600007
 21
306.686577
 31
0.0
  0
LINE
  5
156
100
AcDbEntity
  8
Layer_1
 62
7
100
AcDbLine
 10
165.600007
 20
306.686577
 30
0.0
 11
152.900008
 21
306.686587
 31
0.0
  0
LINE
  5
157
100
AcDbEntity
  8
Layer_1
 62
7
100
AcDbLine
 10
152.900008
 20
306.686587
 30
0.0
 11
152.900008
 21
282.202705
 31
0.0
  0
LINE
  5
158
100
AcDbEntity
  8
Layer_1
 62
7
100
AcDbLine
 10
152.900008
 20
282.202705
 30
0.0
 11
165.600007
 21
282.202705
 31
0.0
  0
LINE
  5
159
100
AcDbEntity
  8
Layer_1
 62
7
100
AcDbLine
 10
165.600007
 20
282.202705
 30
0.0
 11
165.600007
 21
261.879706
 31
0.0
  0
LINE
  5
15a
100
AcDbEntity
  8
Layer_1
 62
7
100
AcDbLine
 10
165.600007
 20
261.879706
 30
0.0
 11
159.250007
 21
261.879706
 31
0.0
  0
LINE
  5
15b
100
AcDbEntity
  8
Layer_1
 62
7
100
AcDbLine
 10
159.250007
 20
261.879706
 30
0.0
 11
159.250007
 21
237.395826
 31
0.0
  0
LINE
  5
15c
100
AcDbEntity
  8
Layer_1
 62
7
100
AcDbLine
 10
159.250007
 20
237.395826
 30
0.0
 11
165.600007
 21
237.395826
 31
0.0
  0
LINE
  5
15d
100
AcDbEntity
  8
Layer_1
 62
7
100
AcDbLine
 10
165.600007
 20
237.395826
 30
0.0
 11
165.600007
 21
217.072827
 31
0.0
  0
LINE
  5
15e
100
AcDbEntity
  8
Layer_1
 62
7
100
AcDbLine
 10
165.600007
 20
217.072827
 30
0.0
 11
159.250007
 21
217.072827
 31
0.0
  0
LINE
  5
15f
100
AcDbEntity
  8
Layer_1
 62
7
100
AcDbLine
 10
159.250007
 20
217.072827
 30
0.0
 11
159.250007
 21
192.588958
 31
0.0
  0
LINE
  5
160
100
AcDbEntity
  8
Layer_1
 62
7
100
AcDbLine
 10
159.250007
 20
192.588958
 30
0.0
 11
165.600007
 21
192.588958
 31
0.0
  0
LINE
  5
161
100
AcDbEntity
  8
Layer_1
 62
7
100
AcDbLine
 10
165.600007
 20
192.588958
 30
0.0
 11
165.600007
 21
172.265959
 31
0.0
  0
LINE
  5
162
100
AcDbEntity
  8
Layer_1
 62
7
100
AcDbLine
 10
165.600007
 20
172.265959
 30
0.0
 11
159.250007
 21
172.265959
 31
0.0
  0
LINE
  5
163
100
AcDbEntity
  8
Layer_1
 62
7
100
AcDbLine
 10
159.250007
 20
172.265959
 30
0.0
 11
159.250007
 21
147.782090
 31
0.0
  0
LINE
  5
164
100
AcDbEntity
  8
Layer_1
 62
7
100
AcDbLine
 10
159.250007
 20
147.782090
 30
0.0
 11
165.600007
 21
147.782090
 31
0.0
  0
LINE
  5
165
100
AcDbEntity
  8
Layer_1
 62
7
100
AcDbLine
 10
165.600007
 20
147.782090
 30
0.0
 11
165.600007
 21
127.459091
 31
0.0
  0
LINE
  5
166
100
AcDbEntity
  8
Layer_1
 62
7
100
AcDbLine
 10
165.600007
 20
127.459091
 30
0.0
 11
159.250007
 21
127.459091
 31
0.0
  0
LINE
  5
167
100
AcDbEntity
  8
Layer_1
 62
7
100
AcDbLine
 10
159.250007
 20
127.459091
 30
0.0
 11
159.250007
 21
102.975212
 31
0.0
  0
LINE
  5
168
100
AcDbEntity
  8
Layer_1
 62
7
100
AcDbLine
 10
159.250007
 20
102.975212
 30
0.0
 11
165.600007
 21
102.975212
 31
0.0
  0
LINE
  5
169
100
AcDbEntity
  8
Layer_1
 62
7
100
AcDbLine
 10
165.600007
 20
102.975212
 30
0.0
 11
165.600007
 21
82.652203
 31
0.0
  0
LINE
  5
16a
100
AcDbEntity
  8
Layer_1
 62
7
100
AcDbLine
 10
165.600007
 20
82.652203
 30
0.0
 11
152.900008
 21
82.652203
 31
0.0
  0
LINE
  5
16b
100
AcDbEntity
  8
Layer_1
 62
7
100
AcDbLine
 10
152.900008
 20
82.652203
 30
0.0
 11
152.900008
 21
58.168355
 31
0.0
  0
LINE
  5
16c
100
AcDbEntity
  8
Layer_1
 62
7
100
AcDbLine
 10
152.900008
 20
58.168355
 30
0.0
 11
165.600007
 21
58.168355
 31
0.0
  0
LINE
  5
16d
100
AcDbEntity
  8
Layer_1
 62
7
100
AcDbLine
 10
165.600007
 20
58.168355
 30
0.0
 11
165.600007
 21
37.845335
 31
0.0
  0
LINE
  5
16e
100
AcDbEntity
  8
Layer_1
 62
7
100
AcDbLine
 10
165.600007
 20
37.845335
 30
0.0
 11
152.900008
 21
37.845365
 31
0.0
  0
LINE
  5
16f
100
AcDbEntity
  8
Layer_1
 62
7
100
AcDbLine
 10
152.900008
 20
37.845365
 30
0.0
 11
152.900008
 21
19.549986
 31
0.0
  0
LINE
  5
170
100
AcDbEntity
  8
Layer_1
 62
7
100
AcDbLine
 10
152.900008
 20
19.549986
 30
0.0
 11
137.661508
 21
19.549986
 31
0.0
  0
LINE
  5
171
100
AcDbEntity
  8
Layer_1
 62
7
100
AcDbLine
 10
137.661508
 20
19.549986
 30
0.0
 11
137.661508
 21
13.199987
 31
0.0
  0
LINE
  5
172
100
AcDbEntity
  8
Layer_1
 62
7
100
AcDbLine
 10
137.661508
 20
13.199987
 30
0.0
 11
117.338509
 21
13.199987
 31
0.0
  0
LINE
  5
173
100
AcDbEntity
  8
Layer_1
 62
7
100
AcDbLine
 10
117.338509
 20
13.199987
 30
0.0
 11
117.338509
 21
19.549986
 31
0.0
  0
LINE
  5
174
100
AcDbEntity
  8
Layer_1
 62
7
100
AcDbLine
 10
117.338509
 20
19.549986
 30
0.0
 11
89.400011
 21
19.549986
 31
0.0
  0
LINE
  5
175
100
AcDbEntity
  8
Layer_1
 62
7
100
AcDbLine
 10
61.461502
 20
257.892990
 30
0.0
 11
89.400011
 21
257.892987
 31
0.0
  0
LINE
  5
176
100
AcDbEntity
  8
Layer_1
 62
7
100
AcDbLine
 10
61.461502
 20
251.542995
 30
0.0
 11
89.400011
 21
251.542985
 31
0.0
  0
LINE
  5
177
100
AcDbEntity
  8
Layer_1
 62
7
100
AcDbLine
 10
61.461502
 20
135.548021
 30
0.0
 11
89.400011
 21
135.548021
 31
0.0
  0
LINE
  5
178
100
AcDbEntity
  8
Layer_1
 62
7
100
AcDbLine
 10
61.461502
 20
129.198021
 30
0.0
 11
89.400011
 21
129.198021
 31
0.0
  0
ENDSEC
  0
SECTION
  2
OBJECTS
  0
DICTIONARY
  5
C
330
0
100
AcDbDictionary
  3
ACAD_GROUP
350
D
  3
ACAD_MLINESTYLE
350
17
  0
DICTIONARY
  5
D
330
C
100
AcDbDictionary
  0
DICTIONARY
  5
1A
330
C
100
AcDbDictionary
  0
DICTIONARY
  5
17
330
C
100
AcDbDictionary
  3
STANDARD
350
18
  0
DICTIONARY
  5
19
330
C
100
AcDbDictionary
  0
ENDSEC
  0
EOF
