  0
SECTION
  2
HEADER
  9
$ACADVER
  1
AC1014
  9
$HANDSEED
  5
FFFF
  9
$MEASUREMENT
 70
     1
  0
ENDSEC
  0
SECTION
  2
TABLES
  0
TABLE
  2
VPORT
  5
8
330
0
100
AcDbSymbolTable
 70
     4
  0
VPORT
  5
2E
330
8
100
AcDbSymbolTableRecord
100
AcDbViewportTableRecord
  2
*ACTIVE
 70
     0
 10
0.0
 20
0.0
 11
1.0
 21
1.0
 12
210.0
 22
148.5
 13
0.0
 23
0.0
 14
10.0
 24
10.0
 15
10.0
 25
10.0
 16
0.0
 26
0.0
 36
1.0
 17
0.0
 27
0.0
 37
0.0
 40
341.0
 41
1.24
 42
50.0
 43
0.0
 44
0.0
 50
0.0
 51
0.0
 71
     0
 72
   100
 73
     1
 74
     3
 75
     0
 76
     0
 77
     0
 78
     0
  0
ENDTAB
  0
TABLE
  2
LTYPE
  5
5
330
0
100
AcDbSymbolTable
 70
     1
  0
LTYPE
  5
14
330
5
100
AcDbSymbolTableRecord
100
AcDbLinetypeTableRecord
  2
BYBLOCK
 70
     0
  3

 72
    65
 73
     0
 40
0.0
  0
LTYPE
  5
15
330
5
100
AcDbSymbolTableRecord
100
AcDbLinetypeTableRecord
  2
BYLAYER
 70
     0
  3

 72
    65
 73
     0
 40
0.0
  0
LTYPE
  5
16
330
5
100
AcDbSymbolTableRecord
100
AcDbLinetypeTableRecord
  2
CONTINUOUS
 70
     0
  3
Solid line
 72
    65
 73
     0
 40
0.0
  0
ENDTAB
  0
TABLE
  2
LAYER
  5
2
100
AcDbSymbolTable
 70
3
  0
LAYER
  5
50
100
AcDbSymbolTableRecord
100
AcDbLayerTableRecord
  2
0
 70
0
  6
CONTINUOUS
  0
LAYER
  5
51
100
AcDbSymbolTableRecord
100
AcDbLayerTableRecord
  2
Layer_1
 70
0
  6
CONTINUOUS
  0
LAYER
  5
52
100
AcDbSymbolTableRecord
100
AcDbLayerTableRecord
  2
newlayer
 70
0
  6
CONTINUOUS
  0
ENDTAB
  0
TABLE
  2
STYLE
  5
3
330
0
100
AcDbSymbolTable
 70
     1
  0
STYLE
  5
11
330
3
100
AcDbSymbolTableRecord
100
AcDbTextStyleTableRecord
  2
STANDARD
 70
     0
 40
0.0
 41
1.0
 50
0.0
 71
     0
 42
2.5
  3
txt
  4

  0
ENDTAB
  0
TABLE
  2
VIEW
  5
6
330
0
100
AcDbSymbolTable
 70
     0
  0
ENDTAB
  0
TABLE
  2
UCS
  5
7
330
0
100
AcDbSymbolTable
 70
     0
  0
ENDTAB
  0
TABLE
  2
APPID
  5
9
330
0
100
AcDbSymbolTable
 70
     2
  0
APPID
  5
12
330
9
100
AcDbSymbolTableRecord
100
AcDbRegAppTableRecord
  2
ACAD
 70
     0
  0
ENDTAB
  0
TABLE
  2
DIMSTYLE
  5
A
330
0
100
AcDbSymbolTable
 70
     1
  0
DIMSTYLE
105
27
330
A
100
AcDbSymbolTableRecord
100
AcDbDimStyleTableRecord
  2
ISO-25
 70
     0
  3

  4

  5

  6

  7

 40
1.0
 41
2.5
 42
0.625
 43
3.75
 44
1.25
 45
0.0
 46
0.0
 47
0.0
 48
0.0
140
2.5
141
2.5
142
0.0
143
0.03937007874016
144
1.0
145
0.0
146
1.0
147
0.625
 71
     0
 72
     0
 73
     0
 74
     0
 75
     0
 76
     0
 77
     1
 78
     8
170
     0
171
     3
172
     1
173
     0
174
     0
175
     0
176
     0
177
     0
178
     0
270
     2
271
     2
272
     2
273
     2
274
     3
340
11
275
     0
280
     0
281
     0
282
     0
283
     0
284
     8
285
     0
286
     0
287
     3
288
     0
  0
ENDTAB
  0
TABLE
  2
BLOCK_RECORD
  5
1
330
0
100
AcDbSymbolTable
 70
     1
  0
BLOCK_RECORD
  5
1F
330
1
100
AcDbSymbolTableRecord
100
AcDbBlockTableRecord
  2
*MODEL_SPACE
  0
BLOCK_RECORD
  5
1B
330
1
100
AcDbSymbolTableRecord
100
AcDbBlockTableRecord
  2
*PAPER_SPACE
  0
ENDTAB
  0
ENDSEC
  0
SECTION
  2
BLOCKS
  0
BLOCK
  5
20
330
1F
100
AcDbEntity
  8
0
100
AcDbBlockBegin
  2
*MODEL_SPACE
 70
     0
 10
0.0
 20
0.0
 30
0.0
  3
*MODEL_SPACE
  1

  0
ENDBLK
  5
21
330
1F
100
AcDbEntity
  8
0
100
AcDbBlockEnd
  0
BLOCK
  5
1C
330
1B
100
AcDbEntity
 67
     1
  8
0
100
AcDbBlockBegin
  2
*PAPER_SPACE
  1

  0
ENDBLK
  5
1D
330
1B
100
AcDbEntity
 67
     1
  8
0
100
AcDbBlockEnd
  0
ENDSEC
  0
SECTION
  2
ENTITIES
  0
LINE
  5
100
100
AcDbEntity
  8
Layer_1
 62
5
100
AcDbLine
 10
48.568539
 20
56.685796
 30
0.0
 11
52.268539
 21
56.685796
 31
0.0
  0
LINE
  5
101
100
AcDbEntity
  8
Layer_1
 62
5
100
AcDbLine
 10
52.268539
 20
56.685796
 30
0.0
 11
52.268539
 21
54.485796
 31
0.0
  0
LINE
  5
102
100
AcDbEntity
  8
Layer_1
 62
5
100
AcDbLine
 10
52.268539
 20
54.485796
 30
0.0
 11
48.568539
 21
54.485796
 31
0.0
  0
LINE
  5
103
100
AcDbEntity
  8
Layer_1
 62
5
100
AcDbLine
 10
48.568539
 20
54.485796
 30
0.0
 11
48.568539
 21
56.685796
 31
0.0
  0
LINE
  5
104
100
AcDbEntity
  8
Layer_1
 62
5
100
AcDbLine
 10
43.417038
 20
36.765176
 30
0.0
 11
57.420014
 21
36.765176
 31
0.0
  0
LINE
  5
105
100
AcDbEntity
  8
Layer_1
 62
5
100
AcDbLine
 10
57.420014
 20
36.765176
 30
0.0
 11
57.420014
 21
23.681843
 31
0.0
  0
LINE
  5
106
100
AcDbEntity
  8
Layer_1
 62
5
100
AcDbLine
 10
57.420014
 20
23.681843
 30
0.0
 11
43.417038
 21
23.681843
 31
0.0
  0
LINE
  5
107
100
AcDbEntity
  8
Layer_1
 62
5
100
AcDbLine
 10
43.417038
 20
23.681843
 30
0.0
 11
43.417038
 21
36.765176
 31
0.0
  0
LINE
  5
108
100
AcDbEntity
  8
Layer_1
 62
1
100
AcDbLine
 10
64.936775
 20
66.178806
 30
0.0
 11
64.936775
 21
11.976806
 31
0.0
  0
LINE
  5
109
100
AcDbEntity
  8
Layer_1
 62
1
100
AcDbLine
 10
64.936775
 20
11.976806
 30
0.0
 11
35.900272
 21
11.976806
 31
0.0
  0
LINE
  5
10a
100
AcDbEntity
  8
Layer_1
 62
1
100
AcDbLine
 10
35.900272
 20
11.976806
 30
0.0
 11
35.900272
 21
66.178806
 31
0.0
  0
LINE
  5
10b
100
AcDbEntity
  8
Layer_1
 62
1
100
AcDbLine
 10
35.900272
 20
66.178806
 30
0.0
 11
64.936775
 21
66.178806
 31
0.0
  0
SPLINE
  5
10c
100
AcDbEntity
  8
Layer_1
 62
1
100
AcDbSpline
 70
8
 71
3
 72
8
 73
4
 74
0
 40
0
 40
0
 40
0
 40
0
 40
1
 40
1
 40
1
 40
1
 10
32.277710
 20
1.352006
 30
0.0
 10
31.884717
 20
1.352006
 30
0.0
 10
31.521578
 20
1.561664
 30
0.0
 10
31.325082
 20
1.902005
 30
0.0
  0
SPLINE
  5
10d
100
AcDbEntity
  8
Layer_1
 62
1
100
AcDbSpline
 70
8
 71
3
 72
8
 73
4
 74
0
 40
0
 40
0
 40
0
 40
0
 40
1
 40
1
 40
1
 40
1
 10
31.325082
 20
1.902005
 30
0.0
 10
31.128586
 20
2.242347
 30
0.0
 10
31.128586
 20
2.661664
 30
0.0
 10
31.325082
 20
3.002005
 30
0.0
  0
SPLINE
  5
10e
100
AcDbEntity
  8
Layer_1
 62
1
100
AcDbSpline
 70
8
 71
3
 72
8
 73
4
 74
0
 40
0
 40
0
 40
0
 40
0
 40
1
 40
1
 40
1
 40
1
 10
31.325082
 20
3.002005
 30
0.0
 10
31.521578
 20
3.342347
 30
0.0
 10
31.884717
 20
3.552005
 30
0.0
 10
32.277710
 20
3.552005
 30
0.0
  0
SPLINE
  5
10f
100
AcDbEntity
  8
Layer_1
 62
1
100
AcDbSpline
 70
8
 71
3
 72
8
 73
4
 74
0
 40
0
 40
0
 40
0
 40
0
 40
1
 40
1
 40
1
 40
1
 10
32.277710
 20
3.552005
 30
0.0
 10
32.670702
 20
3.552005
 30
0.0
 10
33.033841
 20
3.342347
 30
0.0
 10
33.230337
 20
3.002005
 30
0.0
  0
SPLINE
  5
110
100
AcDbEntity
  8
Layer_1
 62
1
100
AcDbSpline
 70
8
 71
3
 72
8
 73
4
 74
0
 40
0
 40
0
 40
0
 40
0
 40
1
 40
1
 40
1
 40
1
 10
33.230337
 20
3.002005
 30
0.0
 10
33.426834
 20
2.661664
 30
0.0
 10
33.426834
 20
2.242347
 30
0.0
 10
33.230337
 20
1.902005
 30
0.0
  0
SPLINE
  5
111
100
AcDbEntity
  8
Layer_1
 62
1
100
AcDbSpline
 70
8
 71
3
 72
8
 73
4
 74
0
 40
0
 40
0
 40
0
 40
0
 40
1
 40
1
 40
1
 40
1
 10
33.230337
 20
1.902005
 30
0.0
 10
33.033841
 20
1.561664
 30
0.0
 10
32.670702
 20
1.352006
 30
0.0
 10
32.277710
 20
1.352006
 30
0.0
  0
LINE
  5
112
100
AcDbEntity
  8
Layer_1
 62
1
100
AcDbLine
 10
32.277710
 20
1.352006
 30
0.0
 11
32.277710
 21
1.352006
 31
0.0
  0
SPLINE
  5
113
100
AcDbEntity
  8
Layer_1
 62
1
100
AcDbSpline
 70
8
 71
3
 72
8
 73
4
 74
0
 40
0
 40
0
 40
0
 40
0
 40
1
 40
1
 40
1
 40
1
 10
2.021934
 20
1.352006
 30
0.0
 10
1.628942
 20
1.352006
 30
0.0
 10
1.265802
 20
1.561664
 30
0.0
 10
1.069306
 20
1.902005
 30
0.0
  0
SPLINE
  5
114
100
AcDbEntity
  8
Layer_1
 62
1
100
AcDbSpline
 70
8
 71
3
 72
8
 73
4
 74
0
 40
0
 40
0
 40
0
 40
0
 40
1
 40
1
 40
1
 40
1
 10
1.069306
 20
1.902005
 30
0.0
 10
0.872810
 20
2.242347
 30
0.0
 10
0.872810
 20
2.661664
 30
0.0
 10
1.069306
 20
3.002005
 30
0.0
  0
SPLINE
  5
115
100
AcDbEntity
  8
Layer_1
 62
1
100
AcDbSpline
 70
8
 71
3
 72
8
 73
4
 74
0
 40
0
 40
0
 40
0
 40
0
 40
1
 40
1
 40
1
 40
1
 10
1.069306
 20
3.002005
 30
0.0
 10
1.265802
 20
3.342347
 30
0.0
 10
1.628942
 20
3.552005
 30
0.0
 10
2.021934
 20
3.552005
 30
0.0
  0
SPLINE
  5
116
100
AcDbEntity
  8
Layer_1
 62
1
100
AcDbSpline
 70
8
 71
3
 72
8
 73
4
 74
0
 40
0
 40
0
 40
0
 40
0
 40
1
 40
1
 40
1
 40
1
 10
2.021934
 20
3.552005
 30
0.0
 10
2.414926
 20
3.552005
 30
0.0
 10
2.778066
 20
3.342347
 30
0.0
 10
2.974562
 20
3.002005
 30
0.0
  0
SPLINE
  5
117
100
AcDbEntity
  8
Layer_1
 62
1
100
AcDbSpline
 70
8
 71
3
 72
8
 73
4
 74
0
 40
0
 40
0
 40
0
 40
0
 40
1
 40
1
 40
1
 40
1
 10
2.974562
 20
3.002005
 30
0.0
 10
3.171058
 20
2.661664
 30
0.0
 10
3.171058
 20
2.242347
 30
0.0
 10
2.974562
 20
1.902005
 30
0.0
  0
SPLINE
  5
118
100
AcDbEntity
  8
Layer_1
 62
1
100
AcDbSpline
 70
8
 71
3
 72
8
 73
4
 74
0
 40
0
 40
0
 40
0
 40
0
 40
1
 40
1
 40
1
 40
1
 10
2.974562
 20
1.902005
 30
0.0
 10
2.778066
 20
1.561664
 30
0.0
 10
2.414926
 20
1.352006
 30
0.0
 10
2.021934
 20
1.352006
 30
0.0
  0
LINE
  5
119
100
AcDbEntity
  8
Layer_1
 62
1
100
AcDbLine
 10
2.021934
 20
1.352006
 30
0.0
 11
2.021934
 21
1.352006
 31
0.0
  0
SPLINE
  5
11a
100
AcDbEntity
  8
Layer_1
 62
1
100
AcDbSpline
 70
8
 71
3
 72
8
 73
4
 74
0
 40
0
 40
0
 40
0
 40
0
 40
1
 40
1
 40
1
 40
1
 10
32.277710
 20
62.920292
 30
0.0
 10
31.884717
 20
62.920292
 30
0.0
 10
31.521578
 20
63.129951
 30
0.0
 10
31.325082
 20
63.470292
 30
0.0
  0
SPLINE
  5
11b
100
AcDbEntity
  8
Layer_1
 62
1
100
AcDbSpline
 70
8
 71
3
 72
8
 73
4
 74
0
 40
0
 40
0
 40
0
 40
0
 40
1
 40
1
 40
1
 40
1
 10
31.325082
 20
63.470292
 30
0.0
 10
31.128586
 20
63.810634
 30
0.0
 10
31.128586
 20
64.229951
 30
0.0
 10
31.325082
 20
64.570292
 30
0.0
  0
SPLINE
  5
11c
100
AcDbEntity
  8
Layer_1
 62
1
100
AcDbSpline
 70
8
 71
3
 72
8
 73
4
 74
0
 40
0
 40
0
 40
0
 40
0
 40
1
 40
1
 40
1
 40
1
 10
31.325082
 20
64.570292
 30
0.0
 10
31.521578
 20
64.910634
 30
0.0
 10
31.884717
 20
65.120292
 30
0.0
 10
32.277710
 20
65.120292
 30
0.0
  0
SPLINE
  5
11d
100
AcDbEntity
  8
Layer_1
 62
1
100
AcDbSpline
 70
8
 71
3
 72
8
 73
4
 74
0
 40
0
 40
0
 40
0
 40
0
 40
1
 40
1
 40
1
 40
1
 10
32.277710
 20
65.120292
 30
0.0
 10
32.670702
 20
65.120292
 30
0.0
 10
33.033841
 20
64.910634
 30
0.0
 10
33.230337
 20
64.570292
 30
0.0
  0
SPLINE
  5
11e
100
AcDbEntity
  8
Layer_1
 62
1
100
AcDbSpline
 70
8
 71
3
 72
8
 73
4
 74
0
 40
0
 40
0
 40
0
 40
0
 40
1
 40
1
 40
1
 40
1
 10
33.230337
 20
64.570292
 30
0.0
 10
33.426834
 20
64.229951
 30
0.0
 10
33.426834
 20
63.810634
 30
0.0
 10
33.230337
 20
63.470292
 30
0.0
  0
SPLINE
  5
11f
100
AcDbEntity
  8
Layer_1
 62
1
100
AcDbSpline
 70
8
 71
3
 72
8
 73
4
 74
0
 40
0
 40
0
 40
0
 40
0
 40
1
 40
1
 40
1
 40
1
 10
33.230337
 20
63.470292
 30
0.0
 10
33.033841
 20
63.129951
 30
0.0
 10
32.670702
 20
62.920292
 30
0.0
 10
32.277710
 20
62.920292
 30
0.0
  0
LINE
  5
120
100
AcDbEntity
  8
Layer_1
 62
1
100
AcDbLine
 10
32.277710
 20
62.920292
 30
0.0
 11
32.277710
 21
62.920292
 31
0.0
  0
SPLINE
  5
121
100
AcDbEntity
  8
Layer_1
 62
1
100
AcDbSpline
 70
8
 71
3
 72
8
 73
4
 74
0
 40
0
 40
0
 40
0
 40
0
 40
1
 40
1
 40
1
 40
1
 10
2.021934
 20
62.920292
 30
0.0
 10
1.628942
 20
62.920292
 30
0.0
 10
1.265802
 20
63.129951
 30
0.0
 10
1.069306
 20
63.470292
 30
0.0
  0
SPLINE
  5
122
100
AcDbEntity
  8
Layer_1
 62
1
100
AcDbSpline
 70
8
 71
3
 72
8
 73
4
 74
0
 40
0
 40
0
 40
0
 40
0
 40
1
 40
1
 40
1
 40
1
 10
1.069306
 20
63.470292
 30
0.0
 10
0.872810
 20
63.810634
 30
0.0
 10
0.872810
 20
64.229951
 30
0.0
 10
1.069306
 20
64.570292
 30
0.0
  0
SPLINE
  5
123
100
AcDbEntity
  8
Layer_1
 62
1
100
AcDbSpline
 70
8
 71
3
 72
8
 73
4
 74
0
 40
0
 40
0
 40
0
 40
0
 40
1
 40
1
 40
1
 40
1
 10
1.069306
 20
64.570292
 30
0.0
 10
1.265802
 20
64.910634
 30
0.0
 10
1.628942
 20
65.120292
 30
0.0
 10
2.021934
 20
65.120292
 30
0.0
  0
SPLINE
  5
124
100
AcDbEntity
  8
Layer_1
 62
1
100
AcDbSpline
 70
8
 71
3
 72
8
 73
4
 74
0
 40
0
 40
0
 40
0
 40
0
 40
1
 40
1
 40
1
 40
1
 10
2.021934
 20
65.120292
 30
0.0
 10
2.414926
 20
65.120292
 30
0.0
 10
2.778066
 20
64.910634
 30
0.0
 10
2.974562
 20
64.570292
 30
0.0
  0
SPLINE
  5
125
100
AcDbEntity
  8
Layer_1
 62
1
100
AcDbSpline
 70
8
 71
3
 72
8
 73
4
 74
0
 40
0
 40
0
 40
0
 40
0
 40
1
 40
1
 40
1
 40
1
 10
2.974562
 20
64.570292
 30
0.0
 10
3.171058
 20
64.229951
 30
0.0
 10
3.171058
 20
63.810634
 30
0.0
 10
2.974562
 20
63.470292
 30
0.0
  0
SPLINE
  5
126
100
AcDbEntity
  8
Layer_1
 62
1
100
AcDbSpline
 70
8
 71
3
 72
8
 73
4
 74
0
 40
0
 40
0
 40
0
 40
0
 40
1
 40
1
 40
1
 40
1
 10
2.974562
 20
63.470292
 30
0.0
 10
2.778066
 20
63.129951
 30
0.0
 10
2.414926
 20
62.920292
 30
0.0
 10
2.021934
 20
62.920292
 30
0.0
  0
LINE
  5
127
100
AcDbEntity
  8
Layer_1
 62
1
100
AcDbLine
 10
2.021934
 20
62.920292
 30
0.0
 11
2.021934
 21
62.920292
 31
0.0
  0
LINE
  5
128
100
AcDbEntity
  8
Layer_1
 62
1
100
AcDbLine
 10
34.167314
 20
0.132296
 30
0.0
 11
0.132292
 21
0.132296
 31
0.0
  0
LINE
  5
129
100
AcDbEntity
  8
Layer_1
 62
1
100
AcDbLine
 10
0.132292
 20
0.132296
 30
0.0
 11
0.132292
 21
66.339996
 31
0.0
  0
LINE
  5
12a
100
AcDbEntity
  8
Layer_1
 62
1
100
AcDbLine
 10
0.132292
 20
66.339996
 30
0.0
 11
34.167314
 21
66.339996
 31
0.0
  0
LINE
  5
12b
100
AcDbEntity
  8
Layer_1
 62
1
100
AcDbLine
 10
34.167314
 20
66.339996
 30
0.0
 11
34.167314
 21
66.339996
 31
0.0
  0
LINE
  5
12c
100
AcDbEntity
  8
Layer_1
 62
1
100
AcDbLine
 10
34.167314
 20
66.339996
 30
0.0
 11
34.167314
 21
0.132296
 31
0.0
  0
LINE
  5
12d
100
AcDbEntity
  8
Layer_1
 62
3
100
AcDbLine
 10
7.682974
 20
55.566136
 30
0.0
 11
11.332984
 21
59.166156
 31
0.0
  0
LINE
  5
12e
100
AcDbEntity
  8
Layer_1
 62
3
100
AcDbLine
 10
11.332984
 20
59.166156
 30
0.0
 11
22.632984
 21
59.166156
 31
0.0
  0
LINE
  5
12f
100
AcDbEntity
  8
Layer_1
 62
3
100
AcDbLine
 10
22.632984
 20
59.166156
 30
0.0
 11
26.282974
 21
55.566136
 31
0.0
  0
LINE
  5
130
100
AcDbEntity
  8
Layer_1
 62
3
100
AcDbLine
 10
26.282974
 20
55.566136
 30
0.0
 11
26.282974
 21
44.266146
 31
0.0
  0
LINE
  5
131
100
AcDbEntity
  8
Layer_1
 62
3
100
AcDbLine
 10
26.282974
 20
44.266146
 30
0.0
 11
22.632984
 21
40.666156
 31
0.0
  0
LINE
  5
132
100
AcDbEntity
  8
Layer_1
 62
3
100
AcDbLine
 10
22.632984
 20
40.666156
 30
0.0
 11
11.332984
 21
40.666156
 31
0.0
  0
LINE
  5
133
100
AcDbEntity
  8
Layer_1
 62
3
100
AcDbLine
 10
11.332984
 20
40.666156
 30
0.0
 11
7.682974
 21
44.266146
 31
0.0
  0
LINE
  5
134
100
AcDbEntity
  8
Layer_1
 62
3
100
AcDbLine
 10
7.682974
 20
44.266146
 30
0.0
 11
7.682974
 21
55.566136
 31
0.0
  0
LINE
  5
135
100
AcDbEntity
  8
Layer_1
 62
1
100
AcDbLine
 10
61.422208
 20
70.579726
 30
0.0
 11
61.422208
 21
78.066226
 31
0.0
  0
LINE
  5
136
100
AcDbEntity
  8
Layer_1
 62
1
100
AcDbLine
 10
61.422208
 20
78.066226
 30
0.0
 11
64.597208
 21
78.066226
 31
0.0
  0
LINE
  5
137
100
AcDbEntity
  8
Layer_1
 62
1
100
AcDbLine
 10
64.597208
 20
78.066226
 30
0.0
 11
64.597208
 21
85.743226
 31
0.0
  0
LINE
  5
138
100
AcDbEntity
  8
Layer_1
 62
1
100
AcDbLine
 10
64.597208
 20
85.743226
 30
0.0
 11
61.422208
 21
85.743226
 31
0.0
  0
LINE
  5
139
100
AcDbEntity
  8
Layer_1
 62
1
100
AcDbLine
 10
61.422208
 20
85.743226
 30
0.0
 11
61.422208
 21
93.229726
 31
0.0
  0
LINE
  5
13a
100
AcDbEntity
  8
Layer_1
 62
1
100
AcDbLine
 10
90.422208
 20
70.579726
 30
0.0
 11
80.083708
 21
70.579726
 31
0.0
  0
LINE
  5
13b
100
AcDbEntity
  8
Layer_1
 62
1
100
AcDbLine
 10
80.083708
 20
70.579726
 30
0.0
 11
80.083708
 21
67.404726
 31
0.0
  0
LINE
  5
13c
100
AcDbEntity
  8
Layer_1
 62
1
100
AcDbLine
 10
80.083708
 20
67.404726
 30
0.0
 11
71.760708
 21
67.404726
 31
0.0
  0
LINE
  5
13d
100
AcDbEntity
  8
Layer_1
 62
1
100
AcDbLine
 10
71.760708
 20
67.404726
 30
0.0
 11
71.760708
 21
70.579726
 31
0.0
  0
LINE
  5
13e
100
AcDbEntity
  8
Layer_1
 62
1
100
AcDbLine
 10
71.760708
 20
70.579726
 30
0.0
 11
61.422208
 21
70.579726
 31
0.0
  0
LINE
  5
13f
100
AcDbEntity
  8
Layer_1
 62
1
100
AcDbLine
 10
90.422208
 20
93.229726
 30
0.0
 11
90.422208
 21
85.743226
 31
0.0
  0
LINE
  5
140
100
AcDbEntity
  8
Layer_1
 62
1
100
AcDbLine
 10
90.422208
 20
85.743226
 30
0.0
 11
87.247208
 21
85.743226
 31
0.0
  0
LINE
  5
141
100
AcDbEntity
  8
Layer_1
 62
1
100
AcDbLine
 10
87.247208
 20
85.743226
 30
0.0
 11
87.247208
 21
78.066226
 31
0.0
  0
LINE
  5
142
100
AcDbEntity
  8
Layer_1
 62
1
100
AcDbLine
 10
87.247208
 20
78.066226
 30
0.0
 11
90.422208
 21
78.066226
 31
0.0
  0
LINE
  5
143
100
AcDbEntity
  8
Layer_1
 62
1
100
AcDbLine
 10
90.422208
 20
78.066226
 30
0.0
 11
90.422208
 21
70.579726
 31
0.0
  0
LINE
  5
144
100
AcDbEntity
  8
Layer_1
 62
1
100
AcDbLine
 10
61.422208
 20
93.229726
 30
0.0
 11
71.760708
 21
93.229726
 31
0.0
  0
LINE
  5
145
100
AcDbEntity
  8
Layer_1
 62
1
100
AcDbLine
 10
71.760708
 20
93.229726
 30
0.0
 11
71.760708
 21
96.404726
 31
0.0
  0
LINE
  5
146
100
AcDbEntity
  8
Layer_1
 62
1
100
AcDbLine
 10
71.760708
 20
96.404726
 30
0.0
 11
80.083708
 21
96.404726
 31
0.0
  0
LINE
  5
147
100
AcDbEntity
  8
Layer_1
 62
1
100
AcDbLine
 10
80.083708
 20
96.404726
 30
0.0
 11
80.083708
 21
93.229726
 31
0.0
  0
LINE
  5
148
100
AcDbEntity
  8
Layer_1
 62
1
100
AcDbLine
 10
80.083708
 20
93.229726
 30
0.0
 11
90.422208
 21
93.229726
 31
0.0
  0
LINE
  5
149
100
AcDbEntity
  8
Layer_1
 62
5
100
AcDbLine
 10
71.396018
 20
27.218406
 30
0.0
 11
75.046028
 21
30.818416
 31
0.0
  0
LINE
  5
14a
100
AcDbEntity
  8
Layer_1
 62
5
100
AcDbLine
 10
75.046028
 20
30.818416
 30
0.0
 11
86.346028
 21
30.818416
 31
0.0
  0
LINE
  5
14b
100
AcDbEntity
  8
Layer_1
 62
5
100
AcDbLine
 10
86.346028
 20
30.818416
 30
0.0
 11
89.996018
 21
27.218406
 31
0.0
  0
LINE
  5
14c
100
AcDbEntity
  8
Layer_1
 62
5
100
AcDbLine
 10
89.996018
 20
27.218406
 30
0.0
 11
89.996018
 21
15.918406
 31
0.0
  0
LINE
  5
14d
100
AcDbEntity
  8
Layer_1
 62
5
100
AcDbLine
 10
89.996018
 20
15.918406
 30
0.0
 11
86.346028
 21
12.318416
 31
0.0
  0
LINE
  5
14e
100
AcDbEntity
  8
Layer_1
 62
5
100
AcDbLine
 10
86.346028
 20
12.318416
 30
0.0
 11
75.046028
 21
12.318416
 31
0.0
  0
LINE
  5
14f
100
AcDbEntity
  8
Layer_1
 62
5
100
AcDbLine
 10
75.046028
 20
12.318416
 30
0.0
 11
71.396018
 21
15.918406
 31
0.0
  0
LINE
  5
150
100
AcDbEntity
  8
Layer_1
 62
5
100
AcDbLine
 10
71.396018
 20
15.918406
 30
0.0
 11
71.396018
 21
27.218406
 31
0.0
  0
LINE
  5
151
100
AcDbEntity
  8
Layer_1
 62
1
100
AcDbLine
 10
69.371018
 20
10.243416
 30
0.0
 11
69.371018
 21
17.406916
 31
0.0
  0
LINE
  5
152
100
AcDbEntity
  8
Layer_1
 62
1
100
AcDbLine
 10
69.371018
 20
17.406916
 30
0.0
 11
66.196018
 21
17.406916
 31
0.0
  0
LINE
  5
153
100
AcDbEntity
  8
Layer_1
 62
1
100
AcDbLine
 10
66.196018
 20
17.406916
 30
0.0
 11
66.196018
 21
25.729916
 31
0.0
  0
LINE
  5
154
100
AcDbEntity
  8
Layer_1
 62
1
100
AcDbLine
 10
66.196018
 20
25.729916
 30
0.0
 11
69.371018
 21
25.729916
 31
0.0
  0
LINE
  5
155
100
AcDbEntity
  8
Layer_1
 62
1
100
AcDbLine
 10
69.371018
 20
25.729916
 30
0.0
 11
69.371018
 21
32.893416
 31
0.0
  0
LINE
  5
156
100
AcDbEntity
  8
Layer_1
 62
1
100
AcDbLine
 10
92.021017
 20
10.243416
 30
0.0
 11
84.857518
 21
10.243416
 31
0.0
  0
LINE
  5
157
100
AcDbEntity
  8
Layer_1
 62
1
100
AcDbLine
 10
84.857518
 20
10.243416
 30
0.0
 11
84.857518
 21
7.068416
 31
0.0
  0
LINE
  5
158
100
AcDbEntity
  8
Layer_1
 62
1
100
AcDbLine
 10
84.857518
 20
7.068416
 30
0.0
 11
76.534518
 21
7.068416
 31
0.0
  0
LINE
  5
159
100
AcDbEntity
  8
Layer_1
 62
1
100
AcDbLine
 10
76.534518
 20
7.068416
 30
0.0
 11
76.534518
 21
10.243416
 31
0.0
  0
LINE
  5
15a
100
AcDbEntity
  8
Layer_1
 62
1
100
AcDbLine
 10
76.534518
 20
10.243416
 30
0.0
 11
69.371018
 21
10.243416
 31
0.0
  0
LINE
  5
15b
100
AcDbEntity
  8
Layer_1
 62
1
100
AcDbLine
 10
92.021017
 20
32.893416
 30
0.0
 11
92.021017
 21
25.729916
 31
0.0
  0
LINE
  5
15c
100
AcDbEntity
  8
Layer_1
 62
1
100
AcDbLine
 10
92.021017
 20
25.729916
 30
0.0
 11
95.196017
 21
25.729916
 31
0.0
  0
LINE
  5
15d
100
AcDbEntity
  8
Layer_1
 62
1
100
AcDbLine
 10
95.196017
 20
25.729916
 30
0.0
 11
95.196017
 21
17.406916
 31
0.0
  0
LINE
  5
15e
100
AcDbEntity
  8
Layer_1
 62
1
100
AcDbLine
 10
95.196017
 20
17.406916
 30
0.0
 11
92.021017
 21
17.406916
 31
0.0
  0
LINE
  5
15f
100
AcDbEntity
  8
Layer_1
 62
1
100
AcDbLine
 10
92.021017
 20
17.406916
 30
0.0
 11
92.021017
 21
10.243416
 31
0.0
  0
LINE
  5
160
100
AcDbEntity
  8
Layer_1
 62
1
100
AcDbLine
 10
69.371018
 20
32.893416
 30
0.0
 11
76.534518
 21
32.893416
 31
0.0
  0
LINE
  5
161
100
AcDbEntity
  8
Layer_1
 62
1
100
AcDbLine
 10
76.534518
 20
32.893416
 30
0.0
 11
76.534518
 21
36.068416
 31
0.0
  0
LINE
  5
162
100
AcDbEntity
  8
Layer_1
 62
1
100
AcDbLine
 10
76.534518
 20
36.068416
 30
0.0
 11
84.857518
 21
36.068416
 31
0.0
  0
LINE
  5
163
100
AcDbEntity
  8
Layer_1
 62
1
100
AcDbLine
 10
84.857518
 20
36.068416
 30
0.0
 11
84.857518
 21
32.893416
 31
0.0
  0
LINE
  5
164
100
AcDbEntity
  8
Layer_1
 62
1
100
AcDbLine
 10
84.857518
 20
32.893416
 30
0.0
 11
92.021017
 21
32.893416
 31
0.0
  0
LINE
  5
165
100
AcDbEntity
  8
Layer_1
 62
1
100
AcDbLine
 10
0.379054
 20
68.300556
 30
0.0
 11
0.379054
 21
78.962056
 31
0.0
  0
LINE
  5
166
100
AcDbEntity
  8
Layer_1
 62
1
100
AcDbLine
 10
0.379054
 20
78.962056
 30
0.0
 11
3.554054
 21
78.962056
 31
0.0
  0
LINE
  5
167
100
AcDbEntity
  8
Layer_1
 62
1
100
AcDbLine
 10
3.554054
 20
78.962056
 30
0.0
 11
3.554054
 21
86.639056
 31
0.0
  0
LINE
  5
168
100
AcDbEntity
  8
Layer_1
 62
1
100
AcDbLine
 10
3.554054
 20
86.639056
 30
0.0
 11
0.379054
 21
86.639056
 31
0.0
  0
LINE
  5
169
100
AcDbEntity
  8
Layer_1
 62
1
100
AcDbLine
 10
0.379054
 20
86.639056
 30
0.0
 11
0.379054
 21
97.300556
 31
0.0
  0
LINE
  5
16a
100
AcDbEntity
  8
Layer_1
 62
1
100
AcDbLine
 10
29.379054
 20
68.300556
 30
0.0
 11
18.717554
 21
68.300556
 31
0.0
  0
LINE
  5
16b
100
AcDbEntity
  8
Layer_1
 62
1
100
AcDbLine
 10
18.717554
 20
68.300556
 30
0.0
 11
18.717554
 21
71.475556
 31
0.0
  0
LINE
  5
16c
100
AcDbEntity
  8
Layer_1
 62
1
100
AcDbLine
 10
18.717554
 20
71.475556
 30
0.0
 11
11.040554
 21
71.475556
 31
0.0
  0
LINE
  5
16d
100
AcDbEntity
  8
Layer_1
 62
1
100
AcDbLine
 10
11.040554
 20
71.475556
 30
0.0
 11
11.040554
 21
68.300556
 31
0.0
  0
LINE
  5
16e
100
AcDbEntity
  8
Layer_1
 62
1
100
AcDbLine
 10
11.040554
 20
68.300556
 30
0.0
 11
0.379054
 21
68.300556
 31
0.0
  0
LINE
  5
16f
100
AcDbEntity
  8
Layer_1
 62
1
100
AcDbLine
 10
29.379054
 20
97.300556
 30
0.0
 11
29.379054
 21
86.639056
 31
0.0
  0
LINE
  5
170
100
AcDbEntity
  8
Layer_1
 62
1
100
AcDbLine
 10
29.379054
 20
86.639056
 30
0.0
 11
26.204054
 21
86.639056
 31
0.0
  0
LINE
  5
171
100
AcDbEntity
  8
Layer_1
 62
1
100
AcDbLine
 10
26.204054
 20
86.639056
 30
0.0
 11
26.204054
 21
78.962056
 31
0.0
  0
LINE
  5
172
100
AcDbEntity
  8
Layer_1
 62
1
100
AcDbLine
 10
26.204054
 20
78.962056
 30
0.0
 11
29.379054
 21
78.962056
 31
0.0
  0
LINE
  5
173
100
AcDbEntity
  8
Layer_1
 62
1
100
AcDbLine
 10
29.379054
 20
78.962056
 30
0.0
 11
29.379054
 21
68.300556
 31
0.0
  0
LINE
  5
174
100
AcDbEntity
  8
Layer_1
 62
1
100
AcDbLine
 10
0.379054
 20
97.300556
 30
0.0
 11
11.040554
 21
97.300556
 31
0.0
  0
LINE
  5
175
100
AcDbEntity
  8
Layer_1
 62
1
100
AcDbLine
 10
11.040554
 20
97.300556
 30
0.0
 11
11.040554
 21
94.125556
 31
0.0
  0
LINE
  5
176
100
AcDbEntity
  8
Layer_1
 62
1
100
AcDbLine
 10
11.040554
 20
94.125556
 30
0.0
 11
18.717554
 21
94.125556
 31
0.0
  0
LINE
  5
177
100
AcDbEntity
  8
Layer_1
 62
1
100
AcDbLine
 10
18.717554
 20
94.125556
 30
0.0
 11
18.717554
 21
97.300556
 31
0.0
  0
LINE
  5
178
100
AcDbEntity
  8
Layer_1
 62
1
100
AcDbLine
 10
18.717554
 20
97.300556
 30
0.0
 11
29.379054
 21
97.300556
 31
0.0
  0
LINE
  5
179
100
AcDbEntity
  8
Layer_1
 62
1
100
AcDbLine
 10
69.272804
 20
40.481506
 30
0.0
 11
69.272804
 21
47.645006
 31
0.0
  0
LINE
  5
17a
100
AcDbEntity
  8
Layer_1
 62
1
100
AcDbLine
 10
69.272804
 20
47.645006
 30
0.0
 11
66.097804
 21
47.645006
 31
0.0
  0
LINE
  5
17b
100
AcDbEntity
  8
Layer_1
 62
1
100
AcDbLine
 10
66.097804
 20
47.645006
 30
0.0
 11
66.097804
 21
55.968006
 31
0.0
  0
LINE
  5
17c
100
AcDbEntity
  8
Layer_1
 62
1
100
AcDbLine
 10
66.097804
 20
55.968006
 30
0.0
 11
69.272804
 21
55.968006
 31
0.0
  0
LINE
  5
17d
100
AcDbEntity
  8
Layer_1
 62
1
100
AcDbLine
 10
69.272804
 20
55.968006
 30
0.0
 11
69.272804
 21
63.131506
 31
0.0
  0
LINE
  5
17e
100
AcDbEntity
  8
Layer_1
 62
1
100
AcDbLine
 10
91.922807
 20
40.481506
 30
0.0
 11
84.759304
 21
40.481506
 31
0.0
  0
LINE
  5
17f
100
AcDbEntity
  8
Layer_1
 62
1
100
AcDbLine
 10
84.759304
 20
40.481506
 30
0.0
 11
84.759304
 21
37.306506
 31
0.0
  0
LINE
  5
180
100
AcDbEntity
  8
Layer_1
 62
1
100
AcDbLine
 10
84.759304
 20
37.306506
 30
0.0
 11
76.436304
 21
37.306506
 31
0.0
  0
LINE
  5
181
100
AcDbEntity
  8
Layer_1
 62
1
100
AcDbLine
 10
76.436304
 20
37.306506
 30
0.0
 11
76.436304
 21
40.481506
 31
0.0
  0
LINE
  5
182
100
AcDbEntity
  8
Layer_1
 62
1
100
AcDbLine
 10
76.436304
 20
40.481506
 30
0.0
 11
69.272804
 21
40.481506
 31
0.0
  0
LINE
  5
183
100
AcDbEntity
  8
Layer_1
 62
1
100
AcDbLine
 10
91.922807
 20
63.131506
 30
0.0
 11
91.922807
 21
55.968006
 31
0.0
  0
LINE
  5
184
100
AcDbEntity
  8
Layer_1
 62
1
100
AcDbLine
 10
91.922807
 20
55.968006
 30
0.0
 11
95.097807
 21
55.968006
 31
0.0
  0
LINE
  5
185
100
AcDbEntity
  8
Layer_1
 62
1
100
AcDbLine
 10
95.097807
 20
55.968006
 30
0.0
 11
95.097807
 21
47.645006
 31
0.0
  0
LINE
  5
186
100
AcDbEntity
  8
Layer_1
 62
1
100
AcDbLine
 10
95.097807
 20
47.645006
 30
0.0
 11
91.922807
 21
47.645006
 31
0.0
  0
LINE
  5
187
100
AcDbEntity
  8
Layer_1
 62
1
100
AcDbLine
 10
91.922807
 20
47.645006
 30
0.0
 11
91.922807
 21
40.481506
 31
0.0
  0
LINE
  5
188
100
AcDbEntity
  8
Layer_1
 62
1
100
AcDbLine
 10
69.272804
 20
63.131506
 30
0.0
 11
76.436304
 21
63.131506
 31
0.0
  0
LINE
  5
189
100
AcDbEntity
  8
Layer_1
 62
1
100
AcDbLine
 10
76.436304
 20
63.131506
 30
0.0
 11
76.436304
 21
66.306506
 31
0.0
  0
LINE
  5
18a
100
AcDbEntity
  8
Layer_1
 62
1
100
AcDbLine
 10
76.436304
 20
66.306506
 30
0.0
 11
84.759304
 21
66.306506
 31
0.0
  0
LINE
  5
18b
100
AcDbEntity
  8
Layer_1
 62
1
100
AcDbLine
 10
84.759304
 20
66.306506
 30
0.0
 11
84.759304
 21
63.131506
 31
0.0
  0
LINE
  5
18c
100
AcDbEntity
  8
Layer_1
 62
1
100
AcDbLine
 10
84.759304
 20
63.131506
 30
0.0
 11
91.922807
 21
63.131506
 31
0.0
  0
LINE
  5
18d
100
AcDbEntity
  8
Layer_1
 62
5
100
AcDbLine
 10
35.918526
 20
26.385006
 30
0.0
 11
39.093526
 21
26.385006
 31
0.0
  0
LINE
  5
18e
100
AcDbEntity
  8
Layer_1
 62
5
100
AcDbLine
 10
39.093526
 20
26.385006
 30
0.0
 11
39.093526
 21
34.062006
 31
0.0
  0
LINE
  5
18f
100
AcDbEntity
  8
Layer_1
 62
5
100
AcDbLine
 10
39.093526
 20
34.062006
 30
0.0
 11
35.918526
 21
34.062006
 31
0.0
  0
LINE
  5
190
100
AcDbEntity
  8
Layer_1
 62
5
100
AcDbLine
 10
54.257026
 20
15.723506
 30
0.0
 11
54.257026
 21
18.898506
 31
0.0
  0
LINE
  5
191
100
AcDbEntity
  8
Layer_1
 62
5
100
AcDbLine
 10
54.257026
 20
18.898506
 30
0.0
 11
46.580026
 21
18.898506
 31
0.0
  0
LINE
  5
192
100
AcDbEntity
  8
Layer_1
 62
5
100
AcDbLine
 10
46.580026
 20
18.898506
 30
0.0
 11
46.580026
 21
15.723506
 31
0.0
  0
LINE
  5
193
100
AcDbEntity
  8
Layer_1
 62
5
100
AcDbLine
 10
46.580026
 20
15.723506
 30
0.0
 11
54.257026
 21
15.723506
 31
0.0
  0
LINE
  5
194
100
AcDbEntity
  8
Layer_1
 62
5
100
AcDbLine
 10
64.918526
 20
34.062006
 30
0.0
 11
61.743526
 21
34.062006
 31
0.0
  0
LINE
  5
195
100
AcDbEntity
  8
Layer_1
 62
5
100
AcDbLine
 10
61.743526
 20
34.062006
 30
0.0
 11
61.743526
 21
26.385006
 31
0.0
  0
LINE
  5
196
100
AcDbEntity
  8
Layer_1
 62
5
100
AcDbLine
 10
61.743526
 20
26.385006
 30
0.0
 11
64.918526
 21
26.385006
 31
0.0
  0
LINE
  5
197
100
AcDbEntity
  8
Layer_1
 62
5
100
AcDbLine
 10
46.580026
 20
44.723506
 30
0.0
 11
46.580026
 21
41.548506
 31
0.0
  0
LINE
  5
198
100
AcDbEntity
  8
Layer_1
 62
5
100
AcDbLine
 10
46.580026
 20
41.548506
 30
0.0
 11
54.257026
 21
41.548506
 31
0.0
  0
LINE
  5
199
100
AcDbEntity
  8
Layer_1
 62
5
100
AcDbLine
 10
54.257026
 20
41.548506
 30
0.0
 11
54.257026
 21
44.723506
 31
0.0
  0
LINE
  5
19a
100
AcDbEntity
  8
Layer_1
 62
5
100
AcDbLine
 10
54.257026
 20
44.723506
 30
0.0
 11
46.580026
 21
44.723506
 31
0.0
  0
LINE
  5
19b
100
AcDbEntity
  8
Layer_1
 62
1
100
AcDbLine
 10
31.184113
 20
70.481516
 30
0.0
 11
31.184113
 21
77.968006
 31
0.0
  0
LINE
  5
19c
100
AcDbEntity
  8
Layer_1
 62
1
100
AcDbLine
 10
31.184113
 20
77.968006
 30
0.0
 11
34.359113
 21
77.968006
 31
0.0
  0
LINE
  5
19d
100
AcDbEntity
  8
Layer_1
 62
1
100
AcDbLine
 10
34.359113
 20
77.968006
 30
0.0
 11
34.359113
 21
85.645006
 31
0.0
  0
LINE
  5
19e
100
AcDbEntity
  8
Layer_1
 62
1
100
AcDbLine
 10
34.359113
 20
85.645006
 30
0.0
 11
31.184113
 21
85.645006
 31
0.0
  0
LINE
  5
19f
100
AcDbEntity
  8
Layer_1
 62
1
100
AcDbLine
 10
31.184113
 20
85.645006
 30
0.0
 11
31.184113
 21
93.131506
 31
0.0
  0
LINE
  5
1a0
100
AcDbEntity
  8
Layer_1
 62
1
100
AcDbLine
 10
60.184111
 20
70.481516
 30
0.0
 11
49.845611
 21
70.481516
 31
0.0
  0
LINE
  5
1a1
100
AcDbEntity
  8
Layer_1
 62
1
100
AcDbLine
 10
49.845611
 20
70.481516
 30
0.0
 11
49.845611
 21
67.306516
 31
0.0
  0
LINE
  5
1a2
100
AcDbEntity
  8
Layer_1
 62
1
100
AcDbLine
 10
49.845611
 20
67.306516
 30
0.0
 11
41.522613
 21
67.306516
 31
0.0
  0
LINE
  5
1a3
100
AcDbEntity
  8
Layer_1
 62
1
100
AcDbLine
 10
41.522613
 20
67.306516
 30
0.0
 11
41.522613
 21
70.481516
 31
0.0
  0
LINE
  5
1a4
100
AcDbEntity
  8
Layer_1
 62
1
100
AcDbLine
 10
41.522613
 20
70.481516
 30
0.0
 11
31.184113
 21
70.481516
 31
0.0
  0
LINE
  5
1a5
100
AcDbEntity
  8
Layer_1
 62
1
100
AcDbLine
 10
60.184111
 20
93.131506
 30
0.0
 11
60.184111
 21
85.645006
 31
0.0
  0
LINE
  5
1a6
100
AcDbEntity
  8
Layer_1
 62
1
100
AcDbLine
 10
60.184111
 20
85.645006
 30
0.0
 11
57.009111
 21
85.645006
 31
0.0
  0
LINE
  5
1a7
100
AcDbEntity
  8
Layer_1
 62
1
100
AcDbLine
 10
57.009111
 20
85.645006
 30
0.0
 11
57.009111
 21
77.968006
 31
0.0
  0
LINE
  5
1a8
100
AcDbEntity
  8
Layer_1
 62
1
100
AcDbLine
 10
57.009111
 20
77.968006
 30
0.0
 11
60.184111
 21
77.968006
 31
0.0
  0
LINE
  5
1a9
100
AcDbEntity
  8
Layer_1
 62
1
100
AcDbLine
 10
60.184111
 20
77.968006
 30
0.0
 11
60.184111
 21
70.481516
 31
0.0
  0
LINE
  5
1aa
100
AcDbEntity
  8
Layer_1
 62
1
100
AcDbLine
 10
31.184113
 20
93.131506
 30
0.0
 11
41.522613
 21
93.131506
 31
0.0
  0
LINE
  5
1ab
100
AcDbEntity
  8
Layer_1
 62
1
100
AcDbLine
 10
41.522613
 20
93.131506
 30
0.0
 11
41.522613
 21
96.306506
 31
0.0
  0
LINE
  5
1ac
100
AcDbEntity
  8
Layer_1
 62
1
100
AcDbLine
 10
41.522613
 20
96.306506
 30
0.0
 11
49.845611
 21
96.306506
 31
0.0
  0
LINE
  5
1ad
100
AcDbEntity
  8
Layer_1
 62
1
100
AcDbLine
 10
49.845611
 20
96.306506
 30
0.0
 11
49.845611
 21
93.131506
 31
0.0
  0
LINE
  5
1ae
100
AcDbEntity
  8
Layer_1
 62
1
100
AcDbLine
 10
49.845611
 20
93.131506
 30
0.0
 11
60.184111
 21
93.131506
 31
0.0
  0
ENDSEC
  0
SECTION
  2
OBJECTS
  0
DICTIONARY
  5
C
330
0
100
AcDbDictionary
  3
ACAD_GROUP
350
D
  3
ACAD_MLINESTYLE
350
17
  0
DICTIONARY
  5
D
330
C
100
AcDbDictionary
  0
DICTIONARY
  5
1A
330
C
100
AcDbDictionary
  0
DICTIONARY
  5
17
330
C
100
AcDbDictionary
  3
STANDARD
350
18
  0
DICTIONARY
  5
19
330
C
100
AcDbDictionary
  0
ENDSEC
  0
EOF
