M48
;DRILL file {KiCad (5.0.1)-4} date 2/10/2019 11:16:00 PM
;FORMAT={-:-/ absolute / inch / decimal}
FMAT,2
INCH,TZ
T1C0.0157
T2C0.0295
T3C0.0315
T4C0.0394
T5C0.0400
T6C0.1200
%
G90
G05
M72
T1
X5.35Y-3.155
X5.38Y-3.295
X5.67Y-3.525
X5.71Y-3.085
X5.98Y-4.735
X6.01Y-4.705
X6.05Y-3.065
X6.22Y-3.085
X6.47Y-4.705
X6.47Y-4.755
T2
X5.845Y-3.25
X5.895Y-3.2
X5.945Y-3.25
T3
X4.97Y-3.325
X5.27Y-3.325
X6.32Y-3.405
X6.62Y-3.405
X6.32Y-3.305
X6.62Y-3.305
X6.32Y-3.205
X6.62Y-3.205
X5.52Y-3.875
X5.52Y-4.175
X5.62Y-3.875
X5.62Y-4.175
X5.72Y-3.875
X5.72Y-4.175
X5.82Y-3.875
X5.82Y-4.175
X5.92Y-3.875
X5.92Y-4.175
X6.02Y-3.875
X6.02Y-4.175
X6.12Y-3.875
X6.12Y-4.175
X6.22Y-3.875
X6.22Y-4.175
X5.519Y-4.3258
X5.519Y-4.6258
X5.619Y-4.3258
X5.619Y-4.6258
X5.719Y-4.3258
X5.719Y-4.6258
X5.819Y-4.3258
X5.819Y-4.6258
X5.919Y-4.3258
X5.919Y-4.6258
X6.019Y-4.3258
X6.019Y-4.6258
X6.119Y-4.3258
X6.119Y-4.6258
X6.219Y-4.3258
X6.219Y-4.6258
X6.84Y-3.105
X6.84Y-3.405
X6.79Y-3.495
X6.79Y-3.795
X6.73Y-3.105
X6.73Y-3.405
T4
X6.419Y-3.9058
X6.419Y-4.0058
X6.419Y-4.1058
X6.419Y-4.2058
X6.419Y-4.3058
X6.419Y-4.4058
X6.419Y-4.5058
X6.419Y-4.6058
X5.044Y-3.8058
X5.044Y-3.9058
X5.044Y-4.0058
X5.044Y-4.1058
X5.044Y-4.2058
X5.044Y-4.3058
X5.044Y-4.4058
X5.044Y-4.5058
X6.095Y-3.2
X6.095Y-3.3
X6.095Y-3.4
X6.195Y-3.2
X6.195Y-3.3
X6.195Y-3.4
X5.244Y-3.8058
X5.244Y-3.9058
X5.244Y-4.0058
X5.244Y-4.1058
X5.244Y-4.2058
X5.244Y-4.3058
X5.244Y-4.4058
X5.244Y-4.5058
X5.22Y-4.875
X5.32Y-4.875
X5.144Y-3.8058
X5.144Y-3.9058
X5.144Y-4.0058
X5.144Y-4.1058
X5.144Y-4.2058
X5.144Y-4.3058
X5.144Y-4.4058
X5.144Y-4.5058
X6.519Y-3.9058
X6.519Y-4.0058
X6.519Y-4.1058
X6.519Y-4.2058
X6.519Y-4.3058
X6.519Y-4.4058
X6.519Y-4.5058
X6.519Y-4.6058
X5.52Y-3.195
X5.52Y-3.295
X5.52Y-3.395
X5.52Y-3.495
X5.52Y-3.595
X6.12Y-3.625
X6.22Y-3.625
X6.32Y-3.625
X6.42Y-3.625
X6.52Y-3.625
X5.945Y-3.425
X5.945Y-3.525
X4.945Y-3.175
X5.045Y-3.175
X5.145Y-3.175
X5.245Y-3.175
X6.619Y-3.9058
X6.619Y-4.0058
X6.619Y-4.1058
X6.619Y-4.2058
X6.619Y-4.3058
X6.619Y-4.4058
X6.619Y-4.5058
X6.619Y-4.6058
X4.82Y-3.55
X4.92Y-3.55
X5.02Y-3.55
X5.12Y-3.55
X5.22Y-3.55
X5.32Y-3.55
X6.92Y-4.2
X6.92Y-4.3
X6.92Y-4.4
X6.92Y-4.5
T5
X6.37Y-4.875
X6.47Y-4.875
X6.57Y-4.875
X6.67Y-4.875
X6.77Y-4.875
X6.87Y-4.875
X6.17Y-2.975
X6.27Y-2.975
X6.37Y-2.975
X6.47Y-2.975
X6.57Y-2.975
X6.67Y-2.975
X6.77Y-2.975
X6.87Y-2.975
X5.47Y-4.875
X5.57Y-4.875
X5.67Y-4.875
X5.77Y-4.875
X5.87Y-4.875
X5.97Y-4.875
X6.07Y-4.875
X6.17Y-4.875
X5.11Y-2.975
X5.21Y-2.975
X5.31Y-2.975
X5.41Y-2.975
X5.51Y-2.975
X5.61Y-2.975
X5.71Y-2.975
X5.81Y-2.975
X5.91Y-2.975
X6.01Y-2.975
T6
X4.92Y-4.875
X6.97Y-3.575
X4.97Y-2.975
X6.97Y-4.675
T0
M30
