G04 #@! TF.GenerationSoftware,KiCad,Pcbnew,(5.0.1)-4*
G04 #@! TF.CreationDate,2019-02-10T23:22:43-08:00*
G04 #@! TF.ProjectId,Shield,536869656C642E6B696361645F706362,rev?*
G04 #@! TF.SameCoordinates,Original*
G04 #@! TF.FileFunction,Soldermask,Bot*
G04 #@! TF.FilePolarity,Negative*
%FSLAX46Y46*%
G04 Gerber Fmt 4.6, Leading zero omitted, Abs format (unit mm)*
G04 Created by KiCad (PCBNEW (5.0.1)-4) date 2/10/2019 11:22:43 PM*
%MOMM*%
%LPD*%
G01*
G04 APERTURE LIST*
%ADD10C,0.100000*%
G04 APERTURE END LIST*
D10*
G36*
X125560712Y-121871088D02*
X125930510Y-122024263D01*
X125930513Y-122024265D01*
X126263325Y-122246643D01*
X126546357Y-122529675D01*
X126730204Y-122804822D01*
X126768737Y-122862490D01*
X126921912Y-123232288D01*
X127000000Y-123624864D01*
X127000000Y-124025136D01*
X126921912Y-124417712D01*
X126768737Y-124787510D01*
X126768735Y-124787513D01*
X126546357Y-125120325D01*
X126263325Y-125403357D01*
X125930513Y-125625735D01*
X125930510Y-125625737D01*
X125560712Y-125778912D01*
X125168136Y-125857000D01*
X124767864Y-125857000D01*
X124375288Y-125778912D01*
X124005490Y-125625737D01*
X124005487Y-125625735D01*
X123672675Y-125403357D01*
X123389643Y-125120325D01*
X123167265Y-124787513D01*
X123167263Y-124787510D01*
X123014088Y-124417712D01*
X122936000Y-124025136D01*
X122936000Y-123624864D01*
X123014088Y-123232288D01*
X123167263Y-122862490D01*
X123205796Y-122804822D01*
X123389643Y-122529675D01*
X123672675Y-122246643D01*
X124005487Y-122024265D01*
X124005490Y-122024263D01*
X124375288Y-121871088D01*
X124767864Y-121793000D01*
X125168136Y-121793000D01*
X125560712Y-121871088D01*
X125560712Y-121871088D01*
G37*
G36*
X139107294Y-122821496D02*
X139227726Y-122858029D01*
X139270087Y-122870879D01*
X139420112Y-122951068D01*
X139551612Y-123058988D01*
X139659532Y-123190488D01*
X139739721Y-123340512D01*
X139742745Y-123350480D01*
X139789104Y-123503305D01*
X139789104Y-123503307D01*
X139801600Y-123630179D01*
X139801600Y-124019820D01*
X139801076Y-124025136D01*
X139789104Y-124146694D01*
X139787538Y-124151855D01*
X139739721Y-124309488D01*
X139659532Y-124459512D01*
X139551612Y-124591012D01*
X139420112Y-124698932D01*
X139270088Y-124779121D01*
X139242433Y-124787510D01*
X139107295Y-124828504D01*
X138994432Y-124839620D01*
X138938001Y-124845178D01*
X138938000Y-124845178D01*
X138768706Y-124828504D01*
X138633568Y-124787510D01*
X138605913Y-124779121D01*
X138455889Y-124698932D01*
X138365946Y-124625117D01*
X138324388Y-124591012D01*
X138216469Y-124459512D01*
X138216467Y-124459509D01*
X138136279Y-124309488D01*
X138123429Y-124267127D01*
X138086896Y-124146695D01*
X138078565Y-124062112D01*
X138074400Y-124019821D01*
X138074400Y-123630180D01*
X138086896Y-123503308D01*
X138086896Y-123503306D01*
X138136278Y-123340517D01*
X138136279Y-123340513D01*
X138216468Y-123190488D01*
X138324388Y-123058988D01*
X138455888Y-122951068D01*
X138605912Y-122870879D01*
X138648273Y-122858029D01*
X138768705Y-122821496D01*
X138881568Y-122810380D01*
X138937999Y-122804822D01*
X138938000Y-122804822D01*
X139107294Y-122821496D01*
X139107294Y-122821496D01*
G37*
G36*
X174667294Y-122821496D02*
X174787726Y-122858029D01*
X174830087Y-122870879D01*
X174980112Y-122951068D01*
X175111612Y-123058988D01*
X175219532Y-123190488D01*
X175299721Y-123340512D01*
X175302745Y-123350480D01*
X175349104Y-123503305D01*
X175349104Y-123503307D01*
X175361600Y-123630179D01*
X175361600Y-124019820D01*
X175361076Y-124025136D01*
X175349104Y-124146694D01*
X175347538Y-124151855D01*
X175299721Y-124309488D01*
X175219532Y-124459512D01*
X175111612Y-124591012D01*
X174980112Y-124698932D01*
X174830088Y-124779121D01*
X174802433Y-124787510D01*
X174667295Y-124828504D01*
X174554432Y-124839620D01*
X174498001Y-124845178D01*
X174498000Y-124845178D01*
X174328706Y-124828504D01*
X174193568Y-124787510D01*
X174165913Y-124779121D01*
X174015889Y-124698932D01*
X173925946Y-124625117D01*
X173884388Y-124591012D01*
X173776469Y-124459512D01*
X173776467Y-124459509D01*
X173696279Y-124309488D01*
X173683429Y-124267127D01*
X173646896Y-124146695D01*
X173638565Y-124062112D01*
X173634400Y-124019821D01*
X173634400Y-123630180D01*
X173646896Y-123503308D01*
X173646896Y-123503306D01*
X173696278Y-123340517D01*
X173696279Y-123340513D01*
X173776468Y-123190488D01*
X173884388Y-123058988D01*
X174015888Y-122951068D01*
X174165912Y-122870879D01*
X174208273Y-122858029D01*
X174328705Y-122821496D01*
X174441568Y-122810380D01*
X174497999Y-122804822D01*
X174498000Y-122804822D01*
X174667294Y-122821496D01*
X174667294Y-122821496D01*
G37*
G36*
X172127294Y-122821496D02*
X172247726Y-122858029D01*
X172290087Y-122870879D01*
X172440112Y-122951068D01*
X172571612Y-123058988D01*
X172679532Y-123190488D01*
X172759721Y-123340512D01*
X172762745Y-123350480D01*
X172809104Y-123503305D01*
X172809104Y-123503307D01*
X172821600Y-123630179D01*
X172821600Y-124019820D01*
X172821076Y-124025136D01*
X172809104Y-124146694D01*
X172807538Y-124151855D01*
X172759721Y-124309488D01*
X172679532Y-124459512D01*
X172571612Y-124591012D01*
X172440112Y-124698932D01*
X172290088Y-124779121D01*
X172262433Y-124787510D01*
X172127295Y-124828504D01*
X172014432Y-124839620D01*
X171958001Y-124845178D01*
X171958000Y-124845178D01*
X171788706Y-124828504D01*
X171653568Y-124787510D01*
X171625913Y-124779121D01*
X171475889Y-124698932D01*
X171385946Y-124625117D01*
X171344388Y-124591012D01*
X171236469Y-124459512D01*
X171236467Y-124459509D01*
X171156279Y-124309488D01*
X171143429Y-124267127D01*
X171106896Y-124146695D01*
X171098565Y-124062112D01*
X171094400Y-124019821D01*
X171094400Y-123630180D01*
X171106896Y-123503308D01*
X171106896Y-123503306D01*
X171156278Y-123340517D01*
X171156279Y-123340513D01*
X171236468Y-123190488D01*
X171344388Y-123058988D01*
X171475888Y-122951068D01*
X171625912Y-122870879D01*
X171668273Y-122858029D01*
X171788705Y-122821496D01*
X171901568Y-122810380D01*
X171957999Y-122804822D01*
X171958000Y-122804822D01*
X172127294Y-122821496D01*
X172127294Y-122821496D01*
G37*
G36*
X169587294Y-122821496D02*
X169707726Y-122858029D01*
X169750087Y-122870879D01*
X169900112Y-122951068D01*
X170031612Y-123058988D01*
X170139532Y-123190488D01*
X170219721Y-123340512D01*
X170222745Y-123350480D01*
X170269104Y-123503305D01*
X170269104Y-123503307D01*
X170281600Y-123630179D01*
X170281600Y-124019820D01*
X170281076Y-124025136D01*
X170269104Y-124146694D01*
X170267538Y-124151855D01*
X170219721Y-124309488D01*
X170139532Y-124459512D01*
X170031612Y-124591012D01*
X169900112Y-124698932D01*
X169750088Y-124779121D01*
X169722433Y-124787510D01*
X169587295Y-124828504D01*
X169474432Y-124839620D01*
X169418001Y-124845178D01*
X169418000Y-124845178D01*
X169248706Y-124828504D01*
X169113568Y-124787510D01*
X169085913Y-124779121D01*
X168935889Y-124698932D01*
X168845946Y-124625117D01*
X168804388Y-124591012D01*
X168696469Y-124459512D01*
X168696467Y-124459509D01*
X168616279Y-124309488D01*
X168603429Y-124267127D01*
X168566896Y-124146695D01*
X168558565Y-124062112D01*
X168554400Y-124019821D01*
X168554400Y-123630180D01*
X168566896Y-123503308D01*
X168566896Y-123503306D01*
X168616278Y-123340517D01*
X168616279Y-123340513D01*
X168696468Y-123190488D01*
X168804388Y-123058988D01*
X168935888Y-122951068D01*
X169085912Y-122870879D01*
X169128273Y-122858029D01*
X169248705Y-122821496D01*
X169361568Y-122810380D01*
X169417999Y-122804822D01*
X169418000Y-122804822D01*
X169587294Y-122821496D01*
X169587294Y-122821496D01*
G37*
G36*
X167047294Y-122821496D02*
X167167726Y-122858029D01*
X167210087Y-122870879D01*
X167360112Y-122951068D01*
X167491612Y-123058988D01*
X167599532Y-123190488D01*
X167679721Y-123340512D01*
X167682745Y-123350480D01*
X167729104Y-123503305D01*
X167729104Y-123503307D01*
X167741600Y-123630179D01*
X167741600Y-124019820D01*
X167741076Y-124025136D01*
X167729104Y-124146694D01*
X167727538Y-124151855D01*
X167679721Y-124309488D01*
X167599532Y-124459512D01*
X167491612Y-124591012D01*
X167360112Y-124698932D01*
X167210088Y-124779121D01*
X167182433Y-124787510D01*
X167047295Y-124828504D01*
X166934432Y-124839620D01*
X166878001Y-124845178D01*
X166878000Y-124845178D01*
X166708706Y-124828504D01*
X166573568Y-124787510D01*
X166545913Y-124779121D01*
X166395889Y-124698932D01*
X166305946Y-124625117D01*
X166264388Y-124591012D01*
X166156469Y-124459512D01*
X166156467Y-124459509D01*
X166076279Y-124309488D01*
X166063429Y-124267127D01*
X166026896Y-124146695D01*
X166018565Y-124062112D01*
X166014400Y-124019821D01*
X166014400Y-123630180D01*
X166026896Y-123503308D01*
X166026896Y-123503306D01*
X166076278Y-123340517D01*
X166076279Y-123340513D01*
X166156468Y-123190488D01*
X166264388Y-123058988D01*
X166395888Y-122951068D01*
X166545912Y-122870879D01*
X166588273Y-122858029D01*
X166708705Y-122821496D01*
X166821568Y-122810380D01*
X166877999Y-122804822D01*
X166878000Y-122804822D01*
X167047294Y-122821496D01*
X167047294Y-122821496D01*
G37*
G36*
X164507294Y-122821496D02*
X164627726Y-122858029D01*
X164670087Y-122870879D01*
X164820112Y-122951068D01*
X164951612Y-123058988D01*
X165059532Y-123190488D01*
X165139721Y-123340512D01*
X165142745Y-123350480D01*
X165189104Y-123503305D01*
X165189104Y-123503307D01*
X165201600Y-123630179D01*
X165201600Y-124019820D01*
X165201076Y-124025136D01*
X165189104Y-124146694D01*
X165187538Y-124151855D01*
X165139721Y-124309488D01*
X165059532Y-124459512D01*
X164951612Y-124591012D01*
X164820112Y-124698932D01*
X164670088Y-124779121D01*
X164642433Y-124787510D01*
X164507295Y-124828504D01*
X164394432Y-124839620D01*
X164338001Y-124845178D01*
X164338000Y-124845178D01*
X164168706Y-124828504D01*
X164033568Y-124787510D01*
X164005913Y-124779121D01*
X163855889Y-124698932D01*
X163765946Y-124625117D01*
X163724388Y-124591012D01*
X163616469Y-124459512D01*
X163616467Y-124459509D01*
X163536279Y-124309488D01*
X163523429Y-124267127D01*
X163486896Y-124146695D01*
X163478565Y-124062112D01*
X163474400Y-124019821D01*
X163474400Y-123630180D01*
X163486896Y-123503308D01*
X163486896Y-123503306D01*
X163536278Y-123340517D01*
X163536279Y-123340513D01*
X163616468Y-123190488D01*
X163724388Y-123058988D01*
X163855888Y-122951068D01*
X164005912Y-122870879D01*
X164048273Y-122858029D01*
X164168705Y-122821496D01*
X164281568Y-122810380D01*
X164337999Y-122804822D01*
X164338000Y-122804822D01*
X164507294Y-122821496D01*
X164507294Y-122821496D01*
G37*
G36*
X161967294Y-122821496D02*
X162087726Y-122858029D01*
X162130087Y-122870879D01*
X162280112Y-122951068D01*
X162411612Y-123058988D01*
X162519532Y-123190488D01*
X162599721Y-123340512D01*
X162602745Y-123350480D01*
X162649104Y-123503305D01*
X162649104Y-123503307D01*
X162661600Y-123630179D01*
X162661600Y-124019820D01*
X162661076Y-124025136D01*
X162649104Y-124146694D01*
X162647538Y-124151855D01*
X162599721Y-124309488D01*
X162519532Y-124459512D01*
X162411612Y-124591012D01*
X162280112Y-124698932D01*
X162130088Y-124779121D01*
X162102433Y-124787510D01*
X161967295Y-124828504D01*
X161854432Y-124839620D01*
X161798001Y-124845178D01*
X161798000Y-124845178D01*
X161628706Y-124828504D01*
X161493568Y-124787510D01*
X161465913Y-124779121D01*
X161315889Y-124698932D01*
X161225946Y-124625117D01*
X161184388Y-124591012D01*
X161076469Y-124459512D01*
X161076467Y-124459509D01*
X160996279Y-124309488D01*
X160983429Y-124267127D01*
X160946896Y-124146695D01*
X160938565Y-124062112D01*
X160934400Y-124019821D01*
X160934400Y-123630180D01*
X160946896Y-123503308D01*
X160946896Y-123503306D01*
X160996278Y-123340517D01*
X160996279Y-123340513D01*
X161076468Y-123190488D01*
X161184388Y-123058988D01*
X161315888Y-122951068D01*
X161465912Y-122870879D01*
X161508273Y-122858029D01*
X161628705Y-122821496D01*
X161741568Y-122810380D01*
X161797999Y-122804822D01*
X161798000Y-122804822D01*
X161967294Y-122821496D01*
X161967294Y-122821496D01*
G37*
G36*
X156887294Y-122821496D02*
X157007726Y-122858029D01*
X157050087Y-122870879D01*
X157200112Y-122951068D01*
X157331612Y-123058988D01*
X157439532Y-123190488D01*
X157519721Y-123340512D01*
X157522745Y-123350480D01*
X157569104Y-123503305D01*
X157569104Y-123503307D01*
X157581600Y-123630179D01*
X157581600Y-124019820D01*
X157581076Y-124025136D01*
X157569104Y-124146694D01*
X157567538Y-124151855D01*
X157519721Y-124309488D01*
X157439532Y-124459512D01*
X157331612Y-124591012D01*
X157200112Y-124698932D01*
X157050088Y-124779121D01*
X157022433Y-124787510D01*
X156887295Y-124828504D01*
X156774432Y-124839620D01*
X156718001Y-124845178D01*
X156718000Y-124845178D01*
X156548706Y-124828504D01*
X156413568Y-124787510D01*
X156385913Y-124779121D01*
X156235889Y-124698932D01*
X156145946Y-124625117D01*
X156104388Y-124591012D01*
X155996469Y-124459512D01*
X155996467Y-124459509D01*
X155916279Y-124309488D01*
X155903429Y-124267127D01*
X155866896Y-124146695D01*
X155858565Y-124062112D01*
X155854400Y-124019821D01*
X155854400Y-123630180D01*
X155866896Y-123503308D01*
X155866896Y-123503306D01*
X155916278Y-123340517D01*
X155916279Y-123340513D01*
X155996468Y-123190488D01*
X156104388Y-123058988D01*
X156235888Y-122951068D01*
X156385912Y-122870879D01*
X156428273Y-122858029D01*
X156548705Y-122821496D01*
X156661568Y-122810380D01*
X156717999Y-122804822D01*
X156718000Y-122804822D01*
X156887294Y-122821496D01*
X156887294Y-122821496D01*
G37*
G36*
X154347294Y-122821496D02*
X154467726Y-122858029D01*
X154510087Y-122870879D01*
X154660112Y-122951068D01*
X154791612Y-123058988D01*
X154899532Y-123190488D01*
X154979721Y-123340512D01*
X154982745Y-123350480D01*
X155029104Y-123503305D01*
X155029104Y-123503307D01*
X155041600Y-123630179D01*
X155041600Y-124019820D01*
X155041076Y-124025136D01*
X155029104Y-124146694D01*
X155027538Y-124151855D01*
X154979721Y-124309488D01*
X154899532Y-124459512D01*
X154791612Y-124591012D01*
X154660112Y-124698932D01*
X154510088Y-124779121D01*
X154482433Y-124787510D01*
X154347295Y-124828504D01*
X154234432Y-124839620D01*
X154178001Y-124845178D01*
X154178000Y-124845178D01*
X154008706Y-124828504D01*
X153873568Y-124787510D01*
X153845913Y-124779121D01*
X153695889Y-124698932D01*
X153605946Y-124625117D01*
X153564388Y-124591012D01*
X153456469Y-124459512D01*
X153456467Y-124459509D01*
X153376279Y-124309488D01*
X153363429Y-124267127D01*
X153326896Y-124146695D01*
X153318565Y-124062112D01*
X153314400Y-124019821D01*
X153314400Y-123630180D01*
X153326896Y-123503308D01*
X153326896Y-123503306D01*
X153376278Y-123340517D01*
X153376279Y-123340513D01*
X153456468Y-123190488D01*
X153564388Y-123058988D01*
X153695888Y-122951068D01*
X153845912Y-122870879D01*
X153888273Y-122858029D01*
X154008705Y-122821496D01*
X154121568Y-122810380D01*
X154177999Y-122804822D01*
X154178000Y-122804822D01*
X154347294Y-122821496D01*
X154347294Y-122821496D01*
G37*
G36*
X151807294Y-122821496D02*
X151927726Y-122858029D01*
X151970087Y-122870879D01*
X152120112Y-122951068D01*
X152251612Y-123058988D01*
X152359532Y-123190488D01*
X152439721Y-123340512D01*
X152442745Y-123350480D01*
X152489104Y-123503305D01*
X152489104Y-123503307D01*
X152501600Y-123630179D01*
X152501600Y-124019820D01*
X152501076Y-124025136D01*
X152489104Y-124146694D01*
X152487538Y-124151855D01*
X152439721Y-124309488D01*
X152359532Y-124459512D01*
X152251612Y-124591012D01*
X152120112Y-124698932D01*
X151970088Y-124779121D01*
X151942433Y-124787510D01*
X151807295Y-124828504D01*
X151694432Y-124839620D01*
X151638001Y-124845178D01*
X151638000Y-124845178D01*
X151468706Y-124828504D01*
X151333568Y-124787510D01*
X151305913Y-124779121D01*
X151155889Y-124698932D01*
X151065946Y-124625117D01*
X151024388Y-124591012D01*
X150916469Y-124459512D01*
X150916467Y-124459509D01*
X150836279Y-124309488D01*
X150823429Y-124267127D01*
X150786896Y-124146695D01*
X150778565Y-124062112D01*
X150774400Y-124019821D01*
X150774400Y-123630180D01*
X150786896Y-123503308D01*
X150786896Y-123503306D01*
X150836278Y-123340517D01*
X150836279Y-123340513D01*
X150916468Y-123190488D01*
X151024388Y-123058988D01*
X151155888Y-122951068D01*
X151305912Y-122870879D01*
X151348273Y-122858029D01*
X151468705Y-122821496D01*
X151581568Y-122810380D01*
X151637999Y-122804822D01*
X151638000Y-122804822D01*
X151807294Y-122821496D01*
X151807294Y-122821496D01*
G37*
G36*
X149267294Y-122821496D02*
X149387726Y-122858029D01*
X149430087Y-122870879D01*
X149580112Y-122951068D01*
X149711612Y-123058988D01*
X149819532Y-123190488D01*
X149899721Y-123340512D01*
X149902745Y-123350480D01*
X149949104Y-123503305D01*
X149949104Y-123503307D01*
X149961600Y-123630179D01*
X149961600Y-124019820D01*
X149961076Y-124025136D01*
X149949104Y-124146694D01*
X149947538Y-124151855D01*
X149899721Y-124309488D01*
X149819532Y-124459512D01*
X149711612Y-124591012D01*
X149580112Y-124698932D01*
X149430088Y-124779121D01*
X149402433Y-124787510D01*
X149267295Y-124828504D01*
X149154432Y-124839620D01*
X149098001Y-124845178D01*
X149098000Y-124845178D01*
X148928706Y-124828504D01*
X148793568Y-124787510D01*
X148765913Y-124779121D01*
X148615889Y-124698932D01*
X148525946Y-124625117D01*
X148484388Y-124591012D01*
X148376469Y-124459512D01*
X148376467Y-124459509D01*
X148296279Y-124309488D01*
X148283429Y-124267127D01*
X148246896Y-124146695D01*
X148238565Y-124062112D01*
X148234400Y-124019821D01*
X148234400Y-123630180D01*
X148246896Y-123503308D01*
X148246896Y-123503306D01*
X148296278Y-123340517D01*
X148296279Y-123340513D01*
X148376468Y-123190488D01*
X148484388Y-123058988D01*
X148615888Y-122951068D01*
X148765912Y-122870879D01*
X148808273Y-122858029D01*
X148928705Y-122821496D01*
X149041568Y-122810380D01*
X149097999Y-122804822D01*
X149098000Y-122804822D01*
X149267294Y-122821496D01*
X149267294Y-122821496D01*
G37*
G36*
X146727294Y-122821496D02*
X146847726Y-122858029D01*
X146890087Y-122870879D01*
X147040112Y-122951068D01*
X147171612Y-123058988D01*
X147279532Y-123190488D01*
X147359721Y-123340512D01*
X147362745Y-123350480D01*
X147409104Y-123503305D01*
X147409104Y-123503307D01*
X147421600Y-123630179D01*
X147421600Y-124019820D01*
X147421076Y-124025136D01*
X147409104Y-124146694D01*
X147407538Y-124151855D01*
X147359721Y-124309488D01*
X147279532Y-124459512D01*
X147171612Y-124591012D01*
X147040112Y-124698932D01*
X146890088Y-124779121D01*
X146862433Y-124787510D01*
X146727295Y-124828504D01*
X146614432Y-124839620D01*
X146558001Y-124845178D01*
X146558000Y-124845178D01*
X146388706Y-124828504D01*
X146253568Y-124787510D01*
X146225913Y-124779121D01*
X146075889Y-124698932D01*
X145985946Y-124625117D01*
X145944388Y-124591012D01*
X145836469Y-124459512D01*
X145836467Y-124459509D01*
X145756279Y-124309488D01*
X145743429Y-124267127D01*
X145706896Y-124146695D01*
X145698565Y-124062112D01*
X145694400Y-124019821D01*
X145694400Y-123630180D01*
X145706896Y-123503308D01*
X145706896Y-123503306D01*
X145756278Y-123340517D01*
X145756279Y-123340513D01*
X145836468Y-123190488D01*
X145944388Y-123058988D01*
X146075888Y-122951068D01*
X146225912Y-122870879D01*
X146268273Y-122858029D01*
X146388705Y-122821496D01*
X146501568Y-122810380D01*
X146557999Y-122804822D01*
X146558000Y-122804822D01*
X146727294Y-122821496D01*
X146727294Y-122821496D01*
G37*
G36*
X144187294Y-122821496D02*
X144307726Y-122858029D01*
X144350087Y-122870879D01*
X144500112Y-122951068D01*
X144631612Y-123058988D01*
X144739532Y-123190488D01*
X144819721Y-123340512D01*
X144822745Y-123350480D01*
X144869104Y-123503305D01*
X144869104Y-123503307D01*
X144881600Y-123630179D01*
X144881600Y-124019820D01*
X144881076Y-124025136D01*
X144869104Y-124146694D01*
X144867538Y-124151855D01*
X144819721Y-124309488D01*
X144739532Y-124459512D01*
X144631612Y-124591012D01*
X144500112Y-124698932D01*
X144350088Y-124779121D01*
X144322433Y-124787510D01*
X144187295Y-124828504D01*
X144074432Y-124839620D01*
X144018001Y-124845178D01*
X144018000Y-124845178D01*
X143848706Y-124828504D01*
X143713568Y-124787510D01*
X143685913Y-124779121D01*
X143535889Y-124698932D01*
X143445946Y-124625117D01*
X143404388Y-124591012D01*
X143296469Y-124459512D01*
X143296467Y-124459509D01*
X143216279Y-124309488D01*
X143203429Y-124267127D01*
X143166896Y-124146695D01*
X143158565Y-124062112D01*
X143154400Y-124019821D01*
X143154400Y-123630180D01*
X143166896Y-123503308D01*
X143166896Y-123503306D01*
X143216278Y-123340517D01*
X143216279Y-123340513D01*
X143296468Y-123190488D01*
X143404388Y-123058988D01*
X143535888Y-122951068D01*
X143685912Y-122870879D01*
X143728273Y-122858029D01*
X143848705Y-122821496D01*
X143961568Y-122810380D01*
X144017999Y-122804822D01*
X144018000Y-122804822D01*
X144187294Y-122821496D01*
X144187294Y-122821496D01*
G37*
G36*
X141647294Y-122821496D02*
X141767726Y-122858029D01*
X141810087Y-122870879D01*
X141960112Y-122951068D01*
X142091612Y-123058988D01*
X142199532Y-123190488D01*
X142279721Y-123340512D01*
X142282745Y-123350480D01*
X142329104Y-123503305D01*
X142329104Y-123503307D01*
X142341600Y-123630179D01*
X142341600Y-124019820D01*
X142341076Y-124025136D01*
X142329104Y-124146694D01*
X142327538Y-124151855D01*
X142279721Y-124309488D01*
X142199532Y-124459512D01*
X142091612Y-124591012D01*
X141960112Y-124698932D01*
X141810088Y-124779121D01*
X141782433Y-124787510D01*
X141647295Y-124828504D01*
X141534432Y-124839620D01*
X141478001Y-124845178D01*
X141478000Y-124845178D01*
X141308706Y-124828504D01*
X141173568Y-124787510D01*
X141145913Y-124779121D01*
X140995889Y-124698932D01*
X140905946Y-124625117D01*
X140864388Y-124591012D01*
X140756469Y-124459512D01*
X140756467Y-124459509D01*
X140676279Y-124309488D01*
X140663429Y-124267127D01*
X140626896Y-124146695D01*
X140618565Y-124062112D01*
X140614400Y-124019821D01*
X140614400Y-123630180D01*
X140626896Y-123503308D01*
X140626896Y-123503306D01*
X140676278Y-123340517D01*
X140676279Y-123340513D01*
X140756468Y-123190488D01*
X140864388Y-123058988D01*
X140995888Y-122951068D01*
X141145912Y-122870879D01*
X141188273Y-122858029D01*
X141308705Y-122821496D01*
X141421568Y-122810380D01*
X141477999Y-122804822D01*
X141478000Y-122804822D01*
X141647294Y-122821496D01*
X141647294Y-122821496D01*
G37*
G36*
X133438000Y-124675000D02*
X131738000Y-124675000D01*
X131738000Y-122975000D01*
X133438000Y-122975000D01*
X133438000Y-124675000D01*
X133438000Y-124675000D01*
G37*
G36*
X135294630Y-122987299D02*
X135454855Y-123035903D01*
X135602520Y-123114831D01*
X135731949Y-123221051D01*
X135838169Y-123350480D01*
X135917097Y-123498145D01*
X135965701Y-123658370D01*
X135982112Y-123825000D01*
X135965701Y-123991630D01*
X135917097Y-124151855D01*
X135838169Y-124299520D01*
X135731949Y-124428949D01*
X135602520Y-124535169D01*
X135454855Y-124614097D01*
X135294630Y-124662701D01*
X135169752Y-124675000D01*
X135086248Y-124675000D01*
X134961370Y-124662701D01*
X134801145Y-124614097D01*
X134653480Y-124535169D01*
X134524051Y-124428949D01*
X134417831Y-124299520D01*
X134338903Y-124151855D01*
X134290299Y-123991630D01*
X134273888Y-123825000D01*
X134290299Y-123658370D01*
X134338903Y-123498145D01*
X134417831Y-123350480D01*
X134524051Y-123221051D01*
X134653480Y-123114831D01*
X134801145Y-123035903D01*
X134961370Y-122987299D01*
X135086248Y-122975000D01*
X135169752Y-122975000D01*
X135294630Y-122987299D01*
X135294630Y-122987299D01*
G37*
G36*
X177630712Y-116791088D02*
X178000510Y-116944263D01*
X178000513Y-116944265D01*
X178333325Y-117166643D01*
X178616357Y-117449675D01*
X178838735Y-117782487D01*
X178838737Y-117782490D01*
X178991912Y-118152288D01*
X179070000Y-118544864D01*
X179070000Y-118945136D01*
X178991912Y-119337712D01*
X178838737Y-119707510D01*
X178838735Y-119707513D01*
X178616357Y-120040325D01*
X178333325Y-120323357D01*
X178000513Y-120545735D01*
X178000510Y-120545737D01*
X177630712Y-120698912D01*
X177238136Y-120777000D01*
X176837864Y-120777000D01*
X176445288Y-120698912D01*
X176075490Y-120545737D01*
X176075487Y-120545735D01*
X175742675Y-120323357D01*
X175459643Y-120040325D01*
X175237265Y-119707513D01*
X175237263Y-119707510D01*
X175084088Y-119337712D01*
X175006000Y-118945136D01*
X175006000Y-118544864D01*
X175084088Y-118152288D01*
X175237263Y-117782490D01*
X175237265Y-117782487D01*
X175459643Y-117449675D01*
X175742675Y-117166643D01*
X176075487Y-116944265D01*
X176075490Y-116944263D01*
X176445288Y-116791088D01*
X176837864Y-116713000D01*
X177238136Y-116713000D01*
X177630712Y-116791088D01*
X177630712Y-116791088D01*
G37*
G36*
X155540311Y-116702021D02*
X155579489Y-116705880D01*
X155602960Y-116713000D01*
X155730291Y-116751625D01*
X155869270Y-116825912D01*
X155991084Y-116925882D01*
X156091054Y-117047696D01*
X156165341Y-117186675D01*
X156211086Y-117337478D01*
X156226532Y-117494304D01*
X156211086Y-117651130D01*
X156165341Y-117801933D01*
X156091054Y-117940912D01*
X155991084Y-118062726D01*
X155869270Y-118162696D01*
X155730291Y-118236983D01*
X155654889Y-118259856D01*
X155579489Y-118282728D01*
X155540311Y-118286587D01*
X155461957Y-118294304D01*
X155383367Y-118294304D01*
X155305013Y-118286587D01*
X155265835Y-118282728D01*
X155190435Y-118259856D01*
X155115033Y-118236983D01*
X154976054Y-118162696D01*
X154854240Y-118062726D01*
X154754270Y-117940912D01*
X154679983Y-117801933D01*
X154634238Y-117651130D01*
X154618792Y-117494304D01*
X154634238Y-117337478D01*
X154679983Y-117186675D01*
X154754270Y-117047696D01*
X154854240Y-116925882D01*
X154976054Y-116825912D01*
X155115033Y-116751625D01*
X155242364Y-116713000D01*
X155265835Y-116705880D01*
X155305013Y-116702021D01*
X155383367Y-116694304D01*
X155461957Y-116694304D01*
X155540311Y-116702021D01*
X155540311Y-116702021D01*
G37*
G36*
X140982662Y-118294304D02*
X139382662Y-118294304D01*
X139382662Y-116694304D01*
X140982662Y-116694304D01*
X140982662Y-118294304D01*
X140982662Y-118294304D01*
G37*
G36*
X142840311Y-116702021D02*
X142879489Y-116705880D01*
X142902960Y-116713000D01*
X143030291Y-116751625D01*
X143169270Y-116825912D01*
X143291084Y-116925882D01*
X143391054Y-117047696D01*
X143465341Y-117186675D01*
X143511086Y-117337478D01*
X143526532Y-117494304D01*
X143511086Y-117651130D01*
X143465341Y-117801933D01*
X143391054Y-117940912D01*
X143291084Y-118062726D01*
X143169270Y-118162696D01*
X143030291Y-118236983D01*
X142954889Y-118259856D01*
X142879489Y-118282728D01*
X142840311Y-118286587D01*
X142761957Y-118294304D01*
X142683367Y-118294304D01*
X142605013Y-118286587D01*
X142565835Y-118282728D01*
X142490435Y-118259856D01*
X142415033Y-118236983D01*
X142276054Y-118162696D01*
X142154240Y-118062726D01*
X142054270Y-117940912D01*
X141979983Y-117801933D01*
X141934238Y-117651130D01*
X141918792Y-117494304D01*
X141934238Y-117337478D01*
X141979983Y-117186675D01*
X142054270Y-117047696D01*
X142154240Y-116925882D01*
X142276054Y-116825912D01*
X142415033Y-116751625D01*
X142542364Y-116713000D01*
X142565835Y-116705880D01*
X142605013Y-116702021D01*
X142683367Y-116694304D01*
X142761957Y-116694304D01*
X142840311Y-116702021D01*
X142840311Y-116702021D01*
G37*
G36*
X145380311Y-116702021D02*
X145419489Y-116705880D01*
X145442960Y-116713000D01*
X145570291Y-116751625D01*
X145709270Y-116825912D01*
X145831084Y-116925882D01*
X145931054Y-117047696D01*
X146005341Y-117186675D01*
X146051086Y-117337478D01*
X146066532Y-117494304D01*
X146051086Y-117651130D01*
X146005341Y-117801933D01*
X145931054Y-117940912D01*
X145831084Y-118062726D01*
X145709270Y-118162696D01*
X145570291Y-118236983D01*
X145494889Y-118259856D01*
X145419489Y-118282728D01*
X145380311Y-118286587D01*
X145301957Y-118294304D01*
X145223367Y-118294304D01*
X145145013Y-118286587D01*
X145105835Y-118282728D01*
X145030435Y-118259856D01*
X144955033Y-118236983D01*
X144816054Y-118162696D01*
X144694240Y-118062726D01*
X144594270Y-117940912D01*
X144519983Y-117801933D01*
X144474238Y-117651130D01*
X144458792Y-117494304D01*
X144474238Y-117337478D01*
X144519983Y-117186675D01*
X144594270Y-117047696D01*
X144694240Y-116925882D01*
X144816054Y-116825912D01*
X144955033Y-116751625D01*
X145082364Y-116713000D01*
X145105835Y-116705880D01*
X145145013Y-116702021D01*
X145223367Y-116694304D01*
X145301957Y-116694304D01*
X145380311Y-116702021D01*
X145380311Y-116702021D01*
G37*
G36*
X150460311Y-116702021D02*
X150499489Y-116705880D01*
X150522960Y-116713000D01*
X150650291Y-116751625D01*
X150789270Y-116825912D01*
X150911084Y-116925882D01*
X151011054Y-117047696D01*
X151085341Y-117186675D01*
X151131086Y-117337478D01*
X151146532Y-117494304D01*
X151131086Y-117651130D01*
X151085341Y-117801933D01*
X151011054Y-117940912D01*
X150911084Y-118062726D01*
X150789270Y-118162696D01*
X150650291Y-118236983D01*
X150574889Y-118259856D01*
X150499489Y-118282728D01*
X150460311Y-118286587D01*
X150381957Y-118294304D01*
X150303367Y-118294304D01*
X150225013Y-118286587D01*
X150185835Y-118282728D01*
X150110435Y-118259856D01*
X150035033Y-118236983D01*
X149896054Y-118162696D01*
X149774240Y-118062726D01*
X149674270Y-117940912D01*
X149599983Y-117801933D01*
X149554238Y-117651130D01*
X149538792Y-117494304D01*
X149554238Y-117337478D01*
X149599983Y-117186675D01*
X149674270Y-117047696D01*
X149774240Y-116925882D01*
X149896054Y-116825912D01*
X150035033Y-116751625D01*
X150162364Y-116713000D01*
X150185835Y-116705880D01*
X150225013Y-116702021D01*
X150303367Y-116694304D01*
X150381957Y-116694304D01*
X150460311Y-116702021D01*
X150460311Y-116702021D01*
G37*
G36*
X153000311Y-116702021D02*
X153039489Y-116705880D01*
X153062960Y-116713000D01*
X153190291Y-116751625D01*
X153329270Y-116825912D01*
X153451084Y-116925882D01*
X153551054Y-117047696D01*
X153625341Y-117186675D01*
X153671086Y-117337478D01*
X153686532Y-117494304D01*
X153671086Y-117651130D01*
X153625341Y-117801933D01*
X153551054Y-117940912D01*
X153451084Y-118062726D01*
X153329270Y-118162696D01*
X153190291Y-118236983D01*
X153114889Y-118259856D01*
X153039489Y-118282728D01*
X153000311Y-118286587D01*
X152921957Y-118294304D01*
X152843367Y-118294304D01*
X152765013Y-118286587D01*
X152725835Y-118282728D01*
X152650435Y-118259856D01*
X152575033Y-118236983D01*
X152436054Y-118162696D01*
X152314240Y-118062726D01*
X152214270Y-117940912D01*
X152139983Y-117801933D01*
X152094238Y-117651130D01*
X152078792Y-117494304D01*
X152094238Y-117337478D01*
X152139983Y-117186675D01*
X152214270Y-117047696D01*
X152314240Y-116925882D01*
X152436054Y-116825912D01*
X152575033Y-116751625D01*
X152702364Y-116713000D01*
X152725835Y-116705880D01*
X152765013Y-116702021D01*
X152843367Y-116694304D01*
X152921957Y-116694304D01*
X153000311Y-116702021D01*
X153000311Y-116702021D01*
G37*
G36*
X158080311Y-116702021D02*
X158119489Y-116705880D01*
X158142960Y-116713000D01*
X158270291Y-116751625D01*
X158409270Y-116825912D01*
X158531084Y-116925882D01*
X158631054Y-117047696D01*
X158705341Y-117186675D01*
X158751086Y-117337478D01*
X158766532Y-117494304D01*
X158751086Y-117651130D01*
X158705341Y-117801933D01*
X158631054Y-117940912D01*
X158531084Y-118062726D01*
X158409270Y-118162696D01*
X158270291Y-118236983D01*
X158194889Y-118259856D01*
X158119489Y-118282728D01*
X158080311Y-118286587D01*
X158001957Y-118294304D01*
X157923367Y-118294304D01*
X157845013Y-118286587D01*
X157805835Y-118282728D01*
X157730435Y-118259856D01*
X157655033Y-118236983D01*
X157516054Y-118162696D01*
X157394240Y-118062726D01*
X157294270Y-117940912D01*
X157219983Y-117801933D01*
X157174238Y-117651130D01*
X157158792Y-117494304D01*
X157174238Y-117337478D01*
X157219983Y-117186675D01*
X157294270Y-117047696D01*
X157394240Y-116925882D01*
X157516054Y-116825912D01*
X157655033Y-116751625D01*
X157782364Y-116713000D01*
X157805835Y-116705880D01*
X157845013Y-116702021D01*
X157923367Y-116694304D01*
X158001957Y-116694304D01*
X158080311Y-116702021D01*
X158080311Y-116702021D01*
G37*
G36*
X147920311Y-116702021D02*
X147959489Y-116705880D01*
X147982960Y-116713000D01*
X148110291Y-116751625D01*
X148249270Y-116825912D01*
X148371084Y-116925882D01*
X148471054Y-117047696D01*
X148545341Y-117186675D01*
X148591086Y-117337478D01*
X148606532Y-117494304D01*
X148591086Y-117651130D01*
X148545341Y-117801933D01*
X148471054Y-117940912D01*
X148371084Y-118062726D01*
X148249270Y-118162696D01*
X148110291Y-118236983D01*
X148034889Y-118259856D01*
X147959489Y-118282728D01*
X147920311Y-118286587D01*
X147841957Y-118294304D01*
X147763367Y-118294304D01*
X147685013Y-118286587D01*
X147645835Y-118282728D01*
X147570435Y-118259856D01*
X147495033Y-118236983D01*
X147356054Y-118162696D01*
X147234240Y-118062726D01*
X147134270Y-117940912D01*
X147059983Y-117801933D01*
X147014238Y-117651130D01*
X146998792Y-117494304D01*
X147014238Y-117337478D01*
X147059983Y-117186675D01*
X147134270Y-117047696D01*
X147234240Y-116925882D01*
X147356054Y-116825912D01*
X147495033Y-116751625D01*
X147622364Y-116713000D01*
X147645835Y-116705880D01*
X147685013Y-116702021D01*
X147763367Y-116694304D01*
X147841957Y-116694304D01*
X147920311Y-116702021D01*
X147920311Y-116702021D01*
G37*
G36*
X168972662Y-117836304D02*
X167272662Y-117836304D01*
X167272662Y-116136304D01*
X168972662Y-116136304D01*
X168972662Y-117836304D01*
X168972662Y-117836304D01*
G37*
G36*
X166432662Y-117836304D02*
X164732662Y-117836304D01*
X164732662Y-116136304D01*
X166432662Y-116136304D01*
X166432662Y-117836304D01*
X166432662Y-117836304D01*
G37*
G36*
X163892662Y-117836304D02*
X162192662Y-117836304D01*
X162192662Y-116136304D01*
X163892662Y-116136304D01*
X163892662Y-117836304D01*
X163892662Y-117836304D01*
G37*
G36*
X168289292Y-113608603D02*
X168449517Y-113657207D01*
X168597182Y-113736135D01*
X168726611Y-113842355D01*
X168832831Y-113971784D01*
X168911759Y-114119449D01*
X168960363Y-114279674D01*
X168976774Y-114446304D01*
X168960363Y-114612934D01*
X168911759Y-114773159D01*
X168832831Y-114920824D01*
X168726611Y-115050253D01*
X168597182Y-115156473D01*
X168449517Y-115235401D01*
X168289292Y-115284005D01*
X168164414Y-115296304D01*
X168080910Y-115296304D01*
X167956032Y-115284005D01*
X167795807Y-115235401D01*
X167648142Y-115156473D01*
X167518713Y-115050253D01*
X167412493Y-114920824D01*
X167333565Y-114773159D01*
X167284961Y-114612934D01*
X167268550Y-114446304D01*
X167284961Y-114279674D01*
X167333565Y-114119449D01*
X167412493Y-113971784D01*
X167518713Y-113842355D01*
X167648142Y-113736135D01*
X167795807Y-113657207D01*
X167956032Y-113608603D01*
X168080910Y-113596304D01*
X168164414Y-113596304D01*
X168289292Y-113608603D01*
X168289292Y-113608603D01*
G37*
G36*
X163209292Y-113608603D02*
X163369517Y-113657207D01*
X163517182Y-113736135D01*
X163646611Y-113842355D01*
X163752831Y-113971784D01*
X163831759Y-114119449D01*
X163880363Y-114279674D01*
X163896774Y-114446304D01*
X163880363Y-114612934D01*
X163831759Y-114773159D01*
X163752831Y-114920824D01*
X163646611Y-115050253D01*
X163517182Y-115156473D01*
X163369517Y-115235401D01*
X163209292Y-115284005D01*
X163084414Y-115296304D01*
X163000910Y-115296304D01*
X162876032Y-115284005D01*
X162715807Y-115235401D01*
X162568142Y-115156473D01*
X162438713Y-115050253D01*
X162332493Y-114920824D01*
X162253565Y-114773159D01*
X162204961Y-114612934D01*
X162188550Y-114446304D01*
X162204961Y-114279674D01*
X162253565Y-114119449D01*
X162332493Y-113971784D01*
X162438713Y-113842355D01*
X162568142Y-113736135D01*
X162715807Y-113657207D01*
X162876032Y-113608603D01*
X163000910Y-113596304D01*
X163084414Y-113596304D01*
X163209292Y-113608603D01*
X163209292Y-113608603D01*
G37*
G36*
X133364292Y-113608603D02*
X133524517Y-113657207D01*
X133672182Y-113736135D01*
X133801611Y-113842355D01*
X133907831Y-113971784D01*
X133986759Y-114119449D01*
X134035363Y-114279674D01*
X134051774Y-114446304D01*
X134035363Y-114612934D01*
X133986759Y-114773159D01*
X133907831Y-114920824D01*
X133801611Y-115050253D01*
X133672182Y-115156473D01*
X133524517Y-115235401D01*
X133364292Y-115284005D01*
X133239414Y-115296304D01*
X133155910Y-115296304D01*
X133031032Y-115284005D01*
X132870807Y-115235401D01*
X132723142Y-115156473D01*
X132593713Y-115050253D01*
X132487493Y-114920824D01*
X132408565Y-114773159D01*
X132359961Y-114612934D01*
X132343550Y-114446304D01*
X132359961Y-114279674D01*
X132408565Y-114119449D01*
X132487493Y-113971784D01*
X132593713Y-113842355D01*
X132723142Y-113736135D01*
X132870807Y-113657207D01*
X133031032Y-113608603D01*
X133155910Y-113596304D01*
X133239414Y-113596304D01*
X133364292Y-113608603D01*
X133364292Y-113608603D01*
G37*
G36*
X165749292Y-113608603D02*
X165909517Y-113657207D01*
X166057182Y-113736135D01*
X166186611Y-113842355D01*
X166292831Y-113971784D01*
X166371759Y-114119449D01*
X166420363Y-114279674D01*
X166436774Y-114446304D01*
X166420363Y-114612934D01*
X166371759Y-114773159D01*
X166292831Y-114920824D01*
X166186611Y-115050253D01*
X166057182Y-115156473D01*
X165909517Y-115235401D01*
X165749292Y-115284005D01*
X165624414Y-115296304D01*
X165540910Y-115296304D01*
X165416032Y-115284005D01*
X165255807Y-115235401D01*
X165108142Y-115156473D01*
X164978713Y-115050253D01*
X164872493Y-114920824D01*
X164793565Y-114773159D01*
X164744961Y-114612934D01*
X164728550Y-114446304D01*
X164744961Y-114279674D01*
X164793565Y-114119449D01*
X164872493Y-113971784D01*
X164978713Y-113842355D01*
X165108142Y-113736135D01*
X165255807Y-113657207D01*
X165416032Y-113608603D01*
X165540910Y-113596304D01*
X165624414Y-113596304D01*
X165749292Y-113608603D01*
X165749292Y-113608603D01*
G37*
G36*
X128284292Y-113608603D02*
X128444517Y-113657207D01*
X128592182Y-113736135D01*
X128721611Y-113842355D01*
X128827831Y-113971784D01*
X128906759Y-114119449D01*
X128955363Y-114279674D01*
X128971774Y-114446304D01*
X128955363Y-114612934D01*
X128906759Y-114773159D01*
X128827831Y-114920824D01*
X128721611Y-115050253D01*
X128592182Y-115156473D01*
X128444517Y-115235401D01*
X128284292Y-115284005D01*
X128159414Y-115296304D01*
X128075910Y-115296304D01*
X127951032Y-115284005D01*
X127790807Y-115235401D01*
X127643142Y-115156473D01*
X127513713Y-115050253D01*
X127407493Y-114920824D01*
X127328565Y-114773159D01*
X127279961Y-114612934D01*
X127263550Y-114446304D01*
X127279961Y-114279674D01*
X127328565Y-114119449D01*
X127407493Y-113971784D01*
X127513713Y-113842355D01*
X127643142Y-113736135D01*
X127790807Y-113657207D01*
X127951032Y-113608603D01*
X128075910Y-113596304D01*
X128159414Y-113596304D01*
X128284292Y-113608603D01*
X128284292Y-113608603D01*
G37*
G36*
X130824292Y-113608603D02*
X130984517Y-113657207D01*
X131132182Y-113736135D01*
X131261611Y-113842355D01*
X131367831Y-113971784D01*
X131446759Y-114119449D01*
X131495363Y-114279674D01*
X131511774Y-114446304D01*
X131495363Y-114612934D01*
X131446759Y-114773159D01*
X131367831Y-114920824D01*
X131261611Y-115050253D01*
X131132182Y-115156473D01*
X130984517Y-115235401D01*
X130824292Y-115284005D01*
X130699414Y-115296304D01*
X130615910Y-115296304D01*
X130491032Y-115284005D01*
X130330807Y-115235401D01*
X130183142Y-115156473D01*
X130053713Y-115050253D01*
X129947493Y-114920824D01*
X129868565Y-114773159D01*
X129819961Y-114612934D01*
X129803550Y-114446304D01*
X129819961Y-114279674D01*
X129868565Y-114119449D01*
X129947493Y-113971784D01*
X130053713Y-113842355D01*
X130183142Y-113736135D01*
X130330807Y-113657207D01*
X130491032Y-113608603D01*
X130615910Y-113596304D01*
X130699414Y-113596304D01*
X130824292Y-113608603D01*
X130824292Y-113608603D01*
G37*
G36*
X175934630Y-113462299D02*
X176094855Y-113510903D01*
X176242520Y-113589831D01*
X176371949Y-113696051D01*
X176478169Y-113825480D01*
X176557097Y-113973145D01*
X176605701Y-114133370D01*
X176622112Y-114300000D01*
X176605701Y-114466630D01*
X176557097Y-114626855D01*
X176478169Y-114774520D01*
X176371949Y-114903949D01*
X176242520Y-115010169D01*
X176094855Y-115089097D01*
X175934630Y-115137701D01*
X175809752Y-115150000D01*
X175726248Y-115150000D01*
X175601370Y-115137701D01*
X175441145Y-115089097D01*
X175293480Y-115010169D01*
X175164051Y-114903949D01*
X175057831Y-114774520D01*
X174978903Y-114626855D01*
X174930299Y-114466630D01*
X174913888Y-114300000D01*
X174930299Y-114133370D01*
X174978903Y-113973145D01*
X175057831Y-113825480D01*
X175164051Y-113696051D01*
X175293480Y-113589831D01*
X175441145Y-113510903D01*
X175601370Y-113462299D01*
X175726248Y-113450000D01*
X175809752Y-113450000D01*
X175934630Y-113462299D01*
X175934630Y-113462299D01*
G37*
G36*
X168289292Y-111068603D02*
X168449517Y-111117207D01*
X168597182Y-111196135D01*
X168726611Y-111302355D01*
X168832831Y-111431784D01*
X168911759Y-111579449D01*
X168960363Y-111739674D01*
X168976774Y-111906304D01*
X168960363Y-112072934D01*
X168911759Y-112233159D01*
X168832831Y-112380824D01*
X168726611Y-112510253D01*
X168597182Y-112616473D01*
X168449517Y-112695401D01*
X168289292Y-112744005D01*
X168164414Y-112756304D01*
X168080910Y-112756304D01*
X167956032Y-112744005D01*
X167795807Y-112695401D01*
X167648142Y-112616473D01*
X167518713Y-112510253D01*
X167412493Y-112380824D01*
X167333565Y-112233159D01*
X167284961Y-112072934D01*
X167268550Y-111906304D01*
X167284961Y-111739674D01*
X167333565Y-111579449D01*
X167412493Y-111431784D01*
X167518713Y-111302355D01*
X167648142Y-111196135D01*
X167795807Y-111117207D01*
X167956032Y-111068603D01*
X168080910Y-111056304D01*
X168164414Y-111056304D01*
X168289292Y-111068603D01*
X168289292Y-111068603D01*
G37*
G36*
X165749292Y-111068603D02*
X165909517Y-111117207D01*
X166057182Y-111196135D01*
X166186611Y-111302355D01*
X166292831Y-111431784D01*
X166371759Y-111579449D01*
X166420363Y-111739674D01*
X166436774Y-111906304D01*
X166420363Y-112072934D01*
X166371759Y-112233159D01*
X166292831Y-112380824D01*
X166186611Y-112510253D01*
X166057182Y-112616473D01*
X165909517Y-112695401D01*
X165749292Y-112744005D01*
X165624414Y-112756304D01*
X165540910Y-112756304D01*
X165416032Y-112744005D01*
X165255807Y-112695401D01*
X165108142Y-112616473D01*
X164978713Y-112510253D01*
X164872493Y-112380824D01*
X164793565Y-112233159D01*
X164744961Y-112072934D01*
X164728550Y-111906304D01*
X164744961Y-111739674D01*
X164793565Y-111579449D01*
X164872493Y-111431784D01*
X164978713Y-111302355D01*
X165108142Y-111196135D01*
X165255807Y-111117207D01*
X165416032Y-111068603D01*
X165540910Y-111056304D01*
X165624414Y-111056304D01*
X165749292Y-111068603D01*
X165749292Y-111068603D01*
G37*
G36*
X163209292Y-111068603D02*
X163369517Y-111117207D01*
X163517182Y-111196135D01*
X163646611Y-111302355D01*
X163752831Y-111431784D01*
X163831759Y-111579449D01*
X163880363Y-111739674D01*
X163896774Y-111906304D01*
X163880363Y-112072934D01*
X163831759Y-112233159D01*
X163752831Y-112380824D01*
X163646611Y-112510253D01*
X163517182Y-112616473D01*
X163369517Y-112695401D01*
X163209292Y-112744005D01*
X163084414Y-112756304D01*
X163000910Y-112756304D01*
X162876032Y-112744005D01*
X162715807Y-112695401D01*
X162568142Y-112616473D01*
X162438713Y-112510253D01*
X162332493Y-112380824D01*
X162253565Y-112233159D01*
X162204961Y-112072934D01*
X162188550Y-111906304D01*
X162204961Y-111739674D01*
X162253565Y-111579449D01*
X162332493Y-111431784D01*
X162438713Y-111302355D01*
X162568142Y-111196135D01*
X162715807Y-111117207D01*
X162876032Y-111068603D01*
X163000910Y-111056304D01*
X163084414Y-111056304D01*
X163209292Y-111068603D01*
X163209292Y-111068603D01*
G37*
G36*
X128284292Y-111068603D02*
X128444517Y-111117207D01*
X128592182Y-111196135D01*
X128721611Y-111302355D01*
X128827831Y-111431784D01*
X128906759Y-111579449D01*
X128955363Y-111739674D01*
X128971774Y-111906304D01*
X128955363Y-112072934D01*
X128906759Y-112233159D01*
X128827831Y-112380824D01*
X128721611Y-112510253D01*
X128592182Y-112616473D01*
X128444517Y-112695401D01*
X128284292Y-112744005D01*
X128159414Y-112756304D01*
X128075910Y-112756304D01*
X127951032Y-112744005D01*
X127790807Y-112695401D01*
X127643142Y-112616473D01*
X127513713Y-112510253D01*
X127407493Y-112380824D01*
X127328565Y-112233159D01*
X127279961Y-112072934D01*
X127263550Y-111906304D01*
X127279961Y-111739674D01*
X127328565Y-111579449D01*
X127407493Y-111431784D01*
X127513713Y-111302355D01*
X127643142Y-111196135D01*
X127790807Y-111117207D01*
X127951032Y-111068603D01*
X128075910Y-111056304D01*
X128159414Y-111056304D01*
X128284292Y-111068603D01*
X128284292Y-111068603D01*
G37*
G36*
X133364292Y-111068603D02*
X133524517Y-111117207D01*
X133672182Y-111196135D01*
X133801611Y-111302355D01*
X133907831Y-111431784D01*
X133986759Y-111579449D01*
X134035363Y-111739674D01*
X134051774Y-111906304D01*
X134035363Y-112072934D01*
X133986759Y-112233159D01*
X133907831Y-112380824D01*
X133801611Y-112510253D01*
X133672182Y-112616473D01*
X133524517Y-112695401D01*
X133364292Y-112744005D01*
X133239414Y-112756304D01*
X133155910Y-112756304D01*
X133031032Y-112744005D01*
X132870807Y-112695401D01*
X132723142Y-112616473D01*
X132593713Y-112510253D01*
X132487493Y-112380824D01*
X132408565Y-112233159D01*
X132359961Y-112072934D01*
X132343550Y-111906304D01*
X132359961Y-111739674D01*
X132408565Y-111579449D01*
X132487493Y-111431784D01*
X132593713Y-111302355D01*
X132723142Y-111196135D01*
X132870807Y-111117207D01*
X133031032Y-111068603D01*
X133155910Y-111056304D01*
X133239414Y-111056304D01*
X133364292Y-111068603D01*
X133364292Y-111068603D01*
G37*
G36*
X130824292Y-111068603D02*
X130984517Y-111117207D01*
X131132182Y-111196135D01*
X131261611Y-111302355D01*
X131367831Y-111431784D01*
X131446759Y-111579449D01*
X131495363Y-111739674D01*
X131511774Y-111906304D01*
X131495363Y-112072934D01*
X131446759Y-112233159D01*
X131367831Y-112380824D01*
X131261611Y-112510253D01*
X131132182Y-112616473D01*
X130984517Y-112695401D01*
X130824292Y-112744005D01*
X130699414Y-112756304D01*
X130615910Y-112756304D01*
X130491032Y-112744005D01*
X130330807Y-112695401D01*
X130183142Y-112616473D01*
X130053713Y-112510253D01*
X129947493Y-112380824D01*
X129868565Y-112233159D01*
X129819961Y-112072934D01*
X129803550Y-111906304D01*
X129819961Y-111739674D01*
X129868565Y-111579449D01*
X129947493Y-111431784D01*
X130053713Y-111302355D01*
X130183142Y-111196135D01*
X130330807Y-111117207D01*
X130491032Y-111068603D01*
X130615910Y-111056304D01*
X130699414Y-111056304D01*
X130824292Y-111068603D01*
X130824292Y-111068603D01*
G37*
G36*
X175934630Y-110922299D02*
X176094855Y-110970903D01*
X176242520Y-111049831D01*
X176371949Y-111156051D01*
X176478169Y-111285480D01*
X176557097Y-111433145D01*
X176605701Y-111593370D01*
X176622112Y-111760000D01*
X176605701Y-111926630D01*
X176557097Y-112086855D01*
X176478169Y-112234520D01*
X176371949Y-112363949D01*
X176242520Y-112470169D01*
X176094855Y-112549097D01*
X175934630Y-112597701D01*
X175809752Y-112610000D01*
X175726248Y-112610000D01*
X175601370Y-112597701D01*
X175441145Y-112549097D01*
X175293480Y-112470169D01*
X175164051Y-112363949D01*
X175057831Y-112234520D01*
X174978903Y-112086855D01*
X174930299Y-111926630D01*
X174913888Y-111760000D01*
X174930299Y-111593370D01*
X174978903Y-111433145D01*
X175057831Y-111285480D01*
X175164051Y-111156051D01*
X175293480Y-111049831D01*
X175441145Y-110970903D01*
X175601370Y-110922299D01*
X175726248Y-110910000D01*
X175809752Y-110910000D01*
X175934630Y-110922299D01*
X175934630Y-110922299D01*
G37*
G36*
X147920311Y-109082021D02*
X147959489Y-109085880D01*
X148034890Y-109108753D01*
X148110291Y-109131625D01*
X148249270Y-109205912D01*
X148371084Y-109305882D01*
X148471054Y-109427696D01*
X148545341Y-109566675D01*
X148545341Y-109566676D01*
X148591086Y-109717477D01*
X148603234Y-109840823D01*
X148606532Y-109874304D01*
X148591086Y-110031130D01*
X148545341Y-110181933D01*
X148471054Y-110320912D01*
X148371084Y-110442726D01*
X148249270Y-110542696D01*
X148110291Y-110616983D01*
X148034890Y-110639855D01*
X147959489Y-110662728D01*
X147920311Y-110666587D01*
X147841957Y-110674304D01*
X147763367Y-110674304D01*
X147685013Y-110666587D01*
X147645835Y-110662728D01*
X147570434Y-110639855D01*
X147495033Y-110616983D01*
X147356054Y-110542696D01*
X147234240Y-110442726D01*
X147134270Y-110320912D01*
X147059983Y-110181933D01*
X147014238Y-110031130D01*
X146998792Y-109874304D01*
X147002090Y-109840823D01*
X147014238Y-109717477D01*
X147059983Y-109566676D01*
X147059983Y-109566675D01*
X147134270Y-109427696D01*
X147234240Y-109305882D01*
X147356054Y-109205912D01*
X147495033Y-109131625D01*
X147570434Y-109108753D01*
X147645835Y-109085880D01*
X147685013Y-109082021D01*
X147763367Y-109074304D01*
X147841957Y-109074304D01*
X147920311Y-109082021D01*
X147920311Y-109082021D01*
G37*
G36*
X155540311Y-109082021D02*
X155579489Y-109085880D01*
X155654890Y-109108753D01*
X155730291Y-109131625D01*
X155869270Y-109205912D01*
X155991084Y-109305882D01*
X156091054Y-109427696D01*
X156165341Y-109566675D01*
X156165341Y-109566676D01*
X156211086Y-109717477D01*
X156223234Y-109840823D01*
X156226532Y-109874304D01*
X156211086Y-110031130D01*
X156165341Y-110181933D01*
X156091054Y-110320912D01*
X155991084Y-110442726D01*
X155869270Y-110542696D01*
X155730291Y-110616983D01*
X155654890Y-110639855D01*
X155579489Y-110662728D01*
X155540311Y-110666587D01*
X155461957Y-110674304D01*
X155383367Y-110674304D01*
X155305013Y-110666587D01*
X155265835Y-110662728D01*
X155190434Y-110639855D01*
X155115033Y-110616983D01*
X154976054Y-110542696D01*
X154854240Y-110442726D01*
X154754270Y-110320912D01*
X154679983Y-110181933D01*
X154634238Y-110031130D01*
X154618792Y-109874304D01*
X154622090Y-109840823D01*
X154634238Y-109717477D01*
X154679983Y-109566676D01*
X154679983Y-109566675D01*
X154754270Y-109427696D01*
X154854240Y-109305882D01*
X154976054Y-109205912D01*
X155115033Y-109131625D01*
X155190434Y-109108753D01*
X155265835Y-109085880D01*
X155305013Y-109082021D01*
X155383367Y-109074304D01*
X155461957Y-109074304D01*
X155540311Y-109082021D01*
X155540311Y-109082021D01*
G37*
G36*
X150460311Y-109082021D02*
X150499489Y-109085880D01*
X150574890Y-109108753D01*
X150650291Y-109131625D01*
X150789270Y-109205912D01*
X150911084Y-109305882D01*
X151011054Y-109427696D01*
X151085341Y-109566675D01*
X151085341Y-109566676D01*
X151131086Y-109717477D01*
X151143234Y-109840823D01*
X151146532Y-109874304D01*
X151131086Y-110031130D01*
X151085341Y-110181933D01*
X151011054Y-110320912D01*
X150911084Y-110442726D01*
X150789270Y-110542696D01*
X150650291Y-110616983D01*
X150574890Y-110639855D01*
X150499489Y-110662728D01*
X150460311Y-110666587D01*
X150381957Y-110674304D01*
X150303367Y-110674304D01*
X150225013Y-110666587D01*
X150185835Y-110662728D01*
X150110434Y-110639855D01*
X150035033Y-110616983D01*
X149896054Y-110542696D01*
X149774240Y-110442726D01*
X149674270Y-110320912D01*
X149599983Y-110181933D01*
X149554238Y-110031130D01*
X149538792Y-109874304D01*
X149542090Y-109840823D01*
X149554238Y-109717477D01*
X149599983Y-109566676D01*
X149599983Y-109566675D01*
X149674270Y-109427696D01*
X149774240Y-109305882D01*
X149896054Y-109205912D01*
X150035033Y-109131625D01*
X150110434Y-109108753D01*
X150185835Y-109085880D01*
X150225013Y-109082021D01*
X150303367Y-109074304D01*
X150381957Y-109074304D01*
X150460311Y-109082021D01*
X150460311Y-109082021D01*
G37*
G36*
X145380311Y-109082021D02*
X145419489Y-109085880D01*
X145494890Y-109108753D01*
X145570291Y-109131625D01*
X145709270Y-109205912D01*
X145831084Y-109305882D01*
X145931054Y-109427696D01*
X146005341Y-109566675D01*
X146005341Y-109566676D01*
X146051086Y-109717477D01*
X146063234Y-109840823D01*
X146066532Y-109874304D01*
X146051086Y-110031130D01*
X146005341Y-110181933D01*
X145931054Y-110320912D01*
X145831084Y-110442726D01*
X145709270Y-110542696D01*
X145570291Y-110616983D01*
X145494890Y-110639855D01*
X145419489Y-110662728D01*
X145380311Y-110666587D01*
X145301957Y-110674304D01*
X145223367Y-110674304D01*
X145145013Y-110666587D01*
X145105835Y-110662728D01*
X145030434Y-110639855D01*
X144955033Y-110616983D01*
X144816054Y-110542696D01*
X144694240Y-110442726D01*
X144594270Y-110320912D01*
X144519983Y-110181933D01*
X144474238Y-110031130D01*
X144458792Y-109874304D01*
X144462090Y-109840823D01*
X144474238Y-109717477D01*
X144519983Y-109566676D01*
X144519983Y-109566675D01*
X144594270Y-109427696D01*
X144694240Y-109305882D01*
X144816054Y-109205912D01*
X144955033Y-109131625D01*
X145030434Y-109108753D01*
X145105835Y-109085880D01*
X145145013Y-109082021D01*
X145223367Y-109074304D01*
X145301957Y-109074304D01*
X145380311Y-109082021D01*
X145380311Y-109082021D01*
G37*
G36*
X142840311Y-109082021D02*
X142879489Y-109085880D01*
X142954890Y-109108753D01*
X143030291Y-109131625D01*
X143169270Y-109205912D01*
X143291084Y-109305882D01*
X143391054Y-109427696D01*
X143465341Y-109566675D01*
X143465341Y-109566676D01*
X143511086Y-109717477D01*
X143523234Y-109840823D01*
X143526532Y-109874304D01*
X143511086Y-110031130D01*
X143465341Y-110181933D01*
X143391054Y-110320912D01*
X143291084Y-110442726D01*
X143169270Y-110542696D01*
X143030291Y-110616983D01*
X142954890Y-110639855D01*
X142879489Y-110662728D01*
X142840311Y-110666587D01*
X142761957Y-110674304D01*
X142683367Y-110674304D01*
X142605013Y-110666587D01*
X142565835Y-110662728D01*
X142490434Y-110639855D01*
X142415033Y-110616983D01*
X142276054Y-110542696D01*
X142154240Y-110442726D01*
X142054270Y-110320912D01*
X141979983Y-110181933D01*
X141934238Y-110031130D01*
X141918792Y-109874304D01*
X141922090Y-109840823D01*
X141934238Y-109717477D01*
X141979983Y-109566676D01*
X141979983Y-109566675D01*
X142054270Y-109427696D01*
X142154240Y-109305882D01*
X142276054Y-109205912D01*
X142415033Y-109131625D01*
X142490434Y-109108753D01*
X142565835Y-109085880D01*
X142605013Y-109082021D01*
X142683367Y-109074304D01*
X142761957Y-109074304D01*
X142840311Y-109082021D01*
X142840311Y-109082021D01*
G37*
G36*
X140300311Y-109082021D02*
X140339489Y-109085880D01*
X140414890Y-109108753D01*
X140490291Y-109131625D01*
X140629270Y-109205912D01*
X140751084Y-109305882D01*
X140851054Y-109427696D01*
X140925341Y-109566675D01*
X140925341Y-109566676D01*
X140971086Y-109717477D01*
X140983234Y-109840823D01*
X140986532Y-109874304D01*
X140971086Y-110031130D01*
X140925341Y-110181933D01*
X140851054Y-110320912D01*
X140751084Y-110442726D01*
X140629270Y-110542696D01*
X140490291Y-110616983D01*
X140414890Y-110639855D01*
X140339489Y-110662728D01*
X140300311Y-110666587D01*
X140221957Y-110674304D01*
X140143367Y-110674304D01*
X140065013Y-110666587D01*
X140025835Y-110662728D01*
X139950434Y-110639855D01*
X139875033Y-110616983D01*
X139736054Y-110542696D01*
X139614240Y-110442726D01*
X139514270Y-110320912D01*
X139439983Y-110181933D01*
X139394238Y-110031130D01*
X139378792Y-109874304D01*
X139382090Y-109840823D01*
X139394238Y-109717477D01*
X139439983Y-109566676D01*
X139439983Y-109566675D01*
X139514270Y-109427696D01*
X139614240Y-109305882D01*
X139736054Y-109205912D01*
X139875033Y-109131625D01*
X139950434Y-109108753D01*
X140025835Y-109085880D01*
X140065013Y-109082021D01*
X140143367Y-109074304D01*
X140221957Y-109074304D01*
X140300311Y-109082021D01*
X140300311Y-109082021D01*
G37*
G36*
X153000311Y-109082021D02*
X153039489Y-109085880D01*
X153114890Y-109108753D01*
X153190291Y-109131625D01*
X153329270Y-109205912D01*
X153451084Y-109305882D01*
X153551054Y-109427696D01*
X153625341Y-109566675D01*
X153625341Y-109566676D01*
X153671086Y-109717477D01*
X153683234Y-109840823D01*
X153686532Y-109874304D01*
X153671086Y-110031130D01*
X153625341Y-110181933D01*
X153551054Y-110320912D01*
X153451084Y-110442726D01*
X153329270Y-110542696D01*
X153190291Y-110616983D01*
X153114890Y-110639855D01*
X153039489Y-110662728D01*
X153000311Y-110666587D01*
X152921957Y-110674304D01*
X152843367Y-110674304D01*
X152765013Y-110666587D01*
X152725835Y-110662728D01*
X152650434Y-110639855D01*
X152575033Y-110616983D01*
X152436054Y-110542696D01*
X152314240Y-110442726D01*
X152214270Y-110320912D01*
X152139983Y-110181933D01*
X152094238Y-110031130D01*
X152078792Y-109874304D01*
X152082090Y-109840823D01*
X152094238Y-109717477D01*
X152139983Y-109566676D01*
X152139983Y-109566675D01*
X152214270Y-109427696D01*
X152314240Y-109305882D01*
X152436054Y-109205912D01*
X152575033Y-109131625D01*
X152650434Y-109108753D01*
X152725835Y-109085880D01*
X152765013Y-109082021D01*
X152843367Y-109074304D01*
X152921957Y-109074304D01*
X153000311Y-109082021D01*
X153000311Y-109082021D01*
G37*
G36*
X158080311Y-109082021D02*
X158119489Y-109085880D01*
X158194890Y-109108753D01*
X158270291Y-109131625D01*
X158409270Y-109205912D01*
X158531084Y-109305882D01*
X158631054Y-109427696D01*
X158705341Y-109566675D01*
X158705341Y-109566676D01*
X158751086Y-109717477D01*
X158763234Y-109840823D01*
X158766532Y-109874304D01*
X158751086Y-110031130D01*
X158705341Y-110181933D01*
X158631054Y-110320912D01*
X158531084Y-110442726D01*
X158409270Y-110542696D01*
X158270291Y-110616983D01*
X158194890Y-110639855D01*
X158119489Y-110662728D01*
X158080311Y-110666587D01*
X158001957Y-110674304D01*
X157923367Y-110674304D01*
X157845013Y-110666587D01*
X157805835Y-110662728D01*
X157730434Y-110639855D01*
X157655033Y-110616983D01*
X157516054Y-110542696D01*
X157394240Y-110442726D01*
X157294270Y-110320912D01*
X157219983Y-110181933D01*
X157174238Y-110031130D01*
X157158792Y-109874304D01*
X157162090Y-109840823D01*
X157174238Y-109717477D01*
X157219983Y-109566676D01*
X157219983Y-109566675D01*
X157294270Y-109427696D01*
X157394240Y-109305882D01*
X157516054Y-109205912D01*
X157655033Y-109131625D01*
X157730434Y-109108753D01*
X157805835Y-109085880D01*
X157845013Y-109082021D01*
X157923367Y-109074304D01*
X158001957Y-109074304D01*
X158080311Y-109082021D01*
X158080311Y-109082021D01*
G37*
G36*
X128284292Y-108528603D02*
X128444517Y-108577207D01*
X128592182Y-108656135D01*
X128721611Y-108762355D01*
X128827831Y-108891784D01*
X128906759Y-109039449D01*
X128955363Y-109199674D01*
X128971774Y-109366304D01*
X128955363Y-109532934D01*
X128906759Y-109693159D01*
X128827831Y-109840824D01*
X128721611Y-109970253D01*
X128592182Y-110076473D01*
X128444517Y-110155401D01*
X128284292Y-110204005D01*
X128159414Y-110216304D01*
X128075910Y-110216304D01*
X127951032Y-110204005D01*
X127790807Y-110155401D01*
X127643142Y-110076473D01*
X127513713Y-109970253D01*
X127407493Y-109840824D01*
X127328565Y-109693159D01*
X127279961Y-109532934D01*
X127263550Y-109366304D01*
X127279961Y-109199674D01*
X127328565Y-109039449D01*
X127407493Y-108891784D01*
X127513713Y-108762355D01*
X127643142Y-108656135D01*
X127790807Y-108577207D01*
X127951032Y-108528603D01*
X128075910Y-108516304D01*
X128159414Y-108516304D01*
X128284292Y-108528603D01*
X128284292Y-108528603D01*
G37*
G36*
X168289292Y-108528603D02*
X168449517Y-108577207D01*
X168597182Y-108656135D01*
X168726611Y-108762355D01*
X168832831Y-108891784D01*
X168911759Y-109039449D01*
X168960363Y-109199674D01*
X168976774Y-109366304D01*
X168960363Y-109532934D01*
X168911759Y-109693159D01*
X168832831Y-109840824D01*
X168726611Y-109970253D01*
X168597182Y-110076473D01*
X168449517Y-110155401D01*
X168289292Y-110204005D01*
X168164414Y-110216304D01*
X168080910Y-110216304D01*
X167956032Y-110204005D01*
X167795807Y-110155401D01*
X167648142Y-110076473D01*
X167518713Y-109970253D01*
X167412493Y-109840824D01*
X167333565Y-109693159D01*
X167284961Y-109532934D01*
X167268550Y-109366304D01*
X167284961Y-109199674D01*
X167333565Y-109039449D01*
X167412493Y-108891784D01*
X167518713Y-108762355D01*
X167648142Y-108656135D01*
X167795807Y-108577207D01*
X167956032Y-108528603D01*
X168080910Y-108516304D01*
X168164414Y-108516304D01*
X168289292Y-108528603D01*
X168289292Y-108528603D01*
G37*
G36*
X165749292Y-108528603D02*
X165909517Y-108577207D01*
X166057182Y-108656135D01*
X166186611Y-108762355D01*
X166292831Y-108891784D01*
X166371759Y-109039449D01*
X166420363Y-109199674D01*
X166436774Y-109366304D01*
X166420363Y-109532934D01*
X166371759Y-109693159D01*
X166292831Y-109840824D01*
X166186611Y-109970253D01*
X166057182Y-110076473D01*
X165909517Y-110155401D01*
X165749292Y-110204005D01*
X165624414Y-110216304D01*
X165540910Y-110216304D01*
X165416032Y-110204005D01*
X165255807Y-110155401D01*
X165108142Y-110076473D01*
X164978713Y-109970253D01*
X164872493Y-109840824D01*
X164793565Y-109693159D01*
X164744961Y-109532934D01*
X164728550Y-109366304D01*
X164744961Y-109199674D01*
X164793565Y-109039449D01*
X164872493Y-108891784D01*
X164978713Y-108762355D01*
X165108142Y-108656135D01*
X165255807Y-108577207D01*
X165416032Y-108528603D01*
X165540910Y-108516304D01*
X165624414Y-108516304D01*
X165749292Y-108528603D01*
X165749292Y-108528603D01*
G37*
G36*
X163209292Y-108528603D02*
X163369517Y-108577207D01*
X163517182Y-108656135D01*
X163646611Y-108762355D01*
X163752831Y-108891784D01*
X163831759Y-109039449D01*
X163880363Y-109199674D01*
X163896774Y-109366304D01*
X163880363Y-109532934D01*
X163831759Y-109693159D01*
X163752831Y-109840824D01*
X163646611Y-109970253D01*
X163517182Y-110076473D01*
X163369517Y-110155401D01*
X163209292Y-110204005D01*
X163084414Y-110216304D01*
X163000910Y-110216304D01*
X162876032Y-110204005D01*
X162715807Y-110155401D01*
X162568142Y-110076473D01*
X162438713Y-109970253D01*
X162332493Y-109840824D01*
X162253565Y-109693159D01*
X162204961Y-109532934D01*
X162188550Y-109366304D01*
X162204961Y-109199674D01*
X162253565Y-109039449D01*
X162332493Y-108891784D01*
X162438713Y-108762355D01*
X162568142Y-108656135D01*
X162715807Y-108577207D01*
X162876032Y-108528603D01*
X163000910Y-108516304D01*
X163084414Y-108516304D01*
X163209292Y-108528603D01*
X163209292Y-108528603D01*
G37*
G36*
X133364292Y-108528603D02*
X133524517Y-108577207D01*
X133672182Y-108656135D01*
X133801611Y-108762355D01*
X133907831Y-108891784D01*
X133986759Y-109039449D01*
X134035363Y-109199674D01*
X134051774Y-109366304D01*
X134035363Y-109532934D01*
X133986759Y-109693159D01*
X133907831Y-109840824D01*
X133801611Y-109970253D01*
X133672182Y-110076473D01*
X133524517Y-110155401D01*
X133364292Y-110204005D01*
X133239414Y-110216304D01*
X133155910Y-110216304D01*
X133031032Y-110204005D01*
X132870807Y-110155401D01*
X132723142Y-110076473D01*
X132593713Y-109970253D01*
X132487493Y-109840824D01*
X132408565Y-109693159D01*
X132359961Y-109532934D01*
X132343550Y-109366304D01*
X132359961Y-109199674D01*
X132408565Y-109039449D01*
X132487493Y-108891784D01*
X132593713Y-108762355D01*
X132723142Y-108656135D01*
X132870807Y-108577207D01*
X133031032Y-108528603D01*
X133155910Y-108516304D01*
X133239414Y-108516304D01*
X133364292Y-108528603D01*
X133364292Y-108528603D01*
G37*
G36*
X130824292Y-108528603D02*
X130984517Y-108577207D01*
X131132182Y-108656135D01*
X131261611Y-108762355D01*
X131367831Y-108891784D01*
X131446759Y-109039449D01*
X131495363Y-109199674D01*
X131511774Y-109366304D01*
X131495363Y-109532934D01*
X131446759Y-109693159D01*
X131367831Y-109840824D01*
X131261611Y-109970253D01*
X131132182Y-110076473D01*
X130984517Y-110155401D01*
X130824292Y-110204005D01*
X130699414Y-110216304D01*
X130615910Y-110216304D01*
X130491032Y-110204005D01*
X130330807Y-110155401D01*
X130183142Y-110076473D01*
X130053713Y-109970253D01*
X129947493Y-109840824D01*
X129868565Y-109693159D01*
X129819961Y-109532934D01*
X129803550Y-109366304D01*
X129819961Y-109199674D01*
X129868565Y-109039449D01*
X129947493Y-108891784D01*
X130053713Y-108762355D01*
X130183142Y-108656135D01*
X130330807Y-108577207D01*
X130491032Y-108528603D01*
X130615910Y-108516304D01*
X130699414Y-108516304D01*
X130824292Y-108528603D01*
X130824292Y-108528603D01*
G37*
G36*
X175934630Y-108382299D02*
X176094855Y-108430903D01*
X176242520Y-108509831D01*
X176371949Y-108616051D01*
X176478169Y-108745480D01*
X176557097Y-108893145D01*
X176605701Y-109053370D01*
X176622112Y-109220000D01*
X176605701Y-109386630D01*
X176557097Y-109546855D01*
X176478169Y-109694520D01*
X176371949Y-109823949D01*
X176242520Y-109930169D01*
X176094855Y-110009097D01*
X175934630Y-110057701D01*
X175809752Y-110070000D01*
X175726248Y-110070000D01*
X175601370Y-110057701D01*
X175441145Y-110009097D01*
X175293480Y-109930169D01*
X175164051Y-109823949D01*
X175057831Y-109694520D01*
X174978903Y-109546855D01*
X174930299Y-109386630D01*
X174913888Y-109220000D01*
X174930299Y-109053370D01*
X174978903Y-108893145D01*
X175057831Y-108745480D01*
X175164051Y-108616051D01*
X175293480Y-108509831D01*
X175441145Y-108430903D01*
X175601370Y-108382299D01*
X175726248Y-108370000D01*
X175809752Y-108370000D01*
X175934630Y-108382299D01*
X175934630Y-108382299D01*
G37*
G36*
X130824292Y-105988603D02*
X130984517Y-106037207D01*
X131132182Y-106116135D01*
X131261611Y-106222355D01*
X131367831Y-106351784D01*
X131446759Y-106499449D01*
X131495363Y-106659674D01*
X131511774Y-106826304D01*
X131495363Y-106992934D01*
X131446759Y-107153159D01*
X131367831Y-107300824D01*
X131261611Y-107430253D01*
X131132182Y-107536473D01*
X130984517Y-107615401D01*
X130824292Y-107664005D01*
X130699414Y-107676304D01*
X130615910Y-107676304D01*
X130491032Y-107664005D01*
X130330807Y-107615401D01*
X130183142Y-107536473D01*
X130053713Y-107430253D01*
X129947493Y-107300824D01*
X129868565Y-107153159D01*
X129819961Y-106992934D01*
X129803550Y-106826304D01*
X129819961Y-106659674D01*
X129868565Y-106499449D01*
X129947493Y-106351784D01*
X130053713Y-106222355D01*
X130183142Y-106116135D01*
X130330807Y-106037207D01*
X130491032Y-105988603D01*
X130615910Y-105976304D01*
X130699414Y-105976304D01*
X130824292Y-105988603D01*
X130824292Y-105988603D01*
G37*
G36*
X133364292Y-105988603D02*
X133524517Y-106037207D01*
X133672182Y-106116135D01*
X133801611Y-106222355D01*
X133907831Y-106351784D01*
X133986759Y-106499449D01*
X134035363Y-106659674D01*
X134051774Y-106826304D01*
X134035363Y-106992934D01*
X133986759Y-107153159D01*
X133907831Y-107300824D01*
X133801611Y-107430253D01*
X133672182Y-107536473D01*
X133524517Y-107615401D01*
X133364292Y-107664005D01*
X133239414Y-107676304D01*
X133155910Y-107676304D01*
X133031032Y-107664005D01*
X132870807Y-107615401D01*
X132723142Y-107536473D01*
X132593713Y-107430253D01*
X132487493Y-107300824D01*
X132408565Y-107153159D01*
X132359961Y-106992934D01*
X132343550Y-106826304D01*
X132359961Y-106659674D01*
X132408565Y-106499449D01*
X132487493Y-106351784D01*
X132593713Y-106222355D01*
X132723142Y-106116135D01*
X132870807Y-106037207D01*
X133031032Y-105988603D01*
X133155910Y-105976304D01*
X133239414Y-105976304D01*
X133364292Y-105988603D01*
X133364292Y-105988603D01*
G37*
G36*
X128284292Y-105988603D02*
X128444517Y-106037207D01*
X128592182Y-106116135D01*
X128721611Y-106222355D01*
X128827831Y-106351784D01*
X128906759Y-106499449D01*
X128955363Y-106659674D01*
X128971774Y-106826304D01*
X128955363Y-106992934D01*
X128906759Y-107153159D01*
X128827831Y-107300824D01*
X128721611Y-107430253D01*
X128592182Y-107536473D01*
X128444517Y-107615401D01*
X128284292Y-107664005D01*
X128159414Y-107676304D01*
X128075910Y-107676304D01*
X127951032Y-107664005D01*
X127790807Y-107615401D01*
X127643142Y-107536473D01*
X127513713Y-107430253D01*
X127407493Y-107300824D01*
X127328565Y-107153159D01*
X127279961Y-106992934D01*
X127263550Y-106826304D01*
X127279961Y-106659674D01*
X127328565Y-106499449D01*
X127407493Y-106351784D01*
X127513713Y-106222355D01*
X127643142Y-106116135D01*
X127790807Y-106037207D01*
X127951032Y-105988603D01*
X128075910Y-105976304D01*
X128159414Y-105976304D01*
X128284292Y-105988603D01*
X128284292Y-105988603D01*
G37*
G36*
X165749292Y-105988603D02*
X165909517Y-106037207D01*
X166057182Y-106116135D01*
X166186611Y-106222355D01*
X166292831Y-106351784D01*
X166371759Y-106499449D01*
X166420363Y-106659674D01*
X166436774Y-106826304D01*
X166420363Y-106992934D01*
X166371759Y-107153159D01*
X166292831Y-107300824D01*
X166186611Y-107430253D01*
X166057182Y-107536473D01*
X165909517Y-107615401D01*
X165749292Y-107664005D01*
X165624414Y-107676304D01*
X165540910Y-107676304D01*
X165416032Y-107664005D01*
X165255807Y-107615401D01*
X165108142Y-107536473D01*
X164978713Y-107430253D01*
X164872493Y-107300824D01*
X164793565Y-107153159D01*
X164744961Y-106992934D01*
X164728550Y-106826304D01*
X164744961Y-106659674D01*
X164793565Y-106499449D01*
X164872493Y-106351784D01*
X164978713Y-106222355D01*
X165108142Y-106116135D01*
X165255807Y-106037207D01*
X165416032Y-105988603D01*
X165540910Y-105976304D01*
X165624414Y-105976304D01*
X165749292Y-105988603D01*
X165749292Y-105988603D01*
G37*
G36*
X163209292Y-105988603D02*
X163369517Y-106037207D01*
X163517182Y-106116135D01*
X163646611Y-106222355D01*
X163752831Y-106351784D01*
X163831759Y-106499449D01*
X163880363Y-106659674D01*
X163896774Y-106826304D01*
X163880363Y-106992934D01*
X163831759Y-107153159D01*
X163752831Y-107300824D01*
X163646611Y-107430253D01*
X163517182Y-107536473D01*
X163369517Y-107615401D01*
X163209292Y-107664005D01*
X163084414Y-107676304D01*
X163000910Y-107676304D01*
X162876032Y-107664005D01*
X162715807Y-107615401D01*
X162568142Y-107536473D01*
X162438713Y-107430253D01*
X162332493Y-107300824D01*
X162253565Y-107153159D01*
X162204961Y-106992934D01*
X162188550Y-106826304D01*
X162204961Y-106659674D01*
X162253565Y-106499449D01*
X162332493Y-106351784D01*
X162438713Y-106222355D01*
X162568142Y-106116135D01*
X162715807Y-106037207D01*
X162876032Y-105988603D01*
X163000910Y-105976304D01*
X163084414Y-105976304D01*
X163209292Y-105988603D01*
X163209292Y-105988603D01*
G37*
G36*
X168289292Y-105988603D02*
X168449517Y-106037207D01*
X168597182Y-106116135D01*
X168726611Y-106222355D01*
X168832831Y-106351784D01*
X168911759Y-106499449D01*
X168960363Y-106659674D01*
X168976774Y-106826304D01*
X168960363Y-106992934D01*
X168911759Y-107153159D01*
X168832831Y-107300824D01*
X168726611Y-107430253D01*
X168597182Y-107536473D01*
X168449517Y-107615401D01*
X168289292Y-107664005D01*
X168164414Y-107676304D01*
X168080910Y-107676304D01*
X167956032Y-107664005D01*
X167795807Y-107615401D01*
X167648142Y-107536473D01*
X167518713Y-107430253D01*
X167412493Y-107300824D01*
X167333565Y-107153159D01*
X167284961Y-106992934D01*
X167268550Y-106826304D01*
X167284961Y-106659674D01*
X167333565Y-106499449D01*
X167412493Y-106351784D01*
X167518713Y-106222355D01*
X167648142Y-106116135D01*
X167795807Y-106037207D01*
X167956032Y-105988603D01*
X168080910Y-105976304D01*
X168164414Y-105976304D01*
X168289292Y-105988603D01*
X168289292Y-105988603D01*
G37*
G36*
X176618000Y-107530000D02*
X174918000Y-107530000D01*
X174918000Y-105830000D01*
X176618000Y-105830000D01*
X176618000Y-107530000D01*
X176618000Y-107530000D01*
G37*
G36*
X153025649Y-105252717D02*
X153064827Y-105256576D01*
X153140227Y-105279448D01*
X153215629Y-105302321D01*
X153354608Y-105376608D01*
X153476422Y-105476578D01*
X153576392Y-105598392D01*
X153650679Y-105737371D01*
X153650679Y-105737372D01*
X153696424Y-105888173D01*
X153711870Y-106045000D01*
X153696424Y-106201827D01*
X153673552Y-106277227D01*
X153650679Y-106352629D01*
X153576392Y-106491608D01*
X153476422Y-106613422D01*
X153354608Y-106713392D01*
X153215629Y-106787679D01*
X153140227Y-106810552D01*
X153064827Y-106833424D01*
X153025649Y-106837283D01*
X152947295Y-106845000D01*
X152868705Y-106845000D01*
X152790351Y-106837283D01*
X152751173Y-106833424D01*
X152675773Y-106810552D01*
X152600371Y-106787679D01*
X152461392Y-106713392D01*
X152339578Y-106613422D01*
X152239608Y-106491608D01*
X152165321Y-106352629D01*
X152142449Y-106277228D01*
X152119576Y-106201827D01*
X152104130Y-106045000D01*
X152119576Y-105888173D01*
X152165321Y-105737372D01*
X152165321Y-105737371D01*
X152239608Y-105598392D01*
X152339578Y-105476578D01*
X152461392Y-105376608D01*
X152600371Y-105302321D01*
X152675773Y-105279448D01*
X152751173Y-105256576D01*
X152790351Y-105252717D01*
X152868705Y-105245000D01*
X152947295Y-105245000D01*
X153025649Y-105252717D01*
X153025649Y-105252717D01*
G37*
G36*
X147945649Y-105252717D02*
X147984827Y-105256576D01*
X148060227Y-105279448D01*
X148135629Y-105302321D01*
X148274608Y-105376608D01*
X148396422Y-105476578D01*
X148496392Y-105598392D01*
X148570679Y-105737371D01*
X148570679Y-105737372D01*
X148616424Y-105888173D01*
X148631870Y-106045000D01*
X148616424Y-106201827D01*
X148593552Y-106277227D01*
X148570679Y-106352629D01*
X148496392Y-106491608D01*
X148396422Y-106613422D01*
X148274608Y-106713392D01*
X148135629Y-106787679D01*
X148060227Y-106810552D01*
X147984827Y-106833424D01*
X147945649Y-106837283D01*
X147867295Y-106845000D01*
X147788705Y-106845000D01*
X147710351Y-106837283D01*
X147671173Y-106833424D01*
X147595773Y-106810552D01*
X147520371Y-106787679D01*
X147381392Y-106713392D01*
X147259578Y-106613422D01*
X147159608Y-106491608D01*
X147085321Y-106352629D01*
X147062449Y-106277228D01*
X147039576Y-106201827D01*
X147024130Y-106045000D01*
X147039576Y-105888173D01*
X147085321Y-105737372D01*
X147085321Y-105737371D01*
X147159608Y-105598392D01*
X147259578Y-105476578D01*
X147381392Y-105376608D01*
X147520371Y-105302321D01*
X147595773Y-105279448D01*
X147671173Y-105256576D01*
X147710351Y-105252717D01*
X147788705Y-105245000D01*
X147867295Y-105245000D01*
X147945649Y-105252717D01*
X147945649Y-105252717D01*
G37*
G36*
X155565649Y-105252717D02*
X155604827Y-105256576D01*
X155680227Y-105279448D01*
X155755629Y-105302321D01*
X155894608Y-105376608D01*
X156016422Y-105476578D01*
X156116392Y-105598392D01*
X156190679Y-105737371D01*
X156190679Y-105737372D01*
X156236424Y-105888173D01*
X156251870Y-106045000D01*
X156236424Y-106201827D01*
X156213552Y-106277227D01*
X156190679Y-106352629D01*
X156116392Y-106491608D01*
X156016422Y-106613422D01*
X155894608Y-106713392D01*
X155755629Y-106787679D01*
X155680227Y-106810552D01*
X155604827Y-106833424D01*
X155565649Y-106837283D01*
X155487295Y-106845000D01*
X155408705Y-106845000D01*
X155330351Y-106837283D01*
X155291173Y-106833424D01*
X155215773Y-106810552D01*
X155140371Y-106787679D01*
X155001392Y-106713392D01*
X154879578Y-106613422D01*
X154779608Y-106491608D01*
X154705321Y-106352629D01*
X154682449Y-106277228D01*
X154659576Y-106201827D01*
X154644130Y-106045000D01*
X154659576Y-105888173D01*
X154705321Y-105737372D01*
X154705321Y-105737371D01*
X154779608Y-105598392D01*
X154879578Y-105476578D01*
X155001392Y-105376608D01*
X155140371Y-105302321D01*
X155215773Y-105279448D01*
X155291173Y-105256576D01*
X155330351Y-105252717D01*
X155408705Y-105245000D01*
X155487295Y-105245000D01*
X155565649Y-105252717D01*
X155565649Y-105252717D01*
G37*
G36*
X158105649Y-105252717D02*
X158144827Y-105256576D01*
X158220227Y-105279448D01*
X158295629Y-105302321D01*
X158434608Y-105376608D01*
X158556422Y-105476578D01*
X158656392Y-105598392D01*
X158730679Y-105737371D01*
X158730679Y-105737372D01*
X158776424Y-105888173D01*
X158791870Y-106045000D01*
X158776424Y-106201827D01*
X158753552Y-106277227D01*
X158730679Y-106352629D01*
X158656392Y-106491608D01*
X158556422Y-106613422D01*
X158434608Y-106713392D01*
X158295629Y-106787679D01*
X158220227Y-106810552D01*
X158144827Y-106833424D01*
X158105649Y-106837283D01*
X158027295Y-106845000D01*
X157948705Y-106845000D01*
X157870351Y-106837283D01*
X157831173Y-106833424D01*
X157755773Y-106810552D01*
X157680371Y-106787679D01*
X157541392Y-106713392D01*
X157419578Y-106613422D01*
X157319608Y-106491608D01*
X157245321Y-106352629D01*
X157222449Y-106277228D01*
X157199576Y-106201827D01*
X157184130Y-106045000D01*
X157199576Y-105888173D01*
X157245321Y-105737372D01*
X157245321Y-105737371D01*
X157319608Y-105598392D01*
X157419578Y-105476578D01*
X157541392Y-105376608D01*
X157680371Y-105302321D01*
X157755773Y-105279448D01*
X157831173Y-105256576D01*
X157870351Y-105252717D01*
X157948705Y-105245000D01*
X158027295Y-105245000D01*
X158105649Y-105252717D01*
X158105649Y-105252717D01*
G37*
G36*
X145405649Y-105252717D02*
X145444827Y-105256576D01*
X145520227Y-105279448D01*
X145595629Y-105302321D01*
X145734608Y-105376608D01*
X145856422Y-105476578D01*
X145956392Y-105598392D01*
X146030679Y-105737371D01*
X146030679Y-105737372D01*
X146076424Y-105888173D01*
X146091870Y-106045000D01*
X146076424Y-106201827D01*
X146053552Y-106277227D01*
X146030679Y-106352629D01*
X145956392Y-106491608D01*
X145856422Y-106613422D01*
X145734608Y-106713392D01*
X145595629Y-106787679D01*
X145520227Y-106810552D01*
X145444827Y-106833424D01*
X145405649Y-106837283D01*
X145327295Y-106845000D01*
X145248705Y-106845000D01*
X145170351Y-106837283D01*
X145131173Y-106833424D01*
X145055773Y-106810552D01*
X144980371Y-106787679D01*
X144841392Y-106713392D01*
X144719578Y-106613422D01*
X144619608Y-106491608D01*
X144545321Y-106352629D01*
X144522449Y-106277228D01*
X144499576Y-106201827D01*
X144484130Y-106045000D01*
X144499576Y-105888173D01*
X144545321Y-105737372D01*
X144545321Y-105737371D01*
X144619608Y-105598392D01*
X144719578Y-105476578D01*
X144841392Y-105376608D01*
X144980371Y-105302321D01*
X145055773Y-105279448D01*
X145131173Y-105256576D01*
X145170351Y-105252717D01*
X145248705Y-105245000D01*
X145327295Y-105245000D01*
X145405649Y-105252717D01*
X145405649Y-105252717D01*
G37*
G36*
X142865649Y-105252717D02*
X142904827Y-105256576D01*
X142980227Y-105279448D01*
X143055629Y-105302321D01*
X143194608Y-105376608D01*
X143316422Y-105476578D01*
X143416392Y-105598392D01*
X143490679Y-105737371D01*
X143490679Y-105737372D01*
X143536424Y-105888173D01*
X143551870Y-106045000D01*
X143536424Y-106201827D01*
X143513552Y-106277227D01*
X143490679Y-106352629D01*
X143416392Y-106491608D01*
X143316422Y-106613422D01*
X143194608Y-106713392D01*
X143055629Y-106787679D01*
X142980227Y-106810552D01*
X142904827Y-106833424D01*
X142865649Y-106837283D01*
X142787295Y-106845000D01*
X142708705Y-106845000D01*
X142630351Y-106837283D01*
X142591173Y-106833424D01*
X142515773Y-106810552D01*
X142440371Y-106787679D01*
X142301392Y-106713392D01*
X142179578Y-106613422D01*
X142079608Y-106491608D01*
X142005321Y-106352629D01*
X141982449Y-106277228D01*
X141959576Y-106201827D01*
X141944130Y-106045000D01*
X141959576Y-105888173D01*
X142005321Y-105737372D01*
X142005321Y-105737371D01*
X142079608Y-105598392D01*
X142179578Y-105476578D01*
X142301392Y-105376608D01*
X142440371Y-105302321D01*
X142515773Y-105279448D01*
X142591173Y-105256576D01*
X142630351Y-105252717D01*
X142708705Y-105245000D01*
X142787295Y-105245000D01*
X142865649Y-105252717D01*
X142865649Y-105252717D01*
G37*
G36*
X140325649Y-105252717D02*
X140364827Y-105256576D01*
X140440227Y-105279448D01*
X140515629Y-105302321D01*
X140654608Y-105376608D01*
X140776422Y-105476578D01*
X140876392Y-105598392D01*
X140950679Y-105737371D01*
X140950679Y-105737372D01*
X140996424Y-105888173D01*
X141011870Y-106045000D01*
X140996424Y-106201827D01*
X140973552Y-106277227D01*
X140950679Y-106352629D01*
X140876392Y-106491608D01*
X140776422Y-106613422D01*
X140654608Y-106713392D01*
X140515629Y-106787679D01*
X140440227Y-106810552D01*
X140364827Y-106833424D01*
X140325649Y-106837283D01*
X140247295Y-106845000D01*
X140168705Y-106845000D01*
X140090351Y-106837283D01*
X140051173Y-106833424D01*
X139975773Y-106810552D01*
X139900371Y-106787679D01*
X139761392Y-106713392D01*
X139639578Y-106613422D01*
X139539608Y-106491608D01*
X139465321Y-106352629D01*
X139442449Y-106277228D01*
X139419576Y-106201827D01*
X139404130Y-106045000D01*
X139419576Y-105888173D01*
X139465321Y-105737372D01*
X139465321Y-105737371D01*
X139539608Y-105598392D01*
X139639578Y-105476578D01*
X139761392Y-105376608D01*
X139900371Y-105302321D01*
X139975773Y-105279448D01*
X140051173Y-105256576D01*
X140090351Y-105252717D01*
X140168705Y-105245000D01*
X140247295Y-105245000D01*
X140325649Y-105252717D01*
X140325649Y-105252717D01*
G37*
G36*
X150485649Y-105252717D02*
X150524827Y-105256576D01*
X150600227Y-105279448D01*
X150675629Y-105302321D01*
X150814608Y-105376608D01*
X150936422Y-105476578D01*
X151036392Y-105598392D01*
X151110679Y-105737371D01*
X151110679Y-105737372D01*
X151156424Y-105888173D01*
X151171870Y-106045000D01*
X151156424Y-106201827D01*
X151133552Y-106277227D01*
X151110679Y-106352629D01*
X151036392Y-106491608D01*
X150936422Y-106613422D01*
X150814608Y-106713392D01*
X150675629Y-106787679D01*
X150600227Y-106810552D01*
X150524827Y-106833424D01*
X150485649Y-106837283D01*
X150407295Y-106845000D01*
X150328705Y-106845000D01*
X150250351Y-106837283D01*
X150211173Y-106833424D01*
X150135773Y-106810552D01*
X150060371Y-106787679D01*
X149921392Y-106713392D01*
X149799578Y-106613422D01*
X149699608Y-106491608D01*
X149625321Y-106352629D01*
X149602449Y-106277228D01*
X149579576Y-106201827D01*
X149564130Y-106045000D01*
X149579576Y-105888173D01*
X149625321Y-105737372D01*
X149625321Y-105737371D01*
X149699608Y-105598392D01*
X149799578Y-105476578D01*
X149921392Y-105376608D01*
X150060371Y-105302321D01*
X150135773Y-105279448D01*
X150211173Y-105256576D01*
X150250351Y-105252717D01*
X150328705Y-105245000D01*
X150407295Y-105245000D01*
X150485649Y-105252717D01*
X150485649Y-105252717D01*
G37*
G36*
X133364292Y-103448603D02*
X133524517Y-103497207D01*
X133672182Y-103576135D01*
X133801611Y-103682355D01*
X133907831Y-103811784D01*
X133986759Y-103959449D01*
X134035363Y-104119674D01*
X134051774Y-104286304D01*
X134035363Y-104452934D01*
X133986759Y-104613159D01*
X133907831Y-104760824D01*
X133801611Y-104890253D01*
X133672182Y-104996473D01*
X133524517Y-105075401D01*
X133364292Y-105124005D01*
X133239414Y-105136304D01*
X133155910Y-105136304D01*
X133031032Y-105124005D01*
X132870807Y-105075401D01*
X132723142Y-104996473D01*
X132593713Y-104890253D01*
X132487493Y-104760824D01*
X132408565Y-104613159D01*
X132359961Y-104452934D01*
X132343550Y-104286304D01*
X132359961Y-104119674D01*
X132408565Y-103959449D01*
X132487493Y-103811784D01*
X132593713Y-103682355D01*
X132723142Y-103576135D01*
X132870807Y-103497207D01*
X133031032Y-103448603D01*
X133155910Y-103436304D01*
X133239414Y-103436304D01*
X133364292Y-103448603D01*
X133364292Y-103448603D01*
G37*
G36*
X163209292Y-103448603D02*
X163369517Y-103497207D01*
X163517182Y-103576135D01*
X163646611Y-103682355D01*
X163752831Y-103811784D01*
X163831759Y-103959449D01*
X163880363Y-104119674D01*
X163896774Y-104286304D01*
X163880363Y-104452934D01*
X163831759Y-104613159D01*
X163752831Y-104760824D01*
X163646611Y-104890253D01*
X163517182Y-104996473D01*
X163369517Y-105075401D01*
X163209292Y-105124005D01*
X163084414Y-105136304D01*
X163000910Y-105136304D01*
X162876032Y-105124005D01*
X162715807Y-105075401D01*
X162568142Y-104996473D01*
X162438713Y-104890253D01*
X162332493Y-104760824D01*
X162253565Y-104613159D01*
X162204961Y-104452934D01*
X162188550Y-104286304D01*
X162204961Y-104119674D01*
X162253565Y-103959449D01*
X162332493Y-103811784D01*
X162438713Y-103682355D01*
X162568142Y-103576135D01*
X162715807Y-103497207D01*
X162876032Y-103448603D01*
X163000910Y-103436304D01*
X163084414Y-103436304D01*
X163209292Y-103448603D01*
X163209292Y-103448603D01*
G37*
G36*
X128284292Y-103448603D02*
X128444517Y-103497207D01*
X128592182Y-103576135D01*
X128721611Y-103682355D01*
X128827831Y-103811784D01*
X128906759Y-103959449D01*
X128955363Y-104119674D01*
X128971774Y-104286304D01*
X128955363Y-104452934D01*
X128906759Y-104613159D01*
X128827831Y-104760824D01*
X128721611Y-104890253D01*
X128592182Y-104996473D01*
X128444517Y-105075401D01*
X128284292Y-105124005D01*
X128159414Y-105136304D01*
X128075910Y-105136304D01*
X127951032Y-105124005D01*
X127790807Y-105075401D01*
X127643142Y-104996473D01*
X127513713Y-104890253D01*
X127407493Y-104760824D01*
X127328565Y-104613159D01*
X127279961Y-104452934D01*
X127263550Y-104286304D01*
X127279961Y-104119674D01*
X127328565Y-103959449D01*
X127407493Y-103811784D01*
X127513713Y-103682355D01*
X127643142Y-103576135D01*
X127790807Y-103497207D01*
X127951032Y-103448603D01*
X128075910Y-103436304D01*
X128159414Y-103436304D01*
X128284292Y-103448603D01*
X128284292Y-103448603D01*
G37*
G36*
X130824292Y-103448603D02*
X130984517Y-103497207D01*
X131132182Y-103576135D01*
X131261611Y-103682355D01*
X131367831Y-103811784D01*
X131446759Y-103959449D01*
X131495363Y-104119674D01*
X131511774Y-104286304D01*
X131495363Y-104452934D01*
X131446759Y-104613159D01*
X131367831Y-104760824D01*
X131261611Y-104890253D01*
X131132182Y-104996473D01*
X130984517Y-105075401D01*
X130824292Y-105124005D01*
X130699414Y-105136304D01*
X130615910Y-105136304D01*
X130491032Y-105124005D01*
X130330807Y-105075401D01*
X130183142Y-104996473D01*
X130053713Y-104890253D01*
X129947493Y-104760824D01*
X129868565Y-104613159D01*
X129819961Y-104452934D01*
X129803550Y-104286304D01*
X129819961Y-104119674D01*
X129868565Y-103959449D01*
X129947493Y-103811784D01*
X130053713Y-103682355D01*
X130183142Y-103576135D01*
X130330807Y-103497207D01*
X130491032Y-103448603D01*
X130615910Y-103436304D01*
X130699414Y-103436304D01*
X130824292Y-103448603D01*
X130824292Y-103448603D01*
G37*
G36*
X165749292Y-103448603D02*
X165909517Y-103497207D01*
X166057182Y-103576135D01*
X166186611Y-103682355D01*
X166292831Y-103811784D01*
X166371759Y-103959449D01*
X166420363Y-104119674D01*
X166436774Y-104286304D01*
X166420363Y-104452934D01*
X166371759Y-104613159D01*
X166292831Y-104760824D01*
X166186611Y-104890253D01*
X166057182Y-104996473D01*
X165909517Y-105075401D01*
X165749292Y-105124005D01*
X165624414Y-105136304D01*
X165540910Y-105136304D01*
X165416032Y-105124005D01*
X165255807Y-105075401D01*
X165108142Y-104996473D01*
X164978713Y-104890253D01*
X164872493Y-104760824D01*
X164793565Y-104613159D01*
X164744961Y-104452934D01*
X164728550Y-104286304D01*
X164744961Y-104119674D01*
X164793565Y-103959449D01*
X164872493Y-103811784D01*
X164978713Y-103682355D01*
X165108142Y-103576135D01*
X165255807Y-103497207D01*
X165416032Y-103448603D01*
X165540910Y-103436304D01*
X165624414Y-103436304D01*
X165749292Y-103448603D01*
X165749292Y-103448603D01*
G37*
G36*
X168289292Y-103448603D02*
X168449517Y-103497207D01*
X168597182Y-103576135D01*
X168726611Y-103682355D01*
X168832831Y-103811784D01*
X168911759Y-103959449D01*
X168960363Y-104119674D01*
X168976774Y-104286304D01*
X168960363Y-104452934D01*
X168911759Y-104613159D01*
X168832831Y-104760824D01*
X168726611Y-104890253D01*
X168597182Y-104996473D01*
X168449517Y-105075401D01*
X168289292Y-105124005D01*
X168164414Y-105136304D01*
X168080910Y-105136304D01*
X167956032Y-105124005D01*
X167795807Y-105075401D01*
X167648142Y-104996473D01*
X167518713Y-104890253D01*
X167412493Y-104760824D01*
X167333565Y-104613159D01*
X167284961Y-104452934D01*
X167268550Y-104286304D01*
X167284961Y-104119674D01*
X167333565Y-103959449D01*
X167412493Y-103811784D01*
X167518713Y-103682355D01*
X167648142Y-103576135D01*
X167795807Y-103497207D01*
X167956032Y-103448603D01*
X168080910Y-103436304D01*
X168164414Y-103436304D01*
X168289292Y-103448603D01*
X168289292Y-103448603D01*
G37*
G36*
X168289292Y-100908603D02*
X168449517Y-100957207D01*
X168597182Y-101036135D01*
X168726611Y-101142355D01*
X168832831Y-101271784D01*
X168911759Y-101419449D01*
X168960363Y-101579674D01*
X168976774Y-101746304D01*
X168960363Y-101912934D01*
X168911759Y-102073159D01*
X168832831Y-102220824D01*
X168726611Y-102350253D01*
X168597182Y-102456473D01*
X168449517Y-102535401D01*
X168289292Y-102584005D01*
X168164414Y-102596304D01*
X168080910Y-102596304D01*
X167956032Y-102584005D01*
X167795807Y-102535401D01*
X167648142Y-102456473D01*
X167518713Y-102350253D01*
X167412493Y-102220824D01*
X167333565Y-102073159D01*
X167284961Y-101912934D01*
X167268550Y-101746304D01*
X167284961Y-101579674D01*
X167333565Y-101419449D01*
X167412493Y-101271784D01*
X167518713Y-101142355D01*
X167648142Y-101036135D01*
X167795807Y-100957207D01*
X167956032Y-100908603D01*
X168080910Y-100896304D01*
X168164414Y-100896304D01*
X168289292Y-100908603D01*
X168289292Y-100908603D01*
G37*
G36*
X130824292Y-100908603D02*
X130984517Y-100957207D01*
X131132182Y-101036135D01*
X131261611Y-101142355D01*
X131367831Y-101271784D01*
X131446759Y-101419449D01*
X131495363Y-101579674D01*
X131511774Y-101746304D01*
X131495363Y-101912934D01*
X131446759Y-102073159D01*
X131367831Y-102220824D01*
X131261611Y-102350253D01*
X131132182Y-102456473D01*
X130984517Y-102535401D01*
X130824292Y-102584005D01*
X130699414Y-102596304D01*
X130615910Y-102596304D01*
X130491032Y-102584005D01*
X130330807Y-102535401D01*
X130183142Y-102456473D01*
X130053713Y-102350253D01*
X129947493Y-102220824D01*
X129868565Y-102073159D01*
X129819961Y-101912934D01*
X129803550Y-101746304D01*
X129819961Y-101579674D01*
X129868565Y-101419449D01*
X129947493Y-101271784D01*
X130053713Y-101142355D01*
X130183142Y-101036135D01*
X130330807Y-100957207D01*
X130491032Y-100908603D01*
X130615910Y-100896304D01*
X130699414Y-100896304D01*
X130824292Y-100908603D01*
X130824292Y-100908603D01*
G37*
G36*
X133364292Y-100908603D02*
X133524517Y-100957207D01*
X133672182Y-101036135D01*
X133801611Y-101142355D01*
X133907831Y-101271784D01*
X133986759Y-101419449D01*
X134035363Y-101579674D01*
X134051774Y-101746304D01*
X134035363Y-101912934D01*
X133986759Y-102073159D01*
X133907831Y-102220824D01*
X133801611Y-102350253D01*
X133672182Y-102456473D01*
X133524517Y-102535401D01*
X133364292Y-102584005D01*
X133239414Y-102596304D01*
X133155910Y-102596304D01*
X133031032Y-102584005D01*
X132870807Y-102535401D01*
X132723142Y-102456473D01*
X132593713Y-102350253D01*
X132487493Y-102220824D01*
X132408565Y-102073159D01*
X132359961Y-101912934D01*
X132343550Y-101746304D01*
X132359961Y-101579674D01*
X132408565Y-101419449D01*
X132487493Y-101271784D01*
X132593713Y-101142355D01*
X132723142Y-101036135D01*
X132870807Y-100957207D01*
X133031032Y-100908603D01*
X133155910Y-100896304D01*
X133239414Y-100896304D01*
X133364292Y-100908603D01*
X133364292Y-100908603D01*
G37*
G36*
X128284292Y-100908603D02*
X128444517Y-100957207D01*
X128592182Y-101036135D01*
X128721611Y-101142355D01*
X128827831Y-101271784D01*
X128906759Y-101419449D01*
X128955363Y-101579674D01*
X128971774Y-101746304D01*
X128955363Y-101912934D01*
X128906759Y-102073159D01*
X128827831Y-102220824D01*
X128721611Y-102350253D01*
X128592182Y-102456473D01*
X128444517Y-102535401D01*
X128284292Y-102584005D01*
X128159414Y-102596304D01*
X128075910Y-102596304D01*
X127951032Y-102584005D01*
X127790807Y-102535401D01*
X127643142Y-102456473D01*
X127513713Y-102350253D01*
X127407493Y-102220824D01*
X127328565Y-102073159D01*
X127279961Y-101912934D01*
X127263550Y-101746304D01*
X127279961Y-101579674D01*
X127328565Y-101419449D01*
X127407493Y-101271784D01*
X127513713Y-101142355D01*
X127643142Y-101036135D01*
X127790807Y-100957207D01*
X127951032Y-100908603D01*
X128075910Y-100896304D01*
X128159414Y-100896304D01*
X128284292Y-100908603D01*
X128284292Y-100908603D01*
G37*
G36*
X163209292Y-100908603D02*
X163369517Y-100957207D01*
X163517182Y-101036135D01*
X163646611Y-101142355D01*
X163752831Y-101271784D01*
X163831759Y-101419449D01*
X163880363Y-101579674D01*
X163896774Y-101746304D01*
X163880363Y-101912934D01*
X163831759Y-102073159D01*
X163752831Y-102220824D01*
X163646611Y-102350253D01*
X163517182Y-102456473D01*
X163369517Y-102535401D01*
X163209292Y-102584005D01*
X163084414Y-102596304D01*
X163000910Y-102596304D01*
X162876032Y-102584005D01*
X162715807Y-102535401D01*
X162568142Y-102456473D01*
X162438713Y-102350253D01*
X162332493Y-102220824D01*
X162253565Y-102073159D01*
X162204961Y-101912934D01*
X162188550Y-101746304D01*
X162204961Y-101579674D01*
X162253565Y-101419449D01*
X162332493Y-101271784D01*
X162438713Y-101142355D01*
X162568142Y-101036135D01*
X162715807Y-100957207D01*
X162876032Y-100908603D01*
X163000910Y-100896304D01*
X163084414Y-100896304D01*
X163209292Y-100908603D01*
X163209292Y-100908603D01*
G37*
G36*
X165749292Y-100908603D02*
X165909517Y-100957207D01*
X166057182Y-101036135D01*
X166186611Y-101142355D01*
X166292831Y-101271784D01*
X166371759Y-101419449D01*
X166420363Y-101579674D01*
X166436774Y-101746304D01*
X166420363Y-101912934D01*
X166371759Y-102073159D01*
X166292831Y-102220824D01*
X166186611Y-102350253D01*
X166057182Y-102456473D01*
X165909517Y-102535401D01*
X165749292Y-102584005D01*
X165624414Y-102596304D01*
X165540910Y-102596304D01*
X165416032Y-102584005D01*
X165255807Y-102535401D01*
X165108142Y-102456473D01*
X164978713Y-102350253D01*
X164872493Y-102220824D01*
X164793565Y-102073159D01*
X164744961Y-101912934D01*
X164728550Y-101746304D01*
X164744961Y-101579674D01*
X164793565Y-101419449D01*
X164872493Y-101271784D01*
X164978713Y-101142355D01*
X165108142Y-101036135D01*
X165255807Y-100957207D01*
X165416032Y-100908603D01*
X165540910Y-100896304D01*
X165624414Y-100896304D01*
X165749292Y-100908603D01*
X165749292Y-100908603D01*
G37*
G36*
X168289292Y-98368603D02*
X168449517Y-98417207D01*
X168597182Y-98496135D01*
X168726611Y-98602355D01*
X168832831Y-98731784D01*
X168911759Y-98879449D01*
X168960363Y-99039674D01*
X168976774Y-99206304D01*
X168960363Y-99372934D01*
X168911759Y-99533159D01*
X168832831Y-99680824D01*
X168726611Y-99810253D01*
X168597182Y-99916473D01*
X168449517Y-99995401D01*
X168289292Y-100044005D01*
X168164414Y-100056304D01*
X168080910Y-100056304D01*
X167956032Y-100044005D01*
X167795807Y-99995401D01*
X167648142Y-99916473D01*
X167518713Y-99810253D01*
X167412493Y-99680824D01*
X167333565Y-99533159D01*
X167284961Y-99372934D01*
X167268550Y-99206304D01*
X167284961Y-99039674D01*
X167333565Y-98879449D01*
X167412493Y-98731784D01*
X167518713Y-98602355D01*
X167648142Y-98496135D01*
X167795807Y-98417207D01*
X167956032Y-98368603D01*
X168080910Y-98356304D01*
X168164414Y-98356304D01*
X168289292Y-98368603D01*
X168289292Y-98368603D01*
G37*
G36*
X130824292Y-98368603D02*
X130984517Y-98417207D01*
X131132182Y-98496135D01*
X131261611Y-98602355D01*
X131367831Y-98731784D01*
X131446759Y-98879449D01*
X131495363Y-99039674D01*
X131511774Y-99206304D01*
X131495363Y-99372934D01*
X131446759Y-99533159D01*
X131367831Y-99680824D01*
X131261611Y-99810253D01*
X131132182Y-99916473D01*
X130984517Y-99995401D01*
X130824292Y-100044005D01*
X130699414Y-100056304D01*
X130615910Y-100056304D01*
X130491032Y-100044005D01*
X130330807Y-99995401D01*
X130183142Y-99916473D01*
X130053713Y-99810253D01*
X129947493Y-99680824D01*
X129868565Y-99533159D01*
X129819961Y-99372934D01*
X129803550Y-99206304D01*
X129819961Y-99039674D01*
X129868565Y-98879449D01*
X129947493Y-98731784D01*
X130053713Y-98602355D01*
X130183142Y-98496135D01*
X130330807Y-98417207D01*
X130491032Y-98368603D01*
X130615910Y-98356304D01*
X130699414Y-98356304D01*
X130824292Y-98368603D01*
X130824292Y-98368603D01*
G37*
G36*
X165749292Y-98368603D02*
X165909517Y-98417207D01*
X166057182Y-98496135D01*
X166186611Y-98602355D01*
X166292831Y-98731784D01*
X166371759Y-98879449D01*
X166420363Y-99039674D01*
X166436774Y-99206304D01*
X166420363Y-99372934D01*
X166371759Y-99533159D01*
X166292831Y-99680824D01*
X166186611Y-99810253D01*
X166057182Y-99916473D01*
X165909517Y-99995401D01*
X165749292Y-100044005D01*
X165624414Y-100056304D01*
X165540910Y-100056304D01*
X165416032Y-100044005D01*
X165255807Y-99995401D01*
X165108142Y-99916473D01*
X164978713Y-99810253D01*
X164872493Y-99680824D01*
X164793565Y-99533159D01*
X164744961Y-99372934D01*
X164728550Y-99206304D01*
X164744961Y-99039674D01*
X164793565Y-98879449D01*
X164872493Y-98731784D01*
X164978713Y-98602355D01*
X165108142Y-98496135D01*
X165255807Y-98417207D01*
X165416032Y-98368603D01*
X165540910Y-98356304D01*
X165624414Y-98356304D01*
X165749292Y-98368603D01*
X165749292Y-98368603D01*
G37*
G36*
X128284292Y-98368603D02*
X128444517Y-98417207D01*
X128592182Y-98496135D01*
X128721611Y-98602355D01*
X128827831Y-98731784D01*
X128906759Y-98879449D01*
X128955363Y-99039674D01*
X128971774Y-99206304D01*
X128955363Y-99372934D01*
X128906759Y-99533159D01*
X128827831Y-99680824D01*
X128721611Y-99810253D01*
X128592182Y-99916473D01*
X128444517Y-99995401D01*
X128284292Y-100044005D01*
X128159414Y-100056304D01*
X128075910Y-100056304D01*
X127951032Y-100044005D01*
X127790807Y-99995401D01*
X127643142Y-99916473D01*
X127513713Y-99810253D01*
X127407493Y-99680824D01*
X127328565Y-99533159D01*
X127279961Y-99372934D01*
X127263550Y-99206304D01*
X127279961Y-99039674D01*
X127328565Y-98879449D01*
X127407493Y-98731784D01*
X127513713Y-98602355D01*
X127643142Y-98496135D01*
X127790807Y-98417207D01*
X127951032Y-98368603D01*
X128075910Y-98356304D01*
X128159414Y-98356304D01*
X128284292Y-98368603D01*
X128284292Y-98368603D01*
G37*
G36*
X163209292Y-98368603D02*
X163369517Y-98417207D01*
X163517182Y-98496135D01*
X163646611Y-98602355D01*
X163752831Y-98731784D01*
X163831759Y-98879449D01*
X163880363Y-99039674D01*
X163896774Y-99206304D01*
X163880363Y-99372934D01*
X163831759Y-99533159D01*
X163752831Y-99680824D01*
X163646611Y-99810253D01*
X163517182Y-99916473D01*
X163369517Y-99995401D01*
X163209292Y-100044005D01*
X163084414Y-100056304D01*
X163000910Y-100056304D01*
X162876032Y-100044005D01*
X162715807Y-99995401D01*
X162568142Y-99916473D01*
X162438713Y-99810253D01*
X162332493Y-99680824D01*
X162253565Y-99533159D01*
X162204961Y-99372934D01*
X162188550Y-99206304D01*
X162204961Y-99039674D01*
X162253565Y-98879449D01*
X162332493Y-98731784D01*
X162438713Y-98602355D01*
X162568142Y-98496135D01*
X162715807Y-98417207D01*
X162876032Y-98368603D01*
X163000910Y-98356304D01*
X163084414Y-98356304D01*
X163209292Y-98368603D01*
X163209292Y-98368603D01*
G37*
G36*
X133364292Y-98368603D02*
X133524517Y-98417207D01*
X133672182Y-98496135D01*
X133801611Y-98602355D01*
X133907831Y-98731784D01*
X133986759Y-98879449D01*
X134035363Y-99039674D01*
X134051774Y-99206304D01*
X134035363Y-99372934D01*
X133986759Y-99533159D01*
X133907831Y-99680824D01*
X133801611Y-99810253D01*
X133672182Y-99916473D01*
X133524517Y-99995401D01*
X133364292Y-100044005D01*
X133239414Y-100056304D01*
X133155910Y-100056304D01*
X133031032Y-100044005D01*
X132870807Y-99995401D01*
X132723142Y-99916473D01*
X132593713Y-99810253D01*
X132487493Y-99680824D01*
X132408565Y-99533159D01*
X132359961Y-99372934D01*
X132343550Y-99206304D01*
X132359961Y-99039674D01*
X132408565Y-98879449D01*
X132487493Y-98731784D01*
X132593713Y-98602355D01*
X132723142Y-98496135D01*
X132870807Y-98417207D01*
X133031032Y-98368603D01*
X133155910Y-98356304D01*
X133239414Y-98356304D01*
X133364292Y-98368603D01*
X133364292Y-98368603D01*
G37*
G36*
X145405649Y-97632717D02*
X145444827Y-97636576D01*
X145520227Y-97659448D01*
X145595629Y-97682321D01*
X145734608Y-97756608D01*
X145856422Y-97856578D01*
X145956392Y-97978392D01*
X146030679Y-98117371D01*
X146030679Y-98117372D01*
X146076424Y-98268173D01*
X146091870Y-98425000D01*
X146076424Y-98581827D01*
X146053552Y-98657227D01*
X146030679Y-98732629D01*
X145956392Y-98871608D01*
X145856422Y-98993422D01*
X145734608Y-99093392D01*
X145595629Y-99167679D01*
X145520227Y-99190552D01*
X145444827Y-99213424D01*
X145405649Y-99217283D01*
X145327295Y-99225000D01*
X145248705Y-99225000D01*
X145170351Y-99217283D01*
X145131173Y-99213424D01*
X145055773Y-99190552D01*
X144980371Y-99167679D01*
X144841392Y-99093392D01*
X144719578Y-98993422D01*
X144619608Y-98871608D01*
X144545321Y-98732629D01*
X144522449Y-98657228D01*
X144499576Y-98581827D01*
X144484130Y-98425000D01*
X144499576Y-98268173D01*
X144545321Y-98117372D01*
X144545321Y-98117371D01*
X144619608Y-97978392D01*
X144719578Y-97856578D01*
X144841392Y-97756608D01*
X144980371Y-97682321D01*
X145055773Y-97659448D01*
X145131173Y-97636576D01*
X145170351Y-97632717D01*
X145248705Y-97625000D01*
X145327295Y-97625000D01*
X145405649Y-97632717D01*
X145405649Y-97632717D01*
G37*
G36*
X140325649Y-97632717D02*
X140364827Y-97636576D01*
X140440227Y-97659448D01*
X140515629Y-97682321D01*
X140654608Y-97756608D01*
X140776422Y-97856578D01*
X140876392Y-97978392D01*
X140950679Y-98117371D01*
X140950679Y-98117372D01*
X140996424Y-98268173D01*
X141011870Y-98425000D01*
X140996424Y-98581827D01*
X140973552Y-98657227D01*
X140950679Y-98732629D01*
X140876392Y-98871608D01*
X140776422Y-98993422D01*
X140654608Y-99093392D01*
X140515629Y-99167679D01*
X140440227Y-99190552D01*
X140364827Y-99213424D01*
X140325649Y-99217283D01*
X140247295Y-99225000D01*
X140168705Y-99225000D01*
X140090351Y-99217283D01*
X140051173Y-99213424D01*
X139975773Y-99190552D01*
X139900371Y-99167679D01*
X139761392Y-99093392D01*
X139639578Y-98993422D01*
X139539608Y-98871608D01*
X139465321Y-98732629D01*
X139442449Y-98657228D01*
X139419576Y-98581827D01*
X139404130Y-98425000D01*
X139419576Y-98268173D01*
X139465321Y-98117372D01*
X139465321Y-98117371D01*
X139539608Y-97978392D01*
X139639578Y-97856578D01*
X139761392Y-97756608D01*
X139900371Y-97682321D01*
X139975773Y-97659448D01*
X140051173Y-97636576D01*
X140090351Y-97632717D01*
X140168705Y-97625000D01*
X140247295Y-97625000D01*
X140325649Y-97632717D01*
X140325649Y-97632717D01*
G37*
G36*
X142865649Y-97632717D02*
X142904827Y-97636576D01*
X142980227Y-97659448D01*
X143055629Y-97682321D01*
X143194608Y-97756608D01*
X143316422Y-97856578D01*
X143416392Y-97978392D01*
X143490679Y-98117371D01*
X143490679Y-98117372D01*
X143536424Y-98268173D01*
X143551870Y-98425000D01*
X143536424Y-98581827D01*
X143513552Y-98657227D01*
X143490679Y-98732629D01*
X143416392Y-98871608D01*
X143316422Y-98993422D01*
X143194608Y-99093392D01*
X143055629Y-99167679D01*
X142980227Y-99190552D01*
X142904827Y-99213424D01*
X142865649Y-99217283D01*
X142787295Y-99225000D01*
X142708705Y-99225000D01*
X142630351Y-99217283D01*
X142591173Y-99213424D01*
X142515773Y-99190552D01*
X142440371Y-99167679D01*
X142301392Y-99093392D01*
X142179578Y-98993422D01*
X142079608Y-98871608D01*
X142005321Y-98732629D01*
X141982449Y-98657228D01*
X141959576Y-98581827D01*
X141944130Y-98425000D01*
X141959576Y-98268173D01*
X142005321Y-98117372D01*
X142005321Y-98117371D01*
X142079608Y-97978392D01*
X142179578Y-97856578D01*
X142301392Y-97756608D01*
X142440371Y-97682321D01*
X142515773Y-97659448D01*
X142591173Y-97636576D01*
X142630351Y-97632717D01*
X142708705Y-97625000D01*
X142787295Y-97625000D01*
X142865649Y-97632717D01*
X142865649Y-97632717D01*
G37*
G36*
X158788000Y-99225000D02*
X157188000Y-99225000D01*
X157188000Y-97625000D01*
X158788000Y-97625000D01*
X158788000Y-99225000D01*
X158788000Y-99225000D01*
G37*
G36*
X155565649Y-97632717D02*
X155604827Y-97636576D01*
X155680227Y-97659448D01*
X155755629Y-97682321D01*
X155894608Y-97756608D01*
X156016422Y-97856578D01*
X156116392Y-97978392D01*
X156190679Y-98117371D01*
X156190679Y-98117372D01*
X156236424Y-98268173D01*
X156251870Y-98425000D01*
X156236424Y-98581827D01*
X156213552Y-98657227D01*
X156190679Y-98732629D01*
X156116392Y-98871608D01*
X156016422Y-98993422D01*
X155894608Y-99093392D01*
X155755629Y-99167679D01*
X155680227Y-99190552D01*
X155604827Y-99213424D01*
X155565649Y-99217283D01*
X155487295Y-99225000D01*
X155408705Y-99225000D01*
X155330351Y-99217283D01*
X155291173Y-99213424D01*
X155215773Y-99190552D01*
X155140371Y-99167679D01*
X155001392Y-99093392D01*
X154879578Y-98993422D01*
X154779608Y-98871608D01*
X154705321Y-98732629D01*
X154682449Y-98657228D01*
X154659576Y-98581827D01*
X154644130Y-98425000D01*
X154659576Y-98268173D01*
X154705321Y-98117372D01*
X154705321Y-98117371D01*
X154779608Y-97978392D01*
X154879578Y-97856578D01*
X155001392Y-97756608D01*
X155140371Y-97682321D01*
X155215773Y-97659448D01*
X155291173Y-97636576D01*
X155330351Y-97632717D01*
X155408705Y-97625000D01*
X155487295Y-97625000D01*
X155565649Y-97632717D01*
X155565649Y-97632717D01*
G37*
G36*
X153025649Y-97632717D02*
X153064827Y-97636576D01*
X153140227Y-97659448D01*
X153215629Y-97682321D01*
X153354608Y-97756608D01*
X153476422Y-97856578D01*
X153576392Y-97978392D01*
X153650679Y-98117371D01*
X153650679Y-98117372D01*
X153696424Y-98268173D01*
X153711870Y-98425000D01*
X153696424Y-98581827D01*
X153673552Y-98657227D01*
X153650679Y-98732629D01*
X153576392Y-98871608D01*
X153476422Y-98993422D01*
X153354608Y-99093392D01*
X153215629Y-99167679D01*
X153140227Y-99190552D01*
X153064827Y-99213424D01*
X153025649Y-99217283D01*
X152947295Y-99225000D01*
X152868705Y-99225000D01*
X152790351Y-99217283D01*
X152751173Y-99213424D01*
X152675773Y-99190552D01*
X152600371Y-99167679D01*
X152461392Y-99093392D01*
X152339578Y-98993422D01*
X152239608Y-98871608D01*
X152165321Y-98732629D01*
X152142449Y-98657228D01*
X152119576Y-98581827D01*
X152104130Y-98425000D01*
X152119576Y-98268173D01*
X152165321Y-98117372D01*
X152165321Y-98117371D01*
X152239608Y-97978392D01*
X152339578Y-97856578D01*
X152461392Y-97756608D01*
X152600371Y-97682321D01*
X152675773Y-97659448D01*
X152751173Y-97636576D01*
X152790351Y-97632717D01*
X152868705Y-97625000D01*
X152947295Y-97625000D01*
X153025649Y-97632717D01*
X153025649Y-97632717D01*
G37*
G36*
X147945649Y-97632717D02*
X147984827Y-97636576D01*
X148060227Y-97659448D01*
X148135629Y-97682321D01*
X148274608Y-97756608D01*
X148396422Y-97856578D01*
X148496392Y-97978392D01*
X148570679Y-98117371D01*
X148570679Y-98117372D01*
X148616424Y-98268173D01*
X148631870Y-98425000D01*
X148616424Y-98581827D01*
X148593552Y-98657227D01*
X148570679Y-98732629D01*
X148496392Y-98871608D01*
X148396422Y-98993422D01*
X148274608Y-99093392D01*
X148135629Y-99167679D01*
X148060227Y-99190552D01*
X147984827Y-99213424D01*
X147945649Y-99217283D01*
X147867295Y-99225000D01*
X147788705Y-99225000D01*
X147710351Y-99217283D01*
X147671173Y-99213424D01*
X147595773Y-99190552D01*
X147520371Y-99167679D01*
X147381392Y-99093392D01*
X147259578Y-98993422D01*
X147159608Y-98871608D01*
X147085321Y-98732629D01*
X147062449Y-98657228D01*
X147039576Y-98581827D01*
X147024130Y-98425000D01*
X147039576Y-98268173D01*
X147085321Y-98117372D01*
X147085321Y-98117371D01*
X147159608Y-97978392D01*
X147259578Y-97856578D01*
X147381392Y-97756608D01*
X147520371Y-97682321D01*
X147595773Y-97659448D01*
X147671173Y-97636576D01*
X147710351Y-97632717D01*
X147788705Y-97625000D01*
X147867295Y-97625000D01*
X147945649Y-97632717D01*
X147945649Y-97632717D01*
G37*
G36*
X150485649Y-97632717D02*
X150524827Y-97636576D01*
X150600227Y-97659448D01*
X150675629Y-97682321D01*
X150814608Y-97756608D01*
X150936422Y-97856578D01*
X151036392Y-97978392D01*
X151110679Y-98117371D01*
X151110679Y-98117372D01*
X151156424Y-98268173D01*
X151171870Y-98425000D01*
X151156424Y-98581827D01*
X151133552Y-98657227D01*
X151110679Y-98732629D01*
X151036392Y-98871608D01*
X150936422Y-98993422D01*
X150814608Y-99093392D01*
X150675629Y-99167679D01*
X150600227Y-99190552D01*
X150524827Y-99213424D01*
X150485649Y-99217283D01*
X150407295Y-99225000D01*
X150328705Y-99225000D01*
X150250351Y-99217283D01*
X150211173Y-99213424D01*
X150135773Y-99190552D01*
X150060371Y-99167679D01*
X149921392Y-99093392D01*
X149799578Y-98993422D01*
X149699608Y-98871608D01*
X149625321Y-98732629D01*
X149602449Y-98657228D01*
X149579576Y-98581827D01*
X149564130Y-98425000D01*
X149579576Y-98268173D01*
X149625321Y-98117372D01*
X149625321Y-98117371D01*
X149699608Y-97978392D01*
X149799578Y-97856578D01*
X149921392Y-97756608D01*
X150060371Y-97682321D01*
X150135773Y-97659448D01*
X150211173Y-97636576D01*
X150250351Y-97632717D01*
X150328705Y-97625000D01*
X150407295Y-97625000D01*
X150485649Y-97632717D01*
X150485649Y-97632717D01*
G37*
G36*
X131507662Y-97516304D02*
X129807662Y-97516304D01*
X129807662Y-95816304D01*
X131507662Y-95816304D01*
X131507662Y-97516304D01*
X131507662Y-97516304D01*
G37*
G36*
X134047662Y-97516304D02*
X132347662Y-97516304D01*
X132347662Y-95816304D01*
X134047662Y-95816304D01*
X134047662Y-97516304D01*
X134047662Y-97516304D01*
G37*
G36*
X128967662Y-97516304D02*
X127267662Y-97516304D01*
X127267662Y-95816304D01*
X128967662Y-95816304D01*
X128967662Y-97516304D01*
X128967662Y-97516304D01*
G37*
G36*
X173266000Y-97193000D02*
X171666000Y-97193000D01*
X171666000Y-95593000D01*
X173266000Y-95593000D01*
X173266000Y-97193000D01*
X173266000Y-97193000D01*
G37*
G36*
X163234630Y-91237299D02*
X163394855Y-91285903D01*
X163542520Y-91364831D01*
X163671949Y-91471051D01*
X163778169Y-91600480D01*
X163857097Y-91748145D01*
X163905701Y-91908370D01*
X163922112Y-92075000D01*
X163905701Y-92241630D01*
X163857097Y-92401855D01*
X163778169Y-92549520D01*
X163671949Y-92678949D01*
X163542520Y-92785169D01*
X163394855Y-92864097D01*
X163234630Y-92912701D01*
X163109752Y-92925000D01*
X163026248Y-92925000D01*
X162901370Y-92912701D01*
X162741145Y-92864097D01*
X162593480Y-92785169D01*
X162464051Y-92678949D01*
X162357831Y-92549520D01*
X162278903Y-92401855D01*
X162230299Y-92241630D01*
X162213888Y-92075000D01*
X162230299Y-91908370D01*
X162278903Y-91748145D01*
X162357831Y-91600480D01*
X162464051Y-91471051D01*
X162593480Y-91364831D01*
X162741145Y-91285903D01*
X162901370Y-91237299D01*
X163026248Y-91225000D01*
X163109752Y-91225000D01*
X163234630Y-91237299D01*
X163234630Y-91237299D01*
G37*
G36*
X156298000Y-92925000D02*
X154598000Y-92925000D01*
X154598000Y-91225000D01*
X156298000Y-91225000D01*
X156298000Y-92925000D01*
X156298000Y-92925000D01*
G37*
G36*
X158154630Y-91237299D02*
X158314855Y-91285903D01*
X158462520Y-91364831D01*
X158591949Y-91471051D01*
X158698169Y-91600480D01*
X158777097Y-91748145D01*
X158825701Y-91908370D01*
X158842112Y-92075000D01*
X158825701Y-92241630D01*
X158777097Y-92401855D01*
X158698169Y-92549520D01*
X158591949Y-92678949D01*
X158462520Y-92785169D01*
X158314855Y-92864097D01*
X158154630Y-92912701D01*
X158029752Y-92925000D01*
X157946248Y-92925000D01*
X157821370Y-92912701D01*
X157661145Y-92864097D01*
X157513480Y-92785169D01*
X157384051Y-92678949D01*
X157277831Y-92549520D01*
X157198903Y-92401855D01*
X157150299Y-92241630D01*
X157133888Y-92075000D01*
X157150299Y-91908370D01*
X157198903Y-91748145D01*
X157277831Y-91600480D01*
X157384051Y-91471051D01*
X157513480Y-91364831D01*
X157661145Y-91285903D01*
X157821370Y-91237299D01*
X157946248Y-91225000D01*
X158029752Y-91225000D01*
X158154630Y-91237299D01*
X158154630Y-91237299D01*
G37*
G36*
X160694630Y-91237299D02*
X160854855Y-91285903D01*
X161002520Y-91364831D01*
X161131949Y-91471051D01*
X161238169Y-91600480D01*
X161317097Y-91748145D01*
X161365701Y-91908370D01*
X161382112Y-92075000D01*
X161365701Y-92241630D01*
X161317097Y-92401855D01*
X161238169Y-92549520D01*
X161131949Y-92678949D01*
X161002520Y-92785169D01*
X160854855Y-92864097D01*
X160694630Y-92912701D01*
X160569752Y-92925000D01*
X160486248Y-92925000D01*
X160361370Y-92912701D01*
X160201145Y-92864097D01*
X160053480Y-92785169D01*
X159924051Y-92678949D01*
X159817831Y-92549520D01*
X159738903Y-92401855D01*
X159690299Y-92241630D01*
X159673888Y-92075000D01*
X159690299Y-91908370D01*
X159738903Y-91748145D01*
X159817831Y-91600480D01*
X159924051Y-91471051D01*
X160053480Y-91364831D01*
X160201145Y-91285903D01*
X160361370Y-91237299D01*
X160486248Y-91225000D01*
X160569752Y-91225000D01*
X160694630Y-91237299D01*
X160694630Y-91237299D01*
G37*
G36*
X165774630Y-91237299D02*
X165934855Y-91285903D01*
X166082520Y-91364831D01*
X166211949Y-91471051D01*
X166318169Y-91600480D01*
X166397097Y-91748145D01*
X166445701Y-91908370D01*
X166462112Y-92075000D01*
X166445701Y-92241630D01*
X166397097Y-92401855D01*
X166318169Y-92549520D01*
X166211949Y-92678949D01*
X166082520Y-92785169D01*
X165934855Y-92864097D01*
X165774630Y-92912701D01*
X165649752Y-92925000D01*
X165566248Y-92925000D01*
X165441370Y-92912701D01*
X165281145Y-92864097D01*
X165133480Y-92785169D01*
X165004051Y-92678949D01*
X164897831Y-92549520D01*
X164818903Y-92401855D01*
X164770299Y-92241630D01*
X164753888Y-92075000D01*
X164770299Y-91908370D01*
X164818903Y-91748145D01*
X164897831Y-91600480D01*
X165004051Y-91471051D01*
X165133480Y-91364831D01*
X165281145Y-91285903D01*
X165441370Y-91237299D01*
X165566248Y-91225000D01*
X165649752Y-91225000D01*
X165774630Y-91237299D01*
X165774630Y-91237299D01*
G37*
G36*
X177630712Y-88851088D02*
X178000510Y-89004263D01*
X178000513Y-89004265D01*
X178333325Y-89226643D01*
X178616357Y-89509675D01*
X178838735Y-89842487D01*
X178838737Y-89842490D01*
X178991912Y-90212288D01*
X179070000Y-90604864D01*
X179070000Y-91005136D01*
X178991912Y-91397712D01*
X178838737Y-91767510D01*
X178838735Y-91767513D01*
X178616357Y-92100325D01*
X178333325Y-92383357D01*
X178000513Y-92605735D01*
X178000510Y-92605737D01*
X177630712Y-92758912D01*
X177238136Y-92837000D01*
X176837864Y-92837000D01*
X176445288Y-92758912D01*
X176075490Y-92605737D01*
X176075487Y-92605735D01*
X175742675Y-92383357D01*
X175459643Y-92100325D01*
X175237265Y-91767513D01*
X175237263Y-91767510D01*
X175084088Y-91397712D01*
X175006000Y-91005136D01*
X175006000Y-90604864D01*
X175084088Y-90212288D01*
X175237263Y-89842490D01*
X175237265Y-89842487D01*
X175459643Y-89509675D01*
X175742675Y-89226643D01*
X176075487Y-89004265D01*
X176075490Y-89004263D01*
X176445288Y-88851088D01*
X176837864Y-88773000D01*
X177238136Y-88773000D01*
X177630712Y-88851088D01*
X177630712Y-88851088D01*
G37*
G36*
X140374630Y-90475299D02*
X140534855Y-90523903D01*
X140682520Y-90602831D01*
X140811949Y-90709051D01*
X140918169Y-90838480D01*
X140997097Y-90986145D01*
X141045701Y-91146370D01*
X141062112Y-91313000D01*
X141045701Y-91479630D01*
X140997097Y-91639855D01*
X140918169Y-91787520D01*
X140811949Y-91916949D01*
X140682520Y-92023169D01*
X140534855Y-92102097D01*
X140374630Y-92150701D01*
X140249752Y-92163000D01*
X140166248Y-92163000D01*
X140041370Y-92150701D01*
X139881145Y-92102097D01*
X139733480Y-92023169D01*
X139604051Y-91916949D01*
X139497831Y-91787520D01*
X139418903Y-91639855D01*
X139370299Y-91479630D01*
X139353888Y-91313000D01*
X139370299Y-91146370D01*
X139418903Y-90986145D01*
X139497831Y-90838480D01*
X139604051Y-90709051D01*
X139733480Y-90602831D01*
X139881145Y-90523903D01*
X140041370Y-90475299D01*
X140166248Y-90463000D01*
X140249752Y-90463000D01*
X140374630Y-90475299D01*
X140374630Y-90475299D01*
G37*
G36*
X132754630Y-89332299D02*
X132914855Y-89380903D01*
X133062520Y-89459831D01*
X133191949Y-89566051D01*
X133298169Y-89695480D01*
X133377097Y-89843145D01*
X133425701Y-90003370D01*
X133442112Y-90170000D01*
X133425701Y-90336630D01*
X133377097Y-90496855D01*
X133298169Y-90644520D01*
X133191949Y-90773949D01*
X133062520Y-90880169D01*
X132914855Y-90959097D01*
X132754630Y-91007701D01*
X132629752Y-91020000D01*
X132546248Y-91020000D01*
X132421370Y-91007701D01*
X132261145Y-90959097D01*
X132113480Y-90880169D01*
X131984051Y-90773949D01*
X131877831Y-90644520D01*
X131798903Y-90496855D01*
X131750299Y-90336630D01*
X131733888Y-90170000D01*
X131750299Y-90003370D01*
X131798903Y-89843145D01*
X131877831Y-89695480D01*
X131984051Y-89566051D01*
X132113480Y-89459831D01*
X132261145Y-89380903D01*
X132421370Y-89332299D01*
X132546248Y-89320000D01*
X132629752Y-89320000D01*
X132754630Y-89332299D01*
X132754630Y-89332299D01*
G37*
G36*
X130214630Y-89332299D02*
X130374855Y-89380903D01*
X130522520Y-89459831D01*
X130651949Y-89566051D01*
X130758169Y-89695480D01*
X130837097Y-89843145D01*
X130885701Y-90003370D01*
X130902112Y-90170000D01*
X130885701Y-90336630D01*
X130837097Y-90496855D01*
X130758169Y-90644520D01*
X130651949Y-90773949D01*
X130522520Y-90880169D01*
X130374855Y-90959097D01*
X130214630Y-91007701D01*
X130089752Y-91020000D01*
X130006248Y-91020000D01*
X129881370Y-91007701D01*
X129721145Y-90959097D01*
X129573480Y-90880169D01*
X129444051Y-90773949D01*
X129337831Y-90644520D01*
X129258903Y-90496855D01*
X129210299Y-90336630D01*
X129193888Y-90170000D01*
X129210299Y-90003370D01*
X129258903Y-89843145D01*
X129337831Y-89695480D01*
X129444051Y-89566051D01*
X129573480Y-89459831D01*
X129721145Y-89380903D01*
X129881370Y-89332299D01*
X130006248Y-89320000D01*
X130089752Y-89320000D01*
X130214630Y-89332299D01*
X130214630Y-89332299D01*
G37*
G36*
X127674630Y-89332299D02*
X127834855Y-89380903D01*
X127982520Y-89459831D01*
X128111949Y-89566051D01*
X128218169Y-89695480D01*
X128297097Y-89843145D01*
X128345701Y-90003370D01*
X128362112Y-90170000D01*
X128345701Y-90336630D01*
X128297097Y-90496855D01*
X128218169Y-90644520D01*
X128111949Y-90773949D01*
X127982520Y-90880169D01*
X127834855Y-90959097D01*
X127674630Y-91007701D01*
X127549752Y-91020000D01*
X127466248Y-91020000D01*
X127341370Y-91007701D01*
X127181145Y-90959097D01*
X127033480Y-90880169D01*
X126904051Y-90773949D01*
X126797831Y-90644520D01*
X126718903Y-90496855D01*
X126670299Y-90336630D01*
X126653888Y-90170000D01*
X126670299Y-90003370D01*
X126718903Y-89843145D01*
X126797831Y-89695480D01*
X126904051Y-89566051D01*
X127033480Y-89459831D01*
X127181145Y-89380903D01*
X127341370Y-89332299D01*
X127466248Y-89320000D01*
X127549752Y-89320000D01*
X127674630Y-89332299D01*
X127674630Y-89332299D01*
G37*
G36*
X125134630Y-89332299D02*
X125294855Y-89380903D01*
X125442520Y-89459831D01*
X125571949Y-89566051D01*
X125678169Y-89695480D01*
X125757097Y-89843145D01*
X125805701Y-90003370D01*
X125822112Y-90170000D01*
X125805701Y-90336630D01*
X125757097Y-90496855D01*
X125678169Y-90644520D01*
X125571949Y-90773949D01*
X125442520Y-90880169D01*
X125294855Y-90959097D01*
X125134630Y-91007701D01*
X125009752Y-91020000D01*
X124926248Y-91020000D01*
X124801370Y-91007701D01*
X124641145Y-90959097D01*
X124493480Y-90880169D01*
X124364051Y-90773949D01*
X124257831Y-90644520D01*
X124178903Y-90496855D01*
X124130299Y-90336630D01*
X124113888Y-90170000D01*
X124130299Y-90003370D01*
X124178903Y-89843145D01*
X124257831Y-89695480D01*
X124364051Y-89566051D01*
X124493480Y-89459831D01*
X124641145Y-89380903D01*
X124801370Y-89332299D01*
X124926248Y-89320000D01*
X125009752Y-89320000D01*
X125134630Y-89332299D01*
X125134630Y-89332299D01*
G37*
G36*
X122594630Y-89332299D02*
X122754855Y-89380903D01*
X122902520Y-89459831D01*
X123031949Y-89566051D01*
X123138169Y-89695480D01*
X123217097Y-89843145D01*
X123265701Y-90003370D01*
X123282112Y-90170000D01*
X123265701Y-90336630D01*
X123217097Y-90496855D01*
X123138169Y-90644520D01*
X123031949Y-90773949D01*
X122902520Y-90880169D01*
X122754855Y-90959097D01*
X122594630Y-91007701D01*
X122469752Y-91020000D01*
X122386248Y-91020000D01*
X122261370Y-91007701D01*
X122101145Y-90959097D01*
X121953480Y-90880169D01*
X121824051Y-90773949D01*
X121717831Y-90644520D01*
X121638903Y-90496855D01*
X121590299Y-90336630D01*
X121573888Y-90170000D01*
X121590299Y-90003370D01*
X121638903Y-89843145D01*
X121717831Y-89695480D01*
X121824051Y-89566051D01*
X121953480Y-89459831D01*
X122101145Y-89380903D01*
X122261370Y-89332299D01*
X122386248Y-89320000D01*
X122469752Y-89320000D01*
X122594630Y-89332299D01*
X122594630Y-89332299D01*
G37*
G36*
X135978000Y-91020000D02*
X134278000Y-91020000D01*
X134278000Y-89320000D01*
X135978000Y-89320000D01*
X135978000Y-91020000D01*
X135978000Y-91020000D01*
G37*
G36*
X151853000Y-90385000D02*
X150153000Y-90385000D01*
X150153000Y-88685000D01*
X151853000Y-88685000D01*
X151853000Y-90385000D01*
X151853000Y-90385000D01*
G37*
G36*
X140374630Y-87935299D02*
X140534855Y-87983903D01*
X140682520Y-88062831D01*
X140811949Y-88169051D01*
X140918169Y-88298480D01*
X140997097Y-88446145D01*
X141045701Y-88606370D01*
X141062112Y-88773000D01*
X141045701Y-88939630D01*
X140997097Y-89099855D01*
X140918169Y-89247520D01*
X140811949Y-89376949D01*
X140682520Y-89483169D01*
X140534855Y-89562097D01*
X140374630Y-89610701D01*
X140249752Y-89623000D01*
X140166248Y-89623000D01*
X140041370Y-89610701D01*
X139881145Y-89562097D01*
X139733480Y-89483169D01*
X139604051Y-89376949D01*
X139497831Y-89247520D01*
X139418903Y-89099855D01*
X139370299Y-88939630D01*
X139353888Y-88773000D01*
X139370299Y-88606370D01*
X139418903Y-88446145D01*
X139497831Y-88298480D01*
X139604051Y-88169051D01*
X139733480Y-88062831D01*
X139881145Y-87983903D01*
X140041370Y-87935299D01*
X140166248Y-87923000D01*
X140249752Y-87923000D01*
X140374630Y-87935299D01*
X140374630Y-87935299D01*
G37*
G36*
X172583649Y-87980717D02*
X172622827Y-87984576D01*
X172698228Y-88007449D01*
X172773629Y-88030321D01*
X172912608Y-88104608D01*
X173034422Y-88204578D01*
X173134392Y-88326392D01*
X173208679Y-88465371D01*
X173208679Y-88465372D01*
X173254424Y-88616173D01*
X173269870Y-88773000D01*
X173254424Y-88929827D01*
X173251450Y-88939630D01*
X173208679Y-89080629D01*
X173134392Y-89219608D01*
X173034422Y-89341422D01*
X172912608Y-89441392D01*
X172773629Y-89515679D01*
X172698227Y-89538552D01*
X172622827Y-89561424D01*
X172583649Y-89565283D01*
X172505295Y-89573000D01*
X172426705Y-89573000D01*
X172348351Y-89565283D01*
X172309173Y-89561424D01*
X172233773Y-89538552D01*
X172158371Y-89515679D01*
X172019392Y-89441392D01*
X171897578Y-89341422D01*
X171797608Y-89219608D01*
X171723321Y-89080629D01*
X171680550Y-88939630D01*
X171677576Y-88929827D01*
X171662130Y-88773000D01*
X171677576Y-88616173D01*
X171723321Y-88465372D01*
X171723321Y-88465371D01*
X171797608Y-88326392D01*
X171897578Y-88204578D01*
X172019392Y-88104608D01*
X172158371Y-88030321D01*
X172233772Y-88007449D01*
X172309173Y-87984576D01*
X172348351Y-87980717D01*
X172426705Y-87973000D01*
X172505295Y-87973000D01*
X172583649Y-87980717D01*
X172583649Y-87980717D01*
G37*
G36*
X151169630Y-86157299D02*
X151329855Y-86205903D01*
X151477520Y-86284831D01*
X151606949Y-86391051D01*
X151713169Y-86520480D01*
X151792097Y-86668145D01*
X151840701Y-86828370D01*
X151857112Y-86995000D01*
X151840701Y-87161630D01*
X151792097Y-87321855D01*
X151713169Y-87469520D01*
X151606949Y-87598949D01*
X151477520Y-87705169D01*
X151329855Y-87784097D01*
X151169630Y-87832701D01*
X151044752Y-87845000D01*
X150961248Y-87845000D01*
X150836370Y-87832701D01*
X150676145Y-87784097D01*
X150528480Y-87705169D01*
X150399051Y-87598949D01*
X150292831Y-87469520D01*
X150213903Y-87321855D01*
X150165299Y-87161630D01*
X150148888Y-86995000D01*
X150165299Y-86828370D01*
X150213903Y-86668145D01*
X150292831Y-86520480D01*
X150399051Y-86391051D01*
X150528480Y-86284831D01*
X150676145Y-86205903D01*
X150836370Y-86157299D01*
X150961248Y-86145000D01*
X151044752Y-86145000D01*
X151169630Y-86157299D01*
X151169630Y-86157299D01*
G37*
G36*
X168265649Y-85694717D02*
X168304827Y-85698576D01*
X168380227Y-85721448D01*
X168455629Y-85744321D01*
X168594608Y-85818608D01*
X168716422Y-85918578D01*
X168816392Y-86040392D01*
X168890679Y-86179371D01*
X168890679Y-86179372D01*
X168936424Y-86330173D01*
X168951870Y-86487000D01*
X168936424Y-86643827D01*
X168917103Y-86707519D01*
X168890679Y-86794629D01*
X168816392Y-86933608D01*
X168716422Y-87055422D01*
X168594608Y-87155392D01*
X168455629Y-87229679D01*
X168380227Y-87252552D01*
X168304827Y-87275424D01*
X168265649Y-87279283D01*
X168187295Y-87287000D01*
X168108705Y-87287000D01*
X168030351Y-87279283D01*
X167991173Y-87275424D01*
X167915773Y-87252552D01*
X167840371Y-87229679D01*
X167701392Y-87155392D01*
X167579578Y-87055422D01*
X167479608Y-86933608D01*
X167405321Y-86794629D01*
X167378897Y-86707519D01*
X167359576Y-86643827D01*
X167344130Y-86487000D01*
X167359576Y-86330173D01*
X167405321Y-86179372D01*
X167405321Y-86179371D01*
X167479608Y-86040392D01*
X167579578Y-85918578D01*
X167701392Y-85818608D01*
X167840371Y-85744321D01*
X167915773Y-85721448D01*
X167991173Y-85698576D01*
X168030351Y-85694717D01*
X168108705Y-85687000D01*
X168187295Y-85687000D01*
X168265649Y-85694717D01*
X168265649Y-85694717D01*
G37*
G36*
X161328000Y-87287000D02*
X159728000Y-87287000D01*
X159728000Y-85687000D01*
X161328000Y-85687000D01*
X161328000Y-87287000D01*
X161328000Y-87287000D01*
G37*
G36*
X171059649Y-85694717D02*
X171098827Y-85698576D01*
X171174227Y-85721448D01*
X171249629Y-85744321D01*
X171388608Y-85818608D01*
X171510422Y-85918578D01*
X171610392Y-86040392D01*
X171684679Y-86179371D01*
X171684679Y-86179372D01*
X171730424Y-86330173D01*
X171745870Y-86487000D01*
X171730424Y-86643827D01*
X171711103Y-86707519D01*
X171684679Y-86794629D01*
X171610392Y-86933608D01*
X171510422Y-87055422D01*
X171388608Y-87155392D01*
X171249629Y-87229679D01*
X171174227Y-87252552D01*
X171098827Y-87275424D01*
X171059649Y-87279283D01*
X170981295Y-87287000D01*
X170902705Y-87287000D01*
X170824351Y-87279283D01*
X170785173Y-87275424D01*
X170709773Y-87252552D01*
X170634371Y-87229679D01*
X170495392Y-87155392D01*
X170373578Y-87055422D01*
X170273608Y-86933608D01*
X170199321Y-86794629D01*
X170172897Y-86707519D01*
X170153576Y-86643827D01*
X170138130Y-86487000D01*
X170153576Y-86330173D01*
X170199321Y-86179372D01*
X170199321Y-86179371D01*
X170273608Y-86040392D01*
X170373578Y-85918578D01*
X170495392Y-85818608D01*
X170634371Y-85744321D01*
X170709773Y-85721448D01*
X170785173Y-85698576D01*
X170824351Y-85694717D01*
X170902705Y-85687000D01*
X170981295Y-85687000D01*
X171059649Y-85694717D01*
X171059649Y-85694717D01*
G37*
G36*
X173853649Y-85694717D02*
X173892827Y-85698576D01*
X173968227Y-85721448D01*
X174043629Y-85744321D01*
X174182608Y-85818608D01*
X174304422Y-85918578D01*
X174404392Y-86040392D01*
X174478679Y-86179371D01*
X174478679Y-86179372D01*
X174524424Y-86330173D01*
X174539870Y-86487000D01*
X174524424Y-86643827D01*
X174505103Y-86707519D01*
X174478679Y-86794629D01*
X174404392Y-86933608D01*
X174304422Y-87055422D01*
X174182608Y-87155392D01*
X174043629Y-87229679D01*
X173968227Y-87252552D01*
X173892827Y-87275424D01*
X173853649Y-87279283D01*
X173775295Y-87287000D01*
X173696705Y-87287000D01*
X173618351Y-87279283D01*
X173579173Y-87275424D01*
X173503773Y-87252552D01*
X173428371Y-87229679D01*
X173289392Y-87155392D01*
X173167578Y-87055422D01*
X173067608Y-86933608D01*
X172993321Y-86794629D01*
X172966897Y-86707519D01*
X172947576Y-86643827D01*
X172932130Y-86487000D01*
X172947576Y-86330173D01*
X172993321Y-86179372D01*
X172993321Y-86179371D01*
X173067608Y-86040392D01*
X173167578Y-85918578D01*
X173289392Y-85818608D01*
X173428371Y-85744321D01*
X173503773Y-85721448D01*
X173579173Y-85698576D01*
X173618351Y-85694717D01*
X173696705Y-85687000D01*
X173775295Y-85687000D01*
X173853649Y-85694717D01*
X173853649Y-85694717D01*
G37*
G36*
X157519630Y-85522299D02*
X157679855Y-85570903D01*
X157827520Y-85649831D01*
X157956949Y-85756051D01*
X158063169Y-85885480D01*
X158142097Y-86033145D01*
X158190701Y-86193370D01*
X158207112Y-86360000D01*
X158190701Y-86526630D01*
X158142097Y-86686855D01*
X158063169Y-86834520D01*
X157956949Y-86963949D01*
X157827520Y-87070169D01*
X157679855Y-87149097D01*
X157519630Y-87197701D01*
X157394752Y-87210000D01*
X157311248Y-87210000D01*
X157186370Y-87197701D01*
X157026145Y-87149097D01*
X156878480Y-87070169D01*
X156749051Y-86963949D01*
X156642831Y-86834520D01*
X156563903Y-86686855D01*
X156515299Y-86526630D01*
X156498888Y-86360000D01*
X156515299Y-86193370D01*
X156563903Y-86033145D01*
X156642831Y-85885480D01*
X156749051Y-85756051D01*
X156878480Y-85649831D01*
X157026145Y-85570903D01*
X157186370Y-85522299D01*
X157311248Y-85510000D01*
X157394752Y-85510000D01*
X157519630Y-85522299D01*
X157519630Y-85522299D01*
G37*
G36*
X154979630Y-85522299D02*
X155139855Y-85570903D01*
X155287520Y-85649831D01*
X155416949Y-85756051D01*
X155523169Y-85885480D01*
X155602097Y-86033145D01*
X155650701Y-86193370D01*
X155667112Y-86360000D01*
X155650701Y-86526630D01*
X155602097Y-86686855D01*
X155523169Y-86834520D01*
X155416949Y-86963949D01*
X155287520Y-87070169D01*
X155139855Y-87149097D01*
X154979630Y-87197701D01*
X154854752Y-87210000D01*
X154771248Y-87210000D01*
X154646370Y-87197701D01*
X154486145Y-87149097D01*
X154338480Y-87070169D01*
X154209051Y-86963949D01*
X154102831Y-86834520D01*
X154023903Y-86686855D01*
X153975299Y-86526630D01*
X153958888Y-86360000D01*
X153975299Y-86193370D01*
X154023903Y-86033145D01*
X154102831Y-85885480D01*
X154209051Y-85756051D01*
X154338480Y-85649831D01*
X154486145Y-85570903D01*
X154646370Y-85522299D01*
X154771248Y-85510000D01*
X154854752Y-85510000D01*
X154979630Y-85522299D01*
X154979630Y-85522299D01*
G37*
G36*
X140374630Y-85395299D02*
X140534855Y-85443903D01*
X140682520Y-85522831D01*
X140811949Y-85629051D01*
X140918169Y-85758480D01*
X140997097Y-85906145D01*
X141045701Y-86066370D01*
X141062112Y-86233000D01*
X141045701Y-86399630D01*
X140997097Y-86559855D01*
X140918169Y-86707520D01*
X140811949Y-86836949D01*
X140682520Y-86943169D01*
X140534855Y-87022097D01*
X140374630Y-87070701D01*
X140249752Y-87083000D01*
X140166248Y-87083000D01*
X140041370Y-87070701D01*
X139881145Y-87022097D01*
X139733480Y-86943169D01*
X139604051Y-86836949D01*
X139497831Y-86707520D01*
X139418903Y-86559855D01*
X139370299Y-86399630D01*
X139353888Y-86233000D01*
X139370299Y-86066370D01*
X139418903Y-85906145D01*
X139497831Y-85758480D01*
X139604051Y-85629051D01*
X139733480Y-85522831D01*
X139881145Y-85443903D01*
X140041370Y-85395299D01*
X140166248Y-85383000D01*
X140249752Y-85383000D01*
X140374630Y-85395299D01*
X140374630Y-85395299D01*
G37*
G36*
X134091352Y-83685743D02*
X134236941Y-83746048D01*
X134367973Y-83833601D01*
X134479399Y-83945027D01*
X134566952Y-84076059D01*
X134627257Y-84221648D01*
X134658000Y-84376205D01*
X134658000Y-84533795D01*
X134627257Y-84688352D01*
X134566952Y-84833941D01*
X134479399Y-84964973D01*
X134367973Y-85076399D01*
X134236941Y-85163952D01*
X134091352Y-85224257D01*
X133936795Y-85255000D01*
X133779205Y-85255000D01*
X133624648Y-85224257D01*
X133479059Y-85163952D01*
X133348027Y-85076399D01*
X133236601Y-84964973D01*
X133149048Y-84833941D01*
X133088743Y-84688352D01*
X133058000Y-84533795D01*
X133058000Y-84376205D01*
X133088743Y-84221648D01*
X133149048Y-84076059D01*
X133236601Y-83945027D01*
X133348027Y-83833601D01*
X133479059Y-83746048D01*
X133624648Y-83685743D01*
X133779205Y-83655000D01*
X133936795Y-83655000D01*
X134091352Y-83685743D01*
X134091352Y-83685743D01*
G37*
G36*
X126355649Y-83662717D02*
X126394827Y-83666576D01*
X126458012Y-83685743D01*
X126545629Y-83712321D01*
X126684608Y-83786608D01*
X126806422Y-83886578D01*
X126906392Y-84008392D01*
X126980679Y-84147371D01*
X126980679Y-84147372D01*
X127026424Y-84298173D01*
X127041870Y-84455000D01*
X127026424Y-84611827D01*
X127012508Y-84657701D01*
X126980679Y-84762629D01*
X126906392Y-84901608D01*
X126806422Y-85023422D01*
X126684608Y-85123392D01*
X126545629Y-85197679D01*
X126470228Y-85220551D01*
X126394827Y-85243424D01*
X126355649Y-85247283D01*
X126277295Y-85255000D01*
X126198705Y-85255000D01*
X126120351Y-85247283D01*
X126081173Y-85243424D01*
X126005772Y-85220551D01*
X125930371Y-85197679D01*
X125791392Y-85123392D01*
X125669578Y-85023422D01*
X125569608Y-84901608D01*
X125495321Y-84762629D01*
X125463492Y-84657701D01*
X125449576Y-84611827D01*
X125434130Y-84455000D01*
X125449576Y-84298173D01*
X125495321Y-84147372D01*
X125495321Y-84147371D01*
X125569608Y-84008392D01*
X125669578Y-83886578D01*
X125791392Y-83786608D01*
X125930371Y-83712321D01*
X126017988Y-83685743D01*
X126081173Y-83666576D01*
X126120351Y-83662717D01*
X126198705Y-83655000D01*
X126277295Y-83655000D01*
X126355649Y-83662717D01*
X126355649Y-83662717D01*
G37*
G36*
X168265649Y-83154717D02*
X168304827Y-83158576D01*
X168380227Y-83181448D01*
X168455629Y-83204321D01*
X168594608Y-83278608D01*
X168716422Y-83378578D01*
X168816392Y-83500392D01*
X168890679Y-83639371D01*
X168906947Y-83693000D01*
X168936424Y-83790173D01*
X168951870Y-83947000D01*
X168936424Y-84103827D01*
X168923215Y-84147371D01*
X168890679Y-84254629D01*
X168816392Y-84393608D01*
X168716422Y-84515422D01*
X168594608Y-84615392D01*
X168455629Y-84689679D01*
X168380227Y-84712552D01*
X168304827Y-84735424D01*
X168265649Y-84739283D01*
X168187295Y-84747000D01*
X168108705Y-84747000D01*
X168030351Y-84739283D01*
X167991173Y-84735424D01*
X167915773Y-84712552D01*
X167840371Y-84689679D01*
X167701392Y-84615392D01*
X167579578Y-84515422D01*
X167479608Y-84393608D01*
X167405321Y-84254629D01*
X167372785Y-84147371D01*
X167359576Y-84103827D01*
X167344130Y-83947000D01*
X167359576Y-83790173D01*
X167389053Y-83693000D01*
X167405321Y-83639371D01*
X167479608Y-83500392D01*
X167579578Y-83378578D01*
X167701392Y-83278608D01*
X167840371Y-83204321D01*
X167915773Y-83181448D01*
X167991173Y-83158576D01*
X168030351Y-83154717D01*
X168108705Y-83147000D01*
X168187295Y-83147000D01*
X168265649Y-83154717D01*
X168265649Y-83154717D01*
G37*
G36*
X161328000Y-84747000D02*
X159728000Y-84747000D01*
X159728000Y-83147000D01*
X161328000Y-83147000D01*
X161328000Y-84747000D01*
X161328000Y-84747000D01*
G37*
G36*
X157519630Y-82982299D02*
X157679855Y-83030903D01*
X157827520Y-83109831D01*
X157956949Y-83216051D01*
X158063169Y-83345480D01*
X158142097Y-83493145D01*
X158190701Y-83653370D01*
X158207112Y-83820000D01*
X158190701Y-83986630D01*
X158142097Y-84146855D01*
X158063169Y-84294520D01*
X157956949Y-84423949D01*
X157827520Y-84530169D01*
X157679855Y-84609097D01*
X157519630Y-84657701D01*
X157394752Y-84670000D01*
X157311248Y-84670000D01*
X157186370Y-84657701D01*
X157026145Y-84609097D01*
X156878480Y-84530169D01*
X156749051Y-84423949D01*
X156642831Y-84294520D01*
X156563903Y-84146855D01*
X156515299Y-83986630D01*
X156498888Y-83820000D01*
X156515299Y-83653370D01*
X156563903Y-83493145D01*
X156642831Y-83345480D01*
X156749051Y-83216051D01*
X156878480Y-83109831D01*
X157026145Y-83030903D01*
X157186370Y-82982299D01*
X157311248Y-82970000D01*
X157394752Y-82970000D01*
X157519630Y-82982299D01*
X157519630Y-82982299D01*
G37*
G36*
X154979630Y-82982299D02*
X155139855Y-83030903D01*
X155287520Y-83109831D01*
X155416949Y-83216051D01*
X155523169Y-83345480D01*
X155602097Y-83493145D01*
X155650701Y-83653370D01*
X155667112Y-83820000D01*
X155650701Y-83986630D01*
X155602097Y-84146855D01*
X155523169Y-84294520D01*
X155416949Y-84423949D01*
X155287520Y-84530169D01*
X155139855Y-84609097D01*
X154979630Y-84657701D01*
X154854752Y-84670000D01*
X154771248Y-84670000D01*
X154646370Y-84657701D01*
X154486145Y-84609097D01*
X154338480Y-84530169D01*
X154209051Y-84423949D01*
X154102831Y-84294520D01*
X154023903Y-84146855D01*
X153975299Y-83986630D01*
X153958888Y-83820000D01*
X153975299Y-83653370D01*
X154023903Y-83493145D01*
X154102831Y-83345480D01*
X154209051Y-83216051D01*
X154338480Y-83109831D01*
X154486145Y-83030903D01*
X154646370Y-82982299D01*
X154771248Y-82970000D01*
X154854752Y-82970000D01*
X154979630Y-82982299D01*
X154979630Y-82982299D01*
G37*
G36*
X140374630Y-82855299D02*
X140534855Y-82903903D01*
X140682520Y-82982831D01*
X140811949Y-83089051D01*
X140918169Y-83218480D01*
X140997097Y-83366145D01*
X141045701Y-83526370D01*
X141062112Y-83693000D01*
X141045701Y-83859630D01*
X140997097Y-84019855D01*
X140918169Y-84167520D01*
X140811949Y-84296949D01*
X140682520Y-84403169D01*
X140534855Y-84482097D01*
X140374630Y-84530701D01*
X140249752Y-84543000D01*
X140166248Y-84543000D01*
X140041370Y-84530701D01*
X139881145Y-84482097D01*
X139733480Y-84403169D01*
X139604051Y-84296949D01*
X139497831Y-84167520D01*
X139418903Y-84019855D01*
X139370299Y-83859630D01*
X139353888Y-83693000D01*
X139370299Y-83526370D01*
X139418903Y-83366145D01*
X139497831Y-83218480D01*
X139604051Y-83089051D01*
X139733480Y-82982831D01*
X139881145Y-82903903D01*
X140041370Y-82855299D01*
X140166248Y-82843000D01*
X140249752Y-82843000D01*
X140374630Y-82855299D01*
X140374630Y-82855299D01*
G37*
G36*
X151381840Y-82054676D02*
X151421589Y-82066734D01*
X151458223Y-82086315D01*
X151490333Y-82112667D01*
X151516685Y-82144777D01*
X151536266Y-82181411D01*
X151548324Y-82221160D01*
X151553000Y-82268640D01*
X151553000Y-83631360D01*
X151548324Y-83678840D01*
X151536266Y-83718589D01*
X151516685Y-83755223D01*
X151490333Y-83787333D01*
X151458223Y-83813685D01*
X151421589Y-83833266D01*
X151381840Y-83845324D01*
X151334360Y-83850000D01*
X150671640Y-83850000D01*
X150624160Y-83845324D01*
X150584411Y-83833266D01*
X150547777Y-83813685D01*
X150515667Y-83787333D01*
X150489315Y-83755223D01*
X150469734Y-83718589D01*
X150457676Y-83678840D01*
X150453000Y-83631360D01*
X150453000Y-82268640D01*
X150457676Y-82221160D01*
X150469734Y-82181411D01*
X150489315Y-82144777D01*
X150515667Y-82112667D01*
X150547777Y-82086315D01*
X150584411Y-82066734D01*
X150624160Y-82054676D01*
X150671640Y-82050000D01*
X151334360Y-82050000D01*
X151381840Y-82054676D01*
X151381840Y-82054676D01*
G37*
G36*
X149013000Y-83850000D02*
X147913000Y-83850000D01*
X147913000Y-82050000D01*
X149013000Y-82050000D01*
X149013000Y-83850000D01*
X149013000Y-83850000D01*
G37*
G36*
X161328000Y-82207000D02*
X159728000Y-82207000D01*
X159728000Y-80607000D01*
X161328000Y-80607000D01*
X161328000Y-82207000D01*
X161328000Y-82207000D01*
G37*
G36*
X168265649Y-80614717D02*
X168304827Y-80618576D01*
X168380228Y-80641449D01*
X168455629Y-80664321D01*
X168594608Y-80738608D01*
X168716422Y-80838578D01*
X168816392Y-80960392D01*
X168890679Y-81099371D01*
X168890679Y-81099372D01*
X168936424Y-81250173D01*
X168951870Y-81407000D01*
X168936424Y-81563827D01*
X168922769Y-81608840D01*
X168890679Y-81714629D01*
X168816392Y-81853608D01*
X168716422Y-81975422D01*
X168594608Y-82075392D01*
X168455629Y-82149679D01*
X168381327Y-82172218D01*
X168304827Y-82195424D01*
X168265649Y-82199283D01*
X168187295Y-82207000D01*
X168108705Y-82207000D01*
X168030351Y-82199283D01*
X167991173Y-82195424D01*
X167914673Y-82172218D01*
X167840371Y-82149679D01*
X167701392Y-82075392D01*
X167579578Y-81975422D01*
X167479608Y-81853608D01*
X167405321Y-81714629D01*
X167373231Y-81608840D01*
X167359576Y-81563827D01*
X167344130Y-81407000D01*
X167359576Y-81250173D01*
X167405321Y-81099372D01*
X167405321Y-81099371D01*
X167479608Y-80960392D01*
X167579578Y-80838578D01*
X167701392Y-80738608D01*
X167840371Y-80664321D01*
X167915772Y-80641449D01*
X167991173Y-80618576D01*
X168030351Y-80614717D01*
X168108705Y-80607000D01*
X168187295Y-80607000D01*
X168265649Y-80614717D01*
X168265649Y-80614717D01*
G37*
G36*
X154979630Y-80442299D02*
X155139855Y-80490903D01*
X155287520Y-80569831D01*
X155416949Y-80676051D01*
X155523169Y-80805480D01*
X155602097Y-80953145D01*
X155650701Y-81113370D01*
X155667112Y-81280000D01*
X155650701Y-81446630D01*
X155602097Y-81606855D01*
X155523169Y-81754520D01*
X155416949Y-81883949D01*
X155287520Y-81990169D01*
X155139855Y-82069097D01*
X154979630Y-82117701D01*
X154854752Y-82130000D01*
X154771248Y-82130000D01*
X154646370Y-82117701D01*
X154486145Y-82069097D01*
X154338480Y-81990169D01*
X154209051Y-81883949D01*
X154102831Y-81754520D01*
X154023903Y-81606855D01*
X153975299Y-81446630D01*
X153958888Y-81280000D01*
X153975299Y-81113370D01*
X154023903Y-80953145D01*
X154102831Y-80805480D01*
X154209051Y-80676051D01*
X154338480Y-80569831D01*
X154486145Y-80490903D01*
X154646370Y-80442299D01*
X154771248Y-80430000D01*
X154854752Y-80430000D01*
X154979630Y-80442299D01*
X154979630Y-80442299D01*
G37*
G36*
X158203000Y-82130000D02*
X156503000Y-82130000D01*
X156503000Y-80430000D01*
X158203000Y-80430000D01*
X158203000Y-82130000D01*
X158203000Y-82130000D01*
G37*
G36*
X141058000Y-82003000D02*
X139358000Y-82003000D01*
X139358000Y-80303000D01*
X141058000Y-80303000D01*
X141058000Y-82003000D01*
X141058000Y-82003000D01*
G37*
G36*
X150111840Y-79984676D02*
X150151589Y-79996734D01*
X150188223Y-80016315D01*
X150220333Y-80042667D01*
X150246685Y-80074777D01*
X150266266Y-80111411D01*
X150278324Y-80151160D01*
X150283000Y-80198640D01*
X150283000Y-81561360D01*
X150278324Y-81608840D01*
X150266266Y-81648589D01*
X150246685Y-81685223D01*
X150220333Y-81717333D01*
X150188223Y-81743685D01*
X150151589Y-81763266D01*
X150111840Y-81775324D01*
X150064360Y-81780000D01*
X149401640Y-81780000D01*
X149354160Y-81775324D01*
X149314411Y-81763266D01*
X149277777Y-81743685D01*
X149245667Y-81717333D01*
X149219315Y-81685223D01*
X149199734Y-81648589D01*
X149187676Y-81608840D01*
X149183000Y-81561360D01*
X149183000Y-80198640D01*
X149187676Y-80151160D01*
X149199734Y-80111411D01*
X149219315Y-80074777D01*
X149245667Y-80042667D01*
X149277777Y-80016315D01*
X149314411Y-79996734D01*
X149354160Y-79984676D01*
X149401640Y-79980000D01*
X150064360Y-79980000D01*
X150111840Y-79984676D01*
X150111840Y-79984676D01*
G37*
G36*
X134073000Y-81495000D02*
X132373000Y-81495000D01*
X132373000Y-79795000D01*
X134073000Y-79795000D01*
X134073000Y-81495000D01*
X134073000Y-81495000D01*
G37*
G36*
X130849630Y-79807299D02*
X131009855Y-79855903D01*
X131157520Y-79934831D01*
X131286949Y-80041051D01*
X131393169Y-80170480D01*
X131472097Y-80318145D01*
X131520701Y-80478370D01*
X131537112Y-80645000D01*
X131520701Y-80811630D01*
X131472097Y-80971855D01*
X131393169Y-81119520D01*
X131286949Y-81248949D01*
X131157520Y-81355169D01*
X131009855Y-81434097D01*
X130849630Y-81482701D01*
X130724752Y-81495000D01*
X130641248Y-81495000D01*
X130516370Y-81482701D01*
X130356145Y-81434097D01*
X130208480Y-81355169D01*
X130079051Y-81248949D01*
X129972831Y-81119520D01*
X129893903Y-80971855D01*
X129845299Y-80811630D01*
X129828888Y-80645000D01*
X129845299Y-80478370D01*
X129893903Y-80318145D01*
X129972831Y-80170480D01*
X130079051Y-80041051D01*
X130208480Y-79934831D01*
X130356145Y-79855903D01*
X130516370Y-79807299D01*
X130641248Y-79795000D01*
X130724752Y-79795000D01*
X130849630Y-79807299D01*
X130849630Y-79807299D01*
G37*
G36*
X128309630Y-79807299D02*
X128469855Y-79855903D01*
X128617520Y-79934831D01*
X128746949Y-80041051D01*
X128853169Y-80170480D01*
X128932097Y-80318145D01*
X128980701Y-80478370D01*
X128997112Y-80645000D01*
X128980701Y-80811630D01*
X128932097Y-80971855D01*
X128853169Y-81119520D01*
X128746949Y-81248949D01*
X128617520Y-81355169D01*
X128469855Y-81434097D01*
X128309630Y-81482701D01*
X128184752Y-81495000D01*
X128101248Y-81495000D01*
X127976370Y-81482701D01*
X127816145Y-81434097D01*
X127668480Y-81355169D01*
X127539051Y-81248949D01*
X127432831Y-81119520D01*
X127353903Y-80971855D01*
X127305299Y-80811630D01*
X127288888Y-80645000D01*
X127305299Y-80478370D01*
X127353903Y-80318145D01*
X127432831Y-80170480D01*
X127539051Y-80041051D01*
X127668480Y-79934831D01*
X127816145Y-79855903D01*
X127976370Y-79807299D01*
X128101248Y-79795000D01*
X128184752Y-79795000D01*
X128309630Y-79807299D01*
X128309630Y-79807299D01*
G37*
G36*
X125769630Y-79807299D02*
X125929855Y-79855903D01*
X126077520Y-79934831D01*
X126206949Y-80041051D01*
X126313169Y-80170480D01*
X126392097Y-80318145D01*
X126440701Y-80478370D01*
X126457112Y-80645000D01*
X126440701Y-80811630D01*
X126392097Y-80971855D01*
X126313169Y-81119520D01*
X126206949Y-81248949D01*
X126077520Y-81355169D01*
X125929855Y-81434097D01*
X125769630Y-81482701D01*
X125644752Y-81495000D01*
X125561248Y-81495000D01*
X125436370Y-81482701D01*
X125276145Y-81434097D01*
X125128480Y-81355169D01*
X124999051Y-81248949D01*
X124892831Y-81119520D01*
X124813903Y-80971855D01*
X124765299Y-80811630D01*
X124748888Y-80645000D01*
X124765299Y-80478370D01*
X124813903Y-80318145D01*
X124892831Y-80170480D01*
X124999051Y-80041051D01*
X125128480Y-79934831D01*
X125276145Y-79855903D01*
X125436370Y-79807299D01*
X125561248Y-79795000D01*
X125644752Y-79795000D01*
X125769630Y-79807299D01*
X125769630Y-79807299D01*
G37*
G36*
X171742000Y-79667000D02*
X170142000Y-79667000D01*
X170142000Y-78067000D01*
X171742000Y-78067000D01*
X171742000Y-79667000D01*
X171742000Y-79667000D01*
G37*
G36*
X174536000Y-79667000D02*
X172936000Y-79667000D01*
X172936000Y-78067000D01*
X174536000Y-78067000D01*
X174536000Y-79667000D01*
X174536000Y-79667000D01*
G37*
G36*
X126830712Y-73611088D02*
X127200510Y-73764263D01*
X127200513Y-73764265D01*
X127533325Y-73986643D01*
X127816357Y-74269675D01*
X128000204Y-74544822D01*
X128038737Y-74602490D01*
X128191912Y-74972288D01*
X128270000Y-75364864D01*
X128270000Y-75765136D01*
X128191912Y-76157712D01*
X128038737Y-76527510D01*
X128038735Y-76527513D01*
X127816357Y-76860325D01*
X127533325Y-77143357D01*
X127200513Y-77365735D01*
X127200510Y-77365737D01*
X126830712Y-77518912D01*
X126438136Y-77597000D01*
X126037864Y-77597000D01*
X125645288Y-77518912D01*
X125275490Y-77365737D01*
X125275487Y-77365735D01*
X124942675Y-77143357D01*
X124659643Y-76860325D01*
X124437265Y-76527513D01*
X124437263Y-76527510D01*
X124284088Y-76157712D01*
X124206000Y-75765136D01*
X124206000Y-75364864D01*
X124284088Y-74972288D01*
X124437263Y-74602490D01*
X124475796Y-74544822D01*
X124659643Y-74269675D01*
X124942675Y-73986643D01*
X125275487Y-73764265D01*
X125275490Y-73764263D01*
X125645288Y-73611088D01*
X126037864Y-73533000D01*
X126438136Y-73533000D01*
X126830712Y-73611088D01*
X126830712Y-73611088D01*
G37*
G36*
X172127294Y-74561496D02*
X172247726Y-74598029D01*
X172290087Y-74610879D01*
X172440112Y-74691068D01*
X172571612Y-74798988D01*
X172679532Y-74930488D01*
X172759721Y-75080512D01*
X172772571Y-75122873D01*
X172809104Y-75243305D01*
X172809104Y-75243307D01*
X172821600Y-75370179D01*
X172821600Y-75759820D01*
X172821076Y-75765136D01*
X172809104Y-75886694D01*
X172772571Y-76007128D01*
X172759721Y-76049488D01*
X172679532Y-76199512D01*
X172571612Y-76331012D01*
X172440112Y-76438932D01*
X172290088Y-76519121D01*
X172262433Y-76527510D01*
X172127295Y-76568504D01*
X172014432Y-76579620D01*
X171958001Y-76585178D01*
X171958000Y-76585178D01*
X171788706Y-76568504D01*
X171653568Y-76527510D01*
X171625913Y-76519121D01*
X171475889Y-76438932D01*
X171385946Y-76365117D01*
X171344388Y-76331012D01*
X171236469Y-76199512D01*
X171214127Y-76157713D01*
X171156279Y-76049488D01*
X171143429Y-76007127D01*
X171106896Y-75886695D01*
X171098565Y-75802112D01*
X171094400Y-75759821D01*
X171094400Y-75370180D01*
X171106896Y-75243308D01*
X171106896Y-75243306D01*
X171156278Y-75080517D01*
X171156279Y-75080513D01*
X171236468Y-74930488D01*
X171344388Y-74798988D01*
X171475888Y-74691068D01*
X171625912Y-74610879D01*
X171668273Y-74598029D01*
X171788705Y-74561496D01*
X171901568Y-74550380D01*
X171957999Y-74544822D01*
X171958000Y-74544822D01*
X172127294Y-74561496D01*
X172127294Y-74561496D01*
G37*
G36*
X152823294Y-74561496D02*
X152943726Y-74598029D01*
X152986087Y-74610879D01*
X153136112Y-74691068D01*
X153267612Y-74798988D01*
X153375532Y-74930488D01*
X153455721Y-75080512D01*
X153468571Y-75122873D01*
X153505104Y-75243305D01*
X153505104Y-75243307D01*
X153517600Y-75370179D01*
X153517600Y-75759820D01*
X153517076Y-75765136D01*
X153505104Y-75886694D01*
X153468571Y-76007128D01*
X153455721Y-76049488D01*
X153375532Y-76199512D01*
X153267612Y-76331012D01*
X153136112Y-76438932D01*
X152986088Y-76519121D01*
X152958433Y-76527510D01*
X152823295Y-76568504D01*
X152710432Y-76579620D01*
X152654001Y-76585178D01*
X152654000Y-76585178D01*
X152484706Y-76568504D01*
X152349568Y-76527510D01*
X152321913Y-76519121D01*
X152171889Y-76438932D01*
X152081946Y-76365117D01*
X152040388Y-76331012D01*
X151932469Y-76199512D01*
X151910127Y-76157713D01*
X151852279Y-76049488D01*
X151839429Y-76007127D01*
X151802896Y-75886695D01*
X151794565Y-75802112D01*
X151790400Y-75759821D01*
X151790400Y-75370180D01*
X151802896Y-75243308D01*
X151802896Y-75243306D01*
X151852278Y-75080517D01*
X151852279Y-75080513D01*
X151932468Y-74930488D01*
X152040388Y-74798988D01*
X152171888Y-74691068D01*
X152321912Y-74610879D01*
X152364273Y-74598029D01*
X152484705Y-74561496D01*
X152597568Y-74550380D01*
X152653999Y-74544822D01*
X152654000Y-74544822D01*
X152823294Y-74561496D01*
X152823294Y-74561496D01*
G37*
G36*
X142663294Y-74561496D02*
X142783726Y-74598029D01*
X142826087Y-74610879D01*
X142976112Y-74691068D01*
X143107612Y-74798988D01*
X143215532Y-74930488D01*
X143295721Y-75080512D01*
X143308571Y-75122873D01*
X143345104Y-75243305D01*
X143345104Y-75243307D01*
X143357600Y-75370179D01*
X143357600Y-75759820D01*
X143357076Y-75765136D01*
X143345104Y-75886694D01*
X143308571Y-76007128D01*
X143295721Y-76049488D01*
X143215532Y-76199512D01*
X143107612Y-76331012D01*
X142976112Y-76438932D01*
X142826088Y-76519121D01*
X142798433Y-76527510D01*
X142663295Y-76568504D01*
X142550432Y-76579620D01*
X142494001Y-76585178D01*
X142494000Y-76585178D01*
X142324706Y-76568504D01*
X142189568Y-76527510D01*
X142161913Y-76519121D01*
X142011889Y-76438932D01*
X141921946Y-76365117D01*
X141880388Y-76331012D01*
X141772469Y-76199512D01*
X141750127Y-76157713D01*
X141692279Y-76049488D01*
X141679429Y-76007127D01*
X141642896Y-75886695D01*
X141634565Y-75802112D01*
X141630400Y-75759821D01*
X141630400Y-75370180D01*
X141642896Y-75243308D01*
X141642896Y-75243306D01*
X141692278Y-75080517D01*
X141692279Y-75080513D01*
X141772468Y-74930488D01*
X141880388Y-74798988D01*
X142011888Y-74691068D01*
X142161912Y-74610879D01*
X142204273Y-74598029D01*
X142324705Y-74561496D01*
X142437568Y-74550380D01*
X142493999Y-74544822D01*
X142494000Y-74544822D01*
X142663294Y-74561496D01*
X142663294Y-74561496D01*
G37*
G36*
X145203294Y-74561496D02*
X145323726Y-74598029D01*
X145366087Y-74610879D01*
X145516112Y-74691068D01*
X145647612Y-74798988D01*
X145755532Y-74930488D01*
X145835721Y-75080512D01*
X145848571Y-75122873D01*
X145885104Y-75243305D01*
X145885104Y-75243307D01*
X145897600Y-75370179D01*
X145897600Y-75759820D01*
X145897076Y-75765136D01*
X145885104Y-75886694D01*
X145848571Y-76007128D01*
X145835721Y-76049488D01*
X145755532Y-76199512D01*
X145647612Y-76331012D01*
X145516112Y-76438932D01*
X145366088Y-76519121D01*
X145338433Y-76527510D01*
X145203295Y-76568504D01*
X145090432Y-76579620D01*
X145034001Y-76585178D01*
X145034000Y-76585178D01*
X144864706Y-76568504D01*
X144729568Y-76527510D01*
X144701913Y-76519121D01*
X144551889Y-76438932D01*
X144461946Y-76365117D01*
X144420388Y-76331012D01*
X144312469Y-76199512D01*
X144290127Y-76157713D01*
X144232279Y-76049488D01*
X144219429Y-76007127D01*
X144182896Y-75886695D01*
X144174565Y-75802112D01*
X144170400Y-75759821D01*
X144170400Y-75370180D01*
X144182896Y-75243308D01*
X144182896Y-75243306D01*
X144232278Y-75080517D01*
X144232279Y-75080513D01*
X144312468Y-74930488D01*
X144420388Y-74798988D01*
X144551888Y-74691068D01*
X144701912Y-74610879D01*
X144744273Y-74598029D01*
X144864705Y-74561496D01*
X144977568Y-74550380D01*
X145033999Y-74544822D01*
X145034000Y-74544822D01*
X145203294Y-74561496D01*
X145203294Y-74561496D01*
G37*
G36*
X147743294Y-74561496D02*
X147863726Y-74598029D01*
X147906087Y-74610879D01*
X148056112Y-74691068D01*
X148187612Y-74798988D01*
X148295532Y-74930488D01*
X148375721Y-75080512D01*
X148388571Y-75122873D01*
X148425104Y-75243305D01*
X148425104Y-75243307D01*
X148437600Y-75370179D01*
X148437600Y-75759820D01*
X148437076Y-75765136D01*
X148425104Y-75886694D01*
X148388571Y-76007128D01*
X148375721Y-76049488D01*
X148295532Y-76199512D01*
X148187612Y-76331012D01*
X148056112Y-76438932D01*
X147906088Y-76519121D01*
X147878433Y-76527510D01*
X147743295Y-76568504D01*
X147630432Y-76579620D01*
X147574001Y-76585178D01*
X147574000Y-76585178D01*
X147404706Y-76568504D01*
X147269568Y-76527510D01*
X147241913Y-76519121D01*
X147091889Y-76438932D01*
X147001946Y-76365117D01*
X146960388Y-76331012D01*
X146852469Y-76199512D01*
X146830127Y-76157713D01*
X146772279Y-76049488D01*
X146759429Y-76007127D01*
X146722896Y-75886695D01*
X146714565Y-75802112D01*
X146710400Y-75759821D01*
X146710400Y-75370180D01*
X146722896Y-75243308D01*
X146722896Y-75243306D01*
X146772278Y-75080517D01*
X146772279Y-75080513D01*
X146852468Y-74930488D01*
X146960388Y-74798988D01*
X147091888Y-74691068D01*
X147241912Y-74610879D01*
X147284273Y-74598029D01*
X147404705Y-74561496D01*
X147517568Y-74550380D01*
X147573999Y-74544822D01*
X147574000Y-74544822D01*
X147743294Y-74561496D01*
X147743294Y-74561496D01*
G37*
G36*
X150283294Y-74561496D02*
X150403726Y-74598029D01*
X150446087Y-74610879D01*
X150596112Y-74691068D01*
X150727612Y-74798988D01*
X150835532Y-74930488D01*
X150915721Y-75080512D01*
X150928571Y-75122873D01*
X150965104Y-75243305D01*
X150965104Y-75243307D01*
X150977600Y-75370179D01*
X150977600Y-75759820D01*
X150977076Y-75765136D01*
X150965104Y-75886694D01*
X150928571Y-76007128D01*
X150915721Y-76049488D01*
X150835532Y-76199512D01*
X150727612Y-76331012D01*
X150596112Y-76438932D01*
X150446088Y-76519121D01*
X150418433Y-76527510D01*
X150283295Y-76568504D01*
X150170432Y-76579620D01*
X150114001Y-76585178D01*
X150114000Y-76585178D01*
X149944706Y-76568504D01*
X149809568Y-76527510D01*
X149781913Y-76519121D01*
X149631889Y-76438932D01*
X149541946Y-76365117D01*
X149500388Y-76331012D01*
X149392469Y-76199512D01*
X149370127Y-76157713D01*
X149312279Y-76049488D01*
X149299429Y-76007127D01*
X149262896Y-75886695D01*
X149254565Y-75802112D01*
X149250400Y-75759821D01*
X149250400Y-75370180D01*
X149262896Y-75243308D01*
X149262896Y-75243306D01*
X149312278Y-75080517D01*
X149312279Y-75080513D01*
X149392468Y-74930488D01*
X149500388Y-74798988D01*
X149631888Y-74691068D01*
X149781912Y-74610879D01*
X149824273Y-74598029D01*
X149944705Y-74561496D01*
X150057568Y-74550380D01*
X150113999Y-74544822D01*
X150114000Y-74544822D01*
X150283294Y-74561496D01*
X150283294Y-74561496D01*
G37*
G36*
X156887294Y-74561496D02*
X157007726Y-74598029D01*
X157050087Y-74610879D01*
X157200112Y-74691068D01*
X157331612Y-74798988D01*
X157439532Y-74930488D01*
X157519721Y-75080512D01*
X157532571Y-75122873D01*
X157569104Y-75243305D01*
X157569104Y-75243307D01*
X157581600Y-75370179D01*
X157581600Y-75759820D01*
X157581076Y-75765136D01*
X157569104Y-75886694D01*
X157532571Y-76007128D01*
X157519721Y-76049488D01*
X157439532Y-76199512D01*
X157331612Y-76331012D01*
X157200112Y-76438932D01*
X157050088Y-76519121D01*
X157022433Y-76527510D01*
X156887295Y-76568504D01*
X156774432Y-76579620D01*
X156718001Y-76585178D01*
X156718000Y-76585178D01*
X156548706Y-76568504D01*
X156413568Y-76527510D01*
X156385913Y-76519121D01*
X156235889Y-76438932D01*
X156145946Y-76365117D01*
X156104388Y-76331012D01*
X155996469Y-76199512D01*
X155974127Y-76157713D01*
X155916279Y-76049488D01*
X155903429Y-76007127D01*
X155866896Y-75886695D01*
X155858565Y-75802112D01*
X155854400Y-75759821D01*
X155854400Y-75370180D01*
X155866896Y-75243308D01*
X155866896Y-75243306D01*
X155916278Y-75080517D01*
X155916279Y-75080513D01*
X155996468Y-74930488D01*
X156104388Y-74798988D01*
X156235888Y-74691068D01*
X156385912Y-74610879D01*
X156428273Y-74598029D01*
X156548705Y-74561496D01*
X156661568Y-74550380D01*
X156717999Y-74544822D01*
X156718000Y-74544822D01*
X156887294Y-74561496D01*
X156887294Y-74561496D01*
G37*
G36*
X169587294Y-74561496D02*
X169707726Y-74598029D01*
X169750087Y-74610879D01*
X169900112Y-74691068D01*
X170031612Y-74798988D01*
X170139532Y-74930488D01*
X170219721Y-75080512D01*
X170232571Y-75122873D01*
X170269104Y-75243305D01*
X170269104Y-75243307D01*
X170281600Y-75370179D01*
X170281600Y-75759820D01*
X170281076Y-75765136D01*
X170269104Y-75886694D01*
X170232571Y-76007128D01*
X170219721Y-76049488D01*
X170139532Y-76199512D01*
X170031612Y-76331012D01*
X169900112Y-76438932D01*
X169750088Y-76519121D01*
X169722433Y-76527510D01*
X169587295Y-76568504D01*
X169474432Y-76579620D01*
X169418001Y-76585178D01*
X169418000Y-76585178D01*
X169248706Y-76568504D01*
X169113568Y-76527510D01*
X169085913Y-76519121D01*
X168935889Y-76438932D01*
X168845946Y-76365117D01*
X168804388Y-76331012D01*
X168696469Y-76199512D01*
X168674127Y-76157713D01*
X168616279Y-76049488D01*
X168603429Y-76007127D01*
X168566896Y-75886695D01*
X168558565Y-75802112D01*
X168554400Y-75759821D01*
X168554400Y-75370180D01*
X168566896Y-75243308D01*
X168566896Y-75243306D01*
X168616278Y-75080517D01*
X168616279Y-75080513D01*
X168696468Y-74930488D01*
X168804388Y-74798988D01*
X168935888Y-74691068D01*
X169085912Y-74610879D01*
X169128273Y-74598029D01*
X169248705Y-74561496D01*
X169361568Y-74550380D01*
X169417999Y-74544822D01*
X169418000Y-74544822D01*
X169587294Y-74561496D01*
X169587294Y-74561496D01*
G37*
G36*
X161967294Y-74561496D02*
X162087726Y-74598029D01*
X162130087Y-74610879D01*
X162280112Y-74691068D01*
X162411612Y-74798988D01*
X162519532Y-74930488D01*
X162599721Y-75080512D01*
X162612571Y-75122873D01*
X162649104Y-75243305D01*
X162649104Y-75243307D01*
X162661600Y-75370179D01*
X162661600Y-75759820D01*
X162661076Y-75765136D01*
X162649104Y-75886694D01*
X162612571Y-76007128D01*
X162599721Y-76049488D01*
X162519532Y-76199512D01*
X162411612Y-76331012D01*
X162280112Y-76438932D01*
X162130088Y-76519121D01*
X162102433Y-76527510D01*
X161967295Y-76568504D01*
X161854432Y-76579620D01*
X161798001Y-76585178D01*
X161798000Y-76585178D01*
X161628706Y-76568504D01*
X161493568Y-76527510D01*
X161465913Y-76519121D01*
X161315889Y-76438932D01*
X161225946Y-76365117D01*
X161184388Y-76331012D01*
X161076469Y-76199512D01*
X161054127Y-76157713D01*
X160996279Y-76049488D01*
X160983429Y-76007127D01*
X160946896Y-75886695D01*
X160938565Y-75802112D01*
X160934400Y-75759821D01*
X160934400Y-75370180D01*
X160946896Y-75243308D01*
X160946896Y-75243306D01*
X160996278Y-75080517D01*
X160996279Y-75080513D01*
X161076468Y-74930488D01*
X161184388Y-74798988D01*
X161315888Y-74691068D01*
X161465912Y-74610879D01*
X161508273Y-74598029D01*
X161628705Y-74561496D01*
X161741568Y-74550380D01*
X161797999Y-74544822D01*
X161798000Y-74544822D01*
X161967294Y-74561496D01*
X161967294Y-74561496D01*
G37*
G36*
X164507294Y-74561496D02*
X164627726Y-74598029D01*
X164670087Y-74610879D01*
X164820112Y-74691068D01*
X164951612Y-74798988D01*
X165059532Y-74930488D01*
X165139721Y-75080512D01*
X165152571Y-75122873D01*
X165189104Y-75243305D01*
X165189104Y-75243307D01*
X165201600Y-75370179D01*
X165201600Y-75759820D01*
X165201076Y-75765136D01*
X165189104Y-75886694D01*
X165152571Y-76007128D01*
X165139721Y-76049488D01*
X165059532Y-76199512D01*
X164951612Y-76331012D01*
X164820112Y-76438932D01*
X164670088Y-76519121D01*
X164642433Y-76527510D01*
X164507295Y-76568504D01*
X164394432Y-76579620D01*
X164338001Y-76585178D01*
X164338000Y-76585178D01*
X164168706Y-76568504D01*
X164033568Y-76527510D01*
X164005913Y-76519121D01*
X163855889Y-76438932D01*
X163765946Y-76365117D01*
X163724388Y-76331012D01*
X163616469Y-76199512D01*
X163594127Y-76157713D01*
X163536279Y-76049488D01*
X163523429Y-76007127D01*
X163486896Y-75886695D01*
X163478565Y-75802112D01*
X163474400Y-75759821D01*
X163474400Y-75370180D01*
X163486896Y-75243308D01*
X163486896Y-75243306D01*
X163536278Y-75080517D01*
X163536279Y-75080513D01*
X163616468Y-74930488D01*
X163724388Y-74798988D01*
X163855888Y-74691068D01*
X164005912Y-74610879D01*
X164048273Y-74598029D01*
X164168705Y-74561496D01*
X164281568Y-74550380D01*
X164337999Y-74544822D01*
X164338000Y-74544822D01*
X164507294Y-74561496D01*
X164507294Y-74561496D01*
G37*
G36*
X167047294Y-74561496D02*
X167167726Y-74598029D01*
X167210087Y-74610879D01*
X167360112Y-74691068D01*
X167491612Y-74798988D01*
X167599532Y-74930488D01*
X167679721Y-75080512D01*
X167692571Y-75122873D01*
X167729104Y-75243305D01*
X167729104Y-75243307D01*
X167741600Y-75370179D01*
X167741600Y-75759820D01*
X167741076Y-75765136D01*
X167729104Y-75886694D01*
X167692571Y-76007128D01*
X167679721Y-76049488D01*
X167599532Y-76199512D01*
X167491612Y-76331012D01*
X167360112Y-76438932D01*
X167210088Y-76519121D01*
X167182433Y-76527510D01*
X167047295Y-76568504D01*
X166934432Y-76579620D01*
X166878001Y-76585178D01*
X166878000Y-76585178D01*
X166708706Y-76568504D01*
X166573568Y-76527510D01*
X166545913Y-76519121D01*
X166395889Y-76438932D01*
X166305946Y-76365117D01*
X166264388Y-76331012D01*
X166156469Y-76199512D01*
X166134127Y-76157713D01*
X166076279Y-76049488D01*
X166063429Y-76007127D01*
X166026896Y-75886695D01*
X166018565Y-75802112D01*
X166014400Y-75759821D01*
X166014400Y-75370180D01*
X166026896Y-75243308D01*
X166026896Y-75243306D01*
X166076278Y-75080517D01*
X166076279Y-75080513D01*
X166156468Y-74930488D01*
X166264388Y-74798988D01*
X166395888Y-74691068D01*
X166545912Y-74610879D01*
X166588273Y-74598029D01*
X166708705Y-74561496D01*
X166821568Y-74550380D01*
X166877999Y-74544822D01*
X166878000Y-74544822D01*
X167047294Y-74561496D01*
X167047294Y-74561496D01*
G37*
G36*
X140123294Y-74561496D02*
X140243726Y-74598029D01*
X140286087Y-74610879D01*
X140436112Y-74691068D01*
X140567612Y-74798988D01*
X140675532Y-74930488D01*
X140755721Y-75080512D01*
X140768571Y-75122873D01*
X140805104Y-75243305D01*
X140805104Y-75243307D01*
X140817600Y-75370179D01*
X140817600Y-75759820D01*
X140817076Y-75765136D01*
X140805104Y-75886694D01*
X140768571Y-76007128D01*
X140755721Y-76049488D01*
X140675532Y-76199512D01*
X140567612Y-76331012D01*
X140436112Y-76438932D01*
X140286088Y-76519121D01*
X140258433Y-76527510D01*
X140123295Y-76568504D01*
X140010432Y-76579620D01*
X139954001Y-76585178D01*
X139954000Y-76585178D01*
X139784706Y-76568504D01*
X139649568Y-76527510D01*
X139621913Y-76519121D01*
X139471889Y-76438932D01*
X139381946Y-76365117D01*
X139340388Y-76331012D01*
X139232469Y-76199512D01*
X139210127Y-76157713D01*
X139152279Y-76049488D01*
X139139429Y-76007127D01*
X139102896Y-75886695D01*
X139094565Y-75802112D01*
X139090400Y-75759821D01*
X139090400Y-75370180D01*
X139102896Y-75243308D01*
X139102896Y-75243306D01*
X139152278Y-75080517D01*
X139152279Y-75080513D01*
X139232468Y-74930488D01*
X139340388Y-74798988D01*
X139471888Y-74691068D01*
X139621912Y-74610879D01*
X139664273Y-74598029D01*
X139784705Y-74561496D01*
X139897568Y-74550380D01*
X139953999Y-74544822D01*
X139954000Y-74544822D01*
X140123294Y-74561496D01*
X140123294Y-74561496D01*
G37*
G36*
X137583294Y-74561496D02*
X137703726Y-74598029D01*
X137746087Y-74610879D01*
X137896112Y-74691068D01*
X138027612Y-74798988D01*
X138135532Y-74930488D01*
X138215721Y-75080512D01*
X138228571Y-75122873D01*
X138265104Y-75243305D01*
X138265104Y-75243307D01*
X138277600Y-75370179D01*
X138277600Y-75759820D01*
X138277076Y-75765136D01*
X138265104Y-75886694D01*
X138228571Y-76007128D01*
X138215721Y-76049488D01*
X138135532Y-76199512D01*
X138027612Y-76331012D01*
X137896112Y-76438932D01*
X137746088Y-76519121D01*
X137718433Y-76527510D01*
X137583295Y-76568504D01*
X137470432Y-76579620D01*
X137414001Y-76585178D01*
X137414000Y-76585178D01*
X137244706Y-76568504D01*
X137109568Y-76527510D01*
X137081913Y-76519121D01*
X136931889Y-76438932D01*
X136841946Y-76365117D01*
X136800388Y-76331012D01*
X136692469Y-76199512D01*
X136670127Y-76157713D01*
X136612279Y-76049488D01*
X136599429Y-76007127D01*
X136562896Y-75886695D01*
X136554565Y-75802112D01*
X136550400Y-75759821D01*
X136550400Y-75370180D01*
X136562896Y-75243308D01*
X136562896Y-75243306D01*
X136612278Y-75080517D01*
X136612279Y-75080513D01*
X136692468Y-74930488D01*
X136800388Y-74798988D01*
X136931888Y-74691068D01*
X137081912Y-74610879D01*
X137124273Y-74598029D01*
X137244705Y-74561496D01*
X137357568Y-74550380D01*
X137413999Y-74544822D01*
X137414000Y-74544822D01*
X137583294Y-74561496D01*
X137583294Y-74561496D01*
G37*
G36*
X135043294Y-74561496D02*
X135163726Y-74598029D01*
X135206087Y-74610879D01*
X135356112Y-74691068D01*
X135487612Y-74798988D01*
X135595532Y-74930488D01*
X135675721Y-75080512D01*
X135688571Y-75122873D01*
X135725104Y-75243305D01*
X135725104Y-75243307D01*
X135737600Y-75370179D01*
X135737600Y-75759820D01*
X135737076Y-75765136D01*
X135725104Y-75886694D01*
X135688571Y-76007128D01*
X135675721Y-76049488D01*
X135595532Y-76199512D01*
X135487612Y-76331012D01*
X135356112Y-76438932D01*
X135206088Y-76519121D01*
X135178433Y-76527510D01*
X135043295Y-76568504D01*
X134930432Y-76579620D01*
X134874001Y-76585178D01*
X134874000Y-76585178D01*
X134704706Y-76568504D01*
X134569568Y-76527510D01*
X134541913Y-76519121D01*
X134391889Y-76438932D01*
X134301946Y-76365117D01*
X134260388Y-76331012D01*
X134152469Y-76199512D01*
X134130127Y-76157713D01*
X134072279Y-76049488D01*
X134059429Y-76007127D01*
X134022896Y-75886695D01*
X134014565Y-75802112D01*
X134010400Y-75759821D01*
X134010400Y-75370180D01*
X134022896Y-75243308D01*
X134022896Y-75243306D01*
X134072278Y-75080517D01*
X134072279Y-75080513D01*
X134152468Y-74930488D01*
X134260388Y-74798988D01*
X134391888Y-74691068D01*
X134541912Y-74610879D01*
X134584273Y-74598029D01*
X134704705Y-74561496D01*
X134817568Y-74550380D01*
X134873999Y-74544822D01*
X134874000Y-74544822D01*
X135043294Y-74561496D01*
X135043294Y-74561496D01*
G37*
G36*
X129963294Y-74561496D02*
X130083726Y-74598029D01*
X130126087Y-74610879D01*
X130276112Y-74691068D01*
X130407612Y-74798988D01*
X130515532Y-74930488D01*
X130595721Y-75080512D01*
X130608571Y-75122873D01*
X130645104Y-75243305D01*
X130645104Y-75243307D01*
X130657600Y-75370179D01*
X130657600Y-75759820D01*
X130657076Y-75765136D01*
X130645104Y-75886694D01*
X130608571Y-76007128D01*
X130595721Y-76049488D01*
X130515532Y-76199512D01*
X130407612Y-76331012D01*
X130276112Y-76438932D01*
X130126088Y-76519121D01*
X130098433Y-76527510D01*
X129963295Y-76568504D01*
X129850432Y-76579620D01*
X129794001Y-76585178D01*
X129794000Y-76585178D01*
X129624706Y-76568504D01*
X129489568Y-76527510D01*
X129461913Y-76519121D01*
X129311889Y-76438932D01*
X129221946Y-76365117D01*
X129180388Y-76331012D01*
X129072469Y-76199512D01*
X129050127Y-76157713D01*
X128992279Y-76049488D01*
X128979429Y-76007127D01*
X128942896Y-75886695D01*
X128934565Y-75802112D01*
X128930400Y-75759821D01*
X128930400Y-75370180D01*
X128942896Y-75243308D01*
X128942896Y-75243306D01*
X128992278Y-75080517D01*
X128992279Y-75080513D01*
X129072468Y-74930488D01*
X129180388Y-74798988D01*
X129311888Y-74691068D01*
X129461912Y-74610879D01*
X129504273Y-74598029D01*
X129624705Y-74561496D01*
X129737568Y-74550380D01*
X129793999Y-74544822D01*
X129794000Y-74544822D01*
X129963294Y-74561496D01*
X129963294Y-74561496D01*
G37*
G36*
X132503294Y-74561496D02*
X132623726Y-74598029D01*
X132666087Y-74610879D01*
X132816112Y-74691068D01*
X132947612Y-74798988D01*
X133055532Y-74930488D01*
X133135721Y-75080512D01*
X133148571Y-75122873D01*
X133185104Y-75243305D01*
X133185104Y-75243307D01*
X133197600Y-75370179D01*
X133197600Y-75759820D01*
X133197076Y-75765136D01*
X133185104Y-75886694D01*
X133148571Y-76007128D01*
X133135721Y-76049488D01*
X133055532Y-76199512D01*
X132947612Y-76331012D01*
X132816112Y-76438932D01*
X132666088Y-76519121D01*
X132638433Y-76527510D01*
X132503295Y-76568504D01*
X132390432Y-76579620D01*
X132334001Y-76585178D01*
X132334000Y-76585178D01*
X132164706Y-76568504D01*
X132029568Y-76527510D01*
X132001913Y-76519121D01*
X131851889Y-76438932D01*
X131761946Y-76365117D01*
X131720388Y-76331012D01*
X131612469Y-76199512D01*
X131590127Y-76157713D01*
X131532279Y-76049488D01*
X131519429Y-76007127D01*
X131482896Y-75886695D01*
X131474565Y-75802112D01*
X131470400Y-75759821D01*
X131470400Y-75370180D01*
X131482896Y-75243308D01*
X131482896Y-75243306D01*
X131532278Y-75080517D01*
X131532279Y-75080513D01*
X131612468Y-74930488D01*
X131720388Y-74798988D01*
X131851888Y-74691068D01*
X132001912Y-74610879D01*
X132044273Y-74598029D01*
X132164705Y-74561496D01*
X132277568Y-74550380D01*
X132333999Y-74544822D01*
X132334000Y-74544822D01*
X132503294Y-74561496D01*
X132503294Y-74561496D01*
G37*
G36*
X174667294Y-74561496D02*
X174787726Y-74598029D01*
X174830087Y-74610879D01*
X174980112Y-74691068D01*
X175111612Y-74798988D01*
X175219532Y-74930488D01*
X175299721Y-75080512D01*
X175312571Y-75122873D01*
X175349104Y-75243305D01*
X175349104Y-75243307D01*
X175361600Y-75370179D01*
X175361600Y-75759820D01*
X175361076Y-75765136D01*
X175349104Y-75886694D01*
X175312571Y-76007128D01*
X175299721Y-76049488D01*
X175219532Y-76199512D01*
X175111612Y-76331012D01*
X174980112Y-76438932D01*
X174830088Y-76519121D01*
X174802433Y-76527510D01*
X174667295Y-76568504D01*
X174554432Y-76579620D01*
X174498001Y-76585178D01*
X174498000Y-76585178D01*
X174328706Y-76568504D01*
X174193568Y-76527510D01*
X174165913Y-76519121D01*
X174015889Y-76438932D01*
X173925946Y-76365117D01*
X173884388Y-76331012D01*
X173776469Y-76199512D01*
X173754127Y-76157713D01*
X173696279Y-76049488D01*
X173683429Y-76007127D01*
X173646896Y-75886695D01*
X173638565Y-75802112D01*
X173634400Y-75759821D01*
X173634400Y-75370180D01*
X173646896Y-75243308D01*
X173646896Y-75243306D01*
X173696278Y-75080517D01*
X173696279Y-75080513D01*
X173776468Y-74930488D01*
X173884388Y-74798988D01*
X174015888Y-74691068D01*
X174165912Y-74610879D01*
X174208273Y-74598029D01*
X174328705Y-74561496D01*
X174441568Y-74550380D01*
X174497999Y-74544822D01*
X174498000Y-74544822D01*
X174667294Y-74561496D01*
X174667294Y-74561496D01*
G37*
G36*
X159427294Y-74561496D02*
X159547726Y-74598029D01*
X159590087Y-74610879D01*
X159740112Y-74691068D01*
X159871612Y-74798988D01*
X159979532Y-74930488D01*
X160059721Y-75080512D01*
X160072571Y-75122873D01*
X160109104Y-75243305D01*
X160109104Y-75243307D01*
X160121600Y-75370179D01*
X160121600Y-75759820D01*
X160121076Y-75765136D01*
X160109104Y-75886694D01*
X160072571Y-76007128D01*
X160059721Y-76049488D01*
X159979532Y-76199512D01*
X159871612Y-76331012D01*
X159740112Y-76438932D01*
X159590088Y-76519121D01*
X159562433Y-76527510D01*
X159427295Y-76568504D01*
X159314432Y-76579620D01*
X159258001Y-76585178D01*
X159258000Y-76585178D01*
X159088706Y-76568504D01*
X158953568Y-76527510D01*
X158925913Y-76519121D01*
X158775889Y-76438932D01*
X158685946Y-76365117D01*
X158644388Y-76331012D01*
X158536469Y-76199512D01*
X158514127Y-76157713D01*
X158456279Y-76049488D01*
X158443429Y-76007127D01*
X158406896Y-75886695D01*
X158398565Y-75802112D01*
X158394400Y-75759821D01*
X158394400Y-75370180D01*
X158406896Y-75243308D01*
X158406896Y-75243306D01*
X158456278Y-75080517D01*
X158456279Y-75080513D01*
X158536468Y-74930488D01*
X158644388Y-74798988D01*
X158775888Y-74691068D01*
X158925912Y-74610879D01*
X158968273Y-74598029D01*
X159088705Y-74561496D01*
X159201568Y-74550380D01*
X159257999Y-74544822D01*
X159258000Y-74544822D01*
X159427294Y-74561496D01*
X159427294Y-74561496D01*
G37*
M02*
