G04 #@! TF.GenerationSoftware,KiCad,Pcbnew,(5.0.1)-4*
G04 #@! TF.CreationDate,2019-02-10T23:31:26-08:00*
G04 #@! TF.ProjectId,ThrottleControl,5468726F74746C65436F6E74726F6C2E,rev?*
G04 #@! TF.SameCoordinates,Original*
G04 #@! TF.FileFunction,Copper,L2,Bot,Signal*
G04 #@! TF.FilePolarity,Positive*
%FSLAX46Y46*%
G04 Gerber Fmt 4.6, Leading zero omitted, Abs format (unit mm)*
G04 Created by KiCad (PCBNEW (5.0.1)-4) date 2/10/2019 11:31:26 PM*
%MOMM*%
%LPD*%
G01*
G04 APERTURE LIST*
G04 #@! TA.AperFunction,NonConductor*
%ADD10C,0.200000*%
G04 #@! TD*
G04 #@! TA.AperFunction,ComponentPad*
%ADD11R,1.700000X1.700000*%
G04 #@! TD*
G04 #@! TA.AperFunction,ComponentPad*
%ADD12O,1.700000X1.700000*%
G04 #@! TD*
G04 #@! TA.AperFunction,ComponentPad*
%ADD13O,1.600000X1.600000*%
G04 #@! TD*
G04 #@! TA.AperFunction,ComponentPad*
%ADD14C,1.600000*%
G04 #@! TD*
G04 #@! TA.AperFunction,ComponentPad*
%ADD15O,1.500000X1.500000*%
G04 #@! TD*
G04 #@! TA.AperFunction,ComponentPad*
%ADD16C,1.524000*%
G04 #@! TD*
G04 #@! TA.AperFunction,ComponentPad*
%ADD17R,1.600000X1.600000*%
G04 #@! TD*
G04 #@! TA.AperFunction,ViaPad*
%ADD18C,0.800000*%
G04 #@! TD*
G04 #@! TA.AperFunction,Conductor*
%ADD19C,0.250000*%
G04 #@! TD*
G04 APERTURE END LIST*
D10*
X178435000Y-117475000D02*
X178435000Y-45085000D01*
X133985000Y-117475000D02*
X178435000Y-117475000D01*
X106045000Y-89535000D02*
X133985000Y-117475000D01*
X106045000Y-64770000D02*
X106045000Y-89535000D01*
X114935000Y-55245000D02*
X106045000Y-64770000D01*
X123825000Y-55245000D02*
X114935000Y-55245000D01*
X123825000Y-45085000D02*
X123825000Y-55245000D01*
X178435000Y-45085000D02*
X123825000Y-45085000D01*
D11*
G04 #@! TO.P,J7,1*
G04 #@! TO.N,Earth*
X151130000Y-58420000D03*
D12*
G04 #@! TO.P,J7,2*
G04 #@! TO.N,/UNa1*
X148590000Y-58420000D03*
G04 #@! TO.P,J7,3*
G04 #@! TO.N,/UNa2*
X146050000Y-58420000D03*
G04 #@! TO.P,J7,4*
G04 #@! TO.N,/UNa3*
X143510000Y-58420000D03*
G04 #@! TD*
G04 #@! TO.P,J2,3*
G04 #@! TO.N,/WRP2*
X172844536Y-90718480D03*
G04 #@! TO.P,J2,2*
G04 #@! TO.N,/WRP1*
X172844536Y-93258480D03*
D11*
G04 #@! TO.P,J2,1*
G04 #@! TO.N,Earth*
X172844536Y-95798480D03*
G04 #@! TD*
G04 #@! TO.P,J3,1*
G04 #@! TO.N,Earth*
X172844536Y-85638480D03*
D12*
G04 #@! TO.P,J3,2*
G04 #@! TO.N,/PWR1*
X172844536Y-83098480D03*
G04 #@! TO.P,J3,3*
G04 #@! TO.N,/PWR2*
X172844536Y-80558480D03*
G04 #@! TD*
D11*
G04 #@! TO.P,J4,1*
G04 #@! TO.N,Earth*
X172844536Y-105958480D03*
D12*
G04 #@! TO.P,J4,2*
G04 #@! TO.N,/CZ1*
X172844536Y-103418480D03*
G04 #@! TO.P,J4,3*
G04 #@! TO.N,/CZ2*
X172844536Y-100878480D03*
G04 #@! TD*
G04 #@! TO.P,J5,3*
G04 #@! TO.N,/VTR*
X163954536Y-111038480D03*
G04 #@! TO.P,J5,2*
G04 #@! TO.N,/VOR*
X161414536Y-111038480D03*
D11*
G04 #@! TO.P,J5,1*
G04 #@! TO.N,Earth*
X158874536Y-111038480D03*
G04 #@! TD*
G04 #@! TO.P,J6,1*
G04 #@! TO.N,Earth*
X128394536Y-97068480D03*
D12*
G04 #@! TO.P,J6,2*
G04 #@! TO.N,/Cam1*
X128394536Y-99608480D03*
G04 #@! TO.P,J6,3*
G04 #@! TO.N,/Cam2*
X128394536Y-102148480D03*
G04 #@! TO.P,J6,4*
G04 #@! TO.N,/Cam3*
X128394536Y-104688480D03*
G04 #@! TO.P,J6,5*
G04 #@! TO.N,/Cam4*
X128394536Y-107228480D03*
G04 #@! TD*
G04 #@! TO.P,J8,5*
G04 #@! TO.N,/UNb4*
X153670000Y-76200000D03*
G04 #@! TO.P,J8,4*
G04 #@! TO.N,/UNb3*
X151130000Y-76200000D03*
G04 #@! TO.P,J8,3*
G04 #@! TO.N,/UNb2*
X148590000Y-76200000D03*
G04 #@! TO.P,J8,2*
G04 #@! TO.N,/UNb1*
X146050000Y-76200000D03*
D11*
G04 #@! TO.P,J8,1*
G04 #@! TO.N,Earth*
X143510000Y-76200000D03*
G04 #@! TD*
G04 #@! TO.P,J9,1*
G04 #@! TO.N,Earth*
X158750000Y-76200000D03*
D12*
G04 #@! TO.P,J9,2*
G04 #@! TO.N,/UNc1*
X161290000Y-76200000D03*
G04 #@! TO.P,J9,3*
G04 #@! TO.N,/UNc2*
X163830000Y-76200000D03*
G04 #@! TO.P,J9,4*
G04 #@! TO.N,/UNc3*
X166370000Y-76200000D03*
G04 #@! TO.P,J9,5*
G04 #@! TO.N,/UNc4*
X168910000Y-76200000D03*
G04 #@! TD*
G04 #@! TO.P,J10,3*
G04 #@! TO.N,/Map*
X172720000Y-63500000D03*
G04 #@! TO.P,J10,2*
G04 #@! TO.N,/MpR*
X172720000Y-66040000D03*
D11*
G04 #@! TO.P,J10,1*
G04 #@! TO.N,Earth*
X172720000Y-68580000D03*
G04 #@! TD*
G04 #@! TO.P,J11,1*
G04 #@! TO.N,Earth*
X146050000Y-48260000D03*
D12*
G04 #@! TO.P,J11,2*
G04 #@! TO.N,/TSW1*
X146050000Y-50800000D03*
G04 #@! TO.P,J11,3*
G04 #@! TO.N,/TSW2*
X146050000Y-53340000D03*
G04 #@! TD*
D11*
G04 #@! TO.P,J12,1*
G04 #@! TO.N,Earth*
X151130000Y-50800000D03*
D12*
G04 #@! TO.P,J12,2*
G04 #@! TO.N,/WPC*
X151130000Y-48260000D03*
G04 #@! TD*
D13*
G04 #@! TO.P,R1,2*
G04 #@! TO.N,+5V*
X129540000Y-58420000D03*
D14*
G04 #@! TO.P,R1,1*
G04 #@! TO.N,/SCK*
X139700000Y-58420000D03*
G04 #@! TD*
G04 #@! TO.P,R2,1*
G04 #@! TO.N,/SDA*
X139700000Y-54610000D03*
D13*
G04 #@! TO.P,R2,2*
G04 #@! TO.N,+5V*
X129540000Y-54610000D03*
G04 #@! TD*
G04 #@! TO.P,R3,2*
G04 #@! TO.N,/TH75*
X142364536Y-80558480D03*
D14*
G04 #@! TO.P,R3,1*
G04 #@! TO.N,Earth*
X132204536Y-80558480D03*
G04 #@! TD*
G04 #@! TO.P,R4,1*
G04 #@! TO.N,Earth*
X132204536Y-84368480D03*
D13*
G04 #@! TO.P,R4,2*
G04 #@! TO.N,/TH50*
X142364536Y-84368480D03*
G04 #@! TD*
G04 #@! TO.P,R5,2*
G04 #@! TO.N,/TH25*
X142364536Y-88178480D03*
D14*
G04 #@! TO.P,R5,1*
G04 #@! TO.N,Earth*
X132204536Y-88178480D03*
G04 #@! TD*
G04 #@! TO.P,R6,1*
G04 #@! TO.N,Earth*
X132204536Y-91988480D03*
D13*
G04 #@! TO.P,R6,2*
G04 #@! TO.N,/TH0*
X142364536Y-91988480D03*
G04 #@! TD*
G04 #@! TO.P,R7,2*
G04 #@! TO.N,/Cam1*
X142364536Y-95798480D03*
D14*
G04 #@! TO.P,R7,1*
G04 #@! TO.N,Earth*
X132204536Y-95798480D03*
G04 #@! TD*
G04 #@! TO.P,R8,1*
G04 #@! TO.N,Earth*
X132204536Y-99608480D03*
D13*
G04 #@! TO.P,R8,2*
G04 #@! TO.N,/Cam2*
X142364536Y-99608480D03*
G04 #@! TD*
G04 #@! TO.P,R9,2*
G04 #@! TO.N,/Cam3*
X142364536Y-103418480D03*
D14*
G04 #@! TO.P,R9,1*
G04 #@! TO.N,Earth*
X132204536Y-103418480D03*
G04 #@! TD*
G04 #@! TO.P,R10,1*
G04 #@! TO.N,Earth*
X132204536Y-107228480D03*
D13*
G04 #@! TO.P,R10,2*
G04 #@! TO.N,/Cam4*
X142364536Y-107228480D03*
G04 #@! TD*
G04 #@! TO.P,R11,2*
G04 #@! TO.N,/VOR*
X157604536Y-107228480D03*
D14*
G04 #@! TO.P,R11,1*
G04 #@! TO.N,Earth*
X167764536Y-107228480D03*
G04 #@! TD*
G04 #@! TO.P,R12,1*
G04 #@! TO.N,Earth*
X167764536Y-103418480D03*
D13*
G04 #@! TO.P,R12,2*
G04 #@! TO.N,/VTR*
X157604536Y-103418480D03*
G04 #@! TD*
G04 #@! TO.P,R13,2*
G04 #@! TO.N,/CZ1*
X157604536Y-99608480D03*
D14*
G04 #@! TO.P,R13,1*
G04 #@! TO.N,Earth*
X167764536Y-99608480D03*
G04 #@! TD*
G04 #@! TO.P,R14,1*
G04 #@! TO.N,Earth*
X167764536Y-95798480D03*
D13*
G04 #@! TO.P,R14,2*
G04 #@! TO.N,/CZ2*
X157604536Y-95798480D03*
G04 #@! TD*
G04 #@! TO.P,R15,2*
G04 #@! TO.N,/WRP1*
X157604536Y-91988480D03*
D14*
G04 #@! TO.P,R15,1*
G04 #@! TO.N,Earth*
X167764536Y-91988480D03*
G04 #@! TD*
G04 #@! TO.P,R16,1*
G04 #@! TO.N,Earth*
X167764536Y-88178480D03*
D13*
G04 #@! TO.P,R16,2*
G04 #@! TO.N,/WRP2*
X157604536Y-88178480D03*
G04 #@! TD*
G04 #@! TO.P,R17,2*
G04 #@! TO.N,/PWR1*
X157604536Y-84368480D03*
D14*
G04 #@! TO.P,R17,1*
G04 #@! TO.N,Earth*
X167764536Y-84368480D03*
G04 #@! TD*
G04 #@! TO.P,R18,1*
G04 #@! TO.N,Earth*
X167764536Y-80558480D03*
D13*
G04 #@! TO.P,R18,2*
G04 #@! TO.N,/PWR2*
X157604536Y-80558480D03*
G04 #@! TD*
D14*
G04 #@! TO.P,R19,1*
G04 #@! TO.N,Earth*
X170180000Y-49530000D03*
D13*
G04 #@! TO.P,R19,2*
G04 #@! TO.N,/MpR*
X170180000Y-59690000D03*
G04 #@! TD*
G04 #@! TO.P,R20,2*
G04 #@! TO.N,/Map*
X166370000Y-59690000D03*
D14*
G04 #@! TO.P,R20,1*
G04 #@! TO.N,Earth*
X166370000Y-49530000D03*
G04 #@! TD*
G04 #@! TO.P,R21,1*
G04 #@! TO.N,Earth*
X162560000Y-49530000D03*
D13*
G04 #@! TO.P,R21,2*
G04 #@! TO.N,/TSW1*
X162560000Y-59690000D03*
G04 #@! TD*
D14*
G04 #@! TO.P,R22,1*
G04 #@! TO.N,Earth*
X158750000Y-49530000D03*
D13*
G04 #@! TO.P,R22,2*
G04 #@! TO.N,/TSW2*
X158750000Y-59690000D03*
G04 #@! TD*
G04 #@! TO.P,R23,2*
G04 #@! TO.N,/WPC*
X154940000Y-59690000D03*
D14*
G04 #@! TO.P,R23,1*
G04 #@! TO.N,Earth*
X154940000Y-49530000D03*
G04 #@! TD*
D15*
G04 #@! TO.P,SW1,6*
G04 #@! TO.N,Net-(SW1-Pad6)*
X122032895Y-61219261D03*
G04 #@! TO.P,SW1,7*
G04 #@! TO.N,Net-(SW1-Pad7)*
X126627844Y-63872156D03*
G04 #@! TO.P,SW1,8*
G04 #@! TO.N,Net-(SW1-Pad8)*
X129280739Y-68467105D03*
G04 #@! TO.P,SW1,9*
G04 #@! TO.N,Net-(SW1-Pad9)*
X129280739Y-73772895D03*
G04 #@! TO.P,SW1,10*
G04 #@! TO.N,Net-(SW1-Pad10)*
X126627844Y-78367844D03*
G04 #@! TO.P,SW1,11*
G04 #@! TO.N,Net-(SW1-Pad11)*
X122032895Y-81020739D03*
G04 #@! TO.P,SW1,1*
G04 #@! TO.N,/TH0*
X112132156Y-78367844D03*
G04 #@! TO.P,SW1,2*
G04 #@! TO.N,/TH25*
X109479261Y-73772895D03*
G04 #@! TO.P,SW1,3*
G04 #@! TO.N,/TH50*
X109479261Y-68467105D03*
G04 #@! TO.P,SW1,4*
G04 #@! TO.N,/TH75*
X112132156Y-63872156D03*
G04 #@! TO.P,SW1,5*
G04 #@! TO.N,Net-(SW1-Pad5)*
X116727105Y-61219261D03*
D16*
G04 #@! TO.P,SW1,13*
G04 #@! TO.N,+5V*
X119380000Y-65620000D03*
G04 #@! TD*
D17*
G04 #@! TO.P,U1,1*
G04 #@! TO.N,/TH75*
X146174536Y-80558480D03*
D13*
G04 #@! TO.P,U1,15*
G04 #@! TO.N,Earth*
X153794536Y-113578480D03*
G04 #@! TO.P,U1,2*
G04 #@! TO.N,/TH50*
X146174536Y-83098480D03*
G04 #@! TO.P,U1,16*
G04 #@! TO.N,+5V*
X153794536Y-111038480D03*
G04 #@! TO.P,U1,3*
G04 #@! TO.N,/TH25*
X146174536Y-85638480D03*
G04 #@! TO.P,U1,17*
G04 #@! TO.N,Earth*
X153794536Y-108498480D03*
G04 #@! TO.P,U1,4*
G04 #@! TO.N,/TH0*
X146174536Y-88178480D03*
G04 #@! TO.P,U1,18*
G04 #@! TO.N,+5V*
X153794536Y-105958480D03*
G04 #@! TO.P,U1,5*
G04 #@! TO.N,/Cam1*
X146174536Y-90718480D03*
G04 #@! TO.P,U1,19*
G04 #@! TO.N,Net-(U1-Pad19)*
X153794536Y-103418480D03*
G04 #@! TO.P,U1,6*
G04 #@! TO.N,/Cam2*
X146174536Y-93258480D03*
G04 #@! TO.P,U1,20*
G04 #@! TO.N,Net-(U1-Pad20)*
X153794536Y-100878480D03*
G04 #@! TO.P,U1,7*
G04 #@! TO.N,/Cam3*
X146174536Y-95798480D03*
G04 #@! TO.P,U1,21*
G04 #@! TO.N,/VOR*
X153794536Y-98338480D03*
G04 #@! TO.P,U1,8*
G04 #@! TO.N,/Cam4*
X146174536Y-98338480D03*
G04 #@! TO.P,U1,22*
G04 #@! TO.N,/VTR*
X153794536Y-95798480D03*
G04 #@! TO.P,U1,9*
G04 #@! TO.N,+5V*
X146174536Y-100878480D03*
G04 #@! TO.P,U1,23*
G04 #@! TO.N,/CZ1*
X153794536Y-93258480D03*
G04 #@! TO.P,U1,10*
G04 #@! TO.N,Earth*
X146174536Y-103418480D03*
G04 #@! TO.P,U1,24*
G04 #@! TO.N,/CZ2*
X153794536Y-90718480D03*
G04 #@! TO.P,U1,11*
G04 #@! TO.N,Net-(U1-Pad11)*
X146174536Y-105958480D03*
G04 #@! TO.P,U1,25*
G04 #@! TO.N,/WRP1*
X153794536Y-88178480D03*
G04 #@! TO.P,U1,12*
G04 #@! TO.N,/SCK*
X146174536Y-108498480D03*
G04 #@! TO.P,U1,26*
G04 #@! TO.N,/WRP2*
X153794536Y-85638480D03*
G04 #@! TO.P,U1,13*
G04 #@! TO.N,/SDA*
X146174536Y-111038480D03*
G04 #@! TO.P,U1,27*
G04 #@! TO.N,/PWR1*
X153794536Y-83098480D03*
G04 #@! TO.P,U1,14*
G04 #@! TO.N,Net-(U1-Pad14)*
X146174536Y-113578480D03*
G04 #@! TO.P,U1,28*
G04 #@! TO.N,/PWR2*
X153794536Y-80558480D03*
G04 #@! TD*
G04 #@! TO.P,U2,28*
G04 #@! TO.N,/UNc4*
X168910000Y-71120000D03*
G04 #@! TO.P,U2,14*
G04 #@! TO.N,Net-(U2-Pad14)*
X135890000Y-63500000D03*
G04 #@! TO.P,U2,27*
G04 #@! TO.N,/UNc3*
X166370000Y-71120000D03*
G04 #@! TO.P,U2,13*
G04 #@! TO.N,/SDA*
X138430000Y-63500000D03*
G04 #@! TO.P,U2,26*
G04 #@! TO.N,/UNc2*
X163830000Y-71120000D03*
G04 #@! TO.P,U2,12*
G04 #@! TO.N,/SCK*
X140970000Y-63500000D03*
G04 #@! TO.P,U2,25*
G04 #@! TO.N,/UNc1*
X161290000Y-71120000D03*
G04 #@! TO.P,U2,11*
G04 #@! TO.N,Net-(U2-Pad11)*
X143510000Y-63500000D03*
G04 #@! TO.P,U2,24*
G04 #@! TO.N,/UNb4*
X158750000Y-71120000D03*
G04 #@! TO.P,U2,10*
G04 #@! TO.N,Earth*
X146050000Y-63500000D03*
G04 #@! TO.P,U2,23*
G04 #@! TO.N,/UNb3*
X156210000Y-71120000D03*
G04 #@! TO.P,U2,9*
G04 #@! TO.N,+5V*
X148590000Y-63500000D03*
G04 #@! TO.P,U2,22*
G04 #@! TO.N,/UNb2*
X153670000Y-71120000D03*
G04 #@! TO.P,U2,8*
G04 #@! TO.N,/UNa3*
X151130000Y-63500000D03*
G04 #@! TO.P,U2,21*
G04 #@! TO.N,/UNb1*
X151130000Y-71120000D03*
G04 #@! TO.P,U2,7*
G04 #@! TO.N,/UNa2*
X153670000Y-63500000D03*
G04 #@! TO.P,U2,20*
G04 #@! TO.N,Net-(U2-Pad20)*
X148590000Y-71120000D03*
G04 #@! TO.P,U2,6*
G04 #@! TO.N,/UNa1*
X156210000Y-63500000D03*
G04 #@! TO.P,U2,19*
G04 #@! TO.N,Net-(U2-Pad19)*
X146050000Y-71120000D03*
G04 #@! TO.P,U2,5*
G04 #@! TO.N,/WPC*
X158750000Y-63500000D03*
G04 #@! TO.P,U2,18*
G04 #@! TO.N,+5V*
X143510000Y-71120000D03*
G04 #@! TO.P,U2,4*
G04 #@! TO.N,/TSW2*
X161290000Y-63500000D03*
G04 #@! TO.P,U2,17*
G04 #@! TO.N,Earth*
X140970000Y-71120000D03*
G04 #@! TO.P,U2,3*
G04 #@! TO.N,/TSW1*
X163830000Y-63500000D03*
G04 #@! TO.P,U2,16*
G04 #@! TO.N,+5V*
X138430000Y-71120000D03*
G04 #@! TO.P,U2,2*
G04 #@! TO.N,/Map*
X166370000Y-63500000D03*
G04 #@! TO.P,U2,15*
G04 #@! TO.N,+5V*
X135890000Y-71120000D03*
D17*
G04 #@! TO.P,U2,1*
G04 #@! TO.N,/MpR*
X168910000Y-63500000D03*
G04 #@! TD*
D11*
G04 #@! TO.P,J1,1*
G04 #@! TO.N,+5V*
X129540000Y-48260000D03*
D12*
G04 #@! TO.P,J1,2*
G04 #@! TO.N,Earth*
X132080000Y-48260000D03*
G04 #@! TO.P,J1,3*
G04 #@! TO.N,/SCK*
X134620000Y-48260000D03*
G04 #@! TO.P,J1,4*
G04 #@! TO.N,/SDA*
X137160000Y-48260000D03*
G04 #@! TD*
D18*
G04 #@! TO.N,/SDA*
X136398000Y-54610000D03*
G04 #@! TD*
D19*
G04 #@! TO.N,+5V*
X135090001Y-70320001D02*
X135890000Y-71120000D01*
X135890000Y-71120000D02*
X138430000Y-71120000D01*
X142710001Y-71919999D02*
X143510000Y-71120000D01*
X142384999Y-72245001D02*
X142710001Y-71919999D01*
X139555001Y-72245001D02*
X142384999Y-72245001D01*
X138430000Y-71120000D02*
X139555001Y-72245001D01*
X146974535Y-100078481D02*
X146174536Y-100878480D01*
X147234537Y-79433479D02*
X147299537Y-79498479D01*
X147299537Y-99753479D02*
X146974535Y-100078481D01*
X144203479Y-79433479D02*
X147234537Y-79433479D01*
X134620000Y-69850000D02*
X144203479Y-79433479D01*
X147299537Y-79498479D02*
X147299537Y-99753479D01*
X134620000Y-69850000D02*
X135090001Y-70320001D01*
X147299537Y-99753479D02*
X147589535Y-99753479D01*
X152994537Y-110238481D02*
X153794536Y-111038480D01*
X152669535Y-109913479D02*
X152994537Y-110238481D01*
X152669535Y-107083481D02*
X152669535Y-109913479D01*
X153794536Y-105958480D02*
X152669535Y-107083481D01*
X152669535Y-104833479D02*
X152400000Y-104563944D01*
X147589535Y-99753479D02*
X152400000Y-104563944D01*
X152400000Y-104563944D02*
X153794536Y-105958480D01*
X148590000Y-66040000D02*
X143510000Y-71120000D01*
X148590000Y-63500000D02*
X148590000Y-66040000D01*
X129540000Y-58420000D02*
X129540000Y-64770000D01*
X129540000Y-64770000D02*
X134620000Y-69850000D01*
X119380000Y-65620000D02*
X122770000Y-62230000D01*
X122770000Y-62230000D02*
X129540000Y-62230000D01*
X129540000Y-58420000D02*
X129540000Y-54610000D01*
X129540000Y-54610000D02*
X129540000Y-48260000D01*
G04 #@! TO.N,/WRP2*
X156334536Y-88178480D02*
X157604536Y-88178480D01*
X153794536Y-85638480D02*
X156334536Y-88178480D01*
X168159538Y-90718480D02*
X172844536Y-90718480D01*
X165619538Y-88178480D02*
X168159538Y-90718480D01*
X157604536Y-88178480D02*
X165619538Y-88178480D01*
G04 #@! TO.N,/WRP1*
X154594535Y-88978479D02*
X157604536Y-91988480D01*
X153794536Y-88178480D02*
X154594535Y-88978479D01*
X158874536Y-93258480D02*
X172844536Y-93258480D01*
X157604536Y-91988480D02*
X158874536Y-93258480D01*
G04 #@! TO.N,/PWR1*
X156334536Y-83098480D02*
X153794536Y-83098480D01*
X157604536Y-84368480D02*
X156334536Y-83098480D01*
X158874536Y-83098480D02*
X172844536Y-83098480D01*
X157604536Y-84368480D02*
X158874536Y-83098480D01*
G04 #@! TO.N,/PWR2*
X153794536Y-80558480D02*
X157604536Y-80558480D01*
X171994537Y-81408479D02*
X172844536Y-80558480D01*
X171479537Y-81923479D02*
X171994537Y-81408479D01*
X158969535Y-81923479D02*
X171479537Y-81923479D01*
X157604536Y-80558480D02*
X158969535Y-81923479D01*
G04 #@! TO.N,/CZ1*
X157604536Y-97943478D02*
X157604536Y-99608480D01*
X154594535Y-94933477D02*
X157604536Y-97943478D01*
X154594535Y-94058479D02*
X154594535Y-94933477D01*
X153794536Y-93258480D02*
X154594535Y-94058479D01*
X171994537Y-102568481D02*
X172844536Y-103418480D01*
X170159537Y-100733481D02*
X171994537Y-102568481D01*
X158729537Y-100733481D02*
X170159537Y-100733481D01*
X157604536Y-99608480D02*
X158729537Y-100733481D01*
G04 #@! TO.N,/CZ2*
X153794536Y-90718480D02*
X154594535Y-91518479D01*
X157604536Y-94528480D02*
X153794536Y-90718480D01*
X157604536Y-95798480D02*
X157604536Y-94528480D01*
X170940946Y-100878480D02*
X172844536Y-100878480D01*
X166660945Y-96598479D02*
X170940946Y-100878480D01*
X158404535Y-96598479D02*
X166660945Y-96598479D01*
X157604536Y-95798480D02*
X158404535Y-96598479D01*
G04 #@! TO.N,/VTR*
X156804537Y-102618481D02*
X157604536Y-103418480D01*
X156479535Y-102293479D02*
X156804537Y-102618481D01*
X156479535Y-98483479D02*
X156479535Y-102293479D01*
X153794536Y-95798480D02*
X156479535Y-98483479D01*
X163954536Y-109768480D02*
X163954536Y-111038480D01*
X157604536Y-103418480D02*
X163954536Y-109768480D01*
G04 #@! TO.N,/VOR*
X156804537Y-106428481D02*
X157604536Y-107228480D01*
X156029525Y-105653469D02*
X156804537Y-106428481D01*
X156029525Y-100573469D02*
X156029525Y-105653469D01*
X153794536Y-98338480D02*
X156029525Y-100573469D01*
X157604536Y-107228480D02*
X161414536Y-111038480D01*
G04 #@! TO.N,/Cam1*
X142364536Y-94528480D02*
X142364536Y-95798480D01*
X146174536Y-90718480D02*
X142364536Y-94528480D01*
X141564537Y-96598479D02*
X142364536Y-95798480D01*
X139679537Y-98483479D02*
X141564537Y-96598479D01*
X129519537Y-98483479D02*
X139679537Y-98483479D01*
X128394536Y-99608480D02*
X129519537Y-98483479D01*
G04 #@! TO.N,/Cam2*
X139824536Y-102148480D02*
X142364536Y-99608480D01*
X128394536Y-102148480D02*
X139824536Y-102148480D01*
X146174536Y-93258480D02*
X144270946Y-93258480D01*
X144270946Y-97702070D02*
X142364536Y-99608480D01*
X144270946Y-93258480D02*
X144270946Y-97702070D01*
G04 #@! TO.N,/Cam3*
X141094536Y-104688480D02*
X142364536Y-103418480D01*
X128394536Y-104688480D02*
X141094536Y-104688480D01*
X145374537Y-96598479D02*
X146174536Y-95798480D01*
X145049535Y-96923481D02*
X145374537Y-96598479D01*
X145049535Y-98588483D02*
X145049535Y-96923481D01*
X143164535Y-100473483D02*
X145049535Y-98588483D01*
X143164535Y-102618481D02*
X143164535Y-100473483D01*
X142364536Y-103418480D02*
X143164535Y-102618481D01*
G04 #@! TO.N,/Cam4*
X141564537Y-106428481D02*
X142364536Y-107228480D01*
X141239535Y-106103479D02*
X141564537Y-106428481D01*
X129519537Y-106103479D02*
X141239535Y-106103479D01*
X128394536Y-107228480D02*
X129519537Y-106103479D01*
X146174536Y-98338480D02*
X144780000Y-99733016D01*
X144780000Y-104813016D02*
X142364536Y-107228480D01*
X144780000Y-99733016D02*
X144780000Y-104813016D01*
G04 #@! TO.N,/UNa1*
X154489990Y-61779990D02*
X150682810Y-61779990D01*
X156210000Y-63500000D02*
X154489990Y-61779990D01*
X148590000Y-59687180D02*
X148590000Y-58420000D01*
X150682810Y-61779990D02*
X148590000Y-59687180D01*
G04 #@! TO.N,/UNa2*
X152870001Y-62700001D02*
X153670000Y-63500000D01*
X153670000Y-63500000D02*
X152400000Y-62230000D01*
X152400000Y-62230000D02*
X150496410Y-62230000D01*
X146899999Y-59269999D02*
X146050000Y-58420000D01*
X147536409Y-59269999D02*
X146899999Y-59269999D01*
X150496410Y-62230000D02*
X147536409Y-59269999D01*
G04 #@! TO.N,/UNa3*
X150330001Y-62700001D02*
X151130000Y-63500000D01*
X150004999Y-62374999D02*
X150330001Y-62700001D01*
X147464999Y-62374999D02*
X150004999Y-62374999D01*
X143510000Y-58420000D02*
X147464999Y-62374999D01*
G04 #@! TO.N,/UNb4*
X153670000Y-76200000D02*
X158750000Y-71120000D01*
G04 #@! TO.N,/UNb3*
X151130000Y-76200000D02*
X156210000Y-71120000D01*
G04 #@! TO.N,/UNb2*
X148590000Y-76200000D02*
X153670000Y-71120000D01*
G04 #@! TO.N,/UNb1*
X146050000Y-76200000D02*
X151130000Y-71120000D01*
G04 #@! TO.N,/UNc1*
X161290000Y-76200000D02*
X161290000Y-71120000D01*
G04 #@! TO.N,/UNc2*
X163830000Y-71120000D02*
X163830000Y-76200000D01*
G04 #@! TO.N,/UNc3*
X166370000Y-76200000D02*
X166370000Y-71120000D01*
G04 #@! TO.N,/UNc4*
X168910000Y-71120000D02*
X168910000Y-76200000D01*
G04 #@! TO.N,/Map*
X166370000Y-59690000D02*
X166370000Y-63500000D01*
X167169999Y-58890001D02*
X166370000Y-59690000D01*
X167495001Y-58564999D02*
X167169999Y-58890001D01*
X170720001Y-58564999D02*
X167495001Y-58564999D01*
X172720000Y-60564998D02*
X170720001Y-58564999D01*
X172720000Y-63500000D02*
X172720000Y-60564998D01*
G04 #@! TO.N,/MpR*
X168910000Y-60960000D02*
X170180000Y-59690000D01*
X168910000Y-63500000D02*
X168910000Y-60960000D01*
X170180000Y-63500000D02*
X172720000Y-66040000D01*
X170180000Y-59690000D02*
X170180000Y-63500000D01*
G04 #@! TO.N,/TSW1*
X162560000Y-62230000D02*
X163830000Y-63500000D01*
X162560000Y-59690000D02*
X162560000Y-62230000D01*
X163685001Y-58564999D02*
X163685001Y-48115001D01*
X162560000Y-59690000D02*
X163685001Y-58564999D01*
X162109990Y-46539990D02*
X163685001Y-48115001D01*
X150310010Y-46539990D02*
X162109990Y-46539990D01*
X146050000Y-50800000D02*
X150310010Y-46539990D01*
G04 #@! TO.N,/TSW2*
X158750000Y-60960000D02*
X161290000Y-63500000D01*
X158750000Y-59690000D02*
X158750000Y-60960000D01*
X160020000Y-58420000D02*
X160020000Y-46990000D01*
X158750000Y-59690000D02*
X160020000Y-58420000D01*
X149954999Y-47695999D02*
X150660998Y-46990000D01*
X146050000Y-53340000D02*
X149954999Y-49435001D01*
X149954999Y-49435001D02*
X149954999Y-47695999D01*
X150660998Y-46990000D02*
X160020000Y-46990000D01*
G04 #@! TO.N,/WPC*
X158750000Y-63500000D02*
X154940000Y-59690000D01*
X154940000Y-59690000D02*
X156065001Y-58564999D01*
X156065001Y-48260000D02*
X151130000Y-48260000D01*
X156065001Y-58564999D02*
X156065001Y-48260000D01*
G04 #@! TO.N,/SDA*
X139700000Y-53478630D02*
X139954000Y-53224630D01*
X139700000Y-54610000D02*
X139700000Y-53478630D01*
X137610009Y-48073599D02*
X137478205Y-47941795D01*
X139954000Y-50417590D02*
X137610009Y-48073599D01*
X139954000Y-53224630D02*
X139954000Y-50417590D01*
X138430000Y-63500000D02*
X138430000Y-60706000D01*
X138430000Y-60706000D02*
X136398000Y-58674000D01*
X136398000Y-58674000D02*
X136398000Y-54610000D01*
X136398000Y-54610000D02*
X136398000Y-54610000D01*
X136310001Y-47410001D02*
X137160000Y-48260000D01*
X129829124Y-111038480D02*
X146174536Y-111038480D01*
X107954251Y-64765749D02*
X107954251Y-89163607D01*
X137160000Y-48260000D02*
X135382000Y-46482000D01*
X126966590Y-46482000D02*
X125730000Y-47718590D01*
X135382000Y-46482000D02*
X126966590Y-46482000D01*
X125730000Y-47718590D02*
X125730000Y-57150000D01*
X107954251Y-89163607D02*
X129829124Y-111038480D01*
X125730000Y-57150000D02*
X115570000Y-57150000D01*
X115570000Y-57150000D02*
X107954251Y-64765749D01*
G04 #@! TO.N,/SCK*
X137922000Y-56642000D02*
X139381795Y-58101795D01*
X134620000Y-48260000D02*
X137922000Y-51562000D01*
X137922000Y-51562000D02*
X137922000Y-56642000D01*
X140970000Y-59690000D02*
X139700000Y-58420000D01*
X140970000Y-63500000D02*
X140970000Y-59690000D01*
X127925534Y-108498480D02*
X146174536Y-108498480D01*
X108404260Y-88977206D02*
X127925534Y-108498480D01*
X108404260Y-66009050D02*
X108404260Y-88977206D01*
X134620000Y-48260000D02*
X133350000Y-46990000D01*
X133350000Y-46990000D02*
X127095000Y-46990000D01*
X127095000Y-46990000D02*
X127000000Y-47085000D01*
X127000000Y-47085000D02*
X127000000Y-58420000D01*
X127000000Y-58420000D02*
X115993310Y-58420000D01*
X115993310Y-58420000D02*
X108404260Y-66009050D01*
G04 #@! TO.N,/TH25*
X144904536Y-85638480D02*
X146174536Y-85638480D01*
X142364536Y-88178480D02*
X144904536Y-85638480D01*
X116840000Y-73660000D02*
X116727105Y-73772895D01*
X129540000Y-86360000D02*
X116840000Y-73660000D01*
X116727105Y-73772895D02*
X109479261Y-73772895D01*
X140546056Y-86360000D02*
X129540000Y-86360000D01*
X142364536Y-88178480D02*
X140546056Y-86360000D01*
G04 #@! TO.N,/TH50*
X143634536Y-83098480D02*
X146174536Y-83098480D01*
X142364536Y-84368480D02*
X143634536Y-83098480D01*
X118448159Y-68467105D02*
X109479261Y-68467105D01*
X142364536Y-84368480D02*
X134349534Y-84368480D01*
X134349534Y-84368480D02*
X118448159Y-68467105D01*
G04 #@! TO.N,/TH75*
X142364536Y-80558480D02*
X146174536Y-80558480D01*
X133869538Y-80558480D02*
X142364536Y-80558480D01*
X120018059Y-66707001D02*
X133869538Y-80558480D01*
X114967001Y-66707001D02*
X120018059Y-66707001D01*
X112132156Y-63872156D02*
X114967001Y-66707001D01*
G04 #@! TO.N,/TH0*
X134349534Y-91988480D02*
X132531054Y-90170000D01*
X142364536Y-91988480D02*
X134349534Y-91988480D01*
X123934312Y-90170000D02*
X112132156Y-78367844D01*
X132531054Y-90170000D02*
X123934312Y-90170000D01*
X143164535Y-91188481D02*
X146174536Y-88178480D01*
X142364536Y-91988480D02*
X143164535Y-91188481D01*
G04 #@! TD*
M02*
