G04 #@! TF.GenerationSoftware,KiCad,Pcbnew,(5.0.1)-4*
G04 #@! TF.CreationDate,2019-02-10T23:31:26-08:00*
G04 #@! TF.ProjectId,ThrottleControl,5468726F74746C65436F6E74726F6C2E,rev?*
G04 #@! TF.SameCoordinates,Original*
G04 #@! TF.FileFunction,Legend,Top*
G04 #@! TF.FilePolarity,Positive*
%FSLAX46Y46*%
G04 Gerber Fmt 4.6, Leading zero omitted, Abs format (unit mm)*
G04 Created by KiCad (PCBNEW (5.0.1)-4) date 2/10/2019 11:31:26 PM*
%MOMM*%
%LPD*%
G01*
G04 APERTURE LIST*
%ADD10C,0.300000*%
%ADD11C,0.200000*%
%ADD12C,0.120000*%
%ADD13C,0.150000*%
G04 APERTURE END LIST*
D10*
X123666428Y-87943571D02*
X124023571Y-88943571D01*
X124380714Y-87943571D01*
X124952142Y-88800714D02*
X125023571Y-88872142D01*
X124952142Y-88943571D01*
X124880714Y-88872142D01*
X124952142Y-88800714D01*
X124952142Y-88943571D01*
X126452142Y-88943571D02*
X125595000Y-88943571D01*
X126023571Y-88943571D02*
X126023571Y-87443571D01*
X125880714Y-87657857D01*
X125737857Y-87800714D01*
X125595000Y-87872142D01*
X109339285Y-83863571D02*
X109339285Y-82363571D01*
X110196428Y-83863571D02*
X109553571Y-83006428D01*
X110196428Y-82363571D02*
X109339285Y-83220714D01*
X111339285Y-83077857D02*
X110839285Y-83077857D01*
X110839285Y-83863571D02*
X110839285Y-82363571D01*
X111553571Y-82363571D01*
X112982142Y-83720714D02*
X112910714Y-83792142D01*
X112696428Y-83863571D01*
X112553571Y-83863571D01*
X112339285Y-83792142D01*
X112196428Y-83649285D01*
X112125000Y-83506428D01*
X112053571Y-83220714D01*
X112053571Y-83006428D01*
X112125000Y-82720714D01*
X112196428Y-82577857D01*
X112339285Y-82435000D01*
X112553571Y-82363571D01*
X112696428Y-82363571D01*
X112910714Y-82435000D01*
X112982142Y-82506428D01*
X108872142Y-84903571D02*
X109729285Y-84903571D01*
X109300714Y-86403571D02*
X109300714Y-84903571D01*
X110229285Y-86403571D02*
X110229285Y-84903571D01*
X110872142Y-86403571D02*
X110872142Y-85617857D01*
X110800714Y-85475000D01*
X110657857Y-85403571D01*
X110443571Y-85403571D01*
X110300714Y-85475000D01*
X110229285Y-85546428D01*
X111586428Y-86403571D02*
X111586428Y-85403571D01*
X111586428Y-85689285D02*
X111657857Y-85546428D01*
X111729285Y-85475000D01*
X111872142Y-85403571D01*
X112015000Y-85403571D01*
X112729285Y-86403571D02*
X112586428Y-86332142D01*
X112515000Y-86260714D01*
X112443571Y-86117857D01*
X112443571Y-85689285D01*
X112515000Y-85546428D01*
X112586428Y-85475000D01*
X112729285Y-85403571D01*
X112943571Y-85403571D01*
X113086428Y-85475000D01*
X113157857Y-85546428D01*
X113229285Y-85689285D01*
X113229285Y-86117857D01*
X113157857Y-86260714D01*
X113086428Y-86332142D01*
X112943571Y-86403571D01*
X112729285Y-86403571D01*
X113657857Y-85403571D02*
X114229285Y-85403571D01*
X113872142Y-84903571D02*
X113872142Y-86189285D01*
X113943571Y-86332142D01*
X114086428Y-86403571D01*
X114229285Y-86403571D01*
X114515000Y-85403571D02*
X115086428Y-85403571D01*
X114729285Y-84903571D02*
X114729285Y-86189285D01*
X114800714Y-86332142D01*
X114943571Y-86403571D01*
X115086428Y-86403571D01*
X115800714Y-86403571D02*
X115657857Y-86332142D01*
X115586428Y-86189285D01*
X115586428Y-84903571D01*
X116943571Y-86332142D02*
X116800714Y-86403571D01*
X116515000Y-86403571D01*
X116372142Y-86332142D01*
X116300714Y-86189285D01*
X116300714Y-85617857D01*
X116372142Y-85475000D01*
X116515000Y-85403571D01*
X116800714Y-85403571D01*
X116943571Y-85475000D01*
X117015000Y-85617857D01*
X117015000Y-85760714D01*
X116300714Y-85903571D01*
X118729285Y-86332142D02*
X118943571Y-86403571D01*
X119300714Y-86403571D01*
X119443571Y-86332142D01*
X119515000Y-86260714D01*
X119586428Y-86117857D01*
X119586428Y-85975000D01*
X119515000Y-85832142D01*
X119443571Y-85760714D01*
X119300714Y-85689285D01*
X119015000Y-85617857D01*
X118872142Y-85546428D01*
X118800714Y-85475000D01*
X118729285Y-85332142D01*
X118729285Y-85189285D01*
X118800714Y-85046428D01*
X118872142Y-84975000D01*
X119015000Y-84903571D01*
X119372142Y-84903571D01*
X119586428Y-84975000D01*
X120800714Y-86332142D02*
X120657857Y-86403571D01*
X120372142Y-86403571D01*
X120229285Y-86332142D01*
X120157857Y-86189285D01*
X120157857Y-85617857D01*
X120229285Y-85475000D01*
X120372142Y-85403571D01*
X120657857Y-85403571D01*
X120800714Y-85475000D01*
X120872142Y-85617857D01*
X120872142Y-85760714D01*
X120157857Y-85903571D01*
X121729285Y-86403571D02*
X121586428Y-86332142D01*
X121515000Y-86189285D01*
X121515000Y-84903571D01*
X122872142Y-86332142D02*
X122729285Y-86403571D01*
X122443571Y-86403571D01*
X122300714Y-86332142D01*
X122229285Y-86189285D01*
X122229285Y-85617857D01*
X122300714Y-85475000D01*
X122443571Y-85403571D01*
X122729285Y-85403571D01*
X122872142Y-85475000D01*
X122943571Y-85617857D01*
X122943571Y-85760714D01*
X122229285Y-85903571D01*
X124229285Y-86332142D02*
X124086428Y-86403571D01*
X123800714Y-86403571D01*
X123657857Y-86332142D01*
X123586428Y-86260714D01*
X123515000Y-86117857D01*
X123515000Y-85689285D01*
X123586428Y-85546428D01*
X123657857Y-85475000D01*
X123800714Y-85403571D01*
X124086428Y-85403571D01*
X124229285Y-85475000D01*
X124657857Y-85403571D02*
X125229285Y-85403571D01*
X124872142Y-84903571D02*
X124872142Y-86189285D01*
X124943571Y-86332142D01*
X125086428Y-86403571D01*
X125229285Y-86403571D01*
X126872142Y-86403571D02*
X126872142Y-84903571D01*
X127443571Y-84903571D01*
X127586428Y-84975000D01*
X127657857Y-85046428D01*
X127729285Y-85189285D01*
X127729285Y-85403571D01*
X127657857Y-85546428D01*
X127586428Y-85617857D01*
X127443571Y-85689285D01*
X126872142Y-85689285D01*
X128372142Y-85403571D02*
X128372142Y-86403571D01*
X128372142Y-85546428D02*
X128443571Y-85475000D01*
X128586428Y-85403571D01*
X128800714Y-85403571D01*
X128943571Y-85475000D01*
X129015000Y-85617857D01*
X129015000Y-86403571D01*
X129943571Y-86403571D02*
X129800714Y-86332142D01*
X129729285Y-86189285D01*
X129729285Y-84903571D01*
D11*
X178435000Y-117475000D02*
X178435000Y-45085000D01*
X133985000Y-117475000D02*
X178435000Y-117475000D01*
X106045000Y-89535000D02*
X133985000Y-117475000D01*
X106045000Y-64770000D02*
X106045000Y-89535000D01*
X114935000Y-55245000D02*
X106045000Y-64770000D01*
X123825000Y-55245000D02*
X114935000Y-55245000D01*
X123825000Y-45085000D02*
X123825000Y-55245000D01*
X178435000Y-45085000D02*
X123825000Y-45085000D01*
D12*
G04 #@! TO.C,J7*
X142180000Y-57090000D02*
X142180000Y-59750000D01*
X149860000Y-57090000D02*
X142180000Y-57090000D01*
X149860000Y-59750000D02*
X142180000Y-59750000D01*
X149860000Y-57090000D02*
X149860000Y-59750000D01*
X151130000Y-57090000D02*
X152460000Y-57090000D01*
X152460000Y-57090000D02*
X152460000Y-58420000D01*
G04 #@! TO.C,J2*
X174174536Y-97128480D02*
X172844536Y-97128480D01*
X174174536Y-95798480D02*
X174174536Y-97128480D01*
X174174536Y-94528480D02*
X171514536Y-94528480D01*
X171514536Y-94528480D02*
X171514536Y-89388480D01*
X174174536Y-94528480D02*
X174174536Y-89388480D01*
X174174536Y-89388480D02*
X171514536Y-89388480D01*
G04 #@! TO.C,J3*
X174174536Y-79228480D02*
X171514536Y-79228480D01*
X174174536Y-84368480D02*
X174174536Y-79228480D01*
X171514536Y-84368480D02*
X171514536Y-79228480D01*
X174174536Y-84368480D02*
X171514536Y-84368480D01*
X174174536Y-85638480D02*
X174174536Y-86968480D01*
X174174536Y-86968480D02*
X172844536Y-86968480D01*
G04 #@! TO.C,J4*
X174174536Y-99548480D02*
X171514536Y-99548480D01*
X174174536Y-104688480D02*
X174174536Y-99548480D01*
X171514536Y-104688480D02*
X171514536Y-99548480D01*
X174174536Y-104688480D02*
X171514536Y-104688480D01*
X174174536Y-105958480D02*
X174174536Y-107288480D01*
X174174536Y-107288480D02*
X172844536Y-107288480D01*
G04 #@! TO.C,J5*
X157544536Y-112368480D02*
X157544536Y-111038480D01*
X158874536Y-112368480D02*
X157544536Y-112368480D01*
X160144536Y-112368480D02*
X160144536Y-109708480D01*
X160144536Y-109708480D02*
X165284536Y-109708480D01*
X160144536Y-112368480D02*
X165284536Y-112368480D01*
X165284536Y-112368480D02*
X165284536Y-109708480D01*
G04 #@! TO.C,J6*
X127064536Y-108558480D02*
X129724536Y-108558480D01*
X127064536Y-98338480D02*
X127064536Y-108558480D01*
X129724536Y-98338480D02*
X129724536Y-108558480D01*
X127064536Y-98338480D02*
X129724536Y-98338480D01*
X127064536Y-97068480D02*
X127064536Y-95738480D01*
X127064536Y-95738480D02*
X128394536Y-95738480D01*
G04 #@! TO.C,J8*
X142180000Y-77530000D02*
X142180000Y-76200000D01*
X143510000Y-77530000D02*
X142180000Y-77530000D01*
X144780000Y-77530000D02*
X144780000Y-74870000D01*
X144780000Y-74870000D02*
X155000000Y-74870000D01*
X144780000Y-77530000D02*
X155000000Y-77530000D01*
X155000000Y-77530000D02*
X155000000Y-74870000D01*
G04 #@! TO.C,J9*
X170240000Y-77530000D02*
X170240000Y-74870000D01*
X160020000Y-77530000D02*
X170240000Y-77530000D01*
X160020000Y-74870000D02*
X170240000Y-74870000D01*
X160020000Y-77530000D02*
X160020000Y-74870000D01*
X158750000Y-77530000D02*
X157420000Y-77530000D01*
X157420000Y-77530000D02*
X157420000Y-76200000D01*
G04 #@! TO.C,J10*
X174050000Y-69910000D02*
X172720000Y-69910000D01*
X174050000Y-68580000D02*
X174050000Y-69910000D01*
X174050000Y-67310000D02*
X171390000Y-67310000D01*
X171390000Y-67310000D02*
X171390000Y-62170000D01*
X174050000Y-67310000D02*
X174050000Y-62170000D01*
X174050000Y-62170000D02*
X171390000Y-62170000D01*
G04 #@! TO.C,J11*
X144720000Y-54670000D02*
X147380000Y-54670000D01*
X144720000Y-49530000D02*
X144720000Y-54670000D01*
X147380000Y-49530000D02*
X147380000Y-54670000D01*
X144720000Y-49530000D02*
X147380000Y-49530000D01*
X144720000Y-48260000D02*
X144720000Y-46930000D01*
X144720000Y-46930000D02*
X146050000Y-46930000D01*
G04 #@! TO.C,J12*
X152460000Y-46930000D02*
X149800000Y-46930000D01*
X152460000Y-49530000D02*
X152460000Y-46930000D01*
X149800000Y-49530000D02*
X149800000Y-46930000D01*
X152460000Y-49530000D02*
X149800000Y-49530000D01*
X152460000Y-50800000D02*
X152460000Y-52130000D01*
X152460000Y-52130000D02*
X151130000Y-52130000D01*
G04 #@! TO.C,R1*
X130580000Y-58420000D02*
X131350000Y-58420000D01*
X138660000Y-58420000D02*
X137890000Y-58420000D01*
X131350000Y-59790000D02*
X137890000Y-59790000D01*
X131350000Y-57050000D02*
X131350000Y-59790000D01*
X137890000Y-57050000D02*
X131350000Y-57050000D01*
X137890000Y-59790000D02*
X137890000Y-57050000D01*
G04 #@! TO.C,R2*
X137890000Y-55980000D02*
X137890000Y-53240000D01*
X137890000Y-53240000D02*
X131350000Y-53240000D01*
X131350000Y-53240000D02*
X131350000Y-55980000D01*
X131350000Y-55980000D02*
X137890000Y-55980000D01*
X138660000Y-54610000D02*
X137890000Y-54610000D01*
X130580000Y-54610000D02*
X131350000Y-54610000D01*
G04 #@! TO.C,R3*
X141324536Y-80558480D02*
X140554536Y-80558480D01*
X133244536Y-80558480D02*
X134014536Y-80558480D01*
X140554536Y-79188480D02*
X134014536Y-79188480D01*
X140554536Y-81928480D02*
X140554536Y-79188480D01*
X134014536Y-81928480D02*
X140554536Y-81928480D01*
X134014536Y-79188480D02*
X134014536Y-81928480D01*
G04 #@! TO.C,R4*
X134014536Y-82998480D02*
X134014536Y-85738480D01*
X134014536Y-85738480D02*
X140554536Y-85738480D01*
X140554536Y-85738480D02*
X140554536Y-82998480D01*
X140554536Y-82998480D02*
X134014536Y-82998480D01*
X133244536Y-84368480D02*
X134014536Y-84368480D01*
X141324536Y-84368480D02*
X140554536Y-84368480D01*
G04 #@! TO.C,R5*
X141324536Y-88178480D02*
X140554536Y-88178480D01*
X133244536Y-88178480D02*
X134014536Y-88178480D01*
X140554536Y-86808480D02*
X134014536Y-86808480D01*
X140554536Y-89548480D02*
X140554536Y-86808480D01*
X134014536Y-89548480D02*
X140554536Y-89548480D01*
X134014536Y-86808480D02*
X134014536Y-89548480D01*
G04 #@! TO.C,R6*
X134014536Y-90618480D02*
X134014536Y-93358480D01*
X134014536Y-93358480D02*
X140554536Y-93358480D01*
X140554536Y-93358480D02*
X140554536Y-90618480D01*
X140554536Y-90618480D02*
X134014536Y-90618480D01*
X133244536Y-91988480D02*
X134014536Y-91988480D01*
X141324536Y-91988480D02*
X140554536Y-91988480D01*
G04 #@! TO.C,R7*
X141324536Y-95798480D02*
X140554536Y-95798480D01*
X133244536Y-95798480D02*
X134014536Y-95798480D01*
X140554536Y-94428480D02*
X134014536Y-94428480D01*
X140554536Y-97168480D02*
X140554536Y-94428480D01*
X134014536Y-97168480D02*
X140554536Y-97168480D01*
X134014536Y-94428480D02*
X134014536Y-97168480D01*
G04 #@! TO.C,R8*
X134014536Y-98238480D02*
X134014536Y-100978480D01*
X134014536Y-100978480D02*
X140554536Y-100978480D01*
X140554536Y-100978480D02*
X140554536Y-98238480D01*
X140554536Y-98238480D02*
X134014536Y-98238480D01*
X133244536Y-99608480D02*
X134014536Y-99608480D01*
X141324536Y-99608480D02*
X140554536Y-99608480D01*
G04 #@! TO.C,R9*
X141324536Y-103418480D02*
X140554536Y-103418480D01*
X133244536Y-103418480D02*
X134014536Y-103418480D01*
X140554536Y-102048480D02*
X134014536Y-102048480D01*
X140554536Y-104788480D02*
X140554536Y-102048480D01*
X134014536Y-104788480D02*
X140554536Y-104788480D01*
X134014536Y-102048480D02*
X134014536Y-104788480D01*
G04 #@! TO.C,R10*
X134014536Y-105858480D02*
X134014536Y-108598480D01*
X134014536Y-108598480D02*
X140554536Y-108598480D01*
X140554536Y-108598480D02*
X140554536Y-105858480D01*
X140554536Y-105858480D02*
X134014536Y-105858480D01*
X133244536Y-107228480D02*
X134014536Y-107228480D01*
X141324536Y-107228480D02*
X140554536Y-107228480D01*
G04 #@! TO.C,R11*
X158644536Y-107228480D02*
X159414536Y-107228480D01*
X166724536Y-107228480D02*
X165954536Y-107228480D01*
X159414536Y-108598480D02*
X165954536Y-108598480D01*
X159414536Y-105858480D02*
X159414536Y-108598480D01*
X165954536Y-105858480D02*
X159414536Y-105858480D01*
X165954536Y-108598480D02*
X165954536Y-105858480D01*
G04 #@! TO.C,R12*
X165954536Y-104788480D02*
X165954536Y-102048480D01*
X165954536Y-102048480D02*
X159414536Y-102048480D01*
X159414536Y-102048480D02*
X159414536Y-104788480D01*
X159414536Y-104788480D02*
X165954536Y-104788480D01*
X166724536Y-103418480D02*
X165954536Y-103418480D01*
X158644536Y-103418480D02*
X159414536Y-103418480D01*
G04 #@! TO.C,R13*
X158644536Y-99608480D02*
X159414536Y-99608480D01*
X166724536Y-99608480D02*
X165954536Y-99608480D01*
X159414536Y-100978480D02*
X165954536Y-100978480D01*
X159414536Y-98238480D02*
X159414536Y-100978480D01*
X165954536Y-98238480D02*
X159414536Y-98238480D01*
X165954536Y-100978480D02*
X165954536Y-98238480D01*
G04 #@! TO.C,R14*
X165954536Y-97168480D02*
X165954536Y-94428480D01*
X165954536Y-94428480D02*
X159414536Y-94428480D01*
X159414536Y-94428480D02*
X159414536Y-97168480D01*
X159414536Y-97168480D02*
X165954536Y-97168480D01*
X166724536Y-95798480D02*
X165954536Y-95798480D01*
X158644536Y-95798480D02*
X159414536Y-95798480D01*
G04 #@! TO.C,R15*
X158644536Y-91988480D02*
X159414536Y-91988480D01*
X166724536Y-91988480D02*
X165954536Y-91988480D01*
X159414536Y-93358480D02*
X165954536Y-93358480D01*
X159414536Y-90618480D02*
X159414536Y-93358480D01*
X165954536Y-90618480D02*
X159414536Y-90618480D01*
X165954536Y-93358480D02*
X165954536Y-90618480D01*
G04 #@! TO.C,R16*
X165954536Y-89548480D02*
X165954536Y-86808480D01*
X165954536Y-86808480D02*
X159414536Y-86808480D01*
X159414536Y-86808480D02*
X159414536Y-89548480D01*
X159414536Y-89548480D02*
X165954536Y-89548480D01*
X166724536Y-88178480D02*
X165954536Y-88178480D01*
X158644536Y-88178480D02*
X159414536Y-88178480D01*
G04 #@! TO.C,R17*
X158644536Y-84368480D02*
X159414536Y-84368480D01*
X166724536Y-84368480D02*
X165954536Y-84368480D01*
X159414536Y-85738480D02*
X165954536Y-85738480D01*
X159414536Y-82998480D02*
X159414536Y-85738480D01*
X165954536Y-82998480D02*
X159414536Y-82998480D01*
X165954536Y-85738480D02*
X165954536Y-82998480D01*
G04 #@! TO.C,R18*
X165954536Y-81928480D02*
X165954536Y-79188480D01*
X165954536Y-79188480D02*
X159414536Y-79188480D01*
X159414536Y-79188480D02*
X159414536Y-81928480D01*
X159414536Y-81928480D02*
X165954536Y-81928480D01*
X166724536Y-80558480D02*
X165954536Y-80558480D01*
X158644536Y-80558480D02*
X159414536Y-80558480D01*
G04 #@! TO.C,R19*
X171550000Y-51340000D02*
X168810000Y-51340000D01*
X168810000Y-51340000D02*
X168810000Y-57880000D01*
X168810000Y-57880000D02*
X171550000Y-57880000D01*
X171550000Y-57880000D02*
X171550000Y-51340000D01*
X170180000Y-50570000D02*
X170180000Y-51340000D01*
X170180000Y-58650000D02*
X170180000Y-57880000D01*
G04 #@! TO.C,R20*
X166370000Y-58650000D02*
X166370000Y-57880000D01*
X166370000Y-50570000D02*
X166370000Y-51340000D01*
X167740000Y-57880000D02*
X167740000Y-51340000D01*
X165000000Y-57880000D02*
X167740000Y-57880000D01*
X165000000Y-51340000D02*
X165000000Y-57880000D01*
X167740000Y-51340000D02*
X165000000Y-51340000D01*
G04 #@! TO.C,R21*
X163930000Y-51340000D02*
X161190000Y-51340000D01*
X161190000Y-51340000D02*
X161190000Y-57880000D01*
X161190000Y-57880000D02*
X163930000Y-57880000D01*
X163930000Y-57880000D02*
X163930000Y-51340000D01*
X162560000Y-50570000D02*
X162560000Y-51340000D01*
X162560000Y-58650000D02*
X162560000Y-57880000D01*
G04 #@! TO.C,R22*
X160120000Y-51340000D02*
X157380000Y-51340000D01*
X157380000Y-51340000D02*
X157380000Y-57880000D01*
X157380000Y-57880000D02*
X160120000Y-57880000D01*
X160120000Y-57880000D02*
X160120000Y-51340000D01*
X158750000Y-50570000D02*
X158750000Y-51340000D01*
X158750000Y-58650000D02*
X158750000Y-57880000D01*
G04 #@! TO.C,R23*
X154940000Y-58650000D02*
X154940000Y-57880000D01*
X154940000Y-50570000D02*
X154940000Y-51340000D01*
X156310000Y-57880000D02*
X156310000Y-51340000D01*
X153570000Y-57880000D02*
X156310000Y-57880000D01*
X153570000Y-51340000D02*
X153570000Y-57880000D01*
X156310000Y-51340000D02*
X153570000Y-51340000D01*
D13*
G04 #@! TO.C,SW1*
X131030000Y-71120000D02*
G75*
G03X131030000Y-71120000I-11650000J0D01*
G01*
D12*
G04 #@! TO.C,U1*
X150984536Y-79228480D02*
G75*
G02X148984536Y-79228480I-1000000J0D01*
G01*
X148984536Y-79228480D02*
X147334536Y-79228480D01*
X147334536Y-79228480D02*
X147334536Y-114908480D01*
X147334536Y-114908480D02*
X152634536Y-114908480D01*
X152634536Y-114908480D02*
X152634536Y-79228480D01*
X152634536Y-79228480D02*
X150984536Y-79228480D01*
X144844536Y-79168480D02*
X144844536Y-114968480D01*
X144844536Y-114968480D02*
X155124536Y-114968480D01*
X155124536Y-114968480D02*
X155124536Y-79168480D01*
X155124536Y-79168480D02*
X144844536Y-79168480D01*
G04 #@! TO.C,U2*
X170300000Y-72450000D02*
X170300000Y-62170000D01*
X134500000Y-72450000D02*
X170300000Y-72450000D01*
X134500000Y-62170000D02*
X134500000Y-72450000D01*
X170300000Y-62170000D02*
X134500000Y-62170000D01*
X170240000Y-69960000D02*
X170240000Y-68310000D01*
X134560000Y-69960000D02*
X170240000Y-69960000D01*
X134560000Y-64660000D02*
X134560000Y-69960000D01*
X170240000Y-64660000D02*
X134560000Y-64660000D01*
X170240000Y-66310000D02*
X170240000Y-64660000D01*
X170240000Y-68310000D02*
G75*
G02X170240000Y-66310000I0J1000000D01*
G01*
G04 #@! TO.C,J1*
X138490000Y-49590000D02*
X138490000Y-46930000D01*
X130810000Y-49590000D02*
X138490000Y-49590000D01*
X130810000Y-46930000D02*
X138490000Y-46930000D01*
X130810000Y-49590000D02*
X130810000Y-46930000D01*
X129540000Y-49590000D02*
X128210000Y-49590000D01*
X128210000Y-49590000D02*
X128210000Y-48260000D01*
G04 #@! TD*
G04 #@! TO.C,J7*
D13*
X152912380Y-58753333D02*
X153626666Y-58753333D01*
X153769523Y-58800952D01*
X153864761Y-58896190D01*
X153912380Y-59039047D01*
X153912380Y-59134285D01*
X152912380Y-58372380D02*
X152912380Y-57705714D01*
X153912380Y-58134285D01*
G04 #@! TO.C,J2*
X172511202Y-97580860D02*
X172511202Y-98295146D01*
X172463583Y-98438003D01*
X172368345Y-98533241D01*
X172225488Y-98580860D01*
X172130250Y-98580860D01*
X172939774Y-97676099D02*
X172987393Y-97628480D01*
X173082631Y-97580860D01*
X173320726Y-97580860D01*
X173415964Y-97628480D01*
X173463583Y-97676099D01*
X173511202Y-97771337D01*
X173511202Y-97866575D01*
X173463583Y-98009432D01*
X172892155Y-98580860D01*
X173511202Y-98580860D01*
G04 #@! TO.C,J3*
X172511202Y-87420860D02*
X172511202Y-88135146D01*
X172463583Y-88278003D01*
X172368345Y-88373241D01*
X172225488Y-88420860D01*
X172130250Y-88420860D01*
X172892155Y-87420860D02*
X173511202Y-87420860D01*
X173177869Y-87801813D01*
X173320726Y-87801813D01*
X173415964Y-87849432D01*
X173463583Y-87897051D01*
X173511202Y-87992289D01*
X173511202Y-88230384D01*
X173463583Y-88325622D01*
X173415964Y-88373241D01*
X173320726Y-88420860D01*
X173035012Y-88420860D01*
X172939774Y-88373241D01*
X172892155Y-88325622D01*
G04 #@! TO.C,J4*
X172511202Y-107740860D02*
X172511202Y-108455146D01*
X172463583Y-108598003D01*
X172368345Y-108693241D01*
X172225488Y-108740860D01*
X172130250Y-108740860D01*
X173415964Y-108074194D02*
X173415964Y-108740860D01*
X173177869Y-107693241D02*
X172939774Y-108407527D01*
X173558821Y-108407527D01*
G04 #@! TO.C,J5*
X155996916Y-111371813D02*
X156711202Y-111371813D01*
X156854059Y-111419432D01*
X156949297Y-111514670D01*
X156996916Y-111657527D01*
X156996916Y-111752765D01*
X155996916Y-110419432D02*
X155996916Y-110895622D01*
X156473107Y-110943241D01*
X156425488Y-110895622D01*
X156377869Y-110800384D01*
X156377869Y-110562289D01*
X156425488Y-110467051D01*
X156473107Y-110419432D01*
X156568345Y-110371813D01*
X156806440Y-110371813D01*
X156901678Y-110419432D01*
X156949297Y-110467051D01*
X156996916Y-110562289D01*
X156996916Y-110800384D01*
X156949297Y-110895622D01*
X156901678Y-110943241D01*
G04 #@! TO.C,J6*
X128061202Y-94190860D02*
X128061202Y-94905146D01*
X128013583Y-95048003D01*
X127918345Y-95143241D01*
X127775488Y-95190860D01*
X127680250Y-95190860D01*
X128965964Y-94190860D02*
X128775488Y-94190860D01*
X128680250Y-94238480D01*
X128632631Y-94286099D01*
X128537393Y-94428956D01*
X128489774Y-94619432D01*
X128489774Y-95000384D01*
X128537393Y-95095622D01*
X128585012Y-95143241D01*
X128680250Y-95190860D01*
X128870726Y-95190860D01*
X128965964Y-95143241D01*
X129013583Y-95095622D01*
X129061202Y-95000384D01*
X129061202Y-94762289D01*
X129013583Y-94667051D01*
X128965964Y-94619432D01*
X128870726Y-94571813D01*
X128680250Y-94571813D01*
X128585012Y-94619432D01*
X128537393Y-94667051D01*
X128489774Y-94762289D01*
G04 #@! TO.C,J8*
X140632380Y-76533333D02*
X141346666Y-76533333D01*
X141489523Y-76580952D01*
X141584761Y-76676190D01*
X141632380Y-76819047D01*
X141632380Y-76914285D01*
X141060952Y-75914285D02*
X141013333Y-76009523D01*
X140965714Y-76057142D01*
X140870476Y-76104761D01*
X140822857Y-76104761D01*
X140727619Y-76057142D01*
X140680000Y-76009523D01*
X140632380Y-75914285D01*
X140632380Y-75723809D01*
X140680000Y-75628571D01*
X140727619Y-75580952D01*
X140822857Y-75533333D01*
X140870476Y-75533333D01*
X140965714Y-75580952D01*
X141013333Y-75628571D01*
X141060952Y-75723809D01*
X141060952Y-75914285D01*
X141108571Y-76009523D01*
X141156190Y-76057142D01*
X141251428Y-76104761D01*
X141441904Y-76104761D01*
X141537142Y-76057142D01*
X141584761Y-76009523D01*
X141632380Y-75914285D01*
X141632380Y-75723809D01*
X141584761Y-75628571D01*
X141537142Y-75580952D01*
X141441904Y-75533333D01*
X141251428Y-75533333D01*
X141156190Y-75580952D01*
X141108571Y-75628571D01*
X141060952Y-75723809D01*
G04 #@! TO.C,J9*
X155872380Y-76533333D02*
X156586666Y-76533333D01*
X156729523Y-76580952D01*
X156824761Y-76676190D01*
X156872380Y-76819047D01*
X156872380Y-76914285D01*
X156872380Y-76009523D02*
X156872380Y-75819047D01*
X156824761Y-75723809D01*
X156777142Y-75676190D01*
X156634285Y-75580952D01*
X156443809Y-75533333D01*
X156062857Y-75533333D01*
X155967619Y-75580952D01*
X155920000Y-75628571D01*
X155872380Y-75723809D01*
X155872380Y-75914285D01*
X155920000Y-76009523D01*
X155967619Y-76057142D01*
X156062857Y-76104761D01*
X156300952Y-76104761D01*
X156396190Y-76057142D01*
X156443809Y-76009523D01*
X156491428Y-75914285D01*
X156491428Y-75723809D01*
X156443809Y-75628571D01*
X156396190Y-75580952D01*
X156300952Y-75533333D01*
G04 #@! TO.C,J10*
X171910476Y-70362380D02*
X171910476Y-71076666D01*
X171862857Y-71219523D01*
X171767619Y-71314761D01*
X171624761Y-71362380D01*
X171529523Y-71362380D01*
X172910476Y-71362380D02*
X172339047Y-71362380D01*
X172624761Y-71362380D02*
X172624761Y-70362380D01*
X172529523Y-70505238D01*
X172434285Y-70600476D01*
X172339047Y-70648095D01*
X173529523Y-70362380D02*
X173624761Y-70362380D01*
X173720000Y-70410000D01*
X173767619Y-70457619D01*
X173815238Y-70552857D01*
X173862857Y-70743333D01*
X173862857Y-70981428D01*
X173815238Y-71171904D01*
X173767619Y-71267142D01*
X173720000Y-71314761D01*
X173624761Y-71362380D01*
X173529523Y-71362380D01*
X173434285Y-71314761D01*
X173386666Y-71267142D01*
X173339047Y-71171904D01*
X173291428Y-70981428D01*
X173291428Y-70743333D01*
X173339047Y-70552857D01*
X173386666Y-70457619D01*
X173434285Y-70410000D01*
X173529523Y-70362380D01*
G04 #@! TO.C,J11*
X145240476Y-45382380D02*
X145240476Y-46096666D01*
X145192857Y-46239523D01*
X145097619Y-46334761D01*
X144954761Y-46382380D01*
X144859523Y-46382380D01*
X146240476Y-46382380D02*
X145669047Y-46382380D01*
X145954761Y-46382380D02*
X145954761Y-45382380D01*
X145859523Y-45525238D01*
X145764285Y-45620476D01*
X145669047Y-45668095D01*
X147192857Y-46382380D02*
X146621428Y-46382380D01*
X146907142Y-46382380D02*
X146907142Y-45382380D01*
X146811904Y-45525238D01*
X146716666Y-45620476D01*
X146621428Y-45668095D01*
G04 #@! TO.C,J12*
X150320476Y-52582380D02*
X150320476Y-53296666D01*
X150272857Y-53439523D01*
X150177619Y-53534761D01*
X150034761Y-53582380D01*
X149939523Y-53582380D01*
X151320476Y-53582380D02*
X150749047Y-53582380D01*
X151034761Y-53582380D02*
X151034761Y-52582380D01*
X150939523Y-52725238D01*
X150844285Y-52820476D01*
X150749047Y-52868095D01*
X151701428Y-52677619D02*
X151749047Y-52630000D01*
X151844285Y-52582380D01*
X152082380Y-52582380D01*
X152177619Y-52630000D01*
X152225238Y-52677619D01*
X152272857Y-52772857D01*
X152272857Y-52868095D01*
X152225238Y-53010952D01*
X151653809Y-53582380D01*
X152272857Y-53582380D01*
G04 #@! TO.C,R1*
X134453333Y-58956380D02*
X134120000Y-58480190D01*
X133881904Y-58956380D02*
X133881904Y-57956380D01*
X134262857Y-57956380D01*
X134358095Y-58004000D01*
X134405714Y-58051619D01*
X134453333Y-58146857D01*
X134453333Y-58289714D01*
X134405714Y-58384952D01*
X134358095Y-58432571D01*
X134262857Y-58480190D01*
X133881904Y-58480190D01*
X135405714Y-58956380D02*
X134834285Y-58956380D01*
X135120000Y-58956380D02*
X135120000Y-57956380D01*
X135024761Y-58099238D01*
X134929523Y-58194476D01*
X134834285Y-58242095D01*
G04 #@! TO.C,R2*
X134453333Y-55146380D02*
X134120000Y-54670190D01*
X133881904Y-55146380D02*
X133881904Y-54146380D01*
X134262857Y-54146380D01*
X134358095Y-54194000D01*
X134405714Y-54241619D01*
X134453333Y-54336857D01*
X134453333Y-54479714D01*
X134405714Y-54574952D01*
X134358095Y-54622571D01*
X134262857Y-54670190D01*
X133881904Y-54670190D01*
X134834285Y-54241619D02*
X134881904Y-54194000D01*
X134977142Y-54146380D01*
X135215238Y-54146380D01*
X135310476Y-54194000D01*
X135358095Y-54241619D01*
X135405714Y-54336857D01*
X135405714Y-54432095D01*
X135358095Y-54574952D01*
X134786666Y-55146380D01*
X135405714Y-55146380D01*
G04 #@! TO.C,R3*
X137117869Y-80926860D02*
X136784536Y-80450670D01*
X136546440Y-80926860D02*
X136546440Y-79926860D01*
X136927393Y-79926860D01*
X137022631Y-79974480D01*
X137070250Y-80022099D01*
X137117869Y-80117337D01*
X137117869Y-80260194D01*
X137070250Y-80355432D01*
X137022631Y-80403051D01*
X136927393Y-80450670D01*
X136546440Y-80450670D01*
X137451202Y-79926860D02*
X138070250Y-79926860D01*
X137736916Y-80307813D01*
X137879774Y-80307813D01*
X137975012Y-80355432D01*
X138022631Y-80403051D01*
X138070250Y-80498289D01*
X138070250Y-80736384D01*
X138022631Y-80831622D01*
X137975012Y-80879241D01*
X137879774Y-80926860D01*
X137594059Y-80926860D01*
X137498821Y-80879241D01*
X137451202Y-80831622D01*
G04 #@! TO.C,R4*
X137117869Y-84736860D02*
X136784536Y-84260670D01*
X136546440Y-84736860D02*
X136546440Y-83736860D01*
X136927393Y-83736860D01*
X137022631Y-83784480D01*
X137070250Y-83832099D01*
X137117869Y-83927337D01*
X137117869Y-84070194D01*
X137070250Y-84165432D01*
X137022631Y-84213051D01*
X136927393Y-84260670D01*
X136546440Y-84260670D01*
X137975012Y-84070194D02*
X137975012Y-84736860D01*
X137736916Y-83689241D02*
X137498821Y-84403527D01*
X138117869Y-84403527D01*
G04 #@! TO.C,R5*
X137117869Y-88546860D02*
X136784536Y-88070670D01*
X136546440Y-88546860D02*
X136546440Y-87546860D01*
X136927393Y-87546860D01*
X137022631Y-87594480D01*
X137070250Y-87642099D01*
X137117869Y-87737337D01*
X137117869Y-87880194D01*
X137070250Y-87975432D01*
X137022631Y-88023051D01*
X136927393Y-88070670D01*
X136546440Y-88070670D01*
X138022631Y-87546860D02*
X137546440Y-87546860D01*
X137498821Y-88023051D01*
X137546440Y-87975432D01*
X137641678Y-87927813D01*
X137879774Y-87927813D01*
X137975012Y-87975432D01*
X138022631Y-88023051D01*
X138070250Y-88118289D01*
X138070250Y-88356384D01*
X138022631Y-88451622D01*
X137975012Y-88499241D01*
X137879774Y-88546860D01*
X137641678Y-88546860D01*
X137546440Y-88499241D01*
X137498821Y-88451622D01*
G04 #@! TO.C,R6*
X137117869Y-92356860D02*
X136784536Y-91880670D01*
X136546440Y-92356860D02*
X136546440Y-91356860D01*
X136927393Y-91356860D01*
X137022631Y-91404480D01*
X137070250Y-91452099D01*
X137117869Y-91547337D01*
X137117869Y-91690194D01*
X137070250Y-91785432D01*
X137022631Y-91833051D01*
X136927393Y-91880670D01*
X136546440Y-91880670D01*
X137975012Y-91356860D02*
X137784536Y-91356860D01*
X137689297Y-91404480D01*
X137641678Y-91452099D01*
X137546440Y-91594956D01*
X137498821Y-91785432D01*
X137498821Y-92166384D01*
X137546440Y-92261622D01*
X137594059Y-92309241D01*
X137689297Y-92356860D01*
X137879774Y-92356860D01*
X137975012Y-92309241D01*
X138022631Y-92261622D01*
X138070250Y-92166384D01*
X138070250Y-91928289D01*
X138022631Y-91833051D01*
X137975012Y-91785432D01*
X137879774Y-91737813D01*
X137689297Y-91737813D01*
X137594059Y-91785432D01*
X137546440Y-91833051D01*
X137498821Y-91928289D01*
G04 #@! TO.C,R7*
X137117869Y-96166860D02*
X136784536Y-95690670D01*
X136546440Y-96166860D02*
X136546440Y-95166860D01*
X136927393Y-95166860D01*
X137022631Y-95214480D01*
X137070250Y-95262099D01*
X137117869Y-95357337D01*
X137117869Y-95500194D01*
X137070250Y-95595432D01*
X137022631Y-95643051D01*
X136927393Y-95690670D01*
X136546440Y-95690670D01*
X137451202Y-95166860D02*
X138117869Y-95166860D01*
X137689297Y-96166860D01*
G04 #@! TO.C,R8*
X137117869Y-99976860D02*
X136784536Y-99500670D01*
X136546440Y-99976860D02*
X136546440Y-98976860D01*
X136927393Y-98976860D01*
X137022631Y-99024480D01*
X137070250Y-99072099D01*
X137117869Y-99167337D01*
X137117869Y-99310194D01*
X137070250Y-99405432D01*
X137022631Y-99453051D01*
X136927393Y-99500670D01*
X136546440Y-99500670D01*
X137689297Y-99405432D02*
X137594059Y-99357813D01*
X137546440Y-99310194D01*
X137498821Y-99214956D01*
X137498821Y-99167337D01*
X137546440Y-99072099D01*
X137594059Y-99024480D01*
X137689297Y-98976860D01*
X137879774Y-98976860D01*
X137975012Y-99024480D01*
X138022631Y-99072099D01*
X138070250Y-99167337D01*
X138070250Y-99214956D01*
X138022631Y-99310194D01*
X137975012Y-99357813D01*
X137879774Y-99405432D01*
X137689297Y-99405432D01*
X137594059Y-99453051D01*
X137546440Y-99500670D01*
X137498821Y-99595908D01*
X137498821Y-99786384D01*
X137546440Y-99881622D01*
X137594059Y-99929241D01*
X137689297Y-99976860D01*
X137879774Y-99976860D01*
X137975012Y-99929241D01*
X138022631Y-99881622D01*
X138070250Y-99786384D01*
X138070250Y-99595908D01*
X138022631Y-99500670D01*
X137975012Y-99453051D01*
X137879774Y-99405432D01*
G04 #@! TO.C,R9*
X137117869Y-103786860D02*
X136784536Y-103310670D01*
X136546440Y-103786860D02*
X136546440Y-102786860D01*
X136927393Y-102786860D01*
X137022631Y-102834480D01*
X137070250Y-102882099D01*
X137117869Y-102977337D01*
X137117869Y-103120194D01*
X137070250Y-103215432D01*
X137022631Y-103263051D01*
X136927393Y-103310670D01*
X136546440Y-103310670D01*
X137594059Y-103786860D02*
X137784536Y-103786860D01*
X137879774Y-103739241D01*
X137927393Y-103691622D01*
X138022631Y-103548765D01*
X138070250Y-103358289D01*
X138070250Y-102977337D01*
X138022631Y-102882099D01*
X137975012Y-102834480D01*
X137879774Y-102786860D01*
X137689297Y-102786860D01*
X137594059Y-102834480D01*
X137546440Y-102882099D01*
X137498821Y-102977337D01*
X137498821Y-103215432D01*
X137546440Y-103310670D01*
X137594059Y-103358289D01*
X137689297Y-103405908D01*
X137879774Y-103405908D01*
X137975012Y-103358289D01*
X138022631Y-103310670D01*
X138070250Y-103215432D01*
G04 #@! TO.C,R10*
X136641678Y-107596860D02*
X136308345Y-107120670D01*
X136070250Y-107596860D02*
X136070250Y-106596860D01*
X136451202Y-106596860D01*
X136546440Y-106644480D01*
X136594059Y-106692099D01*
X136641678Y-106787337D01*
X136641678Y-106930194D01*
X136594059Y-107025432D01*
X136546440Y-107073051D01*
X136451202Y-107120670D01*
X136070250Y-107120670D01*
X137594059Y-107596860D02*
X137022631Y-107596860D01*
X137308345Y-107596860D02*
X137308345Y-106596860D01*
X137213107Y-106739718D01*
X137117869Y-106834956D01*
X137022631Y-106882575D01*
X138213107Y-106596860D02*
X138308345Y-106596860D01*
X138403583Y-106644480D01*
X138451202Y-106692099D01*
X138498821Y-106787337D01*
X138546440Y-106977813D01*
X138546440Y-107215908D01*
X138498821Y-107406384D01*
X138451202Y-107501622D01*
X138403583Y-107549241D01*
X138308345Y-107596860D01*
X138213107Y-107596860D01*
X138117869Y-107549241D01*
X138070250Y-107501622D01*
X138022631Y-107406384D01*
X137975012Y-107215908D01*
X137975012Y-106977813D01*
X138022631Y-106787337D01*
X138070250Y-106692099D01*
X138117869Y-106644480D01*
X138213107Y-106596860D01*
G04 #@! TO.C,R11*
X162041678Y-107764860D02*
X161708345Y-107288670D01*
X161470250Y-107764860D02*
X161470250Y-106764860D01*
X161851202Y-106764860D01*
X161946440Y-106812480D01*
X161994059Y-106860099D01*
X162041678Y-106955337D01*
X162041678Y-107098194D01*
X161994059Y-107193432D01*
X161946440Y-107241051D01*
X161851202Y-107288670D01*
X161470250Y-107288670D01*
X162994059Y-107764860D02*
X162422631Y-107764860D01*
X162708345Y-107764860D02*
X162708345Y-106764860D01*
X162613107Y-106907718D01*
X162517869Y-107002956D01*
X162422631Y-107050575D01*
X163946440Y-107764860D02*
X163375012Y-107764860D01*
X163660726Y-107764860D02*
X163660726Y-106764860D01*
X163565488Y-106907718D01*
X163470250Y-107002956D01*
X163375012Y-107050575D01*
G04 #@! TO.C,R12*
X162041678Y-103954860D02*
X161708345Y-103478670D01*
X161470250Y-103954860D02*
X161470250Y-102954860D01*
X161851202Y-102954860D01*
X161946440Y-103002480D01*
X161994059Y-103050099D01*
X162041678Y-103145337D01*
X162041678Y-103288194D01*
X161994059Y-103383432D01*
X161946440Y-103431051D01*
X161851202Y-103478670D01*
X161470250Y-103478670D01*
X162994059Y-103954860D02*
X162422631Y-103954860D01*
X162708345Y-103954860D02*
X162708345Y-102954860D01*
X162613107Y-103097718D01*
X162517869Y-103192956D01*
X162422631Y-103240575D01*
X163375012Y-103050099D02*
X163422631Y-103002480D01*
X163517869Y-102954860D01*
X163755964Y-102954860D01*
X163851202Y-103002480D01*
X163898821Y-103050099D01*
X163946440Y-103145337D01*
X163946440Y-103240575D01*
X163898821Y-103383432D01*
X163327393Y-103954860D01*
X163946440Y-103954860D01*
G04 #@! TO.C,R13*
X162041678Y-100144860D02*
X161708345Y-99668670D01*
X161470250Y-100144860D02*
X161470250Y-99144860D01*
X161851202Y-99144860D01*
X161946440Y-99192480D01*
X161994059Y-99240099D01*
X162041678Y-99335337D01*
X162041678Y-99478194D01*
X161994059Y-99573432D01*
X161946440Y-99621051D01*
X161851202Y-99668670D01*
X161470250Y-99668670D01*
X162994059Y-100144860D02*
X162422631Y-100144860D01*
X162708345Y-100144860D02*
X162708345Y-99144860D01*
X162613107Y-99287718D01*
X162517869Y-99382956D01*
X162422631Y-99430575D01*
X163327393Y-99144860D02*
X163946440Y-99144860D01*
X163613107Y-99525813D01*
X163755964Y-99525813D01*
X163851202Y-99573432D01*
X163898821Y-99621051D01*
X163946440Y-99716289D01*
X163946440Y-99954384D01*
X163898821Y-100049622D01*
X163851202Y-100097241D01*
X163755964Y-100144860D01*
X163470250Y-100144860D01*
X163375012Y-100097241D01*
X163327393Y-100049622D01*
G04 #@! TO.C,R14*
X162041678Y-96334860D02*
X161708345Y-95858670D01*
X161470250Y-96334860D02*
X161470250Y-95334860D01*
X161851202Y-95334860D01*
X161946440Y-95382480D01*
X161994059Y-95430099D01*
X162041678Y-95525337D01*
X162041678Y-95668194D01*
X161994059Y-95763432D01*
X161946440Y-95811051D01*
X161851202Y-95858670D01*
X161470250Y-95858670D01*
X162994059Y-96334860D02*
X162422631Y-96334860D01*
X162708345Y-96334860D02*
X162708345Y-95334860D01*
X162613107Y-95477718D01*
X162517869Y-95572956D01*
X162422631Y-95620575D01*
X163851202Y-95668194D02*
X163851202Y-96334860D01*
X163613107Y-95287241D02*
X163375012Y-96001527D01*
X163994059Y-96001527D01*
G04 #@! TO.C,R15*
X162041678Y-92524860D02*
X161708345Y-92048670D01*
X161470250Y-92524860D02*
X161470250Y-91524860D01*
X161851202Y-91524860D01*
X161946440Y-91572480D01*
X161994059Y-91620099D01*
X162041678Y-91715337D01*
X162041678Y-91858194D01*
X161994059Y-91953432D01*
X161946440Y-92001051D01*
X161851202Y-92048670D01*
X161470250Y-92048670D01*
X162994059Y-92524860D02*
X162422631Y-92524860D01*
X162708345Y-92524860D02*
X162708345Y-91524860D01*
X162613107Y-91667718D01*
X162517869Y-91762956D01*
X162422631Y-91810575D01*
X163898821Y-91524860D02*
X163422631Y-91524860D01*
X163375012Y-92001051D01*
X163422631Y-91953432D01*
X163517869Y-91905813D01*
X163755964Y-91905813D01*
X163851202Y-91953432D01*
X163898821Y-92001051D01*
X163946440Y-92096289D01*
X163946440Y-92334384D01*
X163898821Y-92429622D01*
X163851202Y-92477241D01*
X163755964Y-92524860D01*
X163517869Y-92524860D01*
X163422631Y-92477241D01*
X163375012Y-92429622D01*
G04 #@! TO.C,R16*
X162041678Y-88714860D02*
X161708345Y-88238670D01*
X161470250Y-88714860D02*
X161470250Y-87714860D01*
X161851202Y-87714860D01*
X161946440Y-87762480D01*
X161994059Y-87810099D01*
X162041678Y-87905337D01*
X162041678Y-88048194D01*
X161994059Y-88143432D01*
X161946440Y-88191051D01*
X161851202Y-88238670D01*
X161470250Y-88238670D01*
X162994059Y-88714860D02*
X162422631Y-88714860D01*
X162708345Y-88714860D02*
X162708345Y-87714860D01*
X162613107Y-87857718D01*
X162517869Y-87952956D01*
X162422631Y-88000575D01*
X163851202Y-87714860D02*
X163660726Y-87714860D01*
X163565488Y-87762480D01*
X163517869Y-87810099D01*
X163422631Y-87952956D01*
X163375012Y-88143432D01*
X163375012Y-88524384D01*
X163422631Y-88619622D01*
X163470250Y-88667241D01*
X163565488Y-88714860D01*
X163755964Y-88714860D01*
X163851202Y-88667241D01*
X163898821Y-88619622D01*
X163946440Y-88524384D01*
X163946440Y-88286289D01*
X163898821Y-88191051D01*
X163851202Y-88143432D01*
X163755964Y-88095813D01*
X163565488Y-88095813D01*
X163470250Y-88143432D01*
X163422631Y-88191051D01*
X163375012Y-88286289D01*
G04 #@! TO.C,R17*
X162041678Y-84904860D02*
X161708345Y-84428670D01*
X161470250Y-84904860D02*
X161470250Y-83904860D01*
X161851202Y-83904860D01*
X161946440Y-83952480D01*
X161994059Y-84000099D01*
X162041678Y-84095337D01*
X162041678Y-84238194D01*
X161994059Y-84333432D01*
X161946440Y-84381051D01*
X161851202Y-84428670D01*
X161470250Y-84428670D01*
X162994059Y-84904860D02*
X162422631Y-84904860D01*
X162708345Y-84904860D02*
X162708345Y-83904860D01*
X162613107Y-84047718D01*
X162517869Y-84142956D01*
X162422631Y-84190575D01*
X163327393Y-83904860D02*
X163994059Y-83904860D01*
X163565488Y-84904860D01*
G04 #@! TO.C,R18*
X162041678Y-81094860D02*
X161708345Y-80618670D01*
X161470250Y-81094860D02*
X161470250Y-80094860D01*
X161851202Y-80094860D01*
X161946440Y-80142480D01*
X161994059Y-80190099D01*
X162041678Y-80285337D01*
X162041678Y-80428194D01*
X161994059Y-80523432D01*
X161946440Y-80571051D01*
X161851202Y-80618670D01*
X161470250Y-80618670D01*
X162994059Y-81094860D02*
X162422631Y-81094860D01*
X162708345Y-81094860D02*
X162708345Y-80094860D01*
X162613107Y-80237718D01*
X162517869Y-80332956D01*
X162422631Y-80380575D01*
X163565488Y-80523432D02*
X163470250Y-80475813D01*
X163422631Y-80428194D01*
X163375012Y-80332956D01*
X163375012Y-80285337D01*
X163422631Y-80190099D01*
X163470250Y-80142480D01*
X163565488Y-80094860D01*
X163755964Y-80094860D01*
X163851202Y-80142480D01*
X163898821Y-80190099D01*
X163946440Y-80285337D01*
X163946440Y-80332956D01*
X163898821Y-80428194D01*
X163851202Y-80475813D01*
X163755964Y-80523432D01*
X163565488Y-80523432D01*
X163470250Y-80571051D01*
X163422631Y-80618670D01*
X163375012Y-80713908D01*
X163375012Y-80904384D01*
X163422631Y-80999622D01*
X163470250Y-81047241D01*
X163565488Y-81094860D01*
X163755964Y-81094860D01*
X163851202Y-81047241D01*
X163898821Y-80999622D01*
X163946440Y-80904384D01*
X163946440Y-80713908D01*
X163898821Y-80618670D01*
X163851202Y-80571051D01*
X163755964Y-80523432D01*
G04 #@! TO.C,R19*
X170716380Y-55252857D02*
X170240190Y-55586190D01*
X170716380Y-55824285D02*
X169716380Y-55824285D01*
X169716380Y-55443333D01*
X169764000Y-55348095D01*
X169811619Y-55300476D01*
X169906857Y-55252857D01*
X170049714Y-55252857D01*
X170144952Y-55300476D01*
X170192571Y-55348095D01*
X170240190Y-55443333D01*
X170240190Y-55824285D01*
X170716380Y-54300476D02*
X170716380Y-54871904D01*
X170716380Y-54586190D02*
X169716380Y-54586190D01*
X169859238Y-54681428D01*
X169954476Y-54776666D01*
X170002095Y-54871904D01*
X170716380Y-53824285D02*
X170716380Y-53633809D01*
X170668761Y-53538571D01*
X170621142Y-53490952D01*
X170478285Y-53395714D01*
X170287809Y-53348095D01*
X169906857Y-53348095D01*
X169811619Y-53395714D01*
X169764000Y-53443333D01*
X169716380Y-53538571D01*
X169716380Y-53729047D01*
X169764000Y-53824285D01*
X169811619Y-53871904D01*
X169906857Y-53919523D01*
X170144952Y-53919523D01*
X170240190Y-53871904D01*
X170287809Y-53824285D01*
X170335428Y-53729047D01*
X170335428Y-53538571D01*
X170287809Y-53443333D01*
X170240190Y-53395714D01*
X170144952Y-53348095D01*
G04 #@! TO.C,R20*
X166906380Y-55252857D02*
X166430190Y-55586190D01*
X166906380Y-55824285D02*
X165906380Y-55824285D01*
X165906380Y-55443333D01*
X165954000Y-55348095D01*
X166001619Y-55300476D01*
X166096857Y-55252857D01*
X166239714Y-55252857D01*
X166334952Y-55300476D01*
X166382571Y-55348095D01*
X166430190Y-55443333D01*
X166430190Y-55824285D01*
X166001619Y-54871904D02*
X165954000Y-54824285D01*
X165906380Y-54729047D01*
X165906380Y-54490952D01*
X165954000Y-54395714D01*
X166001619Y-54348095D01*
X166096857Y-54300476D01*
X166192095Y-54300476D01*
X166334952Y-54348095D01*
X166906380Y-54919523D01*
X166906380Y-54300476D01*
X165906380Y-53681428D02*
X165906380Y-53586190D01*
X165954000Y-53490952D01*
X166001619Y-53443333D01*
X166096857Y-53395714D01*
X166287333Y-53348095D01*
X166525428Y-53348095D01*
X166715904Y-53395714D01*
X166811142Y-53443333D01*
X166858761Y-53490952D01*
X166906380Y-53586190D01*
X166906380Y-53681428D01*
X166858761Y-53776666D01*
X166811142Y-53824285D01*
X166715904Y-53871904D01*
X166525428Y-53919523D01*
X166287333Y-53919523D01*
X166096857Y-53871904D01*
X166001619Y-53824285D01*
X165954000Y-53776666D01*
X165906380Y-53681428D01*
G04 #@! TO.C,R21*
X163096380Y-55252857D02*
X162620190Y-55586190D01*
X163096380Y-55824285D02*
X162096380Y-55824285D01*
X162096380Y-55443333D01*
X162144000Y-55348095D01*
X162191619Y-55300476D01*
X162286857Y-55252857D01*
X162429714Y-55252857D01*
X162524952Y-55300476D01*
X162572571Y-55348095D01*
X162620190Y-55443333D01*
X162620190Y-55824285D01*
X162191619Y-54871904D02*
X162144000Y-54824285D01*
X162096380Y-54729047D01*
X162096380Y-54490952D01*
X162144000Y-54395714D01*
X162191619Y-54348095D01*
X162286857Y-54300476D01*
X162382095Y-54300476D01*
X162524952Y-54348095D01*
X163096380Y-54919523D01*
X163096380Y-54300476D01*
X163096380Y-53348095D02*
X163096380Y-53919523D01*
X163096380Y-53633809D02*
X162096380Y-53633809D01*
X162239238Y-53729047D01*
X162334476Y-53824285D01*
X162382095Y-53919523D01*
G04 #@! TO.C,R22*
X159286380Y-55252857D02*
X158810190Y-55586190D01*
X159286380Y-55824285D02*
X158286380Y-55824285D01*
X158286380Y-55443333D01*
X158334000Y-55348095D01*
X158381619Y-55300476D01*
X158476857Y-55252857D01*
X158619714Y-55252857D01*
X158714952Y-55300476D01*
X158762571Y-55348095D01*
X158810190Y-55443333D01*
X158810190Y-55824285D01*
X158381619Y-54871904D02*
X158334000Y-54824285D01*
X158286380Y-54729047D01*
X158286380Y-54490952D01*
X158334000Y-54395714D01*
X158381619Y-54348095D01*
X158476857Y-54300476D01*
X158572095Y-54300476D01*
X158714952Y-54348095D01*
X159286380Y-54919523D01*
X159286380Y-54300476D01*
X158381619Y-53919523D02*
X158334000Y-53871904D01*
X158286380Y-53776666D01*
X158286380Y-53538571D01*
X158334000Y-53443333D01*
X158381619Y-53395714D01*
X158476857Y-53348095D01*
X158572095Y-53348095D01*
X158714952Y-53395714D01*
X159286380Y-53967142D01*
X159286380Y-53348095D01*
G04 #@! TO.C,R23*
X155476380Y-55252857D02*
X155000190Y-55586190D01*
X155476380Y-55824285D02*
X154476380Y-55824285D01*
X154476380Y-55443333D01*
X154524000Y-55348095D01*
X154571619Y-55300476D01*
X154666857Y-55252857D01*
X154809714Y-55252857D01*
X154904952Y-55300476D01*
X154952571Y-55348095D01*
X155000190Y-55443333D01*
X155000190Y-55824285D01*
X154571619Y-54871904D02*
X154524000Y-54824285D01*
X154476380Y-54729047D01*
X154476380Y-54490952D01*
X154524000Y-54395714D01*
X154571619Y-54348095D01*
X154666857Y-54300476D01*
X154762095Y-54300476D01*
X154904952Y-54348095D01*
X155476380Y-54919523D01*
X155476380Y-54300476D01*
X154476380Y-53967142D02*
X154476380Y-53348095D01*
X154857333Y-53681428D01*
X154857333Y-53538571D01*
X154904952Y-53443333D01*
X154952571Y-53395714D01*
X155047809Y-53348095D01*
X155285904Y-53348095D01*
X155381142Y-53395714D01*
X155428761Y-53443333D01*
X155476380Y-53538571D01*
X155476380Y-53824285D01*
X155428761Y-53919523D01*
X155381142Y-53967142D01*
G04 #@! TO.C,SW1*
X118046666Y-58949761D02*
X118189523Y-58997380D01*
X118427619Y-58997380D01*
X118522857Y-58949761D01*
X118570476Y-58902142D01*
X118618095Y-58806904D01*
X118618095Y-58711666D01*
X118570476Y-58616428D01*
X118522857Y-58568809D01*
X118427619Y-58521190D01*
X118237142Y-58473571D01*
X118141904Y-58425952D01*
X118094285Y-58378333D01*
X118046666Y-58283095D01*
X118046666Y-58187857D01*
X118094285Y-58092619D01*
X118141904Y-58045000D01*
X118237142Y-57997380D01*
X118475238Y-57997380D01*
X118618095Y-58045000D01*
X118951428Y-57997380D02*
X119189523Y-58997380D01*
X119380000Y-58283095D01*
X119570476Y-58997380D01*
X119808571Y-57997380D01*
X120713333Y-58997380D02*
X120141904Y-58997380D01*
X120427619Y-58997380D02*
X120427619Y-57997380D01*
X120332380Y-58140238D01*
X120237142Y-58235476D01*
X120141904Y-58283095D01*
G04 #@! TO.C,U1*
X149222631Y-77680860D02*
X149222631Y-78490384D01*
X149270250Y-78585622D01*
X149317869Y-78633241D01*
X149413107Y-78680860D01*
X149603583Y-78680860D01*
X149698821Y-78633241D01*
X149746440Y-78585622D01*
X149794059Y-78490384D01*
X149794059Y-77680860D01*
X150794059Y-78680860D02*
X150222631Y-78680860D01*
X150508345Y-78680860D02*
X150508345Y-77680860D01*
X150413107Y-77823718D01*
X150317869Y-77918956D01*
X150222631Y-77966575D01*
G04 #@! TO.C,U2*
X170692380Y-68071904D02*
X171501904Y-68071904D01*
X171597142Y-68024285D01*
X171644761Y-67976666D01*
X171692380Y-67881428D01*
X171692380Y-67690952D01*
X171644761Y-67595714D01*
X171597142Y-67548095D01*
X171501904Y-67500476D01*
X170692380Y-67500476D01*
X170787619Y-67071904D02*
X170740000Y-67024285D01*
X170692380Y-66929047D01*
X170692380Y-66690952D01*
X170740000Y-66595714D01*
X170787619Y-66548095D01*
X170882857Y-66500476D01*
X170978095Y-66500476D01*
X171120952Y-66548095D01*
X171692380Y-67119523D01*
X171692380Y-66500476D01*
G04 #@! TO.C,J1*
X126662380Y-48593333D02*
X127376666Y-48593333D01*
X127519523Y-48640952D01*
X127614761Y-48736190D01*
X127662380Y-48879047D01*
X127662380Y-48974285D01*
X127662380Y-47593333D02*
X127662380Y-48164761D01*
X127662380Y-47879047D02*
X126662380Y-47879047D01*
X126805238Y-47974285D01*
X126900476Y-48069523D01*
X126948095Y-48164761D01*
G04 #@! TD*
M02*
