M48
;DRILL file {KiCad (5.0.2)-1} date 1/16/2019 2:08:29 PM
;FORMAT={-:-/ absolute / inch / decimal}
FMAT,2
INCH,TZ
T1C0.0300
T2C0.0315
T3C0.0394
%
G90
G05
T1
X4.7Y-2.5835
T2
X6.7Y-1.95
X6.7Y-2.35
X6.2049Y-3.6216
X6.6049Y-3.6216
X5.2049Y-3.3216
X5.6049Y-3.3216
X6.25Y-1.95
X6.25Y-2.35
X6.2049Y-3.1716
X6.6049Y-3.1716
X6.2049Y-3.9216
X6.6049Y-3.9216
X5.35Y-2.5
X5.35Y-2.8
X5.45Y-2.5
X5.45Y-2.8
X5.55Y-2.5
X5.55Y-2.8
X5.65Y-2.5
X5.65Y-2.8
X5.75Y-2.5
X5.75Y-2.8
X5.85Y-2.5
X5.85Y-2.8
X5.95Y-2.5
X5.95Y-2.8
X6.05Y-2.5
X6.05Y-2.8
X6.15Y-2.5
X6.15Y-2.8
X6.25Y-2.5
X6.25Y-2.8
X6.35Y-2.5
X6.35Y-2.8
X6.45Y-2.5
X6.45Y-2.8
X6.55Y-2.5
X6.55Y-2.8
X6.65Y-2.5
X6.65Y-2.8
X5.1Y-2.15
X5.5Y-2.15
X5.2049Y-3.7716
X5.6049Y-3.7716
X6.2049Y-4.0716
X6.6049Y-4.0716
X5.7549Y-3.1716
X5.7549Y-3.2716
X5.7549Y-3.3716
X5.7549Y-3.4716
X5.7549Y-3.5716
X5.7549Y-3.6716
X5.7549Y-3.7716
X5.7549Y-3.8716
X5.7549Y-3.9716
X5.7549Y-4.0716
X5.7549Y-4.1716
X5.7549Y-4.2716
X5.7549Y-4.3716
X5.7549Y-4.4716
X6.0549Y-3.1716
X6.0549Y-3.2716
X6.0549Y-3.3716
X6.0549Y-3.4716
X6.0549Y-3.5716
X6.0549Y-3.6716
X6.0549Y-3.7716
X6.0549Y-3.8716
X6.0549Y-3.9716
X6.0549Y-4.0716
X6.0549Y-4.1716
X6.0549Y-4.2716
X6.0549Y-4.3716
X6.0549Y-4.4716
X6.2049Y-3.4716
X6.6049Y-3.4716
X6.2049Y-4.2216
X6.6049Y-4.2216
X6.1Y-1.95
X6.1Y-2.35
X6.2049Y-3.3216
X6.6049Y-3.3216
X5.2049Y-4.0716
X5.6049Y-4.0716
X5.2049Y-4.2216
X5.6049Y-4.2216
X4.3102Y-2.6956
X4.3102Y-2.9044
X4.4147Y-2.5147
X4.4147Y-3.0853
X4.5956Y-2.4102
X4.8044Y-2.4102
X4.8044Y-3.1898
X4.9853Y-2.5147
X4.9853Y-3.0853
X5.0898Y-2.6956
X5.0898Y-2.9044
X6.55Y-1.95
X6.55Y-2.35
X5.2049Y-3.9216
X5.6049Y-3.9216
X5.2049Y-3.6216
X5.6049Y-3.6216
X5.1Y-2.3
X5.5Y-2.3
X6.2049Y-3.7716
X6.6049Y-3.7716
X5.2049Y-3.1716
X5.6049Y-3.1716
X5.2049Y-3.4716
X5.6049Y-3.4716
X6.4Y-1.95
X6.4Y-2.35
T3
X5.75Y-1.9
X5.75Y-2.
X5.75Y-2.1
X6.2549Y-4.3716
X6.3549Y-4.3716
X6.4549Y-4.3716
X5.65Y-3.
X5.75Y-3.
X5.85Y-3.
X5.95Y-3.
X6.05Y-3.
X5.95Y-1.9
X5.95Y-2.
X5.0549Y-3.8216
X5.0549Y-3.9216
X5.0549Y-4.0216
X5.0549Y-4.1216
X5.0549Y-4.2216
X6.8Y-2.5
X6.8Y-2.6
X6.8Y-2.7
X5.1Y-1.9
X5.2Y-1.9
X5.3Y-1.9
X5.4Y-1.9
X6.8049Y-3.1716
X6.8049Y-3.2716
X6.8049Y-3.3716
X6.25Y-3.
X6.35Y-3.
X6.45Y-3.
X6.55Y-3.
X6.65Y-3.
X6.8049Y-3.5716
X6.8049Y-3.6716
X6.8049Y-3.7716
X5.65Y-2.3
X5.75Y-2.3
X5.85Y-2.3
X5.95Y-2.3
X6.8049Y-3.9716
X6.8049Y-4.0716
X6.8049Y-4.1716
T0
M30
