G04 #@! TF.GenerationSoftware,KiCad,Pcbnew,(5.1.5)-3*
G04 #@! TF.CreationDate,2020-02-14T16:00:35-06:00*
G04 #@! TF.ProjectId,7Button,37427574-746f-46e2-9e6b-696361645f70,rev?*
G04 #@! TF.SameCoordinates,Original*
G04 #@! TF.FileFunction,Copper,L2,Bot*
G04 #@! TF.FilePolarity,Positive*
%FSLAX46Y46*%
G04 Gerber Fmt 4.6, Leading zero omitted, Abs format (unit mm)*
G04 Created by KiCad (PCBNEW (5.1.5)-3) date 2020-02-14 16:00:35*
%MOMM*%
%LPD*%
G04 APERTURE LIST*
%ADD10O,1.700000X1.700000*%
%ADD11R,1.700000X1.700000*%
%ADD12O,1.727200X3.048000*%
%ADD13C,0.250000*%
G04 APERTURE END LIST*
D10*
X239776000Y-125960000D03*
X237236000Y-125960000D03*
X239776000Y-128500000D03*
X237236000Y-128500000D03*
X239776000Y-131040000D03*
X237236000Y-131040000D03*
X239776000Y-133580000D03*
D11*
X237236000Y-133580000D03*
D10*
X139065000Y-125950000D03*
X136525000Y-125950000D03*
X139065000Y-128490000D03*
X136525000Y-128490000D03*
X139065000Y-131030000D03*
D11*
X136525000Y-131030000D03*
D12*
X231568000Y-138430000D03*
X226568000Y-138430000D03*
X231568000Y-125930000D03*
X226568000Y-125930000D03*
X218868000Y-138430000D03*
X213868000Y-138430000D03*
X218868000Y-125930000D03*
X213868000Y-125930000D03*
X206168000Y-138430000D03*
X201168000Y-138430000D03*
X206168000Y-125930000D03*
X201168000Y-125930000D03*
X193468000Y-138430000D03*
X188468000Y-138430000D03*
X193468000Y-125930000D03*
X188468000Y-125930000D03*
X175180000Y-138430000D03*
X170180000Y-138430000D03*
X175180000Y-125930000D03*
X170180000Y-125930000D03*
X162480000Y-138430000D03*
X157480000Y-138430000D03*
X162480000Y-125930000D03*
X157480000Y-125930000D03*
X149780000Y-138430000D03*
X144780000Y-138430000D03*
X149780000Y-125930000D03*
X144780000Y-125930000D03*
D13*
X226568000Y-125930000D02*
X226568000Y-138430000D01*
X213868000Y-125930000D02*
X213868000Y-138430000D01*
X201168000Y-127704000D02*
X201168000Y-138430000D01*
X201168000Y-125930000D02*
X201168000Y-127704000D01*
X188468000Y-125930000D02*
X188468000Y-138430000D01*
X170180000Y-127704000D02*
X170180000Y-138430000D01*
X170180000Y-125930000D02*
X170180000Y-127704000D01*
X175180000Y-125930000D02*
X175180000Y-138430000D01*
X157480000Y-127704000D02*
X157480000Y-138430000D01*
X157480000Y-125930000D02*
X157480000Y-127704000D01*
X162480000Y-127704000D02*
X162480000Y-138430000D01*
X162480000Y-125930000D02*
X162480000Y-127704000D01*
X144780000Y-125930000D02*
X144780000Y-138430000D01*
X149780000Y-127704000D02*
X149780000Y-138430000D01*
X149780000Y-125930000D02*
X149780000Y-127704000D01*
X231568000Y-125930000D02*
X231568000Y-138430000D01*
X218868000Y-127704000D02*
X218868000Y-138430000D01*
X218868000Y-125930000D02*
X218868000Y-127704000D01*
X206168000Y-125930000D02*
X206168000Y-138430000D01*
X193468000Y-127704000D02*
X193468000Y-138430000D01*
X193468000Y-125930000D02*
X193468000Y-127704000D01*
M02*
