G04 #@! TF.GenerationSoftware,KiCad,Pcbnew,(5.1.5)-3*
G04 #@! TF.CreationDate,2020-02-14T16:00:35-06:00*
G04 #@! TF.ProjectId,7Button,37427574-746f-46e2-9e6b-696361645f70,rev?*
G04 #@! TF.SameCoordinates,Original*
G04 #@! TF.FileFunction,Legend,Top*
G04 #@! TF.FilePolarity,Positive*
%FSLAX46Y46*%
G04 Gerber Fmt 4.6, Leading zero omitted, Abs format (unit mm)*
G04 Created by KiCad (PCBNEW (5.1.5)-3) date 2020-02-14 16:00:35*
%MOMM*%
%LPD*%
G04 APERTURE LIST*
%ADD10C,0.120000*%
%ADD11C,0.150000*%
G04 APERTURE END LIST*
D10*
X222918000Y-126030000D02*
X225638000Y-126030000D01*
X232498000Y-126030000D02*
X235218000Y-126030000D01*
X230638000Y-138330000D02*
X227498000Y-138330000D01*
X235218000Y-138330000D02*
X232498000Y-138330000D01*
X233687050Y-132080000D02*
G75*
G03X233687050Y-132080000I-4579050J0D01*
G01*
X225638000Y-138330000D02*
X222918000Y-138330000D01*
X235218000Y-126030000D02*
X235218000Y-138330000D01*
X227498000Y-126030000D02*
X230638000Y-126030000D01*
X222918000Y-138330000D02*
X222918000Y-126030000D01*
X210218000Y-126030000D02*
X212938000Y-126030000D01*
X219798000Y-126030000D02*
X222518000Y-126030000D01*
X217938000Y-138330000D02*
X214798000Y-138330000D01*
X222518000Y-138330000D02*
X219798000Y-138330000D01*
X220987050Y-132080000D02*
G75*
G03X220987050Y-132080000I-4579050J0D01*
G01*
X212938000Y-138330000D02*
X210218000Y-138330000D01*
X222518000Y-126030000D02*
X222518000Y-138330000D01*
X214798000Y-126030000D02*
X217938000Y-126030000D01*
X210218000Y-138330000D02*
X210218000Y-126030000D01*
X197518000Y-126030000D02*
X200238000Y-126030000D01*
X207098000Y-126030000D02*
X209818000Y-126030000D01*
X205238000Y-138330000D02*
X202098000Y-138330000D01*
X209818000Y-138330000D02*
X207098000Y-138330000D01*
X208287050Y-132080000D02*
G75*
G03X208287050Y-132080000I-4579050J0D01*
G01*
X200238000Y-138330000D02*
X197518000Y-138330000D01*
X209818000Y-126030000D02*
X209818000Y-138330000D01*
X202098000Y-126030000D02*
X205238000Y-126030000D01*
X197518000Y-138330000D02*
X197518000Y-126030000D01*
X184818000Y-126030000D02*
X187538000Y-126030000D01*
X194398000Y-126030000D02*
X197118000Y-126030000D01*
X192538000Y-138330000D02*
X189398000Y-138330000D01*
X197118000Y-138330000D02*
X194398000Y-138330000D01*
X195587050Y-132080000D02*
G75*
G03X195587050Y-132080000I-4579050J0D01*
G01*
X187538000Y-138330000D02*
X184818000Y-138330000D01*
X197118000Y-126030000D02*
X197118000Y-138330000D01*
X189398000Y-126030000D02*
X192538000Y-126030000D01*
X184818000Y-138330000D02*
X184818000Y-126030000D01*
X166530000Y-126030000D02*
X169250000Y-126030000D01*
X176110000Y-126030000D02*
X178830000Y-126030000D01*
X174250000Y-138330000D02*
X171110000Y-138330000D01*
X178830000Y-138330000D02*
X176110000Y-138330000D01*
X177299050Y-132080000D02*
G75*
G03X177299050Y-132080000I-4579050J0D01*
G01*
X169250000Y-138330000D02*
X166530000Y-138330000D01*
X178830000Y-126030000D02*
X178830000Y-138330000D01*
X171110000Y-126030000D02*
X174250000Y-126030000D01*
X166530000Y-138330000D02*
X166530000Y-126030000D01*
X153830000Y-126030000D02*
X156550000Y-126030000D01*
X163410000Y-126030000D02*
X166130000Y-126030000D01*
X161550000Y-138330000D02*
X158410000Y-138330000D01*
X166130000Y-138330000D02*
X163410000Y-138330000D01*
X164599050Y-132080000D02*
G75*
G03X164599050Y-132080000I-4579050J0D01*
G01*
X156550000Y-138330000D02*
X153830000Y-138330000D01*
X166130000Y-126030000D02*
X166130000Y-138330000D01*
X158410000Y-126030000D02*
X161550000Y-126030000D01*
X153830000Y-138330000D02*
X153830000Y-126030000D01*
X141130000Y-126030000D02*
X143850000Y-126030000D01*
X150710000Y-126030000D02*
X153430000Y-126030000D01*
X148850000Y-138330000D02*
X145710000Y-138330000D01*
X153430000Y-138330000D02*
X150710000Y-138330000D01*
X151899050Y-132080000D02*
G75*
G03X151899050Y-132080000I-4579050J0D01*
G01*
X143850000Y-138330000D02*
X141130000Y-138330000D01*
X153430000Y-126030000D02*
X153430000Y-138330000D01*
X145710000Y-126030000D02*
X148850000Y-126030000D01*
X141130000Y-138330000D02*
X141130000Y-126030000D01*
D11*
X227774666Y-125499761D02*
X227917523Y-125547380D01*
X228155619Y-125547380D01*
X228250857Y-125499761D01*
X228298476Y-125452142D01*
X228346095Y-125356904D01*
X228346095Y-125261666D01*
X228298476Y-125166428D01*
X228250857Y-125118809D01*
X228155619Y-125071190D01*
X227965142Y-125023571D01*
X227869904Y-124975952D01*
X227822285Y-124928333D01*
X227774666Y-124833095D01*
X227774666Y-124737857D01*
X227822285Y-124642619D01*
X227869904Y-124595000D01*
X227965142Y-124547380D01*
X228203238Y-124547380D01*
X228346095Y-124595000D01*
X228679428Y-124547380D02*
X228917523Y-125547380D01*
X229108000Y-124833095D01*
X229298476Y-125547380D01*
X229536571Y-124547380D01*
X229822285Y-124547380D02*
X230488952Y-124547380D01*
X230060380Y-125547380D01*
X215074666Y-125499761D02*
X215217523Y-125547380D01*
X215455619Y-125547380D01*
X215550857Y-125499761D01*
X215598476Y-125452142D01*
X215646095Y-125356904D01*
X215646095Y-125261666D01*
X215598476Y-125166428D01*
X215550857Y-125118809D01*
X215455619Y-125071190D01*
X215265142Y-125023571D01*
X215169904Y-124975952D01*
X215122285Y-124928333D01*
X215074666Y-124833095D01*
X215074666Y-124737857D01*
X215122285Y-124642619D01*
X215169904Y-124595000D01*
X215265142Y-124547380D01*
X215503238Y-124547380D01*
X215646095Y-124595000D01*
X215979428Y-124547380D02*
X216217523Y-125547380D01*
X216408000Y-124833095D01*
X216598476Y-125547380D01*
X216836571Y-124547380D01*
X217646095Y-124547380D02*
X217455619Y-124547380D01*
X217360380Y-124595000D01*
X217312761Y-124642619D01*
X217217523Y-124785476D01*
X217169904Y-124975952D01*
X217169904Y-125356904D01*
X217217523Y-125452142D01*
X217265142Y-125499761D01*
X217360380Y-125547380D01*
X217550857Y-125547380D01*
X217646095Y-125499761D01*
X217693714Y-125452142D01*
X217741333Y-125356904D01*
X217741333Y-125118809D01*
X217693714Y-125023571D01*
X217646095Y-124975952D01*
X217550857Y-124928333D01*
X217360380Y-124928333D01*
X217265142Y-124975952D01*
X217217523Y-125023571D01*
X217169904Y-125118809D01*
X202374666Y-125499761D02*
X202517523Y-125547380D01*
X202755619Y-125547380D01*
X202850857Y-125499761D01*
X202898476Y-125452142D01*
X202946095Y-125356904D01*
X202946095Y-125261666D01*
X202898476Y-125166428D01*
X202850857Y-125118809D01*
X202755619Y-125071190D01*
X202565142Y-125023571D01*
X202469904Y-124975952D01*
X202422285Y-124928333D01*
X202374666Y-124833095D01*
X202374666Y-124737857D01*
X202422285Y-124642619D01*
X202469904Y-124595000D01*
X202565142Y-124547380D01*
X202803238Y-124547380D01*
X202946095Y-124595000D01*
X203279428Y-124547380D02*
X203517523Y-125547380D01*
X203708000Y-124833095D01*
X203898476Y-125547380D01*
X204136571Y-124547380D01*
X204993714Y-124547380D02*
X204517523Y-124547380D01*
X204469904Y-125023571D01*
X204517523Y-124975952D01*
X204612761Y-124928333D01*
X204850857Y-124928333D01*
X204946095Y-124975952D01*
X204993714Y-125023571D01*
X205041333Y-125118809D01*
X205041333Y-125356904D01*
X204993714Y-125452142D01*
X204946095Y-125499761D01*
X204850857Y-125547380D01*
X204612761Y-125547380D01*
X204517523Y-125499761D01*
X204469904Y-125452142D01*
X189674666Y-125499761D02*
X189817523Y-125547380D01*
X190055619Y-125547380D01*
X190150857Y-125499761D01*
X190198476Y-125452142D01*
X190246095Y-125356904D01*
X190246095Y-125261666D01*
X190198476Y-125166428D01*
X190150857Y-125118809D01*
X190055619Y-125071190D01*
X189865142Y-125023571D01*
X189769904Y-124975952D01*
X189722285Y-124928333D01*
X189674666Y-124833095D01*
X189674666Y-124737857D01*
X189722285Y-124642619D01*
X189769904Y-124595000D01*
X189865142Y-124547380D01*
X190103238Y-124547380D01*
X190246095Y-124595000D01*
X190579428Y-124547380D02*
X190817523Y-125547380D01*
X191008000Y-124833095D01*
X191198476Y-125547380D01*
X191436571Y-124547380D01*
X192246095Y-124880714D02*
X192246095Y-125547380D01*
X192008000Y-124499761D02*
X191769904Y-125214047D01*
X192388952Y-125214047D01*
X171386666Y-125499761D02*
X171529523Y-125547380D01*
X171767619Y-125547380D01*
X171862857Y-125499761D01*
X171910476Y-125452142D01*
X171958095Y-125356904D01*
X171958095Y-125261666D01*
X171910476Y-125166428D01*
X171862857Y-125118809D01*
X171767619Y-125071190D01*
X171577142Y-125023571D01*
X171481904Y-124975952D01*
X171434285Y-124928333D01*
X171386666Y-124833095D01*
X171386666Y-124737857D01*
X171434285Y-124642619D01*
X171481904Y-124595000D01*
X171577142Y-124547380D01*
X171815238Y-124547380D01*
X171958095Y-124595000D01*
X172291428Y-124547380D02*
X172529523Y-125547380D01*
X172720000Y-124833095D01*
X172910476Y-125547380D01*
X173148571Y-124547380D01*
X173434285Y-124547380D02*
X174053333Y-124547380D01*
X173720000Y-124928333D01*
X173862857Y-124928333D01*
X173958095Y-124975952D01*
X174005714Y-125023571D01*
X174053333Y-125118809D01*
X174053333Y-125356904D01*
X174005714Y-125452142D01*
X173958095Y-125499761D01*
X173862857Y-125547380D01*
X173577142Y-125547380D01*
X173481904Y-125499761D01*
X173434285Y-125452142D01*
X158686666Y-125499761D02*
X158829523Y-125547380D01*
X159067619Y-125547380D01*
X159162857Y-125499761D01*
X159210476Y-125452142D01*
X159258095Y-125356904D01*
X159258095Y-125261666D01*
X159210476Y-125166428D01*
X159162857Y-125118809D01*
X159067619Y-125071190D01*
X158877142Y-125023571D01*
X158781904Y-124975952D01*
X158734285Y-124928333D01*
X158686666Y-124833095D01*
X158686666Y-124737857D01*
X158734285Y-124642619D01*
X158781904Y-124595000D01*
X158877142Y-124547380D01*
X159115238Y-124547380D01*
X159258095Y-124595000D01*
X159591428Y-124547380D02*
X159829523Y-125547380D01*
X160020000Y-124833095D01*
X160210476Y-125547380D01*
X160448571Y-124547380D01*
X160781904Y-124642619D02*
X160829523Y-124595000D01*
X160924761Y-124547380D01*
X161162857Y-124547380D01*
X161258095Y-124595000D01*
X161305714Y-124642619D01*
X161353333Y-124737857D01*
X161353333Y-124833095D01*
X161305714Y-124975952D01*
X160734285Y-125547380D01*
X161353333Y-125547380D01*
X145986666Y-125499761D02*
X146129523Y-125547380D01*
X146367619Y-125547380D01*
X146462857Y-125499761D01*
X146510476Y-125452142D01*
X146558095Y-125356904D01*
X146558095Y-125261666D01*
X146510476Y-125166428D01*
X146462857Y-125118809D01*
X146367619Y-125071190D01*
X146177142Y-125023571D01*
X146081904Y-124975952D01*
X146034285Y-124928333D01*
X145986666Y-124833095D01*
X145986666Y-124737857D01*
X146034285Y-124642619D01*
X146081904Y-124595000D01*
X146177142Y-124547380D01*
X146415238Y-124547380D01*
X146558095Y-124595000D01*
X146891428Y-124547380D02*
X147129523Y-125547380D01*
X147320000Y-124833095D01*
X147510476Y-125547380D01*
X147748571Y-124547380D01*
X148653333Y-125547380D02*
X148081904Y-125547380D01*
X148367619Y-125547380D02*
X148367619Y-124547380D01*
X148272380Y-124690238D01*
X148177142Y-124785476D01*
X148081904Y-124833095D01*
M02*
