G04 #@! TF.GenerationSoftware,KiCad,Pcbnew,(5.1.5)-3*
G04 #@! TF.CreationDate,2020-02-14T16:00:35-06:00*
G04 #@! TF.ProjectId,7Button,37427574-746f-46e2-9e6b-696361645f70,rev?*
G04 #@! TF.SameCoordinates,Original*
G04 #@! TF.FileFunction,Copper,L1,Top*
G04 #@! TF.FilePolarity,Positive*
%FSLAX46Y46*%
G04 Gerber Fmt 4.6, Leading zero omitted, Abs format (unit mm)*
G04 Created by KiCad (PCBNEW (5.1.5)-3) date 2020-02-14 16:00:35*
%MOMM*%
%LPD*%
G04 APERTURE LIST*
%ADD10O,1.700000X1.700000*%
%ADD11R,1.700000X1.700000*%
%ADD12O,1.727200X3.048000*%
%ADD13C,0.250000*%
G04 APERTURE END LIST*
D10*
X239776000Y-125960000D03*
X237236000Y-125960000D03*
X239776000Y-128500000D03*
X237236000Y-128500000D03*
X239776000Y-131040000D03*
X237236000Y-131040000D03*
X239776000Y-133580000D03*
D11*
X237236000Y-133580000D03*
D10*
X139065000Y-125950000D03*
X136525000Y-125950000D03*
X139065000Y-128490000D03*
X136525000Y-128490000D03*
X139065000Y-131030000D03*
D11*
X136525000Y-131030000D03*
D12*
X231568000Y-138430000D03*
X226568000Y-138430000D03*
X231568000Y-125930000D03*
X226568000Y-125930000D03*
X218868000Y-138430000D03*
X213868000Y-138430000D03*
X218868000Y-125930000D03*
X213868000Y-125930000D03*
X206168000Y-138430000D03*
X201168000Y-138430000D03*
X206168000Y-125930000D03*
X201168000Y-125930000D03*
X193468000Y-138430000D03*
X188468000Y-138430000D03*
X193468000Y-125930000D03*
X188468000Y-125930000D03*
X175180000Y-138430000D03*
X170180000Y-138430000D03*
X175180000Y-125930000D03*
X170180000Y-125930000D03*
X162480000Y-138430000D03*
X157480000Y-138430000D03*
X162480000Y-125930000D03*
X157480000Y-125930000D03*
X149780000Y-138430000D03*
X144780000Y-138430000D03*
X149780000Y-125930000D03*
X144780000Y-125930000D03*
D13*
X226568000Y-127704000D02*
X226568000Y-125930000D01*
X226643010Y-127779010D02*
X226568000Y-127704000D01*
X235458000Y-127254000D02*
X234932990Y-127779010D01*
X238482000Y-127254000D02*
X235458000Y-127254000D01*
X234932990Y-127779010D02*
X226643010Y-127779010D01*
X239776000Y-125960000D02*
X238482000Y-127254000D01*
X213868000Y-126590400D02*
X213868000Y-125930000D01*
X217142599Y-129864999D02*
X213868000Y-126590400D01*
X238411001Y-129864999D02*
X217142599Y-129864999D01*
X239776000Y-128500000D02*
X238411001Y-129864999D01*
X205868999Y-132404999D02*
X201168000Y-127704000D01*
X201168000Y-127704000D02*
X201168000Y-125930000D01*
X238411001Y-132404999D02*
X205868999Y-132404999D01*
X239776000Y-131040000D02*
X238411001Y-132404999D01*
X188468000Y-127704000D02*
X188468000Y-125930000D01*
X195519001Y-134755001D02*
X188468000Y-127704000D01*
X238600999Y-134755001D02*
X195519001Y-134755001D01*
X239776000Y-133580000D02*
X238600999Y-134755001D01*
X163449000Y-136017000D02*
X165862000Y-138430000D01*
X165862000Y-138430000D02*
X170180000Y-138430000D01*
X151258410Y-136017000D02*
X163449000Y-136017000D01*
X139065000Y-125950000D02*
X141191410Y-125950000D01*
X141191410Y-125950000D02*
X151258410Y-136017000D01*
X137700001Y-124774999D02*
X140776999Y-124774999D01*
X136525000Y-125950000D02*
X137700001Y-124774999D01*
X140776999Y-124774999D02*
X151511000Y-135509000D01*
X175180000Y-136656000D02*
X175180000Y-138430000D01*
X174033000Y-135509000D02*
X175180000Y-136656000D01*
X151511000Y-135509000D02*
X174033000Y-135509000D01*
X152273000Y-138430000D02*
X157480000Y-138430000D01*
X139065000Y-128490000D02*
X142333000Y-128490000D01*
X142333000Y-128490000D02*
X152273000Y-138430000D01*
X137700001Y-127314999D02*
X141919999Y-127314999D01*
X136525000Y-128490000D02*
X137700001Y-127314999D01*
X141919999Y-127314999D02*
X151130000Y-136525000D01*
X162480000Y-136656000D02*
X162480000Y-138430000D01*
X162349000Y-136525000D02*
X162480000Y-136656000D01*
X151130000Y-136525000D02*
X162349000Y-136525000D01*
X140267081Y-131030000D02*
X140301081Y-131064000D01*
X139065000Y-131030000D02*
X140267081Y-131030000D01*
X140301081Y-131064000D02*
X142748000Y-131064000D01*
X142748000Y-131064000D02*
X144780000Y-133096000D01*
X144780000Y-133096000D02*
X144780000Y-138430000D01*
X149780000Y-136656000D02*
X149780000Y-138430000D01*
X142978999Y-129854999D02*
X149780000Y-136656000D01*
X137325998Y-131030000D02*
X138500999Y-129854999D01*
X138500999Y-129854999D02*
X142978999Y-129854999D01*
X136525000Y-131030000D02*
X137325998Y-131030000D01*
X237206000Y-125930000D02*
X237236000Y-125960000D01*
X231568000Y-125930000D02*
X237206000Y-125930000D01*
X236033919Y-128500000D02*
X237236000Y-128500000D01*
X222551600Y-128500000D02*
X236033919Y-128500000D01*
X219981600Y-125930000D02*
X222551600Y-128500000D01*
X218868000Y-125930000D02*
X219981600Y-125930000D01*
X206168000Y-125930000D02*
X206168000Y-127704000D01*
X237236000Y-131040000D02*
X209526000Y-131040000D01*
X209526000Y-131040000D02*
X207264000Y-128778000D01*
X206168000Y-127704000D02*
X207264000Y-128778000D01*
X207264000Y-128778000D02*
X207414010Y-128950010D01*
X236069000Y-133580000D02*
X237236000Y-133580000D01*
X194581600Y-125930000D02*
X193468000Y-125930000D01*
X235411009Y-132855009D02*
X201506609Y-132855009D01*
X201506609Y-132855009D02*
X194581600Y-125930000D01*
X236136000Y-133580000D02*
X235411009Y-132855009D01*
X237236000Y-133580000D02*
X236136000Y-133580000D01*
M02*
