G04 #@! TF.GenerationSoftware,KiCad,Pcbnew,(5.1.5)-3*
G04 #@! TF.CreationDate,2020-02-14T16:00:35-06:00*
G04 #@! TF.ProjectId,7Button,37427574-746f-46e2-9e6b-696361645f70,rev?*
G04 #@! TF.SameCoordinates,Original*
G04 #@! TF.FileFunction,Soldermask,Bot*
G04 #@! TF.FilePolarity,Negative*
%FSLAX46Y46*%
G04 Gerber Fmt 4.6, Leading zero omitted, Abs format (unit mm)*
G04 Created by KiCad (PCBNEW (5.1.5)-3) date 2020-02-14 16:00:35*
%MOMM*%
%LPD*%
G04 APERTURE LIST*
%ADD10C,0.100000*%
G04 APERTURE END LIST*
D10*
G36*
X170359293Y-136868233D02*
G01*
X170531694Y-136920531D01*
X170690583Y-137005458D01*
X170829849Y-137119751D01*
X170944142Y-137259017D01*
X171029069Y-137417905D01*
X171081367Y-137590306D01*
X171094600Y-137724669D01*
X171094600Y-139135331D01*
X171081367Y-139269694D01*
X171029069Y-139442095D01*
X170944142Y-139600983D01*
X170829849Y-139740249D01*
X170690583Y-139854542D01*
X170531695Y-139939469D01*
X170359294Y-139991767D01*
X170180000Y-140009425D01*
X170000707Y-139991767D01*
X169828306Y-139939469D01*
X169669418Y-139854542D01*
X169530152Y-139740249D01*
X169415859Y-139600983D01*
X169330932Y-139442095D01*
X169278634Y-139269694D01*
X169265401Y-139135331D01*
X169265400Y-137724670D01*
X169278633Y-137590307D01*
X169330931Y-137417906D01*
X169415858Y-137259017D01*
X169530151Y-137119751D01*
X169669417Y-137005458D01*
X169828305Y-136920531D01*
X170000706Y-136868233D01*
X170180000Y-136850575D01*
X170359293Y-136868233D01*
G37*
G36*
X149959293Y-136868233D02*
G01*
X150131694Y-136920531D01*
X150290583Y-137005458D01*
X150429849Y-137119751D01*
X150544142Y-137259017D01*
X150629069Y-137417905D01*
X150681367Y-137590306D01*
X150694600Y-137724669D01*
X150694600Y-139135331D01*
X150681367Y-139269694D01*
X150629069Y-139442095D01*
X150544142Y-139600983D01*
X150429849Y-139740249D01*
X150290583Y-139854542D01*
X150131695Y-139939469D01*
X149959294Y-139991767D01*
X149780000Y-140009425D01*
X149600707Y-139991767D01*
X149428306Y-139939469D01*
X149269418Y-139854542D01*
X149130152Y-139740249D01*
X149015859Y-139600983D01*
X148930932Y-139442095D01*
X148878634Y-139269694D01*
X148865401Y-139135331D01*
X148865400Y-137724670D01*
X148878633Y-137590307D01*
X148930931Y-137417906D01*
X149015858Y-137259017D01*
X149130151Y-137119751D01*
X149269417Y-137005458D01*
X149428305Y-136920531D01*
X149600706Y-136868233D01*
X149780000Y-136850575D01*
X149959293Y-136868233D01*
G37*
G36*
X157659293Y-136868233D02*
G01*
X157831694Y-136920531D01*
X157990583Y-137005458D01*
X158129849Y-137119751D01*
X158244142Y-137259017D01*
X158329069Y-137417905D01*
X158381367Y-137590306D01*
X158394600Y-137724669D01*
X158394600Y-139135331D01*
X158381367Y-139269694D01*
X158329069Y-139442095D01*
X158244142Y-139600983D01*
X158129849Y-139740249D01*
X157990583Y-139854542D01*
X157831695Y-139939469D01*
X157659294Y-139991767D01*
X157480000Y-140009425D01*
X157300707Y-139991767D01*
X157128306Y-139939469D01*
X156969418Y-139854542D01*
X156830152Y-139740249D01*
X156715859Y-139600983D01*
X156630932Y-139442095D01*
X156578634Y-139269694D01*
X156565401Y-139135331D01*
X156565400Y-137724670D01*
X156578633Y-137590307D01*
X156630931Y-137417906D01*
X156715858Y-137259017D01*
X156830151Y-137119751D01*
X156969417Y-137005458D01*
X157128305Y-136920531D01*
X157300706Y-136868233D01*
X157480000Y-136850575D01*
X157659293Y-136868233D01*
G37*
G36*
X162659293Y-136868233D02*
G01*
X162831694Y-136920531D01*
X162990583Y-137005458D01*
X163129849Y-137119751D01*
X163244142Y-137259017D01*
X163329069Y-137417905D01*
X163381367Y-137590306D01*
X163394600Y-137724669D01*
X163394600Y-139135331D01*
X163381367Y-139269694D01*
X163329069Y-139442095D01*
X163244142Y-139600983D01*
X163129849Y-139740249D01*
X162990583Y-139854542D01*
X162831695Y-139939469D01*
X162659294Y-139991767D01*
X162480000Y-140009425D01*
X162300707Y-139991767D01*
X162128306Y-139939469D01*
X161969418Y-139854542D01*
X161830152Y-139740249D01*
X161715859Y-139600983D01*
X161630932Y-139442095D01*
X161578634Y-139269694D01*
X161565401Y-139135331D01*
X161565400Y-137724670D01*
X161578633Y-137590307D01*
X161630931Y-137417906D01*
X161715858Y-137259017D01*
X161830151Y-137119751D01*
X161969417Y-137005458D01*
X162128305Y-136920531D01*
X162300706Y-136868233D01*
X162480000Y-136850575D01*
X162659293Y-136868233D01*
G37*
G36*
X175359293Y-136868233D02*
G01*
X175531694Y-136920531D01*
X175690583Y-137005458D01*
X175829849Y-137119751D01*
X175944142Y-137259017D01*
X176029069Y-137417905D01*
X176081367Y-137590306D01*
X176094600Y-137724669D01*
X176094600Y-139135331D01*
X176081367Y-139269694D01*
X176029069Y-139442095D01*
X175944142Y-139600983D01*
X175829849Y-139740249D01*
X175690583Y-139854542D01*
X175531695Y-139939469D01*
X175359294Y-139991767D01*
X175180000Y-140009425D01*
X175000707Y-139991767D01*
X174828306Y-139939469D01*
X174669418Y-139854542D01*
X174530152Y-139740249D01*
X174415859Y-139600983D01*
X174330932Y-139442095D01*
X174278634Y-139269694D01*
X174265401Y-139135331D01*
X174265400Y-137724670D01*
X174278633Y-137590307D01*
X174330931Y-137417906D01*
X174415858Y-137259017D01*
X174530151Y-137119751D01*
X174669417Y-137005458D01*
X174828305Y-136920531D01*
X175000706Y-136868233D01*
X175180000Y-136850575D01*
X175359293Y-136868233D01*
G37*
G36*
X188647293Y-136868233D02*
G01*
X188819694Y-136920531D01*
X188978583Y-137005458D01*
X189117849Y-137119751D01*
X189232142Y-137259017D01*
X189317069Y-137417905D01*
X189369367Y-137590306D01*
X189382600Y-137724669D01*
X189382600Y-139135331D01*
X189369367Y-139269694D01*
X189317069Y-139442095D01*
X189232142Y-139600983D01*
X189117849Y-139740249D01*
X188978583Y-139854542D01*
X188819695Y-139939469D01*
X188647294Y-139991767D01*
X188468000Y-140009425D01*
X188288707Y-139991767D01*
X188116306Y-139939469D01*
X187957418Y-139854542D01*
X187818152Y-139740249D01*
X187703859Y-139600983D01*
X187618932Y-139442095D01*
X187566634Y-139269694D01*
X187553401Y-139135331D01*
X187553400Y-137724670D01*
X187566633Y-137590307D01*
X187618931Y-137417906D01*
X187703858Y-137259017D01*
X187818151Y-137119751D01*
X187957417Y-137005458D01*
X188116305Y-136920531D01*
X188288706Y-136868233D01*
X188468000Y-136850575D01*
X188647293Y-136868233D01*
G37*
G36*
X193647293Y-136868233D02*
G01*
X193819694Y-136920531D01*
X193978583Y-137005458D01*
X194117849Y-137119751D01*
X194232142Y-137259017D01*
X194317069Y-137417905D01*
X194369367Y-137590306D01*
X194382600Y-137724669D01*
X194382600Y-139135331D01*
X194369367Y-139269694D01*
X194317069Y-139442095D01*
X194232142Y-139600983D01*
X194117849Y-139740249D01*
X193978583Y-139854542D01*
X193819695Y-139939469D01*
X193647294Y-139991767D01*
X193468000Y-140009425D01*
X193288707Y-139991767D01*
X193116306Y-139939469D01*
X192957418Y-139854542D01*
X192818152Y-139740249D01*
X192703859Y-139600983D01*
X192618932Y-139442095D01*
X192566634Y-139269694D01*
X192553401Y-139135331D01*
X192553400Y-137724670D01*
X192566633Y-137590307D01*
X192618931Y-137417906D01*
X192703858Y-137259017D01*
X192818151Y-137119751D01*
X192957417Y-137005458D01*
X193116305Y-136920531D01*
X193288706Y-136868233D01*
X193468000Y-136850575D01*
X193647293Y-136868233D01*
G37*
G36*
X201347293Y-136868233D02*
G01*
X201519694Y-136920531D01*
X201678583Y-137005458D01*
X201817849Y-137119751D01*
X201932142Y-137259017D01*
X202017069Y-137417905D01*
X202069367Y-137590306D01*
X202082600Y-137724669D01*
X202082600Y-139135331D01*
X202069367Y-139269694D01*
X202017069Y-139442095D01*
X201932142Y-139600983D01*
X201817849Y-139740249D01*
X201678583Y-139854542D01*
X201519695Y-139939469D01*
X201347294Y-139991767D01*
X201168000Y-140009425D01*
X200988707Y-139991767D01*
X200816306Y-139939469D01*
X200657418Y-139854542D01*
X200518152Y-139740249D01*
X200403859Y-139600983D01*
X200318932Y-139442095D01*
X200266634Y-139269694D01*
X200253401Y-139135331D01*
X200253400Y-137724670D01*
X200266633Y-137590307D01*
X200318931Y-137417906D01*
X200403858Y-137259017D01*
X200518151Y-137119751D01*
X200657417Y-137005458D01*
X200816305Y-136920531D01*
X200988706Y-136868233D01*
X201168000Y-136850575D01*
X201347293Y-136868233D01*
G37*
G36*
X206347293Y-136868233D02*
G01*
X206519694Y-136920531D01*
X206678583Y-137005458D01*
X206817849Y-137119751D01*
X206932142Y-137259017D01*
X207017069Y-137417905D01*
X207069367Y-137590306D01*
X207082600Y-137724669D01*
X207082600Y-139135331D01*
X207069367Y-139269694D01*
X207017069Y-139442095D01*
X206932142Y-139600983D01*
X206817849Y-139740249D01*
X206678583Y-139854542D01*
X206519695Y-139939469D01*
X206347294Y-139991767D01*
X206168000Y-140009425D01*
X205988707Y-139991767D01*
X205816306Y-139939469D01*
X205657418Y-139854542D01*
X205518152Y-139740249D01*
X205403859Y-139600983D01*
X205318932Y-139442095D01*
X205266634Y-139269694D01*
X205253401Y-139135331D01*
X205253400Y-137724670D01*
X205266633Y-137590307D01*
X205318931Y-137417906D01*
X205403858Y-137259017D01*
X205518151Y-137119751D01*
X205657417Y-137005458D01*
X205816305Y-136920531D01*
X205988706Y-136868233D01*
X206168000Y-136850575D01*
X206347293Y-136868233D01*
G37*
G36*
X214047293Y-136868233D02*
G01*
X214219694Y-136920531D01*
X214378583Y-137005458D01*
X214517849Y-137119751D01*
X214632142Y-137259017D01*
X214717069Y-137417905D01*
X214769367Y-137590306D01*
X214782600Y-137724669D01*
X214782600Y-139135331D01*
X214769367Y-139269694D01*
X214717069Y-139442095D01*
X214632142Y-139600983D01*
X214517849Y-139740249D01*
X214378583Y-139854542D01*
X214219695Y-139939469D01*
X214047294Y-139991767D01*
X213868000Y-140009425D01*
X213688707Y-139991767D01*
X213516306Y-139939469D01*
X213357418Y-139854542D01*
X213218152Y-139740249D01*
X213103859Y-139600983D01*
X213018932Y-139442095D01*
X212966634Y-139269694D01*
X212953401Y-139135331D01*
X212953400Y-137724670D01*
X212966633Y-137590307D01*
X213018931Y-137417906D01*
X213103858Y-137259017D01*
X213218151Y-137119751D01*
X213357417Y-137005458D01*
X213516305Y-136920531D01*
X213688706Y-136868233D01*
X213868000Y-136850575D01*
X214047293Y-136868233D01*
G37*
G36*
X219047293Y-136868233D02*
G01*
X219219694Y-136920531D01*
X219378583Y-137005458D01*
X219517849Y-137119751D01*
X219632142Y-137259017D01*
X219717069Y-137417905D01*
X219769367Y-137590306D01*
X219782600Y-137724669D01*
X219782600Y-139135331D01*
X219769367Y-139269694D01*
X219717069Y-139442095D01*
X219632142Y-139600983D01*
X219517849Y-139740249D01*
X219378583Y-139854542D01*
X219219695Y-139939469D01*
X219047294Y-139991767D01*
X218868000Y-140009425D01*
X218688707Y-139991767D01*
X218516306Y-139939469D01*
X218357418Y-139854542D01*
X218218152Y-139740249D01*
X218103859Y-139600983D01*
X218018932Y-139442095D01*
X217966634Y-139269694D01*
X217953401Y-139135331D01*
X217953400Y-137724670D01*
X217966633Y-137590307D01*
X218018931Y-137417906D01*
X218103858Y-137259017D01*
X218218151Y-137119751D01*
X218357417Y-137005458D01*
X218516305Y-136920531D01*
X218688706Y-136868233D01*
X218868000Y-136850575D01*
X219047293Y-136868233D01*
G37*
G36*
X226747293Y-136868233D02*
G01*
X226919694Y-136920531D01*
X227078583Y-137005458D01*
X227217849Y-137119751D01*
X227332142Y-137259017D01*
X227417069Y-137417905D01*
X227469367Y-137590306D01*
X227482600Y-137724669D01*
X227482600Y-139135331D01*
X227469367Y-139269694D01*
X227417069Y-139442095D01*
X227332142Y-139600983D01*
X227217849Y-139740249D01*
X227078583Y-139854542D01*
X226919695Y-139939469D01*
X226747294Y-139991767D01*
X226568000Y-140009425D01*
X226388707Y-139991767D01*
X226216306Y-139939469D01*
X226057418Y-139854542D01*
X225918152Y-139740249D01*
X225803859Y-139600983D01*
X225718932Y-139442095D01*
X225666634Y-139269694D01*
X225653401Y-139135331D01*
X225653400Y-137724670D01*
X225666633Y-137590307D01*
X225718931Y-137417906D01*
X225803858Y-137259017D01*
X225918151Y-137119751D01*
X226057417Y-137005458D01*
X226216305Y-136920531D01*
X226388706Y-136868233D01*
X226568000Y-136850575D01*
X226747293Y-136868233D01*
G37*
G36*
X231747293Y-136868233D02*
G01*
X231919694Y-136920531D01*
X232078583Y-137005458D01*
X232217849Y-137119751D01*
X232332142Y-137259017D01*
X232417069Y-137417905D01*
X232469367Y-137590306D01*
X232482600Y-137724669D01*
X232482600Y-139135331D01*
X232469367Y-139269694D01*
X232417069Y-139442095D01*
X232332142Y-139600983D01*
X232217849Y-139740249D01*
X232078583Y-139854542D01*
X231919695Y-139939469D01*
X231747294Y-139991767D01*
X231568000Y-140009425D01*
X231388707Y-139991767D01*
X231216306Y-139939469D01*
X231057418Y-139854542D01*
X230918152Y-139740249D01*
X230803859Y-139600983D01*
X230718932Y-139442095D01*
X230666634Y-139269694D01*
X230653401Y-139135331D01*
X230653400Y-137724670D01*
X230666633Y-137590307D01*
X230718931Y-137417906D01*
X230803858Y-137259017D01*
X230918151Y-137119751D01*
X231057417Y-137005458D01*
X231216305Y-136920531D01*
X231388706Y-136868233D01*
X231568000Y-136850575D01*
X231747293Y-136868233D01*
G37*
G36*
X144959293Y-136868233D02*
G01*
X145131694Y-136920531D01*
X145290583Y-137005458D01*
X145429849Y-137119751D01*
X145544142Y-137259017D01*
X145629069Y-137417905D01*
X145681367Y-137590306D01*
X145694600Y-137724669D01*
X145694600Y-139135331D01*
X145681367Y-139269694D01*
X145629069Y-139442095D01*
X145544142Y-139600983D01*
X145429849Y-139740249D01*
X145290583Y-139854542D01*
X145131695Y-139939469D01*
X144959294Y-139991767D01*
X144780000Y-140009425D01*
X144600707Y-139991767D01*
X144428306Y-139939469D01*
X144269418Y-139854542D01*
X144130152Y-139740249D01*
X144015859Y-139600983D01*
X143930932Y-139442095D01*
X143878634Y-139269694D01*
X143865401Y-139135331D01*
X143865400Y-137724670D01*
X143878633Y-137590307D01*
X143930931Y-137417906D01*
X144015858Y-137259017D01*
X144130151Y-137119751D01*
X144269417Y-137005458D01*
X144428305Y-136920531D01*
X144600706Y-136868233D01*
X144780000Y-136850575D01*
X144959293Y-136868233D01*
G37*
G36*
X238476549Y-136539116D02*
G01*
X238587734Y-136561232D01*
X238797203Y-136647997D01*
X238985720Y-136773960D01*
X239146040Y-136934280D01*
X239272003Y-137122797D01*
X239358768Y-137332266D01*
X239403000Y-137554636D01*
X239403000Y-137781364D01*
X239358768Y-138003734D01*
X239272003Y-138213203D01*
X239146040Y-138401720D01*
X238985720Y-138562040D01*
X238797203Y-138688003D01*
X238587734Y-138774768D01*
X238476549Y-138796884D01*
X238365365Y-138819000D01*
X238138635Y-138819000D01*
X238027451Y-138796884D01*
X237916266Y-138774768D01*
X237706797Y-138688003D01*
X237518280Y-138562040D01*
X237357960Y-138401720D01*
X237231997Y-138213203D01*
X237145232Y-138003734D01*
X237101000Y-137781364D01*
X237101000Y-137554636D01*
X237145232Y-137332266D01*
X237231997Y-137122797D01*
X237357960Y-136934280D01*
X237518280Y-136773960D01*
X237706797Y-136647997D01*
X237916266Y-136561232D01*
X238027451Y-136539116D01*
X238138635Y-136517000D01*
X238365365Y-136517000D01*
X238476549Y-136539116D01*
G37*
G36*
X138400549Y-134761116D02*
G01*
X138511734Y-134783232D01*
X138721203Y-134869997D01*
X138909720Y-134995960D01*
X139070040Y-135156280D01*
X139196003Y-135344797D01*
X139282768Y-135554266D01*
X139327000Y-135776636D01*
X139327000Y-136003364D01*
X139282768Y-136225734D01*
X139196003Y-136435203D01*
X139070040Y-136623720D01*
X138909720Y-136784040D01*
X138721203Y-136910003D01*
X138511734Y-136996768D01*
X138468046Y-137005458D01*
X138289365Y-137041000D01*
X138062635Y-137041000D01*
X137883954Y-137005458D01*
X137840266Y-136996768D01*
X137630797Y-136910003D01*
X137442280Y-136784040D01*
X137281960Y-136623720D01*
X137155997Y-136435203D01*
X137069232Y-136225734D01*
X137025000Y-136003364D01*
X137025000Y-135776636D01*
X137069232Y-135554266D01*
X137155997Y-135344797D01*
X137281960Y-135156280D01*
X137442280Y-134995960D01*
X137630797Y-134869997D01*
X137840266Y-134783232D01*
X137951451Y-134761116D01*
X138062635Y-134739000D01*
X138289365Y-134739000D01*
X138400549Y-134761116D01*
G37*
G36*
X238137000Y-134481000D02*
G01*
X236335000Y-134481000D01*
X236335000Y-132679000D01*
X238137000Y-132679000D01*
X238137000Y-134481000D01*
G37*
G36*
X239889512Y-132683927D02*
G01*
X240038812Y-132713624D01*
X240202784Y-132781544D01*
X240350354Y-132880147D01*
X240475853Y-133005646D01*
X240574456Y-133153216D01*
X240642376Y-133317188D01*
X240677000Y-133491259D01*
X240677000Y-133668741D01*
X240642376Y-133842812D01*
X240574456Y-134006784D01*
X240475853Y-134154354D01*
X240350354Y-134279853D01*
X240202784Y-134378456D01*
X240038812Y-134446376D01*
X239889512Y-134476073D01*
X239864742Y-134481000D01*
X239687258Y-134481000D01*
X239662488Y-134476073D01*
X239513188Y-134446376D01*
X239349216Y-134378456D01*
X239201646Y-134279853D01*
X239076147Y-134154354D01*
X238977544Y-134006784D01*
X238909624Y-133842812D01*
X238875000Y-133668741D01*
X238875000Y-133491259D01*
X238909624Y-133317188D01*
X238977544Y-133153216D01*
X239076147Y-133005646D01*
X239201646Y-132880147D01*
X239349216Y-132781544D01*
X239513188Y-132713624D01*
X239662488Y-132683927D01*
X239687258Y-132679000D01*
X239864742Y-132679000D01*
X239889512Y-132683927D01*
G37*
G36*
X239889512Y-130143927D02*
G01*
X240038812Y-130173624D01*
X240202784Y-130241544D01*
X240350354Y-130340147D01*
X240475853Y-130465646D01*
X240574456Y-130613216D01*
X240642376Y-130777188D01*
X240677000Y-130951259D01*
X240677000Y-131128741D01*
X240642376Y-131302812D01*
X240574456Y-131466784D01*
X240475853Y-131614354D01*
X240350354Y-131739853D01*
X240202784Y-131838456D01*
X240038812Y-131906376D01*
X239889512Y-131936073D01*
X239864742Y-131941000D01*
X239687258Y-131941000D01*
X239662488Y-131936073D01*
X239513188Y-131906376D01*
X239349216Y-131838456D01*
X239201646Y-131739853D01*
X239076147Y-131614354D01*
X238977544Y-131466784D01*
X238909624Y-131302812D01*
X238875000Y-131128741D01*
X238875000Y-130951259D01*
X238909624Y-130777188D01*
X238977544Y-130613216D01*
X239076147Y-130465646D01*
X239201646Y-130340147D01*
X239349216Y-130241544D01*
X239513188Y-130173624D01*
X239662488Y-130143927D01*
X239687258Y-130139000D01*
X239864742Y-130139000D01*
X239889512Y-130143927D01*
G37*
G36*
X237349512Y-130143927D02*
G01*
X237498812Y-130173624D01*
X237662784Y-130241544D01*
X237810354Y-130340147D01*
X237935853Y-130465646D01*
X238034456Y-130613216D01*
X238102376Y-130777188D01*
X238137000Y-130951259D01*
X238137000Y-131128741D01*
X238102376Y-131302812D01*
X238034456Y-131466784D01*
X237935853Y-131614354D01*
X237810354Y-131739853D01*
X237662784Y-131838456D01*
X237498812Y-131906376D01*
X237349512Y-131936073D01*
X237324742Y-131941000D01*
X237147258Y-131941000D01*
X237122488Y-131936073D01*
X236973188Y-131906376D01*
X236809216Y-131838456D01*
X236661646Y-131739853D01*
X236536147Y-131614354D01*
X236437544Y-131466784D01*
X236369624Y-131302812D01*
X236335000Y-131128741D01*
X236335000Y-130951259D01*
X236369624Y-130777188D01*
X236437544Y-130613216D01*
X236536147Y-130465646D01*
X236661646Y-130340147D01*
X236809216Y-130241544D01*
X236973188Y-130173624D01*
X237122488Y-130143927D01*
X237147258Y-130139000D01*
X237324742Y-130139000D01*
X237349512Y-130143927D01*
G37*
G36*
X139178512Y-130133927D02*
G01*
X139327812Y-130163624D01*
X139491784Y-130231544D01*
X139639354Y-130330147D01*
X139764853Y-130455646D01*
X139863456Y-130603216D01*
X139931376Y-130767188D01*
X139966000Y-130941259D01*
X139966000Y-131118741D01*
X139931376Y-131292812D01*
X139863456Y-131456784D01*
X139764853Y-131604354D01*
X139639354Y-131729853D01*
X139491784Y-131828456D01*
X139327812Y-131896376D01*
X139178512Y-131926073D01*
X139153742Y-131931000D01*
X138976258Y-131931000D01*
X138951488Y-131926073D01*
X138802188Y-131896376D01*
X138638216Y-131828456D01*
X138490646Y-131729853D01*
X138365147Y-131604354D01*
X138266544Y-131456784D01*
X138198624Y-131292812D01*
X138164000Y-131118741D01*
X138164000Y-130941259D01*
X138198624Y-130767188D01*
X138266544Y-130603216D01*
X138365147Y-130455646D01*
X138490646Y-130330147D01*
X138638216Y-130231544D01*
X138802188Y-130163624D01*
X138951488Y-130133927D01*
X138976258Y-130129000D01*
X139153742Y-130129000D01*
X139178512Y-130133927D01*
G37*
G36*
X137426000Y-131931000D02*
G01*
X135624000Y-131931000D01*
X135624000Y-130129000D01*
X137426000Y-130129000D01*
X137426000Y-131931000D01*
G37*
G36*
X239889512Y-127603927D02*
G01*
X240038812Y-127633624D01*
X240202784Y-127701544D01*
X240350354Y-127800147D01*
X240475853Y-127925646D01*
X240574456Y-128073216D01*
X240642376Y-128237188D01*
X240677000Y-128411259D01*
X240677000Y-128588741D01*
X240642376Y-128762812D01*
X240574456Y-128926784D01*
X240475853Y-129074354D01*
X240350354Y-129199853D01*
X240202784Y-129298456D01*
X240038812Y-129366376D01*
X239889512Y-129396073D01*
X239864742Y-129401000D01*
X239687258Y-129401000D01*
X239662488Y-129396073D01*
X239513188Y-129366376D01*
X239349216Y-129298456D01*
X239201646Y-129199853D01*
X239076147Y-129074354D01*
X238977544Y-128926784D01*
X238909624Y-128762812D01*
X238875000Y-128588741D01*
X238875000Y-128411259D01*
X238909624Y-128237188D01*
X238977544Y-128073216D01*
X239076147Y-127925646D01*
X239201646Y-127800147D01*
X239349216Y-127701544D01*
X239513188Y-127633624D01*
X239662488Y-127603927D01*
X239687258Y-127599000D01*
X239864742Y-127599000D01*
X239889512Y-127603927D01*
G37*
G36*
X237349512Y-127603927D02*
G01*
X237498812Y-127633624D01*
X237662784Y-127701544D01*
X237810354Y-127800147D01*
X237935853Y-127925646D01*
X238034456Y-128073216D01*
X238102376Y-128237188D01*
X238137000Y-128411259D01*
X238137000Y-128588741D01*
X238102376Y-128762812D01*
X238034456Y-128926784D01*
X237935853Y-129074354D01*
X237810354Y-129199853D01*
X237662784Y-129298456D01*
X237498812Y-129366376D01*
X237349512Y-129396073D01*
X237324742Y-129401000D01*
X237147258Y-129401000D01*
X237122488Y-129396073D01*
X236973188Y-129366376D01*
X236809216Y-129298456D01*
X236661646Y-129199853D01*
X236536147Y-129074354D01*
X236437544Y-128926784D01*
X236369624Y-128762812D01*
X236335000Y-128588741D01*
X236335000Y-128411259D01*
X236369624Y-128237188D01*
X236437544Y-128073216D01*
X236536147Y-127925646D01*
X236661646Y-127800147D01*
X236809216Y-127701544D01*
X236973188Y-127633624D01*
X237122488Y-127603927D01*
X237147258Y-127599000D01*
X237324742Y-127599000D01*
X237349512Y-127603927D01*
G37*
G36*
X136638512Y-127593927D02*
G01*
X136787812Y-127623624D01*
X136951784Y-127691544D01*
X137099354Y-127790147D01*
X137224853Y-127915646D01*
X137323456Y-128063216D01*
X137391376Y-128227188D01*
X137426000Y-128401259D01*
X137426000Y-128578741D01*
X137391376Y-128752812D01*
X137323456Y-128916784D01*
X137224853Y-129064354D01*
X137099354Y-129189853D01*
X136951784Y-129288456D01*
X136787812Y-129356376D01*
X136638512Y-129386073D01*
X136613742Y-129391000D01*
X136436258Y-129391000D01*
X136411488Y-129386073D01*
X136262188Y-129356376D01*
X136098216Y-129288456D01*
X135950646Y-129189853D01*
X135825147Y-129064354D01*
X135726544Y-128916784D01*
X135658624Y-128752812D01*
X135624000Y-128578741D01*
X135624000Y-128401259D01*
X135658624Y-128227188D01*
X135726544Y-128063216D01*
X135825147Y-127915646D01*
X135950646Y-127790147D01*
X136098216Y-127691544D01*
X136262188Y-127623624D01*
X136411488Y-127593927D01*
X136436258Y-127589000D01*
X136613742Y-127589000D01*
X136638512Y-127593927D01*
G37*
G36*
X139178512Y-127593927D02*
G01*
X139327812Y-127623624D01*
X139491784Y-127691544D01*
X139639354Y-127790147D01*
X139764853Y-127915646D01*
X139863456Y-128063216D01*
X139931376Y-128227188D01*
X139966000Y-128401259D01*
X139966000Y-128578741D01*
X139931376Y-128752812D01*
X139863456Y-128916784D01*
X139764853Y-129064354D01*
X139639354Y-129189853D01*
X139491784Y-129288456D01*
X139327812Y-129356376D01*
X139178512Y-129386073D01*
X139153742Y-129391000D01*
X138976258Y-129391000D01*
X138951488Y-129386073D01*
X138802188Y-129356376D01*
X138638216Y-129288456D01*
X138490646Y-129189853D01*
X138365147Y-129064354D01*
X138266544Y-128916784D01*
X138198624Y-128752812D01*
X138164000Y-128578741D01*
X138164000Y-128401259D01*
X138198624Y-128227188D01*
X138266544Y-128063216D01*
X138365147Y-127915646D01*
X138490646Y-127790147D01*
X138638216Y-127691544D01*
X138802188Y-127623624D01*
X138951488Y-127593927D01*
X138976258Y-127589000D01*
X139153742Y-127589000D01*
X139178512Y-127593927D01*
G37*
G36*
X182088549Y-125871116D02*
G01*
X182199734Y-125893232D01*
X182409203Y-125979997D01*
X182597720Y-126105960D01*
X182758040Y-126266280D01*
X182884003Y-126454797D01*
X182968940Y-126659852D01*
X182970768Y-126664267D01*
X183001025Y-126816376D01*
X183015000Y-126886636D01*
X183015000Y-127113364D01*
X182970768Y-127335734D01*
X182884003Y-127545203D01*
X182758040Y-127733720D01*
X182597720Y-127894040D01*
X182409203Y-128020003D01*
X182199734Y-128106768D01*
X182088549Y-128128884D01*
X181977365Y-128151000D01*
X181750635Y-128151000D01*
X181639451Y-128128884D01*
X181528266Y-128106768D01*
X181318797Y-128020003D01*
X181130280Y-127894040D01*
X180969960Y-127733720D01*
X180843997Y-127545203D01*
X180757232Y-127335734D01*
X180713000Y-127113364D01*
X180713000Y-126886636D01*
X180726976Y-126816376D01*
X180757232Y-126664267D01*
X180759061Y-126659852D01*
X180843997Y-126454797D01*
X180969960Y-126266280D01*
X181130280Y-126105960D01*
X181318797Y-125979997D01*
X181528266Y-125893232D01*
X181639451Y-125871116D01*
X181750635Y-125849000D01*
X181977365Y-125849000D01*
X182088549Y-125871116D01*
G37*
G36*
X157659293Y-124368233D02*
G01*
X157831694Y-124420531D01*
X157990583Y-124505458D01*
X158129849Y-124619751D01*
X158244142Y-124759017D01*
X158329069Y-124917905D01*
X158381367Y-125090306D01*
X158394600Y-125224669D01*
X158394600Y-126635331D01*
X158381367Y-126769694D01*
X158329069Y-126942095D01*
X158244142Y-127100983D01*
X158129849Y-127240249D01*
X157990583Y-127354542D01*
X157831695Y-127439469D01*
X157659294Y-127491767D01*
X157480000Y-127509425D01*
X157300707Y-127491767D01*
X157128306Y-127439469D01*
X156969418Y-127354542D01*
X156830152Y-127240249D01*
X156715859Y-127100983D01*
X156630932Y-126942095D01*
X156578634Y-126769694D01*
X156565401Y-126635331D01*
X156565400Y-125224670D01*
X156578633Y-125090307D01*
X156630931Y-124917906D01*
X156715858Y-124759017D01*
X156830151Y-124619751D01*
X156969417Y-124505458D01*
X157128305Y-124420531D01*
X157300706Y-124368233D01*
X157480000Y-124350575D01*
X157659293Y-124368233D01*
G37*
G36*
X214047293Y-124368233D02*
G01*
X214219694Y-124420531D01*
X214378583Y-124505458D01*
X214517849Y-124619751D01*
X214632142Y-124759017D01*
X214717069Y-124917905D01*
X214769367Y-125090306D01*
X214782600Y-125224669D01*
X214782600Y-126635331D01*
X214769367Y-126769694D01*
X214717069Y-126942095D01*
X214632142Y-127100983D01*
X214517849Y-127240249D01*
X214378583Y-127354542D01*
X214219695Y-127439469D01*
X214047294Y-127491767D01*
X213868000Y-127509425D01*
X213688707Y-127491767D01*
X213516306Y-127439469D01*
X213357418Y-127354542D01*
X213218152Y-127240249D01*
X213103859Y-127100983D01*
X213018932Y-126942095D01*
X212966634Y-126769694D01*
X212953401Y-126635331D01*
X212953400Y-125224670D01*
X212966633Y-125090307D01*
X213018931Y-124917906D01*
X213103858Y-124759017D01*
X213218151Y-124619751D01*
X213357417Y-124505458D01*
X213516305Y-124420531D01*
X213688706Y-124368233D01*
X213868000Y-124350575D01*
X214047293Y-124368233D01*
G37*
G36*
X219047293Y-124368233D02*
G01*
X219219694Y-124420531D01*
X219378583Y-124505458D01*
X219517849Y-124619751D01*
X219632142Y-124759017D01*
X219717069Y-124917905D01*
X219769367Y-125090306D01*
X219782600Y-125224669D01*
X219782600Y-126635331D01*
X219769367Y-126769694D01*
X219717069Y-126942095D01*
X219632142Y-127100983D01*
X219517849Y-127240249D01*
X219378583Y-127354542D01*
X219219695Y-127439469D01*
X219047294Y-127491767D01*
X218868000Y-127509425D01*
X218688707Y-127491767D01*
X218516306Y-127439469D01*
X218357418Y-127354542D01*
X218218152Y-127240249D01*
X218103859Y-127100983D01*
X218018932Y-126942095D01*
X217966634Y-126769694D01*
X217953401Y-126635331D01*
X217953400Y-125224670D01*
X217966633Y-125090307D01*
X218018931Y-124917906D01*
X218103858Y-124759017D01*
X218218151Y-124619751D01*
X218357417Y-124505458D01*
X218516305Y-124420531D01*
X218688706Y-124368233D01*
X218868000Y-124350575D01*
X219047293Y-124368233D01*
G37*
G36*
X226747293Y-124368233D02*
G01*
X226919694Y-124420531D01*
X227078583Y-124505458D01*
X227217849Y-124619751D01*
X227332142Y-124759017D01*
X227417069Y-124917905D01*
X227469367Y-125090306D01*
X227482600Y-125224669D01*
X227482600Y-126635331D01*
X227469367Y-126769694D01*
X227417069Y-126942095D01*
X227332142Y-127100983D01*
X227217849Y-127240249D01*
X227078583Y-127354542D01*
X226919695Y-127439469D01*
X226747294Y-127491767D01*
X226568000Y-127509425D01*
X226388707Y-127491767D01*
X226216306Y-127439469D01*
X226057418Y-127354542D01*
X225918152Y-127240249D01*
X225803859Y-127100983D01*
X225718932Y-126942095D01*
X225666634Y-126769694D01*
X225653401Y-126635331D01*
X225653400Y-125224670D01*
X225666633Y-125090307D01*
X225718931Y-124917906D01*
X225803858Y-124759017D01*
X225918151Y-124619751D01*
X226057417Y-124505458D01*
X226216305Y-124420531D01*
X226388706Y-124368233D01*
X226568000Y-124350575D01*
X226747293Y-124368233D01*
G37*
G36*
X231747293Y-124368233D02*
G01*
X231919694Y-124420531D01*
X232078583Y-124505458D01*
X232217849Y-124619751D01*
X232332142Y-124759017D01*
X232417069Y-124917905D01*
X232469367Y-125090306D01*
X232482600Y-125224669D01*
X232482600Y-126635331D01*
X232469367Y-126769694D01*
X232417069Y-126942095D01*
X232332142Y-127100983D01*
X232217849Y-127240249D01*
X232078583Y-127354542D01*
X231919695Y-127439469D01*
X231747294Y-127491767D01*
X231568000Y-127509425D01*
X231388707Y-127491767D01*
X231216306Y-127439469D01*
X231057418Y-127354542D01*
X230918152Y-127240249D01*
X230803859Y-127100983D01*
X230718932Y-126942095D01*
X230666634Y-126769694D01*
X230653401Y-126635331D01*
X230653400Y-125224670D01*
X230666633Y-125090307D01*
X230718931Y-124917906D01*
X230803858Y-124759017D01*
X230918151Y-124619751D01*
X231057417Y-124505458D01*
X231216305Y-124420531D01*
X231388706Y-124368233D01*
X231568000Y-124350575D01*
X231747293Y-124368233D01*
G37*
G36*
X144959293Y-124368233D02*
G01*
X145131694Y-124420531D01*
X145290583Y-124505458D01*
X145429849Y-124619751D01*
X145544142Y-124759017D01*
X145629069Y-124917905D01*
X145681367Y-125090306D01*
X145694600Y-125224669D01*
X145694600Y-126635331D01*
X145681367Y-126769694D01*
X145629069Y-126942095D01*
X145544142Y-127100983D01*
X145429849Y-127240249D01*
X145290583Y-127354542D01*
X145131695Y-127439469D01*
X144959294Y-127491767D01*
X144780000Y-127509425D01*
X144600707Y-127491767D01*
X144428306Y-127439469D01*
X144269418Y-127354542D01*
X144130152Y-127240249D01*
X144015859Y-127100983D01*
X143930932Y-126942095D01*
X143878634Y-126769694D01*
X143865401Y-126635331D01*
X143865400Y-125224670D01*
X143878633Y-125090307D01*
X143930931Y-124917906D01*
X144015858Y-124759017D01*
X144130151Y-124619751D01*
X144269417Y-124505458D01*
X144428305Y-124420531D01*
X144600706Y-124368233D01*
X144780000Y-124350575D01*
X144959293Y-124368233D01*
G37*
G36*
X149959293Y-124368233D02*
G01*
X150131694Y-124420531D01*
X150290583Y-124505458D01*
X150429849Y-124619751D01*
X150544142Y-124759017D01*
X150629069Y-124917905D01*
X150681367Y-125090306D01*
X150694600Y-125224669D01*
X150694600Y-126635331D01*
X150681367Y-126769694D01*
X150629069Y-126942095D01*
X150544142Y-127100983D01*
X150429849Y-127240249D01*
X150290583Y-127354542D01*
X150131695Y-127439469D01*
X149959294Y-127491767D01*
X149780000Y-127509425D01*
X149600707Y-127491767D01*
X149428306Y-127439469D01*
X149269418Y-127354542D01*
X149130152Y-127240249D01*
X149015859Y-127100983D01*
X148930932Y-126942095D01*
X148878634Y-126769694D01*
X148865401Y-126635331D01*
X148865400Y-125224670D01*
X148878633Y-125090307D01*
X148930931Y-124917906D01*
X149015858Y-124759017D01*
X149130151Y-124619751D01*
X149269417Y-124505458D01*
X149428305Y-124420531D01*
X149600706Y-124368233D01*
X149780000Y-124350575D01*
X149959293Y-124368233D01*
G37*
G36*
X162659293Y-124368233D02*
G01*
X162831694Y-124420531D01*
X162990583Y-124505458D01*
X163129849Y-124619751D01*
X163244142Y-124759017D01*
X163329069Y-124917905D01*
X163381367Y-125090306D01*
X163394600Y-125224669D01*
X163394600Y-126635331D01*
X163381367Y-126769694D01*
X163329069Y-126942095D01*
X163244142Y-127100983D01*
X163129849Y-127240249D01*
X162990583Y-127354542D01*
X162831695Y-127439469D01*
X162659294Y-127491767D01*
X162480000Y-127509425D01*
X162300707Y-127491767D01*
X162128306Y-127439469D01*
X161969418Y-127354542D01*
X161830152Y-127240249D01*
X161715859Y-127100983D01*
X161630932Y-126942095D01*
X161578634Y-126769694D01*
X161565401Y-126635331D01*
X161565400Y-125224670D01*
X161578633Y-125090307D01*
X161630931Y-124917906D01*
X161715858Y-124759017D01*
X161830151Y-124619751D01*
X161969417Y-124505458D01*
X162128305Y-124420531D01*
X162300706Y-124368233D01*
X162480000Y-124350575D01*
X162659293Y-124368233D01*
G37*
G36*
X193647293Y-124368233D02*
G01*
X193819694Y-124420531D01*
X193978583Y-124505458D01*
X194117849Y-124619751D01*
X194232142Y-124759017D01*
X194317069Y-124917905D01*
X194369367Y-125090306D01*
X194382600Y-125224669D01*
X194382600Y-126635331D01*
X194369367Y-126769694D01*
X194317069Y-126942095D01*
X194232142Y-127100983D01*
X194117849Y-127240249D01*
X193978583Y-127354542D01*
X193819695Y-127439469D01*
X193647294Y-127491767D01*
X193468000Y-127509425D01*
X193288707Y-127491767D01*
X193116306Y-127439469D01*
X192957418Y-127354542D01*
X192818152Y-127240249D01*
X192703859Y-127100983D01*
X192618932Y-126942095D01*
X192566634Y-126769694D01*
X192553401Y-126635331D01*
X192553400Y-125224670D01*
X192566633Y-125090307D01*
X192618931Y-124917906D01*
X192703858Y-124759017D01*
X192818151Y-124619751D01*
X192957417Y-124505458D01*
X193116305Y-124420531D01*
X193288706Y-124368233D01*
X193468000Y-124350575D01*
X193647293Y-124368233D01*
G37*
G36*
X175359293Y-124368233D02*
G01*
X175531694Y-124420531D01*
X175690583Y-124505458D01*
X175829849Y-124619751D01*
X175944142Y-124759017D01*
X176029069Y-124917905D01*
X176081367Y-125090306D01*
X176094600Y-125224669D01*
X176094600Y-126635331D01*
X176081367Y-126769694D01*
X176029069Y-126942095D01*
X175944142Y-127100983D01*
X175829849Y-127240249D01*
X175690583Y-127354542D01*
X175531695Y-127439469D01*
X175359294Y-127491767D01*
X175180000Y-127509425D01*
X175000707Y-127491767D01*
X174828306Y-127439469D01*
X174669418Y-127354542D01*
X174530152Y-127240249D01*
X174415859Y-127100983D01*
X174330932Y-126942095D01*
X174278634Y-126769694D01*
X174265401Y-126635331D01*
X174265400Y-125224670D01*
X174278633Y-125090307D01*
X174330931Y-124917906D01*
X174415858Y-124759017D01*
X174530151Y-124619751D01*
X174669417Y-124505458D01*
X174828305Y-124420531D01*
X175000706Y-124368233D01*
X175180000Y-124350575D01*
X175359293Y-124368233D01*
G37*
G36*
X188647293Y-124368233D02*
G01*
X188819694Y-124420531D01*
X188978583Y-124505458D01*
X189117849Y-124619751D01*
X189232142Y-124759017D01*
X189317069Y-124917905D01*
X189369367Y-125090306D01*
X189382600Y-125224669D01*
X189382600Y-126635331D01*
X189369367Y-126769694D01*
X189317069Y-126942095D01*
X189232142Y-127100983D01*
X189117849Y-127240249D01*
X188978583Y-127354542D01*
X188819695Y-127439469D01*
X188647294Y-127491767D01*
X188468000Y-127509425D01*
X188288707Y-127491767D01*
X188116306Y-127439469D01*
X187957418Y-127354542D01*
X187818152Y-127240249D01*
X187703859Y-127100983D01*
X187618932Y-126942095D01*
X187566634Y-126769694D01*
X187553401Y-126635331D01*
X187553400Y-125224670D01*
X187566633Y-125090307D01*
X187618931Y-124917906D01*
X187703858Y-124759017D01*
X187818151Y-124619751D01*
X187957417Y-124505458D01*
X188116305Y-124420531D01*
X188288706Y-124368233D01*
X188468000Y-124350575D01*
X188647293Y-124368233D01*
G37*
G36*
X201347293Y-124368233D02*
G01*
X201519694Y-124420531D01*
X201678583Y-124505458D01*
X201817849Y-124619751D01*
X201932142Y-124759017D01*
X202017069Y-124917905D01*
X202069367Y-125090306D01*
X202082600Y-125224669D01*
X202082600Y-126635331D01*
X202069367Y-126769694D01*
X202017069Y-126942095D01*
X201932142Y-127100983D01*
X201817849Y-127240249D01*
X201678583Y-127354542D01*
X201519695Y-127439469D01*
X201347294Y-127491767D01*
X201168000Y-127509425D01*
X200988707Y-127491767D01*
X200816306Y-127439469D01*
X200657418Y-127354542D01*
X200518152Y-127240249D01*
X200403859Y-127100983D01*
X200318932Y-126942095D01*
X200266634Y-126769694D01*
X200253401Y-126635331D01*
X200253400Y-125224670D01*
X200266633Y-125090307D01*
X200318931Y-124917906D01*
X200403858Y-124759017D01*
X200518151Y-124619751D01*
X200657417Y-124505458D01*
X200816305Y-124420531D01*
X200988706Y-124368233D01*
X201168000Y-124350575D01*
X201347293Y-124368233D01*
G37*
G36*
X206347293Y-124368233D02*
G01*
X206519694Y-124420531D01*
X206678583Y-124505458D01*
X206817849Y-124619751D01*
X206932142Y-124759017D01*
X207017069Y-124917905D01*
X207069367Y-125090306D01*
X207082600Y-125224669D01*
X207082600Y-126635331D01*
X207069367Y-126769694D01*
X207017069Y-126942095D01*
X206932142Y-127100983D01*
X206817849Y-127240249D01*
X206678583Y-127354542D01*
X206519695Y-127439469D01*
X206347294Y-127491767D01*
X206168000Y-127509425D01*
X205988707Y-127491767D01*
X205816306Y-127439469D01*
X205657418Y-127354542D01*
X205518152Y-127240249D01*
X205403859Y-127100983D01*
X205318932Y-126942095D01*
X205266634Y-126769694D01*
X205253401Y-126635331D01*
X205253400Y-125224670D01*
X205266633Y-125090307D01*
X205318931Y-124917906D01*
X205403858Y-124759017D01*
X205518151Y-124619751D01*
X205657417Y-124505458D01*
X205816305Y-124420531D01*
X205988706Y-124368233D01*
X206168000Y-124350575D01*
X206347293Y-124368233D01*
G37*
G36*
X170359293Y-124368233D02*
G01*
X170531694Y-124420531D01*
X170690583Y-124505458D01*
X170829849Y-124619751D01*
X170944142Y-124759017D01*
X171029069Y-124917905D01*
X171081367Y-125090306D01*
X171094600Y-125224669D01*
X171094600Y-126635331D01*
X171081367Y-126769694D01*
X171029069Y-126942095D01*
X170944142Y-127100983D01*
X170829849Y-127240249D01*
X170690583Y-127354542D01*
X170531695Y-127439469D01*
X170359294Y-127491767D01*
X170180000Y-127509425D01*
X170000707Y-127491767D01*
X169828306Y-127439469D01*
X169669418Y-127354542D01*
X169530152Y-127240249D01*
X169415859Y-127100983D01*
X169330932Y-126942095D01*
X169278634Y-126769694D01*
X169265401Y-126635331D01*
X169265400Y-125224670D01*
X169278633Y-125090307D01*
X169330931Y-124917906D01*
X169415858Y-124759017D01*
X169530151Y-124619751D01*
X169669417Y-124505458D01*
X169828305Y-124420531D01*
X170000706Y-124368233D01*
X170180000Y-124350575D01*
X170359293Y-124368233D01*
G37*
G36*
X237349512Y-125063927D02*
G01*
X237498812Y-125093624D01*
X237662784Y-125161544D01*
X237810354Y-125260147D01*
X237935853Y-125385646D01*
X238034456Y-125533216D01*
X238102376Y-125697188D01*
X238137000Y-125871259D01*
X238137000Y-126048741D01*
X238102376Y-126222812D01*
X238034456Y-126386784D01*
X237935853Y-126534354D01*
X237810354Y-126659853D01*
X237662784Y-126758456D01*
X237498812Y-126826376D01*
X237349512Y-126856073D01*
X237324742Y-126861000D01*
X237147258Y-126861000D01*
X237122488Y-126856073D01*
X236973188Y-126826376D01*
X236809216Y-126758456D01*
X236661646Y-126659853D01*
X236536147Y-126534354D01*
X236437544Y-126386784D01*
X236369624Y-126222812D01*
X236335000Y-126048741D01*
X236335000Y-125871259D01*
X236369624Y-125697188D01*
X236437544Y-125533216D01*
X236536147Y-125385646D01*
X236661646Y-125260147D01*
X236809216Y-125161544D01*
X236973188Y-125093624D01*
X237122488Y-125063927D01*
X237147258Y-125059000D01*
X237324742Y-125059000D01*
X237349512Y-125063927D01*
G37*
G36*
X239889512Y-125063927D02*
G01*
X240038812Y-125093624D01*
X240202784Y-125161544D01*
X240350354Y-125260147D01*
X240475853Y-125385646D01*
X240574456Y-125533216D01*
X240642376Y-125697188D01*
X240677000Y-125871259D01*
X240677000Y-126048741D01*
X240642376Y-126222812D01*
X240574456Y-126386784D01*
X240475853Y-126534354D01*
X240350354Y-126659853D01*
X240202784Y-126758456D01*
X240038812Y-126826376D01*
X239889512Y-126856073D01*
X239864742Y-126861000D01*
X239687258Y-126861000D01*
X239662488Y-126856073D01*
X239513188Y-126826376D01*
X239349216Y-126758456D01*
X239201646Y-126659853D01*
X239076147Y-126534354D01*
X238977544Y-126386784D01*
X238909624Y-126222812D01*
X238875000Y-126048741D01*
X238875000Y-125871259D01*
X238909624Y-125697188D01*
X238977544Y-125533216D01*
X239076147Y-125385646D01*
X239201646Y-125260147D01*
X239349216Y-125161544D01*
X239513188Y-125093624D01*
X239662488Y-125063927D01*
X239687258Y-125059000D01*
X239864742Y-125059000D01*
X239889512Y-125063927D01*
G37*
G36*
X139178512Y-125053927D02*
G01*
X139327812Y-125083624D01*
X139491784Y-125151544D01*
X139639354Y-125250147D01*
X139764853Y-125375646D01*
X139863456Y-125523216D01*
X139931376Y-125687188D01*
X139966000Y-125861259D01*
X139966000Y-126038741D01*
X139931376Y-126212812D01*
X139863456Y-126376784D01*
X139764853Y-126524354D01*
X139639354Y-126649853D01*
X139491784Y-126748456D01*
X139327812Y-126816376D01*
X139178512Y-126846073D01*
X139153742Y-126851000D01*
X138976258Y-126851000D01*
X138951488Y-126846073D01*
X138802188Y-126816376D01*
X138638216Y-126748456D01*
X138490646Y-126649853D01*
X138365147Y-126524354D01*
X138266544Y-126376784D01*
X138198624Y-126212812D01*
X138164000Y-126038741D01*
X138164000Y-125861259D01*
X138198624Y-125687188D01*
X138266544Y-125523216D01*
X138365147Y-125375646D01*
X138490646Y-125250147D01*
X138638216Y-125151544D01*
X138802188Y-125083624D01*
X138951488Y-125053927D01*
X138976258Y-125049000D01*
X139153742Y-125049000D01*
X139178512Y-125053927D01*
G37*
G36*
X136638512Y-125053927D02*
G01*
X136787812Y-125083624D01*
X136951784Y-125151544D01*
X137099354Y-125250147D01*
X137224853Y-125375646D01*
X137323456Y-125523216D01*
X137391376Y-125687188D01*
X137426000Y-125861259D01*
X137426000Y-126038741D01*
X137391376Y-126212812D01*
X137323456Y-126376784D01*
X137224853Y-126524354D01*
X137099354Y-126649853D01*
X136951784Y-126748456D01*
X136787812Y-126816376D01*
X136638512Y-126846073D01*
X136613742Y-126851000D01*
X136436258Y-126851000D01*
X136411488Y-126846073D01*
X136262188Y-126816376D01*
X136098216Y-126748456D01*
X135950646Y-126649853D01*
X135825147Y-126524354D01*
X135726544Y-126376784D01*
X135658624Y-126212812D01*
X135624000Y-126038741D01*
X135624000Y-125861259D01*
X135658624Y-125687188D01*
X135726544Y-125523216D01*
X135825147Y-125375646D01*
X135950646Y-125250147D01*
X136098216Y-125151544D01*
X136262188Y-125083624D01*
X136411488Y-125053927D01*
X136436258Y-125049000D01*
X136613742Y-125049000D01*
X136638512Y-125053927D01*
G37*
M02*
