M48
; DRILL file {KiCad (5.1.5)-3} date 2/14/2020 3:54:34 PM
; FORMAT={-:-/ absolute / inch / decimal}
; #@! TF.CreationDate,2020-02-14T15:54:34-06:00
; #@! TF.GenerationSoftware,Kicad,Pcbnew,(5.1.5)-3
; #@! TF.FileFunction,Plated,1,2,PTH
FMAT,2
INCH
T1C0.0157
T2C0.0236
T3C0.0394
%
G90
G05
T1
X5.7Y-5.245
X5.955Y-5.13
X6.2Y-5.26
X6.315Y-5.05
X6.645Y-5.05
T3
X9.34Y-4.9591
X9.34Y-5.0591
X9.34Y-5.1591
X9.34Y-5.2591
X9.44Y-4.9591
X9.44Y-5.0591
X9.44Y-5.1591
X9.44Y-5.2591
X5.375Y-4.9587
X5.375Y-5.0587
X5.375Y-5.1587
X5.475Y-4.9587
X5.475Y-5.0587
X5.475Y-5.1587
T2
G00X8.9082Y-4.9579
M15
G01X8.9318Y-4.9579
M16
G05
G00X8.9082Y-5.45
M15
G01X8.9318Y-5.45
M16
G05
G00X9.105Y-4.9579
M15
G01X9.1287Y-4.9579
M16
G05
G00X9.105Y-5.45
M15
G01X9.1287Y-5.45
M16
G05
G00X8.4082Y-4.9579
M15
G01X8.4318Y-4.9579
M16
G05
G00X8.4082Y-5.45
M15
G01X8.4318Y-5.45
M16
G05
G00X8.605Y-4.9579
M15
G01X8.6287Y-4.9579
M16
G05
G00X8.605Y-5.45
M15
G01X8.6287Y-5.45
M16
G05
G00X7.9082Y-4.9579
M15
G01X7.9318Y-4.9579
M16
G05
G00X7.9082Y-5.45
M15
G01X7.9318Y-5.45
M16
G05
G00X8.105Y-4.9579
M15
G01X8.1287Y-4.9579
M16
G05
G00X8.105Y-5.45
M15
G01X8.1287Y-5.45
M16
G05
G00X7.4082Y-4.9579
M15
G01X7.4318Y-4.9579
M16
G05
G00X7.4082Y-5.45
M15
G01X7.4318Y-5.45
M16
G05
G00X7.605Y-4.9579
M15
G01X7.6287Y-4.9579
M16
G05
G00X7.605Y-5.45
M15
G01X7.6287Y-5.45
M16
G05
G00X6.6882Y-4.9579
M15
G01X6.7118Y-4.9579
M16
G05
G00X6.6882Y-5.45
M15
G01X6.7118Y-5.45
M16
G05
G00X6.885Y-4.9579
M15
G01X6.9087Y-4.9579
M16
G05
G00X6.885Y-5.45
M15
G01X6.9087Y-5.45
M16
G05
G00X6.1882Y-4.9579
M15
G01X6.2118Y-4.9579
M16
G05
G00X6.1882Y-5.45
M15
G01X6.2118Y-5.45
M16
G05
G00X6.385Y-4.9579
M15
G01X6.4087Y-4.9579
M16
G05
G00X6.385Y-5.45
M15
G01X6.4087Y-5.45
M16
G05
G00X5.6882Y-4.9579
M15
G01X5.7118Y-4.9579
M16
G05
G00X5.6882Y-5.45
M15
G01X5.7118Y-5.45
M16
G05
G00X5.885Y-4.9579
M15
G01X5.9087Y-4.9579
M16
G05
G00X5.885Y-5.45
M15
G01X5.9087Y-5.45
M16
G05
T0
M30
