<?xml version="1.0" standalone="no"?>
 <!DOCTYPE svg PUBLIC "-//W3C//DTD SVG 1.1//EN" 
 "http://www.w3.org/Graphics/SVG/1.1/DTD/svg11.dtd"> 
<svg xmlns="http://www.w3.org/2000/svg" version="1.1" 
    width="11.8923cm" height="1.88976cm" viewBox="0 0 46820 7440 ">
<title>SVG Picture created as 7Button-brd.svg date 2020/02/19 07:48:56 </title>
  <desc>Picture generated by PCBNEW </desc>
<g style="fill:#000000; fill-opacity:1;stroke:#000000; stroke-opacity:1;
stroke-linecap:round; stroke-linejoin:round; "
 transform="translate(0 0) scale(1 1)">
</g>
<g style="fill:#000000; fill-opacity:0.0; 
stroke:#000000; stroke-width:-0.000393701; stroke-opacity:1; 
stroke-linecap:round; stroke-linejoin:round;">
</g>
<g style="fill:#848400; fill-opacity:0.0; 
stroke:#848400; stroke-width:-0.000393701; stroke-opacity:1; 
stroke-linecap:round; stroke-linejoin:round;">
</g>
<g style="fill:#848400; fill-opacity:1.0; 
stroke:#848400; stroke-width:0; stroke-opacity:1; 
stroke-linecap:round; stroke-linejoin:round;">
<path style="fill:#848400; fill-opacity:1.0; 
stroke:#848400; stroke-width:0; stroke-opacity:1; 
stroke-linecap:round; stroke-linejoin:round;fill-rule:evenodd;"
d="M 16384,5514.07
16451.9,5534.66
16514.5,5568.09
16569.3,5613.09
16614.3,5667.92
16647.7,5730.47
16668.3,5798.35
16673.5,5851.25
16673.5,6406.63
16668.3,6459.53
16647.7,6527.4
16614.3,6589.95
16569.3,6644.78
16514.5,6689.78
16451.9,6723.22
16384,6743.81
16313.4,6750.76
16242.9,6743.81
16175,6723.22
16112.4,6689.78
16057.6,6644.78
16012.6,6589.95
15979.2,6527.4
15958.6,6459.53
15953.4,6406.63
15953.4,5851.25
15958.6,5798.35
15979.2,5730.47
16012.6,5667.92
16057.6,5613.09
16112.4,5568.09
16175,5534.66
16242.9,5514.07
16313.4,5507.12
Z" /> 
<path style="fill:#848400; fill-opacity:1.0; 
stroke:#848400; stroke-width:0; stroke-opacity:1; 
stroke-linecap:round; stroke-linejoin:round;fill-rule:evenodd;"
d="M 8352.53,5514.07
8420.41,5534.66
8482.96,5568.09
8537.79,5613.09
8582.79,5667.92
8616.23,5730.47
8636.81,5798.35
8642.02,5851.25
8642.02,6406.63
8636.81,6459.53
8616.23,6527.4
8582.79,6589.95
8537.79,6644.78
8482.96,6689.78
8420.41,6723.22
8352.53,6743.81
8281.95,6750.76
8211.36,6743.81
8143.48,6723.22
8080.93,6689.78
8026.1,6644.78
7981.1,6589.95
7947.67,6527.4
7927.08,6459.53
7921.87,6406.63
7921.87,5851.25
7927.08,5798.35
7947.67,5730.47
7981.1,5667.92
8026.1,5613.09
8080.93,5568.09
8143.48,5534.66
8211.36,5514.07
8281.95,5507.12
Z" /> 
<path style="fill:#848400; fill-opacity:1.0; 
stroke:#848400; stroke-width:0; stroke-opacity:1; 
stroke-linecap:round; stroke-linejoin:round;fill-rule:evenodd;"
d="M 11384,5514.07
11451.9,5534.66
11514.5,5568.09
11569.3,5613.09
11614.3,5667.92
11647.7,5730.47
11668.3,5798.35
11673.5,5851.25
11673.5,6406.63
11668.3,6459.53
11647.7,6527.4
11614.3,6589.95
11569.3,6644.78
11514.5,6689.78
11451.9,6723.22
11384,6743.81
11313.4,6750.76
11242.9,6743.81
11175,6723.22
11112.4,6689.78
11057.6,6644.78
11012.6,6589.95
10979.2,6527.4
10958.6,6459.53
10953.4,6406.63
10953.4,5851.25
10958.6,5798.35
10979.2,5730.47
11012.6,5667.92
11057.6,5613.09
11112.4,5568.09
11175,5534.66
11242.9,5514.07
11313.4,5507.12
Z" /> 
<path style="fill:#848400; fill-opacity:1.0; 
stroke:#848400; stroke-width:0; stroke-opacity:1; 
stroke-linecap:round; stroke-linejoin:round;fill-rule:evenodd;"
d="M 13352.5,5514.07
13420.4,5534.66
13483,5568.09
13537.8,5613.09
13582.8,5667.92
13616.2,5730.47
13636.8,5798.35
13642,5851.25
13642,6406.63
13636.8,6459.53
13616.2,6527.4
13582.8,6589.95
13537.8,6644.78
13483,6689.78
13420.4,6723.22
13352.5,6743.81
13281.9,6750.76
13211.4,6743.81
13143.5,6723.22
13080.9,6689.78
13026.1,6644.78
12981.1,6589.95
12947.7,6527.4
12927.1,6459.53
12921.9,6406.63
12921.9,5851.25
12927.1,5798.35
12947.7,5730.47
12981.1,5667.92
13026.1,5613.09
13080.9,5568.09
13143.5,5534.66
13211.4,5514.07
13281.9,5507.12
Z" /> 
<path style="fill:#848400; fill-opacity:1.0; 
stroke:#848400; stroke-width:0; stroke-opacity:1; 
stroke-linecap:round; stroke-linejoin:round;fill-rule:evenodd;"
d="M 18352.5,5514.07
18420.4,5534.66
18483,5568.09
18537.8,5613.09
18582.8,5667.92
18616.2,5730.47
18636.8,5798.35
18642,5851.25
18642,6406.63
18636.8,6459.53
18616.2,6527.4
18582.8,6589.95
18537.8,6644.78
18483,6689.78
18420.4,6723.22
18352.5,6743.81
18281.9,6750.76
18211.4,6743.81
18143.5,6723.22
18080.9,6689.78
18026.1,6644.78
17981.1,6589.95
17947.7,6527.4
17927.1,6459.53
17921.9,6406.63
17921.9,5851.25
17927.1,5798.35
17947.7,5730.47
17981.1,5667.92
18026.1,5613.09
18080.9,5568.09
18143.5,5534.66
18211.4,5514.07
18281.9,5507.12
Z" /> 
<path style="fill:#848400; fill-opacity:1.0; 
stroke:#848400; stroke-width:0; stroke-opacity:1; 
stroke-linecap:round; stroke-linejoin:round;fill-rule:evenodd;"
d="M 23584,5514.07
23651.9,5534.66
23714.5,5568.09
23769.3,5613.09
23814.3,5667.92
23847.7,5730.47
23868.3,5798.35
23873.5,5851.25
23873.5,6406.63
23868.3,6459.53
23847.7,6527.4
23814.3,6589.95
23769.3,6644.78
23714.5,6689.78
23651.9,6723.22
23584,6743.81
23513.4,6750.76
23442.9,6743.81
23375,6723.22
23312.4,6689.78
23257.6,6644.78
23212.6,6589.95
23179.2,6527.4
23158.6,6459.53
23153.4,6406.63
23153.4,5851.25
23158.6,5798.35
23179.2,5730.47
23212.6,5667.92
23257.6,5613.09
23312.4,5568.09
23375,5534.66
23442.9,5514.07
23513.4,5507.12
Z" /> 
<path style="fill:#848400; fill-opacity:1.0; 
stroke:#848400; stroke-width:0; stroke-opacity:1; 
stroke-linecap:round; stroke-linejoin:round;fill-rule:evenodd;"
d="M 25552.5,5514.07
25620.4,5534.66
25683,5568.09
25737.8,5613.09
25782.8,5667.92
25816.2,5730.47
25836.8,5798.35
25842,5851.25
25842,6406.63
25836.8,6459.53
25816.2,6527.4
25782.8,6589.95
25737.8,6644.78
25683,6689.78
25620.4,6723.22
25552.5,6743.81
25481.9,6750.76
25411.4,6743.81
25343.5,6723.22
25280.9,6689.78
25226.1,6644.78
25181.1,6589.95
25147.7,6527.4
25127.1,6459.53
25121.9,6406.63
25121.9,5851.25
25127.1,5798.35
25147.7,5730.47
25181.1,5667.92
25226.1,5613.09
25280.9,5568.09
25343.5,5534.66
25411.4,5514.07
25481.9,5507.12
Z" /> 
<path style="fill:#848400; fill-opacity:1.0; 
stroke:#848400; stroke-width:0; stroke-opacity:1; 
stroke-linecap:round; stroke-linejoin:round;fill-rule:evenodd;"
d="M 28584,5514.07
28651.9,5534.66
28714.5,5568.09
28769.3,5613.09
28814.3,5667.92
28847.7,5730.47
28868.3,5798.35
28873.5,5851.25
28873.5,6406.63
28868.3,6459.53
28847.7,6527.4
28814.3,6589.95
28769.3,6644.78
28714.5,6689.78
28651.9,6723.22
28584,6743.81
28513.4,6750.76
28442.9,6743.81
28375,6723.22
28312.4,6689.78
28257.6,6644.78
28212.6,6589.95
28179.2,6527.4
28158.6,6459.53
28153.4,6406.63
28153.4,5851.25
28158.6,5798.35
28179.2,5730.47
28212.6,5667.92
28257.6,5613.09
28312.4,5568.09
28375,5534.66
28442.9,5514.07
28513.4,5507.12
Z" /> 
<path style="fill:#848400; fill-opacity:1.0; 
stroke:#848400; stroke-width:0; stroke-opacity:1; 
stroke-linecap:round; stroke-linejoin:round;fill-rule:evenodd;"
d="M 30552.5,5514.07
30620.4,5534.66
30683,5568.09
30737.8,5613.09
30782.8,5667.92
30816.2,5730.47
30836.8,5798.35
30842,5851.25
30842,6406.63
30836.8,6459.53
30816.2,6527.4
30782.8,6589.95
30737.8,6644.78
30683,6689.78
30620.4,6723.22
30552.5,6743.81
30481.9,6750.76
30411.4,6743.81
30343.5,6723.22
30280.9,6689.78
30226.1,6644.78
30181.1,6589.95
30147.7,6527.4
30127.1,6459.53
30121.9,6406.63
30121.9,5851.25
30127.1,5798.35
30147.7,5730.47
30181.1,5667.92
30226.1,5613.09
30280.9,5568.09
30343.5,5534.66
30411.4,5514.07
30481.9,5507.12
Z" /> 
<path style="fill:#848400; fill-opacity:1.0; 
stroke:#848400; stroke-width:0; stroke-opacity:1; 
stroke-linecap:round; stroke-linejoin:round;fill-rule:evenodd;"
d="M 33584,5514.07
33651.9,5534.66
33714.5,5568.09
33769.3,5613.09
33814.3,5667.92
33847.7,5730.47
33868.3,5798.35
33873.5,5851.25
33873.5,6406.63
33868.3,6459.53
33847.7,6527.4
33814.3,6589.95
33769.3,6644.78
33714.5,6689.78
33651.9,6723.22
33584,6743.81
33513.4,6750.76
33442.9,6743.81
33375,6723.22
33312.4,6689.78
33257.6,6644.78
33212.6,6589.95
33179.2,6527.4
33158.6,6459.53
33153.4,6406.63
33153.4,5851.25
33158.6,5798.35
33179.2,5730.47
33212.6,5667.92
33257.6,5613.09
33312.4,5568.09
33375,5534.66
33442.9,5514.07
33513.4,5507.12
Z" /> 
<path style="fill:#848400; fill-opacity:1.0; 
stroke:#848400; stroke-width:0; stroke-opacity:1; 
stroke-linecap:round; stroke-linejoin:round;fill-rule:evenodd;"
d="M 35552.5,5514.07
35620.4,5534.66
35683,5568.09
35737.8,5613.09
35782.8,5667.92
35816.2,5730.47
35836.8,5798.35
35842,5851.25
35842,6406.63
35836.8,6459.53
35816.2,6527.4
35782.8,6589.95
35737.8,6644.78
35683,6689.78
35620.4,6723.22
35552.5,6743.81
35481.9,6750.76
35411.4,6743.81
35343.5,6723.22
35280.9,6689.78
35226.1,6644.78
35181.1,6589.95
35147.7,6527.4
35127.1,6459.53
35121.9,6406.63
35121.9,5851.25
35127.1,5798.35
35147.7,5730.47
35181.1,5667.92
35226.1,5613.09
35280.9,5568.09
35343.5,5534.66
35411.4,5514.07
35481.9,5507.12
Z" /> 
<path style="fill:#848400; fill-opacity:1.0; 
stroke:#848400; stroke-width:0; stroke-opacity:1; 
stroke-linecap:round; stroke-linejoin:round;fill-rule:evenodd;"
d="M 38584,5514.07
38651.9,5534.66
38714.5,5568.09
38769.3,5613.09
38814.3,5667.92
38847.7,5730.47
38868.3,5798.35
38873.5,5851.25
38873.5,6406.63
38868.3,6459.53
38847.7,6527.4
38814.3,6589.95
38769.3,6644.78
38714.5,6689.78
38651.9,6723.22
38584,6743.81
38513.4,6750.76
38442.9,6743.81
38375,6723.22
38312.4,6689.78
38257.6,6644.78
38212.6,6589.95
38179.2,6527.4
38158.6,6459.53
38153.4,6406.63
38153.4,5851.25
38158.6,5798.35
38179.2,5730.47
38212.6,5667.92
38257.6,5613.09
38312.4,5568.09
38375,5534.66
38442.9,5514.07
38513.4,5507.12
Z" /> 
<path style="fill:#848400; fill-opacity:1.0; 
stroke:#848400; stroke-width:0; stroke-opacity:1; 
stroke-linecap:round; stroke-linejoin:round;fill-rule:evenodd;"
d="M 40552.5,5514.07
40620.4,5534.66
40683,5568.09
40737.8,5613.09
40782.8,5667.92
40816.2,5730.47
40836.8,5798.35
40842,5851.25
40842,6406.63
40836.8,6459.53
40816.2,6527.4
40782.8,6589.95
40737.8,6644.78
40683,6689.78
40620.4,6723.22
40552.5,6743.81
40481.9,6750.76
40411.4,6743.81
40343.5,6723.22
40280.9,6689.78
40226.1,6644.78
40181.1,6589.95
40147.7,6527.4
40127.1,6459.53
40121.9,6406.63
40121.9,5851.25
40127.1,5798.35
40147.7,5730.47
40181.1,5667.92
40226.1,5613.09
40280.9,5568.09
40343.5,5534.66
40411.4,5514.07
40481.9,5507.12
Z" /> 
<path style="fill:#848400; fill-opacity:1.0; 
stroke:#848400; stroke-width:0; stroke-opacity:1; 
stroke-linecap:round; stroke-linejoin:round;fill-rule:evenodd;"
d="M 6384.03,5514.07
6451.9,5534.66
6514.46,5568.09
6569.29,5613.09
6614.29,5667.92
6647.72,5730.47
6668.31,5798.35
6673.52,5851.25
6673.52,6406.63
6668.31,6459.53
6647.72,6527.4
6614.29,6589.95
6569.29,6644.78
6514.46,6689.78
6451.9,6723.22
6384.03,6743.81
6313.44,6750.76
6242.85,6743.81
6174.98,6723.22
6112.43,6689.78
6057.6,6644.78
6012.6,6589.95
5979.16,6527.4
5958.57,6459.53
5953.36,6406.63
5953.36,5851.25
5958.57,5798.35
5979.16,5730.47
6012.6,5667.92
6057.6,5613.09
6112.43,5568.09
6174.98,5534.66
6242.85,5514.07
6313.44,5507.12
Z" /> 
<path style="fill:#848400; fill-opacity:1.0; 
stroke:#848400; stroke-width:0; stroke-opacity:1; 
stroke-linecap:round; stroke-linejoin:round;fill-rule:evenodd;"
d="M 43201.8,5384.49
43245.6,5393.2
43328.1,5427.36
43402.3,5476.95
43465.4,5540.07
43515,5614.29
43549.2,5696.76
43566.6,5784.31
43566.6,5873.57
43549.2,5961.12
43515,6043.58
43465.4,6117.8
43402.3,6180.92
43328.1,6230.51
43245.6,6264.67
43201.8,6273.38
43158.1,6282.09
43068.8,6282.09
43025,6273.38
42981.3,6264.67
42898.8,6230.51
42824.6,6180.92
42761.5,6117.8
42711.9,6043.58
42677.7,5961.12
42660.3,5873.57
42660.3,5784.31
42677.7,5696.76
42711.9,5614.29
42761.5,5540.07
42824.6,5476.95
42898.8,5427.36
42981.3,5393.2
43025,5384.49
43068.8,5375.79
43158.1,5375.79
Z" /> 
<path style="fill:#848400; fill-opacity:1.0; 
stroke:#848400; stroke-width:0; stroke-opacity:1; 
stroke-linecap:round; stroke-linejoin:round;fill-rule:evenodd;"
d="M 3801.85,4684.49
3845.62,4693.2
3928.09,4727.36
4002.31,4776.95
4065.43,4840.07
4115.02,4914.29
4149.18,4996.76
4166.59,5084.31
4166.59,5173.57
4149.18,5261.12
4115.02,5343.58
4065.43,5417.8
4002.31,5480.92
3928.09,5530.51
3845.62,5564.67
3828.42,5568.09
3758.07,5582.09
3668.81,5582.09
3598.46,5568.09
3581.26,5564.67
3498.8,5530.51
3424.58,5480.92
3361.46,5417.8
3311.87,5343.58
3277.71,5261.12
3260.29,5173.57
3260.29,5084.31
3277.71,4996.76
3311.87,4914.29
3361.46,4840.07
3424.58,4776.95
3498.8,4727.36
3581.26,4693.2
3625.04,4684.49
3668.81,4675.79
3758.07,4675.79
Z" /> 
<path style="fill:#848400; fill-opacity:1.0; 
stroke:#848400; stroke-width:0; stroke-opacity:1; 
stroke-linecap:round; stroke-linejoin:round;fill-rule:evenodd;"
d="M 43068.2,4574.21
42358.7,4574.21
42358.7,3864.76
43068.2,3864.76
Z" /> 
<path style="fill:#848400; fill-opacity:1.0; 
stroke:#848400; stroke-width:0; stroke-opacity:1; 
stroke-linecap:round; stroke-linejoin:round;fill-rule:evenodd;"
d="M 43758.1,3866.7
43816.9,3878.4
43881.5,3905.14
43939.6,3943.96
43989,3993.36
44027.8,4051.46
44054.5,4116.02
44068.2,4184.55
44068.2,4254.43
44054.5,4322.96
44027.8,4387.51
43989,4445.61
43939.6,4495.02
43881.5,4533.84
43816.9,4560.58
43758.1,4572.27
43748.4,4574.21
43678.5,4574.21
43668.8,4572.27
43610,4560.58
43545.4,4533.84
43487.3,4495.02
43437.9,4445.61
43399.1,4387.51
43372.3,4322.96
43358.7,4254.43
43358.7,4184.55
43372.3,4116.02
43399.1,4051.46
43437.9,3993.36
43487.3,3943.96
43545.4,3905.14
43610,3878.4
43668.8,3866.7
43678.5,3864.76
43748.4,3864.76
Z" /> 
<path style="fill:#848400; fill-opacity:1.0; 
stroke:#848400; stroke-width:0; stroke-opacity:1; 
stroke-linecap:round; stroke-linejoin:round;fill-rule:evenodd;"
d="M 43758.1,2866.7
43816.9,2878.4
43881.5,2905.14
43939.6,2943.96
43989,2993.36
44027.8,3051.46
44054.5,3116.02
44068.2,3184.55
44068.2,3254.43
44054.5,3322.96
44027.8,3387.51
43989,3445.61
43939.6,3495.02
43881.5,3533.84
43816.9,3560.58
43758.1,3572.27
43748.4,3574.21
43678.5,3574.21
43668.8,3572.27
43610,3560.58
43545.4,3533.84
43487.3,3495.02
43437.9,3445.61
43399.1,3387.51
43372.3,3322.96
43358.7,3254.43
43358.7,3184.55
43372.3,3116.02
43399.1,3051.46
43437.9,2993.36
43487.3,2943.96
43545.4,2905.14
43610,2878.4
43668.8,2866.7
43678.5,2864.76
43748.4,2864.76
Z" /> 
<path style="fill:#848400; fill-opacity:1.0; 
stroke:#848400; stroke-width:0; stroke-opacity:1; 
stroke-linecap:round; stroke-linejoin:round;fill-rule:evenodd;"
d="M 42758.1,2866.7
42816.9,2878.4
42881.5,2905.14
42939.6,2943.96
42989,2993.36
43027.8,3051.46
43054.5,3116.02
43068.2,3184.55
43068.2,3254.43
43054.5,3322.96
43027.8,3387.51
42989,3445.61
42939.6,3495.02
42881.5,3533.84
42816.9,3560.58
42758.1,3572.27
42748.4,3574.21
42678.5,3574.21
42668.8,3572.27
42610,3560.58
42545.4,3533.84
42487.3,3495.02
42437.9,3445.61
42399.1,3387.51
42372.3,3322.96
42358.7,3254.43
42358.7,3184.55
42372.3,3116.02
42399.1,3051.46
42437.9,2993.36
42487.3,2943.96
42545.4,2905.14
42610,2878.4
42668.8,2866.7
42678.5,2864.76
42748.4,2864.76
Z" /> 
<path style="fill:#848400; fill-opacity:1.0; 
stroke:#848400; stroke-width:0; stroke-opacity:1; 
stroke-linecap:round; stroke-linejoin:round;fill-rule:evenodd;"
d="M 4108.13,2862.77
4166.91,2874.46
4231.47,2901.2
4289.57,2940.02
4338.97,2989.43
4377.79,3047.53
4404.54,3112.08
4418.17,3180.61
4418.17,3250.49
4404.54,3319.02
4377.79,3383.58
4338.97,3441.67
4289.57,3491.08
4231.47,3529.9
4166.91,3556.64
4108.13,3568.34
4098.38,3570.28
4028.5,3570.28
4018.75,3568.34
3959.97,3556.64
3895.42,3529.9
3837.32,3491.08
3787.91,3441.67
3749.09,3383.58
3722.35,3319.02
3708.72,3250.49
3708.72,3180.61
3722.35,3112.08
3749.09,3047.53
3787.91,2989.43
3837.32,2940.02
3895.42,2901.2
3959.97,2874.46
4018.75,2862.77
4028.5,2860.83
4098.38,2860.83
Z" /> 
<path style="fill:#848400; fill-opacity:1.0; 
stroke:#848400; stroke-width:0; stroke-opacity:1; 
stroke-linecap:round; stroke-linejoin:round;fill-rule:evenodd;"
d="M 3418.17,3570.28
2708.72,3570.28
2708.72,2860.83
3418.17,2860.83
Z" /> 
<path style="fill:#848400; fill-opacity:1.0; 
stroke:#848400; stroke-width:0; stroke-opacity:1; 
stroke-linecap:round; stroke-linejoin:round;fill-rule:evenodd;"
d="M 43758.1,1866.7
43816.9,1878.4
43881.5,1905.14
43939.6,1943.96
43989,1993.36
44027.8,2051.46
44054.5,2116.02
44068.2,2184.55
44068.2,2254.43
44054.5,2322.96
44027.8,2387.51
43989,2445.61
43939.6,2495.02
43881.5,2533.84
43816.9,2560.58
43758.1,2572.27
43748.4,2574.21
43678.5,2574.21
43668.8,2572.27
43610,2560.58
43545.4,2533.84
43487.3,2495.02
43437.9,2445.61
43399.1,2387.51
43372.3,2322.96
43358.7,2254.43
43358.7,2184.55
43372.3,2116.02
43399.1,2051.46
43437.9,1993.36
43487.3,1943.96
43545.4,1905.14
43610,1878.4
43668.8,1866.7
43678.5,1864.76
43748.4,1864.76
Z" /> 
<path style="fill:#848400; fill-opacity:1.0; 
stroke:#848400; stroke-width:0; stroke-opacity:1; 
stroke-linecap:round; stroke-linejoin:round;fill-rule:evenodd;"
d="M 42758.1,1866.7
42816.9,1878.4
42881.5,1905.14
42939.6,1943.96
42989,1993.36
43027.8,2051.46
43054.5,2116.02
43068.2,2184.55
43068.2,2254.43
43054.5,2322.96
43027.8,2387.51
42989,2445.61
42939.6,2495.02
42881.5,2533.84
42816.9,2560.58
42758.1,2572.27
42748.4,2574.21
42678.5,2574.21
42668.8,2572.27
42610,2560.58
42545.4,2533.84
42487.3,2495.02
42437.9,2445.61
42399.1,2387.51
42372.3,2322.96
42358.7,2254.43
42358.7,2184.55
42372.3,2116.02
42399.1,2051.46
42437.9,1993.36
42487.3,1943.96
42545.4,1905.14
42610,1878.4
42668.8,1866.7
42678.5,1864.76
42748.4,1864.76
Z" /> 
<path style="fill:#848400; fill-opacity:1.0; 
stroke:#848400; stroke-width:0; stroke-opacity:1; 
stroke-linecap:round; stroke-linejoin:round;fill-rule:evenodd;"
d="M 3108.13,1862.77
3166.91,1874.46
3231.47,1901.2
3289.57,1940.02
3338.97,1989.43
3377.79,2047.53
3404.54,2112.08
3418.17,2180.61
3418.17,2250.49
3404.54,2319.02
3377.79,2383.58
3338.97,2441.67
3289.57,2491.08
3231.47,2529.9
3166.91,2556.64
3108.13,2568.34
3098.38,2570.28
3028.5,2570.28
3018.75,2568.34
2959.97,2556.64
2895.42,2529.9
2837.32,2491.08
2787.91,2441.67
2749.09,2383.58
2722.35,2319.02
2708.72,2250.49
2708.72,2180.61
2722.35,2112.08
2749.09,2047.53
2787.91,1989.43
2837.32,1940.02
2895.42,1901.2
2959.97,1874.46
3018.75,1862.77
3028.5,1860.83
3098.38,1860.83
Z" /> 
<path style="fill:#848400; fill-opacity:1.0; 
stroke:#848400; stroke-width:0; stroke-opacity:1; 
stroke-linecap:round; stroke-linejoin:round;fill-rule:evenodd;"
d="M 4108.13,1862.77
4166.91,1874.46
4231.47,1901.2
4289.57,1940.02
4338.97,1989.43
4377.79,2047.53
4404.54,2112.08
4418.17,2180.61
4418.17,2250.49
4404.54,2319.02
4377.79,2383.58
4338.97,2441.67
4289.57,2491.08
4231.47,2529.9
4166.91,2556.64
4108.13,2568.34
4098.38,2570.28
4028.5,2570.28
4018.75,2568.34
3959.97,2556.64
3895.42,2529.9
3837.32,2491.08
3787.91,2441.67
3749.09,2383.58
3722.35,2319.02
3708.72,2250.49
3708.72,2180.61
3722.35,2112.08
3749.09,2047.53
3787.91,1989.43
3837.32,1940.02
3895.42,1901.2
3959.97,1874.46
4018.75,1862.77
4028.5,1860.83
4098.38,1860.83
Z" /> 
<path style="fill:#848400; fill-opacity:1.0; 
stroke:#848400; stroke-width:0; stroke-opacity:1; 
stroke-linecap:round; stroke-linejoin:round;fill-rule:evenodd;"
d="M 21001.8,1184.49
21045.6,1193.2
21128.1,1227.36
21202.3,1276.95
21265.4,1340.07
21315,1414.29
21348.5,1495.02
21349.2,1496.76
21361.1,1556.64
21366.6,1584.31
21366.6,1673.57
21349.2,1761.12
21315,1843.58
21265.4,1917.8
21202.3,1980.92
21128.1,2030.51
21045.6,2064.67
21001.8,2073.38
20958.1,2082.09
20868.8,2082.09
20825,2073.38
20781.3,2064.67
20698.8,2030.51
20624.6,1980.92
20561.5,1917.8
20511.9,1843.58
20477.7,1761.12
20460.3,1673.57
20460.3,1584.31
20465.8,1556.64
20477.7,1496.76
20478.4,1495.02
20511.9,1414.29
20561.5,1340.07
20624.6,1276.95
20698.8,1227.36
20781.3,1193.2
20825,1184.49
20868.8,1175.79
20958.1,1175.79
Z" /> 
<path style="fill:#848400; fill-opacity:1.0; 
stroke:#848400; stroke-width:0; stroke-opacity:1; 
stroke-linecap:round; stroke-linejoin:round;fill-rule:evenodd;"
d="M 11384,592.808
11451.9,613.398
11514.5,646.834
11569.3,691.831
11614.3,746.66
11647.7,809.215
11668.3,877.089
11673.5,929.988
11673.5,1485.37
11668.3,1538.27
11647.7,1606.14
11614.3,1668.69
11569.3,1723.52
11514.5,1768.52
11451.9,1801.96
11384,1822.55
11313.4,1829.5
11242.9,1822.55
11175,1801.96
11112.4,1768.52
11057.6,1723.52
11012.6,1668.69
10979.2,1606.14
10958.6,1538.27
10953.4,1485.37
10953.4,929.988
10958.6,877.089
10979.2,809.215
11012.6,746.66
11057.6,691.831
11112.4,646.834
11175,613.398
11242.9,592.808
11313.4,585.856
Z" /> 
<path style="fill:#848400; fill-opacity:1.0; 
stroke:#848400; stroke-width:0; stroke-opacity:1; 
stroke-linecap:round; stroke-linejoin:round;fill-rule:evenodd;"
d="M 33584,592.808
33651.9,613.398
33714.5,646.834
33769.3,691.831
33814.3,746.66
33847.7,809.215
33868.3,877.089
33873.5,929.988
33873.5,1485.37
33868.3,1538.27
33847.7,1606.14
33814.3,1668.69
33769.3,1723.52
33714.5,1768.52
33651.9,1801.96
33584,1822.55
33513.4,1829.5
33442.9,1822.55
33375,1801.96
33312.4,1768.52
33257.6,1723.52
33212.6,1668.69
33179.2,1606.14
33158.6,1538.27
33153.4,1485.37
33153.4,929.988
33158.6,877.089
33179.2,809.215
33212.6,746.66
33257.6,691.831
33312.4,646.834
33375,613.398
33442.9,592.808
33513.4,585.856
Z" /> 
<path style="fill:#848400; fill-opacity:1.0; 
stroke:#848400; stroke-width:0; stroke-opacity:1; 
stroke-linecap:round; stroke-linejoin:round;fill-rule:evenodd;"
d="M 35552.5,592.808
35620.4,613.398
35683,646.834
35737.8,691.831
35782.8,746.66
35816.2,809.215
35836.8,877.089
35842,929.988
35842,1485.37
35836.8,1538.27
35816.2,1606.14
35782.8,1668.69
35737.8,1723.52
35683,1768.52
35620.4,1801.96
35552.5,1822.55
35481.9,1829.5
35411.4,1822.55
35343.5,1801.96
35280.9,1768.52
35226.1,1723.52
35181.1,1668.69
35147.7,1606.14
35127.1,1538.27
35121.9,1485.37
35121.9,929.988
35127.1,877.089
35147.7,809.215
35181.1,746.66
35226.1,691.831
35280.9,646.834
35343.5,613.398
35411.4,592.808
35481.9,585.856
Z" /> 
<path style="fill:#848400; fill-opacity:1.0; 
stroke:#848400; stroke-width:0; stroke-opacity:1; 
stroke-linecap:round; stroke-linejoin:round;fill-rule:evenodd;"
d="M 38584,592.808
38651.9,613.398
38714.5,646.834
38769.3,691.831
38814.3,746.66
38847.7,809.215
38868.3,877.089
38873.5,929.988
38873.5,1485.37
38868.3,1538.27
38847.7,1606.14
38814.3,1668.69
38769.3,1723.52
38714.5,1768.52
38651.9,1801.96
38584,1822.55
38513.4,1829.5
38442.9,1822.55
38375,1801.96
38312.4,1768.52
38257.6,1723.52
38212.6,1668.69
38179.2,1606.14
38158.6,1538.27
38153.4,1485.37
38153.4,929.988
38158.6,877.089
38179.2,809.215
38212.6,746.66
38257.6,691.831
38312.4,646.834
38375,613.398
38442.9,592.808
38513.4,585.856
Z" /> 
<path style="fill:#848400; fill-opacity:1.0; 
stroke:#848400; stroke-width:0; stroke-opacity:1; 
stroke-linecap:round; stroke-linejoin:round;fill-rule:evenodd;"
d="M 40552.5,592.808
40620.4,613.398
40683,646.834
40737.8,691.831
40782.8,746.66
40816.2,809.215
40836.8,877.089
40842,929.988
40842,1485.37
40836.8,1538.27
40816.2,1606.14
40782.8,1668.69
40737.8,1723.52
40683,1768.52
40620.4,1801.96
40552.5,1822.55
40481.9,1829.5
40411.4,1822.55
40343.5,1801.96
40280.9,1768.52
40226.1,1723.52
40181.1,1668.69
40147.7,1606.14
40127.1,1538.27
40121.9,1485.37
40121.9,929.988
40127.1,877.089
40147.7,809.215
40181.1,746.66
40226.1,691.831
40280.9,646.834
40343.5,613.398
40411.4,592.808
40481.9,585.856
Z" /> 
<path style="fill:#848400; fill-opacity:1.0; 
stroke:#848400; stroke-width:0; stroke-opacity:1; 
stroke-linecap:round; stroke-linejoin:round;fill-rule:evenodd;"
d="M 6384.03,592.808
6451.9,613.398
6514.46,646.834
6569.29,691.831
6614.29,746.66
6647.72,809.215
6668.31,877.089
6673.52,929.988
6673.52,1485.37
6668.31,1538.27
6647.72,1606.14
6614.29,1668.69
6569.29,1723.52
6514.46,1768.52
6451.9,1801.96
6384.03,1822.55
6313.44,1829.5
6242.85,1822.55
6174.98,1801.96
6112.43,1768.52
6057.6,1723.52
6012.6,1668.69
5979.16,1606.14
5958.57,1538.27
5953.36,1485.37
5953.36,929.988
5958.57,877.089
5979.16,809.215
6012.6,746.66
6057.6,691.831
6112.43,646.834
6174.98,613.398
6242.85,592.808
6313.44,585.856
Z" /> 
<path style="fill:#848400; fill-opacity:1.0; 
stroke:#848400; stroke-width:0; stroke-opacity:1; 
stroke-linecap:round; stroke-linejoin:round;fill-rule:evenodd;"
d="M 8352.53,592.808
8420.41,613.398
8482.96,646.834
8537.79,691.831
8582.79,746.66
8616.23,809.215
8636.81,877.089
8642.02,929.988
8642.02,1485.37
8636.81,1538.27
8616.23,1606.14
8582.79,1668.69
8537.79,1723.52
8482.96,1768.52
8420.41,1801.96
8352.53,1822.55
8281.95,1829.5
8211.36,1822.55
8143.48,1801.96
8080.93,1768.52
8026.1,1723.52
7981.1,1668.69
7947.67,1606.14
7927.08,1538.27
7921.87,1485.37
7921.87,929.988
7927.08,877.089
7947.67,809.215
7981.1,746.66
8026.1,691.831
8080.93,646.834
8143.48,613.398
8211.36,592.808
8281.95,585.856
Z" /> 
<path style="fill:#848400; fill-opacity:1.0; 
stroke:#848400; stroke-width:0; stroke-opacity:1; 
stroke-linecap:round; stroke-linejoin:round;fill-rule:evenodd;"
d="M 13352.5,592.808
13420.4,613.398
13483,646.834
13537.8,691.831
13582.8,746.66
13616.2,809.215
13636.8,877.089
13642,929.988
13642,1485.37
13636.8,1538.27
13616.2,1606.14
13582.8,1668.69
13537.8,1723.52
13483,1768.52
13420.4,1801.96
13352.5,1822.55
13281.9,1829.5
13211.4,1822.55
13143.5,1801.96
13080.9,1768.52
13026.1,1723.52
12981.1,1668.69
12947.7,1606.14
12927.1,1538.27
12921.9,1485.37
12921.9,929.988
12927.1,877.089
12947.7,809.215
12981.1,746.66
13026.1,691.831
13080.9,646.834
13143.5,613.398
13211.4,592.808
13281.9,585.856
Z" /> 
<path style="fill:#848400; fill-opacity:1.0; 
stroke:#848400; stroke-width:0; stroke-opacity:1; 
stroke-linecap:round; stroke-linejoin:round;fill-rule:evenodd;"
d="M 25552.5,592.808
25620.4,613.398
25683,646.834
25737.8,691.831
25782.8,746.66
25816.2,809.215
25836.8,877.089
25842,929.988
25842,1485.37
25836.8,1538.27
25816.2,1606.14
25782.8,1668.69
25737.8,1723.52
25683,1768.52
25620.4,1801.96
25552.5,1822.55
25481.9,1829.5
25411.4,1822.55
25343.5,1801.96
25280.9,1768.52
25226.1,1723.52
25181.1,1668.69
25147.7,1606.14
25127.1,1538.27
25121.9,1485.37
25121.9,929.988
25127.1,877.089
25147.7,809.215
25181.1,746.66
25226.1,691.831
25280.9,646.834
25343.5,613.398
25411.4,592.808
25481.9,585.856
Z" /> 
<path style="fill:#848400; fill-opacity:1.0; 
stroke:#848400; stroke-width:0; stroke-opacity:1; 
stroke-linecap:round; stroke-linejoin:round;fill-rule:evenodd;"
d="M 18352.5,592.808
18420.4,613.398
18483,646.834
18537.8,691.831
18582.8,746.66
18616.2,809.215
18636.8,877.089
18642,929.988
18642,1485.37
18636.8,1538.27
18616.2,1606.14
18582.8,1668.69
18537.8,1723.52
18483,1768.52
18420.4,1801.96
18352.5,1822.55
18281.9,1829.5
18211.4,1822.55
18143.5,1801.96
18080.9,1768.52
18026.1,1723.52
17981.1,1668.69
17947.7,1606.14
17927.1,1538.27
17921.9,1485.37
17921.9,929.988
17927.1,877.089
17947.7,809.215
17981.1,746.66
18026.1,691.831
18080.9,646.834
18143.5,613.398
18211.4,592.808
18281.9,585.856
Z" /> 
<path style="fill:#848400; fill-opacity:1.0; 
stroke:#848400; stroke-width:0; stroke-opacity:1; 
stroke-linecap:round; stroke-linejoin:round;fill-rule:evenodd;"
d="M 23584,592.808
23651.9,613.398
23714.5,646.834
23769.3,691.831
23814.3,746.66
23847.7,809.215
23868.3,877.089
23873.5,929.988
23873.5,1485.37
23868.3,1538.27
23847.7,1606.14
23814.3,1668.69
23769.3,1723.52
23714.5,1768.52
23651.9,1801.96
23584,1822.55
23513.4,1829.5
23442.9,1822.55
23375,1801.96
23312.4,1768.52
23257.6,1723.52
23212.6,1668.69
23179.2,1606.14
23158.6,1538.27
23153.4,1485.37
23153.4,929.988
23158.6,877.089
23179.2,809.215
23212.6,746.66
23257.6,691.831
23312.4,646.834
23375,613.398
23442.9,592.808
23513.4,585.856
Z" /> 
<path style="fill:#848400; fill-opacity:1.0; 
stroke:#848400; stroke-width:0; stroke-opacity:1; 
stroke-linecap:round; stroke-linejoin:round;fill-rule:evenodd;"
d="M 28584,592.808
28651.9,613.398
28714.5,646.834
28769.3,691.831
28814.3,746.66
28847.7,809.215
28868.3,877.089
28873.5,929.988
28873.5,1485.37
28868.3,1538.27
28847.7,1606.14
28814.3,1668.69
28769.3,1723.52
28714.5,1768.52
28651.9,1801.96
28584,1822.55
28513.4,1829.5
28442.9,1822.55
28375,1801.96
28312.4,1768.52
28257.6,1723.52
28212.6,1668.69
28179.2,1606.14
28158.6,1538.27
28153.4,1485.37
28153.4,929.988
28158.6,877.089
28179.2,809.215
28212.6,746.66
28257.6,691.831
28312.4,646.834
28375,613.398
28442.9,592.808
28513.4,585.856
Z" /> 
<path style="fill:#848400; fill-opacity:1.0; 
stroke:#848400; stroke-width:0; stroke-opacity:1; 
stroke-linecap:round; stroke-linejoin:round;fill-rule:evenodd;"
d="M 30552.5,592.808
30620.4,613.398
30683,646.834
30737.8,691.831
30782.8,746.66
30816.2,809.215
30836.8,877.089
30842,929.988
30842,1485.37
30836.8,1538.27
30816.2,1606.14
30782.8,1668.69
30737.8,1723.52
30683,1768.52
30620.4,1801.96
30552.5,1822.55
30481.9,1829.5
30411.4,1822.55
30343.5,1801.96
30280.9,1768.52
30226.1,1723.52
30181.1,1668.69
30147.7,1606.14
30127.1,1538.27
30121.9,1485.37
30121.9,929.988
30127.1,877.089
30147.7,809.215
30181.1,746.66
30226.1,691.831
30280.9,646.834
30343.5,613.398
30411.4,592.808
30481.9,585.856
Z" /> 
<path style="fill:#848400; fill-opacity:1.0; 
stroke:#848400; stroke-width:0; stroke-opacity:1; 
stroke-linecap:round; stroke-linejoin:round;fill-rule:evenodd;"
d="M 16384,592.808
16451.9,613.398
16514.5,646.834
16569.3,691.831
16614.3,746.66
16647.7,809.215
16668.3,877.089
16673.5,929.988
16673.5,1485.37
16668.3,1538.27
16647.7,1606.14
16614.3,1668.69
16569.3,1723.52
16514.5,1768.52
16451.9,1801.96
16384,1822.55
16313.4,1829.5
16242.9,1822.55
16175,1801.96
16112.4,1768.52
16057.6,1723.52
16012.6,1668.69
15979.2,1606.14
15958.6,1538.27
15953.4,1485.37
15953.4,929.988
15958.6,877.089
15979.2,809.215
16012.6,746.66
16057.6,691.831
16112.4,646.834
16175,613.398
16242.9,592.808
16313.4,585.856
Z" /> 
<path style="fill:#848400; fill-opacity:1.0; 
stroke:#848400; stroke-width:0; stroke-opacity:1; 
stroke-linecap:round; stroke-linejoin:round;fill-rule:evenodd;"
d="M 42758.1,866.704
42816.9,878.395
42881.5,905.135
42939.6,943.956
42989,993.365
43027.8,1051.46
43054.5,1116.02
43068.2,1184.55
43068.2,1254.43
43054.5,1322.96
43027.8,1387.51
42989,1445.61
42939.6,1495.02
42881.5,1533.84
42816.9,1560.58
42758.1,1572.27
42748.4,1574.21
42678.5,1574.21
42668.8,1572.27
42610,1560.58
42545.4,1533.84
42487.3,1495.02
42437.9,1445.61
42399.1,1387.51
42372.3,1322.96
42358.7,1254.43
42358.7,1184.55
42372.3,1116.02
42399.1,1051.46
42437.9,993.365
42487.3,943.956
42545.4,905.135
42610,878.395
42668.8,866.704
42678.5,864.764
42748.4,864.764
Z" /> 
<path style="fill:#848400; fill-opacity:1.0; 
stroke:#848400; stroke-width:0; stroke-opacity:1; 
stroke-linecap:round; stroke-linejoin:round;fill-rule:evenodd;"
d="M 43758.1,866.704
43816.9,878.395
43881.5,905.135
43939.6,943.956
43989,993.365
44027.8,1051.46
44054.5,1116.02
44068.2,1184.55
44068.2,1254.43
44054.5,1322.96
44027.8,1387.51
43989,1445.61
43939.6,1495.02
43881.5,1533.84
43816.9,1560.58
43758.1,1572.27
43748.4,1574.21
43678.5,1574.21
43668.8,1572.27
43610,1560.58
43545.4,1533.84
43487.3,1495.02
43437.9,1445.61
43399.1,1387.51
43372.3,1322.96
43358.7,1254.43
43358.7,1184.55
43372.3,1116.02
43399.1,1051.46
43437.9,993.365
43487.3,943.956
43545.4,905.135
43610,878.395
43668.8,866.704
43678.5,864.764
43748.4,864.764
Z" /> 
<path style="fill:#848400; fill-opacity:1.0; 
stroke:#848400; stroke-width:0; stroke-opacity:1; 
stroke-linecap:round; stroke-linejoin:round;fill-rule:evenodd;"
d="M 4108.13,862.767
4166.91,874.458
4231.47,901.198
4289.57,940.019
4338.97,989.428
4377.79,1047.53
4404.54,1112.08
4418.17,1180.61
4418.17,1250.49
4404.54,1319.02
4377.79,1383.58
4338.97,1441.67
4289.57,1491.08
4231.47,1529.9
4166.91,1556.64
4108.13,1568.34
4098.38,1570.28
4028.5,1570.28
4018.75,1568.34
3959.97,1556.64
3895.42,1529.9
3837.32,1491.08
3787.91,1441.67
3749.09,1383.58
3722.35,1319.02
3708.72,1250.49
3708.72,1180.61
3722.35,1112.08
3749.09,1047.53
3787.91,989.428
3837.32,940.019
3895.42,901.198
3959.97,874.458
4018.75,862.767
4028.5,860.827
4098.38,860.827
Z" /> 
<path style="fill:#848400; fill-opacity:1.0; 
stroke:#848400; stroke-width:0; stroke-opacity:1; 
stroke-linecap:round; stroke-linejoin:round;fill-rule:evenodd;"
d="M 3108.13,862.767
3166.91,874.458
3231.47,901.198
3289.57,940.019
3338.97,989.428
3377.79,1047.53
3404.54,1112.08
3418.17,1180.61
3418.17,1250.49
3404.54,1319.02
3377.79,1383.58
3338.97,1441.67
3289.57,1491.08
3231.47,1529.9
3166.91,1556.64
3108.13,1568.34
3098.38,1570.28
3028.5,1570.28
3018.75,1568.34
2959.97,1556.64
2895.42,1529.9
2837.32,1491.08
2787.91,1441.67
2749.09,1383.58
2722.35,1319.02
2708.72,1250.49
2708.72,1180.61
2722.35,1112.08
2749.09,1047.53
2787.91,989.428
2837.32,940.019
2895.42,901.198
2959.97,874.458
3018.75,862.767
3028.5,860.827
3098.38,860.827
Z" /> 
</g>
<g style="fill:#000000; fill-opacity:1.0; 
stroke:#000000; stroke-width:0; stroke-opacity:1; 
stroke-linecap:round; stroke-linejoin:round;">
</g>
<g style="fill:#008484; fill-opacity:1.0; 
stroke:#008484; stroke-width:0; stroke-opacity:1; 
stroke-linecap:round; stroke-linejoin:round;">
</g>
<g style="fill:#008484; fill-opacity:1.0; 
stroke:#008484; stroke-width:47.2441; stroke-opacity:1; 
stroke-linecap:round; stroke-linejoin:round;">
</g>
<g style="fill:#008484; fill-opacity:0.0; 
stroke:#008484; stroke-width:47.2441; stroke-opacity:1; 
stroke-linecap:round; stroke-linejoin:round;">
<path d="M37076 1247
L38147 1247
" />
<path d="M40848 1247
L41918 1247
" />
<path d="M40115 6089
L38879 6089
" />
<path d="M41918 6089
L40848 6089
" />
<circle cx="39513.4" cy="3628.94" r="1802.78" /> 
<path d="M38147 6089
L37076 6089
" />
<path d="M41918 1247
L41918 6089
" />
<path d="M38879 1247
L40115 1247
" />
<path d="M37076 6089
L37076 1247
" />
<path d="M32076 1247
L33147 1247
" />
<path d="M35848 1247
L36918 1247
" />
<path d="M35115 6089
L33879 6089
" />
<path d="M36918 6089
L35848 6089
" />
<circle cx="34513.4" cy="3628.94" r="1802.78" /> 
<path d="M33147 6089
L32076 6089
" />
<path d="M36918 1247
L36918 6089
" />
<path d="M33879 1247
L35115 1247
" />
<path d="M32076 6089
L32076 1247
" />
<path d="M27076 1247
L28147 1247
" />
<path d="M30848 1247
L31918 1247
" />
<path d="M30115 6089
L28879 6089
" />
<path d="M31918 6089
L30848 6089
" />
<circle cx="29513.4" cy="3628.94" r="1802.78" /> 
<path d="M28147 6089
L27076 6089
" />
<path d="M31918 1247
L31918 6089
" />
<path d="M28879 1247
L30115 1247
" />
<path d="M27076 6089
L27076 1247
" />
<path d="M22076 1247
L23147 1247
" />
<path d="M25848 1247
L26918 1247
" />
<path d="M25115 6089
L23879 6089
" />
<path d="M26918 6089
L25848 6089
" />
<circle cx="24513.4" cy="3628.94" r="1802.78" /> 
<path d="M23147 6089
L22076 6089
" />
<path d="M26918 1247
L26918 6089
" />
<path d="M23879 1247
L25115 1247
" />
<path d="M22076 6089
L22076 1247
" />
<path d="M14876 1247
L15947 1247
" />
<path d="M18648 1247
L19718 1247
" />
<path d="M17915 6089
L16679 6089
" />
<path d="M19718 6089
L18648 6089
" />
<circle cx="17313.4" cy="3628.94" r="1802.78" /> 
<path d="M15947 6089
L14876 6089
" />
<path d="M19718 1247
L19718 6089
" />
<path d="M16679 1247
L17915 1247
" />
<path d="M14876 6089
L14876 1247
" />
<path d="M9876 1247
L10947 1247
" />
<path d="M13648 1247
L14718 1247
" />
<path d="M12915 6089
L11679 6089
" />
<path d="M14718 6089
L13648 6089
" />
<circle cx="12313.4" cy="3628.94" r="1802.78" /> 
<path d="M10947 6089
L9876 6089
" />
<path d="M14718 1247
L14718 6089
" />
<path d="M11679 1247
L12915 1247
" />
<path d="M9876 6089
L9876 1247
" />
<path d="M4876 1247
L5947 1247
" />
<path d="M8648 1247
L9718 1247
" />
<path d="M7915 6089
L6679 6089
" />
<path d="M9718 6089
L8648 6089
" />
<circle cx="7313.44" cy="3628.94" r="1802.78" /> 
<path d="M5947 6089
L4876 6089
" />
<path d="M9718 1247
L9718 6089
" />
<path d="M6679 1247
L7915 1247
" />
<path d="M4876 6089
L4876 1247
" />
</g>
<g style="fill:#008484; fill-opacity:0.0; 
stroke:#008484; stroke-width:59.0551; stroke-opacity:1; 
stroke-linecap:round; stroke-linejoin:round;">
<text x="39513.4" y="1075.79"
textLength="1281.74" font-size="524.934" lengthAdjust="spacingAndGlyphs"
text-anchor="middle" opacity="0">SW7</text>
<path d="M38988 1038
L39044 1057
L39138 1057
L39175 1038
L39194 1019
L39213 982
L39213 944
L39194 907
L39175 888
L39138 869
L39063 850
L39026 832
L39007 813
L38988 775
L38988 738
L39007 700
L39026 682
L39063 663
L39157 663
L39213 682
" />
<path d="M39344 663
L39438 1057
L39513 775
L39588 1057
L39682 663
" />
<path d="M39794 663
L40057 663
L39888 1057
" />
<text x="34513.4" y="1075.79"
textLength="1276.62" font-size="524.934" lengthAdjust="spacingAndGlyphs"
text-anchor="middle" opacity="0">SW6</text>
<path d="M33988 1038
L34044 1057
L34138 1057
L34175 1038
L34194 1019
L34213 982
L34213 944
L34194 907
L34175 888
L34138 869
L34063 850
L34026 832
L34007 813
L33988 775
L33988 738
L34007 700
L34026 682
L34063 663
L34157 663
L34213 682
" />
<path d="M34344 663
L34438 1057
L34513 775
L34588 1057
L34682 663
" />
<path d="M35000 663
L34925 663
L34888 682
L34869 700
L34832 757
L34813 832
L34813 982
L34832 1019
L34850 1038
L34888 1057
L34963 1057
L35000 1038
L35019 1019
L35038 982
L35038 888
L35019 850
L35000 832
L34963 813
L34888 813
L34850 832
L34832 850
L34813 888
" />
<text x="29513.4" y="1075.79"
textLength="1276.62" font-size="524.934" lengthAdjust="spacingAndGlyphs"
text-anchor="middle" opacity="0">SW5</text>
<path d="M28988 1038
L29044 1057
L29138 1057
L29175 1038
L29194 1019
L29213 982
L29213 944
L29194 907
L29175 888
L29138 869
L29063 850
L29026 832
L29007 813
L28988 775
L28988 738
L29007 700
L29026 682
L29063 663
L29157 663
L29213 682
" />
<path d="M29344 663
L29438 1057
L29513 775
L29588 1057
L29682 663
" />
<path d="M30019 663
L29832 663
L29813 850
L29832 832
L29869 813
L29963 813
L30000 832
L30019 850
L30038 888
L30038 982
L30019 1019
L30000 1038
L29963 1057
L29869 1057
L29832 1038
L29813 1019
" />
<text x="24513.4" y="1075.79"
textLength="1276.62" font-size="524.934" lengthAdjust="spacingAndGlyphs"
text-anchor="middle" opacity="0">SW4</text>
<path d="M23988 1038
L24044 1057
L24138 1057
L24175 1038
L24194 1019
L24213 982
L24213 944
L24194 907
L24175 888
L24138 869
L24063 850
L24026 832
L24007 813
L23988 775
L23988 738
L24007 700
L24026 682
L24063 663
L24157 663
L24213 682
" />
<path d="M24344 663
L24438 1057
L24513 775
L24588 1057
L24682 663
" />
<path d="M25000 794
L25000 1057
" />
<path d="M24907 644
L24813 925
L25057 925
" />
<text x="17313.4" y="1075.79"
textLength="1276.62" font-size="524.934" lengthAdjust="spacingAndGlyphs"
text-anchor="middle" opacity="0">SW3</text>
<path d="M16788 1038
L16844 1057
L16938 1057
L16975 1038
L16994 1019
L17013 982
L17013 944
L16994 907
L16975 888
L16938 869
L16863 850
L16826 832
L16807 813
L16788 775
L16788 738
L16807 700
L16826 682
L16863 663
L16957 663
L17013 682
" />
<path d="M17144 663
L17238 1057
L17313 775
L17388 1057
L17482 663
" />
<path d="M17594 663
L17838 663
L17707 813
L17763 813
L17800 832
L17819 850
L17838 888
L17838 982
L17819 1019
L17800 1038
L17763 1057
L17650 1057
L17613 1038
L17594 1019
" />
<text x="12313.4" y="1075.79"
textLength="1276.62" font-size="524.934" lengthAdjust="spacingAndGlyphs"
text-anchor="middle" opacity="0">SW2</text>
<path d="M11788 1038
L11844 1057
L11938 1057
L11975 1038
L11994 1019
L12013 982
L12013 944
L11994 907
L11975 888
L11938 869
L11863 850
L11826 832
L11807 813
L11788 775
L11788 738
L11807 700
L11826 682
L11863 663
L11957 663
L12013 682
" />
<path d="M12144 663
L12238 1057
L12313 775
L12388 1057
L12482 663
" />
<path d="M12613 700
L12632 682
L12669 663
L12763 663
L12800 682
L12819 700
L12838 738
L12838 775
L12819 832
L12594 1057
L12838 1057
" />
<text x="7313.44" y="1075.79"
textLength="1276.62" font-size="524.934" lengthAdjust="spacingAndGlyphs"
text-anchor="middle" opacity="0">SW1</text>
<path d="M6788 1038
L6844 1057
L6938 1057
L6975 1038
L6994 1019
L7013 982
L7013 944
L6994 907
L6975 888
L6938 869
L6863 850
L6826 832
L6807 813
L6788 775
L6788 738
L6807 700
L6826 682
L6863 663
L6957 663
L7013 682
" />
<path d="M7144 663
L7238 1057
L7313 775
L7388 1057
L7482 663
" />
<path d="M7838 1057
L7613 1057
" />
<path d="M7725 1057
L7725 663
L7688 719
L7650 757
L7613 775
" />
<g >
</g>
</g>
<g style="fill:#000000; fill-opacity:0.0; 
stroke:#000000; stroke-width:59.0551; stroke-opacity:1; 
stroke-linecap:round; stroke-linejoin:round;">
</g>
<g style="fill:#C2C200; fill-opacity:0.0; 
stroke:#C2C200; stroke-width:59.0551; stroke-opacity:1; 
stroke-linecap:round; stroke-linejoin:round;">
</g>
<g style="fill:#C2C200; fill-opacity:0.0; 
stroke:#C2C200; stroke-width:19.685; stroke-opacity:1; 
stroke-linecap:round; stroke-linejoin:round;">
<path d="M2313 478
L2313 6878
" />
<path d="M44463 6878
L2313 6878
" />
<path d="M44463 478
L44463 6878
" />
<path d="M2313 478
L44463 478
" />
<g >
</g>
<g >
</g>
<g >
</g>
<g >
</g>
<g >
</g>
<g >
</g>
<g >
</g>
<g >
</g>
<g >
</g>
<g >
</g>
<g >
</g>
<g >
</g>
<g >
</g>
</g> 
</svg>
