<?xml version="1.0" encoding="UTF-8" standalone="no"?>
<!-- Created with Inkscape (http://www.inkscape.org/) -->

<svg
   xmlns:dc="http://purl.org/dc/elements/1.1/"
   xmlns:cc="http://creativecommons.org/ns#"
   xmlns:rdf="http://www.w3.org/1999/02/22-rdf-syntax-ns#"
   xmlns:svg="http://www.w3.org/2000/svg"
   xmlns="http://www.w3.org/2000/svg"
   xmlns:sodipodi="http://sodipodi.sourceforge.net/DTD/sodipodi-0.dtd"
   xmlns:inkscape="http://www.inkscape.org/namespaces/inkscape"
   width="210mm"
   height="297mm"
   viewBox="0 0 210 297"
   version="1.1"
   id="svg8"
   inkscape:version="0.92.3 (2405546, 2018-03-11)"
   sodipodi:docname="Cuttest-v2.svg">
  <sodipodi:namedview
     id="base"
     pagecolor="#ffffff"
     bordercolor="#666666"
     borderopacity="1.0"
     inkscape:pageopacity="0.0"
     inkscape:pageshadow="2"
     inkscape:zoom="2.8284272"
     inkscape:cx="311.44375"
     inkscape:cy="795.16043"
     inkscape:document-units="mm"
     inkscape:current-layer="layer1"
     showgrid="false"
     inkscape:snap-grids="false"
     inkscape:snap-to-guides="false"
     inkscape:snap-others="false"
     inkscape:object-nodes="true"
     inkscape:snap-nodes="true"
     inkscape:snap-global="true"
     inkscape:window-width="1920"
     inkscape:window-height="1137"
     inkscape:window-x="-8"
     inkscape:window-y="-8"
     inkscape:window-maximized="1"
     inkscape:snap-bbox="false"
     inkscape:object-paths="false" />
  <defs
     id="defs2">
    <marker
       style="overflow:visible;"
       id="Arrow1Lend"
       refX="0.0"
       refY="0.0"
       orient="auto"
       inkscape:stockid="Arrow1Lend">
      <path
         transform="scale(0.8) rotate(180) translate(12.5,0)"
         style="fill-rule:evenodd;stroke:#000000;stroke-width:1.0pt;marker-start:none;"
         d="M 0.0,0.0 L 5.0,-5.0 L -12.5,0.0 L 5.0,5.0 L 0.0,0.0 z "
         id="path4521" />
    </marker>
  </defs>
  <metadata
     id="metadata5">
    <rdf:RDF>
      <cc:Work
         rdf:about="">
        <dc:format>image/svg+xml</dc:format>
        <dc:type
           rdf:resource="http://purl.org/dc/dcmitype/StillImage" />
        <dc:title />
      </cc:Work>
    </rdf:RDF>
  </metadata>
  <g
     inkscape:label="Layer 1"
     inkscape:groupmode="layer"
     id="layer1">
    <g
       id="g4297"
       transform="matrix(0.26458333,0,0,0.26458333,-229.42685,131.70874)">
      <g
         id="g4299" />
      <g
         id="g4301" />
      <g
         id="g4303" />
      <g
         id="g4305" />
      <g
         id="g4307" />
      <g
         id="g4309" />
      <g
         id="g4311" />
      <g
         id="g4313" />
      <g
         id="g4315" />
      <g
         id="g4317" />
    </g>
    <g
       id="g4395"
       transform="matrix(0.26458333,0,0,0.26458333,-229.42685,131.70874)">
      <g
         id="g4397" />
      <g
         id="g4399" />
      <g
         id="g4401" />
      <g
         id="g4403" />
      <g
         id="g4405" />
      <g
         id="g4407" />
      <g
         id="g4409" />
      <g
         id="g4411" />
      <g
         id="g4413" />
      <g
         id="g4415" />
      <g
         id="g4417" />
      <g
         id="g4419" />
    </g>
    <g
       id="g4518"
       transform="matrix(0.26458333,0,0,0.26458333,-229.42685,131.70874)">
      <g
         id="g4520" />
      <g
         id="g4522" />
      <g
         id="g4524" />
      <g
         id="g4526" />
    </g>
    <rect
       style="fill:none;stroke:#ff0000;stroke-width:0.35805488;stroke-opacity:1"
       id="rect6195"
       width="21"
       height="28.5"
       x="40.815498"
       y="138.72765" />
    <rect
       style="fill:none;stroke:#ff0000;stroke-width:0.35171708;stroke-opacity:1"
       id="rect6195-9"
       width="21"
       height="27.5"
       x="17.557718"
       y="138.72765" />
    <g
       transform="rotate(90,-7.1676367,256.8072)"
       id="g1083">
      <g
         transform="translate(-252.53942,82.903101)"
         id="g1178">
        <rect
           y="-61.113644"
           x="-138.4248"
           height="17.604242"
           width="23.604242"
           id="rect4140-5-5-77-8-8"
           style="color:#000000;clip-rule:nonzero;display:inline;overflow:visible;visibility:visible;opacity:1;isolation:auto;mix-blend-mode:normal;color-interpolation:sRGB;color-interpolation-filters:linearRGB;solid-color:#000000;solid-opacity:1;fill:none;fill-opacity:1;fill-rule:nonzero;stroke:#800000;stroke-width:0.39575833;stroke-linecap:butt;stroke-linejoin:miter;stroke-miterlimit:4;stroke-dasharray:none;stroke-dashoffset:0;stroke-opacity:1;color-rendering:auto;image-rendering:auto;shape-rendering:auto;text-rendering:auto;enable-background:accumulate"
           transform="scale(-1)" />
        <circle
           cy="-52.311523"
           cx="-126.62268"
           id="circle4201-3-4-6-7"
           style="opacity:0.98999999;fill:none;fill-opacity:1;stroke:#ff0000;stroke-width:0.79999989;stroke-miterlimit:4;stroke-dasharray:none;stroke-dashoffset:0;stroke-opacity:1"
           r="8"
           transform="scale(-1)" />
      </g>
      <rect
         y="-162.57065"
         x="114.11462"
         height="17.604242"
         width="23.604242"
         id="rect1180"
         style="color:#000000;clip-rule:nonzero;display:inline;overflow:visible;visibility:visible;opacity:1;isolation:auto;mix-blend-mode:normal;color-interpolation:sRGB;color-interpolation-filters:linearRGB;solid-color:#000000;solid-opacity:1;fill:none;fill-opacity:1;fill-rule:nonzero;stroke:#800000;stroke-width:0.39575833;stroke-linecap:butt;stroke-linejoin:miter;stroke-miterlimit:4;stroke-dasharray:none;stroke-dashoffset:0;stroke-opacity:1;color-rendering:auto;image-rendering:auto;shape-rendering:auto;text-rendering:auto;enable-background:accumulate"
         transform="scale(-1,-1)" />
      <circle
         cy="-153.76854"
         cx="125.91674"
         id="circle1182"
         style="opacity:0.98999999;fill:none;fill-opacity:1;stroke:#ff0000;stroke-width:0.79999989;stroke-miterlimit:4;stroke-dasharray:none;stroke-dashoffset:0;stroke-opacity:1"
         r="8"
         transform="scale(-1,-1)" />
      <g
         id="g1208"
         transform="translate(-228.03081,82.903101)">
        <rect
           transform="scale(-1)"
           style="color:#000000;clip-rule:nonzero;display:inline;overflow:visible;visibility:visible;opacity:1;isolation:auto;mix-blend-mode:normal;color-interpolation:sRGB;color-interpolation-filters:linearRGB;solid-color:#000000;solid-opacity:1;fill:none;fill-opacity:1;fill-rule:nonzero;stroke:#800000;stroke-width:0.39575833;stroke-linecap:butt;stroke-linejoin:miter;stroke-miterlimit:4;stroke-dasharray:none;stroke-dashoffset:0;stroke-opacity:1;color-rendering:auto;image-rendering:auto;shape-rendering:auto;text-rendering:auto;enable-background:accumulate"
           id="rect1204"
           width="23.604242"
           height="17.604242"
           x="-138.4248"
           y="-61.113644" />
        <circle
           transform="scale(-1)"
           r="8"
           style="opacity:0.98999999;fill:none;fill-opacity:1;stroke:#ff0000;stroke-width:0.79999989;stroke-miterlimit:4;stroke-dasharray:none;stroke-dashoffset:0;stroke-opacity:1"
           id="circle1206"
           cx="-126.62268"
           cy="-52.311523" />
      </g>
      <g
         id="g1214"
         transform="translate(-228.03081,101.45701)">
        <rect
           y="-61.113644"
           x="-138.4248"
           height="17.604242"
           width="23.604242"
           id="rect1210"
           style="color:#000000;clip-rule:nonzero;display:inline;overflow:visible;visibility:visible;opacity:1;isolation:auto;mix-blend-mode:normal;color-interpolation:sRGB;color-interpolation-filters:linearRGB;solid-color:#000000;solid-opacity:1;fill:none;fill-opacity:1;fill-rule:nonzero;stroke:#800000;stroke-width:0.39575833;stroke-linecap:butt;stroke-linejoin:miter;stroke-miterlimit:4;stroke-dasharray:none;stroke-dashoffset:0;stroke-opacity:1;color-rendering:auto;image-rendering:auto;shape-rendering:auto;text-rendering:auto;enable-background:accumulate"
           transform="scale(-1)" />
        <circle
           cy="-52.311523"
           cx="-126.62268"
           id="circle1212"
           style="opacity:0.98999999;fill:none;fill-opacity:1;stroke:#ff0000;stroke-width:0.79999989;stroke-miterlimit:4;stroke-dasharray:none;stroke-dashoffset:0;stroke-opacity:1"
           r="8"
           transform="scale(-1)" />
      </g>
    </g>
    <g
       transform="translate(116.47044,-20.390998)"
       id="g1364">
      <circle
         r="1"
         cy="-194.3746"
         cx="90.947998"
         transform="scale(-1,-1)"
         style="fill:none;stroke:#800000;stroke-width:0.17638889;stroke-miterlimit:4;stroke-dasharray:none;stroke-opacity:1"
         id="circle1341" />
      <rect
         y="143.56758"
         x="-103.64712"
         height="53.34"
         width="68.580002"
         id="rect1343"
         style="fill:none;stroke:#800000;stroke-width:0.17638889;stroke-miterlimit:4;stroke-dasharray:none;stroke-opacity:1" />
      <circle
         id="circle1345"
         style="fill:none;stroke:#ff0000;stroke-width:0.17638889;stroke-miterlimit:4;stroke-dasharray:none;stroke-opacity:1"
         transform="scale(-1,-1)"
         cx="89.169998"
         cy="-146.11459"
         r="1" />
      <circle
         r="1"
         cy="-161.3546"
         cx="38.369999"
         transform="scale(-1,-1)"
         style="fill:none;stroke:#ff0000;stroke-width:0.17638889;stroke-miterlimit:4;stroke-dasharray:none;stroke-opacity:1"
         id="circle1347" />
      <circle
         id="circle1349"
         style="fill:none;stroke:#ff0000;stroke-width:0.17638889;stroke-miterlimit:4;stroke-dasharray:none;stroke-opacity:1"
         transform="scale(-1,-1)"
         cx="38.369999"
         cy="-189.2946"
         r="1" />
      <rect
         y="153.168"
         x="-109.84711"
         height="12"
         width="6.1999998"
         id="rect1353"
         style="fill:none;stroke:#800000;stroke-width:0.20491321;stroke-miterlimit:4;stroke-dasharray:none;stroke-opacity:1" />
      <rect
         style="fill:none;stroke:#800000;stroke-width:0.0950856;stroke-miterlimit:4;stroke-dasharray:none;stroke-opacity:1"
         id="rect1355"
         width="1.8"
         height="8.8999996"
         x="-105.44712"
         y="184.70801" />
    </g>
    <g
       id="g3002">
      <circle
         style="fill:none;stroke:#ff0000;stroke-width:0.15352889;stroke-miterlimit:4;stroke-dasharray:none;stroke-opacity:1"
         id="path2937"
         cx="40.603901"
         cy="241.55496"
         r="18" />
      <circle
         r="25.539673"
         cy="241.55496"
         cx="40.603901"
         id="circle2985"
         style="fill:none;stroke:#ff00ff;stroke-width:0.21768653;stroke-miterlimit:4;stroke-dasharray:none;stroke-opacity:1" />
      <circle
         r="0.5"
         cy="224.80493"
         cx="23.853804"
         id="circle2951"
         style="fill:none;stroke:#ff0000;stroke-width:0.13468701;stroke-miterlimit:4;stroke-dasharray:none;stroke-opacity:1" />
      <circle
         style="fill:none;stroke:#800000;stroke-width:0.13468701;stroke-miterlimit:4;stroke-dasharray:none;stroke-opacity:1"
         id="circle4329"
         cx="57.354"
         cy="224.80493"
         r="0.5" />
      <g
         transform="translate(-0.50000095,33.000066)"
         id="g4335">
        <circle
           r="0.5"
           cy="225.30493"
           cx="24.353804"
           id="circle4337"
           style="fill:none;stroke:#ff0000;stroke-width:0.13468701;stroke-miterlimit:4;stroke-dasharray:none;stroke-opacity:1" />
        <circle
           style="fill:none;stroke:#ff0000;stroke-width:0.13468701;stroke-miterlimit:4;stroke-dasharray:none;stroke-opacity:1"
           id="circle4339"
           cx="57.854"
           cy="225.30493"
           r="0.5" />
      </g>
      <circle
         r="7.9375"
         cy="206.65361"
         cx="22.754166"
         id="path4349"
         style="opacity:0.98999999;fill:none;fill-opacity:1;stroke:#ff0000;stroke-width:0.15352889;stroke-linejoin:round;stroke-miterlimit:4;stroke-dasharray:none;stroke-dashoffset:0;stroke-opacity:1" />
    </g>
    <g
       id="g4757"
       transform="translate(-351.36668,109.78444)">
      <path
         inkscape:label="part"
         style="fill:none;stroke:#000000;stroke-width:0.0508"
         d="m 361.02,4.1700001 6.449,0 0,-3.1700001 6.17,0 0,3.1700001 6.364,0 0,-3.1700001 6.17,0 0,3.1700001 6.364,0 0,-3.1700001 6.17,0 0,3.1700001 6.364,0 0,-3.1700001 6.17,0 0,3.1700001 6.364,0 0,-3.1700001 6.17,0 0,3.1700001 6.364,0 0,-3.1700001 6.17,0 0,3.1700001 6.364,0 0,-3.1700001 6.17,0 0,3.1700001 6.364,0 0,-3.1700001 6.17,0 0,3.1700001 6.364,0 0,-3.1700001 6.17,0 0,3.1700001 3.279,0"
         id="path4510"
         inkscape:connector-curvature="0" />
      <path
         inkscape:label="part"
         style="fill:none;stroke:#000000;stroke-width:0.0508"
         d="m 477.19,4.1700001 0,3.2221428 0,0 0,6.1700001 0,0 0,6.307143 0,0 0,6.17 0,0 0,6.307143 0,0 0,6.17 0,0 0,6.307143 0,0 0,6.17 0,0 0,6.307142 0,0 0,6.17 0,0 0,6.307143 0,0 0,6.17 0,0 0,3.222143"
         id="path4512"
         inkscape:connector-curvature="0" />
      <path
         inkscape:label="part"
         style="fill:none;stroke:#000000;stroke-width:0.0508"
         d="m 477.19,79.17 -3.279,0 0,0 -6.17,0 0,0 -6.364,0 0,0 -6.17,0 0,0 -6.364,0 0,0 -6.17,0 0,0 -6.364,0 0,0 -6.17,0 0,0 -6.364,0 0,0 -6.17,0 0,0 -6.364,0 0,0 -6.17,0 0,0 -6.364,0 0,0 -6.17,0 0,0 -6.364,0 0,0 -6.17,0 0,0 -6.364,0 0,0 -6.17,0 0,0 -6.449,0"
         id="path4514"
         inkscape:connector-curvature="0" />
      <path
         inkscape:label="part"
         style="fill:none;stroke:#000000;stroke-width:0.0508"
         d="m 422.275,75.777857 0,-5.83 -3.17,0 0,5.83 3.17,0"
         id="path4516"
         inkscape:connector-curvature="0" />
      <path
         inkscape:label="part"
         style="fill:none;stroke:#000000;stroke-width:0.0508"
         d="m 422.275,63.300714 0,-5.83 -3.17,0 0,5.83 3.17,0"
         id="path4518"
         inkscape:connector-curvature="0" />
      <path
         inkscape:label="part"
         style="fill:none;stroke:#000000;stroke-width:0.0508"
         d="m 422.275,50.823572 0,-5.83 -3.17,0 0,5.83 3.17,0"
         id="path4520"
         inkscape:connector-curvature="0" />
      <path
         inkscape:label="part"
         style="fill:none;stroke:#000000;stroke-width:0.0508"
         d="m 422.275,38.346429 0,-5.83 -3.17,0 0,5.83 3.17,0"
         id="path4522"
         inkscape:connector-curvature="0" />
      <path
         inkscape:label="part"
         style="fill:none;stroke:#000000;stroke-width:0.0508"
         d="m 422.275,25.869286 0,-5.83 -3.17,0 0,5.83 3.17,0"
         id="path4524"
         inkscape:connector-curvature="0" />
      <path
         inkscape:label="part"
         style="fill:none;stroke:#000000;stroke-width:0.0508"
         d="m 422.275,13.392143 0,-5.8300001 -3.17,0 0,5.8300001 3.17,0"
         id="path4526"
         inkscape:connector-curvature="0" />
      <path
         inkscape:label="part"
         style="fill:none;stroke:#000000;stroke-width:0.0508"
         d="m 361.02,79.17 0,-3.392143 3.17,0 0,-5.83 -3.17,0 0,-6.647143 3.17,0 0,-5.83 -3.17,0 0,-6.647142 3.17,0 0,-5.83 -3.17,0 0,-6.647143 3.17,0 0,-5.83 -3.17,0 0,-6.647143 3.17,0 0,-5.83 -3.17,0 0,-6.647143 3.17,0 0,-5.8300001 -3.17,0 0,-3.3921428"
         id="path4528"
         inkscape:connector-curvature="0" />
    </g>
    <path
       inkscape:connector-curvature="0"
       id="path4530"
       d="m 4.7344445,194.95222 3.2221428,0 0,0 6.1699997,0 0,0 6.307143,0 0,0 6.17,0 0,0 6.307143,0 0,0 6.17,0 0,0 6.307143,0 0,0 6.17,0 0,0 6.307142,0 0,0 6.17,0 0,0 6.307143,0 0,0 6.17,0 0,0 3.222143,0"
       style="fill:none;stroke:#000000;stroke-width:0.0508"
       inkscape:label="part" />
    <path
       inkscape:connector-curvature="0"
       id="path4532"
       d="m 79.734444,194.95222 0,3.22214 3.17,0 0,6.17 -3.17,0 0,6.30715 3.17,0 0,6.17 -3.17,0 0,6.30714 3.17,0 0,6.17 -3.17,0 0,6.30714 3.17,0 0,6.17 -3.17,0 0,6.30714 3.17,0 0,6.17 -3.17,0 0,6.30715 3.17,0 0,6.17 -3.17,0 0,3.22214"
       style="fill:none;stroke:#000000;stroke-width:0.0508"
       inkscape:label="part" />
    <path
       inkscape:connector-curvature="0"
       id="path4534"
       d="m 79.734444,269.95222 -3.222143,0 0,3.17 -6.17,0 0,-3.17 -6.307143,0 0,3.17 -6.17,0 0,-3.17 -6.307142,0 0,3.17 -6.17,0 0,-3.17 -6.307143,0 0,3.17 -6.17,0 0,-3.17 -6.307143,0 0,3.17 -6.17,0 0,-3.17 -6.307143,0 0,3.17 -6.1699996,0 0,-3.17 -3.2221428,0"
       style="fill:none;stroke:#000000;stroke-width:0.0508"
       inkscape:label="part" />
    <path
       inkscape:connector-curvature="0"
       id="path4536"
       d="m 4.7344445,269.95222 0,-3.22214 0,0 0,-6.17 0,0 0,-6.30715 0,0 0,-6.17 0,0 0,-6.30714 0,0 0,-6.17 0,0 0,-6.30714 0,0 0,-6.17 0,0 0,-6.30714 0,0 0,-6.17 0,0 0,-6.30715 0,0 0,-6.17 0,0 0,-3.22214"
       style="fill:none;stroke:#000000;stroke-width:0.0508"
       inkscape:label="part" />
    <path
       id="path4538"
       d="M 3.17000007629,333.530000687 L 6.39214287805,333.530000687 L 6.39214287805,333.530000687 L 12.5621428798,333.530000687 L 12.5621428798,333.530000687 L 18.869285757,333.530000687 L 18.869285757,333.530000687 L 25.0392857588,333.530000687 L 25.0392857588,333.530000687 L 31.3464286359,333.530000687 L 31.3464286359,333.530000687 L 37.5164286377,333.530000687 L 37.5164286377,333.530000687 L 43.8235715149,333.530000687 L 43.8235715149,333.530000687 L 49.9935715167,333.530000687 L 49.9935715167,333.530000687 L 56.3007143938,333.530000687 L 56.3007143938,333.530000687 L 62.4707143956,333.530000687 L 62.4707143956,333.530000687 L 68.7778572727,333.530000687 L 68.7778572727,333.530000687 L 74.9478572745,333.530000687 L 74.9478572745,333.530000687 L 78.1700000763,333.530000687 "
       style="stroke:#000000;stroke-width:0.0508000000002;fill:none"
       inkscape:label="part" />
    <path
       id="path4540"
       d="M 78.1700000763,333.530000687 L 78.1700000763,336.752143488 L 81.3400001526,336.752143488 L 81.3400001526,342.92214349 L 78.1700000763,342.92214349 L 78.1700000763,349.229286367 L 81.3400001526,349.229286367 L 81.3400001526,355.399286369 L 78.1700000763,355.399286369 L 78.1700000763,361.706429246 L 81.3400001526,361.706429246 L 81.3400001526,367.876429248 L 78.1700000763,367.876429248 L 78.1700000763,374.183572125 L 81.3400001526,374.183572125 L 81.3400001526,380.353572127 L 78.1700000763,380.353572127 L 78.1700000763,386.660715004 L 81.3400001526,386.660715004 L 81.3400001526,392.830715006 L 78.1700000763,392.830715006 L 78.1700000763,399.137857883 L 81.3400001526,399.137857883 L 81.3400001526,405.307857885 L 78.1700000763,405.307857885 L 78.1700000763,408.530000687 "
       style="stroke:#000000;stroke-width:0.0508000000002;fill:none"
       inkscape:label="part" />
    <path
       id="path4542"
       d="M 78.1700000763,408.530000687 L 74.9478572745,408.530000687 L 74.9478572745,411.700000763 L 68.7778572727,411.700000763 L 68.7778572727,408.530000687 L 62.4707143956,408.530000687 L 62.4707143956,411.700000763 L 56.3007143938,411.700000763 L 56.3007143938,408.530000687 L 49.9935715167,408.530000687 L 49.9935715167,411.700000763 L 43.8235715149,411.700000763 L 43.8235715149,408.530000687 L 37.5164286377,408.530000687 L 37.5164286377,411.700000763 L 31.3464286359,411.700000763 L 31.3464286359,408.530000687 L 25.0392857588,408.530000687 L 25.0392857588,411.700000763 L 18.869285757,411.700000763 L 18.869285757,408.530000687 L 12.5621428798,408.530000687 L 12.5621428798,411.700000763 L 6.39214287805,411.700000763 L 6.39214287805,408.530000687 L 3.17000007629,408.530000687 "
       style="stroke:#000000;stroke-width:0.0508000000002;fill:none"
       inkscape:label="part" />
    <path
       id="path4544"
       d="M 3.17000007629,408.530000687 L 3.17000007629,405.307857885 L 3.17000007629,405.307857885 L 3.17000007629,399.137857883 L 3.17000007629,399.137857883 L 3.17000007629,392.830715006 L 3.17000007629,392.830715006 L 3.17000007629,386.660715004 L 3.17000007629,386.660715004 L 3.17000007629,380.353572127 L 3.17000007629,380.353572127 L 3.17000007629,374.183572125 L 3.17000007629,374.183572125 L 3.17000007629,367.876429248 L 3.17000007629,367.876429248 L 3.17000007629,361.706429246 L 3.17000007629,361.706429246 L 3.17000007629,355.399286369 L 3.17000007629,355.399286369 L 3.17000007629,349.229286367 L 3.17000007629,349.229286367 L 3.17000007629,342.92214349 L 3.17000007629,342.92214349 L 3.17000007629,336.752143488 L 3.17000007629,336.752143488 L 3.17000007629,333.530000687 "
       style="stroke:#000000;stroke-width:0.0508000000002;fill:none"
       inkscape:label="part" />
    <circle
       style="fill:none;stroke:#ff0000;stroke-width:0.35277778;stroke-miterlimit:4;stroke-dasharray:none;stroke-opacity:1"
       id="path927"
       cx="32.110046"
       cy="37.873463"
       r="11" />
    <circle
       cy="36.373459"
       cx="75.938782"
       id="circle5444"
       style="fill:none;stroke:#ff0000;stroke-width:0.35277778;stroke-miterlimit:4;stroke-dasharray:none;stroke-opacity:1"
       r="9.5" />
    <circle
       style="fill:none;stroke:#ff0000;stroke-width:0.35277778;stroke-miterlimit:4;stroke-dasharray:none;stroke-opacity:1"
       id="circle5446"
       cx="114.76752"
       cy="34.873459"
       r="8" />
    <circle
       cy="-54.365135"
       cx="-76.382233"
       id="circle5472"
       style="fill:none;stroke:#ff0000;stroke-width:0.35277778;stroke-miterlimit:4;stroke-dasharray:none;stroke-opacity:1"
       r="4.5"
       transform="scale(-1,-1)" />
    <circle
       style="fill:none;stroke:#ff0000;stroke-width:0.35277778;stroke-miterlimit:4;stroke-dasharray:none;stroke-opacity:1"
       id="circle5474"
       cx="-66.217865"
       cy="-54.865135"
       r="4"
       transform="scale(-1,-1)" />
    <circle
       cy="-55.365135"
       cx="-57.053513"
       id="circle5476"
       style="fill:none;stroke:#ff0000;stroke-width:0.35277778;stroke-miterlimit:4;stroke-dasharray:none;stroke-opacity:1"
       r="3.5"
       transform="scale(-1,-1)" />
    <g
       id="g1164"
       transform="translate(122.01237,-36.763567)">
      <rect
         y="103.7423"
         x="-95.979401"
         height="1.8427218"
         width="72"
         id="rect5532"
         style="fill:none;stroke:#ff0000;stroke-width:0.19082244;stroke-opacity:1" />
      <g
         transform="translate(7.2763283,-2.5270519)"
         id="g5540"
         style="fill:none;stroke:#ff0000">
        <ellipse
           style="fill:none;stroke:#ff0000;stroke-width:0.16716646;stroke-opacity:1"
           id="path5534"
           cx="-106.74146"
           cy="107.20591"
           rx="0.81641674"
           ry="0.8164168" />
        <ellipse
           ry="0.8164168"
           rx="0.81641674"
           cy="107.20591"
           cx="-27.77"
           id="ellipse5536"
           style="fill:none;stroke:#ff0000;stroke-width:0.16716646;stroke-opacity:1" />
      </g>
    </g>
    <circle
       r="3"
       style="fill:none;stroke:#ff0000;stroke-width:0.35277778;stroke-miterlimit:4;stroke-dasharray:none;stroke-opacity:1"
       id="circle1035"
       cx="-48.889145"
       cy="-55.865135"
       transform="scale(-1,-1)" />
    <g
       style="font-style:normal;font-variant:normal;font-weight:normal;font-stretch:normal;line-height:0%;font-family:Tahoma;-inkscape-font-specification:'Tahoma, Normal';text-align:start;letter-spacing:0px;word-spacing:0px;writing-mode:lr-tb;text-anchor:start;fill:#000000;fill-opacity:1;stroke:#0000ff;stroke-width:0.26458332"
       id="text1039">
      <path
         d="m 31.971547,25.88553 -1.266417,0 0,-0.288009 q 0.136426,-0.129536 0.257693,-0.248047 0.121268,-0.118512 0.237023,-0.246669 0.234266,-0.257693 0.319705,-0.412034 0.08544,-0.155718 0.08544,-0.321082 0,-0.08544 -0.02756,-0.150207 -0.02618,-0.06477 -0.07304,-0.107487 -0.04823,-0.04134 -0.111621,-0.06201 -0.06339,-0.02067 -0.139182,-0.02067 -0.07304,0 -0.148828,0.01929 -0.07441,0.01791 -0.143316,0.04547 -0.05788,0.02343 -0.111621,0.0565 -0.05374,0.03307 -0.08682,0.0565 l -0.01516,0 0,-0.292144 q 0.08544,-0.04272 0.237023,-0.08268 0.152962,-0.04134 0.289388,-0.04134 0.286632,0 0.44924,0.152962 0.162609,0.151584 0.162609,0.412033 0,0.11989 -0.02894,0.221864 -0.02756,0.101975 -0.07717,0.188792 -0.05099,0.08957 -0.122646,0.177766 -0.07166,0.08819 -0.151584,0.173633 -0.129535,0.14056 -0.289388,0.292144 -0.158474,0.151585 -0.253559,0.239779 l 1.008724,0 0,0.235644 z"
         style="font-size:2.82222199px;line-height:1.25;stroke-width:0.26458332;stroke:#0000ff"
         id="path5097" />
      <path
         d="m 33.51495,25.88553 -1.266417,0 0,-0.288009 q 0.136426,-0.129536 0.257693,-0.248047 0.121267,-0.118512 0.237023,-0.246669 0.234266,-0.257693 0.319704,-0.412034 0.08544,-0.155718 0.08544,-0.321082 0,-0.08544 -0.02756,-0.150207 -0.02618,-0.06477 -0.07304,-0.107487 -0.04823,-0.04134 -0.111621,-0.06201 -0.06339,-0.02067 -0.139182,-0.02067 -0.07304,0 -0.148828,0.01929 -0.07441,0.01791 -0.143316,0.04547 -0.05788,0.02343 -0.111621,0.0565 -0.05374,0.03307 -0.08682,0.0565 l -0.01516,0 0,-0.292144 q 0.08544,-0.04272 0.237023,-0.08268 0.152962,-0.04134 0.289388,-0.04134 0.286631,0 0.44924,0.152962 0.162608,0.151584 0.162608,0.412033 0,0.11989 -0.02894,0.221864 -0.02756,0.101975 -0.07717,0.188792 -0.05099,0.08957 -0.122646,0.177766 -0.07166,0.08819 -0.151584,0.173633 -0.129536,0.14056 -0.289388,0.292144 -0.158474,0.151585 -0.253559,0.239779 l 1.008724,0 0,0.235644 z"
         style="font-size:2.82222199px;line-height:1.25;stroke-width:0.26458332;stroke:#0000ff"
         id="path5099" />
    </g>
    <g
       style="font-style:normal;font-variant:normal;font-weight:normal;font-stretch:normal;line-height:0%;font-family:Tahoma;-inkscape-font-specification:'Tahoma, Normal';text-align:start;letter-spacing:0px;word-spacing:0px;writing-mode:lr-tb;text-anchor:start;fill:#000000;fill-opacity:1;stroke:#0000ff;stroke-width:0.26458332"
       id="text1043">
      <path
         d="m 75.611499,25.845568 -1.000456,0 0,-0.209462 0.37207,0 0,-1.375282 -0.37207,0 0,-0.187413 q 0.21084,0 0.310058,-0.05926 0.100597,-0.06063 0.113,-0.227376 l 0.213596,0 0,1.849327 0.363802,0 0,0.209462 z"
         style="font-size:2.82222199px;line-height:1.25;stroke-width:0.26458332;stroke:#0000ff"
         id="path5092" />
      <path
         d="m 76.989537,24.637028 q 0,-0.209461 -0.03858,-0.340375 -0.03858,-0.132292 -0.106109,-0.20395 -0.06063,-0.06615 -0.122646,-0.09095 -0.06201,-0.02481 -0.136425,-0.02481 -0.169499,0 -0.270096,0.121267 -0.100597,0.121268 -0.100597,0.3514 0,0.129536 0.03307,0.213596 0.03307,0.08406 0.107487,0.144694 0.05237,0.04272 0.118511,0.05788 0.06615,0.01378 0.141938,0.01378 0.08819,0 0.19017,-0.03032 0.101974,-0.03169 0.177767,-0.08268 0.0014,-0.02067 0.0028,-0.05374 0.0028,-0.03445 0.0028,-0.07579 z m -1.054199,-0.176389 q 0,-0.158474 0.05099,-0.289388 0.05237,-0.130913 0.141938,-0.225998 0.08544,-0.09095 0.208084,-0.141938 0.124023,-0.05099 0.250803,-0.05099 0.141937,0 0.256315,0.04823 0.115755,0.04685 0.199815,0.136426 0.106109,0.112999 0.163987,0.296278 0.05925,0.183279 0.05925,0.463021 0,0.254937 -0.05788,0.483691 -0.0565,0.227377 -0.168121,0.377583 -0.118511,0.159852 -0.285254,0.243912 -0.165364,0.08406 -0.409277,0.08406 -0.05512,0 -0.117133,-0.0069 -0.06201,-0.0055 -0.115756,-0.02205 l 0,-0.263205 0.01378,0 q 0.03445,0.01929 0.107487,0.03721 0.07304,0.01791 0.148828,0.01791 0.270095,0 0.424436,-0.177767 0.15434,-0.177767 0.17501,-0.508496 -0.110243,0.07441 -0.210839,0.108865 -0.09922,0.03445 -0.216352,0.03445 -0.114377,0 -0.208084,-0.0248 -0.09371,-0.0248 -0.188791,-0.09646 -0.110243,-0.08406 -0.166743,-0.212218 -0.0565,-0.129536 -0.0565,-0.311437 z"
         style="font-size:2.82222199px;line-height:1.25;stroke-width:0.26458332;stroke:#0000ff"
         id="path5094" />
    </g>
    <g
       style="font-style:normal;font-variant:normal;font-weight:normal;font-stretch:normal;line-height:0%;font-family:Tahoma;-inkscape-font-specification:'Tahoma, Normal';text-align:start;letter-spacing:0px;word-spacing:0px;writing-mode:lr-tb;text-anchor:start;fill:#000000;fill-opacity:1;stroke:#0000ff;stroke-width:0.26458332"
       id="text1047">
      <path
         d="m 114.52463,62.794914 -1.00046,0 0,-0.209462 0.37207,0 0,-1.375282 -0.37207,0 0,-0.187413 q 0.21084,0 0.31006,-0.05926 0.1006,-0.06063 0.113,-0.227377 l 0.2136,0 0,1.849327 0.3638,0 0,0.209462 z"
         style="font-size:2.82222199px;line-height:1.25;stroke-width:0.26458332;stroke:#0000ff"
         id="path5072" />
      <path
         d="m 116.22651,62.089359 -0.24392,0 0,0.705555 -0.26458,0 0,-0.705555 -0.90675,0 0,-0.289388 0.91778,-1.056955 0.25355,0 0,1.125857 0.24392,0 0,0.220486 z m -0.5085,-0.220486 0,-0.802019 -0.69177,0.802019 0.69177,0 z"
         style="font-size:2.82222199px;line-height:1.25;stroke-width:0.26458332;stroke:#0000ff"
         id="path5074" />
    </g>
    <g
       style="font-style:normal;font-variant:normal;font-weight:normal;font-stretch:normal;line-height:0%;font-family:Tahoma;-inkscape-font-specification:'Tahoma, Normal';text-align:start;letter-spacing:0px;word-spacing:0px;writing-mode:lr-tb;text-anchor:start;fill:#000000;fill-opacity:1;stroke:#0000ff;stroke-width:0.26458332"
       id="text1051">
      <path
         d="m 76.770841,61.546412 q 0,-0.209462 -0.03858,-0.340375 -0.03859,-0.132292 -0.106109,-0.20395 -0.06063,-0.06615 -0.122645,-0.09095 -0.06201,-0.0248 -0.136426,-0.0248 -0.169499,0 -0.270096,0.121267 -0.100596,0.121268 -0.100596,0.3514 0,0.129535 0.03307,0.213596 0.03307,0.08406 0.107487,0.144694 0.05236,0.04272 0.118511,0.05788 0.06615,0.01378 0.141938,0.01378 0.08819,0 0.190169,-0.03032 0.101975,-0.03169 0.177767,-0.08268 0.0014,-0.02067 0.0028,-0.05374 0.0028,-0.03445 0.0028,-0.07579 z m -1.054199,-0.176389 q 0,-0.158474 0.05099,-0.289388 0.05237,-0.130913 0.141938,-0.225998 0.08544,-0.09095 0.208084,-0.141938 0.124023,-0.05099 0.250803,-0.05099 0.141938,0 0.256315,0.04823 0.115755,0.04685 0.199816,0.136426 0.106108,0.112999 0.163986,0.296278 0.05926,0.183279 0.05926,0.463021 0,0.254937 -0.05788,0.483691 -0.0565,0.227376 -0.168121,0.377583 -0.118511,0.159852 -0.285253,0.243912 -0.165365,0.08406 -0.409278,0.08406 -0.05512,0 -0.117133,-0.0069 -0.06201,-0.0055 -0.115755,-0.02205 l 0,-0.263205 0.01378,0 q 0.03445,0.01929 0.107487,0.03721 0.07304,0.01791 0.148828,0.01791 0.270096,0 0.424436,-0.177767 0.15434,-0.177767 0.175011,-0.508496 -0.110243,0.07441 -0.21084,0.108865 -0.09922,0.03445 -0.216352,0.03445 -0.114377,0 -0.208084,-0.02481 -0.09371,-0.0248 -0.188791,-0.09646 -0.110243,-0.08406 -0.166743,-0.212218 -0.0565,-0.129536 -0.0565,-0.311437 z"
         style="font-size:2.82222199px;line-height:1.25;stroke-width:0.26458332;stroke:#0000ff"
         id="path5069" />
    </g>
    <g
       style="font-style:normal;font-variant:normal;font-weight:normal;font-stretch:normal;line-height:0%;font-family:Tahoma;-inkscape-font-specification:'Tahoma, Normal';text-align:start;letter-spacing:0px;word-spacing:0px;writing-mode:lr-tb;text-anchor:start;fill:#000000;fill-opacity:1;stroke:#0000ff;stroke-width:0.26458332"
       id="text1055">
      <path
         d="m 66.565129,61.174343 q 0,-0.137804 -0.09233,-0.230133 -0.09233,-0.09233 -0.256315,-0.09233 -0.150207,0 -0.246669,0.08268 -0.09509,0.08268 -0.09509,0.223242 0,0.101975 0.04823,0.172255 0.04961,0.07028 0.14745,0.126779 0.04272,0.02343 0.129536,0.06477 0.08819,0.04134 0.159852,0.06477 0.11989,-0.09233 0.162609,-0.188791 0.04272,-0.09784 0.04272,-0.223242 z m 0.03858,1.028016 q 0,-0.126779 -0.04961,-0.201194 -0.04961,-0.07441 -0.191547,-0.151584 -0.04685,-0.02618 -0.125402,-0.0565 -0.07717,-0.03032 -0.175011,-0.07166 -0.114377,0.07579 -0.175011,0.187413 -0.06063,0.110243 -0.06063,0.252181 0,0.186035 0.111621,0.307302 0.112999,0.121268 0.282498,0.121268 0.173632,0 0.278363,-0.103353 0.104731,-0.104731 0.104731,-0.283876 z m -0.38585,0.592556 q -0.152963,0 -0.278364,-0.04548 -0.125402,-0.04548 -0.213596,-0.130913 -0.08682,-0.08268 -0.132292,-0.195682 -0.0441,-0.114377 -0.0441,-0.241157 0,-0.166742 0.08819,-0.305924 0.08957,-0.14056 0.259071,-0.223242 l 0,-0.0083 q -0.151584,-0.08819 -0.224621,-0.192926 -0.07304,-0.104731 -0.07304,-0.261827 0,-0.23151 0.175011,-0.385851 0.175011,-0.15434 0.443729,-0.15434 0.279741,0 0.447862,0.14745 0.169499,0.146072 0.169499,0.374827 0,0.137803 -0.08131,0.272851 -0.07993,0.135048 -0.23151,0.21084 l 0,0.0083 q 0.179145,0.08406 0.271473,0.20395 0.09233,0.119889 0.09233,0.30868 0,0.263206 -0.191547,0.440973 -0.19017,0.177766 -0.476801,0.177766 z"
         style="font-size:2.82222199px;line-height:1.25;stroke-width:0.26458332;stroke:#0000ff"
         id="path5066" />
    </g>
    <g
       style="font-style:normal;font-variant:normal;font-weight:normal;font-stretch:normal;line-height:0%;font-family:Tahoma;-inkscape-font-specification:'Tahoma, Normal';text-align:start;letter-spacing:0px;word-spacing:0px;writing-mode:lr-tb;text-anchor:start;fill:#000000;fill-opacity:1;stroke:#0000ff;stroke-width:0.26458332"
       id="text1059">
      <path
         d="m 57.704632,61.050318 -0.887456,1.744596 -0.293522,0 0.939822,-1.810742 -1.06109,0 0,-0.241156 1.302246,0 0,0.307302 z"
         style="font-size:2.82222199px;line-height:1.25;stroke-width:0.26458332;stroke:#0000ff"
         id="path5063" />
    </g>
    <g
       style="font-style:normal;font-variant:normal;font-weight:normal;font-stretch:normal;line-height:0%;font-family:Tahoma;-inkscape-font-specification:'Tahoma, Normal';text-align:start;letter-spacing:0px;word-spacing:0px;writing-mode:lr-tb;text-anchor:start;fill:#000000;fill-opacity:1;stroke:#0000ff;stroke-width:0.26458332"
       id="text1063">
      <path
         d="m 49.554733,62.086605 q 0,0.158474 -0.05237,0.292144 -0.05237,0.13367 -0.14056,0.223242 -0.09233,0.09509 -0.206705,0.144694 -0.114377,0.04823 -0.252181,0.04823 -0.139182,0 -0.253559,-0.04685 -0.112999,-0.04685 -0.199816,-0.139182 -0.106109,-0.111621 -0.166742,-0.297656 -0.05926,-0.187413 -0.05926,-0.460265 0,-0.267339 0.05512,-0.482313 0.05512,-0.216352 0.169498,-0.376204 0.111621,-0.155719 0.28801,-0.242535 0.176389,-0.08819 0.407899,-0.08819 0.0689,0 0.128158,0.0069 0.05926,0.0069 0.104731,0.02205 l 0,0.263206 -0.0124,0 q -0.03721,-0.02067 -0.107487,-0.03721 -0.07028,-0.01792 -0.150207,-0.01792 -0.256315,0 -0.414789,0.173633 -0.157096,0.172255 -0.186035,0.51263 0.09784,-0.0689 0.201193,-0.106109 0.103353,-0.03721 0.225999,-0.03721 0.119889,0 0.209461,0.02481 0.09095,0.02343 0.188792,0.09646 0.112999,0.08544 0.16812,0.216352 0.05512,0.130914 0.05512,0.307303 z m -0.279742,0.01102 q 0,-0.126779 -0.03307,-0.212218 -0.03307,-0.08544 -0.107487,-0.146072 -0.05374,-0.0441 -0.122645,-0.05788 -0.06752,-0.01378 -0.139182,-0.01378 -0.09646,0 -0.187413,0.02894 -0.09095,0.02894 -0.179145,0.08406 -0.0028,0.03032 -0.0041,0.05926 -0.0014,0.02756 -0.0014,0.07028 0,0.213596 0.04134,0.34451 0.04272,0.130913 0.104731,0.198437 0.05926,0.06477 0.121267,0.09095 0.06339,0.02618 0.136426,0.02618 0.165364,0 0.267339,-0.118511 0.103353,-0.118511 0.103353,-0.354156 z"
         style="font-size:2.82222199px;line-height:1.25;stroke-width:0.26458332;stroke:#0000ff"
         id="path5060" />
    </g>
    <circle
       cy="-56.365135"
       cx="-41.724777"
       id="circle1065"
       style="fill:none;stroke:#ff0000;stroke-width:0.35277778;stroke-miterlimit:4;stroke-dasharray:none;stroke-opacity:1"
       r="2.5"
       transform="scale(-1,-1)" />
    <circle
       r="2"
       style="fill:none;stroke:#ff0000;stroke-width:0.35277778;stroke-miterlimit:4;stroke-dasharray:none;stroke-opacity:1"
       id="circle1067"
       cx="-35.560402"
       cy="-56.865135"
       transform="scale(-1,-1)" />
    <circle
       r="1.5"
       style="fill:none;stroke:#ff0000;stroke-width:0.35277778;stroke-miterlimit:4;stroke-dasharray:none;stroke-opacity:1"
       id="circle1067-3"
       cx="-30.396034"
       cy="-57.365135"
       transform="scale(-1,-1)" />
    <circle
       cy="-57.865135"
       cx="-26.231667"
       id="circle1084"
       style="fill:none;stroke:#ff0000;stroke-width:0.35277778;stroke-miterlimit:4;stroke-dasharray:none;stroke-opacity:1"
       r="1"
       transform="scale(-1,-1)" />
    <circle
       r="0.5"
       style="fill:none;stroke:#ff0000;stroke-width:0.35277778;stroke-miterlimit:4;stroke-dasharray:none;stroke-opacity:1"
       id="circle1086"
       cx="-23.067314"
       cy="-58.365135"
       transform="scale(-1,-1)" />
    <circle
       r="5"
       style="fill:none;stroke:#ff0000;stroke-width:0.35277778;stroke-miterlimit:4;stroke-dasharray:none;stroke-opacity:1"
       id="circle1088"
       cx="-87.546585"
       cy="-53.865135"
       transform="scale(-1,-1)" />
    <circle
       cy="-52.865135"
       cx="-100.21095"
       id="circle1090"
       style="fill:none;stroke:#ff0000;stroke-width:0.35277778;stroke-miterlimit:4;stroke-dasharray:none;stroke-opacity:1"
       r="6"
       transform="scale(-1,-1)" />
    <circle
       r="7"
       cy="-51.865135"
       cx="-114.87534"
       id="circle1092"
       style="fill:none;stroke:#ff0000;stroke-width:0.35277778;stroke-miterlimit:4;stroke-dasharray:none;stroke-opacity:1"
       transform="scale(-1,-1)" />
    <circle
       r="10"
       style="fill:none;stroke:#ff0000;stroke-width:0.35277778;stroke-miterlimit:4;stroke-dasharray:none;stroke-opacity:1"
       id="circle1094"
       cx="54.774414"
       cy="36.873459" />
    <g
       style="font-style:normal;font-variant:normal;font-weight:normal;font-stretch:normal;line-height:0%;font-family:Tahoma;-inkscape-font-specification:'Tahoma, Normal';text-align:start;letter-spacing:0px;word-spacing:0px;writing-mode:lr-tb;text-anchor:start;fill:#000000;fill-opacity:1;stroke:#0000ff;stroke-width:0.26458332"
       id="text1098">
      <path
         d="m 54.631101,25.842813 -1.266417,0 0,-0.288009 q 0.136425,-0.129536 0.257693,-0.248047 0.121267,-0.118512 0.237022,-0.246669 0.234267,-0.257693 0.319705,-0.412034 0.08544,-0.155718 0.08544,-0.321082 0,-0.08544 -0.02756,-0.150207 -0.02618,-0.06477 -0.07304,-0.107487 -0.04823,-0.04134 -0.111621,-0.06201 -0.06339,-0.02067 -0.139182,-0.02067 -0.07304,0 -0.148828,0.01929 -0.07441,0.01791 -0.143316,0.04547 -0.05788,0.02343 -0.111621,0.0565 -0.05374,0.03307 -0.08682,0.0565 l -0.01516,0 0,-0.292144 q 0.08544,-0.04272 0.237022,-0.08268 0.152963,-0.04134 0.289388,-0.04134 0.286632,0 0.449241,0.152962 0.162608,0.151584 0.162608,0.412033 0,0.11989 -0.02894,0.221864 -0.02756,0.101975 -0.07717,0.188792 -0.05099,0.08957 -0.122645,0.177766 -0.07166,0.08819 -0.151584,0.173633 -0.129536,0.14056 -0.289388,0.292144 -0.158475,0.151585 -0.253559,0.239779 l 1.008724,0 0,0.235644 z"
         style="font-size:2.82222199px;line-height:1.25;stroke-width:0.26458332;stroke:#0000ff"
         id="path5087" />
      <path
         d="m 56.18415,24.816175 q 0,0.552593 -0.161231,0.811665 -0.159852,0.257693 -0.494716,0.257693 -0.338997,0 -0.497471,-0.263206 -0.158475,-0.263205 -0.158475,-0.803396 0,-0.555349 0.159853,-0.811664 0.16123,-0.257693 0.496093,-0.257693 0.338998,0 0.497472,0.265961 0.158475,0.265961 0.158475,0.80064 z m -0.352778,0.625629 q 0.03996,-0.101974 0.0565,-0.257693 0.01654,-0.155718 0.01654,-0.367936 0,-0.21084 -0.01654,-0.366558 -0.01654,-0.155718 -0.05788,-0.259071 -0.04134,-0.104731 -0.114377,-0.158475 -0.07166,-0.05512 -0.187414,-0.05512 -0.114377,0 -0.188791,0.05512 -0.07304,0.05374 -0.115755,0.161231 -0.04134,0.104731 -0.0565,0.264583 -0.01516,0.159853 -0.01516,0.361046 0,0.214974 0.0124,0.359668 0.01378,0.144694 0.05788,0.259071 0.03996,0.106109 0.112999,0.163987 0.07441,0.0565 0.192925,0.0565 0.114378,0 0.187414,-0.05374 0.07441,-0.05512 0.115755,-0.162609 z"
         style="font-size:2.82222199px;line-height:1.25;stroke-width:0.26458332;stroke:#0000ff"
         id="path5089" />
    </g>
    <g
       style="font-style:normal;font-variant:normal;font-weight:normal;font-stretch:normal;line-height:0%;font-family:Tahoma;-inkscape-font-specification:'Tahoma, Normal';text-align:start;letter-spacing:0px;word-spacing:0px;writing-mode:lr-tb;text-anchor:start;fill:#000000;fill-opacity:1;stroke:#0000ff;stroke-width:0.26458332"
       id="text1102">
      <path
         d="m 23.567546,62.794914 -1.000456,0 0,-0.209462 0.37207,0 0,-1.375282 -0.37207,0 0,-0.187413 q 0.21084,0 0.310059,-0.05926 0.100596,-0.06063 0.112999,-0.227377 l 0.213596,0 0,1.849327 0.363802,0 0,0.209462 z"
         style="font-size:2.82222199px;line-height:1.25;stroke-width:0.26458332;stroke:#0000ff"
         id="path5057" />
    </g>
    <g
       style="font-style:normal;font-variant:normal;font-weight:normal;font-stretch:normal;line-height:0%;font-family:Tahoma;-inkscape-font-specification:'Tahoma, Normal';text-align:start;letter-spacing:0px;word-spacing:0px;writing-mode:lr-tb;text-anchor:start;fill:#000000;fill-opacity:1;stroke:#0000ff;stroke-width:0.26458332"
       id="text1106">
      <path
         d="m 26.864873,62.794914 -1.266417,0 0,-0.28801 q 0.136426,-0.129535 0.257693,-0.248047 0.121267,-0.118511 0.237023,-0.246668 0.234266,-0.257694 0.319704,-0.412034 0.08544,-0.155718 0.08544,-0.321083 0,-0.08544 -0.02756,-0.150206 -0.02618,-0.06477 -0.07304,-0.107487 -0.04823,-0.04134 -0.111621,-0.06201 -0.06339,-0.02067 -0.139182,-0.02067 -0.07304,0 -0.148828,0.01929 -0.07441,0.01792 -0.143316,0.04548 -0.05788,0.02343 -0.111621,0.0565 -0.05374,0.03307 -0.08682,0.0565 l -0.01516,0 0,-0.292144 q 0.08544,-0.04272 0.237023,-0.08268 0.152962,-0.04134 0.289388,-0.04134 0.286632,0 0.44924,0.152963 0.162609,0.151584 0.162609,0.412033 0,0.119889 -0.02894,0.221864 -0.02756,0.101975 -0.07717,0.188791 -0.05099,0.08957 -0.122646,0.177767 -0.07166,0.0882 -0.151584,0.173633 -0.129535,0.14056 -0.289388,0.292144 -0.158474,0.151584 -0.253559,0.239779 l 1.008724,0 0,0.235644 z"
         style="font-size:2.82222199px;line-height:1.25;stroke-width:0.26458332;stroke:#0000ff"
         id="path5054" />
    </g>
    <g
       style="font-style:normal;font-variant:normal;font-weight:normal;font-stretch:normal;line-height:0%;font-family:Tahoma;-inkscape-font-specification:'Tahoma, Normal';text-align:start;letter-spacing:0px;word-spacing:0px;writing-mode:lr-tb;text-anchor:start;fill:#000000;fill-opacity:1;stroke:#0000ff;stroke-width:0.26458332"
       id="text1110">
      <path
         d="m 30.342979,60.89598 q -0.07441,0 -0.148828,0.01791 -0.07441,0.01792 -0.146072,0.04685 -0.06615,0.02756 -0.115755,0.05788 -0.04823,0.03032 -0.08682,0.0565 l -0.01654,0 0,-0.290766 q 0.08957,-0.04823 0.242535,-0.08682 0.15434,-0.03996 0.293522,-0.03996 0.139181,0 0.242534,0.02894 0.104731,0.02756 0.188792,0.08682 0.09095,0.06614 0.136425,0.159852 0.04685,0.09371 0.04685,0.219108 0,0.169499 -0.111621,0.297656 -0.111622,0.128158 -0.26734,0.162609 l 0,0.01929 q 0.06477,0.0124 0.137804,0.04272 0.07441,0.03032 0.137804,0.08957 0.06339,0.05926 0.103353,0.152962 0.03996,0.09233 0.03996,0.225998 0,0.139182 -0.04823,0.256316 -0.04685,0.115755 -0.133669,0.205327 -0.08957,0.09371 -0.216352,0.141938 -0.12678,0.04823 -0.28801,0.04823 -0.15434,0 -0.305925,-0.03721 -0.151584,-0.03721 -0.254937,-0.08957 l 0,-0.290766 0.01929,0 q 0.08682,0.06339 0.232888,0.121267 0.146072,0.05788 0.292144,0.05788 0.08406,0 0.168121,-0.02618 0.08544,-0.02756 0.141938,-0.08819 0.05512,-0.06063 0.08406,-0.13367 0.02894,-0.07304 0.02894,-0.184657 0,-0.111621 -0.03307,-0.183279 -0.03169,-0.07166 -0.08957,-0.112999 -0.05788,-0.04134 -0.137804,-0.0565 -0.07855,-0.01654 -0.170877,-0.01654 l -0.117133,0 0,-0.228755 0.09095,0 q 0.186036,0 0.301791,-0.08819 0.117133,-0.08819 0.117133,-0.256315 0,-0.07717 -0.03032,-0.132292 -0.03032,-0.0565 -0.07717,-0.08957 -0.05237,-0.03583 -0.115755,-0.04961 -0.06339,-0.01378 -0.135048,-0.01378 z"
         style="font-size:2.82222199px;line-height:1.25;stroke-width:0.26458332;stroke:#0000ff"
         id="path5051" />
    </g>
    <g
       style="font-style:normal;font-variant:normal;font-weight:normal;font-stretch:normal;line-height:0%;font-family:Tahoma;-inkscape-font-specification:'Tahoma, Normal';text-align:start;letter-spacing:0px;word-spacing:0px;writing-mode:lr-tb;text-anchor:start;fill:#000000;fill-opacity:1;stroke:#0000ff;stroke-width:0.26458332"
       id="text1114">
      <path
         d="m 36.268027,62.089359 -0.243912,0 0,0.705555 -0.264584,0 0,-0.705555 -0.906749,0 0,-0.289388 0.917774,-1.056955 0.253559,0 0,1.125857 0.243912,0 0,0.220486 z m -0.508496,-0.220486 0,-0.802019 -0.691775,0.802019 0.691775,0 z"
         style="font-size:2.82222199px;line-height:1.25;stroke-width:0.26458332;stroke:#0000ff"
         id="path5048" />
    </g>
    <g
       style="font-style:normal;font-variant:normal;font-weight:normal;font-stretch:normal;line-height:0%;font-family:Tahoma;-inkscape-font-specification:'Tahoma, Normal';text-align:start;letter-spacing:0px;word-spacing:0px;writing-mode:lr-tb;text-anchor:start;fill:#000000;fill-opacity:1;stroke:#0000ff;stroke-width:0.26458332"
       id="text1118">
      <path
         d="m 42.33593,62.099007 q 0,0.148828 -0.04823,0.275608 -0.04685,0.126779 -0.132292,0.219108 -0.08682,0.09371 -0.216352,0.14745 -0.128157,0.05374 -0.28801,0.05374 -0.14745,0 -0.290766,-0.03307 -0.141938,-0.0317 -0.246669,-0.08406 l 0,-0.290766 0.01929,0 q 0.03169,0.02343 0.09095,0.05374 0.05926,0.02894 0.130913,0.05512 0.0813,0.02894 0.148828,0.04547 0.06752,0.01516 0.151584,0.01516 0.08268,0 0.161231,-0.02894 0.07855,-0.03032 0.135048,-0.09646 0.05099,-0.06063 0.07717,-0.141938 0.02756,-0.0813 0.02756,-0.191547 0,-0.108865 -0.03032,-0.179145 -0.02894,-0.07028 -0.08544,-0.115755 -0.05926,-0.05237 -0.146072,-0.07304 -0.08544,-0.02205 -0.191547,-0.02205 -0.111621,0 -0.22462,0.01791 -0.112999,0.01654 -0.180523,0.0317 l 0,-1.056955 1.125857,0 0,0.241156 -0.859896,0 0,0.545703 q 0.04961,-0.0055 0.09784,-0.0083 0.04823,-0.0028 0.08819,-0.0028 0.157097,0 0.265962,0.02618 0.108865,0.02618 0.209461,0.101975 0.101975,0.07717 0.155719,0.192925 0.05512,0.115755 0.05512,0.30179 z"
         style="font-size:2.82222199px;line-height:1.25;stroke-width:0.26458332;stroke:#0000ff"
         id="path5045" />
    </g>
    <g
       style="font-style:normal;font-variant:normal;font-weight:normal;font-stretch:normal;line-height:0%;font-family:Tahoma;-inkscape-font-specification:'Tahoma, Normal';text-align:start;letter-spacing:0px;word-spacing:0px;writing-mode:lr-tb;text-anchor:start;fill:#000000;fill-opacity:1;stroke:#0000ff;stroke-width:0.26458332"
       id="text1122">
      <path
         d="m 87.217929,62.752197 -1.000456,0 0,-0.209462 0.37207,0 0,-1.375282 -0.37207,0 0,-0.187413 q 0.21084,0 0.310059,-0.05926 0.100596,-0.06063 0.112999,-0.227377 l 0.213596,0 0,1.849327 0.363802,0 0,0.209462 z"
         style="font-size:2.82222199px;line-height:1.25;stroke-width:0.26458332;stroke:#0000ff"
         id="path5040" />
      <path
         d="m 88.875708,61.725559 q 0,0.552593 -0.16123,0.811664 -0.159852,0.257693 -0.494716,0.257693 -0.338997,0 -0.497471,-0.263205 -0.158475,-0.263205 -0.158475,-0.803396 0,-0.555349 0.159853,-0.811664 0.16123,-0.257694 0.496093,-0.257694 0.338998,0 0.497472,0.265962 0.158474,0.265961 0.158474,0.80064 z m -0.352777,0.625629 q 0.03996,-0.101975 0.0565,-0.257693 0.01654,-0.155718 0.01654,-0.367936 0,-0.21084 -0.01654,-0.366558 -0.01654,-0.155719 -0.05788,-0.259071 -0.04134,-0.104731 -0.114377,-0.158475 -0.07166,-0.05512 -0.187414,-0.05512 -0.114377,0 -0.188791,0.05512 -0.07304,0.05374 -0.115755,0.161231 -0.04134,0.104731 -0.0565,0.264583 -0.01516,0.159852 -0.01516,0.361046 0,0.214974 0.0124,0.359668 0.01378,0.144694 0.05788,0.259071 0.03996,0.106109 0.112999,0.163987 0.07441,0.0565 0.192925,0.0565 0.114377,0 0.187414,-0.05374 0.07441,-0.05512 0.115755,-0.162609 z"
         style="font-size:2.82222199px;line-height:1.25;stroke-width:0.26458332;stroke:#0000ff"
         id="path5042" />
    </g>
    <g
       style="font-style:normal;font-variant:normal;font-weight:normal;font-stretch:normal;line-height:0%;font-family:Tahoma;-inkscape-font-specification:'Tahoma, Normal';text-align:start;letter-spacing:0px;word-spacing:0px;writing-mode:lr-tb;text-anchor:start;fill:#000000;fill-opacity:1;stroke:#0000ff;stroke-width:0.26458332"
       id="text1126">
      <path
         d="m 99.887118,62.794914 -1.000456,0 0,-0.209462 0.372071,0 0,-1.375282 -0.372071,0 0,-0.187413 q 0.21084,0 0.310059,-0.05926 0.100597,-0.06063 0.112999,-0.227377 l 0.213596,0 0,1.849327 0.363802,0 0,0.209462 z"
         style="font-size:2.82222199px;line-height:1.25;stroke-width:0.26458332;stroke:#0000ff"
         id="path5035" />
      <path
         d="m 101.53525,62.794914 -1.26642,0 0,-0.28801 q 0.13643,-0.129535 0.2577,-0.248047 0.12127,-0.118511 0.23702,-0.246668 0.23427,-0.257694 0.31971,-0.412034 0.0854,-0.155718 0.0854,-0.321083 0,-0.08544 -0.0276,-0.150206 -0.0262,-0.06477 -0.073,-0.107487 -0.0482,-0.04134 -0.11162,-0.06201 -0.0634,-0.02067 -0.13919,-0.02067 -0.073,0 -0.14882,0.01929 -0.0744,0.01792 -0.14332,0.04548 -0.0579,0.02343 -0.11162,0.0565 -0.0537,0.03307 -0.0868,0.0565 l -0.0152,0 0,-0.292144 q 0.0854,-0.04272 0.23703,-0.08268 0.15296,-0.04134 0.28938,-0.04134 0.28664,0 0.44924,0.152963 0.16261,0.151584 0.16261,0.412033 0,0.119889 -0.0289,0.221864 -0.0276,0.101975 -0.0772,0.188791 -0.051,0.08957 -0.12264,0.177767 -0.0717,0.0882 -0.15159,0.173633 -0.12953,0.14056 -0.28938,0.292144 -0.15848,0.151584 -0.25356,0.239779 l 1.00872,0 0,0.235644 z"
         style="font-size:2.82222199px;line-height:1.25;stroke-width:0.26458332;stroke:#0000ff"
         id="path5037" />
    </g>
    <g
       style="font-style:normal;font-variant:normal;font-weight:normal;font-stretch:normal;line-height:0%;font-family:Tahoma;-inkscape-font-specification:'Tahoma, Normal';text-align:start;letter-spacing:0px;word-spacing:0px;writing-mode:lr-tb;text-anchor:start;fill:#000000;fill-opacity:1;stroke:#0000ff;stroke-width:0.26458332"
       id="text1047-0">
      <path
         d="m 114.42783,25.842813 -1.00046,0 0,-0.209461 0.37207,0 0,-1.375282 -0.37207,0 0,-0.187413 q 0.21084,0 0.31006,-0.05926 0.1006,-0.06063 0.113,-0.227376 l 0.2136,0 0,1.849327 0.3638,0 0,0.209461 z"
         style="font-size:2.82222199px;line-height:1.25;stroke-width:0.26458332;stroke:#0000ff"
         id="path5082" />
      <path
         d="m 116.10766,25.177221 q 0,0.158474 -0.0524,0.292144 -0.0524,0.13367 -0.14056,0.223242 -0.0923,0.09509 -0.2067,0.144694 -0.11438,0.04823 -0.25219,0.04823 -0.13918,0 -0.25355,-0.04685 -0.113,-0.04685 -0.19982,-0.139181 -0.10611,-0.111622 -0.16674,-0.297657 -0.0593,-0.187413 -0.0593,-0.460264 0,-0.26734 0.0551,-0.482314 0.0551,-0.216352 0.1695,-0.376204 0.11162,-0.155718 0.28801,-0.242535 0.17639,-0.08819 0.4079,-0.08819 0.0689,0 0.12816,0.0069 0.0593,0.0069 0.10473,0.02205 l 0,0.263205 -0.0124,0 q -0.0372,-0.02067 -0.10749,-0.03721 -0.0703,-0.01791 -0.15021,-0.01791 -0.25631,0 -0.41478,0.173633 -0.1571,0.172255 -0.18604,0.51263 0.0978,-0.0689 0.20119,-0.106109 0.10336,-0.03721 0.226,-0.03721 0.11989,0 0.20946,0.02481 0.0909,0.02343 0.18879,0.09646 0.113,0.08544 0.16813,0.216352 0.0551,0.130913 0.0551,0.307302 z m -0.27974,0.01102 q 0,-0.126779 -0.0331,-0.212217 -0.0331,-0.08544 -0.10748,-0.146072 -0.0537,-0.0441 -0.12265,-0.05788 -0.0675,-0.01378 -0.13918,-0.01378 -0.0965,0 -0.18742,0.02894 -0.091,0.02894 -0.17914,0.08406 -0.003,0.03032 -0.004,0.05926 -0.001,0.02756 -0.001,0.07028 0,0.213596 0.0413,0.34451 0.0427,0.130913 0.10473,0.198437 0.0593,0.06477 0.12127,0.09095 0.0634,0.02618 0.13642,0.02618 0.16537,0 0.26734,-0.118511 0.10336,-0.118511 0.10336,-0.354156 z"
         style="font-size:2.82222199px;line-height:1.25;stroke-width:0.26458332;stroke:#0000ff"
         id="path5084" />
    </g>
    <circle
       r="9"
       style="fill:none;stroke:#ff0000;stroke-width:0.35277778;stroke-miterlimit:4;stroke-dasharray:none;stroke-opacity:1"
       id="circle1146"
       cx="96.103149"
       cy="35.873459" />
    <g
       style="font-style:normal;font-variant:normal;font-weight:normal;font-stretch:normal;line-height:0%;font-family:Tahoma;-inkscape-font-specification:'Tahoma, Normal';text-align:start;letter-spacing:0px;word-spacing:0px;writing-mode:lr-tb;text-anchor:start;fill:#000000;fill-opacity:1;stroke:#0000ff;stroke-width:0.26458332"
       id="text1150">
      <path
         d="m 95.768283,25.838678 -1.000456,0 0,-0.209461 0.37207,0 0,-1.375282 -0.37207,0 0,-0.187414 q 0.21084,0 0.310059,-0.05926 0.100596,-0.06063 0.112999,-0.227377 l 0.213596,0 0,1.849328 0.363802,0 0,0.209461 z"
         style="font-size:2.82222199px;line-height:1.25;stroke-width:0.26458332;stroke:#0000ff"
         id="path5077" />
      <path
         d="m 97.117382,24.264959 q 0,-0.137804 -0.09233,-0.230132 -0.09233,-0.09233 -0.256315,-0.09233 -0.150206,0 -0.246669,0.08268 -0.09508,0.08268 -0.09508,0.223242 0,0.101975 0.04823,0.172255 0.04961,0.07028 0.14745,0.12678 0.04272,0.02343 0.129536,0.06477 0.08819,0.04134 0.159852,0.06477 0.11989,-0.09233 0.162609,-0.188791 0.04272,-0.09784 0.04272,-0.223242 z m 0.03858,1.028016 q 0,-0.126779 -0.04961,-0.201193 -0.04961,-0.07441 -0.191548,-0.151584 -0.04685,-0.02618 -0.125401,-0.0565 -0.07717,-0.03032 -0.175011,-0.07166 -0.114377,0.07579 -0.175011,0.187413 -0.06063,0.110243 -0.06063,0.252181 0,0.186035 0.111621,0.307303 0.112999,0.121267 0.282497,0.121267 0.173633,0 0.278364,-0.103353 0.104731,-0.104731 0.104731,-0.283876 z m -0.385851,0.592557 q -0.152962,0 -0.278363,-0.04548 -0.125402,-0.04547 -0.213596,-0.130913 -0.08682,-0.08268 -0.132292,-0.195682 -0.0441,-0.114377 -0.0441,-0.241156 0,-0.166743 0.08819,-0.305925 0.08957,-0.14056 0.259071,-0.223242 l 0,-0.0083 q -0.151584,-0.0882 -0.22462,-0.192925 -0.07304,-0.104731 -0.07304,-0.261828 0,-0.23151 0.175011,-0.38585 0.175011,-0.154341 0.443728,-0.154341 0.279742,0 0.447863,0.14745 0.169498,0.146072 0.169498,0.374827 0,0.137804 -0.0813,0.272851 -0.07993,0.135048 -0.23151,0.21084 l 0,0.0083 q 0.179145,0.08406 0.271473,0.20395 0.09233,0.119889 0.09233,0.308681 0,0.263205 -0.191547,0.440972 -0.19017,0.177767 -0.476802,0.177767 z"
         style="font-size:2.82222199px;line-height:1.25;stroke-width:0.26458332;stroke:#0000ff"
         id="path5079" />
    </g>
    <g
       transform="matrix(0,-1,1,0,0,0)"
       style="font-style:normal;font-variant:normal;font-weight:normal;font-stretch:normal;line-height:0%;font-family:Tahoma;-inkscape-font-specification:'Tahoma, Normal';text-align:start;letter-spacing:0px;word-spacing:0px;writing-mode:lr-tb;text-anchor:start;fill:#000000;fill-opacity:1;stroke:#0000ff;stroke-width:0.26458332"
       id="text1154">
      <path
         d="m -48.306423,125.52122 0,-0.89022 q 0,-0.1061 -0.0083,-0.19568 -0.0083,-0.091 -0.03445,-0.14193 -0.02756,-0.0551 -0.07855,-0.0813 -0.05099,-0.0262 -0.137804,-0.0262 -0.07993,0 -0.172255,0.0496 -0.09095,0.0482 -0.188791,0.14056 0.0014,0.0234 0.0028,0.0565 0.0028,0.0317 0.0028,0.0758 l 0,1.01286 -0.259071,0 0,-0.89022 q 0,-0.1061 -0.0083,-0.19568 -0.0083,-0.091 -0.03445,-0.14193 -0.02756,-0.0551 -0.07855,-0.0813 -0.05099,-0.0262 -0.137804,-0.0262 -0.08406,0 -0.176389,0.0524 -0.09233,0.0524 -0.179145,0.13367 l 0,1.14929 -0.259071,0 0,-1.53927 0.259071,0 0,0.17088 q 0.101975,-0.10198 0.201194,-0.1571 0.100597,-0.0565 0.220486,-0.0565 0.136426,0 0.241157,0.062 0.106109,0.062 0.16123,0.20395 0.117133,-0.13091 0.228754,-0.19844 0.111621,-0.0675 0.242535,-0.0675 0.09922,0 0.180523,0.0317 0.0813,0.0303 0.141938,0.0992 0.06201,0.0703 0.09508,0.17501 0.03445,0.10473 0.03445,0.26321 l 0,1.01286 -0.259072,0 z"
         style="font-size:2.82222199px;line-height:1.25;stroke-width:0.26458332;stroke:#0000ff"
         id="path5102" />
      <path
         d="m -45.936197,125.52122 0,-0.89022 q 0,-0.1061 -0.0083,-0.19568 -0.0083,-0.091 -0.03445,-0.14193 -0.02756,-0.0551 -0.07855,-0.0813 -0.05099,-0.0262 -0.137803,-0.0262 -0.07993,0 -0.172255,0.0496 -0.09095,0.0482 -0.188791,0.14056 0.0014,0.0234 0.0028,0.0565 0.0028,0.0317 0.0028,0.0758 l 0,1.01286 -0.259071,0 0,-0.89022 q 0,-0.1061 -0.0083,-0.19568 -0.0083,-0.091 -0.03445,-0.14193 -0.02756,-0.0551 -0.07855,-0.0813 -0.05099,-0.0262 -0.137803,-0.0262 -0.08406,0 -0.176389,0.0524 -0.09233,0.0524 -0.179145,0.13367 l 0,1.14929 -0.259071,0 0,-1.53927 0.259071,0 0,0.17088 q 0.101975,-0.10198 0.201193,-0.1571 0.100597,-0.0565 0.220486,-0.0565 0.136426,0 0.241157,0.062 0.106109,0.062 0.16123,0.20395 0.117134,-0.13091 0.228755,-0.19844 0.111621,-0.0675 0.242535,-0.0675 0.09922,0 0.180523,0.0317 0.0813,0.0303 0.141937,0.0992 0.06201,0.0703 0.09509,0.17501 0.03445,0.10473 0.03445,0.26321 l 0,1.01286 -0.259071,0 z"
         style="font-size:2.82222199px;line-height:1.25;stroke-width:0.26458332;stroke:#0000ff"
         id="path5104" />
      <path
         d="m -43.505338,125.10367 0,-0.84474 q -0.09646,-0.0469 -0.179145,-0.0661 -0.0813,-0.0207 -0.162609,-0.0207 -0.197059,0 -0.310058,0.14469 -0.112999,0.1447 -0.112999,0.41479 0,0.25632 0.08544,0.38999 0.08682,0.13367 0.279742,0.13367 0.100596,0 0.206705,-0.04 0.107487,-0.04 0.192926,-0.11162 z m -0.87092,0.66422 q 0.02618,0.011 0.07717,0.0289 0.05099,0.0193 0.115755,0.0358 0.07166,0.0179 0.132292,0.0289 0.06063,0.011 0.132291,0.011 0.11989,0 0.202572,-0.0317 0.08406,-0.0317 0.130914,-0.0882 0.0441,-0.0565 0.06201,-0.13092 0.01791,-0.0744 0.01791,-0.16949 l 0,-0.13505 q -0.104731,0.091 -0.205328,0.13505 -0.100597,0.0427 -0.252181,0.0427 -0.263205,0 -0.418923,-0.19568 -0.155719,-0.19568 -0.155719,-0.56224 0,-0.19154 0.05374,-0.33899 0.05374,-0.14883 0.144694,-0.25218 0.08682,-0.0992 0.205327,-0.15297 0.118512,-0.0537 0.245291,-0.0537 0.119889,0 0.206706,0.0289 0.08819,0.0276 0.176389,0.0799 l 0.01516,-0.0661 0.243913,0 0,1.36426 q 0,0.39136 -0.170877,0.57464 -0.170877,0.18328 -0.522276,0.18328 -0.112999,0 -0.231511,-0.0179 -0.117133,-0.0179 -0.219108,-0.0482 l 0,-0.27009 0.01378,0 z"
         style="font-size:2.82222199px;line-height:1.25;stroke-width:0.26458332;stroke:#0000ff"
         id="path5106" />
      <path
         d="m -41.672547,125.52122 -0.259071,0 0,-0.17088 q -0.11989,0.10473 -0.227377,0.15985 -0.107487,0.0538 -0.239778,0.0538 -0.100597,0 -0.19017,-0.0331 -0.08819,-0.0331 -0.15434,-0.10473 -0.06615,-0.0717 -0.103353,-0.18052 -0.03583,-0.10887 -0.03583,-0.26458 l 0,-0.99908 0.259071,0 0,0.87643 q 0,0.12265 0.0083,0.20395 0.0096,0.0799 0.04134,0.14056 0.0317,0.0593 0.08544,0.0868 0.05512,0.0276 0.157096,0.0276 0.09508,0 0.202572,-0.0537 0.107487,-0.0537 0.19706,-0.13229 l 0,-1.14928 0.259071,0 0,1.53927 z"
         style="font-size:2.82222199px;line-height:1.25;stroke-width:0.26458332;stroke:#0000ff"
         id="path5108" />
      <path
         d="m -40.435069,125.14226 0,-0.42719 q -0.09233,0.008 -0.234267,0.0234 -0.140559,0.0138 -0.227376,0.04 -0.103353,0.0317 -0.170877,0.0978 -0.06752,0.0648 -0.06752,0.1819 0,0.13229 0.07441,0.19981 0.07441,0.0675 0.21773,0.0675 0.122645,0 0.221864,-0.0524 0.09922,-0.0537 0.186035,-0.13091 z m 0,0.21497 q -0.03169,0.0234 -0.08544,0.0661 -0.05237,0.0413 -0.101975,0.0661 -0.0689,0.0358 -0.13367,0.0551 -0.06339,0.0193 -0.179145,0.0193 -0.09509,0 -0.180523,-0.0358 -0.08544,-0.0358 -0.150206,-0.1006 -0.06201,-0.0634 -0.09922,-0.15572 -0.03721,-0.0937 -0.03721,-0.19706 0,-0.15985 0.06752,-0.27147 0.06752,-0.113 0.213596,-0.17915 0.129536,-0.0593 0.305924,-0.0813 0.176389,-0.0234 0.380339,-0.0345 l 0,-0.0496 q 0,-0.0909 -0.02756,-0.14607 -0.02756,-0.0565 -0.07717,-0.0868 -0.04961,-0.0317 -0.121267,-0.0413 -0.07166,-0.011 -0.14745,-0.011 -0.08957,0 -0.21084,0.0276 -0.121268,0.0262 -0.242535,0.0772 l -0.01516,0 0,-0.26321 q 0.07166,-0.0207 0.205327,-0.0455 0.13367,-0.0248 0.264584,-0.0248 0.158474,0 0.267339,0.0248 0.108865,0.0248 0.195681,0.0896 0.08406,0.0634 0.125402,0.16399 0.04134,0.10059 0.04134,0.24529 l 0,1.05282 -0.257693,0 0,-0.16399 z"
         style="font-size:2.82222199px;line-height:1.25;stroke-width:0.26458332;stroke:#0000ff"
         id="path5110" />
      <path
         d="m -38.886154,125.10367 0,-0.84474 q -0.09646,-0.0469 -0.179145,-0.0661 -0.0813,-0.0207 -0.162609,-0.0207 -0.197059,0 -0.310058,0.14469 -0.112999,0.1447 -0.112999,0.41479 0,0.25632 0.08544,0.38999 0.08682,0.13367 0.279742,0.13367 0.100597,0 0.206705,-0.04 0.107487,-0.04 0.192926,-0.11162 z m -0.87092,0.66422 q 0.02618,0.011 0.07717,0.0289 0.05099,0.0193 0.115755,0.0358 0.07166,0.0179 0.132292,0.0289 0.06063,0.011 0.132291,0.011 0.11989,0 0.202572,-0.0317 0.08406,-0.0317 0.130914,-0.0882 0.0441,-0.0565 0.06201,-0.13092 0.01792,-0.0744 0.01792,-0.16949 l 0,-0.13505 q -0.104731,0.091 -0.205328,0.13505 -0.100597,0.0427 -0.252181,0.0427 -0.263205,0 -0.418923,-0.19568 -0.155719,-0.19568 -0.155719,-0.56224 0,-0.19154 0.05374,-0.33899 0.05374,-0.14883 0.144694,-0.25218 0.08682,-0.0992 0.205327,-0.15297 0.118512,-0.0537 0.245291,-0.0537 0.11989,0 0.206706,0.0289 0.08819,0.0276 0.176389,0.0799 l 0.01516,-0.0661 0.243913,0 0,1.36426 q 0,0.39136 -0.170877,0.57464 -0.170877,0.18328 -0.522276,0.18328 -0.112999,0 -0.231511,-0.0179 -0.117133,-0.0179 -0.219108,-0.0482 l 0,-0.27009 0.01378,0 z"
         style="font-size:2.82222199px;line-height:1.25;stroke-width:0.26458332;stroke:#0000ff"
         id="path5112" />
      <path
         d="m -37.583908,125.55705 q -0.367936,0 -0.571886,-0.20671 -0.202571,-0.20808 -0.202571,-0.5898 0,-0.3762 0.197059,-0.59807 0.19706,-0.22324 0.515386,-0.22324 0.143316,0 0.253559,0.0413 0.110243,0.0413 0.192926,0.12954 0.08268,0.0882 0.126779,0.21635 0.0441,0.12678 0.0441,0.31143 l 0,0.14056 -1.066601,0 q 0,0.26872 0.135048,0.41066 0.135047,0.14194 0.373448,0.14194 0.08544,0 0.166743,-0.0193 0.08268,-0.0193 0.148828,-0.0496 0.07028,-0.0317 0.118511,-0.0606 0.04823,-0.0303 0.07993,-0.0565 l 0.01516,0 0,0.2825 q -0.04548,0.0179 -0.113,0.0455 -0.06752,0.0262 -0.121267,0.0413 -0.07579,0.0207 -0.137804,0.0317 -0.06063,0.011 -0.15434,0.011 z m 0.303168,-0.97703 q -0.0028,-0.10473 -0.0248,-0.18053 -0.02205,-0.0758 -0.06339,-0.12815 -0.04547,-0.0579 -0.117133,-0.0882 -0.07028,-0.0303 -0.175011,-0.0303 -0.103353,0 -0.176389,0.0317 -0.07166,0.0303 -0.130914,0.0896 -0.05788,0.0606 -0.08819,0.13505 -0.03032,0.073 -0.03858,0.17088 l 0.81442,0 z"
         style="font-size:2.82222199px;line-height:1.25;stroke-width:0.26458332;stroke:#0000ff"
         id="path5114" />
    </g>
    <rect
       style="fill:none;stroke:#ff0000;stroke-width:0.25354525;stroke-opacity:1"
       id="rect5548"
       width="6.4000001"
       height="46"
       x="71.098259"
       y="-102.67334"
       transform="matrix(0,1,-1,0,0,0)" />
    <rect
       y="-102.67334"
       x="79.564926"
       height="46.200001"
       width="6.1999998"
       id="rect1166"
       style="fill:none;stroke:#ff0000;stroke-width:0.25009409;stroke-opacity:1"
       transform="matrix(0,1,-1,0,0,0)" />
    <text
       xml:space="preserve"
       style="font-style:normal;font-variant:normal;font-weight:normal;font-stretch:normal;line-height:0%;font-family:Tahoma;-inkscape-font-specification:'Tahoma, Normal';text-align:start;letter-spacing:0px;word-spacing:0px;writing-mode:lr-tb;text-anchor:start;fill:#000000;fill-opacity:1;stroke:none;stroke-width:0.26458332"
       x="73.649208"
       y="-53.784031"
       id="text1170"
       transform="rotate(90)"><tspan
         sodipodi:role="line"
         id="tspan1168"
         x="73.649208"
         y="-53.784031"
         style="font-size:2.82222199px;line-height:1.25;stroke-width:0.26458332">s</tspan></text>
    <text
       xml:space="preserve"
       style="font-style:normal;font-variant:normal;font-weight:normal;font-stretch:normal;line-height:0%;font-family:Tahoma;-inkscape-font-specification:'Tahoma, Normal';text-align:start;letter-spacing:0px;word-spacing:0px;writing-mode:lr-tb;text-anchor:start;fill:#000000;fill-opacity:1;stroke:none;stroke-width:0.26458332"
       x="81.862221"
       y="-53.746822"
       id="text1174"
       transform="rotate(90)"><tspan
         sodipodi:role="line"
         id="tspan1172"
         x="81.862221"
         y="-53.746822"
         style="font-size:2.82222199px;line-height:1.25;stroke-width:0.26458332">L</tspan></text>
    <circle
       transform="scale(-1,-1)"
       r="3.5"
       style="fill:none;stroke:#ff0000;stroke-width:0.35277778;stroke-miterlimit:4;stroke-dasharray:none;stroke-opacity:1"
       id="circle1266"
       cx="-25.915443"
       cy="-74.635262" />
    <g
       style="font-style:normal;font-variant:normal;font-weight:normal;font-stretch:normal;line-height:0%;font-family:Tahoma;-inkscape-font-specification:'Tahoma, Normal';text-align:start;letter-spacing:0px;word-spacing:0px;writing-mode:lr-tb;text-anchor:start;fill:#000000;fill-opacity:1;stroke:#0000ff;stroke-width:0.26458332"
       id="text1276">
      <path
         d="m 29.792083,77.512238 -0.329351,0 0,-0.392741 0.329351,0 0,0.392741 z"
         style="font-size:2.82222199px;line-height:1.25;stroke-width:0.26458332;stroke:#0000ff"
         id="path5026" />
      <path
         d="m 31.448485,76.859047 q 0,0.148829 -0.04823,0.275608 -0.04685,0.12678 -0.132292,0.219108 -0.08682,0.09371 -0.216352,0.14745 -0.128158,0.05374 -0.28801,0.05374 -0.14745,0 -0.290766,-0.03307 -0.141938,-0.03169 -0.246669,-0.08406 l 0,-0.290766 0.01929,0 q 0.03169,0.02343 0.09095,0.05374 0.05926,0.02894 0.130914,0.05512 0.0813,0.02894 0.148828,0.04548 0.06752,0.01516 0.151584,0.01516 0.08268,0 0.161231,-0.02894 0.07855,-0.03032 0.135047,-0.09646 0.05099,-0.06063 0.07717,-0.141938 0.02756,-0.0813 0.02756,-0.191548 0,-0.108865 -0.03032,-0.179144 -0.02894,-0.07028 -0.08544,-0.115756 -0.05926,-0.05237 -0.146072,-0.07304 -0.08544,-0.02205 -0.191547,-0.02205 -0.111621,0 -0.224621,0.01791 -0.112999,0.01654 -0.180523,0.0317 l 0,-1.056955 1.125858,0 0,0.241157 -0.859896,0 0,0.545703 q 0.04961,-0.0055 0.09784,-0.0083 0.04823,-0.0028 0.08819,-0.0028 0.157096,0 0.265961,0.02618 0.108865,0.02618 0.209462,0.101975 0.101975,0.07717 0.155718,0.192925 0.05512,0.115755 0.05512,0.30179 z"
         style="font-size:2.82222199px;line-height:1.25;stroke-width:0.26458332;stroke:#0000ff"
         id="path5028" />
      <path
         d="m 32.050687,77.512238 -0.259071,0 0,-1.539269 0.259071,0 0,1.539269 z m 0.01791,-1.796962 -0.2949,0 0,-0.268718 0.2949,0 0,0.268718 z"
         style="font-size:2.82222199px;line-height:1.25;stroke-width:0.26458332;stroke:#0000ff"
         id="path5030" />
      <path
         d="m 33.640944,77.512238 -0.259072,0 0,-0.876433 q 0,-0.106109 -0.01102,-0.197059 -0.0096,-0.09233 -0.03859,-0.14745 -0.03169,-0.05788 -0.08819,-0.08544 -0.0565,-0.02894 -0.154341,-0.02894 -0.09646,0 -0.199815,0.05237 -0.101975,0.05099 -0.199816,0.13367 l 0,1.149284 -0.259071,0 0,-1.539269 0.259071,0 0,0.170877 q 0.115756,-0.103353 0.228755,-0.158475 0.112999,-0.05512 0.2384,-0.05512 0.227377,0 0.355534,0.150206 0.128158,0.148828 0.128158,0.432704 l 0,0.999078 z"
         style="font-size:2.82222199px;line-height:1.25;stroke-width:0.26458332;stroke:#0000ff"
         id="path5032" />
    </g>
    <circle
       cy="-82.638901"
       cx="-25.915443"
       id="circle1278"
       style="fill:none;stroke:#ff0000;stroke-width:0.35277778;stroke-miterlimit:4;stroke-dasharray:none;stroke-opacity:1"
       r="3.5"
       transform="scale(-1,-1)" />
    <circle
       transform="scale(-1,-1)"
       r="3.5"
       style="fill:none;stroke:#ff0000;stroke-width:0.35277778;stroke-miterlimit:4;stroke-dasharray:none;stroke-opacity:1"
       id="circle1286"
       cx="-25.915443"
       cy="-82.638901" />
    <circle
       cy="-82.638901"
       cx="-41.315445"
       id="circle1292"
       style="fill:none;stroke:#ff0000;stroke-width:0.35277778;stroke-miterlimit:4;stroke-dasharray:none;stroke-opacity:1"
       r="3.5"
       transform="scale(-1,-1)" />
    <g
       style="font-style:normal;font-variant:normal;font-weight:normal;font-stretch:normal;line-height:0%;font-family:Tahoma;-inkscape-font-specification:'Tahoma, Normal';text-align:start;letter-spacing:0px;word-spacing:0px;writing-mode:lr-tb;text-anchor:start;fill:#000000;fill-opacity:1;stroke:#0000ff;stroke-width:0.26458332"
       id="text1296">
      <path
         d="m 30.478345,84.12527 q 0,-0.137803 -0.09233,-0.230132 -0.09233,-0.09233 -0.256315,-0.09233 -0.150206,0 -0.246669,0.08268 -0.09508,0.08268 -0.09508,0.223242 0,0.101975 0.04823,0.172255 0.04961,0.07028 0.14745,0.126779 0.04272,0.02343 0.129536,0.06477 0.08819,0.04134 0.159852,0.06477 0.119889,-0.09233 0.162609,-0.188791 0.04272,-0.09784 0.04272,-0.223243 z m 0.03858,1.028017 q 0,-0.12678 -0.04961,-0.201194 -0.04961,-0.07441 -0.191548,-0.151584 -0.04685,-0.02618 -0.125401,-0.0565 -0.07717,-0.03032 -0.175011,-0.07166 -0.114377,0.07579 -0.175011,0.187414 -0.06063,0.110243 -0.06063,0.252181 0,0.186035 0.111621,0.307302 0.113,0.121267 0.282498,0.121267 0.173633,0 0.278364,-0.103352 0.104731,-0.104731 0.104731,-0.283876 z m -0.385851,0.592556 q -0.152962,0 -0.278363,-0.04547 -0.125402,-0.04547 -0.213596,-0.130914 -0.08682,-0.08268 -0.132292,-0.195681 -0.0441,-0.114377 -0.0441,-0.241157 0,-0.166742 0.08819,-0.305924 0.08957,-0.14056 0.259071,-0.223242 l 0,-0.0083 q -0.151584,-0.08819 -0.22462,-0.192925 -0.07304,-0.104731 -0.07304,-0.261827 0,-0.231511 0.175011,-0.385851 0.175011,-0.15434 0.443728,-0.15434 0.279742,0 0.447863,0.14745 0.169498,0.146072 0.169498,0.374826 0,0.137804 -0.0813,0.272852 -0.07993,0.135048 -0.23151,0.21084 l 0,0.0083 q 0.179145,0.08406 0.271473,0.20395 0.09233,0.119889 0.09233,0.30868 0,0.263205 -0.191548,0.440972 -0.190169,0.177767 -0.476801,0.177767 z"
         style="font-size:2.82222199px;line-height:1.25;stroke-width:0.26458332;stroke:#0000ff"
         id="path5015" />
      <path
         d="m 31.495337,85.69899 -0.329351,0 0,-0.392741 0.329351,0 0,0.392741 z"
         style="font-size:2.82222199px;line-height:1.25;stroke-width:0.26458332;stroke:#0000ff"
         id="path5017" />
      <path
         d="m 33.151739,85.0458 q 0,0.148828 -0.04823,0.275607 -0.04685,0.12678 -0.132291,0.219108 -0.08682,0.09371 -0.216352,0.147451 -0.128158,0.05374 -0.28801,0.05374 -0.14745,0 -0.290766,-0.03307 -0.141938,-0.03169 -0.246669,-0.08406 l 0,-0.290766 0.01929,0 q 0.03169,0.02343 0.09095,0.05374 0.05926,0.02894 0.130913,0.05512 0.08131,0.02894 0.148829,0.04548 0.06752,0.01516 0.151584,0.01516 0.08268,0 0.16123,-0.02894 0.07855,-0.03032 0.135048,-0.09646 0.05099,-0.06063 0.07717,-0.141938 0.02756,-0.0813 0.02756,-0.191547 0,-0.108865 -0.03032,-0.179145 -0.02894,-0.07028 -0.08544,-0.115755 -0.05926,-0.05237 -0.146072,-0.07304 -0.08544,-0.02205 -0.191548,-0.02205 -0.111621,0 -0.22462,0.01791 -0.112999,0.01654 -0.180523,0.03169 l 0,-1.056955 1.125857,0 0,0.241157 -0.859896,0 0,0.545703 q 0.04961,-0.0055 0.09784,-0.0083 0.04823,-0.0028 0.08819,-0.0028 0.157096,0 0.265961,0.02618 0.108865,0.02618 0.209462,0.101975 0.101975,0.07717 0.155718,0.192925 0.05512,0.115756 0.05512,0.301791 z"
         style="font-size:2.82222199px;line-height:1.25;stroke-width:0.26458332;stroke:#0000ff"
         id="path5019" />
      <path
         d="m 35.23671,85.69899 0,-0.890213 q 0,-0.106109 -0.0083,-0.195681 -0.0083,-0.09095 -0.03445,-0.141938 -0.02756,-0.05512 -0.07855,-0.0813 -0.05099,-0.02618 -0.137804,-0.02618 -0.07993,0 -0.172255,0.04961 -0.09095,0.04823 -0.188791,0.14056 0.0014,0.02343 0.0028,0.0565 0.0028,0.0317 0.0028,0.07579 l 0,1.012858 -0.259071,0 0,-0.890213 q 0,-0.106109 -0.0083,-0.195681 -0.0083,-0.09095 -0.03445,-0.141938 -0.02756,-0.05512 -0.07855,-0.0813 -0.05099,-0.02618 -0.137804,-0.02618 -0.08406,0 -0.176389,0.05237 -0.09233,0.05237 -0.179145,0.13367 l 0,1.149284 -0.259071,0 0,-1.539269 0.259071,0 0,0.170877 q 0.101975,-0.101975 0.201194,-0.157096 0.100596,-0.0565 0.220486,-0.0565 0.136425,0 0.241156,0.06201 0.106109,0.06201 0.161231,0.203949 0.117133,-0.130913 0.228754,-0.198437 0.111621,-0.06752 0.242535,-0.06752 0.09922,0 0.180523,0.03169 0.0813,0.03032 0.141938,0.09922 0.06201,0.07028 0.09508,0.175011 0.03445,0.10473 0.03445,0.263205 l 0,1.012858 -0.259071,0 z"
         style="font-size:2.82222199px;line-height:1.25;stroke-width:0.26458332;stroke:#0000ff"
         id="path5021" />
      <path
         d="m 37.606936,85.69899 0,-0.890213 q 0,-0.106109 -0.0083,-0.195681 -0.0083,-0.09095 -0.03445,-0.141938 -0.02756,-0.05512 -0.07855,-0.0813 -0.05099,-0.02618 -0.137804,-0.02618 -0.07993,0 -0.172254,0.04961 -0.09095,0.04823 -0.188792,0.14056 0.0014,0.02343 0.0028,0.0565 0.0028,0.0317 0.0028,0.07579 l 0,1.012858 -0.259072,0 0,-0.890213 q 0,-0.106109 -0.0083,-0.195681 -0.0083,-0.09095 -0.03445,-0.141938 -0.02756,-0.05512 -0.07855,-0.0813 -0.05099,-0.02618 -0.137804,-0.02618 -0.08406,0 -0.176389,0.05237 -0.09233,0.05237 -0.179144,0.13367 l 0,1.149284 -0.259072,0 0,-1.539269 0.259072,0 0,0.170877 q 0.101974,-0.101975 0.201193,-0.157096 0.100597,-0.0565 0.220486,-0.0565 0.136426,0 0.241157,0.06201 0.106109,0.06201 0.16123,0.203949 0.117134,-0.130913 0.228755,-0.198437 0.111621,-0.06752 0.242534,-0.06752 0.09922,0 0.180523,0.03169 0.08131,0.03032 0.141938,0.09922 0.06201,0.07028 0.09508,0.175011 0.03445,0.10473 0.03445,0.263205 l 0,1.012858 -0.259071,0 z"
         style="font-size:2.82222199px;line-height:1.25;stroke-width:0.26458332;stroke:#0000ff"
         id="path5023" />
    </g>
    <circle
       cy="-74.635262"
       cx="-38.619736"
       id="circle4360"
       style="fill:none;stroke:#ff0000;stroke-width:0.35277778;stroke-miterlimit:4;stroke-dasharray:none;stroke-opacity:1"
       r="3.5"
       transform="scale(-1,-1)" />
    <g
       id="g4751"
       transform="translate(-226.90667,13.264445)">
      <path
         inkscape:label="part"
         style="fill:none;stroke:#000000;stroke-width:0.0508"
         d="m 240.68,4.1700001 6.449,0 0,0 6.17,0 0,0 6.364,0 0,0 6.17,0 0,0 6.364,0 0,0 6.17,0 0,0 6.364,0 0,0 6.17,0 0,0 6.364,0 0,0 6.17,0 0,0 6.364,0 0,0 6.17,0 0,0 6.364,0 0,0 6.17,0 0,0 6.364,0 0,0 6.17,0 0,0 6.364,0 0,0 6.17,0 0,0 3.279,0"
         id="path4546"
         inkscape:connector-curvature="0" />
      <path
         inkscape:label="part"
         style="fill:none;stroke:#000000;stroke-width:0.0508"
         d="m 356.85,4.1700001 0,3.2221428 0,0 0,6.1700001 0,0 0,6.307143 0,0 0,6.17 0,0 0,6.307143 0,0 0,6.17 0,0 0,6.307143 0,0 0,6.17 0,0 0,6.307142 0,0 0,6.17 0,0 0,6.307143 0,0 0,6.17 0,0 0,6.392143"
         id="path4548"
         inkscape:connector-curvature="0" />
      <path
         inkscape:label="part"
         style="fill:none;stroke:#000000;stroke-width:0.0508"
         d="m 356.85,82.34 -3.449,0 0,-3.17 -5.83,0 0,3.17 -6.704,0 0,-3.17 -5.83,0 0,3.17 -6.704,0 0,-3.17 -5.83,0 0,3.17 -6.704,0 0,-3.17 -5.83,0 0,3.17 -6.704,0 0,-3.17 -5.83,0 0,3.17 -6.704,0 0,-3.17 -5.83,0 0,3.17 -6.704,0 0,-3.17 -5.83,0 0,3.17 -6.704,0 0,-3.17 -5.83,0 0,3.17 -6.704,0 0,-3.17 -5.83,0 0,3.17 -6.619,0"
         id="path4550"
         inkscape:connector-curvature="0" />
      <path
         inkscape:label="part"
         style="fill:none;stroke:#000000;stroke-width:0.0508"
         d="m 240.68,82.34 0,-6.562143 3.17,0 0,-5.83 -3.17,0 0,-6.647143 3.17,0 0,-5.83 -3.17,0 0,-6.647142 3.17,0 0,-5.83 -3.17,0 0,-6.647143 3.17,0 0,-5.83 -3.17,0 0,-6.647143 3.17,0 0,-5.83 -3.17,0 0,-6.647143 3.17,0 0,-5.8300001 -3.17,0 0,-3.3921428"
         id="path4564"
         inkscape:connector-curvature="0" />
    </g>
    <rect
       style="color:#000000;clip-rule:nonzero;display:inline;overflow:visible;visibility:visible;opacity:1;isolation:auto;mix-blend-mode:normal;color-interpolation:sRGB;color-interpolation-filters:linearRGB;solid-color:#000000;solid-opacity:1;fill:none;fill-opacity:1;fill-rule:nonzero;stroke:#ff0000;stroke-width:0.13151556;stroke-linecap:butt;stroke-linejoin:miter;stroke-miterlimit:4;stroke-dasharray:none;stroke-dashoffset:0;stroke-opacity:1;color-rendering:auto;image-rendering:auto;shape-rendering:auto;text-rendering:auto;enable-background:accumulate"
       id="rect4915"
       width="10.5"
       height="12.000011"
       x="55.23473"
       y="213.9397" />
    <rect
       style="color:#000000;clip-rule:nonzero;display:inline;overflow:visible;visibility:visible;opacity:1;isolation:auto;mix-blend-mode:normal;color-interpolation:sRGB;color-interpolation-filters:linearRGB;solid-color:#000000;solid-opacity:1;fill:none;fill-opacity:1;fill-rule:nonzero;stroke:#ff0000;stroke-width:0.33478725;stroke-linecap:butt;stroke-linejoin:miter;stroke-miterlimit:4;stroke-dasharray:none;stroke-dashoffset:0;stroke-opacity:1;color-rendering:auto;image-rendering:auto;shape-rendering:auto;text-rendering:auto;enable-background:accumulate"
       id="rect4917"
       width="10.8"
       height="8.8999901"
       x="54.924999"
       y="245.48479" />
  </g>
  <g
     inkscape:label="newlayer"
     inkscape:groupmode="layer"
     id="g4570" />
  <g
     id="g1338"
     inkscape:groupmode="layer"
     inkscape:label="newlayer" />
  <g
     inkscape:label="newlayer"
     inkscape:groupmode="layer"
     id="g1756" />
  <g
     id="g4569"
     inkscape:groupmode="layer"
     inkscape:label="newlayer" />
</svg>
