<?xml version="1.0" encoding="UTF-8" standalone="no"?>
<!-- Created with Inkscape (http://www.inkscape.org/) -->

<svg
   xmlns:dc="http://purl.org/dc/elements/1.1/"
   xmlns:cc="http://creativecommons.org/ns#"
   xmlns:rdf="http://www.w3.org/1999/02/22-rdf-syntax-ns#"
   xmlns:svg="http://www.w3.org/2000/svg"
   xmlns="http://www.w3.org/2000/svg"
   xmlns:sodipodi="http://sodipodi.sourceforge.net/DTD/sodipodi-0.dtd"
   xmlns:inkscape="http://www.inkscape.org/namespaces/inkscape"
   width="210mm"
   height="297mm"
   viewBox="0 0 744.09448819 1052.3622047"
   id="svg5122"
   version="1.1"
   inkscape:version="0.91 r13725"
   sodipodi:docname="kerftest-v2.svg">
  <sodipodi:namedview
     id="base"
     pagecolor="#ffffff"
     bordercolor="#666666"
     borderopacity="1.0"
     inkscape:pageopacity="0.0"
     inkscape:pageshadow="2"
     inkscape:zoom="0.98994949"
     inkscape:cx="-69.785955"
     inkscape:cy="924.52789"
     inkscape:document-units="px"
     inkscape:current-layer="layer1"
     showgrid="false"
     inkscape:window-width="1463"
     inkscape:window-height="760"
     inkscape:window-x="-8"
     inkscape:window-y="-8"
     inkscape:window-maximized="1" />
  <defs
     id="defs5124" />
  <metadata
     id="metadata5127">
    <rdf:RDF>
      <cc:Work
         rdf:about="">
        <dc:format>image/svg+xml</dc:format>
        <dc:type
           rdf:resource="http://purl.org/dc/dcmitype/StillImage" />
        <dc:title></dc:title>
      </cc:Work>
    </rdf:RDF>
  </metadata>
  <g
     id="layer1"
     inkscape:groupmode="layer"
     inkscape:label="Layer 1">
    <g
       id="g6036">
      <path
         inkscape:connector-curvature="0"
         inkscape:label="part"
         style="fill:none;stroke:#000000;stroke-width:0.18000001"
         d="m 101.13586,277.90229 25.08661,0 0,11.23228 20.69292,0 0,-11.23228 25.08661,0"
         id="path5936" />
      <path
         inkscape:connector-curvature="0"
         inkscape:label="part"
         style="fill:none;stroke:#000000;stroke-width:0.18000001"
         d="m 172.002,277.90229 0,35.75197 11.23229,0 0,21.82677 -11.23229,0 0,35.75197"
         id="path5938" />
      <path
         inkscape:connector-curvature="0"
         inkscape:label="part"
         style="fill:none;stroke:#000000;stroke-width:0.18000001"
         d="m 172.002,371.233 -25.08661,0 0,-11.23229 -20.69292,0 0,11.23229 -25.08661,0"
         id="path5940" />
      <path
         inkscape:connector-curvature="0"
         inkscape:label="part"
         style="fill:none;stroke:#000000;stroke-width:0.18000001"
         d="m 101.13586,371.233 0,-35.75197 -11.232283,0 0,-21.82677 11.232283,0 0,-35.75197"
         id="path5942" />
    </g>
    <g
       id="g6029">
      <path
         inkscape:connector-curvature="0"
         inkscape:label="part"
         style="fill:none;stroke:#000000;stroke-width:0.18000001"
         d="m 43.071824,158.09665 23.201575,0 0,11.23228 20.692913,0 0,-11.23228 23.485038,0 0,11.23228 20.69291,0 0,-11.23228 23.48504,0 0,11.23228 20.69292,0 0,-11.23228 23.48504,0 0,11.23228 20.69291,0 0,-11.23228 23.20158,0"
         id="path5964" />
      <path
         inkscape:connector-curvature="0"
         inkscape:label="part"
         style="fill:none;stroke:#000000;stroke-width:0.18000001"
         d="m 137.27064,194.41554 0,20.69292 11.23229,0 0,-20.69292 -11.23229,0"
         id="path5966" />
      <path
         inkscape:connector-curvature="0"
         inkscape:label="part"
         style="fill:none;stroke:#000000;stroke-width:0.18000001"
         d="m 242.70175,158.09665 0,36.31889 -11.23229,0 0,20.69292 11.23229,0 0,36.3189"
         id="path5968" />
      <path
         inkscape:connector-curvature="0"
         inkscape:label="part"
         style="fill:none;stroke:#000000;stroke-width:0.18000001"
         d="m 242.70175,251.42736 -23.20158,0 0,-11.23229 -20.69291,0 0,11.23229 -23.48504,0 0,-11.23229 -20.69292,0 0,11.23229 -23.48504,0 0,-11.23229 -20.69291,0 0,11.23229 -23.485038,0 0,-11.23229 -20.692913,0 0,11.23229 -23.201575,0"
         id="path5970" />
      <path
         inkscape:connector-curvature="0"
         inkscape:label="part"
         style="fill:none;stroke:#000000;stroke-width:0.18000001"
         d="m 43.071824,251.42736 0,-36.3189 11.232283,0 0,-20.69292 -11.232283,0 0,-36.31889"
         id="path5972" />
    </g>
  </g>
  <g
     id="g5749"
     inkscape:groupmode="layer"
     inkscape:label="newlayer" />
  <g
     inkscape:label="newlayer"
     inkscape:groupmode="layer"
     id="g5864" />
  <g
     id="g5986"
     inkscape:groupmode="layer"
     inkscape:label="newlayer" />
</svg>
