<?xml version="1.0" encoding="UTF-8" standalone="no"?>
<!-- Created with Inkscape (http://www.inkscape.org/) -->

<svg
   xmlns:dc="http://purl.org/dc/elements/1.1/"
   xmlns:cc="http://creativecommons.org/ns#"
   xmlns:rdf="http://www.w3.org/1999/02/22-rdf-syntax-ns#"
   xmlns:svg="http://www.w3.org/2000/svg"
   xmlns="http://www.w3.org/2000/svg"
   xmlns:sodipodi="http://sodipodi.sourceforge.net/DTD/sodipodi-0.dtd"
   xmlns:inkscape="http://www.inkscape.org/namespaces/inkscape"
   id="svg8"
   version="1.1"
   viewBox="0 0 210 297"
   height="297mm"
   width="210mm"
   inkscape:version="0.92.3 (2405546, 2018-03-11)"
   sodipodi:docname="TranslationBox.svg">
  <sodipodi:namedview
     inkscape:window-maximized="1"
     inkscape:window-y="-8"
     inkscape:window-x="-8"
     inkscape:window-height="1137"
     inkscape:window-width="1920"
     showgrid="false"
     inkscape:current-layer="svg8"
     inkscape:document-units="mm"
     inkscape:cy="797.76156"
     inkscape:cx="333.21186"
     inkscape:zoom="1.3024935"
     inkscape:pageshadow="2"
     inkscape:pageopacity="0.0"
     borderopacity="1.0"
     bordercolor="#666666"
     pagecolor="#ffffff"
     id="base"
     inkscape:snap-global="true" />
  <defs
     id="defs2" />
  <metadata
     id="metadata5">
    <rdf:RDF>
      <cc:Work
         rdf:about="">
        <dc:format>image/svg+xml</dc:format>
        <dc:type
           rdf:resource="http://purl.org/dc/dcmitype/StillImage" />
        <dc:title></dc:title>
      </cc:Work>
    </rdf:RDF>
  </metadata>
  <g
     inkscape:label="Layer 1"
     inkscape:groupmode="layer"
     id="layer1" />
  <g
     inkscape:label="newlayer"
     inkscape:groupmode="layer"
     id="g843" />
  <g
     id="g931"
     inkscape:groupmode="layer"
     inkscape:label="newlayer" />
  <g
     inkscape:label="newlayer"
     inkscape:groupmode="layer"
     id="g1037" />
  <g
     id="g1147"
     inkscape:groupmode="layer"
     inkscape:label="newlayer" />
  <g
     inkscape:label="newlayer"
     inkscape:groupmode="layer"
     id="g1249" />
  <g
     id="g1349"
     inkscape:groupmode="layer"
     inkscape:label="newlayer" />
  <g
     inkscape:label="newlayer"
     inkscape:groupmode="layer"
     id="g1445" />
  <g
     id="g1866"
     inkscape:groupmode="layer"
     inkscape:label="newlayer" />
  <g
     inkscape:label="newlayer"
     inkscape:groupmode="layer"
     id="g4306" />
  <g
     id="g4571"
     inkscape:groupmode="layer"
     inkscape:label="newlayer" />
  <g
     id="g4739">
    <path
       inkscape:connector-curvature="0"
       d="M 0.47535817,1.9071428 H 8.4176889 v 0 h 7.4682131 v 0 h 7.807363 v 0 h 7.468213 v 0 h 7.807362 v 0 h 7.468213 v 0 h 7.807365 v 0 h 7.468213 v 0 h 7.807361 v 0 h 7.468214 v 0 h 7.807364 v 0 h 7.468213 v 0 h 7.807367 v 0 h 7.46821 v 0 h 7.80737 v 0 h 7.4682 v 0 h 7.80737 v 0 h 7.46821 v 0 h 7.80737 v 0 h 7.46821 v 0 h 7.80736 v 0 h 7.46821 v 0 h 7.80736 v 0 h 7.46821 v 0 h 7.94233"
       style="fill:none;stroke:#000000;stroke-width:1.34148026"
       inkscape:label="part"
       id="path4605" />
    <path
       inkscape:connector-curvature="0"
       d="m 172.65317,2.8771429 v 3.85 h 3.175 v -3.85 h -3.175"
       style="fill:none;stroke:#000000;stroke-width:1"
       inkscape:label="part"
       id="path4607" />
    <path
       inkscape:connector-curvature="0"
       d="m 172.65317,10.947143 v 3.85 h 3.175 v -3.85 h -3.175"
       style="fill:none;stroke:#000000;stroke-width:1"
       inkscape:label="part"
       id="path4609" />
    <path
       inkscape:connector-curvature="0"
       d="m 172.65317,19.017143 v 3.85 h 3.175 v -3.85 h -3.175"
       style="fill:none;stroke:#000000;stroke-width:1"
       inkscape:label="part"
       id="path4611" />
    <path
       inkscape:connector-curvature="0"
       d="m 172.65317,27.087143 v 3.85 h 3.175 v -3.85 h -3.175"
       style="fill:none;stroke:#000000;stroke-width:1"
       inkscape:label="part"
       id="path4613" />
    <path
       inkscape:connector-curvature="0"
       d="m 191.85956,1.9071428 v 0.97 h -3.175 v 3.85 h 3.175 v 4.2200002 h -3.175 v 3.85 h 3.175 v 4.22 h -3.175 v 3.85 h 3.175 v 4.22 h -3.175 v 3.85 h 3.175 v 0.97"
       style="fill:none;stroke:#000000;stroke-width:1"
       inkscape:label="part"
       id="path4615" />
    <path
       inkscape:connector-curvature="0"
       d="m 191.85956,31.907143 h -7.94233 v 0 h -7.4682 v 0 h -7.80736 v 0 h -7.46822 v 0 h -7.80736 v 0 h -7.46821 v 0 h -7.80737 v 0 h -7.46821 v 0 h -7.80736 v 0 h -7.46822 v 0 h -7.80736 v 0 h -7.46821 v 0 h -7.807366 v 0 h -7.468213 v 0 h -7.807364 v 0 h -7.468214 v 0 h -7.807362 v 0 h -7.468213 v 0 h -7.807364 v 0 h -7.468213 v 0 h -7.807363 v 0 h -7.468213 v 0 h -7.807363 v 0 H 8.4176889 v 0 H 0.47535817"
       style="fill:none;stroke:#000000;stroke-width:1.34148037"
       inkscape:label="part"
       id="path4617" />
    <path
       inkscape:connector-curvature="0"
       d="m 0.47535817,31.907143 v -0.97 H 3.6503581 v -3.85 H 0.47535817 v -4.22 H 3.6503581 v -3.85 H 0.47535817 v -4.22 H 3.6503581 v -3.85 H 0.47535817 V 6.7271428 H 3.6503581 v -3.85 H 0.47535817 v -0.97"
       style="fill:none;stroke:#000000;stroke-width:1"
       inkscape:label="part"
       id="path4619" />
  </g>
  <g
     id="g4685"
     transform="translate(-255.0508,31.109856)">
    <g
       id="g4677">
      <path
         id="path4621"
         inkscape:label="part"
         style="fill:none;stroke:#000000;stroke-width:1"
         d="m 256.225,5.175 h 0.82 V 2 h 4.15 v 3.175 h 3.92 V 2 h 4.15 v 3.175 h 3.92 V 2 h 4.15 v 3.175 h 3.92 V 2 h 4.15 v 3.175 h 0.82"
         inkscape:connector-curvature="0" />
      <path
         id="path4623"
         inkscape:label="part"
         style="fill:none;stroke:#000000;stroke-width:1"
         d="m 286.225,5.175 v 0.82 0 4.15 0 3.92 0 4.15 0 3.92 0 4.15 0 3.92 0 4.15 0 0.82"
         inkscape:connector-curvature="0" />
      <path
         id="path4625"
         inkscape:label="part"
         style="fill:none;stroke:#000000;stroke-width:1"
         d="m 286.225,35.175 h -0.82 v 3.175 h -4.15 v -3.175 h -3.92 v 3.175 h -4.15 v -3.175 h -3.92 v 3.175 h -4.15 v -3.175 h -3.92 v 3.175 h -4.15 v -3.175 h -0.82"
         inkscape:connector-curvature="0" />
      <path
         id="path4627"
         inkscape:label="part"
         style="fill:none;stroke:#000000;stroke-width:1"
         d="m 256.225,35.175 v -0.82 0 -4.15 0 -3.92 0 -4.15 0 -3.92 0 -4.15 0 -3.92 0 -4.15 0 -0.82"
         inkscape:connector-curvature="0" />
    </g>
    <circle
       r="7.9375"
       cy="15.21874"
       cx="271.22501"
       id="path4671"
       style="opacity:1;vector-effect:none;fill:none;fill-opacity:1;stroke:#ff0000;stroke-width:0.43578431px;stroke-linecap:butt;stroke-linejoin:miter;stroke-miterlimit:4;stroke-dasharray:none;stroke-dashoffset:0;stroke-opacity:1" />
  </g>
  <g
     transform="translate(-223.16298,31.109856)"
     id="g4699">
    <g
       id="g4695">
      <path
         inkscape:connector-curvature="0"
         d="m 256.225,5.175 h 0.82 V 2 h 4.15 v 3.175 h 3.92 V 2 h 4.15 v 3.175 h 3.92 V 2 h 4.15 v 3.175 h 3.92 V 2 h 4.15 v 3.175 h 0.82"
         style="fill:none;stroke:#000000;stroke-width:1"
         inkscape:label="part"
         id="path4687" />
      <path
         inkscape:connector-curvature="0"
         d="m 286.225,5.175 v 0.82 0 4.15 0 3.92 0 4.15 0 3.92 0 4.15 0 3.92 0 4.15 0 0.82"
         style="fill:none;stroke:#000000;stroke-width:1"
         inkscape:label="part"
         id="path4689" />
      <path
         inkscape:connector-curvature="0"
         d="m 286.225,35.175 h -0.82 v 3.175 h -4.15 v -3.175 h -3.92 v 3.175 h -4.15 v -3.175 h -3.92 v 3.175 h -4.15 v -3.175 h -3.92 v 3.175 h -4.15 v -3.175 h -0.82"
         style="fill:none;stroke:#000000;stroke-width:1"
         inkscape:label="part"
         id="path4691" />
      <path
         inkscape:connector-curvature="0"
         d="m 256.225,35.175 v -0.82 0 -4.15 0 -3.92 0 -4.15 0 -3.92 0 -4.15 0 -3.92 0 -4.15 0 -0.82"
         style="fill:none;stroke:#000000;stroke-width:1"
         inkscape:label="part"
         id="path4693" />
    </g>
    <circle
       style="opacity:1;vector-effect:none;fill:none;fill-opacity:1;stroke:#ff0000;stroke-width:0.43578431px;stroke-linecap:butt;stroke-linejoin:miter;stroke-miterlimit:4;stroke-dasharray:none;stroke-dashoffset:0;stroke-opacity:1"
       id="circle4697"
       cx="271.22501"
       cy="15.21874"
       r="7.9375" />
  </g>
  <g
     id="g4713"
     transform="translate(-191.70607,31.109856)">
    <g
       id="g4709">
      <path
         id="path4701"
         inkscape:label="part"
         style="fill:none;stroke:#000000;stroke-width:1"
         d="m 256.225,5.175 h 0.82 V 2 h 4.15 v 3.175 h 3.92 V 2 h 4.15 v 3.175 h 3.92 V 2 h 4.15 v 3.175 h 3.92 V 2 h 4.15 v 3.175 h 0.82"
         inkscape:connector-curvature="0" />
      <path
         id="path4703"
         inkscape:label="part"
         style="fill:none;stroke:#000000;stroke-width:1"
         d="m 286.225,5.175 v 0.82 0 4.15 0 3.92 0 4.15 0 3.92 0 4.15 0 3.92 0 4.15 0 0.82"
         inkscape:connector-curvature="0" />
      <path
         id="path4705"
         inkscape:label="part"
         style="fill:none;stroke:#000000;stroke-width:1"
         d="m 286.225,35.175 h -0.82 v 3.175 h -4.15 v -3.175 h -3.92 v 3.175 h -4.15 v -3.175 h -3.92 v 3.175 h -4.15 v -3.175 h -3.92 v 3.175 h -4.15 v -3.175 h -0.82"
         inkscape:connector-curvature="0" />
      <path
         id="path4707"
         inkscape:label="part"
         style="fill:none;stroke:#000000;stroke-width:1"
         d="m 256.225,35.175 v -0.82 0 -4.15 0 -3.92 0 -4.15 0 -3.92 0 -4.15 0 -3.92 0 -4.15 0 -0.82"
         inkscape:connector-curvature="0" />
    </g>
    <circle
       r="7.9375"
       cy="15.21874"
       cx="271.22501"
       id="circle4711"
       style="opacity:1;vector-effect:none;fill:none;fill-opacity:1;stroke:#ff0000;stroke-width:0.43578431px;stroke-linecap:butt;stroke-linejoin:miter;stroke-miterlimit:4;stroke-dasharray:none;stroke-dashoffset:0;stroke-opacity:1" />
  </g>
  <g
     id="g4757"
     transform="translate(0,68.659972)">
    <path
       id="path4741"
       inkscape:label="part"
       style="fill:none;stroke:#000000;stroke-width:1.34148026"
       d="M 0.47535817,1.9071428 H 8.4176889 v 0 h 7.4682131 v 0 h 7.807363 v 0 h 7.468213 v 0 h 7.807362 v 0 h 7.468213 v 0 h 7.807365 v 0 h 7.468213 v 0 h 7.807361 v 0 h 7.468214 v 0 h 7.807364 v 0 h 7.468213 v 0 h 7.807367 v 0 h 7.46821 v 0 h 7.80737 v 0 h 7.4682 v 0 h 7.80737 v 0 h 7.46821 v 0 h 7.80737 v 0 h 7.46821 v 0 h 7.80736 v 0 h 7.46821 v 0 h 7.80736 v 0 h 7.46821 v 0 h 7.94233"
       inkscape:connector-curvature="0" />
    <path
       id="path4743"
       inkscape:label="part"
       style="fill:none;stroke:#000000;stroke-width:1"
       d="m 172.65317,2.8771429 v 3.85 h 3.175 v -3.85 h -3.175"
       inkscape:connector-curvature="0" />
    <path
       id="path4745"
       inkscape:label="part"
       style="fill:none;stroke:#000000;stroke-width:1"
       d="m 172.65317,10.947143 v 3.85 h 3.175 v -3.85 h -3.175"
       inkscape:connector-curvature="0" />
    <path
       id="path4747"
       inkscape:label="part"
       style="fill:none;stroke:#000000;stroke-width:1"
       d="m 172.65317,19.017143 v 3.85 h 3.175 v -3.85 h -3.175"
       inkscape:connector-curvature="0" />
    <path
       id="path4749"
       inkscape:label="part"
       style="fill:none;stroke:#000000;stroke-width:1"
       d="m 172.65317,27.087143 v 3.85 h 3.175 v -3.85 h -3.175"
       inkscape:connector-curvature="0" />
    <path
       id="path4751"
       inkscape:label="part"
       style="fill:none;stroke:#000000;stroke-width:1"
       d="m 191.85956,1.9071428 v 0.97 h -3.175 v 3.85 h 3.175 v 4.2200002 h -3.175 v 3.85 h 3.175 v 4.22 h -3.175 v 3.85 h 3.175 v 4.22 h -3.175 v 3.85 h 3.175 v 0.97"
       inkscape:connector-curvature="0" />
    <path
       id="path4753"
       inkscape:label="part"
       style="fill:none;stroke:#000000;stroke-width:1.34148037"
       d="m 191.85956,31.907143 h -7.94233 v 0 h -7.4682 v 0 h -7.80736 v 0 h -7.46822 v 0 h -7.80736 v 0 h -7.46821 v 0 h -7.80737 v 0 h -7.46821 v 0 h -7.80736 v 0 h -7.46822 v 0 h -7.80736 v 0 h -7.46821 v 0 h -7.807366 v 0 h -7.468213 v 0 h -7.807364 v 0 h -7.468214 v 0 h -7.807362 v 0 h -7.468213 v 0 h -7.807364 v 0 h -7.468213 v 0 h -7.807363 v 0 h -7.468213 v 0 h -7.807363 v 0 H 8.4176889 v 0 H 0.47535817"
       inkscape:connector-curvature="0" />
    <path
       id="path4755"
       inkscape:label="part"
       style="fill:none;stroke:#000000;stroke-width:1"
       d="m 0.47535817,31.907143 v -0.97 H 3.6503581 v -3.85 H 0.47535817 v -4.22 H 3.6503581 v -3.85 H 0.47535817 v -4.22 H 3.6503581 v -3.85 H 0.47535817 V 6.7271428 H 3.6503581 v -3.85 H 0.47535817 v -0.97"
       inkscape:connector-curvature="0" />
  </g>
</svg>
