%TF.GenerationSoftware,KiCad,Pcbnew,(5.1.5)-3*%
%TF.CreationDate,2020-03-09T15:55:20-05:00*%
%TF.ProjectId,Shield v.2,53686965-6c64-4207-962e-322e6b696361,rev?*%
%TF.SameCoordinates,Original*%
%TF.FileFunction,Paste,Top*%
%TF.FilePolarity,Positive*%
%FSLAX46Y46*%
G04 Gerber Fmt 4.6, Leading zero omitted, Abs format (unit mm)*
G04 Created by KiCad (PCBNEW (5.1.5)-3) date 2020-03-09 15:55:20*
%MOMM*%
%LPD*%
G04 APERTURE LIST*
%ADD10C,0.150000*%
%ADD11R,0.450000X0.600000*%
%ADD12R,0.600000X0.450000*%
%ADD13R,0.450000X1.750000*%
%ADD14R,1.750000X0.450000*%
%ADD15R,0.600000X2.000000*%
%ADD16R,0.900000X0.800000*%
%ADD17R,0.800000X0.900000*%
%ADD18R,0.450000X1.500000*%
G04 APERTURE END LIST*
D10*
%TO.C,R26*%
G36*
X123912691Y-79536053D02*
G01*
X123933926Y-79539203D01*
X123954750Y-79544419D01*
X123974962Y-79551651D01*
X123994368Y-79560830D01*
X124012781Y-79571866D01*
X124030024Y-79584654D01*
X124045930Y-79599070D01*
X124060346Y-79614976D01*
X124073134Y-79632219D01*
X124084170Y-79650632D01*
X124093349Y-79670038D01*
X124100581Y-79690250D01*
X124105797Y-79711074D01*
X124108947Y-79732309D01*
X124110000Y-79753750D01*
X124110000Y-80266250D01*
X124108947Y-80287691D01*
X124105797Y-80308926D01*
X124100581Y-80329750D01*
X124093349Y-80349962D01*
X124084170Y-80369368D01*
X124073134Y-80387781D01*
X124060346Y-80405024D01*
X124045930Y-80420930D01*
X124030024Y-80435346D01*
X124012781Y-80448134D01*
X123994368Y-80459170D01*
X123974962Y-80468349D01*
X123954750Y-80475581D01*
X123933926Y-80480797D01*
X123912691Y-80483947D01*
X123891250Y-80485000D01*
X123453750Y-80485000D01*
X123432309Y-80483947D01*
X123411074Y-80480797D01*
X123390250Y-80475581D01*
X123370038Y-80468349D01*
X123350632Y-80459170D01*
X123332219Y-80448134D01*
X123314976Y-80435346D01*
X123299070Y-80420930D01*
X123284654Y-80405024D01*
X123271866Y-80387781D01*
X123260830Y-80369368D01*
X123251651Y-80349962D01*
X123244419Y-80329750D01*
X123239203Y-80308926D01*
X123236053Y-80287691D01*
X123235000Y-80266250D01*
X123235000Y-79753750D01*
X123236053Y-79732309D01*
X123239203Y-79711074D01*
X123244419Y-79690250D01*
X123251651Y-79670038D01*
X123260830Y-79650632D01*
X123271866Y-79632219D01*
X123284654Y-79614976D01*
X123299070Y-79599070D01*
X123314976Y-79584654D01*
X123332219Y-79571866D01*
X123350632Y-79560830D01*
X123370038Y-79551651D01*
X123390250Y-79544419D01*
X123411074Y-79539203D01*
X123432309Y-79536053D01*
X123453750Y-79535000D01*
X123891250Y-79535000D01*
X123912691Y-79536053D01*
G37*
G36*
X125487691Y-79536053D02*
G01*
X125508926Y-79539203D01*
X125529750Y-79544419D01*
X125549962Y-79551651D01*
X125569368Y-79560830D01*
X125587781Y-79571866D01*
X125605024Y-79584654D01*
X125620930Y-79599070D01*
X125635346Y-79614976D01*
X125648134Y-79632219D01*
X125659170Y-79650632D01*
X125668349Y-79670038D01*
X125675581Y-79690250D01*
X125680797Y-79711074D01*
X125683947Y-79732309D01*
X125685000Y-79753750D01*
X125685000Y-80266250D01*
X125683947Y-80287691D01*
X125680797Y-80308926D01*
X125675581Y-80329750D01*
X125668349Y-80349962D01*
X125659170Y-80369368D01*
X125648134Y-80387781D01*
X125635346Y-80405024D01*
X125620930Y-80420930D01*
X125605024Y-80435346D01*
X125587781Y-80448134D01*
X125569368Y-80459170D01*
X125549962Y-80468349D01*
X125529750Y-80475581D01*
X125508926Y-80480797D01*
X125487691Y-80483947D01*
X125466250Y-80485000D01*
X125028750Y-80485000D01*
X125007309Y-80483947D01*
X124986074Y-80480797D01*
X124965250Y-80475581D01*
X124945038Y-80468349D01*
X124925632Y-80459170D01*
X124907219Y-80448134D01*
X124889976Y-80435346D01*
X124874070Y-80420930D01*
X124859654Y-80405024D01*
X124846866Y-80387781D01*
X124835830Y-80369368D01*
X124826651Y-80349962D01*
X124819419Y-80329750D01*
X124814203Y-80308926D01*
X124811053Y-80287691D01*
X124810000Y-80266250D01*
X124810000Y-79753750D01*
X124811053Y-79732309D01*
X124814203Y-79711074D01*
X124819419Y-79690250D01*
X124826651Y-79670038D01*
X124835830Y-79650632D01*
X124846866Y-79632219D01*
X124859654Y-79614976D01*
X124874070Y-79599070D01*
X124889976Y-79584654D01*
X124907219Y-79571866D01*
X124925632Y-79560830D01*
X124945038Y-79551651D01*
X124965250Y-79544419D01*
X124986074Y-79539203D01*
X125007309Y-79536053D01*
X125028750Y-79535000D01*
X125466250Y-79535000D01*
X125487691Y-79536053D01*
G37*
%TD*%
%TO.C,C1*%
G36*
X127023691Y-115413053D02*
G01*
X127044926Y-115416203D01*
X127065750Y-115421419D01*
X127085962Y-115428651D01*
X127105368Y-115437830D01*
X127123781Y-115448866D01*
X127141024Y-115461654D01*
X127156930Y-115476070D01*
X127171346Y-115491976D01*
X127184134Y-115509219D01*
X127195170Y-115527632D01*
X127204349Y-115547038D01*
X127211581Y-115567250D01*
X127216797Y-115588074D01*
X127219947Y-115609309D01*
X127221000Y-115630750D01*
X127221000Y-116068250D01*
X127219947Y-116089691D01*
X127216797Y-116110926D01*
X127211581Y-116131750D01*
X127204349Y-116151962D01*
X127195170Y-116171368D01*
X127184134Y-116189781D01*
X127171346Y-116207024D01*
X127156930Y-116222930D01*
X127141024Y-116237346D01*
X127123781Y-116250134D01*
X127105368Y-116261170D01*
X127085962Y-116270349D01*
X127065750Y-116277581D01*
X127044926Y-116282797D01*
X127023691Y-116285947D01*
X127002250Y-116287000D01*
X126489750Y-116287000D01*
X126468309Y-116285947D01*
X126447074Y-116282797D01*
X126426250Y-116277581D01*
X126406038Y-116270349D01*
X126386632Y-116261170D01*
X126368219Y-116250134D01*
X126350976Y-116237346D01*
X126335070Y-116222930D01*
X126320654Y-116207024D01*
X126307866Y-116189781D01*
X126296830Y-116171368D01*
X126287651Y-116151962D01*
X126280419Y-116131750D01*
X126275203Y-116110926D01*
X126272053Y-116089691D01*
X126271000Y-116068250D01*
X126271000Y-115630750D01*
X126272053Y-115609309D01*
X126275203Y-115588074D01*
X126280419Y-115567250D01*
X126287651Y-115547038D01*
X126296830Y-115527632D01*
X126307866Y-115509219D01*
X126320654Y-115491976D01*
X126335070Y-115476070D01*
X126350976Y-115461654D01*
X126368219Y-115448866D01*
X126386632Y-115437830D01*
X126406038Y-115428651D01*
X126426250Y-115421419D01*
X126447074Y-115416203D01*
X126468309Y-115413053D01*
X126489750Y-115412000D01*
X127002250Y-115412000D01*
X127023691Y-115413053D01*
G37*
G36*
X127023691Y-113838053D02*
G01*
X127044926Y-113841203D01*
X127065750Y-113846419D01*
X127085962Y-113853651D01*
X127105368Y-113862830D01*
X127123781Y-113873866D01*
X127141024Y-113886654D01*
X127156930Y-113901070D01*
X127171346Y-113916976D01*
X127184134Y-113934219D01*
X127195170Y-113952632D01*
X127204349Y-113972038D01*
X127211581Y-113992250D01*
X127216797Y-114013074D01*
X127219947Y-114034309D01*
X127221000Y-114055750D01*
X127221000Y-114493250D01*
X127219947Y-114514691D01*
X127216797Y-114535926D01*
X127211581Y-114556750D01*
X127204349Y-114576962D01*
X127195170Y-114596368D01*
X127184134Y-114614781D01*
X127171346Y-114632024D01*
X127156930Y-114647930D01*
X127141024Y-114662346D01*
X127123781Y-114675134D01*
X127105368Y-114686170D01*
X127085962Y-114695349D01*
X127065750Y-114702581D01*
X127044926Y-114707797D01*
X127023691Y-114710947D01*
X127002250Y-114712000D01*
X126489750Y-114712000D01*
X126468309Y-114710947D01*
X126447074Y-114707797D01*
X126426250Y-114702581D01*
X126406038Y-114695349D01*
X126386632Y-114686170D01*
X126368219Y-114675134D01*
X126350976Y-114662346D01*
X126335070Y-114647930D01*
X126320654Y-114632024D01*
X126307866Y-114614781D01*
X126296830Y-114596368D01*
X126287651Y-114576962D01*
X126280419Y-114556750D01*
X126275203Y-114535926D01*
X126272053Y-114514691D01*
X126271000Y-114493250D01*
X126271000Y-114055750D01*
X126272053Y-114034309D01*
X126275203Y-114013074D01*
X126280419Y-113992250D01*
X126287651Y-113972038D01*
X126296830Y-113952632D01*
X126307866Y-113934219D01*
X126320654Y-113916976D01*
X126335070Y-113901070D01*
X126350976Y-113886654D01*
X126368219Y-113873866D01*
X126386632Y-113862830D01*
X126406038Y-113853651D01*
X126426250Y-113846419D01*
X126447074Y-113841203D01*
X126468309Y-113838053D01*
X126489750Y-113837000D01*
X127002250Y-113837000D01*
X127023691Y-113838053D01*
G37*
%TD*%
%TO.C,C2*%
G36*
X175474691Y-65312053D02*
G01*
X175495926Y-65315203D01*
X175516750Y-65320419D01*
X175536962Y-65327651D01*
X175556368Y-65336830D01*
X175574781Y-65347866D01*
X175592024Y-65360654D01*
X175607930Y-65375070D01*
X175622346Y-65390976D01*
X175635134Y-65408219D01*
X175646170Y-65426632D01*
X175655349Y-65446038D01*
X175662581Y-65466250D01*
X175667797Y-65487074D01*
X175670947Y-65508309D01*
X175672000Y-65529750D01*
X175672000Y-66042250D01*
X175670947Y-66063691D01*
X175667797Y-66084926D01*
X175662581Y-66105750D01*
X175655349Y-66125962D01*
X175646170Y-66145368D01*
X175635134Y-66163781D01*
X175622346Y-66181024D01*
X175607930Y-66196930D01*
X175592024Y-66211346D01*
X175574781Y-66224134D01*
X175556368Y-66235170D01*
X175536962Y-66244349D01*
X175516750Y-66251581D01*
X175495926Y-66256797D01*
X175474691Y-66259947D01*
X175453250Y-66261000D01*
X175015750Y-66261000D01*
X174994309Y-66259947D01*
X174973074Y-66256797D01*
X174952250Y-66251581D01*
X174932038Y-66244349D01*
X174912632Y-66235170D01*
X174894219Y-66224134D01*
X174876976Y-66211346D01*
X174861070Y-66196930D01*
X174846654Y-66181024D01*
X174833866Y-66163781D01*
X174822830Y-66145368D01*
X174813651Y-66125962D01*
X174806419Y-66105750D01*
X174801203Y-66084926D01*
X174798053Y-66063691D01*
X174797000Y-66042250D01*
X174797000Y-65529750D01*
X174798053Y-65508309D01*
X174801203Y-65487074D01*
X174806419Y-65466250D01*
X174813651Y-65446038D01*
X174822830Y-65426632D01*
X174833866Y-65408219D01*
X174846654Y-65390976D01*
X174861070Y-65375070D01*
X174876976Y-65360654D01*
X174894219Y-65347866D01*
X174912632Y-65336830D01*
X174932038Y-65327651D01*
X174952250Y-65320419D01*
X174973074Y-65315203D01*
X174994309Y-65312053D01*
X175015750Y-65311000D01*
X175453250Y-65311000D01*
X175474691Y-65312053D01*
G37*
G36*
X177049691Y-65312053D02*
G01*
X177070926Y-65315203D01*
X177091750Y-65320419D01*
X177111962Y-65327651D01*
X177131368Y-65336830D01*
X177149781Y-65347866D01*
X177167024Y-65360654D01*
X177182930Y-65375070D01*
X177197346Y-65390976D01*
X177210134Y-65408219D01*
X177221170Y-65426632D01*
X177230349Y-65446038D01*
X177237581Y-65466250D01*
X177242797Y-65487074D01*
X177245947Y-65508309D01*
X177247000Y-65529750D01*
X177247000Y-66042250D01*
X177245947Y-66063691D01*
X177242797Y-66084926D01*
X177237581Y-66105750D01*
X177230349Y-66125962D01*
X177221170Y-66145368D01*
X177210134Y-66163781D01*
X177197346Y-66181024D01*
X177182930Y-66196930D01*
X177167024Y-66211346D01*
X177149781Y-66224134D01*
X177131368Y-66235170D01*
X177111962Y-66244349D01*
X177091750Y-66251581D01*
X177070926Y-66256797D01*
X177049691Y-66259947D01*
X177028250Y-66261000D01*
X176590750Y-66261000D01*
X176569309Y-66259947D01*
X176548074Y-66256797D01*
X176527250Y-66251581D01*
X176507038Y-66244349D01*
X176487632Y-66235170D01*
X176469219Y-66224134D01*
X176451976Y-66211346D01*
X176436070Y-66196930D01*
X176421654Y-66181024D01*
X176408866Y-66163781D01*
X176397830Y-66145368D01*
X176388651Y-66125962D01*
X176381419Y-66105750D01*
X176376203Y-66084926D01*
X176373053Y-66063691D01*
X176372000Y-66042250D01*
X176372000Y-65529750D01*
X176373053Y-65508309D01*
X176376203Y-65487074D01*
X176381419Y-65466250D01*
X176388651Y-65446038D01*
X176397830Y-65426632D01*
X176408866Y-65408219D01*
X176421654Y-65390976D01*
X176436070Y-65375070D01*
X176451976Y-65360654D01*
X176469219Y-65347866D01*
X176487632Y-65336830D01*
X176507038Y-65327651D01*
X176527250Y-65320419D01*
X176548074Y-65315203D01*
X176569309Y-65312053D01*
X176590750Y-65311000D01*
X177028250Y-65311000D01*
X177049691Y-65312053D01*
G37*
%TD*%
%TO.C,C3*%
G36*
X136612691Y-119541053D02*
G01*
X136633926Y-119544203D01*
X136654750Y-119549419D01*
X136674962Y-119556651D01*
X136694368Y-119565830D01*
X136712781Y-119576866D01*
X136730024Y-119589654D01*
X136745930Y-119604070D01*
X136760346Y-119619976D01*
X136773134Y-119637219D01*
X136784170Y-119655632D01*
X136793349Y-119675038D01*
X136800581Y-119695250D01*
X136805797Y-119716074D01*
X136808947Y-119737309D01*
X136810000Y-119758750D01*
X136810000Y-120271250D01*
X136808947Y-120292691D01*
X136805797Y-120313926D01*
X136800581Y-120334750D01*
X136793349Y-120354962D01*
X136784170Y-120374368D01*
X136773134Y-120392781D01*
X136760346Y-120410024D01*
X136745930Y-120425930D01*
X136730024Y-120440346D01*
X136712781Y-120453134D01*
X136694368Y-120464170D01*
X136674962Y-120473349D01*
X136654750Y-120480581D01*
X136633926Y-120485797D01*
X136612691Y-120488947D01*
X136591250Y-120490000D01*
X136153750Y-120490000D01*
X136132309Y-120488947D01*
X136111074Y-120485797D01*
X136090250Y-120480581D01*
X136070038Y-120473349D01*
X136050632Y-120464170D01*
X136032219Y-120453134D01*
X136014976Y-120440346D01*
X135999070Y-120425930D01*
X135984654Y-120410024D01*
X135971866Y-120392781D01*
X135960830Y-120374368D01*
X135951651Y-120354962D01*
X135944419Y-120334750D01*
X135939203Y-120313926D01*
X135936053Y-120292691D01*
X135935000Y-120271250D01*
X135935000Y-119758750D01*
X135936053Y-119737309D01*
X135939203Y-119716074D01*
X135944419Y-119695250D01*
X135951651Y-119675038D01*
X135960830Y-119655632D01*
X135971866Y-119637219D01*
X135984654Y-119619976D01*
X135999070Y-119604070D01*
X136014976Y-119589654D01*
X136032219Y-119576866D01*
X136050632Y-119565830D01*
X136070038Y-119556651D01*
X136090250Y-119549419D01*
X136111074Y-119544203D01*
X136132309Y-119541053D01*
X136153750Y-119540000D01*
X136591250Y-119540000D01*
X136612691Y-119541053D01*
G37*
G36*
X138187691Y-119541053D02*
G01*
X138208926Y-119544203D01*
X138229750Y-119549419D01*
X138249962Y-119556651D01*
X138269368Y-119565830D01*
X138287781Y-119576866D01*
X138305024Y-119589654D01*
X138320930Y-119604070D01*
X138335346Y-119619976D01*
X138348134Y-119637219D01*
X138359170Y-119655632D01*
X138368349Y-119675038D01*
X138375581Y-119695250D01*
X138380797Y-119716074D01*
X138383947Y-119737309D01*
X138385000Y-119758750D01*
X138385000Y-120271250D01*
X138383947Y-120292691D01*
X138380797Y-120313926D01*
X138375581Y-120334750D01*
X138368349Y-120354962D01*
X138359170Y-120374368D01*
X138348134Y-120392781D01*
X138335346Y-120410024D01*
X138320930Y-120425930D01*
X138305024Y-120440346D01*
X138287781Y-120453134D01*
X138269368Y-120464170D01*
X138249962Y-120473349D01*
X138229750Y-120480581D01*
X138208926Y-120485797D01*
X138187691Y-120488947D01*
X138166250Y-120490000D01*
X137728750Y-120490000D01*
X137707309Y-120488947D01*
X137686074Y-120485797D01*
X137665250Y-120480581D01*
X137645038Y-120473349D01*
X137625632Y-120464170D01*
X137607219Y-120453134D01*
X137589976Y-120440346D01*
X137574070Y-120425930D01*
X137559654Y-120410024D01*
X137546866Y-120392781D01*
X137535830Y-120374368D01*
X137526651Y-120354962D01*
X137519419Y-120334750D01*
X137514203Y-120313926D01*
X137511053Y-120292691D01*
X137510000Y-120271250D01*
X137510000Y-119758750D01*
X137511053Y-119737309D01*
X137514203Y-119716074D01*
X137519419Y-119695250D01*
X137526651Y-119675038D01*
X137535830Y-119655632D01*
X137546866Y-119637219D01*
X137559654Y-119619976D01*
X137574070Y-119604070D01*
X137589976Y-119589654D01*
X137607219Y-119576866D01*
X137625632Y-119565830D01*
X137645038Y-119556651D01*
X137665250Y-119549419D01*
X137686074Y-119544203D01*
X137707309Y-119541053D01*
X137728750Y-119540000D01*
X138166250Y-119540000D01*
X138187691Y-119541053D01*
G37*
%TD*%
%TO.C,C4*%
G36*
X155090691Y-99741053D02*
G01*
X155111926Y-99744203D01*
X155132750Y-99749419D01*
X155152962Y-99756651D01*
X155172368Y-99765830D01*
X155190781Y-99776866D01*
X155208024Y-99789654D01*
X155223930Y-99804070D01*
X155238346Y-99819976D01*
X155251134Y-99837219D01*
X155262170Y-99855632D01*
X155271349Y-99875038D01*
X155278581Y-99895250D01*
X155283797Y-99916074D01*
X155286947Y-99937309D01*
X155288000Y-99958750D01*
X155288000Y-100396250D01*
X155286947Y-100417691D01*
X155283797Y-100438926D01*
X155278581Y-100459750D01*
X155271349Y-100479962D01*
X155262170Y-100499368D01*
X155251134Y-100517781D01*
X155238346Y-100535024D01*
X155223930Y-100550930D01*
X155208024Y-100565346D01*
X155190781Y-100578134D01*
X155172368Y-100589170D01*
X155152962Y-100598349D01*
X155132750Y-100605581D01*
X155111926Y-100610797D01*
X155090691Y-100613947D01*
X155069250Y-100615000D01*
X154556750Y-100615000D01*
X154535309Y-100613947D01*
X154514074Y-100610797D01*
X154493250Y-100605581D01*
X154473038Y-100598349D01*
X154453632Y-100589170D01*
X154435219Y-100578134D01*
X154417976Y-100565346D01*
X154402070Y-100550930D01*
X154387654Y-100535024D01*
X154374866Y-100517781D01*
X154363830Y-100499368D01*
X154354651Y-100479962D01*
X154347419Y-100459750D01*
X154342203Y-100438926D01*
X154339053Y-100417691D01*
X154338000Y-100396250D01*
X154338000Y-99958750D01*
X154339053Y-99937309D01*
X154342203Y-99916074D01*
X154347419Y-99895250D01*
X154354651Y-99875038D01*
X154363830Y-99855632D01*
X154374866Y-99837219D01*
X154387654Y-99819976D01*
X154402070Y-99804070D01*
X154417976Y-99789654D01*
X154435219Y-99776866D01*
X154453632Y-99765830D01*
X154473038Y-99756651D01*
X154493250Y-99749419D01*
X154514074Y-99744203D01*
X154535309Y-99741053D01*
X154556750Y-99740000D01*
X155069250Y-99740000D01*
X155090691Y-99741053D01*
G37*
G36*
X155090691Y-101316053D02*
G01*
X155111926Y-101319203D01*
X155132750Y-101324419D01*
X155152962Y-101331651D01*
X155172368Y-101340830D01*
X155190781Y-101351866D01*
X155208024Y-101364654D01*
X155223930Y-101379070D01*
X155238346Y-101394976D01*
X155251134Y-101412219D01*
X155262170Y-101430632D01*
X155271349Y-101450038D01*
X155278581Y-101470250D01*
X155283797Y-101491074D01*
X155286947Y-101512309D01*
X155288000Y-101533750D01*
X155288000Y-101971250D01*
X155286947Y-101992691D01*
X155283797Y-102013926D01*
X155278581Y-102034750D01*
X155271349Y-102054962D01*
X155262170Y-102074368D01*
X155251134Y-102092781D01*
X155238346Y-102110024D01*
X155223930Y-102125930D01*
X155208024Y-102140346D01*
X155190781Y-102153134D01*
X155172368Y-102164170D01*
X155152962Y-102173349D01*
X155132750Y-102180581D01*
X155111926Y-102185797D01*
X155090691Y-102188947D01*
X155069250Y-102190000D01*
X154556750Y-102190000D01*
X154535309Y-102188947D01*
X154514074Y-102185797D01*
X154493250Y-102180581D01*
X154473038Y-102173349D01*
X154453632Y-102164170D01*
X154435219Y-102153134D01*
X154417976Y-102140346D01*
X154402070Y-102125930D01*
X154387654Y-102110024D01*
X154374866Y-102092781D01*
X154363830Y-102074368D01*
X154354651Y-102054962D01*
X154347419Y-102034750D01*
X154342203Y-102013926D01*
X154339053Y-101992691D01*
X154338000Y-101971250D01*
X154338000Y-101533750D01*
X154339053Y-101512309D01*
X154342203Y-101491074D01*
X154347419Y-101470250D01*
X154354651Y-101450038D01*
X154363830Y-101430632D01*
X154374866Y-101412219D01*
X154387654Y-101394976D01*
X154402070Y-101379070D01*
X154417976Y-101364654D01*
X154435219Y-101351866D01*
X154453632Y-101340830D01*
X154473038Y-101331651D01*
X154493250Y-101324419D01*
X154514074Y-101319203D01*
X154535309Y-101316053D01*
X154556750Y-101315000D01*
X155069250Y-101315000D01*
X155090691Y-101316053D01*
G37*
%TD*%
%TO.C,C5*%
G36*
X133627691Y-99741053D02*
G01*
X133648926Y-99744203D01*
X133669750Y-99749419D01*
X133689962Y-99756651D01*
X133709368Y-99765830D01*
X133727781Y-99776866D01*
X133745024Y-99789654D01*
X133760930Y-99804070D01*
X133775346Y-99819976D01*
X133788134Y-99837219D01*
X133799170Y-99855632D01*
X133808349Y-99875038D01*
X133815581Y-99895250D01*
X133820797Y-99916074D01*
X133823947Y-99937309D01*
X133825000Y-99958750D01*
X133825000Y-100396250D01*
X133823947Y-100417691D01*
X133820797Y-100438926D01*
X133815581Y-100459750D01*
X133808349Y-100479962D01*
X133799170Y-100499368D01*
X133788134Y-100517781D01*
X133775346Y-100535024D01*
X133760930Y-100550930D01*
X133745024Y-100565346D01*
X133727781Y-100578134D01*
X133709368Y-100589170D01*
X133689962Y-100598349D01*
X133669750Y-100605581D01*
X133648926Y-100610797D01*
X133627691Y-100613947D01*
X133606250Y-100615000D01*
X133093750Y-100615000D01*
X133072309Y-100613947D01*
X133051074Y-100610797D01*
X133030250Y-100605581D01*
X133010038Y-100598349D01*
X132990632Y-100589170D01*
X132972219Y-100578134D01*
X132954976Y-100565346D01*
X132939070Y-100550930D01*
X132924654Y-100535024D01*
X132911866Y-100517781D01*
X132900830Y-100499368D01*
X132891651Y-100479962D01*
X132884419Y-100459750D01*
X132879203Y-100438926D01*
X132876053Y-100417691D01*
X132875000Y-100396250D01*
X132875000Y-99958750D01*
X132876053Y-99937309D01*
X132879203Y-99916074D01*
X132884419Y-99895250D01*
X132891651Y-99875038D01*
X132900830Y-99855632D01*
X132911866Y-99837219D01*
X132924654Y-99819976D01*
X132939070Y-99804070D01*
X132954976Y-99789654D01*
X132972219Y-99776866D01*
X132990632Y-99765830D01*
X133010038Y-99756651D01*
X133030250Y-99749419D01*
X133051074Y-99744203D01*
X133072309Y-99741053D01*
X133093750Y-99740000D01*
X133606250Y-99740000D01*
X133627691Y-99741053D01*
G37*
G36*
X133627691Y-101316053D02*
G01*
X133648926Y-101319203D01*
X133669750Y-101324419D01*
X133689962Y-101331651D01*
X133709368Y-101340830D01*
X133727781Y-101351866D01*
X133745024Y-101364654D01*
X133760930Y-101379070D01*
X133775346Y-101394976D01*
X133788134Y-101412219D01*
X133799170Y-101430632D01*
X133808349Y-101450038D01*
X133815581Y-101470250D01*
X133820797Y-101491074D01*
X133823947Y-101512309D01*
X133825000Y-101533750D01*
X133825000Y-101971250D01*
X133823947Y-101992691D01*
X133820797Y-102013926D01*
X133815581Y-102034750D01*
X133808349Y-102054962D01*
X133799170Y-102074368D01*
X133788134Y-102092781D01*
X133775346Y-102110024D01*
X133760930Y-102125930D01*
X133745024Y-102140346D01*
X133727781Y-102153134D01*
X133709368Y-102164170D01*
X133689962Y-102173349D01*
X133669750Y-102180581D01*
X133648926Y-102185797D01*
X133627691Y-102188947D01*
X133606250Y-102190000D01*
X133093750Y-102190000D01*
X133072309Y-102188947D01*
X133051074Y-102185797D01*
X133030250Y-102180581D01*
X133010038Y-102173349D01*
X132990632Y-102164170D01*
X132972219Y-102153134D01*
X132954976Y-102140346D01*
X132939070Y-102125930D01*
X132924654Y-102110024D01*
X132911866Y-102092781D01*
X132900830Y-102074368D01*
X132891651Y-102054962D01*
X132884419Y-102034750D01*
X132879203Y-102013926D01*
X132876053Y-101992691D01*
X132875000Y-101971250D01*
X132875000Y-101533750D01*
X132876053Y-101512309D01*
X132879203Y-101491074D01*
X132884419Y-101470250D01*
X132891651Y-101450038D01*
X132900830Y-101430632D01*
X132911866Y-101412219D01*
X132924654Y-101394976D01*
X132939070Y-101379070D01*
X132954976Y-101364654D01*
X132972219Y-101351866D01*
X132990632Y-101340830D01*
X133010038Y-101331651D01*
X133030250Y-101324419D01*
X133051074Y-101319203D01*
X133072309Y-101316053D01*
X133093750Y-101315000D01*
X133606250Y-101315000D01*
X133627691Y-101316053D01*
G37*
%TD*%
D11*
%TO.C,D1*%
X142748000Y-107730000D03*
X142748000Y-105630000D03*
%TD*%
%TO.C,D2*%
X144018000Y-102963000D03*
X144018000Y-105063000D03*
%TD*%
%TO.C,D3*%
X145288000Y-107730000D03*
X145288000Y-105630000D03*
%TD*%
%TO.C,D4*%
X146558000Y-102963000D03*
X146558000Y-105063000D03*
%TD*%
%TO.C,D5*%
X147828000Y-107730000D03*
X147828000Y-105630000D03*
%TD*%
%TO.C,D6*%
X149098000Y-102963000D03*
X149098000Y-105063000D03*
%TD*%
%TO.C,D7*%
X150368000Y-107730000D03*
X150368000Y-105630000D03*
%TD*%
%TO.C,D8*%
X151638000Y-102963000D03*
X151638000Y-105063000D03*
%TD*%
%TO.C,D9*%
X121285000Y-105063000D03*
X121285000Y-102963000D03*
%TD*%
%TO.C,D10*%
X122555000Y-107730000D03*
X122555000Y-105630000D03*
%TD*%
%TO.C,D11*%
X123825000Y-105063000D03*
X123825000Y-102963000D03*
%TD*%
%TO.C,D12*%
X125095000Y-105630000D03*
X125095000Y-107730000D03*
%TD*%
%TO.C,D13*%
X126365000Y-105063000D03*
X126365000Y-102963000D03*
%TD*%
%TO.C,D14*%
X127635000Y-105630000D03*
X127635000Y-107730000D03*
%TD*%
%TO.C,D15*%
X128905000Y-105063000D03*
X128905000Y-102963000D03*
%TD*%
%TO.C,D16*%
X130175000Y-105630000D03*
X130175000Y-107730000D03*
%TD*%
D12*
%TO.C,D17*%
X102836000Y-123444000D03*
X104936000Y-123444000D03*
%TD*%
%TO.C,D18*%
X102836000Y-110744000D03*
X104936000Y-110744000D03*
%TD*%
%TO.C,D19*%
X104936000Y-98044000D03*
X102836000Y-98044000D03*
%TD*%
%TO.C,D20*%
X104936000Y-85344000D03*
X102836000Y-85344000D03*
%TD*%
%TO.C,D21*%
X104936000Y-72644000D03*
X102836000Y-72644000D03*
%TD*%
%TO.C,D22*%
X119668000Y-64579500D03*
X117568000Y-64579500D03*
%TD*%
%TO.C,D23*%
X119668000Y-62039500D03*
X117568000Y-62039500D03*
%TD*%
%TO.C,D24*%
X117568000Y-59499500D03*
X119668000Y-59499500D03*
%TD*%
%TO.C,D25*%
X127415000Y-77279500D03*
X125315000Y-77279500D03*
%TD*%
%TO.C,D26*%
X127415000Y-74739500D03*
X125315000Y-74739500D03*
%TD*%
%TO.C,D27*%
X127415000Y-72199500D03*
X125315000Y-72199500D03*
%TD*%
%TO.C,D28*%
X125315000Y-69659500D03*
X127415000Y-69659500D03*
%TD*%
%TO.C,D29*%
X125315000Y-67119500D03*
X127415000Y-67119500D03*
%TD*%
%TO.C,D30*%
X125315000Y-64579500D03*
X127415000Y-64579500D03*
%TD*%
%TO.C,D31*%
X127415000Y-62039500D03*
X125315000Y-62039500D03*
%TD*%
%TO.C,D32*%
X127415000Y-59499500D03*
X125315000Y-59499500D03*
%TD*%
%TO.C,D33*%
X135162000Y-77279500D03*
X133062000Y-77279500D03*
%TD*%
%TO.C,D34*%
X133062000Y-74739500D03*
X135162000Y-74739500D03*
%TD*%
%TO.C,D35*%
X133062000Y-72199500D03*
X135162000Y-72199500D03*
%TD*%
%TO.C,D36*%
X135162000Y-69659500D03*
X133062000Y-69659500D03*
%TD*%
%TO.C,D37*%
X135162000Y-67119500D03*
X133062000Y-67119500D03*
%TD*%
%TO.C,D38*%
X135162000Y-64579500D03*
X133062000Y-64579500D03*
%TD*%
%TO.C,D39*%
X133062000Y-62039500D03*
X135162000Y-62039500D03*
%TD*%
%TO.C,D40*%
X133062000Y-59499500D03*
X135162000Y-59499500D03*
%TD*%
%TO.C,D41*%
X140809000Y-77279500D03*
X142909000Y-77279500D03*
%TD*%
%TO.C,D42*%
X142909000Y-74739500D03*
X140809000Y-74739500D03*
%TD*%
%TO.C,D43*%
X140809000Y-72199500D03*
X142909000Y-72199500D03*
%TD*%
%TO.C,D44*%
X140809000Y-69659500D03*
X142909000Y-69659500D03*
%TD*%
%TO.C,D45*%
X140809000Y-67119500D03*
X142909000Y-67119500D03*
%TD*%
%TO.C,D46*%
X142909000Y-64579500D03*
X140809000Y-64579500D03*
%TD*%
%TO.C,D47*%
X142909000Y-62039500D03*
X140809000Y-62039500D03*
%TD*%
%TO.C,D48*%
X142909000Y-59499500D03*
X140809000Y-59499500D03*
%TD*%
%TO.C,D49*%
X150656000Y-77279500D03*
X148556000Y-77279500D03*
%TD*%
%TO.C,D50*%
X148556000Y-74739500D03*
X150656000Y-74739500D03*
%TD*%
%TO.C,D51*%
X148556000Y-72199500D03*
X150656000Y-72199500D03*
%TD*%
%TO.C,D52*%
X150656000Y-69659500D03*
X148556000Y-69659500D03*
%TD*%
%TO.C,D53*%
X150656000Y-67119500D03*
X148556000Y-67119500D03*
%TD*%
%TO.C,D54*%
X148556000Y-64579500D03*
X150656000Y-64579500D03*
%TD*%
%TO.C,D55*%
X148556000Y-62039500D03*
X150656000Y-62039500D03*
%TD*%
%TO.C,D56*%
X148556000Y-59499500D03*
X150656000Y-59499500D03*
%TD*%
%TO.C,D57*%
X156303000Y-77279500D03*
X158403000Y-77279500D03*
%TD*%
%TO.C,D58*%
X158437000Y-74739500D03*
X156337000Y-74739500D03*
%TD*%
%TO.C,D59*%
X156303000Y-72199500D03*
X158403000Y-72199500D03*
%TD*%
%TO.C,D60*%
X156303000Y-69659500D03*
X158403000Y-69659500D03*
%TD*%
%TO.C,D61*%
X156303000Y-67119500D03*
X158403000Y-67119500D03*
%TD*%
%TO.C,D62*%
X158403000Y-64579500D03*
X156303000Y-64579500D03*
%TD*%
%TO.C,D63*%
X158403000Y-62039500D03*
X156303000Y-62039500D03*
%TD*%
%TO.C,D64*%
X158403000Y-59499500D03*
X156303000Y-59499500D03*
%TD*%
%TO.C,D65*%
X164050000Y-77279500D03*
X166150000Y-77279500D03*
%TD*%
%TO.C,D66*%
X164050000Y-74739500D03*
X166150000Y-74739500D03*
%TD*%
%TO.C,D67*%
X166150000Y-72199500D03*
X164050000Y-72199500D03*
%TD*%
%TO.C,D68*%
X166150000Y-69659500D03*
X164050000Y-69659500D03*
%TD*%
%TO.C,D69*%
X166150000Y-67119500D03*
X164050000Y-67119500D03*
%TD*%
%TO.C,D70*%
X166150000Y-64579500D03*
X164050000Y-64579500D03*
%TD*%
%TO.C,D71*%
X164050000Y-62039500D03*
X166150000Y-62039500D03*
%TD*%
%TO.C,D72*%
X164050000Y-59499500D03*
X166150000Y-59499500D03*
%TD*%
%TO.C,D73*%
X178274000Y-123444000D03*
X180374000Y-123444000D03*
%TD*%
%TO.C,D74*%
X180374000Y-110744000D03*
X178274000Y-110744000D03*
%TD*%
%TO.C,D75*%
X180374000Y-98107500D03*
X178274000Y-98107500D03*
%TD*%
%TO.C,D76*%
X178274000Y-85090000D03*
X180374000Y-85090000D03*
%TD*%
%TO.C,D77*%
X180247000Y-72644000D03*
X178147000Y-72644000D03*
%TD*%
%TO.C,D78*%
X171797000Y-64579500D03*
X173897000Y-64579500D03*
%TD*%
%TO.C,D79*%
X173897000Y-62039500D03*
X171797000Y-62039500D03*
%TD*%
%TO.C,D80*%
X171797000Y-59499500D03*
X173897000Y-59499500D03*
%TD*%
D10*
%TO.C,R1*%
G36*
X172655191Y-102142053D02*
G01*
X172676426Y-102145203D01*
X172697250Y-102150419D01*
X172717462Y-102157651D01*
X172736868Y-102166830D01*
X172755281Y-102177866D01*
X172772524Y-102190654D01*
X172788430Y-102205070D01*
X172802846Y-102220976D01*
X172815634Y-102238219D01*
X172826670Y-102256632D01*
X172835849Y-102276038D01*
X172843081Y-102296250D01*
X172848297Y-102317074D01*
X172851447Y-102338309D01*
X172852500Y-102359750D01*
X172852500Y-102872250D01*
X172851447Y-102893691D01*
X172848297Y-102914926D01*
X172843081Y-102935750D01*
X172835849Y-102955962D01*
X172826670Y-102975368D01*
X172815634Y-102993781D01*
X172802846Y-103011024D01*
X172788430Y-103026930D01*
X172772524Y-103041346D01*
X172755281Y-103054134D01*
X172736868Y-103065170D01*
X172717462Y-103074349D01*
X172697250Y-103081581D01*
X172676426Y-103086797D01*
X172655191Y-103089947D01*
X172633750Y-103091000D01*
X172196250Y-103091000D01*
X172174809Y-103089947D01*
X172153574Y-103086797D01*
X172132750Y-103081581D01*
X172112538Y-103074349D01*
X172093132Y-103065170D01*
X172074719Y-103054134D01*
X172057476Y-103041346D01*
X172041570Y-103026930D01*
X172027154Y-103011024D01*
X172014366Y-102993781D01*
X172003330Y-102975368D01*
X171994151Y-102955962D01*
X171986919Y-102935750D01*
X171981703Y-102914926D01*
X171978553Y-102893691D01*
X171977500Y-102872250D01*
X171977500Y-102359750D01*
X171978553Y-102338309D01*
X171981703Y-102317074D01*
X171986919Y-102296250D01*
X171994151Y-102276038D01*
X172003330Y-102256632D01*
X172014366Y-102238219D01*
X172027154Y-102220976D01*
X172041570Y-102205070D01*
X172057476Y-102190654D01*
X172074719Y-102177866D01*
X172093132Y-102166830D01*
X172112538Y-102157651D01*
X172132750Y-102150419D01*
X172153574Y-102145203D01*
X172174809Y-102142053D01*
X172196250Y-102141000D01*
X172633750Y-102141000D01*
X172655191Y-102142053D01*
G37*
G36*
X174230191Y-102142053D02*
G01*
X174251426Y-102145203D01*
X174272250Y-102150419D01*
X174292462Y-102157651D01*
X174311868Y-102166830D01*
X174330281Y-102177866D01*
X174347524Y-102190654D01*
X174363430Y-102205070D01*
X174377846Y-102220976D01*
X174390634Y-102238219D01*
X174401670Y-102256632D01*
X174410849Y-102276038D01*
X174418081Y-102296250D01*
X174423297Y-102317074D01*
X174426447Y-102338309D01*
X174427500Y-102359750D01*
X174427500Y-102872250D01*
X174426447Y-102893691D01*
X174423297Y-102914926D01*
X174418081Y-102935750D01*
X174410849Y-102955962D01*
X174401670Y-102975368D01*
X174390634Y-102993781D01*
X174377846Y-103011024D01*
X174363430Y-103026930D01*
X174347524Y-103041346D01*
X174330281Y-103054134D01*
X174311868Y-103065170D01*
X174292462Y-103074349D01*
X174272250Y-103081581D01*
X174251426Y-103086797D01*
X174230191Y-103089947D01*
X174208750Y-103091000D01*
X173771250Y-103091000D01*
X173749809Y-103089947D01*
X173728574Y-103086797D01*
X173707750Y-103081581D01*
X173687538Y-103074349D01*
X173668132Y-103065170D01*
X173649719Y-103054134D01*
X173632476Y-103041346D01*
X173616570Y-103026930D01*
X173602154Y-103011024D01*
X173589366Y-102993781D01*
X173578330Y-102975368D01*
X173569151Y-102955962D01*
X173561919Y-102935750D01*
X173556703Y-102914926D01*
X173553553Y-102893691D01*
X173552500Y-102872250D01*
X173552500Y-102359750D01*
X173553553Y-102338309D01*
X173556703Y-102317074D01*
X173561919Y-102296250D01*
X173569151Y-102276038D01*
X173578330Y-102256632D01*
X173589366Y-102238219D01*
X173602154Y-102220976D01*
X173616570Y-102205070D01*
X173632476Y-102190654D01*
X173649719Y-102177866D01*
X173668132Y-102166830D01*
X173687538Y-102157651D01*
X173707750Y-102150419D01*
X173728574Y-102145203D01*
X173749809Y-102142053D01*
X173771250Y-102141000D01*
X174208750Y-102141000D01*
X174230191Y-102142053D01*
G37*
%TD*%
%TO.C,R2*%
G36*
X174255691Y-99602053D02*
G01*
X174276926Y-99605203D01*
X174297750Y-99610419D01*
X174317962Y-99617651D01*
X174337368Y-99626830D01*
X174355781Y-99637866D01*
X174373024Y-99650654D01*
X174388930Y-99665070D01*
X174403346Y-99680976D01*
X174416134Y-99698219D01*
X174427170Y-99716632D01*
X174436349Y-99736038D01*
X174443581Y-99756250D01*
X174448797Y-99777074D01*
X174451947Y-99798309D01*
X174453000Y-99819750D01*
X174453000Y-100332250D01*
X174451947Y-100353691D01*
X174448797Y-100374926D01*
X174443581Y-100395750D01*
X174436349Y-100415962D01*
X174427170Y-100435368D01*
X174416134Y-100453781D01*
X174403346Y-100471024D01*
X174388930Y-100486930D01*
X174373024Y-100501346D01*
X174355781Y-100514134D01*
X174337368Y-100525170D01*
X174317962Y-100534349D01*
X174297750Y-100541581D01*
X174276926Y-100546797D01*
X174255691Y-100549947D01*
X174234250Y-100551000D01*
X173796750Y-100551000D01*
X173775309Y-100549947D01*
X173754074Y-100546797D01*
X173733250Y-100541581D01*
X173713038Y-100534349D01*
X173693632Y-100525170D01*
X173675219Y-100514134D01*
X173657976Y-100501346D01*
X173642070Y-100486930D01*
X173627654Y-100471024D01*
X173614866Y-100453781D01*
X173603830Y-100435368D01*
X173594651Y-100415962D01*
X173587419Y-100395750D01*
X173582203Y-100374926D01*
X173579053Y-100353691D01*
X173578000Y-100332250D01*
X173578000Y-99819750D01*
X173579053Y-99798309D01*
X173582203Y-99777074D01*
X173587419Y-99756250D01*
X173594651Y-99736038D01*
X173603830Y-99716632D01*
X173614866Y-99698219D01*
X173627654Y-99680976D01*
X173642070Y-99665070D01*
X173657976Y-99650654D01*
X173675219Y-99637866D01*
X173693632Y-99626830D01*
X173713038Y-99617651D01*
X173733250Y-99610419D01*
X173754074Y-99605203D01*
X173775309Y-99602053D01*
X173796750Y-99601000D01*
X174234250Y-99601000D01*
X174255691Y-99602053D01*
G37*
G36*
X172680691Y-99602053D02*
G01*
X172701926Y-99605203D01*
X172722750Y-99610419D01*
X172742962Y-99617651D01*
X172762368Y-99626830D01*
X172780781Y-99637866D01*
X172798024Y-99650654D01*
X172813930Y-99665070D01*
X172828346Y-99680976D01*
X172841134Y-99698219D01*
X172852170Y-99716632D01*
X172861349Y-99736038D01*
X172868581Y-99756250D01*
X172873797Y-99777074D01*
X172876947Y-99798309D01*
X172878000Y-99819750D01*
X172878000Y-100332250D01*
X172876947Y-100353691D01*
X172873797Y-100374926D01*
X172868581Y-100395750D01*
X172861349Y-100415962D01*
X172852170Y-100435368D01*
X172841134Y-100453781D01*
X172828346Y-100471024D01*
X172813930Y-100486930D01*
X172798024Y-100501346D01*
X172780781Y-100514134D01*
X172762368Y-100525170D01*
X172742962Y-100534349D01*
X172722750Y-100541581D01*
X172701926Y-100546797D01*
X172680691Y-100549947D01*
X172659250Y-100551000D01*
X172221750Y-100551000D01*
X172200309Y-100549947D01*
X172179074Y-100546797D01*
X172158250Y-100541581D01*
X172138038Y-100534349D01*
X172118632Y-100525170D01*
X172100219Y-100514134D01*
X172082976Y-100501346D01*
X172067070Y-100486930D01*
X172052654Y-100471024D01*
X172039866Y-100453781D01*
X172028830Y-100435368D01*
X172019651Y-100415962D01*
X172012419Y-100395750D01*
X172007203Y-100374926D01*
X172004053Y-100353691D01*
X172003000Y-100332250D01*
X172003000Y-99819750D01*
X172004053Y-99798309D01*
X172007203Y-99777074D01*
X172012419Y-99756250D01*
X172019651Y-99736038D01*
X172028830Y-99716632D01*
X172039866Y-99698219D01*
X172052654Y-99680976D01*
X172067070Y-99665070D01*
X172082976Y-99650654D01*
X172100219Y-99637866D01*
X172118632Y-99626830D01*
X172138038Y-99617651D01*
X172158250Y-99610419D01*
X172179074Y-99605203D01*
X172200309Y-99602053D01*
X172221750Y-99601000D01*
X172659250Y-99601000D01*
X172680691Y-99602053D01*
G37*
%TD*%
%TO.C,R3*%
G36*
X165250691Y-81199053D02*
G01*
X165271926Y-81202203D01*
X165292750Y-81207419D01*
X165312962Y-81214651D01*
X165332368Y-81223830D01*
X165350781Y-81234866D01*
X165368024Y-81247654D01*
X165383930Y-81262070D01*
X165398346Y-81277976D01*
X165411134Y-81295219D01*
X165422170Y-81313632D01*
X165431349Y-81333038D01*
X165438581Y-81353250D01*
X165443797Y-81374074D01*
X165446947Y-81395309D01*
X165448000Y-81416750D01*
X165448000Y-81854250D01*
X165446947Y-81875691D01*
X165443797Y-81896926D01*
X165438581Y-81917750D01*
X165431349Y-81937962D01*
X165422170Y-81957368D01*
X165411134Y-81975781D01*
X165398346Y-81993024D01*
X165383930Y-82008930D01*
X165368024Y-82023346D01*
X165350781Y-82036134D01*
X165332368Y-82047170D01*
X165312962Y-82056349D01*
X165292750Y-82063581D01*
X165271926Y-82068797D01*
X165250691Y-82071947D01*
X165229250Y-82073000D01*
X164716750Y-82073000D01*
X164695309Y-82071947D01*
X164674074Y-82068797D01*
X164653250Y-82063581D01*
X164633038Y-82056349D01*
X164613632Y-82047170D01*
X164595219Y-82036134D01*
X164577976Y-82023346D01*
X164562070Y-82008930D01*
X164547654Y-81993024D01*
X164534866Y-81975781D01*
X164523830Y-81957368D01*
X164514651Y-81937962D01*
X164507419Y-81917750D01*
X164502203Y-81896926D01*
X164499053Y-81875691D01*
X164498000Y-81854250D01*
X164498000Y-81416750D01*
X164499053Y-81395309D01*
X164502203Y-81374074D01*
X164507419Y-81353250D01*
X164514651Y-81333038D01*
X164523830Y-81313632D01*
X164534866Y-81295219D01*
X164547654Y-81277976D01*
X164562070Y-81262070D01*
X164577976Y-81247654D01*
X164595219Y-81234866D01*
X164613632Y-81223830D01*
X164633038Y-81214651D01*
X164653250Y-81207419D01*
X164674074Y-81202203D01*
X164695309Y-81199053D01*
X164716750Y-81198000D01*
X165229250Y-81198000D01*
X165250691Y-81199053D01*
G37*
G36*
X165250691Y-82774053D02*
G01*
X165271926Y-82777203D01*
X165292750Y-82782419D01*
X165312962Y-82789651D01*
X165332368Y-82798830D01*
X165350781Y-82809866D01*
X165368024Y-82822654D01*
X165383930Y-82837070D01*
X165398346Y-82852976D01*
X165411134Y-82870219D01*
X165422170Y-82888632D01*
X165431349Y-82908038D01*
X165438581Y-82928250D01*
X165443797Y-82949074D01*
X165446947Y-82970309D01*
X165448000Y-82991750D01*
X165448000Y-83429250D01*
X165446947Y-83450691D01*
X165443797Y-83471926D01*
X165438581Y-83492750D01*
X165431349Y-83512962D01*
X165422170Y-83532368D01*
X165411134Y-83550781D01*
X165398346Y-83568024D01*
X165383930Y-83583930D01*
X165368024Y-83598346D01*
X165350781Y-83611134D01*
X165332368Y-83622170D01*
X165312962Y-83631349D01*
X165292750Y-83638581D01*
X165271926Y-83643797D01*
X165250691Y-83646947D01*
X165229250Y-83648000D01*
X164716750Y-83648000D01*
X164695309Y-83646947D01*
X164674074Y-83643797D01*
X164653250Y-83638581D01*
X164633038Y-83631349D01*
X164613632Y-83622170D01*
X164595219Y-83611134D01*
X164577976Y-83598346D01*
X164562070Y-83583930D01*
X164547654Y-83568024D01*
X164534866Y-83550781D01*
X164523830Y-83532368D01*
X164514651Y-83512962D01*
X164507419Y-83492750D01*
X164502203Y-83471926D01*
X164499053Y-83450691D01*
X164498000Y-83429250D01*
X164498000Y-82991750D01*
X164499053Y-82970309D01*
X164502203Y-82949074D01*
X164507419Y-82928250D01*
X164514651Y-82908038D01*
X164523830Y-82888632D01*
X164534866Y-82870219D01*
X164547654Y-82852976D01*
X164562070Y-82837070D01*
X164577976Y-82822654D01*
X164595219Y-82809866D01*
X164613632Y-82798830D01*
X164633038Y-82789651D01*
X164653250Y-82782419D01*
X164674074Y-82777203D01*
X164695309Y-82774053D01*
X164716750Y-82773000D01*
X165229250Y-82773000D01*
X165250691Y-82774053D01*
G37*
%TD*%
%TO.C,R4*%
G36*
X162710691Y-82774053D02*
G01*
X162731926Y-82777203D01*
X162752750Y-82782419D01*
X162772962Y-82789651D01*
X162792368Y-82798830D01*
X162810781Y-82809866D01*
X162828024Y-82822654D01*
X162843930Y-82837070D01*
X162858346Y-82852976D01*
X162871134Y-82870219D01*
X162882170Y-82888632D01*
X162891349Y-82908038D01*
X162898581Y-82928250D01*
X162903797Y-82949074D01*
X162906947Y-82970309D01*
X162908000Y-82991750D01*
X162908000Y-83429250D01*
X162906947Y-83450691D01*
X162903797Y-83471926D01*
X162898581Y-83492750D01*
X162891349Y-83512962D01*
X162882170Y-83532368D01*
X162871134Y-83550781D01*
X162858346Y-83568024D01*
X162843930Y-83583930D01*
X162828024Y-83598346D01*
X162810781Y-83611134D01*
X162792368Y-83622170D01*
X162772962Y-83631349D01*
X162752750Y-83638581D01*
X162731926Y-83643797D01*
X162710691Y-83646947D01*
X162689250Y-83648000D01*
X162176750Y-83648000D01*
X162155309Y-83646947D01*
X162134074Y-83643797D01*
X162113250Y-83638581D01*
X162093038Y-83631349D01*
X162073632Y-83622170D01*
X162055219Y-83611134D01*
X162037976Y-83598346D01*
X162022070Y-83583930D01*
X162007654Y-83568024D01*
X161994866Y-83550781D01*
X161983830Y-83532368D01*
X161974651Y-83512962D01*
X161967419Y-83492750D01*
X161962203Y-83471926D01*
X161959053Y-83450691D01*
X161958000Y-83429250D01*
X161958000Y-82991750D01*
X161959053Y-82970309D01*
X161962203Y-82949074D01*
X161967419Y-82928250D01*
X161974651Y-82908038D01*
X161983830Y-82888632D01*
X161994866Y-82870219D01*
X162007654Y-82852976D01*
X162022070Y-82837070D01*
X162037976Y-82822654D01*
X162055219Y-82809866D01*
X162073632Y-82798830D01*
X162093038Y-82789651D01*
X162113250Y-82782419D01*
X162134074Y-82777203D01*
X162155309Y-82774053D01*
X162176750Y-82773000D01*
X162689250Y-82773000D01*
X162710691Y-82774053D01*
G37*
G36*
X162710691Y-81199053D02*
G01*
X162731926Y-81202203D01*
X162752750Y-81207419D01*
X162772962Y-81214651D01*
X162792368Y-81223830D01*
X162810781Y-81234866D01*
X162828024Y-81247654D01*
X162843930Y-81262070D01*
X162858346Y-81277976D01*
X162871134Y-81295219D01*
X162882170Y-81313632D01*
X162891349Y-81333038D01*
X162898581Y-81353250D01*
X162903797Y-81374074D01*
X162906947Y-81395309D01*
X162908000Y-81416750D01*
X162908000Y-81854250D01*
X162906947Y-81875691D01*
X162903797Y-81896926D01*
X162898581Y-81917750D01*
X162891349Y-81937962D01*
X162882170Y-81957368D01*
X162871134Y-81975781D01*
X162858346Y-81993024D01*
X162843930Y-82008930D01*
X162828024Y-82023346D01*
X162810781Y-82036134D01*
X162792368Y-82047170D01*
X162772962Y-82056349D01*
X162752750Y-82063581D01*
X162731926Y-82068797D01*
X162710691Y-82071947D01*
X162689250Y-82073000D01*
X162176750Y-82073000D01*
X162155309Y-82071947D01*
X162134074Y-82068797D01*
X162113250Y-82063581D01*
X162093038Y-82056349D01*
X162073632Y-82047170D01*
X162055219Y-82036134D01*
X162037976Y-82023346D01*
X162022070Y-82008930D01*
X162007654Y-81993024D01*
X161994866Y-81975781D01*
X161983830Y-81957368D01*
X161974651Y-81937962D01*
X161967419Y-81917750D01*
X161962203Y-81896926D01*
X161959053Y-81875691D01*
X161958000Y-81854250D01*
X161958000Y-81416750D01*
X161959053Y-81395309D01*
X161962203Y-81374074D01*
X161967419Y-81353250D01*
X161974651Y-81333038D01*
X161983830Y-81313632D01*
X161994866Y-81295219D01*
X162007654Y-81277976D01*
X162022070Y-81262070D01*
X162037976Y-81247654D01*
X162055219Y-81234866D01*
X162073632Y-81223830D01*
X162093038Y-81214651D01*
X162113250Y-81207419D01*
X162134074Y-81202203D01*
X162155309Y-81199053D01*
X162176750Y-81198000D01*
X162689250Y-81198000D01*
X162710691Y-81199053D01*
G37*
%TD*%
%TO.C,R5*%
G36*
X160170691Y-81199053D02*
G01*
X160191926Y-81202203D01*
X160212750Y-81207419D01*
X160232962Y-81214651D01*
X160252368Y-81223830D01*
X160270781Y-81234866D01*
X160288024Y-81247654D01*
X160303930Y-81262070D01*
X160318346Y-81277976D01*
X160331134Y-81295219D01*
X160342170Y-81313632D01*
X160351349Y-81333038D01*
X160358581Y-81353250D01*
X160363797Y-81374074D01*
X160366947Y-81395309D01*
X160368000Y-81416750D01*
X160368000Y-81854250D01*
X160366947Y-81875691D01*
X160363797Y-81896926D01*
X160358581Y-81917750D01*
X160351349Y-81937962D01*
X160342170Y-81957368D01*
X160331134Y-81975781D01*
X160318346Y-81993024D01*
X160303930Y-82008930D01*
X160288024Y-82023346D01*
X160270781Y-82036134D01*
X160252368Y-82047170D01*
X160232962Y-82056349D01*
X160212750Y-82063581D01*
X160191926Y-82068797D01*
X160170691Y-82071947D01*
X160149250Y-82073000D01*
X159636750Y-82073000D01*
X159615309Y-82071947D01*
X159594074Y-82068797D01*
X159573250Y-82063581D01*
X159553038Y-82056349D01*
X159533632Y-82047170D01*
X159515219Y-82036134D01*
X159497976Y-82023346D01*
X159482070Y-82008930D01*
X159467654Y-81993024D01*
X159454866Y-81975781D01*
X159443830Y-81957368D01*
X159434651Y-81937962D01*
X159427419Y-81917750D01*
X159422203Y-81896926D01*
X159419053Y-81875691D01*
X159418000Y-81854250D01*
X159418000Y-81416750D01*
X159419053Y-81395309D01*
X159422203Y-81374074D01*
X159427419Y-81353250D01*
X159434651Y-81333038D01*
X159443830Y-81313632D01*
X159454866Y-81295219D01*
X159467654Y-81277976D01*
X159482070Y-81262070D01*
X159497976Y-81247654D01*
X159515219Y-81234866D01*
X159533632Y-81223830D01*
X159553038Y-81214651D01*
X159573250Y-81207419D01*
X159594074Y-81202203D01*
X159615309Y-81199053D01*
X159636750Y-81198000D01*
X160149250Y-81198000D01*
X160170691Y-81199053D01*
G37*
G36*
X160170691Y-82774053D02*
G01*
X160191926Y-82777203D01*
X160212750Y-82782419D01*
X160232962Y-82789651D01*
X160252368Y-82798830D01*
X160270781Y-82809866D01*
X160288024Y-82822654D01*
X160303930Y-82837070D01*
X160318346Y-82852976D01*
X160331134Y-82870219D01*
X160342170Y-82888632D01*
X160351349Y-82908038D01*
X160358581Y-82928250D01*
X160363797Y-82949074D01*
X160366947Y-82970309D01*
X160368000Y-82991750D01*
X160368000Y-83429250D01*
X160366947Y-83450691D01*
X160363797Y-83471926D01*
X160358581Y-83492750D01*
X160351349Y-83512962D01*
X160342170Y-83532368D01*
X160331134Y-83550781D01*
X160318346Y-83568024D01*
X160303930Y-83583930D01*
X160288024Y-83598346D01*
X160270781Y-83611134D01*
X160252368Y-83622170D01*
X160232962Y-83631349D01*
X160212750Y-83638581D01*
X160191926Y-83643797D01*
X160170691Y-83646947D01*
X160149250Y-83648000D01*
X159636750Y-83648000D01*
X159615309Y-83646947D01*
X159594074Y-83643797D01*
X159573250Y-83638581D01*
X159553038Y-83631349D01*
X159533632Y-83622170D01*
X159515219Y-83611134D01*
X159497976Y-83598346D01*
X159482070Y-83583930D01*
X159467654Y-83568024D01*
X159454866Y-83550781D01*
X159443830Y-83532368D01*
X159434651Y-83512962D01*
X159427419Y-83492750D01*
X159422203Y-83471926D01*
X159419053Y-83450691D01*
X159418000Y-83429250D01*
X159418000Y-82991750D01*
X159419053Y-82970309D01*
X159422203Y-82949074D01*
X159427419Y-82928250D01*
X159434651Y-82908038D01*
X159443830Y-82888632D01*
X159454866Y-82870219D01*
X159467654Y-82852976D01*
X159482070Y-82837070D01*
X159497976Y-82822654D01*
X159515219Y-82809866D01*
X159533632Y-82798830D01*
X159553038Y-82789651D01*
X159573250Y-82782419D01*
X159594074Y-82777203D01*
X159615309Y-82774053D01*
X159636750Y-82773000D01*
X160149250Y-82773000D01*
X160170691Y-82774053D01*
G37*
%TD*%
%TO.C,R6*%
G36*
X157630691Y-81199053D02*
G01*
X157651926Y-81202203D01*
X157672750Y-81207419D01*
X157692962Y-81214651D01*
X157712368Y-81223830D01*
X157730781Y-81234866D01*
X157748024Y-81247654D01*
X157763930Y-81262070D01*
X157778346Y-81277976D01*
X157791134Y-81295219D01*
X157802170Y-81313632D01*
X157811349Y-81333038D01*
X157818581Y-81353250D01*
X157823797Y-81374074D01*
X157826947Y-81395309D01*
X157828000Y-81416750D01*
X157828000Y-81854250D01*
X157826947Y-81875691D01*
X157823797Y-81896926D01*
X157818581Y-81917750D01*
X157811349Y-81937962D01*
X157802170Y-81957368D01*
X157791134Y-81975781D01*
X157778346Y-81993024D01*
X157763930Y-82008930D01*
X157748024Y-82023346D01*
X157730781Y-82036134D01*
X157712368Y-82047170D01*
X157692962Y-82056349D01*
X157672750Y-82063581D01*
X157651926Y-82068797D01*
X157630691Y-82071947D01*
X157609250Y-82073000D01*
X157096750Y-82073000D01*
X157075309Y-82071947D01*
X157054074Y-82068797D01*
X157033250Y-82063581D01*
X157013038Y-82056349D01*
X156993632Y-82047170D01*
X156975219Y-82036134D01*
X156957976Y-82023346D01*
X156942070Y-82008930D01*
X156927654Y-81993024D01*
X156914866Y-81975781D01*
X156903830Y-81957368D01*
X156894651Y-81937962D01*
X156887419Y-81917750D01*
X156882203Y-81896926D01*
X156879053Y-81875691D01*
X156878000Y-81854250D01*
X156878000Y-81416750D01*
X156879053Y-81395309D01*
X156882203Y-81374074D01*
X156887419Y-81353250D01*
X156894651Y-81333038D01*
X156903830Y-81313632D01*
X156914866Y-81295219D01*
X156927654Y-81277976D01*
X156942070Y-81262070D01*
X156957976Y-81247654D01*
X156975219Y-81234866D01*
X156993632Y-81223830D01*
X157013038Y-81214651D01*
X157033250Y-81207419D01*
X157054074Y-81202203D01*
X157075309Y-81199053D01*
X157096750Y-81198000D01*
X157609250Y-81198000D01*
X157630691Y-81199053D01*
G37*
G36*
X157630691Y-82774053D02*
G01*
X157651926Y-82777203D01*
X157672750Y-82782419D01*
X157692962Y-82789651D01*
X157712368Y-82798830D01*
X157730781Y-82809866D01*
X157748024Y-82822654D01*
X157763930Y-82837070D01*
X157778346Y-82852976D01*
X157791134Y-82870219D01*
X157802170Y-82888632D01*
X157811349Y-82908038D01*
X157818581Y-82928250D01*
X157823797Y-82949074D01*
X157826947Y-82970309D01*
X157828000Y-82991750D01*
X157828000Y-83429250D01*
X157826947Y-83450691D01*
X157823797Y-83471926D01*
X157818581Y-83492750D01*
X157811349Y-83512962D01*
X157802170Y-83532368D01*
X157791134Y-83550781D01*
X157778346Y-83568024D01*
X157763930Y-83583930D01*
X157748024Y-83598346D01*
X157730781Y-83611134D01*
X157712368Y-83622170D01*
X157692962Y-83631349D01*
X157672750Y-83638581D01*
X157651926Y-83643797D01*
X157630691Y-83646947D01*
X157609250Y-83648000D01*
X157096750Y-83648000D01*
X157075309Y-83646947D01*
X157054074Y-83643797D01*
X157033250Y-83638581D01*
X157013038Y-83631349D01*
X156993632Y-83622170D01*
X156975219Y-83611134D01*
X156957976Y-83598346D01*
X156942070Y-83583930D01*
X156927654Y-83568024D01*
X156914866Y-83550781D01*
X156903830Y-83532368D01*
X156894651Y-83512962D01*
X156887419Y-83492750D01*
X156882203Y-83471926D01*
X156879053Y-83450691D01*
X156878000Y-83429250D01*
X156878000Y-82991750D01*
X156879053Y-82970309D01*
X156882203Y-82949074D01*
X156887419Y-82928250D01*
X156894651Y-82908038D01*
X156903830Y-82888632D01*
X156914866Y-82870219D01*
X156927654Y-82852976D01*
X156942070Y-82837070D01*
X156957976Y-82822654D01*
X156975219Y-82809866D01*
X156993632Y-82798830D01*
X157013038Y-82789651D01*
X157033250Y-82782419D01*
X157054074Y-82777203D01*
X157075309Y-82774053D01*
X157096750Y-82773000D01*
X157609250Y-82773000D01*
X157630691Y-82774053D01*
G37*
%TD*%
%TO.C,R7*%
G36*
X155090691Y-82799553D02*
G01*
X155111926Y-82802703D01*
X155132750Y-82807919D01*
X155152962Y-82815151D01*
X155172368Y-82824330D01*
X155190781Y-82835366D01*
X155208024Y-82848154D01*
X155223930Y-82862570D01*
X155238346Y-82878476D01*
X155251134Y-82895719D01*
X155262170Y-82914132D01*
X155271349Y-82933538D01*
X155278581Y-82953750D01*
X155283797Y-82974574D01*
X155286947Y-82995809D01*
X155288000Y-83017250D01*
X155288000Y-83454750D01*
X155286947Y-83476191D01*
X155283797Y-83497426D01*
X155278581Y-83518250D01*
X155271349Y-83538462D01*
X155262170Y-83557868D01*
X155251134Y-83576281D01*
X155238346Y-83593524D01*
X155223930Y-83609430D01*
X155208024Y-83623846D01*
X155190781Y-83636634D01*
X155172368Y-83647670D01*
X155152962Y-83656849D01*
X155132750Y-83664081D01*
X155111926Y-83669297D01*
X155090691Y-83672447D01*
X155069250Y-83673500D01*
X154556750Y-83673500D01*
X154535309Y-83672447D01*
X154514074Y-83669297D01*
X154493250Y-83664081D01*
X154473038Y-83656849D01*
X154453632Y-83647670D01*
X154435219Y-83636634D01*
X154417976Y-83623846D01*
X154402070Y-83609430D01*
X154387654Y-83593524D01*
X154374866Y-83576281D01*
X154363830Y-83557868D01*
X154354651Y-83538462D01*
X154347419Y-83518250D01*
X154342203Y-83497426D01*
X154339053Y-83476191D01*
X154338000Y-83454750D01*
X154338000Y-83017250D01*
X154339053Y-82995809D01*
X154342203Y-82974574D01*
X154347419Y-82953750D01*
X154354651Y-82933538D01*
X154363830Y-82914132D01*
X154374866Y-82895719D01*
X154387654Y-82878476D01*
X154402070Y-82862570D01*
X154417976Y-82848154D01*
X154435219Y-82835366D01*
X154453632Y-82824330D01*
X154473038Y-82815151D01*
X154493250Y-82807919D01*
X154514074Y-82802703D01*
X154535309Y-82799553D01*
X154556750Y-82798500D01*
X155069250Y-82798500D01*
X155090691Y-82799553D01*
G37*
G36*
X155090691Y-81224553D02*
G01*
X155111926Y-81227703D01*
X155132750Y-81232919D01*
X155152962Y-81240151D01*
X155172368Y-81249330D01*
X155190781Y-81260366D01*
X155208024Y-81273154D01*
X155223930Y-81287570D01*
X155238346Y-81303476D01*
X155251134Y-81320719D01*
X155262170Y-81339132D01*
X155271349Y-81358538D01*
X155278581Y-81378750D01*
X155283797Y-81399574D01*
X155286947Y-81420809D01*
X155288000Y-81442250D01*
X155288000Y-81879750D01*
X155286947Y-81901191D01*
X155283797Y-81922426D01*
X155278581Y-81943250D01*
X155271349Y-81963462D01*
X155262170Y-81982868D01*
X155251134Y-82001281D01*
X155238346Y-82018524D01*
X155223930Y-82034430D01*
X155208024Y-82048846D01*
X155190781Y-82061634D01*
X155172368Y-82072670D01*
X155152962Y-82081849D01*
X155132750Y-82089081D01*
X155111926Y-82094297D01*
X155090691Y-82097447D01*
X155069250Y-82098500D01*
X154556750Y-82098500D01*
X154535309Y-82097447D01*
X154514074Y-82094297D01*
X154493250Y-82089081D01*
X154473038Y-82081849D01*
X154453632Y-82072670D01*
X154435219Y-82061634D01*
X154417976Y-82048846D01*
X154402070Y-82034430D01*
X154387654Y-82018524D01*
X154374866Y-82001281D01*
X154363830Y-81982868D01*
X154354651Y-81963462D01*
X154347419Y-81943250D01*
X154342203Y-81922426D01*
X154339053Y-81901191D01*
X154338000Y-81879750D01*
X154338000Y-81442250D01*
X154339053Y-81420809D01*
X154342203Y-81399574D01*
X154347419Y-81378750D01*
X154354651Y-81358538D01*
X154363830Y-81339132D01*
X154374866Y-81320719D01*
X154387654Y-81303476D01*
X154402070Y-81287570D01*
X154417976Y-81273154D01*
X154435219Y-81260366D01*
X154453632Y-81249330D01*
X154473038Y-81240151D01*
X154493250Y-81232919D01*
X154514074Y-81227703D01*
X154535309Y-81224553D01*
X154556750Y-81223500D01*
X155069250Y-81223500D01*
X155090691Y-81224553D01*
G37*
%TD*%
%TO.C,R8*%
G36*
X152550691Y-81199053D02*
G01*
X152571926Y-81202203D01*
X152592750Y-81207419D01*
X152612962Y-81214651D01*
X152632368Y-81223830D01*
X152650781Y-81234866D01*
X152668024Y-81247654D01*
X152683930Y-81262070D01*
X152698346Y-81277976D01*
X152711134Y-81295219D01*
X152722170Y-81313632D01*
X152731349Y-81333038D01*
X152738581Y-81353250D01*
X152743797Y-81374074D01*
X152746947Y-81395309D01*
X152748000Y-81416750D01*
X152748000Y-81854250D01*
X152746947Y-81875691D01*
X152743797Y-81896926D01*
X152738581Y-81917750D01*
X152731349Y-81937962D01*
X152722170Y-81957368D01*
X152711134Y-81975781D01*
X152698346Y-81993024D01*
X152683930Y-82008930D01*
X152668024Y-82023346D01*
X152650781Y-82036134D01*
X152632368Y-82047170D01*
X152612962Y-82056349D01*
X152592750Y-82063581D01*
X152571926Y-82068797D01*
X152550691Y-82071947D01*
X152529250Y-82073000D01*
X152016750Y-82073000D01*
X151995309Y-82071947D01*
X151974074Y-82068797D01*
X151953250Y-82063581D01*
X151933038Y-82056349D01*
X151913632Y-82047170D01*
X151895219Y-82036134D01*
X151877976Y-82023346D01*
X151862070Y-82008930D01*
X151847654Y-81993024D01*
X151834866Y-81975781D01*
X151823830Y-81957368D01*
X151814651Y-81937962D01*
X151807419Y-81917750D01*
X151802203Y-81896926D01*
X151799053Y-81875691D01*
X151798000Y-81854250D01*
X151798000Y-81416750D01*
X151799053Y-81395309D01*
X151802203Y-81374074D01*
X151807419Y-81353250D01*
X151814651Y-81333038D01*
X151823830Y-81313632D01*
X151834866Y-81295219D01*
X151847654Y-81277976D01*
X151862070Y-81262070D01*
X151877976Y-81247654D01*
X151895219Y-81234866D01*
X151913632Y-81223830D01*
X151933038Y-81214651D01*
X151953250Y-81207419D01*
X151974074Y-81202203D01*
X151995309Y-81199053D01*
X152016750Y-81198000D01*
X152529250Y-81198000D01*
X152550691Y-81199053D01*
G37*
G36*
X152550691Y-82774053D02*
G01*
X152571926Y-82777203D01*
X152592750Y-82782419D01*
X152612962Y-82789651D01*
X152632368Y-82798830D01*
X152650781Y-82809866D01*
X152668024Y-82822654D01*
X152683930Y-82837070D01*
X152698346Y-82852976D01*
X152711134Y-82870219D01*
X152722170Y-82888632D01*
X152731349Y-82908038D01*
X152738581Y-82928250D01*
X152743797Y-82949074D01*
X152746947Y-82970309D01*
X152748000Y-82991750D01*
X152748000Y-83429250D01*
X152746947Y-83450691D01*
X152743797Y-83471926D01*
X152738581Y-83492750D01*
X152731349Y-83512962D01*
X152722170Y-83532368D01*
X152711134Y-83550781D01*
X152698346Y-83568024D01*
X152683930Y-83583930D01*
X152668024Y-83598346D01*
X152650781Y-83611134D01*
X152632368Y-83622170D01*
X152612962Y-83631349D01*
X152592750Y-83638581D01*
X152571926Y-83643797D01*
X152550691Y-83646947D01*
X152529250Y-83648000D01*
X152016750Y-83648000D01*
X151995309Y-83646947D01*
X151974074Y-83643797D01*
X151953250Y-83638581D01*
X151933038Y-83631349D01*
X151913632Y-83622170D01*
X151895219Y-83611134D01*
X151877976Y-83598346D01*
X151862070Y-83583930D01*
X151847654Y-83568024D01*
X151834866Y-83550781D01*
X151823830Y-83532368D01*
X151814651Y-83512962D01*
X151807419Y-83492750D01*
X151802203Y-83471926D01*
X151799053Y-83450691D01*
X151798000Y-83429250D01*
X151798000Y-82991750D01*
X151799053Y-82970309D01*
X151802203Y-82949074D01*
X151807419Y-82928250D01*
X151814651Y-82908038D01*
X151823830Y-82888632D01*
X151834866Y-82870219D01*
X151847654Y-82852976D01*
X151862070Y-82837070D01*
X151877976Y-82822654D01*
X151895219Y-82809866D01*
X151913632Y-82798830D01*
X151933038Y-82789651D01*
X151953250Y-82782419D01*
X151974074Y-82777203D01*
X151995309Y-82774053D01*
X152016750Y-82773000D01*
X152529250Y-82773000D01*
X152550691Y-82774053D01*
G37*
%TD*%
%TO.C,R9*%
G36*
X150137691Y-82748553D02*
G01*
X150158926Y-82751703D01*
X150179750Y-82756919D01*
X150199962Y-82764151D01*
X150219368Y-82773330D01*
X150237781Y-82784366D01*
X150255024Y-82797154D01*
X150270930Y-82811570D01*
X150285346Y-82827476D01*
X150298134Y-82844719D01*
X150309170Y-82863132D01*
X150318349Y-82882538D01*
X150325581Y-82902750D01*
X150330797Y-82923574D01*
X150333947Y-82944809D01*
X150335000Y-82966250D01*
X150335000Y-83403750D01*
X150333947Y-83425191D01*
X150330797Y-83446426D01*
X150325581Y-83467250D01*
X150318349Y-83487462D01*
X150309170Y-83506868D01*
X150298134Y-83525281D01*
X150285346Y-83542524D01*
X150270930Y-83558430D01*
X150255024Y-83572846D01*
X150237781Y-83585634D01*
X150219368Y-83596670D01*
X150199962Y-83605849D01*
X150179750Y-83613081D01*
X150158926Y-83618297D01*
X150137691Y-83621447D01*
X150116250Y-83622500D01*
X149603750Y-83622500D01*
X149582309Y-83621447D01*
X149561074Y-83618297D01*
X149540250Y-83613081D01*
X149520038Y-83605849D01*
X149500632Y-83596670D01*
X149482219Y-83585634D01*
X149464976Y-83572846D01*
X149449070Y-83558430D01*
X149434654Y-83542524D01*
X149421866Y-83525281D01*
X149410830Y-83506868D01*
X149401651Y-83487462D01*
X149394419Y-83467250D01*
X149389203Y-83446426D01*
X149386053Y-83425191D01*
X149385000Y-83403750D01*
X149385000Y-82966250D01*
X149386053Y-82944809D01*
X149389203Y-82923574D01*
X149394419Y-82902750D01*
X149401651Y-82882538D01*
X149410830Y-82863132D01*
X149421866Y-82844719D01*
X149434654Y-82827476D01*
X149449070Y-82811570D01*
X149464976Y-82797154D01*
X149482219Y-82784366D01*
X149500632Y-82773330D01*
X149520038Y-82764151D01*
X149540250Y-82756919D01*
X149561074Y-82751703D01*
X149582309Y-82748553D01*
X149603750Y-82747500D01*
X150116250Y-82747500D01*
X150137691Y-82748553D01*
G37*
G36*
X150137691Y-81173553D02*
G01*
X150158926Y-81176703D01*
X150179750Y-81181919D01*
X150199962Y-81189151D01*
X150219368Y-81198330D01*
X150237781Y-81209366D01*
X150255024Y-81222154D01*
X150270930Y-81236570D01*
X150285346Y-81252476D01*
X150298134Y-81269719D01*
X150309170Y-81288132D01*
X150318349Y-81307538D01*
X150325581Y-81327750D01*
X150330797Y-81348574D01*
X150333947Y-81369809D01*
X150335000Y-81391250D01*
X150335000Y-81828750D01*
X150333947Y-81850191D01*
X150330797Y-81871426D01*
X150325581Y-81892250D01*
X150318349Y-81912462D01*
X150309170Y-81931868D01*
X150298134Y-81950281D01*
X150285346Y-81967524D01*
X150270930Y-81983430D01*
X150255024Y-81997846D01*
X150237781Y-82010634D01*
X150219368Y-82021670D01*
X150199962Y-82030849D01*
X150179750Y-82038081D01*
X150158926Y-82043297D01*
X150137691Y-82046447D01*
X150116250Y-82047500D01*
X149603750Y-82047500D01*
X149582309Y-82046447D01*
X149561074Y-82043297D01*
X149540250Y-82038081D01*
X149520038Y-82030849D01*
X149500632Y-82021670D01*
X149482219Y-82010634D01*
X149464976Y-81997846D01*
X149449070Y-81983430D01*
X149434654Y-81967524D01*
X149421866Y-81950281D01*
X149410830Y-81931868D01*
X149401651Y-81912462D01*
X149394419Y-81892250D01*
X149389203Y-81871426D01*
X149386053Y-81850191D01*
X149385000Y-81828750D01*
X149385000Y-81391250D01*
X149386053Y-81369809D01*
X149389203Y-81348574D01*
X149394419Y-81327750D01*
X149401651Y-81307538D01*
X149410830Y-81288132D01*
X149421866Y-81269719D01*
X149434654Y-81252476D01*
X149449070Y-81236570D01*
X149464976Y-81222154D01*
X149482219Y-81209366D01*
X149500632Y-81198330D01*
X149520038Y-81189151D01*
X149540250Y-81181919D01*
X149561074Y-81176703D01*
X149582309Y-81173553D01*
X149603750Y-81172500D01*
X150116250Y-81172500D01*
X150137691Y-81173553D01*
G37*
%TD*%
%TO.C,R10*%
G36*
X147470691Y-81199053D02*
G01*
X147491926Y-81202203D01*
X147512750Y-81207419D01*
X147532962Y-81214651D01*
X147552368Y-81223830D01*
X147570781Y-81234866D01*
X147588024Y-81247654D01*
X147603930Y-81262070D01*
X147618346Y-81277976D01*
X147631134Y-81295219D01*
X147642170Y-81313632D01*
X147651349Y-81333038D01*
X147658581Y-81353250D01*
X147663797Y-81374074D01*
X147666947Y-81395309D01*
X147668000Y-81416750D01*
X147668000Y-81854250D01*
X147666947Y-81875691D01*
X147663797Y-81896926D01*
X147658581Y-81917750D01*
X147651349Y-81937962D01*
X147642170Y-81957368D01*
X147631134Y-81975781D01*
X147618346Y-81993024D01*
X147603930Y-82008930D01*
X147588024Y-82023346D01*
X147570781Y-82036134D01*
X147552368Y-82047170D01*
X147532962Y-82056349D01*
X147512750Y-82063581D01*
X147491926Y-82068797D01*
X147470691Y-82071947D01*
X147449250Y-82073000D01*
X146936750Y-82073000D01*
X146915309Y-82071947D01*
X146894074Y-82068797D01*
X146873250Y-82063581D01*
X146853038Y-82056349D01*
X146833632Y-82047170D01*
X146815219Y-82036134D01*
X146797976Y-82023346D01*
X146782070Y-82008930D01*
X146767654Y-81993024D01*
X146754866Y-81975781D01*
X146743830Y-81957368D01*
X146734651Y-81937962D01*
X146727419Y-81917750D01*
X146722203Y-81896926D01*
X146719053Y-81875691D01*
X146718000Y-81854250D01*
X146718000Y-81416750D01*
X146719053Y-81395309D01*
X146722203Y-81374074D01*
X146727419Y-81353250D01*
X146734651Y-81333038D01*
X146743830Y-81313632D01*
X146754866Y-81295219D01*
X146767654Y-81277976D01*
X146782070Y-81262070D01*
X146797976Y-81247654D01*
X146815219Y-81234866D01*
X146833632Y-81223830D01*
X146853038Y-81214651D01*
X146873250Y-81207419D01*
X146894074Y-81202203D01*
X146915309Y-81199053D01*
X146936750Y-81198000D01*
X147449250Y-81198000D01*
X147470691Y-81199053D01*
G37*
G36*
X147470691Y-82774053D02*
G01*
X147491926Y-82777203D01*
X147512750Y-82782419D01*
X147532962Y-82789651D01*
X147552368Y-82798830D01*
X147570781Y-82809866D01*
X147588024Y-82822654D01*
X147603930Y-82837070D01*
X147618346Y-82852976D01*
X147631134Y-82870219D01*
X147642170Y-82888632D01*
X147651349Y-82908038D01*
X147658581Y-82928250D01*
X147663797Y-82949074D01*
X147666947Y-82970309D01*
X147668000Y-82991750D01*
X147668000Y-83429250D01*
X147666947Y-83450691D01*
X147663797Y-83471926D01*
X147658581Y-83492750D01*
X147651349Y-83512962D01*
X147642170Y-83532368D01*
X147631134Y-83550781D01*
X147618346Y-83568024D01*
X147603930Y-83583930D01*
X147588024Y-83598346D01*
X147570781Y-83611134D01*
X147552368Y-83622170D01*
X147532962Y-83631349D01*
X147512750Y-83638581D01*
X147491926Y-83643797D01*
X147470691Y-83646947D01*
X147449250Y-83648000D01*
X146936750Y-83648000D01*
X146915309Y-83646947D01*
X146894074Y-83643797D01*
X146873250Y-83638581D01*
X146853038Y-83631349D01*
X146833632Y-83622170D01*
X146815219Y-83611134D01*
X146797976Y-83598346D01*
X146782070Y-83583930D01*
X146767654Y-83568024D01*
X146754866Y-83550781D01*
X146743830Y-83532368D01*
X146734651Y-83512962D01*
X146727419Y-83492750D01*
X146722203Y-83471926D01*
X146719053Y-83450691D01*
X146718000Y-83429250D01*
X146718000Y-82991750D01*
X146719053Y-82970309D01*
X146722203Y-82949074D01*
X146727419Y-82928250D01*
X146734651Y-82908038D01*
X146743830Y-82888632D01*
X146754866Y-82870219D01*
X146767654Y-82852976D01*
X146782070Y-82837070D01*
X146797976Y-82822654D01*
X146815219Y-82809866D01*
X146833632Y-82798830D01*
X146853038Y-82789651D01*
X146873250Y-82782419D01*
X146894074Y-82777203D01*
X146915309Y-82774053D01*
X146936750Y-82773000D01*
X147449250Y-82773000D01*
X147470691Y-82774053D01*
G37*
%TD*%
%TO.C,R11*%
G36*
X144930691Y-82774053D02*
G01*
X144951926Y-82777203D01*
X144972750Y-82782419D01*
X144992962Y-82789651D01*
X145012368Y-82798830D01*
X145030781Y-82809866D01*
X145048024Y-82822654D01*
X145063930Y-82837070D01*
X145078346Y-82852976D01*
X145091134Y-82870219D01*
X145102170Y-82888632D01*
X145111349Y-82908038D01*
X145118581Y-82928250D01*
X145123797Y-82949074D01*
X145126947Y-82970309D01*
X145128000Y-82991750D01*
X145128000Y-83429250D01*
X145126947Y-83450691D01*
X145123797Y-83471926D01*
X145118581Y-83492750D01*
X145111349Y-83512962D01*
X145102170Y-83532368D01*
X145091134Y-83550781D01*
X145078346Y-83568024D01*
X145063930Y-83583930D01*
X145048024Y-83598346D01*
X145030781Y-83611134D01*
X145012368Y-83622170D01*
X144992962Y-83631349D01*
X144972750Y-83638581D01*
X144951926Y-83643797D01*
X144930691Y-83646947D01*
X144909250Y-83648000D01*
X144396750Y-83648000D01*
X144375309Y-83646947D01*
X144354074Y-83643797D01*
X144333250Y-83638581D01*
X144313038Y-83631349D01*
X144293632Y-83622170D01*
X144275219Y-83611134D01*
X144257976Y-83598346D01*
X144242070Y-83583930D01*
X144227654Y-83568024D01*
X144214866Y-83550781D01*
X144203830Y-83532368D01*
X144194651Y-83512962D01*
X144187419Y-83492750D01*
X144182203Y-83471926D01*
X144179053Y-83450691D01*
X144178000Y-83429250D01*
X144178000Y-82991750D01*
X144179053Y-82970309D01*
X144182203Y-82949074D01*
X144187419Y-82928250D01*
X144194651Y-82908038D01*
X144203830Y-82888632D01*
X144214866Y-82870219D01*
X144227654Y-82852976D01*
X144242070Y-82837070D01*
X144257976Y-82822654D01*
X144275219Y-82809866D01*
X144293632Y-82798830D01*
X144313038Y-82789651D01*
X144333250Y-82782419D01*
X144354074Y-82777203D01*
X144375309Y-82774053D01*
X144396750Y-82773000D01*
X144909250Y-82773000D01*
X144930691Y-82774053D01*
G37*
G36*
X144930691Y-81199053D02*
G01*
X144951926Y-81202203D01*
X144972750Y-81207419D01*
X144992962Y-81214651D01*
X145012368Y-81223830D01*
X145030781Y-81234866D01*
X145048024Y-81247654D01*
X145063930Y-81262070D01*
X145078346Y-81277976D01*
X145091134Y-81295219D01*
X145102170Y-81313632D01*
X145111349Y-81333038D01*
X145118581Y-81353250D01*
X145123797Y-81374074D01*
X145126947Y-81395309D01*
X145128000Y-81416750D01*
X145128000Y-81854250D01*
X145126947Y-81875691D01*
X145123797Y-81896926D01*
X145118581Y-81917750D01*
X145111349Y-81937962D01*
X145102170Y-81957368D01*
X145091134Y-81975781D01*
X145078346Y-81993024D01*
X145063930Y-82008930D01*
X145048024Y-82023346D01*
X145030781Y-82036134D01*
X145012368Y-82047170D01*
X144992962Y-82056349D01*
X144972750Y-82063581D01*
X144951926Y-82068797D01*
X144930691Y-82071947D01*
X144909250Y-82073000D01*
X144396750Y-82073000D01*
X144375309Y-82071947D01*
X144354074Y-82068797D01*
X144333250Y-82063581D01*
X144313038Y-82056349D01*
X144293632Y-82047170D01*
X144275219Y-82036134D01*
X144257976Y-82023346D01*
X144242070Y-82008930D01*
X144227654Y-81993024D01*
X144214866Y-81975781D01*
X144203830Y-81957368D01*
X144194651Y-81937962D01*
X144187419Y-81917750D01*
X144182203Y-81896926D01*
X144179053Y-81875691D01*
X144178000Y-81854250D01*
X144178000Y-81416750D01*
X144179053Y-81395309D01*
X144182203Y-81374074D01*
X144187419Y-81353250D01*
X144194651Y-81333038D01*
X144203830Y-81313632D01*
X144214866Y-81295219D01*
X144227654Y-81277976D01*
X144242070Y-81262070D01*
X144257976Y-81247654D01*
X144275219Y-81234866D01*
X144293632Y-81223830D01*
X144313038Y-81214651D01*
X144333250Y-81207419D01*
X144354074Y-81202203D01*
X144375309Y-81199053D01*
X144396750Y-81198000D01*
X144909250Y-81198000D01*
X144930691Y-81199053D01*
G37*
%TD*%
%TO.C,R12*%
G36*
X142390691Y-81199053D02*
G01*
X142411926Y-81202203D01*
X142432750Y-81207419D01*
X142452962Y-81214651D01*
X142472368Y-81223830D01*
X142490781Y-81234866D01*
X142508024Y-81247654D01*
X142523930Y-81262070D01*
X142538346Y-81277976D01*
X142551134Y-81295219D01*
X142562170Y-81313632D01*
X142571349Y-81333038D01*
X142578581Y-81353250D01*
X142583797Y-81374074D01*
X142586947Y-81395309D01*
X142588000Y-81416750D01*
X142588000Y-81854250D01*
X142586947Y-81875691D01*
X142583797Y-81896926D01*
X142578581Y-81917750D01*
X142571349Y-81937962D01*
X142562170Y-81957368D01*
X142551134Y-81975781D01*
X142538346Y-81993024D01*
X142523930Y-82008930D01*
X142508024Y-82023346D01*
X142490781Y-82036134D01*
X142472368Y-82047170D01*
X142452962Y-82056349D01*
X142432750Y-82063581D01*
X142411926Y-82068797D01*
X142390691Y-82071947D01*
X142369250Y-82073000D01*
X141856750Y-82073000D01*
X141835309Y-82071947D01*
X141814074Y-82068797D01*
X141793250Y-82063581D01*
X141773038Y-82056349D01*
X141753632Y-82047170D01*
X141735219Y-82036134D01*
X141717976Y-82023346D01*
X141702070Y-82008930D01*
X141687654Y-81993024D01*
X141674866Y-81975781D01*
X141663830Y-81957368D01*
X141654651Y-81937962D01*
X141647419Y-81917750D01*
X141642203Y-81896926D01*
X141639053Y-81875691D01*
X141638000Y-81854250D01*
X141638000Y-81416750D01*
X141639053Y-81395309D01*
X141642203Y-81374074D01*
X141647419Y-81353250D01*
X141654651Y-81333038D01*
X141663830Y-81313632D01*
X141674866Y-81295219D01*
X141687654Y-81277976D01*
X141702070Y-81262070D01*
X141717976Y-81247654D01*
X141735219Y-81234866D01*
X141753632Y-81223830D01*
X141773038Y-81214651D01*
X141793250Y-81207419D01*
X141814074Y-81202203D01*
X141835309Y-81199053D01*
X141856750Y-81198000D01*
X142369250Y-81198000D01*
X142390691Y-81199053D01*
G37*
G36*
X142390691Y-82774053D02*
G01*
X142411926Y-82777203D01*
X142432750Y-82782419D01*
X142452962Y-82789651D01*
X142472368Y-82798830D01*
X142490781Y-82809866D01*
X142508024Y-82822654D01*
X142523930Y-82837070D01*
X142538346Y-82852976D01*
X142551134Y-82870219D01*
X142562170Y-82888632D01*
X142571349Y-82908038D01*
X142578581Y-82928250D01*
X142583797Y-82949074D01*
X142586947Y-82970309D01*
X142588000Y-82991750D01*
X142588000Y-83429250D01*
X142586947Y-83450691D01*
X142583797Y-83471926D01*
X142578581Y-83492750D01*
X142571349Y-83512962D01*
X142562170Y-83532368D01*
X142551134Y-83550781D01*
X142538346Y-83568024D01*
X142523930Y-83583930D01*
X142508024Y-83598346D01*
X142490781Y-83611134D01*
X142472368Y-83622170D01*
X142452962Y-83631349D01*
X142432750Y-83638581D01*
X142411926Y-83643797D01*
X142390691Y-83646947D01*
X142369250Y-83648000D01*
X141856750Y-83648000D01*
X141835309Y-83646947D01*
X141814074Y-83643797D01*
X141793250Y-83638581D01*
X141773038Y-83631349D01*
X141753632Y-83622170D01*
X141735219Y-83611134D01*
X141717976Y-83598346D01*
X141702070Y-83583930D01*
X141687654Y-83568024D01*
X141674866Y-83550781D01*
X141663830Y-83532368D01*
X141654651Y-83512962D01*
X141647419Y-83492750D01*
X141642203Y-83471926D01*
X141639053Y-83450691D01*
X141638000Y-83429250D01*
X141638000Y-82991750D01*
X141639053Y-82970309D01*
X141642203Y-82949074D01*
X141647419Y-82928250D01*
X141654651Y-82908038D01*
X141663830Y-82888632D01*
X141674866Y-82870219D01*
X141687654Y-82852976D01*
X141702070Y-82837070D01*
X141717976Y-82822654D01*
X141735219Y-82809866D01*
X141753632Y-82798830D01*
X141773038Y-82789651D01*
X141793250Y-82782419D01*
X141814074Y-82777203D01*
X141835309Y-82774053D01*
X141856750Y-82773000D01*
X142369250Y-82773000D01*
X142390691Y-82774053D01*
G37*
%TD*%
%TO.C,R13*%
G36*
X139850691Y-82774053D02*
G01*
X139871926Y-82777203D01*
X139892750Y-82782419D01*
X139912962Y-82789651D01*
X139932368Y-82798830D01*
X139950781Y-82809866D01*
X139968024Y-82822654D01*
X139983930Y-82837070D01*
X139998346Y-82852976D01*
X140011134Y-82870219D01*
X140022170Y-82888632D01*
X140031349Y-82908038D01*
X140038581Y-82928250D01*
X140043797Y-82949074D01*
X140046947Y-82970309D01*
X140048000Y-82991750D01*
X140048000Y-83429250D01*
X140046947Y-83450691D01*
X140043797Y-83471926D01*
X140038581Y-83492750D01*
X140031349Y-83512962D01*
X140022170Y-83532368D01*
X140011134Y-83550781D01*
X139998346Y-83568024D01*
X139983930Y-83583930D01*
X139968024Y-83598346D01*
X139950781Y-83611134D01*
X139932368Y-83622170D01*
X139912962Y-83631349D01*
X139892750Y-83638581D01*
X139871926Y-83643797D01*
X139850691Y-83646947D01*
X139829250Y-83648000D01*
X139316750Y-83648000D01*
X139295309Y-83646947D01*
X139274074Y-83643797D01*
X139253250Y-83638581D01*
X139233038Y-83631349D01*
X139213632Y-83622170D01*
X139195219Y-83611134D01*
X139177976Y-83598346D01*
X139162070Y-83583930D01*
X139147654Y-83568024D01*
X139134866Y-83550781D01*
X139123830Y-83532368D01*
X139114651Y-83512962D01*
X139107419Y-83492750D01*
X139102203Y-83471926D01*
X139099053Y-83450691D01*
X139098000Y-83429250D01*
X139098000Y-82991750D01*
X139099053Y-82970309D01*
X139102203Y-82949074D01*
X139107419Y-82928250D01*
X139114651Y-82908038D01*
X139123830Y-82888632D01*
X139134866Y-82870219D01*
X139147654Y-82852976D01*
X139162070Y-82837070D01*
X139177976Y-82822654D01*
X139195219Y-82809866D01*
X139213632Y-82798830D01*
X139233038Y-82789651D01*
X139253250Y-82782419D01*
X139274074Y-82777203D01*
X139295309Y-82774053D01*
X139316750Y-82773000D01*
X139829250Y-82773000D01*
X139850691Y-82774053D01*
G37*
G36*
X139850691Y-81199053D02*
G01*
X139871926Y-81202203D01*
X139892750Y-81207419D01*
X139912962Y-81214651D01*
X139932368Y-81223830D01*
X139950781Y-81234866D01*
X139968024Y-81247654D01*
X139983930Y-81262070D01*
X139998346Y-81277976D01*
X140011134Y-81295219D01*
X140022170Y-81313632D01*
X140031349Y-81333038D01*
X140038581Y-81353250D01*
X140043797Y-81374074D01*
X140046947Y-81395309D01*
X140048000Y-81416750D01*
X140048000Y-81854250D01*
X140046947Y-81875691D01*
X140043797Y-81896926D01*
X140038581Y-81917750D01*
X140031349Y-81937962D01*
X140022170Y-81957368D01*
X140011134Y-81975781D01*
X139998346Y-81993024D01*
X139983930Y-82008930D01*
X139968024Y-82023346D01*
X139950781Y-82036134D01*
X139932368Y-82047170D01*
X139912962Y-82056349D01*
X139892750Y-82063581D01*
X139871926Y-82068797D01*
X139850691Y-82071947D01*
X139829250Y-82073000D01*
X139316750Y-82073000D01*
X139295309Y-82071947D01*
X139274074Y-82068797D01*
X139253250Y-82063581D01*
X139233038Y-82056349D01*
X139213632Y-82047170D01*
X139195219Y-82036134D01*
X139177976Y-82023346D01*
X139162070Y-82008930D01*
X139147654Y-81993024D01*
X139134866Y-81975781D01*
X139123830Y-81957368D01*
X139114651Y-81937962D01*
X139107419Y-81917750D01*
X139102203Y-81896926D01*
X139099053Y-81875691D01*
X139098000Y-81854250D01*
X139098000Y-81416750D01*
X139099053Y-81395309D01*
X139102203Y-81374074D01*
X139107419Y-81353250D01*
X139114651Y-81333038D01*
X139123830Y-81313632D01*
X139134866Y-81295219D01*
X139147654Y-81277976D01*
X139162070Y-81262070D01*
X139177976Y-81247654D01*
X139195219Y-81234866D01*
X139213632Y-81223830D01*
X139233038Y-81214651D01*
X139253250Y-81207419D01*
X139274074Y-81202203D01*
X139295309Y-81199053D01*
X139316750Y-81198000D01*
X139829250Y-81198000D01*
X139850691Y-81199053D01*
G37*
%TD*%
%TO.C,R14*%
G36*
X137310691Y-82774053D02*
G01*
X137331926Y-82777203D01*
X137352750Y-82782419D01*
X137372962Y-82789651D01*
X137392368Y-82798830D01*
X137410781Y-82809866D01*
X137428024Y-82822654D01*
X137443930Y-82837070D01*
X137458346Y-82852976D01*
X137471134Y-82870219D01*
X137482170Y-82888632D01*
X137491349Y-82908038D01*
X137498581Y-82928250D01*
X137503797Y-82949074D01*
X137506947Y-82970309D01*
X137508000Y-82991750D01*
X137508000Y-83429250D01*
X137506947Y-83450691D01*
X137503797Y-83471926D01*
X137498581Y-83492750D01*
X137491349Y-83512962D01*
X137482170Y-83532368D01*
X137471134Y-83550781D01*
X137458346Y-83568024D01*
X137443930Y-83583930D01*
X137428024Y-83598346D01*
X137410781Y-83611134D01*
X137392368Y-83622170D01*
X137372962Y-83631349D01*
X137352750Y-83638581D01*
X137331926Y-83643797D01*
X137310691Y-83646947D01*
X137289250Y-83648000D01*
X136776750Y-83648000D01*
X136755309Y-83646947D01*
X136734074Y-83643797D01*
X136713250Y-83638581D01*
X136693038Y-83631349D01*
X136673632Y-83622170D01*
X136655219Y-83611134D01*
X136637976Y-83598346D01*
X136622070Y-83583930D01*
X136607654Y-83568024D01*
X136594866Y-83550781D01*
X136583830Y-83532368D01*
X136574651Y-83512962D01*
X136567419Y-83492750D01*
X136562203Y-83471926D01*
X136559053Y-83450691D01*
X136558000Y-83429250D01*
X136558000Y-82991750D01*
X136559053Y-82970309D01*
X136562203Y-82949074D01*
X136567419Y-82928250D01*
X136574651Y-82908038D01*
X136583830Y-82888632D01*
X136594866Y-82870219D01*
X136607654Y-82852976D01*
X136622070Y-82837070D01*
X136637976Y-82822654D01*
X136655219Y-82809866D01*
X136673632Y-82798830D01*
X136693038Y-82789651D01*
X136713250Y-82782419D01*
X136734074Y-82777203D01*
X136755309Y-82774053D01*
X136776750Y-82773000D01*
X137289250Y-82773000D01*
X137310691Y-82774053D01*
G37*
G36*
X137310691Y-81199053D02*
G01*
X137331926Y-81202203D01*
X137352750Y-81207419D01*
X137372962Y-81214651D01*
X137392368Y-81223830D01*
X137410781Y-81234866D01*
X137428024Y-81247654D01*
X137443930Y-81262070D01*
X137458346Y-81277976D01*
X137471134Y-81295219D01*
X137482170Y-81313632D01*
X137491349Y-81333038D01*
X137498581Y-81353250D01*
X137503797Y-81374074D01*
X137506947Y-81395309D01*
X137508000Y-81416750D01*
X137508000Y-81854250D01*
X137506947Y-81875691D01*
X137503797Y-81896926D01*
X137498581Y-81917750D01*
X137491349Y-81937962D01*
X137482170Y-81957368D01*
X137471134Y-81975781D01*
X137458346Y-81993024D01*
X137443930Y-82008930D01*
X137428024Y-82023346D01*
X137410781Y-82036134D01*
X137392368Y-82047170D01*
X137372962Y-82056349D01*
X137352750Y-82063581D01*
X137331926Y-82068797D01*
X137310691Y-82071947D01*
X137289250Y-82073000D01*
X136776750Y-82073000D01*
X136755309Y-82071947D01*
X136734074Y-82068797D01*
X136713250Y-82063581D01*
X136693038Y-82056349D01*
X136673632Y-82047170D01*
X136655219Y-82036134D01*
X136637976Y-82023346D01*
X136622070Y-82008930D01*
X136607654Y-81993024D01*
X136594866Y-81975781D01*
X136583830Y-81957368D01*
X136574651Y-81937962D01*
X136567419Y-81917750D01*
X136562203Y-81896926D01*
X136559053Y-81875691D01*
X136558000Y-81854250D01*
X136558000Y-81416750D01*
X136559053Y-81395309D01*
X136562203Y-81374074D01*
X136567419Y-81353250D01*
X136574651Y-81333038D01*
X136583830Y-81313632D01*
X136594866Y-81295219D01*
X136607654Y-81277976D01*
X136622070Y-81262070D01*
X136637976Y-81247654D01*
X136655219Y-81234866D01*
X136673632Y-81223830D01*
X136693038Y-81214651D01*
X136713250Y-81207419D01*
X136734074Y-81202203D01*
X136755309Y-81199053D01*
X136776750Y-81198000D01*
X137289250Y-81198000D01*
X137310691Y-81199053D01*
G37*
%TD*%
%TO.C,R15*%
G36*
X134770691Y-81199053D02*
G01*
X134791926Y-81202203D01*
X134812750Y-81207419D01*
X134832962Y-81214651D01*
X134852368Y-81223830D01*
X134870781Y-81234866D01*
X134888024Y-81247654D01*
X134903930Y-81262070D01*
X134918346Y-81277976D01*
X134931134Y-81295219D01*
X134942170Y-81313632D01*
X134951349Y-81333038D01*
X134958581Y-81353250D01*
X134963797Y-81374074D01*
X134966947Y-81395309D01*
X134968000Y-81416750D01*
X134968000Y-81854250D01*
X134966947Y-81875691D01*
X134963797Y-81896926D01*
X134958581Y-81917750D01*
X134951349Y-81937962D01*
X134942170Y-81957368D01*
X134931134Y-81975781D01*
X134918346Y-81993024D01*
X134903930Y-82008930D01*
X134888024Y-82023346D01*
X134870781Y-82036134D01*
X134852368Y-82047170D01*
X134832962Y-82056349D01*
X134812750Y-82063581D01*
X134791926Y-82068797D01*
X134770691Y-82071947D01*
X134749250Y-82073000D01*
X134236750Y-82073000D01*
X134215309Y-82071947D01*
X134194074Y-82068797D01*
X134173250Y-82063581D01*
X134153038Y-82056349D01*
X134133632Y-82047170D01*
X134115219Y-82036134D01*
X134097976Y-82023346D01*
X134082070Y-82008930D01*
X134067654Y-81993024D01*
X134054866Y-81975781D01*
X134043830Y-81957368D01*
X134034651Y-81937962D01*
X134027419Y-81917750D01*
X134022203Y-81896926D01*
X134019053Y-81875691D01*
X134018000Y-81854250D01*
X134018000Y-81416750D01*
X134019053Y-81395309D01*
X134022203Y-81374074D01*
X134027419Y-81353250D01*
X134034651Y-81333038D01*
X134043830Y-81313632D01*
X134054866Y-81295219D01*
X134067654Y-81277976D01*
X134082070Y-81262070D01*
X134097976Y-81247654D01*
X134115219Y-81234866D01*
X134133632Y-81223830D01*
X134153038Y-81214651D01*
X134173250Y-81207419D01*
X134194074Y-81202203D01*
X134215309Y-81199053D01*
X134236750Y-81198000D01*
X134749250Y-81198000D01*
X134770691Y-81199053D01*
G37*
G36*
X134770691Y-82774053D02*
G01*
X134791926Y-82777203D01*
X134812750Y-82782419D01*
X134832962Y-82789651D01*
X134852368Y-82798830D01*
X134870781Y-82809866D01*
X134888024Y-82822654D01*
X134903930Y-82837070D01*
X134918346Y-82852976D01*
X134931134Y-82870219D01*
X134942170Y-82888632D01*
X134951349Y-82908038D01*
X134958581Y-82928250D01*
X134963797Y-82949074D01*
X134966947Y-82970309D01*
X134968000Y-82991750D01*
X134968000Y-83429250D01*
X134966947Y-83450691D01*
X134963797Y-83471926D01*
X134958581Y-83492750D01*
X134951349Y-83512962D01*
X134942170Y-83532368D01*
X134931134Y-83550781D01*
X134918346Y-83568024D01*
X134903930Y-83583930D01*
X134888024Y-83598346D01*
X134870781Y-83611134D01*
X134852368Y-83622170D01*
X134832962Y-83631349D01*
X134812750Y-83638581D01*
X134791926Y-83643797D01*
X134770691Y-83646947D01*
X134749250Y-83648000D01*
X134236750Y-83648000D01*
X134215309Y-83646947D01*
X134194074Y-83643797D01*
X134173250Y-83638581D01*
X134153038Y-83631349D01*
X134133632Y-83622170D01*
X134115219Y-83611134D01*
X134097976Y-83598346D01*
X134082070Y-83583930D01*
X134067654Y-83568024D01*
X134054866Y-83550781D01*
X134043830Y-83532368D01*
X134034651Y-83512962D01*
X134027419Y-83492750D01*
X134022203Y-83471926D01*
X134019053Y-83450691D01*
X134018000Y-83429250D01*
X134018000Y-82991750D01*
X134019053Y-82970309D01*
X134022203Y-82949074D01*
X134027419Y-82928250D01*
X134034651Y-82908038D01*
X134043830Y-82888632D01*
X134054866Y-82870219D01*
X134067654Y-82852976D01*
X134082070Y-82837070D01*
X134097976Y-82822654D01*
X134115219Y-82809866D01*
X134133632Y-82798830D01*
X134153038Y-82789651D01*
X134173250Y-82782419D01*
X134194074Y-82777203D01*
X134215309Y-82774053D01*
X134236750Y-82773000D01*
X134749250Y-82773000D01*
X134770691Y-82774053D01*
G37*
%TD*%
%TO.C,R16*%
G36*
X132230691Y-82774053D02*
G01*
X132251926Y-82777203D01*
X132272750Y-82782419D01*
X132292962Y-82789651D01*
X132312368Y-82798830D01*
X132330781Y-82809866D01*
X132348024Y-82822654D01*
X132363930Y-82837070D01*
X132378346Y-82852976D01*
X132391134Y-82870219D01*
X132402170Y-82888632D01*
X132411349Y-82908038D01*
X132418581Y-82928250D01*
X132423797Y-82949074D01*
X132426947Y-82970309D01*
X132428000Y-82991750D01*
X132428000Y-83429250D01*
X132426947Y-83450691D01*
X132423797Y-83471926D01*
X132418581Y-83492750D01*
X132411349Y-83512962D01*
X132402170Y-83532368D01*
X132391134Y-83550781D01*
X132378346Y-83568024D01*
X132363930Y-83583930D01*
X132348024Y-83598346D01*
X132330781Y-83611134D01*
X132312368Y-83622170D01*
X132292962Y-83631349D01*
X132272750Y-83638581D01*
X132251926Y-83643797D01*
X132230691Y-83646947D01*
X132209250Y-83648000D01*
X131696750Y-83648000D01*
X131675309Y-83646947D01*
X131654074Y-83643797D01*
X131633250Y-83638581D01*
X131613038Y-83631349D01*
X131593632Y-83622170D01*
X131575219Y-83611134D01*
X131557976Y-83598346D01*
X131542070Y-83583930D01*
X131527654Y-83568024D01*
X131514866Y-83550781D01*
X131503830Y-83532368D01*
X131494651Y-83512962D01*
X131487419Y-83492750D01*
X131482203Y-83471926D01*
X131479053Y-83450691D01*
X131478000Y-83429250D01*
X131478000Y-82991750D01*
X131479053Y-82970309D01*
X131482203Y-82949074D01*
X131487419Y-82928250D01*
X131494651Y-82908038D01*
X131503830Y-82888632D01*
X131514866Y-82870219D01*
X131527654Y-82852976D01*
X131542070Y-82837070D01*
X131557976Y-82822654D01*
X131575219Y-82809866D01*
X131593632Y-82798830D01*
X131613038Y-82789651D01*
X131633250Y-82782419D01*
X131654074Y-82777203D01*
X131675309Y-82774053D01*
X131696750Y-82773000D01*
X132209250Y-82773000D01*
X132230691Y-82774053D01*
G37*
G36*
X132230691Y-81199053D02*
G01*
X132251926Y-81202203D01*
X132272750Y-81207419D01*
X132292962Y-81214651D01*
X132312368Y-81223830D01*
X132330781Y-81234866D01*
X132348024Y-81247654D01*
X132363930Y-81262070D01*
X132378346Y-81277976D01*
X132391134Y-81295219D01*
X132402170Y-81313632D01*
X132411349Y-81333038D01*
X132418581Y-81353250D01*
X132423797Y-81374074D01*
X132426947Y-81395309D01*
X132428000Y-81416750D01*
X132428000Y-81854250D01*
X132426947Y-81875691D01*
X132423797Y-81896926D01*
X132418581Y-81917750D01*
X132411349Y-81937962D01*
X132402170Y-81957368D01*
X132391134Y-81975781D01*
X132378346Y-81993024D01*
X132363930Y-82008930D01*
X132348024Y-82023346D01*
X132330781Y-82036134D01*
X132312368Y-82047170D01*
X132292962Y-82056349D01*
X132272750Y-82063581D01*
X132251926Y-82068797D01*
X132230691Y-82071947D01*
X132209250Y-82073000D01*
X131696750Y-82073000D01*
X131675309Y-82071947D01*
X131654074Y-82068797D01*
X131633250Y-82063581D01*
X131613038Y-82056349D01*
X131593632Y-82047170D01*
X131575219Y-82036134D01*
X131557976Y-82023346D01*
X131542070Y-82008930D01*
X131527654Y-81993024D01*
X131514866Y-81975781D01*
X131503830Y-81957368D01*
X131494651Y-81937962D01*
X131487419Y-81917750D01*
X131482203Y-81896926D01*
X131479053Y-81875691D01*
X131478000Y-81854250D01*
X131478000Y-81416750D01*
X131479053Y-81395309D01*
X131482203Y-81374074D01*
X131487419Y-81353250D01*
X131494651Y-81333038D01*
X131503830Y-81313632D01*
X131514866Y-81295219D01*
X131527654Y-81277976D01*
X131542070Y-81262070D01*
X131557976Y-81247654D01*
X131575219Y-81234866D01*
X131593632Y-81223830D01*
X131613038Y-81214651D01*
X131633250Y-81207419D01*
X131654074Y-81202203D01*
X131675309Y-81199053D01*
X131696750Y-81198000D01*
X132209250Y-81198000D01*
X132230691Y-81199053D01*
G37*
%TD*%
%TO.C,R17*%
G36*
X129817691Y-81199053D02*
G01*
X129838926Y-81202203D01*
X129859750Y-81207419D01*
X129879962Y-81214651D01*
X129899368Y-81223830D01*
X129917781Y-81234866D01*
X129935024Y-81247654D01*
X129950930Y-81262070D01*
X129965346Y-81277976D01*
X129978134Y-81295219D01*
X129989170Y-81313632D01*
X129998349Y-81333038D01*
X130005581Y-81353250D01*
X130010797Y-81374074D01*
X130013947Y-81395309D01*
X130015000Y-81416750D01*
X130015000Y-81854250D01*
X130013947Y-81875691D01*
X130010797Y-81896926D01*
X130005581Y-81917750D01*
X129998349Y-81937962D01*
X129989170Y-81957368D01*
X129978134Y-81975781D01*
X129965346Y-81993024D01*
X129950930Y-82008930D01*
X129935024Y-82023346D01*
X129917781Y-82036134D01*
X129899368Y-82047170D01*
X129879962Y-82056349D01*
X129859750Y-82063581D01*
X129838926Y-82068797D01*
X129817691Y-82071947D01*
X129796250Y-82073000D01*
X129283750Y-82073000D01*
X129262309Y-82071947D01*
X129241074Y-82068797D01*
X129220250Y-82063581D01*
X129200038Y-82056349D01*
X129180632Y-82047170D01*
X129162219Y-82036134D01*
X129144976Y-82023346D01*
X129129070Y-82008930D01*
X129114654Y-81993024D01*
X129101866Y-81975781D01*
X129090830Y-81957368D01*
X129081651Y-81937962D01*
X129074419Y-81917750D01*
X129069203Y-81896926D01*
X129066053Y-81875691D01*
X129065000Y-81854250D01*
X129065000Y-81416750D01*
X129066053Y-81395309D01*
X129069203Y-81374074D01*
X129074419Y-81353250D01*
X129081651Y-81333038D01*
X129090830Y-81313632D01*
X129101866Y-81295219D01*
X129114654Y-81277976D01*
X129129070Y-81262070D01*
X129144976Y-81247654D01*
X129162219Y-81234866D01*
X129180632Y-81223830D01*
X129200038Y-81214651D01*
X129220250Y-81207419D01*
X129241074Y-81202203D01*
X129262309Y-81199053D01*
X129283750Y-81198000D01*
X129796250Y-81198000D01*
X129817691Y-81199053D01*
G37*
G36*
X129817691Y-82774053D02*
G01*
X129838926Y-82777203D01*
X129859750Y-82782419D01*
X129879962Y-82789651D01*
X129899368Y-82798830D01*
X129917781Y-82809866D01*
X129935024Y-82822654D01*
X129950930Y-82837070D01*
X129965346Y-82852976D01*
X129978134Y-82870219D01*
X129989170Y-82888632D01*
X129998349Y-82908038D01*
X130005581Y-82928250D01*
X130010797Y-82949074D01*
X130013947Y-82970309D01*
X130015000Y-82991750D01*
X130015000Y-83429250D01*
X130013947Y-83450691D01*
X130010797Y-83471926D01*
X130005581Y-83492750D01*
X129998349Y-83512962D01*
X129989170Y-83532368D01*
X129978134Y-83550781D01*
X129965346Y-83568024D01*
X129950930Y-83583930D01*
X129935024Y-83598346D01*
X129917781Y-83611134D01*
X129899368Y-83622170D01*
X129879962Y-83631349D01*
X129859750Y-83638581D01*
X129838926Y-83643797D01*
X129817691Y-83646947D01*
X129796250Y-83648000D01*
X129283750Y-83648000D01*
X129262309Y-83646947D01*
X129241074Y-83643797D01*
X129220250Y-83638581D01*
X129200038Y-83631349D01*
X129180632Y-83622170D01*
X129162219Y-83611134D01*
X129144976Y-83598346D01*
X129129070Y-83583930D01*
X129114654Y-83568024D01*
X129101866Y-83550781D01*
X129090830Y-83532368D01*
X129081651Y-83512962D01*
X129074419Y-83492750D01*
X129069203Y-83471926D01*
X129066053Y-83450691D01*
X129065000Y-83429250D01*
X129065000Y-82991750D01*
X129066053Y-82970309D01*
X129069203Y-82949074D01*
X129074419Y-82928250D01*
X129081651Y-82908038D01*
X129090830Y-82888632D01*
X129101866Y-82870219D01*
X129114654Y-82852976D01*
X129129070Y-82837070D01*
X129144976Y-82822654D01*
X129162219Y-82809866D01*
X129180632Y-82798830D01*
X129200038Y-82789651D01*
X129220250Y-82782419D01*
X129241074Y-82777203D01*
X129262309Y-82774053D01*
X129283750Y-82773000D01*
X129796250Y-82773000D01*
X129817691Y-82774053D01*
G37*
%TD*%
%TO.C,R18*%
G36*
X127150691Y-82774053D02*
G01*
X127171926Y-82777203D01*
X127192750Y-82782419D01*
X127212962Y-82789651D01*
X127232368Y-82798830D01*
X127250781Y-82809866D01*
X127268024Y-82822654D01*
X127283930Y-82837070D01*
X127298346Y-82852976D01*
X127311134Y-82870219D01*
X127322170Y-82888632D01*
X127331349Y-82908038D01*
X127338581Y-82928250D01*
X127343797Y-82949074D01*
X127346947Y-82970309D01*
X127348000Y-82991750D01*
X127348000Y-83429250D01*
X127346947Y-83450691D01*
X127343797Y-83471926D01*
X127338581Y-83492750D01*
X127331349Y-83512962D01*
X127322170Y-83532368D01*
X127311134Y-83550781D01*
X127298346Y-83568024D01*
X127283930Y-83583930D01*
X127268024Y-83598346D01*
X127250781Y-83611134D01*
X127232368Y-83622170D01*
X127212962Y-83631349D01*
X127192750Y-83638581D01*
X127171926Y-83643797D01*
X127150691Y-83646947D01*
X127129250Y-83648000D01*
X126616750Y-83648000D01*
X126595309Y-83646947D01*
X126574074Y-83643797D01*
X126553250Y-83638581D01*
X126533038Y-83631349D01*
X126513632Y-83622170D01*
X126495219Y-83611134D01*
X126477976Y-83598346D01*
X126462070Y-83583930D01*
X126447654Y-83568024D01*
X126434866Y-83550781D01*
X126423830Y-83532368D01*
X126414651Y-83512962D01*
X126407419Y-83492750D01*
X126402203Y-83471926D01*
X126399053Y-83450691D01*
X126398000Y-83429250D01*
X126398000Y-82991750D01*
X126399053Y-82970309D01*
X126402203Y-82949074D01*
X126407419Y-82928250D01*
X126414651Y-82908038D01*
X126423830Y-82888632D01*
X126434866Y-82870219D01*
X126447654Y-82852976D01*
X126462070Y-82837070D01*
X126477976Y-82822654D01*
X126495219Y-82809866D01*
X126513632Y-82798830D01*
X126533038Y-82789651D01*
X126553250Y-82782419D01*
X126574074Y-82777203D01*
X126595309Y-82774053D01*
X126616750Y-82773000D01*
X127129250Y-82773000D01*
X127150691Y-82774053D01*
G37*
G36*
X127150691Y-81199053D02*
G01*
X127171926Y-81202203D01*
X127192750Y-81207419D01*
X127212962Y-81214651D01*
X127232368Y-81223830D01*
X127250781Y-81234866D01*
X127268024Y-81247654D01*
X127283930Y-81262070D01*
X127298346Y-81277976D01*
X127311134Y-81295219D01*
X127322170Y-81313632D01*
X127331349Y-81333038D01*
X127338581Y-81353250D01*
X127343797Y-81374074D01*
X127346947Y-81395309D01*
X127348000Y-81416750D01*
X127348000Y-81854250D01*
X127346947Y-81875691D01*
X127343797Y-81896926D01*
X127338581Y-81917750D01*
X127331349Y-81937962D01*
X127322170Y-81957368D01*
X127311134Y-81975781D01*
X127298346Y-81993024D01*
X127283930Y-82008930D01*
X127268024Y-82023346D01*
X127250781Y-82036134D01*
X127232368Y-82047170D01*
X127212962Y-82056349D01*
X127192750Y-82063581D01*
X127171926Y-82068797D01*
X127150691Y-82071947D01*
X127129250Y-82073000D01*
X126616750Y-82073000D01*
X126595309Y-82071947D01*
X126574074Y-82068797D01*
X126553250Y-82063581D01*
X126533038Y-82056349D01*
X126513632Y-82047170D01*
X126495219Y-82036134D01*
X126477976Y-82023346D01*
X126462070Y-82008930D01*
X126447654Y-81993024D01*
X126434866Y-81975781D01*
X126423830Y-81957368D01*
X126414651Y-81937962D01*
X126407419Y-81917750D01*
X126402203Y-81896926D01*
X126399053Y-81875691D01*
X126398000Y-81854250D01*
X126398000Y-81416750D01*
X126399053Y-81395309D01*
X126402203Y-81374074D01*
X126407419Y-81353250D01*
X126414651Y-81333038D01*
X126423830Y-81313632D01*
X126434866Y-81295219D01*
X126447654Y-81277976D01*
X126462070Y-81262070D01*
X126477976Y-81247654D01*
X126495219Y-81234866D01*
X126513632Y-81223830D01*
X126533038Y-81214651D01*
X126553250Y-81207419D01*
X126574074Y-81202203D01*
X126595309Y-81199053D01*
X126616750Y-81198000D01*
X127129250Y-81198000D01*
X127150691Y-81199053D01*
G37*
%TD*%
%TO.C,R19*%
G36*
X124610691Y-81199053D02*
G01*
X124631926Y-81202203D01*
X124652750Y-81207419D01*
X124672962Y-81214651D01*
X124692368Y-81223830D01*
X124710781Y-81234866D01*
X124728024Y-81247654D01*
X124743930Y-81262070D01*
X124758346Y-81277976D01*
X124771134Y-81295219D01*
X124782170Y-81313632D01*
X124791349Y-81333038D01*
X124798581Y-81353250D01*
X124803797Y-81374074D01*
X124806947Y-81395309D01*
X124808000Y-81416750D01*
X124808000Y-81854250D01*
X124806947Y-81875691D01*
X124803797Y-81896926D01*
X124798581Y-81917750D01*
X124791349Y-81937962D01*
X124782170Y-81957368D01*
X124771134Y-81975781D01*
X124758346Y-81993024D01*
X124743930Y-82008930D01*
X124728024Y-82023346D01*
X124710781Y-82036134D01*
X124692368Y-82047170D01*
X124672962Y-82056349D01*
X124652750Y-82063581D01*
X124631926Y-82068797D01*
X124610691Y-82071947D01*
X124589250Y-82073000D01*
X124076750Y-82073000D01*
X124055309Y-82071947D01*
X124034074Y-82068797D01*
X124013250Y-82063581D01*
X123993038Y-82056349D01*
X123973632Y-82047170D01*
X123955219Y-82036134D01*
X123937976Y-82023346D01*
X123922070Y-82008930D01*
X123907654Y-81993024D01*
X123894866Y-81975781D01*
X123883830Y-81957368D01*
X123874651Y-81937962D01*
X123867419Y-81917750D01*
X123862203Y-81896926D01*
X123859053Y-81875691D01*
X123858000Y-81854250D01*
X123858000Y-81416750D01*
X123859053Y-81395309D01*
X123862203Y-81374074D01*
X123867419Y-81353250D01*
X123874651Y-81333038D01*
X123883830Y-81313632D01*
X123894866Y-81295219D01*
X123907654Y-81277976D01*
X123922070Y-81262070D01*
X123937976Y-81247654D01*
X123955219Y-81234866D01*
X123973632Y-81223830D01*
X123993038Y-81214651D01*
X124013250Y-81207419D01*
X124034074Y-81202203D01*
X124055309Y-81199053D01*
X124076750Y-81198000D01*
X124589250Y-81198000D01*
X124610691Y-81199053D01*
G37*
G36*
X124610691Y-82774053D02*
G01*
X124631926Y-82777203D01*
X124652750Y-82782419D01*
X124672962Y-82789651D01*
X124692368Y-82798830D01*
X124710781Y-82809866D01*
X124728024Y-82822654D01*
X124743930Y-82837070D01*
X124758346Y-82852976D01*
X124771134Y-82870219D01*
X124782170Y-82888632D01*
X124791349Y-82908038D01*
X124798581Y-82928250D01*
X124803797Y-82949074D01*
X124806947Y-82970309D01*
X124808000Y-82991750D01*
X124808000Y-83429250D01*
X124806947Y-83450691D01*
X124803797Y-83471926D01*
X124798581Y-83492750D01*
X124791349Y-83512962D01*
X124782170Y-83532368D01*
X124771134Y-83550781D01*
X124758346Y-83568024D01*
X124743930Y-83583930D01*
X124728024Y-83598346D01*
X124710781Y-83611134D01*
X124692368Y-83622170D01*
X124672962Y-83631349D01*
X124652750Y-83638581D01*
X124631926Y-83643797D01*
X124610691Y-83646947D01*
X124589250Y-83648000D01*
X124076750Y-83648000D01*
X124055309Y-83646947D01*
X124034074Y-83643797D01*
X124013250Y-83638581D01*
X123993038Y-83631349D01*
X123973632Y-83622170D01*
X123955219Y-83611134D01*
X123937976Y-83598346D01*
X123922070Y-83583930D01*
X123907654Y-83568024D01*
X123894866Y-83550781D01*
X123883830Y-83532368D01*
X123874651Y-83512962D01*
X123867419Y-83492750D01*
X123862203Y-83471926D01*
X123859053Y-83450691D01*
X123858000Y-83429250D01*
X123858000Y-82991750D01*
X123859053Y-82970309D01*
X123862203Y-82949074D01*
X123867419Y-82928250D01*
X123874651Y-82908038D01*
X123883830Y-82888632D01*
X123894866Y-82870219D01*
X123907654Y-82852976D01*
X123922070Y-82837070D01*
X123937976Y-82822654D01*
X123955219Y-82809866D01*
X123973632Y-82798830D01*
X123993038Y-82789651D01*
X124013250Y-82782419D01*
X124034074Y-82777203D01*
X124055309Y-82774053D01*
X124076750Y-82773000D01*
X124589250Y-82773000D01*
X124610691Y-82774053D01*
G37*
%TD*%
%TO.C,R20*%
G36*
X122070691Y-82774053D02*
G01*
X122091926Y-82777203D01*
X122112750Y-82782419D01*
X122132962Y-82789651D01*
X122152368Y-82798830D01*
X122170781Y-82809866D01*
X122188024Y-82822654D01*
X122203930Y-82837070D01*
X122218346Y-82852976D01*
X122231134Y-82870219D01*
X122242170Y-82888632D01*
X122251349Y-82908038D01*
X122258581Y-82928250D01*
X122263797Y-82949074D01*
X122266947Y-82970309D01*
X122268000Y-82991750D01*
X122268000Y-83429250D01*
X122266947Y-83450691D01*
X122263797Y-83471926D01*
X122258581Y-83492750D01*
X122251349Y-83512962D01*
X122242170Y-83532368D01*
X122231134Y-83550781D01*
X122218346Y-83568024D01*
X122203930Y-83583930D01*
X122188024Y-83598346D01*
X122170781Y-83611134D01*
X122152368Y-83622170D01*
X122132962Y-83631349D01*
X122112750Y-83638581D01*
X122091926Y-83643797D01*
X122070691Y-83646947D01*
X122049250Y-83648000D01*
X121536750Y-83648000D01*
X121515309Y-83646947D01*
X121494074Y-83643797D01*
X121473250Y-83638581D01*
X121453038Y-83631349D01*
X121433632Y-83622170D01*
X121415219Y-83611134D01*
X121397976Y-83598346D01*
X121382070Y-83583930D01*
X121367654Y-83568024D01*
X121354866Y-83550781D01*
X121343830Y-83532368D01*
X121334651Y-83512962D01*
X121327419Y-83492750D01*
X121322203Y-83471926D01*
X121319053Y-83450691D01*
X121318000Y-83429250D01*
X121318000Y-82991750D01*
X121319053Y-82970309D01*
X121322203Y-82949074D01*
X121327419Y-82928250D01*
X121334651Y-82908038D01*
X121343830Y-82888632D01*
X121354866Y-82870219D01*
X121367654Y-82852976D01*
X121382070Y-82837070D01*
X121397976Y-82822654D01*
X121415219Y-82809866D01*
X121433632Y-82798830D01*
X121453038Y-82789651D01*
X121473250Y-82782419D01*
X121494074Y-82777203D01*
X121515309Y-82774053D01*
X121536750Y-82773000D01*
X122049250Y-82773000D01*
X122070691Y-82774053D01*
G37*
G36*
X122070691Y-81199053D02*
G01*
X122091926Y-81202203D01*
X122112750Y-81207419D01*
X122132962Y-81214651D01*
X122152368Y-81223830D01*
X122170781Y-81234866D01*
X122188024Y-81247654D01*
X122203930Y-81262070D01*
X122218346Y-81277976D01*
X122231134Y-81295219D01*
X122242170Y-81313632D01*
X122251349Y-81333038D01*
X122258581Y-81353250D01*
X122263797Y-81374074D01*
X122266947Y-81395309D01*
X122268000Y-81416750D01*
X122268000Y-81854250D01*
X122266947Y-81875691D01*
X122263797Y-81896926D01*
X122258581Y-81917750D01*
X122251349Y-81937962D01*
X122242170Y-81957368D01*
X122231134Y-81975781D01*
X122218346Y-81993024D01*
X122203930Y-82008930D01*
X122188024Y-82023346D01*
X122170781Y-82036134D01*
X122152368Y-82047170D01*
X122132962Y-82056349D01*
X122112750Y-82063581D01*
X122091926Y-82068797D01*
X122070691Y-82071947D01*
X122049250Y-82073000D01*
X121536750Y-82073000D01*
X121515309Y-82071947D01*
X121494074Y-82068797D01*
X121473250Y-82063581D01*
X121453038Y-82056349D01*
X121433632Y-82047170D01*
X121415219Y-82036134D01*
X121397976Y-82023346D01*
X121382070Y-82008930D01*
X121367654Y-81993024D01*
X121354866Y-81975781D01*
X121343830Y-81957368D01*
X121334651Y-81937962D01*
X121327419Y-81917750D01*
X121322203Y-81896926D01*
X121319053Y-81875691D01*
X121318000Y-81854250D01*
X121318000Y-81416750D01*
X121319053Y-81395309D01*
X121322203Y-81374074D01*
X121327419Y-81353250D01*
X121334651Y-81333038D01*
X121343830Y-81313632D01*
X121354866Y-81295219D01*
X121367654Y-81277976D01*
X121382070Y-81262070D01*
X121397976Y-81247654D01*
X121415219Y-81234866D01*
X121433632Y-81223830D01*
X121453038Y-81214651D01*
X121473250Y-81207419D01*
X121494074Y-81202203D01*
X121515309Y-81199053D01*
X121536750Y-81198000D01*
X122049250Y-81198000D01*
X122070691Y-81199053D01*
G37*
%TD*%
D13*
%TO.C,U2*%
X168114000Y-74974000D03*
X168764000Y-74974000D03*
X169414000Y-74974000D03*
X170064000Y-74974000D03*
X170714000Y-74974000D03*
X171364000Y-74974000D03*
X172014000Y-74974000D03*
X172664000Y-74974000D03*
X173314000Y-74974000D03*
X173964000Y-74974000D03*
X174614000Y-74974000D03*
X175264000Y-74974000D03*
X175914000Y-74974000D03*
X176564000Y-74974000D03*
X176564000Y-67774000D03*
X175914000Y-67774000D03*
X175264000Y-67774000D03*
X174614000Y-67774000D03*
X173964000Y-67774000D03*
X173314000Y-67774000D03*
X172664000Y-67774000D03*
X172014000Y-67774000D03*
X171364000Y-67774000D03*
X170714000Y-67774000D03*
X170064000Y-67774000D03*
X169414000Y-67774000D03*
X168764000Y-67774000D03*
X168114000Y-67774000D03*
%TD*%
D14*
%TO.C,U3*%
X137585000Y-109694000D03*
X137585000Y-110344000D03*
X137585000Y-110994000D03*
X137585000Y-111644000D03*
X137585000Y-112294000D03*
X137585000Y-112944000D03*
X137585000Y-113594000D03*
X137585000Y-114244000D03*
X137585000Y-114894000D03*
X137585000Y-115544000D03*
X137585000Y-116194000D03*
X137585000Y-116844000D03*
X137585000Y-117494000D03*
X137585000Y-118144000D03*
X130385000Y-118144000D03*
X130385000Y-117494000D03*
X130385000Y-116844000D03*
X130385000Y-116194000D03*
X130385000Y-115544000D03*
X130385000Y-114894000D03*
X130385000Y-114244000D03*
X130385000Y-113594000D03*
X130385000Y-112944000D03*
X130385000Y-112294000D03*
X130385000Y-111644000D03*
X130385000Y-110994000D03*
X130385000Y-110344000D03*
X130385000Y-109694000D03*
%TD*%
D15*
%TO.C,U4*%
X142748000Y-101220000D03*
X144018000Y-101220000D03*
X145288000Y-101220000D03*
X146558000Y-101220000D03*
X147828000Y-101220000D03*
X149098000Y-101220000D03*
X150368000Y-101220000D03*
X151638000Y-101220000D03*
X152908000Y-101220000D03*
X152908000Y-91820000D03*
X151638000Y-91820000D03*
X150368000Y-91820000D03*
X149098000Y-91820000D03*
X147828000Y-91820000D03*
X146558000Y-91820000D03*
X145288000Y-91820000D03*
X144018000Y-91820000D03*
X142748000Y-91820000D03*
%TD*%
%TO.C,U5*%
X121285000Y-91820000D03*
X122555000Y-91820000D03*
X123825000Y-91820000D03*
X125095000Y-91820000D03*
X126365000Y-91820000D03*
X127635000Y-91820000D03*
X128905000Y-91820000D03*
X130175000Y-91820000D03*
X131445000Y-91820000D03*
X131445000Y-101220000D03*
X130175000Y-101220000D03*
X128905000Y-101220000D03*
X127635000Y-101220000D03*
X126365000Y-101220000D03*
X125095000Y-101220000D03*
X123825000Y-101220000D03*
X122555000Y-101220000D03*
X121285000Y-101220000D03*
%TD*%
D16*
%TO.C,Q1*%
X156829000Y-98486000D03*
X156829000Y-96586000D03*
X154829000Y-97536000D03*
%TD*%
D17*
%TO.C,Q2*%
X137795000Y-94980000D03*
X136845000Y-92980000D03*
X138745000Y-92980000D03*
%TD*%
D10*
%TO.C,R21*%
G36*
X174255691Y-114842053D02*
G01*
X174276926Y-114845203D01*
X174297750Y-114850419D01*
X174317962Y-114857651D01*
X174337368Y-114866830D01*
X174355781Y-114877866D01*
X174373024Y-114890654D01*
X174388930Y-114905070D01*
X174403346Y-114920976D01*
X174416134Y-114938219D01*
X174427170Y-114956632D01*
X174436349Y-114976038D01*
X174443581Y-114996250D01*
X174448797Y-115017074D01*
X174451947Y-115038309D01*
X174453000Y-115059750D01*
X174453000Y-115572250D01*
X174451947Y-115593691D01*
X174448797Y-115614926D01*
X174443581Y-115635750D01*
X174436349Y-115655962D01*
X174427170Y-115675368D01*
X174416134Y-115693781D01*
X174403346Y-115711024D01*
X174388930Y-115726930D01*
X174373024Y-115741346D01*
X174355781Y-115754134D01*
X174337368Y-115765170D01*
X174317962Y-115774349D01*
X174297750Y-115781581D01*
X174276926Y-115786797D01*
X174255691Y-115789947D01*
X174234250Y-115791000D01*
X173796750Y-115791000D01*
X173775309Y-115789947D01*
X173754074Y-115786797D01*
X173733250Y-115781581D01*
X173713038Y-115774349D01*
X173693632Y-115765170D01*
X173675219Y-115754134D01*
X173657976Y-115741346D01*
X173642070Y-115726930D01*
X173627654Y-115711024D01*
X173614866Y-115693781D01*
X173603830Y-115675368D01*
X173594651Y-115655962D01*
X173587419Y-115635750D01*
X173582203Y-115614926D01*
X173579053Y-115593691D01*
X173578000Y-115572250D01*
X173578000Y-115059750D01*
X173579053Y-115038309D01*
X173582203Y-115017074D01*
X173587419Y-114996250D01*
X173594651Y-114976038D01*
X173603830Y-114956632D01*
X173614866Y-114938219D01*
X173627654Y-114920976D01*
X173642070Y-114905070D01*
X173657976Y-114890654D01*
X173675219Y-114877866D01*
X173693632Y-114866830D01*
X173713038Y-114857651D01*
X173733250Y-114850419D01*
X173754074Y-114845203D01*
X173775309Y-114842053D01*
X173796750Y-114841000D01*
X174234250Y-114841000D01*
X174255691Y-114842053D01*
G37*
G36*
X172680691Y-114842053D02*
G01*
X172701926Y-114845203D01*
X172722750Y-114850419D01*
X172742962Y-114857651D01*
X172762368Y-114866830D01*
X172780781Y-114877866D01*
X172798024Y-114890654D01*
X172813930Y-114905070D01*
X172828346Y-114920976D01*
X172841134Y-114938219D01*
X172852170Y-114956632D01*
X172861349Y-114976038D01*
X172868581Y-114996250D01*
X172873797Y-115017074D01*
X172876947Y-115038309D01*
X172878000Y-115059750D01*
X172878000Y-115572250D01*
X172876947Y-115593691D01*
X172873797Y-115614926D01*
X172868581Y-115635750D01*
X172861349Y-115655962D01*
X172852170Y-115675368D01*
X172841134Y-115693781D01*
X172828346Y-115711024D01*
X172813930Y-115726930D01*
X172798024Y-115741346D01*
X172780781Y-115754134D01*
X172762368Y-115765170D01*
X172742962Y-115774349D01*
X172722750Y-115781581D01*
X172701926Y-115786797D01*
X172680691Y-115789947D01*
X172659250Y-115791000D01*
X172221750Y-115791000D01*
X172200309Y-115789947D01*
X172179074Y-115786797D01*
X172158250Y-115781581D01*
X172138038Y-115774349D01*
X172118632Y-115765170D01*
X172100219Y-115754134D01*
X172082976Y-115741346D01*
X172067070Y-115726930D01*
X172052654Y-115711024D01*
X172039866Y-115693781D01*
X172028830Y-115675368D01*
X172019651Y-115655962D01*
X172012419Y-115635750D01*
X172007203Y-115614926D01*
X172004053Y-115593691D01*
X172003000Y-115572250D01*
X172003000Y-115059750D01*
X172004053Y-115038309D01*
X172007203Y-115017074D01*
X172012419Y-114996250D01*
X172019651Y-114976038D01*
X172028830Y-114956632D01*
X172039866Y-114938219D01*
X172052654Y-114920976D01*
X172067070Y-114905070D01*
X172082976Y-114890654D01*
X172100219Y-114877866D01*
X172118632Y-114866830D01*
X172138038Y-114857651D01*
X172158250Y-114850419D01*
X172179074Y-114845203D01*
X172200309Y-114842053D01*
X172221750Y-114841000D01*
X172659250Y-114841000D01*
X172680691Y-114842053D01*
G37*
%TD*%
%TO.C,R22*%
G36*
X140612691Y-97125053D02*
G01*
X140633926Y-97128203D01*
X140654750Y-97133419D01*
X140674962Y-97140651D01*
X140694368Y-97149830D01*
X140712781Y-97160866D01*
X140730024Y-97173654D01*
X140745930Y-97188070D01*
X140760346Y-97203976D01*
X140773134Y-97221219D01*
X140784170Y-97239632D01*
X140793349Y-97259038D01*
X140800581Y-97279250D01*
X140805797Y-97300074D01*
X140808947Y-97321309D01*
X140810000Y-97342750D01*
X140810000Y-97780250D01*
X140808947Y-97801691D01*
X140805797Y-97822926D01*
X140800581Y-97843750D01*
X140793349Y-97863962D01*
X140784170Y-97883368D01*
X140773134Y-97901781D01*
X140760346Y-97919024D01*
X140745930Y-97934930D01*
X140730024Y-97949346D01*
X140712781Y-97962134D01*
X140694368Y-97973170D01*
X140674962Y-97982349D01*
X140654750Y-97989581D01*
X140633926Y-97994797D01*
X140612691Y-97997947D01*
X140591250Y-97999000D01*
X140078750Y-97999000D01*
X140057309Y-97997947D01*
X140036074Y-97994797D01*
X140015250Y-97989581D01*
X139995038Y-97982349D01*
X139975632Y-97973170D01*
X139957219Y-97962134D01*
X139939976Y-97949346D01*
X139924070Y-97934930D01*
X139909654Y-97919024D01*
X139896866Y-97901781D01*
X139885830Y-97883368D01*
X139876651Y-97863962D01*
X139869419Y-97843750D01*
X139864203Y-97822926D01*
X139861053Y-97801691D01*
X139860000Y-97780250D01*
X139860000Y-97342750D01*
X139861053Y-97321309D01*
X139864203Y-97300074D01*
X139869419Y-97279250D01*
X139876651Y-97259038D01*
X139885830Y-97239632D01*
X139896866Y-97221219D01*
X139909654Y-97203976D01*
X139924070Y-97188070D01*
X139939976Y-97173654D01*
X139957219Y-97160866D01*
X139975632Y-97149830D01*
X139995038Y-97140651D01*
X140015250Y-97133419D01*
X140036074Y-97128203D01*
X140057309Y-97125053D01*
X140078750Y-97124000D01*
X140591250Y-97124000D01*
X140612691Y-97125053D01*
G37*
G36*
X140612691Y-95550053D02*
G01*
X140633926Y-95553203D01*
X140654750Y-95558419D01*
X140674962Y-95565651D01*
X140694368Y-95574830D01*
X140712781Y-95585866D01*
X140730024Y-95598654D01*
X140745930Y-95613070D01*
X140760346Y-95628976D01*
X140773134Y-95646219D01*
X140784170Y-95664632D01*
X140793349Y-95684038D01*
X140800581Y-95704250D01*
X140805797Y-95725074D01*
X140808947Y-95746309D01*
X140810000Y-95767750D01*
X140810000Y-96205250D01*
X140808947Y-96226691D01*
X140805797Y-96247926D01*
X140800581Y-96268750D01*
X140793349Y-96288962D01*
X140784170Y-96308368D01*
X140773134Y-96326781D01*
X140760346Y-96344024D01*
X140745930Y-96359930D01*
X140730024Y-96374346D01*
X140712781Y-96387134D01*
X140694368Y-96398170D01*
X140674962Y-96407349D01*
X140654750Y-96414581D01*
X140633926Y-96419797D01*
X140612691Y-96422947D01*
X140591250Y-96424000D01*
X140078750Y-96424000D01*
X140057309Y-96422947D01*
X140036074Y-96419797D01*
X140015250Y-96414581D01*
X139995038Y-96407349D01*
X139975632Y-96398170D01*
X139957219Y-96387134D01*
X139939976Y-96374346D01*
X139924070Y-96359930D01*
X139909654Y-96344024D01*
X139896866Y-96326781D01*
X139885830Y-96308368D01*
X139876651Y-96288962D01*
X139869419Y-96268750D01*
X139864203Y-96247926D01*
X139861053Y-96226691D01*
X139860000Y-96205250D01*
X139860000Y-95767750D01*
X139861053Y-95746309D01*
X139864203Y-95725074D01*
X139869419Y-95704250D01*
X139876651Y-95684038D01*
X139885830Y-95664632D01*
X139896866Y-95646219D01*
X139909654Y-95628976D01*
X139924070Y-95613070D01*
X139939976Y-95598654D01*
X139957219Y-95585866D01*
X139975632Y-95574830D01*
X139995038Y-95565651D01*
X140015250Y-95558419D01*
X140036074Y-95553203D01*
X140057309Y-95550053D01*
X140078750Y-95549000D01*
X140591250Y-95549000D01*
X140612691Y-95550053D01*
G37*
%TD*%
%TO.C,R23*%
G36*
X170013691Y-114842053D02*
G01*
X170034926Y-114845203D01*
X170055750Y-114850419D01*
X170075962Y-114857651D01*
X170095368Y-114866830D01*
X170113781Y-114877866D01*
X170131024Y-114890654D01*
X170146930Y-114905070D01*
X170161346Y-114920976D01*
X170174134Y-114938219D01*
X170185170Y-114956632D01*
X170194349Y-114976038D01*
X170201581Y-114996250D01*
X170206797Y-115017074D01*
X170209947Y-115038309D01*
X170211000Y-115059750D01*
X170211000Y-115572250D01*
X170209947Y-115593691D01*
X170206797Y-115614926D01*
X170201581Y-115635750D01*
X170194349Y-115655962D01*
X170185170Y-115675368D01*
X170174134Y-115693781D01*
X170161346Y-115711024D01*
X170146930Y-115726930D01*
X170131024Y-115741346D01*
X170113781Y-115754134D01*
X170095368Y-115765170D01*
X170075962Y-115774349D01*
X170055750Y-115781581D01*
X170034926Y-115786797D01*
X170013691Y-115789947D01*
X169992250Y-115791000D01*
X169554750Y-115791000D01*
X169533309Y-115789947D01*
X169512074Y-115786797D01*
X169491250Y-115781581D01*
X169471038Y-115774349D01*
X169451632Y-115765170D01*
X169433219Y-115754134D01*
X169415976Y-115741346D01*
X169400070Y-115726930D01*
X169385654Y-115711024D01*
X169372866Y-115693781D01*
X169361830Y-115675368D01*
X169352651Y-115655962D01*
X169345419Y-115635750D01*
X169340203Y-115614926D01*
X169337053Y-115593691D01*
X169336000Y-115572250D01*
X169336000Y-115059750D01*
X169337053Y-115038309D01*
X169340203Y-115017074D01*
X169345419Y-114996250D01*
X169352651Y-114976038D01*
X169361830Y-114956632D01*
X169372866Y-114938219D01*
X169385654Y-114920976D01*
X169400070Y-114905070D01*
X169415976Y-114890654D01*
X169433219Y-114877866D01*
X169451632Y-114866830D01*
X169471038Y-114857651D01*
X169491250Y-114850419D01*
X169512074Y-114845203D01*
X169533309Y-114842053D01*
X169554750Y-114841000D01*
X169992250Y-114841000D01*
X170013691Y-114842053D01*
G37*
G36*
X171588691Y-114842053D02*
G01*
X171609926Y-114845203D01*
X171630750Y-114850419D01*
X171650962Y-114857651D01*
X171670368Y-114866830D01*
X171688781Y-114877866D01*
X171706024Y-114890654D01*
X171721930Y-114905070D01*
X171736346Y-114920976D01*
X171749134Y-114938219D01*
X171760170Y-114956632D01*
X171769349Y-114976038D01*
X171776581Y-114996250D01*
X171781797Y-115017074D01*
X171784947Y-115038309D01*
X171786000Y-115059750D01*
X171786000Y-115572250D01*
X171784947Y-115593691D01*
X171781797Y-115614926D01*
X171776581Y-115635750D01*
X171769349Y-115655962D01*
X171760170Y-115675368D01*
X171749134Y-115693781D01*
X171736346Y-115711024D01*
X171721930Y-115726930D01*
X171706024Y-115741346D01*
X171688781Y-115754134D01*
X171670368Y-115765170D01*
X171650962Y-115774349D01*
X171630750Y-115781581D01*
X171609926Y-115786797D01*
X171588691Y-115789947D01*
X171567250Y-115791000D01*
X171129750Y-115791000D01*
X171108309Y-115789947D01*
X171087074Y-115786797D01*
X171066250Y-115781581D01*
X171046038Y-115774349D01*
X171026632Y-115765170D01*
X171008219Y-115754134D01*
X170990976Y-115741346D01*
X170975070Y-115726930D01*
X170960654Y-115711024D01*
X170947866Y-115693781D01*
X170936830Y-115675368D01*
X170927651Y-115655962D01*
X170920419Y-115635750D01*
X170915203Y-115614926D01*
X170912053Y-115593691D01*
X170911000Y-115572250D01*
X170911000Y-115059750D01*
X170912053Y-115038309D01*
X170915203Y-115017074D01*
X170920419Y-114996250D01*
X170927651Y-114976038D01*
X170936830Y-114956632D01*
X170947866Y-114938219D01*
X170960654Y-114920976D01*
X170975070Y-114905070D01*
X170990976Y-114890654D01*
X171008219Y-114877866D01*
X171026632Y-114866830D01*
X171046038Y-114857651D01*
X171066250Y-114850419D01*
X171087074Y-114845203D01*
X171108309Y-114842053D01*
X171129750Y-114841000D01*
X171567250Y-114841000D01*
X171588691Y-114842053D01*
G37*
%TD*%
%TO.C,R24*%
G36*
X140612691Y-92502053D02*
G01*
X140633926Y-92505203D01*
X140654750Y-92510419D01*
X140674962Y-92517651D01*
X140694368Y-92526830D01*
X140712781Y-92537866D01*
X140730024Y-92550654D01*
X140745930Y-92565070D01*
X140760346Y-92580976D01*
X140773134Y-92598219D01*
X140784170Y-92616632D01*
X140793349Y-92636038D01*
X140800581Y-92656250D01*
X140805797Y-92677074D01*
X140808947Y-92698309D01*
X140810000Y-92719750D01*
X140810000Y-93157250D01*
X140808947Y-93178691D01*
X140805797Y-93199926D01*
X140800581Y-93220750D01*
X140793349Y-93240962D01*
X140784170Y-93260368D01*
X140773134Y-93278781D01*
X140760346Y-93296024D01*
X140745930Y-93311930D01*
X140730024Y-93326346D01*
X140712781Y-93339134D01*
X140694368Y-93350170D01*
X140674962Y-93359349D01*
X140654750Y-93366581D01*
X140633926Y-93371797D01*
X140612691Y-93374947D01*
X140591250Y-93376000D01*
X140078750Y-93376000D01*
X140057309Y-93374947D01*
X140036074Y-93371797D01*
X140015250Y-93366581D01*
X139995038Y-93359349D01*
X139975632Y-93350170D01*
X139957219Y-93339134D01*
X139939976Y-93326346D01*
X139924070Y-93311930D01*
X139909654Y-93296024D01*
X139896866Y-93278781D01*
X139885830Y-93260368D01*
X139876651Y-93240962D01*
X139869419Y-93220750D01*
X139864203Y-93199926D01*
X139861053Y-93178691D01*
X139860000Y-93157250D01*
X139860000Y-92719750D01*
X139861053Y-92698309D01*
X139864203Y-92677074D01*
X139869419Y-92656250D01*
X139876651Y-92636038D01*
X139885830Y-92616632D01*
X139896866Y-92598219D01*
X139909654Y-92580976D01*
X139924070Y-92565070D01*
X139939976Y-92550654D01*
X139957219Y-92537866D01*
X139975632Y-92526830D01*
X139995038Y-92517651D01*
X140015250Y-92510419D01*
X140036074Y-92505203D01*
X140057309Y-92502053D01*
X140078750Y-92501000D01*
X140591250Y-92501000D01*
X140612691Y-92502053D01*
G37*
G36*
X140612691Y-94077053D02*
G01*
X140633926Y-94080203D01*
X140654750Y-94085419D01*
X140674962Y-94092651D01*
X140694368Y-94101830D01*
X140712781Y-94112866D01*
X140730024Y-94125654D01*
X140745930Y-94140070D01*
X140760346Y-94155976D01*
X140773134Y-94173219D01*
X140784170Y-94191632D01*
X140793349Y-94211038D01*
X140800581Y-94231250D01*
X140805797Y-94252074D01*
X140808947Y-94273309D01*
X140810000Y-94294750D01*
X140810000Y-94732250D01*
X140808947Y-94753691D01*
X140805797Y-94774926D01*
X140800581Y-94795750D01*
X140793349Y-94815962D01*
X140784170Y-94835368D01*
X140773134Y-94853781D01*
X140760346Y-94871024D01*
X140745930Y-94886930D01*
X140730024Y-94901346D01*
X140712781Y-94914134D01*
X140694368Y-94925170D01*
X140674962Y-94934349D01*
X140654750Y-94941581D01*
X140633926Y-94946797D01*
X140612691Y-94949947D01*
X140591250Y-94951000D01*
X140078750Y-94951000D01*
X140057309Y-94949947D01*
X140036074Y-94946797D01*
X140015250Y-94941581D01*
X139995038Y-94934349D01*
X139975632Y-94925170D01*
X139957219Y-94914134D01*
X139939976Y-94901346D01*
X139924070Y-94886930D01*
X139909654Y-94871024D01*
X139896866Y-94853781D01*
X139885830Y-94835368D01*
X139876651Y-94815962D01*
X139869419Y-94795750D01*
X139864203Y-94774926D01*
X139861053Y-94753691D01*
X139860000Y-94732250D01*
X139860000Y-94294750D01*
X139861053Y-94273309D01*
X139864203Y-94252074D01*
X139869419Y-94231250D01*
X139876651Y-94211038D01*
X139885830Y-94191632D01*
X139896866Y-94173219D01*
X139909654Y-94155976D01*
X139924070Y-94140070D01*
X139939976Y-94125654D01*
X139957219Y-94112866D01*
X139975632Y-94101830D01*
X139995038Y-94092651D01*
X140015250Y-94085419D01*
X140036074Y-94080203D01*
X140057309Y-94077053D01*
X140078750Y-94076000D01*
X140591250Y-94076000D01*
X140612691Y-94077053D01*
G37*
%TD*%
%TO.C,R25*%
G36*
X103782691Y-67661053D02*
G01*
X103803926Y-67664203D01*
X103824750Y-67669419D01*
X103844962Y-67676651D01*
X103864368Y-67685830D01*
X103882781Y-67696866D01*
X103900024Y-67709654D01*
X103915930Y-67724070D01*
X103930346Y-67739976D01*
X103943134Y-67757219D01*
X103954170Y-67775632D01*
X103963349Y-67795038D01*
X103970581Y-67815250D01*
X103975797Y-67836074D01*
X103978947Y-67857309D01*
X103980000Y-67878750D01*
X103980000Y-68316250D01*
X103978947Y-68337691D01*
X103975797Y-68358926D01*
X103970581Y-68379750D01*
X103963349Y-68399962D01*
X103954170Y-68419368D01*
X103943134Y-68437781D01*
X103930346Y-68455024D01*
X103915930Y-68470930D01*
X103900024Y-68485346D01*
X103882781Y-68498134D01*
X103864368Y-68509170D01*
X103844962Y-68518349D01*
X103824750Y-68525581D01*
X103803926Y-68530797D01*
X103782691Y-68533947D01*
X103761250Y-68535000D01*
X103248750Y-68535000D01*
X103227309Y-68533947D01*
X103206074Y-68530797D01*
X103185250Y-68525581D01*
X103165038Y-68518349D01*
X103145632Y-68509170D01*
X103127219Y-68498134D01*
X103109976Y-68485346D01*
X103094070Y-68470930D01*
X103079654Y-68455024D01*
X103066866Y-68437781D01*
X103055830Y-68419368D01*
X103046651Y-68399962D01*
X103039419Y-68379750D01*
X103034203Y-68358926D01*
X103031053Y-68337691D01*
X103030000Y-68316250D01*
X103030000Y-67878750D01*
X103031053Y-67857309D01*
X103034203Y-67836074D01*
X103039419Y-67815250D01*
X103046651Y-67795038D01*
X103055830Y-67775632D01*
X103066866Y-67757219D01*
X103079654Y-67739976D01*
X103094070Y-67724070D01*
X103109976Y-67709654D01*
X103127219Y-67696866D01*
X103145632Y-67685830D01*
X103165038Y-67676651D01*
X103185250Y-67669419D01*
X103206074Y-67664203D01*
X103227309Y-67661053D01*
X103248750Y-67660000D01*
X103761250Y-67660000D01*
X103782691Y-67661053D01*
G37*
G36*
X103782691Y-66086053D02*
G01*
X103803926Y-66089203D01*
X103824750Y-66094419D01*
X103844962Y-66101651D01*
X103864368Y-66110830D01*
X103882781Y-66121866D01*
X103900024Y-66134654D01*
X103915930Y-66149070D01*
X103930346Y-66164976D01*
X103943134Y-66182219D01*
X103954170Y-66200632D01*
X103963349Y-66220038D01*
X103970581Y-66240250D01*
X103975797Y-66261074D01*
X103978947Y-66282309D01*
X103980000Y-66303750D01*
X103980000Y-66741250D01*
X103978947Y-66762691D01*
X103975797Y-66783926D01*
X103970581Y-66804750D01*
X103963349Y-66824962D01*
X103954170Y-66844368D01*
X103943134Y-66862781D01*
X103930346Y-66880024D01*
X103915930Y-66895930D01*
X103900024Y-66910346D01*
X103882781Y-66923134D01*
X103864368Y-66934170D01*
X103844962Y-66943349D01*
X103824750Y-66950581D01*
X103803926Y-66955797D01*
X103782691Y-66958947D01*
X103761250Y-66960000D01*
X103248750Y-66960000D01*
X103227309Y-66958947D01*
X103206074Y-66955797D01*
X103185250Y-66950581D01*
X103165038Y-66943349D01*
X103145632Y-66934170D01*
X103127219Y-66923134D01*
X103109976Y-66910346D01*
X103094070Y-66895930D01*
X103079654Y-66880024D01*
X103066866Y-66862781D01*
X103055830Y-66844368D01*
X103046651Y-66824962D01*
X103039419Y-66804750D01*
X103034203Y-66783926D01*
X103031053Y-66762691D01*
X103030000Y-66741250D01*
X103030000Y-66303750D01*
X103031053Y-66282309D01*
X103034203Y-66261074D01*
X103039419Y-66240250D01*
X103046651Y-66220038D01*
X103055830Y-66200632D01*
X103066866Y-66182219D01*
X103079654Y-66164976D01*
X103094070Y-66149070D01*
X103109976Y-66134654D01*
X103127219Y-66121866D01*
X103145632Y-66110830D01*
X103165038Y-66101651D01*
X103185250Y-66094419D01*
X103206074Y-66089203D01*
X103227309Y-66086053D01*
X103248750Y-66085000D01*
X103761250Y-66085000D01*
X103782691Y-66086053D01*
G37*
%TD*%
%TO.C,R27*%
G36*
X140981691Y-79536053D02*
G01*
X141002926Y-79539203D01*
X141023750Y-79544419D01*
X141043962Y-79551651D01*
X141063368Y-79560830D01*
X141081781Y-79571866D01*
X141099024Y-79584654D01*
X141114930Y-79599070D01*
X141129346Y-79614976D01*
X141142134Y-79632219D01*
X141153170Y-79650632D01*
X141162349Y-79670038D01*
X141169581Y-79690250D01*
X141174797Y-79711074D01*
X141177947Y-79732309D01*
X141179000Y-79753750D01*
X141179000Y-80266250D01*
X141177947Y-80287691D01*
X141174797Y-80308926D01*
X141169581Y-80329750D01*
X141162349Y-80349962D01*
X141153170Y-80369368D01*
X141142134Y-80387781D01*
X141129346Y-80405024D01*
X141114930Y-80420930D01*
X141099024Y-80435346D01*
X141081781Y-80448134D01*
X141063368Y-80459170D01*
X141043962Y-80468349D01*
X141023750Y-80475581D01*
X141002926Y-80480797D01*
X140981691Y-80483947D01*
X140960250Y-80485000D01*
X140522750Y-80485000D01*
X140501309Y-80483947D01*
X140480074Y-80480797D01*
X140459250Y-80475581D01*
X140439038Y-80468349D01*
X140419632Y-80459170D01*
X140401219Y-80448134D01*
X140383976Y-80435346D01*
X140368070Y-80420930D01*
X140353654Y-80405024D01*
X140340866Y-80387781D01*
X140329830Y-80369368D01*
X140320651Y-80349962D01*
X140313419Y-80329750D01*
X140308203Y-80308926D01*
X140305053Y-80287691D01*
X140304000Y-80266250D01*
X140304000Y-79753750D01*
X140305053Y-79732309D01*
X140308203Y-79711074D01*
X140313419Y-79690250D01*
X140320651Y-79670038D01*
X140329830Y-79650632D01*
X140340866Y-79632219D01*
X140353654Y-79614976D01*
X140368070Y-79599070D01*
X140383976Y-79584654D01*
X140401219Y-79571866D01*
X140419632Y-79560830D01*
X140439038Y-79551651D01*
X140459250Y-79544419D01*
X140480074Y-79539203D01*
X140501309Y-79536053D01*
X140522750Y-79535000D01*
X140960250Y-79535000D01*
X140981691Y-79536053D01*
G37*
G36*
X139406691Y-79536053D02*
G01*
X139427926Y-79539203D01*
X139448750Y-79544419D01*
X139468962Y-79551651D01*
X139488368Y-79560830D01*
X139506781Y-79571866D01*
X139524024Y-79584654D01*
X139539930Y-79599070D01*
X139554346Y-79614976D01*
X139567134Y-79632219D01*
X139578170Y-79650632D01*
X139587349Y-79670038D01*
X139594581Y-79690250D01*
X139599797Y-79711074D01*
X139602947Y-79732309D01*
X139604000Y-79753750D01*
X139604000Y-80266250D01*
X139602947Y-80287691D01*
X139599797Y-80308926D01*
X139594581Y-80329750D01*
X139587349Y-80349962D01*
X139578170Y-80369368D01*
X139567134Y-80387781D01*
X139554346Y-80405024D01*
X139539930Y-80420930D01*
X139524024Y-80435346D01*
X139506781Y-80448134D01*
X139488368Y-80459170D01*
X139468962Y-80468349D01*
X139448750Y-80475581D01*
X139427926Y-80480797D01*
X139406691Y-80483947D01*
X139385250Y-80485000D01*
X138947750Y-80485000D01*
X138926309Y-80483947D01*
X138905074Y-80480797D01*
X138884250Y-80475581D01*
X138864038Y-80468349D01*
X138844632Y-80459170D01*
X138826219Y-80448134D01*
X138808976Y-80435346D01*
X138793070Y-80420930D01*
X138778654Y-80405024D01*
X138765866Y-80387781D01*
X138754830Y-80369368D01*
X138745651Y-80349962D01*
X138738419Y-80329750D01*
X138733203Y-80308926D01*
X138730053Y-80287691D01*
X138729000Y-80266250D01*
X138729000Y-79753750D01*
X138730053Y-79732309D01*
X138733203Y-79711074D01*
X138738419Y-79690250D01*
X138745651Y-79670038D01*
X138754830Y-79650632D01*
X138765866Y-79632219D01*
X138778654Y-79614976D01*
X138793070Y-79599070D01*
X138808976Y-79584654D01*
X138826219Y-79571866D01*
X138844632Y-79560830D01*
X138864038Y-79551651D01*
X138884250Y-79544419D01*
X138905074Y-79539203D01*
X138926309Y-79536053D01*
X138947750Y-79535000D01*
X139385250Y-79535000D01*
X139406691Y-79536053D01*
G37*
%TD*%
%TO.C,R28*%
G36*
X131659691Y-79536053D02*
G01*
X131680926Y-79539203D01*
X131701750Y-79544419D01*
X131721962Y-79551651D01*
X131741368Y-79560830D01*
X131759781Y-79571866D01*
X131777024Y-79584654D01*
X131792930Y-79599070D01*
X131807346Y-79614976D01*
X131820134Y-79632219D01*
X131831170Y-79650632D01*
X131840349Y-79670038D01*
X131847581Y-79690250D01*
X131852797Y-79711074D01*
X131855947Y-79732309D01*
X131857000Y-79753750D01*
X131857000Y-80266250D01*
X131855947Y-80287691D01*
X131852797Y-80308926D01*
X131847581Y-80329750D01*
X131840349Y-80349962D01*
X131831170Y-80369368D01*
X131820134Y-80387781D01*
X131807346Y-80405024D01*
X131792930Y-80420930D01*
X131777024Y-80435346D01*
X131759781Y-80448134D01*
X131741368Y-80459170D01*
X131721962Y-80468349D01*
X131701750Y-80475581D01*
X131680926Y-80480797D01*
X131659691Y-80483947D01*
X131638250Y-80485000D01*
X131200750Y-80485000D01*
X131179309Y-80483947D01*
X131158074Y-80480797D01*
X131137250Y-80475581D01*
X131117038Y-80468349D01*
X131097632Y-80459170D01*
X131079219Y-80448134D01*
X131061976Y-80435346D01*
X131046070Y-80420930D01*
X131031654Y-80405024D01*
X131018866Y-80387781D01*
X131007830Y-80369368D01*
X130998651Y-80349962D01*
X130991419Y-80329750D01*
X130986203Y-80308926D01*
X130983053Y-80287691D01*
X130982000Y-80266250D01*
X130982000Y-79753750D01*
X130983053Y-79732309D01*
X130986203Y-79711074D01*
X130991419Y-79690250D01*
X130998651Y-79670038D01*
X131007830Y-79650632D01*
X131018866Y-79632219D01*
X131031654Y-79614976D01*
X131046070Y-79599070D01*
X131061976Y-79584654D01*
X131079219Y-79571866D01*
X131097632Y-79560830D01*
X131117038Y-79551651D01*
X131137250Y-79544419D01*
X131158074Y-79539203D01*
X131179309Y-79536053D01*
X131200750Y-79535000D01*
X131638250Y-79535000D01*
X131659691Y-79536053D01*
G37*
G36*
X133234691Y-79536053D02*
G01*
X133255926Y-79539203D01*
X133276750Y-79544419D01*
X133296962Y-79551651D01*
X133316368Y-79560830D01*
X133334781Y-79571866D01*
X133352024Y-79584654D01*
X133367930Y-79599070D01*
X133382346Y-79614976D01*
X133395134Y-79632219D01*
X133406170Y-79650632D01*
X133415349Y-79670038D01*
X133422581Y-79690250D01*
X133427797Y-79711074D01*
X133430947Y-79732309D01*
X133432000Y-79753750D01*
X133432000Y-80266250D01*
X133430947Y-80287691D01*
X133427797Y-80308926D01*
X133422581Y-80329750D01*
X133415349Y-80349962D01*
X133406170Y-80369368D01*
X133395134Y-80387781D01*
X133382346Y-80405024D01*
X133367930Y-80420930D01*
X133352024Y-80435346D01*
X133334781Y-80448134D01*
X133316368Y-80459170D01*
X133296962Y-80468349D01*
X133276750Y-80475581D01*
X133255926Y-80480797D01*
X133234691Y-80483947D01*
X133213250Y-80485000D01*
X132775750Y-80485000D01*
X132754309Y-80483947D01*
X132733074Y-80480797D01*
X132712250Y-80475581D01*
X132692038Y-80468349D01*
X132672632Y-80459170D01*
X132654219Y-80448134D01*
X132636976Y-80435346D01*
X132621070Y-80420930D01*
X132606654Y-80405024D01*
X132593866Y-80387781D01*
X132582830Y-80369368D01*
X132573651Y-80349962D01*
X132566419Y-80329750D01*
X132561203Y-80308926D01*
X132558053Y-80287691D01*
X132557000Y-80266250D01*
X132557000Y-79753750D01*
X132558053Y-79732309D01*
X132561203Y-79711074D01*
X132566419Y-79690250D01*
X132573651Y-79670038D01*
X132582830Y-79650632D01*
X132593866Y-79632219D01*
X132606654Y-79614976D01*
X132621070Y-79599070D01*
X132636976Y-79584654D01*
X132654219Y-79571866D01*
X132672632Y-79560830D01*
X132692038Y-79551651D01*
X132712250Y-79544419D01*
X132733074Y-79539203D01*
X132754309Y-79536053D01*
X132775750Y-79535000D01*
X133213250Y-79535000D01*
X133234691Y-79536053D01*
G37*
%TD*%
%TO.C,R29*%
G36*
X148728691Y-79536053D02*
G01*
X148749926Y-79539203D01*
X148770750Y-79544419D01*
X148790962Y-79551651D01*
X148810368Y-79560830D01*
X148828781Y-79571866D01*
X148846024Y-79584654D01*
X148861930Y-79599070D01*
X148876346Y-79614976D01*
X148889134Y-79632219D01*
X148900170Y-79650632D01*
X148909349Y-79670038D01*
X148916581Y-79690250D01*
X148921797Y-79711074D01*
X148924947Y-79732309D01*
X148926000Y-79753750D01*
X148926000Y-80266250D01*
X148924947Y-80287691D01*
X148921797Y-80308926D01*
X148916581Y-80329750D01*
X148909349Y-80349962D01*
X148900170Y-80369368D01*
X148889134Y-80387781D01*
X148876346Y-80405024D01*
X148861930Y-80420930D01*
X148846024Y-80435346D01*
X148828781Y-80448134D01*
X148810368Y-80459170D01*
X148790962Y-80468349D01*
X148770750Y-80475581D01*
X148749926Y-80480797D01*
X148728691Y-80483947D01*
X148707250Y-80485000D01*
X148269750Y-80485000D01*
X148248309Y-80483947D01*
X148227074Y-80480797D01*
X148206250Y-80475581D01*
X148186038Y-80468349D01*
X148166632Y-80459170D01*
X148148219Y-80448134D01*
X148130976Y-80435346D01*
X148115070Y-80420930D01*
X148100654Y-80405024D01*
X148087866Y-80387781D01*
X148076830Y-80369368D01*
X148067651Y-80349962D01*
X148060419Y-80329750D01*
X148055203Y-80308926D01*
X148052053Y-80287691D01*
X148051000Y-80266250D01*
X148051000Y-79753750D01*
X148052053Y-79732309D01*
X148055203Y-79711074D01*
X148060419Y-79690250D01*
X148067651Y-79670038D01*
X148076830Y-79650632D01*
X148087866Y-79632219D01*
X148100654Y-79614976D01*
X148115070Y-79599070D01*
X148130976Y-79584654D01*
X148148219Y-79571866D01*
X148166632Y-79560830D01*
X148186038Y-79551651D01*
X148206250Y-79544419D01*
X148227074Y-79539203D01*
X148248309Y-79536053D01*
X148269750Y-79535000D01*
X148707250Y-79535000D01*
X148728691Y-79536053D01*
G37*
G36*
X147153691Y-79536053D02*
G01*
X147174926Y-79539203D01*
X147195750Y-79544419D01*
X147215962Y-79551651D01*
X147235368Y-79560830D01*
X147253781Y-79571866D01*
X147271024Y-79584654D01*
X147286930Y-79599070D01*
X147301346Y-79614976D01*
X147314134Y-79632219D01*
X147325170Y-79650632D01*
X147334349Y-79670038D01*
X147341581Y-79690250D01*
X147346797Y-79711074D01*
X147349947Y-79732309D01*
X147351000Y-79753750D01*
X147351000Y-80266250D01*
X147349947Y-80287691D01*
X147346797Y-80308926D01*
X147341581Y-80329750D01*
X147334349Y-80349962D01*
X147325170Y-80369368D01*
X147314134Y-80387781D01*
X147301346Y-80405024D01*
X147286930Y-80420930D01*
X147271024Y-80435346D01*
X147253781Y-80448134D01*
X147235368Y-80459170D01*
X147215962Y-80468349D01*
X147195750Y-80475581D01*
X147174926Y-80480797D01*
X147153691Y-80483947D01*
X147132250Y-80485000D01*
X146694750Y-80485000D01*
X146673309Y-80483947D01*
X146652074Y-80480797D01*
X146631250Y-80475581D01*
X146611038Y-80468349D01*
X146591632Y-80459170D01*
X146573219Y-80448134D01*
X146555976Y-80435346D01*
X146540070Y-80420930D01*
X146525654Y-80405024D01*
X146512866Y-80387781D01*
X146501830Y-80369368D01*
X146492651Y-80349962D01*
X146485419Y-80329750D01*
X146480203Y-80308926D01*
X146477053Y-80287691D01*
X146476000Y-80266250D01*
X146476000Y-79753750D01*
X146477053Y-79732309D01*
X146480203Y-79711074D01*
X146485419Y-79690250D01*
X146492651Y-79670038D01*
X146501830Y-79650632D01*
X146512866Y-79632219D01*
X146525654Y-79614976D01*
X146540070Y-79599070D01*
X146555976Y-79584654D01*
X146573219Y-79571866D01*
X146591632Y-79560830D01*
X146611038Y-79551651D01*
X146631250Y-79544419D01*
X146652074Y-79539203D01*
X146673309Y-79536053D01*
X146694750Y-79535000D01*
X147132250Y-79535000D01*
X147153691Y-79536053D01*
G37*
%TD*%
%TO.C,R30*%
G36*
X155027691Y-79409053D02*
G01*
X155048926Y-79412203D01*
X155069750Y-79417419D01*
X155089962Y-79424651D01*
X155109368Y-79433830D01*
X155127781Y-79444866D01*
X155145024Y-79457654D01*
X155160930Y-79472070D01*
X155175346Y-79487976D01*
X155188134Y-79505219D01*
X155199170Y-79523632D01*
X155208349Y-79543038D01*
X155215581Y-79563250D01*
X155220797Y-79584074D01*
X155223947Y-79605309D01*
X155225000Y-79626750D01*
X155225000Y-80139250D01*
X155223947Y-80160691D01*
X155220797Y-80181926D01*
X155215581Y-80202750D01*
X155208349Y-80222962D01*
X155199170Y-80242368D01*
X155188134Y-80260781D01*
X155175346Y-80278024D01*
X155160930Y-80293930D01*
X155145024Y-80308346D01*
X155127781Y-80321134D01*
X155109368Y-80332170D01*
X155089962Y-80341349D01*
X155069750Y-80348581D01*
X155048926Y-80353797D01*
X155027691Y-80356947D01*
X155006250Y-80358000D01*
X154568750Y-80358000D01*
X154547309Y-80356947D01*
X154526074Y-80353797D01*
X154505250Y-80348581D01*
X154485038Y-80341349D01*
X154465632Y-80332170D01*
X154447219Y-80321134D01*
X154429976Y-80308346D01*
X154414070Y-80293930D01*
X154399654Y-80278024D01*
X154386866Y-80260781D01*
X154375830Y-80242368D01*
X154366651Y-80222962D01*
X154359419Y-80202750D01*
X154354203Y-80181926D01*
X154351053Y-80160691D01*
X154350000Y-80139250D01*
X154350000Y-79626750D01*
X154351053Y-79605309D01*
X154354203Y-79584074D01*
X154359419Y-79563250D01*
X154366651Y-79543038D01*
X154375830Y-79523632D01*
X154386866Y-79505219D01*
X154399654Y-79487976D01*
X154414070Y-79472070D01*
X154429976Y-79457654D01*
X154447219Y-79444866D01*
X154465632Y-79433830D01*
X154485038Y-79424651D01*
X154505250Y-79417419D01*
X154526074Y-79412203D01*
X154547309Y-79409053D01*
X154568750Y-79408000D01*
X155006250Y-79408000D01*
X155027691Y-79409053D01*
G37*
G36*
X156602691Y-79409053D02*
G01*
X156623926Y-79412203D01*
X156644750Y-79417419D01*
X156664962Y-79424651D01*
X156684368Y-79433830D01*
X156702781Y-79444866D01*
X156720024Y-79457654D01*
X156735930Y-79472070D01*
X156750346Y-79487976D01*
X156763134Y-79505219D01*
X156774170Y-79523632D01*
X156783349Y-79543038D01*
X156790581Y-79563250D01*
X156795797Y-79584074D01*
X156798947Y-79605309D01*
X156800000Y-79626750D01*
X156800000Y-80139250D01*
X156798947Y-80160691D01*
X156795797Y-80181926D01*
X156790581Y-80202750D01*
X156783349Y-80222962D01*
X156774170Y-80242368D01*
X156763134Y-80260781D01*
X156750346Y-80278024D01*
X156735930Y-80293930D01*
X156720024Y-80308346D01*
X156702781Y-80321134D01*
X156684368Y-80332170D01*
X156664962Y-80341349D01*
X156644750Y-80348581D01*
X156623926Y-80353797D01*
X156602691Y-80356947D01*
X156581250Y-80358000D01*
X156143750Y-80358000D01*
X156122309Y-80356947D01*
X156101074Y-80353797D01*
X156080250Y-80348581D01*
X156060038Y-80341349D01*
X156040632Y-80332170D01*
X156022219Y-80321134D01*
X156004976Y-80308346D01*
X155989070Y-80293930D01*
X155974654Y-80278024D01*
X155961866Y-80260781D01*
X155950830Y-80242368D01*
X155941651Y-80222962D01*
X155934419Y-80202750D01*
X155929203Y-80181926D01*
X155926053Y-80160691D01*
X155925000Y-80139250D01*
X155925000Y-79626750D01*
X155926053Y-79605309D01*
X155929203Y-79584074D01*
X155934419Y-79563250D01*
X155941651Y-79543038D01*
X155950830Y-79523632D01*
X155961866Y-79505219D01*
X155974654Y-79487976D01*
X155989070Y-79472070D01*
X156004976Y-79457654D01*
X156022219Y-79444866D01*
X156040632Y-79433830D01*
X156060038Y-79424651D01*
X156080250Y-79417419D01*
X156101074Y-79412203D01*
X156122309Y-79409053D01*
X156143750Y-79408000D01*
X156581250Y-79408000D01*
X156602691Y-79409053D01*
G37*
%TD*%
%TO.C,R31*%
G36*
X172172691Y-76996053D02*
G01*
X172193926Y-76999203D01*
X172214750Y-77004419D01*
X172234962Y-77011651D01*
X172254368Y-77020830D01*
X172272781Y-77031866D01*
X172290024Y-77044654D01*
X172305930Y-77059070D01*
X172320346Y-77074976D01*
X172333134Y-77092219D01*
X172344170Y-77110632D01*
X172353349Y-77130038D01*
X172360581Y-77150250D01*
X172365797Y-77171074D01*
X172368947Y-77192309D01*
X172370000Y-77213750D01*
X172370000Y-77726250D01*
X172368947Y-77747691D01*
X172365797Y-77768926D01*
X172360581Y-77789750D01*
X172353349Y-77809962D01*
X172344170Y-77829368D01*
X172333134Y-77847781D01*
X172320346Y-77865024D01*
X172305930Y-77880930D01*
X172290024Y-77895346D01*
X172272781Y-77908134D01*
X172254368Y-77919170D01*
X172234962Y-77928349D01*
X172214750Y-77935581D01*
X172193926Y-77940797D01*
X172172691Y-77943947D01*
X172151250Y-77945000D01*
X171713750Y-77945000D01*
X171692309Y-77943947D01*
X171671074Y-77940797D01*
X171650250Y-77935581D01*
X171630038Y-77928349D01*
X171610632Y-77919170D01*
X171592219Y-77908134D01*
X171574976Y-77895346D01*
X171559070Y-77880930D01*
X171544654Y-77865024D01*
X171531866Y-77847781D01*
X171520830Y-77829368D01*
X171511651Y-77809962D01*
X171504419Y-77789750D01*
X171499203Y-77768926D01*
X171496053Y-77747691D01*
X171495000Y-77726250D01*
X171495000Y-77213750D01*
X171496053Y-77192309D01*
X171499203Y-77171074D01*
X171504419Y-77150250D01*
X171511651Y-77130038D01*
X171520830Y-77110632D01*
X171531866Y-77092219D01*
X171544654Y-77074976D01*
X171559070Y-77059070D01*
X171574976Y-77044654D01*
X171592219Y-77031866D01*
X171610632Y-77020830D01*
X171630038Y-77011651D01*
X171650250Y-77004419D01*
X171671074Y-76999203D01*
X171692309Y-76996053D01*
X171713750Y-76995000D01*
X172151250Y-76995000D01*
X172172691Y-76996053D01*
G37*
G36*
X173747691Y-76996053D02*
G01*
X173768926Y-76999203D01*
X173789750Y-77004419D01*
X173809962Y-77011651D01*
X173829368Y-77020830D01*
X173847781Y-77031866D01*
X173865024Y-77044654D01*
X173880930Y-77059070D01*
X173895346Y-77074976D01*
X173908134Y-77092219D01*
X173919170Y-77110632D01*
X173928349Y-77130038D01*
X173935581Y-77150250D01*
X173940797Y-77171074D01*
X173943947Y-77192309D01*
X173945000Y-77213750D01*
X173945000Y-77726250D01*
X173943947Y-77747691D01*
X173940797Y-77768926D01*
X173935581Y-77789750D01*
X173928349Y-77809962D01*
X173919170Y-77829368D01*
X173908134Y-77847781D01*
X173895346Y-77865024D01*
X173880930Y-77880930D01*
X173865024Y-77895346D01*
X173847781Y-77908134D01*
X173829368Y-77919170D01*
X173809962Y-77928349D01*
X173789750Y-77935581D01*
X173768926Y-77940797D01*
X173747691Y-77943947D01*
X173726250Y-77945000D01*
X173288750Y-77945000D01*
X173267309Y-77943947D01*
X173246074Y-77940797D01*
X173225250Y-77935581D01*
X173205038Y-77928349D01*
X173185632Y-77919170D01*
X173167219Y-77908134D01*
X173149976Y-77895346D01*
X173134070Y-77880930D01*
X173119654Y-77865024D01*
X173106866Y-77847781D01*
X173095830Y-77829368D01*
X173086651Y-77809962D01*
X173079419Y-77789750D01*
X173074203Y-77768926D01*
X173071053Y-77747691D01*
X173070000Y-77726250D01*
X173070000Y-77213750D01*
X173071053Y-77192309D01*
X173074203Y-77171074D01*
X173079419Y-77150250D01*
X173086651Y-77130038D01*
X173095830Y-77110632D01*
X173106866Y-77092219D01*
X173119654Y-77074976D01*
X173134070Y-77059070D01*
X173149976Y-77044654D01*
X173167219Y-77031866D01*
X173185632Y-77020830D01*
X173205038Y-77011651D01*
X173225250Y-77004419D01*
X173246074Y-76999203D01*
X173267309Y-76996053D01*
X173288750Y-76995000D01*
X173726250Y-76995000D01*
X173747691Y-76996053D01*
G37*
%TD*%
%TO.C,R32*%
G36*
X176998691Y-76996053D02*
G01*
X177019926Y-76999203D01*
X177040750Y-77004419D01*
X177060962Y-77011651D01*
X177080368Y-77020830D01*
X177098781Y-77031866D01*
X177116024Y-77044654D01*
X177131930Y-77059070D01*
X177146346Y-77074976D01*
X177159134Y-77092219D01*
X177170170Y-77110632D01*
X177179349Y-77130038D01*
X177186581Y-77150250D01*
X177191797Y-77171074D01*
X177194947Y-77192309D01*
X177196000Y-77213750D01*
X177196000Y-77726250D01*
X177194947Y-77747691D01*
X177191797Y-77768926D01*
X177186581Y-77789750D01*
X177179349Y-77809962D01*
X177170170Y-77829368D01*
X177159134Y-77847781D01*
X177146346Y-77865024D01*
X177131930Y-77880930D01*
X177116024Y-77895346D01*
X177098781Y-77908134D01*
X177080368Y-77919170D01*
X177060962Y-77928349D01*
X177040750Y-77935581D01*
X177019926Y-77940797D01*
X176998691Y-77943947D01*
X176977250Y-77945000D01*
X176539750Y-77945000D01*
X176518309Y-77943947D01*
X176497074Y-77940797D01*
X176476250Y-77935581D01*
X176456038Y-77928349D01*
X176436632Y-77919170D01*
X176418219Y-77908134D01*
X176400976Y-77895346D01*
X176385070Y-77880930D01*
X176370654Y-77865024D01*
X176357866Y-77847781D01*
X176346830Y-77829368D01*
X176337651Y-77809962D01*
X176330419Y-77789750D01*
X176325203Y-77768926D01*
X176322053Y-77747691D01*
X176321000Y-77726250D01*
X176321000Y-77213750D01*
X176322053Y-77192309D01*
X176325203Y-77171074D01*
X176330419Y-77150250D01*
X176337651Y-77130038D01*
X176346830Y-77110632D01*
X176357866Y-77092219D01*
X176370654Y-77074976D01*
X176385070Y-77059070D01*
X176400976Y-77044654D01*
X176418219Y-77031866D01*
X176436632Y-77020830D01*
X176456038Y-77011651D01*
X176476250Y-77004419D01*
X176497074Y-76999203D01*
X176518309Y-76996053D01*
X176539750Y-76995000D01*
X176977250Y-76995000D01*
X176998691Y-76996053D01*
G37*
G36*
X178573691Y-76996053D02*
G01*
X178594926Y-76999203D01*
X178615750Y-77004419D01*
X178635962Y-77011651D01*
X178655368Y-77020830D01*
X178673781Y-77031866D01*
X178691024Y-77044654D01*
X178706930Y-77059070D01*
X178721346Y-77074976D01*
X178734134Y-77092219D01*
X178745170Y-77110632D01*
X178754349Y-77130038D01*
X178761581Y-77150250D01*
X178766797Y-77171074D01*
X178769947Y-77192309D01*
X178771000Y-77213750D01*
X178771000Y-77726250D01*
X178769947Y-77747691D01*
X178766797Y-77768926D01*
X178761581Y-77789750D01*
X178754349Y-77809962D01*
X178745170Y-77829368D01*
X178734134Y-77847781D01*
X178721346Y-77865024D01*
X178706930Y-77880930D01*
X178691024Y-77895346D01*
X178673781Y-77908134D01*
X178655368Y-77919170D01*
X178635962Y-77928349D01*
X178615750Y-77935581D01*
X178594926Y-77940797D01*
X178573691Y-77943947D01*
X178552250Y-77945000D01*
X178114750Y-77945000D01*
X178093309Y-77943947D01*
X178072074Y-77940797D01*
X178051250Y-77935581D01*
X178031038Y-77928349D01*
X178011632Y-77919170D01*
X177993219Y-77908134D01*
X177975976Y-77895346D01*
X177960070Y-77880930D01*
X177945654Y-77865024D01*
X177932866Y-77847781D01*
X177921830Y-77829368D01*
X177912651Y-77809962D01*
X177905419Y-77789750D01*
X177900203Y-77768926D01*
X177897053Y-77747691D01*
X177896000Y-77726250D01*
X177896000Y-77213750D01*
X177897053Y-77192309D01*
X177900203Y-77171074D01*
X177905419Y-77150250D01*
X177912651Y-77130038D01*
X177921830Y-77110632D01*
X177932866Y-77092219D01*
X177945654Y-77074976D01*
X177960070Y-77059070D01*
X177975976Y-77044654D01*
X177993219Y-77031866D01*
X178011632Y-77020830D01*
X178031038Y-77011651D01*
X178051250Y-77004419D01*
X178072074Y-76999203D01*
X178093309Y-76996053D01*
X178114750Y-76995000D01*
X178552250Y-76995000D01*
X178573691Y-76996053D01*
G37*
%TD*%
%TO.C,R33*%
G36*
X174001691Y-117382053D02*
G01*
X174022926Y-117385203D01*
X174043750Y-117390419D01*
X174063962Y-117397651D01*
X174083368Y-117406830D01*
X174101781Y-117417866D01*
X174119024Y-117430654D01*
X174134930Y-117445070D01*
X174149346Y-117460976D01*
X174162134Y-117478219D01*
X174173170Y-117496632D01*
X174182349Y-117516038D01*
X174189581Y-117536250D01*
X174194797Y-117557074D01*
X174197947Y-117578309D01*
X174199000Y-117599750D01*
X174199000Y-118112250D01*
X174197947Y-118133691D01*
X174194797Y-118154926D01*
X174189581Y-118175750D01*
X174182349Y-118195962D01*
X174173170Y-118215368D01*
X174162134Y-118233781D01*
X174149346Y-118251024D01*
X174134930Y-118266930D01*
X174119024Y-118281346D01*
X174101781Y-118294134D01*
X174083368Y-118305170D01*
X174063962Y-118314349D01*
X174043750Y-118321581D01*
X174022926Y-118326797D01*
X174001691Y-118329947D01*
X173980250Y-118331000D01*
X173542750Y-118331000D01*
X173521309Y-118329947D01*
X173500074Y-118326797D01*
X173479250Y-118321581D01*
X173459038Y-118314349D01*
X173439632Y-118305170D01*
X173421219Y-118294134D01*
X173403976Y-118281346D01*
X173388070Y-118266930D01*
X173373654Y-118251024D01*
X173360866Y-118233781D01*
X173349830Y-118215368D01*
X173340651Y-118195962D01*
X173333419Y-118175750D01*
X173328203Y-118154926D01*
X173325053Y-118133691D01*
X173324000Y-118112250D01*
X173324000Y-117599750D01*
X173325053Y-117578309D01*
X173328203Y-117557074D01*
X173333419Y-117536250D01*
X173340651Y-117516038D01*
X173349830Y-117496632D01*
X173360866Y-117478219D01*
X173373654Y-117460976D01*
X173388070Y-117445070D01*
X173403976Y-117430654D01*
X173421219Y-117417866D01*
X173439632Y-117406830D01*
X173459038Y-117397651D01*
X173479250Y-117390419D01*
X173500074Y-117385203D01*
X173521309Y-117382053D01*
X173542750Y-117381000D01*
X173980250Y-117381000D01*
X174001691Y-117382053D01*
G37*
G36*
X172426691Y-117382053D02*
G01*
X172447926Y-117385203D01*
X172468750Y-117390419D01*
X172488962Y-117397651D01*
X172508368Y-117406830D01*
X172526781Y-117417866D01*
X172544024Y-117430654D01*
X172559930Y-117445070D01*
X172574346Y-117460976D01*
X172587134Y-117478219D01*
X172598170Y-117496632D01*
X172607349Y-117516038D01*
X172614581Y-117536250D01*
X172619797Y-117557074D01*
X172622947Y-117578309D01*
X172624000Y-117599750D01*
X172624000Y-118112250D01*
X172622947Y-118133691D01*
X172619797Y-118154926D01*
X172614581Y-118175750D01*
X172607349Y-118195962D01*
X172598170Y-118215368D01*
X172587134Y-118233781D01*
X172574346Y-118251024D01*
X172559930Y-118266930D01*
X172544024Y-118281346D01*
X172526781Y-118294134D01*
X172508368Y-118305170D01*
X172488962Y-118314349D01*
X172468750Y-118321581D01*
X172447926Y-118326797D01*
X172426691Y-118329947D01*
X172405250Y-118331000D01*
X171967750Y-118331000D01*
X171946309Y-118329947D01*
X171925074Y-118326797D01*
X171904250Y-118321581D01*
X171884038Y-118314349D01*
X171864632Y-118305170D01*
X171846219Y-118294134D01*
X171828976Y-118281346D01*
X171813070Y-118266930D01*
X171798654Y-118251024D01*
X171785866Y-118233781D01*
X171774830Y-118215368D01*
X171765651Y-118195962D01*
X171758419Y-118175750D01*
X171753203Y-118154926D01*
X171750053Y-118133691D01*
X171749000Y-118112250D01*
X171749000Y-117599750D01*
X171750053Y-117578309D01*
X171753203Y-117557074D01*
X171758419Y-117536250D01*
X171765651Y-117516038D01*
X171774830Y-117496632D01*
X171785866Y-117478219D01*
X171798654Y-117460976D01*
X171813070Y-117445070D01*
X171828976Y-117430654D01*
X171846219Y-117417866D01*
X171864632Y-117406830D01*
X171884038Y-117397651D01*
X171904250Y-117390419D01*
X171925074Y-117385203D01*
X171946309Y-117382053D01*
X171967750Y-117381000D01*
X172405250Y-117381000D01*
X172426691Y-117382053D01*
G37*
%TD*%
%TO.C,R34*%
G36*
X172452691Y-120026053D02*
G01*
X172473926Y-120029203D01*
X172494750Y-120034419D01*
X172514962Y-120041651D01*
X172534368Y-120050830D01*
X172552781Y-120061866D01*
X172570024Y-120074654D01*
X172585930Y-120089070D01*
X172600346Y-120104976D01*
X172613134Y-120122219D01*
X172624170Y-120140632D01*
X172633349Y-120160038D01*
X172640581Y-120180250D01*
X172645797Y-120201074D01*
X172648947Y-120222309D01*
X172650000Y-120243750D01*
X172650000Y-120756250D01*
X172648947Y-120777691D01*
X172645797Y-120798926D01*
X172640581Y-120819750D01*
X172633349Y-120839962D01*
X172624170Y-120859368D01*
X172613134Y-120877781D01*
X172600346Y-120895024D01*
X172585930Y-120910930D01*
X172570024Y-120925346D01*
X172552781Y-120938134D01*
X172534368Y-120949170D01*
X172514962Y-120958349D01*
X172494750Y-120965581D01*
X172473926Y-120970797D01*
X172452691Y-120973947D01*
X172431250Y-120975000D01*
X171993750Y-120975000D01*
X171972309Y-120973947D01*
X171951074Y-120970797D01*
X171930250Y-120965581D01*
X171910038Y-120958349D01*
X171890632Y-120949170D01*
X171872219Y-120938134D01*
X171854976Y-120925346D01*
X171839070Y-120910930D01*
X171824654Y-120895024D01*
X171811866Y-120877781D01*
X171800830Y-120859368D01*
X171791651Y-120839962D01*
X171784419Y-120819750D01*
X171779203Y-120798926D01*
X171776053Y-120777691D01*
X171775000Y-120756250D01*
X171775000Y-120243750D01*
X171776053Y-120222309D01*
X171779203Y-120201074D01*
X171784419Y-120180250D01*
X171791651Y-120160038D01*
X171800830Y-120140632D01*
X171811866Y-120122219D01*
X171824654Y-120104976D01*
X171839070Y-120089070D01*
X171854976Y-120074654D01*
X171872219Y-120061866D01*
X171890632Y-120050830D01*
X171910038Y-120041651D01*
X171930250Y-120034419D01*
X171951074Y-120029203D01*
X171972309Y-120026053D01*
X171993750Y-120025000D01*
X172431250Y-120025000D01*
X172452691Y-120026053D01*
G37*
G36*
X174027691Y-120026053D02*
G01*
X174048926Y-120029203D01*
X174069750Y-120034419D01*
X174089962Y-120041651D01*
X174109368Y-120050830D01*
X174127781Y-120061866D01*
X174145024Y-120074654D01*
X174160930Y-120089070D01*
X174175346Y-120104976D01*
X174188134Y-120122219D01*
X174199170Y-120140632D01*
X174208349Y-120160038D01*
X174215581Y-120180250D01*
X174220797Y-120201074D01*
X174223947Y-120222309D01*
X174225000Y-120243750D01*
X174225000Y-120756250D01*
X174223947Y-120777691D01*
X174220797Y-120798926D01*
X174215581Y-120819750D01*
X174208349Y-120839962D01*
X174199170Y-120859368D01*
X174188134Y-120877781D01*
X174175346Y-120895024D01*
X174160930Y-120910930D01*
X174145024Y-120925346D01*
X174127781Y-120938134D01*
X174109368Y-120949170D01*
X174089962Y-120958349D01*
X174069750Y-120965581D01*
X174048926Y-120970797D01*
X174027691Y-120973947D01*
X174006250Y-120975000D01*
X173568750Y-120975000D01*
X173547309Y-120973947D01*
X173526074Y-120970797D01*
X173505250Y-120965581D01*
X173485038Y-120958349D01*
X173465632Y-120949170D01*
X173447219Y-120938134D01*
X173429976Y-120925346D01*
X173414070Y-120910930D01*
X173399654Y-120895024D01*
X173386866Y-120877781D01*
X173375830Y-120859368D01*
X173366651Y-120839962D01*
X173359419Y-120819750D01*
X173354203Y-120798926D01*
X173351053Y-120777691D01*
X173350000Y-120756250D01*
X173350000Y-120243750D01*
X173351053Y-120222309D01*
X173354203Y-120201074D01*
X173359419Y-120180250D01*
X173366651Y-120160038D01*
X173375830Y-120140632D01*
X173386866Y-120122219D01*
X173399654Y-120104976D01*
X173414070Y-120089070D01*
X173429976Y-120074654D01*
X173447219Y-120061866D01*
X173465632Y-120050830D01*
X173485038Y-120041651D01*
X173505250Y-120034419D01*
X173526074Y-120029203D01*
X173547309Y-120026053D01*
X173568750Y-120025000D01*
X174006250Y-120025000D01*
X174027691Y-120026053D01*
G37*
%TD*%
D18*
%TO.C,U1*%
X125431059Y-114144000D03*
X124781059Y-114144000D03*
X124131059Y-114144000D03*
X123481059Y-114144000D03*
X122831059Y-114144000D03*
X122181059Y-114144000D03*
X121531059Y-114144000D03*
X120881059Y-114144000D03*
X120881059Y-120044000D03*
X121531059Y-120044000D03*
X122181059Y-120044000D03*
X122831059Y-120044000D03*
X123481059Y-120044000D03*
X124131059Y-120044000D03*
X124781059Y-120044000D03*
X125431059Y-120044000D03*
%TD*%
M02*
