M48
; DRILL file {KiCad (5.1.5)-3} date 3/9/2020 3:55:17 PM
; FORMAT={-:-/ absolute / inch / decimal}
; #@! TF.CreationDate,2020-03-09T15:55:17-05:00
; #@! TF.GenerationSoftware,Kicad,Pcbnew,(5.1.5)-3
; #@! TF.FileFunction,Plated,1,2,PTH
FMAT,2
INCH
T1C0.0157
T2C0.0236
T3C0.0394
%
G90
G05
T1
X4.225Y-3.175
X4.275Y-2.575
X4.475Y-4.935
X4.55Y-4.7
X4.55Y-5.01
X4.64Y-4.855
X4.6675Y-4.6225
X4.765Y-4.6175
X4.785Y-4.405
X4.8Y-4.6375
X4.8425Y-4.6375
X4.8824Y-4.565
X4.92Y-4.67
X4.975Y-3.15
X4.9775Y-3.0425
X5.04Y-4.56
X5.2225Y-4.5275
X5.225Y-4.575
X5.2427Y-4.6677
X5.25Y-4.09
X5.2825Y-3.0425
X5.285Y-3.15
X5.3Y-4.72
X5.425Y-3.825
X5.45Y-3.875
X5.45Y-3.975
X5.525Y-3.6
X5.5875Y-3.0425
X5.59Y-3.15
X5.625Y-3.85
X5.8575Y-2.9975
X5.8925Y-3.0425
X5.895Y-3.15
X5.9275Y-2.9825
X5.9637Y-4.3863
X6.145Y-4.005
X6.1657Y-2.9957
X6.1669Y-2.8944
X6.175Y-3.735
X6.1975Y-3.0425
X6.2Y-3.145
X6.2325Y-2.8925
X6.25Y-4.7
X6.2525Y-2.9925
X6.2525Y-3.8375
X6.2525Y-3.935
X6.425Y-3.6
X6.445Y-3.1875
X6.445Y-3.875
X6.46Y-4.155
X6.4775Y-3.0075
X6.485Y-3.1175
X6.4975Y-2.945
X6.5Y-3.975
X6.5Y-4.12
X6.5097Y-2.8816
X6.51Y-4.845
X6.5127Y-2.6727
X6.53Y-4.39
X6.5699Y-2.9795
X6.5725Y-2.875
X6.575Y-2.605
X6.5751Y-2.725
X6.58Y-3.0175
X6.585Y-3.995
X6.6Y-4.3965
X6.61Y-2.745
X6.67Y-2.725
X6.695Y-3.0125
X6.7Y-2.89
X6.725Y-4.005
X6.73Y-3.12
X6.745Y-2.615
X6.7693Y-2.58
X6.775Y-2.7535
X6.78Y-2.85
X6.7815Y-2.8106
X6.7878Y-3.8881
X6.8Y-2.2925
X6.8225Y-3.125
X6.845Y-2.58
X6.87Y-2.74
X6.8955Y-3.05
X6.9Y-3.1227
X6.9472Y-2.7535
X6.95Y-2.8
X6.9565Y-2.865
X6.96Y-3.115
X6.985Y-2.8285
X6.9882Y-2.6575
X7.025Y-2.75
X7.035Y-3.16
X7.0602Y-2.8352
X7.15Y-2.825
X7.17Y-3.095
X7.2638Y-2.7165
X7.275Y-3.095
X7.55Y-2.71
X7.55Y-2.995
X7.55Y-3.225
X7.55Y-3.5
X7.55Y-3.725
X7.55Y-3.995
X7.55Y-4.23
X7.55Y-4.495
X7.55Y-4.73
X7.55Y-4.99
T3
X4.8076Y-4.8419
X4.9076Y-4.8419
X5.0076Y-4.8419
X5.1076Y-4.8419
X5.2076Y-4.8419
X5.3076Y-4.8419
X5.4076Y-4.8419
X5.5076Y-4.8419
X5.6076Y-4.8419
X5.7076Y-4.8419
X5.8076Y-4.8419
X5.9076Y-4.8419
X6.0076Y-4.8419
X6.1076Y-4.8419
X6.2076Y-4.8419
X6.94Y-4.84
X6.94Y-4.94
X6.94Y-5.04
X7.3364Y-2.8622
X7.4364Y-2.8622
X4.7987Y-3.3608
X4.7987Y-3.4608
X4.8987Y-3.3608
X4.8987Y-3.4608
X4.9987Y-3.3608
X4.9987Y-3.4608
X5.0987Y-3.3608
X5.0987Y-3.4608
X5.1987Y-3.3608
X5.1987Y-3.4608
X5.2987Y-3.3608
X5.2987Y-3.4608
X5.3987Y-3.3608
X5.3987Y-3.4608
X5.4987Y-3.3608
X5.4987Y-3.4608
X7.3364Y-4.8622
X7.4364Y-4.8622
X6.62Y-2.3425
X6.72Y-2.3425
X4.364Y-2.8622
X4.464Y-2.8622
X5.6Y-4.575
X5.7Y-4.575
X5.8Y-4.575
X5.9Y-4.575
X6.0Y-4.575
X5.275Y-3.725
X5.275Y-3.825
X4.364Y-4.8622
X4.464Y-4.8622
X6.3987Y-3.3608
X6.3987Y-3.4608
X6.4987Y-3.3608
X6.4987Y-3.4608
X4.485Y-2.4425
X4.585Y-2.4425
X6.44Y-3.74
X6.54Y-3.74
X6.64Y-3.74
X6.74Y-3.74
X6.84Y-3.74
X6.01Y-2.3425
X6.01Y-2.4425
X6.01Y-2.5425
X6.01Y-2.6425
X6.01Y-2.7425
X6.01Y-2.8425
X6.01Y-2.9425
X6.01Y-3.0425
X6.11Y-2.3425
X6.11Y-2.4425
X6.11Y-2.5425
X6.11Y-2.6425
X6.11Y-2.7425
X6.11Y-2.8425
X6.11Y-2.9425
X6.11Y-3.0425
X6.94Y-3.74
X6.94Y-3.84
X6.94Y-3.94
X6.94Y-4.04
X4.485Y-2.5425
X4.585Y-2.5425
X6.6303Y-3.5105
X6.6303Y-3.6105
X6.7303Y-3.5105
X6.7303Y-3.6105
X6.8303Y-3.5105
X6.8303Y-3.6105
X6.9303Y-3.5105
X6.9303Y-3.6105
X6.34Y-3.74
X6.34Y-3.84
X6.34Y-3.94
X6.34Y-4.04
X6.62Y-2.4425
X6.72Y-2.4425
X5.095Y-2.3425
X5.095Y-2.4425
X5.095Y-2.5425
X5.095Y-2.6425
X5.095Y-2.7425
X5.095Y-2.8425
X5.095Y-2.9425
X5.095Y-3.0425
X5.195Y-2.3425
X5.195Y-2.4425
X5.195Y-2.5425
X5.195Y-2.6425
X5.195Y-2.7425
X5.195Y-2.8425
X5.195Y-2.9425
X5.195Y-3.0425
X4.79Y-2.3425
X4.79Y-2.4425
X4.79Y-2.5425
X4.79Y-2.6425
X4.79Y-2.7425
X4.79Y-2.8425
X4.79Y-2.9425
X4.79Y-3.0425
X4.89Y-2.3425
X4.89Y-2.4425
X4.89Y-2.5425
X4.89Y-2.6425
X4.89Y-2.7425
X4.89Y-2.8425
X4.89Y-2.9425
X4.89Y-3.0425
X6.315Y-2.3425
X6.315Y-2.4425
X6.315Y-2.5425
X6.315Y-2.6425
X6.315Y-2.7425
X6.315Y-2.8425
X6.315Y-2.9425
X6.315Y-3.0425
X6.415Y-2.3425
X6.415Y-2.4425
X6.415Y-2.5425
X6.415Y-2.6425
X6.415Y-2.7425
X6.415Y-2.8425
X6.415Y-2.9425
X6.415Y-3.0425
X6.6303Y-3.3105
X6.6303Y-3.4105
X6.7303Y-3.3105
X6.7303Y-3.4105
X6.8303Y-3.3105
X6.8303Y-3.4105
X6.9303Y-3.3105
X6.9303Y-3.4105
X5.705Y-2.3425
X5.705Y-2.4425
X5.705Y-2.5425
X5.705Y-2.6425
X5.705Y-2.7425
X5.705Y-2.8425
X5.705Y-2.9425
X5.705Y-3.0425
X5.805Y-2.3425
X5.805Y-2.4425
X5.805Y-2.5425
X5.805Y-2.6425
X5.805Y-2.7425
X5.805Y-2.8425
X5.805Y-2.9425
X5.805Y-3.0425
X6.94Y-4.14
X6.94Y-4.24
X6.94Y-4.34
X6.94Y-4.44
X6.94Y-4.54
X6.94Y-4.64
X6.94Y-4.74
X6.62Y-2.5425
X6.72Y-2.5425
X4.8076Y-5.0419
X4.9076Y-5.0419
X5.0076Y-5.0419
X5.1076Y-5.0419
X5.2076Y-5.0419
X5.3076Y-5.0419
X5.4076Y-5.0419
X5.5076Y-5.0419
X5.6076Y-5.0419
X5.7076Y-5.0419
X5.8076Y-5.0419
X5.9076Y-5.0419
X6.0076Y-5.0419
X6.1076Y-5.0419
X6.2076Y-5.0419
X5.9Y-4.475
X6.0Y-4.475
X6.34Y-4.14
X6.34Y-4.24
X6.34Y-4.34
X6.34Y-4.44
X6.34Y-4.54
X6.34Y-4.64
X7.3364Y-3.3622
X7.4364Y-3.3622
X5.5987Y-3.3608
X5.5987Y-3.4608
X5.6987Y-3.3608
X5.6987Y-3.4608
X5.7987Y-3.3608
X5.7987Y-3.4608
X5.8987Y-3.3608
X5.8987Y-3.4608
X5.9987Y-3.3608
X5.9987Y-3.4608
X6.0987Y-3.3608
X6.0987Y-3.4608
X6.1987Y-3.3608
X6.1987Y-3.4608
X6.2987Y-3.3608
X6.2987Y-3.4608
X4.485Y-2.3425
X4.585Y-2.3425
X4.364Y-3.8622
X4.464Y-3.8622
X4.8076Y-4.9419
X4.9076Y-4.9419
X5.0076Y-4.9419
X5.1076Y-4.9419
X5.2076Y-4.9419
X5.3076Y-4.9419
X5.4076Y-4.9419
X5.5076Y-4.9419
X5.6076Y-4.9419
X5.7076Y-4.9419
X5.8076Y-4.9419
X5.9076Y-4.9419
X6.0076Y-4.9419
X6.1076Y-4.9419
X6.2076Y-4.9419
X6.34Y-4.74
X6.34Y-4.84
X6.34Y-4.94
X6.34Y-5.04
X4.364Y-4.3622
X4.464Y-4.3622
X5.4Y-2.3425
X5.4Y-2.4425
X5.4Y-2.5425
X5.4Y-2.6425
X5.4Y-2.7425
X5.4Y-2.8425
X5.4Y-2.9425
X5.4Y-3.0425
X5.5Y-2.3425
X5.5Y-2.4425
X5.5Y-2.5425
X5.5Y-2.6425
X5.5Y-2.7425
X5.5Y-2.8425
X5.5Y-2.9425
X5.5Y-3.0425
X7.3364Y-3.8622
X7.4364Y-3.8622
X7.3364Y-4.3622
X7.4364Y-4.3622
X4.364Y-3.3622
X4.464Y-3.3622
X6.6303Y-3.2105
X6.7303Y-3.2105
X6.8303Y-3.2105
X6.9303Y-3.2105
T2
G00X4.1681Y-4.7519
M15
G01X4.1681Y-4.7756
M16
G05
G00X4.1681Y-4.9488
M15
G01X4.1681Y-4.9724
M16
G05
G00X4.6602Y-4.7519
M15
G01X4.6602Y-4.7756
M16
G05
G00X4.6602Y-4.9488
M15
G01X4.6602Y-4.9724
M16
G05
G00X7.1406Y-2.7519
M15
G01X7.1406Y-2.7756
M16
G05
G00X7.1406Y-2.9488
M15
G01X7.1406Y-2.9724
M16
G05
G00X7.6327Y-2.7519
M15
G01X7.6327Y-2.7756
M16
G05
G00X7.6327Y-2.9488
M15
G01X7.6327Y-2.9724
M16
G05
G00X7.1406Y-3.7519
M15
G01X7.1406Y-3.7756
M16
G05
G00X7.1406Y-3.9488
M15
G01X7.1406Y-3.9724
M16
G05
G00X7.6327Y-3.7519
M15
G01X7.6327Y-3.7756
M16
G05
G00X7.6327Y-3.9488
M15
G01X7.6327Y-3.9724
M16
G05
G00X4.1681Y-4.2519
M15
G01X4.1681Y-4.2756
M16
G05
G00X4.1681Y-4.4488
M15
G01X4.1681Y-4.4724
M16
G05
G00X4.6602Y-4.2519
M15
G01X4.6602Y-4.2756
M16
G05
G00X4.6602Y-4.4488
M15
G01X4.6602Y-4.4724
M16
G05
G00X7.1406Y-3.2519
M15
G01X7.1406Y-3.2756
M16
G05
G00X7.1406Y-3.4488
M15
G01X7.1406Y-3.4724
M16
G05
G00X7.6327Y-3.2519
M15
G01X7.6327Y-3.2756
M16
G05
G00X7.6327Y-3.4488
M15
G01X7.6327Y-3.4724
M16
G05
G00X7.1406Y-4.2519
M15
G01X7.1406Y-4.2756
M16
G05
G00X7.1406Y-4.4488
M15
G01X7.1406Y-4.4724
M16
G05
G00X7.6327Y-4.2519
M15
G01X7.6327Y-4.2756
M16
G05
G00X7.6327Y-4.4488
M15
G01X7.6327Y-4.4724
M16
G05
G00X7.1406Y-4.7519
M15
G01X7.1406Y-4.7756
M16
G05
G00X7.1406Y-4.9488
M15
G01X7.1406Y-4.9724
M16
G05
G00X7.6327Y-4.7519
M15
G01X7.6327Y-4.7756
M16
G05
G00X7.6327Y-4.9488
M15
G01X7.6327Y-4.9724
M16
G05
G00X4.1681Y-3.2519
M15
G01X4.1681Y-3.2756
M16
G05
G00X4.1681Y-3.4488
M15
G01X4.1681Y-3.4724
M16
G05
G00X4.6602Y-3.2519
M15
G01X4.6602Y-3.2756
M16
G05
G00X4.6602Y-3.4488
M15
G01X4.6602Y-3.4724
M16
G05
G00X4.1681Y-2.7519
M15
G01X4.1681Y-2.7756
M16
G05
G00X4.1681Y-2.9488
M15
G01X4.1681Y-2.9724
M16
G05
G00X4.6602Y-2.7519
M15
G01X4.6602Y-2.7756
M16
G05
G00X4.6602Y-2.9488
M15
G01X4.6602Y-2.9724
M16
G05
G00X4.1681Y-3.7519
M15
G01X4.1681Y-3.7756
M16
G05
G00X4.1681Y-3.9488
M15
G01X4.1681Y-3.9724
M16
G05
G00X4.6602Y-3.7519
M15
G01X4.6602Y-3.7756
M16
G05
G00X4.6602Y-3.9488
M15
G01X4.6602Y-3.9724
M16
G05
T0
M30
