%TF.GenerationSoftware,KiCad,Pcbnew,(5.1.5)-3*%
%TF.CreationDate,2020-02-14T17:13:17-06:00*%
%TF.ProjectId,Shield v.2,53686965-6c64-4207-962e-322e6b696361,rev?*%
%TF.SameCoordinates,Original*%
%TF.FileFunction,Legend,Bot*%
%TF.FilePolarity,Positive*%
%FSLAX46Y46*%
G04 Gerber Fmt 4.6, Leading zero omitted, Abs format (unit mm)*
G04 Created by KiCad (PCBNEW (5.1.5)-3) date 2020-02-14 17:13:17*
%MOMM*%
%LPD*%
G04 APERTURE LIST*
%ADD10C,0.200000*%
%ADD11C,0.160000*%
%ADD12C,0.300000*%
%ADD13C,0.150000*%
%ADD14C,0.120000*%
G04 APERTURE END LIST*
D10*
X194741904Y-64204761D02*
X194599047Y-64252380D01*
X194360952Y-64252380D01*
X194265714Y-64204761D01*
X194218095Y-64157142D01*
X194170475Y-64061904D01*
X194170475Y-63966666D01*
X194218095Y-63871428D01*
X194265714Y-63823809D01*
X194360952Y-63776190D01*
X194551428Y-63728571D01*
X194646666Y-63680952D01*
X194694285Y-63633333D01*
X194741904Y-63538095D01*
X194741904Y-63442857D01*
X194694285Y-63347619D01*
X194646666Y-63300000D01*
X194551428Y-63252380D01*
X194313333Y-63252380D01*
X194170475Y-63300000D01*
X193741904Y-63585714D02*
X193741904Y-64585714D01*
X193741904Y-63633333D02*
X193646666Y-63585714D01*
X193456190Y-63585714D01*
X193360952Y-63633333D01*
X193313333Y-63680952D01*
X193265714Y-63776190D01*
X193265714Y-64061904D01*
X193313333Y-64157142D01*
X193360952Y-64204761D01*
X193456190Y-64252380D01*
X193646666Y-64252380D01*
X193741904Y-64204761D01*
X192408571Y-64252380D02*
X192408571Y-63728571D01*
X192456190Y-63633333D01*
X192551428Y-63585714D01*
X192741904Y-63585714D01*
X192837142Y-63633333D01*
X192408571Y-64204761D02*
X192503809Y-64252380D01*
X192741904Y-64252380D01*
X192837142Y-64204761D01*
X192884761Y-64109523D01*
X192884761Y-64014285D01*
X192837142Y-63919047D01*
X192741904Y-63871428D01*
X192503809Y-63871428D01*
X192408571Y-63823809D01*
X191503809Y-64204761D02*
X191599047Y-64252380D01*
X191789523Y-64252380D01*
X191884761Y-64204761D01*
X191932380Y-64157142D01*
X191979999Y-64061904D01*
X191979999Y-63776190D01*
X191932380Y-63680952D01*
X191884761Y-63633333D01*
X191789523Y-63585714D01*
X191599047Y-63585714D01*
X191503809Y-63633333D01*
X190694285Y-64204761D02*
X190789523Y-64252380D01*
X190979999Y-64252380D01*
X191075237Y-64204761D01*
X191122856Y-64109523D01*
X191122856Y-63728571D01*
X191075237Y-63633333D01*
X190979999Y-63585714D01*
X190789523Y-63585714D01*
X190694285Y-63633333D01*
X190646666Y-63728571D01*
X190646666Y-63823809D01*
X191122856Y-63919047D01*
X190265714Y-64204761D02*
X190122856Y-64252380D01*
X189884761Y-64252380D01*
X189789523Y-64204761D01*
X189741904Y-64157142D01*
X189694285Y-64061904D01*
X189694285Y-63966666D01*
X189741904Y-63871428D01*
X189789523Y-63823809D01*
X189884761Y-63776190D01*
X190075237Y-63728571D01*
X190170475Y-63680952D01*
X190218095Y-63633333D01*
X190265714Y-63538095D01*
X190265714Y-63442857D01*
X190218095Y-63347619D01*
X190170475Y-63300000D01*
X190075237Y-63252380D01*
X189837142Y-63252380D01*
X189694285Y-63300000D01*
X189265714Y-64252380D02*
X189265714Y-63252380D01*
X188837142Y-64252380D02*
X188837142Y-63728571D01*
X188884761Y-63633333D01*
X188979999Y-63585714D01*
X189122856Y-63585714D01*
X189218095Y-63633333D01*
X189265714Y-63680952D01*
X188360952Y-64252380D02*
X188360952Y-63585714D01*
X188360952Y-63252380D02*
X188408571Y-63300000D01*
X188360952Y-63347619D01*
X188313333Y-63300000D01*
X188360952Y-63252380D01*
X188360952Y-63347619D01*
X187884761Y-63585714D02*
X187884761Y-64585714D01*
X187884761Y-63633333D02*
X187789523Y-63585714D01*
X187599047Y-63585714D01*
X187503809Y-63633333D01*
X187456190Y-63680952D01*
X187408571Y-63776190D01*
X187408571Y-64061904D01*
X187456190Y-64157142D01*
X187503809Y-64204761D01*
X187599047Y-64252380D01*
X187789523Y-64252380D01*
X187884761Y-64204761D01*
X195741904Y-65952380D02*
X195741904Y-64952380D01*
X195360952Y-64952380D01*
X195265714Y-65000000D01*
X195218095Y-65047619D01*
X195170475Y-65142857D01*
X195170475Y-65285714D01*
X195218095Y-65380952D01*
X195265714Y-65428571D01*
X195360952Y-65476190D01*
X195741904Y-65476190D01*
X194599047Y-65952380D02*
X194694285Y-65904761D01*
X194741904Y-65857142D01*
X194789523Y-65761904D01*
X194789523Y-65476190D01*
X194741904Y-65380952D01*
X194694285Y-65333333D01*
X194599047Y-65285714D01*
X194456190Y-65285714D01*
X194360952Y-65333333D01*
X194313333Y-65380952D01*
X194265714Y-65476190D01*
X194265714Y-65761904D01*
X194313333Y-65857142D01*
X194360952Y-65904761D01*
X194456190Y-65952380D01*
X194599047Y-65952380D01*
X193979999Y-65285714D02*
X193599047Y-65285714D01*
X193837142Y-64952380D02*
X193837142Y-65809523D01*
X193789523Y-65904761D01*
X193694285Y-65952380D01*
X193599047Y-65952380D01*
X192837142Y-65952380D02*
X192837142Y-65428571D01*
X192884761Y-65333333D01*
X192979999Y-65285714D01*
X193170475Y-65285714D01*
X193265714Y-65333333D01*
X192837142Y-65904761D02*
X192932380Y-65952380D01*
X193170475Y-65952380D01*
X193265714Y-65904761D01*
X193313333Y-65809523D01*
X193313333Y-65714285D01*
X193265714Y-65619047D01*
X193170475Y-65571428D01*
X192932380Y-65571428D01*
X192837142Y-65523809D01*
X192503809Y-65285714D02*
X192122856Y-65285714D01*
X192360952Y-64952380D02*
X192360952Y-65809523D01*
X192313333Y-65904761D01*
X192218095Y-65952380D01*
X192122856Y-65952380D01*
X191646666Y-65952380D02*
X191741904Y-65904761D01*
X191789523Y-65857142D01*
X191837142Y-65761904D01*
X191837142Y-65476190D01*
X191789523Y-65380952D01*
X191741904Y-65333333D01*
X191646666Y-65285714D01*
X191503809Y-65285714D01*
X191408571Y-65333333D01*
X191360952Y-65380952D01*
X191313333Y-65476190D01*
X191313333Y-65761904D01*
X191360952Y-65857142D01*
X191408571Y-65904761D01*
X191503809Y-65952380D01*
X191646666Y-65952380D01*
X190551428Y-65428571D02*
X190408571Y-65476190D01*
X190360952Y-65523809D01*
X190313333Y-65619047D01*
X190313333Y-65761904D01*
X190360952Y-65857142D01*
X190408571Y-65904761D01*
X190503809Y-65952380D01*
X190884761Y-65952380D01*
X190884761Y-64952380D01*
X190551428Y-64952380D01*
X190456190Y-65000000D01*
X190408571Y-65047619D01*
X190360952Y-65142857D01*
X190360952Y-65238095D01*
X190408571Y-65333333D01*
X190456190Y-65380952D01*
X190551428Y-65428571D01*
X190884761Y-65428571D01*
X189884761Y-65952380D02*
X189884761Y-65285714D01*
X189884761Y-65476190D02*
X189837142Y-65380952D01*
X189789523Y-65333333D01*
X189694285Y-65285714D01*
X189599047Y-65285714D01*
X188837142Y-65952380D02*
X188837142Y-65428571D01*
X188884761Y-65333333D01*
X188979999Y-65285714D01*
X189170475Y-65285714D01*
X189265714Y-65333333D01*
X188837142Y-65904761D02*
X188932380Y-65952380D01*
X189170475Y-65952380D01*
X189265714Y-65904761D01*
X189313333Y-65809523D01*
X189313333Y-65714285D01*
X189265714Y-65619047D01*
X189170475Y-65571428D01*
X188932380Y-65571428D01*
X188837142Y-65523809D01*
X188360952Y-65952380D02*
X188360952Y-65285714D01*
X188360952Y-64952380D02*
X188408571Y-65000000D01*
X188360952Y-65047619D01*
X188313333Y-65000000D01*
X188360952Y-64952380D01*
X188360952Y-65047619D01*
X187884761Y-65285714D02*
X187884761Y-65952380D01*
X187884761Y-65380952D02*
X187837142Y-65333333D01*
X187741904Y-65285714D01*
X187599047Y-65285714D01*
X187503809Y-65333333D01*
X187456190Y-65428571D01*
X187456190Y-65952380D01*
X188789523Y-66985714D02*
X188551428Y-67652380D01*
X188313333Y-66985714D01*
X187979999Y-66747619D02*
X187932380Y-66700000D01*
X187837142Y-66652380D01*
X187599047Y-66652380D01*
X187503809Y-66700000D01*
X187456190Y-66747619D01*
X187408571Y-66842857D01*
X187408571Y-66938095D01*
X187456190Y-67080952D01*
X188027618Y-67652380D01*
X187408571Y-67652380D01*
D11*
X174809000Y-78682809D02*
X174694714Y-78720904D01*
X174504238Y-78720904D01*
X174428047Y-78682809D01*
X174389952Y-78644714D01*
X174351857Y-78568523D01*
X174351857Y-78492333D01*
X174389952Y-78416142D01*
X174428047Y-78378047D01*
X174504238Y-78339952D01*
X174656619Y-78301857D01*
X174732809Y-78263761D01*
X174770904Y-78225666D01*
X174809000Y-78149476D01*
X174809000Y-78073285D01*
X174770904Y-77997095D01*
X174732809Y-77959000D01*
X174656619Y-77920904D01*
X174466142Y-77920904D01*
X174351857Y-77959000D01*
X174009000Y-78644714D02*
X173970904Y-78682809D01*
X174009000Y-78720904D01*
X174047095Y-78682809D01*
X174009000Y-78644714D01*
X174009000Y-78720904D01*
X173361380Y-78301857D02*
X173247095Y-78339952D01*
X173209000Y-78378047D01*
X173170904Y-78454238D01*
X173170904Y-78568523D01*
X173209000Y-78644714D01*
X173247095Y-78682809D01*
X173323285Y-78720904D01*
X173628047Y-78720904D01*
X173628047Y-77920904D01*
X173361380Y-77920904D01*
X173285190Y-77959000D01*
X173247095Y-77997095D01*
X173209000Y-78073285D01*
X173209000Y-78149476D01*
X173247095Y-78225666D01*
X173285190Y-78263761D01*
X173361380Y-78301857D01*
X173628047Y-78301857D01*
X172866142Y-77997095D02*
X172828047Y-77959000D01*
X172751857Y-77920904D01*
X172561380Y-77920904D01*
X172485190Y-77959000D01*
X172447095Y-77997095D01*
X172409000Y-78073285D01*
X172409000Y-78149476D01*
X172447095Y-78263761D01*
X172904238Y-78720904D01*
X172409000Y-78720904D01*
X177603000Y-78682809D02*
X177488714Y-78720904D01*
X177298238Y-78720904D01*
X177222047Y-78682809D01*
X177183952Y-78644714D01*
X177145857Y-78568523D01*
X177145857Y-78492333D01*
X177183952Y-78416142D01*
X177222047Y-78378047D01*
X177298238Y-78339952D01*
X177450619Y-78301857D01*
X177526809Y-78263761D01*
X177564904Y-78225666D01*
X177603000Y-78149476D01*
X177603000Y-78073285D01*
X177564904Y-77997095D01*
X177526809Y-77959000D01*
X177450619Y-77920904D01*
X177260142Y-77920904D01*
X177145857Y-77959000D01*
X176803000Y-78644714D02*
X176764904Y-78682809D01*
X176803000Y-78720904D01*
X176841095Y-78682809D01*
X176803000Y-78644714D01*
X176803000Y-78720904D01*
X176155380Y-78301857D02*
X176041095Y-78339952D01*
X176003000Y-78378047D01*
X175964904Y-78454238D01*
X175964904Y-78568523D01*
X176003000Y-78644714D01*
X176041095Y-78682809D01*
X176117285Y-78720904D01*
X176422047Y-78720904D01*
X176422047Y-77920904D01*
X176155380Y-77920904D01*
X176079190Y-77959000D01*
X176041095Y-77997095D01*
X176003000Y-78073285D01*
X176003000Y-78149476D01*
X176041095Y-78225666D01*
X176079190Y-78263761D01*
X176155380Y-78301857D01*
X176422047Y-78301857D01*
X175203000Y-78720904D02*
X175660142Y-78720904D01*
X175431571Y-78720904D02*
X175431571Y-77920904D01*
X175507761Y-78035190D01*
X175583952Y-78111380D01*
X175660142Y-78149476D01*
D10*
X177292000Y-78994000D02*
X172720000Y-78994000D01*
D11*
X163112476Y-81388000D02*
X163188666Y-81349904D01*
X163302952Y-81349904D01*
X163417238Y-81388000D01*
X163493428Y-81464190D01*
X163531523Y-81540380D01*
X163569619Y-81692761D01*
X163569619Y-81807047D01*
X163531523Y-81959428D01*
X163493428Y-82035619D01*
X163417238Y-82111809D01*
X163302952Y-82149904D01*
X163226761Y-82149904D01*
X163112476Y-82111809D01*
X163074380Y-82073714D01*
X163074380Y-81807047D01*
X163226761Y-81807047D01*
D10*
X163830000Y-82804000D02*
X163322000Y-82296000D01*
X162814000Y-82804000D02*
X163322000Y-82296000D01*
X163322000Y-83820000D02*
X163322000Y-82296000D01*
D11*
X128282666Y-81349904D02*
X128016000Y-82149904D01*
X127749333Y-81349904D01*
D10*
X127508000Y-83058000D02*
X128016000Y-82550000D01*
X128016000Y-84074000D02*
X128016000Y-82550000D01*
X128524000Y-83058000D02*
X128016000Y-82550000D01*
D11*
X148602666Y-80841904D02*
X148336000Y-81641904D01*
X148069333Y-80841904D01*
D10*
X148844000Y-82677000D02*
X148336000Y-82169000D01*
X147828000Y-82677000D02*
X148336000Y-82169000D01*
X148336000Y-83693000D02*
X148336000Y-82169000D01*
D11*
X137433095Y-100977380D02*
X138233095Y-100977380D01*
X137928333Y-100977380D02*
X137966428Y-100901190D01*
X137966428Y-100748809D01*
X137928333Y-100672619D01*
X137890238Y-100634523D01*
X137814047Y-100596428D01*
X137585476Y-100596428D01*
X137509285Y-100634523D01*
X137471190Y-100672619D01*
X137433095Y-100748809D01*
X137433095Y-100901190D01*
X137471190Y-100977380D01*
X137433095Y-99910714D02*
X137852142Y-99910714D01*
X137928333Y-99948809D01*
X137966428Y-100025000D01*
X137966428Y-100177380D01*
X137928333Y-100253571D01*
X137471190Y-99910714D02*
X137433095Y-99986904D01*
X137433095Y-100177380D01*
X137471190Y-100253571D01*
X137547380Y-100291666D01*
X137623571Y-100291666D01*
X137699761Y-100253571D01*
X137737857Y-100177380D01*
X137737857Y-99986904D01*
X137775952Y-99910714D01*
X137471190Y-99186904D02*
X137433095Y-99263095D01*
X137433095Y-99415476D01*
X137471190Y-99491666D01*
X137509285Y-99529761D01*
X137585476Y-99567857D01*
X137814047Y-99567857D01*
X137890238Y-99529761D01*
X137928333Y-99491666D01*
X137966428Y-99415476D01*
X137966428Y-99263095D01*
X137928333Y-99186904D01*
X137433095Y-98844047D02*
X138233095Y-98844047D01*
X137737857Y-98767857D02*
X137433095Y-98539285D01*
X137966428Y-98539285D02*
X137661666Y-98844047D01*
X137433095Y-98082142D02*
X137471190Y-98158333D01*
X137547380Y-98196428D01*
X138233095Y-98196428D01*
X137433095Y-97777380D02*
X137966428Y-97777380D01*
X138233095Y-97777380D02*
X138195000Y-97815476D01*
X138156904Y-97777380D01*
X138195000Y-97739285D01*
X138233095Y-97777380D01*
X138156904Y-97777380D01*
X137966428Y-97053571D02*
X137318809Y-97053571D01*
X137242619Y-97091666D01*
X137204523Y-97129761D01*
X137166428Y-97205952D01*
X137166428Y-97320238D01*
X137204523Y-97396428D01*
X137471190Y-97053571D02*
X137433095Y-97129761D01*
X137433095Y-97282142D01*
X137471190Y-97358333D01*
X137509285Y-97396428D01*
X137585476Y-97434523D01*
X137814047Y-97434523D01*
X137890238Y-97396428D01*
X137928333Y-97358333D01*
X137966428Y-97282142D01*
X137966428Y-97129761D01*
X137928333Y-97053571D01*
X137433095Y-96672619D02*
X138233095Y-96672619D01*
X137433095Y-96329761D02*
X137852142Y-96329761D01*
X137928333Y-96367857D01*
X137966428Y-96444047D01*
X137966428Y-96558333D01*
X137928333Y-96634523D01*
X137890238Y-96672619D01*
X137966428Y-96063095D02*
X137966428Y-95758333D01*
X138233095Y-95948809D02*
X137547380Y-95948809D01*
X137471190Y-95910714D01*
X137433095Y-95834523D01*
X137433095Y-95758333D01*
X136315476Y-97390000D02*
X136391666Y-97351904D01*
X136505952Y-97351904D01*
X136620238Y-97390000D01*
X136696428Y-97466190D01*
X136734523Y-97542380D01*
X136772619Y-97694761D01*
X136772619Y-97809047D01*
X136734523Y-97961428D01*
X136696428Y-98037619D01*
X136620238Y-98113809D01*
X136505952Y-98151904D01*
X136429761Y-98151904D01*
X136315476Y-98113809D01*
X136277380Y-98075714D01*
X136277380Y-97809047D01*
X136429761Y-97809047D01*
X183140000Y-81095809D02*
X183025714Y-81133904D01*
X182835238Y-81133904D01*
X182759047Y-81095809D01*
X182720952Y-81057714D01*
X182682857Y-80981523D01*
X182682857Y-80905333D01*
X182720952Y-80829142D01*
X182759047Y-80791047D01*
X182835238Y-80752952D01*
X182987619Y-80714857D01*
X183063809Y-80676761D01*
X183101904Y-80638666D01*
X183140000Y-80562476D01*
X183140000Y-80486285D01*
X183101904Y-80410095D01*
X183063809Y-80372000D01*
X182987619Y-80333904D01*
X182797142Y-80333904D01*
X182682857Y-80372000D01*
X182416190Y-80600571D02*
X182225714Y-81133904D01*
X182035238Y-80600571D02*
X182225714Y-81133904D01*
X182301904Y-81324380D01*
X182340000Y-81362476D01*
X182416190Y-81400571D01*
X181768571Y-81095809D02*
X181692380Y-81133904D01*
X181540000Y-81133904D01*
X181463809Y-81095809D01*
X181425714Y-81019619D01*
X181425714Y-80981523D01*
X181463809Y-80905333D01*
X181540000Y-80867238D01*
X181654285Y-80867238D01*
X181730476Y-80829142D01*
X181768571Y-80752952D01*
X181768571Y-80714857D01*
X181730476Y-80638666D01*
X181654285Y-80600571D01*
X181540000Y-80600571D01*
X181463809Y-80638666D01*
X180816190Y-80714857D02*
X180701904Y-80752952D01*
X180663809Y-80791047D01*
X180625714Y-80867238D01*
X180625714Y-80981523D01*
X180663809Y-81057714D01*
X180701904Y-81095809D01*
X180778095Y-81133904D01*
X181082857Y-81133904D01*
X181082857Y-80333904D01*
X180816190Y-80333904D01*
X180740000Y-80372000D01*
X180701904Y-80410095D01*
X180663809Y-80486285D01*
X180663809Y-80562476D01*
X180701904Y-80638666D01*
X180740000Y-80676761D01*
X180816190Y-80714857D01*
X181082857Y-80714857D01*
X179940000Y-80600571D02*
X179940000Y-81133904D01*
X180282857Y-80600571D02*
X180282857Y-81019619D01*
X180244761Y-81095809D01*
X180168571Y-81133904D01*
X180054285Y-81133904D01*
X179978095Y-81095809D01*
X179940000Y-81057714D01*
X179673333Y-80600571D02*
X179368571Y-80600571D01*
X179559047Y-80333904D02*
X179559047Y-81019619D01*
X179520952Y-81095809D01*
X179444761Y-81133904D01*
X179368571Y-81133904D01*
X179216190Y-80600571D02*
X178911428Y-80600571D01*
X179101904Y-80333904D02*
X179101904Y-81019619D01*
X179063809Y-81095809D01*
X178987619Y-81133904D01*
X178911428Y-81133904D01*
X178530476Y-81133904D02*
X178606666Y-81095809D01*
X178644761Y-81057714D01*
X178682857Y-80981523D01*
X178682857Y-80752952D01*
X178644761Y-80676761D01*
X178606666Y-80638666D01*
X178530476Y-80600571D01*
X178416190Y-80600571D01*
X178340000Y-80638666D01*
X178301904Y-80676761D01*
X178263809Y-80752952D01*
X178263809Y-80981523D01*
X178301904Y-81057714D01*
X178340000Y-81095809D01*
X178416190Y-81133904D01*
X178530476Y-81133904D01*
X177920952Y-80600571D02*
X177920952Y-81133904D01*
X177920952Y-80676761D02*
X177882857Y-80638666D01*
X177806666Y-80600571D01*
X177692380Y-80600571D01*
X177616190Y-80638666D01*
X177578095Y-80714857D01*
X177578095Y-81133904D01*
D10*
X178308000Y-82804000D02*
X166243000Y-82804000D01*
D11*
X170478476Y-78975000D02*
X170554666Y-78936904D01*
X170668952Y-78936904D01*
X170783238Y-78975000D01*
X170859428Y-79051190D01*
X170897523Y-79127380D01*
X170935619Y-79279761D01*
X170935619Y-79394047D01*
X170897523Y-79546428D01*
X170859428Y-79622619D01*
X170783238Y-79698809D01*
X170668952Y-79736904D01*
X170592761Y-79736904D01*
X170478476Y-79698809D01*
X170440380Y-79660714D01*
X170440380Y-79394047D01*
X170592761Y-79394047D01*
X168414666Y-78809904D02*
X168148000Y-79609904D01*
X167881333Y-78809904D01*
X174707428Y-79952809D02*
X174593142Y-79990904D01*
X174402666Y-79990904D01*
X174326476Y-79952809D01*
X174288380Y-79914714D01*
X174250285Y-79838523D01*
X174250285Y-79762333D01*
X174288380Y-79686142D01*
X174326476Y-79648047D01*
X174402666Y-79609952D01*
X174555047Y-79571857D01*
X174631238Y-79533761D01*
X174669333Y-79495666D01*
X174707428Y-79419476D01*
X174707428Y-79343285D01*
X174669333Y-79267095D01*
X174631238Y-79229000D01*
X174555047Y-79190904D01*
X174364571Y-79190904D01*
X174250285Y-79229000D01*
X173907428Y-79990904D02*
X173907428Y-79190904D01*
X173716952Y-79190904D01*
X173602666Y-79229000D01*
X173526476Y-79305190D01*
X173488380Y-79381380D01*
X173450285Y-79533761D01*
X173450285Y-79648047D01*
X173488380Y-79800428D01*
X173526476Y-79876619D01*
X173602666Y-79952809D01*
X173716952Y-79990904D01*
X173907428Y-79990904D01*
X173145523Y-79762333D02*
X172764571Y-79762333D01*
X173221714Y-79990904D02*
X172955047Y-79190904D01*
X172688380Y-79990904D01*
X177228380Y-79952809D02*
X177114095Y-79990904D01*
X176923619Y-79990904D01*
X176847428Y-79952809D01*
X176809333Y-79914714D01*
X176771238Y-79838523D01*
X176771238Y-79762333D01*
X176809333Y-79686142D01*
X176847428Y-79648047D01*
X176923619Y-79609952D01*
X177076000Y-79571857D01*
X177152190Y-79533761D01*
X177190285Y-79495666D01*
X177228380Y-79419476D01*
X177228380Y-79343285D01*
X177190285Y-79267095D01*
X177152190Y-79229000D01*
X177076000Y-79190904D01*
X176885523Y-79190904D01*
X176771238Y-79229000D01*
X175971238Y-79914714D02*
X176009333Y-79952809D01*
X176123619Y-79990904D01*
X176199809Y-79990904D01*
X176314095Y-79952809D01*
X176390285Y-79876619D01*
X176428380Y-79800428D01*
X176466476Y-79648047D01*
X176466476Y-79533761D01*
X176428380Y-79381380D01*
X176390285Y-79305190D01*
X176314095Y-79229000D01*
X176199809Y-79190904D01*
X176123619Y-79190904D01*
X176009333Y-79229000D01*
X175971238Y-79267095D01*
X175247428Y-79990904D02*
X175628380Y-79990904D01*
X175628380Y-79190904D01*
D10*
X152400000Y-112395000D02*
X152400000Y-111760000D01*
X149860000Y-112395000D02*
X149860000Y-111760000D01*
X149860000Y-117475000D02*
X149860000Y-118110000D01*
X152400000Y-117475000D02*
X152400000Y-118110000D01*
X147320000Y-117475000D02*
X147320000Y-118110000D01*
X144780000Y-117475000D02*
X144780000Y-118110000D01*
X142240000Y-117475000D02*
X142240000Y-118110000D01*
D11*
X143230476Y-119106904D02*
X143230476Y-118306904D01*
X142963809Y-118878333D01*
X142697142Y-118306904D01*
X142697142Y-119106904D01*
X142163809Y-118306904D02*
X142011428Y-118306904D01*
X141935238Y-118345000D01*
X141859047Y-118421190D01*
X141820952Y-118573571D01*
X141820952Y-118840238D01*
X141859047Y-118992619D01*
X141935238Y-119068809D01*
X142011428Y-119106904D01*
X142163809Y-119106904D01*
X142240000Y-119068809D01*
X142316190Y-118992619D01*
X142354285Y-118840238D01*
X142354285Y-118573571D01*
X142316190Y-118421190D01*
X142240000Y-118345000D01*
X142163809Y-118306904D01*
X141592380Y-118306904D02*
X141135238Y-118306904D01*
X141363809Y-119106904D02*
X141363809Y-118306904D01*
X145732380Y-119068809D02*
X145618095Y-119106904D01*
X145427619Y-119106904D01*
X145351428Y-119068809D01*
X145313333Y-119030714D01*
X145275238Y-118954523D01*
X145275238Y-118878333D01*
X145313333Y-118802142D01*
X145351428Y-118764047D01*
X145427619Y-118725952D01*
X145580000Y-118687857D01*
X145656190Y-118649761D01*
X145694285Y-118611666D01*
X145732380Y-118535476D01*
X145732380Y-118459285D01*
X145694285Y-118383095D01*
X145656190Y-118345000D01*
X145580000Y-118306904D01*
X145389523Y-118306904D01*
X145275238Y-118345000D01*
X144475238Y-119030714D02*
X144513333Y-119068809D01*
X144627619Y-119106904D01*
X144703809Y-119106904D01*
X144818095Y-119068809D01*
X144894285Y-118992619D01*
X144932380Y-118916428D01*
X144970476Y-118764047D01*
X144970476Y-118649761D01*
X144932380Y-118497380D01*
X144894285Y-118421190D01*
X144818095Y-118345000D01*
X144703809Y-118306904D01*
X144627619Y-118306904D01*
X144513333Y-118345000D01*
X144475238Y-118383095D01*
X143751428Y-119106904D02*
X144132380Y-119106904D01*
X144132380Y-118306904D01*
X148291428Y-119068809D02*
X148177142Y-119106904D01*
X147986666Y-119106904D01*
X147910476Y-119068809D01*
X147872380Y-119030714D01*
X147834285Y-118954523D01*
X147834285Y-118878333D01*
X147872380Y-118802142D01*
X147910476Y-118764047D01*
X147986666Y-118725952D01*
X148139047Y-118687857D01*
X148215238Y-118649761D01*
X148253333Y-118611666D01*
X148291428Y-118535476D01*
X148291428Y-118459285D01*
X148253333Y-118383095D01*
X148215238Y-118345000D01*
X148139047Y-118306904D01*
X147948571Y-118306904D01*
X147834285Y-118345000D01*
X147491428Y-119106904D02*
X147491428Y-118306904D01*
X147300952Y-118306904D01*
X147186666Y-118345000D01*
X147110476Y-118421190D01*
X147072380Y-118497380D01*
X147034285Y-118649761D01*
X147034285Y-118764047D01*
X147072380Y-118916428D01*
X147110476Y-118992619D01*
X147186666Y-119068809D01*
X147300952Y-119106904D01*
X147491428Y-119106904D01*
X146729523Y-118878333D02*
X146348571Y-118878333D01*
X146805714Y-119106904D02*
X146539047Y-118306904D01*
X146272380Y-119106904D01*
X152666666Y-118306904D02*
X152400000Y-119106904D01*
X152133333Y-118306904D01*
X149650476Y-118345000D02*
X149726666Y-118306904D01*
X149840952Y-118306904D01*
X149955238Y-118345000D01*
X150031428Y-118421190D01*
X150069523Y-118497380D01*
X150107619Y-118649761D01*
X150107619Y-118764047D01*
X150069523Y-118916428D01*
X150031428Y-118992619D01*
X149955238Y-119068809D01*
X149840952Y-119106904D01*
X149764761Y-119106904D01*
X149650476Y-119068809D01*
X149612380Y-119030714D01*
X149612380Y-118764047D01*
X149764761Y-118764047D01*
X149650476Y-110725000D02*
X149726666Y-110686904D01*
X149840952Y-110686904D01*
X149955238Y-110725000D01*
X150031428Y-110801190D01*
X150069523Y-110877380D01*
X150107619Y-111029761D01*
X150107619Y-111144047D01*
X150069523Y-111296428D01*
X150031428Y-111372619D01*
X149955238Y-111448809D01*
X149840952Y-111486904D01*
X149764761Y-111486904D01*
X149650476Y-111448809D01*
X149612380Y-111410714D01*
X149612380Y-111144047D01*
X149764761Y-111144047D01*
X152838095Y-111486904D02*
X153104761Y-111105952D01*
X153295238Y-111486904D02*
X153295238Y-110686904D01*
X152990476Y-110686904D01*
X152914285Y-110725000D01*
X152876190Y-110763095D01*
X152838095Y-110839285D01*
X152838095Y-110953571D01*
X152876190Y-111029761D01*
X152914285Y-111067857D01*
X152990476Y-111105952D01*
X153295238Y-111105952D01*
X152533333Y-111448809D02*
X152419047Y-111486904D01*
X152228571Y-111486904D01*
X152152380Y-111448809D01*
X152114285Y-111410714D01*
X152076190Y-111334523D01*
X152076190Y-111258333D01*
X152114285Y-111182142D01*
X152152380Y-111144047D01*
X152228571Y-111105952D01*
X152380952Y-111067857D01*
X152457142Y-111029761D01*
X152495238Y-110991666D01*
X152533333Y-110915476D01*
X152533333Y-110839285D01*
X152495238Y-110763095D01*
X152457142Y-110725000D01*
X152380952Y-110686904D01*
X152190476Y-110686904D01*
X152076190Y-110725000D01*
X151847619Y-110686904D02*
X151390476Y-110686904D01*
X151619047Y-111486904D02*
X151619047Y-110686904D01*
X157200476Y-114661904D02*
X157467142Y-114280952D01*
X157657619Y-114661904D02*
X157657619Y-113861904D01*
X157352857Y-113861904D01*
X157276666Y-113900000D01*
X157238571Y-113938095D01*
X157200476Y-114014285D01*
X157200476Y-114128571D01*
X157238571Y-114204761D01*
X157276666Y-114242857D01*
X157352857Y-114280952D01*
X157657619Y-114280952D01*
X156552857Y-114623809D02*
X156629047Y-114661904D01*
X156781428Y-114661904D01*
X156857619Y-114623809D01*
X156895714Y-114547619D01*
X156895714Y-114242857D01*
X156857619Y-114166666D01*
X156781428Y-114128571D01*
X156629047Y-114128571D01*
X156552857Y-114166666D01*
X156514761Y-114242857D01*
X156514761Y-114319047D01*
X156895714Y-114395238D01*
X156210000Y-114623809D02*
X156133809Y-114661904D01*
X155981428Y-114661904D01*
X155905238Y-114623809D01*
X155867142Y-114547619D01*
X155867142Y-114509523D01*
X155905238Y-114433333D01*
X155981428Y-114395238D01*
X156095714Y-114395238D01*
X156171904Y-114357142D01*
X156210000Y-114280952D01*
X156210000Y-114242857D01*
X156171904Y-114166666D01*
X156095714Y-114128571D01*
X155981428Y-114128571D01*
X155905238Y-114166666D01*
X155219523Y-114623809D02*
X155295714Y-114661904D01*
X155448095Y-114661904D01*
X155524285Y-114623809D01*
X155562380Y-114547619D01*
X155562380Y-114242857D01*
X155524285Y-114166666D01*
X155448095Y-114128571D01*
X155295714Y-114128571D01*
X155219523Y-114166666D01*
X155181428Y-114242857D01*
X155181428Y-114319047D01*
X155562380Y-114395238D01*
X154952857Y-114128571D02*
X154648095Y-114128571D01*
X154838571Y-113861904D02*
X154838571Y-114547619D01*
X154800476Y-114623809D01*
X154724285Y-114661904D01*
X154648095Y-114661904D01*
X157676666Y-117836904D02*
X157676666Y-117036904D01*
X157410000Y-117608333D01*
X157143333Y-117036904D01*
X157143333Y-117836904D01*
X156648095Y-117836904D02*
X156724285Y-117798809D01*
X156762380Y-117760714D01*
X156800476Y-117684523D01*
X156800476Y-117455952D01*
X156762380Y-117379761D01*
X156724285Y-117341666D01*
X156648095Y-117303571D01*
X156533809Y-117303571D01*
X156457619Y-117341666D01*
X156419523Y-117379761D01*
X156381428Y-117455952D01*
X156381428Y-117684523D01*
X156419523Y-117760714D01*
X156457619Y-117798809D01*
X156533809Y-117836904D01*
X156648095Y-117836904D01*
X156152857Y-117303571D02*
X155848095Y-117303571D01*
X156038571Y-117036904D02*
X156038571Y-117722619D01*
X156000476Y-117798809D01*
X155924285Y-117836904D01*
X155848095Y-117836904D01*
X155467142Y-117836904D02*
X155543333Y-117798809D01*
X155581428Y-117760714D01*
X155619523Y-117684523D01*
X155619523Y-117455952D01*
X155581428Y-117379761D01*
X155543333Y-117341666D01*
X155467142Y-117303571D01*
X155352857Y-117303571D01*
X155276666Y-117341666D01*
X155238571Y-117379761D01*
X155200476Y-117455952D01*
X155200476Y-117684523D01*
X155238571Y-117760714D01*
X155276666Y-117798809D01*
X155352857Y-117836904D01*
X155467142Y-117836904D01*
X154857619Y-117836904D02*
X154857619Y-117303571D01*
X154857619Y-117455952D02*
X154819523Y-117379761D01*
X154781428Y-117341666D01*
X154705238Y-117303571D01*
X154629047Y-117303571D01*
X139306190Y-91166904D02*
X139687142Y-91166904D01*
X139687142Y-90366904D01*
X139039523Y-90747857D02*
X138772857Y-90747857D01*
X138658571Y-91166904D02*
X139039523Y-91166904D01*
X139039523Y-90366904D01*
X138658571Y-90366904D01*
X138315714Y-91166904D02*
X138315714Y-90366904D01*
X138125238Y-90366904D01*
X138010952Y-90405000D01*
X137934761Y-90481190D01*
X137896666Y-90557380D01*
X137858571Y-90709761D01*
X137858571Y-90824047D01*
X137896666Y-90976428D01*
X137934761Y-91052619D01*
X138010952Y-91128809D01*
X138125238Y-91166904D01*
X138315714Y-91166904D01*
X137515714Y-91166904D02*
X137515714Y-90366904D01*
X137515714Y-90671666D02*
X137439523Y-90633571D01*
X137287142Y-90633571D01*
X137210952Y-90671666D01*
X137172857Y-90709761D01*
X137134761Y-90785952D01*
X137134761Y-91014523D01*
X137172857Y-91090714D01*
X137210952Y-91128809D01*
X137287142Y-91166904D01*
X137439523Y-91166904D01*
X137515714Y-91128809D01*
X159626190Y-91166904D02*
X160007142Y-91166904D01*
X160007142Y-90366904D01*
X159359523Y-90747857D02*
X159092857Y-90747857D01*
X158978571Y-91166904D02*
X159359523Y-91166904D01*
X159359523Y-90366904D01*
X158978571Y-90366904D01*
X158635714Y-91166904D02*
X158635714Y-90366904D01*
X158445238Y-90366904D01*
X158330952Y-90405000D01*
X158254761Y-90481190D01*
X158216666Y-90557380D01*
X158178571Y-90709761D01*
X158178571Y-90824047D01*
X158216666Y-90976428D01*
X158254761Y-91052619D01*
X158330952Y-91128809D01*
X158445238Y-91166904D01*
X158635714Y-91166904D01*
X157492857Y-91166904D02*
X157492857Y-90747857D01*
X157530952Y-90671666D01*
X157607142Y-90633571D01*
X157759523Y-90633571D01*
X157835714Y-90671666D01*
X157492857Y-91128809D02*
X157569047Y-91166904D01*
X157759523Y-91166904D01*
X157835714Y-91128809D01*
X157873809Y-91052619D01*
X157873809Y-90976428D01*
X157835714Y-90900238D01*
X157759523Y-90862142D01*
X157569047Y-90862142D01*
X157492857Y-90824047D01*
X165772857Y-90366809D02*
X165658571Y-90404904D01*
X165468095Y-90404904D01*
X165391904Y-90366809D01*
X165353809Y-90328714D01*
X165315714Y-90252523D01*
X165315714Y-90176333D01*
X165353809Y-90100142D01*
X165391904Y-90062047D01*
X165468095Y-90023952D01*
X165620476Y-89985857D01*
X165696666Y-89947761D01*
X165734761Y-89909666D01*
X165772857Y-89833476D01*
X165772857Y-89757285D01*
X165734761Y-89681095D01*
X165696666Y-89643000D01*
X165620476Y-89604904D01*
X165430000Y-89604904D01*
X165315714Y-89643000D01*
X165049047Y-89871571D02*
X164858571Y-90404904D01*
X164668095Y-89871571D02*
X164858571Y-90404904D01*
X164934761Y-90595380D01*
X164972857Y-90633476D01*
X165049047Y-90671571D01*
X164401428Y-90366809D02*
X164325238Y-90404904D01*
X164172857Y-90404904D01*
X164096666Y-90366809D01*
X164058571Y-90290619D01*
X164058571Y-90252523D01*
X164096666Y-90176333D01*
X164172857Y-90138238D01*
X164287142Y-90138238D01*
X164363333Y-90100142D01*
X164401428Y-90023952D01*
X164401428Y-89985857D01*
X164363333Y-89909666D01*
X164287142Y-89871571D01*
X164172857Y-89871571D01*
X164096666Y-89909666D01*
X163334761Y-90404904D02*
X163715714Y-90404904D01*
X163715714Y-89604904D01*
X163068095Y-89985857D02*
X162801428Y-89985857D01*
X162687142Y-90404904D02*
X163068095Y-90404904D01*
X163068095Y-89604904D01*
X162687142Y-89604904D01*
X162344285Y-90404904D02*
X162344285Y-89604904D01*
X162153809Y-89604904D01*
X162039523Y-89643000D01*
X161963333Y-89719190D01*
X161925238Y-89795380D01*
X161887142Y-89947761D01*
X161887142Y-90062047D01*
X161925238Y-90214428D01*
X161963333Y-90290619D01*
X162039523Y-90366809D01*
X162153809Y-90404904D01*
X162344285Y-90404904D01*
D10*
X140970000Y-83439000D02*
X140970000Y-90678000D01*
X161290000Y-83439000D02*
X161290000Y-90678000D01*
D11*
X167843047Y-78085904D02*
X167843047Y-77552571D01*
X167843047Y-77704952D02*
X167804952Y-77628761D01*
X167766857Y-77590666D01*
X167690666Y-77552571D01*
X167614476Y-77552571D01*
X167233523Y-78085904D02*
X167309714Y-78047809D01*
X167347809Y-78009714D01*
X167385904Y-77933523D01*
X167385904Y-77704952D01*
X167347809Y-77628761D01*
X167309714Y-77590666D01*
X167233523Y-77552571D01*
X167119238Y-77552571D01*
X167043047Y-77590666D01*
X167004952Y-77628761D01*
X166966857Y-77704952D01*
X166966857Y-77933523D01*
X167004952Y-78009714D01*
X167043047Y-78047809D01*
X167119238Y-78085904D01*
X167233523Y-78085904D01*
X166700190Y-77552571D02*
X166547809Y-78085904D01*
X166395428Y-77704952D01*
X166243047Y-78085904D01*
X166090666Y-77552571D01*
X165633523Y-77285904D02*
X165557333Y-77285904D01*
X165481142Y-77324000D01*
X165443047Y-77362095D01*
X165404952Y-77438285D01*
X165366857Y-77590666D01*
X165366857Y-77781142D01*
X165404952Y-77933523D01*
X165443047Y-78009714D01*
X165481142Y-78047809D01*
X165557333Y-78085904D01*
X165633523Y-78085904D01*
X165709714Y-78047809D01*
X165747809Y-78009714D01*
X165785904Y-77933523D01*
X165824000Y-77781142D01*
X165824000Y-77590666D01*
X165785904Y-77438285D01*
X165747809Y-77362095D01*
X165709714Y-77324000D01*
X165633523Y-77285904D01*
X167843047Y-75545904D02*
X167843047Y-75012571D01*
X167843047Y-75164952D02*
X167804952Y-75088761D01*
X167766857Y-75050666D01*
X167690666Y-75012571D01*
X167614476Y-75012571D01*
X167233523Y-75545904D02*
X167309714Y-75507809D01*
X167347809Y-75469714D01*
X167385904Y-75393523D01*
X167385904Y-75164952D01*
X167347809Y-75088761D01*
X167309714Y-75050666D01*
X167233523Y-75012571D01*
X167119238Y-75012571D01*
X167043047Y-75050666D01*
X167004952Y-75088761D01*
X166966857Y-75164952D01*
X166966857Y-75393523D01*
X167004952Y-75469714D01*
X167043047Y-75507809D01*
X167119238Y-75545904D01*
X167233523Y-75545904D01*
X166700190Y-75012571D02*
X166547809Y-75545904D01*
X166395428Y-75164952D01*
X166243047Y-75545904D01*
X166090666Y-75012571D01*
X165366857Y-75545904D02*
X165824000Y-75545904D01*
X165595428Y-75545904D02*
X165595428Y-74745904D01*
X165671619Y-74860190D01*
X165747809Y-74936380D01*
X165824000Y-74974476D01*
X167843047Y-73005904D02*
X167843047Y-72472571D01*
X167843047Y-72624952D02*
X167804952Y-72548761D01*
X167766857Y-72510666D01*
X167690666Y-72472571D01*
X167614476Y-72472571D01*
X167233523Y-73005904D02*
X167309714Y-72967809D01*
X167347809Y-72929714D01*
X167385904Y-72853523D01*
X167385904Y-72624952D01*
X167347809Y-72548761D01*
X167309714Y-72510666D01*
X167233523Y-72472571D01*
X167119238Y-72472571D01*
X167043047Y-72510666D01*
X167004952Y-72548761D01*
X166966857Y-72624952D01*
X166966857Y-72853523D01*
X167004952Y-72929714D01*
X167043047Y-72967809D01*
X167119238Y-73005904D01*
X167233523Y-73005904D01*
X166700190Y-72472571D02*
X166547809Y-73005904D01*
X166395428Y-72624952D01*
X166243047Y-73005904D01*
X166090666Y-72472571D01*
X165824000Y-72282095D02*
X165785904Y-72244000D01*
X165709714Y-72205904D01*
X165519238Y-72205904D01*
X165443047Y-72244000D01*
X165404952Y-72282095D01*
X165366857Y-72358285D01*
X165366857Y-72434476D01*
X165404952Y-72548761D01*
X165862095Y-73005904D01*
X165366857Y-73005904D01*
X167843047Y-70211904D02*
X167843047Y-69678571D01*
X167843047Y-69830952D02*
X167804952Y-69754761D01*
X167766857Y-69716666D01*
X167690666Y-69678571D01*
X167614476Y-69678571D01*
X167233523Y-70211904D02*
X167309714Y-70173809D01*
X167347809Y-70135714D01*
X167385904Y-70059523D01*
X167385904Y-69830952D01*
X167347809Y-69754761D01*
X167309714Y-69716666D01*
X167233523Y-69678571D01*
X167119238Y-69678571D01*
X167043047Y-69716666D01*
X167004952Y-69754761D01*
X166966857Y-69830952D01*
X166966857Y-70059523D01*
X167004952Y-70135714D01*
X167043047Y-70173809D01*
X167119238Y-70211904D01*
X167233523Y-70211904D01*
X166700190Y-69678571D02*
X166547809Y-70211904D01*
X166395428Y-69830952D01*
X166243047Y-70211904D01*
X166090666Y-69678571D01*
X165862095Y-69411904D02*
X165366857Y-69411904D01*
X165633523Y-69716666D01*
X165519238Y-69716666D01*
X165443047Y-69754761D01*
X165404952Y-69792857D01*
X165366857Y-69869047D01*
X165366857Y-70059523D01*
X165404952Y-70135714D01*
X165443047Y-70173809D01*
X165519238Y-70211904D01*
X165747809Y-70211904D01*
X165824000Y-70173809D01*
X165862095Y-70135714D01*
X167843047Y-67671904D02*
X167843047Y-67138571D01*
X167843047Y-67290952D02*
X167804952Y-67214761D01*
X167766857Y-67176666D01*
X167690666Y-67138571D01*
X167614476Y-67138571D01*
X167233523Y-67671904D02*
X167309714Y-67633809D01*
X167347809Y-67595714D01*
X167385904Y-67519523D01*
X167385904Y-67290952D01*
X167347809Y-67214761D01*
X167309714Y-67176666D01*
X167233523Y-67138571D01*
X167119238Y-67138571D01*
X167043047Y-67176666D01*
X167004952Y-67214761D01*
X166966857Y-67290952D01*
X166966857Y-67519523D01*
X167004952Y-67595714D01*
X167043047Y-67633809D01*
X167119238Y-67671904D01*
X167233523Y-67671904D01*
X166700190Y-67138571D02*
X166547809Y-67671904D01*
X166395428Y-67290952D01*
X166243047Y-67671904D01*
X166090666Y-67138571D01*
X165443047Y-67138571D02*
X165443047Y-67671904D01*
X165633523Y-66833809D02*
X165824000Y-67405238D01*
X165328761Y-67405238D01*
D12*
X167596428Y-118538000D02*
X169096428Y-118538000D01*
X168596428Y-118038000D02*
X168596428Y-117466571D01*
X169096428Y-117823714D02*
X167810714Y-117823714D01*
X167667857Y-117752285D01*
X167596428Y-117609428D01*
X167596428Y-117466571D01*
X167667857Y-117038000D02*
X167596428Y-116895142D01*
X167596428Y-116609428D01*
X167667857Y-116466571D01*
X167810714Y-116395142D01*
X167882142Y-116395142D01*
X168025000Y-116466571D01*
X168096428Y-116609428D01*
X168096428Y-116823714D01*
X168167857Y-116966571D01*
X168310714Y-117038000D01*
X168382142Y-117038000D01*
X168525000Y-116966571D01*
X168596428Y-116823714D01*
X168596428Y-116609428D01*
X168525000Y-116466571D01*
X168596428Y-115895142D02*
X167596428Y-115538000D01*
X168596428Y-115180857D02*
X167596428Y-115538000D01*
X167239285Y-115680857D01*
X167167857Y-115752285D01*
X167096428Y-115895142D01*
X167453571Y-114966571D02*
X167453571Y-113823714D01*
X169096428Y-113609428D02*
X169096428Y-112680857D01*
X168525000Y-113180857D01*
X168525000Y-112966571D01*
X168453571Y-112823714D01*
X168382142Y-112752285D01*
X168239285Y-112680857D01*
X167882142Y-112680857D01*
X167739285Y-112752285D01*
X167667857Y-112823714D01*
X167596428Y-112966571D01*
X167596428Y-113395142D01*
X167667857Y-113538000D01*
X167739285Y-113609428D01*
X168953571Y-112109428D02*
X169025000Y-112038000D01*
X169096428Y-111895142D01*
X169096428Y-111538000D01*
X169025000Y-111395142D01*
X168953571Y-111323714D01*
X168810714Y-111252285D01*
X168667857Y-111252285D01*
X168453571Y-111323714D01*
X167596428Y-112180857D01*
X167596428Y-111252285D01*
X168596428Y-109966571D02*
X167596428Y-109966571D01*
X168596428Y-110609428D02*
X167810714Y-110609428D01*
X167667857Y-110538000D01*
X167596428Y-110395142D01*
X167596428Y-110180857D01*
X167667857Y-110038000D01*
X167739285Y-109966571D01*
X168596428Y-108609428D02*
X167596428Y-108609428D01*
X169167857Y-108966571D02*
X168096428Y-109323714D01*
X168096428Y-108395142D01*
D11*
X158057619Y-120783333D02*
X157676666Y-120783333D01*
X158133809Y-121011904D02*
X157867142Y-120211904D01*
X157600476Y-121011904D01*
X157333809Y-120478571D02*
X157333809Y-121011904D01*
X157333809Y-120554761D02*
X157295714Y-120516666D01*
X157219523Y-120478571D01*
X157105238Y-120478571D01*
X157029047Y-120516666D01*
X156990952Y-120592857D01*
X156990952Y-121011904D01*
X156267142Y-121011904D02*
X156267142Y-120592857D01*
X156305238Y-120516666D01*
X156381428Y-120478571D01*
X156533809Y-120478571D01*
X156610000Y-120516666D01*
X156267142Y-120973809D02*
X156343333Y-121011904D01*
X156533809Y-121011904D01*
X156610000Y-120973809D01*
X156648095Y-120897619D01*
X156648095Y-120821428D01*
X156610000Y-120745238D01*
X156533809Y-120707142D01*
X156343333Y-120707142D01*
X156267142Y-120669047D01*
X155771904Y-121011904D02*
X155848095Y-120973809D01*
X155886190Y-120897619D01*
X155886190Y-120211904D01*
X155352857Y-121011904D02*
X155429047Y-120973809D01*
X155467142Y-120935714D01*
X155505238Y-120859523D01*
X155505238Y-120630952D01*
X155467142Y-120554761D01*
X155429047Y-120516666D01*
X155352857Y-120478571D01*
X155238571Y-120478571D01*
X155162380Y-120516666D01*
X155124285Y-120554761D01*
X155086190Y-120630952D01*
X155086190Y-120859523D01*
X155124285Y-120935714D01*
X155162380Y-120973809D01*
X155238571Y-121011904D01*
X155352857Y-121011904D01*
X154400476Y-120478571D02*
X154400476Y-121126190D01*
X154438571Y-121202380D01*
X154476666Y-121240476D01*
X154552857Y-121278571D01*
X154667142Y-121278571D01*
X154743333Y-121240476D01*
X154400476Y-120973809D02*
X154476666Y-121011904D01*
X154629047Y-121011904D01*
X154705238Y-120973809D01*
X154743333Y-120935714D01*
X154781428Y-120859523D01*
X154781428Y-120630952D01*
X154743333Y-120554761D01*
X154705238Y-120516666D01*
X154629047Y-120478571D01*
X154476666Y-120478571D01*
X154400476Y-120516666D01*
X175082047Y-64941404D02*
X175082047Y-64408071D01*
X175082047Y-64560452D02*
X175043952Y-64484261D01*
X175005857Y-64446166D01*
X174929666Y-64408071D01*
X174853476Y-64408071D01*
X174472523Y-64941404D02*
X174548714Y-64903309D01*
X174586809Y-64865214D01*
X174624904Y-64789023D01*
X174624904Y-64560452D01*
X174586809Y-64484261D01*
X174548714Y-64446166D01*
X174472523Y-64408071D01*
X174358238Y-64408071D01*
X174282047Y-64446166D01*
X174243952Y-64484261D01*
X174205857Y-64560452D01*
X174205857Y-64789023D01*
X174243952Y-64865214D01*
X174282047Y-64903309D01*
X174358238Y-64941404D01*
X174472523Y-64941404D01*
X173939190Y-64408071D02*
X173786809Y-64941404D01*
X173634428Y-64560452D01*
X173482047Y-64941404D01*
X173329666Y-64408071D01*
X172643952Y-64141404D02*
X173024904Y-64141404D01*
X173063000Y-64522357D01*
X173024904Y-64484261D01*
X172948714Y-64446166D01*
X172758238Y-64446166D01*
X172682047Y-64484261D01*
X172643952Y-64522357D01*
X172605857Y-64598547D01*
X172605857Y-64789023D01*
X172643952Y-64865214D01*
X172682047Y-64903309D01*
X172758238Y-64941404D01*
X172948714Y-64941404D01*
X173024904Y-64903309D01*
X173063000Y-64865214D01*
X175082047Y-62401404D02*
X175082047Y-61868071D01*
X175082047Y-62020452D02*
X175043952Y-61944261D01*
X175005857Y-61906166D01*
X174929666Y-61868071D01*
X174853476Y-61868071D01*
X174472523Y-62401404D02*
X174548714Y-62363309D01*
X174586809Y-62325214D01*
X174624904Y-62249023D01*
X174624904Y-62020452D01*
X174586809Y-61944261D01*
X174548714Y-61906166D01*
X174472523Y-61868071D01*
X174358238Y-61868071D01*
X174282047Y-61906166D01*
X174243952Y-61944261D01*
X174205857Y-62020452D01*
X174205857Y-62249023D01*
X174243952Y-62325214D01*
X174282047Y-62363309D01*
X174358238Y-62401404D01*
X174472523Y-62401404D01*
X173939190Y-61868071D02*
X173786809Y-62401404D01*
X173634428Y-62020452D01*
X173482047Y-62401404D01*
X173329666Y-61868071D01*
X172682047Y-61601404D02*
X172834428Y-61601404D01*
X172910619Y-61639500D01*
X172948714Y-61677595D01*
X173024904Y-61791880D01*
X173063000Y-61944261D01*
X173063000Y-62249023D01*
X173024904Y-62325214D01*
X172986809Y-62363309D01*
X172910619Y-62401404D01*
X172758238Y-62401404D01*
X172682047Y-62363309D01*
X172643952Y-62325214D01*
X172605857Y-62249023D01*
X172605857Y-62058547D01*
X172643952Y-61982357D01*
X172682047Y-61944261D01*
X172758238Y-61906166D01*
X172910619Y-61906166D01*
X172986809Y-61944261D01*
X173024904Y-61982357D01*
X173063000Y-62058547D01*
X175082047Y-59861404D02*
X175082047Y-59328071D01*
X175082047Y-59480452D02*
X175043952Y-59404261D01*
X175005857Y-59366166D01*
X174929666Y-59328071D01*
X174853476Y-59328071D01*
X174472523Y-59861404D02*
X174548714Y-59823309D01*
X174586809Y-59785214D01*
X174624904Y-59709023D01*
X174624904Y-59480452D01*
X174586809Y-59404261D01*
X174548714Y-59366166D01*
X174472523Y-59328071D01*
X174358238Y-59328071D01*
X174282047Y-59366166D01*
X174243952Y-59404261D01*
X174205857Y-59480452D01*
X174205857Y-59709023D01*
X174243952Y-59785214D01*
X174282047Y-59823309D01*
X174358238Y-59861404D01*
X174472523Y-59861404D01*
X173939190Y-59328071D02*
X173786809Y-59861404D01*
X173634428Y-59480452D01*
X173482047Y-59861404D01*
X173329666Y-59328071D01*
X173101095Y-59061404D02*
X172567761Y-59061404D01*
X172910619Y-59861404D01*
D13*
%TO.C,QR\002A\002A\002A\002A\002A*%
G36*
X177900000Y-68600000D02*
G01*
X177900000Y-68200000D01*
X178300000Y-68200000D01*
X178300000Y-68600000D01*
X177900000Y-68600000D01*
G37*
G36*
X178300000Y-68600000D02*
G01*
X178300000Y-68200000D01*
X178700000Y-68200000D01*
X178700000Y-68600000D01*
X178300000Y-68600000D01*
G37*
G36*
X178700000Y-68600000D02*
G01*
X178700000Y-68200000D01*
X179100000Y-68200000D01*
X179100000Y-68600000D01*
X178700000Y-68600000D01*
G37*
G36*
X179100000Y-68600000D02*
G01*
X179100000Y-68200000D01*
X179500000Y-68200000D01*
X179500000Y-68600000D01*
X179100000Y-68600000D01*
G37*
G36*
X179500000Y-68600000D02*
G01*
X179500000Y-68200000D01*
X179900000Y-68200000D01*
X179900000Y-68600000D01*
X179500000Y-68600000D01*
G37*
G36*
X179900000Y-68600000D02*
G01*
X179900000Y-68200000D01*
X180300000Y-68200000D01*
X180300000Y-68600000D01*
X179900000Y-68600000D01*
G37*
G36*
X180300000Y-68600000D02*
G01*
X180300000Y-68200000D01*
X180700000Y-68200000D01*
X180700000Y-68600000D01*
X180300000Y-68600000D01*
G37*
G36*
X180700000Y-68600000D02*
G01*
X180700000Y-68200000D01*
X181100000Y-68200000D01*
X181100000Y-68600000D01*
X180700000Y-68600000D01*
G37*
G36*
X181100000Y-68600000D02*
G01*
X181100000Y-68200000D01*
X181500000Y-68200000D01*
X181500000Y-68600000D01*
X181100000Y-68600000D01*
G37*
G36*
X181500000Y-68600000D02*
G01*
X181500000Y-68200000D01*
X181900000Y-68200000D01*
X181900000Y-68600000D01*
X181500000Y-68600000D01*
G37*
G36*
X181900000Y-68600000D02*
G01*
X181900000Y-68200000D01*
X182300000Y-68200000D01*
X182300000Y-68600000D01*
X181900000Y-68600000D01*
G37*
G36*
X182300000Y-68600000D02*
G01*
X182300000Y-68200000D01*
X182700000Y-68200000D01*
X182700000Y-68600000D01*
X182300000Y-68600000D01*
G37*
G36*
X182700000Y-68600000D02*
G01*
X182700000Y-68200000D01*
X183100000Y-68200000D01*
X183100000Y-68600000D01*
X182700000Y-68600000D01*
G37*
G36*
X183100000Y-68600000D02*
G01*
X183100000Y-68200000D01*
X183500000Y-68200000D01*
X183500000Y-68600000D01*
X183100000Y-68600000D01*
G37*
G36*
X183500000Y-68600000D02*
G01*
X183500000Y-68200000D01*
X183900000Y-68200000D01*
X183900000Y-68600000D01*
X183500000Y-68600000D01*
G37*
G36*
X183900000Y-68600000D02*
G01*
X183900000Y-68200000D01*
X184300000Y-68200000D01*
X184300000Y-68600000D01*
X183900000Y-68600000D01*
G37*
G36*
X184300000Y-68600000D02*
G01*
X184300000Y-68200000D01*
X184700000Y-68200000D01*
X184700000Y-68600000D01*
X184300000Y-68600000D01*
G37*
G36*
X184700000Y-68600000D02*
G01*
X184700000Y-68200000D01*
X185100000Y-68200000D01*
X185100000Y-68600000D01*
X184700000Y-68600000D01*
G37*
G36*
X185100000Y-68600000D02*
G01*
X185100000Y-68200000D01*
X185500000Y-68200000D01*
X185500000Y-68600000D01*
X185100000Y-68600000D01*
G37*
G36*
X185500000Y-68600000D02*
G01*
X185500000Y-68200000D01*
X185900000Y-68200000D01*
X185900000Y-68600000D01*
X185500000Y-68600000D01*
G37*
G36*
X185900000Y-68600000D02*
G01*
X185900000Y-68200000D01*
X186300000Y-68200000D01*
X186300000Y-68600000D01*
X185900000Y-68600000D01*
G37*
G36*
X186300000Y-68600000D02*
G01*
X186300000Y-68200000D01*
X186700000Y-68200000D01*
X186700000Y-68600000D01*
X186300000Y-68600000D01*
G37*
G36*
X186700000Y-68600000D02*
G01*
X186700000Y-68200000D01*
X187100000Y-68200000D01*
X187100000Y-68600000D01*
X186700000Y-68600000D01*
G37*
G36*
X177900000Y-68200000D02*
G01*
X177900000Y-67800000D01*
X178300000Y-67800000D01*
X178300000Y-68200000D01*
X177900000Y-68200000D01*
G37*
G36*
X178300000Y-68200000D02*
G01*
X178300000Y-67800000D01*
X178700000Y-67800000D01*
X178700000Y-68200000D01*
X178300000Y-68200000D01*
G37*
G36*
X179100000Y-68200000D02*
G01*
X179100000Y-67800000D01*
X179500000Y-67800000D01*
X179500000Y-68200000D01*
X179100000Y-68200000D01*
G37*
G36*
X181100000Y-68200000D02*
G01*
X181100000Y-67800000D01*
X181500000Y-67800000D01*
X181500000Y-68200000D01*
X181100000Y-68200000D01*
G37*
G36*
X181500000Y-68200000D02*
G01*
X181500000Y-67800000D01*
X181900000Y-67800000D01*
X181900000Y-68200000D01*
X181500000Y-68200000D01*
G37*
G36*
X182300000Y-68200000D02*
G01*
X182300000Y-67800000D01*
X182700000Y-67800000D01*
X182700000Y-68200000D01*
X182300000Y-68200000D01*
G37*
G36*
X183500000Y-68200000D02*
G01*
X183500000Y-67800000D01*
X183900000Y-67800000D01*
X183900000Y-68200000D01*
X183500000Y-68200000D01*
G37*
G36*
X186700000Y-68200000D02*
G01*
X186700000Y-67800000D01*
X187100000Y-67800000D01*
X187100000Y-68200000D01*
X186700000Y-68200000D01*
G37*
G36*
X177900000Y-67800000D02*
G01*
X177900000Y-67400000D01*
X178300000Y-67400000D01*
X178300000Y-67800000D01*
X177900000Y-67800000D01*
G37*
G36*
X178300000Y-67800000D02*
G01*
X178300000Y-67400000D01*
X178700000Y-67400000D01*
X178700000Y-67800000D01*
X178300000Y-67800000D01*
G37*
G36*
X178700000Y-67800000D02*
G01*
X178700000Y-67400000D01*
X179100000Y-67400000D01*
X179100000Y-67800000D01*
X178700000Y-67800000D01*
G37*
G36*
X179100000Y-67800000D02*
G01*
X179100000Y-67400000D01*
X179500000Y-67400000D01*
X179500000Y-67800000D01*
X179100000Y-67800000D01*
G37*
G36*
X179500000Y-67800000D02*
G01*
X179500000Y-67400000D01*
X179900000Y-67400000D01*
X179900000Y-67800000D01*
X179500000Y-67800000D01*
G37*
G36*
X180700000Y-67800000D02*
G01*
X180700000Y-67400000D01*
X181100000Y-67400000D01*
X181100000Y-67800000D01*
X180700000Y-67800000D01*
G37*
G36*
X181900000Y-67800000D02*
G01*
X181900000Y-67400000D01*
X182300000Y-67400000D01*
X182300000Y-67800000D01*
X181900000Y-67800000D01*
G37*
G36*
X182300000Y-67800000D02*
G01*
X182300000Y-67400000D01*
X182700000Y-67400000D01*
X182700000Y-67800000D01*
X182300000Y-67800000D01*
G37*
G36*
X182700000Y-67800000D02*
G01*
X182700000Y-67400000D01*
X183100000Y-67400000D01*
X183100000Y-67800000D01*
X182700000Y-67800000D01*
G37*
G36*
X183500000Y-67800000D02*
G01*
X183500000Y-67400000D01*
X183900000Y-67400000D01*
X183900000Y-67800000D01*
X183500000Y-67800000D01*
G37*
G36*
X184300000Y-67800000D02*
G01*
X184300000Y-67400000D01*
X184700000Y-67400000D01*
X184700000Y-67800000D01*
X184300000Y-67800000D01*
G37*
G36*
X184700000Y-67800000D02*
G01*
X184700000Y-67400000D01*
X185100000Y-67400000D01*
X185100000Y-67800000D01*
X184700000Y-67800000D01*
G37*
G36*
X185100000Y-67800000D02*
G01*
X185100000Y-67400000D01*
X185500000Y-67400000D01*
X185500000Y-67800000D01*
X185100000Y-67800000D01*
G37*
G36*
X185500000Y-67800000D02*
G01*
X185500000Y-67400000D01*
X185900000Y-67400000D01*
X185900000Y-67800000D01*
X185500000Y-67800000D01*
G37*
G36*
X185900000Y-67800000D02*
G01*
X185900000Y-67400000D01*
X186300000Y-67400000D01*
X186300000Y-67800000D01*
X185900000Y-67800000D01*
G37*
G36*
X186700000Y-67800000D02*
G01*
X186700000Y-67400000D01*
X187100000Y-67400000D01*
X187100000Y-67800000D01*
X186700000Y-67800000D01*
G37*
G36*
X177900000Y-67400000D02*
G01*
X177900000Y-67000000D01*
X178300000Y-67000000D01*
X178300000Y-67400000D01*
X177900000Y-67400000D01*
G37*
G36*
X178700000Y-67400000D02*
G01*
X178700000Y-67000000D01*
X179100000Y-67000000D01*
X179100000Y-67400000D01*
X178700000Y-67400000D01*
G37*
G36*
X179100000Y-67400000D02*
G01*
X179100000Y-67000000D01*
X179500000Y-67000000D01*
X179500000Y-67400000D01*
X179100000Y-67400000D01*
G37*
G36*
X179500000Y-67400000D02*
G01*
X179500000Y-67000000D01*
X179900000Y-67000000D01*
X179900000Y-67400000D01*
X179500000Y-67400000D01*
G37*
G36*
X180700000Y-67400000D02*
G01*
X180700000Y-67000000D01*
X181100000Y-67000000D01*
X181100000Y-67400000D01*
X180700000Y-67400000D01*
G37*
G36*
X181900000Y-67400000D02*
G01*
X181900000Y-67000000D01*
X182300000Y-67000000D01*
X182300000Y-67400000D01*
X181900000Y-67400000D01*
G37*
G36*
X183100000Y-67400000D02*
G01*
X183100000Y-67000000D01*
X183500000Y-67000000D01*
X183500000Y-67400000D01*
X183100000Y-67400000D01*
G37*
G36*
X183500000Y-67400000D02*
G01*
X183500000Y-67000000D01*
X183900000Y-67000000D01*
X183900000Y-67400000D01*
X183500000Y-67400000D01*
G37*
G36*
X184300000Y-67400000D02*
G01*
X184300000Y-67000000D01*
X184700000Y-67000000D01*
X184700000Y-67400000D01*
X184300000Y-67400000D01*
G37*
G36*
X185900000Y-67400000D02*
G01*
X185900000Y-67000000D01*
X186300000Y-67000000D01*
X186300000Y-67400000D01*
X185900000Y-67400000D01*
G37*
G36*
X186700000Y-67400000D02*
G01*
X186700000Y-67000000D01*
X187100000Y-67000000D01*
X187100000Y-67400000D01*
X186700000Y-67400000D01*
G37*
G36*
X177900000Y-67000000D02*
G01*
X177900000Y-66600000D01*
X178300000Y-66600000D01*
X178300000Y-67000000D01*
X177900000Y-67000000D01*
G37*
G36*
X181500000Y-67000000D02*
G01*
X181500000Y-66600000D01*
X181900000Y-66600000D01*
X181900000Y-67000000D01*
X181500000Y-67000000D01*
G37*
G36*
X181900000Y-67000000D02*
G01*
X181900000Y-66600000D01*
X182300000Y-66600000D01*
X182300000Y-67000000D01*
X181900000Y-67000000D01*
G37*
G36*
X182300000Y-67000000D02*
G01*
X182300000Y-66600000D01*
X182700000Y-66600000D01*
X182700000Y-67000000D01*
X182300000Y-67000000D01*
G37*
G36*
X183500000Y-67000000D02*
G01*
X183500000Y-66600000D01*
X183900000Y-66600000D01*
X183900000Y-67000000D01*
X183500000Y-67000000D01*
G37*
G36*
X184300000Y-67000000D02*
G01*
X184300000Y-66600000D01*
X184700000Y-66600000D01*
X184700000Y-67000000D01*
X184300000Y-67000000D01*
G37*
G36*
X185900000Y-67000000D02*
G01*
X185900000Y-66600000D01*
X186300000Y-66600000D01*
X186300000Y-67000000D01*
X185900000Y-67000000D01*
G37*
G36*
X186700000Y-67000000D02*
G01*
X186700000Y-66600000D01*
X187100000Y-66600000D01*
X187100000Y-67000000D01*
X186700000Y-67000000D01*
G37*
G36*
X177900000Y-66600000D02*
G01*
X177900000Y-66200000D01*
X178300000Y-66200000D01*
X178300000Y-66600000D01*
X177900000Y-66600000D01*
G37*
G36*
X178300000Y-66600000D02*
G01*
X178300000Y-66200000D01*
X178700000Y-66200000D01*
X178700000Y-66600000D01*
X178300000Y-66600000D01*
G37*
G36*
X179100000Y-66600000D02*
G01*
X179100000Y-66200000D01*
X179500000Y-66200000D01*
X179500000Y-66600000D01*
X179100000Y-66600000D01*
G37*
G36*
X179500000Y-66600000D02*
G01*
X179500000Y-66200000D01*
X179900000Y-66200000D01*
X179900000Y-66600000D01*
X179500000Y-66600000D01*
G37*
G36*
X179900000Y-66600000D02*
G01*
X179900000Y-66200000D01*
X180300000Y-66200000D01*
X180300000Y-66600000D01*
X179900000Y-66600000D01*
G37*
G36*
X181500000Y-66600000D02*
G01*
X181500000Y-66200000D01*
X181900000Y-66200000D01*
X181900000Y-66600000D01*
X181500000Y-66600000D01*
G37*
G36*
X182300000Y-66600000D02*
G01*
X182300000Y-66200000D01*
X182700000Y-66200000D01*
X182700000Y-66600000D01*
X182300000Y-66600000D01*
G37*
G36*
X183100000Y-66600000D02*
G01*
X183100000Y-66200000D01*
X183500000Y-66200000D01*
X183500000Y-66600000D01*
X183100000Y-66600000D01*
G37*
G36*
X183500000Y-66600000D02*
G01*
X183500000Y-66200000D01*
X183900000Y-66200000D01*
X183900000Y-66600000D01*
X183500000Y-66600000D01*
G37*
G36*
X184300000Y-66600000D02*
G01*
X184300000Y-66200000D01*
X184700000Y-66200000D01*
X184700000Y-66600000D01*
X184300000Y-66600000D01*
G37*
G36*
X185900000Y-66600000D02*
G01*
X185900000Y-66200000D01*
X186300000Y-66200000D01*
X186300000Y-66600000D01*
X185900000Y-66600000D01*
G37*
G36*
X186700000Y-66600000D02*
G01*
X186700000Y-66200000D01*
X187100000Y-66200000D01*
X187100000Y-66600000D01*
X186700000Y-66600000D01*
G37*
G36*
X177900000Y-66200000D02*
G01*
X177900000Y-65800000D01*
X178300000Y-65800000D01*
X178300000Y-66200000D01*
X177900000Y-66200000D01*
G37*
G36*
X178700000Y-66200000D02*
G01*
X178700000Y-65800000D01*
X179100000Y-65800000D01*
X179100000Y-66200000D01*
X178700000Y-66200000D01*
G37*
G36*
X179100000Y-66200000D02*
G01*
X179100000Y-65800000D01*
X179500000Y-65800000D01*
X179500000Y-66200000D01*
X179100000Y-66200000D01*
G37*
G36*
X179900000Y-66200000D02*
G01*
X179900000Y-65800000D01*
X180300000Y-65800000D01*
X180300000Y-66200000D01*
X179900000Y-66200000D01*
G37*
G36*
X180300000Y-66200000D02*
G01*
X180300000Y-65800000D01*
X180700000Y-65800000D01*
X180700000Y-66200000D01*
X180300000Y-66200000D01*
G37*
G36*
X180700000Y-66200000D02*
G01*
X180700000Y-65800000D01*
X181100000Y-65800000D01*
X181100000Y-66200000D01*
X180700000Y-66200000D01*
G37*
G36*
X181100000Y-66200000D02*
G01*
X181100000Y-65800000D01*
X181500000Y-65800000D01*
X181500000Y-66200000D01*
X181100000Y-66200000D01*
G37*
G36*
X183100000Y-66200000D02*
G01*
X183100000Y-65800000D01*
X183500000Y-65800000D01*
X183500000Y-66200000D01*
X183100000Y-66200000D01*
G37*
G36*
X183500000Y-66200000D02*
G01*
X183500000Y-65800000D01*
X183900000Y-65800000D01*
X183900000Y-66200000D01*
X183500000Y-66200000D01*
G37*
G36*
X184300000Y-66200000D02*
G01*
X184300000Y-65800000D01*
X184700000Y-65800000D01*
X184700000Y-66200000D01*
X184300000Y-66200000D01*
G37*
G36*
X184700000Y-66200000D02*
G01*
X184700000Y-65800000D01*
X185100000Y-65800000D01*
X185100000Y-66200000D01*
X184700000Y-66200000D01*
G37*
G36*
X185100000Y-66200000D02*
G01*
X185100000Y-65800000D01*
X185500000Y-65800000D01*
X185500000Y-66200000D01*
X185100000Y-66200000D01*
G37*
G36*
X185500000Y-66200000D02*
G01*
X185500000Y-65800000D01*
X185900000Y-65800000D01*
X185900000Y-66200000D01*
X185500000Y-66200000D01*
G37*
G36*
X185900000Y-66200000D02*
G01*
X185900000Y-65800000D01*
X186300000Y-65800000D01*
X186300000Y-66200000D01*
X185900000Y-66200000D01*
G37*
G36*
X186700000Y-66200000D02*
G01*
X186700000Y-65800000D01*
X187100000Y-65800000D01*
X187100000Y-66200000D01*
X186700000Y-66200000D01*
G37*
G36*
X177900000Y-65800000D02*
G01*
X177900000Y-65400000D01*
X178300000Y-65400000D01*
X178300000Y-65800000D01*
X177900000Y-65800000D01*
G37*
G36*
X178300000Y-65800000D02*
G01*
X178300000Y-65400000D01*
X178700000Y-65400000D01*
X178700000Y-65800000D01*
X178300000Y-65800000D01*
G37*
G36*
X179500000Y-65800000D02*
G01*
X179500000Y-65400000D01*
X179900000Y-65400000D01*
X179900000Y-65800000D01*
X179500000Y-65800000D01*
G37*
G36*
X180300000Y-65800000D02*
G01*
X180300000Y-65400000D01*
X180700000Y-65400000D01*
X180700000Y-65800000D01*
X180300000Y-65800000D01*
G37*
G36*
X181100000Y-65800000D02*
G01*
X181100000Y-65400000D01*
X181500000Y-65400000D01*
X181500000Y-65800000D01*
X181100000Y-65800000D01*
G37*
G36*
X181500000Y-65800000D02*
G01*
X181500000Y-65400000D01*
X181900000Y-65400000D01*
X181900000Y-65800000D01*
X181500000Y-65800000D01*
G37*
G36*
X181900000Y-65800000D02*
G01*
X181900000Y-65400000D01*
X182300000Y-65400000D01*
X182300000Y-65800000D01*
X181900000Y-65800000D01*
G37*
G36*
X182300000Y-65800000D02*
G01*
X182300000Y-65400000D01*
X182700000Y-65400000D01*
X182700000Y-65800000D01*
X182300000Y-65800000D01*
G37*
G36*
X182700000Y-65800000D02*
G01*
X182700000Y-65400000D01*
X183100000Y-65400000D01*
X183100000Y-65800000D01*
X182700000Y-65800000D01*
G37*
G36*
X183500000Y-65800000D02*
G01*
X183500000Y-65400000D01*
X183900000Y-65400000D01*
X183900000Y-65800000D01*
X183500000Y-65800000D01*
G37*
G36*
X186700000Y-65800000D02*
G01*
X186700000Y-65400000D01*
X187100000Y-65400000D01*
X187100000Y-65800000D01*
X186700000Y-65800000D01*
G37*
G36*
X177900000Y-65400000D02*
G01*
X177900000Y-65000000D01*
X178300000Y-65000000D01*
X178300000Y-65400000D01*
X177900000Y-65400000D01*
G37*
G36*
X179900000Y-65400000D02*
G01*
X179900000Y-65000000D01*
X180300000Y-65000000D01*
X180300000Y-65400000D01*
X179900000Y-65400000D01*
G37*
G36*
X180700000Y-65400000D02*
G01*
X180700000Y-65000000D01*
X181100000Y-65000000D01*
X181100000Y-65400000D01*
X180700000Y-65400000D01*
G37*
G36*
X181500000Y-65400000D02*
G01*
X181500000Y-65000000D01*
X181900000Y-65000000D01*
X181900000Y-65400000D01*
X181500000Y-65400000D01*
G37*
G36*
X182700000Y-65400000D02*
G01*
X182700000Y-65000000D01*
X183100000Y-65000000D01*
X183100000Y-65400000D01*
X182700000Y-65400000D01*
G37*
G36*
X183500000Y-65400000D02*
G01*
X183500000Y-65000000D01*
X183900000Y-65000000D01*
X183900000Y-65400000D01*
X183500000Y-65400000D01*
G37*
G36*
X183900000Y-65400000D02*
G01*
X183900000Y-65000000D01*
X184300000Y-65000000D01*
X184300000Y-65400000D01*
X183900000Y-65400000D01*
G37*
G36*
X184300000Y-65400000D02*
G01*
X184300000Y-65000000D01*
X184700000Y-65000000D01*
X184700000Y-65400000D01*
X184300000Y-65400000D01*
G37*
G36*
X184700000Y-65400000D02*
G01*
X184700000Y-65000000D01*
X185100000Y-65000000D01*
X185100000Y-65400000D01*
X184700000Y-65400000D01*
G37*
G36*
X185100000Y-65400000D02*
G01*
X185100000Y-65000000D01*
X185500000Y-65000000D01*
X185500000Y-65400000D01*
X185100000Y-65400000D01*
G37*
G36*
X185500000Y-65400000D02*
G01*
X185500000Y-65000000D01*
X185900000Y-65000000D01*
X185900000Y-65400000D01*
X185500000Y-65400000D01*
G37*
G36*
X185900000Y-65400000D02*
G01*
X185900000Y-65000000D01*
X186300000Y-65000000D01*
X186300000Y-65400000D01*
X185900000Y-65400000D01*
G37*
G36*
X186300000Y-65400000D02*
G01*
X186300000Y-65000000D01*
X186700000Y-65000000D01*
X186700000Y-65400000D01*
X186300000Y-65400000D01*
G37*
G36*
X186700000Y-65400000D02*
G01*
X186700000Y-65000000D01*
X187100000Y-65000000D01*
X187100000Y-65400000D01*
X186700000Y-65400000D01*
G37*
G36*
X177900000Y-65000000D02*
G01*
X177900000Y-64600000D01*
X178300000Y-64600000D01*
X178300000Y-65000000D01*
X177900000Y-65000000D01*
G37*
G36*
X179100000Y-65000000D02*
G01*
X179100000Y-64600000D01*
X179500000Y-64600000D01*
X179500000Y-65000000D01*
X179100000Y-65000000D01*
G37*
G36*
X179900000Y-65000000D02*
G01*
X179900000Y-64600000D01*
X180300000Y-64600000D01*
X180300000Y-65000000D01*
X179900000Y-65000000D01*
G37*
G36*
X181100000Y-65000000D02*
G01*
X181100000Y-64600000D01*
X181500000Y-64600000D01*
X181500000Y-65000000D01*
X181100000Y-65000000D01*
G37*
G36*
X181900000Y-65000000D02*
G01*
X181900000Y-64600000D01*
X182300000Y-64600000D01*
X182300000Y-65000000D01*
X181900000Y-65000000D01*
G37*
G36*
X182300000Y-65000000D02*
G01*
X182300000Y-64600000D01*
X182700000Y-64600000D01*
X182700000Y-65000000D01*
X182300000Y-65000000D01*
G37*
G36*
X182700000Y-65000000D02*
G01*
X182700000Y-64600000D01*
X183100000Y-64600000D01*
X183100000Y-65000000D01*
X182700000Y-65000000D01*
G37*
G36*
X183100000Y-65000000D02*
G01*
X183100000Y-64600000D01*
X183500000Y-64600000D01*
X183500000Y-65000000D01*
X183100000Y-65000000D01*
G37*
G36*
X183500000Y-65000000D02*
G01*
X183500000Y-64600000D01*
X183900000Y-64600000D01*
X183900000Y-65000000D01*
X183500000Y-65000000D01*
G37*
G36*
X184700000Y-65000000D02*
G01*
X184700000Y-64600000D01*
X185100000Y-64600000D01*
X185100000Y-65000000D01*
X184700000Y-65000000D01*
G37*
G36*
X185100000Y-65000000D02*
G01*
X185100000Y-64600000D01*
X185500000Y-64600000D01*
X185500000Y-65000000D01*
X185100000Y-65000000D01*
G37*
G36*
X185500000Y-65000000D02*
G01*
X185500000Y-64600000D01*
X185900000Y-64600000D01*
X185900000Y-65000000D01*
X185500000Y-65000000D01*
G37*
G36*
X185900000Y-65000000D02*
G01*
X185900000Y-64600000D01*
X186300000Y-64600000D01*
X186300000Y-65000000D01*
X185900000Y-65000000D01*
G37*
G36*
X186300000Y-65000000D02*
G01*
X186300000Y-64600000D01*
X186700000Y-64600000D01*
X186700000Y-65000000D01*
X186300000Y-65000000D01*
G37*
G36*
X186700000Y-65000000D02*
G01*
X186700000Y-64600000D01*
X187100000Y-64600000D01*
X187100000Y-65000000D01*
X186700000Y-65000000D01*
G37*
G36*
X177900000Y-64600000D02*
G01*
X177900000Y-64200000D01*
X178300000Y-64200000D01*
X178300000Y-64600000D01*
X177900000Y-64600000D01*
G37*
G36*
X178700000Y-64600000D02*
G01*
X178700000Y-64200000D01*
X179100000Y-64200000D01*
X179100000Y-64600000D01*
X178700000Y-64600000D01*
G37*
G36*
X179100000Y-64600000D02*
G01*
X179100000Y-64200000D01*
X179500000Y-64200000D01*
X179500000Y-64600000D01*
X179100000Y-64600000D01*
G37*
G36*
X179500000Y-64600000D02*
G01*
X179500000Y-64200000D01*
X179900000Y-64200000D01*
X179900000Y-64600000D01*
X179500000Y-64600000D01*
G37*
G36*
X180300000Y-64600000D02*
G01*
X180300000Y-64200000D01*
X180700000Y-64200000D01*
X180700000Y-64600000D01*
X180300000Y-64600000D01*
G37*
G36*
X181100000Y-64600000D02*
G01*
X181100000Y-64200000D01*
X181500000Y-64200000D01*
X181500000Y-64600000D01*
X181100000Y-64600000D01*
G37*
G36*
X181500000Y-64600000D02*
G01*
X181500000Y-64200000D01*
X181900000Y-64200000D01*
X181900000Y-64600000D01*
X181500000Y-64600000D01*
G37*
G36*
X182300000Y-64600000D02*
G01*
X182300000Y-64200000D01*
X182700000Y-64200000D01*
X182700000Y-64600000D01*
X182300000Y-64600000D01*
G37*
G36*
X183900000Y-64600000D02*
G01*
X183900000Y-64200000D01*
X184300000Y-64200000D01*
X184300000Y-64600000D01*
X183900000Y-64600000D01*
G37*
G36*
X184300000Y-64600000D02*
G01*
X184300000Y-64200000D01*
X184700000Y-64200000D01*
X184700000Y-64600000D01*
X184300000Y-64600000D01*
G37*
G36*
X184700000Y-64600000D02*
G01*
X184700000Y-64200000D01*
X185100000Y-64200000D01*
X185100000Y-64600000D01*
X184700000Y-64600000D01*
G37*
G36*
X185500000Y-64600000D02*
G01*
X185500000Y-64200000D01*
X185900000Y-64200000D01*
X185900000Y-64600000D01*
X185500000Y-64600000D01*
G37*
G36*
X186700000Y-64600000D02*
G01*
X186700000Y-64200000D01*
X187100000Y-64200000D01*
X187100000Y-64600000D01*
X186700000Y-64600000D01*
G37*
G36*
X177900000Y-64200000D02*
G01*
X177900000Y-63800000D01*
X178300000Y-63800000D01*
X178300000Y-64200000D01*
X177900000Y-64200000D01*
G37*
G36*
X178700000Y-64200000D02*
G01*
X178700000Y-63800000D01*
X179100000Y-63800000D01*
X179100000Y-64200000D01*
X178700000Y-64200000D01*
G37*
G36*
X179500000Y-64200000D02*
G01*
X179500000Y-63800000D01*
X179900000Y-63800000D01*
X179900000Y-64200000D01*
X179500000Y-64200000D01*
G37*
G36*
X179900000Y-64200000D02*
G01*
X179900000Y-63800000D01*
X180300000Y-63800000D01*
X180300000Y-64200000D01*
X179900000Y-64200000D01*
G37*
G36*
X180700000Y-64200000D02*
G01*
X180700000Y-63800000D01*
X181100000Y-63800000D01*
X181100000Y-64200000D01*
X180700000Y-64200000D01*
G37*
G36*
X181900000Y-64200000D02*
G01*
X181900000Y-63800000D01*
X182300000Y-63800000D01*
X182300000Y-64200000D01*
X181900000Y-64200000D01*
G37*
G36*
X182700000Y-64200000D02*
G01*
X182700000Y-63800000D01*
X183100000Y-63800000D01*
X183100000Y-64200000D01*
X182700000Y-64200000D01*
G37*
G36*
X183100000Y-64200000D02*
G01*
X183100000Y-63800000D01*
X183500000Y-63800000D01*
X183500000Y-64200000D01*
X183100000Y-64200000D01*
G37*
G36*
X184300000Y-64200000D02*
G01*
X184300000Y-63800000D01*
X184700000Y-63800000D01*
X184700000Y-64200000D01*
X184300000Y-64200000D01*
G37*
G36*
X184700000Y-64200000D02*
G01*
X184700000Y-63800000D01*
X185100000Y-63800000D01*
X185100000Y-64200000D01*
X184700000Y-64200000D01*
G37*
G36*
X185100000Y-64200000D02*
G01*
X185100000Y-63800000D01*
X185500000Y-63800000D01*
X185500000Y-64200000D01*
X185100000Y-64200000D01*
G37*
G36*
X185500000Y-64200000D02*
G01*
X185500000Y-63800000D01*
X185900000Y-63800000D01*
X185900000Y-64200000D01*
X185500000Y-64200000D01*
G37*
G36*
X186700000Y-64200000D02*
G01*
X186700000Y-63800000D01*
X187100000Y-63800000D01*
X187100000Y-64200000D01*
X186700000Y-64200000D01*
G37*
G36*
X177900000Y-63800000D02*
G01*
X177900000Y-63400000D01*
X178300000Y-63400000D01*
X178300000Y-63800000D01*
X177900000Y-63800000D01*
G37*
G36*
X178700000Y-63800000D02*
G01*
X178700000Y-63400000D01*
X179100000Y-63400000D01*
X179100000Y-63800000D01*
X178700000Y-63800000D01*
G37*
G36*
X179900000Y-63800000D02*
G01*
X179900000Y-63400000D01*
X180300000Y-63400000D01*
X180300000Y-63800000D01*
X179900000Y-63800000D01*
G37*
G36*
X180300000Y-63800000D02*
G01*
X180300000Y-63400000D01*
X180700000Y-63400000D01*
X180700000Y-63800000D01*
X180300000Y-63800000D01*
G37*
G36*
X180700000Y-63800000D02*
G01*
X180700000Y-63400000D01*
X181100000Y-63400000D01*
X181100000Y-63800000D01*
X180700000Y-63800000D01*
G37*
G36*
X181100000Y-63800000D02*
G01*
X181100000Y-63400000D01*
X181500000Y-63400000D01*
X181500000Y-63800000D01*
X181100000Y-63800000D01*
G37*
G36*
X181500000Y-63800000D02*
G01*
X181500000Y-63400000D01*
X181900000Y-63400000D01*
X181900000Y-63800000D01*
X181500000Y-63800000D01*
G37*
G36*
X181900000Y-63800000D02*
G01*
X181900000Y-63400000D01*
X182300000Y-63400000D01*
X182300000Y-63800000D01*
X181900000Y-63800000D01*
G37*
G36*
X182300000Y-63800000D02*
G01*
X182300000Y-63400000D01*
X182700000Y-63400000D01*
X182700000Y-63800000D01*
X182300000Y-63800000D01*
G37*
G36*
X183500000Y-63800000D02*
G01*
X183500000Y-63400000D01*
X183900000Y-63400000D01*
X183900000Y-63800000D01*
X183500000Y-63800000D01*
G37*
G36*
X183900000Y-63800000D02*
G01*
X183900000Y-63400000D01*
X184300000Y-63400000D01*
X184300000Y-63800000D01*
X183900000Y-63800000D01*
G37*
G36*
X184700000Y-63800000D02*
G01*
X184700000Y-63400000D01*
X185100000Y-63400000D01*
X185100000Y-63800000D01*
X184700000Y-63800000D01*
G37*
G36*
X185500000Y-63800000D02*
G01*
X185500000Y-63400000D01*
X185900000Y-63400000D01*
X185900000Y-63800000D01*
X185500000Y-63800000D01*
G37*
G36*
X186700000Y-63800000D02*
G01*
X186700000Y-63400000D01*
X187100000Y-63400000D01*
X187100000Y-63800000D01*
X186700000Y-63800000D01*
G37*
G36*
X177900000Y-63400000D02*
G01*
X177900000Y-63000000D01*
X178300000Y-63000000D01*
X178300000Y-63400000D01*
X177900000Y-63400000D01*
G37*
G36*
X178300000Y-63400000D02*
G01*
X178300000Y-63000000D01*
X178700000Y-63000000D01*
X178700000Y-63400000D01*
X178300000Y-63400000D01*
G37*
G36*
X179500000Y-63400000D02*
G01*
X179500000Y-63000000D01*
X179900000Y-63000000D01*
X179900000Y-63400000D01*
X179500000Y-63400000D01*
G37*
G36*
X181100000Y-63400000D02*
G01*
X181100000Y-63000000D01*
X181500000Y-63000000D01*
X181500000Y-63400000D01*
X181100000Y-63400000D01*
G37*
G36*
X181500000Y-63400000D02*
G01*
X181500000Y-63000000D01*
X181900000Y-63000000D01*
X181900000Y-63400000D01*
X181500000Y-63400000D01*
G37*
G36*
X181900000Y-63400000D02*
G01*
X181900000Y-63000000D01*
X182300000Y-63000000D01*
X182300000Y-63400000D01*
X181900000Y-63400000D01*
G37*
G36*
X183100000Y-63400000D02*
G01*
X183100000Y-63000000D01*
X183500000Y-63000000D01*
X183500000Y-63400000D01*
X183100000Y-63400000D01*
G37*
G36*
X184300000Y-63400000D02*
G01*
X184300000Y-63000000D01*
X184700000Y-63000000D01*
X184700000Y-63400000D01*
X184300000Y-63400000D01*
G37*
G36*
X184700000Y-63400000D02*
G01*
X184700000Y-63000000D01*
X185100000Y-63000000D01*
X185100000Y-63400000D01*
X184700000Y-63400000D01*
G37*
G36*
X185500000Y-63400000D02*
G01*
X185500000Y-63000000D01*
X185900000Y-63000000D01*
X185900000Y-63400000D01*
X185500000Y-63400000D01*
G37*
G36*
X186700000Y-63400000D02*
G01*
X186700000Y-63000000D01*
X187100000Y-63000000D01*
X187100000Y-63400000D01*
X186700000Y-63400000D01*
G37*
G36*
X177900000Y-63000000D02*
G01*
X177900000Y-62600000D01*
X178300000Y-62600000D01*
X178300000Y-63000000D01*
X177900000Y-63000000D01*
G37*
G36*
X178300000Y-63000000D02*
G01*
X178300000Y-62600000D01*
X178700000Y-62600000D01*
X178700000Y-63000000D01*
X178300000Y-63000000D01*
G37*
G36*
X178700000Y-63000000D02*
G01*
X178700000Y-62600000D01*
X179100000Y-62600000D01*
X179100000Y-63000000D01*
X178700000Y-63000000D01*
G37*
G36*
X179100000Y-63000000D02*
G01*
X179100000Y-62600000D01*
X179500000Y-62600000D01*
X179500000Y-63000000D01*
X179100000Y-63000000D01*
G37*
G36*
X179500000Y-63000000D02*
G01*
X179500000Y-62600000D01*
X179900000Y-62600000D01*
X179900000Y-63000000D01*
X179500000Y-63000000D01*
G37*
G36*
X179900000Y-63000000D02*
G01*
X179900000Y-62600000D01*
X180300000Y-62600000D01*
X180300000Y-63000000D01*
X179900000Y-63000000D01*
G37*
G36*
X180300000Y-63000000D02*
G01*
X180300000Y-62600000D01*
X180700000Y-62600000D01*
X180700000Y-63000000D01*
X180300000Y-63000000D01*
G37*
G36*
X180700000Y-63000000D02*
G01*
X180700000Y-62600000D01*
X181100000Y-62600000D01*
X181100000Y-63000000D01*
X180700000Y-63000000D01*
G37*
G36*
X181100000Y-63000000D02*
G01*
X181100000Y-62600000D01*
X181500000Y-62600000D01*
X181500000Y-63000000D01*
X181100000Y-63000000D01*
G37*
G36*
X183500000Y-63000000D02*
G01*
X183500000Y-62600000D01*
X183900000Y-62600000D01*
X183900000Y-63000000D01*
X183500000Y-63000000D01*
G37*
G36*
X183900000Y-63000000D02*
G01*
X183900000Y-62600000D01*
X184300000Y-62600000D01*
X184300000Y-63000000D01*
X183900000Y-63000000D01*
G37*
G36*
X184300000Y-63000000D02*
G01*
X184300000Y-62600000D01*
X184700000Y-62600000D01*
X184700000Y-63000000D01*
X184300000Y-63000000D01*
G37*
G36*
X184700000Y-63000000D02*
G01*
X184700000Y-62600000D01*
X185100000Y-62600000D01*
X185100000Y-63000000D01*
X184700000Y-63000000D01*
G37*
G36*
X185100000Y-63000000D02*
G01*
X185100000Y-62600000D01*
X185500000Y-62600000D01*
X185500000Y-63000000D01*
X185100000Y-63000000D01*
G37*
G36*
X185500000Y-63000000D02*
G01*
X185500000Y-62600000D01*
X185900000Y-62600000D01*
X185900000Y-63000000D01*
X185500000Y-63000000D01*
G37*
G36*
X185900000Y-63000000D02*
G01*
X185900000Y-62600000D01*
X186300000Y-62600000D01*
X186300000Y-63000000D01*
X185900000Y-63000000D01*
G37*
G36*
X186300000Y-63000000D02*
G01*
X186300000Y-62600000D01*
X186700000Y-62600000D01*
X186700000Y-63000000D01*
X186300000Y-63000000D01*
G37*
G36*
X186700000Y-63000000D02*
G01*
X186700000Y-62600000D01*
X187100000Y-62600000D01*
X187100000Y-63000000D01*
X186700000Y-63000000D01*
G37*
G36*
X177900000Y-62600000D02*
G01*
X177900000Y-62200000D01*
X178300000Y-62200000D01*
X178300000Y-62600000D01*
X177900000Y-62600000D01*
G37*
G36*
X181100000Y-62600000D02*
G01*
X181100000Y-62200000D01*
X181500000Y-62200000D01*
X181500000Y-62600000D01*
X181100000Y-62600000D01*
G37*
G36*
X181900000Y-62600000D02*
G01*
X181900000Y-62200000D01*
X182300000Y-62200000D01*
X182300000Y-62600000D01*
X181900000Y-62600000D01*
G37*
G36*
X182700000Y-62600000D02*
G01*
X182700000Y-62200000D01*
X183100000Y-62200000D01*
X183100000Y-62600000D01*
X182700000Y-62600000D01*
G37*
G36*
X183500000Y-62600000D02*
G01*
X183500000Y-62200000D01*
X183900000Y-62200000D01*
X183900000Y-62600000D01*
X183500000Y-62600000D01*
G37*
G36*
X186700000Y-62600000D02*
G01*
X186700000Y-62200000D01*
X187100000Y-62200000D01*
X187100000Y-62600000D01*
X186700000Y-62600000D01*
G37*
G36*
X177900000Y-62200000D02*
G01*
X177900000Y-61800000D01*
X178300000Y-61800000D01*
X178300000Y-62200000D01*
X177900000Y-62200000D01*
G37*
G36*
X178700000Y-62200000D02*
G01*
X178700000Y-61800000D01*
X179100000Y-61800000D01*
X179100000Y-62200000D01*
X178700000Y-62200000D01*
G37*
G36*
X179100000Y-62200000D02*
G01*
X179100000Y-61800000D01*
X179500000Y-61800000D01*
X179500000Y-62200000D01*
X179100000Y-62200000D01*
G37*
G36*
X179500000Y-62200000D02*
G01*
X179500000Y-61800000D01*
X179900000Y-61800000D01*
X179900000Y-62200000D01*
X179500000Y-62200000D01*
G37*
G36*
X179900000Y-62200000D02*
G01*
X179900000Y-61800000D01*
X180300000Y-61800000D01*
X180300000Y-62200000D01*
X179900000Y-62200000D01*
G37*
G36*
X180300000Y-62200000D02*
G01*
X180300000Y-61800000D01*
X180700000Y-61800000D01*
X180700000Y-62200000D01*
X180300000Y-62200000D01*
G37*
G36*
X181100000Y-62200000D02*
G01*
X181100000Y-61800000D01*
X181500000Y-61800000D01*
X181500000Y-62200000D01*
X181100000Y-62200000D01*
G37*
G36*
X182300000Y-62200000D02*
G01*
X182300000Y-61800000D01*
X182700000Y-61800000D01*
X182700000Y-62200000D01*
X182300000Y-62200000D01*
G37*
G36*
X182700000Y-62200000D02*
G01*
X182700000Y-61800000D01*
X183100000Y-61800000D01*
X183100000Y-62200000D01*
X182700000Y-62200000D01*
G37*
G36*
X183500000Y-62200000D02*
G01*
X183500000Y-61800000D01*
X183900000Y-61800000D01*
X183900000Y-62200000D01*
X183500000Y-62200000D01*
G37*
G36*
X184300000Y-62200000D02*
G01*
X184300000Y-61800000D01*
X184700000Y-61800000D01*
X184700000Y-62200000D01*
X184300000Y-62200000D01*
G37*
G36*
X184700000Y-62200000D02*
G01*
X184700000Y-61800000D01*
X185100000Y-61800000D01*
X185100000Y-62200000D01*
X184700000Y-62200000D01*
G37*
G36*
X185100000Y-62200000D02*
G01*
X185100000Y-61800000D01*
X185500000Y-61800000D01*
X185500000Y-62200000D01*
X185100000Y-62200000D01*
G37*
G36*
X185500000Y-62200000D02*
G01*
X185500000Y-61800000D01*
X185900000Y-61800000D01*
X185900000Y-62200000D01*
X185500000Y-62200000D01*
G37*
G36*
X185900000Y-62200000D02*
G01*
X185900000Y-61800000D01*
X186300000Y-61800000D01*
X186300000Y-62200000D01*
X185900000Y-62200000D01*
G37*
G36*
X186700000Y-62200000D02*
G01*
X186700000Y-61800000D01*
X187100000Y-61800000D01*
X187100000Y-62200000D01*
X186700000Y-62200000D01*
G37*
G36*
X177900000Y-61800000D02*
G01*
X177900000Y-61400000D01*
X178300000Y-61400000D01*
X178300000Y-61800000D01*
X177900000Y-61800000D01*
G37*
G36*
X178700000Y-61800000D02*
G01*
X178700000Y-61400000D01*
X179100000Y-61400000D01*
X179100000Y-61800000D01*
X178700000Y-61800000D01*
G37*
G36*
X180300000Y-61800000D02*
G01*
X180300000Y-61400000D01*
X180700000Y-61400000D01*
X180700000Y-61800000D01*
X180300000Y-61800000D01*
G37*
G36*
X181100000Y-61800000D02*
G01*
X181100000Y-61400000D01*
X181500000Y-61400000D01*
X181500000Y-61800000D01*
X181100000Y-61800000D01*
G37*
G36*
X181900000Y-61800000D02*
G01*
X181900000Y-61400000D01*
X182300000Y-61400000D01*
X182300000Y-61800000D01*
X181900000Y-61800000D01*
G37*
G36*
X182300000Y-61800000D02*
G01*
X182300000Y-61400000D01*
X182700000Y-61400000D01*
X182700000Y-61800000D01*
X182300000Y-61800000D01*
G37*
G36*
X182700000Y-61800000D02*
G01*
X182700000Y-61400000D01*
X183100000Y-61400000D01*
X183100000Y-61800000D01*
X182700000Y-61800000D01*
G37*
G36*
X183500000Y-61800000D02*
G01*
X183500000Y-61400000D01*
X183900000Y-61400000D01*
X183900000Y-61800000D01*
X183500000Y-61800000D01*
G37*
G36*
X184300000Y-61800000D02*
G01*
X184300000Y-61400000D01*
X184700000Y-61400000D01*
X184700000Y-61800000D01*
X184300000Y-61800000D01*
G37*
G36*
X185900000Y-61800000D02*
G01*
X185900000Y-61400000D01*
X186300000Y-61400000D01*
X186300000Y-61800000D01*
X185900000Y-61800000D01*
G37*
G36*
X186700000Y-61800000D02*
G01*
X186700000Y-61400000D01*
X187100000Y-61400000D01*
X187100000Y-61800000D01*
X186700000Y-61800000D01*
G37*
G36*
X177900000Y-61400000D02*
G01*
X177900000Y-61000000D01*
X178300000Y-61000000D01*
X178300000Y-61400000D01*
X177900000Y-61400000D01*
G37*
G36*
X178700000Y-61400000D02*
G01*
X178700000Y-61000000D01*
X179100000Y-61000000D01*
X179100000Y-61400000D01*
X178700000Y-61400000D01*
G37*
G36*
X180300000Y-61400000D02*
G01*
X180300000Y-61000000D01*
X180700000Y-61000000D01*
X180700000Y-61400000D01*
X180300000Y-61400000D01*
G37*
G36*
X181100000Y-61400000D02*
G01*
X181100000Y-61000000D01*
X181500000Y-61000000D01*
X181500000Y-61400000D01*
X181100000Y-61400000D01*
G37*
G36*
X181500000Y-61400000D02*
G01*
X181500000Y-61000000D01*
X181900000Y-61000000D01*
X181900000Y-61400000D01*
X181500000Y-61400000D01*
G37*
G36*
X182300000Y-61400000D02*
G01*
X182300000Y-61000000D01*
X182700000Y-61000000D01*
X182700000Y-61400000D01*
X182300000Y-61400000D01*
G37*
G36*
X183100000Y-61400000D02*
G01*
X183100000Y-61000000D01*
X183500000Y-61000000D01*
X183500000Y-61400000D01*
X183100000Y-61400000D01*
G37*
G36*
X183500000Y-61400000D02*
G01*
X183500000Y-61000000D01*
X183900000Y-61000000D01*
X183900000Y-61400000D01*
X183500000Y-61400000D01*
G37*
G36*
X184300000Y-61400000D02*
G01*
X184300000Y-61000000D01*
X184700000Y-61000000D01*
X184700000Y-61400000D01*
X184300000Y-61400000D01*
G37*
G36*
X185900000Y-61400000D02*
G01*
X185900000Y-61000000D01*
X186300000Y-61000000D01*
X186300000Y-61400000D01*
X185900000Y-61400000D01*
G37*
G36*
X186700000Y-61400000D02*
G01*
X186700000Y-61000000D01*
X187100000Y-61000000D01*
X187100000Y-61400000D01*
X186700000Y-61400000D01*
G37*
G36*
X177900000Y-61000000D02*
G01*
X177900000Y-60600000D01*
X178300000Y-60600000D01*
X178300000Y-61000000D01*
X177900000Y-61000000D01*
G37*
G36*
X178700000Y-61000000D02*
G01*
X178700000Y-60600000D01*
X179100000Y-60600000D01*
X179100000Y-61000000D01*
X178700000Y-61000000D01*
G37*
G36*
X180300000Y-61000000D02*
G01*
X180300000Y-60600000D01*
X180700000Y-60600000D01*
X180700000Y-61000000D01*
X180300000Y-61000000D01*
G37*
G36*
X181100000Y-61000000D02*
G01*
X181100000Y-60600000D01*
X181500000Y-60600000D01*
X181500000Y-61000000D01*
X181100000Y-61000000D01*
G37*
G36*
X181900000Y-61000000D02*
G01*
X181900000Y-60600000D01*
X182300000Y-60600000D01*
X182300000Y-61000000D01*
X181900000Y-61000000D01*
G37*
G36*
X182300000Y-61000000D02*
G01*
X182300000Y-60600000D01*
X182700000Y-60600000D01*
X182700000Y-61000000D01*
X182300000Y-61000000D01*
G37*
G36*
X183500000Y-61000000D02*
G01*
X183500000Y-60600000D01*
X183900000Y-60600000D01*
X183900000Y-61000000D01*
X183500000Y-61000000D01*
G37*
G36*
X184300000Y-61000000D02*
G01*
X184300000Y-60600000D01*
X184700000Y-60600000D01*
X184700000Y-61000000D01*
X184300000Y-61000000D01*
G37*
G36*
X185900000Y-61000000D02*
G01*
X185900000Y-60600000D01*
X186300000Y-60600000D01*
X186300000Y-61000000D01*
X185900000Y-61000000D01*
G37*
G36*
X186700000Y-61000000D02*
G01*
X186700000Y-60600000D01*
X187100000Y-60600000D01*
X187100000Y-61000000D01*
X186700000Y-61000000D01*
G37*
G36*
X177900000Y-60600000D02*
G01*
X177900000Y-60200000D01*
X178300000Y-60200000D01*
X178300000Y-60600000D01*
X177900000Y-60600000D01*
G37*
G36*
X178700000Y-60600000D02*
G01*
X178700000Y-60200000D01*
X179100000Y-60200000D01*
X179100000Y-60600000D01*
X178700000Y-60600000D01*
G37*
G36*
X179100000Y-60600000D02*
G01*
X179100000Y-60200000D01*
X179500000Y-60200000D01*
X179500000Y-60600000D01*
X179100000Y-60600000D01*
G37*
G36*
X179500000Y-60600000D02*
G01*
X179500000Y-60200000D01*
X179900000Y-60200000D01*
X179900000Y-60600000D01*
X179500000Y-60600000D01*
G37*
G36*
X179900000Y-60600000D02*
G01*
X179900000Y-60200000D01*
X180300000Y-60200000D01*
X180300000Y-60600000D01*
X179900000Y-60600000D01*
G37*
G36*
X180300000Y-60600000D02*
G01*
X180300000Y-60200000D01*
X180700000Y-60200000D01*
X180700000Y-60600000D01*
X180300000Y-60600000D01*
G37*
G36*
X181100000Y-60600000D02*
G01*
X181100000Y-60200000D01*
X181500000Y-60200000D01*
X181500000Y-60600000D01*
X181100000Y-60600000D01*
G37*
G36*
X181500000Y-60600000D02*
G01*
X181500000Y-60200000D01*
X181900000Y-60200000D01*
X181900000Y-60600000D01*
X181500000Y-60600000D01*
G37*
G36*
X182300000Y-60600000D02*
G01*
X182300000Y-60200000D01*
X182700000Y-60200000D01*
X182700000Y-60600000D01*
X182300000Y-60600000D01*
G37*
G36*
X183500000Y-60600000D02*
G01*
X183500000Y-60200000D01*
X183900000Y-60200000D01*
X183900000Y-60600000D01*
X183500000Y-60600000D01*
G37*
G36*
X184300000Y-60600000D02*
G01*
X184300000Y-60200000D01*
X184700000Y-60200000D01*
X184700000Y-60600000D01*
X184300000Y-60600000D01*
G37*
G36*
X184700000Y-60600000D02*
G01*
X184700000Y-60200000D01*
X185100000Y-60200000D01*
X185100000Y-60600000D01*
X184700000Y-60600000D01*
G37*
G36*
X185100000Y-60600000D02*
G01*
X185100000Y-60200000D01*
X185500000Y-60200000D01*
X185500000Y-60600000D01*
X185100000Y-60600000D01*
G37*
G36*
X185500000Y-60600000D02*
G01*
X185500000Y-60200000D01*
X185900000Y-60200000D01*
X185900000Y-60600000D01*
X185500000Y-60600000D01*
G37*
G36*
X185900000Y-60600000D02*
G01*
X185900000Y-60200000D01*
X186300000Y-60200000D01*
X186300000Y-60600000D01*
X185900000Y-60600000D01*
G37*
G36*
X186700000Y-60600000D02*
G01*
X186700000Y-60200000D01*
X187100000Y-60200000D01*
X187100000Y-60600000D01*
X186700000Y-60600000D01*
G37*
G36*
X177900000Y-60200000D02*
G01*
X177900000Y-59800000D01*
X178300000Y-59800000D01*
X178300000Y-60200000D01*
X177900000Y-60200000D01*
G37*
G36*
X181100000Y-60200000D02*
G01*
X181100000Y-59800000D01*
X181500000Y-59800000D01*
X181500000Y-60200000D01*
X181100000Y-60200000D01*
G37*
G36*
X182300000Y-60200000D02*
G01*
X182300000Y-59800000D01*
X182700000Y-59800000D01*
X182700000Y-60200000D01*
X182300000Y-60200000D01*
G37*
G36*
X183100000Y-60200000D02*
G01*
X183100000Y-59800000D01*
X183500000Y-59800000D01*
X183500000Y-60200000D01*
X183100000Y-60200000D01*
G37*
G36*
X183500000Y-60200000D02*
G01*
X183500000Y-59800000D01*
X183900000Y-59800000D01*
X183900000Y-60200000D01*
X183500000Y-60200000D01*
G37*
G36*
X186700000Y-60200000D02*
G01*
X186700000Y-59800000D01*
X187100000Y-59800000D01*
X187100000Y-60200000D01*
X186700000Y-60200000D01*
G37*
G36*
X177900000Y-59800000D02*
G01*
X177900000Y-59400000D01*
X178300000Y-59400000D01*
X178300000Y-59800000D01*
X177900000Y-59800000D01*
G37*
G36*
X178300000Y-59800000D02*
G01*
X178300000Y-59400000D01*
X178700000Y-59400000D01*
X178700000Y-59800000D01*
X178300000Y-59800000D01*
G37*
G36*
X178700000Y-59800000D02*
G01*
X178700000Y-59400000D01*
X179100000Y-59400000D01*
X179100000Y-59800000D01*
X178700000Y-59800000D01*
G37*
G36*
X179100000Y-59800000D02*
G01*
X179100000Y-59400000D01*
X179500000Y-59400000D01*
X179500000Y-59800000D01*
X179100000Y-59800000D01*
G37*
G36*
X179500000Y-59800000D02*
G01*
X179500000Y-59400000D01*
X179900000Y-59400000D01*
X179900000Y-59800000D01*
X179500000Y-59800000D01*
G37*
G36*
X179900000Y-59800000D02*
G01*
X179900000Y-59400000D01*
X180300000Y-59400000D01*
X180300000Y-59800000D01*
X179900000Y-59800000D01*
G37*
G36*
X180300000Y-59800000D02*
G01*
X180300000Y-59400000D01*
X180700000Y-59400000D01*
X180700000Y-59800000D01*
X180300000Y-59800000D01*
G37*
G36*
X180700000Y-59800000D02*
G01*
X180700000Y-59400000D01*
X181100000Y-59400000D01*
X181100000Y-59800000D01*
X180700000Y-59800000D01*
G37*
G36*
X181100000Y-59800000D02*
G01*
X181100000Y-59400000D01*
X181500000Y-59400000D01*
X181500000Y-59800000D01*
X181100000Y-59800000D01*
G37*
G36*
X181500000Y-59800000D02*
G01*
X181500000Y-59400000D01*
X181900000Y-59400000D01*
X181900000Y-59800000D01*
X181500000Y-59800000D01*
G37*
G36*
X181900000Y-59800000D02*
G01*
X181900000Y-59400000D01*
X182300000Y-59400000D01*
X182300000Y-59800000D01*
X181900000Y-59800000D01*
G37*
G36*
X182300000Y-59800000D02*
G01*
X182300000Y-59400000D01*
X182700000Y-59400000D01*
X182700000Y-59800000D01*
X182300000Y-59800000D01*
G37*
G36*
X182700000Y-59800000D02*
G01*
X182700000Y-59400000D01*
X183100000Y-59400000D01*
X183100000Y-59800000D01*
X182700000Y-59800000D01*
G37*
G36*
X183100000Y-59800000D02*
G01*
X183100000Y-59400000D01*
X183500000Y-59400000D01*
X183500000Y-59800000D01*
X183100000Y-59800000D01*
G37*
G36*
X183500000Y-59800000D02*
G01*
X183500000Y-59400000D01*
X183900000Y-59400000D01*
X183900000Y-59800000D01*
X183500000Y-59800000D01*
G37*
G36*
X183900000Y-59800000D02*
G01*
X183900000Y-59400000D01*
X184300000Y-59400000D01*
X184300000Y-59800000D01*
X183900000Y-59800000D01*
G37*
G36*
X184300000Y-59800000D02*
G01*
X184300000Y-59400000D01*
X184700000Y-59400000D01*
X184700000Y-59800000D01*
X184300000Y-59800000D01*
G37*
G36*
X184700000Y-59800000D02*
G01*
X184700000Y-59400000D01*
X185100000Y-59400000D01*
X185100000Y-59800000D01*
X184700000Y-59800000D01*
G37*
G36*
X185100000Y-59800000D02*
G01*
X185100000Y-59400000D01*
X185500000Y-59400000D01*
X185500000Y-59800000D01*
X185100000Y-59800000D01*
G37*
G36*
X185500000Y-59800000D02*
G01*
X185500000Y-59400000D01*
X185900000Y-59400000D01*
X185900000Y-59800000D01*
X185500000Y-59800000D01*
G37*
G36*
X185900000Y-59800000D02*
G01*
X185900000Y-59400000D01*
X186300000Y-59400000D01*
X186300000Y-59800000D01*
X185900000Y-59800000D01*
G37*
G36*
X186300000Y-59800000D02*
G01*
X186300000Y-59400000D01*
X186700000Y-59400000D01*
X186700000Y-59800000D01*
X186300000Y-59800000D01*
G37*
G36*
X186700000Y-59800000D02*
G01*
X186700000Y-59400000D01*
X187100000Y-59400000D01*
X187100000Y-59800000D01*
X186700000Y-59800000D01*
G37*
D14*
%TO.C,J14*%
X177358616Y-80216092D02*
X177358616Y-82876092D01*
X169678616Y-80216092D02*
X177358616Y-80216092D01*
X169678616Y-82876092D02*
X177358616Y-82876092D01*
X169678616Y-80216092D02*
X169678616Y-82876092D01*
X168408616Y-80216092D02*
X167078616Y-80216092D01*
X167078616Y-80216092D02*
X167078616Y-81546092D01*
%TO.C,J10*%
X177358616Y-82756092D02*
X177358616Y-87956092D01*
X169678616Y-82756092D02*
X177358616Y-82756092D01*
X167078616Y-87956092D02*
X177358616Y-87956092D01*
X169678616Y-82756092D02*
X169678616Y-85356092D01*
X169678616Y-85356092D02*
X167078616Y-85356092D01*
X167078616Y-85356092D02*
X167078616Y-87956092D01*
X168408616Y-82756092D02*
X167078616Y-82756092D01*
X167078616Y-82756092D02*
X167078616Y-84086092D01*
%TO.C,J11*%
X167078616Y-87836092D02*
X167078616Y-89166092D01*
X168408616Y-87836092D02*
X167078616Y-87836092D01*
X167078616Y-90436092D02*
X167078616Y-93036092D01*
X169678616Y-90436092D02*
X167078616Y-90436092D01*
X169678616Y-87836092D02*
X169678616Y-90436092D01*
X167078616Y-93036092D02*
X177358616Y-93036092D01*
X169678616Y-87836092D02*
X177358616Y-87836092D01*
X177358616Y-87836092D02*
X177358616Y-93036092D01*
%TO.C,J1*%
X159706000Y-119066000D02*
X162366000Y-119066000D01*
X159706000Y-126746000D02*
X159706000Y-119066000D01*
X162366000Y-126746000D02*
X162366000Y-119066000D01*
X159706000Y-126746000D02*
X162366000Y-126746000D01*
X159706000Y-128016000D02*
X159706000Y-129346000D01*
X159706000Y-129346000D02*
X161036000Y-129346000D01*
%TO.C,J2*%
X159706000Y-103826000D02*
X162366000Y-103826000D01*
X159706000Y-116586000D02*
X159706000Y-103826000D01*
X162366000Y-116586000D02*
X162366000Y-103826000D01*
X159706000Y-116586000D02*
X162366000Y-116586000D01*
X159706000Y-117856000D02*
X159706000Y-119186000D01*
X159706000Y-119186000D02*
X161036000Y-119186000D01*
%TO.C,J3*%
X159706000Y-103946000D02*
X161036000Y-103946000D01*
X159706000Y-102616000D02*
X159706000Y-103946000D01*
X159706000Y-101346000D02*
X162366000Y-101346000D01*
X162366000Y-101346000D02*
X162366000Y-93666000D01*
X159706000Y-101346000D02*
X159706000Y-93666000D01*
X159706000Y-93666000D02*
X162366000Y-93666000D01*
%TO.C,J4*%
X175066000Y-93666000D02*
X175066000Y-96326000D01*
X164846000Y-93666000D02*
X175066000Y-93666000D01*
X164846000Y-96326000D02*
X175066000Y-96326000D01*
X164846000Y-93666000D02*
X164846000Y-96326000D01*
X163576000Y-93666000D02*
X162246000Y-93666000D01*
X162246000Y-93666000D02*
X162246000Y-94996000D01*
%TO.C,J5*%
X153730000Y-117535000D02*
X153730000Y-116205000D01*
X152400000Y-117535000D02*
X153730000Y-117535000D01*
X151130000Y-117535000D02*
X151130000Y-114875000D01*
X151130000Y-114875000D02*
X140910000Y-114875000D01*
X151130000Y-117535000D02*
X140910000Y-117535000D01*
X140910000Y-117535000D02*
X140910000Y-114875000D01*
%TO.C,J6*%
X177606000Y-129346000D02*
X174946000Y-129346000D01*
X177606000Y-124206000D02*
X177606000Y-129346000D01*
X174946000Y-124206000D02*
X174946000Y-129346000D01*
X177606000Y-124206000D02*
X174946000Y-124206000D01*
X177606000Y-122936000D02*
X177606000Y-121606000D01*
X177606000Y-121606000D02*
X176276000Y-121606000D01*
%TO.C,J7*%
X177606000Y-121726000D02*
X174946000Y-121726000D01*
X177606000Y-106426000D02*
X177606000Y-121726000D01*
X174946000Y-106426000D02*
X174946000Y-121726000D01*
X177606000Y-106426000D02*
X174946000Y-106426000D01*
X177606000Y-105156000D02*
X177606000Y-103826000D01*
X177606000Y-103826000D02*
X176276000Y-103826000D01*
%TO.C,J8*%
X177606000Y-103946000D02*
X174946000Y-103946000D01*
X177606000Y-96266000D02*
X177606000Y-103946000D01*
X174946000Y-96266000D02*
X174946000Y-103946000D01*
X177606000Y-96266000D02*
X174946000Y-96266000D01*
X177606000Y-94996000D02*
X177606000Y-93666000D01*
X177606000Y-93666000D02*
X176276000Y-93666000D01*
%TO.C,J15*%
X135315000Y-98485000D02*
X132655000Y-98485000D01*
X135315000Y-95885000D02*
X135315000Y-98485000D01*
X132655000Y-95885000D02*
X132655000Y-98485000D01*
X135315000Y-95885000D02*
X132655000Y-95885000D01*
X135315000Y-94615000D02*
X135315000Y-93285000D01*
X135315000Y-93285000D02*
X133985000Y-93285000D01*
%TO.C,J16*%
X161198162Y-89234138D02*
X161198162Y-84034138D01*
X163798162Y-89234138D02*
X161198162Y-89234138D01*
X166398162Y-84034138D02*
X161198162Y-84034138D01*
X163798162Y-89234138D02*
X163798162Y-86634138D01*
X163798162Y-86634138D02*
X166398162Y-86634138D01*
X166398162Y-86634138D02*
X166398162Y-84034138D01*
X165068162Y-89234138D02*
X166398162Y-89234138D01*
X166398162Y-89234138D02*
X166398162Y-87904138D01*
%TO.C,J17*%
X161318162Y-89234138D02*
X161318162Y-87904138D01*
X159988162Y-89234138D02*
X161318162Y-89234138D01*
X161318162Y-86634138D02*
X161318162Y-84034138D01*
X158718162Y-86634138D02*
X161318162Y-86634138D01*
X158718162Y-89234138D02*
X158718162Y-86634138D01*
X161318162Y-84034138D02*
X140878162Y-84034138D01*
X158718162Y-89234138D02*
X140878162Y-89234138D01*
X140878162Y-89234138D02*
X140878162Y-84034138D01*
%TO.C,J18*%
X120558162Y-89234138D02*
X120558162Y-84034138D01*
X138398162Y-89234138D02*
X120558162Y-89234138D01*
X140998162Y-84034138D02*
X120558162Y-84034138D01*
X138398162Y-89234138D02*
X138398162Y-86634138D01*
X138398162Y-86634138D02*
X140998162Y-86634138D01*
X140998162Y-86634138D02*
X140998162Y-84034138D01*
X139668162Y-89234138D02*
X140998162Y-89234138D01*
X140998162Y-89234138D02*
X140998162Y-87904138D01*
%TO.C,J_c1*%
X120336000Y-78609500D02*
X121666000Y-78609500D01*
X120336000Y-77279500D02*
X120336000Y-78609500D01*
X122936000Y-78609500D02*
X125536000Y-78609500D01*
X122936000Y-76009500D02*
X122936000Y-78609500D01*
X120336000Y-76009500D02*
X122936000Y-76009500D01*
X125536000Y-78609500D02*
X125536000Y-58169500D01*
X120336000Y-76009500D02*
X120336000Y-58169500D01*
X120336000Y-58169500D02*
X125536000Y-58169500D01*
%TO.C,J_c2*%
X128083000Y-58169500D02*
X133283000Y-58169500D01*
X128083000Y-76009500D02*
X128083000Y-58169500D01*
X133283000Y-78609500D02*
X133283000Y-58169500D01*
X128083000Y-76009500D02*
X130683000Y-76009500D01*
X130683000Y-76009500D02*
X130683000Y-78609500D01*
X130683000Y-78609500D02*
X133283000Y-78609500D01*
X128083000Y-77279500D02*
X128083000Y-78609500D01*
X128083000Y-78609500D02*
X129413000Y-78609500D01*
%TO.C,J_c3*%
X135830000Y-78609500D02*
X137160000Y-78609500D01*
X135830000Y-77279500D02*
X135830000Y-78609500D01*
X138430000Y-78609500D02*
X141030000Y-78609500D01*
X138430000Y-76009500D02*
X138430000Y-78609500D01*
X135830000Y-76009500D02*
X138430000Y-76009500D01*
X141030000Y-78609500D02*
X141030000Y-58169500D01*
X135830000Y-76009500D02*
X135830000Y-58169500D01*
X135830000Y-58169500D02*
X141030000Y-58169500D01*
%TO.C,J_c4*%
X143577000Y-58169500D02*
X148777000Y-58169500D01*
X143577000Y-76009500D02*
X143577000Y-58169500D01*
X148777000Y-78609500D02*
X148777000Y-58169500D01*
X143577000Y-76009500D02*
X146177000Y-76009500D01*
X146177000Y-76009500D02*
X146177000Y-78609500D01*
X146177000Y-78609500D02*
X148777000Y-78609500D01*
X143577000Y-77279500D02*
X143577000Y-78609500D01*
X143577000Y-78609500D02*
X144907000Y-78609500D01*
%TO.C,J_c5*%
X151324000Y-78609500D02*
X152654000Y-78609500D01*
X151324000Y-77279500D02*
X151324000Y-78609500D01*
X153924000Y-78609500D02*
X156524000Y-78609500D01*
X153924000Y-76009500D02*
X153924000Y-78609500D01*
X151324000Y-76009500D02*
X153924000Y-76009500D01*
X156524000Y-78609500D02*
X156524000Y-58169500D01*
X151324000Y-76009500D02*
X151324000Y-58169500D01*
X151324000Y-58169500D02*
X156524000Y-58169500D01*
%TO.C,J_c6*%
X159071000Y-58169500D02*
X164271000Y-58169500D01*
X159071000Y-76009500D02*
X159071000Y-58169500D01*
X164271000Y-78609500D02*
X164271000Y-58169500D01*
X159071000Y-76009500D02*
X161671000Y-76009500D01*
X161671000Y-76009500D02*
X161671000Y-78609500D01*
X161671000Y-78609500D02*
X164271000Y-78609500D01*
X159071000Y-77279500D02*
X159071000Y-78609500D01*
X159071000Y-78609500D02*
X160401000Y-78609500D01*
%TO.C,J_c0_r1*%
X114715000Y-112129500D02*
X114715000Y-110799500D01*
X113385000Y-112129500D02*
X114715000Y-112129500D01*
X112115000Y-112129500D02*
X112115000Y-109469500D01*
X112115000Y-109469500D02*
X109515000Y-109469500D01*
X112115000Y-112129500D02*
X109515000Y-112129500D01*
X109515000Y-112129500D02*
X109515000Y-109469500D01*
%TO.C,J_c0_r2*%
X109515000Y-99429500D02*
X109515000Y-96769500D01*
X112115000Y-99429500D02*
X109515000Y-99429500D01*
X112115000Y-96769500D02*
X109515000Y-96769500D01*
X112115000Y-99429500D02*
X112115000Y-96769500D01*
X113385000Y-99429500D02*
X114715000Y-99429500D01*
X114715000Y-99429500D02*
X114715000Y-98099500D01*
%TO.C,J_c0_r0*%
X114715000Y-124829500D02*
X114715000Y-123499500D01*
X113385000Y-124829500D02*
X114715000Y-124829500D01*
X112115000Y-124829500D02*
X112115000Y-122169500D01*
X112115000Y-122169500D02*
X109515000Y-122169500D01*
X112115000Y-124829500D02*
X109515000Y-124829500D01*
X109515000Y-124829500D02*
X109515000Y-122169500D01*
%TO.C,J_c0_r3*%
X114715000Y-86729500D02*
X114715000Y-85399500D01*
X113385000Y-86729500D02*
X114715000Y-86729500D01*
X112115000Y-86729500D02*
X112115000Y-84069500D01*
X112115000Y-84069500D02*
X109515000Y-84069500D01*
X112115000Y-86729500D02*
X109515000Y-86729500D01*
X109515000Y-86729500D02*
X109515000Y-84069500D01*
%TO.C,J_c0_r4*%
X114715000Y-74029500D02*
X114715000Y-72699500D01*
X113385000Y-74029500D02*
X114715000Y-74029500D01*
X112115000Y-74029500D02*
X112115000Y-71369500D01*
X112115000Y-71369500D02*
X109515000Y-71369500D01*
X112115000Y-74029500D02*
X109515000Y-74029500D01*
X109515000Y-74029500D02*
X109515000Y-71369500D01*
%TO.C,J19F2*%
X117789000Y-63249500D02*
X117789000Y-65909500D01*
X115189000Y-63249500D02*
X117789000Y-63249500D01*
X115189000Y-65909500D02*
X117789000Y-65909500D01*
X115189000Y-63249500D02*
X115189000Y-65909500D01*
X113919000Y-63249500D02*
X112589000Y-63249500D01*
X112589000Y-63249500D02*
X112589000Y-64579500D01*
%TO.C,J19G1*%
X112589000Y-60709500D02*
X112589000Y-62039500D01*
X113919000Y-60709500D02*
X112589000Y-60709500D01*
X115189000Y-60709500D02*
X115189000Y-63369500D01*
X115189000Y-63369500D02*
X117789000Y-63369500D01*
X115189000Y-60709500D02*
X117789000Y-60709500D01*
X117789000Y-60709500D02*
X117789000Y-63369500D01*
%TO.C,J_c0*%
X117789000Y-58169500D02*
X117789000Y-60829500D01*
X115189000Y-58169500D02*
X117789000Y-58169500D01*
X115189000Y-60829500D02*
X117789000Y-60829500D01*
X115189000Y-58169500D02*
X115189000Y-60829500D01*
X113919000Y-58169500D02*
X112589000Y-58169500D01*
X112589000Y-58169500D02*
X112589000Y-59499500D01*
%TO.C,J_c7_r0*%
X190215000Y-124829500D02*
X190215000Y-123499500D01*
X188885000Y-124829500D02*
X190215000Y-124829500D01*
X187615000Y-124829500D02*
X187615000Y-122169500D01*
X187615000Y-122169500D02*
X185015000Y-122169500D01*
X187615000Y-124829500D02*
X185015000Y-124829500D01*
X185015000Y-124829500D02*
X185015000Y-122169500D01*
%TO.C,J_c7_r1*%
X190215000Y-112129500D02*
X190215000Y-110799500D01*
X188885000Y-112129500D02*
X190215000Y-112129500D01*
X187615000Y-112129500D02*
X187615000Y-109469500D01*
X187615000Y-109469500D02*
X185015000Y-109469500D01*
X187615000Y-112129500D02*
X185015000Y-112129500D01*
X185015000Y-112129500D02*
X185015000Y-109469500D01*
%TO.C,J_c7_r2*%
X190215000Y-99429500D02*
X190215000Y-98099500D01*
X188885000Y-99429500D02*
X190215000Y-99429500D01*
X187615000Y-99429500D02*
X187615000Y-96769500D01*
X187615000Y-96769500D02*
X185015000Y-96769500D01*
X187615000Y-99429500D02*
X185015000Y-99429500D01*
X185015000Y-99429500D02*
X185015000Y-96769500D01*
%TO.C,J_c7_r3*%
X185015000Y-86729500D02*
X185015000Y-84069500D01*
X187615000Y-86729500D02*
X185015000Y-86729500D01*
X187615000Y-84069500D02*
X185015000Y-84069500D01*
X187615000Y-86729500D02*
X187615000Y-84069500D01*
X188885000Y-86729500D02*
X190215000Y-86729500D01*
X190215000Y-86729500D02*
X190215000Y-85399500D01*
%TO.C,J_c7_r4*%
X190215000Y-74029500D02*
X190215000Y-72699500D01*
X188885000Y-74029500D02*
X190215000Y-74029500D01*
X187615000Y-74029500D02*
X187615000Y-71369500D01*
X187615000Y-71369500D02*
X185015000Y-71369500D01*
X187615000Y-74029500D02*
X185015000Y-74029500D01*
X185015000Y-74029500D02*
X185015000Y-71369500D01*
%TO.C,J26F1*%
X172018000Y-63249500D02*
X172018000Y-65909500D01*
X169418000Y-63249500D02*
X172018000Y-63249500D01*
X169418000Y-65909500D02*
X172018000Y-65909500D01*
X169418000Y-63249500D02*
X169418000Y-65909500D01*
X168148000Y-63249500D02*
X166818000Y-63249500D01*
X166818000Y-63249500D02*
X166818000Y-64579500D01*
%TO.C,J26G1*%
X172018000Y-60709500D02*
X172018000Y-63369500D01*
X169418000Y-60709500D02*
X172018000Y-60709500D01*
X169418000Y-63369500D02*
X172018000Y-63369500D01*
X169418000Y-60709500D02*
X169418000Y-63369500D01*
X168148000Y-60709500D02*
X166818000Y-60709500D01*
X166818000Y-60709500D02*
X166818000Y-62039500D01*
%TO.C,J_c7*%
X166818000Y-58169500D02*
X166818000Y-59499500D01*
X168148000Y-58169500D02*
X166818000Y-58169500D01*
X169418000Y-58169500D02*
X169418000Y-60829500D01*
X169418000Y-60829500D02*
X172018000Y-60829500D01*
X169418000Y-58169500D02*
X172018000Y-58169500D01*
X172018000Y-58169500D02*
X172018000Y-60829500D01*
%TO.C,A*%
X120784159Y-124315439D02*
X120784159Y-121655439D01*
X156404159Y-124315439D02*
X120784159Y-124315439D01*
X156404159Y-121655439D02*
X120784159Y-121655439D01*
X156404159Y-124315439D02*
X156404159Y-121655439D01*
X157674159Y-124315439D02*
X159004159Y-124315439D01*
X159004159Y-124315439D02*
X159004159Y-122985439D01*
%TO.C,V*%
X120784159Y-129395439D02*
X120784159Y-126735439D01*
X156404159Y-129395439D02*
X120784159Y-129395439D01*
X156404159Y-126735439D02*
X120784159Y-126735439D01*
X156404159Y-129395439D02*
X156404159Y-126735439D01*
X157674159Y-129395439D02*
X159004159Y-129395439D01*
X159004159Y-129395439D02*
X159004159Y-128065439D01*
%TO.C,G*%
X159004159Y-126855439D02*
X159004159Y-125525439D01*
X157674159Y-126855439D02*
X159004159Y-126855439D01*
X156404159Y-126855439D02*
X156404159Y-124195439D01*
X156404159Y-124195439D02*
X120784159Y-124195439D01*
X156404159Y-126855439D02*
X120784159Y-126855439D01*
X120784159Y-126855439D02*
X120784159Y-124195439D01*
%TO.C,J9*%
X148530000Y-114995000D02*
X148530000Y-112335000D01*
X151130000Y-114995000D02*
X148530000Y-114995000D01*
X151130000Y-112335000D02*
X148530000Y-112335000D01*
X151130000Y-114995000D02*
X151130000Y-112335000D01*
X152400000Y-114995000D02*
X153730000Y-114995000D01*
X153730000Y-114995000D02*
X153730000Y-113665000D01*
%TO.C,QR\002A\002A\002A\002A\002A*%
D11*
X186338571Y-58324285D02*
X186338571Y-58870952D01*
X186690000Y-58324285D02*
X186690000Y-58753809D01*
X186650952Y-58831904D01*
X186572857Y-58870952D01*
X186455714Y-58870952D01*
X186377619Y-58831904D01*
X186338571Y-58792857D01*
X186026190Y-58870952D02*
X185596666Y-58324285D01*
X186026190Y-58324285D02*
X185596666Y-58870952D01*
X185245238Y-58870952D02*
X185089047Y-58870952D01*
X185010952Y-58831904D01*
X184971904Y-58792857D01*
X184893809Y-58675714D01*
X184854761Y-58519523D01*
X184854761Y-58207142D01*
X184893809Y-58129047D01*
X184932857Y-58090000D01*
X185010952Y-58050952D01*
X185167142Y-58050952D01*
X185245238Y-58090000D01*
X185284285Y-58129047D01*
X185323333Y-58207142D01*
X185323333Y-58402380D01*
X185284285Y-58480476D01*
X185245238Y-58519523D01*
X185167142Y-58558571D01*
X185010952Y-58558571D01*
X184932857Y-58519523D01*
X184893809Y-58480476D01*
X184854761Y-58402380D01*
X184503333Y-58792857D02*
X184464285Y-58831904D01*
X184503333Y-58870952D01*
X184542380Y-58831904D01*
X184503333Y-58792857D01*
X184503333Y-58870952D01*
X183761428Y-58870952D02*
X183761428Y-58050952D01*
X183761428Y-58831904D02*
X183839523Y-58870952D01*
X183995714Y-58870952D01*
X184073809Y-58831904D01*
X184112857Y-58792857D01*
X184151904Y-58714761D01*
X184151904Y-58480476D01*
X184112857Y-58402380D01*
X184073809Y-58363333D01*
X183995714Y-58324285D01*
X183839523Y-58324285D01*
X183761428Y-58363333D01*
X183058571Y-58831904D02*
X183136666Y-58870952D01*
X183292857Y-58870952D01*
X183370952Y-58831904D01*
X183410000Y-58753809D01*
X183410000Y-58441428D01*
X183370952Y-58363333D01*
X183292857Y-58324285D01*
X183136666Y-58324285D01*
X183058571Y-58363333D01*
X183019523Y-58441428D01*
X183019523Y-58519523D01*
X183410000Y-58597619D01*
X182082380Y-58011904D02*
X182785238Y-59066190D01*
X181926190Y-58050952D02*
X181652857Y-58870952D01*
X181379523Y-58050952D01*
X180832857Y-58441428D02*
X181106190Y-58441428D01*
X181106190Y-58870952D02*
X181106190Y-58050952D01*
X180715714Y-58050952D01*
X179934761Y-58792857D02*
X179973809Y-58831904D01*
X180090952Y-58870952D01*
X180169047Y-58870952D01*
X180286190Y-58831904D01*
X180364285Y-58753809D01*
X180403333Y-58675714D01*
X180442380Y-58519523D01*
X180442380Y-58402380D01*
X180403333Y-58246190D01*
X180364285Y-58168095D01*
X180286190Y-58090000D01*
X180169047Y-58050952D01*
X180090952Y-58050952D01*
X179973809Y-58090000D01*
X179934761Y-58129047D01*
X179583333Y-58870952D02*
X179583333Y-58050952D01*
X179505238Y-58558571D02*
X179270952Y-58870952D01*
X179270952Y-58324285D02*
X179583333Y-58636666D01*
%TO.C,J14*%
X179098809Y-81592952D02*
X179098809Y-82178666D01*
X179137857Y-82295809D01*
X179215952Y-82373904D01*
X179333095Y-82412952D01*
X179411190Y-82412952D01*
X178278809Y-82412952D02*
X178747380Y-82412952D01*
X178513095Y-82412952D02*
X178513095Y-81592952D01*
X178591190Y-81710095D01*
X178669285Y-81788190D01*
X178747380Y-81827238D01*
X177575952Y-81866285D02*
X177575952Y-82412952D01*
X177771190Y-81553904D02*
X177966428Y-82139619D01*
X177458809Y-82139619D01*
%TO.C,J10*%
X177694568Y-84819282D02*
X178280282Y-84819282D01*
X178397425Y-84780234D01*
X178475520Y-84702139D01*
X178514568Y-84584996D01*
X178514568Y-84506901D01*
X178514568Y-85639282D02*
X178514568Y-85170711D01*
X178514568Y-85404996D02*
X177694568Y-85404996D01*
X177811711Y-85326901D01*
X177889806Y-85248806D01*
X177928854Y-85170711D01*
X177694568Y-86146901D02*
X177694568Y-86224996D01*
X177733616Y-86303092D01*
X177772663Y-86342139D01*
X177850758Y-86381187D01*
X178006949Y-86420234D01*
X178202187Y-86420234D01*
X178358377Y-86381187D01*
X178436473Y-86342139D01*
X178475520Y-86303092D01*
X178514568Y-86224996D01*
X178514568Y-86146901D01*
X178475520Y-86068806D01*
X178436473Y-86029758D01*
X178358377Y-85990711D01*
X178202187Y-85951663D01*
X178006949Y-85951663D01*
X177850758Y-85990711D01*
X177772663Y-86029758D01*
X177733616Y-86068806D01*
X177694568Y-86146901D01*
%TO.C,J11*%
X177694568Y-89899282D02*
X178280282Y-89899282D01*
X178397425Y-89860234D01*
X178475520Y-89782139D01*
X178514568Y-89664996D01*
X178514568Y-89586901D01*
X178514568Y-90719282D02*
X178514568Y-90250711D01*
X178514568Y-90484996D02*
X177694568Y-90484996D01*
X177811711Y-90406901D01*
X177889806Y-90328806D01*
X177928854Y-90250711D01*
X178514568Y-91500234D02*
X178514568Y-91031663D01*
X178514568Y-91265949D02*
X177694568Y-91265949D01*
X177811711Y-91187853D01*
X177889806Y-91109758D01*
X177928854Y-91031663D01*
%TO.C,J1*%
X163126952Y-127742666D02*
X163712666Y-127742666D01*
X163829809Y-127703619D01*
X163907904Y-127625523D01*
X163946952Y-127508380D01*
X163946952Y-127430285D01*
X163946952Y-128562666D02*
X163946952Y-128094095D01*
X163946952Y-128328380D02*
X163126952Y-128328380D01*
X163244095Y-128250285D01*
X163322190Y-128172190D01*
X163361238Y-128094095D01*
%TO.C,J2*%
X163126952Y-117582666D02*
X163712666Y-117582666D01*
X163829809Y-117543619D01*
X163907904Y-117465523D01*
X163946952Y-117348380D01*
X163946952Y-117270285D01*
X163205047Y-117934095D02*
X163166000Y-117973142D01*
X163126952Y-118051238D01*
X163126952Y-118246476D01*
X163166000Y-118324571D01*
X163205047Y-118363619D01*
X163283142Y-118402666D01*
X163361238Y-118402666D01*
X163478380Y-118363619D01*
X163946952Y-117895047D01*
X163946952Y-118402666D01*
%TO.C,J3*%
X163126952Y-102342666D02*
X163712666Y-102342666D01*
X163829809Y-102303619D01*
X163907904Y-102225523D01*
X163946952Y-102108380D01*
X163946952Y-102030285D01*
X163126952Y-102655047D02*
X163126952Y-103162666D01*
X163439333Y-102889333D01*
X163439333Y-103006476D01*
X163478380Y-103084571D01*
X163517428Y-103123619D01*
X163595523Y-103162666D01*
X163790761Y-103162666D01*
X163868857Y-103123619D01*
X163907904Y-103084571D01*
X163946952Y-103006476D01*
X163946952Y-102772190D01*
X163907904Y-102694095D01*
X163868857Y-102655047D01*
%TO.C,J4*%
X164103333Y-92260952D02*
X164103333Y-92846666D01*
X164142380Y-92963809D01*
X164220476Y-93041904D01*
X164337619Y-93080952D01*
X164415714Y-93080952D01*
X163361428Y-92534285D02*
X163361428Y-93080952D01*
X163556666Y-92221904D02*
X163751904Y-92807619D01*
X163244285Y-92807619D01*
%TO.C,J5*%
X155213333Y-115755952D02*
X155213333Y-116341666D01*
X155252380Y-116458809D01*
X155330476Y-116536904D01*
X155447619Y-116575952D01*
X155525714Y-116575952D01*
X154432380Y-115755952D02*
X154822857Y-115755952D01*
X154861904Y-116146428D01*
X154822857Y-116107380D01*
X154744761Y-116068333D01*
X154549523Y-116068333D01*
X154471428Y-116107380D01*
X154432380Y-116146428D01*
X154393333Y-116224523D01*
X154393333Y-116419761D01*
X154432380Y-116497857D01*
X154471428Y-116536904D01*
X154549523Y-116575952D01*
X154744761Y-116575952D01*
X154822857Y-116536904D01*
X154861904Y-116497857D01*
%TO.C,J6*%
X173286952Y-122662666D02*
X173872666Y-122662666D01*
X173989809Y-122623619D01*
X174067904Y-122545523D01*
X174106952Y-122428380D01*
X174106952Y-122350285D01*
X173286952Y-123404571D02*
X173286952Y-123248380D01*
X173326000Y-123170285D01*
X173365047Y-123131238D01*
X173482190Y-123053142D01*
X173638380Y-123014095D01*
X173950761Y-123014095D01*
X174028857Y-123053142D01*
X174067904Y-123092190D01*
X174106952Y-123170285D01*
X174106952Y-123326476D01*
X174067904Y-123404571D01*
X174028857Y-123443619D01*
X173950761Y-123482666D01*
X173755523Y-123482666D01*
X173677428Y-123443619D01*
X173638380Y-123404571D01*
X173599333Y-123326476D01*
X173599333Y-123170285D01*
X173638380Y-123092190D01*
X173677428Y-123053142D01*
X173755523Y-123014095D01*
%TO.C,J7*%
X173286952Y-104882666D02*
X173872666Y-104882666D01*
X173989809Y-104843619D01*
X174067904Y-104765523D01*
X174106952Y-104648380D01*
X174106952Y-104570285D01*
X173286952Y-105195047D02*
X173286952Y-105741714D01*
X174106952Y-105390285D01*
%TO.C,J8*%
X173540952Y-97516666D02*
X174126666Y-97516666D01*
X174243809Y-97477619D01*
X174321904Y-97399523D01*
X174360952Y-97282380D01*
X174360952Y-97204285D01*
X173892380Y-98024285D02*
X173853333Y-97946190D01*
X173814285Y-97907142D01*
X173736190Y-97868095D01*
X173697142Y-97868095D01*
X173619047Y-97907142D01*
X173580000Y-97946190D01*
X173540952Y-98024285D01*
X173540952Y-98180476D01*
X173580000Y-98258571D01*
X173619047Y-98297619D01*
X173697142Y-98336666D01*
X173736190Y-98336666D01*
X173814285Y-98297619D01*
X173853333Y-98258571D01*
X173892380Y-98180476D01*
X173892380Y-98024285D01*
X173931428Y-97946190D01*
X173970476Y-97907142D01*
X174048571Y-97868095D01*
X174204761Y-97868095D01*
X174282857Y-97907142D01*
X174321904Y-97946190D01*
X174360952Y-98024285D01*
X174360952Y-98180476D01*
X174321904Y-98258571D01*
X174282857Y-98297619D01*
X174204761Y-98336666D01*
X174048571Y-98336666D01*
X173970476Y-98297619D01*
X173931428Y-98258571D01*
X173892380Y-98180476D01*
%TO.C,J15*%
X134648809Y-91835952D02*
X134648809Y-92421666D01*
X134687857Y-92538809D01*
X134765952Y-92616904D01*
X134883095Y-92655952D01*
X134961190Y-92655952D01*
X133828809Y-92655952D02*
X134297380Y-92655952D01*
X134063095Y-92655952D02*
X134063095Y-91835952D01*
X134141190Y-91953095D01*
X134219285Y-92031190D01*
X134297380Y-92070238D01*
X133086904Y-91835952D02*
X133477380Y-91835952D01*
X133516428Y-92226428D01*
X133477380Y-92187380D01*
X133399285Y-92148333D01*
X133204047Y-92148333D01*
X133125952Y-92187380D01*
X133086904Y-92226428D01*
X133047857Y-92304523D01*
X133047857Y-92499761D01*
X133086904Y-92577857D01*
X133125952Y-92616904D01*
X133204047Y-92655952D01*
X133399285Y-92655952D01*
X133477380Y-92616904D01*
X133516428Y-92577857D01*
%TO.C,J16*%
X165731971Y-82375090D02*
X165731971Y-82960804D01*
X165771019Y-83077947D01*
X165849114Y-83156042D01*
X165966257Y-83195090D01*
X166044352Y-83195090D01*
X164911971Y-83195090D02*
X165380542Y-83195090D01*
X165146257Y-83195090D02*
X165146257Y-82375090D01*
X165224352Y-82492233D01*
X165302447Y-82570328D01*
X165380542Y-82609376D01*
X164209114Y-82375090D02*
X164365304Y-82375090D01*
X164443400Y-82414138D01*
X164482447Y-82453185D01*
X164560542Y-82570328D01*
X164599590Y-82726518D01*
X164599590Y-83038899D01*
X164560542Y-83116995D01*
X164521495Y-83156042D01*
X164443400Y-83195090D01*
X164287209Y-83195090D01*
X164209114Y-83156042D01*
X164170066Y-83116995D01*
X164131019Y-83038899D01*
X164131019Y-82843661D01*
X164170066Y-82765566D01*
X164209114Y-82726518D01*
X164287209Y-82687471D01*
X164443400Y-82687471D01*
X164521495Y-82726518D01*
X164560542Y-82765566D01*
X164599590Y-82843661D01*
%TO.C,J17*%
X160048809Y-82354952D02*
X160048809Y-82940666D01*
X160087857Y-83057809D01*
X160165952Y-83135904D01*
X160283095Y-83174952D01*
X160361190Y-83174952D01*
X159228809Y-83174952D02*
X159697380Y-83174952D01*
X159463095Y-83174952D02*
X159463095Y-82354952D01*
X159541190Y-82472095D01*
X159619285Y-82550190D01*
X159697380Y-82589238D01*
X158955476Y-82354952D02*
X158408809Y-82354952D01*
X158760238Y-83174952D01*
%TO.C,J18*%
X139474809Y-82481952D02*
X139474809Y-83067666D01*
X139513857Y-83184809D01*
X139591952Y-83262904D01*
X139709095Y-83301952D01*
X139787190Y-83301952D01*
X138654809Y-83301952D02*
X139123380Y-83301952D01*
X138889095Y-83301952D02*
X138889095Y-82481952D01*
X138967190Y-82599095D01*
X139045285Y-82677190D01*
X139123380Y-82716238D01*
X138186238Y-82833380D02*
X138264333Y-82794333D01*
X138303380Y-82755285D01*
X138342428Y-82677190D01*
X138342428Y-82638142D01*
X138303380Y-82560047D01*
X138264333Y-82521000D01*
X138186238Y-82481952D01*
X138030047Y-82481952D01*
X137951952Y-82521000D01*
X137912904Y-82560047D01*
X137873857Y-82638142D01*
X137873857Y-82677190D01*
X137912904Y-82755285D01*
X137951952Y-82794333D01*
X138030047Y-82833380D01*
X138186238Y-82833380D01*
X138264333Y-82872428D01*
X138303380Y-82911476D01*
X138342428Y-82989571D01*
X138342428Y-83145761D01*
X138303380Y-83223857D01*
X138264333Y-83262904D01*
X138186238Y-83301952D01*
X138030047Y-83301952D01*
X137951952Y-83262904D01*
X137912904Y-83223857D01*
X137873857Y-83145761D01*
X137873857Y-82989571D01*
X137912904Y-82911476D01*
X137951952Y-82872428D01*
X138030047Y-82833380D01*
%TO.C,J_c1*%
X123873142Y-79160452D02*
X123873142Y-79746166D01*
X123912190Y-79863309D01*
X123990285Y-79941404D01*
X124107428Y-79980452D01*
X124185523Y-79980452D01*
X123677904Y-80058547D02*
X123053142Y-80058547D01*
X122506476Y-79941404D02*
X122584571Y-79980452D01*
X122740761Y-79980452D01*
X122818857Y-79941404D01*
X122857904Y-79902357D01*
X122896952Y-79824261D01*
X122896952Y-79589976D01*
X122857904Y-79511880D01*
X122818857Y-79472833D01*
X122740761Y-79433785D01*
X122584571Y-79433785D01*
X122506476Y-79472833D01*
X121725523Y-79980452D02*
X122194095Y-79980452D01*
X121959809Y-79980452D02*
X121959809Y-79160452D01*
X122037904Y-79277595D01*
X122116000Y-79355690D01*
X122194095Y-79394738D01*
%TO.C,J_c2*%
X131620142Y-79160452D02*
X131620142Y-79746166D01*
X131659190Y-79863309D01*
X131737285Y-79941404D01*
X131854428Y-79980452D01*
X131932523Y-79980452D01*
X131424904Y-80058547D02*
X130800142Y-80058547D01*
X130253476Y-79941404D02*
X130331571Y-79980452D01*
X130487761Y-79980452D01*
X130565857Y-79941404D01*
X130604904Y-79902357D01*
X130643952Y-79824261D01*
X130643952Y-79589976D01*
X130604904Y-79511880D01*
X130565857Y-79472833D01*
X130487761Y-79433785D01*
X130331571Y-79433785D01*
X130253476Y-79472833D01*
X129941095Y-79238547D02*
X129902047Y-79199500D01*
X129823952Y-79160452D01*
X129628714Y-79160452D01*
X129550619Y-79199500D01*
X129511571Y-79238547D01*
X129472523Y-79316642D01*
X129472523Y-79394738D01*
X129511571Y-79511880D01*
X129980142Y-79980452D01*
X129472523Y-79980452D01*
%TO.C,J_c3*%
X139367142Y-79160452D02*
X139367142Y-79746166D01*
X139406190Y-79863309D01*
X139484285Y-79941404D01*
X139601428Y-79980452D01*
X139679523Y-79980452D01*
X139171904Y-80058547D02*
X138547142Y-80058547D01*
X138000476Y-79941404D02*
X138078571Y-79980452D01*
X138234761Y-79980452D01*
X138312857Y-79941404D01*
X138351904Y-79902357D01*
X138390952Y-79824261D01*
X138390952Y-79589976D01*
X138351904Y-79511880D01*
X138312857Y-79472833D01*
X138234761Y-79433785D01*
X138078571Y-79433785D01*
X138000476Y-79472833D01*
X137727142Y-79160452D02*
X137219523Y-79160452D01*
X137492857Y-79472833D01*
X137375714Y-79472833D01*
X137297619Y-79511880D01*
X137258571Y-79550928D01*
X137219523Y-79629023D01*
X137219523Y-79824261D01*
X137258571Y-79902357D01*
X137297619Y-79941404D01*
X137375714Y-79980452D01*
X137610000Y-79980452D01*
X137688095Y-79941404D01*
X137727142Y-79902357D01*
%TO.C,J_c4*%
X147114142Y-79160452D02*
X147114142Y-79746166D01*
X147153190Y-79863309D01*
X147231285Y-79941404D01*
X147348428Y-79980452D01*
X147426523Y-79980452D01*
X146918904Y-80058547D02*
X146294142Y-80058547D01*
X145747476Y-79941404D02*
X145825571Y-79980452D01*
X145981761Y-79980452D01*
X146059857Y-79941404D01*
X146098904Y-79902357D01*
X146137952Y-79824261D01*
X146137952Y-79589976D01*
X146098904Y-79511880D01*
X146059857Y-79472833D01*
X145981761Y-79433785D01*
X145825571Y-79433785D01*
X145747476Y-79472833D01*
X145044619Y-79433785D02*
X145044619Y-79980452D01*
X145239857Y-79121404D02*
X145435095Y-79707119D01*
X144927476Y-79707119D01*
%TO.C,J_c5*%
X154861142Y-79160452D02*
X154861142Y-79746166D01*
X154900190Y-79863309D01*
X154978285Y-79941404D01*
X155095428Y-79980452D01*
X155173523Y-79980452D01*
X154665904Y-80058547D02*
X154041142Y-80058547D01*
X153494476Y-79941404D02*
X153572571Y-79980452D01*
X153728761Y-79980452D01*
X153806857Y-79941404D01*
X153845904Y-79902357D01*
X153884952Y-79824261D01*
X153884952Y-79589976D01*
X153845904Y-79511880D01*
X153806857Y-79472833D01*
X153728761Y-79433785D01*
X153572571Y-79433785D01*
X153494476Y-79472833D01*
X152752571Y-79160452D02*
X153143047Y-79160452D01*
X153182095Y-79550928D01*
X153143047Y-79511880D01*
X153064952Y-79472833D01*
X152869714Y-79472833D01*
X152791619Y-79511880D01*
X152752571Y-79550928D01*
X152713523Y-79629023D01*
X152713523Y-79824261D01*
X152752571Y-79902357D01*
X152791619Y-79941404D01*
X152869714Y-79980452D01*
X153064952Y-79980452D01*
X153143047Y-79941404D01*
X153182095Y-79902357D01*
%TO.C,J_c6*%
X162608142Y-79160452D02*
X162608142Y-79746166D01*
X162647190Y-79863309D01*
X162725285Y-79941404D01*
X162842428Y-79980452D01*
X162920523Y-79980452D01*
X162412904Y-80058547D02*
X161788142Y-80058547D01*
X161241476Y-79941404D02*
X161319571Y-79980452D01*
X161475761Y-79980452D01*
X161553857Y-79941404D01*
X161592904Y-79902357D01*
X161631952Y-79824261D01*
X161631952Y-79589976D01*
X161592904Y-79511880D01*
X161553857Y-79472833D01*
X161475761Y-79433785D01*
X161319571Y-79433785D01*
X161241476Y-79472833D01*
X160538619Y-79160452D02*
X160694809Y-79160452D01*
X160772904Y-79199500D01*
X160811952Y-79238547D01*
X160890047Y-79355690D01*
X160929095Y-79511880D01*
X160929095Y-79824261D01*
X160890047Y-79902357D01*
X160851000Y-79941404D01*
X160772904Y-79980452D01*
X160616714Y-79980452D01*
X160538619Y-79941404D01*
X160499571Y-79902357D01*
X160460523Y-79824261D01*
X160460523Y-79629023D01*
X160499571Y-79550928D01*
X160538619Y-79511880D01*
X160616714Y-79472833D01*
X160772904Y-79472833D01*
X160851000Y-79511880D01*
X160890047Y-79550928D01*
X160929095Y-79629023D01*
%TO.C,J_c0_r1*%
X114161809Y-112898452D02*
X114161809Y-113484166D01*
X114200857Y-113601309D01*
X114278952Y-113679404D01*
X114396095Y-113718452D01*
X114474190Y-113718452D01*
X113966571Y-113796547D02*
X113341809Y-113796547D01*
X112795142Y-113679404D02*
X112873238Y-113718452D01*
X113029428Y-113718452D01*
X113107523Y-113679404D01*
X113146571Y-113640357D01*
X113185619Y-113562261D01*
X113185619Y-113327976D01*
X113146571Y-113249880D01*
X113107523Y-113210833D01*
X113029428Y-113171785D01*
X112873238Y-113171785D01*
X112795142Y-113210833D01*
X112287523Y-112898452D02*
X112209428Y-112898452D01*
X112131333Y-112937500D01*
X112092285Y-112976547D01*
X112053238Y-113054642D01*
X112014190Y-113210833D01*
X112014190Y-113406071D01*
X112053238Y-113562261D01*
X112092285Y-113640357D01*
X112131333Y-113679404D01*
X112209428Y-113718452D01*
X112287523Y-113718452D01*
X112365619Y-113679404D01*
X112404666Y-113640357D01*
X112443714Y-113562261D01*
X112482761Y-113406071D01*
X112482761Y-113210833D01*
X112443714Y-113054642D01*
X112404666Y-112976547D01*
X112365619Y-112937500D01*
X112287523Y-112898452D01*
X111858000Y-113796547D02*
X111233238Y-113796547D01*
X111038000Y-113718452D02*
X111038000Y-113171785D01*
X111038000Y-113327976D02*
X110998952Y-113249880D01*
X110959904Y-113210833D01*
X110881809Y-113171785D01*
X110803714Y-113171785D01*
X110100857Y-113718452D02*
X110569428Y-113718452D01*
X110335142Y-113718452D02*
X110335142Y-112898452D01*
X110413238Y-113015595D01*
X110491333Y-113093690D01*
X110569428Y-113132738D01*
%TO.C,J_c0_r2*%
X114034809Y-100198452D02*
X114034809Y-100784166D01*
X114073857Y-100901309D01*
X114151952Y-100979404D01*
X114269095Y-101018452D01*
X114347190Y-101018452D01*
X113839571Y-101096547D02*
X113214809Y-101096547D01*
X112668142Y-100979404D02*
X112746238Y-101018452D01*
X112902428Y-101018452D01*
X112980523Y-100979404D01*
X113019571Y-100940357D01*
X113058619Y-100862261D01*
X113058619Y-100627976D01*
X113019571Y-100549880D01*
X112980523Y-100510833D01*
X112902428Y-100471785D01*
X112746238Y-100471785D01*
X112668142Y-100510833D01*
X112160523Y-100198452D02*
X112082428Y-100198452D01*
X112004333Y-100237500D01*
X111965285Y-100276547D01*
X111926238Y-100354642D01*
X111887190Y-100510833D01*
X111887190Y-100706071D01*
X111926238Y-100862261D01*
X111965285Y-100940357D01*
X112004333Y-100979404D01*
X112082428Y-101018452D01*
X112160523Y-101018452D01*
X112238619Y-100979404D01*
X112277666Y-100940357D01*
X112316714Y-100862261D01*
X112355761Y-100706071D01*
X112355761Y-100510833D01*
X112316714Y-100354642D01*
X112277666Y-100276547D01*
X112238619Y-100237500D01*
X112160523Y-100198452D01*
X111731000Y-101096547D02*
X111106238Y-101096547D01*
X110911000Y-101018452D02*
X110911000Y-100471785D01*
X110911000Y-100627976D02*
X110871952Y-100549880D01*
X110832904Y-100510833D01*
X110754809Y-100471785D01*
X110676714Y-100471785D01*
X110442428Y-100276547D02*
X110403380Y-100237500D01*
X110325285Y-100198452D01*
X110130047Y-100198452D01*
X110051952Y-100237500D01*
X110012904Y-100276547D01*
X109973857Y-100354642D01*
X109973857Y-100432738D01*
X110012904Y-100549880D01*
X110481476Y-101018452D01*
X109973857Y-101018452D01*
%TO.C,J_c0_r0*%
X114034809Y-125598452D02*
X114034809Y-126184166D01*
X114073857Y-126301309D01*
X114151952Y-126379404D01*
X114269095Y-126418452D01*
X114347190Y-126418452D01*
X113839571Y-126496547D02*
X113214809Y-126496547D01*
X112668142Y-126379404D02*
X112746238Y-126418452D01*
X112902428Y-126418452D01*
X112980523Y-126379404D01*
X113019571Y-126340357D01*
X113058619Y-126262261D01*
X113058619Y-126027976D01*
X113019571Y-125949880D01*
X112980523Y-125910833D01*
X112902428Y-125871785D01*
X112746238Y-125871785D01*
X112668142Y-125910833D01*
X112160523Y-125598452D02*
X112082428Y-125598452D01*
X112004333Y-125637500D01*
X111965285Y-125676547D01*
X111926238Y-125754642D01*
X111887190Y-125910833D01*
X111887190Y-126106071D01*
X111926238Y-126262261D01*
X111965285Y-126340357D01*
X112004333Y-126379404D01*
X112082428Y-126418452D01*
X112160523Y-126418452D01*
X112238619Y-126379404D01*
X112277666Y-126340357D01*
X112316714Y-126262261D01*
X112355761Y-126106071D01*
X112355761Y-125910833D01*
X112316714Y-125754642D01*
X112277666Y-125676547D01*
X112238619Y-125637500D01*
X112160523Y-125598452D01*
X111731000Y-126496547D02*
X111106238Y-126496547D01*
X110911000Y-126418452D02*
X110911000Y-125871785D01*
X110911000Y-126027976D02*
X110871952Y-125949880D01*
X110832904Y-125910833D01*
X110754809Y-125871785D01*
X110676714Y-125871785D01*
X110247190Y-125598452D02*
X110169095Y-125598452D01*
X110091000Y-125637500D01*
X110051952Y-125676547D01*
X110012904Y-125754642D01*
X109973857Y-125910833D01*
X109973857Y-126106071D01*
X110012904Y-126262261D01*
X110051952Y-126340357D01*
X110091000Y-126379404D01*
X110169095Y-126418452D01*
X110247190Y-126418452D01*
X110325285Y-126379404D01*
X110364333Y-126340357D01*
X110403380Y-126262261D01*
X110442428Y-126106071D01*
X110442428Y-125910833D01*
X110403380Y-125754642D01*
X110364333Y-125676547D01*
X110325285Y-125637500D01*
X110247190Y-125598452D01*
%TO.C,J_c0_r3*%
X114034809Y-87625452D02*
X114034809Y-88211166D01*
X114073857Y-88328309D01*
X114151952Y-88406404D01*
X114269095Y-88445452D01*
X114347190Y-88445452D01*
X113839571Y-88523547D02*
X113214809Y-88523547D01*
X112668142Y-88406404D02*
X112746238Y-88445452D01*
X112902428Y-88445452D01*
X112980523Y-88406404D01*
X113019571Y-88367357D01*
X113058619Y-88289261D01*
X113058619Y-88054976D01*
X113019571Y-87976880D01*
X112980523Y-87937833D01*
X112902428Y-87898785D01*
X112746238Y-87898785D01*
X112668142Y-87937833D01*
X112160523Y-87625452D02*
X112082428Y-87625452D01*
X112004333Y-87664500D01*
X111965285Y-87703547D01*
X111926238Y-87781642D01*
X111887190Y-87937833D01*
X111887190Y-88133071D01*
X111926238Y-88289261D01*
X111965285Y-88367357D01*
X112004333Y-88406404D01*
X112082428Y-88445452D01*
X112160523Y-88445452D01*
X112238619Y-88406404D01*
X112277666Y-88367357D01*
X112316714Y-88289261D01*
X112355761Y-88133071D01*
X112355761Y-87937833D01*
X112316714Y-87781642D01*
X112277666Y-87703547D01*
X112238619Y-87664500D01*
X112160523Y-87625452D01*
X111731000Y-88523547D02*
X111106238Y-88523547D01*
X110911000Y-88445452D02*
X110911000Y-87898785D01*
X110911000Y-88054976D02*
X110871952Y-87976880D01*
X110832904Y-87937833D01*
X110754809Y-87898785D01*
X110676714Y-87898785D01*
X110481476Y-87625452D02*
X109973857Y-87625452D01*
X110247190Y-87937833D01*
X110130047Y-87937833D01*
X110051952Y-87976880D01*
X110012904Y-88015928D01*
X109973857Y-88094023D01*
X109973857Y-88289261D01*
X110012904Y-88367357D01*
X110051952Y-88406404D01*
X110130047Y-88445452D01*
X110364333Y-88445452D01*
X110442428Y-88406404D01*
X110481476Y-88367357D01*
%TO.C,J_c0_r4*%
X113907809Y-74925452D02*
X113907809Y-75511166D01*
X113946857Y-75628309D01*
X114024952Y-75706404D01*
X114142095Y-75745452D01*
X114220190Y-75745452D01*
X113712571Y-75823547D02*
X113087809Y-75823547D01*
X112541142Y-75706404D02*
X112619238Y-75745452D01*
X112775428Y-75745452D01*
X112853523Y-75706404D01*
X112892571Y-75667357D01*
X112931619Y-75589261D01*
X112931619Y-75354976D01*
X112892571Y-75276880D01*
X112853523Y-75237833D01*
X112775428Y-75198785D01*
X112619238Y-75198785D01*
X112541142Y-75237833D01*
X112033523Y-74925452D02*
X111955428Y-74925452D01*
X111877333Y-74964500D01*
X111838285Y-75003547D01*
X111799238Y-75081642D01*
X111760190Y-75237833D01*
X111760190Y-75433071D01*
X111799238Y-75589261D01*
X111838285Y-75667357D01*
X111877333Y-75706404D01*
X111955428Y-75745452D01*
X112033523Y-75745452D01*
X112111619Y-75706404D01*
X112150666Y-75667357D01*
X112189714Y-75589261D01*
X112228761Y-75433071D01*
X112228761Y-75237833D01*
X112189714Y-75081642D01*
X112150666Y-75003547D01*
X112111619Y-74964500D01*
X112033523Y-74925452D01*
X111604000Y-75823547D02*
X110979238Y-75823547D01*
X110784000Y-75745452D02*
X110784000Y-75198785D01*
X110784000Y-75354976D02*
X110744952Y-75276880D01*
X110705904Y-75237833D01*
X110627809Y-75198785D01*
X110549714Y-75198785D01*
X109924952Y-75198785D02*
X109924952Y-75745452D01*
X110120190Y-74886404D02*
X110315428Y-75472119D01*
X109807809Y-75472119D01*
%TO.C,J_c0*%
X111564952Y-59006857D02*
X112150666Y-59006857D01*
X112267809Y-58967809D01*
X112345904Y-58889714D01*
X112384952Y-58772571D01*
X112384952Y-58694476D01*
X112463047Y-59202095D02*
X112463047Y-59826857D01*
X112345904Y-60373523D02*
X112384952Y-60295428D01*
X112384952Y-60139238D01*
X112345904Y-60061142D01*
X112306857Y-60022095D01*
X112228761Y-59983047D01*
X111994476Y-59983047D01*
X111916380Y-60022095D01*
X111877333Y-60061142D01*
X111838285Y-60139238D01*
X111838285Y-60295428D01*
X111877333Y-60373523D01*
X111564952Y-60881142D02*
X111564952Y-60959238D01*
X111604000Y-61037333D01*
X111643047Y-61076380D01*
X111721142Y-61115428D01*
X111877333Y-61154476D01*
X112072571Y-61154476D01*
X112228761Y-61115428D01*
X112306857Y-61076380D01*
X112345904Y-61037333D01*
X112384952Y-60959238D01*
X112384952Y-60881142D01*
X112345904Y-60803047D01*
X112306857Y-60764000D01*
X112228761Y-60724952D01*
X112072571Y-60685904D01*
X111877333Y-60685904D01*
X111721142Y-60724952D01*
X111643047Y-60764000D01*
X111604000Y-60803047D01*
X111564952Y-60881142D01*
%TO.C,J_c7_r0*%
X189599809Y-125471452D02*
X189599809Y-126057166D01*
X189638857Y-126174309D01*
X189716952Y-126252404D01*
X189834095Y-126291452D01*
X189912190Y-126291452D01*
X189404571Y-126369547D02*
X188779809Y-126369547D01*
X188233142Y-126252404D02*
X188311238Y-126291452D01*
X188467428Y-126291452D01*
X188545523Y-126252404D01*
X188584571Y-126213357D01*
X188623619Y-126135261D01*
X188623619Y-125900976D01*
X188584571Y-125822880D01*
X188545523Y-125783833D01*
X188467428Y-125744785D01*
X188311238Y-125744785D01*
X188233142Y-125783833D01*
X187959809Y-125471452D02*
X187413142Y-125471452D01*
X187764571Y-126291452D01*
X187296000Y-126369547D02*
X186671238Y-126369547D01*
X186476000Y-126291452D02*
X186476000Y-125744785D01*
X186476000Y-125900976D02*
X186436952Y-125822880D01*
X186397904Y-125783833D01*
X186319809Y-125744785D01*
X186241714Y-125744785D01*
X185812190Y-125471452D02*
X185734095Y-125471452D01*
X185656000Y-125510500D01*
X185616952Y-125549547D01*
X185577904Y-125627642D01*
X185538857Y-125783833D01*
X185538857Y-125979071D01*
X185577904Y-126135261D01*
X185616952Y-126213357D01*
X185656000Y-126252404D01*
X185734095Y-126291452D01*
X185812190Y-126291452D01*
X185890285Y-126252404D01*
X185929333Y-126213357D01*
X185968380Y-126135261D01*
X186007428Y-125979071D01*
X186007428Y-125783833D01*
X185968380Y-125627642D01*
X185929333Y-125549547D01*
X185890285Y-125510500D01*
X185812190Y-125471452D01*
%TO.C,J_c7_r1*%
X189599809Y-112771452D02*
X189599809Y-113357166D01*
X189638857Y-113474309D01*
X189716952Y-113552404D01*
X189834095Y-113591452D01*
X189912190Y-113591452D01*
X189404571Y-113669547D02*
X188779809Y-113669547D01*
X188233142Y-113552404D02*
X188311238Y-113591452D01*
X188467428Y-113591452D01*
X188545523Y-113552404D01*
X188584571Y-113513357D01*
X188623619Y-113435261D01*
X188623619Y-113200976D01*
X188584571Y-113122880D01*
X188545523Y-113083833D01*
X188467428Y-113044785D01*
X188311238Y-113044785D01*
X188233142Y-113083833D01*
X187959809Y-112771452D02*
X187413142Y-112771452D01*
X187764571Y-113591452D01*
X187296000Y-113669547D02*
X186671238Y-113669547D01*
X186476000Y-113591452D02*
X186476000Y-113044785D01*
X186476000Y-113200976D02*
X186436952Y-113122880D01*
X186397904Y-113083833D01*
X186319809Y-113044785D01*
X186241714Y-113044785D01*
X185538857Y-113591452D02*
X186007428Y-113591452D01*
X185773142Y-113591452D02*
X185773142Y-112771452D01*
X185851238Y-112888595D01*
X185929333Y-112966690D01*
X186007428Y-113005738D01*
%TO.C,J_c7_r2*%
X189599809Y-100198452D02*
X189599809Y-100784166D01*
X189638857Y-100901309D01*
X189716952Y-100979404D01*
X189834095Y-101018452D01*
X189912190Y-101018452D01*
X189404571Y-101096547D02*
X188779809Y-101096547D01*
X188233142Y-100979404D02*
X188311238Y-101018452D01*
X188467428Y-101018452D01*
X188545523Y-100979404D01*
X188584571Y-100940357D01*
X188623619Y-100862261D01*
X188623619Y-100627976D01*
X188584571Y-100549880D01*
X188545523Y-100510833D01*
X188467428Y-100471785D01*
X188311238Y-100471785D01*
X188233142Y-100510833D01*
X187959809Y-100198452D02*
X187413142Y-100198452D01*
X187764571Y-101018452D01*
X187296000Y-101096547D02*
X186671238Y-101096547D01*
X186476000Y-101018452D02*
X186476000Y-100471785D01*
X186476000Y-100627976D02*
X186436952Y-100549880D01*
X186397904Y-100510833D01*
X186319809Y-100471785D01*
X186241714Y-100471785D01*
X186007428Y-100276547D02*
X185968380Y-100237500D01*
X185890285Y-100198452D01*
X185695047Y-100198452D01*
X185616952Y-100237500D01*
X185577904Y-100276547D01*
X185538857Y-100354642D01*
X185538857Y-100432738D01*
X185577904Y-100549880D01*
X186046476Y-101018452D01*
X185538857Y-101018452D01*
%TO.C,J_c7_r3*%
X189599809Y-87498452D02*
X189599809Y-88084166D01*
X189638857Y-88201309D01*
X189716952Y-88279404D01*
X189834095Y-88318452D01*
X189912190Y-88318452D01*
X189404571Y-88396547D02*
X188779809Y-88396547D01*
X188233142Y-88279404D02*
X188311238Y-88318452D01*
X188467428Y-88318452D01*
X188545523Y-88279404D01*
X188584571Y-88240357D01*
X188623619Y-88162261D01*
X188623619Y-87927976D01*
X188584571Y-87849880D01*
X188545523Y-87810833D01*
X188467428Y-87771785D01*
X188311238Y-87771785D01*
X188233142Y-87810833D01*
X187959809Y-87498452D02*
X187413142Y-87498452D01*
X187764571Y-88318452D01*
X187296000Y-88396547D02*
X186671238Y-88396547D01*
X186476000Y-88318452D02*
X186476000Y-87771785D01*
X186476000Y-87927976D02*
X186436952Y-87849880D01*
X186397904Y-87810833D01*
X186319809Y-87771785D01*
X186241714Y-87771785D01*
X186046476Y-87498452D02*
X185538857Y-87498452D01*
X185812190Y-87810833D01*
X185695047Y-87810833D01*
X185616952Y-87849880D01*
X185577904Y-87888928D01*
X185538857Y-87967023D01*
X185538857Y-88162261D01*
X185577904Y-88240357D01*
X185616952Y-88279404D01*
X185695047Y-88318452D01*
X185929333Y-88318452D01*
X186007428Y-88279404D01*
X186046476Y-88240357D01*
%TO.C,J_c7_r4*%
X189599809Y-74798452D02*
X189599809Y-75384166D01*
X189638857Y-75501309D01*
X189716952Y-75579404D01*
X189834095Y-75618452D01*
X189912190Y-75618452D01*
X189404571Y-75696547D02*
X188779809Y-75696547D01*
X188233142Y-75579404D02*
X188311238Y-75618452D01*
X188467428Y-75618452D01*
X188545523Y-75579404D01*
X188584571Y-75540357D01*
X188623619Y-75462261D01*
X188623619Y-75227976D01*
X188584571Y-75149880D01*
X188545523Y-75110833D01*
X188467428Y-75071785D01*
X188311238Y-75071785D01*
X188233142Y-75110833D01*
X187959809Y-74798452D02*
X187413142Y-74798452D01*
X187764571Y-75618452D01*
X187296000Y-75696547D02*
X186671238Y-75696547D01*
X186476000Y-75618452D02*
X186476000Y-75071785D01*
X186476000Y-75227976D02*
X186436952Y-75149880D01*
X186397904Y-75110833D01*
X186319809Y-75071785D01*
X186241714Y-75071785D01*
X185616952Y-75071785D02*
X185616952Y-75618452D01*
X185812190Y-74759404D02*
X186007428Y-75345119D01*
X185499809Y-75345119D01*
%TO.C,J_c7*%
X165666952Y-59006857D02*
X166252666Y-59006857D01*
X166369809Y-58967809D01*
X166447904Y-58889714D01*
X166486952Y-58772571D01*
X166486952Y-58694476D01*
X166565047Y-59202095D02*
X166565047Y-59826857D01*
X166447904Y-60373523D02*
X166486952Y-60295428D01*
X166486952Y-60139238D01*
X166447904Y-60061142D01*
X166408857Y-60022095D01*
X166330761Y-59983047D01*
X166096476Y-59983047D01*
X166018380Y-60022095D01*
X165979333Y-60061142D01*
X165940285Y-60139238D01*
X165940285Y-60295428D01*
X165979333Y-60373523D01*
X165666952Y-60646857D02*
X165666952Y-61193523D01*
X166486952Y-60842095D01*
%TO.C,A*%
X119770666Y-122740761D02*
X119770666Y-123131238D01*
X120004952Y-122662666D02*
X119184952Y-122936000D01*
X120004952Y-123209333D01*
%TO.C,V*%
X119184952Y-128377666D02*
X120004952Y-128651000D01*
X119184952Y-128924333D01*
%TO.C,G*%
X119224000Y-126325761D02*
X119184952Y-126247666D01*
X119184952Y-126130523D01*
X119224000Y-126013380D01*
X119302095Y-125935285D01*
X119380190Y-125896238D01*
X119536380Y-125857190D01*
X119653523Y-125857190D01*
X119809714Y-125896238D01*
X119887809Y-125935285D01*
X119965904Y-126013380D01*
X120004952Y-126130523D01*
X120004952Y-126208619D01*
X119965904Y-126325761D01*
X119926857Y-126364809D01*
X119653523Y-126364809D01*
X119653523Y-126208619D01*
%TO.C,J9*%
X155213333Y-112580952D02*
X155213333Y-113166666D01*
X155252380Y-113283809D01*
X155330476Y-113361904D01*
X155447619Y-113400952D01*
X155525714Y-113400952D01*
X154783809Y-113400952D02*
X154627619Y-113400952D01*
X154549523Y-113361904D01*
X154510476Y-113322857D01*
X154432380Y-113205714D01*
X154393333Y-113049523D01*
X154393333Y-112737142D01*
X154432380Y-112659047D01*
X154471428Y-112620000D01*
X154549523Y-112580952D01*
X154705714Y-112580952D01*
X154783809Y-112620000D01*
X154822857Y-112659047D01*
X154861904Y-112737142D01*
X154861904Y-112932380D01*
X154822857Y-113010476D01*
X154783809Y-113049523D01*
X154705714Y-113088571D01*
X154549523Y-113088571D01*
X154471428Y-113049523D01*
X154432380Y-113010476D01*
X154393333Y-112932380D01*
%TD*%
M02*
