M48
;DRILL file {KiCad (5.0.1)-4} date 1/16/2019 10:32:45 PM
;FORMAT={-:-/ absolute / inch / decimal}
FMAT,2
INCH,TZ
T1C0.0300
T2C0.0315
T3C0.0394
%
G90
G05
M72
T1
X3.9695Y-1.8085
T2
X3.5797Y-1.9206
X3.5797Y-2.1294
X3.6841Y-1.7397
X3.6841Y-2.3103
X3.865Y-1.6352
X4.0739Y-1.6352
X4.0739Y-2.4148
X4.2548Y-1.7397
X4.2548Y-2.3103
X4.3593Y-1.9206
X4.3593Y-2.1294
T3
X4.57Y-1.77
X4.57Y-1.87
X4.57Y-1.97
X4.57Y-2.07
X4.57Y-2.17
X4.57Y-2.27
X4.67Y-1.77
X4.67Y-1.87
X4.67Y-1.97
X4.67Y-2.07
X4.67Y-2.17
X4.67Y-2.27
T0
M30
