G04 #@! TF.GenerationSoftware,KiCad,Pcbnew,(5.0.1)-4*
G04 #@! TF.CreationDate,2019-01-16T22:33:14-08:00*
G04 #@! TF.ProjectId,BareRotary,42617265526F746172792E6B69636164,rev?*
G04 #@! TF.SameCoordinates,Original*
G04 #@! TF.FileFunction,Legend,Top*
G04 #@! TF.FilePolarity,Positive*
%FSLAX46Y46*%
G04 Gerber Fmt 4.6, Leading zero omitted, Abs format (unit mm)*
G04 Created by KiCad (PCBNEW (5.0.1)-4) date 1/16/2019 10:33:14 PM*
%MOMM*%
%LPD*%
G01*
G04 APERTURE LIST*
%ADD10C,0.120000*%
%ADD11C,0.150000*%
G04 APERTURE END LIST*
D10*
G04 #@! TO.C,J1*
X114748000Y-58988000D02*
X119948000Y-58988000D01*
X114748000Y-46228000D02*
X114748000Y-58988000D01*
X119948000Y-43628000D02*
X119948000Y-58988000D01*
X114748000Y-46228000D02*
X117348000Y-46228000D01*
X117348000Y-46228000D02*
X117348000Y-43628000D01*
X117348000Y-43628000D02*
X119948000Y-43628000D01*
X114748000Y-44958000D02*
X114748000Y-43628000D01*
X114748000Y-43628000D02*
X116078000Y-43628000D01*
D11*
G04 #@! TO.C,SW1*
X112475001Y-51435000D02*
G75*
G03X112475001Y-51435000I-11650000J0D01*
G01*
G04 #@! TO.C,REF\002A\002A*
X116141666Y-60752380D02*
X115808333Y-60276190D01*
X115570238Y-60752380D02*
X115570238Y-59752380D01*
X115951190Y-59752380D01*
X116046428Y-59800000D01*
X116094047Y-59847619D01*
X116141666Y-59942857D01*
X116141666Y-60085714D01*
X116094047Y-60180952D01*
X116046428Y-60228571D01*
X115951190Y-60276190D01*
X115570238Y-60276190D01*
X116570238Y-60228571D02*
X116903571Y-60228571D01*
X117046428Y-60752380D02*
X116570238Y-60752380D01*
X116570238Y-59752380D01*
X117046428Y-59752380D01*
X117808333Y-60228571D02*
X117475000Y-60228571D01*
X117475000Y-60752380D02*
X117475000Y-59752380D01*
X117951190Y-59752380D01*
X118475000Y-59752380D02*
X118475000Y-59990476D01*
X118236904Y-59895238D02*
X118475000Y-59990476D01*
X118713095Y-59895238D01*
X118332142Y-60180952D02*
X118475000Y-59990476D01*
X118617857Y-60180952D01*
X119236904Y-59752380D02*
X119236904Y-59990476D01*
X118998809Y-59895238D02*
X119236904Y-59990476D01*
X119475000Y-59895238D01*
X119094047Y-60180952D02*
X119236904Y-59990476D01*
X119379761Y-60180952D01*
X99631666Y-63927380D02*
X99298333Y-63451190D01*
X99060238Y-63927380D02*
X99060238Y-62927380D01*
X99441190Y-62927380D01*
X99536428Y-62975000D01*
X99584047Y-63022619D01*
X99631666Y-63117857D01*
X99631666Y-63260714D01*
X99584047Y-63355952D01*
X99536428Y-63403571D01*
X99441190Y-63451190D01*
X99060238Y-63451190D01*
X100060238Y-63403571D02*
X100393571Y-63403571D01*
X100536428Y-63927380D02*
X100060238Y-63927380D01*
X100060238Y-62927380D01*
X100536428Y-62927380D01*
X101298333Y-63403571D02*
X100965000Y-63403571D01*
X100965000Y-63927380D02*
X100965000Y-62927380D01*
X101441190Y-62927380D01*
X101965000Y-62927380D02*
X101965000Y-63165476D01*
X101726904Y-63070238D02*
X101965000Y-63165476D01*
X102203095Y-63070238D01*
X101822142Y-63355952D02*
X101965000Y-63165476D01*
X102107857Y-63355952D01*
X102726904Y-62927380D02*
X102726904Y-63165476D01*
X102488809Y-63070238D02*
X102726904Y-63165476D01*
X102965000Y-63070238D01*
X102584047Y-63355952D02*
X102726904Y-63165476D01*
X102869761Y-63355952D01*
G04 #@! TO.C,SW1*
X99491667Y-39264761D02*
X99634524Y-39312380D01*
X99872620Y-39312380D01*
X99967858Y-39264761D01*
X100015477Y-39217142D01*
X100063096Y-39121904D01*
X100063096Y-39026666D01*
X100015477Y-38931428D01*
X99967858Y-38883809D01*
X99872620Y-38836190D01*
X99682143Y-38788571D01*
X99586905Y-38740952D01*
X99539286Y-38693333D01*
X99491667Y-38598095D01*
X99491667Y-38502857D01*
X99539286Y-38407619D01*
X99586905Y-38360000D01*
X99682143Y-38312380D01*
X99920239Y-38312380D01*
X100063096Y-38360000D01*
X100396429Y-38312380D02*
X100634524Y-39312380D01*
X100825001Y-38598095D01*
X101015477Y-39312380D01*
X101253572Y-38312380D01*
X102158334Y-39312380D02*
X101586905Y-39312380D01*
X101872620Y-39312380D02*
X101872620Y-38312380D01*
X101777381Y-38455238D01*
X101682143Y-38550476D01*
X101586905Y-38598095D01*
G04 #@! TO.C,REF\002A\002A*
X99631666Y-32812380D02*
X99298333Y-32336190D01*
X99060238Y-32812380D02*
X99060238Y-31812380D01*
X99441190Y-31812380D01*
X99536428Y-31860000D01*
X99584047Y-31907619D01*
X99631666Y-32002857D01*
X99631666Y-32145714D01*
X99584047Y-32240952D01*
X99536428Y-32288571D01*
X99441190Y-32336190D01*
X99060238Y-32336190D01*
X100060238Y-32288571D02*
X100393571Y-32288571D01*
X100536428Y-32812380D02*
X100060238Y-32812380D01*
X100060238Y-31812380D01*
X100536428Y-31812380D01*
X101298333Y-32288571D02*
X100965000Y-32288571D01*
X100965000Y-32812380D02*
X100965000Y-31812380D01*
X101441190Y-31812380D01*
X101965000Y-31812380D02*
X101965000Y-32050476D01*
X101726904Y-31955238D02*
X101965000Y-32050476D01*
X102203095Y-31955238D01*
X101822142Y-32240952D02*
X101965000Y-32050476D01*
X102107857Y-32240952D01*
X102726904Y-31812380D02*
X102726904Y-32050476D01*
X102488809Y-31955238D02*
X102726904Y-32050476D01*
X102965000Y-31955238D01*
X102584047Y-32240952D02*
X102726904Y-32050476D01*
X102869761Y-32240952D01*
G04 #@! TD*
M02*
