<?xml version="1.0" standalone="no"?>
 <!DOCTYPE svg PUBLIC "-//W3C//DTD SVG 1.1//EN" 
 "http://www.w3.org/Graphics/SVG/1.1/DTD/svg11.dtd"> 
<svg xmlns="http://www.w3.org/2000/svg" version="1.1" 
    width="9.97204cm" height="9.03224cm" viewBox="0 0 39260 35560 ">
<title>SVG Picture created as ActionPanel-F.CrtYd.svg date 2019/02/17 21:58:55 </title>
  <desc>Picture generated by PCBNEW </desc>
<g style="fill:#000000; fill-opacity:1;stroke:#000000; stroke-opacity:1;
stroke-linecap:round; stroke-linejoin:round; "
 transform="translate(0 0) scale(1 1)">
</g>
<g style="fill:#000000; fill-opacity:0.0; 
stroke:#000000; stroke-width:-0.000393701; stroke-opacity:1; 
stroke-linecap:round; stroke-linejoin:round;">
</g>
<g style="fill:#C2C2C2; fill-opacity:0.0; 
stroke:#C2C2C2; stroke-width:-0.000393701; stroke-opacity:1; 
stroke-linecap:round; stroke-linejoin:round;">
</g>
<g style="fill:#C2C2C2; fill-opacity:0.0; 
stroke:#C2C2C2; stroke-width:19.685; stroke-opacity:1; 
stroke-linecap:round; stroke-linejoin:round;">
<path d="M13399 27909
L13399 18657
" />
<path d="M13399 18657
L9187 18657
" />
<path d="M9187 18657
L9187 27909
" />
<path d="M9187 27909
L13399 27909
" />
<circle cx="36039.4" cy="29529.5" r="964.567" /> 
<circle cx="4039.37" cy="29529.5" r="964.567" /> 
<circle cx="36039.4" cy="2029.53" r="964.567" /> 
<path d="M9330 33988
L9330 32590
" />
<path d="M9330 32590
L15728 32590
" />
<path d="M15728 32590
L15728 33988
" />
<path d="M15728 33988
L9330 33988
" />
<path d="M14100 12570
L20498 12570
" />
<path d="M14100 14972
L14100 12570
" />
<path d="M20498 14972
L14100 14972
" />
<path d="M20498 12570
L20498 14972
" />
<path d="M19248 16070
L19248 18472
" />
<path d="M19248 18472
L12850 18472
" />
<path d="M12850 18472
L12850 16070
" />
<path d="M12850 16070
L19248 16070
" />
<path d="M33748 32988
L31346 32988
" />
<path d="M31346 32988
L31346 28578
" />
<path d="M31346 28578
L33748 28578
" />
<path d="M33748 28578
L33748 32988
" />
<path d="M24100 1570
L30498 1570
" />
<path d="M24100 3972
L24100 1570
" />
<path d="M30498 3972
L24100 3972
" />
<path d="M30498 1570
L30498 3972
" />
<path d="M19580 18488
L19580 16086
" />
<path d="M19580 16086
L25978 16086
" />
<path d="M25978 16086
L25978 18488
" />
<path d="M25978 18488
L19580 18488
" />
<path d="M30490 18488
L26080 18488
" />
<path d="M30490 16086
L30490 18488
" />
<path d="M26080 16086
L30490 16086
" />
<path d="M26080 18488
L26080 16086
" />
<path d="M22248 7488
L19846 7488
" />
<path d="M19846 7488
L19846 1090
" />
<path d="M19846 1090
L22248 1090
" />
<path d="M22248 1090
L22248 7488
" />
<path d="M13090 32078
L16988 32078
" />
<path d="M16988 32078
L16988 28180
" />
<path d="M16988 28180
L13090 28180
" />
<path d="M13090 28180
L13090 32078
" />
<path d="M10652 28155
L9825 28155
" />
<path d="M9825 28155
L9825 31903
" />
<path d="M9825 31903
L10652 31903
" />
<path d="M10652 31903
L10652 28155
" />
<path d="M11752 28155
L10925 28155
" />
<path d="M10925 28155
L10925 31903
" />
<path d="M10925 31903
L11752 31903
" />
<path d="M11752 31903
L11752 28155
" />
<path d="M23125 31653
L23952 31653
" />
<path d="M23952 31653
L23952 27905
" />
<path d="M23952 27905
L23125 27905
" />
<path d="M23125 27905
L23125 31653
" />
<path d="M24125 27905
L24125 31653
" />
<path d="M24952 27905
L24125 27905
" />
<path d="M24952 31653
L24952 27905
" />
<path d="M24125 31653
L24952 31653
" />
<path d="M30202 28905
L29375 28905
" />
<path d="M29375 28905
L29375 32653
" />
<path d="M29375 32653
L30202 32653
" />
<path d="M30202 32653
L30202 28905
" />
<path d="M29202 32653
L29202 28905
" />
<path d="M28375 32653
L29202 32653
" />
<path d="M28375 28905
L28375 32653
" />
<path d="M29202 28905
L28375 28905
" />
<path d="M28202 28905
L27375 28905
" />
<path d="M27375 28905
L27375 32653
" />
<path d="M27375 32653
L28202 32653
" />
<path d="M28202 32653
L28202 28905
" />
<path d="M27202 32653
L27202 28905
" />
<path d="M26375 32653
L27202 32653
" />
<path d="M26375 28905
L26375 32653
" />
<path d="M27202 28905
L26375 28905
" />
<path d="M30202 4155
L29375 4155
" />
<path d="M29375 4155
L29375 7903
" />
<path d="M29375 7903
L30202 7903
" />
<path d="M30202 7903
L30202 4155
" />
<path d="M24202 4155
L23375 4155
" />
<path d="M23375 4155
L23375 7903
" />
<path d="M23375 7903
L24202 7903
" />
<path d="M24202 7903
L24202 4155
" />
<path d="M29202 7903
L29202 4155
" />
<path d="M28375 7903
L29202 7903
" />
<path d="M28375 4155
L28375 7903
" />
<path d="M29202 4155
L28375 4155
" />
<path d="M23202 7903
L23202 4155
" />
<path d="M22375 7903
L23202 7903
" />
<path d="M22375 4155
L22375 7903
" />
<path d="M23202 4155
L22375 4155
" />
<path d="M26375 15903
L27202 15903
" />
<path d="M27202 15903
L27202 12155
" />
<path d="M27202 12155
L26375 12155
" />
<path d="M26375 12155
L26375 15903
" />
<path d="M28202 4155
L27375 4155
" />
<path d="M27375 4155
L27375 7903
" />
<path d="M27375 7903
L28202 7903
" />
<path d="M28202 7903
L28202 4155
" />
<path d="M22375 15903
L23202 15903
" />
<path d="M23202 15903
L23202 12155
" />
<path d="M23202 12155
L22375 12155
" />
<path d="M22375 12155
L22375 15903
" />
<path d="M27375 12155
L27375 15903
" />
<path d="M28202 12155
L27375 12155
" />
<path d="M28202 15903
L28202 12155
" />
<path d="M27375 15903
L28202 15903
" />
<path d="M27202 7903
L27202 4155
" />
<path d="M26375 7903
L27202 7903
" />
<path d="M26375 4155
L26375 7903
" />
<path d="M27202 4155
L26375 4155
" />
<path d="M23375 12155
L23375 15903
" />
<path d="M24202 12155
L23375 12155
" />
<path d="M24202 15903
L24202 12155
" />
<path d="M23375 15903
L24202 15903
" />
<path d="M28375 15903
L29202 15903
" />
<path d="M29202 15903
L29202 12155
" />
<path d="M29202 12155
L28375 12155
" />
<path d="M28375 12155
L28375 15903
" />
<path d="M26202 4155
L25375 4155
" />
<path d="M25375 4155
L25375 7903
" />
<path d="M25375 7903
L26202 7903
" />
<path d="M26202 7903
L26202 4155
" />
<path d="M24375 15903
L25202 15903
" />
<path d="M25202 15903
L25202 12155
" />
<path d="M25202 12155
L24375 12155
" />
<path d="M24375 12155
L24375 15903
" />
<path d="M29375 12155
L29375 15903
" />
<path d="M30202 12155
L29375 12155
" />
<path d="M30202 15903
L30202 12155
" />
<path d="M29375 15903
L30202 15903
" />
<path d="M25202 7903
L25202 4155
" />
<path d="M24375 7903
L25202 7903
" />
<path d="M24375 4155
L24375 7903
" />
<path d="M25202 4155
L24375 4155
" />
<path d="M25375 12155
L25375 15903
" />
<path d="M26202 12155
L25375 12155
" />
<path d="M26202 15903
L26202 12155
" />
<path d="M25375 15903
L26202 15903
" />
<path d="M14665 7192
L18413 7192
" />
<path d="M14665 6366
L14665 7192
" />
<path d="M18413 6366
L14665 6366
" />
<path d="M18413 7192
L18413 6366
" />
<path d="M14665 6192
L18413 6192
" />
<path d="M14665 5366
L14665 6192
" />
<path d="M18413 5366
L14665 5366
" />
<path d="M18413 6192
L18413 5366
" />
<path d="M14665 5192
L18413 5192
" />
<path d="M14665 4366
L14665 5192
" />
<path d="M18413 4366
L14665 4366
" />
<path d="M18413 5192
L18413 4366
" />
<path d="M18413 4192
L18413 3366
" />
<path d="M18413 3366
L14665 3366
" />
<path d="M14665 3366
L14665 4192
" />
<path d="M14665 4192
L18413 4192
" />
<path d="M18413 3192
L18413 2366
" />
<path d="M18413 2366
L14665 2366
" />
<path d="M14665 2366
L14665 3192
" />
<path d="M14665 3192
L18413 3192
" />
<path d="M8452 3655
L7625 3655
" />
<path d="M7625 3655
L7625 7403
" />
<path d="M7625 7403
L8452 7403
" />
<path d="M8452 7403
L8452 3655
" />
<path d="M8452 12403
L8452 8655
" />
<path d="M7625 12403
L8452 12403
" />
<path d="M7625 8655
L7625 12403
" />
<path d="M8452 8655
L7625 8655
" />
<path d="M8452 13655
L7625 13655
" />
<path d="M7625 13655
L7625 17403
" />
<path d="M7625 17403
L8452 17403
" />
<path d="M8452 17403
L8452 13655
" />
<path d="M8452 22403
L8452 18655
" />
<path d="M7625 22403
L8452 22403
" />
<path d="M7625 18655
L7625 22403
" />
<path d="M8452 18655
L7625 18655
" />
<path d="M8452 23405
L7625 23405
" />
<path d="M7625 23405
L7625 27153
" />
<path d="M7625 27153
L8452 27153
" />
<path d="M8452 27153
L8452 23405
" />
<path d="M31625 4655
L31625 8403
" />
<path d="M32452 4655
L31625 4655
" />
<path d="M32452 8403
L32452 4655
" />
<path d="M31625 8403
L32452 8403
" />
<path d="M31625 13403
L32452 13403
" />
<path d="M32452 13403
L32452 9655
" />
<path d="M32452 9655
L31625 9655
" />
<path d="M31625 9655
L31625 13403
" />
<path d="M31625 14655
L31625 18403
" />
<path d="M32452 14655
L31625 14655
" />
<path d="M32452 18403
L32452 14655
" />
<path d="M31625 18403
L32452 18403
" />
<path d="M31625 23403
L32452 23403
" />
<path d="M32452 23403
L32452 19655
" />
<path d="M32452 19655
L31625 19655
" />
<path d="M31625 19655
L31625 23403
" />
<path d="M31625 24655
L31625 28403
" />
<path d="M32452 24655
L31625 24655
" />
<path d="M32452 28403
L32452 24655
" />
<path d="M31625 28403
L32452 28403
" />
<path d="M14665 2192
L18413 2192
" />
<path d="M14665 1366
L14665 2192
" />
<path d="M18413 1366
L14665 1366
" />
<path d="M18413 2192
L18413 1366
" />
<path d="M842 3553
L7149 3553
" />
<path d="M842 3553
L842 8474
" />
<path d="M7149 8474
L7149 3553
" />
<path d="M7149 8474
L842 8474
" />
<path d="M842 8553
L7149 8553
" />
<path d="M842 8553
L842 13474
" />
<path d="M7149 13474
L7149 8553
" />
<path d="M7149 13474
L842 13474
" />
<path d="M842 13553
L7149 13553
" />
<path d="M842 13553
L842 18474
" />
<path d="M7149 18474
L7149 13553
" />
<path d="M7149 18474
L842 18474
" />
<path d="M842 18553
L7149 18553
" />
<path d="M842 18553
L842 23474
" />
<path d="M7149 23474
L7149 18553
" />
<path d="M7149 23474
L842 23474
" />
<path d="M7149 28474
L842 28474
" />
<path d="M7149 28474
L7149 23553
" />
<path d="M842 23553
L842 28474
" />
<path d="M842 23553
L7149 23553
" />
<path d="M39149 8474
L32842 8474
" />
<path d="M39149 8474
L39149 3553
" />
<path d="M32842 3553
L32842 8474
" />
<path d="M32842 3553
L39149 3553
" />
<path d="M32842 8553
L39149 8553
" />
<path d="M32842 8553
L32842 13474
" />
<path d="M39149 13474
L39149 8553
" />
<path d="M39149 13474
L32842 13474
" />
<path d="M39149 18474
L32842 18474
" />
<path d="M39149 18474
L39149 13553
" />
<path d="M32842 13553
L32842 18474
" />
<path d="M32842 13553
L39149 13553
" />
<path d="M39149 23474
L32842 23474
" />
<path d="M39149 23474
L39149 18553
" />
<path d="M32842 18553
L32842 23474
" />
<path d="M32842 18553
L39149 18553
" />
<path d="M39149 28474
L32842 28474
" />
<path d="M39149 28474
L39149 23553
" />
<path d="M32842 23553
L32842 28474
" />
<path d="M32842 23553
L39149 23553
" />
<circle cx="4039.37" cy="2029.53" r="964.567" /> 
<path d="M17452 19787
L13625 19787
" />
<path d="M17452 20771
L17452 19787
" />
<path d="M13625 20771
L17452 20771
" />
<path d="M13625 19787
L13625 20771
" />
<path d="M13625 20787
L13625 21771
" />
<path d="M13625 21771
L17452 21771
" />
<path d="M17452 21771
L17452 20787
" />
<path d="M17452 20787
L13625 20787
" />
<path d="M17452 21793
L13625 21793
" />
<path d="M17452 22777
L17452 21793
" />
<path d="M13625 22777
L17452 22777
" />
<path d="M13625 21793
L13625 22777
" />
<path d="M13625 22787
L13625 23771
" />
<path d="M13625 23771
L17452 23771
" />
<path d="M17452 23771
L17452 22787
" />
<path d="M17452 22787
L13625 22787
" />
<path d="M17452 23787
L13625 23787
" />
<path d="M17452 24771
L17452 23787
" />
<path d="M13625 24771
L17452 24771
" />
<path d="M13625 23787
L13625 24771
" />
<path d="M13625 24787
L13625 25771
" />
<path d="M13625 25771
L17452 25771
" />
<path d="M17452 25771
L17452 24787
" />
<path d="M17452 24787
L13625 24787
" />
<path d="M17452 25787
L13625 25787
" />
<path d="M17452 26771
L17452 25787
" />
<path d="M13625 26771
L17452 26771
" />
<path d="M13625 25787
L13625 26771
" />
<path d="M13625 26787
L13625 27771
" />
<path d="M13625 27771
L17452 27771
" />
<path d="M17452 27771
L17452 26787
" />
<path d="M17452 26787
L13625 26787
" />
<path d="M25952 27771
L25952 26787
" />
<path d="M25952 26787
L22125 26787
" />
<path d="M22125 26787
L22125 27771
" />
<path d="M22125 27771
L25952 27771
" />
<path d="M22125 26771
L25952 26771
" />
<path d="M22125 25787
L22125 26771
" />
<path d="M25952 25787
L22125 25787
" />
<path d="M25952 26771
L25952 25787
" />
<path d="M25952 25771
L25952 24787
" />
<path d="M25952 24787
L22125 24787
" />
<path d="M22125 24787
L22125 25771
" />
<path d="M22125 25771
L25952 25771
" />
<path d="M22125 24771
L25952 24771
" />
<path d="M22125 23787
L22125 24771
" />
<path d="M25952 23787
L22125 23787
" />
<path d="M25952 24771
L25952 23787
" />
<path d="M25952 23771
L25952 22787
" />
<path d="M25952 22787
L22125 22787
" />
<path d="M22125 22787
L22125 23771
" />
<path d="M22125 23771
L25952 23771
" />
<path d="M22125 22771
L25952 22771
" />
<path d="M22125 21787
L22125 22771
" />
<path d="M25952 21787
L22125 21787
" />
<path d="M25952 22771
L25952 21787
" />
<path d="M25950 21753
L25950 20769
" />
<path d="M25950 20769
L22124 20769
" />
<path d="M22124 20769
L22124 21753
" />
<path d="M22124 21753
L25950 21753
" />
<path d="M22124 20750
L25950 20750
" />
<path d="M22124 19765
L22124 20750
" />
<path d="M25950 19765
L22124 19765
" />
<path d="M25950 20750
L25950 19765
" />
<path d="M17679 19649
L17679 33921
" />
<path d="M17679 33921
L21891 33921
" />
<path d="M21891 33921
L21891 19649
" />
<path d="M21891 19649
L17679 19649
" />
<path d="M26179 19399
L26179 28651
" />
<path d="M26179 28651
L30391 28651
" />
<path d="M30391 28651
L30391 19399
" />
<path d="M30391 19399
L26179 19399
" />
<path d="M30169 7919
L15897 7919
" />
<path d="M15897 7919
L15897 12131
" />
<path d="M15897 12131
L30169 12131
" />
<path d="M30169 12131
L30169 7919
" />
<path d="M13141 899
L8929 899
" />
<path d="M13141 15171
L13141 899
" />
<path d="M8929 15171
L13141 15171
" />
<path d="M8929 899
L8929 15171
" />
</g>
<g style="fill:#000000; fill-opacity:0.0; 
stroke:#000000; stroke-width:19.685; stroke-opacity:1; 
stroke-linecap:round; stroke-linejoin:round;">
</g>
<g style="fill:#C2C200; fill-opacity:0.0; 
stroke:#C2C200; stroke-width:19.685; stroke-opacity:1; 
stroke-linecap:round; stroke-linejoin:round;">
</g>
<g style="fill:#C2C200; fill-opacity:0.0; 
stroke:#C2C200; stroke-width:78.7402; stroke-opacity:1; 
stroke-linecap:round; stroke-linejoin:round;">
<path d="M39139 35529
L39 35529
" />
</g>
<g style="fill:#C2C200; fill-opacity:0.0; 
stroke:#C2C200; stroke-width:59.0551; stroke-opacity:1; 
stroke-linecap:round; stroke-linejoin:round;">
<path d="M39239 29
L39 29
" />
<path d="M39139 35529
L39239 29
" />
<path d="M39 29
L39 35529
" />
</g> 
</svg>
