M48
;DRILL file {KiCad (5.0.1)-4} date 2/10/2019 12:21:05 AM
;FORMAT={-:-/ absolute / inch / decimal}
FMAT,2
INCH,TZ
T1C0.0157
T2C0.0276
T3C0.0315
T4C0.0320
T5C0.0394
T6C0.0866
%
G90
G05
M72
T1
X4.63Y-5.1183
X4.77Y-5.1
X6.145Y-3.89
X6.195Y-3.84
T2
X6.195Y-2.39
X6.195Y-2.69
X6.495Y-2.39
X6.495Y-2.69
X6.395Y-2.39
X6.395Y-2.69
X6.495Y-3.19
X6.495Y-3.49
X6.595Y-2.39
X6.595Y-2.69
X4.62Y-3.84
X4.62Y-4.14
X7.02Y-3.94
X7.02Y-4.24
X6.295Y-3.19
X6.295Y-3.49
X6.795Y-3.19
X6.795Y-3.49
X6.695Y-4.865
X6.695Y-5.165
X6.595Y-4.865
X6.595Y-5.165
X6.17Y-4.765
X6.17Y-5.065
X4.62Y-4.315
X4.62Y-4.615
X6.595Y-3.19
X6.595Y-3.49
X6.695Y-3.19
X6.695Y-3.49
X5.32Y-4.85
X5.32Y-5.05
X5.42Y-4.95
X6.795Y-4.865
X6.795Y-5.165
X5.32Y-2.315
X5.62Y-2.315
X5.32Y-2.415
X5.62Y-2.415
X4.62Y-3.34
X4.62Y-3.64
X6.095Y-2.39
X6.095Y-2.69
X6.095Y-3.19
X6.095Y-3.49
X6.195Y-3.19
X6.195Y-3.49
X6.795Y-2.39
X6.795Y-2.69
X4.62Y-2.84
X4.62Y-3.14
X7.02Y-3.44
X7.02Y-3.74
X6.395Y-3.19
X6.395Y-3.49
X6.695Y-2.39
X6.695Y-2.69
X4.95Y-4.79
X4.95Y-5.09
X6.295Y-2.39
X6.295Y-2.69
X5.32Y-2.215
X5.62Y-2.215
X6.27Y-4.765
X6.27Y-5.065
X4.84Y-4.79
X4.84Y-5.09
X6.495Y-4.865
X6.495Y-5.165
X7.02Y-2.44
X7.02Y-2.74
X7.02Y-2.94
X7.02Y-3.24
X5.32Y-2.515
X5.62Y-2.515
X4.62Y-2.34
X4.62Y-2.64
X7.02Y-4.44
X7.02Y-4.74
X5.32Y-2.615
X5.62Y-2.615
X5.32Y-2.115
X5.62Y-2.115
T3
X4.795Y-3.865
X4.795Y-3.965
X4.795Y-4.065
X4.795Y-4.165
X4.795Y-4.265
X4.795Y-4.365
X4.795Y-4.465
X4.795Y-4.565
X4.795Y-4.665
X5.095Y-3.865
X5.095Y-3.965
X5.095Y-4.065
X5.095Y-4.165
X5.095Y-4.265
X5.095Y-4.365
X5.095Y-4.465
X5.095Y-4.565
X5.095Y-4.665
X5.22Y-4.565
X5.52Y-4.565
X6.495Y-3.94
X6.495Y-4.04
X6.495Y-4.14
X6.495Y-4.24
X6.495Y-4.34
X6.495Y-4.44
X6.495Y-4.54
X6.495Y-4.64
X6.495Y-4.74
X6.795Y-3.94
X6.795Y-4.04
X6.795Y-4.14
X6.795Y-4.24
X6.795Y-4.34
X6.795Y-4.44
X6.795Y-4.54
X6.795Y-4.64
X6.795Y-4.74
X6.07Y-4.365
X6.37Y-4.365
X5.22Y-4.365
X5.52Y-4.365
X5.22Y-4.465
X5.52Y-4.465
X5.645Y-3.965
X5.645Y-4.065
X5.645Y-4.165
X5.645Y-4.265
X5.645Y-4.365
X5.645Y-4.465
X5.645Y-4.565
X5.645Y-4.665
X5.645Y-4.765
X5.645Y-4.865
X5.645Y-4.965
X5.645Y-5.065
X5.645Y-5.165
X5.645Y-5.265
X5.945Y-3.965
X5.945Y-4.065
X5.945Y-4.165
X5.945Y-4.265
X5.945Y-4.365
X5.945Y-4.465
X5.945Y-4.565
X5.945Y-4.665
X5.945Y-4.765
X5.945Y-4.865
X5.945Y-4.965
X5.945Y-5.065
X5.945Y-5.165
X5.945Y-5.265
X6.0698Y-4.0632
X6.3698Y-4.0632
X6.0698Y-3.9628
X6.3698Y-3.9628
X6.07Y-4.465
X6.37Y-4.465
X5.22Y-4.265
X5.52Y-4.265
X5.47Y-2.79
X5.47Y-3.09
X5.57Y-2.79
X5.57Y-3.09
X5.67Y-2.79
X5.67Y-3.09
X5.77Y-2.79
X5.77Y-3.09
X5.87Y-2.79
X5.87Y-3.09
X5.97Y-2.79
X5.97Y-3.09
X6.07Y-2.79
X6.07Y-3.09
X6.17Y-2.79
X6.17Y-3.09
X6.27Y-2.79
X6.27Y-3.09
X6.37Y-2.79
X6.37Y-3.09
X6.47Y-2.79
X6.47Y-3.09
X6.57Y-2.79
X6.57Y-3.09
X6.67Y-2.79
X6.67Y-3.09
X6.77Y-2.79
X6.77Y-3.09
X6.07Y-4.265
X6.37Y-4.265
X6.07Y-4.565
X6.37Y-4.565
X5.22Y-4.1656
X5.52Y-4.1656
X4.77Y-2.09
X4.77Y-2.19
X4.77Y-2.29
X4.77Y-2.39
X4.77Y-2.49
X4.77Y-2.59
X4.77Y-2.69
X4.77Y-2.79
X4.77Y-2.89
X4.77Y-2.99
X4.77Y-3.09
X4.77Y-3.19
X4.77Y-3.29
X4.77Y-3.39
X5.07Y-2.09
X5.07Y-2.19
X5.07Y-2.29
X5.07Y-2.39
X5.07Y-2.49
X5.07Y-2.59
X5.07Y-2.69
X5.07Y-2.79
X5.07Y-2.89
X5.07Y-2.99
X5.07Y-3.09
X5.07Y-3.19
X5.07Y-3.29
X5.07Y-3.39
X6.07Y-4.165
X6.37Y-4.165
X6.07Y-4.665
X6.37Y-4.665
X5.22Y-4.065
X5.52Y-4.065
X5.22Y-4.665
X5.52Y-4.665
X5.22Y-3.965
X5.52Y-3.965
T4
X7.17Y-3.94
X7.17Y-4.1369
X7.6621Y-3.94
X7.6621Y-4.1369
X3.97Y-4.44
X3.97Y-4.6369
X4.4621Y-4.44
X4.4621Y-4.6369
X3.97Y-2.94
X3.97Y-3.1369
X4.4621Y-2.94
X4.4621Y-3.1369
X7.17Y-3.44
X7.17Y-3.6369
X7.6621Y-3.44
X7.6621Y-3.6369
X3.97Y-2.44
X3.97Y-2.6369
X4.4621Y-2.44
X4.4621Y-2.6369
X7.17Y-2.44
X7.17Y-2.6369
X7.6621Y-2.44
X7.6621Y-2.6369
X7.17Y-2.94
X7.17Y-3.1369
X7.6621Y-2.94
X7.6621Y-3.1369
X3.97Y-3.94
X3.97Y-4.1369
X4.4621Y-3.94
X4.4621Y-4.1369
X7.17Y-4.44
X7.17Y-4.6369
X7.6621Y-4.44
X7.6621Y-4.6369
X3.97Y-3.44
X3.97Y-3.6369
X4.4621Y-3.44
X4.4621Y-3.6369
T5
X6.495Y-3.615
X6.495Y-3.715
X6.595Y-3.615
X6.595Y-3.715
X6.695Y-3.615
X6.695Y-3.715
X6.795Y-3.615
X6.795Y-3.715
X4.82Y-5.265
X4.92Y-5.265
X5.02Y-5.265
X5.12Y-5.265
X5.22Y-5.265
X5.32Y-5.265
X5.295Y-3.265
X5.295Y-3.365
X5.395Y-3.265
X5.395Y-3.365
X5.495Y-3.265
X5.495Y-3.365
X5.595Y-3.265
X5.595Y-3.365
X5.695Y-3.265
X5.695Y-3.365
X5.795Y-3.265
X5.795Y-3.365
X7.02Y-4.865
X7.02Y-4.965
X7.02Y-5.065
X7.02Y-5.165
X7.12Y-4.865
X7.12Y-4.965
X7.12Y-5.065
X7.12Y-5.165
X5.845Y-3.615
X5.845Y-3.715
X5.945Y-3.615
X5.945Y-3.715
X6.045Y-3.615
X6.045Y-3.715
X6.145Y-3.615
X6.145Y-3.715
X6.245Y-3.615
X6.245Y-3.715
X6.345Y-3.615
X6.345Y-3.715
X5.17Y-3.615
X5.17Y-3.715
X5.27Y-3.615
X5.27Y-3.715
X5.37Y-3.615
X5.37Y-3.715
X5.47Y-3.615
X5.47Y-3.715
X5.57Y-3.615
X5.57Y-3.715
X5.67Y-3.615
X5.67Y-3.715
X5.87Y-2.115
X5.87Y-2.215
X5.87Y-2.315
X5.87Y-2.415
X5.87Y-2.515
X5.87Y-2.615
X5.97Y-2.115
X5.97Y-2.215
X5.97Y-2.315
X5.97Y-2.415
X5.97Y-2.515
X5.97Y-2.615
X6.295Y-2.165
X6.295Y-2.265
X6.395Y-2.165
X6.395Y-2.265
X6.495Y-2.165
X6.495Y-2.265
X6.595Y-2.165
X6.595Y-2.265
X6.695Y-2.165
X6.695Y-2.265
X6.795Y-2.165
X6.795Y-2.265
T6
X4.22Y-4.89
X7.42Y-4.89
X7.42Y-2.14
X4.22Y-2.14
T0
M30
