M48
;DRILL file {KiCad (5.0.1)-4} date 3/25/2019 10:39:25 AM
;FORMAT={-:-/ absolute / inch / decimal}
FMAT,2
INCH,TZ
T1C0.0236
T2C0.0315
T3C0.0394
%
G90
G05
M72
T2
X6.025Y-2.
X6.025Y-2.3
X5.325Y-2.25
X5.325Y-2.55
X6.025Y-1.875
X6.325Y-1.875
T3
X5.3Y-1.875
X5.4Y-1.875
X5.5Y-1.875
X5.6Y-1.875
X5.7Y-1.875
T1
X5.64Y-2.025G85X5.6163Y-2.025
G05
X5.64Y-2.5171G85X5.6163Y-2.5171
G05
X5.8368Y-2.5171G85X5.8132Y-2.5171
G05
X4.94Y-2.025G85X4.9163Y-2.025
G05
X4.94Y-2.5171G85X4.9163Y-2.5171
G05
X5.1368Y-2.025G85X5.1132Y-2.025
G05
X5.1368Y-2.5171G85X5.1132Y-2.5171
G05
X6.34Y-2.025G85X6.3163Y-2.025
G05
X6.34Y-2.5171G85X6.3163Y-2.5171
G05
X6.5368Y-2.025G85X6.5132Y-2.025
G05
X6.5368Y-2.5171G85X6.5132Y-2.5171
G05
X5.8368Y-2.025G85X5.8132Y-2.025
G05
T0
M30
