G04 #@! TF.GenerationSoftware,KiCad,Pcbnew,(5.0.1)-4*
G04 #@! TF.CreationDate,2019-03-25T10:39:43-07:00*
G04 #@! TF.ProjectId,SysButtons,537973427574746F6E732E6B69636164,rev?*
G04 #@! TF.SameCoordinates,Original*
G04 #@! TF.FileFunction,Copper,L1,Top,Signal*
G04 #@! TF.FilePolarity,Positive*
%FSLAX46Y46*%
G04 Gerber Fmt 4.6, Leading zero omitted, Abs format (unit mm)*
G04 Created by KiCad (PCBNEW (5.0.1)-4) date 3/25/2019 10:39:43 AM*
%MOMM*%
%LPD*%
G01*
G04 APERTURE LIST*
G04 #@! TA.AperFunction,ComponentPad*
%ADD10R,1.600000X1.600000*%
G04 #@! TD*
G04 #@! TA.AperFunction,ComponentPad*
%ADD11O,1.600000X1.600000*%
G04 #@! TD*
G04 #@! TA.AperFunction,ComponentPad*
%ADD12R,1.700000X1.700000*%
G04 #@! TD*
G04 #@! TA.AperFunction,ComponentPad*
%ADD13O,1.700000X1.700000*%
G04 #@! TD*
G04 #@! TA.AperFunction,ComponentPad*
%ADD14C,1.600000*%
G04 #@! TD*
G04 #@! TA.AperFunction,ComponentPad*
%ADD15O,1.727200X3.048000*%
G04 #@! TD*
G04 #@! TA.AperFunction,Conductor*
%ADD16C,0.254000*%
G04 #@! TD*
G04 APERTURE END LIST*
D10*
G04 #@! TO.P,D1,1*
G04 #@! TO.N,Net-(D1-Pad1)*
X135255000Y-64770000D03*
D11*
G04 #@! TO.P,D1,2*
G04 #@! TO.N,Net-(D1-Pad2)*
X135255000Y-57150000D03*
G04 #@! TD*
D12*
G04 #@! TO.P,J1,1*
G04 #@! TO.N,+5V*
X134620000Y-47625000D03*
D13*
G04 #@! TO.P,J1,2*
G04 #@! TO.N,GND*
X137160000Y-47625000D03*
G04 #@! TO.P,J1,3*
G04 #@! TO.N,Net-(D1-Pad2)*
X139700000Y-47625000D03*
G04 #@! TO.P,J1,4*
G04 #@! TO.N,Net-(J1-Pad4)*
X142240000Y-47625000D03*
G04 #@! TO.P,J1,5*
G04 #@! TO.N,Net-(J1-Pad5)*
X144780000Y-47625000D03*
G04 #@! TD*
D11*
G04 #@! TO.P,R2,2*
G04 #@! TO.N,Net-(J1-Pad4)*
X153035000Y-50800000D03*
D14*
G04 #@! TO.P,R2,1*
G04 #@! TO.N,GND*
X153035000Y-58420000D03*
G04 #@! TD*
G04 #@! TO.P,R3,1*
G04 #@! TO.N,GND*
X153035000Y-47625000D03*
D11*
G04 #@! TO.P,R3,2*
G04 #@! TO.N,Net-(J1-Pad5)*
X160655000Y-47625000D03*
G04 #@! TD*
D15*
G04 #@! TO.P,SW1,1*
G04 #@! TO.N,+5V*
X130175000Y-63935000D03*
G04 #@! TO.P,SW1,2*
G04 #@! TO.N,Net-(D1-Pad1)*
X125175000Y-63935000D03*
G04 #@! TO.P,SW1,1*
G04 #@! TO.N,+5V*
X130175000Y-51435000D03*
G04 #@! TO.P,SW1,2*
G04 #@! TO.N,Net-(D1-Pad1)*
X125175000Y-51435000D03*
G04 #@! TD*
G04 #@! TO.P,SW2,2*
G04 #@! TO.N,Net-(J1-Pad4)*
X142955000Y-51435000D03*
G04 #@! TO.P,SW2,1*
G04 #@! TO.N,+5V*
X147955000Y-51435000D03*
G04 #@! TO.P,SW2,2*
G04 #@! TO.N,Net-(J1-Pad4)*
X142955000Y-63935000D03*
G04 #@! TO.P,SW2,1*
G04 #@! TO.N,+5V*
X147955000Y-63935000D03*
G04 #@! TD*
G04 #@! TO.P,SW3,1*
G04 #@! TO.N,+5V*
X165735000Y-63935000D03*
G04 #@! TO.P,SW3,2*
G04 #@! TO.N,Net-(J1-Pad5)*
X160735000Y-63935000D03*
G04 #@! TO.P,SW3,1*
G04 #@! TO.N,+5V*
X165735000Y-51435000D03*
G04 #@! TO.P,SW3,2*
G04 #@! TO.N,Net-(J1-Pad5)*
X160735000Y-51435000D03*
G04 #@! TD*
D16*
G04 #@! TO.N,GND*
G36*
X133171843Y-46527235D02*
X133122560Y-46775000D01*
X133122560Y-48475000D01*
X133171843Y-48722765D01*
X133312191Y-48932809D01*
X133522235Y-49073157D01*
X133770000Y-49122440D01*
X135470000Y-49122440D01*
X135717765Y-49073157D01*
X135927809Y-48932809D01*
X136068157Y-48722765D01*
X136088739Y-48619292D01*
X136393076Y-48896645D01*
X136803110Y-49066476D01*
X137033000Y-48945155D01*
X137033000Y-47752000D01*
X137013000Y-47752000D01*
X137013000Y-47498000D01*
X137033000Y-47498000D01*
X137033000Y-47478000D01*
X137287000Y-47478000D01*
X137287000Y-47498000D01*
X137307000Y-47498000D01*
X137307000Y-47752000D01*
X137287000Y-47752000D01*
X137287000Y-48945155D01*
X137516890Y-49066476D01*
X137926924Y-48896645D01*
X138355183Y-48506358D01*
X138416157Y-48376522D01*
X138629375Y-48695625D01*
X139120582Y-49023839D01*
X139553744Y-49110000D01*
X139846256Y-49110000D01*
X140279418Y-49023839D01*
X140770625Y-48695625D01*
X140970000Y-48397239D01*
X141169375Y-48695625D01*
X141660582Y-49023839D01*
X142093744Y-49110000D01*
X142386256Y-49110000D01*
X142819418Y-49023839D01*
X143310625Y-48695625D01*
X143510000Y-48397239D01*
X143709375Y-48695625D01*
X144200582Y-49023839D01*
X144633744Y-49110000D01*
X144926256Y-49110000D01*
X145359418Y-49023839D01*
X145850625Y-48695625D01*
X145892640Y-48632745D01*
X152206861Y-48632745D01*
X152280995Y-48878864D01*
X152818223Y-49071965D01*
X153388454Y-49044778D01*
X153789005Y-48878864D01*
X153863139Y-48632745D01*
X153035000Y-47804605D01*
X152206861Y-48632745D01*
X145892640Y-48632745D01*
X146178839Y-48204418D01*
X146294092Y-47625000D01*
X146250973Y-47408223D01*
X151588035Y-47408223D01*
X151615222Y-47978454D01*
X151781136Y-48379005D01*
X152027255Y-48453139D01*
X152855395Y-47625000D01*
X153214605Y-47625000D01*
X154042745Y-48453139D01*
X154288864Y-48379005D01*
X154481965Y-47841777D01*
X154454778Y-47271546D01*
X154288864Y-46870995D01*
X154042745Y-46796861D01*
X153214605Y-47625000D01*
X152855395Y-47625000D01*
X152027255Y-46796861D01*
X151781136Y-46870995D01*
X151588035Y-47408223D01*
X146250973Y-47408223D01*
X146178839Y-47045582D01*
X145850625Y-46554375D01*
X145552239Y-46355000D01*
X152319951Y-46355000D01*
X152280995Y-46371136D01*
X152206861Y-46617255D01*
X153035000Y-47445395D01*
X153863139Y-46617255D01*
X153789005Y-46371136D01*
X153744113Y-46355000D01*
X159972758Y-46355000D01*
X159620423Y-46590423D01*
X159303260Y-47065091D01*
X159191887Y-47625000D01*
X159303260Y-48184909D01*
X159620423Y-48659577D01*
X160095091Y-48976740D01*
X160513667Y-49060000D01*
X160796333Y-49060000D01*
X161214909Y-48976740D01*
X161689577Y-48659577D01*
X162006740Y-48184909D01*
X162118113Y-47625000D01*
X162006740Y-47065091D01*
X161689577Y-46590423D01*
X161337242Y-46355000D01*
X167767000Y-46355000D01*
X167767000Y-65305000D01*
X167063211Y-65305000D01*
X167146650Y-65180125D01*
X167233600Y-64742998D01*
X167233600Y-63127002D01*
X167146650Y-62689875D01*
X166815430Y-62194170D01*
X166319725Y-61862950D01*
X165735000Y-61746641D01*
X165150276Y-61862950D01*
X164654571Y-62194170D01*
X164323351Y-62689875D01*
X164236400Y-63127002D01*
X164236400Y-64742997D01*
X164323350Y-65180124D01*
X164406789Y-65305000D01*
X162063211Y-65305000D01*
X162146650Y-65180125D01*
X162233600Y-64742998D01*
X162233600Y-63127002D01*
X162146650Y-62689875D01*
X161815430Y-62194170D01*
X161319725Y-61862950D01*
X160735000Y-61746641D01*
X160150276Y-61862950D01*
X159654571Y-62194170D01*
X159323351Y-62689875D01*
X159236400Y-63127002D01*
X159236400Y-64742997D01*
X159323350Y-65180124D01*
X159406789Y-65305000D01*
X149283211Y-65305000D01*
X149366650Y-65180125D01*
X149453600Y-64742998D01*
X149453600Y-63127002D01*
X149366650Y-62689875D01*
X149253068Y-62519887D01*
X152570000Y-62519887D01*
X152570000Y-63210113D01*
X152834138Y-63847799D01*
X153322201Y-64335862D01*
X153959887Y-64600000D01*
X154650113Y-64600000D01*
X155287799Y-64335862D01*
X155775862Y-63847799D01*
X156040000Y-63210113D01*
X156040000Y-62519887D01*
X155775862Y-61882201D01*
X155287799Y-61394138D01*
X154650113Y-61130000D01*
X153959887Y-61130000D01*
X153322201Y-61394138D01*
X152834138Y-61882201D01*
X152570000Y-62519887D01*
X149253068Y-62519887D01*
X149035430Y-62194170D01*
X148539725Y-61862950D01*
X147955000Y-61746641D01*
X147370276Y-61862950D01*
X146874571Y-62194170D01*
X146543351Y-62689875D01*
X146456400Y-63127002D01*
X146456400Y-64742997D01*
X146543350Y-65180124D01*
X146626789Y-65305000D01*
X144283211Y-65305000D01*
X144366650Y-65180125D01*
X144453600Y-64742998D01*
X144453600Y-63127002D01*
X144366650Y-62689875D01*
X144035430Y-62194170D01*
X143539725Y-61862950D01*
X142955000Y-61746641D01*
X142370276Y-61862950D01*
X141874571Y-62194170D01*
X141543351Y-62689875D01*
X141456400Y-63127002D01*
X141456400Y-64742997D01*
X141543350Y-65180124D01*
X141626789Y-65305000D01*
X136702440Y-65305000D01*
X136702440Y-63970000D01*
X136653157Y-63722235D01*
X136512809Y-63512191D01*
X136302765Y-63371843D01*
X136055000Y-63322560D01*
X134455000Y-63322560D01*
X134207235Y-63371843D01*
X133997191Y-63512191D01*
X133856843Y-63722235D01*
X133807560Y-63970000D01*
X133807560Y-65305000D01*
X131503211Y-65305000D01*
X131586650Y-65180125D01*
X131673600Y-64742998D01*
X131673600Y-63127002D01*
X131586650Y-62689875D01*
X131255430Y-62194170D01*
X130759725Y-61862950D01*
X130175000Y-61746641D01*
X129590276Y-61862950D01*
X129094571Y-62194170D01*
X128763351Y-62689875D01*
X128676400Y-63127002D01*
X128676400Y-64742997D01*
X128763350Y-65180124D01*
X128846789Y-65305000D01*
X126503211Y-65305000D01*
X126586650Y-65180125D01*
X126673600Y-64742998D01*
X126673600Y-63127002D01*
X126586650Y-62689875D01*
X126255430Y-62194170D01*
X125759725Y-61862950D01*
X125175000Y-61746641D01*
X124590276Y-61862950D01*
X124094571Y-62194170D01*
X123763351Y-62689875D01*
X123676400Y-63127002D01*
X123676400Y-64742997D01*
X123763350Y-65180124D01*
X123846789Y-65305000D01*
X123571000Y-65305000D01*
X123571000Y-59427745D01*
X152206861Y-59427745D01*
X152280995Y-59673864D01*
X152818223Y-59866965D01*
X153388454Y-59839778D01*
X153789005Y-59673864D01*
X153863139Y-59427745D01*
X153035000Y-58599605D01*
X152206861Y-59427745D01*
X123571000Y-59427745D01*
X123571000Y-57150000D01*
X133791887Y-57150000D01*
X133903260Y-57709909D01*
X134220423Y-58184577D01*
X134695091Y-58501740D01*
X135113667Y-58585000D01*
X135396333Y-58585000D01*
X135814909Y-58501740D01*
X136261671Y-58203223D01*
X151588035Y-58203223D01*
X151615222Y-58773454D01*
X151781136Y-59174005D01*
X152027255Y-59248139D01*
X152855395Y-58420000D01*
X153214605Y-58420000D01*
X154042745Y-59248139D01*
X154288864Y-59174005D01*
X154481965Y-58636777D01*
X154454778Y-58066546D01*
X154288864Y-57665995D01*
X154042745Y-57591861D01*
X153214605Y-58420000D01*
X152855395Y-58420000D01*
X152027255Y-57591861D01*
X151781136Y-57665995D01*
X151588035Y-58203223D01*
X136261671Y-58203223D01*
X136289577Y-58184577D01*
X136606740Y-57709909D01*
X136665947Y-57412255D01*
X152206861Y-57412255D01*
X153035000Y-58240395D01*
X153863139Y-57412255D01*
X153789005Y-57166136D01*
X153251777Y-56973035D01*
X152681546Y-57000222D01*
X152280995Y-57166136D01*
X152206861Y-57412255D01*
X136665947Y-57412255D01*
X136718113Y-57150000D01*
X136606740Y-56590091D01*
X136289577Y-56115423D01*
X135814909Y-55798260D01*
X135396333Y-55715000D01*
X135113667Y-55715000D01*
X134695091Y-55798260D01*
X134220423Y-56115423D01*
X133903260Y-56590091D01*
X133791887Y-57150000D01*
X123571000Y-57150000D01*
X123571000Y-50627002D01*
X123676400Y-50627002D01*
X123676400Y-52242997D01*
X123763350Y-52680124D01*
X124094570Y-53175830D01*
X124590275Y-53507050D01*
X125175000Y-53623359D01*
X125759724Y-53507050D01*
X126255430Y-53175830D01*
X126586650Y-52680125D01*
X126673600Y-52242998D01*
X126673600Y-50627002D01*
X128676400Y-50627002D01*
X128676400Y-52242997D01*
X128763350Y-52680124D01*
X129094570Y-53175830D01*
X129590275Y-53507050D01*
X130175000Y-53623359D01*
X130759724Y-53507050D01*
X131255430Y-53175830D01*
X131586650Y-52680125D01*
X131650349Y-52359887D01*
X134790000Y-52359887D01*
X134790000Y-53050113D01*
X135054138Y-53687799D01*
X135542201Y-54175862D01*
X136179887Y-54440000D01*
X136870113Y-54440000D01*
X137507799Y-54175862D01*
X137995862Y-53687799D01*
X138260000Y-53050113D01*
X138260000Y-52359887D01*
X137995862Y-51722201D01*
X137507799Y-51234138D01*
X136870113Y-50970000D01*
X136179887Y-50970000D01*
X135542201Y-51234138D01*
X135054138Y-51722201D01*
X134790000Y-52359887D01*
X131650349Y-52359887D01*
X131673600Y-52242998D01*
X131673600Y-50627002D01*
X141456400Y-50627002D01*
X141456400Y-52242997D01*
X141543350Y-52680124D01*
X141874570Y-53175830D01*
X142370275Y-53507050D01*
X142955000Y-53623359D01*
X143539724Y-53507050D01*
X144035430Y-53175830D01*
X144366650Y-52680125D01*
X144453600Y-52242998D01*
X144453600Y-50627002D01*
X146456400Y-50627002D01*
X146456400Y-52242997D01*
X146543350Y-52680124D01*
X146874570Y-53175830D01*
X147370275Y-53507050D01*
X147955000Y-53623359D01*
X148539724Y-53507050D01*
X149035430Y-53175830D01*
X149366650Y-52680125D01*
X149453600Y-52242998D01*
X149453600Y-50800000D01*
X151571887Y-50800000D01*
X151683260Y-51359909D01*
X152000423Y-51834577D01*
X152475091Y-52151740D01*
X152893667Y-52235000D01*
X153176333Y-52235000D01*
X153594909Y-52151740D01*
X154069577Y-51834577D01*
X154386740Y-51359909D01*
X154498113Y-50800000D01*
X154463702Y-50627002D01*
X159236400Y-50627002D01*
X159236400Y-52242997D01*
X159323350Y-52680124D01*
X159654570Y-53175830D01*
X160150275Y-53507050D01*
X160735000Y-53623359D01*
X161319724Y-53507050D01*
X161815430Y-53175830D01*
X162146650Y-52680125D01*
X162233600Y-52242998D01*
X162233600Y-50627002D01*
X164236400Y-50627002D01*
X164236400Y-52242997D01*
X164323350Y-52680124D01*
X164654570Y-53175830D01*
X165150275Y-53507050D01*
X165735000Y-53623359D01*
X166319724Y-53507050D01*
X166815430Y-53175830D01*
X167146650Y-52680125D01*
X167233600Y-52242998D01*
X167233600Y-50627002D01*
X167146650Y-50189875D01*
X166815430Y-49694170D01*
X166319725Y-49362950D01*
X165735000Y-49246641D01*
X165150276Y-49362950D01*
X164654571Y-49694170D01*
X164323351Y-50189875D01*
X164236400Y-50627002D01*
X162233600Y-50627002D01*
X162146650Y-50189875D01*
X161815430Y-49694170D01*
X161319725Y-49362950D01*
X160735000Y-49246641D01*
X160150276Y-49362950D01*
X159654571Y-49694170D01*
X159323351Y-50189875D01*
X159236400Y-50627002D01*
X154463702Y-50627002D01*
X154386740Y-50240091D01*
X154069577Y-49765423D01*
X153594909Y-49448260D01*
X153176333Y-49365000D01*
X152893667Y-49365000D01*
X152475091Y-49448260D01*
X152000423Y-49765423D01*
X151683260Y-50240091D01*
X151571887Y-50800000D01*
X149453600Y-50800000D01*
X149453600Y-50627002D01*
X149366650Y-50189875D01*
X149035430Y-49694170D01*
X148539725Y-49362950D01*
X147955000Y-49246641D01*
X147370276Y-49362950D01*
X146874571Y-49694170D01*
X146543351Y-50189875D01*
X146456400Y-50627002D01*
X144453600Y-50627002D01*
X144366650Y-50189875D01*
X144035430Y-49694170D01*
X143539725Y-49362950D01*
X142955000Y-49246641D01*
X142370276Y-49362950D01*
X141874571Y-49694170D01*
X141543351Y-50189875D01*
X141456400Y-50627002D01*
X131673600Y-50627002D01*
X131586650Y-50189875D01*
X131255430Y-49694170D01*
X130759725Y-49362950D01*
X130175000Y-49246641D01*
X129590276Y-49362950D01*
X129094571Y-49694170D01*
X128763351Y-50189875D01*
X128676400Y-50627002D01*
X126673600Y-50627002D01*
X126586650Y-50189875D01*
X126255430Y-49694170D01*
X125759725Y-49362950D01*
X125175000Y-49246641D01*
X124590276Y-49362950D01*
X124094571Y-49694170D01*
X123763351Y-50189875D01*
X123676400Y-50627002D01*
X123571000Y-50627002D01*
X123571000Y-46355000D01*
X133286928Y-46355000D01*
X133171843Y-46527235D01*
X133171843Y-46527235D01*
G37*
X133171843Y-46527235D02*
X133122560Y-46775000D01*
X133122560Y-48475000D01*
X133171843Y-48722765D01*
X133312191Y-48932809D01*
X133522235Y-49073157D01*
X133770000Y-49122440D01*
X135470000Y-49122440D01*
X135717765Y-49073157D01*
X135927809Y-48932809D01*
X136068157Y-48722765D01*
X136088739Y-48619292D01*
X136393076Y-48896645D01*
X136803110Y-49066476D01*
X137033000Y-48945155D01*
X137033000Y-47752000D01*
X137013000Y-47752000D01*
X137013000Y-47498000D01*
X137033000Y-47498000D01*
X137033000Y-47478000D01*
X137287000Y-47478000D01*
X137287000Y-47498000D01*
X137307000Y-47498000D01*
X137307000Y-47752000D01*
X137287000Y-47752000D01*
X137287000Y-48945155D01*
X137516890Y-49066476D01*
X137926924Y-48896645D01*
X138355183Y-48506358D01*
X138416157Y-48376522D01*
X138629375Y-48695625D01*
X139120582Y-49023839D01*
X139553744Y-49110000D01*
X139846256Y-49110000D01*
X140279418Y-49023839D01*
X140770625Y-48695625D01*
X140970000Y-48397239D01*
X141169375Y-48695625D01*
X141660582Y-49023839D01*
X142093744Y-49110000D01*
X142386256Y-49110000D01*
X142819418Y-49023839D01*
X143310625Y-48695625D01*
X143510000Y-48397239D01*
X143709375Y-48695625D01*
X144200582Y-49023839D01*
X144633744Y-49110000D01*
X144926256Y-49110000D01*
X145359418Y-49023839D01*
X145850625Y-48695625D01*
X145892640Y-48632745D01*
X152206861Y-48632745D01*
X152280995Y-48878864D01*
X152818223Y-49071965D01*
X153388454Y-49044778D01*
X153789005Y-48878864D01*
X153863139Y-48632745D01*
X153035000Y-47804605D01*
X152206861Y-48632745D01*
X145892640Y-48632745D01*
X146178839Y-48204418D01*
X146294092Y-47625000D01*
X146250973Y-47408223D01*
X151588035Y-47408223D01*
X151615222Y-47978454D01*
X151781136Y-48379005D01*
X152027255Y-48453139D01*
X152855395Y-47625000D01*
X153214605Y-47625000D01*
X154042745Y-48453139D01*
X154288864Y-48379005D01*
X154481965Y-47841777D01*
X154454778Y-47271546D01*
X154288864Y-46870995D01*
X154042745Y-46796861D01*
X153214605Y-47625000D01*
X152855395Y-47625000D01*
X152027255Y-46796861D01*
X151781136Y-46870995D01*
X151588035Y-47408223D01*
X146250973Y-47408223D01*
X146178839Y-47045582D01*
X145850625Y-46554375D01*
X145552239Y-46355000D01*
X152319951Y-46355000D01*
X152280995Y-46371136D01*
X152206861Y-46617255D01*
X153035000Y-47445395D01*
X153863139Y-46617255D01*
X153789005Y-46371136D01*
X153744113Y-46355000D01*
X159972758Y-46355000D01*
X159620423Y-46590423D01*
X159303260Y-47065091D01*
X159191887Y-47625000D01*
X159303260Y-48184909D01*
X159620423Y-48659577D01*
X160095091Y-48976740D01*
X160513667Y-49060000D01*
X160796333Y-49060000D01*
X161214909Y-48976740D01*
X161689577Y-48659577D01*
X162006740Y-48184909D01*
X162118113Y-47625000D01*
X162006740Y-47065091D01*
X161689577Y-46590423D01*
X161337242Y-46355000D01*
X167767000Y-46355000D01*
X167767000Y-65305000D01*
X167063211Y-65305000D01*
X167146650Y-65180125D01*
X167233600Y-64742998D01*
X167233600Y-63127002D01*
X167146650Y-62689875D01*
X166815430Y-62194170D01*
X166319725Y-61862950D01*
X165735000Y-61746641D01*
X165150276Y-61862950D01*
X164654571Y-62194170D01*
X164323351Y-62689875D01*
X164236400Y-63127002D01*
X164236400Y-64742997D01*
X164323350Y-65180124D01*
X164406789Y-65305000D01*
X162063211Y-65305000D01*
X162146650Y-65180125D01*
X162233600Y-64742998D01*
X162233600Y-63127002D01*
X162146650Y-62689875D01*
X161815430Y-62194170D01*
X161319725Y-61862950D01*
X160735000Y-61746641D01*
X160150276Y-61862950D01*
X159654571Y-62194170D01*
X159323351Y-62689875D01*
X159236400Y-63127002D01*
X159236400Y-64742997D01*
X159323350Y-65180124D01*
X159406789Y-65305000D01*
X149283211Y-65305000D01*
X149366650Y-65180125D01*
X149453600Y-64742998D01*
X149453600Y-63127002D01*
X149366650Y-62689875D01*
X149253068Y-62519887D01*
X152570000Y-62519887D01*
X152570000Y-63210113D01*
X152834138Y-63847799D01*
X153322201Y-64335862D01*
X153959887Y-64600000D01*
X154650113Y-64600000D01*
X155287799Y-64335862D01*
X155775862Y-63847799D01*
X156040000Y-63210113D01*
X156040000Y-62519887D01*
X155775862Y-61882201D01*
X155287799Y-61394138D01*
X154650113Y-61130000D01*
X153959887Y-61130000D01*
X153322201Y-61394138D01*
X152834138Y-61882201D01*
X152570000Y-62519887D01*
X149253068Y-62519887D01*
X149035430Y-62194170D01*
X148539725Y-61862950D01*
X147955000Y-61746641D01*
X147370276Y-61862950D01*
X146874571Y-62194170D01*
X146543351Y-62689875D01*
X146456400Y-63127002D01*
X146456400Y-64742997D01*
X146543350Y-65180124D01*
X146626789Y-65305000D01*
X144283211Y-65305000D01*
X144366650Y-65180125D01*
X144453600Y-64742998D01*
X144453600Y-63127002D01*
X144366650Y-62689875D01*
X144035430Y-62194170D01*
X143539725Y-61862950D01*
X142955000Y-61746641D01*
X142370276Y-61862950D01*
X141874571Y-62194170D01*
X141543351Y-62689875D01*
X141456400Y-63127002D01*
X141456400Y-64742997D01*
X141543350Y-65180124D01*
X141626789Y-65305000D01*
X136702440Y-65305000D01*
X136702440Y-63970000D01*
X136653157Y-63722235D01*
X136512809Y-63512191D01*
X136302765Y-63371843D01*
X136055000Y-63322560D01*
X134455000Y-63322560D01*
X134207235Y-63371843D01*
X133997191Y-63512191D01*
X133856843Y-63722235D01*
X133807560Y-63970000D01*
X133807560Y-65305000D01*
X131503211Y-65305000D01*
X131586650Y-65180125D01*
X131673600Y-64742998D01*
X131673600Y-63127002D01*
X131586650Y-62689875D01*
X131255430Y-62194170D01*
X130759725Y-61862950D01*
X130175000Y-61746641D01*
X129590276Y-61862950D01*
X129094571Y-62194170D01*
X128763351Y-62689875D01*
X128676400Y-63127002D01*
X128676400Y-64742997D01*
X128763350Y-65180124D01*
X128846789Y-65305000D01*
X126503211Y-65305000D01*
X126586650Y-65180125D01*
X126673600Y-64742998D01*
X126673600Y-63127002D01*
X126586650Y-62689875D01*
X126255430Y-62194170D01*
X125759725Y-61862950D01*
X125175000Y-61746641D01*
X124590276Y-61862950D01*
X124094571Y-62194170D01*
X123763351Y-62689875D01*
X123676400Y-63127002D01*
X123676400Y-64742997D01*
X123763350Y-65180124D01*
X123846789Y-65305000D01*
X123571000Y-65305000D01*
X123571000Y-59427745D01*
X152206861Y-59427745D01*
X152280995Y-59673864D01*
X152818223Y-59866965D01*
X153388454Y-59839778D01*
X153789005Y-59673864D01*
X153863139Y-59427745D01*
X153035000Y-58599605D01*
X152206861Y-59427745D01*
X123571000Y-59427745D01*
X123571000Y-57150000D01*
X133791887Y-57150000D01*
X133903260Y-57709909D01*
X134220423Y-58184577D01*
X134695091Y-58501740D01*
X135113667Y-58585000D01*
X135396333Y-58585000D01*
X135814909Y-58501740D01*
X136261671Y-58203223D01*
X151588035Y-58203223D01*
X151615222Y-58773454D01*
X151781136Y-59174005D01*
X152027255Y-59248139D01*
X152855395Y-58420000D01*
X153214605Y-58420000D01*
X154042745Y-59248139D01*
X154288864Y-59174005D01*
X154481965Y-58636777D01*
X154454778Y-58066546D01*
X154288864Y-57665995D01*
X154042745Y-57591861D01*
X153214605Y-58420000D01*
X152855395Y-58420000D01*
X152027255Y-57591861D01*
X151781136Y-57665995D01*
X151588035Y-58203223D01*
X136261671Y-58203223D01*
X136289577Y-58184577D01*
X136606740Y-57709909D01*
X136665947Y-57412255D01*
X152206861Y-57412255D01*
X153035000Y-58240395D01*
X153863139Y-57412255D01*
X153789005Y-57166136D01*
X153251777Y-56973035D01*
X152681546Y-57000222D01*
X152280995Y-57166136D01*
X152206861Y-57412255D01*
X136665947Y-57412255D01*
X136718113Y-57150000D01*
X136606740Y-56590091D01*
X136289577Y-56115423D01*
X135814909Y-55798260D01*
X135396333Y-55715000D01*
X135113667Y-55715000D01*
X134695091Y-55798260D01*
X134220423Y-56115423D01*
X133903260Y-56590091D01*
X133791887Y-57150000D01*
X123571000Y-57150000D01*
X123571000Y-50627002D01*
X123676400Y-50627002D01*
X123676400Y-52242997D01*
X123763350Y-52680124D01*
X124094570Y-53175830D01*
X124590275Y-53507050D01*
X125175000Y-53623359D01*
X125759724Y-53507050D01*
X126255430Y-53175830D01*
X126586650Y-52680125D01*
X126673600Y-52242998D01*
X126673600Y-50627002D01*
X128676400Y-50627002D01*
X128676400Y-52242997D01*
X128763350Y-52680124D01*
X129094570Y-53175830D01*
X129590275Y-53507050D01*
X130175000Y-53623359D01*
X130759724Y-53507050D01*
X131255430Y-53175830D01*
X131586650Y-52680125D01*
X131650349Y-52359887D01*
X134790000Y-52359887D01*
X134790000Y-53050113D01*
X135054138Y-53687799D01*
X135542201Y-54175862D01*
X136179887Y-54440000D01*
X136870113Y-54440000D01*
X137507799Y-54175862D01*
X137995862Y-53687799D01*
X138260000Y-53050113D01*
X138260000Y-52359887D01*
X137995862Y-51722201D01*
X137507799Y-51234138D01*
X136870113Y-50970000D01*
X136179887Y-50970000D01*
X135542201Y-51234138D01*
X135054138Y-51722201D01*
X134790000Y-52359887D01*
X131650349Y-52359887D01*
X131673600Y-52242998D01*
X131673600Y-50627002D01*
X141456400Y-50627002D01*
X141456400Y-52242997D01*
X141543350Y-52680124D01*
X141874570Y-53175830D01*
X142370275Y-53507050D01*
X142955000Y-53623359D01*
X143539724Y-53507050D01*
X144035430Y-53175830D01*
X144366650Y-52680125D01*
X144453600Y-52242998D01*
X144453600Y-50627002D01*
X146456400Y-50627002D01*
X146456400Y-52242997D01*
X146543350Y-52680124D01*
X146874570Y-53175830D01*
X147370275Y-53507050D01*
X147955000Y-53623359D01*
X148539724Y-53507050D01*
X149035430Y-53175830D01*
X149366650Y-52680125D01*
X149453600Y-52242998D01*
X149453600Y-50800000D01*
X151571887Y-50800000D01*
X151683260Y-51359909D01*
X152000423Y-51834577D01*
X152475091Y-52151740D01*
X152893667Y-52235000D01*
X153176333Y-52235000D01*
X153594909Y-52151740D01*
X154069577Y-51834577D01*
X154386740Y-51359909D01*
X154498113Y-50800000D01*
X154463702Y-50627002D01*
X159236400Y-50627002D01*
X159236400Y-52242997D01*
X159323350Y-52680124D01*
X159654570Y-53175830D01*
X160150275Y-53507050D01*
X160735000Y-53623359D01*
X161319724Y-53507050D01*
X161815430Y-53175830D01*
X162146650Y-52680125D01*
X162233600Y-52242998D01*
X162233600Y-50627002D01*
X164236400Y-50627002D01*
X164236400Y-52242997D01*
X164323350Y-52680124D01*
X164654570Y-53175830D01*
X165150275Y-53507050D01*
X165735000Y-53623359D01*
X166319724Y-53507050D01*
X166815430Y-53175830D01*
X167146650Y-52680125D01*
X167233600Y-52242998D01*
X167233600Y-50627002D01*
X167146650Y-50189875D01*
X166815430Y-49694170D01*
X166319725Y-49362950D01*
X165735000Y-49246641D01*
X165150276Y-49362950D01*
X164654571Y-49694170D01*
X164323351Y-50189875D01*
X164236400Y-50627002D01*
X162233600Y-50627002D01*
X162146650Y-50189875D01*
X161815430Y-49694170D01*
X161319725Y-49362950D01*
X160735000Y-49246641D01*
X160150276Y-49362950D01*
X159654571Y-49694170D01*
X159323351Y-50189875D01*
X159236400Y-50627002D01*
X154463702Y-50627002D01*
X154386740Y-50240091D01*
X154069577Y-49765423D01*
X153594909Y-49448260D01*
X153176333Y-49365000D01*
X152893667Y-49365000D01*
X152475091Y-49448260D01*
X152000423Y-49765423D01*
X151683260Y-50240091D01*
X151571887Y-50800000D01*
X149453600Y-50800000D01*
X149453600Y-50627002D01*
X149366650Y-50189875D01*
X149035430Y-49694170D01*
X148539725Y-49362950D01*
X147955000Y-49246641D01*
X147370276Y-49362950D01*
X146874571Y-49694170D01*
X146543351Y-50189875D01*
X146456400Y-50627002D01*
X144453600Y-50627002D01*
X144366650Y-50189875D01*
X144035430Y-49694170D01*
X143539725Y-49362950D01*
X142955000Y-49246641D01*
X142370276Y-49362950D01*
X141874571Y-49694170D01*
X141543351Y-50189875D01*
X141456400Y-50627002D01*
X131673600Y-50627002D01*
X131586650Y-50189875D01*
X131255430Y-49694170D01*
X130759725Y-49362950D01*
X130175000Y-49246641D01*
X129590276Y-49362950D01*
X129094571Y-49694170D01*
X128763351Y-50189875D01*
X128676400Y-50627002D01*
X126673600Y-50627002D01*
X126586650Y-50189875D01*
X126255430Y-49694170D01*
X125759725Y-49362950D01*
X125175000Y-49246641D01*
X124590276Y-49362950D01*
X124094571Y-49694170D01*
X123763351Y-50189875D01*
X123676400Y-50627002D01*
X123571000Y-50627002D01*
X123571000Y-46355000D01*
X133286928Y-46355000D01*
X133171843Y-46527235D01*
G04 #@! TD*
M02*
