G04 #@! TF.GenerationSoftware,KiCad,Pcbnew,(5.0.1)-4*
G04 #@! TF.CreationDate,2019-03-25T10:39:43-07:00*
G04 #@! TF.ProjectId,SysButtons,537973427574746F6E732E6B69636164,rev?*
G04 #@! TF.SameCoordinates,Original*
G04 #@! TF.FileFunction,Legend,Bot*
G04 #@! TF.FilePolarity,Positive*
%FSLAX46Y46*%
G04 Gerber Fmt 4.6, Leading zero omitted, Abs format (unit mm)*
G04 Created by KiCad (PCBNEW (5.0.1)-4) date 3/25/2019 10:39:43 AM*
%MOMM*%
%LPD*%
G01*
G04 APERTURE LIST*
%ADD10C,0.300000*%
G04 APERTURE END LIST*
D10*
X131463428Y-47532857D02*
X131463428Y-46332857D01*
X130777714Y-47532857D02*
X131292000Y-46847142D01*
X130777714Y-46332857D02*
X131463428Y-47018571D01*
X129863428Y-46904285D02*
X130263428Y-46904285D01*
X130263428Y-47532857D02*
X130263428Y-46332857D01*
X129692000Y-46332857D01*
X128549142Y-47418571D02*
X128606285Y-47475714D01*
X128777714Y-47532857D01*
X128892000Y-47532857D01*
X129063428Y-47475714D01*
X129177714Y-47361428D01*
X129234857Y-47247142D01*
X129292000Y-47018571D01*
X129292000Y-46847142D01*
X129234857Y-46618571D01*
X129177714Y-46504285D01*
X129063428Y-46390000D01*
X128892000Y-46332857D01*
X128777714Y-46332857D01*
X128606285Y-46390000D01*
X128549142Y-46447142D01*
X128034857Y-47075714D02*
X127120571Y-47075714D01*
X126149142Y-46904285D02*
X125977714Y-46961428D01*
X125920571Y-47018571D01*
X125863428Y-47132857D01*
X125863428Y-47304285D01*
X125920571Y-47418571D01*
X125977714Y-47475714D01*
X126092000Y-47532857D01*
X126549142Y-47532857D01*
X126549142Y-46332857D01*
X126149142Y-46332857D01*
X126034857Y-46390000D01*
X125977714Y-46447142D01*
X125920571Y-46561428D01*
X125920571Y-46675714D01*
X125977714Y-46790000D01*
X126034857Y-46847142D01*
X126149142Y-46904285D01*
X126549142Y-46904285D01*
X125349142Y-47532857D02*
X125349142Y-46332857D01*
X124892000Y-46332857D01*
X124777714Y-46390000D01*
X124720571Y-46447142D01*
X124663428Y-46561428D01*
X124663428Y-46732857D01*
X124720571Y-46847142D01*
X124777714Y-46904285D01*
X124892000Y-46961428D01*
X125349142Y-46961428D01*
X124149142Y-47075714D02*
X123234857Y-47075714D01*
X122663428Y-47418571D02*
X122606285Y-47475714D01*
X122663428Y-47532857D01*
X122720571Y-47475714D01*
X122663428Y-47418571D01*
X122663428Y-47532857D01*
X122149142Y-46447142D02*
X122092000Y-46390000D01*
X121977714Y-46332857D01*
X121692000Y-46332857D01*
X121577714Y-46390000D01*
X121520571Y-46447142D01*
X121463428Y-46561428D01*
X121463428Y-46675714D01*
X121520571Y-46847142D01*
X122206285Y-47532857D01*
X121463428Y-47532857D01*
M02*
