G04 #@! TF.GenerationSoftware,KiCad,Pcbnew,(5.0.1)-4*
G04 #@! TF.CreationDate,2019-03-25T10:39:43-07:00*
G04 #@! TF.ProjectId,SysButtons,537973427574746F6E732E6B69636164,rev?*
G04 #@! TF.SameCoordinates,Original*
G04 #@! TF.FileFunction,Legend,Top*
G04 #@! TF.FilePolarity,Positive*
%FSLAX46Y46*%
G04 Gerber Fmt 4.6, Leading zero omitted, Abs format (unit mm)*
G04 Created by KiCad (PCBNEW (5.0.1)-4) date 3/25/2019 10:39:43 AM*
%MOMM*%
%LPD*%
G01*
G04 APERTURE LIST*
%ADD10C,0.300000*%
%ADD11C,0.120000*%
%ADD12C,0.150000*%
G04 APERTURE END LIST*
D10*
X121520571Y-47532857D02*
X121520571Y-46332857D01*
X122206285Y-47532857D02*
X121692000Y-46847142D01*
X122206285Y-46332857D02*
X121520571Y-47018571D01*
X123120571Y-46904285D02*
X122720571Y-46904285D01*
X122720571Y-47532857D02*
X122720571Y-46332857D01*
X123292000Y-46332857D01*
X124434857Y-47418571D02*
X124377714Y-47475714D01*
X124206285Y-47532857D01*
X124092000Y-47532857D01*
X123920571Y-47475714D01*
X123806285Y-47361428D01*
X123749142Y-47247142D01*
X123692000Y-47018571D01*
X123692000Y-46847142D01*
X123749142Y-46618571D01*
X123806285Y-46504285D01*
X123920571Y-46390000D01*
X124092000Y-46332857D01*
X124206285Y-46332857D01*
X124377714Y-46390000D01*
X124434857Y-46447142D01*
X124949142Y-47075714D02*
X125863428Y-47075714D01*
X126834857Y-46904285D02*
X127006285Y-46961428D01*
X127063428Y-47018571D01*
X127120571Y-47132857D01*
X127120571Y-47304285D01*
X127063428Y-47418571D01*
X127006285Y-47475714D01*
X126892000Y-47532857D01*
X126434857Y-47532857D01*
X126434857Y-46332857D01*
X126834857Y-46332857D01*
X126949142Y-46390000D01*
X127006285Y-46447142D01*
X127063428Y-46561428D01*
X127063428Y-46675714D01*
X127006285Y-46790000D01*
X126949142Y-46847142D01*
X126834857Y-46904285D01*
X126434857Y-46904285D01*
X127634857Y-47532857D02*
X127634857Y-46332857D01*
X128092000Y-46332857D01*
X128206285Y-46390000D01*
X128263428Y-46447142D01*
X128320571Y-46561428D01*
X128320571Y-46732857D01*
X128263428Y-46847142D01*
X128206285Y-46904285D01*
X128092000Y-46961428D01*
X127634857Y-46961428D01*
X128834857Y-47075714D02*
X129749142Y-47075714D01*
X130320571Y-47418571D02*
X130377714Y-47475714D01*
X130320571Y-47532857D01*
X130263428Y-47475714D01*
X130320571Y-47418571D01*
X130320571Y-47532857D01*
X130834857Y-46447142D02*
X130892000Y-46390000D01*
X131006285Y-46332857D01*
X131292000Y-46332857D01*
X131406285Y-46390000D01*
X131463428Y-46447142D01*
X131520571Y-46561428D01*
X131520571Y-46675714D01*
X131463428Y-46847142D01*
X130777714Y-47532857D01*
X131520571Y-47532857D01*
D11*
G04 #@! TO.C,D1*
X134135000Y-63080000D02*
X136375000Y-63080000D01*
X136375000Y-63080000D02*
X136375000Y-58840000D01*
X136375000Y-58840000D02*
X134135000Y-58840000D01*
X134135000Y-58840000D02*
X134135000Y-63080000D01*
X135255000Y-63730000D02*
X135255000Y-63080000D01*
X135255000Y-58190000D02*
X135255000Y-58840000D01*
X134135000Y-62360000D02*
X136375000Y-62360000D01*
X134135000Y-62240000D02*
X136375000Y-62240000D01*
X134135000Y-62480000D02*
X136375000Y-62480000D01*
G04 #@! TO.C,J1*
X146110000Y-48955000D02*
X146110000Y-46295000D01*
X135890000Y-48955000D02*
X146110000Y-48955000D01*
X135890000Y-46295000D02*
X146110000Y-46295000D01*
X135890000Y-48955000D02*
X135890000Y-46295000D01*
X134620000Y-48955000D02*
X133290000Y-48955000D01*
X133290000Y-48955000D02*
X133290000Y-47625000D01*
G04 #@! TO.C,R2*
X154405000Y-51340000D02*
X154075000Y-51340000D01*
X154405000Y-57880000D02*
X154405000Y-51340000D01*
X154075000Y-57880000D02*
X154405000Y-57880000D01*
X151665000Y-51340000D02*
X151995000Y-51340000D01*
X151665000Y-57880000D02*
X151665000Y-51340000D01*
X151995000Y-57880000D02*
X151665000Y-57880000D01*
G04 #@! TO.C,R3*
X153575000Y-46585000D02*
X153575000Y-46255000D01*
X153575000Y-46255000D02*
X160115000Y-46255000D01*
X160115000Y-46255000D02*
X160115000Y-46585000D01*
X153575000Y-48665000D02*
X153575000Y-48995000D01*
X153575000Y-48995000D02*
X160115000Y-48995000D01*
X160115000Y-48995000D02*
X160115000Y-48665000D01*
G04 #@! TO.C,SW1*
X133825000Y-51535000D02*
X133825000Y-63835000D01*
X129245000Y-63835000D02*
X126105000Y-63835000D01*
X121525000Y-63835000D02*
X121525000Y-51535000D01*
X131105000Y-51535000D02*
X133825000Y-51535000D01*
X132214050Y-57785000D02*
G75*
G03X132214050Y-57785000I-4579050J0D01*
G01*
X121525000Y-51535000D02*
X124245000Y-51535000D01*
X126105000Y-51535000D02*
X129245000Y-51535000D01*
X124245000Y-63835000D02*
X121525000Y-63835000D01*
X133825000Y-63835000D02*
X131105000Y-63835000D01*
G04 #@! TO.C,SW2*
X151605000Y-63835000D02*
X148885000Y-63835000D01*
X142025000Y-63835000D02*
X139305000Y-63835000D01*
X143885000Y-51535000D02*
X147025000Y-51535000D01*
X139305000Y-51535000D02*
X142025000Y-51535000D01*
X149994050Y-57785000D02*
G75*
G03X149994050Y-57785000I-4579050J0D01*
G01*
X148885000Y-51535000D02*
X151605000Y-51535000D01*
X139305000Y-63835000D02*
X139305000Y-51535000D01*
X147025000Y-63835000D02*
X143885000Y-63835000D01*
X151605000Y-51535000D02*
X151605000Y-63835000D01*
G04 #@! TO.C,SW3*
X169385000Y-51535000D02*
X169385000Y-63835000D01*
X164805000Y-63835000D02*
X161665000Y-63835000D01*
X157085000Y-63835000D02*
X157085000Y-51535000D01*
X166665000Y-51535000D02*
X169385000Y-51535000D01*
X167774050Y-57785000D02*
G75*
G03X167774050Y-57785000I-4579050J0D01*
G01*
X157085000Y-51535000D02*
X159805000Y-51535000D01*
X161665000Y-51535000D02*
X164805000Y-51535000D01*
X159805000Y-63835000D02*
X157085000Y-63835000D01*
X169385000Y-63835000D02*
X166665000Y-63835000D01*
G04 #@! TO.C,D1*
D12*
X135580380Y-61444095D02*
X134580380Y-61444095D01*
X134580380Y-61206000D01*
X134628000Y-61063142D01*
X134723238Y-60967904D01*
X134818476Y-60920285D01*
X135008952Y-60872666D01*
X135151809Y-60872666D01*
X135342285Y-60920285D01*
X135437523Y-60967904D01*
X135532761Y-61063142D01*
X135580380Y-61206000D01*
X135580380Y-61444095D01*
X135580380Y-59920285D02*
X135580380Y-60491714D01*
X135580380Y-60206000D02*
X134580380Y-60206000D01*
X134723238Y-60301238D01*
X134818476Y-60396476D01*
X134866095Y-60491714D01*
X133907380Y-65031904D02*
X132907380Y-65031904D01*
X133907380Y-64460476D02*
X133335952Y-64889047D01*
X132907380Y-64460476D02*
X133478809Y-65031904D01*
G04 #@! TO.C,J1*
X131742380Y-48847333D02*
X132456666Y-48847333D01*
X132599523Y-48894952D01*
X132694761Y-48990190D01*
X132742380Y-49133047D01*
X132742380Y-49228285D01*
X132742380Y-47847333D02*
X132742380Y-48418761D01*
X132742380Y-48133047D02*
X131742380Y-48133047D01*
X131885238Y-48228285D01*
X131980476Y-48323523D01*
X132028095Y-48418761D01*
G04 #@! TO.C,R2*
X153360380Y-56554666D02*
X152884190Y-56888000D01*
X153360380Y-57126095D02*
X152360380Y-57126095D01*
X152360380Y-56745142D01*
X152408000Y-56649904D01*
X152455619Y-56602285D01*
X152550857Y-56554666D01*
X152693714Y-56554666D01*
X152788952Y-56602285D01*
X152836571Y-56649904D01*
X152884190Y-56745142D01*
X152884190Y-57126095D01*
X152455619Y-56173714D02*
X152408000Y-56126095D01*
X152360380Y-56030857D01*
X152360380Y-55792761D01*
X152408000Y-55697523D01*
X152455619Y-55649904D01*
X152550857Y-55602285D01*
X152646095Y-55602285D01*
X152788952Y-55649904D01*
X153360380Y-56221333D01*
X153360380Y-55602285D01*
X152693714Y-54268571D02*
X153360380Y-54268571D01*
X152312761Y-54506666D02*
X153027047Y-54744761D01*
X153027047Y-54125714D01*
X153265142Y-53744761D02*
X153312761Y-53697142D01*
X153360380Y-53744761D01*
X153312761Y-53792380D01*
X153265142Y-53744761D01*
X153360380Y-53744761D01*
X152360380Y-53363809D02*
X152360380Y-52697142D01*
X153360380Y-53125714D01*
X153360380Y-52316190D02*
X152360380Y-52316190D01*
X152979428Y-52220952D02*
X153360380Y-51935238D01*
X152693714Y-51935238D02*
X153074666Y-52316190D01*
G04 #@! TO.C,R3*
X155027333Y-48204380D02*
X154694000Y-47728190D01*
X154455904Y-48204380D02*
X154455904Y-47204380D01*
X154836857Y-47204380D01*
X154932095Y-47252000D01*
X154979714Y-47299619D01*
X155027333Y-47394857D01*
X155027333Y-47537714D01*
X154979714Y-47632952D01*
X154932095Y-47680571D01*
X154836857Y-47728190D01*
X154455904Y-47728190D01*
X155360666Y-47204380D02*
X155979714Y-47204380D01*
X155646380Y-47585333D01*
X155789238Y-47585333D01*
X155884476Y-47632952D01*
X155932095Y-47680571D01*
X155979714Y-47775809D01*
X155979714Y-48013904D01*
X155932095Y-48109142D01*
X155884476Y-48156761D01*
X155789238Y-48204380D01*
X155503523Y-48204380D01*
X155408285Y-48156761D01*
X155360666Y-48109142D01*
X157313428Y-47537714D02*
X157313428Y-48204380D01*
X157075333Y-47156761D02*
X156837238Y-47871047D01*
X157456285Y-47871047D01*
X157837238Y-48109142D02*
X157884857Y-48156761D01*
X157837238Y-48204380D01*
X157789619Y-48156761D01*
X157837238Y-48109142D01*
X157837238Y-48204380D01*
X158218190Y-47204380D02*
X158884857Y-47204380D01*
X158456285Y-48204380D01*
X159265809Y-48204380D02*
X159265809Y-47204380D01*
X159361047Y-47823428D02*
X159646761Y-48204380D01*
X159646761Y-47537714D02*
X159265809Y-47918666D01*
G04 #@! TO.C,SW1*
X126428666Y-49426761D02*
X126571523Y-49474380D01*
X126809619Y-49474380D01*
X126904857Y-49426761D01*
X126952476Y-49379142D01*
X127000095Y-49283904D01*
X127000095Y-49188666D01*
X126952476Y-49093428D01*
X126904857Y-49045809D01*
X126809619Y-48998190D01*
X126619142Y-48950571D01*
X126523904Y-48902952D01*
X126476285Y-48855333D01*
X126428666Y-48760095D01*
X126428666Y-48664857D01*
X126476285Y-48569619D01*
X126523904Y-48522000D01*
X126619142Y-48474380D01*
X126857238Y-48474380D01*
X127000095Y-48522000D01*
X127333428Y-48474380D02*
X127571523Y-49474380D01*
X127762000Y-48760095D01*
X127952476Y-49474380D01*
X128190571Y-48474380D01*
X129095333Y-49474380D02*
X128523904Y-49474380D01*
X128809619Y-49474380D02*
X128809619Y-48474380D01*
X128714380Y-48617238D01*
X128619142Y-48712476D01*
X128523904Y-48760095D01*
G04 #@! TO.C,SW2*
X147002666Y-49426761D02*
X147145523Y-49474380D01*
X147383619Y-49474380D01*
X147478857Y-49426761D01*
X147526476Y-49379142D01*
X147574095Y-49283904D01*
X147574095Y-49188666D01*
X147526476Y-49093428D01*
X147478857Y-49045809D01*
X147383619Y-48998190D01*
X147193142Y-48950571D01*
X147097904Y-48902952D01*
X147050285Y-48855333D01*
X147002666Y-48760095D01*
X147002666Y-48664857D01*
X147050285Y-48569619D01*
X147097904Y-48522000D01*
X147193142Y-48474380D01*
X147431238Y-48474380D01*
X147574095Y-48522000D01*
X147907428Y-48474380D02*
X148145523Y-49474380D01*
X148336000Y-48760095D01*
X148526476Y-49474380D01*
X148764571Y-48474380D01*
X149097904Y-48569619D02*
X149145523Y-48522000D01*
X149240761Y-48474380D01*
X149478857Y-48474380D01*
X149574095Y-48522000D01*
X149621714Y-48569619D01*
X149669333Y-48664857D01*
X149669333Y-48760095D01*
X149621714Y-48902952D01*
X149050285Y-49474380D01*
X149669333Y-49474380D01*
G04 #@! TO.C,SW3*
X162242666Y-49426761D02*
X162385523Y-49474380D01*
X162623619Y-49474380D01*
X162718857Y-49426761D01*
X162766476Y-49379142D01*
X162814095Y-49283904D01*
X162814095Y-49188666D01*
X162766476Y-49093428D01*
X162718857Y-49045809D01*
X162623619Y-48998190D01*
X162433142Y-48950571D01*
X162337904Y-48902952D01*
X162290285Y-48855333D01*
X162242666Y-48760095D01*
X162242666Y-48664857D01*
X162290285Y-48569619D01*
X162337904Y-48522000D01*
X162433142Y-48474380D01*
X162671238Y-48474380D01*
X162814095Y-48522000D01*
X163147428Y-48474380D02*
X163385523Y-49474380D01*
X163576000Y-48760095D01*
X163766476Y-49474380D01*
X164004571Y-48474380D01*
X164290285Y-48474380D02*
X164909333Y-48474380D01*
X164576000Y-48855333D01*
X164718857Y-48855333D01*
X164814095Y-48902952D01*
X164861714Y-48950571D01*
X164909333Y-49045809D01*
X164909333Y-49283904D01*
X164861714Y-49379142D01*
X164814095Y-49426761D01*
X164718857Y-49474380D01*
X164433142Y-49474380D01*
X164337904Y-49426761D01*
X164290285Y-49379142D01*
G04 #@! TD*
M02*
