M48
;DRILL file {KiCad (5.0.1)-4} date 1/16/2019 9:10:48 PM
;FORMAT={-:-/ absolute / inch / decimal}
FMAT,2
INCH,TZ
T1C0.0315
T2C0.0320
T3C0.0394
%
G90
G05
M72
T1
X5.55Y-3.92
X4.75Y-3.925
X5.05Y-3.925
X5.15Y-3.925
X5.45Y-3.925
X5.85Y-3.92
T2
X4.15Y-4.15
X4.15Y-4.3469
X4.6421Y-4.15
X4.6421Y-4.3469
X5.55Y-4.1486
X5.55Y-4.3455
X6.0421Y-4.1486
X6.0421Y-4.3455
X4.85Y-4.15
X4.85Y-4.3469
X5.3421Y-4.15
X5.3421Y-4.3469
T3
X4.15Y-3.92
X4.25Y-3.92
X4.35Y-3.92
X4.45Y-3.92
X4.55Y-3.92
T0
M30
