G04 #@! TF.GenerationSoftware,KiCad,Pcbnew,(5.0.1)-4*
G04 #@! TF.CreationDate,2019-01-16T21:10:53-08:00*
G04 #@! TF.ProjectId,SysButtons,537973427574746F6E732E6B69636164,rev?*
G04 #@! TF.SameCoordinates,Original*
G04 #@! TF.FileFunction,Legend,Top*
G04 #@! TF.FilePolarity,Positive*
%FSLAX46Y46*%
G04 Gerber Fmt 4.6, Leading zero omitted, Abs format (unit mm)*
G04 Created by KiCad (PCBNEW (5.0.1)-4) date 1/16/2019 9:10:53 PM*
%MOMM*%
%LPD*%
G01*
G04 APERTURE LIST*
%ADD10C,0.120000*%
%ADD11C,0.150000*%
G04 APERTURE END LIST*
D10*
G04 #@! TO.C,J1*
X116900000Y-100898000D02*
X116900000Y-98238000D01*
X106680000Y-100898000D02*
X116900000Y-100898000D01*
X106680000Y-98238000D02*
X116900000Y-98238000D01*
X106680000Y-100898000D02*
X106680000Y-98238000D01*
X105410000Y-100898000D02*
X104080000Y-100898000D01*
X104080000Y-100898000D02*
X104080000Y-99568000D01*
G04 #@! TO.C,R1*
X121190000Y-98655000D02*
X121190000Y-98325000D01*
X121190000Y-98325000D02*
X127730000Y-98325000D01*
X127730000Y-98325000D02*
X127730000Y-98655000D01*
X121190000Y-100735000D02*
X121190000Y-101065000D01*
X121190000Y-101065000D02*
X127730000Y-101065000D01*
X127730000Y-101065000D02*
X127730000Y-100735000D01*
G04 #@! TO.C,R2*
X137890000Y-101065000D02*
X137890000Y-100735000D01*
X131350000Y-101065000D02*
X137890000Y-101065000D01*
X131350000Y-100735000D02*
X131350000Y-101065000D01*
X137890000Y-98325000D02*
X137890000Y-98655000D01*
X131350000Y-98325000D02*
X137890000Y-98325000D01*
X131350000Y-98655000D02*
X131350000Y-98325000D01*
G04 #@! TO.C,R3*
X141510000Y-98528000D02*
X141510000Y-98198000D01*
X141510000Y-98198000D02*
X148050000Y-98198000D01*
X148050000Y-98198000D02*
X148050000Y-98528000D01*
X141510000Y-100608000D02*
X141510000Y-100938000D01*
X141510000Y-100938000D02*
X148050000Y-100938000D01*
X148050000Y-100938000D02*
X148050000Y-100608000D01*
G04 #@! TO.C,SW1*
X105510000Y-101760000D02*
X117810000Y-101760000D01*
X117810000Y-106340000D02*
X117810000Y-109480000D01*
X117810000Y-114060000D02*
X105510000Y-114060000D01*
X105510000Y-104480000D02*
X105510000Y-101760000D01*
X116339050Y-107950000D02*
G75*
G03X116339050Y-107950000I-4579050J0D01*
G01*
X105510000Y-114060000D02*
X105510000Y-111340000D01*
X105510000Y-109480000D02*
X105510000Y-106340000D01*
X117810000Y-111340000D02*
X117810000Y-114060000D01*
X117810000Y-101760000D02*
X117810000Y-104480000D01*
G04 #@! TO.C,SW2*
X135590000Y-101760000D02*
X135590000Y-104480000D01*
X135590000Y-111340000D02*
X135590000Y-114060000D01*
X123290000Y-109480000D02*
X123290000Y-106340000D01*
X123290000Y-114060000D02*
X123290000Y-111340000D01*
X134119050Y-107950000D02*
G75*
G03X134119050Y-107950000I-4579050J0D01*
G01*
X123290000Y-104480000D02*
X123290000Y-101760000D01*
X135590000Y-114060000D02*
X123290000Y-114060000D01*
X135590000Y-106340000D02*
X135590000Y-109480000D01*
X123290000Y-101760000D02*
X135590000Y-101760000D01*
G04 #@! TO.C,SW3*
X141070000Y-101725001D02*
X153370000Y-101725001D01*
X153370000Y-106305001D02*
X153370000Y-109445001D01*
X153370000Y-114025001D02*
X141070000Y-114025001D01*
X141070000Y-104445001D02*
X141070000Y-101725001D01*
X151899050Y-107915001D02*
G75*
G03X151899050Y-107915001I-4579050J0D01*
G01*
X141070000Y-114025001D02*
X141070000Y-111305001D01*
X141070000Y-109445001D02*
X141070000Y-106305001D01*
X153370000Y-111305001D02*
X153370000Y-114025001D01*
X153370000Y-101725001D02*
X153370000Y-104445001D01*
G04 #@! TO.C,REF\002A\002A*
D11*
X138366666Y-91994380D02*
X138033333Y-91518190D01*
X137795238Y-91994380D02*
X137795238Y-90994380D01*
X138176190Y-90994380D01*
X138271428Y-91042000D01*
X138319047Y-91089619D01*
X138366666Y-91184857D01*
X138366666Y-91327714D01*
X138319047Y-91422952D01*
X138271428Y-91470571D01*
X138176190Y-91518190D01*
X137795238Y-91518190D01*
X138795238Y-91470571D02*
X139128571Y-91470571D01*
X139271428Y-91994380D02*
X138795238Y-91994380D01*
X138795238Y-90994380D01*
X139271428Y-90994380D01*
X140033333Y-91470571D02*
X139700000Y-91470571D01*
X139700000Y-91994380D02*
X139700000Y-90994380D01*
X140176190Y-90994380D01*
X140700000Y-90994380D02*
X140700000Y-91232476D01*
X140461904Y-91137238D02*
X140700000Y-91232476D01*
X140938095Y-91137238D01*
X140557142Y-91422952D02*
X140700000Y-91232476D01*
X140842857Y-91422952D01*
X141461904Y-90994380D02*
X141461904Y-91232476D01*
X141223809Y-91137238D02*
X141461904Y-91232476D01*
X141700000Y-91137238D01*
X141319047Y-91422952D02*
X141461904Y-91232476D01*
X141604761Y-91422952D01*
G04 #@! TO.C,R1*
X124293333Y-97777380D02*
X123960000Y-97301190D01*
X123721904Y-97777380D02*
X123721904Y-96777380D01*
X124102857Y-96777380D01*
X124198095Y-96825000D01*
X124245714Y-96872619D01*
X124293333Y-96967857D01*
X124293333Y-97110714D01*
X124245714Y-97205952D01*
X124198095Y-97253571D01*
X124102857Y-97301190D01*
X123721904Y-97301190D01*
X125245714Y-97777380D02*
X124674285Y-97777380D01*
X124960000Y-97777380D02*
X124960000Y-96777380D01*
X124864761Y-96920238D01*
X124769523Y-97015476D01*
X124674285Y-97063095D01*
G04 #@! TO.C,R2*
X134453333Y-97777380D02*
X134120000Y-97301190D01*
X133881904Y-97777380D02*
X133881904Y-96777380D01*
X134262857Y-96777380D01*
X134358095Y-96825000D01*
X134405714Y-96872619D01*
X134453333Y-96967857D01*
X134453333Y-97110714D01*
X134405714Y-97205952D01*
X134358095Y-97253571D01*
X134262857Y-97301190D01*
X133881904Y-97301190D01*
X134834285Y-96872619D02*
X134881904Y-96825000D01*
X134977142Y-96777380D01*
X135215238Y-96777380D01*
X135310476Y-96825000D01*
X135358095Y-96872619D01*
X135405714Y-96967857D01*
X135405714Y-97063095D01*
X135358095Y-97205952D01*
X134786666Y-97777380D01*
X135405714Y-97777380D01*
G04 #@! TO.C,R3*
X144613333Y-97650380D02*
X144280000Y-97174190D01*
X144041904Y-97650380D02*
X144041904Y-96650380D01*
X144422857Y-96650380D01*
X144518095Y-96698000D01*
X144565714Y-96745619D01*
X144613333Y-96840857D01*
X144613333Y-96983714D01*
X144565714Y-97078952D01*
X144518095Y-97126571D01*
X144422857Y-97174190D01*
X144041904Y-97174190D01*
X144946666Y-96650380D02*
X145565714Y-96650380D01*
X145232380Y-97031333D01*
X145375238Y-97031333D01*
X145470476Y-97078952D01*
X145518095Y-97126571D01*
X145565714Y-97221809D01*
X145565714Y-97459904D01*
X145518095Y-97555142D01*
X145470476Y-97602761D01*
X145375238Y-97650380D01*
X145089523Y-97650380D01*
X144994285Y-97602761D01*
X144946666Y-97555142D01*
G04 #@! TO.C,SW1*
X109901665Y-115212761D02*
X110044522Y-115260380D01*
X110282618Y-115260380D01*
X110377856Y-115212761D01*
X110425475Y-115165142D01*
X110473094Y-115069904D01*
X110473094Y-114974666D01*
X110425475Y-114879428D01*
X110377856Y-114831809D01*
X110282618Y-114784190D01*
X110092141Y-114736571D01*
X109996903Y-114688952D01*
X109949284Y-114641333D01*
X109901665Y-114546095D01*
X109901665Y-114450857D01*
X109949284Y-114355619D01*
X109996903Y-114308000D01*
X110092141Y-114260380D01*
X110330237Y-114260380D01*
X110473094Y-114308000D01*
X110806427Y-114260380D02*
X111044522Y-115260380D01*
X111234999Y-114546095D01*
X111425475Y-115260380D01*
X111663570Y-114260380D01*
X112568332Y-115260380D02*
X111996903Y-115260380D01*
X112282618Y-115260380D02*
X112282618Y-114260380D01*
X112187379Y-114403238D01*
X112092141Y-114498476D01*
X111996903Y-114546095D01*
G04 #@! TO.C,SW2*
X127936666Y-115212761D02*
X128079523Y-115260380D01*
X128317619Y-115260380D01*
X128412857Y-115212761D01*
X128460476Y-115165142D01*
X128508095Y-115069904D01*
X128508095Y-114974666D01*
X128460476Y-114879428D01*
X128412857Y-114831809D01*
X128317619Y-114784190D01*
X128127142Y-114736571D01*
X128031904Y-114688952D01*
X127984285Y-114641333D01*
X127936666Y-114546095D01*
X127936666Y-114450857D01*
X127984285Y-114355619D01*
X128031904Y-114308000D01*
X128127142Y-114260380D01*
X128365238Y-114260380D01*
X128508095Y-114308000D01*
X128841428Y-114260380D02*
X129079523Y-115260380D01*
X129270000Y-114546095D01*
X129460476Y-115260380D01*
X129698571Y-114260380D01*
X130031904Y-114355619D02*
X130079523Y-114308000D01*
X130174761Y-114260380D01*
X130412857Y-114260380D01*
X130508095Y-114308000D01*
X130555714Y-114355619D01*
X130603333Y-114450857D01*
X130603333Y-114546095D01*
X130555714Y-114688952D01*
X129984285Y-115260380D01*
X130603333Y-115260380D01*
G04 #@! TO.C,SW3*
X145478666Y-115212761D02*
X145621523Y-115260380D01*
X145859619Y-115260380D01*
X145954857Y-115212761D01*
X146002476Y-115165142D01*
X146050095Y-115069904D01*
X146050095Y-114974666D01*
X146002476Y-114879428D01*
X145954857Y-114831809D01*
X145859619Y-114784190D01*
X145669142Y-114736571D01*
X145573904Y-114688952D01*
X145526285Y-114641333D01*
X145478666Y-114546095D01*
X145478666Y-114450857D01*
X145526285Y-114355619D01*
X145573904Y-114308000D01*
X145669142Y-114260380D01*
X145907238Y-114260380D01*
X146050095Y-114308000D01*
X146383428Y-114260380D02*
X146621523Y-115260380D01*
X146812000Y-114546095D01*
X147002476Y-115260380D01*
X147240571Y-114260380D01*
X147526285Y-114260380D02*
X148145333Y-114260380D01*
X147812000Y-114641333D01*
X147954857Y-114641333D01*
X148050095Y-114688952D01*
X148097714Y-114736571D01*
X148145333Y-114831809D01*
X148145333Y-115069904D01*
X148097714Y-115165142D01*
X148050095Y-115212761D01*
X147954857Y-115260380D01*
X147669142Y-115260380D01*
X147573904Y-115212761D01*
X147526285Y-115165142D01*
G04 #@! TO.C,REF\002A\002A*
X119316666Y-114092380D02*
X118983333Y-113616190D01*
X118745238Y-114092380D02*
X118745238Y-113092380D01*
X119126190Y-113092380D01*
X119221428Y-113140000D01*
X119269047Y-113187619D01*
X119316666Y-113282857D01*
X119316666Y-113425714D01*
X119269047Y-113520952D01*
X119221428Y-113568571D01*
X119126190Y-113616190D01*
X118745238Y-113616190D01*
X119745238Y-113568571D02*
X120078571Y-113568571D01*
X120221428Y-114092380D02*
X119745238Y-114092380D01*
X119745238Y-113092380D01*
X120221428Y-113092380D01*
X120983333Y-113568571D02*
X120650000Y-113568571D01*
X120650000Y-114092380D02*
X120650000Y-113092380D01*
X121126190Y-113092380D01*
X121650000Y-113092380D02*
X121650000Y-113330476D01*
X121411904Y-113235238D02*
X121650000Y-113330476D01*
X121888095Y-113235238D01*
X121507142Y-113520952D02*
X121650000Y-113330476D01*
X121792857Y-113520952D01*
X122411904Y-113092380D02*
X122411904Y-113330476D01*
X122173809Y-113235238D02*
X122411904Y-113330476D01*
X122650000Y-113235238D01*
X122269047Y-113520952D02*
X122411904Y-113330476D01*
X122554761Y-113520952D01*
G04 #@! TD*
M02*
