G04 #@! TF.GenerationSoftware,KiCad,Pcbnew,(5.0.1)-4*
G04 #@! TF.CreationDate,2019-01-16T21:10:53-08:00*
G04 #@! TF.ProjectId,SysButtons,537973427574746F6E732E6B69636164,rev?*
G04 #@! TF.SameCoordinates,Original*
G04 #@! TF.FileFunction,Soldermask,Top*
G04 #@! TF.FilePolarity,Negative*
%FSLAX46Y46*%
G04 Gerber Fmt 4.6, Leading zero omitted, Abs format (unit mm)*
G04 Created by KiCad (PCBNEW (5.0.1)-4) date 1/16/2019 9:10:53 PM*
%MOMM*%
%LPD*%
G01*
G04 APERTURE LIST*
%ADD10C,0.100000*%
G04 APERTURE END LIST*
D10*
G36*
X120985734Y-115733232D02*
X121195202Y-115819996D01*
X121383723Y-115945962D01*
X121544038Y-116106277D01*
X121670004Y-116294798D01*
X121756768Y-116504266D01*
X121801000Y-116726635D01*
X121801000Y-116953365D01*
X121756768Y-117175734D01*
X121670004Y-117385202D01*
X121544038Y-117573723D01*
X121383723Y-117734038D01*
X121195202Y-117860004D01*
X120985734Y-117946768D01*
X120763365Y-117991000D01*
X120536635Y-117991000D01*
X120314266Y-117946768D01*
X120104798Y-117860004D01*
X119916277Y-117734038D01*
X119755962Y-117573723D01*
X119629996Y-117385202D01*
X119543232Y-117175734D01*
X119499000Y-116953365D01*
X119499000Y-116726635D01*
X119543232Y-116504266D01*
X119629996Y-116294798D01*
X119755962Y-116106277D01*
X119916277Y-115945962D01*
X120104798Y-115819996D01*
X120314266Y-115733232D01*
X120536635Y-115689000D01*
X120763365Y-115689000D01*
X120985734Y-115733232D01*
X120985734Y-115733232D01*
G37*
G36*
X136529694Y-109508633D02*
X136702094Y-109560931D01*
X136702096Y-109560932D01*
X136860983Y-109645859D01*
X137000249Y-109760151D01*
X137114541Y-109899417D01*
X137180762Y-110023307D01*
X137199469Y-110058306D01*
X137251767Y-110230706D01*
X137269425Y-110410000D01*
X137251767Y-110589294D01*
X137210085Y-110726697D01*
X137199468Y-110761696D01*
X137114541Y-110920583D01*
X137000249Y-111059849D01*
X136860983Y-111174141D01*
X136702096Y-111259068D01*
X136702094Y-111259069D01*
X136529694Y-111311367D01*
X136395331Y-111324600D01*
X134984669Y-111324600D01*
X134850306Y-111311367D01*
X134677906Y-111259069D01*
X134677904Y-111259068D01*
X134519017Y-111174141D01*
X134379751Y-111059849D01*
X134265459Y-110920583D01*
X134180532Y-110761696D01*
X134169915Y-110726697D01*
X134128233Y-110589294D01*
X134110575Y-110410000D01*
X134128233Y-110230706D01*
X134180531Y-110058306D01*
X134199238Y-110023307D01*
X134265459Y-109899417D01*
X134379751Y-109760151D01*
X134519017Y-109645859D01*
X134677904Y-109560932D01*
X134677906Y-109560931D01*
X134850306Y-109508633D01*
X134984669Y-109495400D01*
X136395331Y-109495400D01*
X136529694Y-109508633D01*
X136529694Y-109508633D01*
G37*
G36*
X124029694Y-109508633D02*
X124202094Y-109560931D01*
X124202096Y-109560932D01*
X124360983Y-109645859D01*
X124500249Y-109760151D01*
X124614541Y-109899417D01*
X124680762Y-110023307D01*
X124699469Y-110058306D01*
X124751767Y-110230706D01*
X124769425Y-110410000D01*
X124751767Y-110589294D01*
X124710085Y-110726697D01*
X124699468Y-110761696D01*
X124614541Y-110920583D01*
X124500249Y-111059849D01*
X124360983Y-111174141D01*
X124202096Y-111259068D01*
X124202094Y-111259069D01*
X124029694Y-111311367D01*
X123895331Y-111324600D01*
X122484669Y-111324600D01*
X122350306Y-111311367D01*
X122177906Y-111259069D01*
X122177904Y-111259068D01*
X122019017Y-111174141D01*
X121879751Y-111059849D01*
X121765459Y-110920583D01*
X121680532Y-110761696D01*
X121669915Y-110726697D01*
X121628233Y-110589294D01*
X121610575Y-110410000D01*
X121628233Y-110230706D01*
X121680531Y-110058306D01*
X121699238Y-110023307D01*
X121765459Y-109899417D01*
X121879751Y-109760151D01*
X122019017Y-109645859D01*
X122177904Y-109560932D01*
X122177906Y-109560931D01*
X122350306Y-109508633D01*
X122484669Y-109495400D01*
X123895331Y-109495400D01*
X124029694Y-109508633D01*
X124029694Y-109508633D01*
G37*
G36*
X106249694Y-109508633D02*
X106422094Y-109560931D01*
X106422096Y-109560932D01*
X106580983Y-109645859D01*
X106720249Y-109760151D01*
X106834541Y-109899417D01*
X106900762Y-110023307D01*
X106919469Y-110058306D01*
X106971767Y-110230706D01*
X106989425Y-110410000D01*
X106971767Y-110589294D01*
X106930085Y-110726697D01*
X106919468Y-110761696D01*
X106834541Y-110920583D01*
X106720249Y-111059849D01*
X106580983Y-111174141D01*
X106422096Y-111259068D01*
X106422094Y-111259069D01*
X106249694Y-111311367D01*
X106115331Y-111324600D01*
X104704669Y-111324600D01*
X104570306Y-111311367D01*
X104397906Y-111259069D01*
X104397904Y-111259068D01*
X104239017Y-111174141D01*
X104099751Y-111059849D01*
X103985459Y-110920583D01*
X103900532Y-110761696D01*
X103889915Y-110726697D01*
X103848233Y-110589294D01*
X103830575Y-110410000D01*
X103848233Y-110230706D01*
X103900531Y-110058306D01*
X103919238Y-110023307D01*
X103985459Y-109899417D01*
X104099751Y-109760151D01*
X104239017Y-109645859D01*
X104397904Y-109560932D01*
X104397906Y-109560931D01*
X104570306Y-109508633D01*
X104704669Y-109495400D01*
X106115331Y-109495400D01*
X106249694Y-109508633D01*
X106249694Y-109508633D01*
G37*
G36*
X118749694Y-109508633D02*
X118922094Y-109560931D01*
X118922096Y-109560932D01*
X119080983Y-109645859D01*
X119220249Y-109760151D01*
X119334541Y-109899417D01*
X119400762Y-110023307D01*
X119419469Y-110058306D01*
X119471767Y-110230706D01*
X119489425Y-110410000D01*
X119471767Y-110589294D01*
X119430085Y-110726697D01*
X119419468Y-110761696D01*
X119334541Y-110920583D01*
X119220249Y-111059849D01*
X119080983Y-111174141D01*
X118922096Y-111259068D01*
X118922094Y-111259069D01*
X118749694Y-111311367D01*
X118615331Y-111324600D01*
X117204669Y-111324600D01*
X117070306Y-111311367D01*
X116897906Y-111259069D01*
X116897904Y-111259068D01*
X116739017Y-111174141D01*
X116599751Y-111059849D01*
X116485459Y-110920583D01*
X116400532Y-110761696D01*
X116389915Y-110726697D01*
X116348233Y-110589294D01*
X116330575Y-110410000D01*
X116348233Y-110230706D01*
X116400531Y-110058306D01*
X116419238Y-110023307D01*
X116485459Y-109899417D01*
X116599751Y-109760151D01*
X116739017Y-109645859D01*
X116897904Y-109560932D01*
X116897906Y-109560931D01*
X117070306Y-109508633D01*
X117204669Y-109495400D01*
X118615331Y-109495400D01*
X118749694Y-109508633D01*
X118749694Y-109508633D01*
G37*
G36*
X141809694Y-109473634D02*
X141982094Y-109525932D01*
X141982096Y-109525933D01*
X142140983Y-109610860D01*
X142280249Y-109725152D01*
X142394541Y-109864418D01*
X142413248Y-109899417D01*
X142479469Y-110023307D01*
X142531767Y-110195707D01*
X142549425Y-110375001D01*
X142531767Y-110554295D01*
X142479469Y-110726695D01*
X142479468Y-110726697D01*
X142394541Y-110885584D01*
X142280249Y-111024850D01*
X142140983Y-111139142D01*
X141982096Y-111224069D01*
X141982094Y-111224070D01*
X141809694Y-111276368D01*
X141675331Y-111289601D01*
X140264669Y-111289601D01*
X140130306Y-111276368D01*
X139957906Y-111224070D01*
X139957904Y-111224069D01*
X139799017Y-111139142D01*
X139659751Y-111024850D01*
X139545459Y-110885584D01*
X139460532Y-110726697D01*
X139460531Y-110726695D01*
X139408233Y-110554295D01*
X139390575Y-110375001D01*
X139408233Y-110195707D01*
X139460531Y-110023307D01*
X139526752Y-109899417D01*
X139545459Y-109864418D01*
X139659751Y-109725152D01*
X139799017Y-109610860D01*
X139957904Y-109525933D01*
X139957906Y-109525932D01*
X140130306Y-109473634D01*
X140264669Y-109460401D01*
X141675331Y-109460401D01*
X141809694Y-109473634D01*
X141809694Y-109473634D01*
G37*
G36*
X154309694Y-109473634D02*
X154482094Y-109525932D01*
X154482096Y-109525933D01*
X154640983Y-109610860D01*
X154780249Y-109725152D01*
X154894541Y-109864418D01*
X154913248Y-109899417D01*
X154979469Y-110023307D01*
X155031767Y-110195707D01*
X155049425Y-110375001D01*
X155031767Y-110554295D01*
X154979469Y-110726695D01*
X154979468Y-110726697D01*
X154894541Y-110885584D01*
X154780249Y-111024850D01*
X154640983Y-111139142D01*
X154482096Y-111224069D01*
X154482094Y-111224070D01*
X154309694Y-111276368D01*
X154175331Y-111289601D01*
X152764669Y-111289601D01*
X152630306Y-111276368D01*
X152457906Y-111224070D01*
X152457904Y-111224069D01*
X152299017Y-111139142D01*
X152159751Y-111024850D01*
X152045459Y-110885584D01*
X151960532Y-110726697D01*
X151960531Y-110726695D01*
X151908233Y-110554295D01*
X151890575Y-110375001D01*
X151908233Y-110195707D01*
X151960531Y-110023307D01*
X152026752Y-109899417D01*
X152045459Y-109864418D01*
X152159751Y-109725152D01*
X152299017Y-109610860D01*
X152457904Y-109525933D01*
X152457906Y-109525932D01*
X152630306Y-109473634D01*
X152764669Y-109460401D01*
X154175331Y-109460401D01*
X154309694Y-109473634D01*
X154309694Y-109473634D01*
G37*
G36*
X124029694Y-104508633D02*
X124202094Y-104560931D01*
X124202096Y-104560932D01*
X124360983Y-104645859D01*
X124500249Y-104760151D01*
X124614541Y-104899417D01*
X124680762Y-105023307D01*
X124699469Y-105058306D01*
X124751767Y-105230706D01*
X124769425Y-105410000D01*
X124751767Y-105589294D01*
X124710085Y-105726697D01*
X124699468Y-105761696D01*
X124614541Y-105920583D01*
X124500249Y-106059849D01*
X124360983Y-106174141D01*
X124202096Y-106259068D01*
X124202094Y-106259069D01*
X124029694Y-106311367D01*
X123895331Y-106324600D01*
X122484669Y-106324600D01*
X122350306Y-106311367D01*
X122177906Y-106259069D01*
X122177904Y-106259068D01*
X122019017Y-106174141D01*
X121879751Y-106059849D01*
X121765459Y-105920583D01*
X121680532Y-105761696D01*
X121669915Y-105726697D01*
X121628233Y-105589294D01*
X121610575Y-105410000D01*
X121628233Y-105230706D01*
X121680531Y-105058306D01*
X121699238Y-105023307D01*
X121765459Y-104899417D01*
X121879751Y-104760151D01*
X122019017Y-104645859D01*
X122177904Y-104560932D01*
X122177906Y-104560931D01*
X122350306Y-104508633D01*
X122484669Y-104495400D01*
X123895331Y-104495400D01*
X124029694Y-104508633D01*
X124029694Y-104508633D01*
G37*
G36*
X136529694Y-104508633D02*
X136702094Y-104560931D01*
X136702096Y-104560932D01*
X136860983Y-104645859D01*
X137000249Y-104760151D01*
X137114541Y-104899417D01*
X137180762Y-105023307D01*
X137199469Y-105058306D01*
X137251767Y-105230706D01*
X137269425Y-105410000D01*
X137251767Y-105589294D01*
X137210085Y-105726697D01*
X137199468Y-105761696D01*
X137114541Y-105920583D01*
X137000249Y-106059849D01*
X136860983Y-106174141D01*
X136702096Y-106259068D01*
X136702094Y-106259069D01*
X136529694Y-106311367D01*
X136395331Y-106324600D01*
X134984669Y-106324600D01*
X134850306Y-106311367D01*
X134677906Y-106259069D01*
X134677904Y-106259068D01*
X134519017Y-106174141D01*
X134379751Y-106059849D01*
X134265459Y-105920583D01*
X134180532Y-105761696D01*
X134169915Y-105726697D01*
X134128233Y-105589294D01*
X134110575Y-105410000D01*
X134128233Y-105230706D01*
X134180531Y-105058306D01*
X134199238Y-105023307D01*
X134265459Y-104899417D01*
X134379751Y-104760151D01*
X134519017Y-104645859D01*
X134677904Y-104560932D01*
X134677906Y-104560931D01*
X134850306Y-104508633D01*
X134984669Y-104495400D01*
X136395331Y-104495400D01*
X136529694Y-104508633D01*
X136529694Y-104508633D01*
G37*
G36*
X106249694Y-104508633D02*
X106422094Y-104560931D01*
X106422096Y-104560932D01*
X106580983Y-104645859D01*
X106720249Y-104760151D01*
X106834541Y-104899417D01*
X106900762Y-105023307D01*
X106919469Y-105058306D01*
X106971767Y-105230706D01*
X106989425Y-105410000D01*
X106971767Y-105589294D01*
X106930085Y-105726697D01*
X106919468Y-105761696D01*
X106834541Y-105920583D01*
X106720249Y-106059849D01*
X106580983Y-106174141D01*
X106422096Y-106259068D01*
X106422094Y-106259069D01*
X106249694Y-106311367D01*
X106115331Y-106324600D01*
X104704669Y-106324600D01*
X104570306Y-106311367D01*
X104397906Y-106259069D01*
X104397904Y-106259068D01*
X104239017Y-106174141D01*
X104099751Y-106059849D01*
X103985459Y-105920583D01*
X103900532Y-105761696D01*
X103889915Y-105726697D01*
X103848233Y-105589294D01*
X103830575Y-105410000D01*
X103848233Y-105230706D01*
X103900531Y-105058306D01*
X103919238Y-105023307D01*
X103985459Y-104899417D01*
X104099751Y-104760151D01*
X104239017Y-104645859D01*
X104397904Y-104560932D01*
X104397906Y-104560931D01*
X104570306Y-104508633D01*
X104704669Y-104495400D01*
X106115331Y-104495400D01*
X106249694Y-104508633D01*
X106249694Y-104508633D01*
G37*
G36*
X118749694Y-104508633D02*
X118922094Y-104560931D01*
X118922096Y-104560932D01*
X119080983Y-104645859D01*
X119220249Y-104760151D01*
X119334541Y-104899417D01*
X119400762Y-105023307D01*
X119419469Y-105058306D01*
X119471767Y-105230706D01*
X119489425Y-105410000D01*
X119471767Y-105589294D01*
X119430085Y-105726697D01*
X119419468Y-105761696D01*
X119334541Y-105920583D01*
X119220249Y-106059849D01*
X119080983Y-106174141D01*
X118922096Y-106259068D01*
X118922094Y-106259069D01*
X118749694Y-106311367D01*
X118615331Y-106324600D01*
X117204669Y-106324600D01*
X117070306Y-106311367D01*
X116897906Y-106259069D01*
X116897904Y-106259068D01*
X116739017Y-106174141D01*
X116599751Y-106059849D01*
X116485459Y-105920583D01*
X116400532Y-105761696D01*
X116389915Y-105726697D01*
X116348233Y-105589294D01*
X116330575Y-105410000D01*
X116348233Y-105230706D01*
X116400531Y-105058306D01*
X116419238Y-105023307D01*
X116485459Y-104899417D01*
X116599751Y-104760151D01*
X116739017Y-104645859D01*
X116897904Y-104560932D01*
X116897906Y-104560931D01*
X117070306Y-104508633D01*
X117204669Y-104495400D01*
X118615331Y-104495400D01*
X118749694Y-104508633D01*
X118749694Y-104508633D01*
G37*
G36*
X154309694Y-104473634D02*
X154482094Y-104525932D01*
X154482096Y-104525933D01*
X154640983Y-104610860D01*
X154780249Y-104725152D01*
X154894541Y-104864418D01*
X154913248Y-104899417D01*
X154979469Y-105023307D01*
X155031767Y-105195707D01*
X155049425Y-105375001D01*
X155031767Y-105554295D01*
X154979469Y-105726695D01*
X154979468Y-105726697D01*
X154894541Y-105885584D01*
X154780249Y-106024850D01*
X154640983Y-106139142D01*
X154482096Y-106224069D01*
X154482094Y-106224070D01*
X154309694Y-106276368D01*
X154175331Y-106289601D01*
X152764669Y-106289601D01*
X152630306Y-106276368D01*
X152457906Y-106224070D01*
X152457904Y-106224069D01*
X152299017Y-106139142D01*
X152159751Y-106024850D01*
X152045459Y-105885584D01*
X151960532Y-105726697D01*
X151960531Y-105726695D01*
X151908233Y-105554295D01*
X151890575Y-105375001D01*
X151908233Y-105195707D01*
X151960531Y-105023307D01*
X152026752Y-104899417D01*
X152045459Y-104864418D01*
X152159751Y-104725152D01*
X152299017Y-104610860D01*
X152457904Y-104525933D01*
X152457906Y-104525932D01*
X152630306Y-104473634D01*
X152764669Y-104460401D01*
X154175331Y-104460401D01*
X154309694Y-104473634D01*
X154309694Y-104473634D01*
G37*
G36*
X141809694Y-104473634D02*
X141982094Y-104525932D01*
X141982096Y-104525933D01*
X142140983Y-104610860D01*
X142280249Y-104725152D01*
X142394541Y-104864418D01*
X142413248Y-104899417D01*
X142479469Y-105023307D01*
X142531767Y-105195707D01*
X142549425Y-105375001D01*
X142531767Y-105554295D01*
X142479469Y-105726695D01*
X142479468Y-105726697D01*
X142394541Y-105885584D01*
X142280249Y-106024850D01*
X142140983Y-106139142D01*
X141982096Y-106224069D01*
X141982094Y-106224070D01*
X141809694Y-106276368D01*
X141675331Y-106289601D01*
X140264669Y-106289601D01*
X140130306Y-106276368D01*
X139957906Y-106224070D01*
X139957904Y-106224069D01*
X139799017Y-106139142D01*
X139659751Y-106024850D01*
X139545459Y-105885584D01*
X139460532Y-105726697D01*
X139460531Y-105726695D01*
X139408233Y-105554295D01*
X139390575Y-105375001D01*
X139408233Y-105195707D01*
X139460531Y-105023307D01*
X139526752Y-104899417D01*
X139545459Y-104864418D01*
X139659751Y-104725152D01*
X139799017Y-104610860D01*
X139957904Y-104525933D01*
X139957906Y-104525932D01*
X140130306Y-104473634D01*
X140264669Y-104460401D01*
X141675331Y-104460401D01*
X141809694Y-104473634D01*
X141809694Y-104473634D01*
G37*
G36*
X131058228Y-98876703D02*
X131213100Y-98940853D01*
X131352481Y-99033985D01*
X131471015Y-99152519D01*
X131564147Y-99291900D01*
X131628297Y-99446772D01*
X131661000Y-99611184D01*
X131661000Y-99778816D01*
X131628297Y-99943228D01*
X131564147Y-100098100D01*
X131471015Y-100237481D01*
X131352481Y-100356015D01*
X131213100Y-100449147D01*
X131058228Y-100513297D01*
X130893816Y-100546000D01*
X130726184Y-100546000D01*
X130561772Y-100513297D01*
X130406900Y-100449147D01*
X130267519Y-100356015D01*
X130148985Y-100237481D01*
X130055853Y-100098100D01*
X129991703Y-99943228D01*
X129959000Y-99778816D01*
X129959000Y-99611184D01*
X129991703Y-99446772D01*
X130055853Y-99291900D01*
X130148985Y-99152519D01*
X130267519Y-99033985D01*
X130406900Y-98940853D01*
X130561772Y-98876703D01*
X130726184Y-98844000D01*
X130893816Y-98844000D01*
X131058228Y-98876703D01*
X131058228Y-98876703D01*
G37*
G36*
X138596821Y-98856313D02*
X138596824Y-98856314D01*
X138596825Y-98856314D01*
X138757239Y-98904975D01*
X138757241Y-98904976D01*
X138757244Y-98904977D01*
X138905078Y-98983995D01*
X139034659Y-99090341D01*
X139141005Y-99219922D01*
X139220023Y-99367756D01*
X139220024Y-99367759D01*
X139220025Y-99367761D01*
X139255341Y-99484184D01*
X139268687Y-99528179D01*
X139285117Y-99695000D01*
X139268687Y-99861821D01*
X139268686Y-99861824D01*
X139268686Y-99861825D01*
X139235538Y-99971100D01*
X139220023Y-100022244D01*
X139141005Y-100170078D01*
X139034659Y-100299659D01*
X138905078Y-100406005D01*
X138757244Y-100485023D01*
X138757241Y-100485024D01*
X138757239Y-100485025D01*
X138596825Y-100533686D01*
X138596824Y-100533686D01*
X138596821Y-100533687D01*
X138471804Y-100546000D01*
X138388196Y-100546000D01*
X138263179Y-100533687D01*
X138263176Y-100533686D01*
X138263175Y-100533686D01*
X138102761Y-100485025D01*
X138102759Y-100485024D01*
X138102756Y-100485023D01*
X137954922Y-100406005D01*
X137825341Y-100299659D01*
X137718995Y-100170078D01*
X137639977Y-100022244D01*
X137624463Y-99971100D01*
X137591314Y-99861825D01*
X137591314Y-99861824D01*
X137591313Y-99861821D01*
X137574883Y-99695000D01*
X137591313Y-99528179D01*
X137604659Y-99484184D01*
X137639975Y-99367761D01*
X137639976Y-99367759D01*
X137639977Y-99367756D01*
X137718995Y-99219922D01*
X137825341Y-99090341D01*
X137954922Y-98983995D01*
X138102756Y-98904977D01*
X138102759Y-98904976D01*
X138102761Y-98904975D01*
X138263175Y-98856314D01*
X138263176Y-98856314D01*
X138263179Y-98856313D01*
X138388196Y-98844000D01*
X138471804Y-98844000D01*
X138596821Y-98856313D01*
X138596821Y-98856313D01*
G37*
G36*
X128436821Y-98856313D02*
X128436824Y-98856314D01*
X128436825Y-98856314D01*
X128597239Y-98904975D01*
X128597241Y-98904976D01*
X128597244Y-98904977D01*
X128745078Y-98983995D01*
X128874659Y-99090341D01*
X128981005Y-99219922D01*
X129060023Y-99367756D01*
X129060024Y-99367759D01*
X129060025Y-99367761D01*
X129095341Y-99484184D01*
X129108687Y-99528179D01*
X129125117Y-99695000D01*
X129108687Y-99861821D01*
X129108686Y-99861824D01*
X129108686Y-99861825D01*
X129075538Y-99971100D01*
X129060023Y-100022244D01*
X128981005Y-100170078D01*
X128874659Y-100299659D01*
X128745078Y-100406005D01*
X128597244Y-100485023D01*
X128597241Y-100485024D01*
X128597239Y-100485025D01*
X128436825Y-100533686D01*
X128436824Y-100533686D01*
X128436821Y-100533687D01*
X128311804Y-100546000D01*
X128228196Y-100546000D01*
X128103179Y-100533687D01*
X128103176Y-100533686D01*
X128103175Y-100533686D01*
X127942761Y-100485025D01*
X127942759Y-100485024D01*
X127942756Y-100485023D01*
X127794922Y-100406005D01*
X127665341Y-100299659D01*
X127558995Y-100170078D01*
X127479977Y-100022244D01*
X127464463Y-99971100D01*
X127431314Y-99861825D01*
X127431314Y-99861824D01*
X127431313Y-99861821D01*
X127414883Y-99695000D01*
X127431313Y-99528179D01*
X127444659Y-99484184D01*
X127479975Y-99367761D01*
X127479976Y-99367759D01*
X127479977Y-99367756D01*
X127558995Y-99219922D01*
X127665341Y-99090341D01*
X127794922Y-98983995D01*
X127942756Y-98904977D01*
X127942759Y-98904976D01*
X127942761Y-98904975D01*
X128103175Y-98856314D01*
X128103176Y-98856314D01*
X128103179Y-98856313D01*
X128228196Y-98844000D01*
X128311804Y-98844000D01*
X128436821Y-98856313D01*
X128436821Y-98856313D01*
G37*
G36*
X120898228Y-98876703D02*
X121053100Y-98940853D01*
X121192481Y-99033985D01*
X121311015Y-99152519D01*
X121404147Y-99291900D01*
X121468297Y-99446772D01*
X121501000Y-99611184D01*
X121501000Y-99778816D01*
X121468297Y-99943228D01*
X121404147Y-100098100D01*
X121311015Y-100237481D01*
X121192481Y-100356015D01*
X121053100Y-100449147D01*
X120898228Y-100513297D01*
X120733816Y-100546000D01*
X120566184Y-100546000D01*
X120401772Y-100513297D01*
X120246900Y-100449147D01*
X120107519Y-100356015D01*
X119988985Y-100237481D01*
X119895853Y-100098100D01*
X119831703Y-99943228D01*
X119799000Y-99778816D01*
X119799000Y-99611184D01*
X119831703Y-99446772D01*
X119895853Y-99291900D01*
X119988985Y-99152519D01*
X120107519Y-99033985D01*
X120246900Y-98940853D01*
X120401772Y-98876703D01*
X120566184Y-98844000D01*
X120733816Y-98844000D01*
X120898228Y-98876703D01*
X120898228Y-98876703D01*
G37*
G36*
X108060442Y-98673518D02*
X108126627Y-98680037D01*
X108239853Y-98714384D01*
X108296467Y-98731557D01*
X108383311Y-98777977D01*
X108452991Y-98815222D01*
X108488057Y-98844000D01*
X108590186Y-98927814D01*
X108670369Y-99025519D01*
X108702778Y-99065009D01*
X108702779Y-99065011D01*
X108786443Y-99221533D01*
X108803616Y-99278147D01*
X108837963Y-99391373D01*
X108855359Y-99568000D01*
X108837963Y-99744627D01*
X108816243Y-99816228D01*
X108786443Y-99914467D01*
X108728837Y-100022239D01*
X108702778Y-100070991D01*
X108680530Y-100098100D01*
X108590186Y-100208186D01*
X108488729Y-100291448D01*
X108452991Y-100320778D01*
X108452989Y-100320779D01*
X108296467Y-100404443D01*
X108289069Y-100406687D01*
X108126627Y-100455963D01*
X108060442Y-100462482D01*
X107994260Y-100469000D01*
X107905740Y-100469000D01*
X107839557Y-100462481D01*
X107773373Y-100455963D01*
X107610931Y-100406687D01*
X107603533Y-100404443D01*
X107447011Y-100320779D01*
X107447009Y-100320778D01*
X107411271Y-100291448D01*
X107309814Y-100208186D01*
X107219470Y-100098100D01*
X107197222Y-100070991D01*
X107171163Y-100022239D01*
X107113557Y-99914467D01*
X107083757Y-99816228D01*
X107062037Y-99744627D01*
X107044641Y-99568000D01*
X107062037Y-99391373D01*
X107096384Y-99278147D01*
X107113557Y-99221533D01*
X107197221Y-99065011D01*
X107197222Y-99065009D01*
X107229631Y-99025519D01*
X107309814Y-98927814D01*
X107411943Y-98844000D01*
X107447009Y-98815222D01*
X107516689Y-98777977D01*
X107603533Y-98731557D01*
X107660147Y-98714384D01*
X107773373Y-98680037D01*
X107839558Y-98673518D01*
X107905740Y-98667000D01*
X107994260Y-98667000D01*
X108060442Y-98673518D01*
X108060442Y-98673518D01*
G37*
G36*
X106311000Y-100469000D02*
X104509000Y-100469000D01*
X104509000Y-98667000D01*
X106311000Y-98667000D01*
X106311000Y-100469000D01*
X106311000Y-100469000D01*
G37*
G36*
X110600442Y-98673518D02*
X110666627Y-98680037D01*
X110779853Y-98714384D01*
X110836467Y-98731557D01*
X110923311Y-98777977D01*
X110992991Y-98815222D01*
X111028057Y-98844000D01*
X111130186Y-98927814D01*
X111210369Y-99025519D01*
X111242778Y-99065009D01*
X111242779Y-99065011D01*
X111326443Y-99221533D01*
X111343616Y-99278147D01*
X111377963Y-99391373D01*
X111395359Y-99568000D01*
X111377963Y-99744627D01*
X111356243Y-99816228D01*
X111326443Y-99914467D01*
X111268837Y-100022239D01*
X111242778Y-100070991D01*
X111220530Y-100098100D01*
X111130186Y-100208186D01*
X111028729Y-100291448D01*
X110992991Y-100320778D01*
X110992989Y-100320779D01*
X110836467Y-100404443D01*
X110829069Y-100406687D01*
X110666627Y-100455963D01*
X110600442Y-100462482D01*
X110534260Y-100469000D01*
X110445740Y-100469000D01*
X110379557Y-100462481D01*
X110313373Y-100455963D01*
X110150931Y-100406687D01*
X110143533Y-100404443D01*
X109987011Y-100320779D01*
X109987009Y-100320778D01*
X109951271Y-100291448D01*
X109849814Y-100208186D01*
X109759470Y-100098100D01*
X109737222Y-100070991D01*
X109711163Y-100022239D01*
X109653557Y-99914467D01*
X109623757Y-99816228D01*
X109602037Y-99744627D01*
X109584641Y-99568000D01*
X109602037Y-99391373D01*
X109636384Y-99278147D01*
X109653557Y-99221533D01*
X109737221Y-99065011D01*
X109737222Y-99065009D01*
X109769631Y-99025519D01*
X109849814Y-98927814D01*
X109951943Y-98844000D01*
X109987009Y-98815222D01*
X110056689Y-98777977D01*
X110143533Y-98731557D01*
X110200147Y-98714384D01*
X110313373Y-98680037D01*
X110379558Y-98673518D01*
X110445740Y-98667000D01*
X110534260Y-98667000D01*
X110600442Y-98673518D01*
X110600442Y-98673518D01*
G37*
G36*
X113140442Y-98673518D02*
X113206627Y-98680037D01*
X113319853Y-98714384D01*
X113376467Y-98731557D01*
X113463311Y-98777977D01*
X113532991Y-98815222D01*
X113568057Y-98844000D01*
X113670186Y-98927814D01*
X113750369Y-99025519D01*
X113782778Y-99065009D01*
X113782779Y-99065011D01*
X113866443Y-99221533D01*
X113883616Y-99278147D01*
X113917963Y-99391373D01*
X113935359Y-99568000D01*
X113917963Y-99744627D01*
X113896243Y-99816228D01*
X113866443Y-99914467D01*
X113808837Y-100022239D01*
X113782778Y-100070991D01*
X113760530Y-100098100D01*
X113670186Y-100208186D01*
X113568729Y-100291448D01*
X113532991Y-100320778D01*
X113532989Y-100320779D01*
X113376467Y-100404443D01*
X113369069Y-100406687D01*
X113206627Y-100455963D01*
X113140442Y-100462482D01*
X113074260Y-100469000D01*
X112985740Y-100469000D01*
X112919557Y-100462481D01*
X112853373Y-100455963D01*
X112690931Y-100406687D01*
X112683533Y-100404443D01*
X112527011Y-100320779D01*
X112527009Y-100320778D01*
X112491271Y-100291448D01*
X112389814Y-100208186D01*
X112299470Y-100098100D01*
X112277222Y-100070991D01*
X112251163Y-100022239D01*
X112193557Y-99914467D01*
X112163757Y-99816228D01*
X112142037Y-99744627D01*
X112124641Y-99568000D01*
X112142037Y-99391373D01*
X112176384Y-99278147D01*
X112193557Y-99221533D01*
X112277221Y-99065011D01*
X112277222Y-99065009D01*
X112309631Y-99025519D01*
X112389814Y-98927814D01*
X112491943Y-98844000D01*
X112527009Y-98815222D01*
X112596689Y-98777977D01*
X112683533Y-98731557D01*
X112740147Y-98714384D01*
X112853373Y-98680037D01*
X112919558Y-98673518D01*
X112985740Y-98667000D01*
X113074260Y-98667000D01*
X113140442Y-98673518D01*
X113140442Y-98673518D01*
G37*
G36*
X115680442Y-98673518D02*
X115746627Y-98680037D01*
X115859853Y-98714384D01*
X115916467Y-98731557D01*
X116003311Y-98777977D01*
X116072991Y-98815222D01*
X116108057Y-98844000D01*
X116210186Y-98927814D01*
X116290369Y-99025519D01*
X116322778Y-99065009D01*
X116322779Y-99065011D01*
X116406443Y-99221533D01*
X116423616Y-99278147D01*
X116457963Y-99391373D01*
X116475359Y-99568000D01*
X116457963Y-99744627D01*
X116436243Y-99816228D01*
X116406443Y-99914467D01*
X116348837Y-100022239D01*
X116322778Y-100070991D01*
X116300530Y-100098100D01*
X116210186Y-100208186D01*
X116108729Y-100291448D01*
X116072991Y-100320778D01*
X116072989Y-100320779D01*
X115916467Y-100404443D01*
X115909069Y-100406687D01*
X115746627Y-100455963D01*
X115680442Y-100462482D01*
X115614260Y-100469000D01*
X115525740Y-100469000D01*
X115459557Y-100462481D01*
X115393373Y-100455963D01*
X115230931Y-100406687D01*
X115223533Y-100404443D01*
X115067011Y-100320779D01*
X115067009Y-100320778D01*
X115031271Y-100291448D01*
X114929814Y-100208186D01*
X114839470Y-100098100D01*
X114817222Y-100070991D01*
X114791163Y-100022239D01*
X114733557Y-99914467D01*
X114703757Y-99816228D01*
X114682037Y-99744627D01*
X114664641Y-99568000D01*
X114682037Y-99391373D01*
X114716384Y-99278147D01*
X114733557Y-99221533D01*
X114817221Y-99065011D01*
X114817222Y-99065009D01*
X114849631Y-99025519D01*
X114929814Y-98927814D01*
X115031943Y-98844000D01*
X115067009Y-98815222D01*
X115136689Y-98777977D01*
X115223533Y-98731557D01*
X115280147Y-98714384D01*
X115393373Y-98680037D01*
X115459558Y-98673518D01*
X115525740Y-98667000D01*
X115614260Y-98667000D01*
X115680442Y-98673518D01*
X115680442Y-98673518D01*
G37*
G36*
X148756821Y-98729313D02*
X148756824Y-98729314D01*
X148756825Y-98729314D01*
X148917239Y-98777975D01*
X148917241Y-98777976D01*
X148917244Y-98777977D01*
X149065078Y-98856995D01*
X149194659Y-98963341D01*
X149301005Y-99092922D01*
X149380023Y-99240756D01*
X149380024Y-99240759D01*
X149380025Y-99240761D01*
X149425713Y-99391375D01*
X149428687Y-99401179D01*
X149445117Y-99568000D01*
X149428687Y-99734821D01*
X149428686Y-99734824D01*
X149428686Y-99734825D01*
X149403993Y-99816228D01*
X149380023Y-99895244D01*
X149301005Y-100043078D01*
X149194659Y-100172659D01*
X149065078Y-100279005D01*
X148917244Y-100358023D01*
X148917241Y-100358024D01*
X148917239Y-100358025D01*
X148756825Y-100406686D01*
X148756824Y-100406686D01*
X148756821Y-100406687D01*
X148631804Y-100419000D01*
X148548196Y-100419000D01*
X148423179Y-100406687D01*
X148423176Y-100406686D01*
X148423175Y-100406686D01*
X148262761Y-100358025D01*
X148262759Y-100358024D01*
X148262756Y-100358023D01*
X148114922Y-100279005D01*
X147985341Y-100172659D01*
X147878995Y-100043078D01*
X147799977Y-99895244D01*
X147776008Y-99816228D01*
X147751314Y-99734825D01*
X147751314Y-99734824D01*
X147751313Y-99734821D01*
X147734883Y-99568000D01*
X147751313Y-99401179D01*
X147754287Y-99391375D01*
X147799975Y-99240761D01*
X147799976Y-99240759D01*
X147799977Y-99240756D01*
X147878995Y-99092922D01*
X147985341Y-98963341D01*
X148114922Y-98856995D01*
X148262756Y-98777977D01*
X148262759Y-98777976D01*
X148262761Y-98777975D01*
X148423175Y-98729314D01*
X148423176Y-98729314D01*
X148423179Y-98729313D01*
X148548196Y-98717000D01*
X148631804Y-98717000D01*
X148756821Y-98729313D01*
X148756821Y-98729313D01*
G37*
G36*
X141218228Y-98749703D02*
X141373100Y-98813853D01*
X141512481Y-98906985D01*
X141631015Y-99025519D01*
X141724147Y-99164900D01*
X141788297Y-99319772D01*
X141821000Y-99484184D01*
X141821000Y-99651816D01*
X141788297Y-99816228D01*
X141724147Y-99971100D01*
X141631015Y-100110481D01*
X141512481Y-100229015D01*
X141373100Y-100322147D01*
X141218228Y-100386297D01*
X141053816Y-100419000D01*
X140886184Y-100419000D01*
X140721772Y-100386297D01*
X140566900Y-100322147D01*
X140427519Y-100229015D01*
X140308985Y-100110481D01*
X140215853Y-99971100D01*
X140151703Y-99816228D01*
X140119000Y-99651816D01*
X140119000Y-99484184D01*
X140151703Y-99319772D01*
X140215853Y-99164900D01*
X140308985Y-99025519D01*
X140427519Y-98906985D01*
X140566900Y-98813853D01*
X140721772Y-98749703D01*
X140886184Y-98717000D01*
X141053816Y-98717000D01*
X141218228Y-98749703D01*
X141218228Y-98749703D01*
G37*
G36*
X140035734Y-93635232D02*
X140245202Y-93721996D01*
X140433723Y-93847962D01*
X140594038Y-94008277D01*
X140720004Y-94196798D01*
X140806768Y-94406266D01*
X140851000Y-94628635D01*
X140851000Y-94855365D01*
X140806768Y-95077734D01*
X140720004Y-95287202D01*
X140594038Y-95475723D01*
X140433723Y-95636038D01*
X140245202Y-95762004D01*
X140035734Y-95848768D01*
X139813365Y-95893000D01*
X139586635Y-95893000D01*
X139364266Y-95848768D01*
X139154798Y-95762004D01*
X138966277Y-95636038D01*
X138805962Y-95475723D01*
X138679996Y-95287202D01*
X138593232Y-95077734D01*
X138549000Y-94855365D01*
X138549000Y-94628635D01*
X138593232Y-94406266D01*
X138679996Y-94196798D01*
X138805962Y-94008277D01*
X138966277Y-93847962D01*
X139154798Y-93721996D01*
X139364266Y-93635232D01*
X139586635Y-93591000D01*
X139813365Y-93591000D01*
X140035734Y-93635232D01*
X140035734Y-93635232D01*
G37*
M02*
