<svg xmlns="http://www.w3.org/2000/svg" version="1.1" width="18.5in" height="8.5in" viewBox = " 0 0 1665 765" >
<!-- Front--> 
<g transform="translate(22.5, 22.5) " > 
<polygon style="stroke:#000000; fill:none; stroke-width:0.9" points="0, 0 39.690000000000005, 0 39.690000000000005, 10.62 76.50000000000001, 10.62 76.50000000000001, 0 104.94000000000001, 0 104.94000000000001, 10.62 130.5, 10.62 130.5, 0 158.94, 0 158.94, 10.62 184.5, 10.62 184.5, 0 212.94, 0 212.94, 10.62 238.5, 10.62 238.5, 0 266.94, 0 266.94, 10.62 292.5, 10.62 292.5, 0 320.94, 0 320.94, 10.62 346.5, 10.62 346.5, 0 374.94, 0 374.94, 10.62 400.5, 10.62 400.5, 0 428.94, 0 428.94, 10.62 454.5, 10.62 454.5, 0 482.94, 0 482.94, 10.62 508.5, 10.62 508.5, 0 536.94, 0 536.94, 10.62 562.5, 10.62 562.5, 0 590.94, 0 590.94, 10.62 616.5, 10.62 616.5, 0 644.94, 0 644.94, 10.62 681.75, 10.62 681.75, 0 721.44, 0 721.44, 44.190000000000005 710.82, 44.190000000000005 710.82, 85.50000000000001 721.44, 85.50000000000001 721.44, 113.94000000000001 710.82, 113.94000000000001 710.82, 139.5 721.44, 139.5 721.44, 167.94 710.82, 167.94 710.82, 193.5 721.44, 193.5 721.44, 221.94 710.82, 221.94 710.82, 247.5 721.44, 247.5 721.44, 275.94 710.82, 275.94 710.82, 317.25 721.44, 317.25 721.44, 361.44 681.75, 361.44 681.75, 350.82 644.94, 350.82 644.94, 361.44 616.5, 361.44 616.5, 350.82 590.94, 350.82 590.94, 361.44 562.5, 361.44 562.5, 350.82 536.94, 350.82 536.94, 361.44 508.5, 361.44 508.5, 350.82 482.94, 350.82 482.94, 361.44 454.5, 361.44 454.5, 350.82 428.94, 350.82 428.94, 361.44 400.5, 361.44 400.5, 350.82 374.94, 350.82 374.94, 361.44 346.5, 361.44 346.5, 350.82 320.94, 350.82 320.94, 361.44 292.5, 361.44 292.5, 350.82 266.94, 350.82 266.94, 361.44 238.5, 361.44 238.5, 350.82 212.94, 350.82 212.94, 361.44 184.5, 361.44 184.5, 350.82 158.94, 350.82 158.94, 361.44 130.5, 361.44 130.5, 350.82 104.94000000000001, 350.82 104.94000000000001, 361.44 76.50000000000001, 361.44 76.50000000000001, 350.82 39.690000000000005, 350.82 39.690000000000005, 361.44 0, 361.44 0, 317.25 10.62, 317.25 10.62, 275.94 0, 275.94 0, 247.5 10.62, 247.5 10.62, 221.94 0, 221.94 0, 193.5 10.62, 193.5 10.62, 167.94 0, 167.94 0, 139.5 10.62, 139.5 10.62, 113.94000000000001 0, 113.94000000000001 0, 85.50000000000001 10.62, 85.50000000000001 10.62, 44.190000000000005 0, 44.190000000000005 "/> 
</g>
<!-- Back--> 
<g transform="translate(743.94, 22.5) " > 
<polygon style="stroke:#000000; fill:none; stroke-width:0.9" points="0, 0 39.690000000000005, 0 39.690000000000005, 10.62 76.50000000000001, 10.62 76.50000000000001, 0 104.94000000000001, 0 104.94000000000001, 10.62 130.5, 10.62 130.5, 0 158.94, 0 158.94, 10.62 184.5, 10.62 184.5, 0 212.94, 0 212.94, 10.62 238.5, 10.62 238.5, 0 266.94, 0 266.94, 10.62 292.5, 10.62 292.5, 0 320.94, 0 320.94, 10.62 346.5, 10.62 346.5, 0 374.94, 0 374.94, 10.62 400.5, 10.62 400.5, 0 428.94, 0 428.94, 10.62 454.5, 10.62 454.5, 0 482.94, 0 482.94, 10.62 508.5, 10.62 508.5, 0 536.94, 0 536.94, 10.62 562.5, 10.62 562.5, 0 590.94, 0 590.94, 10.62 616.5, 10.62 616.5, 0 644.94, 0 644.94, 10.62 681.75, 10.62 681.75, 0 721.44, 0 721.44, 44.190000000000005 710.82, 44.190000000000005 710.82, 85.50000000000001 721.44, 85.50000000000001 721.44, 113.94000000000001 710.82, 113.94000000000001 710.82, 139.5 721.44, 139.5 721.44, 167.94 710.82, 167.94 710.82, 193.5 721.44, 193.5 721.44, 221.94 710.82, 221.94 710.82, 247.5 721.44, 247.5 721.44, 275.94 710.82, 275.94 710.82, 317.25 721.44, 317.25 721.44, 361.44 681.75, 361.44 681.75, 350.82 644.94, 350.82 644.94, 361.44 616.5, 361.44 616.5, 350.82 590.94, 350.82 590.94, 361.44 562.5, 361.44 562.5, 350.82 536.94, 350.82 536.94, 361.44 508.5, 361.44 508.5, 350.82 482.94, 350.82 482.94, 361.44 454.5, 361.44 454.5, 350.82 428.94, 350.82 428.94, 361.44 400.5, 361.44 400.5, 350.82 374.94, 350.82 374.94, 361.44 346.5, 361.44 346.5, 350.82 320.94, 350.82 320.94, 361.44 292.5, 361.44 292.5, 350.82 266.94, 350.82 266.94, 361.44 238.5, 361.44 238.5, 350.82 212.94, 350.82 212.94, 361.44 184.5, 361.44 184.5, 350.82 158.94, 350.82 158.94, 361.44 130.5, 361.44 130.5, 350.82 104.94000000000001, 350.82 104.94000000000001, 361.44 76.50000000000001, 361.44 76.50000000000001, 350.82 39.690000000000005, 350.82 39.690000000000005, 361.44 0, 361.44 0, 317.25 10.62, 317.25 10.62, 275.94 0, 275.94 0, 247.5 10.62, 247.5 10.62, 221.94 0, 221.94 0, 193.5 10.62, 193.5 10.62, 167.94 0, 167.94 0, 139.5 10.62, 139.5 10.62, 113.94000000000001 0, 113.94000000000001 0, 85.50000000000001 10.62, 85.50000000000001 10.62, 44.190000000000005 0, 44.190000000000005 "/> 
</g>
<!-- Left--> 
<g transform="translate(1465.38, 22.5) " > 
<polygon style="stroke:#000000; fill:none; stroke-width:0.9" points="10.62, 0 39.690000000000005, 0 39.690000000000005, 10.62 76.50000000000001, 10.62 76.50000000000001, 0 104.94000000000001, 0 104.94000000000001, 10.62 141.75000000000003, 10.62 141.75000000000003, 0 170.82, 0 170.82, 42.75000000000001 181.44, 42.75000000000001 181.44, 86.94000000000001 170.82, 86.94000000000001 170.82, 112.50000000000001 181.44, 112.50000000000001 181.44, 140.94 170.82, 140.94 170.82, 166.5 181.44, 166.5 181.44, 194.94 170.82, 194.94 170.82, 220.5 181.44, 220.5 181.44, 248.94 170.82, 248.94 170.82, 274.5 181.44, 274.5 181.44, 318.69 170.82, 318.69 170.82000000000002, 361.44 141.75000000000003, 361.44 141.75000000000003, 350.82 104.94000000000001, 350.82 104.94000000000001, 361.44 76.50000000000001, 361.44 76.50000000000001, 350.82 39.690000000000005, 350.82 39.690000000000005, 361.44 10.62, 361.44 10.62, 318.69 0, 318.69 0, 274.5 10.62, 274.5 10.62, 248.94 0, 248.94 0, 220.5 10.62, 220.5 10.62, 194.94 0, 194.94 0, 166.5 10.62, 166.5 10.62, 140.94 0, 140.94 0, 112.50000000000001 10.62, 112.50000000000001 10.62, 86.94000000000001 0, 86.94000000000001 0, 42.75000000000001 10.62, 42.75000000000001 "/> 
</g>
<!-- Right--> 
<g transform="translate(1465.38, 383.94) " > 
<polygon style="stroke:#000000; fill:none; stroke-width:0.9" points="10.62, 0 39.690000000000005, 0 39.690000000000005, 10.62 76.50000000000001, 10.62 76.50000000000001, 0 104.94000000000001, 0 104.94000000000001, 10.62 141.75000000000003, 10.62 141.75000000000003, 0 170.82, 0 170.82, 42.75000000000001 181.44, 42.75000000000001 181.44, 86.94000000000001 170.82, 86.94000000000001 170.82, 112.50000000000001 181.44, 112.50000000000001 181.44, 140.94 170.82, 140.94 170.82, 166.5 181.44, 166.5 181.44, 194.94 170.82, 194.94 170.82, 220.5 181.44, 220.5 181.44, 248.94 170.82, 248.94 170.82, 274.5 181.44, 274.5 181.44, 318.69 170.82, 318.69 170.82000000000002, 361.44 141.75000000000003, 361.44 141.75000000000003, 350.82 104.94000000000001, 350.82 104.94000000000001, 361.44 76.50000000000001, 361.44 76.50000000000001, 350.82 39.690000000000005, 350.82 39.690000000000005, 361.44 10.62, 361.44 10.62, 318.69 0, 318.69 0, 274.5 10.62, 274.5 10.62, 248.94 0, 248.94 0, 220.5 10.62, 220.5 10.62, 194.94 0, 194.94 0, 166.5 10.62, 166.5 10.62, 140.94 0, 140.94 0, 112.50000000000001 10.62, 112.50000000000001 10.62, 86.94000000000001 0, 86.94000000000001 0, 42.75000000000001 10.62, 42.75000000000001 "/> 
</g>
<!-- Top--> 
<g transform="translate(22.5, 383.94) " > 
<polygon style="stroke:#000000; fill:none; stroke-width:0.9" points="10.62, 10.62 38.25000000000001, 10.62 38.25000000000001, 0 77.94000000000001, 0 77.94000000000001, 10.62 103.50000000000001, 10.62 103.50000000000001, 0 131.94, 0 131.94, 10.62 157.5, 10.62 157.5, 0 185.94, 0 185.94, 10.62 211.5, 10.62 211.5, 0 239.94, 0 239.94, 10.62 265.5, 10.62 265.5, 0 293.94, 0 293.94, 10.62 319.5, 10.62 319.5, 0 347.94, 0 347.94, 10.62 373.5, 10.62 373.5, 0 401.94, 0 401.94, 10.62 427.5, 10.62 427.5, 0 455.94, 0 455.94, 10.62 481.5, 10.62 481.5, 0 509.94, 0 509.94, 10.62 535.5, 10.62 535.5, 0 563.94, 0 563.94, 10.62 589.5, 10.62 589.5, 0 617.94, 0 617.94, 10.62 643.5, 10.62 643.5, 0 683.19, 0 683.19, 10.62 710.82, 10.62 710.82, 38.25000000000001 721.44, 38.25000000000001 721.44, 77.94000000000001 710.82, 77.94000000000001 710.82, 103.50000000000001 721.44, 103.50000000000001 721.44, 143.19000000000003 710.82, 143.19000000000003 710.82, 170.82 683.19, 170.82 683.19, 181.44 643.5, 181.44 643.5, 170.82 617.94, 170.82 617.94, 181.44 589.5, 181.44 589.5, 170.82 563.94, 170.82 563.94, 181.44 535.5, 181.44 535.5, 170.82 509.94, 170.82 509.94, 181.44 481.5, 181.44 481.5, 170.82 455.94, 170.82 455.94, 181.44 427.5, 181.44 427.5, 170.82 401.94, 170.82 401.94, 181.44 373.5, 181.44 373.5, 170.82 347.94, 170.82 347.94, 181.44 319.5, 181.44 319.5, 170.82 293.94, 170.82 293.94, 181.44 265.5, 181.44 265.5, 170.82 239.94, 170.82 239.94, 181.44 211.5, 181.44 211.5, 170.82 185.94, 170.82 185.94, 181.44 157.5, 181.44 157.5, 170.82 131.94, 170.82 131.94, 181.44 103.50000000000001, 181.44 103.50000000000001, 170.82 77.94000000000001, 170.82 77.94000000000001, 181.44 38.25000000000001, 181.44 38.25000000000001, 170.82 10.62, 170.82000000000002 10.62, 143.19000000000003 0, 143.19000000000003 0, 103.50000000000001 10.62, 103.50000000000001 10.62, 77.94000000000001 0, 77.94000000000001 0, 38.25000000000001 10.62, 38.25000000000001 "/> 
</g>
<!-- Bottom--> 
<g transform="translate(743.94, 383.94) " > 
<polygon style="stroke:#000000; fill:none; stroke-width:0.9" points="10.62, 10.62 38.25000000000001, 10.62 38.25000000000001, 0 77.94000000000001, 0 77.94000000000001, 10.62 103.50000000000001, 10.62 103.50000000000001, 0 131.94, 0 131.94, 10.62 157.5, 10.62 157.5, 0 185.94, 0 185.94, 10.62 211.5, 10.62 211.5, 0 239.94, 0 239.94, 10.62 265.5, 10.62 265.5, 0 293.94, 0 293.94, 10.62 319.5, 10.62 319.5, 0 347.94, 0 347.94, 10.62 373.5, 10.62 373.5, 0 401.94, 0 401.94, 10.62 427.5, 10.62 427.5, 0 455.94, 0 455.94, 10.62 481.5, 10.62 481.5, 0 509.94, 0 509.94, 10.62 535.5, 10.62 535.5, 0 563.94, 0 563.94, 10.62 589.5, 10.62 589.5, 0 617.94, 0 617.94, 10.62 643.5, 10.62 643.5, 0 683.19, 0 683.19, 10.62 710.82, 10.62 710.82, 38.25000000000001 721.44, 38.25000000000001 721.44, 77.94000000000001 710.82, 77.94000000000001 710.82, 103.50000000000001 721.44, 103.50000000000001 721.44, 143.19000000000003 710.82, 143.19000000000003 710.82, 170.82 683.19, 170.82 683.19, 181.44 643.5, 181.44 643.5, 170.82 617.94, 170.82 617.94, 181.44 589.5, 181.44 589.5, 170.82 563.94, 170.82 563.94, 181.44 535.5, 181.44 535.5, 170.82 509.94, 170.82 509.94, 181.44 481.5, 181.44 481.5, 170.82 455.94, 170.82 455.94, 181.44 427.5, 181.44 427.5, 170.82 401.94, 170.82 401.94, 181.44 373.5, 181.44 373.5, 170.82 347.94, 170.82 347.94, 181.44 319.5, 181.44 319.5, 170.82 293.94, 170.82 293.94, 181.44 265.5, 181.44 265.5, 170.82 239.94, 170.82 239.94, 181.44 211.5, 181.44 211.5, 170.82 185.94, 170.82 185.94, 181.44 157.5, 181.44 157.5, 170.82 131.94, 170.82 131.94, 181.44 103.50000000000001, 181.44 103.50000000000001, 170.82 77.94000000000001, 170.82 77.94000000000001, 181.44 38.25000000000001, 181.44 38.25000000000001, 170.82 10.62, 170.82000000000002 10.62, 143.19000000000003 0, 143.19000000000003 0, 103.50000000000001 10.62, 103.50000000000001 10.62, 77.94000000000001 0, 77.94000000000001 0, 38.25000000000001 10.62, 38.25000000000001 "/> 
</g></svg>