  0
SECTION
  2
HEADER
  9
$ACADVER
  1
AC1014
  9
$HANDSEED
  5
FFFF
  9
$MEASUREMENT
 70
     1
  0
ENDSEC
  0
SECTION
  2
TABLES
  0
TABLE
  2
VPORT
  5
8
330
0
100
AcDbSymbolTable
 70
     4
  0
VPORT
  5
2E
330
8
100
AcDbSymbolTableRecord
100
AcDbViewportTableRecord
  2
*ACTIVE
 70
     0
 10
0.0
 20
0.0
 11
1.0
 21
1.0
 12
210.0
 22
148.5
 13
0.0
 23
0.0
 14
10.0
 24
10.0
 15
10.0
 25
10.0
 16
0.0
 26
0.0
 36
1.0
 17
0.0
 27
0.0
 37
0.0
 40
341.0
 41
1.24
 42
50.0
 43
0.0
 44
0.0
 50
0.0
 51
0.0
 71
     0
 72
   100
 73
     1
 74
     3
 75
     0
 76
     0
 77
     0
 78
     0
  0
ENDTAB
  0
TABLE
  2
LTYPE
  5
5
330
0
100
AcDbSymbolTable
 70
     1
  0
LTYPE
  5
14
330
5
100
AcDbSymbolTableRecord
100
AcDbLinetypeTableRecord
  2
BYBLOCK
 70
     0
  3

 72
    65
 73
     0
 40
0.0
  0
LTYPE
  5
15
330
5
100
AcDbSymbolTableRecord
100
AcDbLinetypeTableRecord
  2
BYLAYER
 70
     0
  3

 72
    65
 73
     0
 40
0.0
  0
LTYPE
  5
16
330
5
100
AcDbSymbolTableRecord
100
AcDbLinetypeTableRecord
  2
CONTINUOUS
 70
     0
  3
Solid line
 72
    65
 73
     0
 40
0.0
  0
ENDTAB
  0
TABLE
  2
LAYER
  5
2
100
AcDbSymbolTable
 70
3
  0
LAYER
  5
50
100
AcDbSymbolTableRecord
100
AcDbLayerTableRecord
  2
0
 70
0
  6
CONTINUOUS
  0
LAYER
  5
51
100
AcDbSymbolTableRecord
100
AcDbLayerTableRecord
  2
Layer_1
 70
0
  6
CONTINUOUS
  0
LAYER
  5
52
100
AcDbSymbolTableRecord
100
AcDbLayerTableRecord
  2
newlayer
 70
0
  6
CONTINUOUS
  0
ENDTAB
  0
TABLE
  2
STYLE
  5
3
330
0
100
AcDbSymbolTable
 70
     1
  0
STYLE
  5
11
330
3
100
AcDbSymbolTableRecord
100
AcDbTextStyleTableRecord
  2
STANDARD
 70
     0
 40
0.0
 41
1.0
 50
0.0
 71
     0
 42
2.5
  3
txt
  4

  0
ENDTAB
  0
TABLE
  2
VIEW
  5
6
330
0
100
AcDbSymbolTable
 70
     0
  0
ENDTAB
  0
TABLE
  2
UCS
  5
7
330
0
100
AcDbSymbolTable
 70
     0
  0
ENDTAB
  0
TABLE
  2
APPID
  5
9
330
0
100
AcDbSymbolTable
 70
     2
  0
APPID
  5
12
330
9
100
AcDbSymbolTableRecord
100
AcDbRegAppTableRecord
  2
ACAD
 70
     0
  0
ENDTAB
  0
TABLE
  2
DIMSTYLE
  5
A
330
0
100
AcDbSymbolTable
 70
     1
  0
DIMSTYLE
105
27
330
A
100
AcDbSymbolTableRecord
100
AcDbDimStyleTableRecord
  2
ISO-25
 70
     0
  3

  4

  5

  6

  7

 40
1.0
 41
2.5
 42
0.625
 43
3.75
 44
1.25
 45
0.0
 46
0.0
 47
0.0
 48
0.0
140
2.5
141
2.5
142
0.0
143
0.03937007874016
144
1.0
145
0.0
146
1.0
147
0.625
 71
     0
 72
     0
 73
     0
 74
     0
 75
     0
 76
     0
 77
     1
 78
     8
170
     0
171
     3
172
     1
173
     0
174
     0
175
     0
176
     0
177
     0
178
     0
270
     2
271
     2
272
     2
273
     2
274
     3
340
11
275
     0
280
     0
281
     0
282
     0
283
     0
284
     8
285
     0
286
     0
287
     3
288
     0
  0
ENDTAB
  0
TABLE
  2
BLOCK_RECORD
  5
1
330
0
100
AcDbSymbolTable
 70
     1
  0
BLOCK_RECORD
  5
1F
330
1
100
AcDbSymbolTableRecord
100
AcDbBlockTableRecord
  2
*MODEL_SPACE
  0
BLOCK_RECORD
  5
1B
330
1
100
AcDbSymbolTableRecord
100
AcDbBlockTableRecord
  2
*PAPER_SPACE
  0
ENDTAB
  0
ENDSEC
  0
SECTION
  2
BLOCKS
  0
BLOCK
  5
20
330
1F
100
AcDbEntity
  8
0
100
AcDbBlockBegin
  2
*MODEL_SPACE
 70
     0
 10
0.0
 20
0.0
 30
0.0
  3
*MODEL_SPACE
  1

  0
ENDBLK
  5
21
330
1F
100
AcDbEntity
  8
0
100
AcDbBlockEnd
  0
BLOCK
  5
1C
330
1B
100
AcDbEntity
 67
     1
  8
0
100
AcDbBlockBegin
  2
*PAPER_SPACE
  1

  0
ENDBLK
  5
1D
330
1B
100
AcDbEntity
 67
     1
  8
0
100
AcDbBlockEnd
  0
ENDSEC
  0
SECTION
  2
ENTITIES
  0
LWPOLYLINE
  5
100
100
AcDbEntity
  8
Layer_1
 62
5
100
AcDbPolyline
 90
8
 70
1
 10
401.196480
 20
444.233355
 30
0.0
 10
411.401235
 20
433.886865
 30
0.0
 10
411.401235
 20
401.855370
 30
0.0
 10
401.196480
 20
391.508948
 30
0.0
 10
369.164985
 20
391.508948
 30
0.0
 10
358.960290
 20
401.855370
 30
0.0
 10
358.960290
 20
433.886865
 30
0.0
 10
369.164985
 20
444.233355
 30
0.0
  0
LWPOLYLINE
  5
101
100
AcDbEntity
  8
Layer_1
 62
5
100
AcDbPolyline
 90
4
 70
1
 10
355.683180
 20
437.717846
 30
0.0
 10
355.683180
 20
398.024374
 30
0.0
 10
338.439832
 20
398.024374
 30
0.0
 10
338.439832
 20
437.717846
 30
0.0
  0
LWPOLYLINE
  5
102
100
AcDbEntity
  8
Layer_1
 62
7
100
AcDbPolyline
 90
16
 70
1
 10
316.965720
 20
376.704694
 30
0.0
 10
316.862280
 20
376.763794
 30
0.0
 10
316.862280
 20
397.109389
 30
0.0
 10
316.862280
 20
458.973454
 30
0.0
 10
357.012105
 20
458.973454
 30
0.0
 10
357.012105
 20
458.973454
 30
0.0
 10
357.012105
 20
450.469519
 30
0.0
 10
373.453050
 20
450.469519
 30
0.0
 10
373.453050
 20
458.973454
 30
0.0
 10
453.499238
 20
458.973454
 30
0.0
 10
453.499238
 20
458.973454
 30
0.0
 10
453.499238
 20
376.665259
 30
0.0
 10
373.453050
 20
376.768759
 30
0.0
 10
373.453050
 20
385.272701
 30
0.0
 10
357.012105
 20
385.272701
 30
0.0
 10
357.012105
 20
376.768759
 30
0.0
  0
LWPOLYLINE
  5
103
100
AcDbEntity
  8
Layer_1
 62
7
100
AcDbPolyline
 90
4
 70
1
 10
388.298873
 20
423.115245
 30
0.0
 10
388.298873
 20
412.627058
 30
0.0
 10
382.062653
 20
412.627058
 30
0.0
 10
382.062653
 20
423.115245
 30
0.0
  0
LWPOLYLINE
  5
104
100
AcDbEntity
  8
Layer_1
 62
7
100
AcDbPolyline
 90
4
 70
1
 10
355.683180
 20
437.717846
 30
0.0
 10
355.683180
 20
398.024374
 30
0.0
 10
338.439832
 20
398.024374
 30
0.0
 10
338.439832
 20
437.717846
 30
0.0
  0
LWPOLYLINE
  5
105
100
AcDbEntity
  8
Layer_1
 62
7
100
AcDbPolyline
 90
4
 70
1
 10
406.334940
 20
409.650626
 30
0.0
 10
406.334940
 20
426.091571
 30
0.0
 10
397.831005
 20
426.091571
 30
0.0
 10
397.831005
 20
409.650626
 30
0.0
  0
LWPOLYLINE
  5
106
100
AcDbEntity
  8
Layer_1
 62
7
100
AcDbPolyline
 90
4
 70
1
 10
324.130207
 20
426.091571
 30
0.0
 10
324.130207
 20
409.650626
 30
0.0
 10
332.634142
 20
409.650626
 30
0.0
 10
332.634142
 20
426.091571
 30
0.0
  0
SPLINE
  5
107
100
AcDbEntity
  8
Layer_1
 62
5
100
AcDbSpline
 70
8
 71
3
 72
8
 73
4
 74
0
 40
0
 40
0
 40
0
 40
0
 40
1
 40
1
 40
1
 40
1
 10
73.559449
 20
263.786057
 30
0.0
 10
72.546727
 20
263.786057
 30
0.0
 10
71.610934
 20
264.326338
 30
0.0
 10
71.104575
 20
265.203380
 30
0.0
  0
SPLINE
  5
108
100
AcDbEntity
  8
Layer_1
 62
5
100
AcDbSpline
 70
8
 71
3
 72
8
 73
4
 74
0
 40
0
 40
0
 40
0
 40
0
 40
1
 40
1
 40
1
 40
1
 10
71.104575
 20
265.203380
 30
0.0
 10
70.598214
 20
266.080422
 30
0.0
 10
70.598214
 20
267.160983
 30
0.0
 10
71.104575
 20
268.038026
 30
0.0
  0
SPLINE
  5
109
100
AcDbEntity
  8
Layer_1
 62
5
100
AcDbSpline
 70
8
 71
3
 72
8
 73
4
 74
0
 40
0
 40
0
 40
0
 40
0
 40
1
 40
1
 40
1
 40
1
 10
71.104575
 20
268.038026
 30
0.0
 10
71.610934
 20
268.915068
 30
0.0
 10
72.546727
 20
269.455349
 30
0.0
 10
73.559449
 20
269.455349
 30
0.0
  0
SPLINE
  5
10a
100
AcDbEntity
  8
Layer_1
 62
5
100
AcDbSpline
 70
8
 71
3
 72
8
 73
4
 74
0
 40
0
 40
0
 40
0
 40
0
 40
1
 40
1
 40
1
 40
1
 10
73.559449
 20
269.455349
 30
0.0
 10
74.572171
 20
269.455349
 30
0.0
 10
75.507964
 20
268.915068
 30
0.0
 10
76.014323
 20
268.038026
 30
0.0
  0
SPLINE
  5
10b
100
AcDbEntity
  8
Layer_1
 62
5
100
AcDbSpline
 70
8
 71
3
 72
8
 73
4
 74
0
 40
0
 40
0
 40
0
 40
0
 40
1
 40
1
 40
1
 40
1
 10
76.014323
 20
268.038026
 30
0.0
 10
76.520684
 20
267.160983
 30
0.0
 10
76.520684
 20
266.080422
 30
0.0
 10
76.014323
 20
265.203380
 30
0.0
  0
SPLINE
  5
10c
100
AcDbEntity
  8
Layer_1
 62
5
100
AcDbSpline
 70
8
 71
3
 72
8
 73
4
 74
0
 40
0
 40
0
 40
0
 40
0
 40
1
 40
1
 40
1
 40
1
 10
76.014323
 20
265.203380
 30
0.0
 10
75.507964
 20
264.326338
 30
0.0
 10
74.572171
 20
263.786057
 30
0.0
 10
73.559449
 20
263.786057
 30
0.0
  0
LWPOLYLINE
  5
10d
100
AcDbEntity
  8
Layer_1
 62
5
100
AcDbPolyline
 90
8
 70
1
 10
63.354725
 20
319.345197
 30
0.0
 10
73.559477
 20
308.998712
 30
0.0
 10
73.559477
 20
276.967216
 30
0.0
 10
63.354725
 20
266.620788
 30
0.0
 10
31.323229
 20
266.620788
 30
0.0
 10
21.118532
 20
276.967216
 30
0.0
 10
21.118532
 20
308.998712
 30
0.0
 10
31.323229
 20
319.345197
 30
0.0
  0
SPLINE
  5
10e
100
AcDbEntity
  8
Layer_1
 62
5
100
AcDbSpline
 70
8
 71
3
 72
8
 73
4
 74
0
 40
0
 40
0
 40
0
 40
0
 40
1
 40
1
 40
1
 40
1
 10
66.472835
 20
319.345141
 30
0.0
 10
65.460113
 20
319.345141
 30
0.0
 10
64.524320
 20
319.885421
 30
0.0
 10
64.017961
 20
320.762463
 30
0.0
  0
SPLINE
  5
10f
100
AcDbEntity
  8
Layer_1
 62
5
100
AcDbSpline
 70
8
 71
3
 72
8
 73
4
 74
0
 40
0
 40
0
 40
0
 40
0
 40
1
 40
1
 40
1
 40
1
 10
64.017961
 20
320.762463
 30
0.0
 10
63.511600
 20
321.639506
 30
0.0
 10
63.511600
 20
322.720067
 30
0.0
 10
64.017961
 20
323.597109
 30
0.0
  0
SPLINE
  5
110
100
AcDbEntity
  8
Layer_1
 62
5
100
AcDbSpline
 70
8
 71
3
 72
8
 73
4
 74
0
 40
0
 40
0
 40
0
 40
0
 40
1
 40
1
 40
1
 40
1
 10
64.017961
 20
323.597109
 30
0.0
 10
64.524320
 20
324.474152
 30
0.0
 10
65.460113
 20
325.014432
 30
0.0
 10
66.472835
 20
325.014432
 30
0.0
  0
SPLINE
  5
111
100
AcDbEntity
  8
Layer_1
 62
5
100
AcDbSpline
 70
8
 71
3
 72
8
 73
4
 74
0
 40
0
 40
0
 40
0
 40
0
 40
1
 40
1
 40
1
 40
1
 10
66.472835
 20
325.014432
 30
0.0
 10
67.485557
 20
325.014432
 30
0.0
 10
68.421350
 20
324.474152
 30
0.0
 10
68.927709
 20
323.597109
 30
0.0
  0
SPLINE
  5
112
100
AcDbEntity
  8
Layer_1
 62
5
100
AcDbSpline
 70
8
 71
3
 72
8
 73
4
 74
0
 40
0
 40
0
 40
0
 40
0
 40
1
 40
1
 40
1
 40
1
 10
68.927709
 20
323.597109
 30
0.0
 10
69.434070
 20
322.720067
 30
0.0
 10
69.434070
 20
321.639506
 30
0.0
 10
68.927709
 20
320.762463
 30
0.0
  0
SPLINE
  5
113
100
AcDbEntity
  8
Layer_1
 62
5
100
AcDbSpline
 70
8
 71
3
 72
8
 73
4
 74
0
 40
0
 40
0
 40
0
 40
0
 40
1
 40
1
 40
1
 40
1
 10
68.927709
 20
320.762463
 30
0.0
 10
68.421350
 20
319.885421
 30
0.0
 10
67.485557
 20
319.345141
 30
0.0
 10
66.472835
 20
319.345141
 30
0.0
  0
LWPOLYLINE
  5
114
100
AcDbEntity
  8
Layer_1
 62
5
100
AcDbPolyline
 90
1
 70
1
 10
73.559449
 20
263.786057
 30
0.0
  0
LWPOLYLINE
  5
115
100
AcDbEntity
  8
Layer_1
 62
5
100
AcDbPolyline
 90
1
 70
1
 10
66.472835
 20
319.345141
 30
0.0
  0
LWPOLYLINE
  5
116
100
AcDbEntity
  8
Layer_1
 62
7
100
AcDbPolyline
 90
20
 70
1
 10
79.937422
 20
325.581412
 30
0.0
 10
79.937422
 20
301.770389
 30
0.0
 10
88.441359
 20
301.770389
 30
0.0
 10
88.441359
 20
284.195585
 30
0.0
 10
79.937422
 20
284.195585
 30
0.0
 10
79.937422
 20
260.384561
 30
0.0
 10
56.126398
 20
260.384561
 30
0.0
 10
56.126398
 20
251.880625
 30
0.0
 10
38.551595
 20
251.880625
 30
0.0
 10
38.551595
 20
260.384561
 30
0.0
 10
14.740579
 20
260.384561
 30
0.0
 10
14.740579
 20
284.195585
 30
0.0
 10
6.236643
 20
284.195585
 30
0.0
 10
6.236643
 20
301.770389
 30
0.0
 10
14.740579
 20
301.770389
 30
0.0
 10
14.740579
 20
325.581412
 30
0.0
 10
38.551595
 20
325.581412
 30
0.0
 10
38.551595
 20
334.085349
 30
0.0
 10
56.126398
 20
334.085349
 30
0.0
 10
56.126398
 20
325.581412
 30
0.0
  0
LWPOLYLINE
  5
117
100
AcDbEntity
  8
Layer_1
 62
7
100
AcDbPolyline
 90
20
 70
1
 10
88.441359
 20
495.660152
 30
0.0
 10
88.441359
 20
471.282200
 30
0.0
 10
79.937422
 20
471.282200
 30
0.0
 10
79.937422
 20
454.841255
 30
0.0
 10
88.441359
 20
454.841255
 30
0.0
 10
88.441359
 20
430.463302
 30
0.0
 10
56.126398
 20
430.463302
 30
0.0
 10
56.126398
 20
421.959365
 30
0.0
 10
38.551595
 20
421.959365
 30
0.0
 10
38.551595
 20
430.463302
 30
0.0
 10
6.236643
 20
430.463302
 30
0.0
 10
6.236643
 20
454.841255
 30
0.0
 10
14.740579
 20
454.841255
 30
0.0
 10
14.740579
 20
471.282200
 30
0.0
 10
6.236643
 20
471.282200
 30
0.0
 10
6.236643
 20
495.660152
 30
0.0
 10
38.551595
 20
495.660152
 30
0.0
 10
38.551595
 20
504.164089
 30
0.0
 10
56.126398
 20
504.164089
 30
0.0
 10
56.126398
 20
495.660152
 30
0.0
  0
LWPOLYLINE
  5
118
100
AcDbEntity
  8
Layer_1
 62
7
100
AcDbPolyline
 90
20
 70
1
 10
79.937422
 20
240.542042
 30
0.0
 10
79.937422
 20
216.731018
 30
0.0
 10
88.441359
 20
216.731018
 30
0.0
 10
88.441359
 20
199.156215
 30
0.0
 10
79.937422
 20
199.156215
 30
0.0
 10
79.937422
 20
175.345192
 30
0.0
 10
56.126398
 20
175.345192
 30
0.0
 10
56.126398
 20
166.841255
 30
0.0
 10
38.551595
 20
166.841255
 30
0.0
 10
38.551595
 20
175.345192
 30
0.0
 10
14.740579
 20
175.345192
 30
0.0
 10
14.740579
 20
199.156215
 30
0.0
 10
6.236643
 20
199.156215
 30
0.0
 10
6.236643
 20
216.731018
 30
0.0
 10
14.740579
 20
216.731018
 30
0.0
 10
14.740579
 20
240.542042
 30
0.0
 10
38.551595
 20
240.542042
 30
0.0
 10
38.551595
 20
249.045979
 30
0.0
 10
56.126398
 20
249.045979
 30
0.0
 10
56.126398
 20
240.542042
 30
0.0
  0
LWPOLYLINE
  5
119
100
AcDbEntity
  8
Layer_1
 62
7
100
AcDbPolyline
 90
20
 70
1
 10
88.441359
 20
410.620782
 30
0.0
 10
88.441359
 20
386.242829
 30
0.0
 10
79.937422
 20
386.242829
 30
0.0
 10
79.937422
 20
369.801884
 30
0.0
 10
88.441359
 20
369.801884
 30
0.0
 10
88.441359
 20
345.423932
 30
0.0
 10
56.126398
 20
345.423932
 30
0.0
 10
56.126398
 20
336.919994
 30
0.0
 10
38.551595
 20
336.919994
 30
0.0
 10
38.551595
 20
345.423932
 30
0.0
 10
6.236643
 20
345.423932
 30
0.0
 10
6.236643
 20
369.801884
 30
0.0
 10
14.740579
 20
369.801884
 30
0.0
 10
14.740579
 20
386.242829
 30
0.0
 10
6.236643
 20
386.242829
 30
0.0
 10
6.236643
 20
410.620782
 30
0.0
 10
38.551595
 20
410.620782
 30
0.0
 10
38.551595
 20
419.124719
 30
0.0
 10
56.126398
 20
419.124719
 30
0.0
 10
56.126398
 20
410.620782
 30
0.0
  0
LWPOLYLINE
  5
11a
100
AcDbEntity
  8
Layer_1
 62
7
100
AcDbPolyline
 90
20
 70
1
 10
88.441359
 20
589.064267
 30
0.0
 10
88.441359
 20
556.182377
 30
0.0
 10
79.937422
 20
556.182377
 30
0.0
 10
79.937422
 20
539.741432
 30
0.0
 10
88.441359
 20
539.741432
 30
0.0
 10
88.441359
 20
506.859554
 30
0.0
 10
55.559469
 20
506.859554
 30
0.0
 10
55.559469
 20
515.363491
 30
0.0
 10
39.118524
 20
515.363491
 30
0.0
 10
39.118524
 20
506.859554
 30
0.0
 10
6.236643
 20
506.859554
 30
0.0
 10
6.236643
 20
539.741432
 30
0.0
 10
14.740579
 20
539.741432
 30
0.0
 10
14.740579
 20
556.182377
 30
0.0
 10
6.236643
 20
556.182377
 30
0.0
 10
6.236643
 20
589.064267
 30
0.0
 10
39.118524
 20
589.064267
 30
0.0
 10
39.118524
 20
580.560330
 30
0.0
 10
55.559469
 20
580.560330
 30
0.0
 10
55.559469
 20
589.064267
 30
0.0
  0
SPLINE
  5
11b
100
AcDbEntity
  8
Layer_1
 62
7
100
AcDbSpline
 70
8
 71
3
 72
8
 73
4
 74
0
 40
0
 40
0
 40
0
 40
0
 40
1
 40
1
 40
1
 40
1
 10
475.418033
 20
560.391431
 30
0.0
 10
475.418033
 20
559.277438
 30
0.0
 10
474.823724
 20
558.248066
 30
0.0
 10
473.858978
 20
557.691069
 30
0.0
  0
SPLINE
  5
11c
100
AcDbEntity
  8
Layer_1
 62
7
100
AcDbSpline
 70
8
 71
3
 72
8
 73
4
 74
0
 40
0
 40
0
 40
0
 40
0
 40
1
 40
1
 40
1
 40
1
 10
473.858978
 20
557.691069
 30
0.0
 10
472.894231
 20
557.134072
 30
0.0
 10
471.705614
 20
557.134072
 30
0.0
 10
470.740867
 20
557.691069
 30
0.0
  0
SPLINE
  5
11d
100
AcDbEntity
  8
Layer_1
 62
7
100
AcDbSpline
 70
8
 71
3
 72
8
 73
4
 74
0
 40
0
 40
0
 40
0
 40
0
 40
1
 40
1
 40
1
 40
1
 10
470.740867
 20
557.691069
 30
0.0
 10
469.776121
 20
558.248066
 30
0.0
 10
469.181812
 20
559.277438
 30
0.0
 10
469.181812
 20
560.391431
 30
0.0
  0
SPLINE
  5
11e
100
AcDbEntity
  8
Layer_1
 62
7
100
AcDbSpline
 70
8
 71
3
 72
8
 73
4
 74
0
 40
0
 40
0
 40
0
 40
0
 40
1
 40
1
 40
1
 40
1
 10
469.181812
 20
560.391431
 30
0.0
 10
469.181812
 20
561.505425
 30
0.0
 10
469.776121
 20
562.534797
 30
0.0
 10
470.740867
 20
563.091794
 30
0.0
  0
SPLINE
  5
11f
100
AcDbEntity
  8
Layer_1
 62
7
100
AcDbSpline
 70
8
 71
3
 72
8
 73
4
 74
0
 40
0
 40
0
 40
0
 40
0
 40
1
 40
1
 40
1
 40
1
 10
470.740867
 20
563.091794
 30
0.0
 10
471.705614
 20
563.648791
 30
0.0
 10
472.894231
 20
563.648791
 30
0.0
 10
473.858978
 20
563.091794
 30
0.0
  0
SPLINE
  5
120
100
AcDbEntity
  8
Layer_1
 62
7
100
AcDbSpline
 70
8
 71
3
 72
8
 73
4
 74
0
 40
0
 40
0
 40
0
 40
0
 40
1
 40
1
 40
1
 40
1
 10
473.858978
 20
563.091794
 30
0.0
 10
474.823724
 20
562.534797
 30
0.0
 10
475.418033
 20
561.505425
 30
0.0
 10
475.418033
 20
560.391431
 30
0.0
  0
LWPOLYLINE
  5
121
100
AcDbEntity
  8
Layer_1
 62
7
100
AcDbPolyline
 90
4
 70
1
 10
307.728412
 20
558.190361
 30
0.0
 10
461.371882
 20
558.190361
 30
0.0
 10
461.371882
 20
475.882166
 30
0.0
 10
307.728412
 20
475.882166
 30
0.0
  0
SPLINE
  5
122
100
AcDbEntity
  8
Layer_1
 62
7
100
AcDbSpline
 70
8
 71
3
 72
8
 73
4
 74
0
 40
0
 40
0
 40
0
 40
0
 40
1
 40
1
 40
1
 40
1
 10
475.418033
 20
474.627026
 30
0.0
 10
475.418033
 20
473.513033
 30
0.0
 10
474.823724
 20
472.483661
 30
0.0
 10
473.858978
 20
471.926664
 30
0.0
  0
SPLINE
  5
123
100
AcDbEntity
  8
Layer_1
 62
7
100
AcDbSpline
 70
8
 71
3
 72
8
 73
4
 74
0
 40
0
 40
0
 40
0
 40
0
 40
1
 40
1
 40
1
 40
1
 10
473.858978
 20
471.926664
 30
0.0
 10
472.894231
 20
471.369667
 30
0.0
 10
471.705614
 20
471.369667
 30
0.0
 10
470.740867
 20
471.926664
 30
0.0
  0
SPLINE
  5
124
100
AcDbEntity
  8
Layer_1
 62
7
100
AcDbSpline
 70
8
 71
3
 72
8
 73
4
 74
0
 40
0
 40
0
 40
0
 40
0
 40
1
 40
1
 40
1
 40
1
 10
470.740867
 20
471.926664
 30
0.0
 10
469.776121
 20
472.483661
 30
0.0
 10
469.181812
 20
473.513033
 30
0.0
 10
469.181812
 20
474.627026
 30
0.0
  0
SPLINE
  5
125
100
AcDbEntity
  8
Layer_1
 62
7
100
AcDbSpline
 70
8
 71
3
 72
8
 73
4
 74
0
 40
0
 40
0
 40
0
 40
0
 40
1
 40
1
 40
1
 40
1
 10
469.181812
 20
474.627026
 30
0.0
 10
469.181812
 20
475.741020
 30
0.0
 10
469.776121
 20
476.770392
 30
0.0
 10
470.740867
 20
477.327389
 30
0.0
  0
SPLINE
  5
126
100
AcDbEntity
  8
Layer_1
 62
7
100
AcDbSpline
 70
8
 71
3
 72
8
 73
4
 74
0
 40
0
 40
0
 40
0
 40
0
 40
1
 40
1
 40
1
 40
1
 10
470.740867
 20
477.327389
 30
0.0
 10
471.705614
 20
477.884386
 30
0.0
 10
472.894231
 20
477.884386
 30
0.0
 10
473.858978
 20
477.327389
 30
0.0
  0
SPLINE
  5
127
100
AcDbEntity
  8
Layer_1
 62
7
100
AcDbSpline
 70
8
 71
3
 72
8
 73
4
 74
0
 40
0
 40
0
 40
0
 40
0
 40
1
 40
1
 40
1
 40
1
 10
473.858978
 20
477.327389
 30
0.0
 10
474.823724
 20
476.770392
 30
0.0
 10
475.418033
 20
475.741020
 30
0.0
 10
475.418033
 20
474.627026
 30
0.0
  0
LWPOLYLINE
  5
128
100
AcDbEntity
  8
Layer_1
 62
7
100
AcDbPolyline
 90
1
 70
1
 10
475.418033
 20
560.391431
 30
0.0
  0
SPLINE
  5
129
100
AcDbEntity
  8
Layer_1
 62
7
100
AcDbSpline
 70
8
 71
3
 72
8
 73
4
 74
0
 40
0
 40
0
 40
0
 40
0
 40
1
 40
1
 40
1
 40
1
 10
300.893753
 20
560.391431
 30
0.0
 10
300.893753
 20
559.277438
 30
0.0
 10
300.299444
 20
558.248066
 30
0.0
 10
299.334698
 20
557.691069
 30
0.0
  0
SPLINE
  5
12a
100
AcDbEntity
  8
Layer_1
 62
7
100
AcDbSpline
 70
8
 71
3
 72
8
 73
4
 74
0
 40
0
 40
0
 40
0
 40
0
 40
1
 40
1
 40
1
 40
1
 10
299.334698
 20
557.691069
 30
0.0
 10
298.369951
 20
557.134072
 30
0.0
 10
297.181334
 20
557.134072
 30
0.0
 10
296.216587
 20
557.691069
 30
0.0
  0
SPLINE
  5
12b
100
AcDbEntity
  8
Layer_1
 62
7
100
AcDbSpline
 70
8
 71
3
 72
8
 73
4
 74
0
 40
0
 40
0
 40
0
 40
0
 40
1
 40
1
 40
1
 40
1
 10
296.216587
 20
557.691069
 30
0.0
 10
295.251841
 20
558.248066
 30
0.0
 10
294.657532
 20
559.277438
 30
0.0
 10
294.657532
 20
560.391431
 30
0.0
  0
SPLINE
  5
12c
100
AcDbEntity
  8
Layer_1
 62
7
100
AcDbSpline
 70
8
 71
3
 72
8
 73
4
 74
0
 40
0
 40
0
 40
0
 40
0
 40
1
 40
1
 40
1
 40
1
 10
294.657532
 20
560.391431
 30
0.0
 10
294.657532
 20
561.505425
 30
0.0
 10
295.251841
 20
562.534797
 30
0.0
 10
296.216587
 20
563.091794
 30
0.0
  0
SPLINE
  5
12d
100
AcDbEntity
  8
Layer_1
 62
7
100
AcDbSpline
 70
8
 71
3
 72
8
 73
4
 74
0
 40
0
 40
0
 40
0
 40
0
 40
1
 40
1
 40
1
 40
1
 10
296.216587
 20
563.091794
 30
0.0
 10
297.181334
 20
563.648791
 30
0.0
 10
298.369951
 20
563.648791
 30
0.0
 10
299.334698
 20
563.091794
 30
0.0
  0
SPLINE
  5
12e
100
AcDbEntity
  8
Layer_1
 62
7
100
AcDbSpline
 70
8
 71
3
 72
8
 73
4
 74
0
 40
0
 40
0
 40
0
 40
0
 40
1
 40
1
 40
1
 40
1
 10
299.334698
 20
563.091794
 30
0.0
 10
300.299444
 20
562.534797
 30
0.0
 10
300.893753
 20
561.505425
 30
0.0
 10
300.893753
 20
560.391431
 30
0.0
  0
LWPOLYLINE
  5
12f
100
AcDbEntity
  8
Layer_1
 62
7
100
AcDbPolyline
 90
1
 70
1
 10
475.418033
 20
474.627026
 30
0.0
  0
SPLINE
  5
130
100
AcDbEntity
  8
Layer_1
 62
7
100
AcDbSpline
 70
8
 71
3
 72
8
 73
4
 74
0
 40
0
 40
0
 40
0
 40
0
 40
1
 40
1
 40
1
 40
1
 10
300.893753
 20
474.627026
 30
0.0
 10
300.893753
 20
473.513033
 30
0.0
 10
300.299444
 20
472.483661
 30
0.0
 10
299.334698
 20
471.926664
 30
0.0
  0
SPLINE
  5
131
100
AcDbEntity
  8
Layer_1
 62
7
100
AcDbSpline
 70
8
 71
3
 72
8
 73
4
 74
0
 40
0
 40
0
 40
0
 40
0
 40
1
 40
1
 40
1
 40
1
 10
299.334698
 20
471.926664
 30
0.0
 10
298.369951
 20
471.369667
 30
0.0
 10
297.181334
 20
471.369667
 30
0.0
 10
296.216587
 20
471.926664
 30
0.0
  0
SPLINE
  5
132
100
AcDbEntity
  8
Layer_1
 62
7
100
AcDbSpline
 70
8
 71
3
 72
8
 73
4
 74
0
 40
0
 40
0
 40
0
 40
0
 40
1
 40
1
 40
1
 40
1
 10
296.216587
 20
471.926664
 30
0.0
 10
295.251841
 20
472.483661
 30
0.0
 10
294.657532
 20
473.513033
 30
0.0
 10
294.657532
 20
474.627026
 30
0.0
  0
SPLINE
  5
133
100
AcDbEntity
  8
Layer_1
 62
7
100
AcDbSpline
 70
8
 71
3
 72
8
 73
4
 74
0
 40
0
 40
0
 40
0
 40
0
 40
1
 40
1
 40
1
 40
1
 10
294.657532
 20
474.627026
 30
0.0
 10
294.657532
 20
475.741020
 30
0.0
 10
295.251841
 20
476.770392
 30
0.0
 10
296.216587
 20
477.327389
 30
0.0
  0
SPLINE
  5
134
100
AcDbEntity
  8
Layer_1
 62
7
100
AcDbSpline
 70
8
 71
3
 72
8
 73
4
 74
0
 40
0
 40
0
 40
0
 40
0
 40
1
 40
1
 40
1
 40
1
 10
296.216587
 20
477.327389
 30
0.0
 10
297.181334
 20
477.884386
 30
0.0
 10
298.369951
 20
477.884386
 30
0.0
 10
299.334698
 20
477.327389
 30
0.0
  0
SPLINE
  5
135
100
AcDbEntity
  8
Layer_1
 62
7
100
AcDbSpline
 70
8
 71
3
 72
8
 73
4
 74
0
 40
0
 40
0
 40
0
 40
0
 40
1
 40
1
 40
1
 40
1
 10
299.334698
 20
477.327389
 30
0.0
 10
300.299444
 20
476.770392
 30
0.0
 10
300.893753
 20
475.741020
 30
0.0
 10
300.893753
 20
474.627026
 30
0.0
  0
LWPOLYLINE
  5
136
100
AcDbEntity
  8
Layer_1
 62
7
100
AcDbPolyline
 90
1
 70
1
 10
300.893753
 20
560.391431
 30
0.0
  0
LWPOLYLINE
  5
137
100
AcDbEntity
  8
Layer_1
 62
7
100
AcDbPolyline
 90
1
 70
1
 10
300.893753
 20
474.627026
 30
0.0
  0
SPLINE
  5
138
100
AcDbEntity
  8
Layer_1
 62
7
100
AcDbSpline
 70
8
 71
3
 72
8
 73
4
 74
0
 40
0
 40
0
 40
0
 40
0
 40
1
 40
1
 40
1
 40
1
 10
476.048648
 20
460.753357
 30
0.0
 10
476.048648
 20
459.639363
 30
0.0
 10
475.454339
 20
458.609991
 30
0.0
 10
474.489593
 20
458.052994
 30
0.0
  0
SPLINE
  5
139
100
AcDbEntity
  8
Layer_1
 62
7
100
AcDbSpline
 70
8
 71
3
 72
8
 73
4
 74
0
 40
0
 40
0
 40
0
 40
0
 40
1
 40
1
 40
1
 40
1
 10
474.489593
 20
458.052994
 30
0.0
 10
473.524846
 20
457.495998
 30
0.0
 10
472.336229
 20
457.495998
 30
0.0
 10
471.371482
 20
458.052994
 30
0.0
  0
SPLINE
  5
13a
100
AcDbEntity
  8
Layer_1
 62
7
100
AcDbSpline
 70
8
 71
3
 72
8
 73
4
 74
0
 40
0
 40
0
 40
0
 40
0
 40
1
 40
1
 40
1
 40
1
 10
471.371482
 20
458.052994
 30
0.0
 10
470.406736
 20
458.609991
 30
0.0
 10
469.812427
 20
459.639363
 30
0.0
 10
469.812427
 20
460.753357
 30
0.0
  0
SPLINE
  5
13b
100
AcDbEntity
  8
Layer_1
 62
7
100
AcDbSpline
 70
8
 71
3
 72
8
 73
4
 74
0
 40
0
 40
0
 40
0
 40
0
 40
1
 40
1
 40
1
 40
1
 10
469.812427
 20
460.753357
 30
0.0
 10
469.812427
 20
461.867350
 30
0.0
 10
470.406736
 20
462.896723
 30
0.0
 10
471.371482
 20
463.453719
 30
0.0
  0
SPLINE
  5
13c
100
AcDbEntity
  8
Layer_1
 62
7
100
AcDbSpline
 70
8
 71
3
 72
8
 73
4
 74
0
 40
0
 40
0
 40
0
 40
0
 40
1
 40
1
 40
1
 40
1
 10
471.371482
 20
463.453719
 30
0.0
 10
472.336229
 20
464.010716
 30
0.0
 10
473.524846
 20
464.010716
 30
0.0
 10
474.489593
 20
463.453719
 30
0.0
  0
SPLINE
  5
13d
100
AcDbEntity
  8
Layer_1
 62
7
100
AcDbSpline
 70
8
 71
3
 72
8
 73
4
 74
0
 40
0
 40
0
 40
0
 40
0
 40
1
 40
1
 40
1
 40
1
 10
474.489593
 20
463.453719
 30
0.0
 10
475.454339
 20
462.896723
 30
0.0
 10
476.048648
 20
461.867350
 30
0.0
 10
476.048648
 20
460.753357
 30
0.0
  0
LWPOLYLINE
  5
13e
100
AcDbEntity
  8
Layer_1
 62
7
100
AcDbPolyline
 90
5
 70
1
 10
479.018438
 20
466.109764
 30
0.0
 10
479.018438
 20
369.632539
 30
0.0
 10
291.343088
 20
369.632539
 30
0.0
 10
291.343088
 20
466.109764
 30
0.0
 10
291.343088
 20
466.109764
 30
0.0
  0
SPLINE
  5
13f
100
AcDbEntity
  8
Layer_1
 62
7
100
AcDbSpline
 70
8
 71
3
 72
8
 73
4
 74
0
 40
0
 40
0
 40
0
 40
0
 40
1
 40
1
 40
1
 40
1
 10
476.048648
 20
374.988952
 30
0.0
 10
476.048648
 20
373.874958
 30
0.0
 10
475.454339
 20
372.845586
 30
0.0
 10
474.489593
 20
372.288589
 30
0.0
  0
SPLINE
  5
140
100
AcDbEntity
  8
Layer_1
 62
7
100
AcDbSpline
 70
8
 71
3
 72
8
 73
4
 74
0
 40
0
 40
0
 40
0
 40
0
 40
1
 40
1
 40
1
 40
1
 10
474.489593
 20
372.288589
 30
0.0
 10
473.524846
 20
371.731593
 30
0.0
 10
472.336229
 20
371.731593
 30
0.0
 10
471.371482
 20
372.288589
 30
0.0
  0
SPLINE
  5
141
100
AcDbEntity
  8
Layer_1
 62
7
100
AcDbSpline
 70
8
 71
3
 72
8
 73
4
 74
0
 40
0
 40
0
 40
0
 40
0
 40
1
 40
1
 40
1
 40
1
 10
471.371482
 20
372.288589
 30
0.0
 10
470.406736
 20
372.845586
 30
0.0
 10
469.812427
 20
373.874958
 30
0.0
 10
469.812427
 20
374.988952
 30
0.0
  0
SPLINE
  5
142
100
AcDbEntity
  8
Layer_1
 62
7
100
AcDbSpline
 70
8
 71
3
 72
8
 73
4
 74
0
 40
0
 40
0
 40
0
 40
0
 40
1
 40
1
 40
1
 40
1
 10
469.812427
 20
374.988952
 30
0.0
 10
469.812427
 20
376.102945
 30
0.0
 10
470.406736
 20
377.132318
 30
0.0
 10
471.371482
 20
377.689314
 30
0.0
  0
SPLINE
  5
143
100
AcDbEntity
  8
Layer_1
 62
7
100
AcDbSpline
 70
8
 71
3
 72
8
 73
4
 74
0
 40
0
 40
0
 40
0
 40
0
 40
1
 40
1
 40
1
 40
1
 10
471.371482
 20
377.689314
 30
0.0
 10
472.336229
 20
378.246311
 30
0.0
 10
473.524846
 20
378.246311
 30
0.0
 10
474.489593
 20
377.689314
 30
0.0
  0
SPLINE
  5
144
100
AcDbEntity
  8
Layer_1
 62
7
100
AcDbSpline
 70
8
 71
3
 72
8
 73
4
 74
0
 40
0
 40
0
 40
0
 40
0
 40
1
 40
1
 40
1
 40
1
 10
474.489593
 20
377.689314
 30
0.0
 10
475.454339
 20
377.132318
 30
0.0
 10
476.048648
 20
376.102945
 30
0.0
 10
476.048648
 20
374.988952
 30
0.0
  0
LWPOLYLINE
  5
145
100
AcDbEntity
  8
Layer_1
 62
7
100
AcDbPolyline
 90
1
 70
1
 10
476.048648
 20
460.753357
 30
0.0
  0
SPLINE
  5
146
100
AcDbEntity
  8
Layer_1
 62
7
100
AcDbSpline
 70
8
 71
3
 72
8
 73
4
 74
0
 40
0
 40
0
 40
0
 40
0
 40
1
 40
1
 40
1
 40
1
 10
301.524368
 20
460.753357
 30
0.0
 10
301.524368
 20
459.639363
 30
0.0
 10
300.930059
 20
458.609991
 30
0.0
 10
299.965313
 20
458.052994
 30
0.0
  0
SPLINE
  5
147
100
AcDbEntity
  8
Layer_1
 62
7
100
AcDbSpline
 70
8
 71
3
 72
8
 73
4
 74
0
 40
0
 40
0
 40
0
 40
0
 40
1
 40
1
 40
1
 40
1
 10
299.965313
 20
458.052994
 30
0.0
 10
299.000566
 20
457.495998
 30
0.0
 10
297.811949
 20
457.495998
 30
0.0
 10
296.847202
 20
458.052994
 30
0.0
  0
SPLINE
  5
148
100
AcDbEntity
  8
Layer_1
 62
7
100
AcDbSpline
 70
8
 71
3
 72
8
 73
4
 74
0
 40
0
 40
0
 40
0
 40
0
 40
1
 40
1
 40
1
 40
1
 10
296.847202
 20
458.052994
 30
0.0
 10
295.882456
 20
458.609991
 30
0.0
 10
295.288147
 20
459.639363
 30
0.0
 10
295.288147
 20
460.753357
 30
0.0
  0
SPLINE
  5
149
100
AcDbEntity
  8
Layer_1
 62
7
100
AcDbSpline
 70
8
 71
3
 72
8
 73
4
 74
0
 40
0
 40
0
 40
0
 40
0
 40
1
 40
1
 40
1
 40
1
 10
295.288147
 20
460.753357
 30
0.0
 10
295.288147
 20
461.867350
 30
0.0
 10
295.882456
 20
462.896723
 30
0.0
 10
296.847202
 20
463.453719
 30
0.0
  0
SPLINE
  5
14a
100
AcDbEntity
  8
Layer_1
 62
7
100
AcDbSpline
 70
8
 71
3
 72
8
 73
4
 74
0
 40
0
 40
0
 40
0
 40
0
 40
1
 40
1
 40
1
 40
1
 10
296.847202
 20
463.453719
 30
0.0
 10
297.811949
 20
464.010716
 30
0.0
 10
299.000566
 20
464.010716
 30
0.0
 10
299.965313
 20
463.453719
 30
0.0
  0
SPLINE
  5
14b
100
AcDbEntity
  8
Layer_1
 62
7
100
AcDbSpline
 70
8
 71
3
 72
8
 73
4
 74
0
 40
0
 40
0
 40
0
 40
0
 40
1
 40
1
 40
1
 40
1
 10
299.965313
 20
463.453719
 30
0.0
 10
300.930059
 20
462.896723
 30
0.0
 10
301.524368
 20
461.867350
 30
0.0
 10
301.524368
 20
460.753357
 30
0.0
  0
LWPOLYLINE
  5
14c
100
AcDbEntity
  8
Layer_1
 62
7
100
AcDbPolyline
 90
1
 70
1
 10
476.048648
 20
374.988952
 30
0.0
  0
SPLINE
  5
14d
100
AcDbEntity
  8
Layer_1
 62
7
100
AcDbSpline
 70
8
 71
3
 72
8
 73
4
 74
0
 40
0
 40
0
 40
0
 40
0
 40
1
 40
1
 40
1
 40
1
 10
301.524368
 20
374.988952
 30
0.0
 10
301.524368
 20
373.874958
 30
0.0
 10
300.930059
 20
372.845586
 30
0.0
 10
299.965313
 20
372.288589
 30
0.0
  0
SPLINE
  5
14e
100
AcDbEntity
  8
Layer_1
 62
7
100
AcDbSpline
 70
8
 71
3
 72
8
 73
4
 74
0
 40
0
 40
0
 40
0
 40
0
 40
1
 40
1
 40
1
 40
1
 10
299.965313
 20
372.288589
 30
0.0
 10
299.000566
 20
371.731593
 30
0.0
 10
297.811949
 20
371.731593
 30
0.0
 10
296.847202
 20
372.288589
 30
0.0
  0
SPLINE
  5
14f
100
AcDbEntity
  8
Layer_1
 62
7
100
AcDbSpline
 70
8
 71
3
 72
8
 73
4
 74
0
 40
0
 40
0
 40
0
 40
0
 40
1
 40
1
 40
1
 40
1
 10
296.847202
 20
372.288589
 30
0.0
 10
295.882456
 20
372.845586
 30
0.0
 10
295.288147
 20
373.874958
 30
0.0
 10
295.288147
 20
374.988952
 30
0.0
  0
SPLINE
  5
150
100
AcDbEntity
  8
Layer_1
 62
7
100
AcDbSpline
 70
8
 71
3
 72
8
 73
4
 74
0
 40
0
 40
0
 40
0
 40
0
 40
1
 40
1
 40
1
 40
1
 10
295.288147
 20
374.988952
 30
0.0
 10
295.288147
 20
376.102945
 30
0.0
 10
295.882456
 20
377.132318
 30
0.0
 10
296.847202
 20
377.689314
 30
0.0
  0
SPLINE
  5
151
100
AcDbEntity
  8
Layer_1
 62
7
100
AcDbSpline
 70
8
 71
3
 72
8
 73
4
 74
0
 40
0
 40
0
 40
0
 40
0
 40
1
 40
1
 40
1
 40
1
 10
296.847202
 20
377.689314
 30
0.0
 10
297.811949
 20
378.246311
 30
0.0
 10
299.000566
 20
378.246311
 30
0.0
 10
299.965313
 20
377.689314
 30
0.0
  0
SPLINE
  5
152
100
AcDbEntity
  8
Layer_1
 62
7
100
AcDbSpline
 70
8
 71
3
 72
8
 73
4
 74
0
 40
0
 40
0
 40
0
 40
0
 40
1
 40
1
 40
1
 40
1
 10
299.965313
 20
377.689314
 30
0.0
 10
300.930059
 20
377.132318
 30
0.0
 10
301.524368
 20
376.102945
 30
0.0
 10
301.524368
 20
374.988952
 30
0.0
  0
LWPOLYLINE
  5
153
100
AcDbEntity
  8
Layer_1
 62
7
100
AcDbPolyline
 90
1
 70
1
 10
301.524368
 20
460.753357
 30
0.0
  0
LWPOLYLINE
  5
154
100
AcDbEntity
  8
Layer_1
 62
7
100
AcDbPolyline
 90
1
 70
1
 10
301.524368
 20
374.988952
 30
0.0
  0
ENDSEC
  0
SECTION
  2
OBJECTS
  0
DICTIONARY
  5
C
330
0
100
AcDbDictionary
  3
ACAD_GROUP
350
D
  3
ACAD_MLINESTYLE
350
17
  0
DICTIONARY
  5
D
330
C
100
AcDbDictionary
  0
DICTIONARY
  5
1A
330
C
100
AcDbDictionary
  0
DICTIONARY
  5
17
330
C
100
AcDbDictionary
  3
STANDARD
350
18
  0
DICTIONARY
  5
19
330
C
100
AcDbDictionary
  0
ENDSEC
  0
EOF
