  0
SECTION
  2
HEADER
  9
$ACADVER
  1
AC1014
  9
$HANDSEED
  5
FFFF
  9
$MEASUREMENT
 70
     1
  0
ENDSEC
  0
SECTION
  2
TABLES
  0
TABLE
  2
VPORT
  5
8
330
0
100
AcDbSymbolTable
 70
     4
  0
VPORT
  5
2E
330
8
100
AcDbSymbolTableRecord
100
AcDbViewportTableRecord
  2
*ACTIVE
 70
     0
 10
0.0
 20
0.0
 11
1.0
 21
1.0
 12
210.0
 22
148.5
 13
0.0
 23
0.0
 14
10.0
 24
10.0
 15
10.0
 25
10.0
 16
0.0
 26
0.0
 36
1.0
 17
0.0
 27
0.0
 37
0.0
 40
341.0
 41
1.24
 42
50.0
 43
0.0
 44
0.0
 50
0.0
 51
0.0
 71
     0
 72
   100
 73
     1
 74
     3
 75
     0
 76
     0
 77
     0
 78
     0
  0
ENDTAB
  0
TABLE
  2
LTYPE
  5
5
330
0
100
AcDbSymbolTable
 70
     1
  0
LTYPE
  5
14
330
5
100
AcDbSymbolTableRecord
100
AcDbLinetypeTableRecord
  2
BYBLOCK
 70
     0
  3

 72
    65
 73
     0
 40
0.0
  0
LTYPE
  5
15
330
5
100
AcDbSymbolTableRecord
100
AcDbLinetypeTableRecord
  2
BYLAYER
 70
     0
  3

 72
    65
 73
     0
 40
0.0
  0
LTYPE
  5
16
330
5
100
AcDbSymbolTableRecord
100
AcDbLinetypeTableRecord
  2
CONTINUOUS
 70
     0
  3
Solid line
 72
    65
 73
     0
 40
0.0
  0
ENDTAB
  0
TABLE
  2
LAYER
  5
2
100
AcDbSymbolTable
 70
3
  0
LAYER
  5
50
100
AcDbSymbolTableRecord
100
AcDbLayerTableRecord
  2
0
 70
0
  6
CONTINUOUS
  0
LAYER
  5
51
100
AcDbSymbolTableRecord
100
AcDbLayerTableRecord
  2
Layer_1
 70
0
  6
CONTINUOUS
  0
LAYER
  5
52
100
AcDbSymbolTableRecord
100
AcDbLayerTableRecord
  2
newlayer
 70
0
  6
CONTINUOUS
  0
ENDTAB
  0
TABLE
  2
STYLE
  5
3
330
0
100
AcDbSymbolTable
 70
     1
  0
STYLE
  5
11
330
3
100
AcDbSymbolTableRecord
100
AcDbTextStyleTableRecord
  2
STANDARD
 70
     0
 40
0.0
 41
1.0
 50
0.0
 71
     0
 42
2.5
  3
txt
  4

  0
ENDTAB
  0
TABLE
  2
VIEW
  5
6
330
0
100
AcDbSymbolTable
 70
     0
  0
ENDTAB
  0
TABLE
  2
UCS
  5
7
330
0
100
AcDbSymbolTable
 70
     0
  0
ENDTAB
  0
TABLE
  2
APPID
  5
9
330
0
100
AcDbSymbolTable
 70
     2
  0
APPID
  5
12
330
9
100
AcDbSymbolTableRecord
100
AcDbRegAppTableRecord
  2
ACAD
 70
     0
  0
ENDTAB
  0
TABLE
  2
DIMSTYLE
  5
A
330
0
100
AcDbSymbolTable
 70
     1
  0
DIMSTYLE
105
27
330
A
100
AcDbSymbolTableRecord
100
AcDbDimStyleTableRecord
  2
ISO-25
 70
     0
  3

  4

  5

  6

  7

 40
1.0
 41
2.5
 42
0.625
 43
3.75
 44
1.25
 45
0.0
 46
0.0
 47
0.0
 48
0.0
140
2.5
141
2.5
142
0.0
143
0.03937007874016
144
1.0
145
0.0
146
1.0
147
0.625
 71
     0
 72
     0
 73
     0
 74
     0
 75
     0
 76
     0
 77
     1
 78
     8
170
     0
171
     3
172
     1
173
     0
174
     0
175
     0
176
     0
177
     0
178
     0
270
     2
271
     2
272
     2
273
     2
274
     3
340
11
275
     0
280
     0
281
     0
282
     0
283
     0
284
     8
285
     0
286
     0
287
     3
288
     0
  0
ENDTAB
  0
TABLE
  2
BLOCK_RECORD
  5
1
330
0
100
AcDbSymbolTable
 70
     1
  0
BLOCK_RECORD
  5
1F
330
1
100
AcDbSymbolTableRecord
100
AcDbBlockTableRecord
  2
*MODEL_SPACE
  0
BLOCK_RECORD
  5
1B
330
1
100
AcDbSymbolTableRecord
100
AcDbBlockTableRecord
  2
*PAPER_SPACE
  0
ENDTAB
  0
ENDSEC
  0
SECTION
  2
BLOCKS
  0
BLOCK
  5
20
330
1F
100
AcDbEntity
  8
0
100
AcDbBlockBegin
  2
*MODEL_SPACE
 70
     0
 10
0.0
 20
0.0
 30
0.0
  3
*MODEL_SPACE
  1

  0
ENDBLK
  5
21
330
1F
100
AcDbEntity
  8
0
100
AcDbBlockEnd
  0
BLOCK
  5
1C
330
1B
100
AcDbEntity
 67
     1
  8
0
100
AcDbBlockBegin
  2
*PAPER_SPACE
  1

  0
ENDBLK
  5
1D
330
1B
100
AcDbEntity
 67
     1
  8
0
100
AcDbBlockEnd
  0
ENDSEC
  0
SECTION
  2
ENTITIES
  0
SPLINE
  5
100
100
AcDbEntity
  8
Layer_1
 62
7
100
AcDbSpline
 70
8
 71
3
 72
8
 73
4
 74
0
 40
0
 40
0
 40
0
 40
0
 40
1
 40
1
 40
1
 40
1
 10
105.140765
 20
70.111786
 30
0.0
 10
104.747772
 20
70.111786
 30
0.0
 10
104.384633
 20
70.321444
 30
0.0
 10
104.188137
 20
70.661786
 30
0.0
  0
SPLINE
  5
101
100
AcDbEntity
  8
Layer_1
 62
7
100
AcDbSpline
 70
8
 71
3
 72
8
 73
4
 74
0
 40
0
 40
0
 40
0
 40
0
 40
1
 40
1
 40
1
 40
1
 10
104.188137
 20
70.661786
 30
0.0
 10
103.991641
 20
71.002127
 30
0.0
 10
103.991641
 20
71.421444
 30
0.0
 10
104.188137
 20
71.761786
 30
0.0
  0
SPLINE
  5
102
100
AcDbEntity
  8
Layer_1
 62
7
100
AcDbSpline
 70
8
 71
3
 72
8
 73
4
 74
0
 40
0
 40
0
 40
0
 40
0
 40
1
 40
1
 40
1
 40
1
 10
104.188137
 20
71.761786
 30
0.0
 10
104.384633
 20
72.102127
 30
0.0
 10
104.747772
 20
72.311786
 30
0.0
 10
105.140765
 20
72.311786
 30
0.0
  0
SPLINE
  5
103
100
AcDbEntity
  8
Layer_1
 62
7
100
AcDbSpline
 70
8
 71
3
 72
8
 73
4
 74
0
 40
0
 40
0
 40
0
 40
0
 40
1
 40
1
 40
1
 40
1
 10
105.140765
 20
72.311786
 30
0.0
 10
105.748278
 20
72.311786
 30
0.0
 10
106.240765
 20
71.819299
 30
0.0
 10
106.240765
 20
71.211786
 30
0.0
  0
SPLINE
  5
104
100
AcDbEntity
  8
Layer_1
 62
7
100
AcDbSpline
 70
8
 71
3
 72
8
 73
4
 74
0
 40
0
 40
0
 40
0
 40
0
 40
1
 40
1
 40
1
 40
1
 10
106.240765
 20
71.211786
 30
0.0
 10
106.240765
 20
70.604272
 30
0.0
 10
105.748278
 20
70.111786
 30
0.0
 10
105.140765
 20
70.111786
 30
0.0
  0
LINE
  5
105
100
AcDbEntity
  8
Layer_1
 62
7
100
AcDbLine
 10
105.140765
 20
70.111786
 30
0.0
 11
105.140765
 21
70.111786
 31
0.0
  0
SPLINE
  5
106
100
AcDbEntity
  8
Layer_1
 62
7
100
AcDbSpline
 70
8
 71
3
 72
8
 73
4
 74
0
 40
0
 40
0
 40
0
 40
0
 40
1
 40
1
 40
1
 40
1
 10
105.140765
 20
33.611522
 30
0.0
 10
104.747772
 20
33.611522
 30
0.0
 10
104.384633
 20
33.821181
 30
0.0
 10
104.188137
 20
34.161522
 30
0.0
  0
SPLINE
  5
107
100
AcDbEntity
  8
Layer_1
 62
7
100
AcDbSpline
 70
8
 71
3
 72
8
 73
4
 74
0
 40
0
 40
0
 40
0
 40
0
 40
1
 40
1
 40
1
 40
1
 10
104.188137
 20
34.161522
 30
0.0
 10
103.991641
 20
34.501863
 30
0.0
 10
103.991641
 20
34.921181
 30
0.0
 10
104.188137
 20
35.261522
 30
0.0
  0
SPLINE
  5
108
100
AcDbEntity
  8
Layer_1
 62
7
100
AcDbSpline
 70
8
 71
3
 72
8
 73
4
 74
0
 40
0
 40
0
 40
0
 40
0
 40
1
 40
1
 40
1
 40
1
 10
104.188137
 20
35.261522
 30
0.0
 10
104.384633
 20
35.601863
 30
0.0
 10
104.747772
 20
35.811522
 30
0.0
 10
105.140765
 20
35.811522
 30
0.0
  0
SPLINE
  5
109
100
AcDbEntity
  8
Layer_1
 62
7
100
AcDbSpline
 70
8
 71
3
 72
8
 73
4
 74
0
 40
0
 40
0
 40
0
 40
0
 40
1
 40
1
 40
1
 40
1
 10
105.140765
 20
35.811522
 30
0.0
 10
105.533757
 20
35.811522
 30
0.0
 10
105.896897
 20
35.601863
 30
0.0
 10
106.093393
 20
35.261522
 30
0.0
  0
SPLINE
  5
10a
100
AcDbEntity
  8
Layer_1
 62
7
100
AcDbSpline
 70
8
 71
3
 72
8
 73
4
 74
0
 40
0
 40
0
 40
0
 40
0
 40
1
 40
1
 40
1
 40
1
 10
106.093393
 20
35.261522
 30
0.0
 10
106.289889
 20
34.921181
 30
0.0
 10
106.289889
 20
34.501863
 30
0.0
 10
106.093393
 20
34.161522
 30
0.0
  0
SPLINE
  5
10b
100
AcDbEntity
  8
Layer_1
 62
7
100
AcDbSpline
 70
8
 71
3
 72
8
 73
4
 74
0
 40
0
 40
0
 40
0
 40
0
 40
1
 40
1
 40
1
 40
1
 10
106.093393
 20
34.161522
 30
0.0
 10
105.896897
 20
33.821181
 30
0.0
 10
105.533757
 20
33.611522
 30
0.0
 10
105.140765
 20
33.611522
 30
0.0
  0
LINE
  5
10c
100
AcDbEntity
  8
Layer_1
 62
7
100
AcDbLine
 10
105.140765
 20
33.611522
 30
0.0
 11
105.140765
 21
33.611522
 31
0.0
  0
SPLINE
  5
10d
100
AcDbEntity
  8
Layer_1
 62
7
100
AcDbSpline
 70
8
 71
3
 72
8
 73
4
 74
0
 40
0
 40
0
 40
0
 40
0
 40
1
 40
1
 40
1
 40
1
 10
26.641147
 20
70.111786
 30
0.0
 10
26.248154
 20
70.111786
 30
0.0
 10
25.885015
 20
70.321445
 30
0.0
 10
25.688519
 20
70.661786
 30
0.0
  0
SPLINE
  5
10e
100
AcDbEntity
  8
Layer_1
 62
7
100
AcDbSpline
 70
8
 71
3
 72
8
 73
4
 74
0
 40
0
 40
0
 40
0
 40
0
 40
1
 40
1
 40
1
 40
1
 10
25.688519
 20
70.661786
 30
0.0
 10
25.492023
 20
71.002127
 30
0.0
 10
25.492023
 20
71.421445
 30
0.0
 10
25.688519
 20
71.761786
 30
0.0
  0
SPLINE
  5
10f
100
AcDbEntity
  8
Layer_1
 62
7
100
AcDbSpline
 70
8
 71
3
 72
8
 73
4
 74
0
 40
0
 40
0
 40
0
 40
0
 40
1
 40
1
 40
1
 40
1
 10
25.688519
 20
71.761786
 30
0.0
 10
25.885015
 20
72.102127
 30
0.0
 10
26.248154
 20
72.311786
 30
0.0
 10
26.641147
 20
72.311786
 30
0.0
  0
SPLINE
  5
110
100
AcDbEntity
  8
Layer_1
 62
7
100
AcDbSpline
 70
8
 71
3
 72
8
 73
4
 74
0
 40
0
 40
0
 40
0
 40
0
 40
1
 40
1
 40
1
 40
1
 10
26.641147
 20
72.311786
 30
0.0
 10
27.034139
 20
72.311786
 30
0.0
 10
27.397279
 20
72.102127
 30
0.0
 10
27.593775
 20
71.761786
 30
0.0
  0
SPLINE
  5
111
100
AcDbEntity
  8
Layer_1
 62
7
100
AcDbSpline
 70
8
 71
3
 72
8
 73
4
 74
0
 40
0
 40
0
 40
0
 40
0
 40
1
 40
1
 40
1
 40
1
 10
27.593775
 20
71.761786
 30
0.0
 10
27.790271
 20
71.421445
 30
0.0
 10
27.790271
 20
71.002127
 30
0.0
 10
27.593775
 20
70.661786
 30
0.0
  0
SPLINE
  5
112
100
AcDbEntity
  8
Layer_1
 62
7
100
AcDbSpline
 70
8
 71
3
 72
8
 73
4
 74
0
 40
0
 40
0
 40
0
 40
0
 40
1
 40
1
 40
1
 40
1
 10
27.593775
 20
70.661786
 30
0.0
 10
27.397279
 20
70.321445
 30
0.0
 10
27.034139
 20
70.111786
 30
0.0
 10
26.641147
 20
70.111786
 30
0.0
  0
LINE
  5
113
100
AcDbEntity
  8
Layer_1
 62
7
100
AcDbLine
 10
26.641147
 20
70.111786
 30
0.0
 11
26.641147
 21
70.111786
 31
0.0
  0
SPLINE
  5
114
100
AcDbEntity
  8
Layer_1
 62
7
100
AcDbSpline
 70
8
 71
3
 72
8
 73
4
 74
0
 40
0
 40
0
 40
0
 40
0
 40
1
 40
1
 40
1
 40
1
 10
26.641147
 20
33.611525
 30
0.0
 10
26.248154
 20
33.611525
 30
0.0
 10
25.885015
 20
33.821184
 30
0.0
 10
25.688519
 20
34.161525
 30
0.0
  0
SPLINE
  5
115
100
AcDbEntity
  8
Layer_1
 62
7
100
AcDbSpline
 70
8
 71
3
 72
8
 73
4
 74
0
 40
0
 40
0
 40
0
 40
0
 40
1
 40
1
 40
1
 40
1
 10
25.688519
 20
34.161525
 30
0.0
 10
25.492023
 20
34.501866
 30
0.0
 10
25.492023
 20
34.921184
 30
0.0
 10
25.688519
 20
35.261525
 30
0.0
  0
SPLINE
  5
116
100
AcDbEntity
  8
Layer_1
 62
7
100
AcDbSpline
 70
8
 71
3
 72
8
 73
4
 74
0
 40
0
 40
0
 40
0
 40
0
 40
1
 40
1
 40
1
 40
1
 10
25.688519
 20
35.261525
 30
0.0
 10
25.885015
 20
35.601866
 30
0.0
 10
26.248154
 20
35.811525
 30
0.0
 10
26.641147
 20
35.811525
 30
0.0
  0
SPLINE
  5
117
100
AcDbEntity
  8
Layer_1
 62
7
100
AcDbSpline
 70
8
 71
3
 72
8
 73
4
 74
0
 40
0
 40
0
 40
0
 40
0
 40
1
 40
1
 40
1
 40
1
 10
26.641147
 20
35.811525
 30
0.0
 10
27.248660
 20
35.811525
 30
0.0
 10
27.741147
 20
35.319038
 30
0.0
 10
27.741147
 20
34.711525
 30
0.0
  0
SPLINE
  5
118
100
AcDbEntity
  8
Layer_1
 62
7
100
AcDbSpline
 70
8
 71
3
 72
8
 73
4
 74
0
 40
0
 40
0
 40
0
 40
0
 40
1
 40
1
 40
1
 40
1
 10
27.741147
 20
34.711525
 30
0.0
 10
27.741147
 20
34.104012
 30
0.0
 10
27.248660
 20
33.611525
 30
0.0
 10
26.641147
 20
33.611525
 30
0.0
  0
LINE
  5
119
100
AcDbEntity
  8
Layer_1
 62
7
100
AcDbLine
 10
26.641147
 20
33.611525
 30
0.0
 11
26.641147
 21
33.611525
 31
0.0
  0
LINE
  5
11a
100
AcDbEntity
  8
Layer_1
 62
7
100
AcDbLine
 10
107.893560
 20
74.317321
 30
0.0
 11
107.893560
 21
31.606010
 31
0.0
  0
LINE
  5
11b
100
AcDbEntity
  8
Layer_1
 62
7
100
AcDbLine
 10
107.893560
 20
31.606010
 30
0.0
 11
23.888349
 21
31.606010
 31
0.0
  0
LINE
  5
11c
100
AcDbEntity
  8
Layer_1
 62
7
100
AcDbLine
 10
23.888349
 20
31.606010
 30
0.0
 11
23.888349
 21
74.317321
 31
0.0
  0
LINE
  5
11d
100
AcDbEntity
  8
Layer_1
 62
7
100
AcDbLine
 10
23.888349
 20
74.317321
 30
0.0
 11
107.893560
 21
74.317321
 31
0.0
  0
LINE
  5
11e
100
AcDbEntity
  8
Layer_1
 62
5
100
AcDbLine
 10
292.849580
 20
50.145230
 30
0.0
 11
292.849580
 21
20.145228
 31
0.0
  0
LINE
  5
11f
100
AcDbEntity
  8
Layer_1
 62
5
100
AcDbLine
 10
292.849580
 20
20.145228
 30
0.0
 11
220.849580
 21
20.145228
 31
0.0
  0
LINE
  5
120
100
AcDbEntity
  8
Layer_1
 62
5
100
AcDbLine
 10
220.849580
 20
20.145228
 30
0.0
 11
220.849580
 21
50.145230
 31
0.0
  0
LINE
  5
121
100
AcDbEntity
  8
Layer_1
 62
5
100
AcDbLine
 10
220.849580
 20
50.145230
 30
0.0
 11
292.849580
 21
50.145230
 31
0.0
  0
SPLINE
  5
122
100
AcDbEntity
  8
Layer_1
 62
7
100
AcDbSpline
 70
8
 71
3
 72
8
 73
4
 74
0
 40
0
 40
0
 40
0
 40
0
 40
1
 40
1
 40
1
 40
1
 10
296.099400
 20
52.295360
 30
0.0
 10
295.706408
 20
52.295360
 30
0.0
 10
295.343268
 20
52.505019
 30
0.0
 10
295.146772
 20
52.845360
 30
0.0
  0
SPLINE
  5
123
100
AcDbEntity
  8
Layer_1
 62
7
100
AcDbSpline
 70
8
 71
3
 72
8
 73
4
 74
0
 40
0
 40
0
 40
0
 40
0
 40
1
 40
1
 40
1
 40
1
 10
295.146772
 20
52.845360
 30
0.0
 10
294.950276
 20
53.185701
 30
0.0
 10
294.950276
 20
53.605019
 30
0.0
 10
295.146772
 20
53.945360
 30
0.0
  0
SPLINE
  5
124
100
AcDbEntity
  8
Layer_1
 62
7
100
AcDbSpline
 70
8
 71
3
 72
8
 73
4
 74
0
 40
0
 40
0
 40
0
 40
0
 40
1
 40
1
 40
1
 40
1
 10
295.146772
 20
53.945360
 30
0.0
 10
295.343268
 20
54.285701
 30
0.0
 10
295.706408
 20
54.495360
 30
0.0
 10
296.099400
 20
54.495360
 30
0.0
  0
SPLINE
  5
125
100
AcDbEntity
  8
Layer_1
 62
7
100
AcDbSpline
 70
8
 71
3
 72
8
 73
4
 74
0
 40
0
 40
0
 40
0
 40
0
 40
1
 40
1
 40
1
 40
1
 10
296.099400
 20
54.495360
 30
0.0
 10
296.492392
 20
54.495360
 30
0.0
 10
296.855532
 20
54.285701
 30
0.0
 10
297.052028
 20
53.945360
 30
0.0
  0
SPLINE
  5
126
100
AcDbEntity
  8
Layer_1
 62
7
100
AcDbSpline
 70
8
 71
3
 72
8
 73
4
 74
0
 40
0
 40
0
 40
0
 40
0
 40
1
 40
1
 40
1
 40
1
 10
297.052028
 20
53.945360
 30
0.0
 10
297.248524
 20
53.605019
 30
0.0
 10
297.248524
 20
53.185701
 30
0.0
 10
297.052028
 20
52.845360
 30
0.0
  0
SPLINE
  5
127
100
AcDbEntity
  8
Layer_1
 62
7
100
AcDbSpline
 70
8
 71
3
 72
8
 73
4
 74
0
 40
0
 40
0
 40
0
 40
0
 40
1
 40
1
 40
1
 40
1
 10
297.052028
 20
52.845360
 30
0.0
 10
296.855532
 20
52.505019
 30
0.0
 10
296.492392
 20
52.295360
 30
0.0
 10
296.099400
 20
52.295360
 30
0.0
  0
LINE
  5
128
100
AcDbEntity
  8
Layer_1
 62
7
100
AcDbLine
 10
296.099400
 20
52.295360
 30
0.0
 11
296.099400
 21
52.295360
 31
0.0
  0
SPLINE
  5
129
100
AcDbEntity
  8
Layer_1
 62
7
100
AcDbSpline
 70
8
 71
3
 72
8
 73
4
 74
0
 40
0
 40
0
 40
0
 40
0
 40
1
 40
1
 40
1
 40
1
 10
296.099400
 20
15.795110
 30
0.0
 10
295.706408
 20
15.795110
 30
0.0
 10
295.343268
 20
16.004769
 30
0.0
 10
295.146772
 20
16.345110
 30
0.0
  0
SPLINE
  5
12a
100
AcDbEntity
  8
Layer_1
 62
7
100
AcDbSpline
 70
8
 71
3
 72
8
 73
4
 74
0
 40
0
 40
0
 40
0
 40
0
 40
1
 40
1
 40
1
 40
1
 10
295.146772
 20
16.345110
 30
0.0
 10
294.950276
 20
16.685451
 30
0.0
 10
294.950276
 20
17.104769
 30
0.0
 10
295.146772
 20
17.445110
 30
0.0
  0
SPLINE
  5
12b
100
AcDbEntity
  8
Layer_1
 62
7
100
AcDbSpline
 70
8
 71
3
 72
8
 73
4
 74
0
 40
0
 40
0
 40
0
 40
0
 40
1
 40
1
 40
1
 40
1
 10
295.146772
 20
17.445110
 30
0.0
 10
295.343268
 20
17.785451
 30
0.0
 10
295.706408
 20
17.995110
 30
0.0
 10
296.099400
 20
17.995110
 30
0.0
  0
SPLINE
  5
12c
100
AcDbEntity
  8
Layer_1
 62
7
100
AcDbSpline
 70
8
 71
3
 72
8
 73
4
 74
0
 40
0
 40
0
 40
0
 40
0
 40
1
 40
1
 40
1
 40
1
 10
296.099400
 20
17.995110
 30
0.0
 10
296.492392
 20
17.995110
 30
0.0
 10
296.855532
 20
17.785451
 30
0.0
 10
297.052028
 20
17.445110
 30
0.0
  0
SPLINE
  5
12d
100
AcDbEntity
  8
Layer_1
 62
7
100
AcDbSpline
 70
8
 71
3
 72
8
 73
4
 74
0
 40
0
 40
0
 40
0
 40
0
 40
1
 40
1
 40
1
 40
1
 10
297.052028
 20
17.445110
 30
0.0
 10
297.248524
 20
17.104769
 30
0.0
 10
297.248524
 20
16.685451
 30
0.0
 10
297.052028
 20
16.345110
 30
0.0
  0
SPLINE
  5
12e
100
AcDbEntity
  8
Layer_1
 62
7
100
AcDbSpline
 70
8
 71
3
 72
8
 73
4
 74
0
 40
0
 40
0
 40
0
 40
0
 40
1
 40
1
 40
1
 40
1
 10
297.052028
 20
16.345110
 30
0.0
 10
296.855532
 20
16.004769
 30
0.0
 10
296.492392
 20
15.795110
 30
0.0
 10
296.099400
 20
15.795110
 30
0.0
  0
LINE
  5
12f
100
AcDbEntity
  8
Layer_1
 62
7
100
AcDbLine
 10
296.099400
 20
15.795110
 30
0.0
 11
296.099400
 21
15.795110
 31
0.0
  0
SPLINE
  5
130
100
AcDbEntity
  8
Layer_1
 62
7
100
AcDbSpline
 70
8
 71
3
 72
8
 73
4
 74
0
 40
0
 40
0
 40
0
 40
0
 40
1
 40
1
 40
1
 40
1
 10
217.599780
 20
52.295370
 30
0.0
 10
217.206788
 20
52.295370
 30
0.0
 10
216.843648
 20
52.505029
 30
0.0
 10
216.647152
 20
52.845370
 30
0.0
  0
SPLINE
  5
131
100
AcDbEntity
  8
Layer_1
 62
7
100
AcDbSpline
 70
8
 71
3
 72
8
 73
4
 74
0
 40
0
 40
0
 40
0
 40
0
 40
1
 40
1
 40
1
 40
1
 10
216.647152
 20
52.845370
 30
0.0
 10
216.450656
 20
53.185711
 30
0.0
 10
216.450656
 20
53.605029
 30
0.0
 10
216.647152
 20
53.945370
 30
0.0
  0
SPLINE
  5
132
100
AcDbEntity
  8
Layer_1
 62
7
100
AcDbSpline
 70
8
 71
3
 72
8
 73
4
 74
0
 40
0
 40
0
 40
0
 40
0
 40
1
 40
1
 40
1
 40
1
 10
216.647152
 20
53.945370
 30
0.0
 10
216.843648
 20
54.285711
 30
0.0
 10
217.206788
 20
54.495370
 30
0.0
 10
217.599780
 20
54.495370
 30
0.0
  0
SPLINE
  5
133
100
AcDbEntity
  8
Layer_1
 62
7
100
AcDbSpline
 70
8
 71
3
 72
8
 73
4
 74
0
 40
0
 40
0
 40
0
 40
0
 40
1
 40
1
 40
1
 40
1
 10
217.599780
 20
54.495370
 30
0.0
 10
217.992772
 20
54.495370
 30
0.0
 10
218.355912
 20
54.285711
 30
0.0
 10
218.552408
 20
53.945370
 30
0.0
  0
SPLINE
  5
134
100
AcDbEntity
  8
Layer_1
 62
7
100
AcDbSpline
 70
8
 71
3
 72
8
 73
4
 74
0
 40
0
 40
0
 40
0
 40
0
 40
1
 40
1
 40
1
 40
1
 10
218.552408
 20
53.945370
 30
0.0
 10
218.748904
 20
53.605029
 30
0.0
 10
218.748904
 20
53.185711
 30
0.0
 10
218.552408
 20
52.845370
 30
0.0
  0
SPLINE
  5
135
100
AcDbEntity
  8
Layer_1
 62
7
100
AcDbSpline
 70
8
 71
3
 72
8
 73
4
 74
0
 40
0
 40
0
 40
0
 40
0
 40
1
 40
1
 40
1
 40
1
 10
218.552408
 20
52.845370
 30
0.0
 10
218.355912
 20
52.505029
 30
0.0
 10
217.992772
 20
52.295370
 30
0.0
 10
217.599780
 20
52.295370
 30
0.0
  0
LINE
  5
136
100
AcDbEntity
  8
Layer_1
 62
7
100
AcDbLine
 10
217.599780
 20
52.295370
 30
0.0
 11
217.599780
 21
52.295370
 31
0.0
  0
SPLINE
  5
137
100
AcDbEntity
  8
Layer_1
 62
7
100
AcDbSpline
 70
8
 71
3
 72
8
 73
4
 74
0
 40
0
 40
0
 40
0
 40
0
 40
1
 40
1
 40
1
 40
1
 10
217.599780
 20
15.795110
 30
0.0
 10
217.206788
 20
15.795110
 30
0.0
 10
216.843648
 20
16.004769
 30
0.0
 10
216.647152
 20
16.345110
 30
0.0
  0
SPLINE
  5
138
100
AcDbEntity
  8
Layer_1
 62
7
100
AcDbSpline
 70
8
 71
3
 72
8
 73
4
 74
0
 40
0
 40
0
 40
0
 40
0
 40
1
 40
1
 40
1
 40
1
 10
216.647152
 20
16.345110
 30
0.0
 10
216.450656
 20
16.685451
 30
0.0
 10
216.450656
 20
17.104769
 30
0.0
 10
216.647152
 20
17.445110
 30
0.0
  0
SPLINE
  5
139
100
AcDbEntity
  8
Layer_1
 62
7
100
AcDbSpline
 70
8
 71
3
 72
8
 73
4
 74
0
 40
0
 40
0
 40
0
 40
0
 40
1
 40
1
 40
1
 40
1
 10
216.647152
 20
17.445110
 30
0.0
 10
216.843648
 20
17.785451
 30
0.0
 10
217.206788
 20
17.995110
 30
0.0
 10
217.599780
 20
17.995110
 30
0.0
  0
SPLINE
  5
13a
100
AcDbEntity
  8
Layer_1
 62
7
100
AcDbSpline
 70
8
 71
3
 72
8
 73
4
 74
0
 40
0
 40
0
 40
0
 40
0
 40
1
 40
1
 40
1
 40
1
 10
217.599780
 20
17.995110
 30
0.0
 10
217.992772
 20
17.995110
 30
0.0
 10
218.355912
 20
17.785451
 30
0.0
 10
218.552408
 20
17.445110
 30
0.0
  0
SPLINE
  5
13b
100
AcDbEntity
  8
Layer_1
 62
7
100
AcDbSpline
 70
8
 71
3
 72
8
 73
4
 74
0
 40
0
 40
0
 40
0
 40
0
 40
1
 40
1
 40
1
 40
1
 10
218.552408
 20
17.445110
 30
0.0
 10
218.748904
 20
17.104769
 30
0.0
 10
218.748904
 20
16.685451
 30
0.0
 10
218.552408
 20
16.345110
 30
0.0
  0
SPLINE
  5
13c
100
AcDbEntity
  8
Layer_1
 62
7
100
AcDbSpline
 70
8
 71
3
 72
8
 73
4
 74
0
 40
0
 40
0
 40
0
 40
0
 40
1
 40
1
 40
1
 40
1
 10
218.552408
 20
16.345110
 30
0.0
 10
218.355912
 20
16.004769
 30
0.0
 10
217.992772
 20
15.795110
 30
0.0
 10
217.599780
 20
15.795110
 30
0.0
  0
LINE
  5
13d
100
AcDbEntity
  8
Layer_1
 62
7
100
AcDbLine
 10
217.599780
 20
15.795110
 30
0.0
 11
217.599780
 21
15.795110
 31
0.0
  0
LINE
  5
13e
100
AcDbEntity
  8
Layer_1
 62
5
100
AcDbLine
 10
186.647072
 20
66.211531
 30
0.0
 11
195.145572
 21
66.211531
 31
0.0
  0
LINE
  5
13f
100
AcDbEntity
  8
Layer_1
 62
5
100
AcDbLine
 10
195.145572
 20
66.211531
 30
0.0
 11
195.145572
 21
69.211531
 31
0.0
  0
LINE
  5
140
100
AcDbEntity
  8
Layer_1
 62
5
100
AcDbLine
 10
195.145572
 20
69.211531
 30
0.0
 11
201.148572
 21
69.211531
 31
0.0
  0
LINE
  5
141
100
AcDbEntity
  8
Layer_1
 62
5
100
AcDbLine
 10
201.148572
 20
69.211531
 30
0.0
 11
201.148572
 21
66.211531
 31
0.0
  0
LINE
  5
142
100
AcDbEntity
  8
Layer_1
 62
5
100
AcDbLine
 10
201.148572
 20
66.211531
 30
0.0
 11
209.647072
 21
66.211531
 31
0.0
  0
LINE
  5
143
100
AcDbEntity
  8
Layer_1
 62
5
100
AcDbLine
 10
209.647072
 20
66.211531
 30
0.0
 11
209.647072
 21
57.713031
 31
0.0
  0
LINE
  5
144
100
AcDbEntity
  8
Layer_1
 62
5
100
AcDbLine
 10
209.647072
 20
57.713031
 30
0.0
 11
212.647072
 21
57.713031
 31
0.0
  0
LINE
  5
145
100
AcDbEntity
  8
Layer_1
 62
5
100
AcDbLine
 10
212.647072
 20
57.713031
 30
0.0
 11
212.647072
 21
51.710031
 31
0.0
  0
LINE
  5
146
100
AcDbEntity
  8
Layer_1
 62
5
100
AcDbLine
 10
212.647072
 20
51.710031
 30
0.0
 11
209.647072
 21
51.710031
 31
0.0
  0
LINE
  5
147
100
AcDbEntity
  8
Layer_1
 62
5
100
AcDbLine
 10
209.647072
 20
51.710031
 30
0.0
 11
209.647072
 21
43.211531
 31
0.0
  0
LINE
  5
148
100
AcDbEntity
  8
Layer_1
 62
5
100
AcDbLine
 10
209.647072
 20
43.211531
 30
0.0
 11
201.148572
 21
43.211531
 31
0.0
  0
LINE
  5
149
100
AcDbEntity
  8
Layer_1
 62
5
100
AcDbLine
 10
201.148572
 20
43.211531
 30
0.0
 11
201.148572
 21
40.211531
 31
0.0
  0
LINE
  5
14a
100
AcDbEntity
  8
Layer_1
 62
5
100
AcDbLine
 10
201.148572
 20
40.211531
 30
0.0
 11
195.145572
 21
40.211531
 31
0.0
  0
LINE
  5
14b
100
AcDbEntity
  8
Layer_1
 62
5
100
AcDbLine
 10
195.145572
 20
40.211531
 30
0.0
 11
195.145572
 21
43.211531
 31
0.0
  0
LINE
  5
14c
100
AcDbEntity
  8
Layer_1
 62
5
100
AcDbLine
 10
195.145572
 20
43.211531
 30
0.0
 11
186.647072
 21
43.211531
 31
0.0
  0
LINE
  5
14d
100
AcDbEntity
  8
Layer_1
 62
5
100
AcDbLine
 10
186.647072
 20
43.211531
 30
0.0
 11
186.647072
 21
51.710031
 31
0.0
  0
LINE
  5
14e
100
AcDbEntity
  8
Layer_1
 62
5
100
AcDbLine
 10
186.647072
 20
51.710031
 30
0.0
 11
183.647072
 21
51.710031
 31
0.0
  0
LINE
  5
14f
100
AcDbEntity
  8
Layer_1
 62
5
100
AcDbLine
 10
183.647072
 20
51.710031
 30
0.0
 11
183.647072
 21
57.713031
 31
0.0
  0
LINE
  5
150
100
AcDbEntity
  8
Layer_1
 62
5
100
AcDbLine
 10
183.647072
 20
57.713031
 30
0.0
 11
186.647072
 21
57.713031
 31
0.0
  0
LINE
  5
151
100
AcDbEntity
  8
Layer_1
 62
5
100
AcDbLine
 10
186.647072
 20
57.713031
 30
0.0
 11
186.647072
 21
66.211531
 31
0.0
  0
LINE
  5
152
100
AcDbEntity
  8
Layer_1
 62
5
100
AcDbLine
 10
56.276607
 20
29.765180
 30
0.0
 11
64.778107
 21
29.765180
 31
0.0
  0
LINE
  5
153
100
AcDbEntity
  8
Layer_1
 62
5
100
AcDbLine
 10
64.778107
 20
29.765180
 30
0.0
 11
64.778107
 21
26.765180
 31
0.0
  0
LINE
  5
154
100
AcDbEntity
  8
Layer_1
 62
5
100
AcDbLine
 10
64.778107
 20
26.765180
 30
0.0
 11
70.775107
 21
26.765180
 31
0.0
  0
LINE
  5
155
100
AcDbEntity
  8
Layer_1
 62
5
100
AcDbLine
 10
70.775107
 20
26.765180
 30
0.0
 11
70.775107
 21
29.765180
 31
0.0
  0
LINE
  5
156
100
AcDbEntity
  8
Layer_1
 62
5
100
AcDbLine
 10
70.775107
 20
29.765180
 30
0.0
 11
79.276607
 21
29.765180
 31
0.0
  0
LINE
  5
157
100
AcDbEntity
  8
Layer_1
 62
5
100
AcDbLine
 10
79.276607
 20
29.765180
 30
0.0
 11
79.276607
 21
18.266680
 31
0.0
  0
LINE
  5
158
100
AcDbEntity
  8
Layer_1
 62
5
100
AcDbLine
 10
79.276607
 20
18.266680
 30
0.0
 11
82.276607
 21
18.266680
 31
0.0
  0
LINE
  5
159
100
AcDbEntity
  8
Layer_1
 62
5
100
AcDbLine
 10
82.276607
 20
18.266680
 30
0.0
 11
82.276607
 21
12.263680
 31
0.0
  0
LINE
  5
15a
100
AcDbEntity
  8
Layer_1
 62
5
100
AcDbLine
 10
82.276607
 20
12.263680
 30
0.0
 11
79.276607
 21
12.263680
 31
0.0
  0
LINE
  5
15b
100
AcDbEntity
  8
Layer_1
 62
5
100
AcDbLine
 10
79.276607
 20
12.263680
 30
0.0
 11
79.276607
 21
0.765180
 31
0.0
  0
LINE
  5
15c
100
AcDbEntity
  8
Layer_1
 62
5
100
AcDbLine
 10
79.276607
 20
0.765180
 30
0.0
 11
70.775107
 21
0.765180
 31
0.0
  0
LINE
  5
15d
100
AcDbEntity
  8
Layer_1
 62
5
100
AcDbLine
 10
70.775107
 20
0.765180
 30
0.0
 11
70.775107
 21
3.765180
 31
0.0
  0
LINE
  5
15e
100
AcDbEntity
  8
Layer_1
 62
5
100
AcDbLine
 10
70.775107
 20
3.765180
 30
0.0
 11
64.778107
 21
3.765180
 31
0.0
  0
LINE
  5
15f
100
AcDbEntity
  8
Layer_1
 62
5
100
AcDbLine
 10
64.778107
 20
3.765180
 30
0.0
 11
64.778107
 21
0.765180
 31
0.0
  0
LINE
  5
160
100
AcDbEntity
  8
Layer_1
 62
5
100
AcDbLine
 10
64.778107
 20
0.765180
 30
0.0
 11
56.276607
 21
0.765180
 31
0.0
  0
LINE
  5
161
100
AcDbEntity
  8
Layer_1
 62
5
100
AcDbLine
 10
56.276607
 20
0.765180
 30
0.0
 11
56.276607
 21
12.263680
 31
0.0
  0
LINE
  5
162
100
AcDbEntity
  8
Layer_1
 62
5
100
AcDbLine
 10
56.276607
 20
12.263680
 30
0.0
 11
53.276607
 21
12.263680
 31
0.0
  0
LINE
  5
163
100
AcDbEntity
  8
Layer_1
 62
5
100
AcDbLine
 10
53.276607
 20
12.263680
 30
0.0
 11
53.276607
 21
18.266680
 31
0.0
  0
LINE
  5
164
100
AcDbEntity
  8
Layer_1
 62
5
100
AcDbLine
 10
53.276607
 20
18.266680
 30
0.0
 11
56.276607
 21
18.266680
 31
0.0
  0
LINE
  5
165
100
AcDbEntity
  8
Layer_1
 62
5
100
AcDbLine
 10
56.276607
 20
18.266680
 30
0.0
 11
56.276607
 21
29.765180
 31
0.0
  0
LINE
  5
166
100
AcDbEntity
  8
Layer_1
 62
5
100
AcDbLine
 10
87.422256
 20
27.190190
 30
0.0
 11
95.920756
 21
27.190190
 31
0.0
  0
LINE
  5
167
100
AcDbEntity
  8
Layer_1
 62
5
100
AcDbLine
 10
95.920756
 20
27.190190
 30
0.0
 11
95.920756
 21
30.190190
 31
0.0
  0
LINE
  5
168
100
AcDbEntity
  8
Layer_1
 62
5
100
AcDbLine
 10
95.920756
 20
30.190190
 30
0.0
 11
101.923760
 21
30.190190
 31
0.0
  0
LINE
  5
169
100
AcDbEntity
  8
Layer_1
 62
5
100
AcDbLine
 10
101.923760
 20
30.190190
 30
0.0
 11
101.923760
 21
27.190190
 31
0.0
  0
LINE
  5
16a
100
AcDbEntity
  8
Layer_1
 62
5
100
AcDbLine
 10
101.923760
 20
27.190190
 30
0.0
 11
110.422260
 21
27.190190
 31
0.0
  0
LINE
  5
16b
100
AcDbEntity
  8
Layer_1
 62
5
100
AcDbLine
 10
110.422260
 20
27.190190
 30
0.0
 11
110.422260
 21
18.691690
 31
0.0
  0
LINE
  5
16c
100
AcDbEntity
  8
Layer_1
 62
5
100
AcDbLine
 10
110.422260
 20
18.691690
 30
0.0
 11
113.422260
 21
18.691690
 31
0.0
  0
LINE
  5
16d
100
AcDbEntity
  8
Layer_1
 62
5
100
AcDbLine
 10
113.422260
 20
18.691690
 30
0.0
 11
113.422260
 21
12.688690
 31
0.0
  0
LINE
  5
16e
100
AcDbEntity
  8
Layer_1
 62
5
100
AcDbLine
 10
113.422260
 20
12.688690
 30
0.0
 11
110.422260
 21
12.688690
 31
0.0
  0
LINE
  5
16f
100
AcDbEntity
  8
Layer_1
 62
5
100
AcDbLine
 10
110.422260
 20
12.688690
 30
0.0
 11
110.422260
 21
4.190190
 31
0.0
  0
LINE
  5
170
100
AcDbEntity
  8
Layer_1
 62
5
100
AcDbLine
 10
110.422260
 20
4.190190
 30
0.0
 11
101.923760
 21
4.190190
 31
0.0
  0
LINE
  5
171
100
AcDbEntity
  8
Layer_1
 62
5
100
AcDbLine
 10
101.923760
 20
4.190190
 30
0.0
 11
101.923760
 21
1.190190
 31
0.0
  0
LINE
  5
172
100
AcDbEntity
  8
Layer_1
 62
5
100
AcDbLine
 10
101.923760
 20
1.190190
 30
0.0
 11
95.920756
 21
1.190190
 31
0.0
  0
LINE
  5
173
100
AcDbEntity
  8
Layer_1
 62
5
100
AcDbLine
 10
95.920756
 20
1.190190
 30
0.0
 11
95.920756
 21
4.190190
 31
0.0
  0
LINE
  5
174
100
AcDbEntity
  8
Layer_1
 62
5
100
AcDbLine
 10
95.920756
 20
4.190190
 30
0.0
 11
87.422256
 21
4.190190
 31
0.0
  0
LINE
  5
175
100
AcDbEntity
  8
Layer_1
 62
5
100
AcDbLine
 10
87.422256
 20
4.190190
 30
0.0
 11
87.422256
 21
12.688690
 31
0.0
  0
LINE
  5
176
100
AcDbEntity
  8
Layer_1
 62
5
100
AcDbLine
 10
87.422256
 20
12.688690
 30
0.0
 11
84.422256
 21
12.688690
 31
0.0
  0
LINE
  5
177
100
AcDbEntity
  8
Layer_1
 62
5
100
AcDbLine
 10
84.422256
 20
12.688690
 30
0.0
 11
84.422256
 21
18.691690
 31
0.0
  0
LINE
  5
178
100
AcDbEntity
  8
Layer_1
 62
5
100
AcDbLine
 10
84.422256
 20
18.691690
 30
0.0
 11
87.422256
 21
18.691690
 31
0.0
  0
LINE
  5
179
100
AcDbEntity
  8
Layer_1
 62
5
100
AcDbLine
 10
87.422256
 20
18.691690
 30
0.0
 11
87.422256
 21
27.190190
 31
0.0
  0
LINE
  5
17a
100
AcDbEntity
  8
Layer_1
 62
5
100
AcDbLine
 10
114.819390
 20
37.272830
 30
0.0
 11
123.320890
 21
37.272830
 31
0.0
  0
LINE
  5
17b
100
AcDbEntity
  8
Layer_1
 62
5
100
AcDbLine
 10
123.320890
 20
37.272830
 30
0.0
 11
123.320890
 21
34.272830
 31
0.0
  0
LINE
  5
17c
100
AcDbEntity
  8
Layer_1
 62
5
100
AcDbLine
 10
123.320890
 20
34.272830
 30
0.0
 11
129.317890
 21
34.272830
 31
0.0
  0
LINE
  5
17d
100
AcDbEntity
  8
Layer_1
 62
5
100
AcDbLine
 10
129.317890
 20
34.272830
 30
0.0
 11
129.317890
 21
37.272830
 31
0.0
  0
LINE
  5
17e
100
AcDbEntity
  8
Layer_1
 62
5
100
AcDbLine
 10
129.317890
 20
37.272830
 30
0.0
 11
137.819390
 21
37.272830
 31
0.0
  0
LINE
  5
17f
100
AcDbEntity
  8
Layer_1
 62
5
100
AcDbLine
 10
137.819390
 20
37.272830
 30
0.0
 11
137.819390
 21
25.774330
 31
0.0
  0
LINE
  5
180
100
AcDbEntity
  8
Layer_1
 62
5
100
AcDbLine
 10
137.819390
 20
25.774330
 30
0.0
 11
140.819390
 21
25.774330
 31
0.0
  0
LINE
  5
181
100
AcDbEntity
  8
Layer_1
 62
5
100
AcDbLine
 10
140.819390
 20
25.774330
 30
0.0
 11
140.819390
 21
19.771330
 31
0.0
  0
LINE
  5
182
100
AcDbEntity
  8
Layer_1
 62
5
100
AcDbLine
 10
140.819390
 20
19.771330
 30
0.0
 11
137.819390
 21
19.771330
 31
0.0
  0
LINE
  5
183
100
AcDbEntity
  8
Layer_1
 62
5
100
AcDbLine
 10
137.819390
 20
19.771330
 30
0.0
 11
137.819390
 21
8.272830
 31
0.0
  0
LINE
  5
184
100
AcDbEntity
  8
Layer_1
 62
5
100
AcDbLine
 10
137.819390
 20
8.272830
 30
0.0
 11
129.317890
 21
8.272830
 31
0.0
  0
LINE
  5
185
100
AcDbEntity
  8
Layer_1
 62
5
100
AcDbLine
 10
129.317890
 20
8.272830
 30
0.0
 11
129.317890
 21
11.272830
 31
0.0
  0
LINE
  5
186
100
AcDbEntity
  8
Layer_1
 62
5
100
AcDbLine
 10
129.317890
 20
11.272830
 30
0.0
 11
123.320890
 21
11.272830
 31
0.0
  0
LINE
  5
187
100
AcDbEntity
  8
Layer_1
 62
5
100
AcDbLine
 10
123.320890
 20
11.272830
 30
0.0
 11
123.320890
 21
8.272830
 31
0.0
  0
LINE
  5
188
100
AcDbEntity
  8
Layer_1
 62
5
100
AcDbLine
 10
123.320890
 20
8.272830
 30
0.0
 11
114.819390
 21
8.272830
 31
0.0
  0
LINE
  5
189
100
AcDbEntity
  8
Layer_1
 62
5
100
AcDbLine
 10
114.819390
 20
8.272830
 30
0.0
 11
114.819390
 21
19.771330
 31
0.0
  0
LINE
  5
18a
100
AcDbEntity
  8
Layer_1
 62
5
100
AcDbLine
 10
114.819390
 20
19.771330
 30
0.0
 11
111.819390
 21
19.771330
 31
0.0
  0
LINE
  5
18b
100
AcDbEntity
  8
Layer_1
 62
5
100
AcDbLine
 10
111.819390
 20
19.771330
 30
0.0
 11
111.819390
 21
25.774330
 31
0.0
  0
LINE
  5
18c
100
AcDbEntity
  8
Layer_1
 62
5
100
AcDbLine
 10
111.819390
 20
25.774330
 30
0.0
 11
114.819390
 21
25.774330
 31
0.0
  0
LINE
  5
18d
100
AcDbEntity
  8
Layer_1
 62
5
100
AcDbLine
 10
114.819390
 20
25.774330
 30
0.0
 11
114.819390
 21
37.272830
 31
0.0
  0
LINE
  5
18e
100
AcDbEntity
  8
Layer_1
 62
5
100
AcDbLine
 10
23.276607
 20
29.765180
 30
0.0
 11
34.778107
 21
29.765180
 31
0.0
  0
LINE
  5
18f
100
AcDbEntity
  8
Layer_1
 62
5
100
AcDbLine
 10
34.778107
 20
29.765180
 30
0.0
 11
34.778107
 21
26.765180
 31
0.0
  0
LINE
  5
190
100
AcDbEntity
  8
Layer_1
 62
5
100
AcDbLine
 10
34.778107
 20
26.765180
 30
0.0
 11
40.775107
 21
26.765180
 31
0.0
  0
LINE
  5
191
100
AcDbEntity
  8
Layer_1
 62
5
100
AcDbLine
 10
40.775107
 20
26.765180
 30
0.0
 11
40.775107
 21
29.765180
 31
0.0
  0
LINE
  5
192
100
AcDbEntity
  8
Layer_1
 62
5
100
AcDbLine
 10
40.775107
 20
29.765180
 30
0.0
 11
52.276607
 21
29.765180
 31
0.0
  0
LINE
  5
193
100
AcDbEntity
  8
Layer_1
 62
5
100
AcDbLine
 10
52.276607
 20
29.765180
 30
0.0
 11
52.276607
 21
18.263680
 31
0.0
  0
LINE
  5
194
100
AcDbEntity
  8
Layer_1
 62
5
100
AcDbLine
 10
52.276607
 20
18.263680
 30
0.0
 11
49.276607
 21
18.263680
 31
0.0
  0
LINE
  5
195
100
AcDbEntity
  8
Layer_1
 62
5
100
AcDbLine
 10
49.276607
 20
18.263680
 30
0.0
 11
49.276607
 21
12.266680
 31
0.0
  0
LINE
  5
196
100
AcDbEntity
  8
Layer_1
 62
5
100
AcDbLine
 10
49.276607
 20
12.266680
 30
0.0
 11
52.276607
 21
12.266680
 31
0.0
  0
LINE
  5
197
100
AcDbEntity
  8
Layer_1
 62
5
100
AcDbLine
 10
52.276607
 20
12.266680
 30
0.0
 11
52.276607
 21
0.765180
 31
0.0
  0
LINE
  5
198
100
AcDbEntity
  8
Layer_1
 62
5
100
AcDbLine
 10
52.276607
 20
0.765180
 30
0.0
 11
40.775107
 21
0.765180
 31
0.0
  0
LINE
  5
199
100
AcDbEntity
  8
Layer_1
 62
5
100
AcDbLine
 10
40.775107
 20
0.765180
 30
0.0
 11
40.775107
 21
3.765180
 31
0.0
  0
LINE
  5
19a
100
AcDbEntity
  8
Layer_1
 62
5
100
AcDbLine
 10
40.775107
 20
3.765180
 30
0.0
 11
34.778107
 21
3.765180
 31
0.0
  0
LINE
  5
19b
100
AcDbEntity
  8
Layer_1
 62
5
100
AcDbLine
 10
34.778107
 20
3.765180
 30
0.0
 11
34.778107
 21
0.765180
 31
0.0
  0
LINE
  5
19c
100
AcDbEntity
  8
Layer_1
 62
5
100
AcDbLine
 10
34.778107
 20
0.765180
 30
0.0
 11
23.276607
 21
0.765180
 31
0.0
  0
LINE
  5
19d
100
AcDbEntity
  8
Layer_1
 62
5
100
AcDbLine
 10
23.276607
 20
0.765180
 30
0.0
 11
23.276607
 21
12.266680
 31
0.0
  0
LINE
  5
19e
100
AcDbEntity
  8
Layer_1
 62
5
100
AcDbLine
 10
23.276607
 20
12.266680
 30
0.0
 11
26.276607
 21
12.266680
 31
0.0
  0
LINE
  5
19f
100
AcDbEntity
  8
Layer_1
 62
5
100
AcDbLine
 10
26.276607
 20
12.266680
 30
0.0
 11
26.276607
 21
18.263680
 31
0.0
  0
LINE
  5
1a0
100
AcDbEntity
  8
Layer_1
 62
5
100
AcDbLine
 10
26.276607
 20
18.263680
 30
0.0
 11
23.276607
 21
18.263680
 31
0.0
  0
LINE
  5
1a1
100
AcDbEntity
  8
Layer_1
 62
5
100
AcDbLine
 10
23.276607
 20
18.263680
 30
0.0
 11
23.276607
 21
29.765180
 31
0.0
  0
LINE
  5
1a2
100
AcDbEntity
  8
Layer_1
 62
5
100
AcDbLine
 10
156.110898
 20
68.161655
 30
0.0
 11
156.110898
 21
38.661655
 31
0.0
  0
LINE
  5
1a3
100
AcDbEntity
  8
Layer_1
 62
5
100
AcDbLine
 10
156.110898
 20
38.661655
 30
0.0
 11
90.110898
 21
38.661655
 31
0.0
  0
LINE
  5
1a4
100
AcDbEntity
  8
Layer_1
 62
5
100
AcDbLine
 10
90.110898
 20
38.661655
 30
0.0
 11
90.110898
 21
68.161655
 31
0.0
  0
LINE
  5
1a5
100
AcDbEntity
  8
Layer_1
 62
5
100
AcDbLine
 10
90.110898
 20
68.161655
 30
0.0
 11
156.110898
 21
68.161655
 31
0.0
  0
LINE
  5
1a6
100
AcDbEntity
  8
Layer_1
 62
5
100
AcDbLine
 10
139.383458
 20
55.261649
 30
0.0
 11
139.383458
 21
51.561649
 31
0.0
  0
LINE
  5
1a7
100
AcDbEntity
  8
Layer_1
 62
5
100
AcDbLine
 10
139.383458
 20
51.561649
 30
0.0
 11
137.183458
 21
51.561649
 31
0.0
  0
LINE
  5
1a8
100
AcDbEntity
  8
Layer_1
 62
5
100
AcDbLine
 10
137.183458
 20
51.561649
 30
0.0
 11
137.183458
 21
55.261649
 31
0.0
  0
LINE
  5
1a9
100
AcDbEntity
  8
Layer_1
 62
5
100
AcDbLine
 10
137.183458
 20
55.261649
 30
0.0
 11
139.383458
 21
55.261649
 31
0.0
  0
LINE
  5
1aa
100
AcDbEntity
  8
Layer_1
 62
5
100
AcDbLine
 10
121.674899
 20
56.410149
 30
0.0
 11
118.674899
 21
56.410149
 31
0.0
  0
LINE
  5
1ab
100
AcDbEntity
  8
Layer_1
 62
5
100
AcDbLine
 10
118.674899
 20
56.410149
 30
0.0
 11
118.674899
 21
50.413149
 31
0.0
  0
LINE
  5
1ac
100
AcDbEntity
  8
Layer_1
 62
5
100
AcDbLine
 10
118.674899
 20
50.413149
 30
0.0
 11
121.674899
 21
50.413149
 31
0.0
  0
LINE
  5
1ad
100
AcDbEntity
  8
Layer_1
 62
5
100
AcDbLine
 10
121.674899
 20
50.413149
 30
0.0
 11
121.674899
 21
56.410149
 31
0.0
  0
LINE
  5
1ae
100
AcDbEntity
  8
Layer_1
 62
5
100
AcDbLine
 10
110.173399
 20
38.911649
 30
0.0
 11
110.173399
 21
41.911649
 31
0.0
  0
LINE
  5
1af
100
AcDbEntity
  8
Layer_1
 62
5
100
AcDbLine
 10
110.173399
 20
41.911649
 30
0.0
 11
104.176399
 21
41.911649
 31
0.0
  0
LINE
  5
1b0
100
AcDbEntity
  8
Layer_1
 62
5
100
AcDbLine
 10
104.176399
 20
41.911649
 30
0.0
 11
104.176399
 21
38.911649
 31
0.0
  0
LINE
  5
1b1
100
AcDbEntity
  8
Layer_1
 62
5
100
AcDbLine
 10
104.176399
 20
38.911649
 30
0.0
 11
110.173399
 21
38.911649
 31
0.0
  0
LINE
  5
1b2
100
AcDbEntity
  8
Layer_1
 62
5
100
AcDbLine
 10
92.674899
 20
50.413149
 30
0.0
 11
95.674899
 21
50.413149
 31
0.0
  0
LINE
  5
1b3
100
AcDbEntity
  8
Layer_1
 62
5
100
AcDbLine
 10
95.674899
 20
50.413149
 30
0.0
 11
95.674899
 21
56.410149
 31
0.0
  0
LINE
  5
1b4
100
AcDbEntity
  8
Layer_1
 62
5
100
AcDbLine
 10
95.674899
 20
56.410149
 30
0.0
 11
92.674899
 21
56.410149
 31
0.0
  0
LINE
  5
1b5
100
AcDbEntity
  8
Layer_1
 62
5
100
AcDbLine
 10
92.674899
 20
56.410149
 30
0.0
 11
92.674899
 21
50.413149
 31
0.0
  0
LINE
  5
1b6
100
AcDbEntity
  8
Layer_1
 62
5
100
AcDbLine
 10
104.176399
 20
67.911653
 30
0.0
 11
104.176399
 21
64.911653
 31
0.0
  0
LINE
  5
1b7
100
AcDbEntity
  8
Layer_1
 62
5
100
AcDbLine
 10
104.176399
 20
64.911653
 30
0.0
 11
110.173399
 21
64.911653
 31
0.0
  0
LINE
  5
1b8
100
AcDbEntity
  8
Layer_1
 62
5
100
AcDbLine
 10
110.173399
 20
64.911653
 30
0.0
 11
110.173399
 21
67.911653
 31
0.0
  0
LINE
  5
1b9
100
AcDbEntity
  8
Layer_1
 62
5
100
AcDbLine
 10
110.173399
 20
67.911653
 30
0.0
 11
104.176399
 21
67.911653
 31
0.0
  0
LINE
  5
1ba
100
AcDbEntity
  8
Layer_1
 62
5
100
AcDbLine
 10
113.716539
 20
60.413143
 30
0.0
 11
113.716539
 21
46.410167
 31
0.0
  0
LINE
  5
1bb
100
AcDbEntity
  8
Layer_1
 62
5
100
AcDbLine
 10
113.716539
 20
46.410167
 30
0.0
 11
100.633206
 21
46.410167
 31
0.0
  0
LINE
  5
1bc
100
AcDbEntity
  8
Layer_1
 62
5
100
AcDbLine
 10
100.633206
 20
46.410167
 30
0.0
 11
100.633206
 21
60.413143
 31
0.0
  0
LINE
  5
1bd
100
AcDbEntity
  8
Layer_1
 62
5
100
AcDbLine
 10
100.633206
 20
60.413143
 30
0.0
 11
113.716539
 21
60.413143
 31
0.0
  0
LINE
  5
1be
100
AcDbEntity
  8
Layer_1
 62
5
100
AcDbLine
 10
188.847070
 20
60.361520
 30
0.0
 11
192.497080
 21
63.961530
 31
0.0
  0
LINE
  5
1bf
100
AcDbEntity
  8
Layer_1
 62
5
100
AcDbLine
 10
192.497080
 20
63.961530
 30
0.0
 11
203.797080
 21
63.961530
 31
0.0
  0
LINE
  5
1c0
100
AcDbEntity
  8
Layer_1
 62
5
100
AcDbLine
 10
203.797080
 20
63.961530
 30
0.0
 11
207.447070
 21
60.361520
 31
0.0
  0
LINE
  5
1c1
100
AcDbEntity
  8
Layer_1
 62
5
100
AcDbLine
 10
207.447070
 20
60.361520
 30
0.0
 11
207.447070
 21
49.061520
 31
0.0
  0
LINE
  5
1c2
100
AcDbEntity
  8
Layer_1
 62
5
100
AcDbLine
 10
207.447070
 20
49.061520
 30
0.0
 11
203.797080
 21
45.461530
 31
0.0
  0
LINE
  5
1c3
100
AcDbEntity
  8
Layer_1
 62
5
100
AcDbLine
 10
203.797080
 20
45.461530
 30
0.0
 11
192.497080
 21
45.461530
 31
0.0
  0
LINE
  5
1c4
100
AcDbEntity
  8
Layer_1
 62
5
100
AcDbLine
 10
192.497080
 20
45.461530
 30
0.0
 11
188.847070
 21
49.061520
 31
0.0
  0
LINE
  5
1c5
100
AcDbEntity
  8
Layer_1
 62
5
100
AcDbLine
 10
188.847070
 20
49.061520
 30
0.0
 11
188.847070
 21
60.361520
 31
0.0
  0
SPLINE
  5
1c6
100
AcDbEntity
  8
Layer_1
 62
5
100
AcDbSpline
 70
8
 71
3
 72
8
 73
4
 74
0
 40
0
 40
0
 40
0
 40
0
 40
1
 40
1
 40
1
 40
1
 10
208.447100
 20
63.961520
 30
0.0
 10
208.447100
 20
63.604254
 30
0.0
 10
208.256501
 20
63.274127
 30
0.0
 10
207.947100
 20
63.095495
 30
0.0
  0
SPLINE
  5
1c7
100
AcDbEntity
  8
Layer_1
 62
5
100
AcDbSpline
 70
8
 71
3
 72
8
 73
4
 74
0
 40
0
 40
0
 40
0
 40
0
 40
1
 40
1
 40
1
 40
1
 10
207.947100
 20
63.095495
 30
0.0
 10
207.637699
 20
62.916862
 30
0.0
 10
207.256501
 20
62.916862
 30
0.0
 10
206.947100
 20
63.095495
 30
0.0
  0
SPLINE
  5
1c8
100
AcDbEntity
  8
Layer_1
 62
5
100
AcDbSpline
 70
8
 71
3
 72
8
 73
4
 74
0
 40
0
 40
0
 40
0
 40
0
 40
1
 40
1
 40
1
 40
1
 10
206.947100
 20
63.095495
 30
0.0
 10
206.637699
 20
63.274127
 30
0.0
 10
206.447100
 20
63.604254
 30
0.0
 10
206.447100
 20
63.961520
 30
0.0
  0
SPLINE
  5
1c9
100
AcDbEntity
  8
Layer_1
 62
5
100
AcDbSpline
 70
8
 71
3
 72
8
 73
4
 74
0
 40
0
 40
0
 40
0
 40
0
 40
1
 40
1
 40
1
 40
1
 10
206.447100
 20
63.961520
 30
0.0
 10
206.447100
 20
64.318786
 30
0.0
 10
206.637699
 20
64.648913
 30
0.0
 10
206.947100
 20
64.827545
 30
0.0
  0
SPLINE
  5
1ca
100
AcDbEntity
  8
Layer_1
 62
5
100
AcDbSpline
 70
8
 71
3
 72
8
 73
4
 74
0
 40
0
 40
0
 40
0
 40
0
 40
1
 40
1
 40
1
 40
1
 10
206.947100
 20
64.827545
 30
0.0
 10
207.256501
 20
65.006178
 30
0.0
 10
207.637699
 20
65.006178
 30
0.0
 10
207.947100
 20
64.827545
 30
0.0
  0
SPLINE
  5
1cb
100
AcDbEntity
  8
Layer_1
 62
5
100
AcDbSpline
 70
8
 71
3
 72
8
 73
4
 74
0
 40
0
 40
0
 40
0
 40
0
 40
1
 40
1
 40
1
 40
1
 10
207.947100
 20
64.827545
 30
0.0
 10
208.256501
 20
64.648913
 30
0.0
 10
208.447100
 20
64.318786
 30
0.0
 10
208.447100
 20
63.961520
 30
0.0
  0
LINE
  5
1cc
100
AcDbEntity
  8
Layer_1
 62
5
100
AcDbLine
 10
208.447100
 20
63.961520
 30
0.0
 11
208.447100
 21
63.961520
 31
0.0
  0
SPLINE
  5
1cd
100
AcDbEntity
  8
Layer_1
 62
5
100
AcDbSpline
 70
8
 71
3
 72
8
 73
4
 74
0
 40
0
 40
0
 40
0
 40
0
 40
1
 40
1
 40
1
 40
1
 10
188.847090
 20
61.461520
 30
0.0
 10
188.847090
 20
61.104254
 30
0.0
 10
188.656491
 20
60.774127
 30
0.0
 10
188.347090
 20
60.595495
 30
0.0
  0
SPLINE
  5
1ce
100
AcDbEntity
  8
Layer_1
 62
5
100
AcDbSpline
 70
8
 71
3
 72
8
 73
4
 74
0
 40
0
 40
0
 40
0
 40
0
 40
1
 40
1
 40
1
 40
1
 10
188.347090
 20
60.595495
 30
0.0
 10
188.037689
 20
60.416862
 30
0.0
 10
187.656491
 20
60.416862
 30
0.0
 10
187.347090
 20
60.595495
 30
0.0
  0
SPLINE
  5
1cf
100
AcDbEntity
  8
Layer_1
 62
5
100
AcDbSpline
 70
8
 71
3
 72
8
 73
4
 74
0
 40
0
 40
0
 40
0
 40
0
 40
1
 40
1
 40
1
 40
1
 10
187.347090
 20
60.595495
 30
0.0
 10
187.037689
 20
60.774127
 30
0.0
 10
186.847090
 20
61.104254
 30
0.0
 10
186.847090
 20
61.461520
 30
0.0
  0
SPLINE
  5
1d0
100
AcDbEntity
  8
Layer_1
 62
5
100
AcDbSpline
 70
8
 71
3
 72
8
 73
4
 74
0
 40
0
 40
0
 40
0
 40
0
 40
1
 40
1
 40
1
 40
1
 10
186.847090
 20
61.461520
 30
0.0
 10
186.847090
 20
61.818786
 30
0.0
 10
187.037689
 20
62.148913
 30
0.0
 10
187.347090
 20
62.327545
 30
0.0
  0
SPLINE
  5
1d1
100
AcDbEntity
  8
Layer_1
 62
5
100
AcDbSpline
 70
8
 71
3
 72
8
 73
4
 74
0
 40
0
 40
0
 40
0
 40
0
 40
1
 40
1
 40
1
 40
1
 10
187.347090
 20
62.327545
 30
0.0
 10
187.656491
 20
62.506178
 30
0.0
 10
188.037689
 20
62.506178
 30
0.0
 10
188.347090
 20
62.327545
 30
0.0
  0
SPLINE
  5
1d2
100
AcDbEntity
  8
Layer_1
 62
5
100
AcDbSpline
 70
8
 71
3
 72
8
 73
4
 74
0
 40
0
 40
0
 40
0
 40
0
 40
1
 40
1
 40
1
 40
1
 10
188.347090
 20
62.327545
 30
0.0
 10
188.656491
 20
62.148913
 30
0.0
 10
188.847090
 20
61.818786
 30
0.0
 10
188.847090
 20
61.461520
 30
0.0
  0
LINE
  5
1d3
100
AcDbEntity
  8
Layer_1
 62
5
100
AcDbLine
 10
188.847090
 20
61.461520
 30
0.0
 11
188.847090
 21
61.461520
 31
0.0
  0
LINE
  5
1d4
100
AcDbEntity
  8
Layer_1
 62
7
100
AcDbLine
 10
214.082890
 20
82.185390
 30
0.0
 11
214.082890
 21
-13.229840
 31
0.0
  0
LINE
  5
1d5
100
AcDbEntity
  8
Layer_1
 62
7
100
AcDbLine
 10
301.480020
 20
82.452660
 30
0.0
 11
301.480020
 21
-13.229830
 31
0.0
  0
SPLINE
  5
1d6
100
AcDbEntity
  8
Layer_1
 62
7
100
AcDbSpline
 70
8
 71
3
 72
8
 73
4
 74
0
 40
0
 40
0
 40
0
 40
0
 40
1
 40
1
 40
1
 40
1
 10
208.776520
 20
31.280980
 30
0.0
 10
208.383528
 20
31.280980
 30
0.0
 10
208.020388
 20
31.490639
 30
0.0
 10
207.823892
 20
31.830980
 30
0.0
  0
SPLINE
  5
1d7
100
AcDbEntity
  8
Layer_1
 62
7
100
AcDbSpline
 70
8
 71
3
 72
8
 73
4
 74
0
 40
0
 40
0
 40
0
 40
0
 40
1
 40
1
 40
1
 40
1
 10
207.823892
 20
31.830980
 30
0.0
 10
207.627396
 20
32.171321
 30
0.0
 10
207.627396
 20
32.590639
 30
0.0
 10
207.823892
 20
32.930980
 30
0.0
  0
SPLINE
  5
1d8
100
AcDbEntity
  8
Layer_1
 62
7
100
AcDbSpline
 70
8
 71
3
 72
8
 73
4
 74
0
 40
0
 40
0
 40
0
 40
0
 40
1
 40
1
 40
1
 40
1
 10
207.823892
 20
32.930980
 30
0.0
 10
208.020388
 20
33.271321
 30
0.0
 10
208.383528
 20
33.480980
 30
0.0
 10
208.776520
 20
33.480980
 30
0.0
  0
SPLINE
  5
1d9
100
AcDbEntity
  8
Layer_1
 62
7
100
AcDbSpline
 70
8
 71
3
 72
8
 73
4
 74
0
 40
0
 40
0
 40
0
 40
0
 40
1
 40
1
 40
1
 40
1
 10
208.776520
 20
33.480980
 30
0.0
 10
209.169512
 20
33.480980
 30
0.0
 10
209.532652
 20
33.271321
 30
0.0
 10
209.729148
 20
32.930980
 30
0.0
  0
SPLINE
  5
1da
100
AcDbEntity
  8
Layer_1
 62
7
100
AcDbSpline
 70
8
 71
3
 72
8
 73
4
 74
0
 40
0
 40
0
 40
0
 40
0
 40
1
 40
1
 40
1
 40
1
 10
209.729148
 20
32.930980
 30
0.0
 10
209.925644
 20
32.590639
 30
0.0
 10
209.925644
 20
32.171321
 30
0.0
 10
209.729148
 20
31.830980
 30
0.0
  0
SPLINE
  5
1db
100
AcDbEntity
  8
Layer_1
 62
7
100
AcDbSpline
 70
8
 71
3
 72
8
 73
4
 74
0
 40
0
 40
0
 40
0
 40
0
 40
1
 40
1
 40
1
 40
1
 10
209.729148
 20
31.830980
 30
0.0
 10
209.532652
 20
31.490639
 30
0.0
 10
209.169512
 20
31.280980
 30
0.0
 10
208.776520
 20
31.280980
 30
0.0
  0
LINE
  5
1dc
100
AcDbEntity
  8
Layer_1
 62
7
100
AcDbLine
 10
208.776520
 20
31.280980
 30
0.0
 11
208.776520
 21
31.280980
 31
0.0
  0
SPLINE
  5
1dd
100
AcDbEntity
  8
Layer_1
 62
7
100
AcDbSpline
 70
8
 71
3
 72
8
 73
4
 74
0
 40
0
 40
0
 40
0
 40
0
 40
1
 40
1
 40
1
 40
1
 10
188.531170
 20
31.280980
 30
0.0
 10
188.138178
 20
31.280980
 30
0.0
 10
187.775038
 20
31.490639
 30
0.0
 10
187.578542
 20
31.830980
 30
0.0
  0
SPLINE
  5
1de
100
AcDbEntity
  8
Layer_1
 62
7
100
AcDbSpline
 70
8
 71
3
 72
8
 73
4
 74
0
 40
0
 40
0
 40
0
 40
0
 40
1
 40
1
 40
1
 40
1
 10
187.578542
 20
31.830980
 30
0.0
 10
187.382046
 20
32.171321
 30
0.0
 10
187.382046
 20
32.590639
 30
0.0
 10
187.578542
 20
32.930980
 30
0.0
  0
SPLINE
  5
1df
100
AcDbEntity
  8
Layer_1
 62
7
100
AcDbSpline
 70
8
 71
3
 72
8
 73
4
 74
0
 40
0
 40
0
 40
0
 40
0
 40
1
 40
1
 40
1
 40
1
 10
187.578542
 20
32.930980
 30
0.0
 10
187.775038
 20
33.271321
 30
0.0
 10
188.138178
 20
33.480980
 30
0.0
 10
188.531170
 20
33.480980
 30
0.0
  0
SPLINE
  5
1e0
100
AcDbEntity
  8
Layer_1
 62
7
100
AcDbSpline
 70
8
 71
3
 72
8
 73
4
 74
0
 40
0
 40
0
 40
0
 40
0
 40
1
 40
1
 40
1
 40
1
 10
188.531170
 20
33.480980
 30
0.0
 10
188.924162
 20
33.480980
 30
0.0
 10
189.287302
 20
33.271321
 30
0.0
 10
189.483798
 20
32.930980
 30
0.0
  0
SPLINE
  5
1e1
100
AcDbEntity
  8
Layer_1
 62
7
100
AcDbSpline
 70
8
 71
3
 72
8
 73
4
 74
0
 40
0
 40
0
 40
0
 40
0
 40
1
 40
1
 40
1
 40
1
 10
189.483798
 20
32.930980
 30
0.0
 10
189.680294
 20
32.590639
 30
0.0
 10
189.680294
 20
32.171321
 30
0.0
 10
189.483798
 20
31.830980
 30
0.0
  0
SPLINE
  5
1e2
100
AcDbEntity
  8
Layer_1
 62
7
100
AcDbSpline
 70
8
 71
3
 72
8
 73
4
 74
0
 40
0
 40
0
 40
0
 40
0
 40
1
 40
1
 40
1
 40
1
 10
189.483798
 20
31.830980
 30
0.0
 10
189.287302
 20
31.490639
 30
0.0
 10
188.924162
 20
31.280980
 30
0.0
 10
188.531170
 20
31.280980
 30
0.0
  0
LINE
  5
1e3
100
AcDbEntity
  8
Layer_1
 62
7
100
AcDbLine
 10
188.531170
 20
31.280980
 30
0.0
 11
188.531170
 21
31.280980
 31
0.0
  0
SPLINE
  5
1e4
100
AcDbEntity
  8
Layer_1
 62
7
100
AcDbSpline
 70
8
 71
3
 72
8
 73
4
 74
0
 40
0
 40
0
 40
0
 40
0
 40
1
 40
1
 40
1
 40
1
 10
188.531170
 20
4.562780
 30
0.0
 10
188.138178
 20
4.562780
 30
0.0
 10
187.775038
 20
4.772439
 30
0.0
 10
187.578542
 20
5.112780
 30
0.0
  0
SPLINE
  5
1e5
100
AcDbEntity
  8
Layer_1
 62
7
100
AcDbSpline
 70
8
 71
3
 72
8
 73
4
 74
0
 40
0
 40
0
 40
0
 40
0
 40
1
 40
1
 40
1
 40
1
 10
187.578542
 20
5.112780
 30
0.0
 10
187.382046
 20
5.453121
 30
0.0
 10
187.382046
 20
5.872439
 30
0.0
 10
187.578542
 20
6.212780
 30
0.0
  0
SPLINE
  5
1e6
100
AcDbEntity
  8
Layer_1
 62
7
100
AcDbSpline
 70
8
 71
3
 72
8
 73
4
 74
0
 40
0
 40
0
 40
0
 40
0
 40
1
 40
1
 40
1
 40
1
 10
187.578542
 20
6.212780
 30
0.0
 10
187.775038
 20
6.553121
 30
0.0
 10
188.138178
 20
6.762780
 30
0.0
 10
188.531170
 20
6.762780
 30
0.0
  0
SPLINE
  5
1e7
100
AcDbEntity
  8
Layer_1
 62
7
100
AcDbSpline
 70
8
 71
3
 72
8
 73
4
 74
0
 40
0
 40
0
 40
0
 40
0
 40
1
 40
1
 40
1
 40
1
 10
188.531170
 20
6.762780
 30
0.0
 10
188.924162
 20
6.762780
 30
0.0
 10
189.287302
 20
6.553121
 30
0.0
 10
189.483798
 20
6.212780
 30
0.0
  0
SPLINE
  5
1e8
100
AcDbEntity
  8
Layer_1
 62
7
100
AcDbSpline
 70
8
 71
3
 72
8
 73
4
 74
0
 40
0
 40
0
 40
0
 40
0
 40
1
 40
1
 40
1
 40
1
 10
189.483798
 20
6.212780
 30
0.0
 10
189.680294
 20
5.872439
 30
0.0
 10
189.680294
 20
5.453121
 30
0.0
 10
189.483798
 20
5.112780
 30
0.0
  0
SPLINE
  5
1e9
100
AcDbEntity
  8
Layer_1
 62
7
100
AcDbSpline
 70
8
 71
3
 72
8
 73
4
 74
0
 40
0
 40
0
 40
0
 40
0
 40
1
 40
1
 40
1
 40
1
 10
189.483798
 20
5.112780
 30
0.0
 10
189.287302
 20
4.772439
 30
0.0
 10
188.924162
 20
4.562780
 30
0.0
 10
188.531170
 20
4.562780
 30
0.0
  0
LINE
  5
1ea
100
AcDbEntity
  8
Layer_1
 62
7
100
AcDbLine
 10
188.531170
 20
4.562780
 30
0.0
 11
188.531170
 21
4.562780
 31
0.0
  0
SPLINE
  5
1eb
100
AcDbEntity
  8
Layer_1
 62
7
100
AcDbSpline
 70
8
 71
3
 72
8
 73
4
 74
0
 40
0
 40
0
 40
0
 40
0
 40
1
 40
1
 40
1
 40
1
 10
208.800140
 20
4.562780
 30
0.0
 10
208.407148
 20
4.562780
 30
0.0
 10
208.044008
 20
4.772439
 30
0.0
 10
207.847512
 20
5.112780
 30
0.0
  0
SPLINE
  5
1ec
100
AcDbEntity
  8
Layer_1
 62
7
100
AcDbSpline
 70
8
 71
3
 72
8
 73
4
 74
0
 40
0
 40
0
 40
0
 40
0
 40
1
 40
1
 40
1
 40
1
 10
207.847512
 20
5.112780
 30
0.0
 10
207.651016
 20
5.453121
 30
0.0
 10
207.651016
 20
5.872439
 30
0.0
 10
207.847512
 20
6.212780
 30
0.0
  0
SPLINE
  5
1ed
100
AcDbEntity
  8
Layer_1
 62
7
100
AcDbSpline
 70
8
 71
3
 72
8
 73
4
 74
0
 40
0
 40
0
 40
0
 40
0
 40
1
 40
1
 40
1
 40
1
 10
207.847512
 20
6.212780
 30
0.0
 10
208.044008
 20
6.553121
 30
0.0
 10
208.407148
 20
6.762780
 30
0.0
 10
208.800140
 20
6.762780
 30
0.0
  0
SPLINE
  5
1ee
100
AcDbEntity
  8
Layer_1
 62
7
100
AcDbSpline
 70
8
 71
3
 72
8
 73
4
 74
0
 40
0
 40
0
 40
0
 40
0
 40
1
 40
1
 40
1
 40
1
 10
208.800140
 20
6.762780
 30
0.0
 10
209.193132
 20
6.762780
 30
0.0
 10
209.556272
 20
6.553121
 30
0.0
 10
209.752768
 20
6.212780
 30
0.0
  0
SPLINE
  5
1ef
100
AcDbEntity
  8
Layer_1
 62
7
100
AcDbSpline
 70
8
 71
3
 72
8
 73
4
 74
0
 40
0
 40
0
 40
0
 40
0
 40
1
 40
1
 40
1
 40
1
 10
209.752768
 20
6.212780
 30
0.0
 10
209.949264
 20
5.872439
 30
0.0
 10
209.949264
 20
5.453121
 30
0.0
 10
209.752768
 20
5.112780
 30
0.0
  0
SPLINE
  5
1f0
100
AcDbEntity
  8
Layer_1
 62
7
100
AcDbSpline
 70
8
 71
3
 72
8
 73
4
 74
0
 40
0
 40
0
 40
0
 40
0
 40
1
 40
1
 40
1
 40
1
 10
209.752768
 20
5.112780
 30
0.0
 10
209.556272
 20
4.772439
 30
0.0
 10
209.193132
 20
4.562780
 30
0.0
 10
208.800140
 20
4.562780
 30
0.0
  0
LINE
  5
1f1
100
AcDbEntity
  8
Layer_1
 62
7
100
AcDbLine
 10
208.800140
 20
4.562780
 30
0.0
 11
208.800140
 21
4.562780
 31
0.0
  0
SPLINE
  5
1f2
100
AcDbEntity
  8
Layer_1
 62
7
100
AcDbSpline
 70
8
 71
3
 72
8
 73
4
 74
0
 40
0
 40
0
 40
0
 40
0
 40
1
 40
1
 40
1
 40
1
 10
198.760150
 20
9.655849
 30
0.0
 10
194.740912
 20
9.655849
 30
0.0
 10
191.026982
 20
11.800087
 30
0.0
 10
189.017363
 20
15.280850
 30
0.0
  0
SPLINE
  5
1f3
100
AcDbEntity
  8
Layer_1
 62
7
100
AcDbSpline
 70
8
 71
3
 72
8
 73
4
 74
0
 40
0
 40
0
 40
0
 40
0
 40
1
 40
1
 40
1
 40
1
 10
189.017363
 20
15.280850
 30
0.0
 10
187.007744
 20
18.761612
 30
0.0
 10
187.007744
 20
23.050088
 30
0.0
 10
189.017363
 20
26.530851
 30
0.0
  0
SPLINE
  5
1f4
100
AcDbEntity
  8
Layer_1
 62
7
100
AcDbSpline
 70
8
 71
3
 72
8
 73
4
 74
0
 40
0
 40
0
 40
0
 40
0
 40
1
 40
1
 40
1
 40
1
 10
189.017363
 20
26.530851
 30
0.0
 10
191.026982
 20
30.011613
 30
0.0
 10
194.740912
 20
32.155851
 30
0.0
 10
198.760150
 20
32.155851
 30
0.0
  0
SPLINE
  5
1f5
100
AcDbEntity
  8
Layer_1
 62
7
100
AcDbSpline
 70
8
 71
3
 72
8
 73
4
 74
0
 40
0
 40
0
 40
0
 40
0
 40
1
 40
1
 40
1
 40
1
 10
198.760150
 20
32.155851
 30
0.0
 10
202.779388
 20
32.155851
 30
0.0
 10
206.493318
 20
30.011613
 30
0.0
 10
208.502937
 20
26.530851
 30
0.0
  0
SPLINE
  5
1f6
100
AcDbEntity
  8
Layer_1
 62
7
100
AcDbSpline
 70
8
 71
3
 72
8
 73
4
 74
0
 40
0
 40
0
 40
0
 40
0
 40
1
 40
1
 40
1
 40
1
 10
208.502937
 20
26.530851
 30
0.0
 10
210.512556
 20
23.050088
 30
0.0
 10
210.512556
 20
18.761612
 30
0.0
 10
208.502937
 20
15.280850
 30
0.0
  0
SPLINE
  5
1f7
100
AcDbEntity
  8
Layer_1
 62
7
100
AcDbSpline
 70
8
 71
3
 72
8
 73
4
 74
0
 40
0
 40
0
 40
0
 40
0
 40
1
 40
1
 40
1
 40
1
 10
208.502937
 20
15.280850
 30
0.0
 10
206.493318
 20
11.800087
 30
0.0
 10
202.779388
 20
9.655849
 30
0.0
 10
198.760150
 20
9.655849
 30
0.0
  0
LINE
  5
1f8
100
AcDbEntity
  8
Layer_1
 62
7
100
AcDbLine
 10
198.760150
 20
9.655849
 30
0.0
 11
198.760150
 21
9.655849
 31
0.0
  0
SPLINE
  5
1f9
100
AcDbEntity
  8
Layer_1
 62
1
100
AcDbSpline
 70
8
 71
3
 72
8
 73
4
 74
0
 40
0
 40
0
 40
0
 40
0
 40
1
 40
1
 40
1
 40
1
 10
154.438201
 20
28.330570
 30
0.0
 10
154.438201
 20
26.722875
 30
0.0
 10
153.580505
 20
25.237303
 30
0.0
 10
152.188200
 20
24.433455
 30
0.0
  0
SPLINE
  5
1fa
100
AcDbEntity
  8
Layer_1
 62
1
100
AcDbSpline
 70
8
 71
3
 72
8
 73
4
 74
0
 40
0
 40
0
 40
0
 40
0
 40
1
 40
1
 40
1
 40
1
 10
152.188200
 20
24.433455
 30
0.0
 10
150.795895
 20
23.629608
 30
0.0
 10
149.080505
 20
23.629608
 30
0.0
 10
147.688200
 20
24.433455
 30
0.0
  0
SPLINE
  5
1fb
100
AcDbEntity
  8
Layer_1
 62
1
100
AcDbSpline
 70
8
 71
3
 72
8
 73
4
 74
0
 40
0
 40
0
 40
0
 40
0
 40
1
 40
1
 40
1
 40
1
 10
147.688200
 20
24.433455
 30
0.0
 10
146.295895
 20
25.237303
 30
0.0
 10
145.438200
 20
26.722875
 30
0.0
 10
145.438200
 20
28.330570
 30
0.0
  0
SPLINE
  5
1fc
100
AcDbEntity
  8
Layer_1
 62
1
100
AcDbSpline
 70
8
 71
3
 72
8
 73
4
 74
0
 40
0
 40
0
 40
0
 40
0
 40
1
 40
1
 40
1
 40
1
 10
145.438200
 20
28.330570
 30
0.0
 10
145.438200
 20
29.938265
 30
0.0
 10
146.295895
 20
31.423837
 30
0.0
 10
147.688200
 20
32.227685
 30
0.0
  0
SPLINE
  5
1fd
100
AcDbEntity
  8
Layer_1
 62
1
100
AcDbSpline
 70
8
 71
3
 72
8
 73
4
 74
0
 40
0
 40
0
 40
0
 40
0
 40
1
 40
1
 40
1
 40
1
 10
147.688200
 20
32.227685
 30
0.0
 10
149.080505
 20
33.031532
 30
0.0
 10
150.795895
 20
33.031532
 30
0.0
 10
152.188200
 20
32.227685
 30
0.0
  0
SPLINE
  5
1fe
100
AcDbEntity
  8
Layer_1
 62
1
100
AcDbSpline
 70
8
 71
3
 72
8
 73
4
 74
0
 40
0
 40
0
 40
0
 40
0
 40
1
 40
1
 40
1
 40
1
 10
152.188200
 20
32.227685
 30
0.0
 10
153.580505
 20
31.423837
 30
0.0
 10
154.438201
 20
29.938265
 30
0.0
 10
154.438201
 20
28.330570
 30
0.0
  0
LINE
  5
1ff
100
AcDbEntity
  8
Layer_1
 62
1
100
AcDbLine
 10
154.438201
 20
28.330570
 30
0.0
 11
154.438201
 21
28.330570
 31
0.0
  0
LINE
  5
200
100
AcDbEntity
  8
Layer_1
 62
7
100
AcDbLine
 10
371.981600
 20
77.999880
 30
0.0
 11
-10.258388
 21
77.999880
 31
0.0
  0
LINE
  5
201
100
AcDbEntity
  8
Layer_1
 62
1
100
AcDbLine
 10
169.399040
 20
71.084730
 30
0.0
 11
169.399040
 21
60.986140
 31
0.0
  0
LINE
  5
202
100
AcDbEntity
  8
Layer_1
 62
1
100
AcDbLine
 10
169.399040
 20
60.986140
 30
0.0
 11
166.012370
 21
60.986140
 31
0.0
  0
LINE
  5
203
100
AcDbEntity
  8
Layer_1
 62
1
100
AcDbLine
 10
166.012370
 20
60.986140
 30
0.0
 11
166.012370
 21
71.084730
 31
0.0
  0
LINE
  5
204
100
AcDbEntity
  8
Layer_1
 62
1
100
AcDbLine
 10
166.012370
 20
71.084730
 30
0.0
 11
169.399040
 21
71.084730
 31
0.0
  0
LINE
  5
205
100
AcDbEntity
  8
Layer_1
 62
1
100
AcDbLine
 10
169.399040
 20
50.616590
 30
0.0
 11
169.399040
 21
40.518000
 31
0.0
  0
LINE
  5
206
100
AcDbEntity
  8
Layer_1
 62
1
100
AcDbLine
 10
169.399040
 20
40.518000
 30
0.0
 11
166.012370
 21
40.518000
 31
0.0
  0
LINE
  5
207
100
AcDbEntity
  8
Layer_1
 62
1
100
AcDbLine
 10
166.012370
 20
40.518000
 30
0.0
 11
166.012370
 21
50.616590
 31
0.0
  0
LINE
  5
208
100
AcDbEntity
  8
Layer_1
 62
1
100
AcDbLine
 10
166.012370
 20
50.616590
 30
0.0
 11
169.399040
 21
50.616590
 31
0.0
  0
LINE
  5
209
100
AcDbEntity
  8
Layer_1
 62
1
100
AcDbLine
 10
169.399040
 20
30.148450
 30
0.0
 11
169.399040
 21
20.049830
 31
0.0
  0
LINE
  5
20a
100
AcDbEntity
  8
Layer_1
 62
1
100
AcDbLine
 10
169.399040
 20
20.049830
 30
0.0
 11
166.012370
 21
20.049830
 31
0.0
  0
LINE
  5
20b
100
AcDbEntity
  8
Layer_1
 62
1
100
AcDbLine
 10
166.012370
 20
20.049830
 30
0.0
 11
166.012370
 21
30.148450
 31
0.0
  0
LINE
  5
20c
100
AcDbEntity
  8
Layer_1
 62
1
100
AcDbLine
 10
166.012370
 20
30.148450
 30
0.0
 11
169.399040
 21
30.148450
 31
0.0
  0
LINE
  5
20d
100
AcDbEntity
  8
Layer_1
 62
1
100
AcDbLine
 10
328.075160
 20
30.148450
 30
0.0
 11
328.075160
 21
20.049830
 31
0.0
  0
LINE
  5
20e
100
AcDbEntity
  8
Layer_1
 62
1
100
AcDbLine
 10
328.075160
 20
20.049830
 30
0.0
 11
324.688490
 21
20.049830
 31
0.0
  0
LINE
  5
20f
100
AcDbEntity
  8
Layer_1
 62
1
100
AcDbLine
 10
324.688490
 20
20.049830
 30
0.0
 11
324.688490
 21
30.148450
 31
0.0
  0
LINE
  5
210
100
AcDbEntity
  8
Layer_1
 62
1
100
AcDbLine
 10
324.688490
 20
30.148450
 30
0.0
 11
328.075160
 21
30.148450
 31
0.0
  0
LINE
  5
211
100
AcDbEntity
  8
Layer_1
 62
1
100
AcDbLine
 10
169.399040
 20
9.680310
 30
0.0
 11
169.399040
 21
-0.418300
 31
0.0
  0
LINE
  5
212
100
AcDbEntity
  8
Layer_1
 62
1
100
AcDbLine
 10
169.399040
 20
-0.418300
 30
0.0
 11
166.012370
 21
-0.418300
 31
0.0
  0
LINE
  5
213
100
AcDbEntity
  8
Layer_1
 62
1
100
AcDbLine
 10
166.012370
 20
-0.418300
 30
0.0
 11
166.012370
 21
9.680310
 31
0.0
  0
LINE
  5
214
100
AcDbEntity
  8
Layer_1
 62
1
100
AcDbLine
 10
166.012370
 20
9.680310
 30
0.0
 11
169.399040
 21
9.680310
 31
0.0
  0
LINE
  5
215
100
AcDbEntity
  8
Layer_1
 62
1
100
AcDbLine
 10
328.075160
 20
9.680310
 30
0.0
 11
328.075160
 21
-0.418300
 31
0.0
  0
LINE
  5
216
100
AcDbEntity
  8
Layer_1
 62
1
100
AcDbLine
 10
328.075160
 20
-0.418300
 30
0.0
 11
324.688490
 21
-0.418300
 31
0.0
  0
LINE
  5
217
100
AcDbEntity
  8
Layer_1
 62
1
100
AcDbLine
 10
324.688490
 20
-0.418300
 30
0.0
 11
324.688490
 21
9.680310
 31
0.0
  0
LINE
  5
218
100
AcDbEntity
  8
Layer_1
 62
1
100
AcDbLine
 10
324.688490
 20
9.680310
 30
0.0
 11
328.075160
 21
9.680310
 31
0.0
  0
LINE
  5
219
100
AcDbEntity
  8
Layer_1
 62
7
100
AcDbLine
 10
-10.258388
 20
77.999880
 30
0.0
 11
-10.258388
 21
71.084730
 31
0.0
  0
LINE
  5
21a
100
AcDbEntity
  8
Layer_1
 62
7
100
AcDbLine
 10
-10.258388
 20
71.084730
 30
0.0
 11
-6.871718
 21
71.084730
 31
0.0
  0
LINE
  5
21b
100
AcDbEntity
  8
Layer_1
 62
7
100
AcDbLine
 10
-6.871718
 20
71.084730
 30
0.0
 11
-6.871718
 21
60.986140
 31
0.0
  0
LINE
  5
21c
100
AcDbEntity
  8
Layer_1
 62
7
100
AcDbLine
 10
-6.871718
 20
60.986140
 30
0.0
 11
-10.258388
 21
60.986140
 31
0.0
  0
LINE
  5
21d
100
AcDbEntity
  8
Layer_1
 62
7
100
AcDbLine
 10
-10.258388
 20
60.986140
 30
0.0
 11
-10.258388
 21
50.616590
 31
0.0
  0
LINE
  5
21e
100
AcDbEntity
  8
Layer_1
 62
7
100
AcDbLine
 10
-10.258388
 20
50.616590
 30
0.0
 11
-6.871718
 21
50.616590
 31
0.0
  0
LINE
  5
21f
100
AcDbEntity
  8
Layer_1
 62
7
100
AcDbLine
 10
-6.871718
 20
50.616590
 30
0.0
 11
-6.871718
 21
40.518000
 31
0.0
  0
LINE
  5
220
100
AcDbEntity
  8
Layer_1
 62
7
100
AcDbLine
 10
-6.871718
 20
40.518000
 30
0.0
 11
-10.258388
 21
40.518000
 31
0.0
  0
LINE
  5
221
100
AcDbEntity
  8
Layer_1
 62
7
100
AcDbLine
 10
-10.258388
 20
40.518000
 30
0.0
 11
-10.258388
 21
30.148450
 31
0.0
  0
LINE
  5
222
100
AcDbEntity
  8
Layer_1
 62
7
100
AcDbLine
 10
-10.258388
 20
30.148450
 30
0.0
 11
-6.871718
 21
30.148450
 31
0.0
  0
LINE
  5
223
100
AcDbEntity
  8
Layer_1
 62
7
100
AcDbLine
 10
-6.871718
 20
30.148450
 30
0.0
 11
-6.871718
 21
20.049830
 31
0.0
  0
LINE
  5
224
100
AcDbEntity
  8
Layer_1
 62
7
100
AcDbLine
 10
-6.871718
 20
20.049830
 30
0.0
 11
-10.258388
 21
20.049830
 31
0.0
  0
LINE
  5
225
100
AcDbEntity
  8
Layer_1
 62
7
100
AcDbLine
 10
-10.258388
 20
20.049830
 30
0.0
 11
-10.258388
 21
9.680310
 31
0.0
  0
LINE
  5
226
100
AcDbEntity
  8
Layer_1
 62
7
100
AcDbLine
 10
-10.258388
 20
9.680310
 30
0.0
 11
-6.871718
 21
9.680310
 31
0.0
  0
LINE
  5
227
100
AcDbEntity
  8
Layer_1
 62
7
100
AcDbLine
 10
-6.871718
 20
9.680310
 30
0.0
 11
-6.871718
 21
-0.418300
 31
0.0
  0
LINE
  5
228
100
AcDbEntity
  8
Layer_1
 62
7
100
AcDbLine
 10
-6.871718
 20
-0.418300
 30
0.0
 11
-10.258388
 21
-0.418300
 31
0.0
  0
LINE
  5
229
100
AcDbEntity
  8
Layer_1
 62
7
100
AcDbLine
 10
-10.258388
 20
-0.418300
 30
0.0
 11
-10.258388
 21
-7.333450
 31
0.0
  0
LINE
  5
22a
100
AcDbEntity
  8
Layer_1
 62
7
100
AcDbLine
 10
-10.258388
 20
-7.333450
 30
0.0
 11
-1.436838
 21
-7.333450
 31
0.0
  0
LINE
  5
22b
100
AcDbEntity
  8
Layer_1
 62
7
100
AcDbLine
 10
-1.436838
 20
-7.333450
 30
0.0
 11
-1.436838
 21
-10.720120
 31
0.0
  0
LINE
  5
22c
100
AcDbEntity
  8
Layer_1
 62
7
100
AcDbLine
 10
-1.436838
 20
-10.720120
 30
0.0
 11
7.587922
 21
-10.720120
 31
0.0
  0
LINE
  5
22d
100
AcDbEntity
  8
Layer_1
 62
7
100
AcDbLine
 10
7.587922
 20
-10.720120
 30
0.0
 11
7.587922
 21
-7.333450
 31
0.0
  0
LINE
  5
22e
100
AcDbEntity
  8
Layer_1
 62
7
100
AcDbLine
 10
7.587922
 20
-7.333450
 30
0.0
 11
16.341792
 21
-7.333450
 31
0.0
  0
LINE
  5
22f
100
AcDbEntity
  8
Layer_1
 62
7
100
AcDbLine
 10
16.341792
 20
-7.333450
 30
0.0
 11
16.341792
 21
-10.720120
 31
0.0
  0
LINE
  5
230
100
AcDbEntity
  8
Layer_1
 62
7
100
AcDbLine
 10
16.341792
 20
-10.720120
 30
0.0
 11
25.366542
 21
-10.720120
 31
0.0
  0
LINE
  5
231
100
AcDbEntity
  8
Layer_1
 62
7
100
AcDbLine
 10
25.366542
 20
-10.720120
 30
0.0
 11
25.366542
 21
-7.333450
 31
0.0
  0
LINE
  5
232
100
AcDbEntity
  8
Layer_1
 62
7
100
AcDbLine
 10
25.366542
 20
-7.333450
 30
0.0
 11
34.120362
 21
-7.333450
 31
0.0
  0
LINE
  5
233
100
AcDbEntity
  8
Layer_1
 62
7
100
AcDbLine
 10
34.120362
 20
-7.333450
 30
0.0
 11
34.120362
 21
-10.720120
 31
0.0
  0
LINE
  5
234
100
AcDbEntity
  8
Layer_1
 62
7
100
AcDbLine
 10
34.120362
 20
-10.720120
 30
0.0
 11
43.145162
 21
-10.720120
 31
0.0
  0
LINE
  5
235
100
AcDbEntity
  8
Layer_1
 62
7
100
AcDbLine
 10
43.145162
 20
-10.720120
 30
0.0
 11
43.145162
 21
-7.333450
 31
0.0
  0
LINE
  5
236
100
AcDbEntity
  8
Layer_1
 62
7
100
AcDbLine
 10
43.145162
 20
-7.333450
 30
0.0
 11
51.898982
 21
-7.333450
 31
0.0
  0
LINE
  5
237
100
AcDbEntity
  8
Layer_1
 62
7
100
AcDbLine
 10
51.898982
 20
-7.333450
 30
0.0
 11
51.898982
 21
-10.720120
 31
0.0
  0
LINE
  5
238
100
AcDbEntity
  8
Layer_1
 62
7
100
AcDbLine
 10
51.898982
 20
-10.720120
 30
0.0
 11
60.923742
 21
-10.720120
 31
0.0
  0
LINE
  5
239
100
AcDbEntity
  8
Layer_1
 62
7
100
AcDbLine
 10
60.923742
 20
-10.720120
 30
0.0
 11
60.923742
 21
-7.333450
 31
0.0
  0
LINE
  5
23a
100
AcDbEntity
  8
Layer_1
 62
7
100
AcDbLine
 10
60.923742
 20
-7.333450
 30
0.0
 11
69.677582
 21
-7.333450
 31
0.0
  0
LINE
  5
23b
100
AcDbEntity
  8
Layer_1
 62
7
100
AcDbLine
 10
69.677582
 20
-7.333450
 30
0.0
 11
69.677582
 21
-10.720120
 31
0.0
  0
LINE
  5
23c
100
AcDbEntity
  8
Layer_1
 62
7
100
AcDbLine
 10
69.677582
 20
-10.720120
 30
0.0
 11
78.702362
 21
-10.720120
 31
0.0
  0
LINE
  5
23d
100
AcDbEntity
  8
Layer_1
 62
7
100
AcDbLine
 10
78.702362
 20
-10.720120
 30
0.0
 11
78.702362
 21
-7.333450
 31
0.0
  0
LINE
  5
23e
100
AcDbEntity
  8
Layer_1
 62
7
100
AcDbLine
 10
78.702362
 20
-7.333450
 30
0.0
 11
87.456212
 21
-7.333450
 31
0.0
  0
LINE
  5
23f
100
AcDbEntity
  8
Layer_1
 62
7
100
AcDbLine
 10
87.456212
 20
-7.333450
 30
0.0
 11
87.456212
 21
-10.720120
 31
0.0
  0
LINE
  5
240
100
AcDbEntity
  8
Layer_1
 62
7
100
AcDbLine
 10
87.456212
 20
-10.720120
 30
0.0
 11
96.480962
 21
-10.720120
 31
0.0
  0
LINE
  5
241
100
AcDbEntity
  8
Layer_1
 62
7
100
AcDbLine
 10
96.480962
 20
-10.720120
 30
0.0
 11
96.480962
 21
-7.333450
 31
0.0
  0
LINE
  5
242
100
AcDbEntity
  8
Layer_1
 62
7
100
AcDbLine
 10
96.480962
 20
-7.333450
 30
0.0
 11
105.234780
 21
-7.333450
 31
0.0
  0
LINE
  5
243
100
AcDbEntity
  8
Layer_1
 62
7
100
AcDbLine
 10
105.234780
 20
-7.333450
 30
0.0
 11
105.234780
 21
-10.720120
 31
0.0
  0
LINE
  5
244
100
AcDbEntity
  8
Layer_1
 62
7
100
AcDbLine
 10
105.234780
 20
-10.720120
 30
0.0
 11
114.259570
 21
-10.720120
 31
0.0
  0
LINE
  5
245
100
AcDbEntity
  8
Layer_1
 62
7
100
AcDbLine
 10
114.259570
 20
-10.720120
 30
0.0
 11
114.259570
 21
-7.333450
 31
0.0
  0
LINE
  5
246
100
AcDbEntity
  8
Layer_1
 62
7
100
AcDbLine
 10
114.259570
 20
-7.333450
 30
0.0
 11
123.013390
 21
-7.333450
 31
0.0
  0
LINE
  5
247
100
AcDbEntity
  8
Layer_1
 62
7
100
AcDbLine
 10
123.013390
 20
-7.333450
 30
0.0
 11
123.013390
 21
-10.720120
 31
0.0
  0
LINE
  5
248
100
AcDbEntity
  8
Layer_1
 62
7
100
AcDbLine
 10
123.013390
 20
-10.720120
 30
0.0
 11
132.038150
 21
-10.720120
 31
0.0
  0
LINE
  5
249
100
AcDbEntity
  8
Layer_1
 62
7
100
AcDbLine
 10
132.038150
 20
-10.720120
 30
0.0
 11
132.038150
 21
-7.333450
 31
0.0
  0
LINE
  5
24a
100
AcDbEntity
  8
Layer_1
 62
7
100
AcDbLine
 10
132.038150
 20
-7.333450
 30
0.0
 11
140.792010
 21
-7.333450
 31
0.0
  0
LINE
  5
24b
100
AcDbEntity
  8
Layer_1
 62
7
100
AcDbLine
 10
140.792010
 20
-7.333450
 30
0.0
 11
140.792010
 21
-10.720120
 31
0.0
  0
LINE
  5
24c
100
AcDbEntity
  8
Layer_1
 62
7
100
AcDbLine
 10
140.792010
 20
-10.720120
 30
0.0
 11
149.816770
 21
-10.720120
 31
0.0
  0
LINE
  5
24d
100
AcDbEntity
  8
Layer_1
 62
7
100
AcDbLine
 10
149.816770
 20
-10.720120
 30
0.0
 11
149.816770
 21
-7.333450
 31
0.0
  0
LINE
  5
24e
100
AcDbEntity
  8
Layer_1
 62
7
100
AcDbLine
 10
149.816770
 20
-7.333450
 30
0.0
 11
158.570600
 21
-7.333450
 31
0.0
  0
LINE
  5
24f
100
AcDbEntity
  8
Layer_1
 62
7
100
AcDbLine
 10
158.570600
 20
-7.333450
 30
0.0
 11
158.570600
 21
-10.720120
 31
0.0
  0
LINE
  5
250
100
AcDbEntity
  8
Layer_1
 62
7
100
AcDbLine
 10
158.570600
 20
-10.720120
 30
0.0
 11
167.595370
 21
-10.720120
 31
0.0
  0
LINE
  5
251
100
AcDbEntity
  8
Layer_1
 62
7
100
AcDbLine
 10
167.595370
 20
-10.720120
 30
0.0
 11
167.595370
 21
-7.333450
 31
0.0
  0
LINE
  5
252
100
AcDbEntity
  8
Layer_1
 62
7
100
AcDbLine
 10
167.595370
 20
-7.333450
 30
0.0
 11
176.349210
 21
-7.333450
 31
0.0
  0
LINE
  5
253
100
AcDbEntity
  8
Layer_1
 62
7
100
AcDbLine
 10
176.349210
 20
-7.333450
 30
0.0
 11
176.349210
 21
-10.720120
 31
0.0
  0
LINE
  5
254
100
AcDbEntity
  8
Layer_1
 62
7
100
AcDbLine
 10
176.349210
 20
-10.720120
 30
0.0
 11
185.373980
 21
-10.720120
 31
0.0
  0
LINE
  5
255
100
AcDbEntity
  8
Layer_1
 62
7
100
AcDbLine
 10
185.373980
 20
-10.720120
 30
0.0
 11
185.373980
 21
-7.333450
 31
0.0
  0
LINE
  5
256
100
AcDbEntity
  8
Layer_1
 62
7
100
AcDbLine
 10
185.373980
 20
-7.333450
 30
0.0
 11
194.127810
 21
-7.333450
 31
0.0
  0
LINE
  5
257
100
AcDbEntity
  8
Layer_1
 62
7
100
AcDbLine
 10
194.127810
 20
-7.333450
 30
0.0
 11
194.127810
 21
-10.720120
 31
0.0
  0
LINE
  5
258
100
AcDbEntity
  8
Layer_1
 62
7
100
AcDbLine
 10
194.127810
 20
-10.720120
 30
0.0
 11
203.152580
 21
-10.720120
 31
0.0
  0
LINE
  5
259
100
AcDbEntity
  8
Layer_1
 62
7
100
AcDbLine
 10
203.152580
 20
-10.720120
 30
0.0
 11
203.152580
 21
-7.333450
 31
0.0
  0
LINE
  5
25a
100
AcDbEntity
  8
Layer_1
 62
7
100
AcDbLine
 10
203.152580
 20
-7.333450
 30
0.0
 11
211.906420
 21
-7.333450
 31
0.0
  0
LINE
  5
25b
100
AcDbEntity
  8
Layer_1
 62
7
100
AcDbLine
 10
211.906420
 20
-7.333450
 30
0.0
 11
211.906420
 21
-10.720120
 31
0.0
  0
LINE
  5
25c
100
AcDbEntity
  8
Layer_1
 62
7
100
AcDbLine
 10
211.906420
 20
-10.720120
 30
0.0
 11
220.931190
 21
-10.720120
 31
0.0
  0
LINE
  5
25d
100
AcDbEntity
  8
Layer_1
 62
7
100
AcDbLine
 10
220.931190
 20
-10.720120
 30
0.0
 11
220.931190
 21
-7.333450
 31
0.0
  0
LINE
  5
25e
100
AcDbEntity
  8
Layer_1
 62
7
100
AcDbLine
 10
220.931190
 20
-7.333450
 30
0.0
 11
229.685020
 21
-7.333450
 31
0.0
  0
LINE
  5
25f
100
AcDbEntity
  8
Layer_1
 62
7
100
AcDbLine
 10
229.685020
 20
-7.333450
 30
0.0
 11
229.685020
 21
-10.720120
 31
0.0
  0
LINE
  5
260
100
AcDbEntity
  8
Layer_1
 62
7
100
AcDbLine
 10
229.685020
 20
-10.720120
 30
0.0
 11
238.709790
 21
-10.720120
 31
0.0
  0
LINE
  5
261
100
AcDbEntity
  8
Layer_1
 62
7
100
AcDbLine
 10
238.709790
 20
-10.720120
 30
0.0
 11
238.709790
 21
-7.333450
 31
0.0
  0
LINE
  5
262
100
AcDbEntity
  8
Layer_1
 62
7
100
AcDbLine
 10
238.709790
 20
-7.333450
 30
0.0
 11
247.463630
 21
-7.333450
 31
0.0
  0
LINE
  5
263
100
AcDbEntity
  8
Layer_1
 62
7
100
AcDbLine
 10
247.463630
 20
-7.333450
 30
0.0
 11
247.463630
 21
-10.720120
 31
0.0
  0
LINE
  5
264
100
AcDbEntity
  8
Layer_1
 62
7
100
AcDbLine
 10
247.463630
 20
-10.720120
 30
0.0
 11
256.488400
 21
-10.720120
 31
0.0
  0
LINE
  5
265
100
AcDbEntity
  8
Layer_1
 62
7
100
AcDbLine
 10
256.488400
 20
-10.720120
 30
0.0
 11
256.488400
 21
-7.333450
 31
0.0
  0
LINE
  5
266
100
AcDbEntity
  8
Layer_1
 62
7
100
AcDbLine
 10
256.488400
 20
-7.333450
 30
0.0
 11
265.242230
 21
-7.333450
 31
0.0
  0
LINE
  5
267
100
AcDbEntity
  8
Layer_1
 62
7
100
AcDbLine
 10
265.242230
 20
-7.333450
 30
0.0
 11
265.242230
 21
-10.720120
 31
0.0
  0
LINE
  5
268
100
AcDbEntity
  8
Layer_1
 62
7
100
AcDbLine
 10
265.242230
 20
-10.720120
 30
0.0
 11
274.267000
 21
-10.720120
 31
0.0
  0
LINE
  5
269
100
AcDbEntity
  8
Layer_1
 62
7
100
AcDbLine
 10
274.267000
 20
-10.720120
 30
0.0
 11
274.267000
 21
-7.333450
 31
0.0
  0
LINE
  5
26a
100
AcDbEntity
  8
Layer_1
 62
7
100
AcDbLine
 10
274.267000
 20
-7.333450
 30
0.0
 11
283.020840
 21
-7.333450
 31
0.0
  0
LINE
  5
26b
100
AcDbEntity
  8
Layer_1
 62
7
100
AcDbLine
 10
283.020840
 20
-7.333450
 30
0.0
 11
283.020840
 21
-10.720120
 31
0.0
  0
LINE
  5
26c
100
AcDbEntity
  8
Layer_1
 62
7
100
AcDbLine
 10
283.020840
 20
-10.720120
 30
0.0
 11
292.045610
 21
-10.720120
 31
0.0
  0
LINE
  5
26d
100
AcDbEntity
  8
Layer_1
 62
7
100
AcDbLine
 10
292.045610
 20
-10.720120
 30
0.0
 11
292.045610
 21
-7.333450
 31
0.0
  0
LINE
  5
26e
100
AcDbEntity
  8
Layer_1
 62
7
100
AcDbLine
 10
292.045610
 20
-7.333450
 30
0.0
 11
300.799440
 21
-7.333450
 31
0.0
  0
LINE
  5
26f
100
AcDbEntity
  8
Layer_1
 62
7
100
AcDbLine
 10
300.799440
 20
-7.333450
 30
0.0
 11
300.799440
 21
-10.720120
 31
0.0
  0
LINE
  5
270
100
AcDbEntity
  8
Layer_1
 62
7
100
AcDbLine
 10
300.799440
 20
-10.720120
 30
0.0
 11
309.824210
 21
-10.720120
 31
0.0
  0
LINE
  5
271
100
AcDbEntity
  8
Layer_1
 62
7
100
AcDbLine
 10
309.824210
 20
-10.720120
 30
0.0
 11
309.824210
 21
-7.333450
 31
0.0
  0
LINE
  5
272
100
AcDbEntity
  8
Layer_1
 62
7
100
AcDbLine
 10
309.824210
 20
-7.333450
 30
0.0
 11
318.578050
 21
-7.333450
 31
0.0
  0
LINE
  5
273
100
AcDbEntity
  8
Layer_1
 62
7
100
AcDbLine
 10
318.578050
 20
-7.333450
 30
0.0
 11
318.578050
 21
-10.720120
 31
0.0
  0
LINE
  5
274
100
AcDbEntity
  8
Layer_1
 62
7
100
AcDbLine
 10
318.578050
 20
-10.720120
 30
0.0
 11
327.602820
 21
-10.720120
 31
0.0
  0
LINE
  5
275
100
AcDbEntity
  8
Layer_1
 62
7
100
AcDbLine
 10
327.602820
 20
-10.720120
 30
0.0
 11
327.602820
 21
-7.333450
 31
0.0
  0
LINE
  5
276
100
AcDbEntity
  8
Layer_1
 62
7
100
AcDbLine
 10
327.602820
 20
-7.333450
 30
0.0
 11
336.356660
 21
-7.333450
 31
0.0
  0
LINE
  5
277
100
AcDbEntity
  8
Layer_1
 62
7
100
AcDbLine
 10
336.356660
 20
-7.333450
 30
0.0
 11
336.356660
 21
-10.720120
 31
0.0
  0
LINE
  5
278
100
AcDbEntity
  8
Layer_1
 62
7
100
AcDbLine
 10
336.356660
 20
-10.720120
 30
0.0
 11
345.381420
 21
-10.720120
 31
0.0
  0
LINE
  5
279
100
AcDbEntity
  8
Layer_1
 62
7
100
AcDbLine
 10
345.381420
 20
-10.720120
 30
0.0
 11
345.381420
 21
-7.333450
 31
0.0
  0
LINE
  5
27a
100
AcDbEntity
  8
Layer_1
 62
7
100
AcDbLine
 10
345.381420
 20
-7.333450
 30
0.0
 11
354.135260
 21
-7.333450
 31
0.0
  0
LINE
  5
27b
100
AcDbEntity
  8
Layer_1
 62
7
100
AcDbLine
 10
354.135260
 20
-7.333450
 30
0.0
 11
354.135260
 21
-10.720120
 31
0.0
  0
LINE
  5
27c
100
AcDbEntity
  8
Layer_1
 62
7
100
AcDbLine
 10
354.135260
 20
-10.720120
 30
0.0
 11
363.160030
 21
-10.720120
 31
0.0
  0
LINE
  5
27d
100
AcDbEntity
  8
Layer_1
 62
7
100
AcDbLine
 10
363.160030
 20
-10.720120
 30
0.0
 11
363.160030
 21
-7.333450
 31
0.0
  0
LINE
  5
27e
100
AcDbEntity
  8
Layer_1
 62
7
100
AcDbLine
 10
363.160030
 20
-7.333450
 30
0.0
 11
371.981600
 21
-7.333450
 31
0.0
  0
LINE
  5
27f
100
AcDbEntity
  8
Layer_1
 62
7
100
AcDbLine
 10
371.981600
 20
-7.333450
 30
0.0
 11
371.981600
 21
-0.418300
 31
0.0
  0
LINE
  5
280
100
AcDbEntity
  8
Layer_1
 62
7
100
AcDbLine
 10
371.981600
 20
-0.418300
 30
0.0
 11
368.594930
 21
-0.418300
 31
0.0
  0
LINE
  5
281
100
AcDbEntity
  8
Layer_1
 62
7
100
AcDbLine
 10
368.594930
 20
-0.418300
 30
0.0
 11
368.594930
 21
9.680310
 31
0.0
  0
LINE
  5
282
100
AcDbEntity
  8
Layer_1
 62
7
100
AcDbLine
 10
368.594930
 20
9.680310
 30
0.0
 11
371.981600
 21
9.680310
 31
0.0
  0
LINE
  5
283
100
AcDbEntity
  8
Layer_1
 62
7
100
AcDbLine
 10
371.981600
 20
9.680310
 30
0.0
 11
371.981600
 21
20.049830
 31
0.0
  0
LINE
  5
284
100
AcDbEntity
  8
Layer_1
 62
7
100
AcDbLine
 10
371.981600
 20
20.049830
 30
0.0
 11
368.594930
 21
20.049830
 31
0.0
  0
LINE
  5
285
100
AcDbEntity
  8
Layer_1
 62
7
100
AcDbLine
 10
368.594930
 20
20.049830
 30
0.0
 11
368.594930
 21
30.148450
 31
0.0
  0
LINE
  5
286
100
AcDbEntity
  8
Layer_1
 62
7
100
AcDbLine
 10
368.594930
 20
30.148450
 30
0.0
 11
371.981600
 21
30.148450
 31
0.0
  0
LINE
  5
287
100
AcDbEntity
  8
Layer_1
 62
7
100
AcDbLine
 10
371.981600
 20
30.148450
 30
0.0
 11
371.981600
 21
40.518000
 31
0.0
  0
LINE
  5
288
100
AcDbEntity
  8
Layer_1
 62
7
100
AcDbLine
 10
371.981600
 20
40.518000
 30
0.0
 11
368.594930
 21
40.518000
 31
0.0
  0
LINE
  5
289
100
AcDbEntity
  8
Layer_1
 62
7
100
AcDbLine
 10
368.594930
 20
40.518000
 30
0.0
 11
368.594930
 21
50.616590
 31
0.0
  0
LINE
  5
28a
100
AcDbEntity
  8
Layer_1
 62
7
100
AcDbLine
 10
368.594930
 20
50.616590
 30
0.0
 11
371.981600
 21
50.616590
 31
0.0
  0
LINE
  5
28b
100
AcDbEntity
  8
Layer_1
 62
7
100
AcDbLine
 10
371.981600
 20
50.616590
 30
0.0
 11
371.981600
 21
60.986140
 31
0.0
  0
LINE
  5
28c
100
AcDbEntity
  8
Layer_1
 62
7
100
AcDbLine
 10
371.981600
 20
60.986140
 30
0.0
 11
368.594930
 21
60.986140
 31
0.0
  0
LINE
  5
28d
100
AcDbEntity
  8
Layer_1
 62
7
100
AcDbLine
 10
368.594930
 20
60.986140
 30
0.0
 11
368.594930
 21
71.084730
 31
0.0
  0
LINE
  5
28e
100
AcDbEntity
  8
Layer_1
 62
7
100
AcDbLine
 10
368.594930
 20
71.084730
 30
0.0
 11
371.981600
 21
71.084730
 31
0.0
  0
LINE
  5
28f
100
AcDbEntity
  8
Layer_1
 62
7
100
AcDbLine
 10
371.981600
 20
71.084730
 30
0.0
 11
371.981600
 21
77.999880
 31
0.0
  0
SPLINE
  5
290
100
AcDbEntity
  8
Layer_1
 62
7
100
AcDbSpline
 70
8
 71
3
 72
8
 73
4
 74
0
 40
0
 40
0
 40
0
 40
0
 40
1
 40
1
 40
1
 40
1
 10
312.878000
 20
71.268536
 30
0.0
 10
312.485007
 20
71.268536
 30
0.0
 10
312.121868
 20
71.478195
 30
0.0
 10
311.925372
 20
71.818536
 30
0.0
  0
SPLINE
  5
291
100
AcDbEntity
  8
Layer_1
 62
7
100
AcDbSpline
 70
8
 71
3
 72
8
 73
4
 74
0
 40
0
 40
0
 40
0
 40
0
 40
1
 40
1
 40
1
 40
1
 10
311.925372
 20
71.818536
 30
0.0
 10
311.728875
 20
72.158877
 30
0.0
 10
311.728875
 20
72.578195
 30
0.0
 10
311.925372
 20
72.918536
 30
0.0
  0
SPLINE
  5
292
100
AcDbEntity
  8
Layer_1
 62
7
100
AcDbSpline
 70
8
 71
3
 72
8
 73
4
 74
0
 40
0
 40
0
 40
0
 40
0
 40
1
 40
1
 40
1
 40
1
 10
311.925372
 20
72.918536
 30
0.0
 10
312.121868
 20
73.258877
 30
0.0
 10
312.485007
 20
73.468536
 30
0.0
 10
312.878000
 20
73.468536
 30
0.0
  0
SPLINE
  5
293
100
AcDbEntity
  8
Layer_1
 62
7
100
AcDbSpline
 70
8
 71
3
 72
8
 73
4
 74
0
 40
0
 40
0
 40
0
 40
0
 40
1
 40
1
 40
1
 40
1
 10
312.878000
 20
73.468536
 30
0.0
 10
313.270992
 20
73.468536
 30
0.0
 10
313.634131
 20
73.258877
 30
0.0
 10
313.830627
 20
72.918536
 30
0.0
  0
SPLINE
  5
294
100
AcDbEntity
  8
Layer_1
 62
7
100
AcDbSpline
 70
8
 71
3
 72
8
 73
4
 74
0
 40
0
 40
0
 40
0
 40
0
 40
1
 40
1
 40
1
 40
1
 10
313.830627
 20
72.918536
 30
0.0
 10
314.027124
 20
72.578195
 30
0.0
 10
314.027124
 20
72.158877
 30
0.0
 10
313.830627
 20
71.818536
 30
0.0
  0
SPLINE
  5
295
100
AcDbEntity
  8
Layer_1
 62
7
100
AcDbSpline
 70
8
 71
3
 72
8
 73
4
 74
0
 40
0
 40
0
 40
0
 40
0
 40
1
 40
1
 40
1
 40
1
 10
313.830627
 20
71.818536
 30
0.0
 10
313.634131
 20
71.478195
 30
0.0
 10
313.270992
 20
71.268536
 30
0.0
 10
312.878000
 20
71.268536
 30
0.0
  0
LINE
  5
296
100
AcDbEntity
  8
Layer_1
 62
7
100
AcDbLine
 10
312.878000
 20
71.268536
 30
0.0
 11
312.878000
 21
71.268536
 31
0.0
  0
SPLINE
  5
297
100
AcDbEntity
  8
Layer_1
 62
7
100
AcDbSpline
 70
8
 71
3
 72
8
 73
4
 74
0
 40
0
 40
0
 40
0
 40
0
 40
1
 40
1
 40
1
 40
1
 10
312.878000
 20
0.268536
 30
0.0
 10
312.485007
 20
0.268536
 30
0.0
 10
312.121868
 20
0.478195
 30
0.0
 10
311.925372
 20
0.818536
 30
0.0
  0
SPLINE
  5
298
100
AcDbEntity
  8
Layer_1
 62
7
100
AcDbSpline
 70
8
 71
3
 72
8
 73
4
 74
0
 40
0
 40
0
 40
0
 40
0
 40
1
 40
1
 40
1
 40
1
 10
311.925372
 20
0.818536
 30
0.0
 10
311.728875
 20
1.158877
 30
0.0
 10
311.728875
 20
1.578195
 30
0.0
 10
311.925372
 20
1.918536
 30
0.0
  0
SPLINE
  5
299
100
AcDbEntity
  8
Layer_1
 62
7
100
AcDbSpline
 70
8
 71
3
 72
8
 73
4
 74
0
 40
0
 40
0
 40
0
 40
0
 40
1
 40
1
 40
1
 40
1
 10
311.925372
 20
1.918536
 30
0.0
 10
312.121868
 20
2.258877
 30
0.0
 10
312.485007
 20
2.468536
 30
0.0
 10
312.878000
 20
2.468536
 30
0.0
  0
SPLINE
  5
29a
100
AcDbEntity
  8
Layer_1
 62
7
100
AcDbSpline
 70
8
 71
3
 72
8
 73
4
 74
0
 40
0
 40
0
 40
0
 40
0
 40
1
 40
1
 40
1
 40
1
 10
312.878000
 20
2.468536
 30
0.0
 10
313.270992
 20
2.468536
 30
0.0
 10
313.634131
 20
2.258877
 30
0.0
 10
313.830627
 20
1.918536
 30
0.0
  0
SPLINE
  5
29b
100
AcDbEntity
  8
Layer_1
 62
7
100
AcDbSpline
 70
8
 71
3
 72
8
 73
4
 74
0
 40
0
 40
0
 40
0
 40
0
 40
1
 40
1
 40
1
 40
1
 10
313.830627
 20
1.918536
 30
0.0
 10
314.027124
 20
1.578195
 30
0.0
 10
314.027124
 20
1.158877
 30
0.0
 10
313.830627
 20
0.818536
 30
0.0
  0
SPLINE
  5
29c
100
AcDbEntity
  8
Layer_1
 62
7
100
AcDbSpline
 70
8
 71
3
 72
8
 73
4
 74
0
 40
0
 40
0
 40
0
 40
0
 40
1
 40
1
 40
1
 40
1
 10
313.830627
 20
0.818536
 30
0.0
 10
313.634131
 20
0.478195
 30
0.0
 10
313.270992
 20
0.268536
 30
0.0
 10
312.878000
 20
0.268536
 30
0.0
  0
LINE
  5
29d
100
AcDbEntity
  8
Layer_1
 62
7
100
AcDbLine
 10
312.878000
 20
0.268536
 30
0.0
 11
312.878000
 21
0.268536
 31
0.0
  0
LINE
  5
29e
100
AcDbEntity
  8
Layer_1
 62
7
100
AcDbLine
 10
313.628020
 20
70.368530
 30
0.0
 11
313.628020
 21
3.368530
 31
0.0
  0
LINE
  5
29f
100
AcDbEntity
  8
Layer_1
 62
7
100
AcDbLine
 10
313.628020
 20
3.368530
 30
0.0
 11
312.128020
 21
3.368530
 31
0.0
  0
LINE
  5
2a0
100
AcDbEntity
  8
Layer_1
 62
7
100
AcDbLine
 10
312.128020
 20
3.368530
 30
0.0
 11
312.128020
 21
70.368530
 31
0.0
  0
LINE
  5
2a1
100
AcDbEntity
  8
Layer_1
 62
7
100
AcDbLine
 10
312.128020
 20
70.368530
 30
0.0
 11
313.628020
 21
70.368530
 31
0.0
  0
LINE
  5
2a2
100
AcDbEntity
  8
Layer_1
 62
1
100
AcDbLine
 10
332.298062
 20
59.401164
 30
0.0
 11
332.298062
 21
58.529899
 31
0.0
  0
LINE
  5
2a3
100
AcDbEntity
  8
Layer_1
 62
1
100
AcDbLine
 10
332.298062
 20
58.529899
 30
0.0
 11
330.797901
 21
58.529899
 31
0.0
  0
SPLINE
  5
2a4
100
AcDbEntity
  8
Layer_1
 62
1
100
AcDbSpline
 70
8
 71
3
 72
8
 73
4
 74
0
 40
0
 40
0
 40
0
 40
0
 40
1
 40
1
 40
1
 40
1
 10
330.797901
 20
58.529899
 30
0.0
 10
330.797901
 20
58.529899
 30
0.0
 10
330.797901
 20
59.399097
 30
0.0
 10
330.797901
 20
59.399097
 30
0.0
  0
SPLINE
  5
2a5
100
AcDbEntity
  8
Layer_1
 62
1
100
AcDbSpline
 70
8
 71
3
 72
8
 73
4
 74
0
 40
0
 40
0
 40
0
 40
0
 40
1
 40
1
 40
1
 40
1
 10
330.797901
 20
59.399097
 30
0.0
 10
327.800835
 20
59.021407
 30
0.0
 10
325.551890
 20
56.474492
 30
0.0
 10
325.548092
 20
53.453723
 30
0.0
  0
SPLINE
  5
2a6
100
AcDbEntity
  8
Layer_1
 62
1
100
AcDbSpline
 70
8
 71
3
 72
8
 73
4
 74
0
 40
0
 40
0
 40
0
 40
0
 40
1
 40
1
 40
1
 40
1
 10
325.548092
 20
53.453723
 30
0.0
 10
325.548294
 20
50.140299
 30
0.0
 10
328.234306
 20
47.454289
 30
0.0
 10
331.547730
 20
47.454090
 30
0.0
  0
SPLINE
  5
2a7
100
AcDbEntity
  8
Layer_1
 62
1
100
AcDbSpline
 70
8
 71
3
 72
8
 73
4
 74
0
 40
0
 40
0
 40
0
 40
0
 40
1
 40
1
 40
1
 40
1
 10
331.547730
 20
47.454090
 30
0.0
 10
334.861351
 20
47.454011
 30
0.0
 10
337.547670
 20
50.140103
 30
0.0
 10
337.547872
 20
53.453723
 30
0.0
  0
SPLINE
  5
2a8
100
AcDbEntity
  8
Layer_1
 62
1
100
AcDbSpline
 70
8
 71
3
 72
8
 73
4
 74
0
 40
0
 40
0
 40
0
 40
0
 40
1
 40
1
 40
1
 40
1
 10
337.547872
 20
53.453723
 30
0.0
 10
337.545114
 20
56.475280
 30
0.0
 10
335.295909
 20
59.023375
 30
0.0
 10
332.298062
 20
59.401164
 30
0.0
  0
LINE
  5
2a9
100
AcDbEntity
  8
Layer_1
 62
1
100
AcDbLine
 10
332.298062
 20
59.401164
 30
0.0
 11
332.298062
 21
59.401164
 31
0.0
  0
ENDSEC
  0
SECTION
  2
OBJECTS
  0
DICTIONARY
  5
C
330
0
100
AcDbDictionary
  3
ACAD_GROUP
350
D
  3
ACAD_MLINESTYLE
350
17
  0
DICTIONARY
  5
D
330
C
100
AcDbDictionary
  0
DICTIONARY
  5
1A
330
C
100
AcDbDictionary
  0
DICTIONARY
  5
17
330
C
100
AcDbDictionary
  3
STANDARD
350
18
  0
DICTIONARY
  5
19
330
C
100
AcDbDictionary
  0
ENDSEC
  0
EOF
