<?xml version="1.0" encoding="UTF-8" standalone="no"?>
<!-- Created with Inkscape (http://www.inkscape.org/) -->

<svg
   xmlns:dc="http://purl.org/dc/elements/1.1/"
   xmlns:cc="http://creativecommons.org/ns#"
   xmlns:rdf="http://www.w3.org/1999/02/22-rdf-syntax-ns#"
   xmlns:svg="http://www.w3.org/2000/svg"
   xmlns="http://www.w3.org/2000/svg"
   xmlns:sodipodi="http://sodipodi.sourceforge.net/DTD/sodipodi-0.dtd"
   xmlns:inkscape="http://www.inkscape.org/namespaces/inkscape"
   id="svg8"
   version="1.1"
   viewBox="0 0 210 297"
   height="297mm"
   width="210mm"
   inkscape:version="0.92.3 (2405546, 2018-03-11)"
   sodipodi:docname="kerftest.svg">
  <sodipodi:namedview
     inkscape:window-maximized="1"
     inkscape:window-y="-8"
     inkscape:window-x="-8"
     inkscape:window-height="1137"
     inkscape:window-width="1920"
     showgrid="false"
     inkscape:current-layer="svg8"
     inkscape:document-units="mm"
     inkscape:cy="1007.126"
     inkscape:cx="50.064734"
     inkscape:zoom="3.959798"
     inkscape:pageshadow="2"
     inkscape:pageopacity="0.0"
     borderopacity="1.0"
     bordercolor="#666666"
     pagecolor="#ffffff"
     id="base" />
  <defs
     id="defs2" />
  <metadata
     id="metadata5">
    <rdf:RDF>
      <cc:Work
         rdf:about="">
        <dc:format>image/svg+xml</dc:format>
        <dc:type
           rdf:resource="http://purl.org/dc/dcmitype/StillImage" />
        <dc:title></dc:title>
      </cc:Work>
    </rdf:RDF>
  </metadata>
  <g
     id="layer1"
     inkscape:groupmode="layer"
     inkscape:label="Layer 1">
    <path
       inkscape:connector-curvature="0"
       d="m 10.317199,43.725891 h 2.9 v 0 l 0.0528,0 v 0 h 6.07"
       style="fill:none;stroke:#000000;stroke-width:0.0508"
       inkscape:label="part"
       id="path1029"
       sodipodi:nodetypes="cccccc" />
    <path
       inkscape:connector-curvature="0"
       d="m 19.34,43.725891 v 3.1 h -3.17 v 5.8 h 3.17 v 3.1"
       style="fill:none;stroke:#000000;stroke-width:0.0508"
       inkscape:label="part"
       id="path1031"
       sodipodi:nodetypes="cccccc" />
    <path
       inkscape:connector-curvature="0"
       d="m 19.34,55.725891 h -6.07 v 0 l -0.0528,0 v 0 h -2.9"
       style="fill:none;stroke:#000000;stroke-width:0.0508"
       inkscape:label="part"
       id="path1033"
       sodipodi:nodetypes="cccccc" />
    <path
       inkscape:connector-curvature="0"
       d="m 10.317199,55.725891 v -2.9 0 -6.2 0 -2.9"
       style="fill:none;stroke:#000000;stroke-width:0.0508"
       inkscape:label="part"
       id="path1035"
       sodipodi:nodetypes="cccccc" />
    <path
       inkscape:connector-curvature="0"
       d="m 23.51,43.725891 h 2.9 v 0 l 1.389148,0 v 0 h 2.9"
       style="fill:none;stroke:#000000;stroke-width:0.0508"
       inkscape:label="part"
       id="path1037"
       sodipodi:nodetypes="cccccc" />
    <path
       inkscape:connector-curvature="0"
       d="m 30.699148,43.725891 v 2.9 0 6.2 0 2.9"
       style="fill:none;stroke:#000000;stroke-width:0.0508"
       inkscape:label="part"
       id="path1039"
       sodipodi:nodetypes="cccccc" />
    <path
       inkscape:connector-curvature="0"
       d="m 30.699148,55.725891 h -2.9 v 0 l -1.389148,0 v 0 h -2.9"
       style="fill:none;stroke:#000000;stroke-width:0.0508"
       inkscape:label="part"
       id="path1041"
       sodipodi:nodetypes="cccccc" />
    <path
       inkscape:connector-curvature="0"
       d="m 23.51,55.725891 v -2.9 h -3.17 v -6.2 h 3.17 v -2.9"
       style="fill:none;stroke:#000000;stroke-width:0.0508"
       inkscape:label="part"
       id="path1043"
       sodipodi:nodetypes="cccccc" />
  </g>
  <g
     id="g835"
     inkscape:groupmode="layer"
     inkscape:label="newlayer" />
  <g
     inkscape:label="newlayer"
     inkscape:groupmode="layer"
     id="g879" />
  <g
     id="g925"
     inkscape:groupmode="layer"
     inkscape:label="newlayer" />
  <g
     inkscape:label="newlayer"
     inkscape:groupmode="layer"
     id="g965" />
  <g
     id="g1007"
     inkscape:groupmode="layer"
     inkscape:label="newlayer" />
  <g
     inkscape:label="newlayer"
     inkscape:groupmode="layer"
     id="g1051" />
  <g
     id="g1152"
     inkscape:groupmode="layer"
     inkscape:label="newlayer" />
  <path
     id="path1154"
     inkscape:label="part"
     style="fill:none;stroke:#000000;stroke-width:0.0508"
     d="m 10.317199,31.164223 h 2.895 v 0 l 0.0628,0 v 0 h 6.065"
     inkscape:connector-curvature="0"
     sodipodi:nodetypes="cccccc" />
  <path
     id="path1156"
     inkscape:label="part"
     style="fill:none;stroke:#000000;stroke-width:0.0508"
     d="m 19.34,31.164223 v 3.105 h -3.17 v 5.79 h 3.17 v 3.105"
     inkscape:connector-curvature="0"
     sodipodi:nodetypes="cccccc" />
  <path
     id="path1158"
     inkscape:label="part"
     style="fill:none;stroke:#000000;stroke-width:0.0508"
     d="m 19.34,43.164223 h -6.065 v 0 l -0.0628,0 v 0 h -2.895"
     inkscape:connector-curvature="0"
     sodipodi:nodetypes="cccccc" />
  <path
     id="path1160"
     inkscape:label="part"
     style="fill:none;stroke:#000000;stroke-width:0.0508"
     d="m 10.317199,43.164223 v -2.895 0 -6.21 0 -2.895"
     inkscape:connector-curvature="0"
     sodipodi:nodetypes="cccccc" />
  <path
     id="path1162"
     inkscape:label="part"
     style="fill:none;stroke:#000000;stroke-width:0.0508"
     d="m 23.51,31.164223 h 2.895 v 0 l 1.399148,0 v 0 h 2.895"
     inkscape:connector-curvature="0"
     sodipodi:nodetypes="cccccc" />
  <path
     id="path1164"
     inkscape:label="part"
     style="fill:none;stroke:#000000;stroke-width:0.0508"
     d="m 30.699148,31.164223 v 2.895 0 6.21 0 2.895"
     inkscape:connector-curvature="0"
     sodipodi:nodetypes="cccccc" />
  <path
     id="path1166"
     inkscape:label="part"
     style="fill:none;stroke:#000000;stroke-width:0.0508"
     d="m 30.699148,43.164223 h -2.895 v 0 l -1.399148,0 v 0 H 23.51"
     inkscape:connector-curvature="0"
     sodipodi:nodetypes="cccccc" />
  <path
     id="path1168"
     inkscape:label="part"
     style="fill:none;stroke:#000000;stroke-width:0.0508"
     d="m 23.51,43.164223 v -2.895 h -3.17 v -6.21 h 3.17 v -2.895"
     inkscape:connector-curvature="0"
     sodipodi:nodetypes="cccccc" />
  <g
     aria-label=".2"
     style="font-style:normal;font-variant:normal;font-weight:normal;font-stretch:normal;font-size:2.82222223px;line-height:1.25;font-family:Tahoma;-inkscape-font-specification:'Tahoma, Normal';font-variant-ligatures:normal;font-variant-caps:normal;font-variant-numeric:normal;text-align:start;letter-spacing:0px;word-spacing:0px;writing-mode:lr-tb;text-anchor:start;fill:#000000;fill-opacity:1;stroke:#0000ff;stroke-width:0.26458332"
     id="text1199">
    <path
       d="M 25.895883,50.773201 H 25.566532 V 50.38046 h 0.329351 z"
       style="stroke-width:0.26458332;stroke:#0000ff"
       id="path1496" />
    <path
       d="m 27.575712,50.773201 h -1.266417 v -0.28801 q 0.136425,-0.129536 0.257693,-0.248047 0.121267,-0.118511 0.237022,-0.246669 0.234267,-0.257693 0.319705,-0.412033 0.08544,-0.155718 0.08544,-0.321083 0,-0.08544 -0.02756,-0.150206 -0.02618,-0.06477 -0.07304,-0.107487 -0.04823,-0.04134 -0.111621,-0.06201 -0.06339,-0.02067 -0.139182,-0.02067 -0.07304,0 -0.148828,0.01929 -0.07441,0.01792 -0.143316,0.04548 -0.05788,0.02343 -0.111621,0.0565 -0.05374,0.03307 -0.08682,0.0565 h -0.01516 v -0.292144 q 0.08544,-0.04272 0.237022,-0.08268 0.152963,-0.04134 0.289388,-0.04134 0.286632,0 0.449241,0.152962 0.162608,0.151584 0.162608,0.412034 0,0.119889 -0.02894,0.221864 -0.02756,0.101975 -0.07717,0.188791 -0.05099,0.08957 -0.122645,0.177767 -0.07166,0.08819 -0.151584,0.173633 -0.129536,0.14056 -0.289388,0.292144 -0.158475,0.151584 -0.253559,0.239778 h 1.008724 z"
       style="stroke-width:0.26458332;stroke:#0000ff"
       id="path1498" />
  </g>
  <g
     aria-label=".2"
     style="font-style:normal;font-variant:normal;font-weight:normal;font-stretch:normal;font-size:2.82222223px;line-height:1.25;font-family:Tahoma;-inkscape-font-specification:'Tahoma, Normal';font-variant-ligatures:normal;font-variant-caps:normal;font-variant-numeric:normal;text-align:start;letter-spacing:0px;word-spacing:0px;writing-mode:lr-tb;text-anchor:start;fill:#000000;fill-opacity:1;stroke:#0000ff;stroke-width:0.26458332"
     id="text1203">
    <path
       d="M 12.532406,50.773201 H 12.203055 V 50.38046 h 0.329351 z"
       style="stroke-width:0.26458332;stroke:#0000ff"
       id="path1449" />
    <path
       d="m 14.212235,50.773201 h -1.266417 v -0.28801 q 0.136426,-0.129536 0.257693,-0.248047 0.121267,-0.118511 0.237022,-0.246669 0.234267,-0.257693 0.319705,-0.412033 0.08544,-0.155718 0.08544,-0.321083 0,-0.08544 -0.02756,-0.150206 -0.02618,-0.06477 -0.07304,-0.107487 -0.04823,-0.04134 -0.111621,-0.06201 -0.06339,-0.02067 -0.139182,-0.02067 -0.07304,0 -0.148828,0.01929 -0.07441,0.01792 -0.143316,0.04548 -0.05788,0.02343 -0.111621,0.0565 -0.05374,0.03307 -0.08682,0.0565 h -0.01516 v -0.292144 q 0.08544,-0.04272 0.237023,-0.08268 0.152962,-0.04134 0.289388,-0.04134 0.286632,0 0.44924,0.152962 0.162609,0.151584 0.162609,0.412034 0,0.119889 -0.02894,0.221864 -0.02756,0.101975 -0.07717,0.188791 -0.05099,0.08957 -0.122646,0.177767 -0.07166,0.08819 -0.151584,0.173633 -0.129536,0.14056 -0.289388,0.292144 -0.158474,0.151584 -0.253559,0.239778 h 1.008724 z"
       style="stroke-width:0.26458332;stroke:#0000ff"
       id="path1451" />
  </g>
  <g
     aria-label=".21"
     style="font-style:normal;font-variant:normal;font-weight:normal;font-stretch:normal;font-size:2.82222223px;line-height:1.25;font-family:Tahoma;-inkscape-font-specification:'Tahoma, Normal';font-variant-ligatures:normal;font-variant-caps:normal;font-variant-numeric:normal;text-align:start;letter-spacing:0px;word-spacing:0px;writing-mode:lr-tb;text-anchor:start;fill:#000000;fill-opacity:1;stroke:#0000ff;stroke-width:0.26458332"
     id="text1207">
    <path
       d="M 11.813071,38.211533 H 11.48372 v -0.392741 h 0.329351 z"
       style="stroke-width:0.26458332;stroke:#0000ff"
       id="path1454" />
    <path
       d="m 13.492899,38.211533 h -1.266417 v -0.28801 q 0.136426,-0.129536 0.257693,-0.248047 0.121268,-0.118512 0.237023,-0.246669 0.234266,-0.257693 0.319705,-0.412034 0.08544,-0.155718 0.08544,-0.321082 0,-0.08544 -0.02756,-0.150207 -0.02618,-0.06477 -0.07304,-0.107487 -0.04823,-0.04134 -0.111621,-0.06201 -0.06339,-0.02067 -0.139182,-0.02067 -0.07304,0 -0.148828,0.01929 -0.07441,0.01791 -0.143316,0.04547 -0.05788,0.02343 -0.111621,0.0565 -0.05374,0.03307 -0.08682,0.0565 h -0.01516 v -0.292144 q 0.08544,-0.04272 0.237023,-0.08268 0.152962,-0.04134 0.289388,-0.04134 0.286632,0 0.44924,0.152962 0.162609,0.151584 0.162609,0.412033 0,0.11989 -0.02894,0.221864 -0.02756,0.101975 -0.07717,0.188792 -0.05099,0.08957 -0.122645,0.177767 -0.07166,0.08819 -0.151585,0.173632 -0.129535,0.14056 -0.289388,0.292144 -0.158474,0.151585 -0.253559,0.239779 h 1.008724 z"
       style="stroke-width:0.26458332;stroke:#0000ff"
       id="path1456" />
    <path
       d="m 14.931571,38.211533 h -1.000455 v -0.209462 h 0.37207 v -1.375282 h -0.37207 v -0.187414 q 0.210839,0 0.310058,-0.05926 0.100597,-0.06063 0.112999,-0.227376 h 0.213596 v 1.849327 h 0.363802 z"
       style="stroke-width:0.26458332;stroke:#0000ff"
       id="path1458" />
  </g>
  <g
     aria-label=".21"
     style="font-style:normal;font-variant:normal;font-weight:normal;font-stretch:normal;font-size:2.82222223px;line-height:1.25;font-family:Tahoma;-inkscape-font-specification:'Tahoma, Normal';font-variant-ligatures:normal;font-variant-caps:normal;font-variant-numeric:normal;text-align:start;letter-spacing:0px;word-spacing:0px;writing-mode:lr-tb;text-anchor:start;fill:#000000;fill-opacity:1;stroke:#0000ff;stroke-width:0.26458332"
     id="text1211">
    <path
       d="m 25.176546,38.211533 h -0.329352 v -0.392741 h 0.329352 z"
       style="stroke-width:0.26458332;stroke:#0000ff"
       id="path1489" />
    <path
       d="m 26.856374,38.211533 h -1.266417 v -0.28801 q 0.136426,-0.129536 0.257693,-0.248047 0.121268,-0.118512 0.237023,-0.246669 0.234266,-0.257693 0.319705,-0.412034 0.08544,-0.155718 0.08544,-0.321082 0,-0.08544 -0.02756,-0.150207 -0.02618,-0.06477 -0.07304,-0.107487 -0.04823,-0.04134 -0.111621,-0.06201 -0.06339,-0.02067 -0.139182,-0.02067 -0.07304,0 -0.148828,0.01929 -0.07441,0.01791 -0.143316,0.04547 -0.05788,0.02343 -0.111621,0.0565 -0.05374,0.03307 -0.08682,0.0565 h -0.01516 v -0.292144 q 0.08544,-0.04272 0.237023,-0.08268 0.152962,-0.04134 0.289388,-0.04134 0.286632,0 0.44924,0.152962 0.162609,0.151584 0.162609,0.412033 0,0.11989 -0.02894,0.221864 -0.02756,0.101975 -0.07717,0.188792 -0.05099,0.08957 -0.122646,0.177767 -0.07166,0.08819 -0.151584,0.173632 -0.129535,0.14056 -0.289388,0.292144 -0.158474,0.151585 -0.253559,0.239779 h 1.008724 z"
       style="stroke-width:0.26458332;stroke:#0000ff"
       id="path1491" />
    <path
       d="M 28.295046,38.211533 H 27.29459 v -0.209462 h 0.372071 V 36.626789 H 27.29459 v -0.187414 q 0.21084,0 0.310059,-0.05926 0.100597,-0.06063 0.112999,-0.227376 h 0.213596 v 1.849327 h 0.363802 z"
       style="stroke-width:0.26458332;stroke:#0000ff"
       id="path1493" />
  </g>
  <g
     inkscape:label="newlayer"
     inkscape:groupmode="layer"
     id="g1248" />
  <path
     inkscape:connector-curvature="0"
     d="m 10.317199,18.335285 h 2.905 v 0 l 0.0428,0 v 0 h 6.075"
     style="fill:none;stroke:#000000;stroke-width:0.0508"
     inkscape:label="part"
     id="path1250"
     sodipodi:nodetypes="cccccc" />
  <path
     inkscape:connector-curvature="0"
     d="m 19.34,18.335285 v 3.095 h -3.17 v 5.81 h 3.17 v 3.095"
     style="fill:none;stroke:#000000;stroke-width:0.0508"
     inkscape:label="part"
     id="path1252"
     sodipodi:nodetypes="cccccc" />
  <path
     inkscape:connector-curvature="0"
     d="m 19.34,30.335285 h -6.075 v 0 l -0.0428,0 v 0 h -2.905"
     style="fill:none;stroke:#000000;stroke-width:0.0508"
     inkscape:label="part"
     id="path1254"
     sodipodi:nodetypes="cccccc" />
  <path
     inkscape:connector-curvature="0"
     d="m 10.317199,30.335285 v -2.905 0 -6.19 0 -2.905"
     style="fill:none;stroke:#000000;stroke-width:0.0508"
     inkscape:label="part"
     id="path1256"
     sodipodi:nodetypes="cccccc" />
  <path
     inkscape:connector-curvature="0"
     d="m 23.51,18.335285 h 2.905 v 0 l 1.379148,0 v 0 h 2.905"
     style="fill:none;stroke:#000000;stroke-width:0.0508"
     inkscape:label="part"
     id="path1258"
     sodipodi:nodetypes="cccccc" />
  <path
     inkscape:connector-curvature="0"
     d="m 30.699148,18.335285 v 2.905 0 6.19 0 2.905"
     style="fill:none;stroke:#000000;stroke-width:0.0508"
     inkscape:label="part"
     id="path1260"
     sodipodi:nodetypes="cccccc" />
  <path
     inkscape:connector-curvature="0"
     d="m 30.699148,30.335285 h -2.905 v 0 l -1.379148,0 v 0 H 23.51"
     style="fill:none;stroke:#000000;stroke-width:0.0508"
     inkscape:label="part"
     id="path1262"
     sodipodi:nodetypes="cccccc" />
  <path
     inkscape:connector-curvature="0"
     d="m 23.51,30.335285 v -2.905 h -3.17 v -6.19 h 3.17 v -2.905"
     style="fill:none;stroke:#000000;stroke-width:0.0508"
     inkscape:label="part"
     id="path1264"
     sodipodi:nodetypes="cccccc" />
  <g
     aria-label=".19"
     style="font-style:normal;font-variant:normal;font-weight:normal;font-stretch:normal;font-size:2.82222223px;line-height:1.25;font-family:Tahoma;-inkscape-font-specification:'Tahoma, Normal';font-variant-ligatures:normal;font-variant-caps:normal;font-variant-numeric:normal;text-align:start;letter-spacing:0px;word-spacing:0px;writing-mode:lr-tb;text-anchor:start;fill:#000000;fill-opacity:1;stroke:#0000ff;stroke-width:0.26458332"
     id="text1312">
    <path
       d="M 11.75726,25.361923 H 11.427909 V 24.969182 H 11.75726 Z"
       style="stroke-width:0.26458332;stroke:#0000ff"
       id="path1461" />
    <path
       d="m 13.332358,25.361923 h -1.000456 v -0.209462 h 0.37207 v -1.375282 h -0.37207 v -0.187413 q 0.21084,0 0.310058,-0.05926 0.100597,-0.06063 0.112999,-0.227376 h 0.213596 v 1.849327 h 0.363803 z"
       style="stroke-width:0.26458332;stroke:#0000ff"
       id="path1463" />
    <path
       d="m 14.710396,24.153384 q 0,-0.209462 -0.03858,-0.340376 -0.03858,-0.132291 -0.106109,-0.203949 -0.06063,-0.06615 -0.122646,-0.09095 -0.06201,-0.02481 -0.136425,-0.02481 -0.169499,0 -0.270096,0.121268 -0.100597,0.121267 -0.100597,0.3514 0,0.129535 0.03307,0.213595 0.03307,0.08406 0.107487,0.144694 0.05237,0.04272 0.118512,0.05788 0.06615,0.01378 0.141937,0.01378 0.08819,0 0.19017,-0.03032 0.101975,-0.03169 0.177767,-0.08268 0.0014,-0.02067 0.0028,-0.05374 0.0028,-0.03445 0.0028,-0.07579 z m -1.054199,-0.176389 q 0,-0.158475 0.05099,-0.289388 0.05236,-0.130914 0.141938,-0.225998 0.08544,-0.09095 0.208084,-0.141938 0.124023,-0.05099 0.250803,-0.05099 0.141938,0 0.256315,0.04823 0.115755,0.04685 0.199815,0.136425 0.106109,0.112999 0.163987,0.296279 0.05926,0.183279 0.05926,0.46302 0,0.254937 -0.05788,0.483692 -0.0565,0.227376 -0.168121,0.377582 -0.118511,0.159853 -0.285254,0.243913 -0.165364,0.08406 -0.409277,0.08406 -0.05512,0 -0.117133,-0.0069 -0.06201,-0.0055 -0.115755,-0.02205 v -0.263206 h 0.01378 q 0.03445,0.01929 0.107487,0.03721 0.07304,0.01792 0.148828,0.01792 0.270096,0 0.424436,-0.177767 0.15434,-0.177767 0.175011,-0.508496 -0.110243,0.07441 -0.21084,0.108865 -0.09922,0.03445 -0.216352,0.03445 -0.114377,0 -0.208084,-0.02481 -0.09371,-0.02481 -0.188791,-0.09646 -0.110243,-0.08406 -0.166743,-0.212218 -0.0565,-0.129535 -0.0565,-0.311436 z"
       style="stroke-width:0.26458332;stroke:#0000ff"
       id="path1465" />
  </g>
  <g
     aria-label=".19"
     style="font-style:normal;font-variant:normal;font-weight:normal;font-stretch:normal;font-size:2.82222223px;line-height:1.25;font-family:Tahoma;-inkscape-font-specification:'Tahoma, Normal';font-variant-ligatures:normal;font-variant-caps:normal;font-variant-numeric:normal;text-align:start;letter-spacing:0px;word-spacing:0px;writing-mode:lr-tb;text-anchor:start;fill:#000000;fill-opacity:1;stroke:#0000ff;stroke-width:0.26458332"
     id="text1316">
    <path
       d="m 25.120737,25.361923 h -0.329352 v -0.392741 h 0.329352 z"
       style="stroke-width:0.26458332;stroke:#0000ff"
       id="path1482" />
    <path
       d="m 26.695834,25.361923 h -1.000455 v -0.209462 h 0.37207 v -1.375282 h -0.37207 v -0.187413 q 0.210839,0 0.310058,-0.05926 0.100597,-0.06063 0.112999,-0.227376 h 0.213596 v 1.849327 h 0.363802 z"
       style="stroke-width:0.26458332;stroke:#0000ff"
       id="path1484" />
    <path
       d="m 28.073873,24.153384 q 0,-0.209462 -0.03858,-0.340376 -0.03859,-0.132291 -0.106109,-0.203949 -0.06063,-0.06615 -0.122646,-0.09095 -0.06201,-0.02481 -0.136426,-0.02481 -0.169498,0 -0.270095,0.121268 -0.100597,0.121267 -0.100597,0.3514 0,0.129535 0.03307,0.213595 0.03307,0.08406 0.107487,0.144694 0.05236,0.04272 0.118511,0.05788 0.06615,0.01378 0.141938,0.01378 0.08819,0 0.19017,-0.03032 0.101974,-0.03169 0.177766,-0.08268 0.0014,-0.02067 0.0028,-0.05374 0.0028,-0.03445 0.0028,-0.07579 z m -1.0542,-0.176389 q 0,-0.158475 0.05099,-0.289388 0.05236,-0.130914 0.141938,-0.225998 0.08544,-0.09095 0.208083,-0.141938 0.124024,-0.05099 0.250803,-0.05099 0.141938,0 0.256316,0.04823 0.115755,0.04685 0.199815,0.136425 0.106109,0.112999 0.163987,0.296279 0.05926,0.183279 0.05926,0.46302 0,0.254937 -0.05788,0.483692 -0.0565,0.227376 -0.168121,0.377582 -0.118511,0.159853 -0.285254,0.243913 -0.165364,0.08406 -0.409277,0.08406 -0.05512,0 -0.117134,-0.0069 -0.06201,-0.0055 -0.115755,-0.02205 v -0.263206 h 0.01378 q 0.03445,0.01929 0.107487,0.03721 0.07304,0.01792 0.148828,0.01792 0.270095,0 0.424436,-0.177767 0.15434,-0.177767 0.17501,-0.508496 -0.110243,0.07441 -0.210839,0.108865 -0.09922,0.03445 -0.216352,0.03445 -0.114378,0 -0.208084,-0.02481 -0.09371,-0.02481 -0.188791,-0.09646 -0.110244,-0.08406 -0.166743,-0.212218 -0.0565,-0.129535 -0.0565,-0.311436 z"
       style="stroke-width:0.26458332;stroke:#0000ff"
       id="path1486" />
  </g>
  <g
     id="g1366"
     inkscape:groupmode="layer"
     inkscape:label="newlayer" />
  <path
     id="path1368"
     inkscape:label="part"
     style="fill:none;stroke:#000000;stroke-width:0.0508"
     d="m 10.317199,4.1700001 h 2.91 v 0 l 0.0328,0 v 0 h 6.08"
     inkscape:connector-curvature="0"
     sodipodi:nodetypes="cccccc" />
  <path
     id="path1370"
     inkscape:label="part"
     style="fill:none;stroke:#000000;stroke-width:0.0508"
     d="m 19.34,4.1700001 v 3.09 H 16.17 V 13.08 h 3.17 v 3.09"
     inkscape:connector-curvature="0"
     sodipodi:nodetypes="cccccc" />
  <path
     id="path1372"
     inkscape:label="part"
     style="fill:none;stroke:#000000;stroke-width:0.0508"
     d="m 19.34,16.17 h -6.08 v 0 l -0.0328,0 v 0 h -2.91"
     inkscape:connector-curvature="0"
     sodipodi:nodetypes="cccccc" />
  <path
     id="path1374"
     inkscape:label="part"
     style="fill:none;stroke:#000000;stroke-width:0.0508"
     d="m 10.317199,16.17 v -2.91 0 -6.1799999 0 -2.91"
     inkscape:connector-curvature="0"
     sodipodi:nodetypes="cccccc" />
  <path
     id="path1376"
     inkscape:label="part"
     style="fill:none;stroke:#000000;stroke-width:0.0508"
     d="m 23.51,4.1700001 h 2.91 v 0 l 1.369149,0 v 0 h 2.91"
     inkscape:connector-curvature="0"
     sodipodi:nodetypes="cccccc" />
  <path
     id="path1378"
     inkscape:label="part"
     style="fill:none;stroke:#000000;stroke-width:0.0508"
     d="m 30.699149,4.1700001 v 2.91 0 6.1799999 0 2.91"
     inkscape:connector-curvature="0"
     sodipodi:nodetypes="cccccc" />
  <path
     id="path1380"
     inkscape:label="part"
     style="fill:none;stroke:#000000;stroke-width:0.0508"
     d="m 30.699149,16.17 h -2.91 v 0 l -1.369149,0 v 0 h -2.91"
     inkscape:connector-curvature="0"
     sodipodi:nodetypes="cccccc" />
  <path
     id="path1382"
     inkscape:label="part"
     style="fill:none;stroke:#000000;stroke-width:0.0508"
     d="M 23.51,16.17 V 13.26 H 20.34 V 7.0800001 h 3.17 v -2.91"
     inkscape:connector-curvature="0"
     sodipodi:nodetypes="cccccc" />
  <g
     aria-label=".18"
     style="font-style:normal;font-variant:normal;font-weight:normal;font-stretch:normal;font-size:2.82222223px;line-height:1.25;font-family:Tahoma;-inkscape-font-specification:'Tahoma, Normal';font-variant-ligatures:normal;font-variant-caps:normal;font-variant-numeric:normal;text-align:start;letter-spacing:0px;word-spacing:0px;writing-mode:lr-tb;text-anchor:start;fill:#000000;fill-opacity:1;stroke:#0000ff;stroke-width:0.26458332"
     id="text1443">
    <path
       d="M 11.749681,11.19595 H 11.42033 v -0.392741 h 0.329351 z"
       style="stroke-width:0.26458332;stroke:#0000ff"
       id="path1468" />
    <path
       d="m 13.324779,11.19595 h -1.000456 v -0.209462 h 0.37207 V 9.6112056 h -0.37207 V 9.4237924 q 0.21084,0 0.310059,-0.059256 0.100596,-0.060634 0.112999,-0.2273763 h 0.213596 v 1.8493275 h 0.363802 z"
       style="stroke-width:0.26458332;stroke:#0000ff"
       id="path1470" />
    <path
       d="m 14.673878,9.6222299 q 0,-0.1378038 -0.09233,-0.2301323 -0.09233,-0.092329 -0.256315,-0.092329 -0.150207,0 -0.246669,0.082682 -0.09509,0.082682 -0.09509,0.2232422 0,0.1019748 0.04823,0.1722547 0.04961,0.07028 0.14745,0.1267796 0.04272,0.023427 0.129536,0.064768 0.08819,0.041341 0.159852,0.064767 0.11989,-0.092328 0.162609,-0.1887909 0.04272,-0.097841 0.04272,-0.2232422 z m 0.03858,1.0280161 q 0,-0.126779 -0.04961,-0.201193 -0.04961,-0.07441 -0.191547,-0.151584 -0.04685,-0.02618 -0.125402,-0.0565 -0.07717,-0.03032 -0.175011,-0.07166 -0.114377,0.07579 -0.175011,0.187413 -0.06063,0.110243 -0.06063,0.252181 0,0.186035 0.111621,0.307303 0.112999,0.121267 0.282498,0.121267 0.173632,0 0.278363,-0.103353 0.104731,-0.104731 0.104731,-0.283876 z m -0.38585,0.592557 q -0.152963,0 -0.278364,-0.04547 -0.125402,-0.04548 -0.213596,-0.130914 -0.08682,-0.08268 -0.132292,-0.195681 -0.0441,-0.114378 -0.0441,-0.241157 0,-0.166743 0.08819,-0.305925 0.08957,-0.14056 0.259072,-0.223242 v -0.0083 q -0.151585,-0.08819 -0.224621,-0.1929254 -0.07304,-0.1047309 -0.07304,-0.2618272 0,-0.2315105 0.175011,-0.3858507 0.175011,-0.1543403 0.443729,-0.1543403 0.279741,0 0.447862,0.1474501 0.169499,0.146072 0.169499,0.3748264 0,0.1378038 -0.08131,0.2728515 -0.07993,0.1350476 -0.23151,0.2108396 v 0.0083 q 0.179145,0.08406 0.271474,0.20395 0.09233,0.119889 0.09233,0.308681 0,0.263205 -0.191547,0.440972 -0.19017,0.177767 -0.476801,0.177767 z"
       style="stroke-width:0.26458332;stroke:#0000ff"
       id="path1472" />
  </g>
  <g
     aria-label=".18"
     style="font-style:normal;font-variant:normal;font-weight:normal;font-stretch:normal;font-size:2.82222223px;line-height:1.25;font-family:Tahoma;-inkscape-font-specification:'Tahoma, Normal';font-variant-ligatures:normal;font-variant-caps:normal;font-variant-numeric:normal;text-align:start;letter-spacing:0px;word-spacing:0px;writing-mode:lr-tb;text-anchor:start;fill:#000000;fill-opacity:1;stroke:#0000ff;stroke-width:0.26458332"
     id="text1447">
    <path
       d="m 25.113157,11.19595 h -0.329351 v -0.392741 h 0.329351 z"
       style="stroke-width:0.26458332;stroke:#0000ff"
       id="path1475" />
    <path
       d="m 26.688254,11.19595 h -1.000455 v -0.209462 h 0.37207 V 9.6112056 h -0.37207 V 9.4237924 q 0.21084,0 0.310058,-0.059256 0.100597,-0.060634 0.112999,-0.2273763 h 0.213596 v 1.8493275 h 0.363802 z"
       style="stroke-width:0.26458332;stroke:#0000ff"
       id="path1477" />
    <path
       d="m 28.037354,9.6222299 q 0,-0.1378038 -0.09233,-0.2301323 -0.09233,-0.092329 -0.256315,-0.092329 -0.150206,0 -0.246669,0.082682 -0.09508,0.082682 -0.09508,0.2232422 0,0.1019748 0.04823,0.1722547 0.04961,0.07028 0.14745,0.1267796 0.04272,0.023427 0.129536,0.064768 0.08819,0.041341 0.159852,0.064767 0.11989,-0.092328 0.162609,-0.1887909 0.04272,-0.097841 0.04272,-0.2232422 z m 0.03859,1.0280161 q 0,-0.126779 -0.04961,-0.201193 -0.04961,-0.07441 -0.191548,-0.151584 -0.04685,-0.02618 -0.125401,-0.0565 -0.07717,-0.03032 -0.175011,-0.07166 -0.114377,0.07579 -0.175011,0.187413 -0.06063,0.110243 -0.06063,0.252181 0,0.186035 0.111621,0.307303 0.112999,0.121267 0.282497,0.121267 0.173633,0 0.278364,-0.103353 0.104731,-0.104731 0.104731,-0.283876 z m -0.385851,0.592557 q -0.152962,0 -0.278363,-0.04547 -0.125402,-0.04548 -0.213596,-0.130914 -0.08682,-0.08268 -0.132292,-0.195681 -0.0441,-0.114378 -0.0441,-0.241157 0,-0.166743 0.08819,-0.305925 0.08957,-0.14056 0.259071,-0.223242 v -0.0083 q -0.151584,-0.08819 -0.22462,-0.1929254 -0.07304,-0.1047309 -0.07304,-0.2618272 0,-0.2315105 0.175011,-0.3858507 0.175011,-0.1543403 0.443728,-0.1543403 0.279742,0 0.447863,0.1474501 0.169498,0.146072 0.169498,0.3748264 0,0.1378038 -0.0813,0.2728515 -0.07993,0.1350476 -0.23151,0.2108396 v 0.0083 q 0.179145,0.08406 0.271473,0.20395 0.09233,0.119889 0.09233,0.308681 0,0.263205 -0.191547,0.440972 -0.19017,0.177767 -0.476802,0.177767 z"
       style="stroke-width:0.26458332;stroke:#0000ff"
       id="path1479" />
  </g>
  <rect
     style="fill:#000000;stroke:#0000ff;stroke-width:0.17638889;stroke-miterlimit:4;stroke-dasharray:none;stroke-opacity:1"
     id="rect1501"
     width="2.2444687"
     height="1.7038223"
     x="10.317199"
     y="13.26" />
  <rect
     y="27.158016"
     x="10.317199"
     height="1.7038223"
     width="2.2444687"
     id="rect1503"
     style="fill:#000000;stroke:#ff00ff;stroke-width:0.17638889;stroke-miterlimit:4;stroke-dasharray:none;stroke-opacity:1" />
</svg>
