<?xml version="1.0" encoding="UTF-8" standalone="no"?>
<svg
   xmlns:dc="http://purl.org/dc/elements/1.1/"
   xmlns:cc="http://creativecommons.org/ns#"
   xmlns:rdf="http://www.w3.org/1999/02/22-rdf-syntax-ns#"
   xmlns:svg="http://www.w3.org/2000/svg"
   xmlns="http://www.w3.org/2000/svg"
   xmlns:sodipodi="http://sodipodi.sourceforge.net/DTD/sodipodi-0.dtd"
   xmlns:inkscape="http://www.inkscape.org/namespaces/inkscape"
   width="793.700787402"
   height="1122.51968504"
   version="1.1"
   id="svg4033"
   sodipodi:docname="Translation Gears.svg"
   inkscape:version="0.92.3 (2405546, 2018-03-11)">
  <metadata
     id="metadata4037">
    <rdf:RDF>
      <cc:Work
         rdf:about="">
        <dc:format>image/svg+xml</dc:format>
        <dc:type
           rdf:resource="http://purl.org/dc/dcmitype/StillImage" />
        <dc:title></dc:title>
      </cc:Work>
    </rdf:RDF>
  </metadata>
  <sodipodi:namedview
     pagecolor="#ffffff"
     bordercolor="#666666"
     borderopacity="1"
     objecttolerance="10"
     gridtolerance="10"
     guidetolerance="10"
     inkscape:pageopacity="0"
     inkscape:pageshadow="2"
     inkscape:window-width="1920"
     inkscape:window-height="1137"
     id="namedview4035"
     showgrid="false"
     inkscape:zoom="1.1817453"
     inkscape:cx="823.89445"
     inkscape:cy="1915.5534"
     inkscape:window-x="-8"
     inkscape:window-y="-8"
     inkscape:window-maximized="1"
     inkscape:current-layer="g4029" />
  <desc
     id="desc4009">C:\Users\Matt\Downloads\InvoluteGear_1.dxf - scale = 25.400000, origin = (0.000000, 0.000000), method = file</desc>
  <defs
     id="defs4021">
    <marker
       id="DistanceX"
       orient="auto"
       refX="0.0"
       refY="0.0"
       style="overflow:visible">
      <path
         d="M 3,-3 L -3,3 M 0,-5 L  0,5"
         style="stroke:#000000; stroke-width:0.5"
         id="path4011" />
    </marker>
    <pattern
       height="8"
       id="Hatch"
       patternUnits="userSpaceOnUse"
       width="8"
       x="0"
       y="0">
      <path
         d="M8 4 l-4,4"
         linecap="square"
         stroke="#000000"
         stroke-width="0.25"
         id="path4014" />
      <path
         d="M6 2 l-4,4"
         linecap="square"
         stroke="#000000"
         stroke-width="0.25"
         id="path4016" />
      <path
         d="M4 0 l-4,4"
         linecap="square"
         stroke="#000000"
         stroke-width="0.25"
         id="path4018" />
    </pattern>
    <clipPath
       clipPathUnits="userSpaceOnUse"
       id="clipPath4060">
      <rect
         y="-5139.6182"
         x="-1550.944"
         height="8665.5889"
         width="2546.6118"
         id="rect4062"
         style="fill:#ffffff;stroke-width:1.05127549" />
    </clipPath>
  </defs>
  <g
     inkscape:groupmode="layer"
     inkscape:label="OpenJsCad"
     id="g4029">
    <path
       d="m -249.26199,16758.495 493.72398,-168.863 v -214.224 l -493.72398,-168.864 v -216.049 l 493.72398,-168.863 v -214.224 l -493.72398,-168.864 v -216.049 l 493.72398,-168.863 v -214.224 l -493.72398,-168.864 v -216.049 l 493.72398,-168.863 v -214.224 l -493.72398,-168.864 v -216.049 l 493.72398,-168.863 v -214.224 l -493.72398,-168.864 v -216.049 l 493.72398,-168.863 v -214.224 l -493.72398,-168.864 v -216.049 l 493.72398,-168.863 v -214.224 l -493.72398,-168.864 v -216.049 l 493.72398,-168.863 v -214.224 l -493.72398,-168.864 v -216.049 l 493.72398,-168.863 v -214.224 l -493.72398,-168.864 V 9846.4953 L 244.46199,9677.6317 V 9463.4076 L -249.26199,9294.5441 V 9078.4953 L 244.46199,8909.6317 V 8695.4076 L -249.26199,8526.5441 V 8310.4953 L 244.46199,8141.6317 V 7927.4076 L -249.26199,7758.5441 V 7542.4953 L 244.46199,7373.6317 V 7159.4076 L -249.26199,6990.5441 V 6774.4953 L 244.46199,6605.6317 V 6391.4076 L -249.26199,6222.5441 V 6006.4953 L 244.46199,5837.6317 V 5623.4076 L -249.26199,5454.5441 V 5238.4953 L 244.46199,5069.6317 V 4855.4076 L -249.26199,4686.5441 V 4470.4953 L 244.46199,4301.6317 V 4087.4076 L -249.26199,3918.5441 V 3702.4953 L 244.46199,3533.6317 V 3319.4076 L -249.26199,3150.5441 V 2934.4953 L 244.46199,2765.6317 V 2551.4076 L -249.26199,2382.5441 V 2166.4953 L 244.46199,1997.6317 V 1783.4076 L -249.26199,1614.5441 V 1398.4953 L 244.46199,1229.6317 V 1015.4076 L -249.26199,846.54408 V 630.49529 L 244.46199,461.63175 V 247.40762 L -249.26199,78.544076 V -137.50471 l 493.72398,-168.86354 v -214.22413 l -493.72398,-168.86354 v -216.04879 l 493.72398,-168.86359 v -214.2241 l -493.72398,-168.8635 v -216.0488 l 493.72398,-168.8636 v -214.2241 l -493.72398,-168.8635 v -216.0488 l 493.72398,-168.8636 v -214.2241 l -493.72398,-168.8635 v -216.0488 l 493.72398,-168.8636 v -214.2241 l -493.72398,-168.8635 v -216.0488 l 493.72398,-168.8636 v -214.2241 l -493.72398,-168.8635 v -216.0488 l 493.72398,-168.8636 v -214.2241 l -493.72398,-168.8635 v -216.0488 l 493.72398,-168.8636 v -214.2241 l -493.72398,-168.8635 v -216.0488 l 493.72398,-168.8636 v -214.2241 l -493.72398,-168.8635 v -216.0488 l 493.72398,-168.8636 v -214.2241 l -493.72398,-168.8635 v -216.0488 l 493.72398,-168.8636 v -214.2241 l -493.72398,-168.8635 v -216.0488 l 493.72398,-168.8636 v -214.2241 l -493.72398,-168.8635 v -216.0488 l 493.72398,-168.8636 v -214.2241 l -493.72398,-168.8635 v -216.0491 l 493.72398,-168.863 v -214.224 l -493.72398,-168.864 v -216.049 l 493.72398,-168.863 v -214.224 l -493.72398,-168.864 v -216.049 l 493.72398,-168.863 v -214.224 l -493.72398,-168.864 v -216.049 l 493.72398,-168.863 v -214.224 l -493.72398,-168.864 v -216.049 l 493.72398,-168.863 v -214.224 l -493.72398,-168.864 v -216.049 l 493.72398,-168.863 v -214.224 l -493.72398,-168.864 v -108.024 H -1227.11 v 31488 h 977.84801 v -108.025 z"
       style="fill:#000000;stroke:#000000"
       id="path4023"
       clip-path="url(#clipPath4060)"
       inkscape:connector-curvature="0"
       transform="matrix(0.09302326,0,0,0.09302326,638.56589,-735.89692)" />
    <path
       d="m 625.23185,-680.22732 -2.72857,6.58735 -1.66449,6.93309 2.85912,3.56643 3.12076,3.42747 3.02461,2.92918 2.8794,2.45766 2.6882,2.01701 2.45436,1.6111 2.18156,1.24342 1.87373,0.91718 1.53505,0.63527 1.1699,0.40013 0.70555,0.19277 3.25575,-0.15458 3.41612,0.3158 2.95856,0.6549 2.47361,0.93727 1.96659,1.16096 1.44299,1.32438 0.9084,1.42647 0.36846,1.4666 -0.36846,5.85639 v 5.68917 l 0.36846,5.85639 -0.36846,1.4666 -0.9084,1.42647 -1.44299,1.32438 -1.96659,1.16096 -2.47361,0.93727 -2.95856,0.65489 -3.41612,0.31581 -3.25575,-0.15458 -0.70555,0.19277 -1.1699,0.40013 -1.53505,0.63526 -1.87373,0.91719 -2.18156,1.24342 -2.45436,1.6111 -2.6882,2.01701 -2.8794,2.45766 -3.02461,2.92918 -3.12076,3.42747 -2.85912,3.56643 1.66449,6.93309 2.72857,6.58735 4.40937,1.20476 4.53936,0.93854 4.16869,0.59194 3.77406,0.29581 3.36037,0.0517 2.9326,-0.13924 2.49579,-0.27634 2.05498,-0.35933 1.61528,-0.38834 1.18166,-0.36394 0.68411,-0.25875 2.5431,-2.03874 2.94932,-1.75245 2.77847,-1.20918 2.5521,-0.69568 2.2734,-0.2167 1.94586,0.22327 1.57337,0.6201 1.16013,0.96993 3.14421,4.95449 3.34401,4.60264 3.74039,4.52134 0.56396,1.40308 0.10354,1.68798 -0.38895,1.91962 -0.90861,2.09517 -1.45027,2.21222 -2.0086,2.26882 -2.57807,2.26343 -2.72482,1.78863 -0.45749,0.57067 -0.71128,1.01136 -0.86848,1.41621 -0.97677,1.84337 -1.03405,2.28824 -1.03865,2.74604 -0.98922,3.21189 -0.88492,3.68075 -0.72523,4.14758 -0.51013,4.60722 -0.21678,4.56585 5.42177,4.63062 6.07941,3.72547 4.27539,-1.6171 4.22408,-1.90887 3.72047,-1.9714 3.22716,-1.97902 2.749,-1.93334 2.29068,-1.83638 1.8567,-1.69055 1.45131,-1.4986 1.07853,-1.26361 0.74206,-0.98899 0.40137,-0.61145 0.85907,-3.14416 1.35598,-3.15134 1.53709,-2.61139 1.65579,-2.06291 1.71184,-1.51158 1.70547,-0.96311 1.63737,-0.42314 1.50868,0.10279 5.4559,2.16014 5.41071,1.75805 5.68362,1.4593 1.28096,0.80363 1.07595,1.30474 0.81365,1.78163 0.49642,2.22909 0.12702,2.64217 -0.29141,3.01614 -0.75529,3.34651 -1.1531,3.04864 -0.0347,0.73058 0.019,1.23629 0.12982,1.65622 0.29328,2.06545 0.50842,2.45903 0.77381,2.83209 1.08759,3.17992 1.44759,3.49794 1.85116,3.78174 2.29535,4.02716 2.50836,3.82127 7.10812,0.55942 7.10811,-0.55942 2.50836,-3.82127 2.29535,-4.02716 1.85116,-3.78174 1.44759,-3.49794 1.0876,-3.17992 0.7738,-2.83209 0.50842,-2.45903 0.29328,-2.06545 0.12982,-1.65622 0.019,-1.23629 -0.0347,-0.73058 -1.1531,-3.04864 -0.75529,-3.34651 -0.29141,-3.01614 0.12702,-2.64217 0.49642,-2.22909 0.81366,-1.78163 1.07594,-1.30474 1.28096,-0.80363 5.68362,-1.4593 5.41072,-1.75805 5.4559,-2.16014 1.50867,-0.10279 1.63737,0.42314 1.70547,0.96311 1.71185,1.51158 1.65578,2.06291 1.53709,2.61139 1.35599,3.15134 0.85906,3.14416 0.40137,0.61145 0.74207,0.98899 1.07852,1.26361 1.45131,1.4986 1.8567,1.69055 2.29069,1.83638 2.74899,1.93334 3.22716,1.97902 3.72047,1.9714 4.22408,1.90887 4.2754,1.6171 6.0794,-3.72547 5.42177,-4.63062 -0.21678,-4.56585 -0.51013,-4.60722 -0.72523,-4.14758 -0.88491,-3.68075 -0.98923,-3.21189 -1.03865,-2.74604 -1.03405,-2.28824 -0.97677,-1.84337 -0.86848,-1.41621 -0.71128,-1.01136 -0.45749,-0.57067 -2.72481,-1.78863 -2.57808,-2.26343 -2.00859,-2.26882 -1.45028,-2.21222 -0.90861,-2.09517 -0.38895,-1.91962 0.10354,-1.68798 0.56397,-1.40308 3.74038,-4.52134 3.34401,-4.60264 3.14421,-4.95449 1.16013,-0.96993 1.57337,-0.6201 1.94586,-0.22327 2.2734,0.2167 2.55211,0.69568 2.77846,1.20918 2.94933,1.75245 2.54309,2.03874 0.68411,0.25875 1.18166,0.36394 1.61528,0.38834 2.05499,0.35933 2.49578,0.27634 2.9326,0.13924 3.36037,-0.0517 3.77406,-0.29581 4.16869,-0.59194 4.53936,-0.93854 4.40937,-1.20476 2.72857,-6.58735 1.66449,-6.93309 -2.85912,-3.56643 -3.12076,-3.42747 -3.0246,-2.92918 -2.87941,-2.45766 -2.6882,-2.01701 -2.45436,-1.6111 -2.18156,-1.24342 -1.87373,-0.91719 -1.53505,-0.63526 -1.1699,-0.40013 -0.70554,-0.19277 -3.25575,0.15458 -3.41613,-0.31581 -2.95856,-0.65489 -2.47361,-0.93727 -1.96658,-1.16096 -1.443,-1.32438 -0.9084,-1.42647 -0.36845,-1.4666 0.36845,-5.85639 v -5.68917 l -0.36845,-5.85639 0.36845,-1.4666 0.9084,-1.42647 1.443,-1.32438 1.96658,-1.16096 2.47361,-0.93727 2.95856,-0.6549 3.41613,-0.3158 3.25575,0.15458 0.70554,-0.19277 1.1699,-0.40013 1.53505,-0.63527 1.87373,-0.91718 2.18156,-1.24342 2.45436,-1.6111 2.6882,-2.01701 2.87941,-2.45766 3.0246,-2.92918 3.12076,-3.42747 2.85912,-3.56643 -1.66449,-6.93309 -2.72857,-6.58735 -4.40937,-1.20476 -4.53936,-0.93854 -4.16869,-0.59194 -3.77406,-0.29581 -3.36037,-0.0517 -2.9326,0.13924 -2.49578,0.27634 -2.05499,0.35933 -1.61528,0.38834 -1.18166,0.36393 -0.68411,0.25876 -2.54309,2.03874 -2.94933,1.75245 -2.77846,1.20918 -2.55211,0.69568 -2.2734,0.2167 -1.94586,-0.22328 -1.57337,-0.62009 -1.16013,-0.96993 -3.14421,-4.95449 -3.34401,-4.60264 -3.74038,-4.52134 -0.56397,-1.40308 -0.10354,-1.68799 0.38895,-1.91961 0.90861,-2.09517 1.45028,-2.21222 2.00859,-2.26882 2.57808,-2.26343 2.72481,-1.78863 0.45749,-0.57067 0.71128,-1.01136 0.86848,-1.41621 0.97677,-1.84337 1.03405,-2.28824 1.03865,-2.74604 0.98923,-3.21189 0.88491,-3.68075 0.72523,-4.14758 0.51013,-4.60722 0.21678,-4.56585 -5.42177,-4.63063 -6.0794,-3.72546 -4.2754,1.6171 -4.22408,1.90887 -3.72047,1.9714 -3.22716,1.97902 -2.74899,1.93334 -2.29069,1.83638 -1.8567,1.69055 -1.45131,1.4986 -1.07852,1.26361 -0.74207,0.98899 -0.40137,0.61145 -0.85906,3.14416 -1.35599,3.15134 -1.53709,2.61139 -1.65578,2.0629 -1.71185,1.51159 -1.70547,0.96311 -1.63737,0.42314 -1.50867,-0.10279 -5.4559,-2.16014 -5.41072,-1.75805 -5.68362,-1.4593 -1.28096,-0.80363 -1.07594,-1.30474 -0.81366,-1.78163 -0.49642,-2.22909 -0.12702,-2.64217 0.29141,-3.01614 0.75529,-3.34651 1.1531,-3.04864 0.0347,-0.73058 -0.019,-1.23629 -0.12982,-1.65622 -0.29328,-2.06545 -0.50842,-2.45903 -0.7738,-2.83209 -1.0876,-3.17992 -1.44759,-3.49794 -1.85116,-3.78174 -2.29535,-4.02716 -2.50836,-3.82127 -7.10811,-0.55942 -7.10812,0.55942 -2.50836,3.82127 -2.29535,4.02716 -1.85116,3.78174 -1.44759,3.49794 -1.08759,3.17992 -0.77381,2.83209 -0.50842,2.45903 -0.29328,2.06545 -0.12982,1.65622 -0.019,1.23629 0.0347,0.73058 1.1531,3.04864 0.75529,3.34651 0.29141,3.01614 -0.12702,2.64217 -0.49642,2.22909 -0.81365,1.78163 -1.07595,1.30474 -1.28096,0.80363 -5.68362,1.4593 -5.41071,1.75805 -5.4559,2.16014 -1.50868,0.10279 -1.63737,-0.42314 -1.70547,-0.96311 -1.71184,-1.51159 -1.65579,-2.0629 -1.53709,-2.61139 -1.35598,-3.15134 -0.85907,-3.14416 -0.40137,-0.61145 -0.74206,-0.98899 -1.07853,-1.26361 -1.45131,-1.4986 -1.8567,-1.69055 -2.29068,-1.83638 -2.749,-1.93334 -3.22716,-1.97902 -3.72047,-1.9714 -4.22408,-1.90887 -4.27539,-1.6171 -6.07941,3.72546 -5.42177,4.63063 0.21678,4.56585 0.51013,4.60722 0.72523,4.14758 0.88492,3.68075 0.98922,3.21189 1.03865,2.74604 1.03405,2.28824 0.97677,1.84337 0.86848,1.41621 0.71128,1.01136 0.45749,0.57067 2.72482,1.78863 2.57807,2.26343 2.0086,2.26882 1.45027,2.21222 0.90861,2.09517 0.38895,1.91961 -0.10354,1.68799 -0.56396,1.40308 -3.74039,4.52134 -3.34401,4.60264 -3.14421,4.95449 -1.16013,0.96993 -1.57337,0.62009 -1.94586,0.22328 -2.2734,-0.2167 -2.5521,-0.69568 -2.77847,-1.20918 -2.94932,-1.75245 -2.5431,-2.03874 -0.68411,-0.25876 -1.18166,-0.36393 -1.61528,-0.38834 -2.05498,-0.35933 -2.49579,-0.27634 -2.9326,-0.13924 -3.36037,0.0517 -3.77406,0.29581 -4.16869,0.59194 -4.53936,0.93854 z"
       style="fill:#000000;stroke:#000000;stroke-width:0.09302326"
       id="path4025"
       inkscape:connector-curvature="0" />
    <path
       d="M 1126.309963,956.242808 L 1162.978700,939.916834 L 1202.240498,931.571481 L 1242.379428,931.571481 L 1281.641226,939.916834 L 1318.309963,956.242808 L 1350.783039,979.835879 L 1377.641226,1009.664917 L 1397.710691,1044.426250 L 1410.114302,1082.600640 L 1414.309963,1122.519685 L 1410.114302,1162.438730 L 1397.710691,1200.613121 L 1377.641226,1235.374453 L 1350.783039,1265.203492 L 1318.309963,1288.796563 L 1281.641226,1305.122536 L 1242.379428,1313.467889 L 1202.240498,1313.467889 L 1162.978700,1305.122536 L 1126.309963,1288.796563 L 1093.836887,1265.203492 L 1066.978700,1235.374453 L 1046.909235,1200.613121 L 1034.505624,1162.438730 L 1030.309963,1122.519685 L 1034.505624,1082.600640 L 1046.909235,1044.426250 L 1066.978700,1009.664917 L 1093.836887,979.835879 L 1126.309963,956.242808 L 1126.309963,956.242808 z"
       style="stroke:#000000;fill:none"
       id="path4027" />
  </g>
  <g
     inkscape:groupmode="layer"
     inkscape:label="0"
     id="g4031" />
</svg>
